<?xml version="1.0" encoding="UTF-8" standalone="no"?>
<!DOCTYPE svg PUBLIC "-//W3C//DTD SVG 1.1//EN"
 "http://www.w3.org/Graphics/SVG/1.1/DTD/svg11.dtd">
<!-- Generated by graphviz version 2.26.3 (20100126.1600)
 -->
<!-- Title: simpleanalyzer&#45;gui/src/processing/Analyzer.h Pages: 1 -->
<!--zoomable 348 -->
<svg id="main" version="1.1" xmlns="http://www.w3.org/2000/svg" xmlns:xlink="http://www.w3.org/1999/xlink" xml:space="preserve" onload="init(evt)">
<style type="text/css"><![CDATA[
.edge:hover path { stroke: red; }
.edge:hover polygon { stroke: red; fill: red; }
]]></style>
<script type="text/javascript"><![CDATA[
var edges = document.getElementsByTagName('g');
if (edges && edges.length) {
  for (var i=0;i<edges.length;i++) {
    if (edges[i].id.substr(0,4)=='edge') {
      edges[i].setAttribute('class','edge');
    }
  }
}
]]></script>
        <defs>
                <circle id="rim" cx="0" cy="0" r="7"/>
                <circle id="rim2" cx="0" cy="0" r="3.5"/>
                <g id="zoomPlus">
                        <use xlink:href="#rim" fill="#404040">
                                <set attributeName="fill" to="#808080" begin="zoomplus.mouseover" end="zoomplus.mouseout"/>
                        </use>
                        <path d="M-4,0h8M0,-4v8" fill="none" stroke="white" stroke-width="1.5" pointer-events="none"/>
                </g>
                <g id="zoomMin">
                        <use xlink:href="#rim" fill="#404040">
                                <set attributeName="fill" to="#808080" begin="zoomminus.mouseover" end="zoomminus.mouseout"/>
                        </use>
                        <path d="M-4,0h8" fill="none" stroke="white" stroke-width="1.5" pointer-events="none"/>
                </g>
                <g id="dirArrow">
                        <path fill="none" stroke="white" stroke-width="1.5" d="M0,-3.0v7 M-2.5,-0.5L0,-3.0L2.5,-0.5"/>
                </g>
               <g id="resetDef">
                       <use xlink:href="#rim2" fill="#404040">
                               <set attributeName="fill" to="#808080" begin="reset.mouseover" end="reset.mouseout"/>
                       </use>
               </g>
        </defs>

<script type="text/javascript">
var viewWidth = 662;
var viewHeight = 348;
var sectionId = 'dynsection-0';
</script>
<script xlink:href="svgpan.js"/>
<svg id="graph" class="graph">
<g id="viewport">
<title>simpleanalyzer&#45;gui/src/processing/Analyzer.h</title>
<!-- Node1 -->
<g id="node1" class="node"><title>Node1</title>
<polygon fill="#bfbfbf" stroke="black" points="153.5,-305 153.5,-339 286.5,-339 286.5,-305 153.5,-305"/>
<text text-anchor="start" x="161.5" y="-326" font-family="Helvetica,sans-Serif" font-size="10.00">simpleanalyzer&#45;gui</text>
<text text-anchor="middle" x="220" y="-313" font-family="Helvetica,sans-Serif" font-size="10.00">/src/processing/Analyzer.h</text>
</g>
<!-- Node2 -->
<g id="node3" class="node"><title>Node2</title>
<polygon fill="none" stroke="#bfbfbf" points="610,-123.5 610,-144.5 654,-144.5 654,-123.5 610,-123.5"/>
<text text-anchor="middle" x="632" y="-131.5" font-family="Helvetica,sans-Serif" font-size="10.00">vector</text>
</g>
<!-- Node1&#45;&gt;Node2 -->
<g id="edge2" class="edge"><title>Node1&#45;&gt;Node2</title>
<path fill="none" stroke="midnightblue" d="M262.588,-304.978C315.249,-283.707 407.428,-245.741 485,-210 537.351,-185.879 550.274,-179.374 601,-152 602.335,-151.28 603.697,-150.533 605.068,-149.772"/>
<polygon fill="midnightblue" stroke="midnightblue" points="607.105,-152.641 614.076,-144.662 603.651,-146.552 607.105,-152.641"/>
</g>
<!-- Node3 -->
<g id="node5" class="node"><title>Node3</title>
<polygon fill="none" stroke="#bfbfbf" points="162.5,-246.5 162.5,-267.5 203.5,-267.5 203.5,-246.5 162.5,-246.5"/>
<text text-anchor="middle" x="183" y="-254.5" font-family="Helvetica,sans-Serif" font-size="10.00">string</text>
</g>
<!-- Node1&#45;&gt;Node3 -->
<g id="edge4" class="edge"><title>Node1&#45;&gt;Node3</title>
<path fill="none" stroke="midnightblue" d="M210.279,-304.922C205.373,-296.304 199.395,-285.802 194.287,-276.828"/>
<polygon fill="midnightblue" stroke="midnightblue" points="197.166,-274.811 189.177,-267.852 191.083,-278.274 197.166,-274.811"/>
</g>
<!-- Node4 -->
<g id="node7" class="node"><title>Node4</title>
<polygon fill="none" stroke="#bfbfbf" points="249,-0.5 249,-21.5 303,-21.5 303,-0.5 249,-0.5"/>
<text text-anchor="middle" x="276" y="-8.5" font-family="Helvetica,sans-Serif" font-size="10.00">iostream</text>
</g>
<!-- Node1&#45;&gt;Node4 -->
<g id="edge6" class="edge"><title>Node1&#45;&gt;Node4</title>
<path fill="none" stroke="midnightblue" d="M153.396,-313.219C88.644,-300.502 0,-270.108 0,-199 0,-199 0,-199 0,-134 0,-82.3313 163.416,-37.3511 238.76,-19.3586"/>
<polygon fill="midnightblue" stroke="midnightblue" points="239.848,-22.6982 248.781,-17.001 238.245,-15.8843 239.848,-22.6982"/>
</g>
<!-- Node5 -->
<g id="node9" class="node"><title>Node5</title>
<a xlink:href="ObjectData_8h.xhtml" target="_top" xlink:title="ObjectData.h">
<polygon fill="none" stroke="black" points="221,-246.5 221,-267.5 295,-267.5 295,-246.5 221,-246.5"/>
<text text-anchor="middle" x="258" y="-254.5" font-family="Helvetica,sans-Serif" font-size="10.00">ObjectData.h</text>
</a>
</g>
<!-- Node1&#45;&gt;Node5 -->
<g id="edge8" class="edge"><title>Node1&#45;&gt;Node5</title>
<path fill="none" stroke="midnightblue" d="M229.984,-304.922C235.076,-296.212 241.293,-285.578 246.575,-276.542"/>
<polygon fill="midnightblue" stroke="midnightblue" points="249.63,-278.252 251.656,-267.852 243.587,-274.719 249.63,-278.252"/>
</g>
<!-- Node5&#45;&gt;Node2 -->
<g id="edge12" class="edge"><title>Node5&#45;&gt;Node2</title>
<path fill="none" stroke="midnightblue" d="M295.033,-248.624C359.013,-233.509 493.697,-198.837 601,-152 602.797,-151.216 604.621,-150.352 606.438,-149.44"/>
<polygon fill="midnightblue" stroke="midnightblue" points="608.191,-152.471 615.311,-144.626 604.852,-146.318 608.191,-152.471"/>
</g>
<!-- Node6 -->
<g id="node11" class="node"><title>Node6</title>
<polygon fill="none" stroke="#bfbfbf" points="27.5,-117 27.5,-151 116.5,-151 116.5,-117 27.5,-117"/>
<text text-anchor="start" x="35.5" y="-138" font-family="Helvetica,sans-Serif" font-size="10.00">../libraries/tetgen</text>
<text text-anchor="middle" x="72" y="-125" font-family="Helvetica,sans-Serif" font-size="10.00">/tetgen.h</text>
</g>
<!-- Node5&#45;&gt;Node6 -->
<g id="edge10" class="edge"><title>Node5&#45;&gt;Node6</title>
<path fill="none" stroke="midnightblue" d="M251.536,-246.277C242.092,-231.402 223.21,-204.481 201,-188 188.377,-178.633 155.52,-164.926 126.128,-153.667"/>
<polygon fill="midnightblue" stroke="midnightblue" points="127.328,-150.379 116.737,-150.106 124.846,-156.924 127.328,-150.379"/>
</g>
<!-- Node7 -->
<g id="node14" class="node"><title>Node7</title>
<a xlink:href="Interpolator_8h.xhtml" target="_top" xlink:title="../libraries/interpolate\l/Interpolator.h">
<polygon fill="none" stroke="black" points="133.5,-117 133.5,-151 240.5,-151 240.5,-117 133.5,-117"/>
<text text-anchor="start" x="141.5" y="-138" font-family="Helvetica,sans-Serif" font-size="10.00">../libraries/interpolate</text>
<text text-anchor="middle" x="187" y="-125" font-family="Helvetica,sans-Serif" font-size="10.00">/Interpolator.h</text>
</a>
</g>
<!-- Node5&#45;&gt;Node7 -->
<g id="edge14" class="edge"><title>Node5&#45;&gt;Node7</title>
<path fill="none" stroke="midnightblue" d="M255.598,-246.173C252.179,-232.107 245.07,-207.091 234,-188 227.986,-177.628 219.83,-167.405 212.001,-158.691"/>
<polygon fill="midnightblue" stroke="midnightblue" points="214.352,-156.081 204.974,-151.152 209.232,-160.854 214.352,-156.081"/>
</g>
<!-- Node9 -->
<g id="node19" class="node"><title>Node9</title>
<polygon fill="none" stroke="#bfbfbf" points="127.5,-188.5 127.5,-209.5 192.5,-209.5 192.5,-188.5 127.5,-188.5"/>
<text text-anchor="middle" x="160" y="-196.5" font-family="Helvetica,sans-Serif" font-size="10.00">wx/string.h</text>
</g>
<!-- Node5&#45;&gt;Node9 -->
<g id="edge20" class="edge"><title>Node5&#45;&gt;Node9</title>
<path fill="none" stroke="midnightblue" d="M240.025,-246.362C225.106,-237.532 203.667,-224.844 186.734,-214.822"/>
<polygon fill="midnightblue" stroke="midnightblue" points="188.249,-211.652 177.861,-209.571 184.684,-217.676 188.249,-211.652"/>
</g>
<!-- Node10 -->
<g id="node21" class="node"><title>Node10</title>
<a xlink:href="utils_8h.xhtml" target="_top" xlink:title="utils.h">
<polygon fill="none" stroke="black" points="356.5,-188.5 356.5,-209.5 399.5,-209.5 399.5,-188.5 356.5,-188.5"/>
<text text-anchor="middle" x="378" y="-196.5" font-family="Helvetica,sans-Serif" font-size="10.00">utils.h</text>
</a>
</g>
<!-- Node5&#45;&gt;Node10 -->
<g id="edge22" class="edge"><title>Node5&#45;&gt;Node10</title>
<path fill="none" stroke="midnightblue" d="M279.731,-246.497C298.591,-237.381 326.108,-224.081 347.23,-213.872"/>
<polygon fill="midnightblue" stroke="midnightblue" points="348.95,-216.928 356.431,-209.425 345.904,-210.626 348.95,-216.928"/>
</g>
<!-- Node8 -->
<g id="node16" class="node"><title>Node8</title>
<a xlink:href="GeometryClasses_8h.xhtml" target="_top" xlink:title="GeometryClasses.h">
<polygon fill="none" stroke="black" points="224,-58.5 224,-79.5 328,-79.5 328,-58.5 224,-58.5"/>
<text text-anchor="middle" x="276" y="-66.5" font-family="Helvetica,sans-Serif" font-size="10.00">GeometryClasses.h</text>
</a>
</g>
<!-- Node7&#45;&gt;Node8 -->
<g id="edge16" class="edge"><title>Node7&#45;&gt;Node8</title>
<path fill="none" stroke="midnightblue" d="M210.384,-116.922C223.65,-107.233 240.175,-95.1645 253.322,-85.5623"/>
<polygon fill="midnightblue" stroke="midnightblue" points="255.395,-88.3828 261.406,-79.6584 251.266,-82.7298 255.395,-88.3828"/>
</g>
<!-- Node8&#45;&gt;Node4 -->
<g id="edge18" class="edge"><title>Node8&#45;&gt;Node4</title>
<path fill="none" stroke="midnightblue" d="M276,-58.3619C276,-50.9219 276,-40.7427 276,-31.7276"/>
<polygon fill="midnightblue" stroke="midnightblue" points="279.5,-31.5706 276,-21.5707 272.5,-31.5707 279.5,-31.5706"/>
</g>
<!-- Node10&#45;&gt;Node2 -->
<g id="edge26" class="edge"><title>Node10&#45;&gt;Node2</title>
<path fill="none" stroke="midnightblue" d="M399.548,-196.766C440.107,-192.063 530.09,-179.251 601,-152 603.077,-151.202 605.178,-150.276 607.257,-149.273"/>
<polygon fill="midnightblue" stroke="midnightblue" points="608.917,-152.354 616.076,-144.543 605.609,-146.185 608.917,-152.354"/>
</g>
<!-- Node10&#45;&gt;Node4 -->
<g id="edge24" class="edge"><title>Node10&#45;&gt;Node4</title>
<path fill="none" stroke="midnightblue" d="M386.596,-188.493C398.604,-172.456 417.686,-141.09 406,-116 386.266,-73.6331 339.889,-43.0078 308.215,-26.1239"/>
<polygon fill="midnightblue" stroke="midnightblue" points="309.797,-23.0016 299.305,-21.5275 306.587,-29.2226 309.797,-23.0016"/>
</g>
<!-- Node10&#45;&gt;Node6 -->
<g id="edge36" class="edge"><title>Node10&#45;&gt;Node6</title>
<path fill="none" stroke="midnightblue" d="M356.447,-196.065C314.035,-190.063 216.672,-175.173 126.507,-152.22"/>
<polygon fill="midnightblue" stroke="midnightblue" points="127.24,-148.795 116.682,-149.679 125.487,-155.572 127.24,-148.795"/>
</g>
<!-- Node10&#45;&gt;Node7 -->
<g id="edge40" class="edge"><title>Node10&#45;&gt;Node7</title>
<path fill="none" stroke="midnightblue" d="M356.461,-191.67C330.041,-182.679 284.163,-167.066 246.801,-154.351"/>
<polygon fill="midnightblue" stroke="midnightblue" points="247.603,-150.927 237.009,-151.019 245.348,-157.554 247.603,-150.927"/>
</g>
<!-- Node10&#45;&gt;Node8 -->
<g id="edge38" class="edge"><title>Node10&#45;&gt;Node8</title>
<path fill="none" stroke="midnightblue" d="M383.643,-188.277C391.666,-171.393 403.843,-138.249 389,-116 377.245,-98.3801 357.511,-87.3558 337.793,-80.4623"/>
<polygon fill="midnightblue" stroke="midnightblue" points="338.74,-77.0909 328.15,-77.3992 336.621,-83.7624 338.74,-77.0909"/>
</g>
<!-- Node11 -->
<g id="node25" class="node"><title>Node11</title>
<polygon fill="none" stroke="#bfbfbf" points="474,-123.5 474,-144.5 530,-144.5 530,-123.5 474,-123.5"/>
<text text-anchor="middle" x="502" y="-131.5" font-family="Helvetica,sans-Serif" font-size="10.00">algorithm</text>
</g>
<!-- Node10&#45;&gt;Node11 -->
<g id="edge28" class="edge"><title>Node10&#45;&gt;Node11</title>
<path fill="none" stroke="midnightblue" d="M398.199,-188.412C418.465,-177.788 449.885,-161.318 472.85,-149.28"/>
<polygon fill="midnightblue" stroke="midnightblue" points="474.578,-152.326 481.81,-144.584 471.328,-146.126 474.578,-152.326"/>
</g>
<!-- Node12 -->
<g id="node27" class="node"><title>Node12</title>
<polygon fill="none" stroke="#bfbfbf" points="548,-123.5 548,-144.5 592,-144.5 592,-123.5 548,-123.5"/>
<text text-anchor="middle" x="570" y="-131.5" font-family="Helvetica,sans-Serif" font-size="10.00">cmath</text>
</g>
<!-- Node10&#45;&gt;Node12 -->
<g id="edge30" class="edge"><title>Node10&#45;&gt;Node12</title>
<path fill="none" stroke="midnightblue" d="M399.67,-194.435C431.136,-187.417 490.962,-172.597 539,-152 540.802,-151.227 542.629,-150.373 544.449,-149.467"/>
<polygon fill="midnightblue" stroke="midnightblue" points="546.196,-152.502 553.329,-144.668 542.868,-146.344 546.196,-152.502"/>
</g>
<!-- Node13 -->
<g id="node29" class="node"><title>Node13</title>
<polygon fill="none" stroke="#bfbfbf" points="258,-123.5 258,-144.5 310,-144.5 310,-123.5 258,-123.5"/>
<text text-anchor="middle" x="284" y="-131.5" font-family="Helvetica,sans-Serif" font-size="10.00">sstream</text>
</g>
<!-- Node10&#45;&gt;Node13 -->
<g id="edge32" class="edge"><title>Node10&#45;&gt;Node13</title>
<path fill="none" stroke="midnightblue" d="M362.478,-188.267C347.558,-177.949 324.805,-162.216 307.633,-150.342"/>
<polygon fill="midnightblue" stroke="midnightblue" points="309.449,-147.343 299.233,-144.534 305.468,-153.1 309.449,-147.343"/>
</g>
<!-- Node14 -->
<g id="node31" class="node"><title>Node14</title>
<polygon fill="none" stroke="#bfbfbf" points="327.5,-123.5 327.5,-144.5 380.5,-144.5 380.5,-123.5 327.5,-123.5"/>
<text text-anchor="middle" x="354" y="-131.5" font-family="Helvetica,sans-Serif" font-size="10.00">wx/wx.h</text>
</g>
<!-- Node10&#45;&gt;Node14 -->
<g id="edge34" class="edge"><title>Node10&#45;&gt;Node14</title>
<path fill="none" stroke="midnightblue" d="M374.037,-188.267C370.612,-178.991 365.57,-165.336 361.401,-154.045"/>
<polygon fill="midnightblue" stroke="midnightblue" points="364.637,-152.702 357.889,-144.534 358.07,-155.127 364.637,-152.702"/>
</g>
</g>
</svg>
        <g id="navigator" transform="translate(0 0)" fill="#404254">
                <rect fill="#f2f5e9" fill-opacity="0.5" stroke="#606060" stroke-width=".5" x="0" y="0" width="60" height="60"/>
                <use id="zoomplus" xlink:href="#zoomPlus" x="17" y="9" onmousedown="handleZoom(evt,'in')"/>
                <use id="zoomminus" xlink:href="#zoomMin" x="42" y="9" onmousedown="handleZoom(evt,'out')"/>
                <use id="reset" xlink:href="#resetDef" x="30" y="36" onmousedown="handleReset()"/>
                <g id="arrowUp" xlink:href="#dirArrow" transform="translate(30 24)" onmousedown="handlePan(0,-1)">
                  <use xlink:href="#rim" fill="#404040">
                        <set attributeName="fill" to="#808080" begin="arrowUp.mouseover" end="arrowUp.mouseout"/>
                  </use>
                  <path fill="none" stroke="white" stroke-width="1.5" d="M0,-3.0v7 M-2.5,-0.5L0,-3.0L2.5,-0.5"/>
                </g>
                <g id="arrowRight" xlink:href="#dirArrow" transform="rotate(90) translate(36 -43)" onmousedown="handlePan(1,0)">
                  <use xlink:href="#rim" fill="#404040">
                        <set attributeName="fill" to="#808080" begin="arrowRight.mouseover" end="arrowRight.mouseout"/>
                  </use>
                  <path fill="none" stroke="white" stroke-width="1.5" d="M0,-3.0v7 M-2.5,-0.5L0,-3.0L2.5,-0.5"/>
                </g>
                <g id="arrowDown" xlink:href="#dirArrow" transform="rotate(180) translate(-30 -48)" onmousedown="handlePan(0,1)">
                  <use xlink:href="#rim" fill="#404040">
                        <set attributeName="fill" to="#808080" begin="arrowDown.mouseover" end="arrowDown.mouseout"/>
                  </use>
                  <path fill="none" stroke="white" stroke-width="1.5" d="M0,-3.0v7 M-2.5,-0.5L0,-3.0L2.5,-0.5"/>
                </g>
                <g id="arrowLeft" xlink:href="#dirArrow" transform="rotate(270) translate(-36 17)" onmousedown="handlePan(-1,0)">
                  <use xlink:href="#rim" fill="#404040">
                        <set attributeName="fill" to="#808080" begin="arrowLeft.mouseover" end="arrowLeft.mouseout"/>
                  </use>
                  <path fill="none" stroke="white" stroke-width="1.5" d="M0,-3.0v7 M-2.5,-0.5L0,-3.0L2.5,-0.5"/>
                </g>
        </g>
        <svg viewBox="0 0 15 15" width="100%" height="30px" preserveAspectRatio="xMaxYMin meet">
         <g id="arrow_out" transform="scale(0.3 0.3)">
          <a xlink:href="Analyzer_8h__incl_org.svg" target="_base">
           <rect id="button" ry="5" rx="5" y="6" x="6" height="38" width="38"
                fill="#f2f5e9" fill-opacity="0.5" stroke="#606060" stroke-width="1.0"/>
           <path id="arrow"
             d="M 11.500037,31.436501 C 11.940474,20.09759 22.043105,11.32322 32.158766,21.979434 L 37.068811,17.246167 C 37.068811,17.246167 37.088388,32 37.088388,32 L 22.160133,31.978069 C 22.160133,31.978069 26.997745,27.140456 26.997745,27.140456 C 18.528582,18.264221 13.291696,25.230495 11.500037,31.436501 z"
             style="fill:#404040;"/>
          </a>
         </g>
        </svg>
</svg>
