<?xml version="1.0" encoding="UTF-8" standalone="no"?>
<!DOCTYPE svg PUBLIC "-//W3C//DTD SVG 1.1//EN"
 "http://www.w3.org/Graphics/SVG/1.1/DTD/svg11.dtd">
<!-- Generated by graphviz version 2.36.0 (20140111.2315)
 -->
<!-- Title: /daten/Projekte/eclipse_workspace/simpleanalyzer&#45;gui/src/processing/Analyzer.h Pages: 1 -->
<!--zoomable 342 -->
<svg id="main" version="1.1" xmlns="http://www.w3.org/2000/svg" xmlns:xlink="http://www.w3.org/1999/xlink" xml:space="preserve" onload="init(evt)">
<style type="text/css"><![CDATA[
.edge:hover path { stroke: red; }
.edge:hover polygon { stroke: red; fill: red; }
]]></style>
<script type="text/javascript"><![CDATA[
var edges = document.getElementsByTagName('g');
if (edges && edges.length) {
  for (var i=0;i<edges.length;i++) {
    if (edges[i].id.substr(0,4)=='edge') {
      edges[i].setAttribute('class','edge');
    }
  }
}
]]></script>
        <defs>
                <circle id="rim" cx="0" cy="0" r="7"/>
                <circle id="rim2" cx="0" cy="0" r="3.5"/>
                <g id="zoomPlus">
                        <use xlink:href="#rim" fill="#404040">
                                <set attributeName="fill" to="#808080" begin="zoomplus.mouseover" end="zoomplus.mouseout"/>
                        </use>
                        <path d="M-4,0h8M0,-4v8" fill="none" stroke="white" stroke-width="1.5" pointer-events="none"/>
                </g>
                <g id="zoomMin">
                        <use xlink:href="#rim" fill="#404040">
                                <set attributeName="fill" to="#808080" begin="zoomminus.mouseover" end="zoomminus.mouseout"/>
                        </use>
                        <path d="M-4,0h8" fill="none" stroke="white" stroke-width="1.5" pointer-events="none"/>
                </g>
                <g id="dirArrow">
                        <path fill="none" stroke="white" stroke-width="1.5" d="M0,-3.0v7 M-2.5,-0.5L0,-3.0L2.5,-0.5"/>
                </g>
               <g id="resetDef">
                       <use xlink:href="#rim2" fill="#404040">
                               <set attributeName="fill" to="#808080" begin="reset.mouseover" end="reset.mouseout"/>
                       </use>
               </g>
        </defs>

<script type="text/javascript">
var viewWidth = 667;
var viewHeight = 342;
var sectionId = 'dynsection-0';
</script>
<script xlink:href="svgpan.js"/>
<svg id="graph" class="graph">
<g id="viewport">
<title>/daten/Projekte/eclipse_workspace/simpleanalyzer&#45;gui/src/processing/Analyzer.h</title>
<!-- Node1 -->
<g id="node1" class="node"><title>Node1</title>
<polygon fill="#bfbfbf" stroke="black" points="147.5,-292.5 147.5,-333.5 296.5,-333.5 296.5,-292.5 147.5,-292.5"/>
<text text-anchor="start" x="155.5" y="-321.5" font-family="Helvetica,sans-Serif" font-size="10.00">/daten/Projekte/eclipse</text>
<text text-anchor="start" x="155.5" y="-310.5" font-family="Helvetica,sans-Serif" font-size="10.00">_workspace/simpleanalyzer</text>
<text text-anchor="middle" x="222" y="-299.5" font-family="Helvetica,sans-Serif" font-size="10.00">&#45;gui/src/processing/Analyzer.h</text>
</g>
<!-- Node2 -->
<g id="node2" class="node"><title>Node2</title>
<polygon fill="none" stroke="#bfbfbf" points="615,-118.5 615,-137.5 659,-137.5 659,-118.5 615,-118.5"/>
<text text-anchor="middle" x="637" y="-125.5" font-family="Helvetica,sans-Serif" font-size="10.00">vector</text>
</g>
<!-- Node1&#45;&gt;Node2 -->
<g id="edge1" class="edge"><title>Node1&#45;&gt;Node2</title>
<path fill="none" stroke="midnightblue" d="M267.887,-292.397C339.958,-261.49 483.962,-199.259 605,-144 606.395,-143.363 607.823,-142.707 609.264,-142.043"/>
<polygon fill="midnightblue" stroke="midnightblue" points="611.161,-145.021 618.753,-137.63 608.21,-138.673 611.161,-145.021"/>
</g>
<!-- Node3 -->
<g id="node3" class="node"><title>Node3</title>
<polygon fill="none" stroke="#bfbfbf" points="163.5,-236.5 163.5,-255.5 204.5,-255.5 204.5,-236.5 163.5,-236.5"/>
<text text-anchor="middle" x="184" y="-243.5" font-family="Helvetica,sans-Serif" font-size="10.00">string</text>
</g>
<!-- Node1&#45;&gt;Node3 -->
<g id="edge2" class="edge"><title>Node1&#45;&gt;Node3</title>
<path fill="none" stroke="midnightblue" d="M210.599,-292.498C205.389,-283.586 199.266,-273.113 194.209,-264.464"/>
<polygon fill="midnightblue" stroke="midnightblue" points="197.127,-262.519 189.058,-255.652 191.084,-266.052 197.127,-262.519"/>
</g>
<!-- Node4 -->
<g id="node4" class="node"><title>Node4</title>
<polygon fill="none" stroke="#bfbfbf" points="253,-0.5 253,-19.5 307,-19.5 307,-0.5 253,-0.5"/>
<text text-anchor="middle" x="280" y="-7.5" font-family="Helvetica,sans-Serif" font-size="10.00">iostream</text>
</g>
<!-- Node1&#45;&gt;Node4 -->
<g id="edge3" class="edge"><title>Node1&#45;&gt;Node4</title>
<path fill="none" stroke="midnightblue" d="M147.46,-302.505C82.9663,-289.62 0,-259.695 0,-191 0,-191 0,-191 0,-127 0,-23.1 166.589,-10.4684 242.775,-10.1242"/>
<polygon fill="midnightblue" stroke="midnightblue" points="242.889,-13.6244 252.898,-10.149 242.907,-6.62442 242.889,-13.6244"/>
</g>
<!-- Node5 -->
<g id="node5" class="node"><title>Node5</title>
<g id="a_node5"><a xlink:href="ObjectData_8h.xhtml" target="_top" xlink:title="ObjectData.h">
<polygon fill="none" stroke="black" points="223,-236.5 223,-255.5 297,-255.5 297,-236.5 223,-236.5"/>
<text text-anchor="middle" x="260" y="-243.5" font-family="Helvetica,sans-Serif" font-size="10.00">ObjectData.h</text>
</a>
</g>
</g>
<!-- Node1&#45;&gt;Node5 -->
<g id="edge4" class="edge"><title>Node1&#45;&gt;Node5</title>
<path fill="none" stroke="midnightblue" d="M233.401,-292.498C238.611,-283.586 244.734,-273.113 249.791,-264.464"/>
<polygon fill="midnightblue" stroke="midnightblue" points="252.916,-266.052 254.942,-255.652 246.873,-262.519 252.916,-266.052"/>
</g>
<!-- Node5&#45;&gt;Node2 -->
<g id="edge6" class="edge"><title>Node5&#45;&gt;Node2</title>
<path fill="none" stroke="midnightblue" d="M295.853,-236.441C359.205,-220.891 494.672,-185.725 605,-144 606.851,-143.3 608.743,-142.538 610.637,-141.742"/>
<polygon fill="midnightblue" stroke="midnightblue" points="612.233,-144.862 619.937,-137.59 609.379,-138.471 612.233,-144.862"/>
</g>
<!-- Node6 -->
<g id="node6" class="node"><title>Node6</title>
<polygon fill="none" stroke="#bfbfbf" points="28.5,-113 28.5,-143 117.5,-143 117.5,-113 28.5,-113"/>
<text text-anchor="start" x="36.5" y="-131" font-family="Helvetica,sans-Serif" font-size="10.00">../libraries/tetgen</text>
<text text-anchor="middle" x="73" y="-120" font-family="Helvetica,sans-Serif" font-size="10.00">/tetgen.h</text>
</g>
<!-- Node5&#45;&gt;Node6 -->
<g id="edge5" class="edge"><title>Node5&#45;&gt;Node6</title>
<path fill="none" stroke="midnightblue" d="M254.232,-236.247C244.799,-222.538 224.82,-195.928 202,-180 188.769,-170.765 154.046,-157.225 123.955,-146.417"/>
<polygon fill="midnightblue" stroke="midnightblue" points="124.975,-143.065 114.381,-143.012 122.63,-149.66 124.975,-143.065"/>
</g>
<!-- Node7 -->
<g id="node7" class="node"><title>Node7</title>
<g id="a_node7"><a xlink:href="Interpolator_8h.xhtml" target="_top" xlink:title="../libraries/interpolate\l/Interpolator.h">
<polygon fill="none" stroke="black" points="135.5,-113 135.5,-143 242.5,-143 242.5,-113 135.5,-113"/>
<text text-anchor="start" x="143.5" y="-131" font-family="Helvetica,sans-Serif" font-size="10.00">../libraries/interpolate</text>
<text text-anchor="middle" x="189" y="-120" font-family="Helvetica,sans-Serif" font-size="10.00">/Interpolator.h</text>
</a>
</g>
</g>
<!-- Node5&#45;&gt;Node7 -->
<g id="edge7" class="edge"><title>Node5&#45;&gt;Node7</title>
<path fill="none" stroke="midnightblue" d="M257.899,-236.099C254.576,-223.101 247.302,-198.469 236,-180 229.486,-169.356 220.543,-158.971 212.206,-150.381"/>
<polygon fill="midnightblue" stroke="midnightblue" points="214.672,-147.897 205.111,-143.332 209.738,-152.863 214.672,-147.897"/>
</g>
<!-- Node9 -->
<g id="node9" class="node"><title>Node9</title>
<polygon fill="none" stroke="#bfbfbf" points="128.5,-180.5 128.5,-199.5 193.5,-199.5 193.5,-180.5 128.5,-180.5"/>
<text text-anchor="middle" x="161" y="-187.5" font-family="Helvetica,sans-Serif" font-size="10.00">wx/string.h</text>
</g>
<!-- Node5&#45;&gt;Node9 -->
<g id="edge10" class="edge"><title>Node5&#45;&gt;Node9</title>
<path fill="none" stroke="midnightblue" d="M244.094,-236.324C228.362,-227.743 204.058,-214.486 185.791,-204.522"/>
<polygon fill="midnightblue" stroke="midnightblue" points="187.322,-201.37 176.867,-199.655 183.97,-207.516 187.322,-201.37"/>
</g>
<!-- Node10 -->
<g id="node10" class="node"><title>Node10</title>
<g id="a_node10"><a xlink:href="simpleanalyzer-gui_2src_2processing_2utils_8h.xhtml" target="_top" xlink:title="utils.h">
<polygon fill="none" stroke="black" points="360.5,-180.5 360.5,-199.5 403.5,-199.5 403.5,-180.5 360.5,-180.5"/>
<text text-anchor="middle" x="382" y="-187.5" font-family="Helvetica,sans-Serif" font-size="10.00">utils.h</text>
</a>
</g>
</g>
<!-- Node5&#45;&gt;Node10 -->
<g id="edge11" class="edge"><title>Node5&#45;&gt;Node10</title>
<path fill="none" stroke="midnightblue" d="M279.331,-236.444C299.32,-227.596 330.743,-213.687 353.564,-203.586"/>
<polygon fill="midnightblue" stroke="midnightblue" points="355.032,-206.764 362.759,-199.516 352.198,-200.363 355.032,-206.764"/>
</g>
<!-- Node8 -->
<g id="node8" class="node"><title>Node8</title>
<g id="a_node8"><a xlink:href="GeometryClasses_8h.xhtml" target="_top" xlink:title="GeometryClasses.h">
<polygon fill="none" stroke="black" points="228,-56.5 228,-75.5 332,-75.5 332,-56.5 228,-56.5"/>
<text text-anchor="middle" x="280" y="-63.5" font-family="Helvetica,sans-Serif" font-size="10.00">GeometryClasses.h</text>
</a>
</g>
</g>
<!-- Node7&#45;&gt;Node8 -->
<g id="edge8" class="edge"><title>Node7&#45;&gt;Node8</title>
<path fill="none" stroke="midnightblue" d="M210.566,-112.781C224.966,-103.286 243.837,-90.8434 258.271,-81.3267"/>
<polygon fill="midnightblue" stroke="midnightblue" points="260.602,-83.9823 267.024,-75.5557 256.749,-78.1383 260.602,-83.9823"/>
</g>
<!-- Node8&#45;&gt;Node4 -->
<g id="edge9" class="edge"><title>Node8&#45;&gt;Node4</title>
<path fill="none" stroke="midnightblue" d="M280,-56.083C280,-49.0059 280,-38.8611 280,-29.9865"/>
<polygon fill="midnightblue" stroke="midnightblue" points="283.5,-29.751 280,-19.7511 276.5,-29.7511 283.5,-29.751"/>
</g>
<!-- Node10&#45;&gt;Node2 -->
<g id="edge13" class="edge"><title>Node10&#45;&gt;Node2</title>
<path fill="none" stroke="midnightblue" d="M403.657,-186.383C444.022,-181.124 533.175,-167.701 605,-144 607.13,-143.297 609.305,-142.489 611.468,-141.62"/>
<polygon fill="midnightblue" stroke="midnightblue" points="612.955,-144.789 620.699,-137.559 610.136,-138.382 612.955,-144.789"/>
</g>
<!-- Node10&#45;&gt;Node4 -->
<g id="edge12" class="edge"><title>Node10&#45;&gt;Node4</title>
<path fill="none" stroke="midnightblue" d="M389.901,-180.248C401.985,-165.744 422.51,-135.947 411,-112 390.425,-69.1912 341.757,-39.5399 309.883,-23.913"/>
<polygon fill="midnightblue" stroke="midnightblue" points="311.117,-20.6248 300.581,-19.5145 308.125,-26.9531 311.117,-20.6248"/>
</g>
<!-- Node10&#45;&gt;Node6 -->
<g id="edge18" class="edge"><title>Node10&#45;&gt;Node6</title>
<path fill="none" stroke="midnightblue" d="M360.274,-185.945C317.504,-179.768 219.234,-164.779 127.712,-144.271"/>
<polygon fill="midnightblue" stroke="midnightblue" points="128.264,-140.807 117.737,-142.007 126.714,-147.634 128.264,-140.807"/>
</g>
<!-- Node10&#45;&gt;Node7 -->
<g id="edge20" class="edge"><title>Node10&#45;&gt;Node7</title>
<path fill="none" stroke="midnightblue" d="M360.236,-182.234C332.153,-173.504 282.314,-158.01 243.621,-145.981"/>
<polygon fill="midnightblue" stroke="midnightblue" points="244.632,-142.63 234.043,-143.003 242.554,-149.314 244.632,-142.63"/>
</g>
<!-- Node10&#45;&gt;Node8 -->
<g id="edge19" class="edge"><title>Node10&#45;&gt;Node8</title>
<path fill="none" stroke="midnightblue" d="M386.932,-180.035C394.637,-164.689 407.249,-133.011 393,-112 381.185,-94.5778 361.437,-83.9006 341.726,-77.3571"/>
<polygon fill="midnightblue" stroke="midnightblue" points="342.671,-73.9867 332.087,-74.4655 340.659,-80.6914 342.671,-73.9867"/>
</g>
<!-- Node11 -->
<g id="node11" class="node"><title>Node11</title>
<polygon fill="none" stroke="#bfbfbf" points="479,-118.5 479,-137.5 535,-137.5 535,-118.5 479,-118.5"/>
<text text-anchor="middle" x="507" y="-125.5" font-family="Helvetica,sans-Serif" font-size="10.00">algorithm</text>
</g>
<!-- Node10&#45;&gt;Node11 -->
<g id="edge14" class="edge"><title>Node10&#45;&gt;Node11</title>
<path fill="none" stroke="midnightblue" d="M399.909,-180.403C420.887,-170.334 455.85,-153.552 480.093,-141.915"/>
<polygon fill="midnightblue" stroke="midnightblue" points="481.623,-145.063 489.124,-137.581 478.594,-138.753 481.623,-145.063"/>
</g>
<!-- Node12 -->
<g id="node12" class="node"><title>Node12</title>
<polygon fill="none" stroke="#bfbfbf" points="553,-118.5 553,-137.5 597,-137.5 597,-118.5 553,-118.5"/>
<text text-anchor="middle" x="575" y="-125.5" font-family="Helvetica,sans-Serif" font-size="10.00">cmath</text>
</g>
<!-- Node10&#45;&gt;Node12 -->
<g id="edge15" class="edge"><title>Node10&#45;&gt;Node12</title>
<path fill="none" stroke="midnightblue" d="M403.716,-184.142C434.988,-176.876 494.297,-162.079 543,-144 544.855,-143.311 546.751,-142.558 548.647,-141.768"/>
<polygon fill="midnightblue" stroke="midnightblue" points="550.237,-144.891 557.952,-137.63 547.393,-138.495 550.237,-144.891"/>
</g>
<!-- Node13 -->
<g id="node13" class="node"><title>Node13</title>
<polygon fill="none" stroke="#bfbfbf" points="261,-118.5 261,-137.5 313,-137.5 313,-118.5 261,-118.5"/>
<text text-anchor="middle" x="287" y="-125.5" font-family="Helvetica,sans-Serif" font-size="10.00">sstream</text>
</g>
<!-- Node10&#45;&gt;Node13 -->
<g id="edge16" class="edge"><title>Node10&#45;&gt;Node13</title>
<path fill="none" stroke="midnightblue" d="M368.389,-180.403C352.939,-170.646 327.51,-154.585 309.184,-143.011"/>
<polygon fill="midnightblue" stroke="midnightblue" points="310.91,-139.961 300.586,-137.581 307.172,-145.88 310.91,-139.961"/>
</g>
<!-- Node14 -->
<g id="node14" class="node"><title>Node14</title>
<polygon fill="none" stroke="#bfbfbf" points="331.5,-118.5 331.5,-137.5 384.5,-137.5 384.5,-118.5 331.5,-118.5"/>
<text text-anchor="middle" x="358" y="-125.5" font-family="Helvetica,sans-Serif" font-size="10.00">wx/wx.h</text>
</g>
<!-- Node10&#45;&gt;Node14 -->
<g id="edge17" class="edge"><title>Node10&#45;&gt;Node14</title>
<path fill="none" stroke="midnightblue" d="M378.561,-180.403C375.104,-171.76 369.668,-158.17 365.254,-147.134"/>
<polygon fill="midnightblue" stroke="midnightblue" points="368.396,-145.565 361.432,-137.581 361.897,-148.165 368.396,-145.565"/>
</g>
</g>
</svg>
        <g id="navigator" transform="translate(0 0)" fill="#404254">
                <rect fill="#f2f5e9" fill-opacity="0.5" stroke="#606060" stroke-width=".5" x="0" y="0" width="60" height="60"/>
                <use id="zoomplus" xlink:href="#zoomPlus" x="17" y="9" onmousedown="handleZoom(evt,'in')"/>
                <use id="zoomminus" xlink:href="#zoomMin" x="42" y="9" onmousedown="handleZoom(evt,'out')"/>
                <use id="reset" xlink:href="#resetDef" x="30" y="36" onmousedown="handleReset()"/>
                <g id="arrowUp" xlink:href="#dirArrow" transform="translate(30 24)" onmousedown="handlePan(0,-1)">
                  <use xlink:href="#rim" fill="#404040">
                        <set attributeName="fill" to="#808080" begin="arrowUp.mouseover" end="arrowUp.mouseout"/>
                  </use>
                  <path fill="none" stroke="white" stroke-width="1.5" d="M0,-3.0v7 M-2.5,-0.5L0,-3.0L2.5,-0.5"/>
                </g>
                <g id="arrowRight" xlink:href="#dirArrow" transform="rotate(90) translate(36 -43)" onmousedown="handlePan(1,0)">
                  <use xlink:href="#rim" fill="#404040">
                        <set attributeName="fill" to="#808080" begin="arrowRight.mouseover" end="arrowRight.mouseout"/>
                  </use>
                  <path fill="none" stroke="white" stroke-width="1.5" d="M0,-3.0v7 M-2.5,-0.5L0,-3.0L2.5,-0.5"/>
                </g>
                <g id="arrowDown" xlink:href="#dirArrow" transform="rotate(180) translate(-30 -48)" onmousedown="handlePan(0,1)">
                  <use xlink:href="#rim" fill="#404040">
                        <set attributeName="fill" to="#808080" begin="arrowDown.mouseover" end="arrowDown.mouseout"/>
                  </use>
                  <path fill="none" stroke="white" stroke-width="1.5" d="M0,-3.0v7 M-2.5,-0.5L0,-3.0L2.5,-0.5"/>
                </g>
                <g id="arrowLeft" xlink:href="#dirArrow" transform="rotate(270) translate(-36 17)" onmousedown="handlePan(-1,0)">
                  <use xlink:href="#rim" fill="#404040">
                        <set attributeName="fill" to="#808080" begin="arrowLeft.mouseover" end="arrowLeft.mouseout"/>
                  </use>
                  <path fill="none" stroke="white" stroke-width="1.5" d="M0,-3.0v7 M-2.5,-0.5L0,-3.0L2.5,-0.5"/>
                </g>
        </g>
        <svg viewBox="0 0 15 15" width="100%" height="30px" preserveAspectRatio="xMaxYMin meet">
         <g id="arrow_out" transform="scale(0.3 0.3)">
          <a xlink:href="Analyzer_8h__incl_org.svg" target="_base">
           <rect id="button" ry="5" rx="5" y="6" x="6" height="38" width="38"
                fill="#f2f5e9" fill-opacity="0.5" stroke="#606060" stroke-width="1.0"/>
           <path id="arrow"
             d="M 11.500037,31.436501 C 11.940474,20.09759 22.043105,11.32322 32.158766,21.979434 L 37.068811,17.246167 C 37.068811,17.246167 37.088388,32 37.088388,32 L 22.160133,31.978069 C 22.160133,31.978069 26.997745,27.140456 26.997745,27.140456 C 18.528582,18.264221 13.291696,25.230495 11.500037,31.436501 z"
             style="fill:#404040;"/>
          </a>
         </g>
        </svg>
</svg>
