<?xml version="1.0" encoding="UTF-8" standalone="no"?>
<!DOCTYPE svg PUBLIC "-//W3C//DTD SVG 1.1//EN"
 "http://www.w3.org/Graphics/SVG/1.1/DTD/svg11.dtd">
<!-- Generated by graphviz version 2.26.3 (20100126.1600)
 -->
<!-- Title: simpleanalyzer&#45;gui/src/Application.cpp Pages: 1 -->
<!--zoomable 652 -->
<svg id="main" version="1.1" xmlns="http://www.w3.org/2000/svg" xmlns:xlink="http://www.w3.org/1999/xlink" xml:space="preserve" onload="init(evt)">
<style type="text/css"><![CDATA[
.edge:hover path { stroke: red; }
.edge:hover polygon { stroke: red; fill: red; }
]]></style>
<script type="text/javascript"><![CDATA[
var edges = document.getElementsByTagName('g');
if (edges && edges.length) {
  for (var i=0;i<edges.length;i++) {
    if (edges[i].id.substr(0,4)=='edge') {
      edges[i].setAttribute('class','edge');
    }
  }
}
]]></script>
        <defs>
                <circle id="rim" cx="0" cy="0" r="7"/>
                <circle id="rim2" cx="0" cy="0" r="3.5"/>
                <g id="zoomPlus">
                        <use xlink:href="#rim" fill="#404040">
                                <set attributeName="fill" to="#808080" begin="zoomplus.mouseover" end="zoomplus.mouseout"/>
                        </use>
                        <path d="M-4,0h8M0,-4v8" fill="none" stroke="white" stroke-width="1.5" pointer-events="none"/>
                </g>
                <g id="zoomMin">
                        <use xlink:href="#rim" fill="#404040">
                                <set attributeName="fill" to="#808080" begin="zoomminus.mouseover" end="zoomminus.mouseout"/>
                        </use>
                        <path d="M-4,0h8" fill="none" stroke="white" stroke-width="1.5" pointer-events="none"/>
                </g>
                <g id="dirArrow">
                        <path fill="none" stroke="white" stroke-width="1.5" d="M0,-3.0v7 M-2.5,-0.5L0,-3.0L2.5,-0.5"/>
                </g>
               <g id="resetDef">
                       <use xlink:href="#rim2" fill="#404040">
                               <set attributeName="fill" to="#808080" begin="reset.mouseover" end="reset.mouseout"/>
                       </use>
               </g>
        </defs>

<script type="text/javascript">
var viewWidth = 1193;
var viewHeight = 652;
var sectionId = 'dynsection-0';
</script>
<script xlink:href="svgpan.js"/>
<svg id="graph" class="graph">
<g id="viewport">
<title>simpleanalyzer&#45;gui/src/Application.cpp</title>
<!-- Node1 -->
<g id="node1" class="node"><title>Node1</title>
<polygon fill="#bfbfbf" stroke="black" points="701.5,-609 701.5,-643 804.5,-643 804.5,-609 701.5,-609"/>
<text text-anchor="start" x="709.5" y="-630" font-family="Helvetica,sans-Serif" font-size="10.00">simpleanalyzer&#45;gui</text>
<text text-anchor="middle" x="753" y="-617" font-family="Helvetica,sans-Serif" font-size="10.00">/src/Application.cpp</text>
</g>
<!-- Node2 -->
<g id="node3" class="node"><title>Node2</title>
<polygon fill="none" stroke="#bfbfbf" points="520,-0.5 520,-21.5 574,-21.5 574,-0.5 520,-0.5"/>
<text text-anchor="middle" x="547" y="-8.5" font-family="Helvetica,sans-Serif" font-size="10.00">iostream</text>
</g>
<!-- Node1&#45;&gt;Node2 -->
<g id="edge2" class="edge"><title>Node1&#45;&gt;Node2</title>
<path fill="none" stroke="midnightblue" d="M701.243,-623.024C531.119,-612.562 0,-574.198 0,-503 0,-503 0,-503 0,-148 0,-42.648 386.635,-17.6059 509.793,-12.3014"/>
<polygon fill="midnightblue" stroke="midnightblue" points="510.027,-15.7949 519.874,-11.8864 509.739,-8.80079 510.027,-15.7949"/>
</g>
<!-- Node3 -->
<g id="node5" class="node"><title>Node3</title>
<a xlink:href="Application_8h.xhtml" target="_top" xlink:title="Application.h">
<polygon fill="none" stroke="black" points="246.5,-550.5 246.5,-571.5 319.5,-571.5 319.5,-550.5 246.5,-550.5"/>
<text text-anchor="middle" x="283" y="-558.5" font-family="Helvetica,sans-Serif" font-size="10.00">Application.h</text>
</a>
</g>
<!-- Node1&#45;&gt;Node3 -->
<g id="edge4" class="edge"><title>Node1&#45;&gt;Node3</title>
<path fill="none" stroke="midnightblue" d="M701.357,-618.858C609.261,-606.121 418.063,-579.679 329.673,-567.455"/>
<polygon fill="midnightblue" stroke="midnightblue" points="330.055,-563.974 319.669,-566.071 329.096,-570.908 330.055,-563.974"/>
</g>
<!-- Node5 -->
<g id="node9" class="node"><title>Node5</title>
<a xlink:href="GUIMainWindow_8h.xhtml" target="_top" xlink:title="GUI/GUIMainWindow.h">
<polygon fill="none" stroke="black" points="556,-550.5 556,-571.5 676,-571.5 676,-550.5 556,-550.5"/>
<text text-anchor="middle" x="616" y="-558.5" font-family="Helvetica,sans-Serif" font-size="10.00">GUI/GUIMainWindow.h</text>
</a>
</g>
<!-- Node1&#45;&gt;Node5 -->
<g id="edge8" class="edge"><title>Node1&#45;&gt;Node5</title>
<path fill="none" stroke="midnightblue" d="M717.005,-608.922C695.515,-598.726 668.468,-585.894 647.772,-576.074"/>
<polygon fill="midnightblue" stroke="midnightblue" points="649,-572.783 638.465,-571.658 645.999,-579.107 649,-572.783"/>
</g>
<!-- Node9 -->
<g id="node17" class="node"><title>Node9</title>
<polygon fill="none" stroke="#bfbfbf" points="1087,-137.5 1087,-158.5 1131,-158.5 1131,-137.5 1087,-137.5"/>
<text text-anchor="middle" x="1109" y="-145.5" font-family="Helvetica,sans-Serif" font-size="10.00">vector</text>
</g>
<!-- Node1&#45;&gt;Node9 -->
<g id="edge128" class="edge"><title>Node1&#45;&gt;Node9</title>
<path fill="none" stroke="midnightblue" d="M804.68,-622.223C919.347,-612.423 1185,-581.273 1185,-503 1185,-503 1185,-503 1185,-271 1185,-228.337 1151.5,-188.107 1128.98,-165.885"/>
<polygon fill="midnightblue" stroke="midnightblue" points="1131.2,-163.166 1121.55,-158.801 1126.37,-168.233 1131.2,-163.166"/>
</g>
<!-- Node11 -->
<g id="node22" class="node"><title>Node11</title>
<a xlink:href="ObjectData_8h.xhtml" target="_top" xlink:title="../processing/ObjectData.h">
<polygon fill="none" stroke="black" points="985,-260.5 985,-281.5 1119,-281.5 1119,-260.5 985,-260.5"/>
<text text-anchor="middle" x="1052" y="-268.5" font-family="Helvetica,sans-Serif" font-size="10.00">../processing/ObjectData.h</text>
</a>
</g>
<!-- Node1&#45;&gt;Node11 -->
<g id="edge124" class="edge"><title>Node1&#45;&gt;Node11</title>
<path fill="none" stroke="midnightblue" d="M804.767,-620.144C908.291,-606.987 1131,-570.804 1131,-503 1131,-503 1131,-503 1131,-387 1131,-346.024 1096.91,-308.825 1073.52,-288.123"/>
<polygon fill="midnightblue" stroke="midnightblue" points="1075.64,-285.336 1065.76,-281.51 1071.1,-290.662 1075.64,-285.336"/>
</g>
<!-- Node14 -->
<g id="node31" class="node"><title>Node14</title>
<a xlink:href="utils_8h.xhtml" target="_top" xlink:title="utils.h">
<polygon fill="none" stroke="black" points="754.5,-202.5 754.5,-223.5 797.5,-223.5 797.5,-202.5 754.5,-202.5"/>
<text text-anchor="middle" x="776" y="-210.5" font-family="Helvetica,sans-Serif" font-size="10.00">utils.h</text>
</a>
</g>
<!-- Node1&#45;&gt;Node14 -->
<g id="edge126" class="edge"><title>Node1&#45;&gt;Node14</title>
<path fill="none" stroke="midnightblue" d="M764.402,-608.581C783.14,-578.798 819.693,-515.528 833,-456 835.133,-446.458 834.616,-443.643 833,-434 828.494,-407.108 823.281,-401.255 813,-376 806.328,-359.612 801.207,-356.911 796,-340 784.786,-303.579 779.634,-259.249 777.446,-233.76"/>
<polygon fill="midnightblue" stroke="midnightblue" points="780.934,-233.463 776.659,-223.769 773.955,-234.012 780.934,-233.463"/>
</g>
<!-- Node4 -->
<g id="node7" class="node"><title>Node4</title>
<polygon fill="none" stroke="#bfbfbf" points="441.5,-137.5 441.5,-158.5 494.5,-158.5 494.5,-137.5 441.5,-137.5"/>
<text text-anchor="middle" x="468" y="-145.5" font-family="Helvetica,sans-Serif" font-size="10.00">wx/wx.h</text>
</g>
<!-- Node3&#45;&gt;Node4 -->
<g id="edge6" class="edge"><title>Node3&#45;&gt;Node4</title>
<path fill="none" stroke="midnightblue" d="M246.344,-558.089C184,-550.921 64,-526.533 64,-445 64,-445 64,-445 64,-387 64,-328.898 58.25,-305.003 95,-260 138.26,-207.025 346.1,-167.831 431.373,-153.722"/>
<polygon fill="midnightblue" stroke="midnightblue" points="432.077,-157.153 441.382,-152.088 430.949,-150.245 432.077,-157.153"/>
</g>
<!-- Node5&#45;&gt;Node4 -->
<g id="edge120" class="edge"><title>Node5&#45;&gt;Node4</title>
<path fill="none" stroke="midnightblue" d="M613.88,-550.473C610.937,-536.729 605.054,-512.064 597,-492 568.406,-420.766 545.29,-410.53 515,-340 504.296,-315.076 503.411,-308.094 496,-282 488.755,-256.491 487.515,-249.938 482,-224 478.048,-205.414 474.184,-184.133 471.52,-168.826"/>
<polygon fill="midnightblue" stroke="midnightblue" points="474.951,-168.123 469.808,-158.86 468.052,-169.309 474.951,-168.123"/>
</g>
<!-- Node6 -->
<g id="node11" class="node"><title>Node6</title>
<a xlink:href="GUIGLCanvas_8h.xhtml" target="_top" xlink:title="GUIGLCanvas.h">
<polygon fill="none" stroke="black" points="897.5,-376.5 897.5,-397.5 986.5,-397.5 986.5,-376.5 897.5,-376.5"/>
<text text-anchor="middle" x="942" y="-384.5" font-family="Helvetica,sans-Serif" font-size="10.00">GUIGLCanvas.h</text>
</a>
</g>
<!-- Node5&#45;&gt;Node6 -->
<g id="edge10" class="edge"><title>Node5&#45;&gt;Node6</title>
<path fill="none" stroke="midnightblue" d="M651.38,-550.374C701.55,-534.392 795.137,-501.161 866,-456 888.571,-441.615 910.816,-420.36 925.35,-405.247"/>
<polygon fill="midnightblue" stroke="midnightblue" points="928.276,-407.245 932.583,-397.565 923.18,-402.446 928.276,-407.245"/>
</g>
<!-- Node19 -->
<g id="node51" class="node"><title>Node19</title>
<a xlink:href="PropertiesBox_8h.xhtml" target="_top" xlink:title="PropertiesBox.h">
<polygon fill="none" stroke="black" points="606,-376.5 606,-397.5 692,-397.5 692,-376.5 606,-376.5"/>
<text text-anchor="middle" x="649" y="-384.5" font-family="Helvetica,sans-Serif" font-size="10.00">PropertiesBox.h</text>
</a>
</g>
<!-- Node5&#45;&gt;Node19 -->
<g id="edge64" class="edge"><title>Node5&#45;&gt;Node19</title>
<path fill="none" stroke="midnightblue" d="M619.662,-550.286C622.78,-540.833 627.188,-526.632 630,-514 638.233,-477.012 643.909,-433.156 646.794,-407.857"/>
<polygon fill="midnightblue" stroke="midnightblue" points="650.305,-407.953 647.923,-397.63 643.347,-407.186 650.305,-407.953"/>
</g>
<!-- Node22 -->
<g id="node61" class="node"><title>Node22</title>
<a xlink:href="ViewpropBox_8h.xhtml" target="_top" xlink:title="ViewpropBox.h">
<polygon fill="none" stroke="black" points="162.5,-492.5 162.5,-513.5 245.5,-513.5 245.5,-492.5 162.5,-492.5"/>
<text text-anchor="middle" x="204" y="-500.5" font-family="Helvetica,sans-Serif" font-size="10.00">ViewpropBox.h</text>
</a>
</g>
<!-- Node5&#45;&gt;Node22 -->
<g id="edge78" class="edge"><title>Node5&#45;&gt;Node22</title>
<path fill="none" stroke="midnightblue" d="M555.65,-552.504C474.746,-541.115 332.474,-521.086 256.044,-510.327"/>
<polygon fill="midnightblue" stroke="midnightblue" points="256.1,-506.8 245.71,-508.872 255.125,-513.732 256.1,-506.8"/>
</g>
<!-- Node24 -->
<g id="node66" class="node"><title>Node24</title>
<a xlink:href="GUIAnalyzeOutputWindow_8h.xhtml" target="_top" xlink:title="GUIAnalyzeOutputWindow.h">
<polygon fill="none" stroke="black" points="681.5,-434.5 681.5,-455.5 824.5,-455.5 824.5,-434.5 681.5,-434.5"/>
<text text-anchor="middle" x="753" y="-442.5" font-family="Helvetica,sans-Serif" font-size="10.00">GUIAnalyzeOutputWindow.h</text>
</a>
</g>
<!-- Node5&#45;&gt;Node24 -->
<g id="edge84" class="edge"><title>Node5&#45;&gt;Node24</title>
<path fill="none" stroke="midnightblue" d="M628.643,-550.295C652.397,-530.182 703.88,-486.59 732.597,-462.275"/>
<polygon fill="midnightblue" stroke="midnightblue" points="735.017,-464.812 740.387,-455.679 730.494,-459.47 735.017,-464.812"/>
</g>
<!-- Node26 -->
<g id="node72" class="node"><title>Node26</title>
<a xlink:href="GUIAnalyzePointWindow_8h.xhtml" target="_top" xlink:title="GUIAnalyzePointWindow.h">
<polygon fill="none" stroke="black" points="104,-260.5 104,-281.5 240,-281.5 240,-260.5 104,-260.5"/>
<text text-anchor="middle" x="172" y="-268.5" font-family="Helvetica,sans-Serif" font-size="10.00">GUIAnalyzePointWindow.h</text>
</a>
</g>
<!-- Node5&#45;&gt;Node26 -->
<g id="edge92" class="edge"><title>Node5&#45;&gt;Node26</title>
<path fill="none" stroke="midnightblue" d="M555.742,-558.131C438.043,-552.058 186.229,-536.583 154,-514 83.1812,-464.376 136.938,-339.063 161.476,-290.578"/>
<polygon fill="midnightblue" stroke="midnightblue" points="164.583,-292.189 166.082,-281.701 158.37,-288.965 164.583,-292.189"/>
</g>
<!-- Node27 -->
<g id="node75" class="node"><title>Node27</title>
<a xlink:href="GUICutRenderWindow_8h.xhtml" target="_top" xlink:title="GUICutRenderWindow.h">
<polygon fill="none" stroke="black" points="354.5,-492.5 354.5,-513.5 479.5,-513.5 479.5,-492.5 354.5,-492.5"/>
<text text-anchor="middle" x="417" y="-500.5" font-family="Helvetica,sans-Serif" font-size="10.00">GUICutRenderWindow.h</text>
</a>
</g>
<!-- Node5&#45;&gt;Node27 -->
<g id="edge96" class="edge"><title>Node5&#45;&gt;Node27</title>
<path fill="none" stroke="midnightblue" d="M579.963,-550.497C547.099,-540.918 498.383,-526.72 462.776,-516.342"/>
<polygon fill="midnightblue" stroke="midnightblue" points="463.685,-512.961 453.105,-513.523 461.726,-519.681 463.685,-512.961"/>
</g>
<!-- Node31 -->
<g id="node92" class="node"><title>Node31</title>
<polygon fill="none" stroke="#bfbfbf" points="517.5,-492.5 517.5,-513.5 588.5,-513.5 588.5,-492.5 517.5,-492.5"/>
<text text-anchor="middle" x="553" y="-500.5" font-family="Helvetica,sans-Serif" font-size="10.00">wx/artprov.h</text>
</g>
<!-- Node5&#45;&gt;Node31 -->
<g id="edge122" class="edge"><title>Node5&#45;&gt;Node31</title>
<path fill="none" stroke="midnightblue" d="M604.445,-550.362C595.387,-542.023 582.59,-530.242 572.026,-520.516"/>
<polygon fill="midnightblue" stroke="midnightblue" points="574.21,-517.769 564.482,-513.571 569.468,-522.919 574.21,-517.769"/>
</g>
<!-- Node6&#45;&gt;Node4 -->
<g id="edge58" class="edge"><title>Node6&#45;&gt;Node4</title>
<path fill="none" stroke="midnightblue" d="M897.314,-380.852C831.681,-370.057 707.634,-342.793 621,-282 583.954,-256.004 591.963,-231.912 558,-202 540.417,-186.514 517.791,-172.961 499.624,-163.306"/>
<polygon fill="midnightblue" stroke="midnightblue" points="501.07,-160.114 490.581,-158.623 497.851,-166.33 501.07,-160.114"/>
</g>
<!-- Node7 -->
<g id="node13" class="node"><title>Node7</title>
<a xlink:href="Renderer_8h.xhtml" target="_top" xlink:title="Renderer.h">
<polygon fill="none" stroke="black" points="804.5,-318.5 804.5,-339.5 869.5,-339.5 869.5,-318.5 804.5,-318.5"/>
<text text-anchor="middle" x="837" y="-326.5" font-family="Helvetica,sans-Serif" font-size="10.00">Renderer.h</text>
</a>
</g>
<!-- Node6&#45;&gt;Node7 -->
<g id="edge12" class="edge"><title>Node6&#45;&gt;Node7</title>
<path fill="none" stroke="midnightblue" d="M922.741,-376.362C906.534,-367.409 883.147,-354.491 864.891,-344.406"/>
<polygon fill="midnightblue" stroke="midnightblue" points="866.582,-341.342 856.137,-339.571 863.198,-347.47 866.582,-341.342"/>
</g>
<!-- Node6&#45;&gt;Node11 -->
<g id="edge62" class="edge"><title>Node6&#45;&gt;Node11</title>
<path fill="none" stroke="midnightblue" d="M986.772,-376.905C1020.84,-368.21 1063.59,-354.759 1074,-340 1084.56,-325.025 1075.97,-304.736 1066.6,-290.038"/>
<polygon fill="midnightblue" stroke="midnightblue" points="1069.41,-287.938 1060.84,-281.706 1063.65,-291.921 1069.41,-287.938"/>
</g>
<!-- Node18 -->
<g id="node48" class="node"><title>Node18</title>
<polygon fill="none" stroke="#bfbfbf" points="985,-318.5 985,-339.5 1065,-339.5 1065,-318.5 985,-318.5"/>
<text text-anchor="middle" x="1025" y="-326.5" font-family="Helvetica,sans-Serif" font-size="10.00">wx/glcanvas.h</text>
</g>
<!-- Node6&#45;&gt;Node18 -->
<g id="edge60" class="edge"><title>Node6&#45;&gt;Node18</title>
<path fill="none" stroke="midnightblue" d="M957.223,-376.362C969.625,-367.696 987.346,-355.313 1001.56,-345.382"/>
<polygon fill="midnightblue" stroke="midnightblue" points="1003.68,-348.168 1009.87,-339.571 999.671,-342.43 1003.68,-348.168"/>
</g>
<!-- Node7&#45;&gt;Node4 -->
<g id="edge56" class="edge"><title>Node7&#45;&gt;Node4</title>
<path fill="none" stroke="midnightblue" d="M804.279,-324.153C756.159,-316.512 669.272,-300.606 644,-282 610.609,-257.417 627.315,-229.179 596,-202 592.238,-198.735 540.007,-177.188 503.443,-162.32"/>
<polygon fill="midnightblue" stroke="midnightblue" points="504.644,-159.03 494.062,-158.512 502.011,-165.516 504.644,-159.03"/>
</g>
<!-- Node8 -->
<g id="node15" class="node"><title>Node8</title>
<polygon fill="none" stroke="#bfbfbf" points="961.5,-131 961.5,-165 1050.5,-165 1050.5,-131 961.5,-131"/>
<text text-anchor="start" x="969.5" y="-152" font-family="Helvetica,sans-Serif" font-size="10.00">../libraries/tetgen</text>
<text text-anchor="middle" x="1006" y="-139" font-family="Helvetica,sans-Serif" font-size="10.00">/tetgen.h</text>
</g>
<!-- Node7&#45;&gt;Node8 -->
<g id="edge14" class="edge"><title>Node7&#45;&gt;Node8</title>
<path fill="none" stroke="midnightblue" d="M838.444,-318.359C842.199,-294.544 854.353,-236.353 887,-202 896.751,-191.739 925.271,-178.651 951.945,-167.929"/>
<polygon fill="midnightblue" stroke="midnightblue" points="953.256,-171.175 961.27,-164.244 950.683,-164.665 953.256,-171.175"/>
</g>
<!-- Node7&#45;&gt;Node9 -->
<g id="edge16" class="edge"><title>Node7&#45;&gt;Node9</title>
<path fill="none" stroke="midnightblue" d="M848.402,-318.439C863.728,-304.445 892.051,-279.28 918,-260 971.334,-220.372 1039.72,-183.197 1078.52,-163.229"/>
<polygon fill="midnightblue" stroke="midnightblue" points="1080.4,-166.197 1087.72,-158.532 1077.22,-159.963 1080.4,-166.197"/>
</g>
<!-- Node10 -->
<g id="node19" class="node"><title>Node10</title>
<a xlink:href="GeometryClasses_8h.xhtml" target="_top" xlink:title="../libraries/interpolate\l/GeometryClasses.h">
<polygon fill="none" stroke="black" points="493.5,-59 493.5,-93 600.5,-93 600.5,-59 493.5,-59"/>
<text text-anchor="start" x="501.5" y="-80" font-family="Helvetica,sans-Serif" font-size="10.00">../libraries/interpolate</text>
<text text-anchor="middle" x="547" y="-67" font-family="Helvetica,sans-Serif" font-size="10.00">/GeometryClasses.h</text>
</a>
</g>
<!-- Node7&#45;&gt;Node10 -->
<g id="edge18" class="edge"><title>Node7&#45;&gt;Node10</title>
<path fill="none" stroke="midnightblue" d="M818.666,-318.363C756.498,-282.291 557.518,-166.795 557,-166 544.969,-147.522 543.119,-122.277 543.906,-103.226"/>
<polygon fill="midnightblue" stroke="midnightblue" points="547.409,-103.306 544.591,-93.0922 540.424,-102.833 547.409,-103.306"/>
</g>
<!-- Node7&#45;&gt;Node11 -->
<g id="edge22" class="edge"><title>Node7&#45;&gt;Node11</title>
<path fill="none" stroke="midnightblue" d="M869.654,-320.191C905.141,-310.618 962.231,-295.217 1003.08,-284.198"/>
<polygon fill="midnightblue" stroke="midnightblue" points="1004.09,-287.551 1012.83,-281.567 1002.26,-280.792 1004.09,-287.551"/>
</g>
<!-- Node7&#45;&gt;Node14 -->
<g id="edge54" class="edge"><title>Node7&#45;&gt;Node14</title>
<path fill="none" stroke="midnightblue" d="M831.371,-318.295C821.157,-298.872 799.43,-257.556 786.436,-232.846"/>
<polygon fill="midnightblue" stroke="midnightblue" points="789.368,-230.901 781.616,-223.679 783.172,-234.159 789.368,-230.901"/>
</g>
<!-- Node10&#45;&gt;Node2 -->
<g id="edge20" class="edge"><title>Node10&#45;&gt;Node2</title>
<path fill="none" stroke="midnightblue" d="M547,-58.922C547,-50.6704 547,-40.6922 547,-31.9818"/>
<polygon fill="midnightblue" stroke="midnightblue" points="550.5,-31.8521 547,-21.8521 543.5,-31.8521 550.5,-31.8521"/>
</g>
<!-- Node11&#45;&gt;Node8 -->
<g id="edge24" class="edge"><title>Node11&#45;&gt;Node8</title>
<path fill="none" stroke="midnightblue" d="M1037.61,-260.434C1027.27,-251.9 1014.11,-238.891 1008,-224 1001.71,-208.671 1001.11,-190.102 1002.13,-175.155"/>
<polygon fill="midnightblue" stroke="midnightblue" points="1005.63,-175.298 1003.1,-165.01 998.662,-174.631 1005.63,-175.298"/>
</g>
<!-- Node11&#45;&gt;Node9 -->
<g id="edge26" class="edge"><title>Node11&#45;&gt;Node9</title>
<path fill="none" stroke="midnightblue" d="M1062.88,-260.384C1071.45,-251.436 1083.07,-237.899 1090,-224 1098.74,-206.468 1103.66,-184.605 1106.29,-168.835"/>
<polygon fill="midnightblue" stroke="midnightblue" points="1109.81,-168.985 1107.83,-158.577 1102.88,-167.95 1109.81,-168.985"/>
</g>
<!-- Node12 -->
<g id="node26" class="node"><title>Node12</title>
<a xlink:href="Interpolator_8h.xhtml" target="_top" xlink:title="../libraries/interpolate\l/Interpolator.h">
<polygon fill="none" stroke="black" points="799.5,-131 799.5,-165 906.5,-165 906.5,-131 799.5,-131"/>
<text text-anchor="start" x="807.5" y="-152" font-family="Helvetica,sans-Serif" font-size="10.00">../libraries/interpolate</text>
<text text-anchor="middle" x="853" y="-139" font-family="Helvetica,sans-Serif" font-size="10.00">/Interpolator.h</text>
</a>
</g>
<!-- Node11&#45;&gt;Node12 -->
<g id="edge28" class="edge"><title>Node11&#45;&gt;Node12</title>
<path fill="none" stroke="midnightblue" d="M1034.69,-260.3C1002.47,-240.383 932.654,-197.234 889.562,-170.599"/>
<polygon fill="midnightblue" stroke="midnightblue" points="891.142,-167.46 880.795,-165.18 887.461,-173.415 891.142,-167.46"/>
</g>
<!-- Node13 -->
<g id="node29" class="node"><title>Node13</title>
<polygon fill="none" stroke="#bfbfbf" points="1016.5,-202.5 1016.5,-223.5 1081.5,-223.5 1081.5,-202.5 1016.5,-202.5"/>
<text text-anchor="middle" x="1049" y="-210.5" font-family="Helvetica,sans-Serif" font-size="10.00">wx/string.h</text>
</g>
<!-- Node11&#45;&gt;Node13 -->
<g id="edge32" class="edge"><title>Node11&#45;&gt;Node13</title>
<path fill="none" stroke="midnightblue" d="M1051.45,-260.362C1051.06,-252.922 1050.54,-242.743 1050.07,-233.728"/>
<polygon fill="midnightblue" stroke="midnightblue" points="1053.56,-233.376 1049.55,-223.571 1046.57,-233.738 1053.56,-233.376"/>
</g>
<!-- Node11&#45;&gt;Node14 -->
<g id="edge34" class="edge"><title>Node11&#45;&gt;Node14</title>
<path fill="none" stroke="midnightblue" d="M987.632,-260.466C938.837,-251.994 870.292,-239.049 811,-224 809.92,-223.726 808.823,-223.438 807.718,-223.139"/>
<polygon fill="midnightblue" stroke="midnightblue" points="808.316,-219.668 797.736,-220.245 806.367,-226.391 808.316,-219.668"/>
</g>
<!-- Node12&#45;&gt;Node10 -->
<g id="edge30" class="edge"><title>Node12&#45;&gt;Node10</title>
<path fill="none" stroke="midnightblue" d="M799.29,-132.176C796.491,-131.424 793.715,-130.694 791,-130 730.045,-114.424 659.855,-99.1674 610.451,-88.8662"/>
<polygon fill="midnightblue" stroke="midnightblue" points="611.049,-85.4157 600.546,-86.8092 609.625,-92.2695 611.049,-85.4157"/>
</g>
<!-- Node14&#45;&gt;Node2 -->
<g id="edge36" class="edge"><title>Node14&#45;&gt;Node2</title>
<path fill="none" stroke="midnightblue" d="M797.54,-208.873C832.984,-201.597 901.078,-185.404 915,-166 924.327,-153 924.414,-142.938 915,-130 875.133,-75.208 669.386,-32.8442 584.101,-17.3695"/>
<polygon fill="midnightblue" stroke="midnightblue" points="584.54,-13.8924 574.079,-15.5746 583.306,-20.7828 584.54,-13.8924"/>
</g>
<!-- Node14&#45;&gt;Node4 -->
<g id="edge46" class="edge"><title>Node14&#45;&gt;Node4</title>
<path fill="none" stroke="midnightblue" d="M754.267,-205.74C749.9,-204.403 745.324,-203.087 741,-202 658.072,-181.146 635.812,-182.96 552,-166 536.59,-162.882 519.629,-159.28 505.006,-156.121"/>
<polygon fill="midnightblue" stroke="midnightblue" points="505.342,-152.612 494.827,-153.912 503.857,-159.453 505.342,-152.612"/>
</g>
<!-- Node14&#45;&gt;Node8 -->
<g id="edge48" class="edge"><title>Node14&#45;&gt;Node8</title>
<path fill="none" stroke="midnightblue" d="M797.518,-207.373C830.15,-198.783 894.063,-181.734 948,-166 949.224,-165.643 950.462,-165.279 951.709,-164.911"/>
<polygon fill="midnightblue" stroke="midnightblue" points="952.822,-168.231 961.398,-162.01 950.814,-161.525 952.822,-168.231"/>
</g>
<!-- Node14&#45;&gt;Node9 -->
<g id="edge38" class="edge"><title>Node14&#45;&gt;Node9</title>
<path fill="none" stroke="midnightblue" d="M797.578,-210.767C845.286,-205.536 963.095,-191.007 1059,-166 1064.95,-164.449 1071.19,-162.486 1077.16,-160.431"/>
<polygon fill="midnightblue" stroke="midnightblue" points="1078.64,-163.617 1086.87,-156.941 1076.28,-157.03 1078.64,-163.617"/>
</g>
<!-- Node14&#45;&gt;Node10 -->
<g id="edge50" class="edge"><title>Node14&#45;&gt;Node10</title>
<path fill="none" stroke="midnightblue" d="M754.233,-205.871C749.869,-204.523 745.302,-203.171 741,-202 672.341,-183.319 639.467,-211.787 585,-166 566.095,-150.107 556.402,-123.175 551.558,-102.904"/>
<polygon fill="midnightblue" stroke="midnightblue" points="554.955,-102.053 549.443,-93.0048 548.109,-103.515 554.955,-102.053"/>
</g>
<!-- Node14&#45;&gt;Node12 -->
<g id="edge52" class="edge"><title>Node14&#45;&gt;Node12</title>
<path fill="none" stroke="midnightblue" d="M788.715,-202.267C798.526,-193.984 812.472,-182.212 824.868,-171.748"/>
<polygon fill="midnightblue" stroke="midnightblue" points="827.348,-174.235 832.731,-165.11 822.832,-168.886 827.348,-174.235"/>
</g>
<!-- Node15 -->
<g id="node35" class="node"><title>Node15</title>
<polygon fill="none" stroke="#bfbfbf" points="594,-137.5 594,-158.5 650,-158.5 650,-137.5 594,-137.5"/>
<text text-anchor="middle" x="622" y="-145.5" font-family="Helvetica,sans-Serif" font-size="10.00">algorithm</text>
</g>
<!-- Node14&#45;&gt;Node15 -->
<g id="edge40" class="edge"><title>Node14&#45;&gt;Node15</title>
<path fill="none" stroke="midnightblue" d="M754.244,-204.791C730.605,-195.748 691.818,-180.553 659,-166 656.796,-165.023 654.53,-163.99 652.257,-162.934"/>
<polygon fill="midnightblue" stroke="midnightblue" points="653.545,-159.671 643.011,-158.54 650.541,-165.994 653.545,-159.671"/>
</g>
<!-- Node16 -->
<g id="node37" class="node"><title>Node16</title>
<polygon fill="none" stroke="#bfbfbf" points="668,-137.5 668,-158.5 712,-158.5 712,-137.5 668,-137.5"/>
<text text-anchor="middle" x="690" y="-145.5" font-family="Helvetica,sans-Serif" font-size="10.00">cmath</text>
</g>
<!-- Node14&#45;&gt;Node16 -->
<g id="edge42" class="edge"><title>Node14&#45;&gt;Node16</title>
<path fill="none" stroke="midnightblue" d="M761.799,-202.267C748.274,-192.044 727.713,-176.504 712.056,-164.67"/>
<polygon fill="midnightblue" stroke="midnightblue" points="714.025,-161.771 703.937,-158.534 709.804,-167.356 714.025,-161.771"/>
</g>
<!-- Node17 -->
<g id="node39" class="node"><title>Node17</title>
<polygon fill="none" stroke="#bfbfbf" points="730,-137.5 730,-158.5 782,-158.5 782,-137.5 730,-137.5"/>
<text text-anchor="middle" x="756" y="-145.5" font-family="Helvetica,sans-Serif" font-size="10.00">sstream</text>
</g>
<!-- Node14&#45;&gt;Node17 -->
<g id="edge44" class="edge"><title>Node14&#45;&gt;Node17</title>
<path fill="none" stroke="midnightblue" d="M772.697,-202.267C769.872,-193.085 765.728,-179.615 762.274,-168.392"/>
<polygon fill="midnightblue" stroke="midnightblue" points="765.527,-167.062 759.241,-158.534 758.837,-169.121 765.527,-167.062"/>
</g>
<!-- Node19&#45;&gt;Node4 -->
<g id="edge66" class="edge"><title>Node19&#45;&gt;Node4</title>
<path fill="none" stroke="midnightblue" d="M605.831,-379.505C580.603,-373.032 549.909,-361.222 530,-340 517.908,-327.111 486.348,-215.214 473.531,-168.428"/>
<polygon fill="midnightblue" stroke="midnightblue" points="476.836,-167.243 470.829,-158.515 470.082,-169.084 476.836,-167.243"/>
</g>
<!-- Node20 -->
<g id="node54" class="node"><title>Node20</title>
<a xlink:href="GUITimeline_8h.xhtml" target="_top" xlink:title="GUITimeline.h">
<polygon fill="none" stroke="black" points="887,-318.5 887,-339.5 967,-339.5 967,-318.5 887,-318.5"/>
<text text-anchor="middle" x="927" y="-326.5" font-family="Helvetica,sans-Serif" font-size="10.00">GUITimeline.h</text>
</a>
</g>
<!-- Node19&#45;&gt;Node20 -->
<g id="edge68" class="edge"><title>Node19&#45;&gt;Node20</title>
<path fill="none" stroke="midnightblue" d="M692.1,-378.4C736.098,-369.566 806.628,-355.254 876.979,-340.194"/>
<polygon fill="midnightblue" stroke="midnightblue" points="877.859,-343.585 886.902,-338.065 876.39,-336.741 877.859,-343.585"/>
</g>
<!-- Node20&#45;&gt;Node4 -->
<g id="edge70" class="edge"><title>Node20&#45;&gt;Node4</title>
<path fill="none" stroke="midnightblue" d="M902.317,-318.418C850.128,-296.142 724.62,-243.079 618,-202 579.481,-187.159 534.933,-171.283 504.454,-160.614"/>
<polygon fill="midnightblue" stroke="midnightblue" points="505.281,-157.196 494.686,-157.205 502.974,-163.805 505.281,-157.196"/>
</g>
<!-- Node20&#45;&gt;Node9 -->
<g id="edge74" class="edge"><title>Node20&#45;&gt;Node9</title>
<path fill="none" stroke="midnightblue" d="M967.358,-319.889C1025.68,-306.679 1126.73,-283.597 1128,-282 1154.25,-248.9 1134.26,-196.194 1120.03,-167.751"/>
<polygon fill="midnightblue" stroke="midnightblue" points="1123.06,-166.005 1115.32,-158.774 1116.86,-169.256 1123.06,-166.005"/>
</g>
<!-- Node20&#45;&gt;Node11 -->
<g id="edge76" class="edge"><title>Node20&#45;&gt;Node11</title>
<path fill="none" stroke="midnightblue" d="M949.637,-318.497C969.248,-309.397 997.846,-296.127 1019.83,-285.925"/>
<polygon fill="midnightblue" stroke="midnightblue" points="1021.51,-289.005 1029.11,-281.621 1018.57,-282.655 1021.51,-289.005"/>
</g>
<!-- Node21 -->
<g id="node57" class="node"><title>Node21</title>
<polygon fill="none" stroke="#bfbfbf" points="926.5,-260.5 926.5,-281.5 967.5,-281.5 967.5,-260.5 926.5,-260.5"/>
<text text-anchor="middle" x="947" y="-268.5" font-family="Helvetica,sans-Serif" font-size="10.00">string</text>
</g>
<!-- Node20&#45;&gt;Node21 -->
<g id="edge72" class="edge"><title>Node20&#45;&gt;Node21</title>
<path fill="none" stroke="midnightblue" d="M930.668,-318.362C933.29,-310.758 936.899,-300.294 940.057,-291.135"/>
<polygon fill="midnightblue" stroke="midnightblue" points="943.404,-292.165 943.355,-281.571 936.786,-289.883 943.404,-292.165"/>
</g>
<!-- Node22&#45;&gt;Node4 -->
<g id="edge80" class="edge"><title>Node22&#45;&gt;Node4</title>
<path fill="none" stroke="midnightblue" d="M188.733,-492.196C178.169,-483.719 164.977,-470.886 159,-456 155.357,-446.926 156.107,-443.34 159,-434 168.247,-404.149 293.269,-221.105 318,-202 351.698,-175.967 399.068,-161.721 431.507,-154.497"/>
<polygon fill="midnightblue" stroke="midnightblue" points="432.416,-157.883 441.478,-152.393 430.97,-151.034 432.416,-157.883"/>
</g>
<!-- Node23 -->
<g id="node64" class="node"><title>Node23</title>
<polygon fill="none" stroke="#bfbfbf" points="168,-434.5 168,-455.5 240,-455.5 240,-434.5 168,-434.5"/>
<text text-anchor="middle" x="204" y="-442.5" font-family="Helvetica,sans-Serif" font-size="10.00">wx/spinctrl.h</text>
</g>
<!-- Node22&#45;&gt;Node23 -->
<g id="edge82" class="edge"><title>Node22&#45;&gt;Node23</title>
<path fill="none" stroke="midnightblue" d="M204,-492.362C204,-484.922 204,-474.743 204,-465.728"/>
<polygon fill="midnightblue" stroke="midnightblue" points="207.5,-465.571 204,-455.571 200.5,-465.571 207.5,-465.571"/>
</g>
<!-- Node24&#45;&gt;Node4 -->
<g id="edge90" class="edge"><title>Node24&#45;&gt;Node4</title>
<path fill="none" stroke="midnightblue" d="M745.876,-434.187C736.394,-420.134 718.751,-395.134 701,-376 657.949,-329.593 639.511,-325.997 594,-282 552.981,-242.346 507.846,-192.773 484.319,-166.442"/>
<polygon fill="midnightblue" stroke="midnightblue" points="486.736,-163.893 477.472,-158.751 481.507,-168.547 486.736,-163.893"/>
</g>
<!-- Node24&#45;&gt;Node19 -->
<g id="edge86" class="edge"><title>Node24&#45;&gt;Node19</title>
<path fill="none" stroke="midnightblue" d="M733.925,-434.362C717.945,-425.45 694.919,-412.609 676.873,-402.545"/>
<polygon fill="midnightblue" stroke="midnightblue" points="678.393,-399.385 667.954,-397.571 674.983,-405.498 678.393,-399.385"/>
</g>
<!-- Node25 -->
<g id="node69" class="node"><title>Node25</title>
<polygon fill="none" stroke="#bfbfbf" points="748,-376.5 748,-397.5 804,-397.5 804,-376.5 748,-376.5"/>
<text text-anchor="middle" x="776" y="-384.5" font-family="Helvetica,sans-Serif" font-size="10.00">wx/grid.h</text>
</g>
<!-- Node24&#45;&gt;Node25 -->
<g id="edge88" class="edge"><title>Node24&#45;&gt;Node25</title>
<path fill="none" stroke="midnightblue" d="M757.219,-434.362C760.234,-426.758 764.383,-416.294 768.015,-407.135"/>
<polygon fill="midnightblue" stroke="midnightblue" points="771.375,-408.157 771.808,-397.571 764.868,-405.576 771.375,-408.157"/>
</g>
<!-- Node26&#45;&gt;Node4 -->
<g id="edge94" class="edge"><title>Node26&#45;&gt;Node4</title>
<path fill="none" stroke="midnightblue" d="M181.509,-260.404C195.762,-245.177 224.192,-217.267 254,-202 311.937,-172.326 387.217,-158.256 431.31,-152.147"/>
<polygon fill="midnightblue" stroke="midnightblue" points="431.834,-155.608 441.288,-150.828 430.916,-148.669 431.834,-155.608"/>
</g>
<!-- Node27&#45;&gt;Node4 -->
<g id="edge98" class="edge"><title>Node27&#45;&gt;Node4</title>
<path fill="none" stroke="midnightblue" d="M380.507,-492.329C361.426,-484.995 339.16,-473.382 325,-456 304.91,-431.339 306,-418.808 306,-387 306,-387 306,-387 306,-271 306,-208.361 383.778,-173.473 431.549,-157.953"/>
<polygon fill="midnightblue" stroke="midnightblue" points="432.742,-161.247 441.249,-154.932 430.661,-154.564 432.742,-161.247"/>
</g>
<!-- Node27&#45;&gt;Node7 -->
<g id="edge116" class="edge"><title>Node27&#45;&gt;Node7</title>
<path fill="none" stroke="midnightblue" d="M479.843,-495.415C489.603,-494.258 499.572,-493.087 509,-492 580.966,-483.7 783.842,-509.212 833,-456 859.562,-427.248 851.223,-377.337 843.604,-349.414"/>
<polygon fill="midnightblue" stroke="midnightblue" points="846.882,-348.156 840.692,-339.557 840.169,-350.139 846.882,-348.156"/>
</g>
<!-- Node27&#45;&gt;Node10 -->
<g id="edge110" class="edge"><title>Node27&#45;&gt;Node10</title>
<path fill="none" stroke="midnightblue" d="M385.985,-492.443C363.297,-484.089 332.209,-471.301 307,-456 197.305,-389.418 26.2859,-368.372 95,-260 179.521,-126.698 380.396,-89.9668 483.517,-79.8472"/>
<polygon fill="midnightblue" stroke="midnightblue" points="483.852,-83.3313 493.486,-78.9222 483.206,-76.3612 483.852,-83.3313"/>
</g>
<!-- Node27&#45;&gt;Node14 -->
<g id="edge112" class="edge"><title>Node27&#45;&gt;Node14</title>
<path fill="none" stroke="midnightblue" d="M479.836,-493.572C506.762,-486.86 537.007,-475.426 559,-456 588.502,-429.942 573.562,-407.624 597,-376 643.106,-313.79 715.555,-256.702 752.553,-229.582"/>
<polygon fill="midnightblue" stroke="midnightblue" points="754.694,-232.353 760.736,-223.65 750.586,-226.685 754.694,-232.353"/>
</g>
<!-- Node27&#45;&gt;Node23 -->
<g id="edge114" class="edge"><title>Node27&#45;&gt;Node23</title>
<path fill="none" stroke="midnightblue" d="M378.427,-492.497C342.331,-482.668 288.367,-467.973 250.033,-457.535"/>
<polygon fill="midnightblue" stroke="midnightblue" points="250.723,-454.095 240.155,-454.845 248.884,-460.85 250.723,-454.095"/>
</g>
<!-- Node28 -->
<g id="node78" class="node"><title>Node28</title>
<a xlink:href="GUIRenderCutCanvas_8h.xhtml" target="_top" xlink:title="GUIRenderCutCanvas.h">
<polygon fill="none" stroke="black" points="334,-434.5 334,-455.5 458,-455.5 458,-434.5 334,-434.5"/>
<text text-anchor="middle" x="396" y="-442.5" font-family="Helvetica,sans-Serif" font-size="10.00">GUIRenderCutCanvas.h</text>
</a>
</g>
<!-- Node27&#45;&gt;Node28 -->
<g id="edge100" class="edge"><title>Node27&#45;&gt;Node28</title>
<path fill="none" stroke="midnightblue" d="M413.148,-492.362C410.395,-484.758 406.606,-474.294 403.29,-465.135"/>
<polygon fill="midnightblue" stroke="midnightblue" points="406.523,-463.782 399.827,-455.571 399.941,-466.165 406.523,-463.782"/>
</g>
<!-- Node30 -->
<g id="node89" class="node"><title>Node30</title>
<polygon fill="none" stroke="#bfbfbf" points="476,-434.5 476,-455.5 550,-455.5 550,-434.5 476,-434.5"/>
<text text-anchor="middle" x="513" y="-442.5" font-family="Helvetica,sans-Serif" font-size="10.00">wx/colordlg.h</text>
</g>
<!-- Node27&#45;&gt;Node30 -->
<g id="edge118" class="edge"><title>Node27&#45;&gt;Node30</title>
<path fill="none" stroke="midnightblue" d="M434.608,-492.362C449.223,-483.532 470.224,-470.844 486.811,-460.822"/>
<polygon fill="midnightblue" stroke="midnightblue" points="488.754,-463.738 495.504,-455.571 485.135,-457.746 488.754,-463.738"/>
</g>
<!-- Node28&#45;&gt;Node4 -->
<g id="edge102" class="edge"><title>Node28&#45;&gt;Node4</title>
<path fill="none" stroke="midnightblue" d="M391.625,-434.333C383.75,-414.139 368,-368.777 368,-329 368,-329 368,-329 368,-271 368,-224.159 412.201,-185.234 441.83,-164.404"/>
<polygon fill="midnightblue" stroke="midnightblue" points="443.815,-167.287 450.122,-158.774 439.883,-161.496 443.815,-167.287"/>
</g>
<!-- Node29 -->
<g id="node81" class="node"><title>Node29</title>
<a xlink:href="GUIColorScalePanel_8h.xhtml" target="_top" xlink:title="GUIColorScalePanel.h">
<polygon fill="none" stroke="black" points="396,-376.5 396,-397.5 512,-397.5 512,-376.5 396,-376.5"/>
<text text-anchor="middle" x="454" y="-384.5" font-family="Helvetica,sans-Serif" font-size="10.00">GUIColorScalePanel.h</text>
</a>
</g>
<!-- Node28&#45;&gt;Node29 -->
<g id="edge104" class="edge"><title>Node28&#45;&gt;Node29</title>
<path fill="none" stroke="midnightblue" d="M406.638,-434.362C414.896,-426.104 426.528,-414.472 436.197,-404.803"/>
<polygon fill="midnightblue" stroke="midnightblue" points="438.833,-407.117 443.429,-397.571 433.883,-402.167 438.833,-407.117"/>
</g>
<!-- Node29&#45;&gt;Node4 -->
<g id="edge108" class="edge"><title>Node29&#45;&gt;Node4</title>
<path fill="none" stroke="midnightblue" d="M453.042,-376.096C450.731,-347.429 445.631,-267.632 454,-202 455.44,-190.712 458.507,-178.41 461.405,-168.403"/>
<polygon fill="midnightblue" stroke="midnightblue" points="464.824,-169.187 464.397,-158.601 458.13,-167.143 464.824,-169.187"/>
</g>
<!-- Node29&#45;&gt;Node7 -->
<g id="edge106" class="edge"><title>Node29&#45;&gt;Node7</title>
<path fill="none" stroke="midnightblue" d="M512.169,-378.191C589.797,-366.435 725.454,-345.892 794.303,-335.466"/>
<polygon fill="midnightblue" stroke="midnightblue" points="794.998,-338.901 804.361,-333.943 793.95,-331.98 794.998,-338.901"/>
</g>
</g>
</svg>
        <g id="navigator" transform="translate(0 0)" fill="#404254">
                <rect fill="#f2f5e9" fill-opacity="0.5" stroke="#606060" stroke-width=".5" x="0" y="0" width="60" height="60"/>
                <use id="zoomplus" xlink:href="#zoomPlus" x="17" y="9" onmousedown="handleZoom(evt,'in')"/>
                <use id="zoomminus" xlink:href="#zoomMin" x="42" y="9" onmousedown="handleZoom(evt,'out')"/>
                <use id="reset" xlink:href="#resetDef" x="30" y="36" onmousedown="handleReset()"/>
                <g id="arrowUp" xlink:href="#dirArrow" transform="translate(30 24)" onmousedown="handlePan(0,-1)">
                  <use xlink:href="#rim" fill="#404040">
                        <set attributeName="fill" to="#808080" begin="arrowUp.mouseover" end="arrowUp.mouseout"/>
                  </use>
                  <path fill="none" stroke="white" stroke-width="1.5" d="M0,-3.0v7 M-2.5,-0.5L0,-3.0L2.5,-0.5"/>
                </g>
                <g id="arrowRight" xlink:href="#dirArrow" transform="rotate(90) translate(36 -43)" onmousedown="handlePan(1,0)">
                  <use xlink:href="#rim" fill="#404040">
                        <set attributeName="fill" to="#808080" begin="arrowRight.mouseover" end="arrowRight.mouseout"/>
                  </use>
                  <path fill="none" stroke="white" stroke-width="1.5" d="M0,-3.0v7 M-2.5,-0.5L0,-3.0L2.5,-0.5"/>
                </g>
                <g id="arrowDown" xlink:href="#dirArrow" transform="rotate(180) translate(-30 -48)" onmousedown="handlePan(0,1)">
                  <use xlink:href="#rim" fill="#404040">
                        <set attributeName="fill" to="#808080" begin="arrowDown.mouseover" end="arrowDown.mouseout"/>
                  </use>
                  <path fill="none" stroke="white" stroke-width="1.5" d="M0,-3.0v7 M-2.5,-0.5L0,-3.0L2.5,-0.5"/>
                </g>
                <g id="arrowLeft" xlink:href="#dirArrow" transform="rotate(270) translate(-36 17)" onmousedown="handlePan(-1,0)">
                  <use xlink:href="#rim" fill="#404040">
                        <set attributeName="fill" to="#808080" begin="arrowLeft.mouseover" end="arrowLeft.mouseout"/>
                  </use>
                  <path fill="none" stroke="white" stroke-width="1.5" d="M0,-3.0v7 M-2.5,-0.5L0,-3.0L2.5,-0.5"/>
                </g>
        </g>
        <svg viewBox="0 0 15 15" width="100%" height="30px" preserveAspectRatio="xMaxYMin meet">
         <g id="arrow_out" transform="scale(0.3 0.3)">
          <a xlink:href="Application_8cpp__incl_org.svg" target="_base">
           <rect id="button" ry="5" rx="5" y="6" x="6" height="38" width="38"
                fill="#f2f5e9" fill-opacity="0.5" stroke="#606060" stroke-width="1.0"/>
           <path id="arrow"
             d="M 11.500037,31.436501 C 11.940474,20.09759 22.043105,11.32322 32.158766,21.979434 L 37.068811,17.246167 C 37.068811,17.246167 37.088388,32 37.088388,32 L 22.160133,31.978069 C 22.160133,31.978069 26.997745,27.140456 26.997745,27.140456 C 18.528582,18.264221 13.291696,25.230495 11.500037,31.436501 z"
             style="fill:#404040;"/>
          </a>
         </g>
        </svg>
</svg>
