<?xml version="1.0" encoding="UTF-8" standalone="no"?>
<!DOCTYPE svg PUBLIC "-//W3C//DTD SVG 1.1//EN"
 "http://www.w3.org/Graphics/SVG/1.1/DTD/svg11.dtd">
<!-- Generated by graphviz version 2.36.0 (20140111.2315)
 -->
<!-- Title: GUIGLCanvas::OnPaint Pages: 1 -->
<svg width="552pt" height="180pt"
 viewBox="0.00 0.00 552.00 180.00" xmlns="http://www.w3.org/2000/svg" xmlns:xlink="http://www.w3.org/1999/xlink">
<g id="graph0" class="graph" transform="scale(1 1) rotate(0) translate(4 176)">
<title>GUIGLCanvas::OnPaint</title>
<!-- Node1 -->
<g id="node1" class="node"><title>Node1</title>
<polygon fill="#bfbfbf" stroke="black" points="0,-95.5 0,-114.5 122,-114.5 122,-95.5 0,-95.5"/>
<text text-anchor="middle" x="61" y="-102.5" font-family="Helvetica,sans-Serif" font-size="10.00">GUIGLCanvas::OnPaint</text>
</g>
<!-- Node2 -->
<g id="node2" class="node"><title>Node2</title>
<g id="a_node2"><a xlink:href="classRenderer.xhtml#a01887363ad27267e44c1ea0f63761a5c" target="_top" xlink:title="Initialisiert die OpenGL&#45;Bibliothek. ">
<polygon fill="none" stroke="black" points="166,-152.5 166,-171.5 254,-171.5 254,-152.5 166,-152.5"/>
<text text-anchor="middle" x="210" y="-159.5" font-family="Helvetica,sans-Serif" font-size="10.00">Renderer::initGL</text>
</a>
</g>
</g>
<!-- Node1&#45;&gt;Node2 -->
<g id="edge1" class="edge"><title>Node1&#45;&gt;Node2</title>
<path fill="none" stroke="midnightblue" d="M85.6189,-114.504C105.019,-122.273 133.236,-133.487 158,-143 162.945,-144.9 168.17,-146.878 173.315,-148.811"/>
<polygon fill="midnightblue" stroke="midnightblue" points="172.424,-152.214 183.017,-152.436 174.874,-145.657 172.424,-152.214"/>
</g>
<!-- Node3 -->
<g id="node3" class="node"><title>Node3</title>
<g id="a_node3"><a xlink:href="classRenderer.xhtml#a9f4493c538688adaad4e4f0575fd3b8d" target="_top" xlink:title="Renderer::resize">
<polygon fill="none" stroke="black" points="165.5,-114.5 165.5,-133.5 254.5,-133.5 254.5,-114.5 165.5,-114.5"/>
<text text-anchor="middle" x="210" y="-121.5" font-family="Helvetica,sans-Serif" font-size="10.00">Renderer::resize</text>
</a>
</g>
</g>
<!-- Node1&#45;&gt;Node3 -->
<g id="edge2" class="edge"><title>Node1&#45;&gt;Node3</title>
<path fill="none" stroke="midnightblue" d="M122.215,-112.783C133.15,-114.196 144.492,-115.662 155.227,-117.05"/>
<polygon fill="midnightblue" stroke="midnightblue" points="154.935,-120.541 165.301,-118.352 155.832,-113.599 154.935,-120.541"/>
</g>
<!-- Node4 -->
<g id="node4" class="node"><title>Node4</title>
<g id="a_node4"><a xlink:href="classRenderer.xhtml#a9db67fbbd309875b564ca1df08daf372" target="_top" xlink:title="Setzt das zu zeichnende Objekt. ">
<polygon fill="none" stroke="black" points="158,-76.5 158,-95.5 262,-95.5 262,-76.5 158,-76.5"/>
<text text-anchor="middle" x="210" y="-83.5" font-family="Helvetica,sans-Serif" font-size="10.00">Renderer::setObject</text>
</a>
</g>
</g>
<!-- Node1&#45;&gt;Node4 -->
<g id="edge3" class="edge"><title>Node1&#45;&gt;Node4</title>
<path fill="none" stroke="midnightblue" d="M122.215,-97.2172C130.557,-96.1388 139.136,-95.03 147.502,-93.9487"/>
<polygon fill="midnightblue" stroke="midnightblue" points="148.102,-97.4004 157.57,-92.6474 147.204,-90.4582 148.102,-97.4004"/>
</g>
<!-- Node6 -->
<g id="node6" class="node"><title>Node6</title>
<g id="a_node6"><a xlink:href="classRenderer.xhtml#a0580ba6864ba731290380740c0a470e3" target="_top" xlink:title="Renderer::render">
<polygon fill="none" stroke="black" points="165.5,-38.5 165.5,-57.5 254.5,-57.5 254.5,-38.5 165.5,-38.5"/>
<text text-anchor="middle" x="210" y="-45.5" font-family="Helvetica,sans-Serif" font-size="10.00">Renderer::render</text>
</a>
</g>
</g>
<!-- Node1&#45;&gt;Node6 -->
<g id="edge5" class="edge"><title>Node1&#45;&gt;Node6</title>
<path fill="none" stroke="midnightblue" d="M85.6189,-95.4963C105.019,-87.7274 133.236,-76.5132 158,-67 162.945,-65.1005 168.17,-63.1217 173.315,-61.1895"/>
<polygon fill="midnightblue" stroke="midnightblue" points="174.874,-64.3432 183.017,-57.5642 172.424,-57.7861 174.874,-64.3432"/>
</g>
<!-- Node5 -->
<g id="node5" class="node"><title>Node5</title>
<g id="a_node5"><a xlink:href="classObjectData.xhtml#afda67d7524b83780e431dd3a9c5ac23a" target="_top" xlink:title="Gibt eine Referenz auf die Liste der Materialien (mit Materialdaten) des Objekts zurück. ">
<polygon fill="none" stroke="black" points="298.5,-76.5 298.5,-95.5 423.5,-95.5 423.5,-76.5 298.5,-76.5"/>
<text text-anchor="middle" x="361" y="-83.5" font-family="Helvetica,sans-Serif" font-size="10.00">ObjectData::getMaterials</text>
</a>
</g>
</g>
<!-- Node4&#45;&gt;Node5 -->
<g id="edge4" class="edge"><title>Node4&#45;&gt;Node5</title>
<path fill="none" stroke="midnightblue" d="M262.277,-86C270.627,-86 279.409,-86 288.143,-86"/>
<polygon fill="midnightblue" stroke="midnightblue" points="288.344,-89.5001 298.344,-86 288.344,-82.5001 288.344,-89.5001"/>
</g>
<!-- Node7 -->
<g id="node7" class="node"><title>Node7</title>
<g id="a_node7"><a xlink:href="classParticleSystem.xhtml#a6908575021b0f12f4bf4d7298acf4900" target="_top" xlink:title="ParticleSystem::calc">
<polygon fill="none" stroke="black" points="307.5,-38.5 307.5,-57.5 414.5,-57.5 414.5,-38.5 307.5,-38.5"/>
<text text-anchor="middle" x="361" y="-45.5" font-family="Helvetica,sans-Serif" font-size="10.00">ParticleSystem::calc</text>
</a>
</g>
</g>
<!-- Node6&#45;&gt;Node7 -->
<g id="edge6" class="edge"><title>Node6&#45;&gt;Node7</title>
<path fill="none" stroke="midnightblue" d="M254.899,-48C268.162,-48 282.99,-48 297.232,-48"/>
<polygon fill="midnightblue" stroke="midnightblue" points="297.468,-51.5001 307.468,-48 297.468,-44.5001 297.468,-51.5001"/>
</g>
<!-- Node9 -->
<g id="node9" class="node"><title>Node9</title>
<g id="a_node9"><a xlink:href="CLGL__test_2utils_8cpp.xhtml#acd0aed8d85538d84a97258e97cd65668" target="_top" xlink:title="checkGLError">
<polygon fill="none" stroke="black" points="322.5,-0.5 322.5,-19.5 399.5,-19.5 399.5,-0.5 322.5,-0.5"/>
<text text-anchor="middle" x="361" y="-7.5" font-family="Helvetica,sans-Serif" font-size="10.00">checkGLError</text>
</a>
</g>
</g>
<!-- Node6&#45;&gt;Node9 -->
<g id="edge8" class="edge"><title>Node6&#45;&gt;Node9</title>
<path fill="none" stroke="midnightblue" d="M248.599,-38.411C268.084,-33.4417 292.075,-27.3233 312.796,-22.0387"/>
<polygon fill="midnightblue" stroke="midnightblue" points="313.846,-25.3828 322.671,-19.5201 312.117,-18.5999 313.846,-25.3828"/>
</g>
<!-- Node8 -->
<g id="node8" class="node"><title>Node8</title>
<g id="a_node8"><a xlink:href="CLGL__test_2utils_8cpp.xhtml#a0ad38b3024e8b403c440e818c8e7ee5d" target="_top" xlink:title="get_error_string">
<polygon fill="none" stroke="black" points="460,-38.5 460,-57.5 544,-57.5 544,-38.5 460,-38.5"/>
<text text-anchor="middle" x="502" y="-45.5" font-family="Helvetica,sans-Serif" font-size="10.00">get_error_string</text>
</a>
</g>
</g>
<!-- Node7&#45;&gt;Node8 -->
<g id="edge7" class="edge"><title>Node7&#45;&gt;Node8</title>
<path fill="none" stroke="midnightblue" d="M414.55,-48C425.969,-48 438.038,-48 449.419,-48"/>
<polygon fill="midnightblue" stroke="midnightblue" points="449.639,-51.5001 459.639,-48 449.639,-44.5001 449.639,-51.5001"/>
</g>
</g>
</svg>
