<?xml version="1.0" encoding="UTF-8" standalone="no"?>
<!DOCTYPE svg PUBLIC "-//W3C//DTD SVG 1.1//EN"
 "http://www.w3.org/Graphics/SVG/1.1/DTD/svg11.dtd">
<!-- Generated by graphviz version 2.26.3 (20100126.1600)
 -->
<!-- Title: Renderer::render Pages: 1 -->
<!--zoomable 421 -->
<svg id="main" version="1.1" xmlns="http://www.w3.org/2000/svg" xmlns:xlink="http://www.w3.org/1999/xlink" xml:space="preserve" onload="init(evt)">
<style type="text/css"><![CDATA[
.edge:hover path { stroke: red; }
.edge:hover polygon { stroke: red; fill: red; }
]]></style>
<script type="text/javascript"><![CDATA[
var edges = document.getElementsByTagName('g');
if (edges && edges.length) {
  for (var i=0;i<edges.length;i++) {
    if (edges[i].id.substr(0,4)=='edge') {
      edges[i].setAttribute('class','edge');
    }
  }
}
]]></script>
        <defs>
                <circle id="rim" cx="0" cy="0" r="7"/>
                <circle id="rim2" cx="0" cy="0" r="3.5"/>
                <g id="zoomPlus">
                        <use xlink:href="#rim" fill="#404040">
                                <set attributeName="fill" to="#808080" begin="zoomplus.mouseover" end="zoomplus.mouseout"/>
                        </use>
                        <path d="M-4,0h8M0,-4v8" fill="none" stroke="white" stroke-width="1.5" pointer-events="none"/>
                </g>
                <g id="zoomMin">
                        <use xlink:href="#rim" fill="#404040">
                                <set attributeName="fill" to="#808080" begin="zoomminus.mouseover" end="zoomminus.mouseout"/>
                        </use>
                        <path d="M-4,0h8" fill="none" stroke="white" stroke-width="1.5" pointer-events="none"/>
                </g>
                <g id="dirArrow">
                        <path fill="none" stroke="white" stroke-width="1.5" d="M0,-3.0v7 M-2.5,-0.5L0,-3.0L2.5,-0.5"/>
                </g>
               <g id="resetDef">
                       <use xlink:href="#rim2" fill="#404040">
                               <set attributeName="fill" to="#808080" begin="reset.mouseover" end="reset.mouseout"/>
                       </use>
               </g>
        </defs>

<script type="text/javascript">
var viewWidth = 514;
var viewHeight = 421;
var sectionId = 'dynsection-3';
</script>
<script xlink:href="svgpan.js"/>
<svg id="graph" class="graph">
<g id="viewport">
<title>Renderer::render</title>
<!-- Node1 -->
<g id="node1" class="node"><title>Node1</title>
<polygon fill="#bfbfbf" stroke="black" points="0.5,-199.5 0.5,-220.5 89.5,-220.5 89.5,-199.5 0.5,-199.5"/>
<text text-anchor="middle" x="45" y="-207.5" font-family="Helvetica,sans-Serif" font-size="10.00">Renderer::render</text>
</g>
<!-- Node2 -->
<g id="node3" class="node"><title>Node2</title>
<a xlink:href="classTriangle.xhtml#a3c72b19f316fa9ffb0a2f206e3558790" target="_top" xlink:title="Triangle::getNormal">
<polygon fill="none" stroke="black" points="126,-276.5 126,-297.5 228,-297.5 228,-276.5 126,-276.5"/>
<text text-anchor="middle" x="177" y="-284.5" font-family="Helvetica,sans-Serif" font-size="10.00">Triangle::getNormal</text>
</a>
</g>
<!-- Node1&#45;&gt;Node2 -->
<g id="edge2" class="edge"><title>Node1&#45;&gt;Node2</title>
<path fill="none" stroke="midnightblue" d="M60.2037,-220.508C76.2442,-231.415 102.416,-248.708 126,-262 132.06,-265.416 138.653,-268.847 145.025,-272.027"/>
<polygon fill="midnightblue" stroke="midnightblue" points="143.594,-275.223 154.115,-276.473 146.67,-268.935 143.594,-275.223"/>
</g>
<!-- Node3 -->
<g id="node5" class="node"><title>Node3</title>
<a xlink:href="classVector3D.xhtml#a46dd0d9a849809a3857783102959e788" target="_top" xlink:title="Vector3D::copy">
<polygon fill="none" stroke="black" points="282.5,-311.5 282.5,-332.5 367.5,-332.5 367.5,-311.5 282.5,-311.5"/>
<text text-anchor="middle" x="325" y="-319.5" font-family="Helvetica,sans-Serif" font-size="10.00">Vector3D::copy</text>
</a>
</g>
<!-- Node1&#45;&gt;Node3 -->
<g id="edge32" class="edge"><title>Node1&#45;&gt;Node3</title>
<path fill="none" stroke="midnightblue" d="M50.1253,-220.564C60.8725,-241.392 87.9567,-287.429 126,-307 171.397,-330.354 230.463,-331.793 272.423,-328.808"/>
<polygon fill="midnightblue" stroke="midnightblue" points="272.754,-332.293 282.435,-327.989 272.183,-325.316 272.754,-332.293"/>
</g>
<!-- Node4 -->
<g id="node7" class="node"><title>Node4</title>
<a xlink:href="classVector3D.xhtml#a02364a41693ac080f5adadd776df74b4" target="_top" xlink:title="Vector3D::sub">
<polygon fill="none" stroke="black" points="285,-351.5 285,-372.5 365,-372.5 365,-351.5 285,-351.5"/>
<text text-anchor="middle" x="325" y="-359.5" font-family="Helvetica,sans-Serif" font-size="10.00">Vector3D::sub</text>
</a>
</g>
<!-- Node1&#45;&gt;Node4 -->
<g id="edge34" class="edge"><title>Node1&#45;&gt;Node4</title>
<path fill="none" stroke="midnightblue" d="M48.6415,-220.672C57.546,-244.994 82.8991,-304.546 126,-332 170.511,-360.352 231.774,-365.691 274.526,-365.304"/>
<polygon fill="midnightblue" stroke="midnightblue" points="274.775,-368.799 284.704,-365.101 274.636,-361.801 274.775,-368.799"/>
</g>
<!-- Node8 -->
<g id="node15" class="node"><title>Node8</title>
<a xlink:href="classVector3D.xhtml#a482cd77ce44ea7dd71fd7a43cb7b1cf5" target="_top" xlink:title="Vector3D::crossProduct">
<polygon fill="none" stroke="black" points="264,-231.5 264,-252.5 386,-252.5 386,-231.5 264,-231.5"/>
<text text-anchor="middle" x="325" y="-239.5" font-family="Helvetica,sans-Serif" font-size="10.00">Vector3D::crossProduct</text>
</a>
</g>
<!-- Node1&#45;&gt;Node8 -->
<g id="edge36" class="edge"><title>Node1&#45;&gt;Node8</title>
<path fill="none" stroke="midnightblue" d="M89.6764,-215.106C133.825,-220.151 202.057,-227.949 253.703,-233.852"/>
<polygon fill="midnightblue" stroke="midnightblue" points="253.467,-237.347 263.8,-235.006 254.262,-230.393 253.467,-237.347"/>
</g>
<!-- Node9 -->
<g id="node20" class="node"><title>Node9</title>
<a xlink:href="classVector3D.xhtml#abfb12ecb9c9beb88e095cc4a1a512d3c" target="_top" xlink:title="Vector3D::normalize">
<polygon fill="none" stroke="black" points="272,-271.5 272,-292.5 378,-292.5 378,-271.5 272,-271.5"/>
<text text-anchor="middle" x="325" y="-279.5" font-family="Helvetica,sans-Serif" font-size="10.00">Vector3D::normalize</text>
</a>
</g>
<!-- Node1&#45;&gt;Node9 -->
<g id="edge38" class="edge"><title>Node1&#45;&gt;Node9</title>
<path fill="none" stroke="midnightblue" d="M79.1787,-220.551C93.584,-224.887 110.56,-229.853 126,-234 173.779,-246.832 228.437,-259.901 268.366,-269.156"/>
<polygon fill="midnightblue" stroke="midnightblue" points="267.655,-272.584 278.187,-271.424 269.231,-265.763 267.655,-272.584"/>
</g>
<!-- Node10 -->
<g id="node22" class="node"><title>Node10</title>
<a xlink:href="classVector3D.xhtml#a89aeff2092d6a954cd449aca97c59197" target="_top" xlink:title="Vector3D::getXYZ">
<polygon fill="none" stroke="black" points="128.5,-160.5 128.5,-181.5 225.5,-181.5 225.5,-160.5 128.5,-160.5"/>
<text text-anchor="middle" x="177" y="-168.5" font-family="Helvetica,sans-Serif" font-size="10.00">Vector3D::getXYZ</text>
</a>
</g>
<!-- Node1&#45;&gt;Node10 -->
<g id="edge24" class="edge"><title>Node1&#45;&gt;Node10</title>
<path fill="none" stroke="midnightblue" d="M80.7211,-199.446C96.2755,-194.85 114.694,-189.408 131.236,-184.521"/>
<polygon fill="midnightblue" stroke="midnightblue" points="132.652,-187.752 141.25,-181.562 130.668,-181.039 132.652,-187.752"/>
</g>
<!-- Node11 -->
<g id="node24" class="node"><title>Node11</title>
<a xlink:href="classTriangle.xhtml#ae054a0eae5dae026c5af69274c5f277e" target="_top" xlink:title="Triangle::getV1">
<polygon fill="none" stroke="black" points="135.5,-120.5 135.5,-141.5 218.5,-141.5 218.5,-120.5 135.5,-120.5"/>
<text text-anchor="middle" x="177" y="-128.5" font-family="Helvetica,sans-Serif" font-size="10.00">Triangle::getV1</text>
</a>
</g>
<!-- Node1&#45;&gt;Node11 -->
<g id="edge26" class="edge"><title>Node1&#45;&gt;Node11</title>
<path fill="none" stroke="midnightblue" d="M57.5022,-199.313C72.8576,-186.573 100.068,-165.222 126,-151 129.466,-149.099 133.151,-147.289 136.892,-145.589"/>
<polygon fill="midnightblue" stroke="midnightblue" points="138.396,-148.752 146.215,-141.604 135.645,-142.316 138.396,-148.752"/>
</g>
<!-- Node12 -->
<g id="node26" class="node"><title>Node12</title>
<a xlink:href="classTriangle.xhtml#a6de5f8560482f4130bdbb96b25aa1b58" target="_top" xlink:title="Triangle::getV2">
<polygon fill="none" stroke="black" points="135.5,-80.5 135.5,-101.5 218.5,-101.5 218.5,-80.5 135.5,-80.5"/>
<text text-anchor="middle" x="177" y="-88.5" font-family="Helvetica,sans-Serif" font-size="10.00">Triangle::getV2</text>
</a>
</g>
<!-- Node1&#45;&gt;Node12 -->
<g id="edge28" class="edge"><title>Node1&#45;&gt;Node12</title>
<path fill="none" stroke="midnightblue" d="M51.1935,-199.237C63.2036,-179.237 91.5322,-136.099 126,-111 128.458,-109.21 131.097,-107.556 133.834,-106.03"/>
<polygon fill="midnightblue" stroke="midnightblue" points="135.396,-109.163 142.807,-101.591 132.292,-102.888 135.396,-109.163"/>
</g>
<!-- Node13 -->
<g id="node28" class="node"><title>Node13</title>
<a xlink:href="classTriangle.xhtml#a792a627dc42adad87c0b30e16a6b5824" target="_top" xlink:title="Triangle::getV3">
<polygon fill="none" stroke="black" points="135.5,-40.5 135.5,-61.5 218.5,-61.5 218.5,-40.5 135.5,-40.5"/>
<text text-anchor="middle" x="177" y="-48.5" font-family="Helvetica,sans-Serif" font-size="10.00">Triangle::getV3</text>
</a>
</g>
<!-- Node1&#45;&gt;Node13 -->
<g id="edge30" class="edge"><title>Node1&#45;&gt;Node13</title>
<path fill="none" stroke="midnightblue" d="M48.4416,-199.337C57.2396,-173.678 82.9446,-107.891 126,-71 127.927,-69.3485 130.007,-67.824 132.187,-66.418"/>
<polygon fill="midnightblue" stroke="midnightblue" points="133.914,-69.4624 140.975,-61.5639 130.53,-63.3348 133.914,-69.4624"/>
</g>
<!-- Node14 -->
<g id="node34" class="node"><title>Node14</title>
<a xlink:href="classVector3D.xhtml#a3dec11494c99de7370e3877054c3ef13" target="_top" xlink:title="Vector3D::mult">
<polygon fill="none" stroke="black" points="135.5,-0.5 135.5,-21.5 218.5,-21.5 218.5,-0.5 135.5,-0.5"/>
<text text-anchor="middle" x="177" y="-8.5" font-family="Helvetica,sans-Serif" font-size="10.00">Vector3D::mult</text>
</a>
</g>
<!-- Node1&#45;&gt;Node14 -->
<g id="edge40" class="edge"><title>Node1&#45;&gt;Node14</title>
<path fill="none" stroke="midnightblue" d="M46.9619,-199.08C53.0343,-168.337 74.3161,-80.1024 126,-31 127.625,-29.4565 129.382,-28.0277 131.235,-26.7056"/>
<polygon fill="midnightblue" stroke="midnightblue" points="133.051,-29.6974 139.844,-21.5669 129.464,-23.6866 133.051,-29.6974"/>
</g>
<!-- Node15 -->
<g id="node36" class="node"><title>Node15</title>
<a xlink:href="classVector3D.xhtml#a0d14ff1f789254ff90adc22628eb8347" target="_top" xlink:title="Vector3D::add">
<polygon fill="none" stroke="black" points="285,-391.5 285,-412.5 365,-412.5 365,-391.5 285,-391.5"/>
<text text-anchor="middle" x="325" y="-399.5" font-family="Helvetica,sans-Serif" font-size="10.00">Vector3D::add</text>
</a>
</g>
<!-- Node1&#45;&gt;Node15 -->
<g id="edge42" class="edge"><title>Node1&#45;&gt;Node15</title>
<path fill="none" stroke="midnightblue" d="M47.4408,-220.838C54.3613,-248.913 76.8752,-324.362 126,-361 169.062,-393.116 231.314,-401.531 274.685,-403.078"/>
<polygon fill="midnightblue" stroke="midnightblue" points="274.649,-406.578 284.733,-403.326 274.822,-399.58 274.649,-406.578"/>
</g>
<!-- Node2&#45;&gt;Node3 -->
<g id="edge4" class="edge"><title>Node2&#45;&gt;Node3</title>
<path fill="none" stroke="midnightblue" d="M221.405,-297.501C237.411,-301.286 255.628,-305.595 272.276,-309.531"/>
<polygon fill="midnightblue" stroke="midnightblue" points="271.868,-313.031 282.405,-311.927 273.479,-306.219 271.868,-313.031"/>
</g>
<!-- Node2&#45;&gt;Node4 -->
<g id="edge6" class="edge"><title>Node2&#45;&gt;Node4</title>
<path fill="none" stroke="midnightblue" d="M191.446,-297.709C208.206,-309.751 237.004,-329.281 264,-342 268.608,-344.171 273.515,-346.204 278.467,-348.08"/>
<polygon fill="midnightblue" stroke="midnightblue" points="277.385,-351.41 287.979,-351.487 279.745,-344.82 277.385,-351.41"/>
</g>
<!-- Node2&#45;&gt;Node8 -->
<g id="edge14" class="edge"><title>Node2&#45;&gt;Node8</title>
<path fill="none" stroke="midnightblue" d="M211.699,-276.449C232.223,-270.209 258.427,-262.242 280.465,-255.541"/>
<polygon fill="midnightblue" stroke="midnightblue" points="281.713,-258.82 290.262,-252.562 279.676,-252.123 281.713,-258.82"/>
</g>
<!-- Node2&#45;&gt;Node9 -->
<g id="edge22" class="edge"><title>Node2&#45;&gt;Node9</title>
<path fill="none" stroke="midnightblue" d="M228.348,-285.265C239.15,-284.9 250.666,-284.511 261.844,-284.134"/>
<polygon fill="midnightblue" stroke="midnightblue" points="262.108,-287.627 271.984,-283.791 261.872,-280.631 262.108,-287.627"/>
</g>
<!-- Node5 -->
<g id="node9" class="node"><title>Node5</title>
<a xlink:href="classVector3D.xhtml#aa9eaf29045bf32b95c5c7bcb2b8b68d7" target="_top" xlink:title="Vector3D::getX">
<polygon fill="none" stroke="black" points="422,-391.5 422,-412.5 506,-412.5 506,-391.5 422,-391.5"/>
<text text-anchor="middle" x="464" y="-399.5" font-family="Helvetica,sans-Serif" font-size="10.00">Vector3D::getX</text>
</a>
</g>
<!-- Node4&#45;&gt;Node5 -->
<g id="edge8" class="edge"><title>Node4&#45;&gt;Node5</title>
<path fill="none" stroke="midnightblue" d="M361.521,-372.51C378.623,-377.431 399.195,-383.351 417.404,-388.591"/>
<polygon fill="midnightblue" stroke="midnightblue" points="416.663,-392.02 427.241,-391.422 418.599,-385.293 416.663,-392.02"/>
</g>
<!-- Node6 -->
<g id="node11" class="node"><title>Node6</title>
<a xlink:href="classVector3D.xhtml#aa3ffff17b886274a58417dfe4bb4c4a2" target="_top" xlink:title="Vector3D::getY">
<polygon fill="none" stroke="black" points="422,-351.5 422,-372.5 506,-372.5 506,-351.5 422,-351.5"/>
<text text-anchor="middle" x="464" y="-359.5" font-family="Helvetica,sans-Serif" font-size="10.00">Vector3D::getY</text>
</a>
</g>
<!-- Node4&#45;&gt;Node6 -->
<g id="edge10" class="edge"><title>Node4&#45;&gt;Node6</title>
<path fill="none" stroke="midnightblue" d="M365.205,-362C379.667,-362 396.201,-362 411.552,-362"/>
<polygon fill="midnightblue" stroke="midnightblue" points="411.951,-365.5 421.951,-362 411.951,-358.5 411.951,-365.5"/>
</g>
<!-- Node7 -->
<g id="node13" class="node"><title>Node7</title>
<a xlink:href="classVector3D.xhtml#ab0dcbf253ff78856eccb5ea74d080fc7" target="_top" xlink:title="Vector3D::getZ">
<polygon fill="none" stroke="black" points="422.5,-311.5 422.5,-332.5 505.5,-332.5 505.5,-311.5 422.5,-311.5"/>
<text text-anchor="middle" x="464" y="-319.5" font-family="Helvetica,sans-Serif" font-size="10.00">Vector3D::getZ</text>
</a>
</g>
<!-- Node4&#45;&gt;Node7 -->
<g id="edge12" class="edge"><title>Node4&#45;&gt;Node7</title>
<path fill="none" stroke="midnightblue" d="M361.521,-351.49C378.623,-346.569 399.195,-340.649 417.404,-335.409"/>
<polygon fill="midnightblue" stroke="midnightblue" points="418.599,-338.707 427.241,-332.578 416.663,-331.98 418.599,-338.707"/>
</g>
<!-- Node8&#45;&gt;Node5 -->
<g id="edge20" class="edge"><title>Node8&#45;&gt;Node5</title>
<path fill="none" stroke="midnightblue" d="M372.975,-252.568C377.787,-255.072 382.266,-258.17 386,-262 424.87,-301.869 385.751,-339.734 422,-382 423.121,-383.307 424.346,-384.534 425.65,-385.687"/>
<polygon fill="midnightblue" stroke="midnightblue" points="423.637,-388.55 433.813,-391.499 427.697,-382.848 423.637,-388.55"/>
</g>
<!-- Node8&#45;&gt;Node6 -->
<g id="edge18" class="edge"><title>Node8&#45;&gt;Node6</title>
<path fill="none" stroke="midnightblue" d="M371.571,-252.624C376.81,-255.119 381.774,-258.199 386,-262 414.992,-288.07 394.729,-314.134 422,-342 423.243,-343.27 424.582,-344.469 425.992,-345.601"/>
<polygon fill="midnightblue" stroke="midnightblue" points="424.397,-348.742 434.663,-351.359 428.269,-342.911 424.397,-348.742"/>
</g>
<!-- Node8&#45;&gt;Node7 -->
<g id="edge16" class="edge"><title>Node8&#45;&gt;Node7</title>
<path fill="none" stroke="midnightblue" d="M363.889,-252.558C371.417,-255.207 379.103,-258.354 386,-262 407.92,-273.587 430.054,-291.319 445.115,-304.505"/>
<polygon fill="midnightblue" stroke="midnightblue" points="442.921,-307.238 452.709,-311.295 447.587,-302.02 442.921,-307.238"/>
</g>
<!-- Node15&#45;&gt;Node5 -->
<g id="edge44" class="edge"><title>Node15&#45;&gt;Node5</title>
<path fill="none" stroke="midnightblue" d="M365.205,-402C379.667,-402 396.201,-402 411.552,-402"/>
<polygon fill="midnightblue" stroke="midnightblue" points="411.951,-405.5 421.951,-402 411.951,-398.5 411.951,-405.5"/>
</g>
<!-- Node15&#45;&gt;Node6 -->
<g id="edge46" class="edge"><title>Node15&#45;&gt;Node6</title>
<path fill="none" stroke="midnightblue" d="M361.521,-391.49C378.623,-386.569 399.195,-380.649 417.404,-375.409"/>
<polygon fill="midnightblue" stroke="midnightblue" points="418.599,-378.707 427.241,-372.578 416.663,-371.98 418.599,-378.707"/>
</g>
<!-- Node15&#45;&gt;Node7 -->
<g id="edge48" class="edge"><title>Node15&#45;&gt;Node7</title>
<path fill="none" stroke="midnightblue" d="M365.101,-392.177C372.37,-389.487 379.65,-386.137 386,-382 406.04,-368.945 402.833,-356.306 422,-342 424.095,-340.436 426.332,-338.948 428.642,-337.541"/>
<polygon fill="midnightblue" stroke="midnightblue" points="430.681,-340.414 437.761,-332.532 427.311,-334.279 430.681,-340.414"/>
</g>
</g>
</svg>
        <g id="navigator" transform="translate(0 0)" fill="#404254">
                <rect fill="#f2f5e9" fill-opacity="0.5" stroke="#606060" stroke-width=".5" x="0" y="0" width="60" height="60"/>
                <use id="zoomplus" xlink:href="#zoomPlus" x="17" y="9" onmousedown="handleZoom(evt,'in')"/>
                <use id="zoomminus" xlink:href="#zoomMin" x="42" y="9" onmousedown="handleZoom(evt,'out')"/>
                <use id="reset" xlink:href="#resetDef" x="30" y="36" onmousedown="handleReset()"/>
                <g id="arrowUp" xlink:href="#dirArrow" transform="translate(30 24)" onmousedown="handlePan(0,-1)">
                  <use xlink:href="#rim" fill="#404040">
                        <set attributeName="fill" to="#808080" begin="arrowUp.mouseover" end="arrowUp.mouseout"/>
                  </use>
                  <path fill="none" stroke="white" stroke-width="1.5" d="M0,-3.0v7 M-2.5,-0.5L0,-3.0L2.5,-0.5"/>
                </g>
                <g id="arrowRight" xlink:href="#dirArrow" transform="rotate(90) translate(36 -43)" onmousedown="handlePan(1,0)">
                  <use xlink:href="#rim" fill="#404040">
                        <set attributeName="fill" to="#808080" begin="arrowRight.mouseover" end="arrowRight.mouseout"/>
                  </use>
                  <path fill="none" stroke="white" stroke-width="1.5" d="M0,-3.0v7 M-2.5,-0.5L0,-3.0L2.5,-0.5"/>
                </g>
                <g id="arrowDown" xlink:href="#dirArrow" transform="rotate(180) translate(-30 -48)" onmousedown="handlePan(0,1)">
                  <use xlink:href="#rim" fill="#404040">
                        <set attributeName="fill" to="#808080" begin="arrowDown.mouseover" end="arrowDown.mouseout"/>
                  </use>
                  <path fill="none" stroke="white" stroke-width="1.5" d="M0,-3.0v7 M-2.5,-0.5L0,-3.0L2.5,-0.5"/>
                </g>
                <g id="arrowLeft" xlink:href="#dirArrow" transform="rotate(270) translate(-36 17)" onmousedown="handlePan(-1,0)">
                  <use xlink:href="#rim" fill="#404040">
                        <set attributeName="fill" to="#808080" begin="arrowLeft.mouseover" end="arrowLeft.mouseout"/>
                  </use>
                  <path fill="none" stroke="white" stroke-width="1.5" d="M0,-3.0v7 M-2.5,-0.5L0,-3.0L2.5,-0.5"/>
                </g>
        </g>
        <svg viewBox="0 0 15 15" width="100%" height="30px" preserveAspectRatio="xMaxYMin meet">
         <g id="arrow_out" transform="scale(0.3 0.3)">
          <a xlink:href="classRenderer_af7e5f8f68742f198e315fb4683a605a4_cgraph_org.svg" target="_base">
           <rect id="button" ry="5" rx="5" y="6" x="6" height="38" width="38"
                fill="#f2f5e9" fill-opacity="0.5" stroke="#606060" stroke-width="1.0"/>
           <path id="arrow"
             d="M 11.500037,31.436501 C 11.940474,20.09759 22.043105,11.32322 32.158766,21.979434 L 37.068811,17.246167 C 37.068811,17.246167 37.088388,32 37.088388,32 L 22.160133,31.978069 C 22.160133,31.978069 26.997745,27.140456 26.997745,27.140456 C 18.528582,18.264221 13.291696,25.230495 11.500037,31.436501 z"
             style="fill:#404040;"/>
          </a>
         </g>
        </svg>
</svg>
