<?xml version="1.0" encoding="UTF-8" standalone="no"?>
<!DOCTYPE svg PUBLIC "-//W3C//DTD SVG 1.1//EN"
 "http://www.w3.org/Graphics/SVG/1.1/DTD/svg11.dtd">
<!-- Generated by graphviz version 2.26.3 (20100126.1600)
 -->
<!-- Title: Vector3D::getX Pages: 1 -->
<svg width="1112pt" height="756pt"
 viewBox="0.00 0.00 1112.00 756.40" xmlns="http://www.w3.org/2000/svg" xmlns:xlink="http://www.w3.org/1999/xlink">
<g id="graph1" class="graph" transform="scale(1 1) rotate(0) translate(4 752.401)">
<title>Vector3D::getX</title>
<!-- Node1 -->
<g id="node1" class="node"><title>Node1</title>
<polygon fill="#bfbfbf" stroke="black" points="0,-495.5 0,-516.5 84,-516.5 84,-495.5 0,-495.5"/>
<text text-anchor="middle" x="42" y="-503.5" font-family="Helvetica,sans-Serif" font-size="10.00">Vector3D::getX</text>
</g>
<!-- Node2 -->
<g id="node3" class="node"><title>Node2</title>
<a xlink:href="classGUIAnalyzePointWindow.xhtml#aa84ea9958e8b41423f01316d01ba5151" target="_top" xlink:title="GUIAnalyzePointWindow\l::analyzePoint">
<polygon fill="none" stroke="black" points="976,-682 976,-716 1104,-716 1104,-682 976,-682"/>
<text text-anchor="start" x="984" y="-703" font-family="Helvetica,sans-Serif" font-size="10.00">GUIAnalyzePointWindow</text>
<text text-anchor="middle" x="1040" y="-690" font-family="Helvetica,sans-Serif" font-size="10.00">::analyzePoint</text>
</a>
</g>
<!-- Node1&#45;&gt;Node2 -->
<g id="edge2" class="edge"><title>Node1&#45;&gt;Node2</title>
<path fill="none" stroke="midnightblue" d="M45.2769,-526.661C52.2257,-563.566 71.9331,-640.883 120,-683 201.505,-754.415 246.634,-748 355,-748 355,-748 355,-748 716,-748 807.023,-748 910.83,-728.859 975.885,-714.504"/>
<polygon fill="midnightblue" stroke="midnightblue" points="48.6856,-525.836 43.5127,-516.589 41.7906,-527.043 48.6856,-525.836"/>
</g>
<!-- Node3 -->
<g id="node5" class="node"><title>Node3</title>
<a xlink:href="classVector3D.xhtml#a010bd55f41a082eccb1a7f513db29e69" target="_top" xlink:title="Vector3D::Vector3D">
<polygon fill="none" stroke="black" points="128.5,-114.5 128.5,-135.5 233.5,-135.5 233.5,-114.5 128.5,-114.5"/>
<text text-anchor="middle" x="181" y="-122.5" font-family="Helvetica,sans-Serif" font-size="10.00">Vector3D::Vector3D</text>
</a>
</g>
<!-- Node1&#45;&gt;Node3 -->
<g id="edge4" class="edge"><title>Node1&#45;&gt;Node3</title>
<path fill="none" stroke="midnightblue" d="M43.8082,-485.156C50.198,-416.089 73.8536,-196.215 120,-145 123.432,-141.191 127.6,-138.106 132.129,-135.606"/>
<polygon fill="midnightblue" stroke="midnightblue" points="40.3117,-484.96 42.9006,-495.233 47.2835,-485.588 40.3117,-484.96"/>
</g>
<!-- Node4 -->
<g id="node7" class="node"><title>Node4</title>
<a xlink:href="classVector3D.xhtml#ac83e936757114f32bc9d868ea5fabbc2" target="_top" xlink:title="Vector3D::equals">
<polygon fill="none" stroke="black" points="135,-572.5 135,-593.5 227,-593.5 227,-572.5 135,-572.5"/>
<text text-anchor="middle" x="181" y="-580.5" font-family="Helvetica,sans-Serif" font-size="10.00">Vector3D::equals</text>
</a>
</g>
<!-- Node1&#45;&gt;Node4 -->
<g id="edge6" class="edge"><title>Node1&#45;&gt;Node4</title>
<path fill="none" stroke="midnightblue" d="M70.0685,-521.549C97.3239,-536.647 137.967,-559.162 161.748,-572.335"/>
<polygon fill="midnightblue" stroke="midnightblue" points="71.4794,-518.329 61.0359,-516.545 68.0874,-524.452 71.4794,-518.329"/>
</g>
<!-- Node5 -->
<g id="node9" class="node"><title>Node5</title>
<a xlink:href="classInterpolator.xhtml#ad59ac6ed3822e08a67ac7d1ee88a5bd2" target="_top" xlink:title="Interpolator::interpolateTri">
<polygon fill="none" stroke="black" points="291,-582.5 291,-603.5 419,-603.5 419,-582.5 291,-582.5"/>
<text text-anchor="middle" x="355" y="-590.5" font-family="Helvetica,sans-Serif" font-size="10.00">Interpolator::interpolateTri</text>
</a>
</g>
<!-- Node1&#45;&gt;Node5 -->
<g id="edge114" class="edge"><title>Node1&#45;&gt;Node5</title>
<path fill="none" stroke="midnightblue" d="M90.058,-519.358C152.502,-536.715 260.253,-566.664 317.197,-582.493"/>
<polygon fill="midnightblue" stroke="midnightblue" points="90.6391,-515.887 80.067,-516.581 88.7644,-522.631 90.6391,-515.887"/>
</g>
<!-- Node9 -->
<g id="node18" class="node"><title>Node9</title>
<a xlink:href="classVector3D.xhtml#a4bf1dcea68296f2f38f3574242933153" target="_top" xlink:title="Vector3D::getAngleTo">
<polygon fill="none" stroke="black" points="124.5,-612.5 124.5,-633.5 237.5,-633.5 237.5,-612.5 124.5,-612.5"/>
<text text-anchor="middle" x="181" y="-620.5" font-family="Helvetica,sans-Serif" font-size="10.00">Vector3D::getAngleTo</text>
</a>
</g>
<!-- Node1&#45;&gt;Node9 -->
<g id="edge18" class="edge"><title>Node1&#45;&gt;Node9</title>
<path fill="none" stroke="midnightblue" d="M52.9068,-525.477C66.0987,-547.341 90.277,-582.438 120,-603 125.499,-606.804 131.772,-609.924 138.153,-612.471"/>
<polygon fill="midnightblue" stroke="midnightblue" points="55.8603,-523.595 47.7897,-516.73 49.8183,-527.129 55.8603,-523.595"/>
</g>
<!-- Node10 -->
<g id="node22" class="node"><title>Node10</title>
<a xlink:href="classVector3D.xhtml#a0808a8e6004a347d82f9214778b5968f" target="_top" xlink:title="Vector3D::dotProduct">
<polygon fill="none" stroke="black" points="125.5,-466.5 125.5,-487.5 236.5,-487.5 236.5,-466.5 125.5,-466.5"/>
<text text-anchor="middle" x="181" y="-474.5" font-family="Helvetica,sans-Serif" font-size="10.00">Vector3D::dotProduct</text>
</a>
</g>
<!-- Node1&#45;&gt;Node10 -->
<g id="edge24" class="edge"><title>Node1&#45;&gt;Node10</title>
<path fill="none" stroke="midnightblue" d="M93.9207,-495.168C105.882,-492.672 118.588,-490.021 130.488,-487.538"/>
<polygon fill="midnightblue" stroke="midnightblue" points="93.1562,-491.752 84.0818,-497.22 94.5859,-498.604 93.1562,-491.752"/>
</g>
<!-- Node20 -->
<g id="node46" class="node"><title>Node20</title>
<a xlink:href="classVector3D.xhtml#a482cd77ce44ea7dd71fd7a43cb7b1cf5" target="_top" xlink:title="Vector3D::crossProduct">
<polygon fill="none" stroke="black" points="120,-270.5 120,-291.5 242,-291.5 242,-270.5 120,-270.5"/>
<text text-anchor="middle" x="181" y="-278.5" font-family="Helvetica,sans-Serif" font-size="10.00">Vector3D::crossProduct</text>
</a>
</g>
<!-- Node1&#45;&gt;Node20 -->
<g id="edge52" class="edge"><title>Node1&#45;&gt;Node20</title>
<path fill="none" stroke="midnightblue" d="M53.8767,-486.775C82.1516,-441.006 152.72,-326.777 174.496,-291.528"/>
<polygon fill="midnightblue" stroke="midnightblue" points="50.796,-485.103 48.5178,-495.45 56.7512,-488.782 50.796,-485.103"/>
</g>
<!-- Node26 -->
<g id="node66" class="node"><title>Node26</title>
<a xlink:href="classVector3D.xhtml#a0d14ff1f789254ff90adc22628eb8347" target="_top" xlink:title="Vector3D::add">
<polygon fill="none" stroke="black" points="141,-154.5 141,-175.5 221,-175.5 221,-154.5 141,-154.5"/>
<text text-anchor="middle" x="181" y="-162.5" font-family="Helvetica,sans-Serif" font-size="10.00">Vector3D::add</text>
</a>
</g>
<!-- Node1&#45;&gt;Node26 -->
<g id="edge80" class="edge"><title>Node1&#45;&gt;Node26</title>
<path fill="none" stroke="midnightblue" d="M46.6082,-485.564C56.6865,-442.664 82.7976,-340.613 120,-261 135.382,-228.083 160.165,-192.89 172.889,-175.698"/>
<polygon fill="midnightblue" stroke="midnightblue" points="43.1839,-484.837 44.344,-495.369 50.0044,-486.413 43.1839,-484.837"/>
</g>
<!-- Node28 -->
<g id="node73" class="node"><title>Node28</title>
<a xlink:href="classVector3D.xhtml#a02364a41693ac080f5adadd776df74b4" target="_top" xlink:title="Vector3D::sub">
<polygon fill="none" stroke="black" points="141,-406.5 141,-427.5 221,-427.5 221,-406.5 141,-406.5"/>
<text text-anchor="middle" x="181" y="-414.5" font-family="Helvetica,sans-Serif" font-size="10.00">Vector3D::sub</text>
</a>
</g>
<!-- Node1&#45;&gt;Node28 -->
<g id="edge90" class="edge"><title>Node1&#45;&gt;Node28</title>
<path fill="none" stroke="midnightblue" d="M67.0184,-489.981C95.2602,-471.898 140.404,-442.993 164.53,-427.545"/>
<polygon fill="midnightblue" stroke="midnightblue" points="65.0253,-487.101 58.491,-495.441 68.7999,-492.996 65.0253,-487.101"/>
</g>
<!-- Node29 -->
<g id="node84" class="node"><title>Node29</title>
<a xlink:href="classVector3D.xhtml#a42deb992ec2f44abfb5824ea4917135c" target="_top" xlink:title="Vector3D::getDistanceTo">
<polygon fill="none" stroke="black" points="291,-698.5 291,-719.5 419,-719.5 419,-698.5 291,-698.5"/>
<text text-anchor="middle" x="355" y="-706.5" font-family="Helvetica,sans-Serif" font-size="10.00">Vector3D::getDistanceTo</text>
</a>
</g>
<!-- Node1&#45;&gt;Node29 -->
<g id="edge110" class="edge"><title>Node1&#45;&gt;Node29</title>
<path fill="none" stroke="midnightblue" d="M48.146,-526.632C58.1914,-556.763 81.0154,-612.524 120,-643 169.328,-681.562 239.995,-697.597 290.939,-704.262"/>
<polygon fill="midnightblue" stroke="midnightblue" points="51.3811,-525.255 45.0169,-516.785 44.7098,-527.375 51.3811,-525.255"/>
</g>
<!-- Node4&#45;&gt;Node5 -->
<g id="edge8" class="edge"><title>Node4&#45;&gt;Node5</title>
<path fill="none" stroke="midnightblue" d="M237.53,-586.249C254.581,-587.229 273.42,-588.311 290.925,-589.318"/>
<polygon fill="midnightblue" stroke="midnightblue" points="237.356,-582.733 227.172,-585.654 236.955,-589.722 237.356,-582.733"/>
</g>
<!-- Node6 -->
<g id="node11" class="node"><title>Node6</title>
<a xlink:href="classInterpolator.xhtml#a30e714ca6dff9b5745d029f95af1420a" target="_top" xlink:title="Interpolator::interpolateTet">
<polygon fill="none" stroke="black" points="473.5,-544.5 473.5,-565.5 604.5,-565.5 604.5,-544.5 473.5,-544.5"/>
<text text-anchor="middle" x="539" y="-552.5" font-family="Helvetica,sans-Serif" font-size="10.00">Interpolator::interpolateTet</text>
</a>
</g>
<!-- Node4&#45;&gt;Node6 -->
<g id="edge10" class="edge"><title>Node4&#45;&gt;Node6</title>
<path fill="none" stroke="midnightblue" d="M223.032,-596.638C246.532,-604.149 272.236,-612.129 278,-613 345.676,-623.226 365.656,-629.825 432,-613 468.252,-603.806 505.525,-579.599 525.077,-565.535"/>
<polygon fill="midnightblue" stroke="midnightblue" points="224.094,-593.303 213.502,-593.581 221.955,-599.969 224.094,-593.303"/>
</g>
<!-- Node7 -->
<g id="node13" class="node"><title>Node7</title>
<a xlink:href="namespaceUtils.xhtml#a6a0ae18a42e2d206bc1b43da27820fe2" target="_top" xlink:title="Utils::getPointValue">
<polygon fill="none" stroke="black" points="664,-544.5 664,-565.5 768,-565.5 768,-544.5 664,-544.5"/>
<text text-anchor="middle" x="716" y="-552.5" font-family="Helvetica,sans-Serif" font-size="10.00">Utils::getPointValue</text>
</a>
</g>
<!-- Node6&#45;&gt;Node7 -->
<g id="edge12" class="edge"><title>Node6&#45;&gt;Node7</title>
<path fill="none" stroke="midnightblue" d="M614.872,-555C631.439,-555 648.608,-555 663.993,-555"/>
<polygon fill="midnightblue" stroke="midnightblue" points="614.657,-551.5 604.657,-555 614.657,-558.5 614.657,-551.5"/>
</g>
<!-- Node8 -->
<g id="node15" class="node"><title>Node8</title>
<a xlink:href="classAnalyzer.xhtml#a8f73ee0aa71ae395a74b43dc76b35458" target="_top" xlink:title="Analyzer::analyzePoint">
<polygon fill="none" stroke="black" points="822.5,-592.5 822.5,-613.5 939.5,-613.5 939.5,-592.5 822.5,-592.5"/>
<text text-anchor="middle" x="881" y="-600.5" font-family="Helvetica,sans-Serif" font-size="10.00">Analyzer::analyzePoint</text>
</a>
</g>
<!-- Node7&#45;&gt;Node8 -->
<g id="edge14" class="edge"><title>Node7&#45;&gt;Node8</title>
<path fill="none" stroke="midnightblue" d="M761.921,-568.359C788.123,-575.981 820.499,-585.4 844.875,-592.491"/>
<polygon fill="midnightblue" stroke="midnightblue" points="762.79,-564.966 752.21,-565.534 760.834,-571.688 762.79,-564.966"/>
</g>
<!-- Node8&#45;&gt;Node2 -->
<g id="edge16" class="edge"><title>Node8&#45;&gt;Node2</title>
<path fill="none" stroke="midnightblue" d="M907.318,-618.89C936.085,-636.259 982.012,-663.988 1011.58,-681.842"/>
<polygon fill="midnightblue" stroke="midnightblue" points="908.993,-615.813 898.623,-613.64 905.375,-621.805 908.993,-615.813"/>
</g>
<!-- Node9&#45;&gt;Node5 -->
<g id="edge20" class="edge"><title>Node9&#45;&gt;Node5</title>
<path fill="none" stroke="midnightblue" d="M248.246,-611.406C263.31,-608.809 279.208,-606.068 294.002,-603.517"/>
<polygon fill="midnightblue" stroke="midnightblue" points="247.234,-608.029 237.974,-613.177 248.423,-614.927 247.234,-608.029"/>
</g>
<!-- Node9&#45;&gt;Node6 -->
<g id="edge22" class="edge"><title>Node9&#45;&gt;Node6</title>
<path fill="none" stroke="midnightblue" d="M235.316,-635.416C287.169,-644.859 366.831,-653.011 432,-632 472.951,-618.797 511.461,-583.459 529.03,-565.618"/>
<polygon fill="midnightblue" stroke="midnightblue" points="235.806,-631.947 225.328,-633.519 234.499,-638.824 235.806,-631.947"/>
</g>
<!-- Node10&#45;&gt;Node5 -->
<g id="edge28" class="edge"><title>Node10&#45;&gt;Node5</title>
<path fill="none" stroke="midnightblue" d="M206.98,-493.258C218.33,-500.968 231.433,-510.732 242,-521 260.871,-539.336 256.517,-552.807 278,-568 286.721,-574.168 297.051,-578.877 307.265,-582.45"/>
<polygon fill="midnightblue" stroke="midnightblue" points="208.608,-490.138 198.335,-487.545 204.748,-495.978 208.608,-490.138"/>
</g>
<!-- Node10&#45;&gt;Node6 -->
<g id="edge30" class="edge"><title>Node10&#45;&gt;Node6</title>
<path fill="none" stroke="midnightblue" d="M204.465,-493.37C223.397,-505.676 251.198,-521.774 278,-530 342.513,-549.8 419.836,-555.051 473.497,-555.964"/>
<polygon fill="midnightblue" stroke="midnightblue" points="206.19,-490.314 195.927,-487.685 202.31,-496.14 206.19,-490.314"/>
</g>
<!-- Node11 -->
<g id="node24" class="node"><title>Node11</title>
<a xlink:href="classRenderer.xhtml#a927f376a6283de3181b86f65b927386c" target="_top" xlink:title="Renderer::renderTetrahedra">
<polygon fill="none" stroke="black" points="287,-270.5 287,-291.5 423,-291.5 423,-270.5 287,-270.5"/>
<text text-anchor="middle" x="355" y="-278.5" font-family="Helvetica,sans-Serif" font-size="10.00">Renderer::renderTetrahedra</text>
</a>
</g>
<!-- Node10&#45;&gt;Node11 -->
<g id="edge26" class="edge"><title>Node10&#45;&gt;Node11</title>
<path fill="none" stroke="midnightblue" d="M210.599,-461.318C221.295,-454.739 232.952,-446.417 242,-437 263.546,-414.575 260.23,-402.522 278,-377 300.585,-344.562 330.74,-308.873 345.729,-291.572"/>
<polygon fill="midnightblue" stroke="midnightblue" points="208.765,-458.336 201.919,-466.422 212.313,-464.37 208.765,-458.336"/>
</g>
<!-- Node12 -->
<g id="node28" class="node"><title>Node12</title>
<a xlink:href="classAnalyzer.xhtml#a2a7b5f169f664ccd9f206e508cba78ef" target="_top" xlink:title="Analyzer::analyzeObject">
<polygon fill="none" stroke="black" points="293.5,-386.5 293.5,-407.5 416.5,-407.5 416.5,-386.5 293.5,-386.5"/>
<text text-anchor="middle" x="355" y="-394.5" font-family="Helvetica,sans-Serif" font-size="10.00">Analyzer::analyzeObject</text>
</a>
</g>
<!-- Node10&#45;&gt;Node12 -->
<g id="edge32" class="edge"><title>Node10&#45;&gt;Node12</title>
<path fill="none" stroke="midnightblue" d="M205.327,-460.787C228.973,-445.244 263.389,-423.247 278,-417 286.636,-413.308 296.117,-410.166 305.384,-407.542"/>
<polygon fill="midnightblue" stroke="midnightblue" points="203.271,-457.95 196.856,-466.382 207.129,-463.792 203.271,-457.95"/>
</g>
<!-- Node16 -->
<g id="node36" class="node"><title>Node16</title>
<a xlink:href="namespaceUtils.xhtml#a5f216cc7011a901130db81321b565334" target="_top" xlink:title="Utils::rayIntersectsTriangle">
<polygon fill="none" stroke="black" points="288,-426.5 288,-447.5 422,-447.5 422,-426.5 288,-426.5"/>
<text text-anchor="middle" x="355" y="-434.5" font-family="Helvetica,sans-Serif" font-size="10.00">Utils::rayIntersectsTriangle</text>
</a>
</g>
<!-- Node10&#45;&gt;Node16 -->
<g id="edge40" class="edge"><title>Node10&#45;&gt;Node16</title>
<path fill="none" stroke="midnightblue" d="M236.534,-464.234C260,-458.839 286.997,-452.633 309.287,-447.509"/>
<polygon fill="midnightblue" stroke="midnightblue" points="235.678,-460.839 226.716,-466.49 237.246,-467.661 235.678,-460.839"/>
</g>
<!-- Node18 -->
<g id="node40" class="node"><title>Node18</title>
<a xlink:href="namespaceUtils.xhtml#a9b995a1220a78be108b19bda4b776332" target="_top" xlink:title="Utils::pointInsideTetrahedron">
<polygon fill="none" stroke="black" points="284,-466.5 284,-487.5 426,-487.5 426,-466.5 284,-466.5"/>
<text text-anchor="middle" x="355" y="-474.5" font-family="Helvetica,sans-Serif" font-size="10.00">Utils::pointInsideTetrahedron</text>
</a>
</g>
<!-- Node10&#45;&gt;Node18 -->
<g id="edge44" class="edge"><title>Node10&#45;&gt;Node18</title>
<path fill="none" stroke="midnightblue" d="M246.574,-477C258.72,-477 271.461,-477 283.766,-477"/>
<polygon fill="midnightblue" stroke="midnightblue" points="246.533,-473.5 236.533,-477 246.533,-480.5 246.533,-473.5"/>
</g>
<!-- Node13 -->
<g id="node30" class="node"><title>Node13</title>
<a xlink:href="classGUIAnalyzeOutputWindow.xhtml#a9ea5a7cf46d6189f368315903508cecc" target="_top" xlink:title="GUIAnalyzeOutputWindow\l::Update">
<polygon fill="none" stroke="black" points="472,-374 472,-408 606,-408 606,-374 472,-374"/>
<text text-anchor="start" x="480" y="-395" font-family="Helvetica,sans-Serif" font-size="10.00">GUIAnalyzeOutputWindow</text>
<text text-anchor="middle" x="539" y="-382" font-family="Helvetica,sans-Serif" font-size="10.00">::Update</text>
</a>
</g>
<!-- Node12&#45;&gt;Node13 -->
<g id="edge34" class="edge"><title>Node12&#45;&gt;Node13</title>
<path fill="none" stroke="midnightblue" d="M426.675,-394.663C441.538,-394.178 457.145,-393.669 471.839,-393.19"/>
<polygon fill="midnightblue" stroke="midnightblue" points="426.406,-391.17 416.525,-394.994 426.634,-398.166 426.406,-391.17"/>
</g>
<!-- Node15 -->
<g id="node34" class="node"><title>Node15</title>
<a xlink:href="classGUITimeline.xhtml#a099f3654aa6e7ea04df861851a0e9ec8" target="_top" xlink:title="GUITimeline::findMaxValue">
<polygon fill="none" stroke="black" points="470.5,-334.5 470.5,-355.5 607.5,-355.5 607.5,-334.5 470.5,-334.5"/>
<text text-anchor="middle" x="539" y="-342.5" font-family="Helvetica,sans-Serif" font-size="10.00">GUITimeline::findMaxValue</text>
</a>
</g>
<!-- Node12&#45;&gt;Node15 -->
<g id="edge38" class="edge"><title>Node12&#45;&gt;Node15</title>
<path fill="none" stroke="midnightblue" d="M401.805,-383.73C422.144,-377.967 446.247,-371.144 468,-365 478.845,-361.937 490.624,-358.616 501.413,-355.577"/>
<polygon fill="midnightblue" stroke="midnightblue" points="400.816,-380.372 392.149,-386.466 402.725,-387.107 400.816,-380.372"/>
</g>
<!-- Node14 -->
<g id="node32" class="node"><title>Node14</title>
<a xlink:href="classGUIAnalyzeOutputWindow.xhtml#af9407245a6b2a0478579c4d592a31e63" target="_top" xlink:title="GUIAnalyzeOutputWindow\l::GUIAnalyzeOutputWindow">
<polygon fill="none" stroke="black" points="646,-374 646,-408 786,-408 786,-374 646,-374"/>
<text text-anchor="start" x="654" y="-395" font-family="Helvetica,sans-Serif" font-size="10.00">GUIAnalyzeOutputWindow</text>
<text text-anchor="middle" x="716" y="-382" font-family="Helvetica,sans-Serif" font-size="10.00">::GUIAnalyzeOutputWindow</text>
</a>
</g>
<!-- Node13&#45;&gt;Node14 -->
<g id="edge36" class="edge"><title>Node13&#45;&gt;Node14</title>
<path fill="none" stroke="midnightblue" d="M616.338,-391C626.182,-391 636.213,-391 645.933,-391"/>
<polygon fill="midnightblue" stroke="midnightblue" points="616.169,-387.5 606.168,-391 616.168,-394.5 616.169,-387.5"/>
</g>
<!-- Node17 -->
<g id="node38" class="node"><title>Node17</title>
<a xlink:href="namespaceUtils.xhtml#af8fc5d6dab27f759ab5d76757a53023f" target="_top" xlink:title="Utils::pointInsideMesh">
<polygon fill="none" stroke="black" points="482,-426.5 482,-447.5 596,-447.5 596,-426.5 482,-426.5"/>
<text text-anchor="middle" x="539" y="-434.5" font-family="Helvetica,sans-Serif" font-size="10.00">Utils::pointInsideMesh</text>
</a>
</g>
<!-- Node16&#45;&gt;Node17 -->
<g id="edge42" class="edge"><title>Node16&#45;&gt;Node17</title>
<path fill="none" stroke="midnightblue" d="M432.444,-437C449.047,-437 466.3,-437 481.964,-437"/>
<polygon fill="midnightblue" stroke="midnightblue" points="432.209,-433.5 422.209,-437 432.209,-440.5 432.209,-433.5"/>
</g>
<!-- Node18&#45;&gt;Node7 -->
<g id="edge50" class="edge"><title>Node18&#45;&gt;Node7</title>
<path fill="none" stroke="midnightblue" d="M413.749,-489.694C484.323,-504.942 601.412,-530.241 667.222,-544.461"/>
<polygon fill="midnightblue" stroke="midnightblue" points="414.2,-486.21 403.686,-487.519 412.721,-493.052 414.2,-486.21"/>
</g>
<!-- Node18&#45;&gt;Node17 -->
<g id="edge46" class="edge"><title>Node18&#45;&gt;Node17</title>
<path fill="none" stroke="midnightblue" d="M413.393,-464.306C438.286,-458.894 466.984,-452.656 490.66,-447.509"/>
<polygon fill="midnightblue" stroke="midnightblue" points="412.372,-460.946 403.344,-466.49 413.859,-467.786 412.372,-460.946"/>
</g>
<!-- Node19 -->
<g id="node43" class="node"><title>Node19</title>
<a xlink:href="namespaceUtils.xhtml#a40eaef4d22da849a5deb2f1153d88bbc" target="_top" xlink:title="Utils::pointInsideTetrahedron">
<polygon fill="none" stroke="black" points="468,-466.5 468,-487.5 610,-487.5 610,-466.5 468,-466.5"/>
<text text-anchor="middle" x="539" y="-474.5" font-family="Helvetica,sans-Serif" font-size="10.00">Utils::pointInsideTetrahedron</text>
</a>
</g>
<!-- Node18&#45;&gt;Node19 -->
<g id="edge48" class="edge"><title>Node18&#45;&gt;Node19</title>
<path fill="none" stroke="midnightblue" d="M436.154,-477C446.68,-477 457.398,-477 467.747,-477"/>
<polygon fill="midnightblue" stroke="midnightblue" points="436.139,-473.5 426.139,-477 436.139,-480.5 436.139,-473.5"/>
</g>
<!-- Node20&#45;&gt;Node6 -->
<g id="edge72" class="edge"><title>Node20&#45;&gt;Node6</title>
<path fill="none" stroke="midnightblue" d="M211.616,-266.141C263.639,-243.295 369.696,-207.479 432,-261 512.484,-330.138 415.408,-404.849 468,-497 479.992,-518.012 502.774,-534.519 519.305,-544.464"/>
<polygon fill="midnightblue" stroke="midnightblue" points="209.929,-263.063 202.257,-270.369 212.811,-269.442 209.929,-263.063"/>
</g>
<!-- Node20&#45;&gt;Node11 -->
<g id="edge58" class="edge"><title>Node20&#45;&gt;Node11</title>
<path fill="none" stroke="midnightblue" d="M252.605,-281C263.911,-281 275.576,-281 286.801,-281"/>
<polygon fill="midnightblue" stroke="midnightblue" points="252.346,-277.5 242.346,-281 252.346,-284.5 252.346,-277.5"/>
</g>
<!-- Node20&#45;&gt;Node12 -->
<g id="edge74" class="edge"><title>Node20&#45;&gt;Node12</title>
<path fill="none" stroke="midnightblue" d="M205.588,-297.392C241.896,-321.597 308.828,-366.218 339.233,-386.488"/>
<polygon fill="midnightblue" stroke="midnightblue" points="207.32,-294.34 197.058,-291.705 203.437,-300.164 207.32,-294.34"/>
</g>
<!-- Node20&#45;&gt;Node16 -->
<g id="edge76" class="edge"><title>Node20&#45;&gt;Node16</title>
<path fill="none" stroke="midnightblue" d="M189.825,-301.224C203.973,-331.216 234.615,-387.147 278,-417 283.575,-420.836 289.837,-423.937 296.319,-426.442"/>
<polygon fill="midnightblue" stroke="midnightblue" points="192.852,-299.426 185.515,-291.783 186.484,-302.333 192.852,-299.426"/>
</g>
<!-- Node20&#45;&gt;Node18 -->
<g id="edge78" class="edge"><title>Node20&#45;&gt;Node18</title>
<path fill="none" stroke="midnightblue" d="M191.289,-300.639C214.815,-345.41 271.053,-451.601 278,-457 282.908,-460.814 288.469,-463.905 294.303,-466.409"/>
<polygon fill="midnightblue" stroke="midnightblue" points="194.294,-298.833 186.547,-291.605 188.095,-302.086 194.294,-298.833"/>
</g>
<!-- Node21 -->
<g id="node48" class="node"><title>Node21</title>
<a xlink:href="classGUICutRenderWindow.xhtml#a9eedb7088ad31f4680a77ed3a06fa60c" target="_top" xlink:title="GUICutRenderWindow\l::renderImage">
<polygon fill="none" stroke="black" points="480.5,-186 480.5,-220 597.5,-220 597.5,-186 480.5,-186"/>
<text text-anchor="start" x="488.5" y="-207" font-family="Helvetica,sans-Serif" font-size="10.00">GUICutRenderWindow</text>
<text text-anchor="middle" x="539" y="-194" font-family="Helvetica,sans-Serif" font-size="10.00">::renderImage</text>
</a>
</g>
<!-- Node20&#45;&gt;Node21 -->
<g id="edge54" class="edge"><title>Node20&#45;&gt;Node21</title>
<path fill="none" stroke="midnightblue" d="M192.916,-261.817C208.907,-238.109 239.772,-198.949 278,-183 346.784,-154.302 434.553,-170.581 488.753,-185.988"/>
<polygon fill="midnightblue" stroke="midnightblue" points="189.881,-260.062 187.351,-270.351 195.745,-263.886 189.881,-260.062"/>
</g>
<!-- Node23 -->
<g id="node53" class="node"><title>Node23</title>
<a xlink:href="classRenderer.xhtml#af7e5f8f68742f198e315fb4683a605a4" target="_top" xlink:title="Renderer::render">
<polygon fill="none" stroke="black" points="494.5,-130.5 494.5,-151.5 583.5,-151.5 583.5,-130.5 494.5,-130.5"/>
<text text-anchor="middle" x="539" y="-138.5" font-family="Helvetica,sans-Serif" font-size="10.00">Renderer::render</text>
</a>
</g>
<!-- Node20&#45;&gt;Node23 -->
<g id="edge60" class="edge"><title>Node20&#45;&gt;Node23</title>
<path fill="none" stroke="midnightblue" d="M190.914,-261.169C205.719,-233.931 236.383,-185.838 278,-164 346.676,-127.963 439.647,-129.726 494.088,-134.924"/>
<polygon fill="midnightblue" stroke="midnightblue" points="187.736,-259.693 186.186,-270.173 193.934,-262.947 187.736,-259.693"/>
</g>
<!-- Node25 -->
<g id="node57" class="node"><title>Node25</title>
<a xlink:href="classTriangle.xhtml#a3c72b19f316fa9ffb0a2f206e3558790" target="_top" xlink:title="Triangle::getNormal">
<polygon fill="none" stroke="black" points="304,-192.5 304,-213.5 406,-213.5 406,-192.5 304,-192.5"/>
<text text-anchor="middle" x="355" y="-200.5" font-family="Helvetica,sans-Serif" font-size="10.00">Triangle::getNormal</text>
</a>
</g>
<!-- Node20&#45;&gt;Node25 -->
<g id="edge64" class="edge"><title>Node20&#45;&gt;Node25</title>
<path fill="none" stroke="midnightblue" d="M206.77,-265.199C225.946,-253.871 253.012,-238.772 278,-228 290.649,-222.547 304.897,-217.606 317.667,-213.583"/>
<polygon fill="midnightblue" stroke="midnightblue" points="204.821,-262.286 198.034,-270.422 208.413,-268.294 204.821,-262.286"/>
</g>
<!-- Node22 -->
<g id="node50" class="node"><title>Node22</title>
<a xlink:href="classGUICutRenderWindow.xhtml#a7cd1bfbec53756a1cbbe1616b4d46c7a" target="_top" xlink:title="GUICutRenderWindow\l::renderCutBtClick">
<polygon fill="none" stroke="black" points="657.5,-186 657.5,-220 774.5,-220 774.5,-186 657.5,-186"/>
<text text-anchor="start" x="665.5" y="-207" font-family="Helvetica,sans-Serif" font-size="10.00">GUICutRenderWindow</text>
<text text-anchor="middle" x="716" y="-194" font-family="Helvetica,sans-Serif" font-size="10.00">::renderCutBtClick</text>
</a>
</g>
<!-- Node21&#45;&gt;Node22 -->
<g id="edge56" class="edge"><title>Node21&#45;&gt;Node22</title>
<path fill="none" stroke="midnightblue" d="M607.954,-203C624.266,-203 641.511,-203 657.319,-203"/>
<polygon fill="midnightblue" stroke="midnightblue" points="607.938,-199.5 597.938,-203 607.938,-206.5 607.938,-199.5"/>
</g>
<!-- Node24 -->
<g id="node55" class="node"><title>Node24</title>
<a xlink:href="classGUIGLCanvas.xhtml#a83f52d08591920a339150c2f45069c8f" target="_top" xlink:title="GUIGLCanvas::OnPaint">
<polygon fill="none" stroke="black" points="655,-130.5 655,-151.5 777,-151.5 777,-130.5 655,-130.5"/>
<text text-anchor="middle" x="716" y="-138.5" font-family="Helvetica,sans-Serif" font-size="10.00">GUIGLCanvas::OnPaint</text>
</a>
</g>
<!-- Node23&#45;&gt;Node24 -->
<g id="edge62" class="edge"><title>Node23&#45;&gt;Node24</title>
<path fill="none" stroke="midnightblue" d="M593.839,-141C613.213,-141 635.115,-141 654.97,-141"/>
<polygon fill="midnightblue" stroke="midnightblue" points="593.665,-137.5 583.665,-141 593.665,-144.5 593.665,-137.5"/>
</g>
<!-- Node25&#45;&gt;Node6 -->
<g id="edge70" class="edge"><title>Node25&#45;&gt;Node6</title>
<path fill="none" stroke="midnightblue" d="M415.699,-215.082C421.884,-218.407 427.525,-222.633 432,-228 509.239,-320.648 409.175,-391.695 468,-497 479.721,-517.982 502.317,-534.391 518.881,-544.322"/>
<polygon fill="midnightblue" stroke="midnightblue" points="416.872,-211.771 406.319,-210.828 413.98,-218.146 416.872,-211.771"/>
</g>
<!-- Node25&#45;&gt;Node21 -->
<g id="edge66" class="edge"><title>Node25&#45;&gt;Node21</title>
<path fill="none" stroke="midnightblue" d="M416.456,-203C437.018,-203 459.876,-203 480.228,-203"/>
<polygon fill="midnightblue" stroke="midnightblue" points="416.254,-199.5 406.254,-203 416.254,-206.5 416.254,-199.5"/>
</g>
<!-- Node25&#45;&gt;Node23 -->
<g id="edge68" class="edge"><title>Node25&#45;&gt;Node23</title>
<path fill="none" stroke="midnightblue" d="M395.785,-189.257C429.536,-177.885 476.784,-161.964 507.634,-151.569"/>
<polygon fill="midnightblue" stroke="midnightblue" points="394.572,-185.973 386.213,-192.483 396.807,-192.606 394.572,-185.973"/>
</g>
<!-- Node26&#45;&gt;Node6 -->
<g id="edge88" class="edge"><title>Node26&#45;&gt;Node6</title>
<path fill="none" stroke="midnightblue" d="M228.988,-152.291C285.501,-140.516 378.439,-131.672 432,-183 482.709,-231.596 434.328,-435.363 468,-497 479.522,-518.092 502.154,-534.481 518.78,-544.377"/>
<polygon fill="midnightblue" stroke="midnightblue" points="228.238,-148.872 219.219,-154.431 229.736,-155.71 228.238,-148.872"/>
</g>
<!-- Node26&#45;&gt;Node11 -->
<g id="edge84" class="edge"><title>Node26&#45;&gt;Node11</title>
<path fill="none" stroke="midnightblue" d="M205.588,-181.392C241.896,-205.597 308.828,-250.218 339.233,-270.488"/>
<polygon fill="midnightblue" stroke="midnightblue" points="207.32,-178.34 197.058,-175.705 203.437,-184.164 207.32,-178.34"/>
</g>
<!-- Node26&#45;&gt;Node23 -->
<g id="edge86" class="edge"><title>Node26&#45;&gt;Node23</title>
<path fill="none" stroke="midnightblue" d="M230.455,-152.679C234.602,-150.517 238.528,-147.979 242,-145 268.85,-121.96 247.852,-92.5158 278,-74 336.323,-38.1803 366.216,-55.1034 432,-74 470.55,-85.0736 508.663,-114.553 527.264,-130.464"/>
<polygon fill="midnightblue" stroke="midnightblue" points="228.831,-149.571 221.118,-156.835 231.677,-155.966 228.831,-149.571"/>
</g>
<!-- Node27 -->
<g id="node68" class="node"><title>Node27</title>
<a xlink:href="classGUIGLCanvas.xhtml#a9c089336b9485f1abcc60a1a7fb85bb7" target="_top" xlink:title="GUIGLCanvas::OnMouseMove">
<polygon fill="none" stroke="black" points="278.5,-0.5 278.5,-21.5 431.5,-21.5 431.5,-0.5 278.5,-0.5"/>
<text text-anchor="middle" x="355" y="-8.5" font-family="Helvetica,sans-Serif" font-size="10.00">GUIGLCanvas::OnMouseMove</text>
</a>
</g>
<!-- Node26&#45;&gt;Node27 -->
<g id="edge82" class="edge"><title>Node26&#45;&gt;Node27</title>
<path fill="none" stroke="midnightblue" d="M230.267,-153.589C234.57,-151.242 238.581,-148.412 242,-145 278.115,-108.964 241.834,-71.984 278,-36 284.277,-29.7547 292.128,-25.0692 300.398,-21.554"/>
<polygon fill="midnightblue" stroke="midnightblue" points="228.766,-150.427 221.12,-157.761 231.67,-156.796 228.766,-150.427"/>
</g>
<!-- Node28&#45;&gt;Node5 -->
<g id="edge100" class="edge"><title>Node28&#45;&gt;Node5</title>
<path fill="none" stroke="midnightblue" d="M211.51,-432.59C222.117,-439.081 233.478,-447.367 242,-457 265.969,-484.094 255.49,-501.681 278,-530 295.304,-551.769 321.298,-571.075 338.208,-582.405"/>
<polygon fill="midnightblue" stroke="midnightblue" points="213.264,-429.561 202.858,-427.57 209.751,-435.616 213.264,-429.561"/>
</g>
<!-- Node28&#45;&gt;Node6 -->
<g id="edge102" class="edge"><title>Node28&#45;&gt;Node6</title>
<path fill="none" stroke="midnightblue" d="M208.478,-432.904C219.366,-439.735 231.714,-448.173 242,-457 260.151,-472.576 257.298,-485.022 278,-497 338.587,-532.056 363.694,-514.703 432,-530 452.663,-534.627 475.524,-539.942 494.792,-544.478"/>
<polygon fill="midnightblue" stroke="midnightblue" points="210.111,-429.8 199.753,-427.57 206.46,-435.772 210.111,-429.8"/>
</g>
<!-- Node28&#45;&gt;Node11 -->
<g id="edge94" class="edge"><title>Node28&#45;&gt;Node11</title>
<path fill="none" stroke="midnightblue" d="M192.849,-397.969C209.131,-373.325 240.686,-330.622 278,-306 287.268,-299.885 298.148,-295.163 308.764,-291.557"/>
<polygon fill="midnightblue" stroke="midnightblue" points="189.855,-396.154 187.376,-406.455 195.738,-399.948 189.855,-396.154"/>
</g>
<!-- Node28&#45;&gt;Node12 -->
<g id="edge104" class="edge"><title>Node28&#45;&gt;Node12</title>
<path fill="none" stroke="midnightblue" d="M231.472,-411.199C250.817,-408.975 273.105,-406.413 293.379,-404.083"/>
<polygon fill="midnightblue" stroke="midnightblue" points="230.891,-407.742 221.356,-412.361 231.691,-414.696 230.891,-407.742"/>
</g>
<!-- Node28&#45;&gt;Node16 -->
<g id="edge106" class="edge"><title>Node28&#45;&gt;Node16</title>
<path fill="none" stroke="midnightblue" d="M231.431,-422.797C249.071,-424.824 269.163,-427.134 287.945,-429.293"/>
<polygon fill="midnightblue" stroke="midnightblue" points="231.691,-419.304 221.356,-421.639 230.891,-426.258 231.691,-419.304"/>
</g>
<!-- Node28&#45;&gt;Node18 -->
<g id="edge108" class="edge"><title>Node28&#45;&gt;Node18</title>
<path fill="none" stroke="midnightblue" d="M213.406,-431.669C232.06,-439.782 256.08,-449.672 278,-457 288.348,-460.459 299.642,-463.688 310.313,-466.5"/>
<polygon fill="midnightblue" stroke="midnightblue" points="214.744,-428.434 204.181,-427.612 211.926,-434.842 214.744,-428.434"/>
</g>
<!-- Node28&#45;&gt;Node21 -->
<g id="edge92" class="edge"><title>Node28&#45;&gt;Node21</title>
<path fill="none" stroke="midnightblue" d="M213.834,-402.32C232.45,-394.286 256.294,-384.476 278,-377 345.189,-353.858 372.524,-372.89 432,-334 477.714,-304.109 513.485,-248.499 529.629,-220.323"/>
<polygon fill="midnightblue" stroke="midnightblue" points="212.385,-399.134 204.615,-406.337 215.181,-405.551 212.385,-399.134"/>
</g>
<!-- Node28&#45;&gt;Node23 -->
<g id="edge96" class="edge"><title>Node28&#45;&gt;Node23</title>
<path fill="none" stroke="midnightblue" d="M196.793,-398.966C214.588,-379.829 245.321,-350.168 278,-334 340.74,-302.96 380.767,-348.696 432,-301 474.002,-261.897 431.381,-221.185 468,-177 477.613,-165.401 491.911,-157.153 505.162,-151.505"/>
<polygon fill="midnightblue" stroke="midnightblue" points="194.124,-396.698 189.991,-406.454 199.306,-401.405 194.124,-396.698"/>
</g>
<!-- Node28&#45;&gt;Node25 -->
<g id="edge98" class="edge"><title>Node28&#45;&gt;Node25</title>
<path fill="none" stroke="midnightblue" d="M190.286,-397.238C205.586,-366.001 238.382,-304.323 278,-261 295.732,-241.61 320.675,-224.188 337.316,-213.614"/>
<polygon fill="midnightblue" stroke="midnightblue" points="187.132,-395.72 185.946,-406.248 193.439,-398.757 187.132,-395.72"/>
</g>
<!-- Node29&#45;&gt;Node6 -->
<g id="edge112" class="edge"><title>Node29&#45;&gt;Node6</title>
<path fill="none" stroke="midnightblue" d="M411.587,-694.765C418.76,-691.787 425.763,-688.232 432,-684 480.397,-651.163 518.758,-590.366 533.007,-565.757"/>
<polygon fill="midnightblue" stroke="midnightblue" points="409.874,-691.67 401.754,-698.476 412.345,-698.219 409.874,-691.67"/>
</g>
</g>
</svg>
