<?xml version="1.0" encoding="UTF-8" standalone="no"?>
<!DOCTYPE svg PUBLIC "-//W3C//DTD SVG 1.1//EN"
 "http://www.w3.org/Graphics/SVG/1.1/DTD/svg11.dtd">
<!-- Generated by graphviz version 2.26.3 (20100126.1600)
 -->
<!-- Title: tetgenio::load_ply Pages: 1 -->
<svg width="262pt" height="150pt"
 viewBox="0.00 0.00 262.00 150.00" xmlns="http://www.w3.org/2000/svg" xmlns:xlink="http://www.w3.org/1999/xlink">
<g id="graph1" class="graph" transform="scale(1 1) rotate(0) translate(4 146)">
<title>tetgenio::load_ply</title>
<!-- Node1 -->
<g id="node1" class="node"><title>Node1</title>
<polygon fill="#bfbfbf" stroke="black" points="0.5,-60.5 0.5,-81.5 93.5,-81.5 93.5,-60.5 0.5,-60.5"/>
<text text-anchor="middle" x="47" y="-68.5" font-family="Helvetica,sans-Serif" font-size="10.00">tetgenio::load_ply</text>
</g>
<!-- Node2 -->
<g id="node3" class="node"><title>Node2</title>
<a xlink:href="classtetgenio.xhtml#a085af1b2c889a6545f6aab67aad1ba43" target="_top" xlink:title="tetgenio::readline">
<polygon fill="none" stroke="black" points="146.5,-120.5 146.5,-141.5 237.5,-141.5 237.5,-120.5 146.5,-120.5"/>
<text text-anchor="middle" x="192" y="-128.5" font-family="Helvetica,sans-Serif" font-size="10.00">tetgenio::readline</text>
</a>
</g>
<!-- Node1&#45;&gt;Node2 -->
<g id="edge2" class="edge"><title>Node1&#45;&gt;Node2</title>
<path fill="none" stroke="midnightblue" d="M67.1167,-81.6555C83.7134,-90.2114 108.02,-102.207 130,-111 135.382,-113.153 141.093,-115.246 146.787,-117.216"/>
<polygon fill="midnightblue" stroke="midnightblue" points="145.698,-120.542 156.292,-120.404 147.924,-113.905 145.698,-120.542"/>
</g>
<!-- Node3 -->
<g id="node5" class="node"><title>Node3</title>
<a xlink:href="classtetgenio.xhtml#ad181a411db5dbcb1e11af7641e268bd5" target="_top" xlink:title="tetgenio::findnextfield">
<polygon fill="none" stroke="black" points="137,-80.5 137,-101.5 247,-101.5 247,-80.5 137,-80.5"/>
<text text-anchor="middle" x="192" y="-88.5" font-family="Helvetica,sans-Serif" font-size="10.00">tetgenio::findnextfield</text>
</a>
</g>
<!-- Node1&#45;&gt;Node3 -->
<g id="edge4" class="edge"><title>Node1&#45;&gt;Node3</title>
<path fill="none" stroke="midnightblue" d="M93.6771,-77.4382C104.199,-78.8895 115.556,-80.456 126.684,-81.991"/>
<polygon fill="midnightblue" stroke="midnightblue" points="126.426,-85.4883 136.81,-83.3876 127.382,-78.554 126.426,-85.4883"/>
</g>
<!-- Node4 -->
<g id="node7" class="node"><title>Node4</title>
<a xlink:href="classtetgenio.xhtml#a9a30e99d63fb2288525cdbda2b887c38" target="_top" xlink:title="tetgenio::findnextnumber">
<polygon fill="none" stroke="black" points="130,-40.5 130,-61.5 254,-61.5 254,-40.5 130,-40.5"/>
<text text-anchor="middle" x="192" y="-48.5" font-family="Helvetica,sans-Serif" font-size="10.00">tetgenio::findnextnumber</text>
</a>
</g>
<!-- Node1&#45;&gt;Node4 -->
<g id="edge6" class="edge"><title>Node1&#45;&gt;Node4</title>
<path fill="none" stroke="midnightblue" d="M93.6771,-64.5618C102.038,-63.4085 110.926,-62.1826 119.808,-60.9575"/>
<polygon fill="midnightblue" stroke="midnightblue" points="120.377,-64.4122 129.805,-59.5786 119.421,-57.4779 120.377,-64.4122"/>
</g>
<!-- Node5 -->
<g id="node9" class="node"><title>Node5</title>
<a xlink:href="classtetgenio.xhtml#aca2fd0dcb29ee3cd313a74d55df2ff2c" target="_top" xlink:title="tetgenio::init">
<polygon fill="none" stroke="black" points="157,-0.5 157,-21.5 227,-21.5 227,-0.5 157,-0.5"/>
<text text-anchor="middle" x="192" y="-8.5" font-family="Helvetica,sans-Serif" font-size="10.00">tetgenio::init</text>
</a>
</g>
<!-- Node1&#45;&gt;Node5 -->
<g id="edge8" class="edge"><title>Node1&#45;&gt;Node5</title>
<path fill="none" stroke="midnightblue" d="M67.1167,-60.3445C83.7134,-51.7886 108.02,-39.7935 130,-31 135.516,-28.7931 141.379,-26.6498 147.214,-24.6369"/>
<polygon fill="midnightblue" stroke="midnightblue" points="148.568,-27.8748 156.942,-21.3842 146.349,-21.236 148.568,-27.8748"/>
</g>
</g>
</svg>
