<?xml version="1.0" encoding="UTF-8" standalone="no"?>
<!DOCTYPE svg PUBLIC "-//W3C//DTD SVG 1.1//EN"
 "http://www.w3.org/Graphics/SVG/1.1/DTD/svg11.dtd">
<!-- Generated by graphviz version 2.26.3 (20100126.1600)
 -->
<!-- Title: tetgenmesh::getpointmeshsize Pages: 1 -->
<svg width="454pt" height="230pt"
 viewBox="0.00 0.00 454.00 230.00" xmlns="http://www.w3.org/2000/svg" xmlns:xlink="http://www.w3.org/1999/xlink">
<g id="graph1" class="graph" transform="scale(1 1) rotate(0) translate(4 226)">
<title>tetgenmesh::getpointmeshsize</title>
<!-- Node1 -->
<g id="node1" class="node"><title>Node1</title>
<polygon fill="#bfbfbf" stroke="black" points="0,-100.5 0,-121.5 150,-121.5 150,-100.5 0,-100.5"/>
<text text-anchor="middle" x="75" y="-108.5" font-family="Helvetica,sans-Serif" font-size="10.00">tetgenmesh::getpointmeshsize</text>
</g>
<!-- Node2 -->
<g id="node3" class="node"><title>Node2</title>
<a xlink:href="classtetgenmesh.xhtml#aef205894579ac572d70018a484e81c84" target="_top" xlink:title="tetgenmesh::orient3dfast">
<polygon fill="none" stroke="black" points="186.5,-200.5 186.5,-221.5 311.5,-221.5 311.5,-200.5 186.5,-200.5"/>
<text text-anchor="middle" x="249" y="-208.5" font-family="Helvetica,sans-Serif" font-size="10.00">tetgenmesh::orient3dfast</text>
</a>
</g>
<!-- Node1&#45;&gt;Node2 -->
<g id="edge2" class="edge"><title>Node1&#45;&gt;Node2</title>
<path fill="none" stroke="midnightblue" d="M87.1355,-121.765C106.692,-138.626 146.952,-171.363 186,-191 190.322,-193.173 194.929,-195.173 199.61,-196.998"/>
<polygon fill="midnightblue" stroke="midnightblue" points="198.66,-200.377 209.254,-200.497 201.047,-193.796 198.66,-200.377"/>
</g>
<!-- Node3 -->
<g id="node5" class="node"><title>Node3</title>
<a xlink:href="classtetgenmesh.xhtml#ae2d4d27d7babd7b0e60956cc00bca89a" target="_top" xlink:title="tetgenmesh::org">
<polygon fill="none" stroke="black" points="205.5,-160.5 205.5,-181.5 292.5,-181.5 292.5,-160.5 205.5,-160.5"/>
<text text-anchor="middle" x="249" y="-168.5" font-family="Helvetica,sans-Serif" font-size="10.00">tetgenmesh::org</text>
</a>
</g>
<!-- Node1&#45;&gt;Node3 -->
<g id="edge4" class="edge"><title>Node1&#45;&gt;Node3</title>
<path fill="none" stroke="midnightblue" d="M103.642,-121.664C125.994,-129.903 157.869,-141.47 186,-151 192.134,-153.078 198.625,-155.212 205.018,-157.276"/>
<polygon fill="midnightblue" stroke="midnightblue" points="204.327,-160.729 214.918,-160.444 206.461,-154.062 204.327,-160.729"/>
</g>
<!-- Node4 -->
<g id="node7" class="node"><title>Node4</title>
<a xlink:href="classtetgenmesh.xhtml#ad56ef3448cd57e637acf373622bfb769" target="_top" xlink:title="tetgenmesh::dest">
<polygon fill="none" stroke="black" points="203,-120.5 203,-141.5 295,-141.5 295,-120.5 203,-120.5"/>
<text text-anchor="middle" x="249" y="-128.5" font-family="Helvetica,sans-Serif" font-size="10.00">tetgenmesh::dest</text>
</a>
</g>
<!-- Node1&#45;&gt;Node4 -->
<g id="edge6" class="edge"><title>Node1&#45;&gt;Node4</title>
<path fill="none" stroke="midnightblue" d="M150.054,-119.627C164.273,-121.261 178.927,-122.946 192.455,-124.501"/>
<polygon fill="midnightblue" stroke="midnightblue" points="192.222,-127.997 202.556,-125.662 193.021,-121.043 192.222,-127.997"/>
</g>
<!-- Node5 -->
<g id="node9" class="node"><title>Node5</title>
<a xlink:href="classtetgenmesh.xhtml#a9287d941f7f432ca846d5c004603af40" target="_top" xlink:title="tetgenmesh::apex">
<polygon fill="none" stroke="black" points="201.5,-80.5 201.5,-101.5 296.5,-101.5 296.5,-80.5 201.5,-80.5"/>
<text text-anchor="middle" x="249" y="-88.5" font-family="Helvetica,sans-Serif" font-size="10.00">tetgenmesh::apex</text>
</a>
</g>
<!-- Node1&#45;&gt;Node5 -->
<g id="edge8" class="edge"><title>Node1&#45;&gt;Node5</title>
<path fill="none" stroke="midnightblue" d="M150.054,-102.373C163.771,-100.796 177.892,-99.1733 191.018,-97.6646"/>
<polygon fill="midnightblue" stroke="midnightblue" points="191.769,-101.101 201.304,-96.4823 190.97,-94.1472 191.769,-101.101"/>
</g>
<!-- Node6 -->
<g id="node11" class="node"><title>Node6</title>
<a xlink:href="classtetgenmesh.xhtml#aa05bc79cab358be88f26876be920616f" target="_top" xlink:title="tetgenmesh::triarea">
<polygon fill="none" stroke="black" points="198.5,-40.5 198.5,-61.5 299.5,-61.5 299.5,-40.5 198.5,-40.5"/>
<text text-anchor="middle" x="249" y="-48.5" font-family="Helvetica,sans-Serif" font-size="10.00">tetgenmesh::triarea</text>
</a>
</g>
<!-- Node1&#45;&gt;Node6 -->
<g id="edge10" class="edge"><title>Node1&#45;&gt;Node6</title>
<path fill="none" stroke="midnightblue" d="M103.642,-100.336C125.994,-92.097 157.869,-80.53 186,-71 192.134,-68.922 198.625,-66.7881 205.018,-64.7241"/>
<polygon fill="midnightblue" stroke="midnightblue" points="206.461,-67.9375 214.918,-61.5561 204.327,-61.2705 206.461,-67.9375"/>
</g>
<!-- Node9 -->
<g id="node17" class="node"><title>Node9</title>
<a xlink:href="classtetgenmesh.xhtml#a4f2849235299c81ad7d585dc0b657d80" target="_top" xlink:title="tetgenmesh::distance">
<polygon fill="none" stroke="black" points="194,-0.5 194,-21.5 304,-21.5 304,-0.5 194,-0.5"/>
<text text-anchor="middle" x="249" y="-8.5" font-family="Helvetica,sans-Serif" font-size="10.00">tetgenmesh::distance</text>
</a>
</g>
<!-- Node1&#45;&gt;Node9 -->
<g id="edge16" class="edge"><title>Node1&#45;&gt;Node9</title>
<path fill="none" stroke="midnightblue" d="M87.1355,-100.235C106.692,-83.3737 146.952,-50.6366 186,-31 190.322,-28.8266 194.929,-26.8267 199.61,-25.002"/>
<polygon fill="midnightblue" stroke="midnightblue" points="201.047,-28.2039 209.254,-21.5033 198.66,-21.6235 201.047,-28.2039"/>
</g>
<!-- Node7 -->
<g id="node13" class="node"><title>Node7</title>
<a xlink:href="classtetgenmesh.xhtml#a9b5ff4d3e2452044830fbd47d2f70cbd" target="_top" xlink:title="tetgenmesh::cross">
<polygon fill="none" stroke="black" points="348,-60.5 348,-81.5 446,-81.5 446,-60.5 348,-60.5"/>
<text text-anchor="middle" x="397" y="-68.5" font-family="Helvetica,sans-Serif" font-size="10.00">tetgenmesh::cross</text>
</a>
</g>
<!-- Node6&#45;&gt;Node7 -->
<g id="edge12" class="edge"><title>Node6&#45;&gt;Node7</title>
<path fill="none" stroke="midnightblue" d="M299.519,-57.8269C311.809,-59.4877 325.063,-61.2788 337.719,-62.989"/>
<polygon fill="midnightblue" stroke="midnightblue" points="337.331,-66.4684 347.71,-64.3392 338.269,-59.5315 337.331,-66.4684"/>
</g>
<!-- Node8 -->
<g id="node15" class="node"><title>Node8</title>
<a xlink:href="classtetgenmesh.xhtml#afa0906703b590597155547336c360004" target="_top" xlink:title="tetgenmesh::dot">
<polygon fill="none" stroke="black" points="353.5,-20.5 353.5,-41.5 440.5,-41.5 440.5,-20.5 353.5,-20.5"/>
<text text-anchor="middle" x="397" y="-28.5" font-family="Helvetica,sans-Serif" font-size="10.00">tetgenmesh::dot</text>
</a>
</g>
<!-- Node6&#45;&gt;Node8 -->
<g id="edge14" class="edge"><title>Node6&#45;&gt;Node8</title>
<path fill="none" stroke="midnightblue" d="M299.519,-44.1731C313.535,-42.279 328.805,-40.2156 343.01,-38.2959"/>
<polygon fill="midnightblue" stroke="midnightblue" points="343.692,-41.7357 353.133,-36.9279 342.755,-34.7987 343.692,-41.7357"/>
</g>
</g>
</svg>
