<?xml version="1.0" encoding="UTF-8" standalone="no"?>
<!DOCTYPE svg PUBLIC "-//W3C//DTD SVG 1.1//EN"
 "http://www.w3.org/Graphics/SVG/1.1/DTD/svg11.dtd">
<!-- Generated by graphviz version 2.36.0 (20140111.2315)
 -->
<!-- Title: ObjectData Pages: 1 -->
<svg width="284pt" height="176pt"
 viewBox="0.00 0.00 284.00 176.00" xmlns="http://www.w3.org/2000/svg" xmlns:xlink="http://www.w3.org/1999/xlink">
<g id="graph0" class="graph" transform="scale(1 1) rotate(0) translate(4 172)">
<title>ObjectData</title>
<!-- Node1 -->
<g id="node1" class="node"><title>Node1</title>
<polygon fill="#bfbfbf" stroke="black" points="140,-0.5 140,-19.5 206,-19.5 206,-0.5 140,-0.5"/>
<text text-anchor="middle" x="173" y="-7.5" font-family="Helvetica,sans-Serif" font-size="10.00">ObjectData</text>
</g>
<!-- Node2 -->
<g id="node2" class="node"><title>Node2</title>
<g id="a_node2"><a xlink:href="classstd_1_1vector.xhtml" target="_top" xlink:title="std::vector\&lt; ObjectData\l::MaterialData \&gt;">
<polygon fill="none" stroke="black" points="3,-69 3,-99 125,-99 125,-69 3,-69"/>
<text text-anchor="start" x="11" y="-87" font-family="Helvetica,sans-Serif" font-size="10.00">std::vector&lt; ObjectData</text>
<text text-anchor="middle" x="64" y="-76" font-family="Helvetica,sans-Serif" font-size="10.00">::MaterialData &gt;</text>
</a>
</g>
</g>
<!-- Node2&#45;&gt;Node1 -->
<g id="edge1" class="edge"><title>Node2&#45;&gt;Node1</title>
<path fill="none" stroke="#9a32cd" stroke-dasharray="5,2" d="M93.8061,-63.3115C115.474,-48.9991 143.745,-30.3247 159.985,-19.5972"/>
<polygon fill="#9a32cd" stroke="#9a32cd" points="91.69,-60.5147 85.2751,-68.9468 95.5481,-66.3555 91.69,-60.5147"/>
<text text-anchor="middle" x="153.5" y="-41.5" font-family="Helvetica,sans-Serif" font-size="10.00"> materials</text>
</g>
<!-- Node3 -->
<g id="node3" class="node"><title>Node3</title>
<g id="a_node3"><a xlink:href="structObjectData_1_1MaterialData.xhtml" target="_top" xlink:title="Die Daten eines Materials. ">
<polygon fill="none" stroke="black" points="0,-148.5 0,-167.5 128,-167.5 128,-148.5 0,-148.5"/>
<text text-anchor="middle" x="64" y="-155.5" font-family="Helvetica,sans-Serif" font-size="10.00">ObjectData::MaterialData</text>
</a>
</g>
</g>
<!-- Node3&#45;&gt;Node2 -->
<g id="edge2" class="edge"><title>Node3&#45;&gt;Node2</title>
<path fill="none" stroke="#9a32cd" stroke-dasharray="5,2" d="M64,-138.085C64,-125.915 64,-110.354 64,-99.2316"/>
<polygon fill="#9a32cd" stroke="#9a32cd" points="60.5001,-138.458 64,-148.458 67.5001,-138.458 60.5001,-138.458"/>
<text text-anchor="middle" x="83" y="-121.5" font-family="Helvetica,sans-Serif" font-size="10.00"> element</text>
</g>
<!-- Node4 -->
<g id="node4" class="node"><title>Node4</title>
<g id="a_node4"><a xlink:href="classstd_1_1vector.xhtml" target="_top" xlink:title="std::vector\&lt; SensorData \&gt;">
<polygon fill="none" stroke="black" points="143.5,-74.5 143.5,-93.5 276.5,-93.5 276.5,-74.5 143.5,-74.5"/>
<text text-anchor="middle" x="210" y="-81.5" font-family="Helvetica,sans-Serif" font-size="10.00">std::vector&lt; SensorData &gt;</text>
</a>
</g>
</g>
<!-- Node4&#45;&gt;Node1 -->
<g id="edge3" class="edge"><title>Node4&#45;&gt;Node1</title>
<path fill="none" stroke="#9a32cd" stroke-dasharray="5,2" d="M200.971,-65.4302C193.485,-50.8634 183.167,-30.784 177.384,-19.531"/>
<polygon fill="#9a32cd" stroke="#9a32cd" points="197.927,-67.1634 205.61,-74.4579 204.153,-63.9638 197.927,-67.1634"/>
<text text-anchor="middle" x="228" y="-41.5" font-family="Helvetica,sans-Serif" font-size="10.00"> sensorDataList</text>
</g>
</g>
</svg>
