<?xml version="1.0" encoding="UTF-8" standalone="no"?>
<!DOCTYPE svg PUBLIC "-//W3C//DTD SVG 1.1//EN"
 "http://www.w3.org/Graphics/SVG/1.1/DTD/svg11.dtd">
<!-- Generated by graphviz version 2.36.0 (20140111.2315)
 -->
<!-- Title: Vector3D::sub Pages: 1 -->
<!--zoomable 412 -->
<svg id="main" version="1.1" xmlns="http://www.w3.org/2000/svg" xmlns:xlink="http://www.w3.org/1999/xlink" xml:space="preserve" onload="init(evt)">
<style type="text/css"><![CDATA[
.edge:hover path { stroke: red; }
.edge:hover polygon { stroke: red; fill: red; }
]]></style>
<script type="text/javascript"><![CDATA[
var edges = document.getElementsByTagName('g');
if (edges && edges.length) {
  for (var i=0;i<edges.length;i++) {
    if (edges[i].id.substr(0,4)=='edge') {
      edges[i].setAttribute('class','edge');
    }
  }
}
]]></script>
        <defs>
                <circle id="rim" cx="0" cy="0" r="7"/>
                <circle id="rim2" cx="0" cy="0" r="3.5"/>
                <g id="zoomPlus">
                        <use xlink:href="#rim" fill="#404040">
                                <set attributeName="fill" to="#808080" begin="zoomplus.mouseover" end="zoomplus.mouseout"/>
                        </use>
                        <path d="M-4,0h8M0,-4v8" fill="none" stroke="white" stroke-width="1.5" pointer-events="none"/>
                </g>
                <g id="zoomMin">
                        <use xlink:href="#rim" fill="#404040">
                                <set attributeName="fill" to="#808080" begin="zoomminus.mouseover" end="zoomminus.mouseout"/>
                        </use>
                        <path d="M-4,0h8" fill="none" stroke="white" stroke-width="1.5" pointer-events="none"/>
                </g>
                <g id="dirArrow">
                        <path fill="none" stroke="white" stroke-width="1.5" d="M0,-3.0v7 M-2.5,-0.5L0,-3.0L2.5,-0.5"/>
                </g>
               <g id="resetDef">
                       <use xlink:href="#rim2" fill="#404040">
                               <set attributeName="fill" to="#808080" begin="reset.mouseover" end="reset.mouseout"/>
                       </use>
               </g>
        </defs>

<script type="text/javascript">
var viewWidth = 1280;
var viewHeight = 412;
var sectionId = 'dynsection-24';
</script>
<script xlink:href="svgpan.js"/>
<svg id="graph" class="graph">
<g id="viewport">
<title>Vector3D::sub</title>
<!-- Node1 -->
<g id="node1" class="node"><title>Node1</title>
<polygon fill="#bfbfbf" stroke="black" points="0,-209.5 0,-228.5 80,-228.5 80,-209.5 0,-209.5"/>
<text text-anchor="middle" x="40" y="-216.5" font-family="Helvetica,sans-Serif" font-size="10.00">Vector3D::sub</text>
</g>
<!-- Node2 -->
<g id="node2" class="node"><title>Node2</title>
<g id="a_node2"><a xlink:href="simpleanalyzer-gui_2src_2GUI_2Renderer_8cpp.xhtml#a17ef754a4f478e115d6e7fb813702639" target="_top" xlink:title="pointBehindCut">
<polygon fill="none" stroke="black" points="323.5,-342.5 323.5,-361.5 406.5,-361.5 406.5,-342.5 323.5,-342.5"/>
<text text-anchor="middle" x="365" y="-349.5" font-family="Helvetica,sans-Serif" font-size="10.00">pointBehindCut</text>
</a>
</g>
</g>
<!-- Node1&#45;&gt;Node2 -->
<g id="edge1" class="edge"><title>Node1&#45;&gt;Node2</title>
<path fill="none" stroke="midnightblue" d="M48.9151,-237.883C60.0561,-261.874 82.7849,-302.498 116,-322 180.701,-359.988 271.212,-360.333 323.1,-356.564"/>
<polygon fill="midnightblue" stroke="midnightblue" points="52.1086,-236.451 44.8531,-228.73 45.7104,-239.29 52.1086,-236.451"/>
</g>
<!-- Node3 -->
<g id="node3" class="node"><title>Node3</title>
<g id="a_node3"><a xlink:href="classRenderer.xhtml#a927f376a6283de3181b86f65b927386c" target="_top" xlink:title="Zeichnet die Tetraeder eines Materials des Objekts. ">
<polygon fill="none" stroke="black" points="472,-361.5 472,-380.5 608,-380.5 608,-361.5 472,-361.5"/>
<text text-anchor="middle" x="540" y="-368.5" font-family="Helvetica,sans-Serif" font-size="10.00">Renderer::renderTetrahedra</text>
</a>
</g>
</g>
<!-- Node1&#45;&gt;Node3 -->
<g id="edge3" class="edge"><title>Node1&#45;&gt;Node3</title>
<path fill="none" stroke="midnightblue" d="M45.6785,-238.274C54.1031,-268.414 74.9056,-326.038 116,-353 238.606,-433.443 427.009,-399.44 504.198,-380.512"/>
<polygon fill="midnightblue" stroke="midnightblue" points="49.0429,-237.306 43.12,-228.521 42.272,-239.082 49.0429,-237.306"/>
</g>
<!-- Node4 -->
<g id="node4" class="node"><title>Node4</title>
<g id="a_node4"><a xlink:href="simpleanalyzer-gui_2src_2GUI_2Renderer_8cpp.xhtml#a608a02845726b8844beac12e5154c500" target="_top" xlink:title="Visualisiert Informationen über eine 2D&#45;Temperaturverteilung. ">
<polygon fill="none" stroke="black" points="314.5,-304.5 314.5,-323.5 415.5,-323.5 415.5,-304.5 314.5,-304.5"/>
<text text-anchor="middle" x="365" y="-311.5" font-family="Helvetica,sans-Serif" font-size="10.00">drawCutRenderInfo</text>
</a>
</g>
</g>
<!-- Node1&#45;&gt;Node4 -->
<g id="edge4" class="edge"><title>Node1&#45;&gt;Node4</title>
<path fill="none" stroke="midnightblue" d="M52.9398,-237.173C66.0164,-255.355 88.7907,-282.381 116,-295 179.658,-324.522 262.426,-324.221 314.394,-320.062"/>
<polygon fill="midnightblue" stroke="midnightblue" points="55.5771,-234.833 47.0134,-228.595 49.8178,-238.812 55.5771,-234.833"/>
</g>
<!-- Node6 -->
<g id="node6" class="node"><title>Node6</title>
<g id="a_node6"><a xlink:href="namespaceUtils.xhtml#a5f216cc7011a901130db81321b565334" target="_top" xlink:title="Testet, ob ein Strahl ein Dreieck schneidet. ">
<polygon fill="none" stroke="black" points="120,-152.5 120,-171.5 254,-171.5 254,-152.5 120,-152.5"/>
<text text-anchor="middle" x="187" y="-159.5" font-family="Helvetica,sans-Serif" font-size="10.00">Utils::rayIntersectsTriangle</text>
</a>
</g>
</g>
<!-- Node1&#45;&gt;Node6 -->
<g id="edge6" class="edge"><title>Node1&#45;&gt;Node6</title>
<path fill="none" stroke="midnightblue" d="M70.8792,-205.163C84.5258,-199.022 100.966,-191.873 116,-186 129.044,-180.905 143.67,-175.798 156.167,-171.612"/>
<polygon fill="midnightblue" stroke="midnightblue" points="69.1544,-202.102 61.4961,-209.423 72.0485,-208.476 69.1544,-202.102"/>
</g>
<!-- Node9 -->
<g id="node9" class="node"><title>Node9</title>
<g id="a_node9"><a xlink:href="classGUICutRenderWindow.xhtml#a9eedb7088ad31f4680a77ed3a06fa60c" target="_top" xlink:title="Berechnet die 2D&#45;Temperaturverteilung als Grafik. ">
<polygon fill="none" stroke="black" points="803.5,-223 803.5,-253 920.5,-253 920.5,-223 803.5,-223"/>
<text text-anchor="start" x="811.5" y="-241" font-family="Helvetica,sans-Serif" font-size="10.00">GUICutRenderWindow</text>
<text text-anchor="middle" x="862" y="-230" font-family="Helvetica,sans-Serif" font-size="10.00">::renderImage</text>
</a>
</g>
</g>
<!-- Node1&#45;&gt;Node9 -->
<g id="edge26" class="edge"><title>Node1&#45;&gt;Node9</title>
<path fill="none" stroke="midnightblue" d="M90.3329,-223.709C153.64,-229.336 266.89,-238 364,-238 364,-238 364,-238 541,-238 632.806,-238 739.426,-238 803.482,-238"/>
<polygon fill="midnightblue" stroke="midnightblue" points="90.5094,-220.211 80.2358,-222.799 89.8814,-227.182 90.5094,-220.211"/>
</g>
<!-- Node11 -->
<g id="node11" class="node"><title>Node11</title>
<g id="a_node11"><a xlink:href="namespaceUtils.xhtml#a9b995a1220a78be108b19bda4b776332" target="_top" xlink:title="Testet, ob sich ein Punkt innerhalb eines Tetraeders befindet. ">
<polygon fill="none" stroke="black" points="116,-114.5 116,-133.5 258,-133.5 258,-114.5 116,-114.5"/>
<text text-anchor="middle" x="187" y="-121.5" font-family="Helvetica,sans-Serif" font-size="10.00">Utils::pointInsideTetrahedron</text>
</a>
</g>
</g>
<!-- Node1&#45;&gt;Node11 -->
<g id="edge11" class="edge"><title>Node1&#45;&gt;Node11</title>
<path fill="none" stroke="midnightblue" d="M53.9013,-201.293C67.4668,-183.935 90.3723,-157.965 116,-143 122.633,-139.127 130.08,-136.02 137.575,-133.535"/>
<polygon fill="midnightblue" stroke="midnightblue" points="50.9459,-199.398 47.6938,-209.482 56.5242,-203.627 50.9459,-199.398"/>
</g>
<!-- Node18 -->
<g id="node18" class="node"><title>Node18</title>
<g id="a_node18"><a xlink:href="classAnalyzer.xhtml#a2a7b5f169f664ccd9f206e508cba78ef" target="_top" xlink:title="Ermittelt Daten für ein Objekt. ">
<polygon fill="none" stroke="black" points="962.5,-38.5 962.5,-57.5 1085.5,-57.5 1085.5,-38.5 962.5,-38.5"/>
<text text-anchor="middle" x="1024" y="-45.5" font-family="Helvetica,sans-Serif" font-size="10.00">Analyzer::analyzeObject</text>
</a>
</g>
</g>
<!-- Node1&#45;&gt;Node18 -->
<g id="edge35" class="edge"><title>Node1&#45;&gt;Node18</title>
<path fill="none" stroke="midnightblue" d="M48.2435,-199.821C58.9827,-174.094 81.6338,-128.887 116,-105 208.867,-40.4519 250.904,-48 364,-48 364,-48 364,-48 704,-48 793.996,-48 898.273,-48 962.439,-48"/>
<polygon fill="midnightblue" stroke="midnightblue" points="44.941,-198.653 44.4835,-209.238 51.442,-201.249 44.941,-198.653"/>
</g>
<!-- Node23 -->
<g id="node23" class="node"><title>Node23</title>
<g id="a_node23"><a xlink:href="classTriangle.xhtml#a3c72b19f316fa9ffb0a2f206e3558790" target="_top" xlink:title="Gibt die Normale des Dreiecks zurück. ">
<polygon fill="none" stroke="black" points="136,-266.5 136,-285.5 238,-285.5 238,-266.5 136,-266.5"/>
<text text-anchor="middle" x="187" y="-273.5" font-family="Helvetica,sans-Serif" font-size="10.00">Triangle::getNormal</text>
</a>
</g>
</g>
<!-- Node1&#45;&gt;Node23 -->
<g id="edge27" class="edge"><title>Node1&#45;&gt;Node23</title>
<path fill="none" stroke="midnightblue" d="M70.8792,-232.837C84.5258,-238.978 100.966,-246.127 116,-252 129.044,-257.095 143.67,-262.202 156.167,-266.388"/>
<polygon fill="midnightblue" stroke="midnightblue" points="72.0485,-229.524 61.4961,-228.577 69.1544,-235.898 72.0485,-229.524"/>
</g>
<!-- Node24 -->
<g id="node24" class="node"><title>Node24</title>
<g id="a_node24"><a xlink:href="classInterpolator.xhtml#a30e714ca6dff9b5745d029f95af1420a" target="_top" xlink:title="Ermittelt den Wert für einen beliebigen Punkt im Raum. ">
<polygon fill="none" stroke="black" points="299.5,-190.5 299.5,-209.5 430.5,-209.5 430.5,-190.5 299.5,-190.5"/>
<text text-anchor="middle" x="365" y="-197.5" font-family="Helvetica,sans-Serif" font-size="10.00">Interpolator::interpolateTet</text>
</a>
</g>
</g>
<!-- Node1&#45;&gt;Node24 -->
<g id="edge34" class="edge"><title>Node1&#45;&gt;Node24</title>
<path fill="none" stroke="midnightblue" d="M90.3028,-216.1C146.259,-212.808 237.737,-207.427 299.367,-203.802"/>
<polygon fill="midnightblue" stroke="midnightblue" points="90.0604,-212.608 80.2832,-216.689 90.4715,-219.596 90.0604,-212.608"/>
</g>
<!-- Node25 -->
<g id="node25" class="node"><title>Node25</title>
<g id="a_node25"><a xlink:href="classInterpolator.xhtml#ad59ac6ed3822e08a67ac7d1ee88a5bd2" target="_top" xlink:title="Ermittelt den Wert für einen beliebigen Punkt in einer Ebene. ">
<polygon fill="none" stroke="black" points="123,-0.5 123,-19.5 251,-19.5 251,-0.5 123,-0.5"/>
<text text-anchor="middle" x="187" y="-7.5" font-family="Helvetica,sans-Serif" font-size="10.00">Interpolator::interpolateTri</text>
</a>
</g>
</g>
<!-- Node1&#45;&gt;Node25 -->
<g id="edge33" class="edge"><title>Node1&#45;&gt;Node25</title>
<path fill="none" stroke="midnightblue" d="M43.5623,-199.275C49.4574,-161.808 67.4157,-79.9895 116,-34 122.718,-27.6411 131.194,-22.9607 139.908,-19.5175"/>
<polygon fill="midnightblue" stroke="midnightblue" points="40.0669,-198.992 42.0996,-209.39 46.9948,-199.994 40.0669,-198.992"/>
</g>
<!-- Node2&#45;&gt;Node3 -->
<g id="edge2" class="edge"><title>Node2&#45;&gt;Node3</title>
<path fill="none" stroke="midnightblue" d="M416.959,-357.597C434.182,-359.488 453.68,-361.63 471.956,-363.637"/>
<polygon fill="midnightblue" stroke="midnightblue" points="416.883,-354.067 406.561,-356.455 416.119,-361.026 416.883,-354.067"/>
</g>
<!-- Node5 -->
<g id="node5" class="node"><title>Node5</title>
<g id="a_node5"><a xlink:href="classRenderer.xhtml#af7e5f8f68742f198e315fb4683a605a4" target="_top" xlink:title="Zeichnet das Objekt (Attribut object). ">
<polygon fill="none" stroke="black" points="495.5,-304.5 495.5,-323.5 584.5,-323.5 584.5,-304.5 495.5,-304.5"/>
<text text-anchor="middle" x="540" y="-311.5" font-family="Helvetica,sans-Serif" font-size="10.00">Renderer::render</text>
</a>
</g>
</g>
<!-- Node4&#45;&gt;Node5 -->
<g id="edge5" class="edge"><title>Node4&#45;&gt;Node5</title>
<path fill="none" stroke="midnightblue" d="M425.845,-314C448.676,-314 474.253,-314 495.306,-314"/>
<polygon fill="midnightblue" stroke="midnightblue" points="425.575,-310.5 415.575,-314 425.575,-317.5 425.575,-310.5"/>
</g>
<!-- Node7 -->
<g id="node7" class="node"><title>Node7</title>
<g id="a_node7"><a xlink:href="namespaceUtils.xhtml#af8fc5d6dab27f759ab5d76757a53023f" target="_top" xlink:title="Testet, ob sich ein Punkt innerhalb eines Körpers befindet. ">
<polygon fill="none" stroke="black" points="308,-152.5 308,-171.5 422,-171.5 422,-152.5 308,-152.5"/>
<text text-anchor="middle" x="365" y="-159.5" font-family="Helvetica,sans-Serif" font-size="10.00">Utils::pointInsideMesh</text>
</a>
</g>
</g>
<!-- Node6&#45;&gt;Node7 -->
<g id="edge7" class="edge"><title>Node6&#45;&gt;Node7</title>
<path fill="none" stroke="midnightblue" d="M264.136,-162C278.858,-162 294.031,-162 307.967,-162"/>
<polygon fill="midnightblue" stroke="midnightblue" points="264.037,-158.5 254.037,-162 264.037,-165.5 264.037,-158.5"/>
</g>
<!-- Node8 -->
<g id="node8" class="node"><title>Node8</title>
<g id="a_node8"><a xlink:href="GUICutRenderWindow_8cpp.xhtml#aeaaae4c8452680389d221d0e60a6fc33" target="_top" xlink:title="Funktion zum verteilten berechnen der 2D&#45;Temperaturverteilung. ">
<polygon fill="none" stroke="black" points="665,-157.5 665,-176.5 741,-176.5 741,-157.5 665,-157.5"/>
<text text-anchor="middle" x="703" y="-164.5" font-family="Helvetica,sans-Serif" font-size="10.00">render_thread</text>
</a>
</g>
</g>
<!-- Node7&#45;&gt;Node8 -->
<g id="edge8" class="edge"><title>Node7&#45;&gt;Node8</title>
<path fill="none" stroke="midnightblue" d="M432.654,-162.992C502.26,-164.028 608.928,-165.615 664.853,-166.447"/>
<polygon fill="midnightblue" stroke="midnightblue" points="432.29,-159.486 422.239,-162.837 432.186,-166.485 432.29,-159.486"/>
</g>
<!-- Node8&#45;&gt;Node9 -->
<g id="edge9" class="edge"><title>Node8&#45;&gt;Node9</title>
<path fill="none" stroke="midnightblue" d="M734.431,-180.762C761.159,-192.849 799.975,-210.403 827.563,-222.879"/>
<polygon fill="midnightblue" stroke="midnightblue" points="735.728,-177.507 725.174,-176.575 732.843,-183.885 735.728,-177.507"/>
</g>
<!-- Node10 -->
<g id="node10" class="node"><title>Node10</title>
<g id="a_node10"><a xlink:href="classGUICutRenderWindow.xhtml#a7cd1bfbec53756a1cbbe1616b4d46c7a" target="_top" xlink:title="Behandelt das Drücken des Buttons zur Berechnung der zweidimensionalen Temperaturverteilung. ">
<polygon fill="none" stroke="black" points="965.5,-223 965.5,-253 1082.5,-253 1082.5,-223 965.5,-223"/>
<text text-anchor="start" x="973.5" y="-241" font-family="Helvetica,sans-Serif" font-size="10.00">GUICutRenderWindow</text>
<text text-anchor="middle" x="1024" y="-230" font-family="Helvetica,sans-Serif" font-size="10.00">::renderCutBtClick</text>
</a>
</g>
</g>
<!-- Node9&#45;&gt;Node10 -->
<g id="edge10" class="edge"><title>Node9&#45;&gt;Node10</title>
<path fill="none" stroke="midnightblue" d="M931.107,-238C942.5,-238 954.222,-238 965.321,-238"/>
<polygon fill="midnightblue" stroke="midnightblue" points="930.764,-234.5 920.764,-238 930.764,-241.5 930.764,-234.5"/>
</g>
<!-- Node11&#45;&gt;Node7 -->
<g id="edge12" class="edge"><title>Node11&#45;&gt;Node7</title>
<path fill="none" stroke="midnightblue" d="M242.433,-135.753C267.319,-141.126 296.419,-147.409 319.907,-152.48"/>
<polygon fill="midnightblue" stroke="midnightblue" points="242.926,-132.278 232.412,-133.589 241.448,-139.121 242.926,-132.278"/>
</g>
<!-- Node12 -->
<g id="node12" class="node"><title>Node12</title>
<g id="a_node12"><a xlink:href="namespaceUtils.xhtml#a40eaef4d22da849a5deb2f1153d88bbc" target="_top" xlink:title="Testet, ob sich ein Punkt innerhalb eines Tetraeders befindet. ">
<polygon fill="none" stroke="black" points="294,-76.5 294,-95.5 436,-95.5 436,-76.5 294,-76.5"/>
<text text-anchor="middle" x="365" y="-83.5" font-family="Helvetica,sans-Serif" font-size="10.00">Utils::pointInsideTetrahedron</text>
</a>
</g>
</g>
<!-- Node11&#45;&gt;Node12 -->
<g id="edge13" class="edge"><title>Node11&#45;&gt;Node12</title>
<path fill="none" stroke="midnightblue" d="M242.433,-112.247C267.319,-106.874 296.419,-100.591 319.907,-95.5201"/>
<polygon fill="midnightblue" stroke="midnightblue" points="241.448,-108.879 232.412,-114.411 242.926,-115.722 241.448,-108.879"/>
</g>
<!-- Node13 -->
<g id="node13" class="node"><title>Node13</title>
<g id="a_node13"><a xlink:href="namespaceUtils.xhtml#a6a0ae18a42e2d206bc1b43da27820fe2" target="_top" xlink:title="Gibt den inter/extrapolierten Wert eines Punktes zurück. ">
<polygon fill="none" stroke="black" points="488,-119.5 488,-138.5 592,-138.5 592,-119.5 488,-119.5"/>
<text text-anchor="middle" x="540" y="-126.5" font-family="Helvetica,sans-Serif" font-size="10.00">Utils::getPointValue</text>
</a>
</g>
</g>
<!-- Node11&#45;&gt;Node13 -->
<g id="edge14" class="edge"><title>Node11&#45;&gt;Node13</title>
<path fill="none" stroke="midnightblue" d="M268.366,-125.145C335.904,-126.107 430.379,-127.453 487.981,-128.273"/>
<polygon fill="midnightblue" stroke="midnightblue" points="268.235,-121.643 258.186,-125 268.136,-128.642 268.235,-121.643"/>
</g>
<!-- Node13&#45;&gt;Node8 -->
<g id="edge15" class="edge"><title>Node13&#45;&gt;Node8</title>
<path fill="none" stroke="midnightblue" d="M591.542,-140.929C615.327,-146.543 643.182,-153.117 664.969,-158.26"/>
<polygon fill="midnightblue" stroke="midnightblue" points="592.164,-137.48 581.627,-138.589 590.556,-144.293 592.164,-137.48"/>
</g>
<!-- Node14 -->
<g id="node14" class="node"><title>Node14</title>
<g id="a_node14"><a xlink:href="classAnalyzer.xhtml#a8f73ee0aa71ae395a74b43dc76b35458" target="_top" xlink:title="Ermittelt Daten für einen Punkt am aktuell ausgewählten Zeitpunkt. ">
<polygon fill="none" stroke="black" points="644.5,-119.5 644.5,-138.5 761.5,-138.5 761.5,-119.5 644.5,-119.5"/>
<text text-anchor="middle" x="703" y="-126.5" font-family="Helvetica,sans-Serif" font-size="10.00">Analyzer::analyzePoint</text>
</a>
</g>
</g>
<!-- Node13&#45;&gt;Node14 -->
<g id="edge16" class="edge"><title>Node13&#45;&gt;Node14</title>
<path fill="none" stroke="midnightblue" d="M602.685,-129C616.389,-129 630.864,-129 644.397,-129"/>
<polygon fill="midnightblue" stroke="midnightblue" points="602.384,-125.5 592.384,-129 602.384,-132.5 602.384,-125.5"/>
</g>
<!-- Node16 -->
<g id="node16" class="node"><title>Node16</title>
<g id="a_node16"><a xlink:href="MeshProcessor_8cpp.xhtml#ad2670c4e8381f9a0a89c65f5559ed421" target="_top" xlink:title="interpolatePoint">
<polygon fill="none" stroke="black" points="661,-78.5 661,-97.5 745,-97.5 745,-78.5 661,-78.5"/>
<text text-anchor="middle" x="703" y="-85.5" font-family="Helvetica,sans-Serif" font-size="10.00">interpolatePoint</text>
</a>
</g>
</g>
<!-- Node13&#45;&gt;Node16 -->
<g id="edge18" class="edge"><title>Node13&#45;&gt;Node16</title>
<path fill="none" stroke="midnightblue" d="M588.099,-117.006C612.463,-110.801 641.789,-103.333 664.583,-97.5286"/>
<polygon fill="midnightblue" stroke="midnightblue" points="587.168,-113.631 578.341,-119.491 588.896,-120.415 587.168,-113.631"/>
</g>
<!-- Node15 -->
<g id="node15" class="node"><title>Node15</title>
<g id="a_node15"><a xlink:href="classGUIAnalyzePointWindow.xhtml#aa84ea9958e8b41423f01316d01ba5151" target="_top" xlink:title="Event&#45;Tabellendeklaration für wxWidgets. ">
<polygon fill="none" stroke="black" points="798,-115 798,-145 926,-145 926,-115 798,-115"/>
<text text-anchor="start" x="806" y="-133" font-family="Helvetica,sans-Serif" font-size="10.00">GUIAnalyzePointWindow</text>
<text text-anchor="middle" x="862" y="-122" font-family="Helvetica,sans-Serif" font-size="10.00">::analyzePoint</text>
</a>
</g>
</g>
<!-- Node14&#45;&gt;Node15 -->
<g id="edge17" class="edge"><title>Node14&#45;&gt;Node15</title>
<path fill="none" stroke="midnightblue" d="M771.674,-129.431C780.374,-129.486 789.255,-129.543 797.879,-129.598"/>
<polygon fill="midnightblue" stroke="midnightblue" points="771.592,-125.931 761.57,-129.367 771.547,-132.93 771.592,-125.931"/>
</g>
<!-- Node17 -->
<g id="node17" class="node"><title>Node17</title>
<g id="a_node17"><a xlink:href="classMeshProcessor.xhtml#a060c3815db33f8e52ac620ed2239ccc9" target="_top" xlink:title="Berechnet die Temperaturverteilung für ein Objekt. ">
<polygon fill="none" stroke="black" points="799.5,-76.5 799.5,-95.5 924.5,-95.5 924.5,-76.5 799.5,-76.5"/>
<text text-anchor="middle" x="862" y="-83.5" font-family="Helvetica,sans-Serif" font-size="10.00">MeshProcessor::process</text>
</a>
</g>
</g>
<!-- Node16&#45;&gt;Node17 -->
<g id="edge19" class="edge"><title>Node16&#45;&gt;Node17</title>
<path fill="none" stroke="midnightblue" d="M755.647,-87.3421C769.617,-87.1641 784.877,-86.9697 799.337,-86.7855"/>
<polygon fill="midnightblue" stroke="midnightblue" points="755.204,-83.8473 745.25,-87.4745 755.294,-90.8468 755.204,-83.8473"/>
</g>
<!-- Node17&#45;&gt;Node18 -->
<g id="edge20" class="edge"><title>Node17&#45;&gt;Node18</title>
<path fill="none" stroke="midnightblue" d="M913.392,-74.032C935.813,-68.7069 961.847,-62.5238 982.916,-57.5201"/>
<polygon fill="midnightblue" stroke="midnightblue" points="912.295,-70.6949 903.375,-76.411 913.913,-77.5055 912.295,-70.6949"/>
</g>
<!-- Node21 -->
<g id="node21" class="node"><title>Node21</title>
<g id="a_node21"><a xlink:href="classObjectData.xhtml#af3a850833d08eb9b45357449f455e24d" target="_top" xlink:title="Zerlegt das Objekt in Tetraeder (Schnittstelle zur Tetgen&#45;Bibliothek) und Berechnet die Temperaturver...">
<polygon fill="none" stroke="black" points="963,-76.5 963,-95.5 1085,-95.5 1085,-76.5 963,-76.5"/>
<text text-anchor="middle" x="1024" y="-83.5" font-family="Helvetica,sans-Serif" font-size="10.00">ObjectData::calculateIO</text>
</a>
</g>
</g>
<!-- Node17&#45;&gt;Node21 -->
<g id="edge23" class="edge"><title>Node17&#45;&gt;Node21</title>
<path fill="none" stroke="midnightblue" d="M934.918,-86C944.264,-86 953.758,-86 962.883,-86"/>
<polygon fill="midnightblue" stroke="midnightblue" points="934.86,-82.5001 924.86,-86 934.86,-89.5001 934.86,-82.5001"/>
</g>
<!-- Node19 -->
<g id="node19" class="node"><title>Node19</title>
<g id="a_node19"><a xlink:href="classGUIAnalyzeOutputWindow.xhtml#a9ea5a7cf46d6189f368315903508cecc" target="_top" xlink:title="Methode zum aktualisieren des Fensters, alle Objekte werden erneut analysiert und die aktualisierten ...">
<polygon fill="none" stroke="black" points="1130,-8 1130,-38 1264,-38 1264,-8 1130,-8"/>
<text text-anchor="start" x="1138" y="-26" font-family="Helvetica,sans-Serif" font-size="10.00">GUIAnalyzeOutputWindow</text>
<text text-anchor="middle" x="1197" y="-15" font-family="Helvetica,sans-Serif" font-size="10.00">::Update</text>
</a>
</g>
</g>
<!-- Node18&#45;&gt;Node19 -->
<g id="edge21" class="edge"><title>Node18&#45;&gt;Node19</title>
<path fill="none" stroke="midnightblue" d="M1095.97,-37.6242C1107.21,-35.9813 1118.79,-34.2878 1129.91,-32.662"/>
<polygon fill="midnightblue" stroke="midnightblue" points="1095.16,-34.2057 1085.77,-39.1155 1096.17,-41.132 1095.16,-34.2057"/>
</g>
<!-- Node20 -->
<g id="node20" class="node"><title>Node20</title>
<g id="a_node20"><a xlink:href="classGUITimeline.xhtml#a099f3654aa6e7ea04df861851a0e9ec8" target="_top" xlink:title="Sucht den Zeitpunkt zwischen zwei markierten Stellen auf der Sensordaten&#45;Zeitleiste, für den der Wäremeenergiegehalt maximal wird. ">
<polygon fill="none" stroke="black" points="1128.5,-57.5 1128.5,-76.5 1265.5,-76.5 1265.5,-57.5 1128.5,-57.5"/>
<text text-anchor="middle" x="1197" y="-64.5" font-family="Helvetica,sans-Serif" font-size="10.00">GUITimeline::findMaxValue</text>
</a>
</g>
</g>
<!-- Node18&#45;&gt;Node20 -->
<g id="edge22" class="edge"><title>Node18&#45;&gt;Node20</title>
<path fill="none" stroke="midnightblue" d="M1095.96,-55.884C1106.71,-57.0785 1117.77,-58.308 1128.45,-59.4941"/>
<polygon fill="midnightblue" stroke="midnightblue" points="1096.1,-52.378 1085.77,-54.7522 1095.32,-59.3352 1096.1,-52.378"/>
</g>
<!-- Node21&#45;&gt;Node20 -->
<g id="edge25" class="edge"><title>Node21&#45;&gt;Node20</title>
<path fill="none" stroke="midnightblue" d="M1095.23,-78.1965C1106.19,-76.979 1117.49,-75.7232 1128.39,-74.5124"/>
<polygon fill="midnightblue" stroke="midnightblue" points="1094.84,-74.7183 1085.29,-79.3013 1095.61,-81.6755 1094.84,-74.7183"/>
</g>
<!-- Node22 -->
<g id="node22" class="node"><title>Node22</title>
<g id="a_node22"><a xlink:href="classGUIMainWindow.xhtml#a0c2de30274c7f52ff74ec1217e47a9e5" target="_top" xlink:title="Berechnet die 3D&#45;Temperaturverteilung neu. ">
<polygon fill="none" stroke="black" points="1122,-96 1122,-126 1272,-126 1272,-96 1122,-96"/>
<text text-anchor="start" x="1130" y="-114" font-family="Helvetica,sans-Serif" font-size="10.00">GUIMainWindow::OnRecalcBt</text>
<text text-anchor="middle" x="1197" y="-103" font-family="Helvetica,sans-Serif" font-size="10.00">Click</text>
</a>
</g>
</g>
<!-- Node21&#45;&gt;Node22 -->
<g id="edge24" class="edge"><title>Node21&#45;&gt;Node22</title>
<path fill="none" stroke="midnightblue" d="M1095.41,-96.2942C1104.14,-97.5703 1113.09,-98.8781 1121.87,-100.162"/>
<polygon fill="midnightblue" stroke="midnightblue" points="1095.69,-92.7976 1085.29,-94.8141 1094.68,-99.7239 1095.69,-92.7976"/>
</g>
<!-- Node23&#45;&gt;Node2 -->
<g id="edge28" class="edge"><title>Node23&#45;&gt;Node2</title>
<path fill="none" stroke="midnightblue" d="M211.839,-290.864C232.839,-303.454 264.58,-321.276 294,-333 303.241,-336.683 313.445,-339.902 323.137,-342.593"/>
<polygon fill="midnightblue" stroke="midnightblue" points="213.628,-287.856 203.264,-285.655 209.994,-293.838 213.628,-287.856"/>
</g>
<!-- Node23&#45;&gt;Node4 -->
<g id="edge29" class="edge"><title>Node23&#45;&gt;Node4</title>
<path fill="none" stroke="midnightblue" d="M242.433,-287.753C267.319,-293.126 296.419,-299.409 319.907,-304.48"/>
<polygon fill="midnightblue" stroke="midnightblue" points="242.926,-284.278 232.412,-285.589 241.448,-291.121 242.926,-284.278"/>
</g>
<!-- Node23&#45;&gt;Node9 -->
<g id="edge30" class="edge"><title>Node23&#45;&gt;Node9</title>
<path fill="none" stroke="midnightblue" d="M248.07,-275.437C352.688,-274.021 575.037,-269.086 762,-252 775.397,-250.776 789.756,-249.01 803.266,-247.142"/>
<polygon fill="midnightblue" stroke="midnightblue" points="247.97,-271.938 238.016,-275.567 248.061,-278.937 247.97,-271.938"/>
</g>
<!-- Node23&#45;&gt;Node24 -->
<g id="edge31" class="edge"><title>Node23&#45;&gt;Node24</title>
<path fill="none" stroke="midnightblue" d="M219.648,-262.334C254.921,-247.102 311.044,-222.867 341.89,-209.547"/>
<polygon fill="midnightblue" stroke="midnightblue" points="218.084,-259.197 210.291,-266.375 220.859,-265.623 218.084,-259.197"/>
</g>
<!-- Node24&#45;&gt;Node13 -->
<g id="edge32" class="edge"><title>Node24&#45;&gt;Node13</title>
<path fill="none" stroke="midnightblue" d="M416.457,-187.624C423.098,-185.612 429.76,-183.394 436,-181 467.795,-168.804 502.783,-149.875 522.702,-138.533"/>
<polygon fill="midnightblue" stroke="midnightblue" points="415.428,-184.278 406.796,-190.421 417.374,-191.002 415.428,-184.278"/>
</g>
</g>
</svg>
        <g id="navigator" transform="translate(0 0)" fill="#404254">
                <rect fill="#f2f5e9" fill-opacity="0.5" stroke="#606060" stroke-width=".5" x="0" y="0" width="60" height="60"/>
                <use id="zoomplus" xlink:href="#zoomPlus" x="17" y="9" onmousedown="handleZoom(evt,'in')"/>
                <use id="zoomminus" xlink:href="#zoomMin" x="42" y="9" onmousedown="handleZoom(evt,'out')"/>
                <use id="reset" xlink:href="#resetDef" x="30" y="36" onmousedown="handleReset()"/>
                <g id="arrowUp" xlink:href="#dirArrow" transform="translate(30 24)" onmousedown="handlePan(0,-1)">
                  <use xlink:href="#rim" fill="#404040">
                        <set attributeName="fill" to="#808080" begin="arrowUp.mouseover" end="arrowUp.mouseout"/>
                  </use>
                  <path fill="none" stroke="white" stroke-width="1.5" d="M0,-3.0v7 M-2.5,-0.5L0,-3.0L2.5,-0.5"/>
                </g>
                <g id="arrowRight" xlink:href="#dirArrow" transform="rotate(90) translate(36 -43)" onmousedown="handlePan(1,0)">
                  <use xlink:href="#rim" fill="#404040">
                        <set attributeName="fill" to="#808080" begin="arrowRight.mouseover" end="arrowRight.mouseout"/>
                  </use>
                  <path fill="none" stroke="white" stroke-width="1.5" d="M0,-3.0v7 M-2.5,-0.5L0,-3.0L2.5,-0.5"/>
                </g>
                <g id="arrowDown" xlink:href="#dirArrow" transform="rotate(180) translate(-30 -48)" onmousedown="handlePan(0,1)">
                  <use xlink:href="#rim" fill="#404040">
                        <set attributeName="fill" to="#808080" begin="arrowDown.mouseover" end="arrowDown.mouseout"/>
                  </use>
                  <path fill="none" stroke="white" stroke-width="1.5" d="M0,-3.0v7 M-2.5,-0.5L0,-3.0L2.5,-0.5"/>
                </g>
                <g id="arrowLeft" xlink:href="#dirArrow" transform="rotate(270) translate(-36 17)" onmousedown="handlePan(-1,0)">
                  <use xlink:href="#rim" fill="#404040">
                        <set attributeName="fill" to="#808080" begin="arrowLeft.mouseover" end="arrowLeft.mouseout"/>
                  </use>
                  <path fill="none" stroke="white" stroke-width="1.5" d="M0,-3.0v7 M-2.5,-0.5L0,-3.0L2.5,-0.5"/>
                </g>
        </g>
        <svg viewBox="0 0 15 15" width="100%" height="30px" preserveAspectRatio="xMaxYMin meet">
         <g id="arrow_out" transform="scale(0.3 0.3)">
          <a xlink:href="classVector3D_a02364a41693ac080f5adadd776df74b4_icgraph_org.svg" target="_base">
           <rect id="button" ry="5" rx="5" y="6" x="6" height="38" width="38"
                fill="#f2f5e9" fill-opacity="0.5" stroke="#606060" stroke-width="1.0"/>
           <path id="arrow"
             d="M 11.500037,31.436501 C 11.940474,20.09759 22.043105,11.32322 32.158766,21.979434 L 37.068811,17.246167 C 37.068811,17.246167 37.088388,32 37.088388,32 L 22.160133,31.978069 C 22.160133,31.978069 26.997745,27.140456 26.997745,27.140456 C 18.528582,18.264221 13.291696,25.230495 11.500037,31.436501 z"
             style="fill:#404040;"/>
          </a>
         </g>
        </svg>
</svg>
