<?xml version="1.0" encoding="UTF-8" standalone="no"?>
<!DOCTYPE svg PUBLIC "-//W3C//DTD SVG 1.1//EN"
 "http://www.w3.org/Graphics/SVG/1.1/DTD/svg11.dtd">
<!-- Generated by graphviz version 2.26.3 (20100126.1600)
 -->
<!-- Title: tetgenmesh::initialdelaunay Pages: 1 -->
<svg width="1526pt" height="134pt"
 viewBox="0.00 0.00 1526.00 134.00" xmlns="http://www.w3.org/2000/svg" xmlns:xlink="http://www.w3.org/1999/xlink">
<g id="graph1" class="graph" transform="scale(1 1) rotate(0) translate(4 130)">
<title>tetgenmesh::initialdelaunay</title>
<!-- Node1 -->
<g id="node1" class="node"><title>Node1</title>
<polygon fill="#bfbfbf" stroke="black" points="0.5,-46.5 0.5,-67.5 135.5,-67.5 135.5,-46.5 0.5,-46.5"/>
<text text-anchor="middle" x="68" y="-54.5" font-family="Helvetica,sans-Serif" font-size="10.00">tetgenmesh::initialdelaunay</text>
</g>
<!-- Node2 -->
<g id="node3" class="node"><title>Node2</title>
<a xlink:href="classtetgenmesh.xhtml#a5a5a0513d0bea7aa457eb0bc5fad1b02" target="_top" xlink:title="tetgenmesh::incrementaldelaunay">
<polygon fill="none" stroke="black" points="350.5,-67.5 350.5,-88.5 513.5,-88.5 513.5,-67.5 350.5,-67.5"/>
<text text-anchor="middle" x="432" y="-75.5" font-family="Helvetica,sans-Serif" font-size="10.00">tetgenmesh::incrementaldelaunay</text>
</a>
</g>
<!-- Node1&#45;&gt;Node2 -->
<g id="edge2" class="edge"><title>Node1&#45;&gt;Node2</title>
<path fill="none" stroke="midnightblue" d="M145.828,-61.4901C206.066,-64.9653 289.258,-69.7649 350.422,-73.2936"/>
<polygon fill="midnightblue" stroke="midnightblue" points="145.798,-57.9826 135.613,-60.9007 145.394,-64.971 145.798,-57.9826"/>
</g>
<!-- Node10 -->
<g id="node19" class="node"><title>Node10</title>
<a xlink:href="classtetgenmesh.xhtml#ab1a82368937a13996efae911b8b1fded" target="_top" xlink:title="tetgenmesh::delaunizecavity">
<polygon fill="none" stroke="black" points="172.5,-27.5 172.5,-48.5 313.5,-48.5 313.5,-27.5 172.5,-27.5"/>
<text text-anchor="middle" x="243" y="-35.5" font-family="Helvetica,sans-Serif" font-size="10.00">tetgenmesh::delaunizecavity</text>
</a>
</g>
<!-- Node1&#45;&gt;Node10 -->
<g id="edge18" class="edge"><title>Node1&#45;&gt;Node10</title>
<path fill="none" stroke="midnightblue" d="M145.62,-48.5726C154.512,-47.6072 163.542,-46.6269 172.336,-45.6721"/>
<polygon fill="midnightblue" stroke="midnightblue" points="145.223,-45.0951 135.66,-49.6541 145.979,-52.0542 145.223,-45.0951"/>
</g>
<!-- Node3 -->
<g id="node5" class="node"><title>Node3</title>
<a xlink:href="tetgen_8h.xhtml#ad3637eb4ffe7fda90667e67b7771d964" target="_top" xlink:title="tetrahedralize">
<polygon fill="none" stroke="black" points="1098.5,-46.5 1098.5,-67.5 1173.5,-67.5 1173.5,-46.5 1098.5,-46.5"/>
<text text-anchor="middle" x="1136" y="-54.5" font-family="Helvetica,sans-Serif" font-size="10.00">tetrahedralize</text>
</a>
</g>
<!-- Node2&#45;&gt;Node3 -->
<g id="edge4" class="edge"><title>Node2&#45;&gt;Node3</title>
<path fill="none" stroke="midnightblue" d="M523.853,-75.2601C680.084,-70.5998 991.061,-61.3235 1098.48,-58.1193"/>
<polygon fill="midnightblue" stroke="midnightblue" points="523.681,-71.7635 513.79,-75.5602 523.89,-78.7604 523.681,-71.7635"/>
</g>
<!-- Node4 -->
<g id="node7" class="node"><title>Node4</title>
<a xlink:href="classGUICutRenderWindow.xhtml#a9eedb7088ad31f4680a77ed3a06fa60c" target="_top" xlink:title="Berechnet die 2D&#45;Temperaturverteilung als Grafik. ">
<polygon fill="none" stroke="black" points="1212.5,-89 1212.5,-123 1329.5,-123 1329.5,-89 1212.5,-89"/>
<text text-anchor="start" x="1220.5" y="-110" font-family="Helvetica,sans-Serif" font-size="10.00">GUICutRenderWindow</text>
<text text-anchor="middle" x="1271" y="-97" font-family="Helvetica,sans-Serif" font-size="10.00">::renderImage</text>
</a>
</g>
<!-- Node3&#45;&gt;Node4 -->
<g id="edge6" class="edge"><title>Node3&#45;&gt;Node4</title>
<path fill="none" stroke="midnightblue" d="M1174.67,-71.0375C1190.06,-76.6228 1207.91,-83.1014 1224.03,-88.953"/>
<polygon fill="midnightblue" stroke="midnightblue" points="1175.56,-67.6336 1164.96,-67.5117 1173.17,-74.2136 1175.56,-67.6336"/>
</g>
<!-- Node6 -->
<g id="node11" class="node"><title>Node6</title>
<a xlink:href="classObjectData.xhtml#af3a850833d08eb9b45357449f455e24d" target="_top" xlink:title="Zerlegt das Objekt in Tetraeder (Schnittstelle zur Tetgen&#45;Bibliothek) und Berechnet die Temperaturver...">
<polygon fill="none" stroke="black" points="1210,-46.5 1210,-67.5 1332,-67.5 1332,-46.5 1210,-46.5"/>
<text text-anchor="middle" x="1271" y="-54.5" font-family="Helvetica,sans-Serif" font-size="10.00">ObjectData::calculateIO</text>
</a>
</g>
<!-- Node3&#45;&gt;Node6 -->
<g id="edge10" class="edge"><title>Node3&#45;&gt;Node6</title>
<path fill="none" stroke="midnightblue" d="M1183.65,-57C1192.11,-57 1201.02,-57 1209.8,-57"/>
<polygon fill="midnightblue" stroke="midnightblue" points="1183.61,-53.5001 1173.61,-57 1183.6,-60.5001 1183.61,-53.5001"/>
</g>
<!-- Node9 -->
<g id="node17" class="node"><title>Node9</title>
<a xlink:href="tetgen_8cxx.xhtml#a0ddf1224851353fc92bfbff6f499fa97" target="_top" xlink:title="main">
<polygon fill="none" stroke="black" points="1252,-6.5 1252,-27.5 1290,-27.5 1290,-6.5 1252,-6.5"/>
<text text-anchor="middle" x="1271" y="-14.5" font-family="Helvetica,sans-Serif" font-size="10.00">main</text>
</a>
</g>
<!-- Node3&#45;&gt;Node9 -->
<g id="edge16" class="edge"><title>Node3&#45;&gt;Node9</title>
<path fill="none" stroke="midnightblue" d="M1181.15,-43.6209C1205.27,-36.4764 1233.67,-28.0613 1251.98,-22.6343"/>
<polygon fill="midnightblue" stroke="midnightblue" points="1180.06,-40.2937 1171.47,-46.4905 1182.05,-47.0053 1180.06,-40.2937"/>
</g>
<!-- Node5 -->
<g id="node9" class="node"><title>Node5</title>
<a xlink:href="classGUICutRenderWindow.xhtml#a7cd1bfbec53756a1cbbe1616b4d46c7a" target="_top" xlink:title="Behandelt das Drücken des Buttons zur Berechnung der zweidimensionalen Temperaturverteilung. ">
<polygon fill="none" stroke="black" points="1384.5,-92 1384.5,-126 1501.5,-126 1501.5,-92 1384.5,-92"/>
<text text-anchor="start" x="1392.5" y="-113" font-family="Helvetica,sans-Serif" font-size="10.00">GUICutRenderWindow</text>
<text text-anchor="middle" x="1443" y="-100" font-family="Helvetica,sans-Serif" font-size="10.00">::renderCutBtClick</text>
</a>
</g>
<!-- Node4&#45;&gt;Node5 -->
<g id="edge8" class="edge"><title>Node4&#45;&gt;Node5</title>
<path fill="none" stroke="midnightblue" d="M1339.78,-107.2C1354.51,-107.457 1369.95,-107.726 1384.26,-107.975"/>
<polygon fill="midnightblue" stroke="midnightblue" points="1339.77,-103.699 1329.71,-107.024 1339.65,-110.698 1339.77,-103.699"/>
</g>
<!-- Node7 -->
<g id="node13" class="node"><title>Node7</title>
<a xlink:href="classGUIMainWindow.xhtml#a0c2de30274c7f52ff74ec1217e47a9e5" target="_top" xlink:title="Berechnet die 3D&#45;Temperaturverteilung neu. ">
<polygon fill="none" stroke="black" points="1368,-40 1368,-74 1518,-74 1518,-40 1368,-40"/>
<text text-anchor="start" x="1376" y="-61" font-family="Helvetica,sans-Serif" font-size="10.00">GUIMainWindow::OnRecalcBt</text>
<text text-anchor="middle" x="1443" y="-48" font-family="Helvetica,sans-Serif" font-size="10.00">Click</text>
</a>
</g>
<!-- Node6&#45;&gt;Node7 -->
<g id="edge12" class="edge"><title>Node6&#45;&gt;Node7</title>
<path fill="none" stroke="midnightblue" d="M1342.32,-57C1350.77,-57 1359.42,-57 1367.92,-57"/>
<polygon fill="midnightblue" stroke="midnightblue" points="1342.13,-53.5001 1332.13,-57 1342.13,-60.5001 1342.13,-53.5001"/>
</g>
<!-- Node8 -->
<g id="node15" class="node"><title>Node8</title>
<a xlink:href="classGUITimeline.xhtml#a099f3654aa6e7ea04df861851a0e9ec8" target="_top" xlink:title="Sucht den Zeitpunkt zwischen zwei markierten Stellen auf der Sensordaten&#45;Zeitleiste, für den der Wäremeenergiegehalt maximal wird. ">
<polygon fill="none" stroke="black" points="1374.5,-0.5 1374.5,-21.5 1511.5,-21.5 1511.5,-0.5 1374.5,-0.5"/>
<text text-anchor="middle" x="1443" y="-8.5" font-family="Helvetica,sans-Serif" font-size="10.00">GUITimeline::findMaxValue</text>
</a>
</g>
<!-- Node6&#45;&gt;Node8 -->
<g id="edge14" class="edge"><title>Node6&#45;&gt;Node8</title>
<path fill="none" stroke="midnightblue" d="M1320,-43.8537C1335.36,-39.7343 1352.39,-35.1741 1368,-31 1379.46,-27.9371 1391.9,-24.6167 1403.3,-21.5777"/>
<polygon fill="midnightblue" stroke="midnightblue" points="1318.92,-40.5181 1310.17,-46.4885 1320.74,-47.2793 1318.92,-40.5181"/>
</g>
<!-- Node11 -->
<g id="node21" class="node"><title>Node11</title>
<a xlink:href="classtetgenmesh.xhtml#a9c967ef25cfd6e06d6b9301302be3f70" target="_top" xlink:title="tetgenmesh::insertpoint_cdt">
<polygon fill="none" stroke="black" points="363.5,-27.5 363.5,-48.5 500.5,-48.5 500.5,-27.5 363.5,-27.5"/>
<text text-anchor="middle" x="432" y="-35.5" font-family="Helvetica,sans-Serif" font-size="10.00">tetgenmesh::insertpoint_cdt</text>
</a>
</g>
<!-- Node10&#45;&gt;Node11 -->
<g id="edge20" class="edge"><title>Node10&#45;&gt;Node11</title>
<path fill="none" stroke="midnightblue" d="M323.656,-38C336.863,-38 350.44,-38 363.322,-38"/>
<polygon fill="midnightblue" stroke="midnightblue" points="323.645,-34.5001 313.645,-38 323.645,-41.5001 323.645,-34.5001"/>
</g>
<!-- Node13 -->
<g id="node25" class="node"><title>Node13</title>
<a xlink:href="classtetgenmesh.xhtml#a7579c3a44a54712623d9f9e5fc1dfbdc" target="_top" xlink:title="tetgenmesh::constrainedfacets">
<polygon fill="none" stroke="black" points="710.5,-27.5 710.5,-48.5 861.5,-48.5 861.5,-27.5 710.5,-27.5"/>
<text text-anchor="middle" x="786" y="-35.5" font-family="Helvetica,sans-Serif" font-size="10.00">tetgenmesh::constrainedfacets</text>
</a>
</g>
<!-- Node10&#45;&gt;Node13 -->
<g id="edge30" class="edge"><title>Node10&#45;&gt;Node13</title>
<path fill="none" stroke="midnightblue" d="M299.03,-25.5112C315.375,-22.4165 333.326,-19.5449 350,-18 493.386,-4.7145 530.562,-5.29351 674,-18 695.052,-19.8649 718.072,-23.6648 737.737,-27.4564"/>
<polygon fill="midnightblue" stroke="midnightblue" points="298.227,-22.1018 289.085,-27.4571 299.571,-28.9715 298.227,-22.1018"/>
</g>
<!-- Node12 -->
<g id="node23" class="node"><title>Node12</title>
<a xlink:href="classtetgenmesh.xhtml#aa34a5188a4cee82197394560c388c348" target="_top" xlink:title="tetgenmesh::refineregion">
<polygon fill="none" stroke="black" points="550,-27.5 550,-48.5 674,-48.5 674,-27.5 550,-27.5"/>
<text text-anchor="middle" x="612" y="-35.5" font-family="Helvetica,sans-Serif" font-size="10.00">tetgenmesh::refineregion</text>
</a>
</g>
<!-- Node11&#45;&gt;Node12 -->
<g id="edge22" class="edge"><title>Node11&#45;&gt;Node12</title>
<path fill="none" stroke="midnightblue" d="M510.922,-38C523.948,-38 537.288,-38 549.829,-38"/>
<polygon fill="midnightblue" stroke="midnightblue" points="510.564,-34.5001 500.564,-38 510.564,-41.5001 510.564,-34.5001"/>
</g>
<!-- Node12&#45;&gt;Node13 -->
<g id="edge24" class="edge"><title>Node12&#45;&gt;Node13</title>
<path fill="none" stroke="midnightblue" d="M684.333,-38C692.952,-38 701.769,-38 710.432,-38"/>
<polygon fill="midnightblue" stroke="midnightblue" points="684.327,-34.5001 674.327,-38 684.326,-41.5001 684.327,-34.5001"/>
</g>
<!-- Node14 -->
<g id="node27" class="node"><title>Node14</title>
<a xlink:href="classtetgenmesh.xhtml#aab64d62b3d2b048a38158fb2bf678624" target="_top" xlink:title="tetgenmesh::constraineddelaunay">
<polygon fill="none" stroke="black" points="898.5,-27.5 898.5,-48.5 1061.5,-48.5 1061.5,-27.5 898.5,-27.5"/>
<text text-anchor="middle" x="980" y="-35.5" font-family="Helvetica,sans-Serif" font-size="10.00">tetgenmesh::constraineddelaunay</text>
</a>
</g>
<!-- Node13&#45;&gt;Node14 -->
<g id="edge26" class="edge"><title>Node13&#45;&gt;Node14</title>
<path fill="none" stroke="midnightblue" d="M871.797,-38C880.58,-38 889.487,-38 898.225,-38"/>
<polygon fill="midnightblue" stroke="midnightblue" points="871.561,-34.5001 861.561,-38 871.561,-41.5001 871.561,-34.5001"/>
</g>
<!-- Node14&#45;&gt;Node3 -->
<g id="edge28" class="edge"><title>Node14&#45;&gt;Node3</title>
<path fill="none" stroke="midnightblue" d="M1071.82,-49.1835C1081.12,-50.3158 1090.14,-51.4151 1098.35,-52.4143"/>
<polygon fill="midnightblue" stroke="midnightblue" points="1072,-45.6799 1061.66,-47.9452 1071.16,-52.6286 1072,-45.6799"/>
</g>
</g>
</svg>
