<?xml version="1.0" encoding="UTF-8" standalone="no"?>
<!DOCTYPE svg PUBLIC "-//W3C//DTD SVG 1.1//EN"
 "http://www.w3.org/Graphics/SVG/1.1/DTD/svg11.dtd">
<!-- Generated by graphviz version 2.36.0 (20140111.2315)
 -->
<!-- Title: SimpleAnalyzerApp Pages: 1 -->
<svg width="381pt" height="312pt"
 viewBox="0.00 0.00 381.00 312.00" xmlns="http://www.w3.org/2000/svg" xmlns:xlink="http://www.w3.org/1999/xlink">
<g id="graph0" class="graph" transform="scale(1 1) rotate(0) translate(4 308)">
<title>SimpleAnalyzerApp</title>
<!-- Node1 -->
<g id="node1" class="node"><title>Node1</title>
<polygon fill="#bfbfbf" stroke="black" points="73,-0.5 73,-19.5 175,-19.5 175,-0.5 73,-0.5"/>
<text text-anchor="middle" x="124" y="-7.5" font-family="Helvetica,sans-Serif" font-size="10.00">SimpleAnalyzerApp</text>
</g>
<!-- Node2 -->
<g id="node2" class="node"><title>Node2</title>
<polygon fill="none" stroke="#bfbfbf" points="-0.5,-68.5 -0.5,-87.5 46.5,-87.5 46.5,-68.5 -0.5,-68.5"/>
<text text-anchor="middle" x="23" y="-75.5" font-family="Helvetica,sans-Serif" font-size="10.00">wxApp</text>
</g>
<!-- Node2&#45;&gt;Node1 -->
<g id="edge1" class="edge"><title>Node2&#45;&gt;Node1</title>
<path fill="none" stroke="midnightblue" d="M44.713,-62.8113C64.7982,-49.6863 94.0054,-30.6004 110.793,-19.6305"/>
<polygon fill="midnightblue" stroke="midnightblue" points="42.6606,-59.9714 36.204,-68.3717 46.4898,-65.8313 42.6606,-59.9714"/>
</g>
<!-- Node3 -->
<g id="node3" class="node"><title>Node3</title>
<g id="a_node3"><a xlink:href="structUtils_1_1Visualization__info.xhtml" target="_top" xlink:title="Informationen über die Farbgebung bei der Visualisierung. ">
<polygon fill="none" stroke="black" points="64.5,-68.5 64.5,-87.5 183.5,-87.5 183.5,-68.5 64.5,-68.5"/>
<text text-anchor="middle" x="124" y="-75.5" font-family="Helvetica,sans-Serif" font-size="10.00">Utils::Visualization_info</text>
</a>
</g>
</g>
<!-- Node3&#45;&gt;Node1 -->
<g id="edge2" class="edge"><title>Node3&#45;&gt;Node1</title>
<path fill="none" stroke="#9a32cd" stroke-dasharray="5,2" d="M124,-58.0413C124,-45.4724 124,-29.5631 124,-19.8411"/>
<polygon fill="#9a32cd" stroke="#9a32cd" points="120.5,-58.3716 124,-68.3717 127.5,-58.3717 120.5,-58.3716"/>
<text text-anchor="middle" x="163.5" y="-41.5" font-family="Helvetica,sans-Serif" font-size="10.00"> visualization_info</text>
</g>
<!-- Node4 -->
<g id="node4" class="node"><title>Node4</title>
<g id="a_node4"><a xlink:href="classstd_1_1vector.xhtml" target="_top" xlink:title="std::vector\&lt; ObjectData * \&gt;">
<polygon fill="none" stroke="black" points="201.5,-68.5 201.5,-87.5 338.5,-87.5 338.5,-68.5 201.5,-68.5"/>
<text text-anchor="middle" x="270" y="-75.5" font-family="Helvetica,sans-Serif" font-size="10.00">std::vector&lt; ObjectData * &gt;</text>
</a>
</g>
</g>
<!-- Node4&#45;&gt;Node1 -->
<g id="edge3" class="edge"><title>Node4&#45;&gt;Node1</title>
<path fill="none" stroke="#9a32cd" stroke-dasharray="5,2" d="M249.561,-62.6033C237.563,-54.6037 221.878,-44.9028 207,-38 190.78,-30.4746 171.879,-24.1502 156.214,-19.5184"/>
<polygon fill="#9a32cd" stroke="#9a32cd" points="247.708,-65.576 257.943,-68.3146 251.65,-59.7912 247.708,-65.576"/>
<text text-anchor="middle" x="257.5" y="-41.5" font-family="Helvetica,sans-Serif" font-size="10.00"> data_objects</text>
</g>
<!-- Node5 -->
<g id="node5" class="node"><title>Node5</title>
<g id="a_node5"><a xlink:href="classObjectData.xhtml" target="_top" xlink:title="Die Daten eines Versuchsobjekts. ">
<polygon fill="none" stroke="black" points="237,-136.5 237,-155.5 303,-155.5 303,-136.5 237,-136.5"/>
<text text-anchor="middle" x="270" y="-143.5" font-family="Helvetica,sans-Serif" font-size="10.00">ObjectData</text>
</a>
</g>
</g>
<!-- Node5&#45;&gt;Node4 -->
<g id="edge4" class="edge"><title>Node5&#45;&gt;Node4</title>
<path fill="none" stroke="#9a32cd" stroke-dasharray="5,2" d="M270,-126.041C270,-113.472 270,-97.5631 270,-87.8411"/>
<polygon fill="#9a32cd" stroke="#9a32cd" points="266.5,-126.372 270,-136.372 273.5,-126.372 266.5,-126.372"/>
<text text-anchor="middle" x="289" y="-109.5" font-family="Helvetica,sans-Serif" font-size="10.00"> element</text>
</g>
<!-- Node6 -->
<g id="node6" class="node"><title>Node6</title>
<g id="a_node6"><a xlink:href="classstd_1_1vector.xhtml" target="_top" xlink:title="std::vector\&lt; ObjectData\l::MaterialData \&gt;">
<polygon fill="none" stroke="black" points="100,-205 100,-235 222,-235 222,-205 100,-205"/>
<text text-anchor="start" x="108" y="-223" font-family="Helvetica,sans-Serif" font-size="10.00">std::vector&lt; ObjectData</text>
<text text-anchor="middle" x="161" y="-212" font-family="Helvetica,sans-Serif" font-size="10.00">::MaterialData &gt;</text>
</a>
</g>
</g>
<!-- Node6&#45;&gt;Node5 -->
<g id="edge5" class="edge"><title>Node6&#45;&gt;Node5</title>
<path fill="none" stroke="#9a32cd" stroke-dasharray="5,2" d="M190.806,-199.312C212.474,-184.999 240.745,-166.325 256.985,-155.597"/>
<polygon fill="#9a32cd" stroke="#9a32cd" points="188.69,-196.515 182.275,-204.947 192.548,-202.355 188.69,-196.515"/>
<text text-anchor="middle" x="249.5" y="-177.5" font-family="Helvetica,sans-Serif" font-size="10.00"> materials</text>
</g>
<!-- Node7 -->
<g id="node7" class="node"><title>Node7</title>
<g id="a_node7"><a xlink:href="structObjectData_1_1MaterialData.xhtml" target="_top" xlink:title="Die Daten eines Materials. ">
<polygon fill="none" stroke="black" points="97,-284.5 97,-303.5 225,-303.5 225,-284.5 97,-284.5"/>
<text text-anchor="middle" x="161" y="-291.5" font-family="Helvetica,sans-Serif" font-size="10.00">ObjectData::MaterialData</text>
</a>
</g>
</g>
<!-- Node7&#45;&gt;Node6 -->
<g id="edge6" class="edge"><title>Node7&#45;&gt;Node6</title>
<path fill="none" stroke="#9a32cd" stroke-dasharray="5,2" d="M161,-274.085C161,-261.915 161,-246.354 161,-235.232"/>
<polygon fill="#9a32cd" stroke="#9a32cd" points="157.5,-274.458 161,-284.458 164.5,-274.458 157.5,-274.458"/>
<text text-anchor="middle" x="180" y="-257.5" font-family="Helvetica,sans-Serif" font-size="10.00"> element</text>
</g>
<!-- Node8 -->
<g id="node8" class="node"><title>Node8</title>
<g id="a_node8"><a xlink:href="classstd_1_1vector.xhtml" target="_top" xlink:title="std::vector\&lt; SensorData \&gt;">
<polygon fill="none" stroke="black" points="240.5,-210.5 240.5,-229.5 373.5,-229.5 373.5,-210.5 240.5,-210.5"/>
<text text-anchor="middle" x="307" y="-217.5" font-family="Helvetica,sans-Serif" font-size="10.00">std::vector&lt; SensorData &gt;</text>
</a>
</g>
</g>
<!-- Node8&#45;&gt;Node5 -->
<g id="edge7" class="edge"><title>Node8&#45;&gt;Node5</title>
<path fill="none" stroke="#9a32cd" stroke-dasharray="5,2" d="M297.971,-201.43C290.485,-186.863 280.167,-166.784 274.384,-155.531"/>
<polygon fill="#9a32cd" stroke="#9a32cd" points="294.927,-203.163 302.61,-210.458 301.153,-199.964 294.927,-203.163"/>
<text text-anchor="middle" x="324" y="-177.5" font-family="Helvetica,sans-Serif" font-size="10.00"> sensorDataList</text>
</g>
</g>
</svg>
