<?xml version="1.0" encoding="UTF-8" standalone="no"?>
<!DOCTYPE svg PUBLIC "-//W3C//DTD SVG 1.1//EN"
 "http://www.w3.org/Graphics/SVG/1.1/DTD/svg11.dtd">
<!-- Generated by graphviz version 2.26.3 (20100126.1600)
 -->
<!-- Title: Triangle::getV1 Pages: 1 -->
<svg width="1274pt" height="356pt"
 viewBox="0.00 0.00 1274.00 356.00" xmlns="http://www.w3.org/2000/svg" xmlns:xlink="http://www.w3.org/1999/xlink">
<g id="graph1" class="graph" transform="scale(1 1) rotate(0) translate(4 352)">
<title>Triangle::getV1</title>
<!-- Node1 -->
<g id="node1" class="node"><title>Node1</title>
<polygon fill="#bfbfbf" stroke="black" points="0.5,-196.5 0.5,-217.5 83.5,-217.5 83.5,-196.5 0.5,-196.5"/>
<text text-anchor="middle" x="42" y="-204.5" font-family="Helvetica,sans-Serif" font-size="10.00">Triangle::getV1</text>
</g>
<!-- Node2 -->
<g id="node3" class="node"><title>Node2</title>
<a xlink:href="classExporter.xhtml#ae2aa06b8c8c77e172801a1f77800ffd0" target="_top" xlink:title="Exportiert die zweidimensionale Temperaturverteilung (Schnitt durch das Modell) als csv&#45;Datei...">
<polygon fill="none" stroke="black" points="124.5,-317.5 124.5,-338.5 249.5,-338.5 249.5,-317.5 124.5,-317.5"/>
<text text-anchor="middle" x="187" y="-325.5" font-family="Helvetica,sans-Serif" font-size="10.00">Exporter::ExportCutCSV</text>
</a>
</g>
<!-- Node1&#45;&gt;Node2 -->
<g id="edge2" class="edge"><title>Node1&#45;&gt;Node2</title>
<path fill="none" stroke="midnightblue" d="M54.0033,-226.176C67.7561,-246.808 92.0343,-279.422 120,-300 129.849,-307.248 141.854,-313.023 152.967,-317.401"/>
<polygon fill="midnightblue" stroke="midnightblue" points="56.832,-224.105 48.4497,-217.625 50.9616,-227.918 56.832,-224.105"/>
</g>
<!-- Node4 -->
<g id="node7" class="node"><title>Node4</title>
<a xlink:href="classGUICutRenderWindow.xhtml#a9eedb7088ad31f4680a77ed3a06fa60c" target="_top" xlink:title="Berechnet die 2D&#45;Temperaturverteilung als Grafik. ">
<polygon fill="none" stroke="black" points="621.5,-196 621.5,-230 738.5,-230 738.5,-196 621.5,-196"/>
<text text-anchor="start" x="629.5" y="-217" font-family="Helvetica,sans-Serif" font-size="10.00">GUICutRenderWindow</text>
<text text-anchor="middle" x="680" y="-204" font-family="Helvetica,sans-Serif" font-size="10.00">::renderImage</text>
</a>
</g>
<!-- Node1&#45;&gt;Node4 -->
<g id="edge6" class="edge"><title>Node1&#45;&gt;Node4</title>
<path fill="none" stroke="midnightblue" d="M58.5108,-225.043C73.0724,-239.519 95.7077,-258.738 120,-267 302.399,-329.038 536.18,-263.416 633.876,-230.029"/>
<polygon fill="midnightblue" stroke="midnightblue" points="60.7632,-222.338 51.2924,-217.589 55.7344,-227.207 60.7632,-222.338"/>
</g>
<!-- Node6 -->
<g id="node11" class="node"><title>Node6</title>
<a xlink:href="Renderer_8cpp.xhtml#a17ef754a4f478e115d6e7fb813702639" target="_top" xlink:title="pointBehindCut">
<polygon fill="none" stroke="black" points="145.5,-236.5 145.5,-257.5 228.5,-257.5 228.5,-236.5 145.5,-236.5"/>
<text text-anchor="middle" x="187" y="-244.5" font-family="Helvetica,sans-Serif" font-size="10.00">pointBehindCut</text>
</a>
</g>
<!-- Node1&#45;&gt;Node6 -->
<g id="edge10" class="edge"><title>Node1&#45;&gt;Node6</title>
<path fill="none" stroke="midnightblue" d="M89.8556,-220.202C109.036,-225.493 130.829,-231.504 148.906,-236.491"/>
<polygon fill="midnightblue" stroke="midnightblue" points="90.6677,-216.795 80.097,-217.51 88.8062,-223.543 90.6677,-216.795"/>
</g>
<!-- Node8 -->
<g id="node15" class="node"><title>Node8</title>
<a xlink:href="classRenderer.xhtml#af7e5f8f68742f198e315fb4683a605a4" target="_top" xlink:title="Zeichnet das Objekt (Attribut object). ">
<polygon fill="none" stroke="black" points="142.5,-196.5 142.5,-217.5 231.5,-217.5 231.5,-196.5 142.5,-196.5"/>
<text text-anchor="middle" x="187" y="-204.5" font-family="Helvetica,sans-Serif" font-size="10.00">Renderer::render</text>
</a>
</g>
<!-- Node1&#45;&gt;Node8 -->
<g id="edge14" class="edge"><title>Node1&#45;&gt;Node8</title>
<path fill="none" stroke="midnightblue" d="M93.7573,-207C109.662,-207 127.02,-207 142.402,-207"/>
<polygon fill="midnightblue" stroke="midnightblue" points="93.5512,-203.5 83.5512,-207 93.5511,-210.5 93.5512,-203.5"/>
</g>
<!-- Node10 -->
<g id="node19" class="node"><title>Node10</title>
<a xlink:href="classInterpolator.xhtml#ad59ac6ed3822e08a67ac7d1ee88a5bd2" target="_top" xlink:title="Ermittelt den Wert für einen beliebigen Punkt in einer Ebene. ">
<polygon fill="none" stroke="black" points="123,-156.5 123,-177.5 251,-177.5 251,-156.5 123,-156.5"/>
<text text-anchor="middle" x="187" y="-164.5" font-family="Helvetica,sans-Serif" font-size="10.00">Interpolator::interpolateTri</text>
</a>
</g>
<!-- Node1&#45;&gt;Node10 -->
<g id="edge18" class="edge"><title>Node1&#45;&gt;Node10</title>
<path fill="none" stroke="midnightblue" d="M89.8556,-193.798C109.036,-188.507 130.829,-182.496 148.906,-177.509"/>
<polygon fill="midnightblue" stroke="midnightblue" points="88.8062,-190.457 80.097,-196.49 90.6677,-197.205 88.8062,-190.457"/>
</g>
<!-- Node11 -->
<g id="node21" class="node"><title>Node11</title>
<a xlink:href="classInterpolator.xhtml#a30e714ca6dff9b5745d029f95af1420a" target="_top" xlink:title="Ermittelt den Wert für einen beliebigen Punkt im Raum. ">
<polygon fill="none" stroke="black" points="121.5,-76.5 121.5,-97.5 252.5,-97.5 252.5,-76.5 121.5,-76.5"/>
<text text-anchor="middle" x="187" y="-84.5" font-family="Helvetica,sans-Serif" font-size="10.00">Interpolator::interpolateTet</text>
</a>
</g>
<!-- Node1&#45;&gt;Node11 -->
<g id="edge20" class="edge"><title>Node1&#45;&gt;Node11</title>
<path fill="none" stroke="midnightblue" d="M52.258,-187.47C65.1246,-164.842 89.2744,-127.986 120,-107 125.614,-103.166 131.977,-100.052 138.494,-97.5272"/>
<polygon fill="midnightblue" stroke="midnightblue" points="49.0532,-186.035 47.3025,-196.484 55.1873,-189.407 49.0532,-186.035"/>
</g>
<!-- Node24 -->
<g id="node48" class="node"><title>Node24</title>
<a xlink:href="namespaceUtils.xhtml#a5f216cc7011a901130db81321b565334" target="_top" xlink:title="Testet, ob ein Strahl ein Dreieck schneidet. ">
<polygon fill="none" stroke="black" points="120,-116.5 120,-137.5 254,-137.5 254,-116.5 120,-116.5"/>
<text text-anchor="middle" x="187" y="-124.5" font-family="Helvetica,sans-Serif" font-size="10.00">Utils::rayIntersectsTriangle</text>
</a>
</g>
<!-- Node1&#45;&gt;Node24 -->
<g id="edge48" class="edge"><title>Node1&#45;&gt;Node24</title>
<path fill="none" stroke="midnightblue" d="M60.7986,-189.339C75.8133,-176.064 97.927,-158.293 120,-147 127.241,-143.296 135.281,-140.16 143.205,-137.55"/>
<polygon fill="midnightblue" stroke="midnightblue" points="58.3016,-186.879 53.2329,-196.182 62.9971,-192.07 58.3016,-186.879"/>
</g>
<!-- Node3 -->
<g id="node5" class="node"><title>Node3</title>
<a xlink:href="classGUICutRenderWindow.xhtml#a3aee786d94c840ab4e6df6e3c2817802" target="_top" xlink:title="Fragt den Benutzer nach dem Pfad und Exporiert die 2D&#45;Temperaturverteilung als .csv&#45;Datei. ">
<polygon fill="none" stroke="black" points="299.5,-314 299.5,-348 416.5,-348 416.5,-314 299.5,-314"/>
<text text-anchor="start" x="307.5" y="-335" font-family="Helvetica,sans-Serif" font-size="10.00">GUICutRenderWindow</text>
<text text-anchor="middle" x="358" y="-322" font-family="Helvetica,sans-Serif" font-size="10.00">::OnExportCSV</text>
</a>
</g>
<!-- Node2&#45;&gt;Node3 -->
<g id="edge4" class="edge"><title>Node2&#45;&gt;Node3</title>
<path fill="none" stroke="midnightblue" d="M259.702,-329.275C272.912,-329.507 286.539,-329.746 299.282,-329.97"/>
<polygon fill="midnightblue" stroke="midnightblue" points="259.763,-325.776 249.703,-329.1 259.64,-332.775 259.763,-325.776"/>
</g>
<!-- Node5 -->
<g id="node9" class="node"><title>Node5</title>
<a xlink:href="classGUICutRenderWindow.xhtml#a7cd1bfbec53756a1cbbe1616b4d46c7a" target="_top" xlink:title="Behandelt das Drücken des Buttons zur Berechnung der zweidimensionalen Temperaturverteilung. ">
<polygon fill="none" stroke="black" points="783.5,-196 783.5,-230 900.5,-230 900.5,-196 783.5,-196"/>
<text text-anchor="start" x="791.5" y="-217" font-family="Helvetica,sans-Serif" font-size="10.00">GUICutRenderWindow</text>
<text text-anchor="middle" x="842" y="-204" font-family="Helvetica,sans-Serif" font-size="10.00">::renderCutBtClick</text>
</a>
</g>
<!-- Node4&#45;&gt;Node5 -->
<g id="edge8" class="edge"><title>Node4&#45;&gt;Node5</title>
<path fill="none" stroke="midnightblue" d="M749.263,-213C760.624,-213 772.3,-213 783.371,-213"/>
<polygon fill="midnightblue" stroke="midnightblue" points="748.944,-209.5 738.944,-213 748.944,-216.5 748.944,-209.5"/>
</g>
<!-- Node7 -->
<g id="node13" class="node"><title>Node7</title>
<a xlink:href="classRenderer.xhtml#a927f376a6283de3181b86f65b927386c" target="_top" xlink:title="Zeichnet die Tetraeder eines Materials des Objekts. ">
<polygon fill="none" stroke="black" points="290,-236.5 290,-257.5 426,-257.5 426,-236.5 290,-236.5"/>
<text text-anchor="middle" x="358" y="-244.5" font-family="Helvetica,sans-Serif" font-size="10.00">Renderer::renderTetrahedra</text>
</a>
</g>
<!-- Node6&#45;&gt;Node7 -->
<g id="edge12" class="edge"><title>Node6&#45;&gt;Node7</title>
<path fill="none" stroke="midnightblue" d="M239.072,-247C255.11,-247 273.009,-247 289.954,-247"/>
<polygon fill="midnightblue" stroke="midnightblue" points="238.831,-243.5 228.831,-247 238.831,-250.5 238.831,-243.5"/>
</g>
<!-- Node9 -->
<g id="node17" class="node"><title>Node9</title>
<a xlink:href="classGUIGLCanvas.xhtml#a83f52d08591920a339150c2f45069c8f" target="_top" xlink:title="Event&#45;Tabellendeklaration für wxWidgets. ">
<polygon fill="none" stroke="black" points="297,-196.5 297,-217.5 419,-217.5 419,-196.5 297,-196.5"/>
<text text-anchor="middle" x="358" y="-204.5" font-family="Helvetica,sans-Serif" font-size="10.00">GUIGLCanvas::OnPaint</text>
</a>
</g>
<!-- Node8&#45;&gt;Node9 -->
<g id="edge16" class="edge"><title>Node8&#45;&gt;Node9</title>
<path fill="none" stroke="midnightblue" d="M241.999,-207C259.535,-207 279.041,-207 296.978,-207"/>
<polygon fill="midnightblue" stroke="midnightblue" points="241.928,-203.5 231.928,-207 241.928,-210.5 241.928,-203.5"/>
</g>
<!-- Node12 -->
<g id="node23" class="node"><title>Node12</title>
<a xlink:href="namespaceUtils.xhtml#a6a0ae18a42e2d206bc1b43da27820fe2" target="_top" xlink:title="Gibt den inter/extrapolierten Wert eines Punktes zurück. ">
<polygon fill="none" stroke="black" points="306,-76.5 306,-97.5 410,-97.5 410,-76.5 306,-76.5"/>
<text text-anchor="middle" x="358" y="-84.5" font-family="Helvetica,sans-Serif" font-size="10.00">Utils::getPointValue</text>
</a>
</g>
<!-- Node11&#45;&gt;Node12 -->
<g id="edge22" class="edge"><title>Node11&#45;&gt;Node12</title>
<path fill="none" stroke="midnightblue" d="M262.636,-87C277.217,-87 292.186,-87 305.816,-87"/>
<polygon fill="midnightblue" stroke="midnightblue" points="262.624,-83.5001 252.624,-87 262.624,-90.5001 262.624,-83.5001"/>
</g>
<!-- Node13 -->
<g id="node25" class="node"><title>Node13</title>
<a xlink:href="GUICutRenderWindow_8cpp.xhtml#aeaaae4c8452680389d221d0e60a6fc33" target="_top" xlink:title="Funktion zum verteilten berechnen der 2D&#45;Temperaturverteilung. ">
<polygon fill="none" stroke="black" points="483,-116.5 483,-137.5 559,-137.5 559,-116.5 483,-116.5"/>
<text text-anchor="middle" x="521" y="-124.5" font-family="Helvetica,sans-Serif" font-size="10.00">render_thread</text>
</a>
</g>
<!-- Node12&#45;&gt;Node13 -->
<g id="edge24" class="edge"><title>Node12&#45;&gt;Node13</title>
<path fill="none" stroke="midnightblue" d="M410.657,-99.9219C434.184,-105.696 461.394,-112.373 482.906,-117.652"/>
<polygon fill="midnightblue" stroke="midnightblue" points="411.372,-96.4937 400.826,-97.5095 409.704,-103.292 411.372,-96.4937"/>
</g>
<!-- Node14 -->
<g id="node28" class="node"><title>Node14</title>
<a xlink:href="classAnalyzer.xhtml#a8f73ee0aa71ae395a74b43dc76b35458" target="_top" xlink:title="Ermittelt Daten für einen Punkt am aktuell ausgewählten Zeitpunkt. ">
<polygon fill="none" stroke="black" points="462.5,-76.5 462.5,-97.5 579.5,-97.5 579.5,-76.5 462.5,-76.5"/>
<text text-anchor="middle" x="521" y="-84.5" font-family="Helvetica,sans-Serif" font-size="10.00">Analyzer::analyzePoint</text>
</a>
</g>
<!-- Node12&#45;&gt;Node14 -->
<g id="edge28" class="edge"><title>Node12&#45;&gt;Node14</title>
<path fill="none" stroke="midnightblue" d="M420.393,-87C434.188,-87 448.757,-87 462.395,-87"/>
<polygon fill="midnightblue" stroke="midnightblue" points="420.022,-83.5001 410.022,-87 420.022,-90.5001 420.022,-83.5001"/>
</g>
<!-- Node16 -->
<g id="node32" class="node"><title>Node16</title>
<a xlink:href="MeshProcessor_8cpp.xhtml#ad2670c4e8381f9a0a89c65f5559ed421" target="_top" xlink:title="interpolatePoint">
<polygon fill="none" stroke="black" points="479,-33.5 479,-54.5 563,-54.5 563,-33.5 479,-33.5"/>
<text text-anchor="middle" x="521" y="-41.5" font-family="Helvetica,sans-Serif" font-size="10.00">interpolatePoint</text>
</a>
</g>
<!-- Node12&#45;&gt;Node16 -->
<g id="edge32" class="edge"><title>Node12&#45;&gt;Node16</title>
<path fill="none" stroke="midnightblue" d="M407.66,-73.8996C431.157,-67.7008 458.845,-60.3967 480.972,-54.5594"/>
<polygon fill="midnightblue" stroke="midnightblue" points="406.651,-70.5459 397.874,-76.481 408.436,-77.3144 406.651,-70.5459"/>
</g>
<!-- Node13&#45;&gt;Node4 -->
<g id="edge26" class="edge"><title>Node13&#45;&gt;Node4</title>
<path fill="none" stroke="midnightblue" d="M549.348,-142.333C577.216,-157.406 619.659,-180.363 648.551,-195.99"/>
<polygon fill="midnightblue" stroke="midnightblue" points="550.957,-139.224 540.497,-137.545 547.627,-145.381 550.957,-139.224"/>
</g>
<!-- Node15 -->
<g id="node30" class="node"><title>Node15</title>
<a xlink:href="classGUIAnalyzePointWindow.xhtml#aa84ea9958e8b41423f01316d01ba5151" target="_top" xlink:title="Event&#45;Tabellendeklaration für wxWidgets. ">
<polygon fill="none" stroke="black" points="616,-72 616,-106 744,-106 744,-72 616,-72"/>
<text text-anchor="start" x="624" y="-93" font-family="Helvetica,sans-Serif" font-size="10.00">GUIAnalyzePointWindow</text>
<text text-anchor="middle" x="680" y="-80" font-family="Helvetica,sans-Serif" font-size="10.00">::analyzePoint</text>
</a>
</g>
<!-- Node14&#45;&gt;Node15 -->
<g id="edge30" class="edge"><title>Node14&#45;&gt;Node15</title>
<path fill="none" stroke="midnightblue" d="M589.811,-87.8655C598.466,-87.9744 607.294,-88.0855 615.874,-88.1934"/>
<polygon fill="midnightblue" stroke="midnightblue" points="589.797,-84.3652 579.754,-87.739 589.709,-91.3646 589.797,-84.3652"/>
</g>
<!-- Node17 -->
<g id="node34" class="node"><title>Node17</title>
<a xlink:href="classMeshProcessor.xhtml#a060c3815db33f8e52ac620ed2239ccc9" target="_top" xlink:title="Berechnet die Temperaturverteilung für ein Objekt. ">
<polygon fill="none" stroke="black" points="617.5,-32.5 617.5,-53.5 742.5,-53.5 742.5,-32.5 617.5,-32.5"/>
<text text-anchor="middle" x="680" y="-40.5" font-family="Helvetica,sans-Serif" font-size="10.00">MeshProcessor::process</text>
</a>
</g>
<!-- Node16&#45;&gt;Node17 -->
<g id="edge34" class="edge"><title>Node16&#45;&gt;Node17</title>
<path fill="none" stroke="midnightblue" d="M573.595,-43.6692C587.564,-43.5814 602.789,-43.4856 617.241,-43.3947"/>
<polygon fill="midnightblue" stroke="midnightblue" points="573.169,-40.1717 563.192,-43.7346 573.213,-47.1716 573.169,-40.1717"/>
</g>
<!-- Node18 -->
<g id="node36" class="node"><title>Node18</title>
<a xlink:href="classAnalyzer.xhtml#a2a7b5f169f664ccd9f206e508cba78ef" target="_top" xlink:title="Ermittelt Daten für ein Objekt. ">
<polygon fill="none" stroke="black" points="780.5,-52.5 780.5,-73.5 903.5,-73.5 903.5,-52.5 780.5,-52.5"/>
<text text-anchor="middle" x="842" y="-60.5" font-family="Helvetica,sans-Serif" font-size="10.00">Analyzer::analyzeObject</text>
</a>
</g>
<!-- Node17&#45;&gt;Node18 -->
<g id="edge36" class="edge"><title>Node17&#45;&gt;Node18</title>
<path fill="none" stroke="midnightblue" d="M752.6,-51.963C761.86,-53.1062 771.268,-54.2677 780.333,-55.3868"/>
<polygon fill="midnightblue" stroke="midnightblue" points="752.987,-48.4842 742.633,-50.7325 752.129,-55.4315 752.987,-48.4842"/>
</g>
<!-- Node22 -->
<g id="node44" class="node"><title>Node22</title>
<a xlink:href="classObjectData.xhtml#af3a850833d08eb9b45357449f455e24d" target="_top" xlink:title="Zerlegt das Objekt in Tetraeder (Schnittstelle zur Tetgen&#45;Bibliothek) und Berechnet die Temperaturver...">
<polygon fill="none" stroke="black" points="781,-9.5 781,-30.5 903,-30.5 903,-9.5 781,-9.5"/>
<text text-anchor="middle" x="842" y="-17.5" font-family="Helvetica,sans-Serif" font-size="10.00">ObjectData::calculateIO</text>
</a>
</g>
<!-- Node17&#45;&gt;Node22 -->
<g id="edge44" class="edge"><title>Node17&#45;&gt;Node22</title>
<path fill="none" stroke="midnightblue" d="M752.745,-32.672C762.14,-31.3382 771.684,-29.9831 780.866,-28.6796"/>
<polygon fill="midnightblue" stroke="midnightblue" points="752.042,-29.2366 742.633,-34.1076 753.026,-36.1671 752.042,-29.2366"/>
</g>
<!-- Node19 -->
<g id="node38" class="node"><title>Node19</title>
<a xlink:href="classGUIAnalyzeOutputWindow.xhtml#a9ea5a7cf46d6189f368315903508cecc" target="_top" xlink:title="Methode zum aktualisieren des Fensters, alle Objekte werden erneut analysiert und die aktualisierten ...">
<polygon fill="none" stroke="black" points="948,-92 948,-126 1082,-126 1082,-92 948,-92"/>
<text text-anchor="start" x="956" y="-113" font-family="Helvetica,sans-Serif" font-size="10.00">GUIAnalyzeOutputWindow</text>
<text text-anchor="middle" x="1015" y="-100" font-family="Helvetica,sans-Serif" font-size="10.00">::Update</text>
</a>
</g>
<!-- Node18&#45;&gt;Node19 -->
<g id="edge38" class="edge"><title>Node18&#45;&gt;Node19</title>
<path fill="none" stroke="midnightblue" d="M891.358,-76.1241C909.84,-81.0383 931.114,-86.695 950.747,-91.9155"/>
<polygon fill="midnightblue" stroke="midnightblue" points="892.253,-72.7406 881.69,-73.5533 890.454,-79.5055 892.253,-72.7406"/>
</g>
<!-- Node21 -->
<g id="node42" class="node"><title>Node21</title>
<a xlink:href="classGUITimeline.xhtml#a099f3654aa6e7ea04df861851a0e9ec8" target="_top" xlink:title="Sucht den Zeitpunkt zwischen zwei markierten Stellen auf der Sensordaten&#45;Zeitleiste, für den der Wäremeenergiegehalt maximal wird. ">
<polygon fill="none" stroke="black" points="946.5,-52.5 946.5,-73.5 1083.5,-73.5 1083.5,-52.5 946.5,-52.5"/>
<text text-anchor="middle" x="1015" y="-60.5" font-family="Helvetica,sans-Serif" font-size="10.00">GUITimeline::findMaxValue</text>
</a>
</g>
<!-- Node18&#45;&gt;Node21 -->
<g id="edge42" class="edge"><title>Node18&#45;&gt;Node21</title>
<path fill="none" stroke="midnightblue" d="M914.108,-63C924.804,-63 935.801,-63 946.422,-63"/>
<polygon fill="midnightblue" stroke="midnightblue" points="913.968,-59.5001 903.968,-63 913.968,-66.5001 913.968,-59.5001"/>
</g>
<!-- Node20 -->
<g id="node40" class="node"><title>Node20</title>
<a xlink:href="classGUIAnalyzeOutputWindow.xhtml#af9407245a6b2a0478579c4d592a31e63" target="_top" xlink:title="Der Konstruktor. ">
<polygon fill="none" stroke="black" points="1126,-92 1126,-126 1266,-126 1266,-92 1126,-92"/>
<text text-anchor="start" x="1134" y="-113" font-family="Helvetica,sans-Serif" font-size="10.00">GUIAnalyzeOutputWindow</text>
<text text-anchor="middle" x="1196" y="-100" font-family="Helvetica,sans-Serif" font-size="10.00">::GUIAnalyzeOutputWindow</text>
</a>
</g>
<!-- Node19&#45;&gt;Node20 -->
<g id="edge40" class="edge"><title>Node19&#45;&gt;Node20</title>
<path fill="none" stroke="midnightblue" d="M1092.3,-109C1103.47,-109 1114.92,-109 1125.94,-109"/>
<polygon fill="midnightblue" stroke="midnightblue" points="1092.14,-105.5 1082.14,-109 1092.14,-112.5 1092.14,-105.5"/>
</g>
<!-- Node23 -->
<g id="node46" class="node"><title>Node23</title>
<a xlink:href="classGUIMainWindow.xhtml#a0c2de30274c7f52ff74ec1217e47a9e5" target="_top" xlink:title="Berechnet die 3D&#45;Temperaturverteilung neu. ">
<polygon fill="none" stroke="black" points="940,-0 940,-34 1090,-34 1090,-0 940,-0"/>
<text text-anchor="start" x="948" y="-21" font-family="Helvetica,sans-Serif" font-size="10.00">GUIMainWindow::OnRecalcBt</text>
<text text-anchor="middle" x="1015" y="-8" font-family="Helvetica,sans-Serif" font-size="10.00">Click</text>
</a>
</g>
<!-- Node22&#45;&gt;Node23 -->
<g id="edge46" class="edge"><title>Node22&#45;&gt;Node23</title>
<path fill="none" stroke="midnightblue" d="M913.534,-18.7595C922.197,-18.6093 931.067,-18.4555 939.782,-18.3044"/>
<polygon fill="midnightblue" stroke="midnightblue" points="913.418,-15.2609 903.48,-18.9339 913.54,-22.2599 913.418,-15.2609"/>
</g>
<!-- Node25 -->
<g id="node50" class="node"><title>Node25</title>
<a xlink:href="namespaceUtils.xhtml#af8fc5d6dab27f759ab5d76757a53023f" target="_top" xlink:title="Testet, ob sich ein Punkt innerhalb eines Körpers befindet. ">
<polygon fill="none" stroke="black" points="301,-116.5 301,-137.5 415,-137.5 415,-116.5 301,-116.5"/>
<text text-anchor="middle" x="358" y="-124.5" font-family="Helvetica,sans-Serif" font-size="10.00">Utils::pointInsideMesh</text>
</a>
</g>
<!-- Node24&#45;&gt;Node25 -->
<g id="edge50" class="edge"><title>Node24&#45;&gt;Node25</title>
<path fill="none" stroke="midnightblue" d="M264.323,-127C276.591,-127 289.087,-127 300.785,-127"/>
<polygon fill="midnightblue" stroke="midnightblue" points="264.093,-123.5 254.093,-127 264.093,-130.5 264.093,-123.5"/>
</g>
<!-- Node25&#45;&gt;Node13 -->
<g id="edge52" class="edge"><title>Node25&#45;&gt;Node13</title>
<path fill="none" stroke="midnightblue" d="M425.139,-127C444.759,-127 465.525,-127 482.694,-127"/>
<polygon fill="midnightblue" stroke="midnightblue" points="425.01,-123.5 415.009,-127 425.009,-130.5 425.01,-123.5"/>
</g>
</g>
</svg>
