<?xml version="1.0" encoding="UTF-8" standalone="no"?>
<!DOCTYPE svg PUBLIC "-//W3C//DTD SVG 1.1//EN"
 "http://www.w3.org/Graphics/SVG/1.1/DTD/svg11.dtd">
<!-- Generated by graphviz version 2.26.3 (20100126.1600)
 -->
<!-- Title: tetgenmesh::removeedgebyflips Pages: 1 -->
<svg width="2574pt" height="647pt"
 viewBox="0.00 0.00 2574.00 646.78" xmlns="http://www.w3.org/2000/svg" xmlns:xlink="http://www.w3.org/1999/xlink">
<g id="graph1" class="graph" transform="scale(1 1) rotate(0) translate(4 642.779)">
<title>tetgenmesh::removeedgebyflips</title>
<!-- Node1 -->
<g id="node1" class="node"><title>Node1</title>
<polygon fill="#bfbfbf" stroke="black" points="0.5,-487.075 0.5,-508.075 155.5,-508.075 155.5,-487.075 0.5,-487.075"/>
<text text-anchor="middle" x="78" y="-495.075" font-family="Helvetica,sans-Serif" font-size="10.00">tetgenmesh::removeedgebyflips</text>
</g>
<!-- Node2 -->
<g id="node3" class="node"><title>Node2</title>
<a xlink:href="classtetgenmesh.xhtml#a74795dd220990bdcf206cdc6686ab336" target="_top" xlink:title="tetgenmesh::removefacebyflips">
<polygon fill="none" stroke="black" points="197.5,-565.075 197.5,-586.075 350.5,-586.075 350.5,-565.075 197.5,-565.075"/>
<text text-anchor="middle" x="274" y="-573.075" font-family="Helvetica,sans-Serif" font-size="10.00">tetgenmesh::removefacebyflips</text>
</a>
</g>
<!-- Node1&#45;&gt;Node2 -->
<g id="edge2" class="edge"><title>Node1&#45;&gt;Node2</title>
<path fill="none" stroke="midnightblue" d="M107.75,-512.799C130.471,-524.082 162.749,-539.379 192,-550.575 205.9,-555.895 221.452,-560.874 235.246,-564.966"/>
<polygon fill="midnightblue" stroke="midnightblue" points="109.143,-509.582 98.6348,-508.233 106.008,-515.841 109.143,-509.582"/>
</g>
<!-- Node3 -->
<g id="node5" class="node"><title>Node3</title>
<a xlink:href="classtetgenmesh.xhtml#a558494ab92a7012fae3cfe96bb33f8e9" target="_top" xlink:title="tetgenmesh::recoveredgebyflips">
<polygon fill="none" stroke="black" points="395.5,-604.075 395.5,-625.075 550.5,-625.075 550.5,-604.075 395.5,-604.075"/>
<text text-anchor="middle" x="473" y="-612.075" font-family="Helvetica,sans-Serif" font-size="10.00">tetgenmesh::recoveredgebyflips</text>
</a>
</g>
<!-- Node1&#45;&gt;Node3 -->
<g id="edge34" class="edge"><title>Node1&#45;&gt;Node3</title>
<path fill="none" stroke="midnightblue" d="M92.7732,-516.131C112.555,-539.421 150.055,-578.393 192,-595.575 256.816,-622.127 337.08,-624.912 395.209,-622.216"/>
<polygon fill="midnightblue" stroke="midnightblue" points="95.3858,-513.799 86.3114,-508.33 89.9949,-518.264 95.3858,-513.799"/>
</g>
<!-- Node14 -->
<g id="node28" class="node"><title>Node14</title>
<a xlink:href="classtetgenmesh.xhtml#a3de6e9d82e74671af7f038043b5e9bcc" target="_top" xlink:title="tetgenmesh::add_steinerpt\l_in_segment">
<polygon fill="none" stroke="black" points="407,-551.575 407,-585.575 539,-585.575 539,-551.575 407,-551.575"/>
<text text-anchor="start" x="415" y="-572.575" font-family="Helvetica,sans-Serif" font-size="10.00">tetgenmesh::add_steinerpt</text>
<text text-anchor="middle" x="473" y="-559.575" font-family="Helvetica,sans-Serif" font-size="10.00">_in_segment</text>
</a>
</g>
<!-- Node1&#45;&gt;Node14 -->
<g id="edge36" class="edge"><title>Node1&#45;&gt;Node14</title>
<path fill="none" stroke="midnightblue" d="M146.735,-509.93C219.81,-523.065 334.575,-543.694 406.705,-556.659"/>
<polygon fill="midnightblue" stroke="midnightblue" points="147.17,-506.452 136.709,-508.128 145.932,-513.342 147.17,-506.452"/>
</g>
<!-- Node16 -->
<g id="node35" class="node"><title>Node16</title>
<a xlink:href="classtetgenmesh.xhtml#a38c7fc92a1ced3f4885006837a83c2e6" target="_top" xlink:title="tetgenmesh::recoverfacebyflips">
<polygon fill="none" stroke="black" points="197.5,-487.075 197.5,-508.075 350.5,-508.075 350.5,-487.075 197.5,-487.075"/>
<text text-anchor="middle" x="274" y="-495.075" font-family="Helvetica,sans-Serif" font-size="10.00">tetgenmesh::recoverfacebyflips</text>
</a>
</g>
<!-- Node1&#45;&gt;Node16 -->
<g id="edge38" class="edge"><title>Node1&#45;&gt;Node16</title>
<path fill="none" stroke="midnightblue" d="M165.766,-497.575C176.286,-497.575 186.964,-497.575 197.309,-497.575"/>
<polygon fill="midnightblue" stroke="midnightblue" points="165.746,-494.075 155.746,-497.575 165.746,-501.075 165.746,-494.075"/>
</g>
<!-- Node17 -->
<g id="node38" class="node"><title>Node17</title>
<a xlink:href="classtetgenmesh.xhtml#af61e64f6536238f25296f3f26b360935" target="_top" xlink:title="tetgenmesh::reduceedgesatvertex">
<polygon fill="none" stroke="black" points="192,-447.075 192,-468.075 356,-468.075 356,-447.075 192,-447.075"/>
<text text-anchor="middle" x="274" y="-455.075" font-family="Helvetica,sans-Serif" font-size="10.00">tetgenmesh::reduceedgesatvertex</text>
</a>
</g>
<!-- Node1&#45;&gt;Node17 -->
<g id="edge42" class="edge"><title>Node1&#45;&gt;Node17</title>
<path fill="none" stroke="midnightblue" d="M139.495,-485.025C166.174,-479.581 197.063,-473.277 222.507,-468.084"/>
<polygon fill="midnightblue" stroke="midnightblue" points="138.595,-481.637 129.497,-487.066 139.995,-488.495 138.595,-481.637"/>
</g>
<!-- Node33 -->
<g id="node85" class="node"><title>Node33</title>
<a xlink:href="classtetgenmesh.xhtml#a4f6f365744005e9d9da43a7d8a1fbba8" target="_top" xlink:title="tetgenmesh::recoverdelaunay">
<polygon fill="none" stroke="black" points="834.5,-61.0751 834.5,-82.0751 979.5,-82.0751 979.5,-61.0751 834.5,-61.0751"/>
<text text-anchor="middle" x="907" y="-69.0751" font-family="Helvetica,sans-Serif" font-size="10.00">tetgenmesh::recoverdelaunay</text>
</a>
</g>
<!-- Node1&#45;&gt;Node33 -->
<g id="edge108" class="edge"><title>Node1&#45;&gt;Node33</title>
<path fill="none" stroke="midnightblue" d="M103.501,-481.692C177.292,-436.036 398.005,-301.631 590,-206.575 694.534,-154.821 823.745,-103.582 879.387,-82.1018"/>
<polygon fill="midnightblue" stroke="midnightblue" points="101.508,-478.809 94.8524,-487.053 105.196,-484.759 101.508,-478.809"/>
</g>
<!-- Node34 -->
<g id="node89" class="node"><title>Node34</title>
<a xlink:href="classtetgenmesh.xhtml#a3d724f195ed9c3f5e1378d1f4f0c5282" target="_top" xlink:title="tetgenmesh::improvequalitybyflips">
<polygon fill="none" stroke="black" points="1240.5,-22.0751 1240.5,-43.0751 1405.5,-43.0751 1405.5,-22.0751 1240.5,-22.0751"/>
<text text-anchor="middle" x="1323" y="-30.0751" font-family="Helvetica,sans-Serif" font-size="10.00">tetgenmesh::improvequalitybyflips</text>
</a>
</g>
<!-- Node1&#45;&gt;Node34 -->
<g id="edge110" class="edge"><title>Node1&#45;&gt;Node34</title>
<path fill="none" stroke="midnightblue" d="M83.9721,-477.201C111.627,-387.545 236.079,-32.5751 473,-32.5751 473,-32.5751 473,-32.5751 907,-32.5751 1022.56,-32.5751 1156.17,-32.5751 1240.12,-32.5751"/>
<polygon fill="midnightblue" stroke="midnightblue" points="80.5565,-476.404 81.0158,-486.989 87.2575,-478.428 80.5565,-476.404"/>
</g>
<!-- Node2&#45;&gt;Node3 -->
<g id="edge4" class="edge"><title>Node2&#45;&gt;Node3</title>
<path fill="none" stroke="midnightblue" d="M337.481,-588.016C363.836,-593.181 394.088,-599.11 419.314,-604.054"/>
<polygon fill="midnightblue" stroke="midnightblue" points="338.077,-584.566 327.59,-586.078 336.73,-591.436 338.077,-584.566"/>
</g>
<!-- Node2&#45;&gt;Node14 -->
<g id="edge28" class="edge"><title>Node2&#45;&gt;Node14</title>
<path fill="none" stroke="midnightblue" d="M360.721,-572.525C376.155,-571.982 392.007,-571.424 406.757,-570.905"/>
<polygon fill="midnightblue" stroke="midnightblue" points="360.525,-569.029 350.654,-572.879 360.771,-576.025 360.525,-569.029"/>
</g>
<!-- Node4 -->
<g id="node7" class="node"><title>Node4</title>
<a xlink:href="classtetgenmesh.xhtml#a50e12e269b11573e6e1b91347ad19b37" target="_top" xlink:title="tetgenmesh::recoversegments">
<polygon fill="none" stroke="black" points="832.5,-603.075 832.5,-624.075 981.5,-624.075 981.5,-603.075 832.5,-603.075"/>
<text text-anchor="middle" x="907" y="-611.075" font-family="Helvetica,sans-Serif" font-size="10.00">tetgenmesh::recoversegments</text>
</a>
</g>
<!-- Node3&#45;&gt;Node4 -->
<g id="edge6" class="edge"><title>Node3&#45;&gt;Node4</title>
<path fill="none" stroke="midnightblue" d="M536.37,-626.773C553.692,-629.585 572.51,-632.164 590,-633.575 675.943,-640.508 698.058,-640.517 784,-633.575 807.074,-631.711 832.347,-627.912 853.951,-624.12"/>
<polygon fill="midnightblue" stroke="midnightblue" points="536.806,-623.298 526.365,-625.098 535.65,-630.201 536.806,-623.298"/>
</g>
<!-- Node13 -->
<g id="node25" class="node"><title>Node13</title>
<a xlink:href="classtetgenmesh.xhtml#ace09080e4f274e0a48cd1728475878c9" target="_top" xlink:title="tetgenmesh::recoversubfaces">
<polygon fill="none" stroke="black" points="614,-563.075 614,-584.075 760,-584.075 760,-563.075 614,-563.075"/>
<text text-anchor="middle" x="687" y="-571.075" font-family="Helvetica,sans-Serif" font-size="10.00">tetgenmesh::recoversubfaces</text>
</a>
</g>
<!-- Node3&#45;&gt;Node13 -->
<g id="edge24" class="edge"><title>Node3&#45;&gt;Node13</title>
<path fill="none" stroke="midnightblue" d="M537.804,-602.159C567.857,-596.402 603.198,-589.631 631.939,-584.124"/>
<polygon fill="midnightblue" stroke="midnightblue" points="536.995,-598.751 527.832,-604.07 538.312,-605.626 536.995,-598.751"/>
</g>
<!-- Node5 -->
<g id="node9" class="node"><title>Node5</title>
<a xlink:href="classtetgenmesh.xhtml#a1be7dce56688fbe7a97fc31f98b61c19" target="_top" xlink:title="tetgenmesh::recoverboundary">
<polygon fill="none" stroke="black" points="1044,-543.075 1044,-564.075 1190,-564.075 1190,-543.075 1044,-543.075"/>
<text text-anchor="middle" x="1117" y="-551.075" font-family="Helvetica,sans-Serif" font-size="10.00">tetgenmesh::recoverboundary</text>
</a>
</g>
<!-- Node4&#45;&gt;Node5 -->
<g id="edge8" class="edge"><title>Node4&#45;&gt;Node5</title>
<path fill="none" stroke="midnightblue" d="M953.881,-600.181C991.926,-589.31 1044.83,-574.194 1079.96,-564.159"/>
<polygon fill="midnightblue" stroke="midnightblue" points="952.714,-596.874 944.06,-602.986 954.637,-603.605 952.714,-596.874"/>
</g>
<!-- Node6 -->
<g id="node11" class="node"><title>Node6</title>
<a xlink:href="tetgen_8h.xhtml#ad3637eb4ffe7fda90667e67b7771d964" target="_top" xlink:title="tetrahedralize">
<polygon fill="none" stroke="black" points="2146.5,-235.075 2146.5,-256.075 2221.5,-256.075 2221.5,-235.075 2146.5,-235.075"/>
<text text-anchor="middle" x="2184" y="-243.075" font-family="Helvetica,sans-Serif" font-size="10.00">tetrahedralize</text>
</a>
</g>
<!-- Node5&#45;&gt;Node6 -->
<g id="edge10" class="edge"><title>Node5&#45;&gt;Node6</title>
<path fill="none" stroke="midnightblue" d="M1200.53,-550.203C1279.68,-547.3 1401.91,-543.575 1508,-543.575 1508,-543.575 1508,-543.575 1851,-543.575 1967.1,-543.575 2022.26,-585.605 2110,-509.575 2150.02,-474.896 2176.37,-301.072 2182.59,-256.173"/>
<polygon fill="midnightblue" stroke="midnightblue" points="1199.99,-546.72 1190.13,-550.588 1200.25,-553.715 1199.99,-546.72"/>
</g>
<!-- Node7 -->
<g id="node13" class="node"><title>Node7</title>
<a xlink:href="classGUICutRenderWindow.xhtml#a9eedb7088ad31f4680a77ed3a06fa60c" target="_top" xlink:title="Berechnet die 2D&#45;Temperaturverteilung als Grafik. ">
<polygon fill="none" stroke="black" points="2260.5,-274.575 2260.5,-308.575 2377.5,-308.575 2377.5,-274.575 2260.5,-274.575"/>
<text text-anchor="start" x="2268.5" y="-295.575" font-family="Helvetica,sans-Serif" font-size="10.00">GUICutRenderWindow</text>
<text text-anchor="middle" x="2319" y="-282.575" font-family="Helvetica,sans-Serif" font-size="10.00">::renderImage</text>
</a>
</g>
<!-- Node6&#45;&gt;Node7 -->
<g id="edge12" class="edge"><title>Node6&#45;&gt;Node7</title>
<path fill="none" stroke="midnightblue" d="M2224.73,-259.452C2238.62,-264.186 2254.32,-269.535 2268.86,-274.491"/>
<polygon fill="midnightblue" stroke="midnightblue" points="2225.57,-256.041 2214.97,-256.128 2223.31,-262.667 2225.57,-256.041"/>
</g>
<!-- Node9 -->
<g id="node17" class="node"><title>Node9</title>
<a xlink:href="classObjectData.xhtml#af3a850833d08eb9b45357449f455e24d" target="_top" xlink:title="Zerlegt das Objekt in Tetraeder (Schnittstelle zur Tetgen&#45;Bibliothek) und Berechnet die Temperaturver...">
<polygon fill="none" stroke="black" points="2258,-235.075 2258,-256.075 2380,-256.075 2380,-235.075 2258,-235.075"/>
<text text-anchor="middle" x="2319" y="-243.075" font-family="Helvetica,sans-Serif" font-size="10.00">ObjectData::calculateIO</text>
</a>
</g>
<!-- Node6&#45;&gt;Node9 -->
<g id="edge16" class="edge"><title>Node6&#45;&gt;Node9</title>
<path fill="none" stroke="midnightblue" d="M2231.65,-245.575C2240.11,-245.575 2249.02,-245.575 2257.8,-245.575"/>
<polygon fill="midnightblue" stroke="midnightblue" points="2231.61,-242.075 2221.61,-245.575 2231.6,-249.075 2231.61,-242.075"/>
</g>
<!-- Node12 -->
<g id="node23" class="node"><title>Node12</title>
<a xlink:href="tetgen_8cxx.xhtml#a0ddf1224851353fc92bfbff6f499fa97" target="_top" xlink:title="main">
<polygon fill="none" stroke="black" points="2300,-195.075 2300,-216.075 2338,-216.075 2338,-195.075 2300,-195.075"/>
<text text-anchor="middle" x="2319" y="-203.075" font-family="Helvetica,sans-Serif" font-size="10.00">main</text>
</a>
</g>
<!-- Node6&#45;&gt;Node12 -->
<g id="edge22" class="edge"><title>Node6&#45;&gt;Node12</title>
<path fill="none" stroke="midnightblue" d="M2229.15,-232.196C2253.27,-225.052 2281.67,-216.636 2299.98,-211.209"/>
<polygon fill="midnightblue" stroke="midnightblue" points="2228.06,-228.869 2219.47,-235.066 2230.05,-235.58 2228.06,-228.869"/>
</g>
<!-- Node8 -->
<g id="node15" class="node"><title>Node8</title>
<a xlink:href="classGUICutRenderWindow.xhtml#a7cd1bfbec53756a1cbbe1616b4d46c7a" target="_top" xlink:title="Behandelt das Drücken des Buttons zur Berechnung der zweidimensionalen Temperaturverteilung. ">
<polygon fill="none" stroke="black" points="2432.5,-274.575 2432.5,-308.575 2549.5,-308.575 2549.5,-274.575 2432.5,-274.575"/>
<text text-anchor="start" x="2440.5" y="-295.575" font-family="Helvetica,sans-Serif" font-size="10.00">GUICutRenderWindow</text>
<text text-anchor="middle" x="2491" y="-282.575" font-family="Helvetica,sans-Serif" font-size="10.00">::renderCutBtClick</text>
</a>
</g>
<!-- Node7&#45;&gt;Node8 -->
<g id="edge14" class="edge"><title>Node7&#45;&gt;Node8</title>
<path fill="none" stroke="midnightblue" d="M2387.78,-291.575C2402.51,-291.575 2417.95,-291.575 2432.26,-291.575"/>
<polygon fill="midnightblue" stroke="midnightblue" points="2387.71,-288.075 2377.71,-291.575 2387.71,-295.075 2387.71,-288.075"/>
</g>
<!-- Node10 -->
<g id="node19" class="node"><title>Node10</title>
<a xlink:href="classGUIMainWindow.xhtml#a0c2de30274c7f52ff74ec1217e47a9e5" target="_top" xlink:title="Berechnet die 3D&#45;Temperaturverteilung neu. ">
<polygon fill="none" stroke="black" points="2416,-182.575 2416,-216.575 2566,-216.575 2566,-182.575 2416,-182.575"/>
<text text-anchor="start" x="2424" y="-203.575" font-family="Helvetica,sans-Serif" font-size="10.00">GUIMainWindow::OnRecalcBt</text>
<text text-anchor="middle" x="2491" y="-190.575" font-family="Helvetica,sans-Serif" font-size="10.00">Click</text>
</a>
</g>
<!-- Node9&#45;&gt;Node10 -->
<g id="edge18" class="edge"><title>Node9&#45;&gt;Node10</title>
<path fill="none" stroke="midnightblue" d="M2368.33,-232.383C2386.64,-227.485 2407.69,-221.856 2427.12,-216.66"/>
<polygon fill="midnightblue" stroke="midnightblue" points="2367.22,-229.057 2358.46,-235.022 2369.03,-235.819 2367.22,-229.057"/>
</g>
<!-- Node11 -->
<g id="node21" class="node"><title>Node11</title>
<a xlink:href="classGUITimeline.xhtml#a099f3654aa6e7ea04df861851a0e9ec8" target="_top" xlink:title="Sucht den Zeitpunkt zwischen zwei markierten Stellen auf der Sensordaten&#45;Zeitleiste, für den der Wäremeenergiegehalt maximal wird. ">
<polygon fill="none" stroke="black" points="2422.5,-235.075 2422.5,-256.075 2559.5,-256.075 2559.5,-235.075 2422.5,-235.075"/>
<text text-anchor="middle" x="2491" y="-243.075" font-family="Helvetica,sans-Serif" font-size="10.00">GUITimeline::findMaxValue</text>
</a>
</g>
<!-- Node9&#45;&gt;Node11 -->
<g id="edge20" class="edge"><title>Node9&#45;&gt;Node11</title>
<path fill="none" stroke="midnightblue" d="M2390.23,-245.575C2400.89,-245.575 2411.86,-245.575 2422.46,-245.575"/>
<polygon fill="midnightblue" stroke="midnightblue" points="2390.13,-242.075 2380.13,-245.575 2390.13,-249.075 2390.13,-242.075"/>
</g>
<!-- Node13&#45;&gt;Node5 -->
<g id="edge26" class="edge"><title>Node13&#45;&gt;Node5</title>
<path fill="none" stroke="midnightblue" d="M770.883,-569.674C850.266,-565.981 968.229,-560.495 1043.87,-556.976"/>
<polygon fill="midnightblue" stroke="midnightblue" points="770.258,-566.199 760.431,-570.16 770.583,-573.191 770.258,-566.199"/>
</g>
<!-- Node15 -->
<g id="node30" class="node"><title>Node15</title>
<a xlink:href="classtetgenmesh.xhtml#a9d878a0e64588b0471a58e534affea8e" target="_top" xlink:title="tetgenmesh::addsteiner4recoversegment">
<polygon fill="none" stroke="black" points="590,-603.075 590,-624.075 784,-624.075 784,-603.075 590,-603.075"/>
<text text-anchor="middle" x="687" y="-611.075" font-family="Helvetica,sans-Serif" font-size="10.00">tetgenmesh::addsteiner4recoversegment</text>
</a>
</g>
<!-- Node14&#45;&gt;Node15 -->
<g id="edge30" class="edge"><title>Node14&#45;&gt;Node15</title>
<path fill="none" stroke="midnightblue" d="M549.024,-584.902C562.663,-587.808 576.75,-590.794 590,-593.575 604.808,-596.684 620.898,-600.019 635.638,-603.057"/>
<polygon fill="midnightblue" stroke="midnightblue" points="549.7,-581.468 539.189,-582.805 548.239,-588.314 549.7,-581.468"/>
</g>
<!-- Node15&#45;&gt;Node4 -->
<g id="edge32" class="edge"><title>Node15&#45;&gt;Node4</title>
<path fill="none" stroke="midnightblue" d="M794.37,-613.575C807.161,-613.575 819.999,-613.575 832.192,-613.575"/>
<polygon fill="midnightblue" stroke="midnightblue" points="794.136,-610.075 784.136,-613.575 794.136,-617.075 794.136,-610.075"/>
</g>
<!-- Node16&#45;&gt;Node13 -->
<g id="edge40" class="edge"><title>Node16&#45;&gt;Node13</title>
<path fill="none" stroke="midnightblue" d="M358.704,-509.619C414.382,-517.921 488.738,-529.741 554,-542.575 584.708,-548.614 619.109,-556.667 645.23,-563.052"/>
<polygon fill="midnightblue" stroke="midnightblue" points="358.936,-506.115 348.531,-508.11 357.909,-513.039 358.936,-506.115"/>
</g>
<!-- Node18 -->
<g id="node40" class="node"><title>Node18</title>
<a xlink:href="classtetgenmesh.xhtml#ad3277eea82fb5eb134c5eaa6abf5c18d" target="_top" xlink:title="tetgenmesh::removevertexbyflips">
<polygon fill="none" stroke="black" points="392.5,-447.075 392.5,-468.075 553.5,-468.075 553.5,-447.075 392.5,-447.075"/>
<text text-anchor="middle" x="473" y="-455.075" font-family="Helvetica,sans-Serif" font-size="10.00">tetgenmesh::removevertexbyflips</text>
</a>
</g>
<!-- Node17&#45;&gt;Node18 -->
<g id="edge44" class="edge"><title>Node17&#45;&gt;Node18</title>
<path fill="none" stroke="midnightblue" d="M366.274,-457.575C374.992,-457.575 383.785,-457.575 392.382,-457.575"/>
<polygon fill="midnightblue" stroke="midnightblue" points="366.09,-454.075 356.09,-457.575 366.09,-461.075 366.09,-454.075"/>
</g>
<!-- Node18&#45;&gt;Node5 -->
<g id="edge54" class="edge"><title>Node18&#45;&gt;Node5</title>
<path fill="none" stroke="midnightblue" d="M507.869,-471.791C530.829,-480.576 561.756,-491.329 590,-497.575 749.462,-532.84 941.149,-546.124 1043.71,-550.955"/>
<polygon fill="midnightblue" stroke="midnightblue" points="509.136,-468.529 498.548,-468.165 506.599,-475.053 509.136,-468.529"/>
</g>
<!-- Node19 -->
<g id="node42" class="node"><title>Node19</title>
<a xlink:href="classtetgenmesh.xhtml#aae5530d808e30771e717c94cb8586f0b" target="_top" xlink:title="tetgenmesh::suppressbdrysteinerpoint">
<polygon fill="none" stroke="black" points="596,-447.075 596,-468.075 778,-468.075 778,-447.075 596,-447.075"/>
<text text-anchor="middle" x="687" y="-455.075" font-family="Helvetica,sans-Serif" font-size="10.00">tetgenmesh::suppressbdrysteinerpoint</text>
</a>
</g>
<!-- Node18&#45;&gt;Node19 -->
<g id="edge46" class="edge"><title>Node18&#45;&gt;Node19</title>
<path fill="none" stroke="midnightblue" d="M563.68,-457.575C574.279,-457.575 585.097,-457.575 595.704,-457.575"/>
<polygon fill="midnightblue" stroke="midnightblue" points="563.599,-454.075 553.599,-457.575 563.599,-461.075 563.599,-454.075"/>
</g>
<!-- Node20 -->
<g id="node44" class="node"><title>Node20</title>
<a xlink:href="classtetgenmesh.xhtml#affc448708b6df2b57048544d3efd6e3c" target="_top" xlink:title="tetgenmesh::suppresssteinerpoints">
<polygon fill="none" stroke="black" points="822.5,-485.075 822.5,-506.075 991.5,-506.075 991.5,-485.075 822.5,-485.075"/>
<text text-anchor="middle" x="907" y="-493.075" font-family="Helvetica,sans-Serif" font-size="10.00">tetgenmesh::suppresssteinerpoints</text>
</a>
</g>
<!-- Node18&#45;&gt;Node20 -->
<g id="edge52" class="edge"><title>Node18&#45;&gt;Node20</title>
<path fill="none" stroke="midnightblue" d="M536.921,-469.84C554.102,-472.77 572.712,-475.613 590,-477.575 668.461,-486.48 758.371,-491.055 822.351,-493.358"/>
<polygon fill="midnightblue" stroke="midnightblue" points="537.444,-466.378 526.991,-468.111 536.243,-473.275 537.444,-466.378"/>
</g>
<!-- Node21 -->
<g id="node49" class="node"><title>Node21</title>
<a xlink:href="classtetgenmesh.xhtml#a85e17b620820cbcb6cb47b565f822062" target="_top" xlink:title="tetgenmesh::meshcoarsening">
<polygon fill="none" stroke="black" points="1250.5,-446.075 1250.5,-467.075 1395.5,-467.075 1395.5,-446.075 1250.5,-446.075"/>
<text text-anchor="middle" x="1323" y="-454.075" font-family="Helvetica,sans-Serif" font-size="10.00">tetgenmesh::meshcoarsening</text>
</a>
</g>
<!-- Node18&#45;&gt;Node21 -->
<g id="edge56" class="edge"><title>Node18&#45;&gt;Node21</title>
<path fill="none" stroke="midnightblue" d="M533.305,-445.26C551.448,-442.099 571.462,-439.148 590,-437.575 831.162,-417.111 1118.41,-437.523 1250.28,-449.383"/>
<polygon fill="midnightblue" stroke="midnightblue" points="532.663,-441.82 523.439,-447.031 533.9,-448.709 532.663,-441.82"/>
</g>
<!-- Node22 -->
<g id="node52" class="node"><title>Node22</title>
<a xlink:href="classtetgenmesh.xhtml#a6755cfa20d8ea6ce62d059750657a292" target="_top" xlink:title="tetgenmesh::lawsonflip3d">
<polygon fill="none" stroke="black" points="623,-216.075 623,-237.075 751,-237.075 751,-216.075 623,-216.075"/>
<text text-anchor="middle" x="687" y="-224.075" font-family="Helvetica,sans-Serif" font-size="10.00">tetgenmesh::lawsonflip3d</text>
</a>
</g>
<!-- Node18&#45;&gt;Node22 -->
<g id="edge60" class="edge"><title>Node18&#45;&gt;Node22</title>
<path fill="none" stroke="midnightblue" d="M489.618,-439.637C532.06,-393.823 643.472,-273.561 677.192,-237.163"/>
<polygon fill="midnightblue" stroke="midnightblue" points="486.98,-437.335 482.751,-447.049 492.115,-442.092 486.98,-437.335"/>
</g>
<!-- Node19&#45;&gt;Node20 -->
<g id="edge48" class="edge"><title>Node19&#45;&gt;Node20</title>
<path fill="none" stroke="midnightblue" d="M758.215,-469.876C786.494,-474.76 818.695,-480.323 845.891,-485.02"/>
<polygon fill="midnightblue" stroke="midnightblue" points="758.44,-466.363 747.99,-468.11 757.248,-473.261 758.44,-466.363"/>
</g>
<!-- Node20&#45;&gt;Node6 -->
<g id="edge50" class="edge"><title>Node20&#45;&gt;Node6</title>
<path fill="none" stroke="midnightblue" d="M1001.92,-495.575C1086.24,-495.575 1212.83,-495.575 1323,-495.575 1323,-495.575 1323,-495.575 1851,-495.575 1971.09,-495.575 2020.33,-498.462 2110,-418.575 2160.98,-373.158 2178.04,-286.591 2182.59,-256.335"/>
<polygon fill="midnightblue" stroke="midnightblue" points="1001.85,-492.075 991.852,-495.575 1001.85,-499.075 1001.85,-492.075"/>
</g>
<!-- Node21&#45;&gt;Node6 -->
<g id="edge58" class="edge"><title>Node21&#45;&gt;Node6</title>
<path fill="none" stroke="midnightblue" d="M1406.23,-456.575C1478.58,-456.575 1586.22,-456.575 1680,-456.575 1680,-456.575 1680,-456.575 1851,-456.575 1973.61,-456.575 2014.45,-438.41 2110,-361.575 2146.86,-331.936 2170.97,-278.753 2180,-256.176"/>
<polygon fill="midnightblue" stroke="midnightblue" points="1405.82,-453.075 1395.82,-456.575 1405.82,-460.075 1405.82,-453.075"/>
</g>
<!-- Node23 -->
<g id="node54" class="node"><title>Node23</title>
<a xlink:href="classtetgenmesh.xhtml#ad71017c71bd2cac0232c410a651ed085" target="_top" xlink:title="tetgenmesh::carveholes">
<polygon fill="none" stroke="black" points="1447.5,-100.075 1447.5,-121.075 1568.5,-121.075 1568.5,-100.075 1447.5,-100.075"/>
<text text-anchor="middle" x="1508" y="-108.075" font-family="Helvetica,sans-Serif" font-size="10.00">tetgenmesh::carveholes</text>
</a>
</g>
<!-- Node22&#45;&gt;Node23 -->
<g id="edge62" class="edge"><title>Node22&#45;&gt;Node23</title>
<path fill="none" stroke="midnightblue" d="M715.706,-211.199C742.095,-197.711 782.668,-178.581 820,-167.575 1043.89,-101.569 1325.3,-103.002 1447.14,-107.467"/>
<polygon fill="midnightblue" stroke="midnightblue" points="713.926,-208.18 706.658,-215.888 717.147,-214.395 713.926,-208.18"/>
</g>
<!-- Node24 -->
<g id="node57" class="node"><title>Node24</title>
<a xlink:href="classtetgenmesh.xhtml#ac8205cae8e16f490b80d74975934ff74" target="_top" xlink:title="tetgenmesh::insertconstrainedpoints">
<polygon fill="none" stroke="black" points="820,-177.075 820,-198.075 994,-198.075 994,-177.075 820,-177.075"/>
<text text-anchor="middle" x="907" y="-185.075" font-family="Helvetica,sans-Serif" font-size="10.00">tetgenmesh::insertconstrainedpoints</text>
</a>
</g>
<!-- Node22&#45;&gt;Node24 -->
<g id="edge66" class="edge"><title>Node22&#45;&gt;Node24</title>
<path fill="none" stroke="midnightblue" d="M756.411,-214.27C785.727,-209.074 819.515,-203.084 847.649,-198.096"/>
<polygon fill="midnightblue" stroke="midnightblue" points="755.481,-210.881 746.245,-216.073 756.703,-217.773 755.481,-210.881"/>
</g>
<!-- Node26 -->
<g id="node62" class="node"><title>Node26</title>
<a xlink:href="classtetgenmesh.xhtml#a6394d7b4d386e8d08077c39cd8983e0e" target="_top" xlink:title="tetgenmesh::splitsegment">
<polygon fill="none" stroke="black" points="842.5,-273.075 842.5,-294.075 971.5,-294.075 971.5,-273.075 842.5,-273.075"/>
<text text-anchor="middle" x="907" y="-281.075" font-family="Helvetica,sans-Serif" font-size="10.00">tetgenmesh::splitsegment</text>
</a>
</g>
<!-- Node22&#45;&gt;Node26 -->
<g id="edge72" class="edge"><title>Node22&#45;&gt;Node26</title>
<path fill="none" stroke="midnightblue" d="M737.709,-239.713C776.739,-249.826 829.972,-263.618 866.257,-273.019"/>
<polygon fill="midnightblue" stroke="midnightblue" points="738.166,-236.216 727.608,-237.096 736.41,-242.993 738.166,-236.216"/>
</g>
<!-- Node28 -->
<g id="node66" class="node"><title>Node28</title>
<a xlink:href="classtetgenmesh.xhtml#a3a8404870ab3c2e8ce4312d48c2b29f4" target="_top" xlink:title="tetgenmesh::splitsubface">
<polygon fill="none" stroke="black" points="1260,-331.075 1260,-352.075 1386,-352.075 1386,-331.075 1260,-331.075"/>
<text text-anchor="middle" x="1323" y="-339.075" font-family="Helvetica,sans-Serif" font-size="10.00">tetgenmesh::splitsubface</text>
</a>
</g>
<!-- Node22&#45;&gt;Node28 -->
<g id="edge100" class="edge"><title>Node22&#45;&gt;Node28</title>
<path fill="none" stroke="midnightblue" d="M710.693,-242.798C736.573,-259.909 779.723,-286.682 820,-303.575 979.169,-370.334 1032,-375.929 1204,-361.575 1226.34,-359.711 1250.79,-355.911 1271.69,-352.12"/>
<polygon fill="midnightblue" stroke="midnightblue" points="712.551,-239.83 702.293,-237.181 708.66,-245.649 712.551,-239.83"/>
</g>
<!-- Node30 -->
<g id="node70" class="node"><title>Node30</title>
<a xlink:href="classtetgenmesh.xhtml#aa752155eb1d18550a212dd40297f122e" target="_top" xlink:title="tetgenmesh::splittetrahedron">
<polygon fill="none" stroke="black" points="1610,-297.075 1610,-318.075 1750,-318.075 1750,-297.075 1610,-297.075"/>
<text text-anchor="middle" x="1680" y="-305.075" font-family="Helvetica,sans-Serif" font-size="10.00">tetgenmesh::splittetrahedron</text>
</a>
</g>
<!-- Node22&#45;&gt;Node30 -->
<g id="edge102" class="edge"><title>Node22&#45;&gt;Node30</title>
<path fill="none" stroke="midnightblue" d="M761.262,-226.575C846.975,-226.575 992.178,-226.575 1117,-226.575 1117,-226.575 1117,-226.575 1323,-226.575 1448.84,-226.575 1593.58,-275.03 1652.71,-296.986"/>
<polygon fill="midnightblue" stroke="midnightblue" points="761.109,-223.075 751.109,-226.575 761.109,-230.075 761.109,-223.075"/>
</g>
<!-- Node22&#45;&gt;Node33 -->
<g id="edge104" class="edge"><title>Node22&#45;&gt;Node33</title>
<path fill="none" stroke="midnightblue" d="M709.399,-209.619C729.848,-193.641 760.394,-168.496 784,-143.575 802.095,-124.473 798.261,-111.399 820,-96.5751 829.089,-90.3773 839.712,-85.6998 850.351,-82.1744"/>
<polygon fill="midnightblue" stroke="midnightblue" points="707.074,-206.992 701.303,-215.878 711.355,-212.53 707.074,-206.992"/>
</g>
<!-- Node23&#45;&gt;Node6 -->
<g id="edge64" class="edge"><title>Node23&#45;&gt;Node6</title>
<path fill="none" stroke="midnightblue" d="M1578.84,-105.69C1717.93,-97.3538 2020.94,-85.7515 2110,-135.575 2149.97,-157.937 2172.52,-212.002 2180.57,-234.969"/>
<polygon fill="midnightblue" stroke="midnightblue" points="1578.48,-102.206 1568.71,-106.309 1578.91,-109.193 1578.48,-102.206"/>
</g>
<!-- Node24&#45;&gt;Node6 -->
<g id="edge70" class="edge"><title>Node24&#45;&gt;Node6</title>
<path fill="none" stroke="midnightblue" d="M971.802,-175.376C990.517,-172.305 1011.01,-169.374 1030,-167.575 1317.71,-140.323 1391,-149.575 1680,-149.575 1680,-149.575 1680,-149.575 1851,-149.575 1973.14,-149.575 2110.96,-209.94 2162.8,-234.935"/>
<polygon fill="midnightblue" stroke="midnightblue" points="971.185,-171.931 961.904,-177.04 972.346,-178.834 971.185,-171.931"/>
</g>
<!-- Node25 -->
<g id="node59" class="node"><title>Node25</title>
<a xlink:href="classtetgenmesh.xhtml#ab859365ca3dd3eafb77fac56d0ae3a03" target="_top" xlink:title="tetgenmesh::insertconstrainedpoints">
<polygon fill="none" stroke="black" points="1030,-177.075 1030,-198.075 1204,-198.075 1204,-177.075 1030,-177.075"/>
<text text-anchor="middle" x="1117" y="-185.075" font-family="Helvetica,sans-Serif" font-size="10.00">tetgenmesh::insertconstrainedpoints</text>
</a>
</g>
<!-- Node24&#45;&gt;Node25 -->
<g id="edge68" class="edge"><title>Node24&#45;&gt;Node25</title>
<path fill="none" stroke="midnightblue" d="M1004.46,-187.575C1012.88,-187.575 1021.37,-187.575 1029.7,-187.575"/>
<polygon fill="midnightblue" stroke="midnightblue" points="1004.23,-184.075 994.235,-187.575 1004.23,-191.075 1004.23,-184.075"/>
</g>
<!-- Node27 -->
<g id="node64" class="node"><title>Node27</title>
<a xlink:href="classtetgenmesh.xhtml#a7af360f1ae413f9e0d7803ccae55b6d6" target="_top" xlink:title="tetgenmesh::repairencsegs">
<polygon fill="none" stroke="black" points="1050,-331.075 1050,-352.075 1184,-352.075 1184,-331.075 1050,-331.075"/>
<text text-anchor="middle" x="1117" y="-339.075" font-family="Helvetica,sans-Serif" font-size="10.00">tetgenmesh::repairencsegs</text>
</a>
</g>
<!-- Node26&#45;&gt;Node27 -->
<g id="edge74" class="edge"><title>Node26&#45;&gt;Node27</title>
<path fill="none" stroke="midnightblue" d="M954.749,-296.763C992.345,-307.147 1044.05,-321.426 1078.9,-331.052"/>
<polygon fill="midnightblue" stroke="midnightblue" points="955.6,-293.367 945.029,-294.078 953.737,-300.114 955.6,-293.367"/>
</g>
<!-- Node26&#45;&gt;Node28 -->
<g id="edge96" class="edge"><title>Node26&#45;&gt;Node28</title>
<path fill="none" stroke="midnightblue" d="M981.861,-292.329C1041.98,-299.557 1128.53,-310.41 1204,-321.575 1223.27,-324.427 1244.25,-327.846 1263.14,-331.044"/>
<polygon fill="midnightblue" stroke="midnightblue" points="982.045,-288.826 971.7,-291.111 981.212,-295.776 982.045,-288.826"/>
</g>
<!-- Node26&#45;&gt;Node30 -->
<g id="edge98" class="edge"><title>Node26&#45;&gt;Node30</title>
<path fill="none" stroke="midnightblue" d="M981.959,-285.634C1105.4,-289.066 1359.18,-296.301 1574,-303.575 1585.6,-303.968 1597.9,-304.409 1609.87,-304.852"/>
<polygon fill="midnightblue" stroke="midnightblue" points="981.955,-282.132 971.862,-285.353 981.761,-289.13 981.955,-282.132"/>
</g>
<!-- Node27&#45;&gt;Node28 -->
<g id="edge76" class="edge"><title>Node27&#45;&gt;Node28</title>
<path fill="none" stroke="midnightblue" d="M1194.29,-341.575C1215.89,-341.575 1239.09,-341.575 1259.77,-341.575"/>
<polygon fill="midnightblue" stroke="midnightblue" points="1194.17,-338.075 1184.17,-341.575 1194.17,-345.075 1194.17,-338.075"/>
</g>
<!-- Node27&#45;&gt;Node30 -->
<g id="edge92" class="edge"><title>Node27&#45;&gt;Node30</title>
<path fill="none" stroke="midnightblue" d="M1182.08,-329.382C1200.72,-326.328 1221.11,-323.404 1240,-321.575 1370.08,-308.983 1522.7,-306.967 1609.71,-307.016"/>
<polygon fill="midnightblue" stroke="midnightblue" points="1181.5,-325.93 1172.21,-331.036 1182.66,-332.834 1181.5,-325.93"/>
</g>
<!-- Node32 -->
<g id="node74" class="node"><title>Node32</title>
<a xlink:href="classtetgenmesh.xhtml#a477bbfde72103de66546d4ea3343b4a1" target="_top" xlink:title="tetgenmesh::delaunayrefinement">
<polygon fill="none" stroke="black" points="1952,-331.075 1952,-352.075 2110,-352.075 2110,-331.075 1952,-331.075"/>
<text text-anchor="middle" x="2031" y="-339.075" font-family="Helvetica,sans-Serif" font-size="10.00">tetgenmesh::delaunayrefinement</text>
</a>
</g>
<!-- Node27&#45;&gt;Node32 -->
<g id="edge94" class="edge"><title>Node27&#45;&gt;Node32</title>
<path fill="none" stroke="midnightblue" d="M1171.52,-354.35C1235.77,-368.693 1345.94,-391.071 1442,-399.575 1652.27,-418.19 1707.72,-403.864 1916,-369.575 1942.36,-365.236 1971.6,-358.083 1994,-352.093"/>
<polygon fill="midnightblue" stroke="midnightblue" points="1172.14,-350.901 1161.61,-352.12 1170.6,-357.731 1172.14,-350.901"/>
</g>
<!-- Node29 -->
<g id="node68" class="node"><title>Node29</title>
<a xlink:href="classtetgenmesh.xhtml#a701d4f317ed66df6a2e2b7b237e2386a" target="_top" xlink:title="tetgenmesh::repairencfacs">
<polygon fill="none" stroke="black" points="1442,-369.075 1442,-390.075 1574,-390.075 1574,-369.075 1442,-369.075"/>
<text text-anchor="middle" x="1508" y="-377.075" font-family="Helvetica,sans-Serif" font-size="10.00">tetgenmesh::repairencfacs</text>
</a>
</g>
<!-- Node28&#45;&gt;Node29 -->
<g id="edge78" class="edge"><title>Node28&#45;&gt;Node29</title>
<path fill="none" stroke="midnightblue" d="M1384.38,-354.183C1407.84,-359.002 1434.32,-364.442 1456.74,-369.047"/>
<polygon fill="midnightblue" stroke="midnightblue" points="1385.03,-350.744 1374.53,-352.16 1383.62,-357.601 1385.03,-350.744"/>
</g>
<!-- Node28&#45;&gt;Node30 -->
<g id="edge90" class="edge"><title>Node28&#45;&gt;Node30</title>
<path fill="none" stroke="midnightblue" d="M1396.2,-334.604C1458.81,-328.641 1548.32,-320.116 1609.99,-314.243"/>
<polygon fill="midnightblue" stroke="midnightblue" points="1395.63,-331.142 1386,-335.575 1396.29,-338.111 1395.63,-331.142"/>
</g>
<!-- Node29&#45;&gt;Node30 -->
<g id="edge80" class="edge"><title>Node29&#45;&gt;Node30</title>
<path fill="none" stroke="midnightblue" d="M1546.58,-365.369C1555.62,-361.93 1565.18,-358.199 1574,-354.575 1602.86,-342.72 1635.63,-327.991 1657,-318.214"/>
<polygon fill="midnightblue" stroke="midnightblue" points="1545.17,-362.162 1537.05,-368.967 1547.64,-368.711 1545.17,-362.162"/>
</g>
<!-- Node29&#45;&gt;Node32 -->
<g id="edge88" class="edge"><title>Node29&#45;&gt;Node32</title>
<path fill="none" stroke="midnightblue" d="M1584.38,-374.025C1682.53,-366.894 1852.09,-354.575 1951.65,-347.341"/>
<polygon fill="midnightblue" stroke="midnightblue" points="1583.96,-370.547 1574.24,-374.762 1584.47,-377.528 1583.96,-370.547"/>
</g>
<!-- Node31 -->
<g id="node72" class="node"><title>Node31</title>
<a xlink:href="classtetgenmesh.xhtml#a7c46c82d83099214115fa9719aefbd78" target="_top" xlink:title="tetgenmesh::repairbadtets">
<polygon fill="none" stroke="black" points="1786,-302.075 1786,-323.075 1916,-323.075 1916,-302.075 1786,-302.075"/>
<text text-anchor="middle" x="1851" y="-310.075" font-family="Helvetica,sans-Serif" font-size="10.00">tetgenmesh::repairbadtets</text>
</a>
</g>
<!-- Node30&#45;&gt;Node31 -->
<g id="edge82" class="edge"><title>Node30&#45;&gt;Node31</title>
<path fill="none" stroke="midnightblue" d="M1760.08,-309.917C1768.68,-310.168 1777.35,-310.422 1785.74,-310.667"/>
<polygon fill="midnightblue" stroke="midnightblue" points="1760.14,-306.417 1750.05,-309.623 1759.94,-313.414 1760.14,-306.417"/>
</g>
<!-- Node31&#45;&gt;Node32 -->
<g id="edge84" class="edge"><title>Node31&#45;&gt;Node32</title>
<path fill="none" stroke="midnightblue" d="M1926.17,-324.686C1939.29,-326.8 1952.85,-328.984 1965.68,-331.052"/>
<polygon fill="midnightblue" stroke="midnightblue" points="1926.67,-321.221 1916.24,-323.086 1925.55,-328.132 1926.67,-321.221"/>
</g>
<!-- Node32&#45;&gt;Node6 -->
<g id="edge86" class="edge"><title>Node32&#45;&gt;Node6</title>
<path fill="none" stroke="midnightblue" d="M2056.58,-325.522C2087.93,-305.857 2140.15,-273.089 2166.97,-256.263"/>
<polygon fill="midnightblue" stroke="midnightblue" points="2054.57,-322.655 2047.96,-330.935 2058.29,-328.584 2054.57,-322.655"/>
</g>
<!-- Node33&#45;&gt;Node6 -->
<g id="edge106" class="edge"><title>Node33&#45;&gt;Node6</title>
<path fill="none" stroke="midnightblue" d="M989.759,-71.5751C1073.71,-71.5751 1207.39,-71.5751 1323,-71.5751 1323,-71.5751 1323,-71.5751 1851,-71.5751 1966.78,-71.5751 2014.75,-33.7526 2110,-99.5751 2158.16,-132.855 2176.73,-207.113 2182.15,-234.851"/>
<polygon fill="midnightblue" stroke="midnightblue" points="989.519,-68.0752 979.519,-71.5751 989.519,-75.0752 989.519,-68.0752"/>
</g>
<!-- Node35 -->
<g id="node91" class="node"><title>Node35</title>
<a xlink:href="classtetgenmesh.xhtml#a8bb5c6ad8ccfa57f2a84e5a78295b263" target="_top" xlink:title="tetgenmesh::optimizemesh">
<polygon fill="none" stroke="black" points="1613,-22.0751 1613,-43.0751 1747,-43.0751 1747,-22.0751 1613,-22.0751"/>
<text text-anchor="middle" x="1680" y="-30.0751" font-family="Helvetica,sans-Serif" font-size="10.00">tetgenmesh::optimizemesh</text>
</a>
</g>
<!-- Node34&#45;&gt;Node35 -->
<g id="edge112" class="edge"><title>Node34&#45;&gt;Node35</title>
<path fill="none" stroke="midnightblue" d="M1415.94,-32.5751C1477.67,-32.5751 1557.28,-32.5751 1612.88,-32.5751"/>
<polygon fill="midnightblue" stroke="midnightblue" points="1415.8,-29.0752 1405.8,-32.5751 1415.8,-36.0752 1415.8,-29.0752"/>
</g>
<!-- Node35&#45;&gt;Node6 -->
<g id="edge114" class="edge"><title>Node35&#45;&gt;Node6</title>
<path fill="none" stroke="midnightblue" d="M1729.4,-19.7827C1815.68,-0.55219 1995.54,25.347 2110,-57.5751 2170.22,-101.201 2181.45,-201.5 2183.53,-234.689"/>
<polygon fill="midnightblue" stroke="midnightblue" points="1728.57,-16.3829 1719.6,-22.0284 1730.13,-23.206 1728.57,-16.3829"/>
</g>
</g>
</svg>
