<?xml version="1.0" encoding="UTF-8" standalone="no"?>
<!DOCTYPE svg PUBLIC "-//W3C//DTD SVG 1.1//EN"
 "http://www.w3.org/Graphics/SVG/1.1/DTD/svg11.dtd">
<!-- Generated by graphviz version 2.26.3 (20100126.1600)
 -->
<!-- Title: tetgenmesh::tetaspectratio Pages: 1 -->
<svg width="418pt" height="108pt"
 viewBox="0.00 0.00 418.00 108.00" xmlns="http://www.w3.org/2000/svg" xmlns:xlink="http://www.w3.org/1999/xlink">
<g id="graph1" class="graph" transform="scale(1 1) rotate(0) translate(4 104)">
<title>tetgenmesh::tetaspectratio</title>
<!-- Node1 -->
<g id="node1" class="node"><title>Node1</title>
<polygon fill="#bfbfbf" stroke="black" points="0.5,-39.5 0.5,-60.5 133.5,-60.5 133.5,-39.5 0.5,-39.5"/>
<text text-anchor="middle" x="67" y="-47.5" font-family="Helvetica,sans-Serif" font-size="10.00">tetgenmesh::tetaspectratio</text>
</g>
<!-- Node2 -->
<g id="node3" class="node"><title>Node2</title>
<a xlink:href="classtetgenmesh.xhtml#abc03dce4c75ad6ba7086269b1a71fd8b" target="_top" xlink:title="tetgenmesh::lu_decmp">
<polygon fill="none" stroke="black" points="170,-78.5 170,-99.5 286,-99.5 286,-78.5 170,-78.5"/>
<text text-anchor="middle" x="228" y="-86.5" font-family="Helvetica,sans-Serif" font-size="10.00">tetgenmesh::lu_decmp</text>
</a>
</g>
<!-- Node1&#45;&gt;Node2 -->
<g id="edge2" class="edge"><title>Node1&#45;&gt;Node2</title>
<path fill="none" stroke="midnightblue" d="M110.569,-60.554C130.256,-65.323 153.707,-71.0035 174.456,-76.0296"/>
<polygon fill="midnightblue" stroke="midnightblue" points="173.853,-79.4849 184.396,-78.4376 175.501,-72.6816 173.853,-79.4849"/>
</g>
<!-- Node3 -->
<g id="node5" class="node"><title>Node3</title>
<a xlink:href="classtetgenmesh.xhtml#afa0906703b590597155547336c360004" target="_top" xlink:title="tetgenmesh::dot">
<polygon fill="none" stroke="black" points="322.5,-19.5 322.5,-40.5 409.5,-40.5 409.5,-19.5 322.5,-19.5"/>
<text text-anchor="middle" x="366" y="-27.5" font-family="Helvetica,sans-Serif" font-size="10.00">tetgenmesh::dot</text>
</a>
</g>
<!-- Node1&#45;&gt;Node3 -->
<g id="edge4" class="edge"><title>Node1&#45;&gt;Node3</title>
<path fill="none" stroke="midnightblue" d="M133.729,-45.5365C187.398,-41.9466 261.847,-36.9668 311.859,-33.6215"/>
<polygon fill="midnightblue" stroke="midnightblue" points="312.4,-37.0932 322.144,-32.9335 311.932,-30.1088 312.4,-37.0932"/>
</g>
<!-- Node4 -->
<g id="node7" class="node"><title>Node4</title>
<a xlink:href="classtetgenmesh.xhtml#a6a19601c86a49eed0d2273f1d3b69826" target="_top" xlink:title="tetgenmesh::lu_solve">
<polygon fill="none" stroke="black" points="173,-0.5 173,-21.5 283,-21.5 283,-0.5 173,-0.5"/>
<text text-anchor="middle" x="228" y="-8.5" font-family="Helvetica,sans-Serif" font-size="10.00">tetgenmesh::lu_solve</text>
</a>
</g>
<!-- Node1&#45;&gt;Node4 -->
<g id="edge6" class="edge"><title>Node1&#45;&gt;Node4</title>
<path fill="none" stroke="midnightblue" d="M110.569,-39.446C130.256,-34.677 153.707,-28.9965 174.456,-23.9704"/>
<polygon fill="midnightblue" stroke="midnightblue" points="175.501,-27.3184 184.396,-21.5624 173.853,-20.5151 175.501,-27.3184"/>
</g>
<!-- Node4&#45;&gt;Node3 -->
<g id="edge8" class="edge"><title>Node4&#45;&gt;Node3</title>
<path fill="none" stroke="midnightblue" d="M283.335,-18.6185C292.806,-19.9226 302.636,-21.276 312.07,-22.5749"/>
<polygon fill="midnightblue" stroke="midnightblue" points="311.733,-26.0614 322.117,-23.9581 312.688,-19.1268 311.733,-26.0614"/>
</g>
</g>
</svg>
