<?xml version="1.0" encoding="UTF-8" standalone="no"?>
<!DOCTYPE svg PUBLIC "-//W3C//DTD SVG 1.1//EN"
 "http://www.w3.org/Graphics/SVG/1.1/DTD/svg11.dtd">
<!-- Generated by graphviz version 2.26.3 (20100126.1600)
 -->
<!-- Title: Interpolator::interpolateTet Pages: 1 -->
<!--zoomable 186 -->
<svg id="main" version="1.1" xmlns="http://www.w3.org/2000/svg" xmlns:xlink="http://www.w3.org/1999/xlink" xml:space="preserve" onload="init(evt)">
<style type="text/css"><![CDATA[
.edge:hover path { stroke: red; }
.edge:hover polygon { stroke: red; fill: red; }
]]></style>
<script type="text/javascript"><![CDATA[
var edges = document.getElementsByTagName('g');
if (edges && edges.length) {
  for (var i=0;i<edges.length;i++) {
    if (edges[i].id.substr(0,4)=='edge') {
      edges[i].setAttribute('class','edge');
    }
  }
}
]]></script>
        <defs>
                <circle id="rim" cx="0" cy="0" r="7"/>
                <circle id="rim2" cx="0" cy="0" r="3.5"/>
                <g id="zoomPlus">
                        <use xlink:href="#rim" fill="#404040">
                                <set attributeName="fill" to="#808080" begin="zoomplus.mouseover" end="zoomplus.mouseout"/>
                        </use>
                        <path d="M-4,0h8M0,-4v8" fill="none" stroke="white" stroke-width="1.5" pointer-events="none"/>
                </g>
                <g id="zoomMin">
                        <use xlink:href="#rim" fill="#404040">
                                <set attributeName="fill" to="#808080" begin="zoomminus.mouseover" end="zoomminus.mouseout"/>
                        </use>
                        <path d="M-4,0h8" fill="none" stroke="white" stroke-width="1.5" pointer-events="none"/>
                </g>
                <g id="dirArrow">
                        <path fill="none" stroke="white" stroke-width="1.5" d="M0,-3.0v7 M-2.5,-0.5L0,-3.0L2.5,-0.5"/>
                </g>
               <g id="resetDef">
                       <use xlink:href="#rim2" fill="#404040">
                               <set attributeName="fill" to="#808080" begin="reset.mouseover" end="reset.mouseout"/>
                       </use>
               </g>
        </defs>

<script type="text/javascript">
var viewWidth = 944;
var viewHeight = 186;
var sectionId = 'dynsection-1';
</script>
<script xlink:href="svgpan.js"/>
<svg id="graph" class="graph">
<g id="viewport">
<title>Interpolator::interpolateTet</title>
<!-- Node1 -->
<g id="node1" class="node"><title>Node1</title>
<polygon fill="#bfbfbf" stroke="black" points="0.5,-98.5 0.5,-119.5 131.5,-119.5 131.5,-98.5 0.5,-98.5"/>
<text text-anchor="middle" x="66" y="-106.5" font-family="Helvetica,sans-Serif" font-size="10.00">Interpolator::interpolateTet</text>
</g>
<!-- Node2 -->
<g id="node3" class="node"><title>Node2</title>
<a xlink:href="namespaceUtils.xhtml#a6a0ae18a42e2d206bc1b43da27820fe2" target="_top" xlink:title="Gibt den inter/extrapolierten Wert eines Punktes zurück. ">
<polygon fill="none" stroke="black" points="168,-98.5 168,-119.5 272,-119.5 272,-98.5 168,-98.5"/>
<text text-anchor="middle" x="220" y="-106.5" font-family="Helvetica,sans-Serif" font-size="10.00">Utils::getPointValue</text>
</a>
</g>
<!-- Node1&#45;&gt;Node2 -->
<g id="edge2" class="edge"><title>Node1&#45;&gt;Node2</title>
<path fill="none" stroke="midnightblue" d="M142.028,-109C150.807,-109 159.603,-109 167.96,-109"/>
<polygon fill="midnightblue" stroke="midnightblue" points="141.757,-105.5 131.757,-109 141.757,-112.5 141.757,-105.5"/>
</g>
<!-- Node3 -->
<g id="node5" class="node"><title>Node3</title>
<a xlink:href="GUICutRenderWindow_8cpp.xhtml#aeaaae4c8452680389d221d0e60a6fc33" target="_top" xlink:title="Funktion zum verteilten berechnen der 2D&#45;Temperaturverteilung. ">
<polygon fill="none" stroke="black" points="329,-144.5 329,-165.5 405,-165.5 405,-144.5 329,-144.5"/>
<text text-anchor="middle" x="367" y="-152.5" font-family="Helvetica,sans-Serif" font-size="10.00">render_thread</text>
</a>
</g>
<!-- Node2&#45;&gt;Node3 -->
<g id="edge4" class="edge"><title>Node2&#45;&gt;Node3</title>
<path fill="none" stroke="midnightblue" d="M263.335,-122.561C285.728,-129.568 312.641,-137.99 333.432,-144.496"/>
<polygon fill="midnightblue" stroke="midnightblue" points="264.314,-119.2 253.725,-119.553 262.223,-125.88 264.314,-119.2"/>
</g>
<!-- Node6 -->
<g id="node11" class="node"><title>Node6</title>
<a xlink:href="classAnalyzer.xhtml#a8f73ee0aa71ae395a74b43dc76b35458" target="_top" xlink:title="Ermittelt Daten für einen Punkt am aktuell ausgewählten Zeitpunkt. ">
<polygon fill="none" stroke="black" points="308.5,-98.5 308.5,-119.5 425.5,-119.5 425.5,-98.5 308.5,-98.5"/>
<text text-anchor="middle" x="367" y="-106.5" font-family="Helvetica,sans-Serif" font-size="10.00">Analyzer::analyzePoint</text>
</a>
</g>
<!-- Node2&#45;&gt;Node6 -->
<g id="edge10" class="edge"><title>Node2&#45;&gt;Node6</title>
<path fill="none" stroke="midnightblue" d="M282.285,-109C290.951,-109 299.829,-109 308.423,-109"/>
<polygon fill="midnightblue" stroke="midnightblue" points="282.241,-105.5 272.241,-109 282.241,-112.5 282.241,-105.5"/>
</g>
<!-- Node8 -->
<g id="node15" class="node"><title>Node8</title>
<a xlink:href="MeshProcessor_8cpp.xhtml#ad2670c4e8381f9a0a89c65f5559ed421" target="_top" xlink:title="interpolatePoint">
<polygon fill="none" stroke="black" points="325,-55.5 325,-76.5 409,-76.5 409,-55.5 325,-55.5"/>
<text text-anchor="middle" x="367" y="-63.5" font-family="Helvetica,sans-Serif" font-size="10.00">interpolatePoint</text>
</a>
</g>
<!-- Node2&#45;&gt;Node8 -->
<g id="edge14" class="edge"><title>Node2&#45;&gt;Node8</title>
<path fill="none" stroke="midnightblue" d="M265.639,-95.6499C286.644,-89.5054 311.213,-82.3185 330.902,-76.5594"/>
<polygon fill="midnightblue" stroke="midnightblue" points="264.575,-92.3142 255.96,-98.481 266.541,-99.0327 264.575,-92.3142"/>
</g>
<!-- Node4 -->
<g id="node7" class="node"><title>Node4</title>
<a xlink:href="classGUICutRenderWindow.xhtml#a9eedb7088ad31f4680a77ed3a06fa60c" target="_top" xlink:title="Berechnet die 2D&#45;Temperaturverteilung als Grafik. ">
<polygon fill="none" stroke="black" points="467.5,-144 467.5,-178 584.5,-178 584.5,-144 467.5,-144"/>
<text text-anchor="start" x="475.5" y="-165" font-family="Helvetica,sans-Serif" font-size="10.00">GUICutRenderWindow</text>
<text text-anchor="middle" x="526" y="-152" font-family="Helvetica,sans-Serif" font-size="10.00">::renderImage</text>
</a>
</g>
<!-- Node3&#45;&gt;Node4 -->
<g id="edge6" class="edge"><title>Node3&#45;&gt;Node4</title>
<path fill="none" stroke="midnightblue" d="M415.51,-156.831C431.887,-157.449 450.343,-158.145 467.414,-158.789"/>
<polygon fill="midnightblue" stroke="midnightblue" points="415.209,-153.317 405.084,-156.437 414.945,-160.312 415.209,-153.317"/>
</g>
<!-- Node5 -->
<g id="node9" class="node"><title>Node5</title>
<a xlink:href="classGUICutRenderWindow.xhtml#a7cd1bfbec53756a1cbbe1616b4d46c7a" target="_top" xlink:title="Behandelt das Drücken des Buttons zur Berechnung der zweidimensionalen Temperaturverteilung. ">
<polygon fill="none" stroke="black" points="629.5,-144 629.5,-178 746.5,-178 746.5,-144 629.5,-144"/>
<text text-anchor="start" x="637.5" y="-165" font-family="Helvetica,sans-Serif" font-size="10.00">GUICutRenderWindow</text>
<text text-anchor="middle" x="688" y="-152" font-family="Helvetica,sans-Serif" font-size="10.00">::renderCutBtClick</text>
</a>
</g>
<!-- Node4&#45;&gt;Node5 -->
<g id="edge8" class="edge"><title>Node4&#45;&gt;Node5</title>
<path fill="none" stroke="midnightblue" d="M595.263,-161C606.624,-161 618.3,-161 629.371,-161"/>
<polygon fill="midnightblue" stroke="midnightblue" points="594.944,-157.5 584.944,-161 594.944,-164.5 594.944,-157.5"/>
</g>
<!-- Node7 -->
<g id="node13" class="node"><title>Node7</title>
<a xlink:href="classGUIAnalyzePointWindow.xhtml#aa84ea9958e8b41423f01316d01ba5151" target="_top" xlink:title="Event&#45;Tabellendeklaration für wxWidgets. ">
<polygon fill="none" stroke="black" points="462,-92 462,-126 590,-126 590,-92 462,-92"/>
<text text-anchor="start" x="470" y="-113" font-family="Helvetica,sans-Serif" font-size="10.00">GUIAnalyzePointWindow</text>
<text text-anchor="middle" x="526" y="-100" font-family="Helvetica,sans-Serif" font-size="10.00">::analyzePoint</text>
</a>
</g>
<!-- Node6&#45;&gt;Node7 -->
<g id="edge12" class="edge"><title>Node6&#45;&gt;Node7</title>
<path fill="none" stroke="midnightblue" d="M435.811,-109C444.466,-109 453.294,-109 461.874,-109"/>
<polygon fill="midnightblue" stroke="midnightblue" points="435.754,-105.5 425.754,-109 435.754,-112.5 435.754,-105.5"/>
</g>
<!-- Node9 -->
<g id="node17" class="node"><title>Node9</title>
<a xlink:href="classMeshProcessor.xhtml#a060c3815db33f8e52ac620ed2239ccc9" target="_top" xlink:title="Berechnet die Temperaturverteilung für ein Objekt. ">
<polygon fill="none" stroke="black" points="463.5,-52.5 463.5,-73.5 588.5,-73.5 588.5,-52.5 463.5,-52.5"/>
<text text-anchor="middle" x="526" y="-60.5" font-family="Helvetica,sans-Serif" font-size="10.00">MeshProcessor::process</text>
</a>
</g>
<!-- Node8&#45;&gt;Node9 -->
<g id="edge16" class="edge"><title>Node8&#45;&gt;Node9</title>
<path fill="none" stroke="midnightblue" d="M419.595,-65.0076C433.564,-64.7441 448.789,-64.4568 463.241,-64.1841"/>
<polygon fill="midnightblue" stroke="midnightblue" points="419.124,-61.5158 409.192,-65.2039 419.256,-68.5146 419.124,-61.5158"/>
</g>
<!-- Node10 -->
<g id="node19" class="node"><title>Node10</title>
<a xlink:href="classAnalyzer.xhtml#a2a7b5f169f664ccd9f206e508cba78ef" target="_top" xlink:title="Ermittelt Daten für ein Objekt. ">
<polygon fill="none" stroke="black" points="626.5,-72.5 626.5,-93.5 749.5,-93.5 749.5,-72.5 626.5,-72.5"/>
<text text-anchor="middle" x="688" y="-80.5" font-family="Helvetica,sans-Serif" font-size="10.00">Analyzer::analyzeObject</text>
</a>
</g>
<!-- Node9&#45;&gt;Node10 -->
<g id="edge18" class="edge"><title>Node9&#45;&gt;Node10</title>
<path fill="none" stroke="midnightblue" d="M598.6,-71.963C607.86,-73.1062 617.268,-74.2677 626.333,-75.3868"/>
<polygon fill="midnightblue" stroke="midnightblue" points="598.987,-68.4842 588.633,-70.7325 598.129,-75.4315 598.987,-68.4842"/>
</g>
<!-- Node13 -->
<g id="node25" class="node"><title>Node13</title>
<a xlink:href="classObjectData.xhtml#af3a850833d08eb9b45357449f455e24d" target="_top" xlink:title="Zerlegt das Objekt in Tetraeder (Schnittstelle zur Tetgen&#45;Bibliothek) und Berechnet die Temperaturver...">
<polygon fill="none" stroke="black" points="627,-32.5 627,-53.5 749,-53.5 749,-32.5 627,-32.5"/>
<text text-anchor="middle" x="688" y="-40.5" font-family="Helvetica,sans-Serif" font-size="10.00">ObjectData::calculateIO</text>
</a>
</g>
<!-- Node9&#45;&gt;Node13 -->
<g id="edge24" class="edge"><title>Node9&#45;&gt;Node13</title>
<path fill="none" stroke="midnightblue" d="M598.745,-54.0192C608.14,-52.8593 617.684,-51.681 626.866,-50.5474"/>
<polygon fill="midnightblue" stroke="midnightblue" points="598.129,-50.5685 588.633,-55.2675 598.987,-57.5158 598.129,-50.5685"/>
</g>
<!-- Node11 -->
<g id="node21" class="node"><title>Node11</title>
<a xlink:href="classGUIAnalyzeOutputWindow.xhtml#a9ea5a7cf46d6189f368315903508cecc" target="_top" xlink:title="Methode zum aktualisieren des Fensters, alle Objekte werden erneut analysiert und die aktualisierten ...">
<polygon fill="none" stroke="black" points="794,-92 794,-126 928,-126 928,-92 794,-92"/>
<text text-anchor="start" x="802" y="-113" font-family="Helvetica,sans-Serif" font-size="10.00">GUIAnalyzeOutputWindow</text>
<text text-anchor="middle" x="861" y="-100" font-family="Helvetica,sans-Serif" font-size="10.00">::Update</text>
</a>
</g>
<!-- Node10&#45;&gt;Node11 -->
<g id="edge20" class="edge"><title>Node10&#45;&gt;Node11</title>
<path fill="none" stroke="midnightblue" d="M760.127,-93.8399C771.313,-95.5211 782.83,-97.2519 793.9,-98.9156"/>
<polygon fill="midnightblue" stroke="midnightblue" points="760.377,-90.3383 749.968,-92.3132 759.337,-97.2606 760.377,-90.3383"/>
</g>
<!-- Node12 -->
<g id="node23" class="node"><title>Node12</title>
<a xlink:href="classGUITimeline.xhtml#a099f3654aa6e7ea04df861851a0e9ec8" target="_top" xlink:title="Sucht den Zeitpunkt zwischen zwei markierten Stellen auf der Sensordaten&#45;Zeitleiste, für den der Wäremeenergiegehalt maximal wird. ">
<polygon fill="none" stroke="black" points="792.5,-52.5 792.5,-73.5 929.5,-73.5 929.5,-52.5 792.5,-52.5"/>
<text text-anchor="middle" x="861" y="-60.5" font-family="Helvetica,sans-Serif" font-size="10.00">GUITimeline::findMaxValue</text>
</a>
</g>
<!-- Node10&#45;&gt;Node12 -->
<g id="edge22" class="edge"><title>Node10&#45;&gt;Node12</title>
<path fill="none" stroke="midnightblue" d="M760.108,-74.6638C770.804,-73.4273 781.801,-72.1559 792.422,-70.9281"/>
<polygon fill="midnightblue" stroke="midnightblue" points="759.5,-71.2107 749.968,-75.836 760.304,-78.1644 759.5,-71.2107"/>
</g>
<!-- Node13&#45;&gt;Node12 -->
<g id="edge28" class="edge"><title>Node13&#45;&gt;Node12</title>
<path fill="none" stroke="midnightblue" d="M759.714,-51.2906C770.512,-52.539 781.628,-53.824 792.36,-55.0647"/>
<polygon fill="midnightblue" stroke="midnightblue" points="759.816,-47.7792 749.48,-50.1076 759.012,-54.7329 759.816,-47.7792"/>
</g>
<!-- Node14 -->
<g id="node27" class="node"><title>Node14</title>
<a xlink:href="classGUIMainWindow.xhtml#a0c2de30274c7f52ff74ec1217e47a9e5" target="_top" xlink:title="Berechnet die 3D&#45;Temperaturverteilung neu. ">
<polygon fill="none" stroke="black" points="786,-0 786,-34 936,-34 936,-0 786,-0"/>
<text text-anchor="start" x="794" y="-21" font-family="Helvetica,sans-Serif" font-size="10.00">GUIMainWindow::OnRecalcBt</text>
<text text-anchor="middle" x="861" y="-8" font-family="Helvetica,sans-Serif" font-size="10.00">Click</text>
</a>
</g>
<!-- Node13&#45;&gt;Node14 -->
<g id="edge26" class="edge"><title>Node13&#45;&gt;Node14</title>
<path fill="none" stroke="midnightblue" d="M759.534,-32.2492C768.197,-30.9472 777.067,-29.6141 785.782,-28.3044"/>
<polygon fill="midnightblue" stroke="midnightblue" points="758.849,-28.8128 749.48,-33.7602 759.89,-35.735 758.849,-28.8128"/>
</g>
</g>
</svg>
        <g id="navigator" transform="translate(0 0)" fill="#404254">
                <rect fill="#f2f5e9" fill-opacity="0.5" stroke="#606060" stroke-width=".5" x="0" y="0" width="60" height="60"/>
                <use id="zoomplus" xlink:href="#zoomPlus" x="17" y="9" onmousedown="handleZoom(evt,'in')"/>
                <use id="zoomminus" xlink:href="#zoomMin" x="42" y="9" onmousedown="handleZoom(evt,'out')"/>
                <use id="reset" xlink:href="#resetDef" x="30" y="36" onmousedown="handleReset()"/>
                <g id="arrowUp" xlink:href="#dirArrow" transform="translate(30 24)" onmousedown="handlePan(0,-1)">
                  <use xlink:href="#rim" fill="#404040">
                        <set attributeName="fill" to="#808080" begin="arrowUp.mouseover" end="arrowUp.mouseout"/>
                  </use>
                  <path fill="none" stroke="white" stroke-width="1.5" d="M0,-3.0v7 M-2.5,-0.5L0,-3.0L2.5,-0.5"/>
                </g>
                <g id="arrowRight" xlink:href="#dirArrow" transform="rotate(90) translate(36 -43)" onmousedown="handlePan(1,0)">
                  <use xlink:href="#rim" fill="#404040">
                        <set attributeName="fill" to="#808080" begin="arrowRight.mouseover" end="arrowRight.mouseout"/>
                  </use>
                  <path fill="none" stroke="white" stroke-width="1.5" d="M0,-3.0v7 M-2.5,-0.5L0,-3.0L2.5,-0.5"/>
                </g>
                <g id="arrowDown" xlink:href="#dirArrow" transform="rotate(180) translate(-30 -48)" onmousedown="handlePan(0,1)">
                  <use xlink:href="#rim" fill="#404040">
                        <set attributeName="fill" to="#808080" begin="arrowDown.mouseover" end="arrowDown.mouseout"/>
                  </use>
                  <path fill="none" stroke="white" stroke-width="1.5" d="M0,-3.0v7 M-2.5,-0.5L0,-3.0L2.5,-0.5"/>
                </g>
                <g id="arrowLeft" xlink:href="#dirArrow" transform="rotate(270) translate(-36 17)" onmousedown="handlePan(-1,0)">
                  <use xlink:href="#rim" fill="#404040">
                        <set attributeName="fill" to="#808080" begin="arrowLeft.mouseover" end="arrowLeft.mouseout"/>
                  </use>
                  <path fill="none" stroke="white" stroke-width="1.5" d="M0,-3.0v7 M-2.5,-0.5L0,-3.0L2.5,-0.5"/>
                </g>
        </g>
        <svg viewBox="0 0 15 15" width="100%" height="30px" preserveAspectRatio="xMaxYMin meet">
         <g id="arrow_out" transform="scale(0.3 0.3)">
          <a xlink:href="classInterpolator_a30e714ca6dff9b5745d029f95af1420a_icgraph_org.svg" target="_base">
           <rect id="button" ry="5" rx="5" y="6" x="6" height="38" width="38"
                fill="#f2f5e9" fill-opacity="0.5" stroke="#606060" stroke-width="1.0"/>
           <path id="arrow"
             d="M 11.500037,31.436501 C 11.940474,20.09759 22.043105,11.32322 32.158766,21.979434 L 37.068811,17.246167 C 37.068811,17.246167 37.088388,32 37.088388,32 L 22.160133,31.978069 C 22.160133,31.978069 26.997745,27.140456 26.997745,27.140456 C 18.528582,18.264221 13.291696,25.230495 11.500037,31.436501 z"
             style="fill:#404040;"/>
          </a>
         </g>
        </svg>
</svg>
