<?xml version="1.0" encoding="UTF-8" standalone="no"?>
<!DOCTYPE svg PUBLIC "-//W3C//DTD SVG 1.1//EN"
 "http://www.w3.org/Graphics/SVG/1.1/DTD/svg11.dtd">
<!-- Generated by graphviz version 2.26.3 (20100126.1600)
 -->
<!-- Title: tetgenmesh::triface Pages: 1 -->
<svg width="128pt" height="114pt"
 viewBox="0.00 0.00 128.00 114.00" xmlns="http://www.w3.org/2000/svg" xmlns:xlink="http://www.w3.org/1999/xlink">
<g id="graph1" class="graph" transform="scale(1 1) rotate(0) translate(4 110)">
<title>tetgenmesh::triface</title>
<!-- Node1 -->
<g id="node1" class="node"><title>Node1</title>
<polygon fill="#bfbfbf" stroke="black" points="19.5,-0.5 19.5,-21.5 120.5,-21.5 120.5,-0.5 19.5,-0.5"/>
<text text-anchor="middle" x="70" y="-8.5" font-family="Helvetica,sans-Serif" font-size="10.00">tetgenmesh::triface</text>
</g>
<!-- Node2 -->
<g id="node2" class="node"><title>Node2</title>
<polygon fill="none" stroke="#bfbfbf" points="0,-84.5 0,-105.5 72,-105.5 72,-84.5 0,-84.5"/>
<text text-anchor="middle" x="36" y="-92.5" font-family="Helvetica,sans-Serif" font-size="10.00">tetrahedron *</text>
</g>
<!-- Node2&#45;&gt;Node1 -->
<g id="edge2" class="edge"><title>Node2&#45;&gt;Node1</title>
<path fill="none" stroke="#9a32cd" stroke-dasharray="5,2" d="M44.1352,-74.9013C50.9235,-58.1303 60.3301,-34.8903 65.7288,-21.5523"/>
<polygon fill="#9a32cd" stroke="#9a32cd" points="40.8138,-73.7787 40.3061,-84.3613 47.3024,-76.4051 40.8138,-73.7787"/>
<text text-anchor="middle" x="66.5" y="-50.5" font-family="Helvetica,sans-Serif" font-size="10.00"> tet</text>
</g>
<!-- Node3 -->
<g id="node4" class="node"><title>Node3</title>
<polygon fill="none" stroke="#bfbfbf" points="89.5,-84.5 89.5,-105.5 118.5,-105.5 118.5,-84.5 89.5,-84.5"/>
<text text-anchor="middle" x="104" y="-92.5" font-family="Helvetica,sans-Serif" font-size="10.00">int</text>
</g>
<!-- Node3&#45;&gt;Node1 -->
<g id="edge4" class="edge"><title>Node3&#45;&gt;Node1</title>
<path fill="none" stroke="#9a32cd" stroke-dasharray="5,2" d="M95.8648,-74.9013C89.0765,-58.1303 79.6699,-34.8903 74.2712,-21.5523"/>
<polygon fill="#9a32cd" stroke="#9a32cd" points="92.6976,-76.4051 99.6939,-84.3613 99.1862,-73.7787 92.6976,-76.4051"/>
<text text-anchor="middle" x="100" y="-57" font-family="Helvetica,sans-Serif" font-size="10.00"> loc</text>
<text text-anchor="middle" x="100" y="-44" font-family="Helvetica,sans-Serif" font-size="10.00">ver</text>
</g>
</g>
</svg>
