<?xml version="1.0" encoding="UTF-8" standalone="no"?>
<!DOCTYPE svg PUBLIC "-//W3C//DTD SVG 1.1//EN"
 "http://www.w3.org/Graphics/SVG/1.1/DTD/svg11.dtd">
<!-- Generated by graphviz version 2.26.3 (20100126.1600)
 -->
<!-- Title: MeshProcessor::process Pages: 1 -->
<svg width="320pt" height="82pt"
 viewBox="0.00 0.00 320.00 82.00" xmlns="http://www.w3.org/2000/svg" xmlns:xlink="http://www.w3.org/1999/xlink">
<g id="graph1" class="graph" transform="scale(1 1) rotate(0) translate(4 78)">
<title>MeshProcessor::process</title>
<!-- Node1 -->
<g id="node1" class="node"><title>Node1</title>
<polygon fill="#bfbfbf" stroke="black" points="0.5,-29.5 0.5,-50.5 125.5,-50.5 125.5,-29.5 0.5,-29.5"/>
<text text-anchor="middle" x="63" y="-37.5" font-family="Helvetica,sans-Serif" font-size="10.00">MeshProcessor::process</text>
</g>
<!-- Node2 -->
<g id="node3" class="node"><title>Node2</title>
<a xlink:href="classInterpolator.xhtml#a2f9927fc580de7d2f94d85e6ca3ee3e3" target="_top" xlink:title="Interpolator::setMode">
<polygon fill="none" stroke="black" points="182.5,-52.5 182.5,-73.5 291.5,-73.5 291.5,-52.5 182.5,-52.5"/>
<text text-anchor="middle" x="237" y="-60.5" font-family="Helvetica,sans-Serif" font-size="10.00">Interpolator::setMode</text>
</a>
</g>
<!-- Node1&#45;&gt;Node2 -->
<g id="edge2" class="edge"><title>Node1&#45;&gt;Node2</title>
<path fill="none" stroke="midnightblue" d="M125.818,-48.3035C140.845,-50.2899 156.919,-52.4145 172.041,-54.4134"/>
<polygon fill="midnightblue" stroke="midnightblue" points="171.961,-57.9332 182.333,-55.7739 172.878,-50.9936 171.961,-57.9332"/>
</g>
<!-- Node3 -->
<g id="node5" class="node"><title>Node3</title>
<a xlink:href="classObjectData.xhtml#a503d63160a3afe2ea517449f78f8ac42" target="_top" xlink:title="ObjectData::getCurrentSensor\lIndex">
<polygon fill="none" stroke="black" points="162.5,-0 162.5,-34 311.5,-34 311.5,-0 162.5,-0"/>
<text text-anchor="start" x="170.5" y="-21" font-family="Helvetica,sans-Serif" font-size="10.00">ObjectData::getCurrentSensor</text>
<text text-anchor="middle" x="237" y="-8" font-family="Helvetica,sans-Serif" font-size="10.00">Index</text>
</a>
</g>
<!-- Node1&#45;&gt;Node3 -->
<g id="edge4" class="edge"><title>Node1&#45;&gt;Node3</title>
<path fill="none" stroke="midnightblue" d="M125.818,-31.6965C134.447,-30.5559 143.42,-29.3698 152.36,-28.188"/>
<polygon fill="midnightblue" stroke="midnightblue" points="152.964,-31.6387 162.42,-26.8583 152.047,-24.699 152.964,-31.6387"/>
</g>
</g>
</svg>
