<?xml version="1.0" encoding="UTF-8" standalone="no"?>
<!DOCTYPE svg PUBLIC "-//W3C//DTD SVG 1.1//EN"
 "http://www.w3.org/Graphics/SVG/1.1/DTD/svg11.dtd">
<!-- Generated by graphviz version 2.26.3 (20100126.1600)
 -->
<!-- Title: tetgenmesh::setpointmark Pages: 1 -->
<!--zoomable 813 -->
<svg id="main" version="1.1" xmlns="http://www.w3.org/2000/svg" xmlns:xlink="http://www.w3.org/1999/xlink" xml:space="preserve" onload="init(evt)">
<style type="text/css"><![CDATA[
.edge:hover path { stroke: red; }
.edge:hover polygon { stroke: red; fill: red; }
]]></style>
<script type="text/javascript"><![CDATA[
var edges = document.getElementsByTagName('g');
if (edges && edges.length) {
  for (var i=0;i<edges.length;i++) {
    if (edges[i].id.substr(0,4)=='edge') {
      edges[i].setAttribute('class','edge');
    }
  }
}
]]></script>
        <defs>
                <circle id="rim" cx="0" cy="0" r="7"/>
                <circle id="rim2" cx="0" cy="0" r="3.5"/>
                <g id="zoomPlus">
                        <use xlink:href="#rim" fill="#404040">
                                <set attributeName="fill" to="#808080" begin="zoomplus.mouseover" end="zoomplus.mouseout"/>
                        </use>
                        <path d="M-4,0h8M0,-4v8" fill="none" stroke="white" stroke-width="1.5" pointer-events="none"/>
                </g>
                <g id="zoomMin">
                        <use xlink:href="#rim" fill="#404040">
                                <set attributeName="fill" to="#808080" begin="zoomminus.mouseover" end="zoomminus.mouseout"/>
                        </use>
                        <path d="M-4,0h8" fill="none" stroke="white" stroke-width="1.5" pointer-events="none"/>
                </g>
                <g id="dirArrow">
                        <path fill="none" stroke="white" stroke-width="1.5" d="M0,-3.0v7 M-2.5,-0.5L0,-3.0L2.5,-0.5"/>
                </g>
               <g id="resetDef">
                       <use xlink:href="#rim2" fill="#404040">
                               <set attributeName="fill" to="#808080" begin="reset.mouseover" end="reset.mouseout"/>
                       </use>
               </g>
        </defs>

<script type="text/javascript">
var viewWidth = 2154;
var viewHeight = 813;
var sectionId = 'dynsection-398';
</script>
<script xlink:href="svgpan.js"/>
<svg id="graph" class="graph">
<g id="viewport">
<title>tetgenmesh::setpointmark</title>
<!-- Node1 -->
<g id="node1" class="node"><title>Node1</title>
<polygon fill="#bfbfbf" stroke="black" points="0,-65.6679 0,-86.6679 130,-86.6679 130,-65.6679 0,-65.6679"/>
<text text-anchor="middle" x="65" y="-73.6679" font-family="Helvetica,sans-Serif" font-size="10.00">tetgenmesh::setpointmark</text>
</g>
<!-- Node2 -->
<g id="node3" class="node"><title>Node2</title>
<a xlink:href="classtetgenmesh.xhtml#ac6115b981e63664fe06c4a1d4b541737" target="_top" xlink:title="tetgenmesh::makepoint">
<polygon fill="none" stroke="black" points="176.5,-363.668 176.5,-384.668 295.5,-384.668 295.5,-363.668 176.5,-363.668"/>
<text text-anchor="middle" x="236" y="-371.668" font-family="Helvetica,sans-Serif" font-size="10.00">tetgenmesh::makepoint</text>
</a>
</g>
<!-- Node1&#45;&gt;Node2 -->
<g id="edge2" class="edge"><title>Node1&#45;&gt;Node2</title>
<path fill="none" stroke="midnightblue" d="M76.1216,-95.5494C108.919,-152.704 204.527,-319.32 229.808,-363.378"/>
<polygon fill="midnightblue" stroke="midnightblue" points="79.0988,-93.7054 71.086,-86.7739 73.0274,-97.1893 79.0988,-93.7054"/>
</g>
<!-- Node35 -->
<g id="node87" class="node"><title>Node35</title>
<a xlink:href="classtetgenmesh.xhtml#a0ed29d97e57db7035017c312dc6aaa2f" target="_top" xlink:title="tetgenmesh::initializepools">
<polygon fill="none" stroke="black" points="1545,-123.668 1545,-144.668 1677,-144.668 1677,-123.668 1545,-123.668"/>
<text text-anchor="middle" x="1611" y="-131.668" font-family="Helvetica,sans-Serif" font-size="10.00">tetgenmesh::initializepools</text>
</a>
</g>
<!-- Node1&#45;&gt;Node35 -->
<g id="edge104" class="edge"><title>Node1&#45;&gt;Node35</title>
<path fill="none" stroke="midnightblue" d="M140.14,-82.3823C213.7,-87.9244 328.975,-95.1679 429,-95.1679 429,-95.1679 429,-95.1679 1258,-95.1679 1362.05,-95.1679 1482.31,-112.114 1552.2,-123.665"/>
<polygon fill="midnightblue" stroke="midnightblue" points="140.28,-78.8829 130.043,-81.6125 139.748,-85.8627 140.28,-78.8829"/>
</g>
<!-- Node36 -->
<g id="node90" class="node"><title>Node36</title>
<a xlink:href="classtetgenmesh.xhtml#a2ceb55fb1e757b0083a41ad34aabab56" target="_top" xlink:title="tetgenmesh::jettisonnodes">
<polygon fill="none" stroke="black" points="1364.5,-45.6679 1364.5,-66.6679 1495.5,-66.6679 1495.5,-45.6679 1364.5,-45.6679"/>
<text text-anchor="middle" x="1430" y="-53.6679" font-family="Helvetica,sans-Serif" font-size="10.00">tetgenmesh::jettisonnodes</text>
</a>
</g>
<!-- Node1&#45;&gt;Node36 -->
<g id="edge108" class="edge"><title>Node1&#45;&gt;Node36</title>
<path fill="none" stroke="midnightblue" d="M140.14,-69.9535C213.7,-64.4114 328.975,-57.1679 429,-57.1679 429,-57.1679 429,-57.1679 1067,-57.1679 1170.98,-57.1679 1291.72,-56.7525 1364.42,-56.4571"/>
<polygon fill="midnightblue" stroke="midnightblue" points="139.748,-66.4731 130.043,-70.7233 140.28,-73.4528 139.748,-66.4731"/>
</g>
<!-- Node38 -->
<g id="node96" class="node"><title>Node38</title>
<a xlink:href="classtetgenmesh.xhtml#a250644e2c1dc425aa602744de3240964" target="_top" xlink:title="tetgenmesh::outmesh2medit">
<polygon fill="none" stroke="black" points="166,-7.66789 166,-28.6679 306,-28.6679 306,-7.66789 166,-7.66789"/>
<text text-anchor="middle" x="236" y="-15.6679" font-family="Helvetica,sans-Serif" font-size="10.00">tetgenmesh::outmesh2medit</text>
</a>
</g>
<!-- Node1&#45;&gt;Node38 -->
<g id="edge116" class="edge"><title>Node1&#45;&gt;Node38</title>
<path fill="none" stroke="midnightblue" d="M105.454,-62.4466C135.925,-52.1116 177.079,-38.1528 204.975,-28.691"/>
<polygon fill="midnightblue" stroke="midnightblue" points="104.313,-59.1379 95.9668,-65.6645 106.561,-65.7669 104.313,-59.1379"/>
</g>
<!-- Node3 -->
<g id="node5" class="node"><title>Node3</title>
<a xlink:href="classtetgenmesh.xhtml#aca4cdd18ce8662d83d00f3be302e594d" target="_top" xlink:title="tetgenmesh::transfernodes">
<polygon fill="none" stroke="black" points="1191.5,-201.668 1191.5,-222.668 1324.5,-222.668 1324.5,-201.668 1191.5,-201.668"/>
<text text-anchor="middle" x="1258" y="-209.668" font-family="Helvetica,sans-Serif" font-size="10.00">tetgenmesh::transfernodes</text>
</a>
</g>
<!-- Node2&#45;&gt;Node3 -->
<g id="edge4" class="edge"><title>Node2&#45;&gt;Node3</title>
<path fill="none" stroke="midnightblue" d="M244.84,-354.084C259.788,-322.848 293.264,-263.486 342,-237.168 462.423,-172.137 512.139,-213.168 649,-213.168 649,-213.168 649,-213.168 864,-213.168 979.088,-213.168 1113.09,-212.736 1191.42,-212.44"/>
<polygon fill="midnightblue" stroke="midnightblue" points="241.502,-352.964 240.486,-363.51 247.857,-355.9 241.502,-352.964"/>
</g>
<!-- Node11 -->
<g id="node21" class="node"><title>Node11</title>
<a xlink:href="classtetgenmesh.xhtml#a8dee14a42e35e4fe65944518eed4f7d3" target="_top" xlink:title="tetgenmesh::delaunizesegments">
<polygon fill="none" stroke="black" points="570,-123.668 570,-144.668 728,-144.668 728,-123.668 570,-123.668"/>
<text text-anchor="middle" x="649" y="-131.668" font-family="Helvetica,sans-Serif" font-size="10.00">tetgenmesh::delaunizesegments</text>
</a>
</g>
<!-- Node2&#45;&gt;Node11 -->
<g id="edge20" class="edge"><title>Node2&#45;&gt;Node11</title>
<path fill="none" stroke="midnightblue" d="M239.008,-353.407C246.769,-308.25 272.011,-201.377 342,-154.168 420.486,-101.227 537.461,-112.009 602.001,-123.652"/>
<polygon fill="midnightblue" stroke="midnightblue" points="235.519,-353.056 237.394,-363.484 242.431,-354.163 235.519,-353.056"/>
</g>
<!-- Node13 -->
<g id="node26" class="node"><title>Node13</title>
<a xlink:href="classtetgenmesh.xhtml#aa34a5188a4cee82197394560c388c348" target="_top" xlink:title="tetgenmesh::refineregion">
<polygon fill="none" stroke="black" points="367,-163.668 367,-184.668 491,-184.668 491,-163.668 367,-163.668"/>
<text text-anchor="middle" x="429" y="-171.668" font-family="Helvetica,sans-Serif" font-size="10.00">tetgenmesh::refineregion</text>
</a>
</g>
<!-- Node2&#45;&gt;Node13 -->
<g id="edge26" class="edge"><title>Node2&#45;&gt;Node13</title>
<path fill="none" stroke="midnightblue" d="M242.582,-354.099C255.585,-317.622 288.076,-240.417 342,-199.168 350.113,-192.962 359.715,-188.295 369.527,-184.787"/>
<polygon fill="midnightblue" stroke="midnightblue" points="239.244,-353.043 239.299,-363.637 245.863,-355.321 239.244,-353.043"/>
</g>
<!-- Node15 -->
<g id="node31" class="node"><title>Node15</title>
<a xlink:href="classtetgenmesh.xhtml#acb5fc751eaa4a4ddffbebedfa7b7382a" target="_top" xlink:title="tetgenmesh::add_steinerpt\l_in_schoenhardtpoly">
<polygon fill="none" stroke="black" points="363,-409.168 363,-443.168 495,-443.168 495,-409.168 363,-409.168"/>
<text text-anchor="start" x="371" y="-430.168" font-family="Helvetica,sans-Serif" font-size="10.00">tetgenmesh::add_steinerpt</text>
<text text-anchor="middle" x="429" y="-417.168" font-family="Helvetica,sans-Serif" font-size="10.00">_in_schoenhardtpoly</text>
</a>
</g>
<!-- Node2&#45;&gt;Node15 -->
<g id="edge32" class="edge"><title>Node2&#45;&gt;Node15</title>
<path fill="none" stroke="midnightblue" d="M284.86,-387.332C309.393,-393.942 339.41,-402.03 365.688,-409.11"/>
<polygon fill="midnightblue" stroke="midnightblue" points="285.623,-383.913 275.056,-384.691 283.802,-390.672 285.623,-383.913"/>
</g>
<!-- Node16 -->
<g id="node33" class="node"><title>Node16</title>
<a xlink:href="classtetgenmesh.xhtml#a9d878a0e64588b0471a58e534affea8e" target="_top" xlink:title="tetgenmesh::addsteiner4recoversegment">
<polygon fill="none" stroke="black" points="552,-415.668 552,-436.668 746,-436.668 746,-415.668 552,-415.668"/>
<text text-anchor="middle" x="649" y="-423.668" font-family="Helvetica,sans-Serif" font-size="10.00">tetgenmesh::addsteiner4recoversegment</text>
</a>
</g>
<!-- Node2&#45;&gt;Node16 -->
<g id="edge46" class="edge"><title>Node2&#45;&gt;Node16</title>
<path fill="none" stroke="midnightblue" d="M252.999,-392.19C272.405,-411.323 306.13,-440.393 342,-452.168 438.56,-483.866 560.897,-454.19 617.559,-436.782"/>
<polygon fill="midnightblue" stroke="midnightblue" points="255.34,-389.579 245.825,-384.919 250.357,-394.495 255.34,-389.579"/>
</g>
<!-- Node19 -->
<g id="node40" class="node"><title>Node19</title>
<a xlink:href="classtetgenmesh.xhtml#a3de6e9d82e74671af7f038043b5e9bcc" target="_top" xlink:title="tetgenmesh::add_steinerpt\l_in_segment">
<polygon fill="none" stroke="black" points="363,-357.168 363,-391.168 495,-391.168 495,-357.168 363,-357.168"/>
<text text-anchor="start" x="371" y="-378.168" font-family="Helvetica,sans-Serif" font-size="10.00">tetgenmesh::add_steinerpt</text>
<text text-anchor="middle" x="429" y="-365.168" font-family="Helvetica,sans-Serif" font-size="10.00">_in_segment</text>
</a>
</g>
<!-- Node2&#45;&gt;Node19 -->
<g id="edge42" class="edge"><title>Node2&#45;&gt;Node19</title>
<path fill="none" stroke="midnightblue" d="M305.894,-374.168C324.461,-374.168 344.454,-374.168 362.817,-374.168"/>
<polygon fill="midnightblue" stroke="midnightblue" points="305.745,-370.668 295.745,-374.168 305.745,-377.668 305.745,-370.668"/>
</g>
<!-- Node20 -->
<g id="node44" class="node"><title>Node20</title>
<a xlink:href="classtetgenmesh.xhtml#ace09080e4f274e0a48cd1728475878c9" target="_top" xlink:title="tetgenmesh::recoversubfaces">
<polygon fill="none" stroke="black" points="791,-476.668 791,-497.668 937,-497.668 937,-476.668 791,-476.668"/>
<text text-anchor="middle" x="864" y="-484.668" font-family="Helvetica,sans-Serif" font-size="10.00">tetgenmesh::recoversubfaces</text>
</a>
</g>
<!-- Node2&#45;&gt;Node20 -->
<g id="edge48" class="edge"><title>Node2&#45;&gt;Node20</title>
<path fill="none" stroke="midnightblue" d="M249.295,-392.902C267.245,-416.43 301.671,-455.71 342,-472.168 501.489,-537.255 711.776,-513.991 809.605,-497.669"/>
<polygon fill="midnightblue" stroke="midnightblue" points="252.01,-390.687 243.244,-384.736 246.385,-394.854 252.01,-390.687"/>
</g>
<!-- Node21 -->
<g id="node47" class="node"><title>Node21</title>
<a xlink:href="classtetgenmesh.xhtml#aae5530d808e30771e717c94cb8586f0b" target="_top" xlink:title="tetgenmesh::suppressbdrysteinerpoint">
<polygon fill="none" stroke="black" points="558,-749.668 558,-770.668 740,-770.668 740,-749.668 558,-749.668"/>
<text text-anchor="middle" x="649" y="-757.668" font-family="Helvetica,sans-Serif" font-size="10.00">tetgenmesh::suppressbdrysteinerpoint</text>
</a>
</g>
<!-- Node2&#45;&gt;Node21 -->
<g id="edge52" class="edge"><title>Node2&#45;&gt;Node21</title>
<path fill="none" stroke="midnightblue" d="M237.516,-395.026C242.475,-447.744 262.805,-587.497 342,-663.168 400.296,-718.87 490.37,-742.596 557.899,-752.696"/>
<polygon fill="midnightblue" stroke="midnightblue" points="240.989,-394.555 236.656,-384.887 234.014,-395.147 240.989,-394.555"/>
</g>
<!-- Node23 -->
<g id="node52" class="node"><title>Node23</title>
<a xlink:href="classtetgenmesh.xhtml#ab859365ca3dd3eafb77fac56d0ae3a03" target="_top" xlink:title="tetgenmesh::insertconstrainedpoints">
<polygon fill="none" stroke="black" points="342,-317.668 342,-338.668 516,-338.668 516,-317.668 342,-317.668"/>
<text text-anchor="middle" x="429" y="-325.668" font-family="Helvetica,sans-Serif" font-size="10.00">tetgenmesh::insertconstrainedpoints</text>
</a>
</g>
<!-- Node2&#45;&gt;Node23 -->
<g id="edge58" class="edge"><title>Node2&#45;&gt;Node23</title>
<path fill="none" stroke="midnightblue" d="M288.101,-361.228C305.255,-357.011 324.432,-352.342 342,-348.168 355.118,-345.051 369.368,-341.743 382.465,-338.734"/>
<polygon fill="midnightblue" stroke="midnightblue" points="287.134,-357.862 278.262,-363.652 288.809,-364.658 287.134,-357.862"/>
</g>
<!-- Node24 -->
<g id="node54" class="node"><title>Node24</title>
<a xlink:href="classtetgenmesh.xhtml#a6394d7b4d386e8d08077c39cd8983e0e" target="_top" xlink:title="tetgenmesh::splitsegment">
<polygon fill="none" stroke="black" points="364.5,-632.668 364.5,-653.668 493.5,-653.668 493.5,-632.668 364.5,-632.668"/>
<text text-anchor="middle" x="429" y="-640.668" font-family="Helvetica,sans-Serif" font-size="10.00">tetgenmesh::splitsegment</text>
</a>
</g>
<!-- Node2&#45;&gt;Node24 -->
<g id="edge60" class="edge"><title>Node2&#45;&gt;Node24</title>
<path fill="none" stroke="midnightblue" d="M240.869,-394.884C251.937,-437.957 282.738,-538.225 342,-599.168 356.986,-614.579 378.515,-625.528 396.406,-632.65"/>
<polygon fill="midnightblue" stroke="midnightblue" points="244.222,-393.865 238.421,-385 237.428,-395.548 244.222,-393.865"/>
</g>
<!-- Node26 -->
<g id="node58" class="node"><title>Node26</title>
<a xlink:href="classtetgenmesh.xhtml#a3a8404870ab3c2e8ce4312d48c2b29f4" target="_top" xlink:title="tetgenmesh::splitsubface">
<polygon fill="none" stroke="black" points="801,-650.668 801,-671.668 927,-671.668 927,-650.668 801,-650.668"/>
<text text-anchor="middle" x="864" y="-658.668" font-family="Helvetica,sans-Serif" font-size="10.00">tetgenmesh::splitsubface</text>
</a>
</g>
<!-- Node2&#45;&gt;Node26 -->
<g id="edge88" class="edge"><title>Node2&#45;&gt;Node26</title>
<path fill="none" stroke="midnightblue" d="M241.327,-394.468C252.699,-433.533 283.236,-519.021 342,-561.168 379.069,-587.755 670.344,-632.937 800.978,-652.121"/>
<polygon fill="midnightblue" stroke="midnightblue" points="244.676,-393.448 238.62,-384.755 237.933,-395.328 244.676,-393.448"/>
</g>
<!-- Node28 -->
<g id="node62" class="node"><title>Node28</title>
<a xlink:href="classtetgenmesh.xhtml#aa752155eb1d18550a212dd40297f122e" target="_top" xlink:title="tetgenmesh::splittetrahedron">
<polygon fill="none" stroke="black" points="1188,-612.668 1188,-633.668 1328,-633.668 1328,-612.668 1188,-612.668"/>
<text text-anchor="middle" x="1258" y="-620.668" font-family="Helvetica,sans-Serif" font-size="10.00">tetgenmesh::splittetrahedron</text>
</a>
</g>
<!-- Node2&#45;&gt;Node28 -->
<g id="edge90" class="edge"><title>Node2&#45;&gt;Node28</title>
<path fill="none" stroke="midnightblue" d="M245.724,-393.937C261.464,-423.61 295.517,-478.97 342,-505.168 461.973,-572.785 511.285,-547.168 649,-547.168 649,-547.168 649,-547.168 864,-547.168 1000.54,-547.168 1158.96,-591.718 1225.72,-612.6"/>
<polygon fill="midnightblue" stroke="midnightblue" points="248.782,-392.231 241.096,-384.938 242.557,-395.432 248.782,-392.231"/>
</g>
<!-- Node31 -->
<g id="node77" class="node"><title>Node31</title>
<a xlink:href="classtetgenmesh.xhtml#aa9540f310c97db99c989a02b0978ceec" target="_top" xlink:title="tetgenmesh::splitsliver">
<polygon fill="none" stroke="black" points="806.5,-279.668 806.5,-300.668 921.5,-300.668 921.5,-279.668 806.5,-279.668"/>
<text text-anchor="middle" x="864" y="-287.668" font-family="Helvetica,sans-Serif" font-size="10.00">tetgenmesh::splitsliver</text>
</a>
</g>
<!-- Node2&#45;&gt;Node31 -->
<g id="edge92" class="edge"><title>Node2&#45;&gt;Node31</title>
<path fill="none" stroke="midnightblue" d="M256.16,-357.059C276.381,-341.059 309.157,-318.172 342,-308.168 504.427,-258.69 708.518,-271.963 806.422,-282.66"/>
<polygon fill="midnightblue" stroke="midnightblue" points="253.859,-354.418 248.298,-363.437 258.269,-359.854 253.859,-354.418"/>
</g>
<!-- Node34 -->
<g id="node84" class="node"><title>Node34</title>
<a xlink:href="classtetgenmesh.xhtml#a2442f784a429111586a323a185009e68" target="_top" xlink:title="tetgenmesh::highorder">
<polygon fill="none" stroke="black" points="1373.5,-240.668 1373.5,-261.668 1486.5,-261.668 1486.5,-240.668 1373.5,-240.668"/>
<text text-anchor="middle" x="1430" y="-248.668" font-family="Helvetica,sans-Serif" font-size="10.00">tetgenmesh::highorder</text>
</a>
</g>
<!-- Node2&#45;&gt;Node34 -->
<g id="edge100" class="edge"><title>Node2&#45;&gt;Node34</title>
<path fill="none" stroke="midnightblue" d="M249.272,-355.141C267.198,-331.194 301.597,-291.036 342,-273.168 467.106,-217.839 512.206,-251.168 649,-251.168 649,-251.168 649,-251.168 1067,-251.168 1175.4,-251.168 1302,-251.168 1373.41,-251.168"/>
<polygon fill="midnightblue" stroke="midnightblue" points="246.283,-353.3 243.23,-363.445 251.944,-357.418 246.283,-353.3"/>
</g>
<!-- Node4 -->
<g id="node7" class="node"><title>Node4</title>
<a xlink:href="tetgen_8h.xhtml#ad3637eb4ffe7fda90667e67b7771d964" target="_top" xlink:title="tetrahedralize">
<polygon fill="none" stroke="black" points="1726.5,-201.668 1726.5,-222.668 1801.5,-222.668 1801.5,-201.668 1726.5,-201.668"/>
<text text-anchor="middle" x="1764" y="-209.668" font-family="Helvetica,sans-Serif" font-size="10.00">tetrahedralize</text>
</a>
</g>
<!-- Node3&#45;&gt;Node4 -->
<g id="edge6" class="edge"><title>Node3&#45;&gt;Node4</title>
<path fill="none" stroke="midnightblue" d="M1334.73,-212.168C1444.95,-212.168 1643.92,-212.168 1726.5,-212.168"/>
<polygon fill="midnightblue" stroke="midnightblue" points="1334.67,-208.668 1324.67,-212.168 1334.67,-215.668 1334.67,-208.668"/>
</g>
<!-- Node5 -->
<g id="node9" class="node"><title>Node5</title>
<a xlink:href="classGUICutRenderWindow.xhtml#a9eedb7088ad31f4680a77ed3a06fa60c" target="_top" xlink:title="Berechnet die 2D&#45;Temperaturverteilung als Grafik. ">
<polygon fill="none" stroke="black" points="1840.5,-241.168 1840.5,-275.168 1957.5,-275.168 1957.5,-241.168 1840.5,-241.168"/>
<text text-anchor="start" x="1848.5" y="-262.168" font-family="Helvetica,sans-Serif" font-size="10.00">GUICutRenderWindow</text>
<text text-anchor="middle" x="1899" y="-249.168" font-family="Helvetica,sans-Serif" font-size="10.00">::renderImage</text>
</a>
</g>
<!-- Node4&#45;&gt;Node5 -->
<g id="edge8" class="edge"><title>Node4&#45;&gt;Node5</title>
<path fill="none" stroke="midnightblue" d="M1804.73,-226.045C1818.62,-230.779 1834.32,-236.128 1848.86,-241.083"/>
<polygon fill="midnightblue" stroke="midnightblue" points="1805.57,-222.634 1794.97,-222.721 1803.31,-229.26 1805.57,-222.634"/>
</g>
<!-- Node7 -->
<g id="node13" class="node"><title>Node7</title>
<a xlink:href="classObjectData.xhtml#af3a850833d08eb9b45357449f455e24d" target="_top" xlink:title="Zerlegt das Objekt in Tetraeder (Schnittstelle zur Tetgen&#45;Bibliothek) und Berechnet die Temperaturver...">
<polygon fill="none" stroke="black" points="1838,-201.668 1838,-222.668 1960,-222.668 1960,-201.668 1838,-201.668"/>
<text text-anchor="middle" x="1899" y="-209.668" font-family="Helvetica,sans-Serif" font-size="10.00">ObjectData::calculateIO</text>
</a>
</g>
<!-- Node4&#45;&gt;Node7 -->
<g id="edge12" class="edge"><title>Node4&#45;&gt;Node7</title>
<path fill="none" stroke="midnightblue" d="M1811.65,-212.168C1820.11,-212.168 1829.02,-212.168 1837.8,-212.168"/>
<polygon fill="midnightblue" stroke="midnightblue" points="1811.61,-208.668 1801.61,-212.168 1811.6,-215.668 1811.61,-208.668"/>
</g>
<!-- Node10 -->
<g id="node19" class="node"><title>Node10</title>
<a xlink:href="tetgen_8cxx.xhtml#a0ddf1224851353fc92bfbff6f499fa97" target="_top" xlink:title="main">
<polygon fill="none" stroke="black" points="1880,-161.668 1880,-182.668 1918,-182.668 1918,-161.668 1880,-161.668"/>
<text text-anchor="middle" x="1899" y="-169.668" font-family="Helvetica,sans-Serif" font-size="10.00">main</text>
</a>
</g>
<!-- Node4&#45;&gt;Node10 -->
<g id="edge18" class="edge"><title>Node4&#45;&gt;Node10</title>
<path fill="none" stroke="midnightblue" d="M1809.15,-198.789C1833.27,-191.644 1861.67,-183.229 1879.98,-177.802"/>
<polygon fill="midnightblue" stroke="midnightblue" points="1808.06,-195.462 1799.47,-201.658 1810.05,-202.173 1808.06,-195.462"/>
</g>
<!-- Node6 -->
<g id="node11" class="node"><title>Node6</title>
<a xlink:href="classGUICutRenderWindow.xhtml#a7cd1bfbec53756a1cbbe1616b4d46c7a" target="_top" xlink:title="Behandelt das Drücken des Buttons zur Berechnung der zweidimensionalen Temperaturverteilung. ">
<polygon fill="none" stroke="black" points="2012.5,-241.168 2012.5,-275.168 2129.5,-275.168 2129.5,-241.168 2012.5,-241.168"/>
<text text-anchor="start" x="2020.5" y="-262.168" font-family="Helvetica,sans-Serif" font-size="10.00">GUICutRenderWindow</text>
<text text-anchor="middle" x="2071" y="-249.168" font-family="Helvetica,sans-Serif" font-size="10.00">::renderCutBtClick</text>
</a>
</g>
<!-- Node5&#45;&gt;Node6 -->
<g id="edge10" class="edge"><title>Node5&#45;&gt;Node6</title>
<path fill="none" stroke="midnightblue" d="M1967.78,-258.168C1982.51,-258.168 1997.95,-258.168 2012.26,-258.168"/>
<polygon fill="midnightblue" stroke="midnightblue" points="1967.71,-254.668 1957.71,-258.168 1967.71,-261.668 1967.71,-254.668"/>
</g>
<!-- Node8 -->
<g id="node15" class="node"><title>Node8</title>
<a xlink:href="classGUIMainWindow.xhtml#a0c2de30274c7f52ff74ec1217e47a9e5" target="_top" xlink:title="Berechnet die 3D&#45;Temperaturverteilung neu. ">
<polygon fill="none" stroke="black" points="1996,-149.168 1996,-183.168 2146,-183.168 2146,-149.168 1996,-149.168"/>
<text text-anchor="start" x="2004" y="-170.168" font-family="Helvetica,sans-Serif" font-size="10.00">GUIMainWindow::OnRecalcBt</text>
<text text-anchor="middle" x="2071" y="-157.168" font-family="Helvetica,sans-Serif" font-size="10.00">Click</text>
</a>
</g>
<!-- Node7&#45;&gt;Node8 -->
<g id="edge14" class="edge"><title>Node7&#45;&gt;Node8</title>
<path fill="none" stroke="midnightblue" d="M1948.33,-198.976C1966.64,-194.077 1987.69,-188.449 2007.12,-183.252"/>
<polygon fill="midnightblue" stroke="midnightblue" points="1947.22,-195.65 1938.46,-201.615 1949.03,-202.412 1947.22,-195.65"/>
</g>
<!-- Node9 -->
<g id="node17" class="node"><title>Node9</title>
<a xlink:href="classGUITimeline.xhtml#a099f3654aa6e7ea04df861851a0e9ec8" target="_top" xlink:title="Sucht den Zeitpunkt zwischen zwei markierten Stellen auf der Sensordaten&#45;Zeitleiste, für den der Wäremeenergiegehalt maximal wird. ">
<polygon fill="none" stroke="black" points="2002.5,-201.668 2002.5,-222.668 2139.5,-222.668 2139.5,-201.668 2002.5,-201.668"/>
<text text-anchor="middle" x="2071" y="-209.668" font-family="Helvetica,sans-Serif" font-size="10.00">GUITimeline::findMaxValue</text>
</a>
</g>
<!-- Node7&#45;&gt;Node9 -->
<g id="edge16" class="edge"><title>Node7&#45;&gt;Node9</title>
<path fill="none" stroke="midnightblue" d="M1970.23,-212.168C1980.89,-212.168 1991.86,-212.168 2002.46,-212.168"/>
<polygon fill="midnightblue" stroke="midnightblue" points="1970.13,-208.668 1960.13,-212.168 1970.13,-215.668 1970.13,-208.668"/>
</g>
<!-- Node12 -->
<g id="node23" class="node"><title>Node12</title>
<a xlink:href="classtetgenmesh.xhtml#aab64d62b3d2b048a38158fb2bf678624" target="_top" xlink:title="tetgenmesh::constraineddelaunay">
<polygon fill="none" stroke="black" points="782.5,-162.668 782.5,-183.668 945.5,-183.668 945.5,-162.668 782.5,-162.668"/>
<text text-anchor="middle" x="864" y="-170.668" font-family="Helvetica,sans-Serif" font-size="10.00">tetgenmesh::constraineddelaunay</text>
</a>
</g>
<!-- Node11&#45;&gt;Node12 -->
<g id="edge22" class="edge"><title>Node11&#45;&gt;Node12</title>
<path fill="none" stroke="midnightblue" d="M716.834,-146.473C745.483,-151.669 778.503,-157.659 805.998,-162.647"/>
<polygon fill="midnightblue" stroke="midnightblue" points="717.363,-143.012 706.899,-144.67 716.114,-149.899 717.363,-143.012"/>
</g>
<!-- Node12&#45;&gt;Node4 -->
<g id="edge24" class="edge"><title>Node12&#45;&gt;Node4</title>
<path fill="none" stroke="midnightblue" d="M955.902,-173.168C1035.75,-173.168 1154.52,-173.168 1258,-173.168 1258,-173.168 1258,-173.168 1430,-173.168 1538,-173.168 1664.33,-193.535 1726.1,-204.832"/>
<polygon fill="midnightblue" stroke="midnightblue" points="955.875,-169.668 945.875,-173.168 955.875,-176.668 955.875,-169.668"/>
</g>
<!-- Node14 -->
<g id="node28" class="node"><title>Node14</title>
<a xlink:href="classtetgenmesh.xhtml#a7579c3a44a54712623d9f9e5fc1dfbdc" target="_top" xlink:title="tetgenmesh::constrainedfacets">
<polygon fill="none" stroke="black" points="573.5,-163.668 573.5,-184.668 724.5,-184.668 724.5,-163.668 573.5,-163.668"/>
<text text-anchor="middle" x="649" y="-171.668" font-family="Helvetica,sans-Serif" font-size="10.00">tetgenmesh::constrainedfacets</text>
</a>
</g>
<!-- Node13&#45;&gt;Node14 -->
<g id="edge28" class="edge"><title>Node13&#45;&gt;Node14</title>
<path fill="none" stroke="midnightblue" d="M501.235,-174.168C524.337,-174.168 549.968,-174.168 573.308,-174.168"/>
<polygon fill="midnightblue" stroke="midnightblue" points="501.161,-170.668 491.161,-174.168 501.161,-177.668 501.161,-170.668"/>
</g>
<!-- Node14&#45;&gt;Node12 -->
<g id="edge30" class="edge"><title>Node14&#45;&gt;Node12</title>
<path fill="none" stroke="midnightblue" d="M734.958,-173.768C750.574,-173.695 766.824,-173.62 782.313,-173.548"/>
<polygon fill="midnightblue" stroke="midnightblue" points="734.785,-170.269 724.801,-173.815 734.817,-177.269 734.785,-170.269"/>
</g>
<!-- Node15&#45;&gt;Node16 -->
<g id="edge34" class="edge"><title>Node15&#45;&gt;Node16</title>
<path fill="none" stroke="midnightblue" d="M505.225,-426.168C520.221,-426.168 536.144,-426.168 551.722,-426.168"/>
<polygon fill="midnightblue" stroke="midnightblue" points="505.007,-422.668 495.007,-426.168 505.007,-429.668 505.007,-422.668"/>
</g>
<!-- Node17 -->
<g id="node35" class="node"><title>Node17</title>
<a xlink:href="classtetgenmesh.xhtml#a50e12e269b11573e6e1b91347ad19b37" target="_top" xlink:title="tetgenmesh::recoversegments">
<polygon fill="none" stroke="black" points="789.5,-415.668 789.5,-436.668 938.5,-436.668 938.5,-415.668 789.5,-415.668"/>
<text text-anchor="middle" x="864" y="-423.668" font-family="Helvetica,sans-Serif" font-size="10.00">tetgenmesh::recoversegments</text>
</a>
</g>
<!-- Node16&#45;&gt;Node17 -->
<g id="edge36" class="edge"><title>Node16&#45;&gt;Node17</title>
<path fill="none" stroke="midnightblue" d="M756.321,-426.168C767.444,-426.168 778.568,-426.168 789.22,-426.168"/>
<polygon fill="midnightblue" stroke="midnightblue" points="756.121,-422.668 746.121,-426.168 756.121,-429.668 756.121,-422.668"/>
</g>
<!-- Node18 -->
<g id="node37" class="node"><title>Node18</title>
<a xlink:href="classtetgenmesh.xhtml#a1be7dce56688fbe7a97fc31f98b61c19" target="_top" xlink:title="tetgenmesh::recoverboundary">
<polygon fill="none" stroke="black" points="994,-415.668 994,-436.668 1140,-436.668 1140,-415.668 994,-415.668"/>
<text text-anchor="middle" x="1067" y="-423.668" font-family="Helvetica,sans-Serif" font-size="10.00">tetgenmesh::recoverboundary</text>
</a>
</g>
<!-- Node17&#45;&gt;Node18 -->
<g id="edge38" class="edge"><title>Node17&#45;&gt;Node18</title>
<path fill="none" stroke="midnightblue" d="M948.947,-426.168C963.848,-426.168 979.239,-426.168 993.787,-426.168"/>
<polygon fill="midnightblue" stroke="midnightblue" points="948.725,-422.668 938.725,-426.168 948.725,-429.668 948.725,-422.668"/>
</g>
<!-- Node18&#45;&gt;Node4 -->
<g id="edge40" class="edge"><title>Node18&#45;&gt;Node4</title>
<path fill="none" stroke="midnightblue" d="M1150.24,-419.107C1274.05,-405.846 1511.33,-369.673 1690,-277.168 1717.03,-263.173 1742.25,-237.215 1755.1,-222.696"/>
<polygon fill="midnightblue" stroke="midnightblue" points="1149.65,-415.649 1140.07,-420.172 1150.38,-422.611 1149.65,-415.649"/>
</g>
<!-- Node19&#45;&gt;Node16 -->
<g id="edge44" class="edge"><title>Node19&#45;&gt;Node16</title>
<path fill="none" stroke="midnightblue" d="M505.115,-392.159C538.2,-399.979 575.819,-408.871 604.291,-415.6"/>
<polygon fill="midnightblue" stroke="midnightblue" points="505.544,-388.664 495.007,-389.77 503.934,-395.476 505.544,-388.664"/>
</g>
<!-- Node20&#45;&gt;Node18 -->
<g id="edge50" class="edge"><title>Node20&#45;&gt;Node18</title>
<path fill="none" stroke="midnightblue" d="M909.406,-473.524C946.486,-462.381 998.128,-446.863 1032.05,-436.672"/>
<polygon fill="midnightblue" stroke="midnightblue" points="907.93,-470.313 899.36,-476.543 909.944,-477.017 907.93,-470.313"/>
</g>
<!-- Node22 -->
<g id="node49" class="node"><title>Node22</title>
<a xlink:href="classtetgenmesh.xhtml#affc448708b6df2b57048544d3efd6e3c" target="_top" xlink:title="tetgenmesh::suppresssteinerpoints">
<polygon fill="none" stroke="black" points="982.5,-767.668 982.5,-788.668 1151.5,-788.668 1151.5,-767.668 982.5,-767.668"/>
<text text-anchor="middle" x="1067" y="-775.668" font-family="Helvetica,sans-Serif" font-size="10.00">tetgenmesh::suppresssteinerpoints</text>
</a>
</g>
<!-- Node21&#45;&gt;Node22 -->
<g id="edge54" class="edge"><title>Node21&#45;&gt;Node22</title>
<path fill="none" stroke="midnightblue" d="M750.527,-764.54C821.573,-767.599 915.382,-771.639 982.384,-774.524"/>
<polygon fill="midnightblue" stroke="midnightblue" points="750.357,-761.029 740.215,-764.096 750.055,-768.023 750.357,-761.029"/>
</g>
<!-- Node22&#45;&gt;Node4 -->
<g id="edge56" class="edge"><title>Node22&#45;&gt;Node4</title>
<path fill="none" stroke="midnightblue" d="M1130.88,-790.272C1261.8,-810.898 1559.2,-835.394 1690,-663.168 1745.19,-590.501 1760.94,-284.365 1763.57,-222.93"/>
<polygon fill="midnightblue" stroke="midnightblue" points="1131.42,-786.814 1120.99,-788.671 1130.31,-793.724 1131.42,-786.814"/>
</g>
<!-- Node25 -->
<g id="node56" class="node"><title>Node25</title>
<a xlink:href="classtetgenmesh.xhtml#a7af360f1ae413f9e0d7803ccae55b6d6" target="_top" xlink:title="tetgenmesh::repairencsegs">
<polygon fill="none" stroke="black" points="582,-690.668 582,-711.668 716,-711.668 716,-690.668 582,-690.668"/>
<text text-anchor="middle" x="649" y="-698.668" font-family="Helvetica,sans-Serif" font-size="10.00">tetgenmesh::repairencsegs</text>
</a>
</g>
<!-- Node24&#45;&gt;Node25 -->
<g id="edge62" class="edge"><title>Node24&#45;&gt;Node25</title>
<path fill="none" stroke="midnightblue" d="M478.52,-656.223C517.948,-666.618 572.418,-680.978 609.085,-690.645"/>
<polygon fill="midnightblue" stroke="midnightblue" points="479.402,-652.836 468.84,-653.671 477.618,-659.605 479.402,-652.836"/>
</g>
<!-- Node24&#45;&gt;Node26 -->
<g id="edge84" class="edge"><title>Node24&#45;&gt;Node26</title>
<path fill="none" stroke="midnightblue" d="M503.869,-646.266C587.675,-649.734 722.014,-655.293 800.76,-658.551"/>
<polygon fill="midnightblue" stroke="midnightblue" points="503.79,-642.76 493.654,-645.843 503.501,-649.754 503.79,-642.76"/>
</g>
<!-- Node24&#45;&gt;Node28 -->
<g id="edge86" class="edge"><title>Node24&#45;&gt;Node28</title>
<path fill="none" stroke="midnightblue" d="M503.989,-639.861C610.308,-635.338 810.97,-627.415 982,-624.168 1052.07,-622.838 1132.15,-622.701 1187.95,-622.828"/>
<polygon fill="midnightblue" stroke="midnightblue" points="503.528,-636.377 493.686,-640.301 503.827,-643.371 503.528,-636.377"/>
</g>
<!-- Node25&#45;&gt;Node26 -->
<g id="edge64" class="edge"><title>Node25&#45;&gt;Node26</title>
<path fill="none" stroke="midnightblue" d="M715.684,-688.762C745.123,-683.284 779.359,-676.915 807.516,-671.677"/>
<polygon fill="midnightblue" stroke="midnightblue" points="714.68,-685.388 705.489,-690.658 715.96,-692.27 714.68,-685.388"/>
</g>
<!-- Node25&#45;&gt;Node28 -->
<g id="edge80" class="edge"><title>Node25&#45;&gt;Node28</title>
<path fill="none" stroke="midnightblue" d="M726.068,-709.21C826.269,-717.208 1005.75,-723.089 1152,-682.168 1187.9,-672.123 1224.83,-647.764 1244.2,-633.686"/>
<polygon fill="midnightblue" stroke="midnightblue" points="726.283,-705.716 716.029,-708.38 725.707,-712.692 726.283,-705.716"/>
</g>
<!-- Node30 -->
<g id="node66" class="node"><title>Node30</title>
<a xlink:href="classtetgenmesh.xhtml#a477bbfde72103de66546d4ea3343b4a1" target="_top" xlink:title="tetgenmesh::delaunayrefinement">
<polygon fill="none" stroke="black" points="1532,-632.668 1532,-653.668 1690,-653.668 1690,-632.668 1532,-632.668"/>
<text text-anchor="middle" x="1611" y="-640.668" font-family="Helvetica,sans-Serif" font-size="10.00">tetgenmesh::delaunayrefinement</text>
</a>
</g>
<!-- Node25&#45;&gt;Node30 -->
<g id="edge82" class="edge"><title>Node25&#45;&gt;Node30</title>
<path fill="none" stroke="midnightblue" d="M708.568,-713.615C731.433,-717.946 757.835,-722.406 782,-725.168 907.999,-739.57 940.181,-739.168 1067,-739.168 1067,-739.168 1067,-739.168 1258,-739.168 1384.86,-739.168 1408.83,-689.564 1532,-659.168 1539.74,-657.257 1547.96,-655.403 1556.04,-653.677"/>
<polygon fill="midnightblue" stroke="midnightblue" points="709.15,-710.163 698.668,-711.707 707.825,-717.036 709.15,-710.163"/>
</g>
<!-- Node27 -->
<g id="node60" class="node"><title>Node27</title>
<a xlink:href="classtetgenmesh.xhtml#a701d4f317ed66df6a2e2b7b237e2386a" target="_top" xlink:title="tetgenmesh::repairencfacs">
<polygon fill="none" stroke="black" points="1001,-651.668 1001,-672.668 1133,-672.668 1133,-651.668 1001,-651.668"/>
<text text-anchor="middle" x="1067" y="-659.668" font-family="Helvetica,sans-Serif" font-size="10.00">tetgenmesh::repairencfacs</text>
</a>
</g>
<!-- Node26&#45;&gt;Node27 -->
<g id="edge66" class="edge"><title>Node26&#45;&gt;Node27</title>
<path fill="none" stroke="midnightblue" d="M937.159,-661.528C957.931,-661.631 980.424,-661.741 1000.76,-661.842"/>
<polygon fill="midnightblue" stroke="midnightblue" points="937.135,-658.028 927.118,-661.479 937.1,-665.028 937.135,-658.028"/>
</g>
<!-- Node26&#45;&gt;Node28 -->
<g id="edge78" class="edge"><title>Node26&#45;&gt;Node28</title>
<path fill="none" stroke="midnightblue" d="M932.588,-649.044C948.754,-646.486 965.953,-644.008 982,-642.168 1051.79,-634.164 1131.91,-629.104 1187.79,-626.237"/>
<polygon fill="midnightblue" stroke="midnightblue" points="931.991,-645.595 922.675,-650.642 933.105,-652.506 931.991,-645.595"/>
</g>
<!-- Node27&#45;&gt;Node28 -->
<g id="edge68" class="edge"><title>Node27&#45;&gt;Node28</title>
<path fill="none" stroke="midnightblue" d="M1128.26,-649.659C1153.48,-644.51 1182.37,-638.611 1206.47,-633.689"/>
<polygon fill="midnightblue" stroke="midnightblue" points="1127.53,-646.235 1118.44,-651.665 1128.93,-653.094 1127.53,-646.235"/>
</g>
<!-- Node27&#45;&gt;Node30 -->
<g id="edge76" class="edge"><title>Node27&#45;&gt;Node30</title>
<path fill="none" stroke="midnightblue" d="M1143.45,-659.498C1246.1,-655.913 1427.57,-649.575 1531.66,-645.939"/>
<polygon fill="midnightblue" stroke="midnightblue" points="1143.03,-656.01 1133.16,-659.857 1143.28,-663.006 1143.03,-656.01"/>
</g>
<!-- Node29 -->
<g id="node64" class="node"><title>Node29</title>
<a xlink:href="classtetgenmesh.xhtml#a7c46c82d83099214115fa9719aefbd78" target="_top" xlink:title="tetgenmesh::repairbadtets">
<polygon fill="none" stroke="black" points="1365,-612.668 1365,-633.668 1495,-633.668 1495,-612.668 1365,-612.668"/>
<text text-anchor="middle" x="1430" y="-620.668" font-family="Helvetica,sans-Serif" font-size="10.00">tetgenmesh::repairbadtets</text>
</a>
</g>
<!-- Node28&#45;&gt;Node29 -->
<g id="edge70" class="edge"><title>Node28&#45;&gt;Node29</title>
<path fill="none" stroke="midnightblue" d="M1338.71,-623.168C1347.49,-623.168 1356.35,-623.168 1364.91,-623.168"/>
<polygon fill="midnightblue" stroke="midnightblue" points="1338.46,-619.668 1328.46,-623.168 1338.46,-626.668 1338.46,-619.668"/>
</g>
<!-- Node29&#45;&gt;Node30 -->
<g id="edge72" class="edge"><title>Node29&#45;&gt;Node30</title>
<path fill="none" stroke="midnightblue" d="M1505.31,-631.49C1514.12,-632.462 1523.12,-633.457 1531.97,-634.435"/>
<polygon fill="midnightblue" stroke="midnightblue" points="1505.41,-627.98 1495.09,-630.36 1504.64,-634.937 1505.41,-627.98"/>
</g>
<!-- Node30&#45;&gt;Node4 -->
<g id="edge74" class="edge"><title>Node30&#45;&gt;Node4</title>
<path fill="none" stroke="midnightblue" d="M1618.28,-622.671C1645.4,-546.274 1740.07,-279.579 1760.21,-222.835"/>
<polygon fill="midnightblue" stroke="midnightblue" points="1614.83,-621.919 1614.78,-632.514 1621.43,-624.261 1614.83,-621.919"/>
</g>
<!-- Node32 -->
<g id="node79" class="node"><title>Node32</title>
<a xlink:href="classtetgenmesh.xhtml#ad5c46c2f6c9adeed23fc8c64b682778d" target="_top" xlink:title="tetgenmesh::removeslivers">
<polygon fill="none" stroke="black" points="1000,-279.668 1000,-300.668 1134,-300.668 1134,-279.668 1000,-279.668"/>
<text text-anchor="middle" x="1067" y="-287.668" font-family="Helvetica,sans-Serif" font-size="10.00">tetgenmesh::removeslivers</text>
</a>
</g>
<!-- Node31&#45;&gt;Node32 -->
<g id="edge94" class="edge"><title>Node31&#45;&gt;Node32</title>
<path fill="none" stroke="midnightblue" d="M931.844,-290.168C953.76,-290.168 978.036,-290.168 999.897,-290.168"/>
<polygon fill="midnightblue" stroke="midnightblue" points="931.629,-286.668 921.629,-290.168 931.629,-293.668 931.629,-286.668"/>
</g>
<!-- Node33 -->
<g id="node81" class="node"><title>Node33</title>
<a xlink:href="classtetgenmesh.xhtml#a8bb5c6ad8ccfa57f2a84e5a78295b263" target="_top" xlink:title="tetgenmesh::optimizemesh">
<polygon fill="none" stroke="black" points="1191,-279.668 1191,-300.668 1325,-300.668 1325,-279.668 1191,-279.668"/>
<text text-anchor="middle" x="1258" y="-287.668" font-family="Helvetica,sans-Serif" font-size="10.00">tetgenmesh::optimizemesh</text>
</a>
</g>
<!-- Node32&#45;&gt;Node33 -->
<g id="edge96" class="edge"><title>Node32&#45;&gt;Node33</title>
<path fill="none" stroke="midnightblue" d="M1144.11,-290.168C1159.56,-290.168 1175.68,-290.168 1190.77,-290.168"/>
<polygon fill="midnightblue" stroke="midnightblue" points="1144.07,-286.668 1134.07,-290.168 1144.07,-293.668 1144.07,-286.668"/>
</g>
<!-- Node33&#45;&gt;Node4 -->
<g id="edge98" class="edge"><title>Node33&#45;&gt;Node4</title>
<path fill="none" stroke="midnightblue" d="M1335.48,-291.308C1423.24,-290.625 1569.68,-283.471 1690,-248.168 1710.29,-242.215 1731.85,-231.113 1746.43,-222.805"/>
<polygon fill="midnightblue" stroke="midnightblue" points="1335.32,-287.808 1325.34,-291.36 1335.36,-294.808 1335.32,-287.808"/>
</g>
<!-- Node34&#45;&gt;Node4 -->
<g id="edge102" class="edge"><title>Node34&#45;&gt;Node4</title>
<path fill="none" stroke="midnightblue" d="M1496.94,-246.417C1549.57,-242.276 1624.66,-235.471 1690,-226.168 1701.91,-224.472 1714.82,-222.187 1726.46,-219.956"/>
<polygon fill="midnightblue" stroke="midnightblue" points="1496.43,-242.947 1486.73,-247.21 1496.97,-249.926 1496.43,-242.947"/>
</g>
<!-- Node35&#45;&gt;Node4 -->
<g id="edge106" class="edge"><title>Node35&#45;&gt;Node4</title>
<path fill="none" stroke="midnightblue" d="M1662.59,-147.903C1671.92,-151.109 1681.41,-154.867 1690,-159.168 1713.46,-170.908 1737.61,-189.707 1751.69,-201.475"/>
<polygon fill="midnightblue" stroke="midnightblue" points="1663.56,-144.538 1652.97,-144.762 1661.39,-151.193 1663.56,-144.538"/>
</g>
<!-- Node36&#45;&gt;Node4 -->
<g id="edge114" class="edge"><title>Node36&#45;&gt;Node4</title>
<path fill="none" stroke="midnightblue" d="M1494.19,-44.3105C1550.37,-37.4965 1631.87,-36.5914 1690,-74.1679 1736.8,-104.422 1756.1,-174.715 1761.93,-201.521"/>
<polygon fill="midnightblue" stroke="midnightblue" points="1493.46,-40.8753 1484,-45.6437 1494.37,-47.8161 1493.46,-40.8753"/>
</g>
<!-- Node37 -->
<g id="node92" class="node"><title>Node37</title>
<a xlink:href="classtetgenmesh.xhtml#a0c51cd3511d2b0ef9d0d45fe8b546b2e" target="_top" xlink:title="tetgenmesh::meshsurface">
<polygon fill="none" stroke="black" points="1546,-83.6679 1546,-104.668 1676,-104.668 1676,-83.6679 1546,-83.6679"/>
<text text-anchor="middle" x="1611" y="-91.6679" font-family="Helvetica,sans-Serif" font-size="10.00">tetgenmesh::meshsurface</text>
</a>
</g>
<!-- Node36&#45;&gt;Node37 -->
<g id="edge110" class="edge"><title>Node36&#45;&gt;Node37</title>
<path fill="none" stroke="midnightblue" d="M1490.36,-68.8406C1513.24,-73.6434 1539.02,-79.0552 1560.85,-83.6395"/>
<polygon fill="midnightblue" stroke="midnightblue" points="1490.92,-65.3824 1480.42,-66.753 1489.49,-72.2331 1490.92,-65.3824"/>
</g>
<!-- Node37&#45;&gt;Node4 -->
<g id="edge112" class="edge"><title>Node37&#45;&gt;Node4</title>
<path fill="none" stroke="midnightblue" d="M1680.59,-108.804C1683.86,-110.41 1687.02,-112.191 1690,-114.168 1724.28,-136.923 1748.93,-181.069 1758.99,-201.418"/>
<polygon fill="midnightblue" stroke="midnightblue" points="1681.67,-105.459 1671.1,-104.73 1678.9,-111.891 1681.67,-105.459"/>
</g>
<!-- Node38&#45;&gt;Node4 -->
<g id="edge118" class="edge"><title>Node38&#45;&gt;Node4</title>
<path fill="none" stroke="midnightblue" d="M316.296,-17.8585C399.517,-17.5648 533.364,-17.1679 649,-17.1679 649,-17.1679 649,-17.1679 1430,-17.1679 1545.86,-17.1679 1595.89,31.4228 1690,-36.1679 1746.81,-76.9679 1760.24,-170.075 1763.21,-201.547"/>
<polygon fill="midnightblue" stroke="midnightblue" points="316.14,-14.3589 306.152,-17.8946 316.165,-21.3589 316.14,-14.3589"/>
</g>
</g>
</svg>
        <g id="navigator" transform="translate(0 0)" fill="#404254">
                <rect fill="#f2f5e9" fill-opacity="0.5" stroke="#606060" stroke-width=".5" x="0" y="0" width="60" height="60"/>
                <use id="zoomplus" xlink:href="#zoomPlus" x="17" y="9" onmousedown="handleZoom(evt,'in')"/>
                <use id="zoomminus" xlink:href="#zoomMin" x="42" y="9" onmousedown="handleZoom(evt,'out')"/>
                <use id="reset" xlink:href="#resetDef" x="30" y="36" onmousedown="handleReset()"/>
                <g id="arrowUp" xlink:href="#dirArrow" transform="translate(30 24)" onmousedown="handlePan(0,-1)">
                  <use xlink:href="#rim" fill="#404040">
                        <set attributeName="fill" to="#808080" begin="arrowUp.mouseover" end="arrowUp.mouseout"/>
                  </use>
                  <path fill="none" stroke="white" stroke-width="1.5" d="M0,-3.0v7 M-2.5,-0.5L0,-3.0L2.5,-0.5"/>
                </g>
                <g id="arrowRight" xlink:href="#dirArrow" transform="rotate(90) translate(36 -43)" onmousedown="handlePan(1,0)">
                  <use xlink:href="#rim" fill="#404040">
                        <set attributeName="fill" to="#808080" begin="arrowRight.mouseover" end="arrowRight.mouseout"/>
                  </use>
                  <path fill="none" stroke="white" stroke-width="1.5" d="M0,-3.0v7 M-2.5,-0.5L0,-3.0L2.5,-0.5"/>
                </g>
                <g id="arrowDown" xlink:href="#dirArrow" transform="rotate(180) translate(-30 -48)" onmousedown="handlePan(0,1)">
                  <use xlink:href="#rim" fill="#404040">
                        <set attributeName="fill" to="#808080" begin="arrowDown.mouseover" end="arrowDown.mouseout"/>
                  </use>
                  <path fill="none" stroke="white" stroke-width="1.5" d="M0,-3.0v7 M-2.5,-0.5L0,-3.0L2.5,-0.5"/>
                </g>
                <g id="arrowLeft" xlink:href="#dirArrow" transform="rotate(270) translate(-36 17)" onmousedown="handlePan(-1,0)">
                  <use xlink:href="#rim" fill="#404040">
                        <set attributeName="fill" to="#808080" begin="arrowLeft.mouseover" end="arrowLeft.mouseout"/>
                  </use>
                  <path fill="none" stroke="white" stroke-width="1.5" d="M0,-3.0v7 M-2.5,-0.5L0,-3.0L2.5,-0.5"/>
                </g>
        </g>
        <svg viewBox="0 0 15 15" width="100%" height="30px" preserveAspectRatio="xMaxYMin meet">
         <g id="arrow_out" transform="scale(0.3 0.3)">
          <a xlink:href="classtetgenmesh_ad2cce627693ef75e8fc956b0e0743800_icgraph_org.svg" target="_base">
           <rect id="button" ry="5" rx="5" y="6" x="6" height="38" width="38"
                fill="#f2f5e9" fill-opacity="0.5" stroke="#606060" stroke-width="1.0"/>
           <path id="arrow"
             d="M 11.500037,31.436501 C 11.940474,20.09759 22.043105,11.32322 32.158766,21.979434 L 37.068811,17.246167 C 37.068811,17.246167 37.088388,32 37.088388,32 L 22.160133,31.978069 C 22.160133,31.978069 26.997745,27.140456 26.997745,27.140456 C 18.528582,18.264221 13.291696,25.230495 11.500037,31.436501 z"
             style="fill:#404040;"/>
          </a>
         </g>
        </svg>
</svg>
