<?xml version="1.0" encoding="UTF-8" standalone="no"?>
<!DOCTYPE svg PUBLIC "-//W3C//DTD SVG 1.1//EN"
 "http://www.w3.org/Graphics/SVG/1.1/DTD/svg11.dtd">
<!-- Generated by graphviz version 2.26.3 (20100126.1600)
 -->
<!-- Title: Vector3D::equals Pages: 1 -->
<svg width="1252pt" height="186pt"
 viewBox="0.00 0.00 1252.00 186.00" xmlns="http://www.w3.org/2000/svg" xmlns:xlink="http://www.w3.org/1999/xlink">
<g id="graph1" class="graph" transform="scale(1 1) rotate(0) translate(4 182)">
<title>Vector3D::equals</title>
<!-- Node1 -->
<g id="node1" class="node"><title>Node1</title>
<polygon fill="#bfbfbf" stroke="black" points="0,-116.5 0,-137.5 92,-137.5 92,-116.5 0,-116.5"/>
<text text-anchor="middle" x="46" y="-124.5" font-family="Helvetica,sans-Serif" font-size="10.00">Vector3D::equals</text>
</g>
<!-- Node2 -->
<g id="node3" class="node"><title>Node2</title>
<a xlink:href="Renderer_8cpp.xhtml#a4225af4db7b633515f133a4f40c72b33" target="_top" xlink:title="drawVector">
<polygon fill="none" stroke="black" points="161,-156.5 161,-177.5 227,-177.5 227,-156.5 161,-156.5"/>
<text text-anchor="middle" x="194" y="-164.5" font-family="Helvetica,sans-Serif" font-size="10.00">drawVector</text>
</a>
</g>
<!-- Node1&#45;&gt;Node2 -->
<g id="edge2" class="edge"><title>Node1&#45;&gt;Node2</title>
<path fill="none" stroke="midnightblue" d="M94.6009,-140.135C116.325,-146.007 141.373,-152.776 160.89,-158.051"/>
<polygon fill="midnightblue" stroke="midnightblue" points="95.4521,-136.74 84.8853,-137.51 93.6257,-143.497 95.4521,-136.74"/>
</g>
<!-- Node5 -->
<g id="node9" class="node"><title>Node5</title>
<a xlink:href="classInterpolator.xhtml#ad59ac6ed3822e08a67ac7d1ee88a5bd2" target="_top" xlink:title="Ermittelt den Wert für einen beliebigen Punkt in einer Ebene. ">
<polygon fill="none" stroke="black" points="130,-116.5 130,-137.5 258,-137.5 258,-116.5 130,-116.5"/>
<text text-anchor="middle" x="194" y="-124.5" font-family="Helvetica,sans-Serif" font-size="10.00">Interpolator::interpolateTri</text>
</a>
</g>
<!-- Node1&#45;&gt;Node5 -->
<g id="edge8" class="edge"><title>Node1&#45;&gt;Node5</title>
<path fill="none" stroke="midnightblue" d="M102.057,-127C111.121,-127 120.567,-127 129.806,-127"/>
<polygon fill="midnightblue" stroke="midnightblue" points="102.017,-123.5 92.0168,-127 102.017,-130.5 102.017,-123.5"/>
</g>
<!-- Node6 -->
<g id="node11" class="node"><title>Node6</title>
<a xlink:href="classInterpolator.xhtml#a30e714ca6dff9b5745d029f95af1420a" target="_top" xlink:title="Ermittelt den Wert für einen beliebigen Punkt im Raum. ">
<polygon fill="none" stroke="black" points="128.5,-76.5 128.5,-97.5 259.5,-97.5 259.5,-76.5 128.5,-76.5"/>
<text text-anchor="middle" x="194" y="-84.5" font-family="Helvetica,sans-Serif" font-size="10.00">Interpolator::interpolateTet</text>
</a>
</g>
<!-- Node1&#45;&gt;Node6 -->
<g id="edge10" class="edge"><title>Node1&#45;&gt;Node6</title>
<path fill="none" stroke="midnightblue" d="M94.5765,-113.871C114.219,-108.562 136.582,-102.518 155.118,-97.5087"/>
<polygon fill="midnightblue" stroke="midnightblue" points="93.6257,-110.503 84.8853,-116.49 95.4521,-117.26 93.6257,-110.503"/>
</g>
<!-- Node3 -->
<g id="node5" class="node"><title>Node3</title>
<a xlink:href="classRenderer.xhtml#af7e5f8f68742f198e315fb4683a605a4" target="_top" xlink:title="Zeichnet das Objekt (Attribut object). ">
<polygon fill="none" stroke="black" points="303.5,-156.5 303.5,-177.5 392.5,-177.5 392.5,-156.5 303.5,-156.5"/>
<text text-anchor="middle" x="348" y="-164.5" font-family="Helvetica,sans-Serif" font-size="10.00">Renderer::render</text>
</a>
</g>
<!-- Node2&#45;&gt;Node3 -->
<g id="edge4" class="edge"><title>Node2&#45;&gt;Node3</title>
<path fill="none" stroke="midnightblue" d="M237.118,-167C257.769,-167 282.482,-167 303.331,-167"/>
<polygon fill="midnightblue" stroke="midnightblue" points="237.037,-163.5 227.037,-167 237.037,-170.5 237.037,-163.5"/>
</g>
<!-- Node4 -->
<g id="node7" class="node"><title>Node4</title>
<a xlink:href="classGUIGLCanvas.xhtml#a83f52d08591920a339150c2f45069c8f" target="_top" xlink:title="Event&#45;Tabellendeklaration für wxWidgets. ">
<polygon fill="none" stroke="black" points="436,-156.5 436,-177.5 558,-177.5 558,-156.5 436,-156.5"/>
<text text-anchor="middle" x="497" y="-164.5" font-family="Helvetica,sans-Serif" font-size="10.00">GUIGLCanvas::OnPaint</text>
</a>
</g>
<!-- Node3&#45;&gt;Node4 -->
<g id="edge6" class="edge"><title>Node3&#45;&gt;Node4</title>
<path fill="none" stroke="midnightblue" d="M402.79,-167C413.531,-167 424.86,-167 435.795,-167"/>
<polygon fill="midnightblue" stroke="midnightblue" points="402.705,-163.5 392.705,-167 402.705,-170.5 402.705,-163.5"/>
</g>
<!-- Node7 -->
<g id="node13" class="node"><title>Node7</title>
<a xlink:href="namespaceUtils.xhtml#a6a0ae18a42e2d206bc1b43da27820fe2" target="_top" xlink:title="Gibt den inter/extrapolierten Wert eines Punktes zurück. ">
<polygon fill="none" stroke="black" points="296,-76.5 296,-97.5 400,-97.5 400,-76.5 296,-76.5"/>
<text text-anchor="middle" x="348" y="-84.5" font-family="Helvetica,sans-Serif" font-size="10.00">Utils::getPointValue</text>
</a>
</g>
<!-- Node6&#45;&gt;Node7 -->
<g id="edge12" class="edge"><title>Node6&#45;&gt;Node7</title>
<path fill="none" stroke="midnightblue" d="M270.028,-87C278.807,-87 287.603,-87 295.96,-87"/>
<polygon fill="midnightblue" stroke="midnightblue" points="269.757,-83.5001 259.757,-87 269.757,-90.5001 269.757,-83.5001"/>
</g>
<!-- Node8 -->
<g id="node15" class="node"><title>Node8</title>
<a xlink:href="GUICutRenderWindow_8cpp.xhtml#aeaaae4c8452680389d221d0e60a6fc33" target="_top" xlink:title="render_thread">
<polygon fill="none" stroke="black" points="459,-116.5 459,-137.5 535,-137.5 535,-116.5 459,-116.5"/>
<text text-anchor="middle" x="497" y="-124.5" font-family="Helvetica,sans-Serif" font-size="10.00">render_thread</text>
</a>
</g>
<!-- Node7&#45;&gt;Node8 -->
<g id="edge14" class="edge"><title>Node7&#45;&gt;Node8</title>
<path fill="none" stroke="midnightblue" d="M397.063,-100.171C417.166,-105.568 440.077,-111.719 458.886,-116.768"/>
<polygon fill="midnightblue" stroke="midnightblue" points="397.714,-96.722 387.148,-97.5095 395.899,-103.483 397.714,-96.722"/>
</g>
<!-- Node11 -->
<g id="node21" class="node"><title>Node11</title>
<a xlink:href="classAnalyzer.xhtml#a8f73ee0aa71ae395a74b43dc76b35458" target="_top" xlink:title="Ermittelt Daten für einen Punkt am aktuell ausgewählten Zeitpunkt. ">
<polygon fill="none" stroke="black" points="438.5,-76.5 438.5,-97.5 555.5,-97.5 555.5,-76.5 438.5,-76.5"/>
<text text-anchor="middle" x="497" y="-84.5" font-family="Helvetica,sans-Serif" font-size="10.00">Analyzer::analyzePoint</text>
</a>
</g>
<!-- Node7&#45;&gt;Node11 -->
<g id="edge20" class="edge"><title>Node7&#45;&gt;Node11</title>
<path fill="none" stroke="midnightblue" d="M410.404,-87C419.642,-87 429.136,-87 438.295,-87"/>
<polygon fill="midnightblue" stroke="midnightblue" points="410.113,-83.5001 400.113,-87 410.113,-90.5001 410.113,-83.5001"/>
</g>
<!-- Node13 -->
<g id="node25" class="node"><title>Node13</title>
<a xlink:href="MeshProcessor_8cpp.xhtml#ad2670c4e8381f9a0a89c65f5559ed421" target="_top" xlink:title="interpolatePoint">
<polygon fill="none" stroke="black" points="455,-33.5 455,-54.5 539,-54.5 539,-33.5 455,-33.5"/>
<text text-anchor="middle" x="497" y="-41.5" font-family="Helvetica,sans-Serif" font-size="10.00">interpolatePoint</text>
</a>
</g>
<!-- Node7&#45;&gt;Node13 -->
<g id="edge24" class="edge"><title>Node7&#45;&gt;Node13</title>
<path fill="none" stroke="midnightblue" d="M394.26,-73.6499C415.551,-67.5054 440.454,-60.3185 460.41,-54.5594"/>
<polygon fill="midnightblue" stroke="midnightblue" points="393.087,-70.3454 384.45,-76.481 395.028,-77.071 393.087,-70.3454"/>
</g>
<!-- Node9 -->
<g id="node17" class="node"><title>Node9</title>
<a xlink:href="classGUICutRenderWindow.xhtml#a9eedb7088ad31f4680a77ed3a06fa60c" target="_top" xlink:title="Berechnet die 2D&#45;Temperaturverteilung als Grafik. ">
<polygon fill="none" stroke="black" points="599.5,-122 599.5,-156 716.5,-156 716.5,-122 599.5,-122"/>
<text text-anchor="start" x="607.5" y="-143" font-family="Helvetica,sans-Serif" font-size="10.00">GUICutRenderWindow</text>
<text text-anchor="middle" x="658" y="-130" font-family="Helvetica,sans-Serif" font-size="10.00">::renderImage</text>
</a>
</g>
<!-- Node8&#45;&gt;Node9 -->
<g id="edge16" class="edge"><title>Node8&#45;&gt;Node9</title>
<path fill="none" stroke="midnightblue" d="M545.394,-130.607C562.366,-131.872 581.616,-133.307 599.338,-134.628"/>
<polygon fill="midnightblue" stroke="midnightblue" points="545.387,-127.097 535.155,-129.844 544.867,-134.078 545.387,-127.097"/>
</g>
<!-- Node10 -->
<g id="node19" class="node"><title>Node10</title>
<a xlink:href="classGUICutRenderWindow.xhtml#a7cd1bfbec53756a1cbbe1616b4d46c7a" target="_top" xlink:title="Behandelt das Drücken des Buttons zur Berechnung der zweidimensionalen Temperaturverteilung. ">
<polygon fill="none" stroke="black" points="761.5,-122 761.5,-156 878.5,-156 878.5,-122 761.5,-122"/>
<text text-anchor="start" x="769.5" y="-143" font-family="Helvetica,sans-Serif" font-size="10.00">GUICutRenderWindow</text>
<text text-anchor="middle" x="820" y="-130" font-family="Helvetica,sans-Serif" font-size="10.00">::renderCutBtClick</text>
</a>
</g>
<!-- Node9&#45;&gt;Node10 -->
<g id="edge18" class="edge"><title>Node9&#45;&gt;Node10</title>
<path fill="none" stroke="midnightblue" d="M727.263,-139C738.624,-139 750.3,-139 761.371,-139"/>
<polygon fill="midnightblue" stroke="midnightblue" points="726.944,-135.5 716.944,-139 726.944,-142.5 726.944,-135.5"/>
</g>
<!-- Node12 -->
<g id="node23" class="node"><title>Node12</title>
<a xlink:href="classGUIAnalyzePointWindow.xhtml#aa84ea9958e8b41423f01316d01ba5151" target="_top" xlink:title="Event&#45;Tabellendeklaration für wxWidgets. ">
<polygon fill="none" stroke="black" points="594,-70 594,-104 722,-104 722,-70 594,-70"/>
<text text-anchor="start" x="602" y="-91" font-family="Helvetica,sans-Serif" font-size="10.00">GUIAnalyzePointWindow</text>
<text text-anchor="middle" x="658" y="-78" font-family="Helvetica,sans-Serif" font-size="10.00">::analyzePoint</text>
</a>
</g>
<!-- Node11&#45;&gt;Node12 -->
<g id="edge22" class="edge"><title>Node11&#45;&gt;Node12</title>
<path fill="none" stroke="midnightblue" d="M565.602,-87C574.94,-87 584.495,-87 593.752,-87"/>
<polygon fill="midnightblue" stroke="midnightblue" points="565.58,-83.5001 555.58,-87 565.58,-90.5001 565.58,-83.5001"/>
</g>
<!-- Node14 -->
<g id="node27" class="node"><title>Node14</title>
<a xlink:href="classMeshProcessor.xhtml#a060c3815db33f8e52ac620ed2239ccc9" target="_top" xlink:title="Berechnet die Temperaturverteilung für ein Objekt. ">
<polygon fill="none" stroke="black" points="595.5,-30.5 595.5,-51.5 720.5,-51.5 720.5,-30.5 595.5,-30.5"/>
<text text-anchor="middle" x="658" y="-38.5" font-family="Helvetica,sans-Serif" font-size="10.00">MeshProcessor::process</text>
</a>
</g>
<!-- Node13&#45;&gt;Node14 -->
<g id="edge26" class="edge"><title>Node13&#45;&gt;Node14</title>
<path fill="none" stroke="midnightblue" d="M549.657,-43.0188C564.263,-42.7467 580.264,-42.4485 595.379,-42.1669"/>
<polygon fill="midnightblue" stroke="midnightblue" points="549.234,-39.526 539.301,-43.2118 549.364,-46.5248 549.234,-39.526"/>
</g>
<!-- Node15 -->
<g id="node29" class="node"><title>Node15</title>
<a xlink:href="classAnalyzer.xhtml#a2a7b5f169f664ccd9f206e508cba78ef" target="_top" xlink:title="Ermittelt Daten für ein Objekt. ">
<polygon fill="none" stroke="black" points="758.5,-52.5 758.5,-73.5 881.5,-73.5 881.5,-52.5 758.5,-52.5"/>
<text text-anchor="middle" x="820" y="-60.5" font-family="Helvetica,sans-Serif" font-size="10.00">Analyzer::analyzeObject</text>
</a>
</g>
<!-- Node14&#45;&gt;Node15 -->
<g id="edge28" class="edge"><title>Node14&#45;&gt;Node15</title>
<path fill="none" stroke="midnightblue" d="M730.6,-50.8593C739.86,-52.1168 749.268,-53.3945 758.333,-54.6255"/>
<polygon fill="midnightblue" stroke="midnightblue" points="731.013,-47.3834 720.633,-49.5058 730.071,-54.3197 731.013,-47.3834"/>
</g>
<!-- Node19 -->
<g id="node37" class="node"><title>Node19</title>
<a xlink:href="classObjectData.xhtml#af3a850833d08eb9b45357449f455e24d" target="_top" xlink:title="Zerlegt das Objekt in Tetraeder (Schnittstelle zur Tetgen&#45;Bibliothek) und Berechnet die Temperaturver...">
<polygon fill="none" stroke="black" points="759,-9.5 759,-30.5 881,-30.5 881,-9.5 759,-9.5"/>
<text text-anchor="middle" x="820" y="-17.5" font-family="Helvetica,sans-Serif" font-size="10.00">ObjectData::calculateIO</text>
</a>
</g>
<!-- Node14&#45;&gt;Node19 -->
<g id="edge36" class="edge"><title>Node14&#45;&gt;Node19</title>
<path fill="none" stroke="midnightblue" d="M730.745,-31.5701C740.14,-30.3523 749.684,-29.115 758.866,-27.9248"/>
<polygon fill="midnightblue" stroke="midnightblue" points="730.1,-28.1243 720.633,-32.8809 731,-35.0662 730.1,-28.1243"/>
</g>
<!-- Node16 -->
<g id="node31" class="node"><title>Node16</title>
<a xlink:href="classGUIAnalyzeOutputWindow.xhtml#a9ea5a7cf46d6189f368315903508cecc" target="_top" xlink:title="Methode zum aktualisieren des Fensters, alle Objekte werden erneut analysiert und die aktualisierten ...">
<polygon fill="none" stroke="black" points="926,-92 926,-126 1060,-126 1060,-92 926,-92"/>
<text text-anchor="start" x="934" y="-113" font-family="Helvetica,sans-Serif" font-size="10.00">GUIAnalyzeOutputWindow</text>
<text text-anchor="middle" x="993" y="-100" font-family="Helvetica,sans-Serif" font-size="10.00">::Update</text>
</a>
</g>
<!-- Node15&#45;&gt;Node16 -->
<g id="edge30" class="edge"><title>Node15&#45;&gt;Node16</title>
<path fill="none" stroke="midnightblue" d="M869.358,-76.1241C887.84,-81.0383 909.114,-86.695 928.747,-91.9155"/>
<polygon fill="midnightblue" stroke="midnightblue" points="870.253,-72.7406 859.69,-73.5533 868.454,-79.5055 870.253,-72.7406"/>
</g>
<!-- Node18 -->
<g id="node35" class="node"><title>Node18</title>
<a xlink:href="classGUITimeline.xhtml#a099f3654aa6e7ea04df861851a0e9ec8" target="_top" xlink:title="Sucht den Zeitpunkt zwischen zwei markierten Stellen auf der Sensordaten&#45;Zeitleiste, für den der Wäremeenergiegehalt maximal wird. ">
<polygon fill="none" stroke="black" points="924.5,-52.5 924.5,-73.5 1061.5,-73.5 1061.5,-52.5 924.5,-52.5"/>
<text text-anchor="middle" x="993" y="-60.5" font-family="Helvetica,sans-Serif" font-size="10.00">GUITimeline::findMaxValue</text>
</a>
</g>
<!-- Node15&#45;&gt;Node18 -->
<g id="edge34" class="edge"><title>Node15&#45;&gt;Node18</title>
<path fill="none" stroke="midnightblue" d="M892.108,-63C902.804,-63 913.801,-63 924.422,-63"/>
<polygon fill="midnightblue" stroke="midnightblue" points="891.968,-59.5001 881.968,-63 891.968,-66.5001 891.968,-59.5001"/>
</g>
<!-- Node17 -->
<g id="node33" class="node"><title>Node17</title>
<a xlink:href="classGUIAnalyzeOutputWindow.xhtml#af9407245a6b2a0478579c4d592a31e63" target="_top" xlink:title="Der Konstruktor. ">
<polygon fill="none" stroke="black" points="1104,-92 1104,-126 1244,-126 1244,-92 1104,-92"/>
<text text-anchor="start" x="1112" y="-113" font-family="Helvetica,sans-Serif" font-size="10.00">GUIAnalyzeOutputWindow</text>
<text text-anchor="middle" x="1174" y="-100" font-family="Helvetica,sans-Serif" font-size="10.00">::GUIAnalyzeOutputWindow</text>
</a>
</g>
<!-- Node16&#45;&gt;Node17 -->
<g id="edge32" class="edge"><title>Node16&#45;&gt;Node17</title>
<path fill="none" stroke="midnightblue" d="M1070.3,-109C1081.47,-109 1092.92,-109 1103.94,-109"/>
<polygon fill="midnightblue" stroke="midnightblue" points="1070.14,-105.5 1060.14,-109 1070.14,-112.5 1070.14,-105.5"/>
</g>
<!-- Node20 -->
<g id="node39" class="node"><title>Node20</title>
<a xlink:href="classGUIMainWindow.xhtml#a0c2de30274c7f52ff74ec1217e47a9e5" target="_top" xlink:title="Berechnet die 3D&#45;Temperaturverteilung neu. ">
<polygon fill="none" stroke="black" points="918,-0 918,-34 1068,-34 1068,-0 918,-0"/>
<text text-anchor="start" x="926" y="-21" font-family="Helvetica,sans-Serif" font-size="10.00">GUIMainWindow::OnRecalcBt</text>
<text text-anchor="middle" x="993" y="-8" font-family="Helvetica,sans-Serif" font-size="10.00">Click</text>
</a>
</g>
<!-- Node19&#45;&gt;Node20 -->
<g id="edge38" class="edge"><title>Node19&#45;&gt;Node20</title>
<path fill="none" stroke="midnightblue" d="M891.534,-18.7595C900.197,-18.6093 909.067,-18.4555 917.782,-18.3044"/>
<polygon fill="midnightblue" stroke="midnightblue" points="891.418,-15.2609 881.48,-18.9339 891.54,-22.2599 891.418,-15.2609"/>
</g>
</g>
</svg>
