<?xml version="1.0" encoding="UTF-8" standalone="no"?>
<!DOCTYPE svg PUBLIC "-//W3C//DTD SVG 1.1//EN"
 "http://www.w3.org/Graphics/SVG/1.1/DTD/svg11.dtd">
<!-- Generated by graphviz version 2.26.3 (20100126.1600)
 -->
<!-- Title: Renderer::renderMaterial Pages: 1 -->
<svg width="256pt" height="70pt"
 viewBox="0.00 0.00 256.00 70.00" xmlns="http://www.w3.org/2000/svg" xmlns:xlink="http://www.w3.org/1999/xlink">
<g id="graph1" class="graph" transform="scale(1 1) rotate(0) translate(4 66)">
<title>Renderer::renderMaterial</title>
<!-- Node1 -->
<g id="node1" class="node"><title>Node1</title>
<polygon fill="#bfbfbf" stroke="black" points="0,-20.5 0,-41.5 124,-41.5 124,-20.5 0,-20.5"/>
<text text-anchor="middle" x="62" y="-28.5" font-family="Helvetica,sans-Serif" font-size="10.00">Renderer::renderMaterial</text>
</g>
<!-- Node2 -->
<g id="node3" class="node"><title>Node2</title>
<a xlink:href="namespaceUtils.xhtml#a5d6523eb946892eee52c9c74efd016de" target="_top" xlink:title="Wandelt eine Farbe im HSV&#45;Format ins RGB&#45;Format um. ">
<polygon fill="none" stroke="black" points="160,-40.5 160,-61.5 248,-61.5 248,-40.5 160,-40.5"/>
<text text-anchor="middle" x="204" y="-48.5" font-family="Helvetica,sans-Serif" font-size="10.00">Utils::hsvToRgb</text>
</a>
</g>
<!-- Node1&#45;&gt;Node2 -->
<g id="edge2" class="edge"><title>Node1&#45;&gt;Node2</title>
<path fill="none" stroke="midnightblue" d="M124.283,-39.7723C132.76,-40.9662 141.405,-42.1837 149.725,-43.3556"/>
<polygon fill="midnightblue" stroke="midnightblue" points="149.288,-46.8286 159.679,-44.7576 150.265,-39.897 149.288,-46.8286"/>
</g>
<!-- Node3 -->
<g id="node5" class="node"><title>Node3</title>
<a xlink:href="namespaceUtils.xhtml#abb647325616858e0fad55290c36ea03b" target="_top" xlink:title="Begrenzt einen Wert auf den Bereich 0..1. ">
<polygon fill="none" stroke="black" points="160.5,-0.5 160.5,-21.5 247.5,-21.5 247.5,-0.5 160.5,-0.5"/>
<text text-anchor="middle" x="204" y="-8.5" font-family="Helvetica,sans-Serif" font-size="10.00">Utils::clampHue</text>
</a>
</g>
<!-- Node1&#45;&gt;Node3 -->
<g id="edge4" class="edge"><title>Node1&#45;&gt;Node3</title>
<path fill="none" stroke="midnightblue" d="M124.283,-22.2277C132.866,-21.0189 141.621,-19.7858 150.036,-18.6005"/>
<polygon fill="midnightblue" stroke="midnightblue" points="150.685,-22.0438 160.099,-17.1833 149.708,-15.1122 150.685,-22.0438"/>
</g>
</g>
</svg>
