<?xml version="1.0" encoding="UTF-8" standalone="no"?>
<!DOCTYPE svg PUBLIC "-//W3C//DTD SVG 1.1//EN"
 "http://www.w3.org/Graphics/SVG/1.1/DTD/svg11.dtd">
<!-- Generated by graphviz version 2.26.3 (20100126.1600)
 -->
<!-- Title: ObjectData::calculateIO Pages: 1 -->
<svg width="1248pt" height="790pt"
 viewBox="0.00 0.00 1248.00 790.29" xmlns="http://www.w3.org/2000/svg" xmlns:xlink="http://www.w3.org/1999/xlink">
<g id="graph1" class="graph" transform="scale(1 1) rotate(0) translate(4 786.288)">
<title>ObjectData::calculateIO</title>
<!-- Node1 -->
<g id="node1" class="node"><title>Node1</title>
<polygon fill="#bfbfbf" stroke="black" points="0,-581.308 0,-602.308 122,-602.308 122,-581.308 0,-581.308"/>
<text text-anchor="middle" x="61" y="-589.308" font-family="Helvetica,sans-Serif" font-size="10.00">ObjectData::calculateIO</text>
</g>
<!-- Node2 -->
<g id="node3" class="node"><title>Node2</title>
<a xlink:href="classMeshProcessor.xhtml#a060c3815db33f8e52ac620ed2239ccc9" target="_top" xlink:title="Berechnet die Temperaturverteilung für ein Objekt. ">
<polygon fill="none" stroke="black" points="158.5,-581.308 158.5,-602.308 283.5,-602.308 283.5,-581.308 158.5,-581.308"/>
<text text-anchor="middle" x="221" y="-589.308" font-family="Helvetica,sans-Serif" font-size="10.00">MeshProcessor::process</text>
</a>
</g>
<!-- Node1&#45;&gt;Node2 -->
<g id="edge2" class="edge"><title>Node1&#45;&gt;Node2</title>
<path fill="none" stroke="midnightblue" d="M122.403,-591.808C130.89,-591.808 139.674,-591.808 148.341,-591.808"/>
<polygon fill="midnightblue" stroke="midnightblue" points="148.438,-595.308 158.438,-591.808 148.438,-588.308 148.438,-595.308"/>
</g>
<!-- Node3 -->
<g id="node5" class="node"><title>Node3</title>
<a xlink:href="classInterpolator.xhtml#a2f9927fc580de7d2f94d85e6ca3ee3e3" target="_top" xlink:title="Setzt den verwendeten Interpolationsmodus (die Interpolationsfunktion). ">
<polygon fill="none" stroke="black" points="340.5,-627.308 340.5,-648.308 449.5,-648.308 449.5,-627.308 340.5,-627.308"/>
<text text-anchor="middle" x="395" y="-635.308" font-family="Helvetica,sans-Serif" font-size="10.00">Interpolator::setMode</text>
</a>
</g>
<!-- Node2&#45;&gt;Node3 -->
<g id="edge4" class="edge"><title>Node2&#45;&gt;Node3</title>
<path fill="none" stroke="midnightblue" d="M260.919,-602.361C286.008,-608.994 318.572,-617.603 345.325,-624.675"/>
<polygon fill="midnightblue" stroke="midnightblue" points="344.704,-628.131 355.267,-627.303 346.493,-621.364 344.704,-628.131"/>
</g>
<!-- Node4 -->
<g id="node7" class="node"><title>Node4</title>
<a xlink:href="classObjectData.xhtml#a503d63160a3afe2ea517449f78f8ac42" target="_top" xlink:title="Gibt den Index des aktuell verwendeten Sensordatensatzes zurück. ">
<polygon fill="none" stroke="black" points="320.5,-574.808 320.5,-608.808 469.5,-608.808 469.5,-574.808 320.5,-574.808"/>
<text text-anchor="start" x="328.5" y="-595.808" font-family="Helvetica,sans-Serif" font-size="10.00">ObjectData::getCurrentSensor</text>
<text text-anchor="middle" x="395" y="-582.808" font-family="Helvetica,sans-Serif" font-size="10.00">Index</text>
</a>
</g>
<!-- Node2&#45;&gt;Node4 -->
<g id="edge6" class="edge"><title>Node2&#45;&gt;Node4</title>
<path fill="none" stroke="midnightblue" d="M283.818,-591.808C292.447,-591.808 301.42,-591.808 310.36,-591.808"/>
<polygon fill="midnightblue" stroke="midnightblue" points="310.42,-595.308 320.42,-591.808 310.42,-588.308 310.42,-595.308"/>
</g>
<!-- Node5 -->
<g id="node9" class="node"><title>Node5</title>
<a xlink:href="MeshProcessor_8cpp.xhtml#ad2670c4e8381f9a0a89c65f5559ed421" target="_top" xlink:title="interpolatePoint">
<polygon fill="none" stroke="black" points="353,-535.308 353,-556.308 437,-556.308 437,-535.308 353,-535.308"/>
<text text-anchor="middle" x="395" y="-543.308" font-family="Helvetica,sans-Serif" font-size="10.00">interpolatePoint</text>
</a>
</g>
<!-- Node2&#45;&gt;Node5 -->
<g id="edge8" class="edge"><title>Node2&#45;&gt;Node5</title>
<path fill="none" stroke="midnightblue" d="M260.919,-581.254C286.008,-574.622 318.572,-566.013 345.325,-558.94"/>
<polygon fill="midnightblue" stroke="midnightblue" points="346.493,-562.252 355.267,-556.312 344.704,-555.484 346.493,-562.252"/>
</g>
<!-- Node6 -->
<g id="node11" class="node"><title>Node6</title>
<a xlink:href="namespaceUtils.xhtml#a6a0ae18a42e2d206bc1b43da27820fe2" target="_top" xlink:title="Gibt den inter/extrapolierten Wert eines Punktes zurück. ">
<polygon fill="none" stroke="black" points="506,-535.308 506,-556.308 610,-556.308 610,-535.308 506,-535.308"/>
<text text-anchor="middle" x="558" y="-543.308" font-family="Helvetica,sans-Serif" font-size="10.00">Utils::getPointValue</text>
</a>
</g>
<!-- Node5&#45;&gt;Node6 -->
<g id="edge10" class="edge"><title>Node5&#45;&gt;Node6</title>
<path fill="none" stroke="midnightblue" d="M437.401,-545.808C455.233,-545.808 476.339,-545.808 495.869,-545.808"/>
<polygon fill="midnightblue" stroke="midnightblue" points="495.913,-549.308 505.913,-545.808 495.913,-542.308 495.913,-549.308"/>
</g>
<!-- Node7 -->
<g id="node13" class="node"><title>Node7</title>
<a xlink:href="namespaceUtils.xhtml#a9b995a1220a78be108b19bda4b776332" target="_top" xlink:title="Testet, ob sich ein Punkt innerhalb eines Tetraeders befindet. ">
<polygon fill="none" stroke="black" points="814,-689.308 814,-710.308 956,-710.308 956,-689.308 814,-689.308"/>
<text text-anchor="middle" x="885" y="-697.308" font-family="Helvetica,sans-Serif" font-size="10.00">Utils::pointInsideTetrahedron</text>
</a>
</g>
<!-- Node6&#45;&gt;Node7 -->
<g id="edge12" class="edge"><title>Node6&#45;&gt;Node7</title>
<path fill="none" stroke="midnightblue" d="M576.871,-556.373C618.733,-579.575 722.882,-635.997 814,-674.808 823.102,-678.684 833.029,-682.455 842.498,-685.842"/>
<polygon fill="midnightblue" stroke="midnightblue" points="841.551,-689.219 852.146,-689.222 843.866,-682.613 841.551,-689.219"/>
</g>
<!-- Node16 -->
<g id="node37" class="node"><title>Node16</title>
<a xlink:href="namespaceUtils.xhtml#af4ba26e928c7cef5269c51bfac49d547" target="_top" xlink:title="Ermöglicht das generieren aller möglichen Verteilungen von 4 Elementen auf dataPointCount Plätze...">
<polygon fill="none" stroke="black" points="654,-535.308 654,-556.308 770,-556.308 770,-535.308 654,-535.308"/>
<text text-anchor="middle" x="712" y="-543.308" font-family="Helvetica,sans-Serif" font-size="10.00">Utils::nextCombination</text>
</a>
</g>
<!-- Node6&#45;&gt;Node16 -->
<g id="edge42" class="edge"><title>Node6&#45;&gt;Node16</title>
<path fill="none" stroke="midnightblue" d="M610.137,-545.808C620.893,-545.808 632.375,-545.808 643.608,-545.808"/>
<polygon fill="midnightblue" stroke="midnightblue" points="643.827,-549.308 653.827,-545.808 643.827,-542.308 643.827,-549.308"/>
</g>
<!-- Node17 -->
<g id="node39" class="node"><title>Node17</title>
<a xlink:href="classInterpolator.xhtml#a30e714ca6dff9b5745d029f95af1420a" target="_top" xlink:title="Ermittelt den Wert für einen beliebigen Punkt im Raum. ">
<polygon fill="none" stroke="black" points="646.5,-381.308 646.5,-402.308 777.5,-402.308 777.5,-381.308 646.5,-381.308"/>
<text text-anchor="middle" x="712" y="-389.308" font-family="Helvetica,sans-Serif" font-size="10.00">Interpolator::interpolateTet</text>
</a>
</g>
<!-- Node6&#45;&gt;Node17 -->
<g id="edge44" class="edge"><title>Node6&#45;&gt;Node17</title>
<path fill="none" stroke="midnightblue" d="M568.585,-535.223C594.521,-509.287 661.479,-442.328 693.891,-409.917"/>
<polygon fill="midnightblue" stroke="midnightblue" points="696.745,-412.013 701.341,-402.467 691.795,-407.063 696.745,-412.013"/>
</g>
<!-- Node8 -->
<g id="node15" class="node"><title>Node8</title>
<a xlink:href="classVector3D.xhtml#a02364a41693ac080f5adadd776df74b4" target="_top" xlink:title="Subtrahiert einen Vektor von diesem Vektor. ">
<polygon fill="none" stroke="black" points="1016,-609.308 1016,-630.308 1096,-630.308 1096,-609.308 1016,-609.308"/>
<text text-anchor="middle" x="1056" y="-617.308" font-family="Helvetica,sans-Serif" font-size="10.00">Vector3D::sub</text>
</a>
</g>
<!-- Node7&#45;&gt;Node8 -->
<g id="edge14" class="edge"><title>Node7&#45;&gt;Node8</title>
<path fill="none" stroke="midnightblue" d="M901.494,-689.124C922.049,-676.152 958.556,-654.223 992,-639.808 997.078,-637.619 1002.47,-635.554 1007.9,-633.642"/>
<polygon fill="midnightblue" stroke="midnightblue" points="1009.26,-636.877 1017.62,-630.372 1007.03,-630.242 1009.26,-636.877"/>
</g>
<!-- Node12 -->
<g id="node23" class="node"><title>Node12</title>
<a xlink:href="classVector3D.xhtml#a482cd77ce44ea7dd71fd7a43cb7b1cf5" target="_top" xlink:title="Gibt das Kreuzprodukt mit einem anderen Vektor zurück. ">
<polygon fill="none" stroke="black" points="995,-569.308 995,-590.308 1117,-590.308 1117,-569.308 995,-569.308"/>
<text text-anchor="middle" x="1056" y="-577.308" font-family="Helvetica,sans-Serif" font-size="10.00">Vector3D::crossProduct</text>
</a>
</g>
<!-- Node7&#45;&gt;Node12 -->
<g id="edge22" class="edge"><title>Node7&#45;&gt;Node12</title>
<path fill="none" stroke="midnightblue" d="M893.546,-689.106C910.311,-668.798 949.592,-624.499 992,-599.808 995.622,-597.699 999.49,-595.788 1003.46,-594.061"/>
<polygon fill="midnightblue" stroke="midnightblue" points="1004.84,-597.279 1012.86,-590.357 1002.28,-590.767 1004.84,-597.279"/>
</g>
<!-- Node13 -->
<g id="node28" class="node"><title>Node13</title>
<a xlink:href="classVector3D.xhtml#a0808a8e6004a347d82f9214778b5968f" target="_top" xlink:title="Gibt das Skalarprodukt mit einem anderen Vektor. ">
<polygon fill="none" stroke="black" points="1000.5,-689.308 1000.5,-710.308 1111.5,-710.308 1111.5,-689.308 1000.5,-689.308"/>
<text text-anchor="middle" x="1056" y="-697.308" font-family="Helvetica,sans-Serif" font-size="10.00">Vector3D::dotProduct</text>
</a>
</g>
<!-- Node7&#45;&gt;Node13 -->
<g id="edge30" class="edge"><title>Node7&#45;&gt;Node13</title>
<path fill="none" stroke="midnightblue" d="M956.034,-699.808C967.345,-699.808 979.004,-699.808 990.188,-699.808"/>
<polygon fill="midnightblue" stroke="midnightblue" points="990.301,-703.308 1000.3,-699.808 990.301,-696.308 990.301,-703.308"/>
</g>
<!-- Node14 -->
<g id="node33" class="node"><title>Node14</title>
<a xlink:href="classVector3D.xhtml#a3dec11494c99de7370e3877054c3ef13" target="_top" xlink:title="Multipliziert den Vektor mit einem Skalar. ">
<polygon fill="none" stroke="black" points="1014.5,-747.308 1014.5,-768.308 1097.5,-768.308 1097.5,-747.308 1014.5,-747.308"/>
<text text-anchor="middle" x="1056" y="-755.308" font-family="Helvetica,sans-Serif" font-size="10.00">Vector3D::mult</text>
</a>
</g>
<!-- Node7&#45;&gt;Node14 -->
<g id="edge38" class="edge"><title>Node7&#45;&gt;Node14</title>
<path fill="none" stroke="midnightblue" d="M915.967,-710.311C943.844,-719.767 984.997,-733.725 1015.48,-744.065"/>
<polygon fill="midnightblue" stroke="midnightblue" points="1014.38,-747.387 1024.98,-747.285 1016.63,-740.758 1014.38,-747.387"/>
</g>
<!-- Node15 -->
<g id="node35" class="node"><title>Node15</title>
<a xlink:href="classVector3D.xhtml#a46dd0d9a849809a3857783102959e788" target="_top" xlink:title="Gibt eine Kopie des Vektors zurück. ">
<polygon fill="none" stroke="black" points="1013.5,-649.308 1013.5,-670.308 1098.5,-670.308 1098.5,-649.308 1013.5,-649.308"/>
<text text-anchor="middle" x="1056" y="-657.308" font-family="Helvetica,sans-Serif" font-size="10.00">Vector3D::copy</text>
</a>
</g>
<!-- Node7&#45;&gt;Node15 -->
<g id="edge40" class="edge"><title>Node7&#45;&gt;Node15</title>
<path fill="none" stroke="midnightblue" d="M929.928,-689.298C952.527,-684.012 980.048,-677.574 1003.6,-672.064"/>
<polygon fill="midnightblue" stroke="midnightblue" points="1004.49,-675.451 1013.43,-669.765 1002.9,-668.635 1004.49,-675.451"/>
</g>
<!-- Node9 -->
<g id="node17" class="node"><title>Node9</title>
<a xlink:href="classVector3D.xhtml#aa9eaf29045bf32b95c5c7bcb2b8b68d7" target="_top" xlink:title="Gibt das X&#45;Element des Vektors zurück. ">
<polygon fill="none" stroke="black" points="1156,-491.308 1156,-512.308 1240,-512.308 1240,-491.308 1156,-491.308"/>
<text text-anchor="middle" x="1198" y="-499.308" font-family="Helvetica,sans-Serif" font-size="10.00">Vector3D::getX</text>
</a>
</g>
<!-- Node8&#45;&gt;Node9 -->
<g id="edge16" class="edge"><title>Node8&#45;&gt;Node9</title>
<path fill="none" stroke="midnightblue" d="M1096.27,-611.238C1104.55,-608.402 1112.89,-604.677 1120,-599.808 1150.16,-579.144 1174.35,-543.355 1187.4,-521.219"/>
<polygon fill="midnightblue" stroke="midnightblue" points="1190.52,-522.801 1192.44,-512.382 1184.45,-519.33 1190.52,-522.801"/>
</g>
<!-- Node10 -->
<g id="node19" class="node"><title>Node10</title>
<a xlink:href="classVector3D.xhtml#aa3ffff17b886274a58417dfe4bb4c4a2" target="_top" xlink:title="Gibt das Y&#45;Element des Vektors zurück. ">
<polygon fill="none" stroke="black" points="1156,-451.308 1156,-472.308 1240,-472.308 1240,-451.308 1156,-451.308"/>
<text text-anchor="middle" x="1198" y="-459.308" font-family="Helvetica,sans-Serif" font-size="10.00">Vector3D::getY</text>
</a>
</g>
<!-- Node8&#45;&gt;Node10 -->
<g id="edge18" class="edge"><title>Node8&#45;&gt;Node10</title>
<path fill="none" stroke="midnightblue" d="M1096.18,-613.703C1104.94,-610.735 1113.52,-606.333 1120,-599.808 1158.64,-560.905 1120.21,-523.345 1156,-481.808 1157.12,-480.504 1158.35,-479.278 1159.66,-478.127"/>
<polygon fill="midnightblue" stroke="midnightblue" points="1161.7,-480.967 1167.83,-472.322 1157.65,-475.261 1161.7,-480.967"/>
</g>
<!-- Node11 -->
<g id="node21" class="node"><title>Node11</title>
<a xlink:href="classVector3D.xhtml#ab0dcbf253ff78856eccb5ea74d080fc7" target="_top" xlink:title="Gibt das Z&#45;Element des Vektors zurück. ">
<polygon fill="none" stroke="black" points="1156.5,-411.308 1156.5,-432.308 1239.5,-432.308 1239.5,-411.308 1156.5,-411.308"/>
<text text-anchor="middle" x="1198" y="-419.308" font-family="Helvetica,sans-Serif" font-size="10.00">Vector3D::getZ</text>
</a>
</g>
<!-- Node8&#45;&gt;Node11 -->
<g id="edge20" class="edge"><title>Node8&#45;&gt;Node11</title>
<path fill="none" stroke="midnightblue" d="M1096.19,-614.145C1105.06,-611.165 1113.68,-606.647 1120,-599.808 1168.88,-546.913 1110.98,-498.027 1156,-441.808 1156.95,-440.626 1157.98,-439.51 1159.08,-438.456"/>
<polygon fill="midnightblue" stroke="midnightblue" points="1161.28,-441.183 1167.17,-432.375 1157.07,-435.589 1161.28,-441.183"/>
</g>
<!-- Node12&#45;&gt;Node9 -->
<g id="edge28" class="edge"><title>Node12&#45;&gt;Node9</title>
<path fill="none" stroke="midnightblue" d="M1097.1,-569.219C1104.89,-566.587 1112.84,-563.454 1120,-559.808 1141.7,-548.756 1163.71,-531.739 1178.8,-518.99"/>
<polygon fill="midnightblue" stroke="midnightblue" points="1181.13,-521.596 1186.42,-512.412 1176.56,-516.297 1181.13,-521.596"/>
</g>
<!-- Node12&#45;&gt;Node10 -->
<g id="edge26" class="edge"><title>Node12&#45;&gt;Node10</title>
<path fill="none" stroke="midnightblue" d="M1105.13,-569.259C1110.52,-566.752 1115.63,-563.648 1120,-559.808 1148.69,-534.614 1129.16,-508.967 1156,-481.808 1157.25,-480.544 1158.59,-479.349 1160.01,-478.222"/>
<polygon fill="midnightblue" stroke="midnightblue" points="1162.28,-480.914 1168.69,-472.478 1158.42,-475.075 1162.28,-480.914"/>
</g>
<!-- Node12&#45;&gt;Node11 -->
<g id="edge24" class="edge"><title>Node12&#45;&gt;Node11</title>
<path fill="none" stroke="midnightblue" d="M1106.93,-569.183C1111.74,-566.687 1116.23,-563.607 1120,-559.808 1158.64,-520.905 1120.21,-483.345 1156,-441.808 1157.12,-440.504 1158.35,-439.278 1159.66,-438.127"/>
<polygon fill="midnightblue" stroke="midnightblue" points="1161.7,-440.967 1167.83,-432.322 1157.65,-435.261 1161.7,-440.967"/>
</g>
<!-- Node13&#45;&gt;Node9 -->
<g id="edge32" class="edge"><title>Node13&#45;&gt;Node9</title>
<path fill="none" stroke="midnightblue" d="M1105.53,-689.189C1110.78,-686.694 1115.75,-683.613 1120,-679.808 1167.83,-636.971 1187.65,-559.452 1194.68,-522.491"/>
<polygon fill="midnightblue" stroke="midnightblue" points="1198.17,-522.862 1196.46,-512.405 1191.27,-521.642 1198.17,-522.862"/>
</g>
<!-- Node13&#45;&gt;Node10 -->
<g id="edge34" class="edge"><title>Node13&#45;&gt;Node10</title>
<path fill="none" stroke="midnightblue" d="M1108,-689.273C1112.49,-686.755 1116.61,-683.645 1120,-679.808 1179.24,-612.794 1101.65,-552.843 1156,-481.808 1156.8,-480.761 1157.67,-479.767 1158.6,-478.823"/>
<polygon fill="midnightblue" stroke="midnightblue" points="1160.91,-481.455 1166.6,-472.517 1156.58,-475.956 1160.91,-481.455"/>
</g>
<!-- Node13&#45;&gt;Node11 -->
<g id="edge36" class="edge"><title>Node13&#45;&gt;Node11</title>
<path fill="none" stroke="midnightblue" d="M1108.42,-689.201C1112.77,-686.694 1116.74,-683.607 1120,-679.808 1189.65,-598.609 1092.26,-527.728 1156,-441.808 1156.78,-440.75 1157.64,-439.745 1158.55,-438.792"/>
<polygon fill="midnightblue" stroke="midnightblue" points="1160.87,-441.419 1166.5,-432.442 1156.5,-435.951 1160.87,-441.419"/>
</g>
<!-- Node17&#45;&gt;Node8 -->
<g id="edge66" class="edge"><title>Node17&#45;&gt;Node8</title>
<path fill="none" stroke="midnightblue" d="M717.397,-402.532C728.779,-425.201 756.008,-479.697 778,-525.808 794.436,-560.27 782.536,-582.18 814,-603.808 870.44,-642.603 952.855,-638.558 1005.45,-630.451"/>
<polygon fill="midnightblue" stroke="midnightblue" points="1006.26,-633.865 1015.56,-628.787 1005.12,-626.958 1006.26,-633.865"/>
</g>
<!-- Node17&#45;&gt;Node12 -->
<g id="edge102" class="edge"><title>Node17&#45;&gt;Node12</title>
<path fill="none" stroke="midnightblue" d="M719.783,-402.493C735.418,-423.256 772.698,-469.326 814,-495.808 869.807,-531.589 942.673,-554.181 993.81,-566.811"/>
<polygon fill="midnightblue" stroke="midnightblue" points="993.195,-570.263 1003.74,-569.206 994.836,-563.458 993.195,-570.263"/>
</g>
<!-- Node17&#45;&gt;Node13 -->
<g id="edge84" class="edge"><title>Node17&#45;&gt;Node13</title>
<path fill="none" stroke="midnightblue" d="M718.538,-402.49C731.804,-424.648 761.984,-477.569 778,-525.808 805.633,-609.034 746.571,-663.74 814,-719.808 874.474,-770.093 975.33,-736.464 1025.59,-714.522"/>
<polygon fill="midnightblue" stroke="midnightblue" points="1027.26,-717.611 1034.94,-710.318 1024.39,-711.227 1027.26,-717.611"/>
</g>
<!-- Node17&#45;&gt;Node14 -->
<g id="edge86" class="edge"><title>Node17&#45;&gt;Node14</title>
<path fill="none" stroke="midnightblue" d="M718.625,-402.462C732.054,-424.566 762.515,-477.396 778,-525.808 793.159,-573.201 776.834,-713.723 814,-746.808 867.711,-794.621 957.627,-783.473 1011.43,-770.795"/>
<polygon fill="midnightblue" stroke="midnightblue" points="1012.49,-774.137 1021.36,-768.34 1010.81,-767.341 1012.49,-774.137"/>
</g>
<!-- Node17&#45;&gt;Node15 -->
<g id="edge64" class="edge"><title>Node17&#45;&gt;Node15</title>
<path fill="none" stroke="midnightblue" d="M717.808,-402.349C729.97,-424.673 758.591,-478.551 778,-525.808 797.222,-572.61 774.595,-602.07 814,-633.808 867.176,-676.637 949.638,-675.758 1003.23,-669.283"/>
<polygon fill="midnightblue" stroke="midnightblue" points="1003.76,-672.744 1013.22,-667.972 1002.85,-665.804 1003.76,-672.744"/>
</g>
<!-- Node18 -->
<g id="node41" class="node"><title>Node18</title>
<a xlink:href="classVector3D.xhtml#ac83e936757114f32bc9d868ea5fabbc2" target="_top" xlink:title="Testet, ob zwei Vektoren identisch sind. ">
<polygon fill="none" stroke="black" points="1010,-451.308 1010,-472.308 1102,-472.308 1102,-451.308 1010,-451.308"/>
<text text-anchor="middle" x="1056" y="-459.308" font-family="Helvetica,sans-Serif" font-size="10.00">Vector3D::equals</text>
</a>
</g>
<!-- Node17&#45;&gt;Node18 -->
<g id="edge46" class="edge"><title>Node17&#45;&gt;Node18</title>
<path fill="none" stroke="midnightblue" d="M735.833,-402.435C756.203,-411.089 786.494,-422.958 814,-429.808 876.581,-445.391 950.273,-453.755 999.753,-457.976"/>
<polygon fill="midnightblue" stroke="midnightblue" points="999.678,-461.482 1009.93,-458.815 1000.25,-454.505 999.678,-461.482"/>
</g>
<!-- Node19 -->
<g id="node46" class="node"><title>Node19</title>
<a xlink:href="classTetrahedron.xhtml#a88afe41ae5991168ad51ba4dbb2e1a6b" target="_top" xlink:title="Gibt eine Referenz auf den Ortsvektor zum index+1 Punkt des Tetraeders zurück. ">
<polygon fill="none" stroke="black" points="832,-381.308 832,-402.308 938,-402.308 938,-381.308 832,-381.308"/>
<text text-anchor="middle" x="885" y="-389.308" font-family="Helvetica,sans-Serif" font-size="10.00">Tetrahedron::getVert</text>
</a>
</g>
<!-- Node17&#45;&gt;Node19 -->
<g id="edge54" class="edge"><title>Node17&#45;&gt;Node19</title>
<path fill="none" stroke="midnightblue" d="M777.897,-391.808C792.266,-391.808 807.44,-391.808 821.705,-391.808"/>
<polygon fill="midnightblue" stroke="midnightblue" points="821.907,-395.308 831.907,-391.808 821.907,-388.308 821.907,-395.308"/>
</g>
<!-- Node20 -->
<g id="node48" class="node"><title>Node20</title>
<a xlink:href="classTetrahedron.xhtml#add51e42ab17afbd023d47a436ce24b0d" target="_top" xlink:title="Gibt eine Referenz auf den Ortsvektor zum 1. ">
<polygon fill="none" stroke="black" points="835,-341.308 835,-362.308 935,-362.308 935,-341.308 835,-341.308"/>
<text text-anchor="middle" x="885" y="-349.308" font-family="Helvetica,sans-Serif" font-size="10.00">Tetrahedron::getV1</text>
</a>
</g>
<!-- Node17&#45;&gt;Node20 -->
<g id="edge56" class="edge"><title>Node17&#45;&gt;Node20</title>
<path fill="none" stroke="midnightblue" d="M757.454,-381.298C779.616,-376.174 806.458,-369.968 829.789,-364.573"/>
<polygon fill="midnightblue" stroke="midnightblue" points="830.595,-367.979 839.55,-362.316 829.018,-361.159 830.595,-367.979"/>
</g>
<!-- Node21 -->
<g id="node50" class="node"><title>Node21</title>
<a xlink:href="classTetrahedron.xhtml#aa728c967f17e2b8408009b5f2b77a17a" target="_top" xlink:title="Gibt eine Referenz auf den Ortsvektor zum 2. ">
<polygon fill="none" stroke="black" points="835,-301.308 835,-322.308 935,-322.308 935,-301.308 835,-301.308"/>
<text text-anchor="middle" x="885" y="-309.308" font-family="Helvetica,sans-Serif" font-size="10.00">Tetrahedron::getV2</text>
</a>
</g>
<!-- Node17&#45;&gt;Node21 -->
<g id="edge58" class="edge"><title>Node17&#45;&gt;Node21</title>
<path fill="none" stroke="midnightblue" d="M727.24,-381.145C746.625,-367.991 781.496,-345.671 814,-331.808 819.433,-329.49 825.214,-327.359 831.039,-325.421"/>
<polygon fill="midnightblue" stroke="midnightblue" points="832.342,-328.681 840.834,-322.345 830.244,-322.003 832.342,-328.681"/>
</g>
<!-- Node22 -->
<g id="node52" class="node"><title>Node22</title>
<a xlink:href="classTetrahedron.xhtml#aa539a97f133ea621520121acb2ef4a7e" target="_top" xlink:title="Gibt eine Referenz auf den Ortsvektor zum 3. ">
<polygon fill="none" stroke="black" points="835,-261.308 835,-282.308 935,-282.308 935,-261.308 835,-261.308"/>
<text text-anchor="middle" x="885" y="-269.308" font-family="Helvetica,sans-Serif" font-size="10.00">Tetrahedron::getV3</text>
</a>
</g>
<!-- Node17&#45;&gt;Node22 -->
<g id="edge60" class="edge"><title>Node17&#45;&gt;Node22</title>
<path fill="none" stroke="midnightblue" d="M719.725,-381.296C735.259,-360.916 772.37,-315.923 814,-291.808 817.678,-289.677 821.595,-287.763 825.628,-286.045"/>
<polygon fill="midnightblue" stroke="midnightblue" points="827.104,-289.228 835.19,-282.382 824.6,-282.691 827.104,-289.228"/>
</g>
<!-- Node23 -->
<g id="node54" class="node"><title>Node23</title>
<a xlink:href="classTriangle.xhtml#a6de5f8560482f4130bdbb96b25aa1b58" target="_top" xlink:title="Gibt eine Referenz auf den Ortsvektor zum zweiten Punkt des Dreiecks zurück. ">
<polygon fill="none" stroke="black" points="843.5,-221.308 843.5,-242.308 926.5,-242.308 926.5,-221.308 843.5,-221.308"/>
<text text-anchor="middle" x="885" y="-229.308" font-family="Helvetica,sans-Serif" font-size="10.00">Triangle::getV2</text>
</a>
</g>
<!-- Node17&#45;&gt;Node23 -->
<g id="edge62" class="edge"><title>Node17&#45;&gt;Node23</title>
<path fill="none" stroke="midnightblue" d="M716.682,-381.162C728.771,-354.943 763.642,-286.844 814,-251.808 819.926,-247.685 826.685,-244.408 833.623,-241.804"/>
<polygon fill="midnightblue" stroke="midnightblue" points="834.741,-245.121 843.134,-238.654 832.54,-238.476 834.741,-245.121"/>
</g>
<!-- Node24 -->
<g id="node58" class="node"><title>Node24</title>
<a xlink:href="classTriangle.xhtml#ae054a0eae5dae026c5af69274c5f277e" target="_top" xlink:title="Gibt eine Referenz auf den Ortsvektor zum ersten Punkt des Dreiecks zurück. ">
<polygon fill="none" stroke="black" points="843.5,-181.308 843.5,-202.308 926.5,-202.308 926.5,-181.308 843.5,-181.308"/>
<text text-anchor="middle" x="885" y="-189.308" font-family="Helvetica,sans-Serif" font-size="10.00">Triangle::getV1</text>
</a>
</g>
<!-- Node17&#45;&gt;Node24 -->
<g id="edge68" class="edge"><title>Node17&#45;&gt;Node24</title>
<path fill="none" stroke="midnightblue" d="M714.947,-380.969C724.03,-349.657 754.639,-258.347 814,-211.808 819.82,-207.245 826.627,-203.723 833.68,-201.004"/>
<polygon fill="midnightblue" stroke="midnightblue" points="835,-204.254 843.381,-197.773 832.787,-197.613 835,-204.254"/>
</g>
<!-- Node25 -->
<g id="node60" class="node"><title>Node25</title>
<a xlink:href="classTriangle.xhtml#a792a627dc42adad87c0b30e16a6b5824" target="_top" xlink:title="Gibt eine Referenz auf den Ortsvektor zum dritten Punkt des Dreiecks zurück. ">
<polygon fill="none" stroke="black" points="843.5,-141.308 843.5,-162.308 926.5,-162.308 926.5,-141.308 843.5,-141.308"/>
<text text-anchor="middle" x="885" y="-149.308" font-family="Helvetica,sans-Serif" font-size="10.00">Triangle::getV3</text>
</a>
</g>
<!-- Node17&#45;&gt;Node25 -->
<g id="edge70" class="edge"><title>Node17&#45;&gt;Node25</title>
<path fill="none" stroke="midnightblue" d="M713.709,-381.203C719.986,-345.784 745.099,-230.507 814,-171.808 819.697,-166.955 826.492,-163.275 833.588,-160.486"/>
<polygon fill="midnightblue" stroke="midnightblue" points="835.004,-163.703 843.375,-157.208 832.781,-157.065 835.004,-163.703"/>
</g>
<!-- Node26 -->
<g id="node62" class="node"><title>Node26</title>
<a xlink:href="classTetrahedron.xhtml#a7308b7b73edeba7782dff551a03095bf" target="_top" xlink:title="Gibt eine Referenz auf den Ortsvektor zum 3. ">
<polygon fill="none" stroke="black" points="835,-101.308 835,-122.308 935,-122.308 935,-101.308 835,-101.308"/>
<text text-anchor="middle" x="885" y="-109.308" font-family="Helvetica,sans-Serif" font-size="10.00">Tetrahedron::getV4</text>
</a>
</g>
<!-- Node17&#45;&gt;Node26 -->
<g id="edge72" class="edge"><title>Node17&#45;&gt;Node26</title>
<path fill="none" stroke="midnightblue" d="M712.869,-381.282C716.684,-342.047 735.459,-202.914 814,-131.808 817.458,-128.677 821.369,-126.033 825.534,-123.799"/>
<polygon fill="midnightblue" stroke="midnightblue" points="827.305,-126.84 834.982,-119.537 824.427,-120.459 827.305,-126.84"/>
</g>
<!-- Node27 -->
<g id="node64" class="node"><title>Node27</title>
<a xlink:href="classTriangle.xhtml#a3c72b19f316fa9ffb0a2f206e3558790" target="_top" xlink:title="Gibt die Normale des Dreiecks zurück. ">
<polygon fill="none" stroke="black" points="834,-573.308 834,-594.308 936,-594.308 936,-573.308 834,-573.308"/>
<text text-anchor="middle" x="885" y="-581.308" font-family="Helvetica,sans-Serif" font-size="10.00">Triangle::getNormal</text>
</a>
</g>
<!-- Node17&#45;&gt;Node27 -->
<g id="edge74" class="edge"><title>Node17&#45;&gt;Node27</title>
<path fill="none" stroke="midnightblue" d="M715.62,-402.53C726.068,-431.888 759.077,-514.346 814,-558.808 818.999,-562.855 824.701,-566.27 830.649,-569.146"/>
<polygon fill="midnightblue" stroke="midnightblue" points="829.567,-572.491 840.136,-573.236 832.339,-566.063 829.567,-572.491"/>
</g>
<!-- Node28 -->
<g id="node69" class="node"><title>Node28</title>
<a xlink:href="classVector3D.xhtml#abfb12ecb9c9beb88e095cc4a1a512d3c" target="_top" xlink:title="Normalisiert den Vektor. ">
<polygon fill="none" stroke="black" points="1003,-529.308 1003,-550.308 1109,-550.308 1109,-529.308 1003,-529.308"/>
<text text-anchor="middle" x="1056" y="-537.308" font-family="Helvetica,sans-Serif" font-size="10.00">Vector3D::normalize</text>
</a>
</g>
<!-- Node17&#45;&gt;Node28 -->
<g id="edge114" class="edge"><title>Node17&#45;&gt;Node28</title>
<path fill="none" stroke="midnightblue" d="M726.967,-402.487C746.349,-415.975 781.507,-439.29 814,-454.808 879.036,-485.867 958.567,-511.628 1008.27,-526.376"/>
<polygon fill="midnightblue" stroke="midnightblue" points="1007.52,-529.804 1018.1,-529.266 1009.49,-523.088 1007.52,-529.804"/>
</g>
<!-- Node29 -->
<g id="node73" class="node"><title>Node29</title>
<a xlink:href="classVector3D.xhtml#a4bf1dcea68296f2f38f3574242933153" target="_top" xlink:title="Gibt den Winkel zu einem anderen Vektor in RAD zurück. ">
<polygon fill="none" stroke="black" points="828.5,-61.3077 828.5,-82.3077 941.5,-82.3077 941.5,-61.3077 828.5,-61.3077"/>
<text text-anchor="middle" x="885" y="-69.3077" font-family="Helvetica,sans-Serif" font-size="10.00">Vector3D::getAngleTo</text>
</a>
</g>
<!-- Node17&#45;&gt;Node29 -->
<g id="edge88" class="edge"><title>Node17&#45;&gt;Node29</title>
<path fill="none" stroke="midnightblue" d="M714.218,-381.229C724.53,-332.978 769.191,-134.296 814,-91.8077 815.699,-90.1969 817.517,-88.7141 819.429,-87.3493"/>
<polygon fill="midnightblue" stroke="midnightblue" points="821.503,-90.1895 828.333,-82.09 817.942,-84.1625 821.503,-90.1895"/>
</g>
<!-- Node30 -->
<g id="node78" class="node"><title>Node30</title>
<a xlink:href="classVector3D.xhtml#a2e3aa1d244483abcb1a8e48e47e79512" target="_top" xlink:title="Gibt die Länge des Vektors zurück. ">
<polygon fill="none" stroke="black" points="1002.5,-61.3077 1002.5,-82.3077 1109.5,-82.3077 1109.5,-61.3077 1002.5,-61.3077"/>
<text text-anchor="middle" x="1056" y="-69.3077" font-family="Helvetica,sans-Serif" font-size="10.00">Vector3D::getLength</text>
</a>
</g>
<!-- Node17&#45;&gt;Node30 -->
<g id="edge100" class="edge"><title>Node17&#45;&gt;Node30</title>
<path fill="none" stroke="midnightblue" d="M714.15,-381.071C725.965,-322.567 783.584,-43.9897 814,-20.8077 880.43,29.8235 985.639,-25.9422 1032.33,-55.6414"/>
<polygon fill="midnightblue" stroke="midnightblue" points="1030.57,-58.6717 1040.86,-61.1944 1034.39,-52.8053 1030.57,-58.6717"/>
</g>
<!-- Node32 -->
<g id="node84" class="node"><title>Node32</title>
<a xlink:href="classVector3D.xhtml#a42deb992ec2f44abfb5824ea4917135c" target="_top" xlink:title="Gibt den Abstand zu einem anderen Vektor zurück. ">
<polygon fill="none" stroke="black" points="992,-295.308 992,-316.308 1120,-316.308 1120,-295.308 992,-295.308"/>
<text text-anchor="middle" x="1056" y="-303.308" font-family="Helvetica,sans-Serif" font-size="10.00">Vector3D::getDistanceTo</text>
</a>
</g>
<!-- Node17&#45;&gt;Node32 -->
<g id="edge104" class="edge"><title>Node17&#45;&gt;Node32</title>
<path fill="none" stroke="midnightblue" d="M713.521,-380.963C721.249,-327.565 758.006,-93.4689 814,-51.8077 864.634,-14.1348 903.836,-16.2837 956,-51.8077 996.762,-79.5672 1037.34,-230.072 1051.09,-285.393"/>
<polygon fill="midnightblue" stroke="midnightblue" points="1047.7,-286.244 1053.48,-295.124 1054.5,-284.578 1047.7,-286.244"/>
</g>
<!-- Node33 -->
<g id="node91" class="node"><title>Node33</title>
<a xlink:href="classVector3D.xhtml#a0d14ff1f789254ff90adc22628eb8347" target="_top" xlink:title="Addiert einen Vektor zu diesem Vektor. ">
<polygon fill="none" stroke="black" points="1016,-411.308 1016,-432.308 1096,-432.308 1096,-411.308 1016,-411.308"/>
<text text-anchor="middle" x="1056" y="-419.308" font-family="Helvetica,sans-Serif" font-size="10.00">Vector3D::add</text>
</a>
</g>
<!-- Node17&#45;&gt;Node33 -->
<g id="edge116" class="edge"><title>Node17&#45;&gt;Node33</title>
<path fill="none" stroke="midnightblue" d="M757.717,-402.314C775.229,-405.931 795.452,-409.619 814,-411.808 879.888,-419.583 956.483,-421.572 1005.56,-421.955"/>
<polygon fill="midnightblue" stroke="midnightblue" points="1005.58,-425.455 1015.6,-422.013 1005.62,-418.455 1005.58,-425.455"/>
</g>
<!-- Node18&#45;&gt;Node9 -->
<g id="edge48" class="edge"><title>Node18&#45;&gt;Node9</title>
<path fill="none" stroke="midnightblue" d="M1093.31,-472.317C1110.86,-477.262 1131.99,-483.214 1150.66,-488.472"/>
<polygon fill="midnightblue" stroke="midnightblue" points="1149.87,-491.887 1160.45,-491.229 1151.77,-485.149 1149.87,-491.887"/>
</g>
<!-- Node18&#45;&gt;Node10 -->
<g id="edge50" class="edge"><title>Node18&#45;&gt;Node10</title>
<path fill="none" stroke="midnightblue" d="M1102.1,-461.808C1116.05,-461.808 1131.46,-461.808 1145.78,-461.808"/>
<polygon fill="midnightblue" stroke="midnightblue" points="1145.97,-465.308 1155.97,-461.808 1145.97,-458.308 1145.97,-465.308"/>
</g>
<!-- Node18&#45;&gt;Node11 -->
<g id="edge52" class="edge"><title>Node18&#45;&gt;Node11</title>
<path fill="none" stroke="midnightblue" d="M1093.31,-451.298C1110.86,-446.354 1131.99,-440.402 1150.66,-435.144"/>
<polygon fill="midnightblue" stroke="midnightblue" points="1151.77,-438.466 1160.45,-432.386 1149.87,-431.728 1151.77,-438.466"/>
</g>
<!-- Node27&#45;&gt;Node8 -->
<g id="edge78" class="edge"><title>Node27&#45;&gt;Node8</title>
<path fill="none" stroke="midnightblue" d="M934.92,-594.317C957.232,-599.014 983.479,-604.54 1005.82,-609.244"/>
<polygon fill="midnightblue" stroke="midnightblue" points="1005.28,-612.706 1015.78,-611.341 1006.72,-605.856 1005.28,-612.706"/>
</g>
<!-- Node27&#45;&gt;Node12 -->
<g id="edge80" class="edge"><title>Node27&#45;&gt;Node12</title>
<path fill="none" stroke="midnightblue" d="M936.306,-582.608C951.54,-582.251 968.509,-581.854 984.769,-581.474"/>
<polygon fill="midnightblue" stroke="midnightblue" points="984.865,-584.973 994.78,-581.24 984.701,-577.975 984.865,-584.973"/>
</g>
<!-- Node27&#45;&gt;Node15 -->
<g id="edge76" class="edge"><title>Node27&#45;&gt;Node15</title>
<path fill="none" stroke="midnightblue" d="M902.701,-594.334C923.544,-606.427 959.455,-626.334 992,-639.808 997.374,-642.033 1003.09,-644.151 1008.81,-646.12"/>
<polygon fill="midnightblue" stroke="midnightblue" points="1007.78,-649.466 1018.37,-649.284 1009.98,-642.82 1007.78,-649.466"/>
</g>
<!-- Node27&#45;&gt;Node28 -->
<g id="edge82" class="edge"><title>Node27&#45;&gt;Node28</title>
<path fill="none" stroke="midnightblue" d="M925.959,-573.269C949.772,-567.141 979.98,-559.368 1005.29,-552.857"/>
<polygon fill="midnightblue" stroke="midnightblue" points="1006.27,-556.219 1015.08,-550.337 1004.52,-549.439 1006.27,-556.219"/>
</g>
<!-- Node29&#45;&gt;Node9 -->
<g id="edge90" class="edge"><title>Node29&#45;&gt;Node9</title>
<path fill="none" stroke="midnightblue" d="M941.66,-80.6051C947.114,-83.4271 952.068,-87.0831 956,-91.8077 1011.68,-158.704 930.603,-420.119 992,-481.808 1031.44,-521.432 1099.03,-520.28 1145.98,-513.28"/>
<polygon fill="midnightblue" stroke="midnightblue" points="1146.66,-516.716 1155.97,-511.658 1145.53,-509.807 1146.66,-516.716"/>
</g>
<!-- Node29&#45;&gt;Node10 -->
<g id="edge92" class="edge"><title>Node29&#45;&gt;Node10</title>
<path fill="none" stroke="midnightblue" d="M941.814,-80.9404C947.168,-83.7088 952.057,-87.2605 956,-91.8077 1035.31,-183.269 913.988,-269.232 992,-361.808 1030.41,-407.385 1069.83,-369.623 1120,-401.808 1140.13,-414.723 1136.83,-427.501 1156,-441.808 1158.1,-443.372 1160.33,-444.86 1162.64,-446.267"/>
<polygon fill="midnightblue" stroke="midnightblue" points="1161.31,-449.529 1171.76,-451.275 1164.68,-443.394 1161.31,-449.529"/>
</g>
<!-- Node29&#45;&gt;Node11 -->
<g id="edge94" class="edge"><title>Node29&#45;&gt;Node11</title>
<path fill="none" stroke="midnightblue" d="M941.723,-81.0201C947.094,-83.7739 952.011,-87.3003 956,-91.8077 1025.73,-170.607 924.239,-245.306 992,-325.808 1030.65,-371.721 1066.24,-342.14 1120,-368.808 1140.35,-378.903 1161.56,-393.626 1176.71,-404.994"/>
<polygon fill="midnightblue" stroke="midnightblue" points="1174.81,-407.948 1184.88,-411.24 1179.06,-402.386 1174.81,-407.948"/>
</g>
<!-- Node29&#45;&gt;Node30 -->
<g id="edge96" class="edge"><title>Node29&#45;&gt;Node30</title>
<path fill="none" stroke="midnightblue" d="M941.941,-71.8077C958.112,-71.8077 975.825,-71.8077 992.366,-71.8077"/>
<polygon fill="midnightblue" stroke="midnightblue" points="992.49,-75.3078 1002.49,-71.8077 992.49,-68.3078 992.49,-75.3078"/>
</g>
<!-- Node31 -->
<g id="node80" class="node"><title>Node31</title>
<a xlink:href="GeometryClasses_8cpp.xhtml#a73527f20206c906e9f333e0f233de13e" target="_top" xlink:title="sqr">
<polygon fill="none" stroke="black" points="1183,-178.308 1183,-199.308 1213,-199.308 1213,-178.308 1183,-178.308"/>
<text text-anchor="middle" x="1198" y="-186.308" font-family="Helvetica,sans-Serif" font-size="10.00">sqr</text>
</a>
</g>
<!-- Node30&#45;&gt;Node31 -->
<g id="edge98" class="edge"><title>Node30&#45;&gt;Node31</title>
<path fill="none" stroke="midnightblue" d="M1069.1,-82.6051C1093.73,-102.892 1147.09,-146.859 1176.85,-171.384"/>
<polygon fill="midnightblue" stroke="midnightblue" points="1174.98,-174.379 1184.93,-178.036 1179.44,-168.976 1174.98,-174.379"/>
</g>
<!-- Node32&#45;&gt;Node9 -->
<g id="edge108" class="edge"><title>Node32&#45;&gt;Node9</title>
<path fill="none" stroke="midnightblue" d="M1063.9,-316.383C1076.62,-333.688 1102.06,-369.384 1120,-401.808 1138.88,-435.922 1128.73,-453.942 1156,-481.808 1157.24,-483.078 1158.58,-484.277 1159.99,-485.408"/>
<polygon fill="midnightblue" stroke="midnightblue" points="1158.4,-488.55 1168.66,-491.166 1162.27,-482.719 1158.4,-488.55"/>
</g>
<!-- Node32&#45;&gt;Node10 -->
<g id="edge110" class="edge"><title>Node32&#45;&gt;Node10</title>
<path fill="none" stroke="midnightblue" d="M1069.05,-316.339C1082.97,-328.056 1105.02,-348.082 1120,-368.808 1141.19,-398.129 1130.25,-416.404 1156,-441.808 1157.42,-443.211 1158.96,-444.531 1160.59,-445.768"/>
<polygon fill="midnightblue" stroke="midnightblue" points="1158.9,-448.845 1169.21,-451.296 1162.68,-442.952 1158.9,-448.845"/>
</g>
<!-- Node32&#45;&gt;Node11 -->
<g id="edge112" class="edge"><title>Node32&#45;&gt;Node11</title>
<path fill="none" stroke="midnightblue" d="M1092.12,-316.384C1101.67,-320.1 1111.63,-324.87 1120,-330.808 1147.81,-350.548 1171.98,-382.312 1185.78,-402.612"/>
<polygon fill="midnightblue" stroke="midnightblue" points="1182.92,-404.641 1191.36,-411.048 1188.76,-400.778 1182.92,-404.641"/>
</g>
<!-- Node32&#45;&gt;Node31 -->
<g id="edge106" class="edge"><title>Node32&#45;&gt;Node31</title>
<path fill="none" stroke="midnightblue" d="M1069.1,-295.01C1093.73,-274.724 1147.09,-230.757 1176.85,-206.232"/>
<polygon fill="midnightblue" stroke="midnightblue" points="1179.44,-208.639 1184.93,-199.579 1174.98,-203.237 1179.44,-208.639"/>
</g>
<!-- Node33&#45;&gt;Node9 -->
<g id="edge118" class="edge"><title>Node33&#45;&gt;Node9</title>
<path fill="none" stroke="midnightblue" d="M1096.05,-430.707C1104.34,-433.522 1112.75,-437.156 1120,-441.808 1140.13,-454.723 1136.83,-467.501 1156,-481.808 1158.1,-483.372 1160.33,-484.86 1162.64,-486.267"/>
<polygon fill="midnightblue" stroke="midnightblue" points="1161.31,-489.529 1171.76,-491.275 1164.68,-483.394 1161.31,-489.529"/>
</g>
<!-- Node33&#45;&gt;Node10 -->
<g id="edge120" class="edge"><title>Node33&#45;&gt;Node10</title>
<path fill="none" stroke="midnightblue" d="M1093.31,-432.317C1110.86,-437.262 1131.99,-443.214 1150.66,-448.472"/>
<polygon fill="midnightblue" stroke="midnightblue" points="1149.87,-451.887 1160.45,-451.229 1151.77,-445.149 1149.87,-451.887"/>
</g>
<!-- Node33&#45;&gt;Node11 -->
<g id="edge122" class="edge"><title>Node33&#45;&gt;Node11</title>
<path fill="none" stroke="midnightblue" d="M1096.31,-421.808C1111.65,-421.808 1129.35,-421.808 1145.64,-421.808"/>
<polygon fill="midnightblue" stroke="midnightblue" points="1146.1,-425.308 1156.1,-421.808 1146.1,-418.308 1146.1,-425.308"/>
</g>
</g>
</svg>
