<?xml version="1.0" encoding="UTF-8" standalone="no"?>
<!DOCTYPE svg PUBLIC "-//W3C//DTD SVG 1.1//EN"
 "http://www.w3.org/Graphics/SVG/1.1/DTD/svg11.dtd">
<!-- Generated by graphviz version 2.26.3 (20100126.1600)
 -->
<!-- Title: tetgenmesh::makeshellface Pages: 1 -->
<svg width="596pt" height="162pt"
 viewBox="0.00 0.00 596.00 162.00" xmlns="http://www.w3.org/2000/svg" xmlns:xlink="http://www.w3.org/1999/xlink">
<g id="graph1" class="graph" transform="scale(1 1) rotate(0) translate(4 158)">
<title>tetgenmesh::makeshellface</title>
<!-- Node1 -->
<g id="node1" class="node"><title>Node1</title>
<polygon fill="#bfbfbf" stroke="black" points="0.5,-60.5 0.5,-81.5 137.5,-81.5 137.5,-60.5 0.5,-60.5"/>
<text text-anchor="middle" x="69" y="-68.5" font-family="Helvetica,sans-Serif" font-size="10.00">tetgenmesh::makeshellface</text>
</g>
<!-- Node2 -->
<g id="node3" class="node"><title>Node2</title>
<a xlink:href="classtetgenmesh_1_1memorypool.xhtml#a9631e38a788a91ae067a756232b515ab" target="_top" xlink:title="tetgenmesh::memorypool\l::alloc">
<polygon fill="none" stroke="black" points="176.5,-120 176.5,-154 303.5,-154 303.5,-120 176.5,-120"/>
<text text-anchor="start" x="184.5" y="-141" font-family="Helvetica,sans-Serif" font-size="10.00">tetgenmesh::memorypool</text>
<text text-anchor="middle" x="240" y="-128" font-family="Helvetica,sans-Serif" font-size="10.00">::alloc</text>
</a>
</g>
<!-- Node1&#45;&gt;Node2 -->
<g id="edge2" class="edge"><title>Node1&#45;&gt;Node2</title>
<path fill="none" stroke="midnightblue" d="M96.4741,-81.604C120.668,-90.9421 156.599,-104.81 186.457,-116.334"/>
<polygon fill="midnightblue" stroke="midnightblue" points="185.325,-119.649 195.915,-119.985 187.846,-113.119 185.325,-119.649"/>
</g>
<!-- Node5 -->
<g id="node9" class="node"><title>Node5</title>
<a xlink:href="classtetgenmesh.xhtml#a0f80088cbe127eeac6995e365d10eb06" target="_top" xlink:title="tetgenmesh::setareabound">
<polygon fill="none" stroke="black" points="174,-80.5 174,-101.5 306,-101.5 306,-80.5 174,-80.5"/>
<text text-anchor="middle" x="240" y="-88.5" font-family="Helvetica,sans-Serif" font-size="10.00">tetgenmesh::setareabound</text>
</a>
</g>
<!-- Node1&#45;&gt;Node5 -->
<g id="edge8" class="edge"><title>Node1&#45;&gt;Node5</title>
<path fill="none" stroke="midnightblue" d="M137.567,-79.0195C146.182,-80.0271 155.036,-81.0627 163.76,-82.0831"/>
<polygon fill="midnightblue" stroke="midnightblue" points="163.581,-85.5858 173.919,-83.2713 164.394,-78.6332 163.581,-85.5858"/>
</g>
<!-- Node6 -->
<g id="node11" class="node"><title>Node6</title>
<a xlink:href="classtetgenmesh.xhtml#ada5d50fbd8ccc1c82389b0b3450ce98e" target="_top" xlink:title="tetgenmesh::setfacetindex">
<polygon fill="none" stroke="black" points="174,-40.5 174,-61.5 306,-61.5 306,-40.5 174,-40.5"/>
<text text-anchor="middle" x="240" y="-48.5" font-family="Helvetica,sans-Serif" font-size="10.00">tetgenmesh::setfacetindex</text>
</a>
</g>
<!-- Node1&#45;&gt;Node6 -->
<g id="edge10" class="edge"><title>Node1&#45;&gt;Node6</title>
<path fill="none" stroke="midnightblue" d="M137.567,-62.9805C146.182,-61.9729 155.036,-60.9373 163.76,-59.9169"/>
<polygon fill="midnightblue" stroke="midnightblue" points="164.394,-63.3668 173.919,-58.7287 163.581,-56.4142 164.394,-63.3668"/>
</g>
<!-- Node7 -->
<g id="node13" class="node"><title>Node7</title>
<a xlink:href="classtetgenmesh.xhtml#aebfb8c5f527b8145bf96d2709993c59d" target="_top" xlink:title="tetgenmesh::setshellmark">
<polygon fill="none" stroke="black" points="175.5,-0.5 175.5,-21.5 304.5,-21.5 304.5,-0.5 175.5,-0.5"/>
<text text-anchor="middle" x="240" y="-8.5" font-family="Helvetica,sans-Serif" font-size="10.00">tetgenmesh::setshellmark</text>
</a>
</g>
<!-- Node1&#45;&gt;Node7 -->
<g id="edge12" class="edge"><title>Node1&#45;&gt;Node7</title>
<path fill="none" stroke="midnightblue" d="M95.1377,-60.4609C116.27,-52.0812 146.864,-40.2679 174,-31 180.395,-28.8161 187.177,-26.6231 193.866,-24.5311"/>
<polygon fill="midnightblue" stroke="midnightblue" points="195.016,-27.8392 203.544,-21.5512 192.956,-21.1492 195.016,-27.8392"/>
</g>
<!-- Node3 -->
<g id="node5" class="node"><title>Node3</title>
<a xlink:href="tetgen_8h.xhtml#a4012bf160c63ec4ff007f6645b993ca5" target="_top" xlink:title="terminatetetgen">
<polygon fill="none" stroke="black" points="342,-126.5 342,-147.5 426,-147.5 426,-126.5 342,-126.5"/>
<text text-anchor="middle" x="384" y="-134.5" font-family="Helvetica,sans-Serif" font-size="10.00">terminatetetgen</text>
</a>
</g>
<!-- Node2&#45;&gt;Node3 -->
<g id="edge4" class="edge"><title>Node2&#45;&gt;Node3</title>
<path fill="none" stroke="midnightblue" d="M303.58,-137C312.995,-137 322.605,-137 331.754,-137"/>
<polygon fill="midnightblue" stroke="midnightblue" points="331.853,-140.5 341.853,-137 331.853,-133.5 331.853,-140.5"/>
</g>
<!-- Node4 -->
<g id="node7" class="node"><title>Node4</title>
<a xlink:href="classtetgenmesh.xhtml#ade805f03ec7ca1b4623c8148fb915278" target="_top" xlink:title="tetgenmesh::freememory">
<polygon fill="none" stroke="black" points="462.5,-126.5 462.5,-147.5 587.5,-147.5 587.5,-126.5 462.5,-126.5"/>
<text text-anchor="middle" x="525" y="-134.5" font-family="Helvetica,sans-Serif" font-size="10.00">tetgenmesh::freememory</text>
</a>
</g>
<!-- Node3&#45;&gt;Node4 -->
<g id="edge6" class="edge"><title>Node3&#45;&gt;Node4</title>
<path fill="none" stroke="midnightblue" d="M426.305,-137C434.556,-137 443.424,-137 452.338,-137"/>
<polygon fill="midnightblue" stroke="midnightblue" points="452.392,-140.5 462.392,-137 452.392,-133.5 452.392,-140.5"/>
</g>
</g>
</svg>
