<?xml version="1.0" encoding="UTF-8" standalone="no"?>
<!DOCTYPE svg PUBLIC "-//W3C//DTD SVG 1.1//EN"
 "http://www.w3.org/Graphics/SVG/1.1/DTD/svg11.dtd">
<!-- Generated by graphviz version 2.26.3 (20100126.1600)
 -->
<!-- Title: tetgenmesh::sstdissolve1 Pages: 1 -->
<svg width="2422pt" height="978pt"
 viewBox="0.00 0.00 2422.00 978.00" xmlns="http://www.w3.org/2000/svg" xmlns:xlink="http://www.w3.org/1999/xlink">
<g id="graph1" class="graph" transform="scale(1 1) rotate(0) translate(4 974)">
<title>tetgenmesh::sstdissolve1</title>
<!-- Node1 -->
<g id="node1" class="node"><title>Node1</title>
<polygon fill="#bfbfbf" stroke="black" points="0,-651.5 0,-672.5 128,-672.5 128,-651.5 0,-651.5"/>
<text text-anchor="middle" x="64" y="-659.5" font-family="Helvetica,sans-Serif" font-size="10.00">tetgenmesh::sstdissolve1</text>
</g>
<!-- Node2 -->
<g id="node3" class="node"><title>Node2</title>
<a xlink:href="classtetgenmesh.xhtml#a5d85611ca91db181e357457beb13a633" target="_top" xlink:title="tetgenmesh::insertpoint">
<polygon fill="none" stroke="black" points="393.5,-651.5 393.5,-672.5 512.5,-672.5 512.5,-651.5 393.5,-651.5"/>
<text text-anchor="middle" x="453" y="-659.5" font-family="Helvetica,sans-Serif" font-size="10.00">tetgenmesh::insertpoint</text>
</a>
</g>
<!-- Node1&#45;&gt;Node2 -->
<g id="edge2" class="edge"><title>Node1&#45;&gt;Node2</title>
<path fill="none" stroke="midnightblue" d="M138.438,-662C212.601,-662 325.017,-662 393.459,-662"/>
<polygon fill="midnightblue" stroke="midnightblue" points="138.235,-658.5 128.235,-662 138.235,-665.5 138.235,-658.5"/>
</g>
<!-- Node35 -->
<g id="node88" class="node"><title>Node35</title>
<a xlink:href="classtetgenmesh.xhtml#a820c230ca5161419ee7d1d9a731a17af" target="_top" xlink:title="tetgenmesh::carvecavity">
<polygon fill="none" stroke="black" points="605,-948.5 605,-969.5 729,-969.5 729,-948.5 605,-948.5"/>
<text text-anchor="middle" x="667" y="-956.5" font-family="Helvetica,sans-Serif" font-size="10.00">tetgenmesh::carvecavity</text>
</a>
</g>
<!-- Node1&#45;&gt;Node35 -->
<g id="edge106" class="edge"><title>Node1&#45;&gt;Node35</title>
<path fill="none" stroke="midnightblue" d="M88.1217,-678.01C159.907,-724.966 379.645,-863.742 580,-939 589.866,-942.706 600.629,-945.854 611.116,-948.479"/>
<polygon fill="midnightblue" stroke="midnightblue" points="90.0156,-675.067 79.736,-672.501 86.1722,-680.917 90.0156,-675.067"/>
</g>
<!-- Node36 -->
<g id="node92" class="node"><title>Node36</title>
<a xlink:href="classtetgenmesh.xhtml#ad3277eea82fb5eb134c5eaa6abf5c18d" target="_top" xlink:title="tetgenmesh::removevertexbyflips">
<polygon fill="none" stroke="black" points="164.5,-134.5 164.5,-155.5 325.5,-155.5 325.5,-134.5 164.5,-134.5"/>
<text text-anchor="middle" x="245" y="-142.5" font-family="Helvetica,sans-Serif" font-size="10.00">tetgenmesh::removevertexbyflips</text>
</a>
</g>
<!-- Node1&#45;&gt;Node36 -->
<g id="edge112" class="edge"><title>Node1&#45;&gt;Node36</title>
<path fill="none" stroke="midnightblue" d="M71.0913,-641.745C101.294,-555.476 218.686,-220.161 241.24,-155.739"/>
<polygon fill="midnightblue" stroke="midnightblue" points="67.7814,-640.607 67.7804,-651.202 74.3882,-642.92 67.7814,-640.607"/>
</g>
<!-- Node3 -->
<g id="node5" class="node"><title>Node3</title>
<a xlink:href="classtetgenmesh.xhtml#a5a5a0513d0bea7aa457eb0bc5fad1b02" target="_top" xlink:title="tetgenmesh::incrementaldelaunay">
<polygon fill="none" stroke="black" points="1600.5,-461.5 1600.5,-482.5 1763.5,-482.5 1763.5,-461.5 1600.5,-461.5"/>
<text text-anchor="middle" x="1682" y="-469.5" font-family="Helvetica,sans-Serif" font-size="10.00">tetgenmesh::incrementaldelaunay</text>
</a>
</g>
<!-- Node2&#45;&gt;Node3 -->
<g id="edge4" class="edge"><title>Node2&#45;&gt;Node3</title>
<path fill="none" stroke="midnightblue" d="M498.686,-648.615C577.291,-626.804 743.514,-586 887,-586 887,-586 887,-586 1285,-586 1434.15,-586 1603.02,-510.742 1661.09,-482.521"/>
<polygon fill="midnightblue" stroke="midnightblue" points="497.322,-645.362 488.639,-651.433 499.212,-652.102 497.322,-645.362"/>
</g>
<!-- Node11 -->
<g id="node21" class="node"><title>Node11</title>
<a xlink:href="classtetgenmesh.xhtml#a8dee14a42e35e4fe65944518eed4f7d3" target="_top" xlink:title="tetgenmesh::delaunizesegments">
<polygon fill="none" stroke="black" points="1206,-831.5 1206,-852.5 1364,-852.5 1364,-831.5 1206,-831.5"/>
<text text-anchor="middle" x="1285" y="-839.5" font-family="Helvetica,sans-Serif" font-size="10.00">tetgenmesh::delaunizesegments</text>
</a>
</g>
<!-- Node2&#45;&gt;Node11 -->
<g id="edge20" class="edge"><title>Node2&#45;&gt;Node11</title>
<path fill="none" stroke="midnightblue" d="M461.856,-682.412C478.772,-718.503 519.467,-792.637 580,-823 687.529,-876.936 1045.35,-859.266 1205.88,-848.139"/>
<polygon fill="midnightblue" stroke="midnightblue" points="464.865,-680.574 457.545,-672.914 458.491,-683.467 464.865,-680.574"/>
</g>
<!-- Node13 -->
<g id="node26" class="node"><title>Node13</title>
<a xlink:href="classtetgenmesh.xhtml#ab1a82368937a13996efae911b8b1fded" target="_top" xlink:title="tetgenmesh::delaunizecavity">
<polygon fill="none" stroke="black" points="596.5,-908.5 596.5,-929.5 737.5,-929.5 737.5,-908.5 596.5,-908.5"/>
<text text-anchor="middle" x="667" y="-916.5" font-family="Helvetica,sans-Serif" font-size="10.00">tetgenmesh::delaunizecavity</text>
</a>
</g>
<!-- Node2&#45;&gt;Node13 -->
<g id="edge26" class="edge"><title>Node2&#45;&gt;Node13</title>
<path fill="none" stroke="midnightblue" d="M465.257,-681.289C483.37,-710.108 517.951,-766.336 544,-816 561.735,-849.812 551.023,-869.138 580,-894 587.276,-900.242 596.024,-904.929 605.129,-908.447"/>
<polygon fill="midnightblue" stroke="midnightblue" points="468.079,-679.204 459.781,-672.616 462.16,-682.94 468.079,-679.204"/>
</g>
<!-- Node14 -->
<g id="node28" class="node"><title>Node14</title>
<a xlink:href="classtetgenmesh.xhtml#a9c967ef25cfd6e06d6b9301302be3f70" target="_top" xlink:title="tetgenmesh::insertpoint_cdt">
<polygon fill="none" stroke="black" points="818.5,-871.5 818.5,-892.5 955.5,-892.5 955.5,-871.5 818.5,-871.5"/>
<text text-anchor="middle" x="887" y="-879.5" font-family="Helvetica,sans-Serif" font-size="10.00">tetgenmesh::insertpoint_cdt</text>
</a>
</g>
<!-- Node2&#45;&gt;Node14 -->
<g id="edge38" class="edge"><title>Node2&#45;&gt;Node14</title>
<path fill="none" stroke="midnightblue" d="M464.239,-681.172C491.904,-728.057 562.332,-845.461 580,-856 652.582,-899.294 752.513,-899.051 818.386,-892.52"/>
<polygon fill="midnightblue" stroke="midnightblue" points="467.25,-679.387 459.161,-672.544 461.217,-682.937 467.25,-679.387"/>
</g>
<!-- Node17 -->
<g id="node37" class="node"><title>Node17</title>
<a xlink:href="classtetgenmesh.xhtml#acb5fc751eaa4a4ddffbebedfa7b7382a" target="_top" xlink:title="tetgenmesh::add_steinerpt\l_in_schoenhardtpoly">
<polygon fill="none" stroke="black" points="601,-728 601,-762 733,-762 733,-728 601,-728"/>
<text text-anchor="start" x="609" y="-749" font-family="Helvetica,sans-Serif" font-size="10.00">tetgenmesh::add_steinerpt</text>
<text text-anchor="middle" x="667" y="-736" font-family="Helvetica,sans-Serif" font-size="10.00">_in_schoenhardtpoly</text>
</a>
</g>
<!-- Node2&#45;&gt;Node17 -->
<g id="edge40" class="edge"><title>Node2&#45;&gt;Node17</title>
<path fill="none" stroke="midnightblue" d="M486.917,-676.387C512.401,-687.075 548.233,-701.844 580,-714 592.13,-718.642 605.294,-723.449 617.623,-727.854"/>
<polygon fill="midnightblue" stroke="midnightblue" points="488.262,-673.156 477.687,-672.505 485.548,-679.608 488.262,-673.156"/>
</g>
<!-- Node18 -->
<g id="node39" class="node"><title>Node18</title>
<a xlink:href="classtetgenmesh.xhtml#a9d878a0e64588b0471a58e534affea8e" target="_top" xlink:title="tetgenmesh::addsteiner4recoversegment">
<polygon fill="none" stroke="black" points="790,-723.5 790,-744.5 984,-744.5 984,-723.5 790,-723.5"/>
<text text-anchor="middle" x="887" y="-731.5" font-family="Helvetica,sans-Serif" font-size="10.00">tetgenmesh::addsteiner4recoversegment</text>
</a>
</g>
<!-- Node2&#45;&gt;Node18 -->
<g id="edge54" class="edge"><title>Node2&#45;&gt;Node18</title>
<path fill="none" stroke="midnightblue" d="M522.993,-673.612C606.064,-687.393 743.385,-710.174 823.5,-723.465"/>
<polygon fill="midnightblue" stroke="midnightblue" points="523.328,-670.12 512.89,-671.936 522.183,-677.025 523.328,-670.12"/>
</g>
<!-- Node21 -->
<g id="node46" class="node"><title>Node21</title>
<a xlink:href="classtetgenmesh.xhtml#a3de6e9d82e74671af7f038043b5e9bcc" target="_top" xlink:title="tetgenmesh::add_steinerpt\l_in_segment">
<polygon fill="none" stroke="black" points="601,-780 601,-814 733,-814 733,-780 601,-780"/>
<text text-anchor="start" x="609" y="-801" font-family="Helvetica,sans-Serif" font-size="10.00">tetgenmesh::add_steinerpt</text>
<text text-anchor="middle" x="667" y="-788" font-family="Helvetica,sans-Serif" font-size="10.00">_in_segment</text>
</a>
</g>
<!-- Node2&#45;&gt;Node21 -->
<g id="edge50" class="edge"><title>Node2&#45;&gt;Node21</title>
<path fill="none" stroke="midnightblue" d="M469.27,-680.062C491.875,-704.117 535.094,-746.477 580,-771 586.503,-774.551 593.55,-777.675 600.723,-780.408"/>
<polygon fill="midnightblue" stroke="midnightblue" points="471.782,-677.622 462.422,-672.658 466.643,-682.376 471.782,-677.622"/>
</g>
<!-- Node22 -->
<g id="node50" class="node"><title>Node22</title>
<a xlink:href="classtetgenmesh.xhtml#ace09080e4f274e0a48cd1728475878c9" target="_top" xlink:title="tetgenmesh::recoversubfaces">
<polygon fill="none" stroke="black" points="1022,-653.5 1022,-674.5 1168,-674.5 1168,-653.5 1022,-653.5"/>
<text text-anchor="middle" x="1095" y="-661.5" font-family="Helvetica,sans-Serif" font-size="10.00">tetgenmesh::recoversubfaces</text>
</a>
</g>
<!-- Node2&#45;&gt;Node22 -->
<g id="edge56" class="edge"><title>Node2&#45;&gt;Node22</title>
<path fill="none" stroke="midnightblue" d="M522.899,-662.218C645.295,-662.599 897.227,-663.384 1021.87,-663.772"/>
<polygon fill="midnightblue" stroke="midnightblue" points="522.545,-658.717 512.534,-662.185 522.523,-665.717 522.545,-658.717"/>
</g>
<!-- Node23 -->
<g id="node53" class="node"><title>Node23</title>
<a xlink:href="classtetgenmesh.xhtml#ac8205cae8e16f490b80d74975934ff74" target="_top" xlink:title="tetgenmesh::insertconstrainedpoints">
<polygon fill="none" stroke="black" points="580,-249.5 580,-270.5 754,-270.5 754,-249.5 580,-249.5"/>
<text text-anchor="middle" x="667" y="-257.5" font-family="Helvetica,sans-Serif" font-size="10.00">tetgenmesh::insertconstrainedpoints</text>
</a>
</g>
<!-- Node2&#45;&gt;Node23 -->
<g id="edge60" class="edge"><title>Node2&#45;&gt;Node23</title>
<path fill="none" stroke="midnightblue" d="M457.493,-641.248C469.916,-587.211 508.62,-439.257 580,-337 599.627,-308.883 631.552,-284.154 650.787,-270.712"/>
<polygon fill="midnightblue" stroke="midnightblue" points="454.011,-640.779 455.238,-651.303 460.842,-642.311 454.011,-640.779"/>
</g>
<!-- Node25 -->
<g id="node58" class="node"><title>Node25</title>
<a xlink:href="classtetgenmesh.xhtml#a6394d7b4d386e8d08077c39cd8983e0e" target="_top" xlink:title="tetgenmesh::splitsegment">
<polygon fill="none" stroke="black" points="602.5,-346.5 602.5,-367.5 731.5,-367.5 731.5,-346.5 602.5,-346.5"/>
<text text-anchor="middle" x="667" y="-354.5" font-family="Helvetica,sans-Serif" font-size="10.00">tetgenmesh::splitsegment</text>
</a>
</g>
<!-- Node2&#45;&gt;Node25 -->
<g id="edge66" class="edge"><title>Node2&#45;&gt;Node25</title>
<path fill="none" stroke="midnightblue" d="M463.696,-642.673C484.455,-605.683 532.363,-522.797 580,-458 605.498,-423.318 639.871,-385.716 656.762,-367.746"/>
<polygon fill="midnightblue" stroke="midnightblue" points="460.618,-641.006 458.801,-651.444 466.731,-644.418 460.618,-641.006"/>
</g>
<!-- Node27 -->
<g id="node62" class="node"><title>Node27</title>
<a xlink:href="classtetgenmesh.xhtml#a3a8404870ab3c2e8ce4312d48c2b29f4" target="_top" xlink:title="tetgenmesh::splitsubface">
<polygon fill="none" stroke="black" points="1032,-404.5 1032,-425.5 1158,-425.5 1158,-404.5 1032,-404.5"/>
<text text-anchor="middle" x="1095" y="-412.5" font-family="Helvetica,sans-Serif" font-size="10.00">tetgenmesh::splitsubface</text>
</a>
</g>
<!-- Node2&#45;&gt;Node27 -->
<g id="edge94" class="edge"><title>Node2&#45;&gt;Node27</title>
<path fill="none" stroke="midnightblue" d="M466.046,-643.022C486.711,-614.53 529.816,-561.154 580,-534 741.219,-446.767 806.767,-497.792 984,-451 1012.01,-443.605 1043.36,-433.238 1065.58,-425.528"/>
<polygon fill="midnightblue" stroke="midnightblue" points="463.08,-641.154 460.145,-651.334 468.788,-645.206 463.08,-641.154"/>
</g>
<!-- Node29 -->
<g id="node66" class="node"><title>Node29</title>
<a xlink:href="classtetgenmesh.xhtml#aa752155eb1d18550a212dd40297f122e" target="_top" xlink:title="tetgenmesh::splittetrahedron">
<polygon fill="none" stroke="black" points="1412,-345.5 1412,-366.5 1552,-366.5 1552,-345.5 1412,-345.5"/>
<text text-anchor="middle" x="1482" y="-353.5" font-family="Helvetica,sans-Serif" font-size="10.00">tetgenmesh::splittetrahedron</text>
</a>
</g>
<!-- Node2&#45;&gt;Node29 -->
<g id="edge96" class="edge"><title>Node2&#45;&gt;Node29</title>
<path fill="none" stroke="midnightblue" d="M471.031,-644.305C494.111,-622.906 536.357,-587.796 580,-572 708.691,-525.422 750.139,-548 887,-548 887,-548 887,-548 1095,-548 1221.79,-548 1253.58,-515.313 1364,-453 1408.11,-428.107 1452.09,-386.363 1471.57,-366.77"/>
<polygon fill="midnightblue" stroke="midnightblue" points="468.552,-641.832 463.696,-651.248 473.364,-646.916 468.552,-641.832"/>
</g>
<!-- Node32 -->
<g id="node81" class="node"><title>Node32</title>
<a xlink:href="classtetgenmesh.xhtml#aa9540f310c97db99c989a02b0978ceec" target="_top" xlink:title="tetgenmesh::splitsliver">
<polygon fill="none" stroke="black" points="829.5,-614.5 829.5,-635.5 944.5,-635.5 944.5,-614.5 829.5,-614.5"/>
<text text-anchor="middle" x="887" y="-622.5" font-family="Helvetica,sans-Serif" font-size="10.00">tetgenmesh::splitsliver</text>
</a>
</g>
<!-- Node2&#45;&gt;Node32 -->
<g id="edge98" class="edge"><title>Node2&#45;&gt;Node32</title>
<path fill="none" stroke="midnightblue" d="M522.857,-653.855C541.417,-651.812 561.457,-649.716 580,-648 666.749,-639.971 767.49,-632.842 829.236,-628.722"/>
<polygon fill="midnightblue" stroke="midnightblue" points="522.27,-650.398 512.717,-654.981 523.043,-657.356 522.27,-650.398"/>
</g>
<!-- Node4 -->
<g id="node7" class="node"><title>Node4</title>
<a xlink:href="tetgen_8h.xhtml#ad3637eb4ffe7fda90667e67b7771d964" target="_top" xlink:title="tetrahedralize">
<polygon fill="none" stroke="black" points="1994.5,-263.5 1994.5,-284.5 2069.5,-284.5 2069.5,-263.5 1994.5,-263.5"/>
<text text-anchor="middle" x="2032" y="-271.5" font-family="Helvetica,sans-Serif" font-size="10.00">tetrahedralize</text>
</a>
</g>
<!-- Node3&#45;&gt;Node4 -->
<g id="edge6" class="edge"><title>Node3&#45;&gt;Node4</title>
<path fill="none" stroke="midnightblue" d="M1714.79,-457.122C1767.46,-432.762 1873.56,-381.775 1958,-329 1980.4,-315.002 2004.66,-296.2 2019.09,-284.602"/>
<polygon fill="midnightblue" stroke="midnightblue" points="1713.22,-453.994 1705.6,-461.355 1716.14,-460.353 1713.22,-453.994"/>
</g>
<!-- Node5 -->
<g id="node9" class="node"><title>Node5</title>
<a xlink:href="classGUICutRenderWindow.xhtml#a9eedb7088ad31f4680a77ed3a06fa60c" target="_top" xlink:title="Berechnet die 2D&#45;Temperaturverteilung als Grafik. ">
<polygon fill="none" stroke="black" points="2108.5,-303 2108.5,-337 2225.5,-337 2225.5,-303 2108.5,-303"/>
<text text-anchor="start" x="2116.5" y="-324" font-family="Helvetica,sans-Serif" font-size="10.00">GUICutRenderWindow</text>
<text text-anchor="middle" x="2167" y="-311" font-family="Helvetica,sans-Serif" font-size="10.00">::renderImage</text>
</a>
</g>
<!-- Node4&#45;&gt;Node5 -->
<g id="edge8" class="edge"><title>Node4&#45;&gt;Node5</title>
<path fill="none" stroke="midnightblue" d="M2072.73,-287.877C2086.62,-292.611 2102.32,-297.96 2116.86,-302.915"/>
<polygon fill="midnightblue" stroke="midnightblue" points="2073.57,-284.466 2062.97,-284.553 2071.31,-291.092 2073.57,-284.466"/>
</g>
<!-- Node7 -->
<g id="node13" class="node"><title>Node7</title>
<a xlink:href="classObjectData.xhtml#af3a850833d08eb9b45357449f455e24d" target="_top" xlink:title="Zerlegt das Objekt in Tetraeder (Schnittstelle zur Tetgen&#45;Bibliothek) und Berechnet die Temperaturver...">
<polygon fill="none" stroke="black" points="2106,-263.5 2106,-284.5 2228,-284.5 2228,-263.5 2106,-263.5"/>
<text text-anchor="middle" x="2167" y="-271.5" font-family="Helvetica,sans-Serif" font-size="10.00">ObjectData::calculateIO</text>
</a>
</g>
<!-- Node4&#45;&gt;Node7 -->
<g id="edge12" class="edge"><title>Node4&#45;&gt;Node7</title>
<path fill="none" stroke="midnightblue" d="M2079.65,-274C2088.11,-274 2097.02,-274 2105.8,-274"/>
<polygon fill="midnightblue" stroke="midnightblue" points="2079.61,-270.5 2069.61,-274 2079.6,-277.5 2079.61,-270.5"/>
</g>
<!-- Node10 -->
<g id="node19" class="node"><title>Node10</title>
<a xlink:href="tetgen_8cxx.xhtml#a0ddf1224851353fc92bfbff6f499fa97" target="_top" xlink:title="main">
<polygon fill="none" stroke="black" points="2148,-223.5 2148,-244.5 2186,-244.5 2186,-223.5 2148,-223.5"/>
<text text-anchor="middle" x="2167" y="-231.5" font-family="Helvetica,sans-Serif" font-size="10.00">main</text>
</a>
</g>
<!-- Node4&#45;&gt;Node10 -->
<g id="edge18" class="edge"><title>Node4&#45;&gt;Node10</title>
<path fill="none" stroke="midnightblue" d="M2077.15,-260.621C2101.27,-253.476 2129.67,-245.061 2147.98,-239.634"/>
<polygon fill="midnightblue" stroke="midnightblue" points="2076.06,-257.294 2067.47,-263.49 2078.05,-264.005 2076.06,-257.294"/>
</g>
<!-- Node6 -->
<g id="node11" class="node"><title>Node6</title>
<a xlink:href="classGUICutRenderWindow.xhtml#a7cd1bfbec53756a1cbbe1616b4d46c7a" target="_top" xlink:title="Behandelt das Drücken des Buttons zur Berechnung der zweidimensionalen Temperaturverteilung. ">
<polygon fill="none" stroke="black" points="2280.5,-303 2280.5,-337 2397.5,-337 2397.5,-303 2280.5,-303"/>
<text text-anchor="start" x="2288.5" y="-324" font-family="Helvetica,sans-Serif" font-size="10.00">GUICutRenderWindow</text>
<text text-anchor="middle" x="2339" y="-311" font-family="Helvetica,sans-Serif" font-size="10.00">::renderCutBtClick</text>
</a>
</g>
<!-- Node5&#45;&gt;Node6 -->
<g id="edge10" class="edge"><title>Node5&#45;&gt;Node6</title>
<path fill="none" stroke="midnightblue" d="M2235.78,-320C2250.51,-320 2265.95,-320 2280.26,-320"/>
<polygon fill="midnightblue" stroke="midnightblue" points="2235.71,-316.5 2225.71,-320 2235.71,-323.5 2235.71,-316.5"/>
</g>
<!-- Node8 -->
<g id="node15" class="node"><title>Node8</title>
<a xlink:href="classGUIMainWindow.xhtml#a0c2de30274c7f52ff74ec1217e47a9e5" target="_top" xlink:title="Berechnet die 3D&#45;Temperaturverteilung neu. ">
<polygon fill="none" stroke="black" points="2264,-211 2264,-245 2414,-245 2414,-211 2264,-211"/>
<text text-anchor="start" x="2272" y="-232" font-family="Helvetica,sans-Serif" font-size="10.00">GUIMainWindow::OnRecalcBt</text>
<text text-anchor="middle" x="2339" y="-219" font-family="Helvetica,sans-Serif" font-size="10.00">Click</text>
</a>
</g>
<!-- Node7&#45;&gt;Node8 -->
<g id="edge14" class="edge"><title>Node7&#45;&gt;Node8</title>
<path fill="none" stroke="midnightblue" d="M2216.33,-260.808C2234.64,-255.91 2255.69,-250.281 2275.12,-245.085"/>
<polygon fill="midnightblue" stroke="midnightblue" points="2215.22,-257.482 2206.46,-263.447 2217.03,-264.244 2215.22,-257.482"/>
</g>
<!-- Node9 -->
<g id="node17" class="node"><title>Node9</title>
<a xlink:href="classGUITimeline.xhtml#a099f3654aa6e7ea04df861851a0e9ec8" target="_top" xlink:title="Sucht den Zeitpunkt zwischen zwei markierten Stellen auf der Sensordaten&#45;Zeitleiste, für den der Wäremeenergiegehalt maximal wird. ">
<polygon fill="none" stroke="black" points="2270.5,-263.5 2270.5,-284.5 2407.5,-284.5 2407.5,-263.5 2270.5,-263.5"/>
<text text-anchor="middle" x="2339" y="-271.5" font-family="Helvetica,sans-Serif" font-size="10.00">GUITimeline::findMaxValue</text>
</a>
</g>
<!-- Node7&#45;&gt;Node9 -->
<g id="edge16" class="edge"><title>Node7&#45;&gt;Node9</title>
<path fill="none" stroke="midnightblue" d="M2238.23,-274C2248.89,-274 2259.86,-274 2270.46,-274"/>
<polygon fill="midnightblue" stroke="midnightblue" points="2238.13,-270.5 2228.13,-274 2238.13,-277.5 2238.13,-270.5"/>
</g>
<!-- Node12 -->
<g id="node23" class="node"><title>Node12</title>
<a xlink:href="classtetgenmesh.xhtml#aab64d62b3d2b048a38158fb2bf678624" target="_top" xlink:title="tetgenmesh::constraineddelaunay">
<polygon fill="none" stroke="black" points="1400.5,-831.5 1400.5,-852.5 1563.5,-852.5 1563.5,-831.5 1400.5,-831.5"/>
<text text-anchor="middle" x="1482" y="-839.5" font-family="Helvetica,sans-Serif" font-size="10.00">tetgenmesh::constraineddelaunay</text>
</a>
</g>
<!-- Node11&#45;&gt;Node12 -->
<g id="edge22" class="edge"><title>Node11&#45;&gt;Node12</title>
<path fill="none" stroke="midnightblue" d="M1374.37,-842C1383.01,-842 1391.75,-842 1400.32,-842"/>
<polygon fill="midnightblue" stroke="midnightblue" points="1374.28,-838.5 1364.28,-842 1374.28,-845.5 1374.28,-838.5"/>
</g>
<!-- Node12&#45;&gt;Node4 -->
<g id="edge24" class="edge"><title>Node12&#45;&gt;Node4</title>
<path fill="none" stroke="midnightblue" d="M1573.91,-837.096C1682.62,-826.104 1861.03,-790.802 1958,-678 2011.11,-616.223 2028.37,-342.862 2031.46,-284.846"/>
<polygon fill="midnightblue" stroke="midnightblue" points="1573.56,-833.614 1563.94,-838.056 1574.23,-840.581 1573.56,-833.614"/>
</g>
<!-- Node13&#45;&gt;Node14 -->
<g id="edge28" class="edge"><title>Node13&#45;&gt;Node14</title>
<path fill="none" stroke="midnightblue" d="M739.399,-906.824C766.87,-902.204 797.897,-896.986 824.389,-892.53"/>
<polygon fill="midnightblue" stroke="midnightblue" points="738.736,-903.386 729.455,-908.496 739.897,-910.289 738.736,-903.386"/>
</g>
<!-- Node16 -->
<g id="node32" class="node"><title>Node16</title>
<a xlink:href="classtetgenmesh.xhtml#a7579c3a44a54712623d9f9e5fc1dfbdc" target="_top" xlink:title="tetgenmesh::constrainedfacets">
<polygon fill="none" stroke="black" points="1209.5,-890.5 1209.5,-911.5 1360.5,-911.5 1360.5,-890.5 1209.5,-890.5"/>
<text text-anchor="middle" x="1285" y="-898.5" font-family="Helvetica,sans-Serif" font-size="10.00">tetgenmesh::constrainedfacets</text>
</a>
</g>
<!-- Node13&#45;&gt;Node16 -->
<g id="edge36" class="edge"><title>Node13&#45;&gt;Node16</title>
<path fill="none" stroke="midnightblue" d="M747.822,-916.646C867.918,-913.148 1091.88,-906.625 1209.08,-903.211"/>
<polygon fill="midnightblue" stroke="midnightblue" points="747.485,-913.154 737.591,-916.944 747.689,-920.151 747.485,-913.154"/>
</g>
<!-- Node15 -->
<g id="node30" class="node"><title>Node15</title>
<a xlink:href="classtetgenmesh.xhtml#aa34a5188a4cee82197394560c388c348" target="_top" xlink:title="tetgenmesh::refineregion">
<polygon fill="none" stroke="black" points="1033,-871.5 1033,-892.5 1157,-892.5 1157,-871.5 1033,-871.5"/>
<text text-anchor="middle" x="1095" y="-879.5" font-family="Helvetica,sans-Serif" font-size="10.00">tetgenmesh::refineregion</text>
</a>
</g>
<!-- Node14&#45;&gt;Node15 -->
<g id="edge30" class="edge"><title>Node14&#45;&gt;Node15</title>
<path fill="none" stroke="midnightblue" d="M965.73,-882C987.881,-882 1011.66,-882 1032.71,-882"/>
<polygon fill="midnightblue" stroke="midnightblue" points="965.683,-878.5 955.683,-882 965.683,-885.5 965.683,-878.5"/>
</g>
<!-- Node15&#45;&gt;Node16 -->
<g id="edge32" class="edge"><title>Node15&#45;&gt;Node16</title>
<path fill="none" stroke="midnightblue" d="M1167.54,-889.254C1181.24,-890.624 1195.6,-892.06 1209.39,-893.439"/>
<polygon fill="midnightblue" stroke="midnightblue" points="1167.51,-885.734 1157.21,-888.221 1166.82,-892.699 1167.51,-885.734"/>
</g>
<!-- Node16&#45;&gt;Node12 -->
<g id="edge34" class="edge"><title>Node16&#45;&gt;Node12</title>
<path fill="none" stroke="midnightblue" d="M1329.84,-887.571C1365.28,-876.956 1414.07,-862.345 1446.75,-852.556"/>
<polygon fill="midnightblue" stroke="midnightblue" points="1328.8,-884.23 1320.22,-890.452 1330.8,-890.936 1328.8,-884.23"/>
</g>
<!-- Node17&#45;&gt;Node18 -->
<g id="edge42" class="edge"><title>Node17&#45;&gt;Node18</title>
<path fill="none" stroke="midnightblue" d="M743.225,-741.189C758.221,-740.439 774.144,-739.643 789.722,-738.864"/>
<polygon fill="midnightblue" stroke="midnightblue" points="742.82,-737.705 733.007,-741.7 743.17,-744.696 742.82,-737.705"/>
</g>
<!-- Node19 -->
<g id="node41" class="node"><title>Node19</title>
<a xlink:href="classtetgenmesh.xhtml#a50e12e269b11573e6e1b91347ad19b37" target="_top" xlink:title="tetgenmesh::recoversegments">
<polygon fill="none" stroke="black" points="1020.5,-713.5 1020.5,-734.5 1169.5,-734.5 1169.5,-713.5 1020.5,-713.5"/>
<text text-anchor="middle" x="1095" y="-721.5" font-family="Helvetica,sans-Serif" font-size="10.00">tetgenmesh::recoversegments</text>
</a>
</g>
<!-- Node18&#45;&gt;Node19 -->
<g id="edge44" class="edge"><title>Node18&#45;&gt;Node19</title>
<path fill="none" stroke="midnightblue" d="M994.574,-728.828C1003.33,-728.407 1012.04,-727.988 1020.48,-727.583"/>
<polygon fill="midnightblue" stroke="midnightblue" points="994.121,-725.346 984.301,-729.322 994.458,-732.338 994.121,-725.346"/>
</g>
<!-- Node20 -->
<g id="node43" class="node"><title>Node20</title>
<a xlink:href="classtetgenmesh.xhtml#a1be7dce56688fbe7a97fc31f98b61c19" target="_top" xlink:title="tetgenmesh::recoverboundary">
<polygon fill="none" stroke="black" points="1212,-653.5 1212,-674.5 1358,-674.5 1358,-653.5 1212,-653.5"/>
<text text-anchor="middle" x="1285" y="-661.5" font-family="Helvetica,sans-Serif" font-size="10.00">tetgenmesh::recoverboundary</text>
</a>
</g>
<!-- Node19&#45;&gt;Node20 -->
<g id="edge46" class="edge"><title>Node19&#45;&gt;Node20</title>
<path fill="none" stroke="midnightblue" d="M1138.3,-710.327C1172.65,-699.478 1219.98,-684.533 1251.49,-674.584"/>
<polygon fill="midnightblue" stroke="midnightblue" points="1137.01,-707.062 1128.53,-713.411 1139.12,-713.737 1137.01,-707.062"/>
</g>
<!-- Node20&#45;&gt;Node4 -->
<g id="edge48" class="edge"><title>Node20&#45;&gt;Node4</title>
<path fill="none" stroke="midnightblue" d="M1351.75,-676.094C1486.23,-696.276 1791.14,-720.201 1958,-560 1999.34,-520.306 2024.9,-331.929 2030.72,-284.739"/>
<polygon fill="midnightblue" stroke="midnightblue" points="1352,-672.592 1341.59,-674.527 1350.94,-679.511 1352,-672.592"/>
</g>
<!-- Node21&#45;&gt;Node18 -->
<g id="edge52" class="edge"><title>Node21&#45;&gt;Node18</title>
<path fill="none" stroke="midnightblue" d="M736.451,-777.112C774.157,-766.314 819.253,-753.4 850.198,-744.539"/>
<polygon fill="midnightblue" stroke="midnightblue" points="735.185,-773.833 726.535,-779.951 737.112,-780.563 735.185,-773.833"/>
</g>
<!-- Node22&#45;&gt;Node20 -->
<g id="edge58" class="edge"><title>Node22&#45;&gt;Node20</title>
<path fill="none" stroke="midnightblue" d="M1178.35,-664C1189.51,-664 1200.89,-664 1211.85,-664"/>
<polygon fill="midnightblue" stroke="midnightblue" points="1178.19,-660.5 1168.19,-664 1178.19,-667.5 1178.19,-660.5"/>
</g>
<!-- Node23&#45;&gt;Node4 -->
<g id="edge64" class="edge"><title>Node23&#45;&gt;Node4</title>
<path fill="none" stroke="midnightblue" d="M764.334,-252.859C851.044,-247.116 981.409,-240 1095,-240 1095,-240 1095,-240 1682,-240 1796.16,-240 1930.3,-258.142 1994.31,-267.921"/>
<polygon fill="midnightblue" stroke="midnightblue" points="763.988,-249.374 754.244,-253.534 764.455,-256.359 763.988,-249.374"/>
</g>
<!-- Node24 -->
<g id="node55" class="node"><title>Node24</title>
<a xlink:href="classtetgenmesh.xhtml#ab859365ca3dd3eafb77fac56d0ae3a03" target="_top" xlink:title="tetgenmesh::insertconstrainedpoints">
<polygon fill="none" stroke="black" points="800,-268.5 800,-289.5 974,-289.5 974,-268.5 800,-268.5"/>
<text text-anchor="middle" x="887" y="-276.5" font-family="Helvetica,sans-Serif" font-size="10.00">tetgenmesh::insertconstrainedpoints</text>
</a>
</g>
<!-- Node23&#45;&gt;Node24 -->
<g id="edge62" class="edge"><title>Node23&#45;&gt;Node24</title>
<path fill="none" stroke="midnightblue" d="M764.535,-268.424C776.293,-269.439 788.244,-270.471 799.84,-271.473"/>
<polygon fill="midnightblue" stroke="midnightblue" points="764.53,-264.91 754.266,-267.537 763.928,-271.884 764.53,-264.91"/>
</g>
<!-- Node26 -->
<g id="node60" class="node"><title>Node26</title>
<a xlink:href="classtetgenmesh.xhtml#a7af360f1ae413f9e0d7803ccae55b6d6" target="_top" xlink:title="tetgenmesh::repairencsegs">
<polygon fill="none" stroke="black" points="820,-346.5 820,-367.5 954,-367.5 954,-346.5 820,-346.5"/>
<text text-anchor="middle" x="887" y="-354.5" font-family="Helvetica,sans-Serif" font-size="10.00">tetgenmesh::repairencsegs</text>
</a>
</g>
<!-- Node25&#45;&gt;Node26 -->
<g id="edge68" class="edge"><title>Node25&#45;&gt;Node26</title>
<path fill="none" stroke="midnightblue" d="M741.798,-357C767.084,-357 795.144,-357 819.804,-357"/>
<polygon fill="midnightblue" stroke="midnightblue" points="741.521,-353.5 731.521,-357 741.521,-360.5 741.521,-353.5"/>
</g>
<!-- Node25&#45;&gt;Node27 -->
<g id="edge90" class="edge"><title>Node25&#45;&gt;Node27</title>
<path fill="none" stroke="midnightblue" d="M739.115,-369.187C755.805,-371.879 773.507,-374.633 790,-377 873.455,-388.98 970.076,-400.647 1031.82,-407.824"/>
<polygon fill="midnightblue" stroke="midnightblue" points="739.305,-365.672 728.873,-367.522 738.182,-372.581 739.305,-365.672"/>
</g>
<!-- Node25&#45;&gt;Node29 -->
<g id="edge92" class="edge"><title>Node25&#45;&gt;Node29</title>
<path fill="none" stroke="midnightblue" d="M730.158,-344.729C749.302,-341.551 770.441,-338.58 790,-337 1016.71,-318.689 1286.41,-337.834 1411.63,-349.064"/>
<polygon fill="midnightblue" stroke="midnightblue" points="729.317,-341.321 720.049,-346.455 730.496,-348.221 729.317,-341.321"/>
</g>
<!-- Node26&#45;&gt;Node27 -->
<g id="edge70" class="edge"><title>Node26&#45;&gt;Node27</title>
<path fill="none" stroke="midnightblue" d="M939.386,-370.126C953.867,-373.857 969.567,-377.996 984,-382 1009.77,-389.148 1038.72,-397.776 1060.59,-404.417"/>
<polygon fill="midnightblue" stroke="midnightblue" points="940.141,-366.707 929.585,-367.615 938.404,-373.488 940.141,-366.707"/>
</g>
<!-- Node26&#45;&gt;Node29 -->
<g id="edge86" class="edge"><title>Node26&#45;&gt;Node29</title>
<path fill="none" stroke="midnightblue" d="M964.365,-356.87C1080.92,-356.674 1299.82,-356.306 1411.93,-356.118"/>
<polygon fill="midnightblue" stroke="midnightblue" points="964.092,-353.37 954.097,-356.887 964.103,-360.37 964.092,-353.37"/>
</g>
<!-- Node31 -->
<g id="node70" class="node"><title>Node31</title>
<a xlink:href="classtetgenmesh.xhtml#a477bbfde72103de66546d4ea3343b4a1" target="_top" xlink:title="tetgenmesh::delaunayrefinement">
<polygon fill="none" stroke="black" points="1800,-298.5 1800,-319.5 1958,-319.5 1958,-298.5 1800,-298.5"/>
<text text-anchor="middle" x="1879" y="-306.5" font-family="Helvetica,sans-Serif" font-size="10.00">tetgenmesh::delaunayrefinement</text>
</a>
</g>
<!-- Node26&#45;&gt;Node31 -->
<g id="edge88" class="edge"><title>Node26&#45;&gt;Node31</title>
<path fill="none" stroke="midnightblue" d="M928.695,-343.472C1000.6,-321.382 1152.92,-280 1285,-280 1285,-280 1285,-280 1482,-280 1592.4,-280 1719.61,-291.293 1799.66,-299.784"/>
<polygon fill="midnightblue" stroke="midnightblue" points="927.605,-340.146 919.094,-346.455 929.682,-346.831 927.605,-340.146"/>
</g>
<!-- Node28 -->
<g id="node64" class="node"><title>Node28</title>
<a xlink:href="classtetgenmesh.xhtml#a701d4f317ed66df6a2e2b7b237e2386a" target="_top" xlink:title="tetgenmesh::repairencfacs">
<polygon fill="none" stroke="black" points="1219,-422.5 1219,-443.5 1351,-443.5 1351,-422.5 1219,-422.5"/>
<text text-anchor="middle" x="1285" y="-430.5" font-family="Helvetica,sans-Serif" font-size="10.00">tetgenmesh::repairencfacs</text>
</a>
</g>
<!-- Node27&#45;&gt;Node28 -->
<g id="edge72" class="edge"><title>Node27&#45;&gt;Node28</title>
<path fill="none" stroke="midnightblue" d="M1168.25,-421.939C1184.93,-423.519 1202.55,-425.189 1218.91,-426.739"/>
<polygon fill="midnightblue" stroke="midnightblue" points="1168.29,-418.428 1158,-420.969 1167.63,-425.396 1168.29,-418.428"/>
</g>
<!-- Node27&#45;&gt;Node29 -->
<g id="edge84" class="edge"><title>Node27&#45;&gt;Node29</title>
<path fill="none" stroke="midnightblue" d="M1168.16,-403.846C1238.56,-393.114 1344.19,-377.01 1413.11,-366.503"/>
<polygon fill="midnightblue" stroke="midnightblue" points="1167.4,-400.422 1158.04,-405.389 1168.45,-407.342 1167.4,-400.422"/>
</g>
<!-- Node28&#45;&gt;Node29 -->
<g id="edge74" class="edge"><title>Node28&#45;&gt;Node29</title>
<path fill="none" stroke="midnightblue" d="M1336.98,-419.312C1346.2,-416.113 1355.55,-412.346 1364,-408 1381.79,-398.853 1382.17,-390.053 1400,-381 1411.68,-375.072 1425.02,-370.265 1437.5,-366.51"/>
<polygon fill="midnightblue" stroke="midnightblue" points="1335.87,-415.993 1327.46,-422.439 1338.05,-422.643 1335.87,-415.993"/>
</g>
<!-- Node28&#45;&gt;Node31 -->
<g id="edge82" class="edge"><title>Node28&#45;&gt;Node31</title>
<path fill="none" stroke="midnightblue" d="M1361.41,-434.386C1459.44,-433.257 1632.51,-421.293 1764,-358 1783.56,-348.586 1780.66,-334.847 1800,-325 1804.12,-322.905 1808.48,-321.084 1812.97,-319.502"/>
<polygon fill="midnightblue" stroke="midnightblue" points="1361.26,-430.887 1351.29,-434.467 1361.31,-437.886 1361.26,-430.887"/>
</g>
<!-- Node30 -->
<g id="node68" class="node"><title>Node30</title>
<a xlink:href="classtetgenmesh.xhtml#a7c46c82d83099214115fa9719aefbd78" target="_top" xlink:title="tetgenmesh::repairbadtets">
<polygon fill="none" stroke="black" points="1617,-327.5 1617,-348.5 1747,-348.5 1747,-327.5 1617,-327.5"/>
<text text-anchor="middle" x="1682" y="-335.5" font-family="Helvetica,sans-Serif" font-size="10.00">tetgenmesh::repairbadtets</text>
</a>
</g>
<!-- Node29&#45;&gt;Node30 -->
<g id="edge76" class="edge"><title>Node29&#45;&gt;Node30</title>
<path fill="none" stroke="midnightblue" d="M1562.22,-348.78C1580.41,-347.143 1599.5,-345.425 1616.96,-343.854"/>
<polygon fill="midnightblue" stroke="midnightblue" points="1561.88,-345.297 1552.23,-349.679 1562.5,-352.269 1561.88,-345.297"/>
</g>
<!-- Node30&#45;&gt;Node31 -->
<g id="edge78" class="edge"><title>Node30&#45;&gt;Node31</title>
<path fill="none" stroke="midnightblue" d="M1757.2,-326.929C1773.73,-324.496 1791.19,-321.926 1807.56,-319.516"/>
<polygon fill="midnightblue" stroke="midnightblue" points="1756.43,-323.505 1747.05,-328.424 1757.45,-330.43 1756.43,-323.505"/>
</g>
<!-- Node31&#45;&gt;Node4 -->
<g id="edge80" class="edge"><title>Node31&#45;&gt;Node4</title>
<path fill="none" stroke="midnightblue" d="M1934.75,-296.246C1954.58,-291.712 1976.41,-286.717 1994.36,-282.611"/>
<polygon fill="midnightblue" stroke="midnightblue" points="1933.87,-292.857 1924.91,-298.499 1935.43,-299.681 1933.87,-292.857"/>
</g>
<!-- Node33 -->
<g id="node83" class="node"><title>Node33</title>
<a xlink:href="classtetgenmesh.xhtml#ad5c46c2f6c9adeed23fc8c64b682778d" target="_top" xlink:title="tetgenmesh::removeslivers">
<polygon fill="none" stroke="black" points="1415,-614.5 1415,-635.5 1549,-635.5 1549,-614.5 1415,-614.5"/>
<text text-anchor="middle" x="1482" y="-622.5" font-family="Helvetica,sans-Serif" font-size="10.00">tetgenmesh::removeslivers</text>
</a>
</g>
<!-- Node32&#45;&gt;Node33 -->
<g id="edge100" class="edge"><title>Node32&#45;&gt;Node33</title>
<path fill="none" stroke="midnightblue" d="M954.651,-625C1069.34,-625 1300.58,-625 1414.89,-625"/>
<polygon fill="midnightblue" stroke="midnightblue" points="954.592,-621.5 944.592,-625 954.592,-628.5 954.592,-621.5"/>
</g>
<!-- Node34 -->
<g id="node85" class="node"><title>Node34</title>
<a xlink:href="classtetgenmesh.xhtml#a8bb5c6ad8ccfa57f2a84e5a78295b263" target="_top" xlink:title="tetgenmesh::optimizemesh">
<polygon fill="none" stroke="black" points="1812,-529.5 1812,-550.5 1946,-550.5 1946,-529.5 1812,-529.5"/>
<text text-anchor="middle" x="1879" y="-537.5" font-family="Helvetica,sans-Serif" font-size="10.00">tetgenmesh::optimizemesh</text>
</a>
</g>
<!-- Node33&#45;&gt;Node34 -->
<g id="edge102" class="edge"><title>Node33&#45;&gt;Node34</title>
<path fill="none" stroke="midnightblue" d="M1541.28,-612.307C1619.74,-595.509 1756.64,-566.198 1829.72,-550.551"/>
<polygon fill="midnightblue" stroke="midnightblue" points="1540.12,-608.976 1531.08,-614.492 1541.59,-615.821 1540.12,-608.976"/>
</g>
<!-- Node34&#45;&gt;Node4 -->
<g id="edge104" class="edge"><title>Node34&#45;&gt;Node4</title>
<path fill="none" stroke="midnightblue" d="M1902.03,-523.438C1919.41,-509.925 1942.79,-489.453 1958,-467 2000.07,-404.909 2022.77,-315.563 2029.69,-284.849"/>
<polygon fill="midnightblue" stroke="midnightblue" points="1899.89,-520.662 1894.04,-529.49 1904.12,-526.241 1899.89,-520.662"/>
</g>
<!-- Node35&#45;&gt;Node14 -->
<g id="edge108" class="edge"><title>Node35&#45;&gt;Node14</title>
<path fill="none" stroke="midnightblue" d="M729.809,-945.977C738.009,-943.864 746.249,-941.529 754,-939 794.361,-925.829 839.395,-905.207 865.343,-892.712"/>
<polygon fill="midnightblue" stroke="midnightblue" points="728.727,-942.639 719.862,-948.442 730.411,-949.433 728.727,-942.639"/>
</g>
<!-- Node35&#45;&gt;Node16 -->
<g id="edge110" class="edge"><title>Node35&#45;&gt;Node16</title>
<path fill="none" stroke="midnightblue" d="M739.196,-955.366C837.058,-949.992 1017.16,-938.517 1170,-920 1188.68,-917.737 1208.97,-914.61 1227.23,-911.547"/>
<polygon fill="midnightblue" stroke="midnightblue" points="738.915,-951.876 729.12,-955.914 739.295,-958.866 738.915,-951.876"/>
</g>
<!-- Node36&#45;&gt;Node20 -->
<g id="edge122" class="edge"><title>Node36&#45;&gt;Node20</title>
<path fill="none" stroke="midnightblue" d="M254.981,-164.503C295.237,-240.151 453.78,-510 667,-510 667,-510 667,-510 887,-510 1046.29,-510 1218.75,-618.622 1269.9,-653.415"/>
<polygon fill="midnightblue" stroke="midnightblue" points="258.021,-162.764 250.28,-155.53 251.821,-166.012 258.021,-162.764"/>
</g>
<!-- Node37 -->
<g id="node94" class="node"><title>Node37</title>
<a xlink:href="classtetgenmesh.xhtml#aae5530d808e30771e717c94cb8586f0b" target="_top" xlink:title="tetgenmesh::suppressbdrysteinerpoint">
<polygon fill="none" stroke="black" points="362,-0.5 362,-21.5 544,-21.5 544,-0.5 362,-0.5"/>
<text text-anchor="middle" x="453" y="-8.5" font-family="Helvetica,sans-Serif" font-size="10.00">tetgenmesh::suppressbdrysteinerpoint</text>
</a>
</g>
<!-- Node36&#45;&gt;Node37 -->
<g id="edge114" class="edge"><title>Node36&#45;&gt;Node37</title>
<path fill="none" stroke="midnightblue" d="M259.871,-126.417C280.334,-102.077 319.498,-59.7216 362,-36 373.016,-29.8516 385.638,-25.1402 397.903,-21.5575"/>
<polygon fill="midnightblue" stroke="midnightblue" points="257.102,-124.273 253.438,-134.214 262.502,-128.728 257.102,-124.273"/>
</g>
<!-- Node38 -->
<g id="node96" class="node"><title>Node38</title>
<a xlink:href="classtetgenmesh.xhtml#affc448708b6df2b57048544d3efd6e3c" target="_top" xlink:title="tetgenmesh::suppresssteinerpoints">
<polygon fill="none" stroke="black" points="582.5,-38.5 582.5,-59.5 751.5,-59.5 751.5,-38.5 582.5,-38.5"/>
<text text-anchor="middle" x="667" y="-46.5" font-family="Helvetica,sans-Serif" font-size="10.00">tetgenmesh::suppresssteinerpoints</text>
</a>
</g>
<!-- Node36&#45;&gt;Node38 -->
<g id="edge120" class="edge"><title>Node36&#45;&gt;Node38</title>
<path fill="none" stroke="midnightblue" d="M266.114,-127.975C288.463,-111.013 325.487,-85.8416 362,-74 433.89,-50.6854 520.059,-45.5619 582.442,-45.6119"/>
<polygon fill="midnightblue" stroke="midnightblue" points="263.785,-125.352 258.026,-134.245 268.074,-130.884 263.785,-125.352"/>
</g>
<!-- Node39 -->
<g id="node101" class="node"><title>Node39</title>
<a xlink:href="classtetgenmesh.xhtml#a85e17b620820cbcb6cb47b565f822062" target="_top" xlink:title="tetgenmesh::meshcoarsening">
<polygon fill="none" stroke="black" points="1806.5,-83.5 1806.5,-104.5 1951.5,-104.5 1951.5,-83.5 1806.5,-83.5"/>
<text text-anchor="middle" x="1879" y="-91.5" font-family="Helvetica,sans-Serif" font-size="10.00">tetgenmesh::meshcoarsening</text>
</a>
</g>
<!-- Node36&#45;&gt;Node39 -->
<g id="edge124" class="edge"><title>Node36&#45;&gt;Node39</title>
<path fill="none" stroke="midnightblue" d="M301.827,-132.387C382.565,-115.598 535.309,-88 667,-88 667,-88 667,-88 1482,-88 1595.22,-88 1726.58,-90.4699 1806.2,-92.2403"/>
<polygon fill="midnightblue" stroke="midnightblue" points="300.937,-128.998 291.87,-134.479 302.376,-135.848 300.937,-128.998"/>
</g>
<!-- Node40 -->
<g id="node104" class="node"><title>Node40</title>
<a xlink:href="classtetgenmesh.xhtml#a6755cfa20d8ea6ce62d059750657a292" target="_top" xlink:title="tetgenmesh::lawsonflip3d">
<polygon fill="none" stroke="black" points="389,-191.5 389,-212.5 517,-212.5 517,-191.5 389,-191.5"/>
<text text-anchor="middle" x="453" y="-199.5" font-family="Helvetica,sans-Serif" font-size="10.00">tetgenmesh::lawsonflip3d</text>
</a>
</g>
<!-- Node36&#45;&gt;Node40 -->
<g id="edge128" class="edge"><title>Node36&#45;&gt;Node40</title>
<path fill="none" stroke="midnightblue" d="M293.663,-158.335C330.53,-168.438 380.486,-182.128 414.571,-191.469"/>
<polygon fill="midnightblue" stroke="midnightblue" points="294.205,-154.855 283.636,-155.588 292.355,-161.606 294.205,-154.855"/>
</g>
<!-- Node37&#45;&gt;Node38 -->
<g id="edge116" class="edge"><title>Node37&#45;&gt;Node38</title>
<path fill="none" stroke="midnightblue" d="M522.273,-23.3007C549.781,-28.1853 581.104,-33.7474 607.558,-38.4449"/>
<polygon fill="midnightblue" stroke="midnightblue" points="522.785,-19.837 512.327,-21.5347 521.561,-26.7292 522.785,-19.837"/>
</g>
<!-- Node38&#45;&gt;Node4 -->
<g id="edge118" class="edge"><title>Node38&#45;&gt;Node4</title>
<path fill="none" stroke="midnightblue" d="M761.947,-49.3489C848.678,-49.6374 980.46,-50 1095,-50 1095,-50 1095,-50 1682,-50 1805.13,-50 1860.1,0.67086 1958,-74 1990.01,-98.4167 2021.04,-225.711 2029.65,-263.447"/>
<polygon fill="midnightblue" stroke="midnightblue" points="761.873,-45.8488 751.861,-49.315 761.849,-52.8487 761.873,-45.8488"/>
</g>
<!-- Node39&#45;&gt;Node4 -->
<g id="edge126" class="edge"><title>Node39&#45;&gt;Node4</title>
<path fill="none" stroke="midnightblue" d="M1935.14,-108.454C1943.42,-112.259 1951.38,-117.031 1958,-123 2002.46,-163.065 2023.17,-235.792 2029.65,-263.179"/>
<polygon fill="midnightblue" stroke="midnightblue" points="1936.3,-105.143 1925.72,-104.556 1933.62,-111.612 1936.3,-105.143"/>
</g>
<!-- Node40&#45;&gt;Node23 -->
<g id="edge134" class="edge"><title>Node40&#45;&gt;Node23</title>
<path fill="none" stroke="midnightblue" d="M501.658,-215.188C539.971,-225.572 592.658,-239.851 628.174,-249.477"/>
<polygon fill="midnightblue" stroke="midnightblue" points="502.321,-211.741 491.754,-212.503 500.49,-218.497 502.321,-211.741"/>
</g>
<!-- Node40&#45;&gt;Node25 -->
<g id="edge136" class="edge"><title>Node40&#45;&gt;Node25</title>
<path fill="none" stroke="midnightblue" d="M475.814,-218.524C519.958,-250.497 615.926,-320.007 652.471,-346.477"/>
<polygon fill="midnightblue" stroke="midnightblue" points="477.861,-215.685 467.709,-212.654 473.755,-221.354 477.861,-215.685"/>
</g>
<!-- Node40&#45;&gt;Node27 -->
<g id="edge138" class="edge"><title>Node40&#45;&gt;Node27</title>
<path fill="none" stroke="midnightblue" d="M460.985,-221.967C477.161,-259.523 517.646,-340.205 580,-377 728.054,-464.365 943.25,-442.173 1041.94,-425.53"/>
<polygon fill="midnightblue" stroke="midnightblue" points="464.153,-220.469 457.069,-212.59 457.693,-223.166 464.153,-220.469"/>
</g>
<!-- Node40&#45;&gt;Node29 -->
<g id="edge140" class="edge"><title>Node40&#45;&gt;Node29</title>
<path fill="none" stroke="midnightblue" d="M527.58,-202C614.042,-202 760.836,-202 887,-202 887,-202 887,-202 1095,-202 1250.47,-202 1417.76,-310.622 1467.36,-345.415"/>
<polygon fill="midnightblue" stroke="midnightblue" points="527.34,-198.5 517.34,-202 527.34,-205.5 527.34,-198.5"/>
</g>
<!-- Node41 -->
<g id="node106" class="node"><title>Node41</title>
<a xlink:href="classtetgenmesh.xhtml#ad71017c71bd2cac0232c410a651ed085" target="_top" xlink:title="tetgenmesh::carveholes">
<polygon fill="none" stroke="black" points="1421.5,-116.5 1421.5,-137.5 1542.5,-137.5 1542.5,-116.5 1421.5,-116.5"/>
<text text-anchor="middle" x="1482" y="-124.5" font-family="Helvetica,sans-Serif" font-size="10.00">tetgenmesh::carveholes</text>
</a>
</g>
<!-- Node40&#45;&gt;Node41 -->
<g id="edge130" class="edge"><title>Node40&#45;&gt;Node41</title>
<path fill="none" stroke="midnightblue" d="M482.48,-186.852C507.677,-174.664 545.264,-158.255 580,-150 713.152,-118.356 750.139,-126 887,-126 887,-126 887,-126 1095,-126 1210.39,-126 1345.14,-126.45 1421.34,-126.746"/>
<polygon fill="midnightblue" stroke="midnightblue" points="480.887,-183.734 473.461,-191.291 483.979,-190.015 480.887,-183.734"/>
</g>
<!-- Node42 -->
<g id="node113" class="node"><title>Node42</title>
<a xlink:href="classtetgenmesh.xhtml#a4f6f365744005e9d9da43a7d8a1fbba8" target="_top" xlink:title="tetgenmesh::recoverdelaunay">
<polygon fill="none" stroke="black" points="1609.5,-173.5 1609.5,-194.5 1754.5,-194.5 1754.5,-173.5 1609.5,-173.5"/>
<text text-anchor="middle" x="1682" y="-181.5" font-family="Helvetica,sans-Serif" font-size="10.00">tetgenmesh::recoverdelaunay</text>
</a>
</g>
<!-- Node40&#45;&gt;Node42 -->
<g id="edge142" class="edge"><title>Node40&#45;&gt;Node42</title>
<path fill="none" stroke="midnightblue" d="M527.144,-191.539C613.41,-180.29 760.225,-164 887,-164 887,-164 887,-164 1095,-164 1280.33,-164 1498.38,-174.081 1609.28,-179.929"/>
<polygon fill="midnightblue" stroke="midnightblue" points="526.644,-188.074 517.187,-192.85 527.558,-195.014 526.644,-188.074"/>
</g>
<!-- Node41&#45;&gt;Node4 -->
<g id="edge132" class="edge"><title>Node41&#45;&gt;Node4</title>
<path fill="none" stroke="midnightblue" d="M1552.59,-120.603C1649.95,-115.035 1828.15,-116.789 1958,-187 1991.14,-204.919 2015.85,-244.163 2026.39,-263.207"/>
<polygon fill="midnightblue" stroke="midnightblue" points="1552.32,-117.113 1542.56,-121.219 1552.75,-124.1 1552.32,-117.113"/>
</g>
<!-- Node42&#45;&gt;Node4 -->
<g id="edge144" class="edge"><title>Node42&#45;&gt;Node4</title>
<path fill="none" stroke="midnightblue" d="M1764.98,-187.475C1821.02,-192.007 1895.84,-202.372 1958,-226 1981.48,-234.923 2005.24,-252.112 2019.29,-263.315"/>
<polygon fill="midnightblue" stroke="midnightblue" points="1764.97,-183.965 1754.74,-186.695 1764.44,-190.945 1764.97,-183.965"/>
</g>
</g>
</svg>
