<?xml version="1.0" encoding="UTF-8" standalone="no"?>
<!DOCTYPE svg PUBLIC "-//W3C//DTD SVG 1.1//EN"
 "http://www.w3.org/Graphics/SVG/1.1/DTD/svg11.dtd">
<!-- Generated by graphviz version 2.26.3 (20100126.1600)
 -->
<!-- Title: tetgenmesh::flip41 Pages: 1 -->
<svg width="2314pt" height="529pt"
 viewBox="0.00 0.00 2314.00 529.00" xmlns="http://www.w3.org/2000/svg" xmlns:xlink="http://www.w3.org/1999/xlink">
<g id="graph1" class="graph" transform="scale(1 1) rotate(0) translate(4 525)">
<title>tetgenmesh::flip41</title>
<!-- Node1 -->
<g id="node1" class="node"><title>Node1</title>
<polygon fill="#bfbfbf" stroke="black" points="0.5,-422.5 0.5,-443.5 97.5,-443.5 97.5,-422.5 0.5,-422.5"/>
<text text-anchor="middle" x="49" y="-430.5" font-family="Helvetica,sans-Serif" font-size="10.00">tetgenmesh::flip41</text>
</g>
<!-- Node2 -->
<g id="node3" class="node"><title>Node2</title>
<a xlink:href="classtetgenmesh.xhtml#ad3277eea82fb5eb134c5eaa6abf5c18d" target="_top" xlink:title="tetgenmesh::removevertexbyflips">
<polygon fill="none" stroke="black" points="134.5,-422.5 134.5,-443.5 295.5,-443.5 295.5,-422.5 134.5,-422.5"/>
<text text-anchor="middle" x="215" y="-430.5" font-family="Helvetica,sans-Serif" font-size="10.00">tetgenmesh::removevertexbyflips</text>
</a>
</g>
<!-- Node1&#45;&gt;Node2 -->
<g id="edge2" class="edge"><title>Node1&#45;&gt;Node2</title>
<path fill="none" stroke="midnightblue" d="M108.097,-433C116.621,-433 125.514,-433 134.371,-433"/>
<polygon fill="midnightblue" stroke="midnightblue" points="107.908,-429.5 97.9076,-433 107.908,-436.5 107.908,-429.5"/>
</g>
<!-- Node3 -->
<g id="node5" class="node"><title>Node3</title>
<a xlink:href="classtetgenmesh.xhtml#aae5530d808e30771e717c94cb8586f0b" target="_top" xlink:title="tetgenmesh::suppressbdrysteinerpoint">
<polygon fill="none" stroke="black" points="332,-499.5 332,-520.5 514,-520.5 514,-499.5 332,-499.5"/>
<text text-anchor="middle" x="423" y="-507.5" font-family="Helvetica,sans-Serif" font-size="10.00">tetgenmesh::suppressbdrysteinerpoint</text>
</a>
</g>
<!-- Node2&#45;&gt;Node3 -->
<g id="edge4" class="edge"><title>Node2&#45;&gt;Node3</title>
<path fill="none" stroke="midnightblue" d="M245.212,-447.933C268.541,-459.094 301.828,-474.219 332,-485 347.274,-490.458 364.344,-495.433 379.536,-499.483"/>
<polygon fill="midnightblue" stroke="midnightblue" points="246.697,-444.764 236.17,-443.568 243.654,-451.068 246.697,-444.764"/>
</g>
<!-- Node4 -->
<g id="node7" class="node"><title>Node4</title>
<a xlink:href="classtetgenmesh.xhtml#affc448708b6df2b57048544d3efd6e3c" target="_top" xlink:title="tetgenmesh::suppresssteinerpoints">
<polygon fill="none" stroke="black" points="552.5,-462.5 552.5,-483.5 721.5,-483.5 721.5,-462.5 552.5,-462.5"/>
<text text-anchor="middle" x="637" y="-470.5" font-family="Helvetica,sans-Serif" font-size="10.00">tetgenmesh::suppresssteinerpoints</text>
</a>
</g>
<!-- Node2&#45;&gt;Node4 -->
<g id="edge22" class="edge"><title>Node2&#45;&gt;Node4</title>
<path fill="none" stroke="midnightblue" d="M305.578,-444.148C314.501,-445.153 323.424,-446.122 332,-447 406.41,-454.621 491.195,-461.722 552.454,-466.57"/>
<polygon fill="midnightblue" stroke="midnightblue" points="305.854,-440.657 295.521,-443 305.06,-447.612 305.854,-440.657"/>
</g>
<!-- Node12 -->
<g id="node24" class="node"><title>Node12</title>
<a xlink:href="classtetgenmesh.xhtml#a1be7dce56688fbe7a97fc31f98b61c19" target="_top" xlink:title="tetgenmesh::recoverboundary">
<polygon fill="none" stroke="black" points="970,-423.5 970,-444.5 1116,-444.5 1116,-423.5 970,-423.5"/>
<text text-anchor="middle" x="1043" y="-431.5" font-family="Helvetica,sans-Serif" font-size="10.00">tetgenmesh::recoverboundary</text>
</a>
</g>
<!-- Node2&#45;&gt;Node12 -->
<g id="edge24" class="edge"><title>Node2&#45;&gt;Node12</title>
<path fill="none" stroke="midnightblue" d="M305.663,-433.109C470.981,-433.309 818.307,-433.729 969.769,-433.912"/>
<polygon fill="midnightblue" stroke="midnightblue" points="305.526,-429.609 295.522,-433.097 305.517,-436.609 305.526,-429.609"/>
</g>
<!-- Node13 -->
<g id="node27" class="node"><title>Node13</title>
<a xlink:href="classtetgenmesh.xhtml#a85e17b620820cbcb6cb47b565f822062" target="_top" xlink:title="tetgenmesh::meshcoarsening">
<polygon fill="none" stroke="black" points="1152.5,-385.5 1152.5,-406.5 1297.5,-406.5 1297.5,-385.5 1152.5,-385.5"/>
<text text-anchor="middle" x="1225" y="-393.5" font-family="Helvetica,sans-Serif" font-size="10.00">tetgenmesh::meshcoarsening</text>
</a>
</g>
<!-- Node2&#45;&gt;Node13 -->
<g id="edge28" class="edge"><title>Node2&#45;&gt;Node13</title>
<path fill="none" stroke="midnightblue" d="M297.731,-421.126C382.67,-409.977 518.776,-395 637,-395 637,-395 637,-395 847,-395 953.149,-395 1076.06,-395.399 1152.18,-395.693"/>
<polygon fill="midnightblue" stroke="midnightblue" points="297.084,-417.681 287.631,-422.465 298.004,-424.62 297.084,-417.681"/>
</g>
<!-- Node14 -->
<g id="node30" class="node"><title>Node14</title>
<a xlink:href="classtetgenmesh.xhtml#a6755cfa20d8ea6ce62d059750657a292" target="_top" xlink:title="tetgenmesh::lawsonflip3d">
<polygon fill="none" stroke="black" points="359,-154.5 359,-175.5 487,-175.5 487,-154.5 359,-154.5"/>
<text text-anchor="middle" x="423" y="-162.5" font-family="Helvetica,sans-Serif" font-size="10.00">tetgenmesh::lawsonflip3d</text>
</a>
</g>
<!-- Node2&#45;&gt;Node14 -->
<g id="edge32" class="edge"><title>Node2&#45;&gt;Node14</title>
<path fill="none" stroke="midnightblue" d="M229.393,-414.456C269.731,-362.481 383,-216.538 414.676,-175.725"/>
<polygon fill="midnightblue" stroke="midnightblue" points="226.52,-412.448 223.154,-422.494 232.05,-416.74 226.52,-412.448"/>
</g>
<!-- Node3&#45;&gt;Node4 -->
<g id="edge6" class="edge"><title>Node3&#45;&gt;Node4</title>
<path fill="none" stroke="midnightblue" d="M493.777,-497.763C520.411,-493.158 550.44,-487.966 576.097,-483.53"/>
<polygon fill="midnightblue" stroke="midnightblue" points="493.009,-494.344 483.751,-499.496 494.202,-501.241 493.009,-494.344"/>
</g>
<!-- Node5 -->
<g id="node9" class="node"><title>Node5</title>
<a xlink:href="tetgen_8h.xhtml#ad3637eb4ffe7fda90667e67b7771d964" target="_top" xlink:title="tetrahedralize">
<polygon fill="none" stroke="black" points="1886.5,-269.5 1886.5,-290.5 1961.5,-290.5 1961.5,-269.5 1886.5,-269.5"/>
<text text-anchor="middle" x="1924" y="-277.5" font-family="Helvetica,sans-Serif" font-size="10.00">tetrahedralize</text>
</a>
</g>
<!-- Node4&#45;&gt;Node5 -->
<g id="edge8" class="edge"><title>Node4&#45;&gt;Node5</title>
<path fill="none" stroke="midnightblue" d="M731.842,-473C814.123,-473 936.429,-473 1043,-473 1043,-473 1043,-473 1583,-473 1705.91,-473 1751.61,-474.66 1850,-401 1889.42,-371.485 1912.41,-314.234 1920.59,-290.6"/>
<polygon fill="midnightblue" stroke="midnightblue" points="731.759,-469.5 721.759,-473 731.759,-476.5 731.759,-469.5"/>
</g>
<!-- Node6 -->
<g id="node11" class="node"><title>Node6</title>
<a xlink:href="classGUICutRenderWindow.xhtml#a9eedb7088ad31f4680a77ed3a06fa60c" target="_top" xlink:title="Berechnet die 2D&#45;Temperaturverteilung als Grafik. ">
<polygon fill="none" stroke="black" points="2000.5,-309 2000.5,-343 2117.5,-343 2117.5,-309 2000.5,-309"/>
<text text-anchor="start" x="2008.5" y="-330" font-family="Helvetica,sans-Serif" font-size="10.00">GUICutRenderWindow</text>
<text text-anchor="middle" x="2059" y="-317" font-family="Helvetica,sans-Serif" font-size="10.00">::renderImage</text>
</a>
</g>
<!-- Node5&#45;&gt;Node6 -->
<g id="edge10" class="edge"><title>Node5&#45;&gt;Node6</title>
<path fill="none" stroke="midnightblue" d="M1964.73,-293.877C1978.62,-298.611 1994.32,-303.96 2008.86,-308.915"/>
<polygon fill="midnightblue" stroke="midnightblue" points="1965.57,-290.466 1954.97,-290.553 1963.31,-297.092 1965.57,-290.466"/>
</g>
<!-- Node8 -->
<g id="node15" class="node"><title>Node8</title>
<a xlink:href="classObjectData.xhtml#af3a850833d08eb9b45357449f455e24d" target="_top" xlink:title="Zerlegt das Objekt in Tetraeder (Schnittstelle zur Tetgen&#45;Bibliothek) und Berechnet die Temperaturver...">
<polygon fill="none" stroke="black" points="1998,-269.5 1998,-290.5 2120,-290.5 2120,-269.5 1998,-269.5"/>
<text text-anchor="middle" x="2059" y="-277.5" font-family="Helvetica,sans-Serif" font-size="10.00">ObjectData::calculateIO</text>
</a>
</g>
<!-- Node5&#45;&gt;Node8 -->
<g id="edge14" class="edge"><title>Node5&#45;&gt;Node8</title>
<path fill="none" stroke="midnightblue" d="M1971.65,-280C1980.11,-280 1989.02,-280 1997.8,-280"/>
<polygon fill="midnightblue" stroke="midnightblue" points="1971.61,-276.5 1961.61,-280 1971.6,-283.5 1971.61,-276.5"/>
</g>
<!-- Node11 -->
<g id="node21" class="node"><title>Node11</title>
<a xlink:href="tetgen_8cxx.xhtml#a0ddf1224851353fc92bfbff6f499fa97" target="_top" xlink:title="main">
<polygon fill="none" stroke="black" points="2040,-229.5 2040,-250.5 2078,-250.5 2078,-229.5 2040,-229.5"/>
<text text-anchor="middle" x="2059" y="-237.5" font-family="Helvetica,sans-Serif" font-size="10.00">main</text>
</a>
</g>
<!-- Node5&#45;&gt;Node11 -->
<g id="edge20" class="edge"><title>Node5&#45;&gt;Node11</title>
<path fill="none" stroke="midnightblue" d="M1969.15,-266.621C1993.27,-259.476 2021.67,-251.061 2039.98,-245.634"/>
<polygon fill="midnightblue" stroke="midnightblue" points="1968.06,-263.294 1959.47,-269.49 1970.05,-270.005 1968.06,-263.294"/>
</g>
<!-- Node7 -->
<g id="node13" class="node"><title>Node7</title>
<a xlink:href="classGUICutRenderWindow.xhtml#a7cd1bfbec53756a1cbbe1616b4d46c7a" target="_top" xlink:title="Behandelt das Drücken des Buttons zur Berechnung der zweidimensionalen Temperaturverteilung. ">
<polygon fill="none" stroke="black" points="2172.5,-309 2172.5,-343 2289.5,-343 2289.5,-309 2172.5,-309"/>
<text text-anchor="start" x="2180.5" y="-330" font-family="Helvetica,sans-Serif" font-size="10.00">GUICutRenderWindow</text>
<text text-anchor="middle" x="2231" y="-317" font-family="Helvetica,sans-Serif" font-size="10.00">::renderCutBtClick</text>
</a>
</g>
<!-- Node6&#45;&gt;Node7 -->
<g id="edge12" class="edge"><title>Node6&#45;&gt;Node7</title>
<path fill="none" stroke="midnightblue" d="M2127.78,-326C2142.51,-326 2157.95,-326 2172.26,-326"/>
<polygon fill="midnightblue" stroke="midnightblue" points="2127.71,-322.5 2117.71,-326 2127.71,-329.5 2127.71,-322.5"/>
</g>
<!-- Node9 -->
<g id="node17" class="node"><title>Node9</title>
<a xlink:href="classGUIMainWindow.xhtml#a0c2de30274c7f52ff74ec1217e47a9e5" target="_top" xlink:title="Berechnet die 3D&#45;Temperaturverteilung neu. ">
<polygon fill="none" stroke="black" points="2156,-217 2156,-251 2306,-251 2306,-217 2156,-217"/>
<text text-anchor="start" x="2164" y="-238" font-family="Helvetica,sans-Serif" font-size="10.00">GUIMainWindow::OnRecalcBt</text>
<text text-anchor="middle" x="2231" y="-225" font-family="Helvetica,sans-Serif" font-size="10.00">Click</text>
</a>
</g>
<!-- Node8&#45;&gt;Node9 -->
<g id="edge16" class="edge"><title>Node8&#45;&gt;Node9</title>
<path fill="none" stroke="midnightblue" d="M2108.33,-266.808C2126.64,-261.91 2147.69,-256.281 2167.12,-251.085"/>
<polygon fill="midnightblue" stroke="midnightblue" points="2107.22,-263.482 2098.46,-269.447 2109.03,-270.244 2107.22,-263.482"/>
</g>
<!-- Node10 -->
<g id="node19" class="node"><title>Node10</title>
<a xlink:href="classGUITimeline.xhtml#a099f3654aa6e7ea04df861851a0e9ec8" target="_top" xlink:title="Sucht den Zeitpunkt zwischen zwei markierten Stellen auf der Sensordaten&#45;Zeitleiste, für den der Wäremeenergiegehalt maximal wird. ">
<polygon fill="none" stroke="black" points="2162.5,-269.5 2162.5,-290.5 2299.5,-290.5 2299.5,-269.5 2162.5,-269.5"/>
<text text-anchor="middle" x="2231" y="-277.5" font-family="Helvetica,sans-Serif" font-size="10.00">GUITimeline::findMaxValue</text>
</a>
</g>
<!-- Node8&#45;&gt;Node10 -->
<g id="edge18" class="edge"><title>Node8&#45;&gt;Node10</title>
<path fill="none" stroke="midnightblue" d="M2130.23,-280C2140.89,-280 2151.86,-280 2162.46,-280"/>
<polygon fill="midnightblue" stroke="midnightblue" points="2130.13,-276.5 2120.13,-280 2130.13,-283.5 2130.13,-276.5"/>
</g>
<!-- Node12&#45;&gt;Node5 -->
<g id="edge26" class="edge"><title>Node12&#45;&gt;Node5</title>
<path fill="none" stroke="midnightblue" d="M1126.37,-434.362C1199.54,-434.648 1308.83,-435 1404,-435 1404,-435 1404,-435 1583,-435 1707.4,-435 1742.97,-414.399 1850,-351 1877.57,-334.667 1902.96,-306.201 1915.6,-290.739"/>
<polygon fill="midnightblue" stroke="midnightblue" points="1126.3,-430.862 1116.29,-434.322 1126.27,-437.862 1126.3,-430.862"/>
</g>
<!-- Node13&#45;&gt;Node5 -->
<g id="edge30" class="edge"><title>Node13&#45;&gt;Node5</title>
<path fill="none" stroke="midnightblue" d="M1307.93,-397.764C1395.32,-398.098 1536.59,-394.293 1656,-371 1749.08,-352.844 1854.14,-310.342 1900.21,-290.522"/>
<polygon fill="midnightblue" stroke="midnightblue" points="1307.83,-394.263 1297.81,-397.706 1307.79,-401.263 1307.83,-394.263"/>
</g>
<!-- Node15 -->
<g id="node32" class="node"><title>Node15</title>
<a xlink:href="classtetgenmesh.xhtml#ad71017c71bd2cac0232c410a651ed085" target="_top" xlink:title="tetgenmesh::carveholes">
<polygon fill="none" stroke="black" points="1343.5,-78.5 1343.5,-99.5 1464.5,-99.5 1464.5,-78.5 1343.5,-78.5"/>
<text text-anchor="middle" x="1404" y="-86.5" font-family="Helvetica,sans-Serif" font-size="10.00">tetgenmesh::carveholes</text>
</a>
</g>
<!-- Node14&#45;&gt;Node15 -->
<g id="edge34" class="edge"><title>Node14&#45;&gt;Node15</title>
<path fill="none" stroke="midnightblue" d="M452.485,-149.875C477.686,-137.702 515.275,-121.3 550,-113 678.802,-82.2123 714.57,-89 847,-89 847,-89 847,-89 1043,-89 1148.61,-89 1271.59,-89 1343.32,-89"/>
<polygon fill="midnightblue" stroke="midnightblue" points="450.896,-146.756 443.465,-154.308 453.983,-153.039 450.896,-146.756"/>
</g>
<!-- Node16 -->
<g id="node35" class="node"><title>Node16</title>
<a xlink:href="classtetgenmesh.xhtml#ac8205cae8e16f490b80d74975934ff74" target="_top" xlink:title="tetgenmesh::insertconstrainedpoints">
<polygon fill="none" stroke="black" points="550,-39.5 550,-60.5 724,-60.5 724,-39.5 550,-39.5"/>
<text text-anchor="middle" x="637" y="-47.5" font-family="Helvetica,sans-Serif" font-size="10.00">tetgenmesh::insertconstrainedpoints</text>
</a>
</g>
<!-- Node14&#45;&gt;Node16 -->
<g id="edge38" class="edge"><title>Node14&#45;&gt;Node16</title>
<path fill="none" stroke="midnightblue" d="M442.744,-147.762C466.644,-127.699 508.824,-94.7973 550,-75 562.322,-69.0756 576.317,-64.2905 589.425,-60.5547"/>
<polygon fill="midnightblue" stroke="midnightblue" points="440.432,-145.134 435.085,-154.281 444.969,-150.465 440.432,-145.134"/>
</g>
<!-- Node18 -->
<g id="node40" class="node"><title>Node18</title>
<a xlink:href="classtetgenmesh.xhtml#a6394d7b4d386e8d08077c39cd8983e0e" target="_top" xlink:title="tetgenmesh::splitsegment">
<polygon fill="none" stroke="black" points="572.5,-249.5 572.5,-270.5 701.5,-270.5 701.5,-249.5 572.5,-249.5"/>
<text text-anchor="middle" x="637" y="-257.5" font-family="Helvetica,sans-Serif" font-size="10.00">tetgenmesh::splitsegment</text>
</a>
</g>
<!-- Node14&#45;&gt;Node18 -->
<g id="edge44" class="edge"><title>Node14&#45;&gt;Node18</title>
<path fill="none" stroke="midnightblue" d="M456.004,-179.651C499.471,-198.947 574.863,-232.416 613.174,-249.423"/>
<polygon fill="midnightblue" stroke="midnightblue" points="457.279,-176.388 446.719,-175.53 454.439,-182.786 457.279,-176.388"/>
</g>
<!-- Node20 -->
<g id="node44" class="node"><title>Node20</title>
<a xlink:href="classtetgenmesh.xhtml#a3a8404870ab3c2e8ce4312d48c2b29f4" target="_top" xlink:title="tetgenmesh::splitsubface">
<polygon fill="none" stroke="black" points="980,-268.5 980,-289.5 1106,-289.5 1106,-268.5 980,-268.5"/>
<text text-anchor="middle" x="1043" y="-276.5" font-family="Helvetica,sans-Serif" font-size="10.00">tetgenmesh::splitsubface</text>
</a>
</g>
<!-- Node14&#45;&gt;Node20 -->
<g id="edge72" class="edge"><title>Node14&#45;&gt;Node20</title>
<path fill="none" stroke="midnightblue" d="M490.226,-177.361C612.781,-199.895 870.476,-247.278 985.472,-268.422"/>
<polygon fill="midnightblue" stroke="midnightblue" points="490.685,-173.887 480.217,-175.521 489.419,-180.771 490.685,-173.887"/>
</g>
<!-- Node22 -->
<g id="node48" class="node"><title>Node22</title>
<a xlink:href="classtetgenmesh.xhtml#aa752155eb1d18550a212dd40297f122e" target="_top" xlink:title="tetgenmesh::splittetrahedron">
<polygon fill="none" stroke="black" points="1334,-230.5 1334,-251.5 1474,-251.5 1474,-230.5 1334,-230.5"/>
<text text-anchor="middle" x="1404" y="-238.5" font-family="Helvetica,sans-Serif" font-size="10.00">tetgenmesh::splittetrahedron</text>
</a>
</g>
<!-- Node14&#45;&gt;Node22 -->
<g id="edge74" class="edge"><title>Node14&#45;&gt;Node22</title>
<path fill="none" stroke="midnightblue" d="M497.322,-165C581.977,-165 724.45,-165 847,-165 847,-165 847,-165 1043,-165 1168.53,-165 1313.46,-209.55 1374.49,-230.433"/>
<polygon fill="midnightblue" stroke="midnightblue" points="497.29,-161.5 487.29,-165 497.29,-168.5 497.29,-161.5"/>
</g>
<!-- Node25 -->
<g id="node63" class="node"><title>Node25</title>
<a xlink:href="classtetgenmesh.xhtml#a4f6f365744005e9d9da43a7d8a1fbba8" target="_top" xlink:title="tetgenmesh::recoverdelaunay">
<polygon fill="none" stroke="black" points="1510.5,-145.5 1510.5,-166.5 1655.5,-166.5 1655.5,-145.5 1510.5,-145.5"/>
<text text-anchor="middle" x="1583" y="-153.5" font-family="Helvetica,sans-Serif" font-size="10.00">tetgenmesh::recoverdelaunay</text>
</a>
</g>
<!-- Node14&#45;&gt;Node25 -->
<g id="edge76" class="edge"><title>Node14&#45;&gt;Node25</title>
<path fill="none" stroke="midnightblue" d="M497.141,-154.31C581.633,-143.071 723.959,-127 847,-127 847,-127 847,-127 1043,-127 1210.35,-127 1406.45,-141.06 1510.14,-149.6"/>
<polygon fill="midnightblue" stroke="midnightblue" points="496.574,-150.855 487.129,-155.655 497.506,-157.793 496.574,-150.855"/>
</g>
<!-- Node15&#45;&gt;Node5 -->
<g id="edge36" class="edge"><title>Node15&#45;&gt;Node5</title>
<path fill="none" stroke="midnightblue" d="M1474.74,-90.8954C1567.85,-96.4663 1733.34,-117.255 1850,-193 1881.43,-213.409 1906.79,-251.103 1917.91,-269.435"/>
<polygon fill="midnightblue" stroke="midnightblue" points="1474.76,-87.3912 1464.58,-90.331 1474.37,-94.3804 1474.76,-87.3912"/>
</g>
<!-- Node16&#45;&gt;Node5 -->
<g id="edge42" class="edge"><title>Node16&#45;&gt;Node5</title>
<path fill="none" stroke="midnightblue" d="M734.203,-50C816.452,-50 937.444,-50 1043,-50 1043,-50 1043,-50 1583,-50 1706.02,-50 1755.8,-43.8776 1850,-123 1897.76,-163.117 1916.67,-241.008 1922.15,-269.355"/>
<polygon fill="midnightblue" stroke="midnightblue" points="734.118,-46.5001 724.118,-50 734.118,-53.5001 734.118,-46.5001"/>
</g>
<!-- Node17 -->
<g id="node37" class="node"><title>Node17</title>
<a xlink:href="classtetgenmesh.xhtml#ab859365ca3dd3eafb77fac56d0ae3a03" target="_top" xlink:title="tetgenmesh::insertconstrainedpoints">
<polygon fill="none" stroke="black" points="760,-0.5 760,-21.5 934,-21.5 934,-0.5 760,-0.5"/>
<text text-anchor="middle" x="847" y="-8.5" font-family="Helvetica,sans-Serif" font-size="10.00">tetgenmesh::insertconstrainedpoints</text>
</a>
</g>
<!-- Node16&#45;&gt;Node17 -->
<g id="edge40" class="edge"><title>Node16&#45;&gt;Node17</title>
<path fill="none" stroke="midnightblue" d="M703.623,-37.6271C731.521,-32.4462 763.609,-26.4869 790.347,-21.5213"/>
<polygon fill="midnightblue" stroke="midnightblue" points="702.745,-34.2302 693.552,-39.4974 704.023,-41.1126 702.745,-34.2302"/>
</g>
<!-- Node19 -->
<g id="node42" class="node"><title>Node19</title>
<a xlink:href="classtetgenmesh.xhtml#a7af360f1ae413f9e0d7803ccae55b6d6" target="_top" xlink:title="tetgenmesh::repairencsegs">
<polygon fill="none" stroke="black" points="780,-308.5 780,-329.5 914,-329.5 914,-308.5 780,-308.5"/>
<text text-anchor="middle" x="847" y="-316.5" font-family="Helvetica,sans-Serif" font-size="10.00">tetgenmesh::repairencsegs</text>
</a>
</g>
<!-- Node18&#45;&gt;Node19 -->
<g id="edge46" class="edge"><title>Node18&#45;&gt;Node19</title>
<path fill="none" stroke="midnightblue" d="M684.314,-273.293C722.136,-283.919 774.438,-298.614 809.428,-308.444"/>
<polygon fill="midnightblue" stroke="midnightblue" points="685.118,-269.883 674.544,-270.548 683.224,-276.622 685.118,-269.883"/>
</g>
<!-- Node18&#45;&gt;Node20 -->
<g id="edge68" class="edge"><title>Node18&#45;&gt;Node20</title>
<path fill="none" stroke="midnightblue" d="M711.889,-263.505C788.859,-267.107 907.383,-272.653 979.786,-276.042"/>
<polygon fill="midnightblue" stroke="midnightblue" points="711.934,-260.003 701.781,-263.032 711.606,-266.995 711.934,-260.003"/>
</g>
<!-- Node18&#45;&gt;Node22 -->
<g id="edge70" class="edge"><title>Node18&#45;&gt;Node22</title>
<path fill="none" stroke="midnightblue" d="M711.641,-256.949C811.807,-252.99 995.273,-246.208 1152,-243 1213.46,-241.742 1283.36,-241.262 1333.93,-241.086"/>
<polygon fill="midnightblue" stroke="midnightblue" points="711.473,-253.453 701.62,-257.347 711.751,-260.448 711.473,-253.453"/>
</g>
<!-- Node19&#45;&gt;Node20 -->
<g id="edge48" class="edge"><title>Node19&#45;&gt;Node20</title>
<path fill="none" stroke="midnightblue" d="M908.495,-306.45C935.174,-301.005 966.063,-294.701 991.507,-289.509"/>
<polygon fill="midnightblue" stroke="midnightblue" points="907.595,-303.061 898.497,-308.49 908.995,-309.92 907.595,-303.061"/>
</g>
<!-- Node19&#45;&gt;Node22 -->
<g id="edge64" class="edge"><title>Node19&#45;&gt;Node22</title>
<path fill="none" stroke="midnightblue" d="M924.219,-326.406C1015.41,-332.737 1170.78,-335.896 1298,-300 1333.68,-289.934 1370.4,-265.822 1389.87,-251.735"/>
<polygon fill="midnightblue" stroke="midnightblue" points="924.466,-322.915 914.239,-325.682 923.959,-329.896 924.466,-322.915"/>
</g>
<!-- Node24 -->
<g id="node52" class="node"><title>Node24</title>
<a xlink:href="classtetgenmesh.xhtml#a477bbfde72103de66546d4ea3343b4a1" target="_top" xlink:title="tetgenmesh::delaunayrefinement">
<polygon fill="none" stroke="black" points="1692,-269.5 1692,-290.5 1850,-290.5 1850,-269.5 1692,-269.5"/>
<text text-anchor="middle" x="1771" y="-277.5" font-family="Helvetica,sans-Serif" font-size="10.00">tetgenmesh::delaunayrefinement</text>
</a>
</g>
<!-- Node19&#45;&gt;Node24 -->
<g id="edge66" class="edge"><title>Node19&#45;&gt;Node24</title>
<path fill="none" stroke="midnightblue" d="M902.909,-331.598C923.853,-335.871 947.92,-340.253 970,-343 1082.64,-357.013 1111.5,-357 1225,-357 1225,-357 1225,-357 1404,-357 1531.93,-357 1679.69,-311.633 1741.47,-290.545"/>
<polygon fill="midnightblue" stroke="midnightblue" points="903.404,-328.126 892.901,-329.517 901.979,-334.98 903.404,-328.126"/>
</g>
<!-- Node21 -->
<g id="node46" class="node"><title>Node21</title>
<a xlink:href="classtetgenmesh.xhtml#a701d4f317ed66df6a2e2b7b237e2386a" target="_top" xlink:title="tetgenmesh::repairencfacs">
<polygon fill="none" stroke="black" points="1159,-269.5 1159,-290.5 1291,-290.5 1291,-269.5 1159,-269.5"/>
<text text-anchor="middle" x="1225" y="-277.5" font-family="Helvetica,sans-Serif" font-size="10.00">tetgenmesh::repairencfacs</text>
</a>
</g>
<!-- Node20&#45;&gt;Node21 -->
<g id="edge50" class="edge"><title>Node20&#45;&gt;Node21</title>
<path fill="none" stroke="midnightblue" d="M1116.27,-279.403C1130.36,-279.48 1145.03,-279.561 1158.87,-279.637"/>
<polygon fill="midnightblue" stroke="midnightblue" points="1116.16,-275.902 1106.14,-279.347 1116.12,-282.902 1116.16,-275.902"/>
</g>
<!-- Node20&#45;&gt;Node22 -->
<g id="edge62" class="edge"><title>Node20&#45;&gt;Node22</title>
<path fill="none" stroke="midnightblue" d="M1107.18,-266.743C1121.87,-264.236 1137.44,-261.813 1152,-260 1213.17,-252.381 1283.1,-247.402 1333.75,-244.46"/>
<polygon fill="midnightblue" stroke="midnightblue" points="1106.43,-263.321 1097.18,-268.485 1107.63,-270.217 1106.43,-263.321"/>
</g>
<!-- Node21&#45;&gt;Node22 -->
<g id="edge52" class="edge"><title>Node21&#45;&gt;Node22</title>
<path fill="none" stroke="midnightblue" d="M1283.23,-267.312C1306.61,-262.22 1333.23,-256.419 1355.52,-251.562"/>
<polygon fill="midnightblue" stroke="midnightblue" points="1282.47,-263.897 1273.44,-269.446 1283.96,-270.737 1282.47,-263.897"/>
</g>
<!-- Node21&#45;&gt;Node24 -->
<g id="edge60" class="edge"><title>Node21&#45;&gt;Node24</title>
<path fill="none" stroke="midnightblue" d="M1301.15,-280C1404.19,-280 1587.12,-280 1691.74,-280"/>
<polygon fill="midnightblue" stroke="midnightblue" points="1301.13,-276.5 1291.13,-280 1301.13,-283.5 1301.13,-276.5"/>
</g>
<!-- Node23 -->
<g id="node50" class="node"><title>Node23</title>
<a xlink:href="classtetgenmesh.xhtml#a7c46c82d83099214115fa9719aefbd78" target="_top" xlink:title="tetgenmesh::repairbadtets">
<polygon fill="none" stroke="black" points="1518,-230.5 1518,-251.5 1648,-251.5 1648,-230.5 1518,-230.5"/>
<text text-anchor="middle" x="1583" y="-238.5" font-family="Helvetica,sans-Serif" font-size="10.00">tetgenmesh::repairbadtets</text>
</a>
</g>
<!-- Node22&#45;&gt;Node23 -->
<g id="edge54" class="edge"><title>Node22&#45;&gt;Node23</title>
<path fill="none" stroke="midnightblue" d="M1484.45,-241C1495.66,-241 1507.06,-241 1517.93,-241"/>
<polygon fill="midnightblue" stroke="midnightblue" points="1484.23,-237.5 1474.23,-241 1484.23,-244.5 1484.23,-237.5"/>
</g>
<!-- Node23&#45;&gt;Node24 -->
<g id="edge56" class="edge"><title>Node23&#45;&gt;Node24</title>
<path fill="none" stroke="midnightblue" d="M1643.83,-253.62C1668.46,-258.728 1696.57,-264.559 1720.08,-269.438"/>
<polygon fill="midnightblue" stroke="midnightblue" points="1644.38,-250.158 1633.88,-251.554 1642.96,-257.012 1644.38,-250.158"/>
</g>
<!-- Node24&#45;&gt;Node5 -->
<g id="edge58" class="edge"><title>Node24&#45;&gt;Node5</title>
<path fill="none" stroke="midnightblue" d="M1860.43,-280C1869.43,-280 1878.18,-280 1886.17,-280"/>
<polygon fill="midnightblue" stroke="midnightblue" points="1860.19,-276.5 1850.19,-280 1860.19,-283.5 1860.19,-276.5"/>
</g>
<!-- Node25&#45;&gt;Node5 -->
<g id="edge78" class="edge"><title>Node25&#45;&gt;Node5</title>
<path fill="none" stroke="midnightblue" d="M1621.71,-170.075C1690.75,-195.182 1833.66,-247.149 1895,-269.455"/>
<polygon fill="midnightblue" stroke="midnightblue" points="1622.67,-166.7 1612.07,-166.572 1620.28,-173.279 1622.67,-166.7"/>
</g>
</g>
</svg>
