<?xml version="1.0" encoding="UTF-8" standalone="no"?>
<!DOCTYPE svg PUBLIC "-//W3C//DTD SVG 1.1//EN"
 "http://www.w3.org/Graphics/SVG/1.1/DTD/svg11.dtd">
<!-- Generated by graphviz version 2.26.3 (20100126.1600)
 -->
<!-- Title: Interpolator::setMode Pages: 1 -->
<svg width="804pt" height="203pt"
 viewBox="0.00 0.00 804.00 203.00" xmlns="http://www.w3.org/2000/svg" xmlns:xlink="http://www.w3.org/1999/xlink">
<g id="graph1" class="graph" transform="scale(1 1) rotate(0) translate(4 199)">
<title>Interpolator::setMode</title>
<!-- Node1 -->
<g id="node1" class="node"><title>Node1</title>
<polygon fill="#bfbfbf" stroke="black" points="0.5,-121.5 0.5,-142.5 109.5,-142.5 109.5,-121.5 0.5,-121.5"/>
<text text-anchor="middle" x="55" y="-129.5" font-family="Helvetica,sans-Serif" font-size="10.00">Interpolator::setMode</text>
</g>
<!-- Node2 -->
<g id="node3" class="node"><title>Node2</title>
<a xlink:href="classGUIAnalyzePointWindow.xhtml#aa84ea9958e8b41423f01316d01ba5151" target="_top" xlink:title="Event&#45;Tabellendeklaration für wxWidgets. ">
<polygon fill="none" stroke="black" points="146,-161 146,-195 274,-195 274,-161 146,-161"/>
<text text-anchor="start" x="154" y="-182" font-family="Helvetica,sans-Serif" font-size="10.00">GUIAnalyzePointWindow</text>
<text text-anchor="middle" x="210" y="-169" font-family="Helvetica,sans-Serif" font-size="10.00">::analyzePoint</text>
</a>
</g>
<!-- Node1&#45;&gt;Node2 -->
<g id="edge2" class="edge"><title>Node1&#45;&gt;Node2</title>
<path fill="none" stroke="midnightblue" d="M100.371,-145.465C116.659,-150.299 135.247,-155.815 152.433,-160.915"/>
<polygon fill="midnightblue" stroke="midnightblue" points="101.143,-142.043 90.5601,-142.553 99.1511,-148.754 101.143,-142.043"/>
</g>
<!-- Node3 -->
<g id="node5" class="node"><title>Node3</title>
<a xlink:href="GUICutRenderWindow_8cpp.xhtml#aeaaae4c8452680389d221d0e60a6fc33" target="_top" xlink:title="render_thread">
<polygon fill="none" stroke="black" points="172,-121.5 172,-142.5 248,-142.5 248,-121.5 172,-121.5"/>
<text text-anchor="middle" x="210" y="-129.5" font-family="Helvetica,sans-Serif" font-size="10.00">render_thread</text>
</a>
</g>
<!-- Node1&#45;&gt;Node3 -->
<g id="edge4" class="edge"><title>Node1&#45;&gt;Node3</title>
<path fill="none" stroke="midnightblue" d="M119.933,-132C137.627,-132 156.22,-132 171.887,-132"/>
<polygon fill="midnightblue" stroke="midnightblue" points="119.647,-128.5 109.647,-132 119.647,-135.5 119.647,-128.5"/>
</g>
<!-- Node6 -->
<g id="node11" class="node"><title>Node6</title>
<a xlink:href="classMeshProcessor.xhtml#a060c3815db33f8e52ac620ed2239ccc9" target="_top" xlink:title="Berechnet die Temperaturverteilung für ein Objekt. ">
<polygon fill="none" stroke="black" points="147.5,-65.5 147.5,-86.5 272.5,-86.5 272.5,-65.5 147.5,-65.5"/>
<text text-anchor="middle" x="210" y="-73.5" font-family="Helvetica,sans-Serif" font-size="10.00">MeshProcessor::process</text>
</a>
</g>
<!-- Node1&#45;&gt;Node6 -->
<g id="edge10" class="edge"><title>Node1&#45;&gt;Node6</title>
<path fill="none" stroke="midnightblue" d="M93.6724,-118.028C120.643,-108.284 156.072,-95.4836 180.713,-86.581"/>
<polygon fill="midnightblue" stroke="midnightblue" points="92.37,-114.777 84.1543,-121.467 94.7486,-121.361 92.37,-114.777"/>
</g>
<!-- Node4 -->
<g id="node7" class="node"><title>Node4</title>
<a xlink:href="classGUICutRenderWindow.xhtml#a9eedb7088ad31f4680a77ed3a06fa60c" target="_top" xlink:title="Berechnet die 2D&#45;Temperaturverteilung als Grafik. ">
<polygon fill="none" stroke="black" points="313.5,-131 313.5,-165 430.5,-165 430.5,-131 313.5,-131"/>
<text text-anchor="start" x="321.5" y="-152" font-family="Helvetica,sans-Serif" font-size="10.00">GUICutRenderWindow</text>
<text text-anchor="middle" x="372" y="-139" font-family="Helvetica,sans-Serif" font-size="10.00">::renderImage</text>
</a>
</g>
<!-- Node3&#45;&gt;Node4 -->
<g id="edge6" class="edge"><title>Node3&#45;&gt;Node4</title>
<path fill="none" stroke="midnightblue" d="M258.746,-136.814C275.912,-138.51 295.387,-140.433 313.287,-142.201"/>
<polygon fill="midnightblue" stroke="midnightblue" points="258.687,-133.292 248.392,-135.792 257.999,-140.258 258.687,-133.292"/>
</g>
<!-- Node5 -->
<g id="node9" class="node"><title>Node5</title>
<a xlink:href="classGUICutRenderWindow.xhtml#a7cd1bfbec53756a1cbbe1616b4d46c7a" target="_top" xlink:title="Behandelt das Drücken des Buttons zur Berechnung der zweidimensionalen Temperaturverteilung. ">
<polygon fill="none" stroke="black" points="486.5,-144 486.5,-178 603.5,-178 603.5,-144 486.5,-144"/>
<text text-anchor="start" x="494.5" y="-165" font-family="Helvetica,sans-Serif" font-size="10.00">GUICutRenderWindow</text>
<text text-anchor="middle" x="545" y="-152" font-family="Helvetica,sans-Serif" font-size="10.00">::renderCutBtClick</text>
</a>
</g>
<!-- Node4&#45;&gt;Node5 -->
<g id="edge8" class="edge"><title>Node4&#45;&gt;Node5</title>
<path fill="none" stroke="midnightblue" d="M440.883,-153.176C455.987,-154.311 471.839,-155.502 486.49,-156.603"/>
<polygon fill="midnightblue" stroke="midnightblue" points="440.804,-149.66 430.57,-152.401 440.279,-156.641 440.804,-149.66"/>
</g>
<!-- Node7 -->
<g id="node13" class="node"><title>Node7</title>
<a xlink:href="classAnalyzer.xhtml#a2a7b5f169f664ccd9f206e508cba78ef" target="_top" xlink:title="Ermittelt Daten für ein Objekt. ">
<polygon fill="none" stroke="black" points="310.5,-65.5 310.5,-86.5 433.5,-86.5 433.5,-65.5 310.5,-65.5"/>
<text text-anchor="middle" x="372" y="-73.5" font-family="Helvetica,sans-Serif" font-size="10.00">Analyzer::analyzeObject</text>
</a>
</g>
<!-- Node6&#45;&gt;Node7 -->
<g id="edge12" class="edge"><title>Node6&#45;&gt;Node7</title>
<path fill="none" stroke="midnightblue" d="M282.896,-76C292.06,-76 301.365,-76 310.333,-76"/>
<polygon fill="midnightblue" stroke="midnightblue" points="282.633,-72.5001 272.633,-76 282.633,-79.5001 282.633,-72.5001"/>
</g>
<!-- Node11 -->
<g id="node21" class="node"><title>Node11</title>
<a xlink:href="classObjectData.xhtml#af3a850833d08eb9b45357449f455e24d" target="_top" xlink:title="Zerlegt das Objekt in Tetraeder (Schnittstelle zur Tetgen&#45;Bibliothek) und Berechnet die Temperaturver...">
<polygon fill="none" stroke="black" points="311,-22.5 311,-43.5 433,-43.5 433,-22.5 311,-22.5"/>
<text text-anchor="middle" x="372" y="-30.5" font-family="Helvetica,sans-Serif" font-size="10.00">ObjectData::calculateIO</text>
</a>
</g>
<!-- Node6&#45;&gt;Node11 -->
<g id="edge20" class="edge"><title>Node6&#45;&gt;Node11</title>
<path fill="none" stroke="midnightblue" d="M259.355,-62.8996C282.709,-56.7008 310.226,-49.3967 332.218,-43.5594"/>
<polygon fill="midnightblue" stroke="midnightblue" points="258.397,-59.5326 249.63,-65.481 260.193,-66.2983 258.397,-59.5326"/>
</g>
<!-- Node8 -->
<g id="node15" class="node"><title>Node8</title>
<a xlink:href="classGUIAnalyzeOutputWindow.xhtml#a9ea5a7cf46d6189f368315903508cecc" target="_top" xlink:title="Methode zum aktualisieren des Fensters, alle Objekte werden erneut analysiert und die aktualisierten ...">
<polygon fill="none" stroke="black" points="478,-92 478,-126 612,-126 612,-92 478,-92"/>
<text text-anchor="start" x="486" y="-113" font-family="Helvetica,sans-Serif" font-size="10.00">GUIAnalyzeOutputWindow</text>
<text text-anchor="middle" x="545" y="-100" font-family="Helvetica,sans-Serif" font-size="10.00">::Update</text>
</a>
</g>
<!-- Node7&#45;&gt;Node8 -->
<g id="edge14" class="edge"><title>Node7&#45;&gt;Node8</title>
<path fill="none" stroke="midnightblue" d="M437.221,-88.441C450.519,-90.9775 464.532,-93.6506 477.894,-96.1995"/>
<polygon fill="midnightblue" stroke="midnightblue" points="437.693,-84.9679 427.214,-86.5321 436.381,-91.844 437.693,-84.9679"/>
</g>
<!-- Node10 -->
<g id="node19" class="node"><title>Node10</title>
<a xlink:href="classGUITimeline.xhtml#a099f3654aa6e7ea04df861851a0e9ec8" target="_top" xlink:title="Sucht den Zeitpunkt zwischen zwei markierten Stellen auf der Sensordaten&#45;Zeitleiste, für den der Wäremeenergiegehalt maximal wird. ">
<polygon fill="none" stroke="black" points="476.5,-52.5 476.5,-73.5 613.5,-73.5 613.5,-52.5 476.5,-52.5"/>
<text text-anchor="middle" x="545" y="-60.5" font-family="Helvetica,sans-Serif" font-size="10.00">GUITimeline::findMaxValue</text>
</a>
</g>
<!-- Node7&#45;&gt;Node10 -->
<g id="edge18" class="edge"><title>Node7&#45;&gt;Node10</title>
<path fill="none" stroke="midnightblue" d="M444.108,-70.5815C454.804,-69.7778 465.801,-68.9513 476.422,-68.1533"/>
<polygon fill="midnightblue" stroke="midnightblue" points="443.678,-67.1038 433.968,-71.3434 444.203,-74.0842 443.678,-67.1038"/>
</g>
<!-- Node9 -->
<g id="node17" class="node"><title>Node9</title>
<a xlink:href="classGUIAnalyzeOutputWindow.xhtml#af9407245a6b2a0478579c4d592a31e63" target="_top" xlink:title="Der Konstruktor. ">
<polygon fill="none" stroke="black" points="656,-92 656,-126 796,-126 796,-92 656,-92"/>
<text text-anchor="start" x="664" y="-113" font-family="Helvetica,sans-Serif" font-size="10.00">GUIAnalyzeOutputWindow</text>
<text text-anchor="middle" x="726" y="-100" font-family="Helvetica,sans-Serif" font-size="10.00">::GUIAnalyzeOutputWindow</text>
</a>
</g>
<!-- Node8&#45;&gt;Node9 -->
<g id="edge16" class="edge"><title>Node8&#45;&gt;Node9</title>
<path fill="none" stroke="midnightblue" d="M622.303,-109C633.474,-109 644.92,-109 655.939,-109"/>
<polygon fill="midnightblue" stroke="midnightblue" points="622.141,-105.5 612.141,-109 622.14,-112.5 622.141,-105.5"/>
</g>
<!-- Node12 -->
<g id="node23" class="node"><title>Node12</title>
<a xlink:href="classGUIMainWindow.xhtml#a0c2de30274c7f52ff74ec1217e47a9e5" target="_top" xlink:title="Berechnet die 3D&#45;Temperaturverteilung neu. ">
<polygon fill="none" stroke="black" points="470,-0 470,-34 620,-34 620,-0 470,-0"/>
<text text-anchor="start" x="478" y="-21" font-family="Helvetica,sans-Serif" font-size="10.00">GUIMainWindow::OnRecalcBt</text>
<text text-anchor="middle" x="545" y="-8" font-family="Helvetica,sans-Serif" font-size="10.00">Click</text>
</a>
</g>
<!-- Node11&#45;&gt;Node12 -->
<g id="edge22" class="edge"><title>Node11&#45;&gt;Node12</title>
<path fill="none" stroke="midnightblue" d="M443.534,-26.3841C452.197,-25.5829 461.067,-24.7625 469.782,-23.9566"/>
<polygon fill="midnightblue" stroke="midnightblue" points="443.116,-22.9078 433.48,-27.3139 443.76,-29.8781 443.116,-22.9078"/>
</g>
</g>
</svg>
