<?xml version="1.0" encoding="UTF-8" standalone="no"?>
<!DOCTYPE svg PUBLIC "-//W3C//DTD SVG 1.1//EN"
 "http://www.w3.org/Graphics/SVG/1.1/DTD/svg11.dtd">
<!-- Generated by graphviz version 2.26.3 (20100126.1600)
 -->
<!-- Title: GUIGLCanvas Pages: 1 -->
<!--zoomable 560 -->
<svg id="main" version="1.1" xmlns="http://www.w3.org/2000/svg" xmlns:xlink="http://www.w3.org/1999/xlink" xml:space="preserve" onload="init(evt)">
<style type="text/css"><![CDATA[
.edge:hover path { stroke: red; }
.edge:hover polygon { stroke: red; fill: red; }
]]></style>
<script type="text/javascript"><![CDATA[
var edges = document.getElementsByTagName('g');
if (edges && edges.length) {
  for (var i=0;i<edges.length;i++) {
    if (edges[i].id.substr(0,4)=='edge') {
      edges[i].setAttribute('class','edge');
    }
  }
}
]]></script>
        <defs>
                <circle id="rim" cx="0" cy="0" r="7"/>
                <circle id="rim2" cx="0" cy="0" r="3.5"/>
                <g id="zoomPlus">
                        <use xlink:href="#rim" fill="#404040">
                                <set attributeName="fill" to="#808080" begin="zoomplus.mouseover" end="zoomplus.mouseout"/>
                        </use>
                        <path d="M-4,0h8M0,-4v8" fill="none" stroke="white" stroke-width="1.5" pointer-events="none"/>
                </g>
                <g id="zoomMin">
                        <use xlink:href="#rim" fill="#404040">
                                <set attributeName="fill" to="#808080" begin="zoomminus.mouseover" end="zoomminus.mouseout"/>
                        </use>
                        <path d="M-4,0h8" fill="none" stroke="white" stroke-width="1.5" pointer-events="none"/>
                </g>
                <g id="dirArrow">
                        <path fill="none" stroke="white" stroke-width="1.5" d="M0,-3.0v7 M-2.5,-0.5L0,-3.0L2.5,-0.5"/>
                </g>
               <g id="resetDef">
                       <use xlink:href="#rim2" fill="#404040">
                               <set attributeName="fill" to="#808080" begin="reset.mouseover" end="reset.mouseout"/>
                       </use>
               </g>
        </defs>

<script type="text/javascript">
var viewWidth = 501;
var viewHeight = 560;
var sectionId = 'dynsection-1';
</script>
<script xlink:href="svgpan.js"/>
<svg id="graph" class="graph">
<g id="viewport">
<title>GUIGLCanvas</title>
<!-- Node1 -->
<g id="node1" class="node"><title>Node1</title>
<polygon fill="#bfbfbf" stroke="black" points="92.5,-0.5 92.5,-21.5 173.5,-21.5 173.5,-0.5 92.5,-0.5"/>
<text text-anchor="middle" x="133" y="-8.5" font-family="Helvetica,sans-Serif" font-size="10.00">GUIGLCanvas</text>
</g>
<!-- Node2 -->
<g id="node2" class="node"><title>Node2</title>
<polygon fill="none" stroke="#bfbfbf" points="66,-72.5 66,-93.5 142,-93.5 142,-72.5 66,-72.5"/>
<text text-anchor="middle" x="104" y="-80.5" font-family="Helvetica,sans-Serif" font-size="10.00">wxGLCanvas</text>
</g>
<!-- Node2&#45;&gt;Node1 -->
<g id="edge2" class="edge"><title>Node2&#45;&gt;Node1</title>
<path fill="none" stroke="midnightblue" d="M112.045,-63.0266C117.438,-49.6374 124.327,-32.5318 128.703,-21.6674"/>
<polygon fill="midnightblue" stroke="midnightblue" points="108.769,-61.7926 108.279,-72.3762 115.262,-64.4079 108.769,-61.7926"/>
</g>
<!-- Node3 -->
<g id="node4" class="node"><title>Node3</title>
<a xlink:href="classRenderer.xhtml" target="_top" xlink:title="Zeichnet den Inhalt der 3D&#45;Fensters. ">
<polygon fill="none" stroke="black" points="160,-72.5 160,-93.5 216,-93.5 216,-72.5 160,-72.5"/>
<text text-anchor="middle" x="188" y="-80.5" font-family="Helvetica,sans-Serif" font-size="10.00">Renderer</text>
</a>
</g>
<!-- Node3&#45;&gt;Node1 -->
<g id="edge4" class="edge"><title>Node3&#45;&gt;Node1</title>
<path fill="none" stroke="#9a32cd" stroke-dasharray="5,2" d="M173.637,-64.1981C163.287,-50.649 149.692,-32.8514 141.149,-21.6674"/>
<polygon fill="#9a32cd" stroke="#9a32cd" points="171.033,-66.5541 179.885,-72.3762 176.595,-62.3048 171.033,-66.5541"/>
<text text-anchor="middle" x="185.5" y="-44.5" font-family="Helvetica,sans-Serif" font-size="10.00"> renderer</text>
</g>
<!-- Node4 -->
<g id="node6" class="node"><title>Node4</title>
<a xlink:href="structRenderer_1_1Viewport__info.xhtml" target="_top" xlink:title="Informationen über die Ansicht des Modells (Virtuelle Kamera) und welche Elemente dargestellt werden...">
<polygon fill="none" stroke="black" points="0,-144.5 0,-165.5 122,-165.5 122,-144.5 0,-144.5"/>
<text text-anchor="middle" x="61" y="-152.5" font-family="Helvetica,sans-Serif" font-size="10.00">Renderer::Viewport_info</text>
</a>
</g>
<!-- Node4&#45;&gt;Node3 -->
<g id="edge6" class="edge"><title>Node4&#45;&gt;Node3</title>
<path fill="none" stroke="#9a32cd" stroke-dasharray="5,2" d="M88.5178,-139.399C112.904,-125.574 147.86,-105.757 169.184,-93.6674"/>
<polygon fill="#9a32cd" stroke="#9a32cd" points="86.7124,-136.4 79.7393,-144.376 90.1647,-142.489 86.7124,-136.4"/>
<text text-anchor="middle" x="156" y="-116.5" font-family="Helvetica,sans-Serif" font-size="10.00"> viewport</text>
</g>
<!-- Node5 -->
<g id="node8" class="node"><title>Node5</title>
<a xlink:href="classTriangle.xhtml" target="_top" xlink:title="Ein durch 3 Ortsvektoren beschriebenes Dreieck. ">
<polygon fill="none" stroke="black" points="149.5,-223.5 149.5,-244.5 200.5,-244.5 200.5,-223.5 149.5,-223.5"/>
<text text-anchor="middle" x="175" y="-231.5" font-family="Helvetica,sans-Serif" font-size="10.00">Triangle</text>
</a>
</g>
<!-- Node5&#45;&gt;Node4 -->
<g id="edge8" class="edge"><title>Node5&#45;&gt;Node4</title>
<path fill="none" stroke="#9a32cd" stroke-dasharray="5,2" d="M151.3,-217.577C128.842,-202.013 95.7608,-179.089 76.495,-165.738"/>
<polygon fill="#9a32cd" stroke="#9a32cd" points="149.413,-220.527 159.625,-223.346 153.4,-214.773 149.413,-220.527"/>
<text text-anchor="middle" x="130.5" y="-188.5" font-family="Helvetica,sans-Serif" font-size="10.00"> cut</text>
</g>
<!-- Node17 -->
<g id="node33" class="node"><title>Node17</title>
<a xlink:href="structUtils_1_1CutRender__info.xhtml" target="_top" xlink:title="Daten zur Darstellung einer 2D&#45;Temperaturverteilungs&#45;Ebene. ">
<polygon fill="none" stroke="black" points="139.5,-144.5 139.5,-165.5 250.5,-165.5 250.5,-144.5 139.5,-144.5"/>
<text text-anchor="middle" x="195" y="-152.5" font-family="Helvetica,sans-Serif" font-size="10.00">Utils::CutRender_info</text>
</a>
</g>
<!-- Node5&#45;&gt;Node17 -->
<g id="edge36" class="edge"><title>Node5&#45;&gt;Node17</title>
<path fill="none" stroke="#9a32cd" stroke-dasharray="5,2" d="M180.245,-213.284C184.106,-198.031 189.201,-177.907 192.282,-165.738"/>
<polygon fill="#9a32cd" stroke="#9a32cd" points="176.759,-212.793 177.697,-223.346 183.545,-214.511 176.759,-212.793"/>
<text text-anchor="middle" x="194" y="-188.5" font-family="Helvetica,sans-Serif" font-size="10.00"> tri</text>
</g>
<!-- Node6 -->
<g id="node10" class="node"><title>Node6</title>
<a xlink:href="classVector3D.xhtml" target="_top" xlink:title="3D&#45;Vektorklasse mit nützlichen Operationen. ">
<polygon fill="none" stroke="black" points="87,-302.5 87,-323.5 145,-323.5 145,-302.5 87,-302.5"/>
<text text-anchor="middle" x="116" y="-310.5" font-family="Helvetica,sans-Serif" font-size="10.00">Vector3D</text>
</a>
</g>
<!-- Node6&#45;&gt;Node4 -->
<g id="edge12" class="edge"><title>Node6&#45;&gt;Node4</title>
<path fill="none" stroke="#9a32cd" stroke-dasharray="5,2" d="M98.1461,-294.995C88.0544,-283.645 76.2416,-268.125 70,-252 58.5224,-222.348 59.0488,-183.935 60.1382,-165.62"/>
<polygon fill="#9a32cd" stroke="#9a32cd" points="95.7176,-297.524 105.086,-302.472 100.848,-292.761 95.7176,-297.524"/>
<text text-anchor="middle" x="105.5" y="-231.5" font-family="Helvetica,sans-Serif" font-size="10.00"> cameraPosition</text>
</g>
<!-- Node6&#45;&gt;Node5 -->
<g id="edge10" class="edge"><title>Node6&#45;&gt;Node5</title>
<path fill="none" stroke="#9a32cd" stroke-dasharray="5,2" d="M130.162,-294.038C141.687,-278.606 157.539,-257.38 166.981,-244.738"/>
<polygon fill="#9a32cd" stroke="#9a32cd" points="127.137,-292.239 123.957,-302.346 132.745,-296.428 127.137,-292.239"/>
<text text-anchor="middle" x="160.5" y="-274.5" font-family="Helvetica,sans-Serif" font-size="10.00"> verts</text>
</g>
<!-- Node7 -->
<g id="node13" class="node"><title>Node7</title>
<a xlink:href="classObjectData.xhtml" target="_top" xlink:title="Die Daten eines Versuchsobjekts. ">
<polygon fill="none" stroke="black" points="275,-144.5 275,-165.5 341,-165.5 341,-144.5 275,-144.5"/>
<text text-anchor="middle" x="308" y="-152.5" font-family="Helvetica,sans-Serif" font-size="10.00">ObjectData</text>
</a>
</g>
<!-- Node7&#45;&gt;Node3 -->
<g id="edge14" class="edge"><title>Node7&#45;&gt;Node3</title>
<path fill="none" stroke="#9a32cd" stroke-dasharray="5,2" d="M301.591,-134.674C298.129,-126.609 293.077,-117.875 286,-112 275.351,-103.161 241.289,-94.3255 216.304,-88.7718"/>
<polygon fill="#9a32cd" stroke="#9a32cd" points="298.392,-136.115 305.16,-144.267 304.953,-133.674 298.392,-136.115"/>
<text text-anchor="middle" x="312" y="-116.5" font-family="Helvetica,sans-Serif" font-size="10.00"> object</text>
</g>
<!-- Node8 -->
<g id="node15" class="node"><title>Node8</title>
<a xlink:href="classstd_1_1vector.xhtml" target="_top" xlink:title="std::vector\&lt; ObjectData\l::MaterialData \&gt;">
<polygon fill="none" stroke="black" points="221,-217 221,-251 343,-251 343,-217 221,-217"/>
<text text-anchor="start" x="229" y="-238" font-family="Helvetica,sans-Serif" font-size="10.00">std::vector&lt; ObjectData</text>
<text text-anchor="middle" x="282" y="-225" font-family="Helvetica,sans-Serif" font-size="10.00">::MaterialData &gt;</text>
</a>
</g>
<!-- Node8&#45;&gt;Node7 -->
<g id="edge16" class="edge"><title>Node8&#45;&gt;Node7</title>
<path fill="none" stroke="#9a32cd" stroke-dasharray="5,2" d="M290.873,-207.038C295.561,-192.796 301.047,-176.127 304.522,-165.567"/>
<polygon fill="#9a32cd" stroke="#9a32cd" points="287.443,-206.265 287.642,-216.858 294.092,-208.454 287.443,-206.265"/>
<text text-anchor="middle" x="320.5" y="-188.5" font-family="Helvetica,sans-Serif" font-size="10.00"> materials</text>
</g>
<!-- Node9 -->
<g id="node17" class="node"><title>Node9</title>
<a xlink:href="structObjectData_1_1MaterialData.xhtml" target="_top" xlink:title="Die Daten eines Materials. ">
<polygon fill="none" stroke="black" points="218,-302.5 218,-323.5 346,-323.5 346,-302.5 218,-302.5"/>
<text text-anchor="middle" x="282" y="-310.5" font-family="Helvetica,sans-Serif" font-size="10.00">ObjectData::MaterialData</text>
</a>
</g>
<!-- Node9&#45;&gt;Node8 -->
<g id="edge18" class="edge"><title>Node9&#45;&gt;Node8</title>
<path fill="none" stroke="#9a32cd" stroke-dasharray="5,2" d="M282,-292.162C282,-279.363 282,-263.171 282,-251.124"/>
<polygon fill="#9a32cd" stroke="#9a32cd" points="278.5,-292.346 282,-302.346 285.5,-292.346 278.5,-292.346"/>
<text text-anchor="middle" x="301" y="-274.5" font-family="Helvetica,sans-Serif" font-size="10.00"> element</text>
</g>
<!-- Node10 -->
<g id="node19" class="node"><title>Node10</title>
<a xlink:href="classtetgenio.xhtml" target="_top" xlink:title="tetgenio">
<polygon fill="none" stroke="black" points="256.5,-386.5 256.5,-407.5 307.5,-407.5 307.5,-386.5 256.5,-386.5"/>
<text text-anchor="middle" x="282" y="-394.5" font-family="Helvetica,sans-Serif" font-size="10.00">tetgenio</text>
</a>
</g>
<!-- Node10&#45;&gt;Node9 -->
<g id="edge20" class="edge"><title>Node10&#45;&gt;Node9</title>
<path fill="none" stroke="#9a32cd" stroke-dasharray="5,2" d="M282,-375.945C282,-359.257 282,-336.639 282,-323.552"/>
<polygon fill="#9a32cd" stroke="#9a32cd" points="278.5,-376.361 282,-386.361 285.5,-376.361 278.5,-376.361"/>
<text text-anchor="middle" x="311" y="-359" font-family="Helvetica,sans-Serif" font-size="10.00"> tetgenoutput</text>
<text text-anchor="middle" x="311" y="-346" font-family="Helvetica,sans-Serif" font-size="10.00">tetgeninput</text>
</g>
<!-- Node11 -->
<g id="node21" class="node"><title>Node11</title>
<a xlink:href="structtetgenio_1_1vorofacet.xhtml" target="_top" xlink:title="tetgenio::vorofacet">
<polygon fill="none" stroke="black" points="61,-458.5 61,-479.5 159,-479.5 159,-458.5 61,-458.5"/>
<text text-anchor="middle" x="110" y="-466.5" font-family="Helvetica,sans-Serif" font-size="10.00">tetgenio::vorofacet</text>
</a>
</g>
<!-- Node11&#45;&gt;Node10 -->
<g id="edge22" class="edge"><title>Node11&#45;&gt;Node10</title>
<path fill="none" stroke="#9a32cd" stroke-dasharray="5,2" d="M138.934,-453.517C155.654,-444.87 177.232,-434.217 197,-426 216.581,-417.861 239.347,-410.185 256.387,-404.777"/>
<polygon fill="#9a32cd" stroke="#9a32cd" points="136.942,-450.609 129.7,-458.343 140.184,-456.812 136.942,-450.609"/>
<text text-anchor="middle" x="218.5" y="-430.5" font-family="Helvetica,sans-Serif" font-size="10.00"> vfacetlist</text>
</g>
<!-- Node12 -->
<g id="node23" class="node"><title>Node12</title>
<a xlink:href="structtetgenio_1_1facet.xhtml" target="_top" xlink:title="tetgenio::facet">
<polygon fill="none" stroke="black" points="176.5,-458.5 176.5,-479.5 255.5,-479.5 255.5,-458.5 176.5,-458.5"/>
<text text-anchor="middle" x="216" y="-466.5" font-family="Helvetica,sans-Serif" font-size="10.00">tetgenio::facet</text>
</a>
</g>
<!-- Node12&#45;&gt;Node10 -->
<g id="edge24" class="edge"><title>Node12&#45;&gt;Node10</title>
<path fill="none" stroke="#9a32cd" stroke-dasharray="5,2" d="M232.53,-450.968C245.031,-437.329 261.774,-419.064 272.222,-407.667"/>
<polygon fill="#9a32cd" stroke="#9a32cd" points="229.916,-448.64 225.739,-458.376 235.076,-453.37 229.916,-448.64"/>
<text text-anchor="middle" x="274" y="-430.5" font-family="Helvetica,sans-Serif" font-size="10.00"> facetlist</text>
</g>
<!-- Node13 -->
<g id="node25" class="node"><title>Node13</title>
<a xlink:href="structtetgenio_1_1polygon.xhtml" target="_top" xlink:title="tetgenio::polygon">
<polygon fill="none" stroke="black" points="170.5,-530.5 170.5,-551.5 261.5,-551.5 261.5,-530.5 170.5,-530.5"/>
<text text-anchor="middle" x="216" y="-538.5" font-family="Helvetica,sans-Serif" font-size="10.00">tetgenio::polygon</text>
</a>
</g>
<!-- Node13&#45;&gt;Node12 -->
<g id="edge26" class="edge"><title>Node13&#45;&gt;Node12</title>
<path fill="none" stroke="#9a32cd" stroke-dasharray="5,2" d="M216,-520.235C216,-506.969 216,-490.319 216,-479.667"/>
<polygon fill="#9a32cd" stroke="#9a32cd" points="212.5,-520.376 216,-530.376 219.5,-520.376 212.5,-520.376"/>
<text text-anchor="middle" x="241" y="-502.5" font-family="Helvetica,sans-Serif" font-size="10.00"> polygonlist</text>
</g>
<!-- Node14 -->
<g id="node27" class="node"><title>Node14</title>
<a xlink:href="structtetgenio_1_1pointparam.xhtml" target="_top" xlink:title="tetgenio::pointparam">
<polygon fill="none" stroke="black" points="272.5,-458.5 272.5,-479.5 377.5,-479.5 377.5,-458.5 272.5,-458.5"/>
<text text-anchor="middle" x="325" y="-466.5" font-family="Helvetica,sans-Serif" font-size="10.00">tetgenio::pointparam</text>
</a>
</g>
<!-- Node14&#45;&gt;Node10 -->
<g id="edge28" class="edge"><title>Node14&#45;&gt;Node10</title>
<path fill="none" stroke="#9a32cd" stroke-dasharray="5,2" d="M313.306,-449.419C305.276,-435.973 294.923,-418.638 288.371,-407.667"/>
<polygon fill="#9a32cd" stroke="#9a32cd" points="310.523,-451.585 318.655,-458.376 316.533,-447.996 310.523,-451.585"/>
<text text-anchor="middle" x="340" y="-430.5" font-family="Helvetica,sans-Serif" font-size="10.00"> pointparamlist</text>
</g>
<!-- Node15 -->
<g id="node29" class="node"><title>Node15</title>
<a xlink:href="structtetgenio_1_1voroedge.xhtml" target="_top" xlink:title="tetgenio::voroedge">
<polygon fill="none" stroke="black" points="394.5,-458.5 394.5,-479.5 491.5,-479.5 491.5,-458.5 394.5,-458.5"/>
<text text-anchor="middle" x="443" y="-466.5" font-family="Helvetica,sans-Serif" font-size="10.00">tetgenio::voroedge</text>
</a>
</g>
<!-- Node15&#45;&gt;Node10 -->
<g id="edge30" class="edge"><title>Node15&#45;&gt;Node10</title>
<path fill="none" stroke="#9a32cd" stroke-dasharray="5,2" d="M420.548,-452.405C407.938,-443.656 391.634,-433.263 376,-426 353.851,-415.71 327.116,-407.867 307.83,-402.948"/>
<polygon fill="#9a32cd" stroke="#9a32cd" points="418.835,-455.481 429.015,-458.417 422.888,-449.774 418.835,-455.481"/>
<text text-anchor="middle" x="422.5" y="-430.5" font-family="Helvetica,sans-Serif" font-size="10.00"> vedgelist</text>
</g>
<!-- Node16 -->
<g id="node31" class="node"><title>Node16</title>
<a xlink:href="classstd_1_1vector.xhtml" target="_top" xlink:title="std::vector\&lt; SensorData \&gt;">
<polygon fill="none" stroke="black" points="360.5,-223.5 360.5,-244.5 493.5,-244.5 493.5,-223.5 360.5,-223.5"/>
<text text-anchor="middle" x="427" y="-231.5" font-family="Helvetica,sans-Serif" font-size="10.00">std::vector&lt; SensorData &gt;</text>
</a>
</g>
<!-- Node16&#45;&gt;Node7 -->
<g id="edge32" class="edge"><title>Node16&#45;&gt;Node7</title>
<path fill="none" stroke="#9a32cd" stroke-dasharray="5,2" d="M402.572,-217.783C379.123,-202.216 344.374,-179.148 324.175,-165.738"/>
<polygon fill="#9a32cd" stroke="#9a32cd" points="400.684,-220.731 410.951,-223.346 404.556,-214.899 400.684,-220.731"/>
<text text-anchor="middle" x="407" y="-188.5" font-family="Helvetica,sans-Serif" font-size="10.00"> sensorDataList</text>
</g>
<!-- Node17&#45;&gt;Node3 -->
<g id="edge34" class="edge"><title>Node17&#45;&gt;Node3</title>
<path fill="none" stroke="#9a32cd" stroke-dasharray="5,2" d="M190.287,-134.538C189.77,-131.684 189.317,-128.778 189,-126 187.747,-115.02 187.608,-102.364 187.715,-93.6392"/>
<polygon fill="#9a32cd" stroke="#9a32cd" points="186.86,-135.248 192.311,-144.332 193.715,-133.831 186.86,-135.248"/>
<text text-anchor="middle" x="237.5" y="-116.5" font-family="Helvetica,sans-Serif" font-size="10.00"> cut_visualisation_info</text>
</g>
</g>
</svg>
        <g id="navigator" transform="translate(0 0)" fill="#404254">
                <rect fill="#f2f5e9" fill-opacity="0.5" stroke="#606060" stroke-width=".5" x="0" y="0" width="60" height="60"/>
                <use id="zoomplus" xlink:href="#zoomPlus" x="17" y="9" onmousedown="handleZoom(evt,'in')"/>
                <use id="zoomminus" xlink:href="#zoomMin" x="42" y="9" onmousedown="handleZoom(evt,'out')"/>
                <use id="reset" xlink:href="#resetDef" x="30" y="36" onmousedown="handleReset()"/>
                <g id="arrowUp" xlink:href="#dirArrow" transform="translate(30 24)" onmousedown="handlePan(0,-1)">
                  <use xlink:href="#rim" fill="#404040">
                        <set attributeName="fill" to="#808080" begin="arrowUp.mouseover" end="arrowUp.mouseout"/>
                  </use>
                  <path fill="none" stroke="white" stroke-width="1.5" d="M0,-3.0v7 M-2.5,-0.5L0,-3.0L2.5,-0.5"/>
                </g>
                <g id="arrowRight" xlink:href="#dirArrow" transform="rotate(90) translate(36 -43)" onmousedown="handlePan(1,0)">
                  <use xlink:href="#rim" fill="#404040">
                        <set attributeName="fill" to="#808080" begin="arrowRight.mouseover" end="arrowRight.mouseout"/>
                  </use>
                  <path fill="none" stroke="white" stroke-width="1.5" d="M0,-3.0v7 M-2.5,-0.5L0,-3.0L2.5,-0.5"/>
                </g>
                <g id="arrowDown" xlink:href="#dirArrow" transform="rotate(180) translate(-30 -48)" onmousedown="handlePan(0,1)">
                  <use xlink:href="#rim" fill="#404040">
                        <set attributeName="fill" to="#808080" begin="arrowDown.mouseover" end="arrowDown.mouseout"/>
                  </use>
                  <path fill="none" stroke="white" stroke-width="1.5" d="M0,-3.0v7 M-2.5,-0.5L0,-3.0L2.5,-0.5"/>
                </g>
                <g id="arrowLeft" xlink:href="#dirArrow" transform="rotate(270) translate(-36 17)" onmousedown="handlePan(-1,0)">
                  <use xlink:href="#rim" fill="#404040">
                        <set attributeName="fill" to="#808080" begin="arrowLeft.mouseover" end="arrowLeft.mouseout"/>
                  </use>
                  <path fill="none" stroke="white" stroke-width="1.5" d="M0,-3.0v7 M-2.5,-0.5L0,-3.0L2.5,-0.5"/>
                </g>
        </g>
        <svg viewBox="0 0 15 15" width="100%" height="30px" preserveAspectRatio="xMaxYMin meet">
         <g id="arrow_out" transform="scale(0.3 0.3)">
          <a xlink:href="classGUIGLCanvas__coll__graph_org.svg" target="_base">
           <rect id="button" ry="5" rx="5" y="6" x="6" height="38" width="38"
                fill="#f2f5e9" fill-opacity="0.5" stroke="#606060" stroke-width="1.0"/>
           <path id="arrow"
             d="M 11.500037,31.436501 C 11.940474,20.09759 22.043105,11.32322 32.158766,21.979434 L 37.068811,17.246167 C 37.068811,17.246167 37.088388,32 37.088388,32 L 22.160133,31.978069 C 22.160133,31.978069 26.997745,27.140456 26.997745,27.140456 C 18.528582,18.264221 13.291696,25.230495 11.500037,31.436501 z"
             style="fill:#404040;"/>
          </a>
         </g>
        </svg>
</svg>
