<?xml version="1.0" encoding="UTF-8" standalone="no"?>
<!DOCTYPE svg PUBLIC "-//W3C//DTD SVG 1.1//EN"
 "http://www.w3.org/Graphics/SVG/1.1/DTD/svg11.dtd">
<!-- Generated by graphviz version 2.26.3 (20100126.1600)
 -->
<!-- Title: GUIRenderCutCanvas::onCanvasPaint Pages: 1 -->
<svg width="268pt" height="82pt"
 viewBox="0.00 0.00 268.00 82.00" xmlns="http://www.w3.org/2000/svg" xmlns:xlink="http://www.w3.org/1999/xlink">
<g id="graph1" class="graph" transform="scale(1 1) rotate(0) translate(4 78)">
<title>GUIRenderCutCanvas::onCanvasPaint</title>
<!-- Node1 -->
<g id="node1" class="node"><title>Node1</title>
<polygon fill="#bfbfbf" stroke="black" points="0,-17 0,-51 116,-51 116,-17 0,-17"/>
<text text-anchor="start" x="8" y="-38" font-family="Helvetica,sans-Serif" font-size="10.00">GUIRenderCutCanvas</text>
<text text-anchor="middle" x="58" y="-25" font-family="Helvetica,sans-Serif" font-size="10.00">::onCanvasPaint</text>
</g>
<!-- Node2 -->
<g id="node3" class="node"><title>Node2</title>
<a xlink:href="classGUIColorScalePanel.xhtml#aaf6408cc09932a82afc7b2c233ec64c8" target="_top" xlink:title="Zeichnet die Temperaturskala mit einem bestimmten device context. ">
<polygon fill="none" stroke="black" points="152.5,-40 152.5,-74 259.5,-74 259.5,-40 152.5,-40"/>
<text text-anchor="start" x="160.5" y="-61" font-family="Helvetica,sans-Serif" font-size="10.00">GUIColorScalePanel</text>
<text text-anchor="middle" x="206" y="-48" font-family="Helvetica,sans-Serif" font-size="10.00">::paintTo</text>
</a>
</g>
<!-- Node1&#45;&gt;Node2 -->
<g id="edge2" class="edge"><title>Node1&#45;&gt;Node2</title>
<path fill="none" stroke="midnightblue" d="M116.069,-43.0242C124.683,-44.3629 133.6,-45.7487 142.322,-47.1041"/>
<polygon fill="midnightblue" stroke="midnightblue" points="142.022,-50.5994 152.441,-48.6767 143.097,-43.6825 142.022,-50.5994"/>
</g>
<!-- Node3 -->
<g id="node5" class="node"><title>Node3</title>
<a xlink:href="namespaceUtils.xhtml#a233ff9a0b34b10195a434f1ff66323b8" target="_top" xlink:title="Wandelt eine Fließkommazahl in einen wxWidgets&#45;String um. ">
<polygon fill="none" stroke="black" points="159,-0.5 159,-21.5 253,-21.5 253,-0.5 159,-0.5"/>
<text text-anchor="middle" x="206" y="-8.5" font-family="Helvetica,sans-Serif" font-size="10.00">Utils::floattowxstr</text>
</a>
</g>
<!-- Node1&#45;&gt;Node3 -->
<g id="edge4" class="edge"><title>Node1&#45;&gt;Node3</title>
<path fill="none" stroke="midnightblue" d="M116.069,-24.9758C126.747,-23.3163 137.89,-21.5847 148.55,-19.928"/>
<polygon fill="midnightblue" stroke="midnightblue" points="149.248,-23.3617 158.591,-18.3675 148.173,-16.4448 149.248,-23.3617"/>
</g>
</g>
</svg>
