<?xml version="1.0" encoding="UTF-8" standalone="no"?>
<!DOCTYPE svg PUBLIC "-//W3C//DTD SVG 1.1//EN"
 "http://www.w3.org/Graphics/SVG/1.1/DTD/svg11.dtd">
<!-- Generated by graphviz version 2.26.3 (20100126.1600)
 -->
<!-- Title: GUIMainWindow::assignCurrentObjectProps Pages: 1 -->
<svg width="352pt" height="202pt"
 viewBox="0.00 0.00 352.00 202.00" xmlns="http://www.w3.org/2000/svg" xmlns:xlink="http://www.w3.org/1999/xlink">
<g id="graph1" class="graph" transform="scale(1 1) rotate(0) translate(4 198)">
<title>GUIMainWindow::assignCurrentObjectProps</title>
<!-- Node1 -->
<g id="node1" class="node"><title>Node1</title>
<polygon fill="#bfbfbf" stroke="black" points="0,-86 0,-120 158,-120 158,-86 0,-86"/>
<text text-anchor="start" x="8" y="-107" font-family="Helvetica,sans-Serif" font-size="10.00">GUIMainWindow::assignCurrent</text>
<text text-anchor="middle" x="79" y="-94" font-family="Helvetica,sans-Serif" font-size="10.00">ObjectProps</text>
</g>
<!-- Node2 -->
<g id="node3" class="node"><title>Node2</title>
<a xlink:href="classObjectData.xhtml#a9ae22360c1033fd4d019466d3361701d" target="_top" xlink:title="ObjectData::setName">
<polygon fill="none" stroke="black" points="213,-172.5 213,-193.5 325,-193.5 325,-172.5 213,-172.5"/>
<text text-anchor="middle" x="269" y="-180.5" font-family="Helvetica,sans-Serif" font-size="10.00">ObjectData::setName</text>
</a>
</g>
<!-- Node1&#45;&gt;Node2 -->
<g id="edge2" class="edge"><title>Node1&#45;&gt;Node2</title>
<path fill="none" stroke="midnightblue" d="M107.477,-120.116C130.261,-133.248 163.356,-151.088 194,-163 200.017,-165.339 206.409,-167.503 212.824,-169.475"/>
<polygon fill="midnightblue" stroke="midnightblue" points="212.293,-172.967 222.874,-172.415 214.259,-166.248 212.293,-172.967"/>
</g>
<!-- Node3 -->
<g id="node5" class="node"><title>Node3</title>
<a xlink:href="classObjectData.xhtml#a9f98769226284127c529724acaf5d4c6" target="_top" xlink:title="ObjectData::setMaxvolume">
<polygon fill="none" stroke="black" points="201,-132.5 201,-153.5 337,-153.5 337,-132.5 201,-132.5"/>
<text text-anchor="middle" x="269" y="-140.5" font-family="Helvetica,sans-Serif" font-size="10.00">ObjectData::setMaxvolume</text>
</a>
</g>
<!-- Node1&#45;&gt;Node3 -->
<g id="edge4" class="edge"><title>Node1&#45;&gt;Node3</title>
<path fill="none" stroke="midnightblue" d="M158.201,-119.674C175.235,-123.26 192.965,-126.993 209.119,-130.393"/>
<polygon fill="midnightblue" stroke="midnightblue" points="208.446,-133.828 218.953,-132.464 209.888,-126.979 208.446,-133.828"/>
</g>
<!-- Node4 -->
<g id="node7" class="node"><title>Node4</title>
<a xlink:href="classObjectData.xhtml#a330b3d3fa607221fae87e26f60baa0e7" target="_top" xlink:title="ObjectData::setQuality">
<polygon fill="none" stroke="black" points="211,-92.5 211,-113.5 327,-113.5 327,-92.5 211,-92.5"/>
<text text-anchor="middle" x="269" y="-100.5" font-family="Helvetica,sans-Serif" font-size="10.00">ObjectData::setQuality</text>
</a>
</g>
<!-- Node1&#45;&gt;Node4 -->
<g id="edge6" class="edge"><title>Node1&#45;&gt;Node4</title>
<path fill="none" stroke="midnightblue" d="M158.201,-103C172.239,-103 186.75,-103 200.461,-103"/>
<polygon fill="midnightblue" stroke="midnightblue" points="200.77,-106.5 210.77,-103 200.77,-99.5001 200.77,-106.5"/>
</g>
<!-- Node5 -->
<g id="node9" class="node"><title>Node5</title>
<a xlink:href="classObjectData.xhtml#a65bc706c460a62f98e6c24959df04c76" target="_top" xlink:title="ObjectData::setCurrentSensor\lIndex">
<polygon fill="none" stroke="black" points="194.5,-40 194.5,-74 343.5,-74 343.5,-40 194.5,-40"/>
<text text-anchor="start" x="202.5" y="-61" font-family="Helvetica,sans-Serif" font-size="10.00">ObjectData::setCurrentSensor</text>
<text text-anchor="middle" x="269" y="-48" font-family="Helvetica,sans-Serif" font-size="10.00">Index</text>
</a>
</g>
<!-- Node1&#45;&gt;Node5 -->
<g id="edge8" class="edge"><title>Node1&#45;&gt;Node5</title>
<path fill="none" stroke="midnightblue" d="M149.479,-85.9367C162.271,-82.8397 175.7,-79.5885 188.748,-76.4295"/>
<polygon fill="midnightblue" stroke="midnightblue" points="189.739,-79.7906 198.635,-74.0358 188.092,-72.9872 189.739,-79.7906"/>
</g>
<!-- Node6 -->
<g id="node11" class="node"><title>Node6</title>
<a xlink:href="classObjectData.xhtml#afda67d7524b83780e431dd3a9c5ac23a" target="_top" xlink:title="ObjectData::getMaterials">
<polygon fill="none" stroke="black" points="206.5,-0.5 206.5,-21.5 331.5,-21.5 331.5,-0.5 206.5,-0.5"/>
<text text-anchor="middle" x="269" y="-8.5" font-family="Helvetica,sans-Serif" font-size="10.00">ObjectData::getMaterials</text>
</a>
</g>
<!-- Node1&#45;&gt;Node6 -->
<g id="edge10" class="edge"><title>Node1&#45;&gt;Node6</title>
<path fill="none" stroke="midnightblue" d="M101.649,-85.9465C124.061,-69.7843 159.867,-45.835 194,-31 199.384,-28.66 205.107,-26.5373 210.899,-24.6257"/>
<polygon fill="midnightblue" stroke="midnightblue" points="212.142,-27.9048 220.661,-21.6066 210.074,-21.2173 212.142,-27.9048"/>
</g>
</g>
</svg>
