<?xml version="1.0" encoding="UTF-8" standalone="no"?>
<!DOCTYPE svg PUBLIC "-//W3C//DTD SVG 1.1//EN"
 "http://www.w3.org/Graphics/SVG/1.1/DTD/svg11.dtd">
<!-- Generated by graphviz version 2.26.3 (20100126.1600)
 -->
<!-- Title: tetgenmesh::triangulate Pages: 1 -->
<svg width="750pt" height="134pt"
 viewBox="0.00 0.00 750.00 134.00" xmlns="http://www.w3.org/2000/svg" xmlns:xlink="http://www.w3.org/1999/xlink">
<g id="graph1" class="graph" transform="scale(1 1) rotate(0) translate(4 130)">
<title>tetgenmesh::triangulate</title>
<!-- Node1 -->
<g id="node1" class="node"><title>Node1</title>
<polygon fill="#bfbfbf" stroke="black" points="0.5,-46.5 0.5,-67.5 119.5,-67.5 119.5,-46.5 0.5,-46.5"/>
<text text-anchor="middle" x="60" y="-54.5" font-family="Helvetica,sans-Serif" font-size="10.00">tetgenmesh::triangulate</text>
</g>
<!-- Node2 -->
<g id="node3" class="node"><title>Node2</title>
<a xlink:href="classtetgenmesh.xhtml#a0c51cd3511d2b0ef9d0d45fe8b546b2e" target="_top" xlink:title="tetgenmesh::meshsurface">
<polygon fill="none" stroke="black" points="156,-46.5 156,-67.5 286,-67.5 286,-46.5 156,-46.5"/>
<text text-anchor="middle" x="221" y="-54.5" font-family="Helvetica,sans-Serif" font-size="10.00">tetgenmesh::meshsurface</text>
</a>
</g>
<!-- Node1&#45;&gt;Node2 -->
<g id="edge2" class="edge"><title>Node1&#45;&gt;Node2</title>
<path fill="none" stroke="midnightblue" d="M129.956,-57C138.563,-57 147.335,-57 155.867,-57"/>
<polygon fill="midnightblue" stroke="midnightblue" points="129.95,-53.5001 119.95,-57 129.95,-60.5001 129.95,-53.5001"/>
</g>
<!-- Node3 -->
<g id="node5" class="node"><title>Node3</title>
<a xlink:href="tetgen_8h.xhtml#ad3637eb4ffe7fda90667e67b7771d964" target="_top" xlink:title="tetrahedralize">
<polygon fill="none" stroke="black" points="322.5,-46.5 322.5,-67.5 397.5,-67.5 397.5,-46.5 322.5,-46.5"/>
<text text-anchor="middle" x="360" y="-54.5" font-family="Helvetica,sans-Serif" font-size="10.00">tetrahedralize</text>
</a>
</g>
<!-- Node2&#45;&gt;Node3 -->
<g id="edge4" class="edge"><title>Node2&#45;&gt;Node3</title>
<path fill="none" stroke="midnightblue" d="M296.235,-57C305.259,-57 314.154,-57 322.304,-57"/>
<polygon fill="midnightblue" stroke="midnightblue" points="296.023,-53.5001 286.023,-57 296.023,-60.5001 296.023,-53.5001"/>
</g>
<!-- Node4 -->
<g id="node7" class="node"><title>Node4</title>
<a xlink:href="classGUICutRenderWindow.xhtml#a9eedb7088ad31f4680a77ed3a06fa60c" target="_top" xlink:title="Berechnet die 2D&#45;Temperaturverteilung als Grafik. ">
<polygon fill="none" stroke="black" points="436.5,-89 436.5,-123 553.5,-123 553.5,-89 436.5,-89"/>
<text text-anchor="start" x="444.5" y="-110" font-family="Helvetica,sans-Serif" font-size="10.00">GUICutRenderWindow</text>
<text text-anchor="middle" x="495" y="-97" font-family="Helvetica,sans-Serif" font-size="10.00">::renderImage</text>
</a>
</g>
<!-- Node3&#45;&gt;Node4 -->
<g id="edge6" class="edge"><title>Node3&#45;&gt;Node4</title>
<path fill="none" stroke="midnightblue" d="M398.675,-71.0375C414.063,-76.6228 431.912,-83.1014 448.034,-88.953"/>
<polygon fill="midnightblue" stroke="midnightblue" points="399.555,-67.6336 388.961,-67.5117 397.167,-74.2136 399.555,-67.6336"/>
</g>
<!-- Node6 -->
<g id="node11" class="node"><title>Node6</title>
<a xlink:href="classObjectData.xhtml#af3a850833d08eb9b45357449f455e24d" target="_top" xlink:title="Zerlegt das Objekt in Tetraeder (Schnittstelle zur Tetgen&#45;Bibliothek) und Berechnet die Temperaturver...">
<polygon fill="none" stroke="black" points="434,-46.5 434,-67.5 556,-67.5 556,-46.5 434,-46.5"/>
<text text-anchor="middle" x="495" y="-54.5" font-family="Helvetica,sans-Serif" font-size="10.00">ObjectData::calculateIO</text>
</a>
</g>
<!-- Node3&#45;&gt;Node6 -->
<g id="edge10" class="edge"><title>Node3&#45;&gt;Node6</title>
<path fill="none" stroke="midnightblue" d="M407.654,-57C416.112,-57 425.025,-57 433.795,-57"/>
<polygon fill="midnightblue" stroke="midnightblue" points="407.605,-53.5001 397.605,-57 407.605,-60.5001 407.605,-53.5001"/>
</g>
<!-- Node9 -->
<g id="node17" class="node"><title>Node9</title>
<a xlink:href="tetgen_8cxx.xhtml#a0ddf1224851353fc92bfbff6f499fa97" target="_top" xlink:title="main">
<polygon fill="none" stroke="black" points="476,-6.5 476,-27.5 514,-27.5 514,-6.5 476,-6.5"/>
<text text-anchor="middle" x="495" y="-14.5" font-family="Helvetica,sans-Serif" font-size="10.00">main</text>
</a>
</g>
<!-- Node3&#45;&gt;Node9 -->
<g id="edge16" class="edge"><title>Node3&#45;&gt;Node9</title>
<path fill="none" stroke="midnightblue" d="M405.154,-43.6209C429.267,-36.4764 457.668,-28.0613 475.984,-22.6343"/>
<polygon fill="midnightblue" stroke="midnightblue" points="404.063,-40.2937 395.47,-46.4905 406.052,-47.0053 404.063,-40.2937"/>
</g>
<!-- Node5 -->
<g id="node9" class="node"><title>Node5</title>
<a xlink:href="classGUICutRenderWindow.xhtml#a7cd1bfbec53756a1cbbe1616b4d46c7a" target="_top" xlink:title="Behandelt das Drücken des Buttons zur Berechnung der zweidimensionalen Temperaturverteilung. ">
<polygon fill="none" stroke="black" points="608.5,-92 608.5,-126 725.5,-126 725.5,-92 608.5,-92"/>
<text text-anchor="start" x="616.5" y="-113" font-family="Helvetica,sans-Serif" font-size="10.00">GUICutRenderWindow</text>
<text text-anchor="middle" x="667" y="-100" font-family="Helvetica,sans-Serif" font-size="10.00">::renderCutBtClick</text>
</a>
</g>
<!-- Node4&#45;&gt;Node5 -->
<g id="edge8" class="edge"><title>Node4&#45;&gt;Node5</title>
<path fill="none" stroke="midnightblue" d="M563.777,-107.2C578.511,-107.457 593.948,-107.726 608.261,-107.975"/>
<polygon fill="midnightblue" stroke="midnightblue" points="563.771,-103.699 553.712,-107.024 563.649,-110.698 563.771,-103.699"/>
</g>
<!-- Node7 -->
<g id="node13" class="node"><title>Node7</title>
<a xlink:href="classGUIMainWindow.xhtml#a0c2de30274c7f52ff74ec1217e47a9e5" target="_top" xlink:title="Berechnet die 3D&#45;Temperaturverteilung neu. ">
<polygon fill="none" stroke="black" points="592,-40 592,-74 742,-74 742,-40 592,-40"/>
<text text-anchor="start" x="600" y="-61" font-family="Helvetica,sans-Serif" font-size="10.00">GUIMainWindow::OnRecalcBt</text>
<text text-anchor="middle" x="667" y="-48" font-family="Helvetica,sans-Serif" font-size="10.00">Click</text>
</a>
</g>
<!-- Node6&#45;&gt;Node7 -->
<g id="edge12" class="edge"><title>Node6&#45;&gt;Node7</title>
<path fill="none" stroke="midnightblue" d="M566.316,-57C574.768,-57 583.415,-57 591.918,-57"/>
<polygon fill="midnightblue" stroke="midnightblue" points="566.125,-53.5001 556.125,-57 566.125,-60.5001 566.125,-53.5001"/>
</g>
<!-- Node8 -->
<g id="node15" class="node"><title>Node8</title>
<a xlink:href="classGUITimeline.xhtml#a099f3654aa6e7ea04df861851a0e9ec8" target="_top" xlink:title="Sucht den Zeitpunkt zwischen zwei markierten Stellen auf der Sensordaten&#45;Zeitleiste, für den der Wäremeenergiegehalt maximal wird. ">
<polygon fill="none" stroke="black" points="598.5,-0.5 598.5,-21.5 735.5,-21.5 735.5,-0.5 598.5,-0.5"/>
<text text-anchor="middle" x="667" y="-8.5" font-family="Helvetica,sans-Serif" font-size="10.00">GUITimeline::findMaxValue</text>
</a>
</g>
<!-- Node6&#45;&gt;Node8 -->
<g id="edge14" class="edge"><title>Node6&#45;&gt;Node8</title>
<path fill="none" stroke="midnightblue" d="M543.997,-43.8537C559.363,-39.7343 576.387,-35.1741 592,-31 603.456,-27.9371 615.899,-24.6167 627.296,-21.5777"/>
<polygon fill="midnightblue" stroke="midnightblue" points="542.923,-40.5181 534.17,-46.4885 544.735,-47.2793 542.923,-40.5181"/>
</g>
</g>
</svg>
