<?xml version="1.0" encoding="UTF-8" standalone="no"?>
<!DOCTYPE svg PUBLIC "-//W3C//DTD SVG 1.1//EN"
 "http://www.w3.org/Graphics/SVG/1.1/DTD/svg11.dtd">
<!-- Generated by graphviz version 2.36.0 (20140111.2315)
 -->
<!-- Title: Triangle::getV2 Pages: 1 -->
<svg width="1080pt" height="245pt"
 viewBox="0.00 0.00 1080.00 245.00" xmlns="http://www.w3.org/2000/svg" xmlns:xlink="http://www.w3.org/1999/xlink">
<g id="graph0" class="graph" transform="scale(1 1) rotate(0) translate(4 241)">
<title>Triangle::getV2</title>
<!-- Node1 -->
<g id="node1" class="node"><title>Node1</title>
<polygon fill="#bfbfbf" stroke="black" points="0.5,-122.5 0.5,-141.5 83.5,-141.5 83.5,-122.5 0.5,-122.5"/>
<text text-anchor="middle" x="42" y="-129.5" font-family="Helvetica,sans-Serif" font-size="10.00">Triangle::getV2</text>
</g>
<!-- Node2 -->
<g id="node2" class="node"><title>Node2</title>
<g id="a_node2"><a xlink:href="simpleanalyzer-gui_2src_2GUI_2Renderer_8cpp.xhtml#a608a02845726b8844beac12e5154c500" target="_top" xlink:title="Visualisiert Informationen über eine 2D&#45;Temperaturverteilung. ">
<polygon fill="none" stroke="black" points="136.5,-217.5 136.5,-236.5 237.5,-236.5 237.5,-217.5 136.5,-217.5"/>
<text text-anchor="middle" x="187" y="-224.5" font-family="Helvetica,sans-Serif" font-size="10.00">drawCutRenderInfo</text>
</a>
</g>
</g>
<!-- Node1&#45;&gt;Node2 -->
<g id="edge1" class="edge"><title>Node1&#45;&gt;Node2</title>
<path fill="none" stroke="midnightblue" d="M57.7858,-149.077C72.272,-164.908 95.6632,-188.185 120,-203 129.79,-208.959 141.289,-213.778 151.922,-217.491"/>
<polygon fill="midnightblue" stroke="midnightblue" points="60.3396,-146.682 51.0644,-141.561 55.1219,-151.348 60.3396,-146.682"/>
</g>
<!-- Node4 -->
<g id="node4" class="node"><title>Node4</title>
<g id="a_node4"><a xlink:href="namespaceUtils.xhtml#a5f216cc7011a901130db81321b565334" target="_top" xlink:title="Testet, ob ein Strahl ein Dreieck schneidet. ">
<polygon fill="none" stroke="black" points="120,-141.5 120,-160.5 254,-160.5 254,-141.5 120,-141.5"/>
<text text-anchor="middle" x="187" y="-148.5" font-family="Helvetica,sans-Serif" font-size="10.00">Utils::rayIntersectsTriangle</text>
</a>
</g>
</g>
<!-- Node1&#45;&gt;Node4 -->
<g id="edge3" class="edge"><title>Node1&#45;&gt;Node4</title>
<path fill="none" stroke="midnightblue" d="M93.6898,-138.735C102.169,-139.862 111.075,-141.045 119.873,-142.214"/>
<polygon fill="midnightblue" stroke="midnightblue" points="93.9695,-135.241 83.5956,-137.394 93.0474,-142.181 93.9695,-135.241"/>
</g>
<!-- Node7 -->
<g id="node7" class="node"><title>Node7</title>
<g id="a_node7"><a xlink:href="classGUICutRenderWindow.xhtml#a9eedb7088ad31f4680a77ed3a06fa60c" target="_top" xlink:title="Berechnet die 2D&#45;Temperaturverteilung als Grafik. ">
<polygon fill="none" stroke="black" points="603.5,-155 603.5,-185 720.5,-185 720.5,-155 603.5,-155"/>
<text text-anchor="start" x="611.5" y="-173" font-family="Helvetica,sans-Serif" font-size="10.00">GUICutRenderWindow</text>
<text text-anchor="middle" x="662" y="-162" font-family="Helvetica,sans-Serif" font-size="10.00">::renderImage</text>
</a>
</g>
</g>
<!-- Node1&#45;&gt;Node7 -->
<g id="edge10" class="edge"><title>Node1&#45;&gt;Node7</title>
<path fill="none" stroke="midnightblue" d="M66.1843,-146.949C80.9428,-155.555 100.827,-165.527 120,-170 291.958,-210.121 503.118,-191.314 603.163,-178.492"/>
<polygon fill="midnightblue" stroke="midnightblue" points="67.6523,-143.746 57.2851,-141.562 64.0275,-149.735 67.6523,-143.746"/>
</g>
<!-- Node9 -->
<g id="node9" class="node"><title>Node9</title>
<g id="a_node9"><a xlink:href="classExporter.xhtml#ae2aa06b8c8c77e172801a1f77800ffd0" target="_top" xlink:title="Exportiert die zweidimensionale Temperaturverteilung (Schnitt durch das Modell) als csv&#45;Datei...">
<polygon fill="none" stroke="black" points="124.5,-103.5 124.5,-122.5 249.5,-122.5 249.5,-103.5 124.5,-103.5"/>
<text text-anchor="middle" x="187" y="-110.5" font-family="Helvetica,sans-Serif" font-size="10.00">Exporter::ExportCutCSV</text>
</a>
</g>
</g>
<!-- Node1&#45;&gt;Node9 -->
<g id="edge8" class="edge"><title>Node1&#45;&gt;Node9</title>
<path fill="none" stroke="midnightblue" d="M93.7164,-125.261C103.667,-123.939 114.207,-122.539 124.467,-121.176"/>
<polygon fill="midnightblue" stroke="midnightblue" points="93.0474,-121.819 83.5956,-126.606 93.9695,-128.759 93.0474,-121.819"/>
</g>
<!-- Node11 -->
<g id="node11" class="node"><title>Node11</title>
<g id="a_node11"><a xlink:href="classInterpolator.xhtml#ad59ac6ed3822e08a67ac7d1ee88a5bd2" target="_top" xlink:title="Ermittelt den Wert für einen beliebigen Punkt in einer Ebene. ">
<polygon fill="none" stroke="black" points="123,-65.5 123,-84.5 251,-84.5 251,-65.5 123,-65.5"/>
<text text-anchor="middle" x="187" y="-72.5" font-family="Helvetica,sans-Serif" font-size="10.00">Interpolator::interpolateTri</text>
</a>
</g>
</g>
<!-- Node1&#45;&gt;Node11 -->
<g id="edge11" class="edge"><title>Node1&#45;&gt;Node11</title>
<path fill="none" stroke="midnightblue" d="M69.0238,-117.71C83.7046,-110.02 102.552,-100.755 120,-94 129.118,-90.4701 139.166,-87.2521 148.614,-84.5084"/>
<polygon fill="midnightblue" stroke="midnightblue" points="67.2178,-114.707 60.0346,-122.495 70.5066,-120.886 67.2178,-114.707"/>
</g>
<!-- Node12 -->
<g id="node12" class="node"><title>Node12</title>
<g id="a_node12"><a xlink:href="classInterpolator.xhtml#a30e714ca6dff9b5745d029f95af1420a" target="_top" xlink:title="Ermittelt den Wert für einen beliebigen Punkt im Raum. ">
<polygon fill="none" stroke="black" points="121.5,-27.5 121.5,-46.5 252.5,-46.5 252.5,-27.5 121.5,-27.5"/>
<text text-anchor="middle" x="187" y="-34.5" font-family="Helvetica,sans-Serif" font-size="10.00">Interpolator::interpolateTet</text>
</a>
</g>
</g>
<!-- Node1&#45;&gt;Node12 -->
<g id="edge12" class="edge"><title>Node1&#45;&gt;Node12</title>
<path fill="none" stroke="midnightblue" d="M56.6218,-114.112C70.6934,-96.8288 94.1868,-71.1099 120,-56 126.586,-52.145 134.004,-49.0299 141.426,-46.5259"/>
<polygon fill="midnightblue" stroke="midnightblue" points="53.6194,-112.266 50.1597,-122.28 59.1091,-116.609 53.6194,-112.266"/>
</g>
<!-- Node3 -->
<g id="node3" class="node"><title>Node3</title>
<g id="a_node3"><a xlink:href="classRenderer.xhtml#af7e5f8f68742f198e315fb4683a605a4" target="_top" xlink:title="Zeichnet das Objekt (Attribut object). ">
<polygon fill="none" stroke="black" points="304.5,-217.5 304.5,-236.5 393.5,-236.5 393.5,-217.5 304.5,-217.5"/>
<text text-anchor="middle" x="349" y="-224.5" font-family="Helvetica,sans-Serif" font-size="10.00">Renderer::render</text>
</a>
</g>
</g>
<!-- Node2&#45;&gt;Node3 -->
<g id="edge2" class="edge"><title>Node2&#45;&gt;Node3</title>
<path fill="none" stroke="midnightblue" d="M247.941,-227C266.629,-227 286.878,-227 304.24,-227"/>
<polygon fill="midnightblue" stroke="midnightblue" points="247.748,-223.5 237.748,-227 247.748,-230.5 247.748,-223.5"/>
</g>
<!-- Node5 -->
<g id="node5" class="node"><title>Node5</title>
<g id="a_node5"><a xlink:href="namespaceUtils.xhtml#af8fc5d6dab27f759ab5d76757a53023f" target="_top" xlink:title="Testet, ob sich ein Punkt innerhalb eines Körpers befindet. ">
<polygon fill="none" stroke="black" points="292,-141.5 292,-160.5 406,-160.5 406,-141.5 292,-141.5"/>
<text text-anchor="middle" x="349" y="-148.5" font-family="Helvetica,sans-Serif" font-size="10.00">Utils::pointInsideMesh</text>
</a>
</g>
</g>
<!-- Node4&#45;&gt;Node5 -->
<g id="edge4" class="edge"><title>Node4&#45;&gt;Node5</title>
<path fill="none" stroke="midnightblue" d="M264.093,-151C273.442,-151 282.861,-151 291.84,-151"/>
<polygon fill="midnightblue" stroke="midnightblue" points="264.002,-147.5 254.002,-151 264.002,-154.5 264.002,-147.5"/>
</g>
<!-- Node6 -->
<g id="node6" class="node"><title>Node6</title>
<g id="a_node6"><a xlink:href="GUICutRenderWindow_8cpp.xhtml#aeaaae4c8452680389d221d0e60a6fc33" target="_top" xlink:title="Funktion zum verteilten berechnen der 2D&#45;Temperaturverteilung. ">
<polygon fill="none" stroke="black" points="465,-141.5 465,-160.5 541,-160.5 541,-141.5 465,-141.5"/>
<text text-anchor="middle" x="503" y="-148.5" font-family="Helvetica,sans-Serif" font-size="10.00">render_thread</text>
</a>
</g>
</g>
<!-- Node5&#45;&gt;Node6 -->
<g id="edge5" class="edge"><title>Node5&#45;&gt;Node6</title>
<path fill="none" stroke="midnightblue" d="M416.423,-151C433.07,-151 450.339,-151 464.968,-151"/>
<polygon fill="midnightblue" stroke="midnightblue" points="416.167,-147.5 406.167,-151 416.167,-154.5 416.167,-147.5"/>
</g>
<!-- Node6&#45;&gt;Node7 -->
<g id="edge6" class="edge"><title>Node6&#45;&gt;Node7</title>
<path fill="none" stroke="midnightblue" d="M551.142,-156.705C567.608,-158.698 586.276,-160.957 603.491,-163.04"/>
<polygon fill="midnightblue" stroke="midnightblue" points="551.555,-153.23 541.207,-155.503 550.714,-160.179 551.555,-153.23"/>
</g>
<!-- Node8 -->
<g id="node8" class="node"><title>Node8</title>
<g id="a_node8"><a xlink:href="classGUICutRenderWindow.xhtml#a7cd1bfbec53756a1cbbe1616b4d46c7a" target="_top" xlink:title="Behandelt das Drücken des Buttons zur Berechnung der zweidimensionalen Temperaturverteilung. ">
<polygon fill="none" stroke="black" points="765.5,-155 765.5,-185 882.5,-185 882.5,-155 765.5,-155"/>
<text text-anchor="start" x="773.5" y="-173" font-family="Helvetica,sans-Serif" font-size="10.00">GUICutRenderWindow</text>
<text text-anchor="middle" x="824" y="-162" font-family="Helvetica,sans-Serif" font-size="10.00">::renderCutBtClick</text>
</a>
</g>
</g>
<!-- Node7&#45;&gt;Node8 -->
<g id="edge7" class="edge"><title>Node7&#45;&gt;Node8</title>
<path fill="none" stroke="midnightblue" d="M731.107,-170C742.5,-170 754.222,-170 765.321,-170"/>
<polygon fill="midnightblue" stroke="midnightblue" points="730.764,-166.5 720.764,-170 730.764,-173.5 730.764,-166.5"/>
</g>
<!-- Node10 -->
<g id="node10" class="node"><title>Node10</title>
<g id="a_node10"><a xlink:href="classGUICutRenderWindow.xhtml#a3aee786d94c840ab4e6df6e3c2817802" target="_top" xlink:title="Fragt den Benutzer nach dem Pfad und Exporiert die 2D&#45;Temperaturverteilung als .csv&#45;Datei. ">
<polygon fill="none" stroke="black" points="290.5,-92 290.5,-122 407.5,-122 407.5,-92 290.5,-92"/>
<text text-anchor="start" x="298.5" y="-110" font-family="Helvetica,sans-Serif" font-size="10.00">GUICutRenderWindow</text>
<text text-anchor="middle" x="349" y="-99" font-family="Helvetica,sans-Serif" font-size="10.00">::OnExportCSV</text>
</a>
</g>
</g>
<!-- Node9&#45;&gt;Node10 -->
<g id="edge9" class="edge"><title>Node9&#45;&gt;Node10</title>
<path fill="none" stroke="midnightblue" d="M259.994,-110.3C270.211,-109.917 280.604,-109.527 290.498,-109.156"/>
<polygon fill="midnightblue" stroke="midnightblue" points="259.722,-106.808 249.86,-110.68 259.984,-113.803 259.722,-106.808"/>
</g>
<!-- Node13 -->
<g id="node13" class="node"><title>Node13</title>
<g id="a_node13"><a xlink:href="namespaceUtils.xhtml#a6a0ae18a42e2d206bc1b43da27820fe2" target="_top" xlink:title="Gibt den inter/extrapolierten Wert eines Punktes zurück. ">
<polygon fill="none" stroke="black" points="297,-51.5 297,-70.5 401,-70.5 401,-51.5 297,-51.5"/>
<text text-anchor="middle" x="349" y="-58.5" font-family="Helvetica,sans-Serif" font-size="10.00">Utils::getPointValue</text>
</a>
</g>
</g>
<!-- Node12&#45;&gt;Node13 -->
<g id="edge13" class="edge"><title>Node12&#45;&gt;Node13</title>
<path fill="none" stroke="midnightblue" d="M261.624,-48.0436C273.523,-49.8285 285.612,-51.6418 296.828,-53.3243"/>
<polygon fill="midnightblue" stroke="midnightblue" points="262.105,-44.5766 251.696,-46.5544 261.066,-51.4992 262.105,-44.5766"/>
</g>
<!-- Node13&#45;&gt;Node6 -->
<g id="edge14" class="edge"><title>Node13&#45;&gt;Node6</title>
<path fill="none" stroke="midnightblue" d="M393.867,-74.4381C398.795,-76.6539 403.614,-79.1685 408,-82 427.276,-94.4438 425.757,-105.085 444,-119 455.521,-127.788 469.752,-135.677 481.233,-141.424"/>
<polygon fill="midnightblue" stroke="midnightblue" points="394.922,-71.0883 384.342,-70.5407 392.271,-77.567 394.922,-71.0883"/>
</g>
<!-- Node14 -->
<g id="node14" class="node"><title>Node14</title>
<g id="a_node14"><a xlink:href="classAnalyzer.xhtml#a8f73ee0aa71ae395a74b43dc76b35458" target="_top" xlink:title="Ermittelt Daten für einen Punkt am aktuell ausgewählten Zeitpunkt. ">
<polygon fill="none" stroke="black" points="444.5,-90.5 444.5,-109.5 561.5,-109.5 561.5,-90.5 444.5,-90.5"/>
<text text-anchor="middle" x="503" y="-97.5" font-family="Helvetica,sans-Serif" font-size="10.00">Analyzer::analyzePoint</text>
</a>
</g>
</g>
<!-- Node13&#45;&gt;Node14 -->
<g id="edge15" class="edge"><title>Node13&#45;&gt;Node14</title>
<path fill="none" stroke="midnightblue" d="M396.934,-73.0422C418.804,-78.6537 444.455,-85.2353 464.937,-90.4905"/>
<polygon fill="midnightblue" stroke="midnightblue" points="397.74,-69.6356 387.183,-70.5405 396,-76.416 397.74,-69.6356"/>
</g>
<!-- Node16 -->
<g id="node16" class="node"><title>Node16</title>
<g id="a_node16"><a xlink:href="MeshProcessor_8cpp.xhtml#ad2670c4e8381f9a0a89c65f5559ed421" target="_top" xlink:title="interpolatePoint">
<polygon fill="none" stroke="black" points="461,-50.5 461,-69.5 545,-69.5 545,-50.5 461,-50.5"/>
<text text-anchor="middle" x="503" y="-57.5" font-family="Helvetica,sans-Serif" font-size="10.00">interpolatePoint</text>
</a>
</g>
</g>
<!-- Node13&#45;&gt;Node16 -->
<g id="edge17" class="edge"><title>Node13&#45;&gt;Node16</title>
<path fill="none" stroke="midnightblue" d="M411.275,-60.5969C427.972,-60.487 445.654,-60.3707 460.931,-60.2702"/>
<polygon fill="midnightblue" stroke="midnightblue" points="411.013,-57.0984 401.037,-60.6642 411.059,-64.0983 411.013,-57.0984"/>
</g>
<!-- Node15 -->
<g id="node15" class="node"><title>Node15</title>
<g id="a_node15"><a xlink:href="classGUIAnalyzePointWindow.xhtml#aa84ea9958e8b41423f01316d01ba5151" target="_top" xlink:title="Event&#45;Tabellendeklaration für wxWidgets. ">
<polygon fill="none" stroke="black" points="598,-88 598,-118 726,-118 726,-88 598,-88"/>
<text text-anchor="start" x="606" y="-106" font-family="Helvetica,sans-Serif" font-size="10.00">GUIAnalyzePointWindow</text>
<text text-anchor="middle" x="662" y="-95" font-family="Helvetica,sans-Serif" font-size="10.00">::analyzePoint</text>
</a>
</g>
</g>
<!-- Node14&#45;&gt;Node15 -->
<g id="edge16" class="edge"><title>Node14&#45;&gt;Node15</title>
<path fill="none" stroke="midnightblue" d="M571.674,-101.293C580.374,-101.459 589.255,-101.629 597.879,-101.794"/>
<polygon fill="midnightblue" stroke="midnightblue" points="571.635,-97.7918 561.57,-101.1 571.501,-104.791 571.635,-97.7918"/>
</g>
<!-- Node17 -->
<g id="node17" class="node"><title>Node17</title>
<g id="a_node17"><a xlink:href="classMeshProcessor.xhtml#a060c3815db33f8e52ac620ed2239ccc9" target="_top" xlink:title="Berechnet die Temperaturverteilung für ein Objekt. ">
<polygon fill="none" stroke="black" points="599.5,-49.5 599.5,-68.5 724.5,-68.5 724.5,-49.5 599.5,-49.5"/>
<text text-anchor="middle" x="662" y="-56.5" font-family="Helvetica,sans-Serif" font-size="10.00">MeshProcessor::process</text>
</a>
</g>
</g>
<!-- Node16&#45;&gt;Node17 -->
<g id="edge18" class="edge"><title>Node16&#45;&gt;Node17</title>
<path fill="none" stroke="midnightblue" d="M555.647,-59.671C569.617,-59.5821 584.877,-59.4849 599.337,-59.3928"/>
<polygon fill="midnightblue" stroke="midnightblue" points="555.227,-56.1735 545.25,-59.7373 555.272,-63.1734 555.227,-56.1735"/>
</g>
<!-- Node18 -->
<g id="node18" class="node"><title>Node18</title>
<g id="a_node18"><a xlink:href="classAnalyzer.xhtml#a2a7b5f169f664ccd9f206e508cba78ef" target="_top" xlink:title="Ermittelt Daten für ein Objekt. ">
<polygon fill="none" stroke="black" points="762.5,-30.5 762.5,-49.5 885.5,-49.5 885.5,-30.5 762.5,-30.5"/>
<text text-anchor="middle" x="824" y="-37.5" font-family="Helvetica,sans-Serif" font-size="10.00">Analyzer::analyzeObject</text>
</a>
</g>
</g>
<!-- Node17&#45;&gt;Node18 -->
<g id="edge19" class="edge"><title>Node17&#45;&gt;Node18</title>
<path fill="none" stroke="midnightblue" d="M735.069,-50.4418C744.187,-49.3591 753.443,-48.2599 762.358,-47.2013"/>
<polygon fill="midnightblue" stroke="midnightblue" points="734.378,-46.9992 724.86,-51.6541 735.203,-53.9504 734.378,-46.9992"/>
</g>
<!-- Node21 -->
<g id="node21" class="node"><title>Node21</title>
<g id="a_node21"><a xlink:href="classObjectData.xhtml#af3a850833d08eb9b45357449f455e24d" target="_top" xlink:title="Zerlegt das Objekt in Tetraeder (Schnittstelle zur Tetgen&#45;Bibliothek) und Berechnet die Temperaturver...">
<polygon fill="none" stroke="black" points="763,-68.5 763,-87.5 885,-87.5 885,-68.5 763,-68.5"/>
<text text-anchor="middle" x="824" y="-75.5" font-family="Helvetica,sans-Serif" font-size="10.00">ObjectData::calculateIO</text>
</a>
</g>
</g>
<!-- Node17&#45;&gt;Node21 -->
<g id="edge22" class="edge"><title>Node17&#45;&gt;Node21</title>
<path fill="none" stroke="midnightblue" d="M734.918,-67.5403C744.264,-68.65 753.758,-69.7775 762.883,-70.8611"/>
<polygon fill="midnightblue" stroke="midnightblue" points="735.203,-64.0496 724.86,-66.3459 734.378,-71.0008 735.203,-64.0496"/>
</g>
<!-- Node19 -->
<g id="node19" class="node"><title>Node19</title>
<g id="a_node19"><a xlink:href="classGUIAnalyzeOutputWindow.xhtml#a9ea5a7cf46d6189f368315903508cecc" target="_top" xlink:title="Methode zum aktualisieren des Fensters, alle Objekte werden erneut analysiert und die aktualisierten ...">
<polygon fill="none" stroke="black" points="930,-0 930,-30 1064,-30 1064,-0 930,-0"/>
<text text-anchor="start" x="938" y="-18" font-family="Helvetica,sans-Serif" font-size="10.00">GUIAnalyzeOutputWindow</text>
<text text-anchor="middle" x="997" y="-7" font-family="Helvetica,sans-Serif" font-size="10.00">::Update</text>
</a>
</g>
</g>
<!-- Node18&#45;&gt;Node19 -->
<g id="edge20" class="edge"><title>Node18&#45;&gt;Node19</title>
<path fill="none" stroke="midnightblue" d="M895.97,-29.6242C907.208,-27.9813 918.791,-26.2878 929.912,-24.662"/>
<polygon fill="midnightblue" stroke="midnightblue" points="895.158,-26.2057 885.77,-31.1155 896.171,-33.132 895.158,-26.2057"/>
</g>
<!-- Node20 -->
<g id="node20" class="node"><title>Node20</title>
<g id="a_node20"><a xlink:href="classGUITimeline.xhtml#a099f3654aa6e7ea04df861851a0e9ec8" target="_top" xlink:title="Sucht den Zeitpunkt zwischen zwei markierten Stellen auf der Sensordaten&#45;Zeitleiste, für den der Wäremeenergiegehalt maximal wird. ">
<polygon fill="none" stroke="black" points="928.5,-49.5 928.5,-68.5 1065.5,-68.5 1065.5,-49.5 928.5,-49.5"/>
<text text-anchor="middle" x="997" y="-56.5" font-family="Helvetica,sans-Serif" font-size="10.00">GUITimeline::findMaxValue</text>
</a>
</g>
</g>
<!-- Node18&#45;&gt;Node20 -->
<g id="edge21" class="edge"><title>Node18&#45;&gt;Node20</title>
<path fill="none" stroke="midnightblue" d="M895.956,-47.884C906.706,-49.0785 917.772,-50.308 928.447,-51.4941"/>
<polygon fill="midnightblue" stroke="midnightblue" points="896.095,-44.378 885.77,-46.7522 895.322,-51.3352 896.095,-44.378"/>
</g>
<!-- Node21&#45;&gt;Node20 -->
<g id="edge24" class="edge"><title>Node21&#45;&gt;Node20</title>
<path fill="none" stroke="midnightblue" d="M895.232,-70.1965C906.189,-68.979 917.492,-67.7232 928.388,-66.5124"/>
<polygon fill="midnightblue" stroke="midnightblue" points="894.84,-66.7183 885.288,-71.3013 895.614,-73.6755 894.84,-66.7183"/>
</g>
<!-- Node22 -->
<g id="node22" class="node"><title>Node22</title>
<g id="a_node22"><a xlink:href="classGUIMainWindow.xhtml#a0c2de30274c7f52ff74ec1217e47a9e5" target="_top" xlink:title="Berechnet die 3D&#45;Temperaturverteilung neu. ">
<polygon fill="none" stroke="black" points="922,-88 922,-118 1072,-118 1072,-88 922,-88"/>
<text text-anchor="start" x="930" y="-106" font-family="Helvetica,sans-Serif" font-size="10.00">GUIMainWindow::OnRecalcBt</text>
<text text-anchor="middle" x="997" y="-95" font-family="Helvetica,sans-Serif" font-size="10.00">Click</text>
</a>
</g>
</g>
<!-- Node21&#45;&gt;Node22 -->
<g id="edge23" class="edge"><title>Node21&#45;&gt;Node22</title>
<path fill="none" stroke="midnightblue" d="M895.412,-88.2942C904.141,-89.5703 913.086,-90.8781 921.868,-92.162"/>
<polygon fill="midnightblue" stroke="midnightblue" points="895.689,-84.7976 885.288,-86.8141 894.677,-91.7239 895.689,-84.7976"/>
</g>
</g>
</svg>
