<?xml version="1.0" encoding="UTF-8" standalone="no"?>
<!DOCTYPE svg PUBLIC "-//W3C//DTD SVG 1.1//EN"
 "http://www.w3.org/Graphics/SVG/1.1/DTD/svg11.dtd">
<!-- Generated by graphviz version 2.26.3 (20100126.1600)
 -->
<!-- Title: Analyzer::analyzeObject Pages: 1 -->
<svg width="1278pt" height="923pt"
 viewBox="0.00 0.00 1278.00 923.36" xmlns="http://www.w3.org/2000/svg" xmlns:xlink="http://www.w3.org/1999/xlink">
<g id="graph1" class="graph" transform="scale(1 1) rotate(0) translate(4 919.359)">
<title>Analyzer::analyzeObject</title>
<!-- Node1 -->
<g id="node1" class="node"><title>Node1</title>
<polygon fill="#bfbfbf" stroke="black" points="0.5,-627.859 0.5,-648.859 123.5,-648.859 123.5,-627.859 0.5,-627.859"/>
<text text-anchor="middle" x="62" y="-635.859" font-family="Helvetica,sans-Serif" font-size="10.00">Analyzer::analyzeObject</text>
</g>
<!-- Node2 -->
<g id="node3" class="node"><title>Node2</title>
<a xlink:href="classObjectData.xhtml#a503d63160a3afe2ea517449f78f8ac42" target="_top" xlink:title="Gibt den Index des aktuell verwendeten Sensordatensatzes zurück. ">
<polygon fill="none" stroke="black" points="350.5,-881.359 350.5,-915.359 499.5,-915.359 499.5,-881.359 350.5,-881.359"/>
<text text-anchor="start" x="358.5" y="-902.359" font-family="Helvetica,sans-Serif" font-size="10.00">ObjectData::getCurrentSensor</text>
<text text-anchor="middle" x="425" y="-889.359" font-family="Helvetica,sans-Serif" font-size="10.00">Index</text>
</a>
</g>
<!-- Node1&#45;&gt;Node2 -->
<g id="edge2" class="edge"><title>Node1&#45;&gt;Node2</title>
<path fill="none" stroke="midnightblue" d="M63.3812,-648.941C68.5872,-684.238 90.4125,-798.728 160,-852.359 210.922,-891.604 283.72,-901.941 340.136,-903.113"/>
<polygon fill="midnightblue" stroke="midnightblue" points="340.431,-906.617 350.47,-903.23 340.51,-899.617 340.431,-906.617"/>
</g>
<!-- Node3 -->
<g id="node5" class="node"><title>Node3</title>
<a xlink:href="classObjectData.xhtml#a72ac93213382f67b4d5b40c011eb1656" target="_top" xlink:title="Gibt eine Referenz auf die Sensordaten des Objekts zurück. ">
<polygon fill="none" stroke="black" points="160.5,-491.859 160.5,-512.859 313.5,-512.859 313.5,-491.859 160.5,-491.859"/>
<text text-anchor="middle" x="237" y="-499.859" font-family="Helvetica,sans-Serif" font-size="10.00">ObjectData::getSensorDataList</text>
</a>
</g>
<!-- Node1&#45;&gt;Node3 -->
<g id="edge4" class="edge"><title>Node1&#45;&gt;Node3</title>
<path fill="none" stroke="midnightblue" d="M68.4699,-627.816C82.4503,-605.898 117.66,-555.143 160,-527.359 166.527,-523.076 173.847,-519.474 181.308,-516.46"/>
<polygon fill="midnightblue" stroke="midnightblue" points="182.624,-519.705 190.786,-512.95 180.193,-513.141 182.624,-519.705"/>
</g>
<!-- Node4 -->
<g id="node7" class="node"><title>Node4</title>
<a xlink:href="classObjectData.xhtml#a65bc706c460a62f98e6c24959df04c76" target="_top" xlink:title="Setzt den Index des aktuell verwendeten Sensordatensatzes. ">
<polygon fill="none" stroke="black" points="162.5,-439.359 162.5,-473.359 311.5,-473.359 311.5,-439.359 162.5,-439.359"/>
<text text-anchor="start" x="170.5" y="-460.359" font-family="Helvetica,sans-Serif" font-size="10.00">ObjectData::setCurrentSensor</text>
<text text-anchor="middle" x="237" y="-447.359" font-family="Helvetica,sans-Serif" font-size="10.00">Index</text>
</a>
</g>
<!-- Node1&#45;&gt;Node4 -->
<g id="edge6" class="edge"><title>Node1&#45;&gt;Node4</title>
<path fill="none" stroke="midnightblue" d="M65.8343,-627.5C76.3339,-599.31 108.265,-523.159 160,-482.359 161.755,-480.975 163.588,-479.662 165.483,-478.418"/>
<polygon fill="midnightblue" stroke="midnightblue" points="167.246,-481.441 174.13,-473.388 163.727,-475.39 167.246,-481.441"/>
</g>
<!-- Node5 -->
<g id="node9" class="node"><title>Node5</title>
<a xlink:href="classMeshProcessor.xhtml#a060c3815db33f8e52ac620ed2239ccc9" target="_top" xlink:title="Berechnet die Temperaturverteilung für ein Objekt. ">
<polygon fill="none" stroke="black" points="174.5,-821.859 174.5,-842.859 299.5,-842.859 299.5,-821.859 174.5,-821.859"/>
<text text-anchor="middle" x="237" y="-829.859" font-family="Helvetica,sans-Serif" font-size="10.00">MeshProcessor::process</text>
</a>
</g>
<!-- Node1&#45;&gt;Node5 -->
<g id="edge8" class="edge"><title>Node1&#45;&gt;Node5</title>
<path fill="none" stroke="midnightblue" d="M66.8152,-648.925C79.1515,-675.085 114.172,-743.894 160,-787.359 172.625,-799.334 189.005,-809.467 203.41,-817.068"/>
<polygon fill="midnightblue" stroke="midnightblue" points="202.029,-820.292 212.531,-821.691 205.193,-814.048 202.029,-820.292"/>
</g>
<!-- Node10 -->
<g id="node20" class="node"><title>Node10</title>
<a xlink:href="classVector3D.xhtml#a02364a41693ac080f5adadd776df74b4" target="_top" xlink:title="Subtrahiert einen Vektor von diesem Vektor. ">
<polygon fill="none" stroke="black" points="1046,-529.859 1046,-550.859 1126,-550.859 1126,-529.859 1046,-529.859"/>
<text text-anchor="middle" x="1086" y="-537.859" font-family="Helvetica,sans-Serif" font-size="10.00">Vector3D::sub</text>
</a>
</g>
<!-- Node1&#45;&gt;Node10 -->
<g id="edge132" class="edge"><title>Node1&#45;&gt;Node10</title>
<path fill="none" stroke="midnightblue" d="M67.6247,-648.979C80.4606,-671.991 114.366,-726.24 160,-749.359 265.495,-802.803 306.74,-773.359 425,-773.359 425,-773.359 425,-773.359 742,-773.359 850.968,-773.359 896.765,-811.898 986,-749.359 1051.15,-703.7 1075.32,-603.841 1082.95,-560.785"/>
<polygon fill="midnightblue" stroke="midnightblue" points="1086.4,-561.342 1084.58,-550.905 1079.49,-560.201 1086.4,-561.342"/>
</g>
<!-- Node14 -->
<g id="node28" class="node"><title>Node14</title>
<a xlink:href="classVector3D.xhtml#a482cd77ce44ea7dd71fd7a43cb7b1cf5" target="_top" xlink:title="Gibt das Kreuzprodukt mit einem anderen Vektor zurück. ">
<polygon fill="none" stroke="black" points="1025,-489.859 1025,-510.859 1147,-510.859 1147,-489.859 1025,-489.859"/>
<text text-anchor="middle" x="1086" y="-497.859" font-family="Helvetica,sans-Serif" font-size="10.00">Vector3D::crossProduct</text>
</a>
</g>
<!-- Node1&#45;&gt;Node14 -->
<g id="edge134" class="edge"><title>Node1&#45;&gt;Node14</title>
<path fill="none" stroke="midnightblue" d="M84.7895,-648.924C141.173,-674.065 292.253,-735.359 425,-735.359 425,-735.359 425,-735.359 742,-735.359 796.386,-735.359 945.597,-752.766 986,-716.359 1051.8,-657.07 963.282,-586.665 1022,-520.359 1023.17,-519.041 1024.42,-517.809 1025.74,-516.657"/>
<polygon fill="midnightblue" stroke="midnightblue" points="1027.8,-519.488 1034.01,-510.9 1023.8,-513.744 1027.8,-519.488"/>
</g>
<!-- Node15 -->
<g id="node33" class="node"><title>Node15</title>
<a xlink:href="classVector3D.xhtml#a0808a8e6004a347d82f9214778b5968f" target="_top" xlink:title="Gibt das Skalarprodukt mit einem anderen Vektor. ">
<polygon fill="none" stroke="black" points="1030.5,-390.859 1030.5,-411.859 1141.5,-411.859 1141.5,-390.859 1030.5,-390.859"/>
<text text-anchor="middle" x="1086" y="-398.859" font-family="Helvetica,sans-Serif" font-size="10.00">Vector3D::dotProduct</text>
</a>
</g>
<!-- Node1&#45;&gt;Node15 -->
<g id="edge136" class="edge"><title>Node1&#45;&gt;Node15</title>
<path fill="none" stroke="midnightblue" d="M87.4777,-627.726C133.465,-608.292 233.083,-565.095 314,-522.359 556.906,-394.069 579.265,-277.686 844,-204.359 904.821,-187.513 936.992,-164.594 986,-204.359 1046.31,-253.294 972.192,-315.767 1022,-375.359 1025.42,-379.452 1029.59,-382.908 1034.13,-385.825"/>
<polygon fill="midnightblue" stroke="midnightblue" points="1032.8,-389.082 1043.25,-390.794 1036.15,-382.935 1032.8,-389.082"/>
</g>
<!-- Node36 -->
<g id="node101" class="node"><title>Node36</title>
<a xlink:href="classObjectData.xhtml#afda67d7524b83780e431dd3a9c5ac23a" target="_top" xlink:title="Gibt eine Referenz auf die Liste der Materialien (mit Materialdaten) des Objekts zurück. ">
<polygon fill="none" stroke="black" points="174.5,-399.859 174.5,-420.859 299.5,-420.859 299.5,-399.859 174.5,-399.859"/>
<text text-anchor="middle" x="237" y="-407.859" font-family="Helvetica,sans-Serif" font-size="10.00">ObjectData::getMaterials</text>
</a>
</g>
<!-- Node1&#45;&gt;Node36 -->
<g id="edge130" class="edge"><title>Node1&#45;&gt;Node36</title>
<path fill="none" stroke="midnightblue" d="M63.738,-627.803C69.9414,-593.6 94.2416,-484.887 160,-430.359 162,-428.7 164.122,-427.178 166.337,-425.78"/>
<polygon fill="midnightblue" stroke="midnightblue" points="168.124,-428.793 175.282,-420.983 164.815,-422.624 168.124,-428.793"/>
</g>
<!-- Node5&#45;&gt;Node2 -->
<g id="edge12" class="edge"><title>Node5&#45;&gt;Node2</title>
<path fill="none" stroke="midnightblue" d="M266.721,-842.939C289.499,-851.033 321.718,-862.451 350,-872.359 355.202,-874.182 360.61,-876.069 366.032,-877.957"/>
<polygon fill="midnightblue" stroke="midnightblue" points="365.17,-881.363 375.765,-881.342 367.47,-874.752 365.17,-881.363"/>
</g>
<!-- Node6 -->
<g id="node11" class="node"><title>Node6</title>
<a xlink:href="classInterpolator.xhtml#a2f9927fc580de7d2f94d85e6ca3ee3e3" target="_top" xlink:title="Setzt den verwendeten Interpolationsmodus (die Interpolationsfunktion). ">
<polygon fill="none" stroke="black" points="370.5,-841.859 370.5,-862.859 479.5,-862.859 479.5,-841.859 370.5,-841.859"/>
<text text-anchor="middle" x="425" y="-849.859" font-family="Helvetica,sans-Serif" font-size="10.00">Interpolator::setMode</text>
</a>
</g>
<!-- Node5&#45;&gt;Node6 -->
<g id="edge10" class="edge"><title>Node5&#45;&gt;Node6</title>
<path fill="none" stroke="midnightblue" d="M299.601,-839.019C319.067,-841.09 340.562,-843.376 360.175,-845.463"/>
<polygon fill="midnightblue" stroke="midnightblue" points="359.926,-848.956 370.24,-846.533 360.666,-841.995 359.926,-848.956"/>
</g>
<!-- Node7 -->
<g id="node14" class="node"><title>Node7</title>
<a xlink:href="MeshProcessor_8cpp.xhtml#ad2670c4e8381f9a0a89c65f5559ed421" target="_top" xlink:title="interpolatePoint">
<polygon fill="none" stroke="black" points="383,-801.859 383,-822.859 467,-822.859 467,-801.859 383,-801.859"/>
<text text-anchor="middle" x="425" y="-809.859" font-family="Helvetica,sans-Serif" font-size="10.00">interpolatePoint</text>
</a>
</g>
<!-- Node5&#45;&gt;Node7 -->
<g id="edge14" class="edge"><title>Node5&#45;&gt;Node7</title>
<path fill="none" stroke="midnightblue" d="M299.601,-825.699C323.314,-823.177 350.039,-820.334 372.706,-817.922"/>
<polygon fill="midnightblue" stroke="midnightblue" points="373.236,-821.386 382.809,-816.847 372.495,-814.425 373.236,-821.386"/>
</g>
<!-- Node8 -->
<g id="node16" class="node"><title>Node8</title>
<a xlink:href="namespaceUtils.xhtml#a6a0ae18a42e2d206bc1b43da27820fe2" target="_top" xlink:title="Gibt den inter/extrapolierten Wert eines Punktes zurück. ">
<polygon fill="none" stroke="black" points="536,-801.859 536,-822.859 640,-822.859 640,-801.859 536,-801.859"/>
<text text-anchor="middle" x="588" y="-809.859" font-family="Helvetica,sans-Serif" font-size="10.00">Utils::getPointValue</text>
</a>
</g>
<!-- Node7&#45;&gt;Node8 -->
<g id="edge16" class="edge"><title>Node7&#45;&gt;Node8</title>
<path fill="none" stroke="midnightblue" d="M467.401,-812.359C485.233,-812.359 506.339,-812.359 525.869,-812.359"/>
<polygon fill="midnightblue" stroke="midnightblue" points="525.913,-815.859 535.913,-812.359 525.913,-808.859 525.913,-815.859"/>
</g>
<!-- Node9 -->
<g id="node18" class="node"><title>Node9</title>
<a xlink:href="namespaceUtils.xhtml#a9b995a1220a78be108b19bda4b776332" target="_top" xlink:title="Testet, ob sich ein Punkt innerhalb eines Tetraeders befindet. ">
<polygon fill="none" stroke="black" points="844,-801.859 844,-822.859 986,-822.859 986,-801.859 844,-801.859"/>
<text text-anchor="middle" x="915" y="-809.859" font-family="Helvetica,sans-Serif" font-size="10.00">Utils::pointInsideTetrahedron</text>
</a>
</g>
<!-- Node8&#45;&gt;Node9 -->
<g id="edge18" class="edge"><title>Node8&#45;&gt;Node9</title>
<path fill="none" stroke="midnightblue" d="M625.8,-822.898C641.234,-826.689 659.34,-830.49 676,-832.359 734.301,-838.901 749.584,-837.772 808,-832.359 824.674,-830.814 842.625,-827.943 858.97,-824.848"/>
<polygon fill="midnightblue" stroke="midnightblue" points="859.773,-828.257 868.915,-822.902 858.429,-821.387 859.773,-828.257"/>
</g>
<!-- Node18 -->
<g id="node42" class="node"><title>Node18</title>
<a xlink:href="namespaceUtils.xhtml#af4ba26e928c7cef5269c51bfac49d547" target="_top" xlink:title="Ermöglicht das generieren aller möglichen Verteilungen von 4 Elementen auf dataPointCount Plätze...">
<polygon fill="none" stroke="black" points="684,-801.859 684,-822.859 800,-822.859 800,-801.859 684,-801.859"/>
<text text-anchor="middle" x="742" y="-809.859" font-family="Helvetica,sans-Serif" font-size="10.00">Utils::nextCombination</text>
</a>
</g>
<!-- Node8&#45;&gt;Node18 -->
<g id="edge48" class="edge"><title>Node8&#45;&gt;Node18</title>
<path fill="none" stroke="midnightblue" d="M640.137,-812.359C650.893,-812.359 662.375,-812.359 673.608,-812.359"/>
<polygon fill="midnightblue" stroke="midnightblue" points="673.827,-815.859 683.827,-812.359 673.827,-808.859 673.827,-815.859"/>
</g>
<!-- Node19 -->
<g id="node44" class="node"><title>Node19</title>
<a xlink:href="classInterpolator.xhtml#a30e714ca6dff9b5745d029f95af1420a" target="_top" xlink:title="Ermittelt den Wert für einen beliebigen Punkt im Raum. ">
<polygon fill="none" stroke="black" points="676.5,-412.859 676.5,-433.859 807.5,-433.859 807.5,-412.859 676.5,-412.859"/>
<text text-anchor="middle" x="742" y="-420.859" font-family="Helvetica,sans-Serif" font-size="10.00">Interpolator::interpolateTet</text>
</a>
</g>
<!-- Node8&#45;&gt;Node19 -->
<g id="edge50" class="edge"><title>Node8&#45;&gt;Node19</title>
<path fill="none" stroke="midnightblue" d="M592.28,-801.549C613.35,-748.326 706.167,-513.873 734.051,-443.438"/>
<polygon fill="midnightblue" stroke="midnightblue" points="737.387,-444.52 737.814,-433.934 730.878,-441.944 737.387,-444.52"/>
</g>
<!-- Node9&#45;&gt;Node10 -->
<g id="edge20" class="edge"><title>Node9&#45;&gt;Node10</title>
<path fill="none" stroke="midnightblue" d="M962.867,-801.797C971.315,-798.273 979.479,-793.586 986,-787.359 1053.07,-723.309 1076.42,-608.105 1083.39,-561.141"/>
<polygon fill="midnightblue" stroke="midnightblue" points="1086.9,-561.368 1084.8,-550.983 1079.96,-560.408 1086.9,-561.368"/>
</g>
<!-- Node9&#45;&gt;Node14 -->
<g id="edge28" class="edge"><title>Node9&#45;&gt;Node14</title>
<path fill="none" stroke="midnightblue" d="M932.755,-801.774C949.389,-790.847 973.506,-772.203 986,-749.359 1035.44,-658.967 954.693,-598.362 1022,-520.359 1023.02,-519.175 1024.11,-518.06 1025.26,-517.01"/>
<polygon fill="midnightblue" stroke="midnightblue" points="1027.55,-519.678 1033.6,-510.985 1023.45,-514.004 1027.55,-519.678"/>
</g>
<!-- Node9&#45;&gt;Node15 -->
<g id="edge36" class="edge"><title>Node9&#45;&gt;Node15</title>
<path fill="none" stroke="midnightblue" d="M925.831,-801.703C941.958,-785.11 971.892,-751.35 986,-716.359 1032.26,-601.628 954.558,-544.064 1022,-440.359 1028.47,-430.404 1038.47,-422.59 1048.65,-416.656"/>
<polygon fill="midnightblue" stroke="midnightblue" points="1050.37,-419.704 1057.55,-411.919 1047.08,-413.523 1050.37,-419.704"/>
</g>
<!-- Node16 -->
<g id="node38" class="node"><title>Node16</title>
<a xlink:href="classVector3D.xhtml#a3dec11494c99de7370e3877054c3ef13" target="_top" xlink:title="Multipliziert den Vektor mit einem Skalar. ">
<polygon fill="none" stroke="black" points="1044.5,-859.859 1044.5,-880.859 1127.5,-880.859 1127.5,-859.859 1044.5,-859.859"/>
<text text-anchor="middle" x="1086" y="-867.859" font-family="Helvetica,sans-Serif" font-size="10.00">Vector3D::mult</text>
</a>
</g>
<!-- Node9&#45;&gt;Node16 -->
<g id="edge44" class="edge"><title>Node9&#45;&gt;Node16</title>
<path fill="none" stroke="midnightblue" d="M945.967,-822.862C973.844,-832.318 1015,-846.276 1045.48,-856.616"/>
<polygon fill="midnightblue" stroke="midnightblue" points="1044.38,-859.938 1054.98,-859.836 1046.63,-853.309 1044.38,-859.938"/>
</g>
<!-- Node17 -->
<g id="node40" class="node"><title>Node17</title>
<a xlink:href="classVector3D.xhtml#a46dd0d9a849809a3857783102959e788" target="_top" xlink:title="Gibt eine Kopie des Vektors zurück. ">
<polygon fill="none" stroke="black" points="1043.5,-801.859 1043.5,-822.859 1128.5,-822.859 1128.5,-801.859 1043.5,-801.859"/>
<text text-anchor="middle" x="1086" y="-809.859" font-family="Helvetica,sans-Serif" font-size="10.00">Vector3D::copy</text>
</a>
</g>
<!-- Node9&#45;&gt;Node17 -->
<g id="edge46" class="edge"><title>Node9&#45;&gt;Node17</title>
<path fill="none" stroke="midnightblue" d="M986.034,-812.359C1001.84,-812.359 1018.33,-812.359 1033.24,-812.359"/>
<polygon fill="midnightblue" stroke="midnightblue" points="1033.29,-815.859 1043.29,-812.359 1033.29,-808.859 1033.29,-815.859"/>
</g>
<!-- Node11 -->
<g id="node22" class="node"><title>Node11</title>
<a xlink:href="classVector3D.xhtml#aa9eaf29045bf32b95c5c7bcb2b8b68d7" target="_top" xlink:title="Gibt das X&#45;Element des Vektors zurück. ">
<polygon fill="none" stroke="black" points="1186,-352.859 1186,-373.859 1270,-373.859 1270,-352.859 1186,-352.859"/>
<text text-anchor="middle" x="1228" y="-360.859" font-family="Helvetica,sans-Serif" font-size="10.00">Vector3D::getX</text>
</a>
</g>
<!-- Node10&#45;&gt;Node11 -->
<g id="edge22" class="edge"><title>Node10&#45;&gt;Node11</title>
<path fill="none" stroke="midnightblue" d="M1126.11,-533.231C1134.67,-530.304 1143.18,-526.177 1150,-520.359 1193.06,-483.623 1214.72,-417.404 1223.35,-383.927"/>
<polygon fill="midnightblue" stroke="midnightblue" points="1226.82,-384.463 1225.79,-373.919 1220.02,-382.806 1226.82,-384.463"/>
</g>
<!-- Node12 -->
<g id="node24" class="node"><title>Node12</title>
<a xlink:href="classVector3D.xhtml#aa3ffff17b886274a58417dfe4bb4c4a2" target="_top" xlink:title="Gibt das Y&#45;Element des Vektors zurück. ">
<polygon fill="none" stroke="black" points="1186,-272.859 1186,-293.859 1270,-293.859 1270,-272.859 1186,-272.859"/>
<text text-anchor="middle" x="1228" y="-280.859" font-family="Helvetica,sans-Serif" font-size="10.00">Vector3D::getY</text>
</a>
</g>
<!-- Node10&#45;&gt;Node12 -->
<g id="edge24" class="edge"><title>Node10&#45;&gt;Node12</title>
<path fill="none" stroke="midnightblue" d="M1126.15,-535.07C1135.13,-532.086 1143.81,-527.472 1150,-520.359 1214.18,-446.613 1127.19,-381.458 1186,-303.359 1186.79,-302.307 1187.65,-301.307 1188.57,-300.358"/>
<polygon fill="midnightblue" stroke="midnightblue" points="1190.89,-302.987 1196.55,-294.029 1186.54,-297.505 1190.89,-302.987"/>
</g>
<!-- Node13 -->
<g id="node26" class="node"><title>Node13</title>
<a xlink:href="classVector3D.xhtml#ab0dcbf253ff78856eccb5ea74d080fc7" target="_top" xlink:title="Gibt das Z&#45;Element des Vektors zurück. ">
<polygon fill="none" stroke="black" points="1186.5,-312.859 1186.5,-333.859 1269.5,-333.859 1269.5,-312.859 1186.5,-312.859"/>
<text text-anchor="middle" x="1228" y="-320.859" font-family="Helvetica,sans-Serif" font-size="10.00">Vector3D::getZ</text>
</a>
</g>
<!-- Node10&#45;&gt;Node13 -->
<g id="edge26" class="edge"><title>Node10&#45;&gt;Node13</title>
<path fill="none" stroke="midnightblue" d="M1126.31,-534.8C1135.17,-531.818 1143.76,-527.272 1150,-520.359 1203.79,-460.768 1136.56,-406.604 1186,-343.359 1186.93,-342.166 1187.95,-341.04 1189.05,-339.979"/>
<polygon fill="midnightblue" stroke="midnightblue" points="1191.25,-342.703 1197.09,-333.865 1187.01,-337.131 1191.25,-342.703"/>
</g>
<!-- Node14&#45;&gt;Node11 -->
<g id="edge34" class="edge"><title>Node14&#45;&gt;Node11</title>
<path fill="none" stroke="midnightblue" d="M1132.93,-489.83C1139,-487.309 1144.88,-484.197 1150,-480.359 1184.15,-454.778 1208.03,-409.583 1219.74,-383.485"/>
<polygon fill="midnightblue" stroke="midnightblue" points="1223.01,-384.761 1223.76,-374.193 1216.58,-381.983 1223.01,-384.761"/>
</g>
<!-- Node14&#45;&gt;Node12 -->
<g id="edge32" class="edge"><title>Node14&#45;&gt;Node12</title>
<path fill="none" stroke="midnightblue" d="M1137.92,-489.751C1142.43,-487.247 1146.57,-484.161 1150,-480.359 1203.79,-420.768 1136.56,-366.604 1186,-303.359 1186.93,-302.166 1187.95,-301.04 1189.05,-299.979"/>
<polygon fill="midnightblue" stroke="midnightblue" points="1191.25,-302.703 1197.09,-293.865 1187.01,-297.131 1191.25,-302.703"/>
</g>
<!-- Node14&#45;&gt;Node13 -->
<g id="edge30" class="edge"><title>Node14&#45;&gt;Node13</title>
<path fill="none" stroke="midnightblue" d="M1137.39,-489.716C1142.06,-487.222 1146.38,-484.147 1150,-480.359 1193.48,-434.832 1145.85,-391.847 1186,-343.359 1186.97,-342.193 1188.02,-341.09 1189.13,-340.048"/>
<polygon fill="midnightblue" stroke="midnightblue" points="1191.32,-342.78 1197.28,-334.015 1187.16,-337.155 1191.32,-342.78"/>
</g>
<!-- Node15&#45;&gt;Node11 -->
<g id="edge38" class="edge"><title>Node15&#45;&gt;Node11</title>
<path fill="none" stroke="midnightblue" d="M1125.55,-390.774C1142.02,-386.368 1161.31,-381.206 1178.68,-376.556"/>
<polygon fill="midnightblue" stroke="midnightblue" points="1179.9,-379.854 1188.66,-373.887 1178.09,-373.092 1179.9,-379.854"/>
</g>
<!-- Node15&#45;&gt;Node12 -->
<g id="edge40" class="edge"><title>Node15&#45;&gt;Node12</title>
<path fill="none" stroke="midnightblue" d="M1098.61,-390.602C1111.78,-379.221 1132.85,-360.566 1150,-343.359 1166.88,-326.418 1166.83,-317.666 1186,-303.359 1188.1,-301.795 1190.33,-300.307 1192.64,-298.9"/>
<polygon fill="midnightblue" stroke="midnightblue" points="1194.68,-301.773 1201.76,-293.891 1191.31,-295.638 1194.68,-301.773"/>
</g>
<!-- Node15&#45;&gt;Node13 -->
<g id="edge42" class="edge"><title>Node15&#45;&gt;Node13</title>
<path fill="none" stroke="midnightblue" d="M1103.46,-390.653C1123.23,-378.667 1156.53,-358.891 1186,-343.359 1189.09,-341.728 1192.34,-340.077 1195.61,-338.458"/>
<polygon fill="midnightblue" stroke="midnightblue" points="1197.26,-341.547 1204.73,-334.029 1194.2,-335.25 1197.26,-341.547"/>
</g>
<!-- Node19&#45;&gt;Node10 -->
<g id="edge72" class="edge"><title>Node19&#45;&gt;Node10</title>
<path fill="none" stroke="midnightblue" d="M746.113,-434.103C757.113,-461.098 790.091,-531.524 844,-558.359 910.335,-591.38 999.751,-570.531 1049.22,-554.247"/>
<polygon fill="midnightblue" stroke="midnightblue" points="1050.52,-557.503 1058.86,-550.965 1048.26,-550.876 1050.52,-557.503"/>
</g>
<!-- Node19&#45;&gt;Node14 -->
<g id="edge108" class="edge"><title>Node19&#45;&gt;Node14</title>
<path fill="none" stroke="midnightblue" d="M770.248,-434.012C790.541,-441.359 818.672,-450.924 844,-457.359 900.759,-471.78 966.211,-483.096 1014.72,-490.493"/>
<polygon fill="midnightblue" stroke="midnightblue" points="1014.4,-493.984 1024.81,-492.012 1015.44,-487.062 1014.4,-493.984"/>
</g>
<!-- Node19&#45;&gt;Node15 -->
<g id="edge90" class="edge"><title>Node19&#45;&gt;Node15</title>
<path fill="none" stroke="midnightblue" d="M807.513,-419.169C868.509,-415.268 958.962,-409.484 1020.09,-405.574"/>
<polygon fill="midnightblue" stroke="midnightblue" points="1020.63,-409.047 1030.39,-404.916 1020.19,-402.061 1020.63,-409.047"/>
</g>
<!-- Node19&#45;&gt;Node16 -->
<g id="edge92" class="edge"><title>Node19&#45;&gt;Node16</title>
<path fill="none" stroke="midnightblue" d="M743.744,-434.173C754.229,-498.569 809.594,-829.672 844,-858.359 898.179,-903.533 985.217,-894.674 1038.82,-883.186"/>
<polygon fill="midnightblue" stroke="midnightblue" points="1039.76,-886.561 1048.75,-880.946 1038.22,-879.733 1039.76,-886.561"/>
</g>
<!-- Node19&#45;&gt;Node17 -->
<g id="edge70" class="edge"><title>Node19&#45;&gt;Node17</title>
<path fill="none" stroke="midnightblue" d="M742.925,-433.938C748.324,-492.949 777.824,-780.66 844,-832.359 905.666,-880.535 1005.14,-848.331 1055.17,-826.985"/>
<polygon fill="midnightblue" stroke="midnightblue" points="1056.75,-830.115 1064.49,-822.887 1053.93,-823.707 1056.75,-830.115"/>
</g>
<!-- Node20 -->
<g id="node46" class="node"><title>Node20</title>
<a xlink:href="classVector3D.xhtml#ac83e936757114f32bc9d868ea5fabbc2" target="_top" xlink:title="Testet, ob zwei Vektoren identisch sind. ">
<polygon fill="none" stroke="black" points="1040,-272.859 1040,-293.859 1132,-293.859 1132,-272.859 1040,-272.859"/>
<text text-anchor="middle" x="1086" y="-280.859" font-family="Helvetica,sans-Serif" font-size="10.00">Vector3D::equals</text>
</a>
</g>
<!-- Node19&#45;&gt;Node20 -->
<g id="edge52" class="edge"><title>Node19&#45;&gt;Node20</title>
<path fill="none" stroke="midnightblue" d="M742.452,-412.831C744.797,-373.062 759.046,-231.364 844,-174.359 896.406,-139.194 933.312,-139.617 986,-174.359 1019.91,-196.719 992.816,-230.109 1022,-258.359 1025.96,-262.196 1030.58,-265.463 1035.5,-268.24"/>
<polygon fill="midnightblue" stroke="midnightblue" points="1034.05,-271.431 1044.57,-272.728 1037.16,-265.157 1034.05,-271.431"/>
</g>
<!-- Node21 -->
<g id="node51" class="node"><title>Node21</title>
<a xlink:href="classTetrahedron.xhtml#a88afe41ae5991168ad51ba4dbb2e1a6b" target="_top" xlink:title="Gibt eine Referenz auf den Ortsvektor zum index+1 Punkt des Tetraeders zurück. ">
<polygon fill="none" stroke="black" points="862,-373.859 862,-394.859 968,-394.859 968,-373.859 862,-373.859"/>
<text text-anchor="middle" x="915" y="-381.859" font-family="Helvetica,sans-Serif" font-size="10.00">Tetrahedron::getVert</text>
</a>
</g>
<!-- Node19&#45;&gt;Node21 -->
<g id="edge60" class="edge"><title>Node19&#45;&gt;Node21</title>
<path fill="none" stroke="midnightblue" d="M788.816,-412.805C810.26,-407.971 835.857,-402.2 858.375,-397.124"/>
<polygon fill="midnightblue" stroke="midnightblue" points="859.161,-400.535 868.146,-394.921 857.621,-393.706 859.161,-400.535"/>
</g>
<!-- Node22 -->
<g id="node53" class="node"><title>Node22</title>
<a xlink:href="classTetrahedron.xhtml#add51e42ab17afbd023d47a436ce24b0d" target="_top" xlink:title="Gibt eine Referenz auf den Ortsvektor zum 1. ">
<polygon fill="none" stroke="black" points="865,-333.859 865,-354.859 965,-354.859 965,-333.859 865,-333.859"/>
<text text-anchor="middle" x="915" y="-341.859" font-family="Helvetica,sans-Serif" font-size="10.00">Tetrahedron::getV1</text>
</a>
</g>
<!-- Node19&#45;&gt;Node22 -->
<g id="edge62" class="edge"><title>Node19&#45;&gt;Node22</title>
<path fill="none" stroke="midnightblue" d="M757.609,-412.665C777.088,-399.719 811.772,-377.965 844,-364.359 849.442,-362.062 855.227,-359.943 861.056,-358.013"/>
<polygon fill="midnightblue" stroke="midnightblue" points="862.357,-361.273 870.854,-354.945 860.265,-354.593 862.357,-361.273"/>
</g>
<!-- Node23 -->
<g id="node55" class="node"><title>Node23</title>
<a xlink:href="classTetrahedron.xhtml#aa728c967f17e2b8408009b5f2b77a17a" target="_top" xlink:title="Gibt eine Referenz auf den Ortsvektor zum 2. ">
<polygon fill="none" stroke="black" points="865,-293.859 865,-314.859 965,-314.859 965,-293.859 865,-293.859"/>
<text text-anchor="middle" x="915" y="-301.859" font-family="Helvetica,sans-Serif" font-size="10.00">Tetrahedron::getV2</text>
</a>
</g>
<!-- Node19&#45;&gt;Node23 -->
<g id="edge64" class="edge"><title>Node19&#45;&gt;Node23</title>
<path fill="none" stroke="midnightblue" d="M749.993,-412.642C765.712,-392.327 802.727,-348.129 844,-324.359 847.683,-322.238 851.604,-320.331 855.64,-318.618"/>
<polygon fill="midnightblue" stroke="midnightblue" points="857.114,-321.801 865.207,-314.963 854.616,-315.262 857.114,-321.801"/>
</g>
<!-- Node24 -->
<g id="node57" class="node"><title>Node24</title>
<a xlink:href="classTetrahedron.xhtml#aa539a97f133ea621520121acb2ef4a7e" target="_top" xlink:title="Gibt eine Referenz auf den Ortsvektor zum 3. ">
<polygon fill="none" stroke="black" points="865,-253.859 865,-274.859 965,-274.859 965,-253.859 865,-253.859"/>
<text text-anchor="middle" x="915" y="-261.859" font-family="Helvetica,sans-Serif" font-size="10.00">Tetrahedron::getV3</text>
</a>
</g>
<!-- Node19&#45;&gt;Node24 -->
<g id="edge66" class="edge"><title>Node19&#45;&gt;Node24</title>
<path fill="none" stroke="midnightblue" d="M746.704,-412.79C758.842,-386.758 793.817,-319.147 844,-284.359 847.552,-281.897 851.402,-279.736 855.408,-277.84"/>
<polygon fill="midnightblue" stroke="midnightblue" points="857.076,-280.938 864.977,-273.88 854.399,-274.47 857.076,-280.938"/>
</g>
<!-- Node25 -->
<g id="node59" class="node"><title>Node25</title>
<a xlink:href="classTriangle.xhtml#a6de5f8560482f4130bdbb96b25aa1b58" target="_top" xlink:title="Gibt eine Referenz auf den Ortsvektor zum zweiten Punkt des Dreiecks zurück. ">
<polygon fill="none" stroke="black" points="873.5,-213.859 873.5,-234.859 956.5,-234.859 956.5,-213.859 873.5,-213.859"/>
<text text-anchor="middle" x="915" y="-221.859" font-family="Helvetica,sans-Serif" font-size="10.00">Triangle::getV2</text>
</a>
</g>
<!-- Node19&#45;&gt;Node25 -->
<g id="edge68" class="edge"><title>Node19&#45;&gt;Node25</title>
<path fill="none" stroke="midnightblue" d="M744.965,-412.58C754.1,-381.44 784.833,-290.632 844,-244.359 849.826,-239.803 856.636,-236.285 863.69,-233.568"/>
<polygon fill="midnightblue" stroke="midnightblue" points="865.009,-236.818 873.391,-230.338 862.798,-230.176 865.009,-236.818"/>
</g>
<!-- Node26 -->
<g id="node63" class="node"><title>Node26</title>
<a xlink:href="classTriangle.xhtml#ae054a0eae5dae026c5af69274c5f277e" target="_top" xlink:title="Gibt eine Referenz auf den Ortsvektor zum ersten Punkt des Dreiecks zurück. ">
<polygon fill="none" stroke="black" points="873.5,-685.859 873.5,-706.859 956.5,-706.859 956.5,-685.859 873.5,-685.859"/>
<text text-anchor="middle" x="915" y="-693.859" font-family="Helvetica,sans-Serif" font-size="10.00">Triangle::getV1</text>
</a>
</g>
<!-- Node19&#45;&gt;Node26 -->
<g id="edge74" class="edge"><title>Node19&#45;&gt;Node26</title>
<path fill="none" stroke="midnightblue" d="M742.995,-433.871C747.216,-472.43 767.14,-607.427 844,-676.359 849.571,-681.356 856.299,-685.113 863.364,-687.937"/>
<polygon fill="midnightblue" stroke="midnightblue" points="862.537,-691.352 873.131,-691.238 864.778,-684.72 862.537,-691.352"/>
</g>
<!-- Node27 -->
<g id="node65" class="node"><title>Node27</title>
<a xlink:href="classTriangle.xhtml#a792a627dc42adad87c0b30e16a6b5824" target="_top" xlink:title="Gibt eine Referenz auf den Ortsvektor zum dritten Punkt des Dreiecks zurück. ">
<polygon fill="none" stroke="black" points="873.5,-645.859 873.5,-666.859 956.5,-666.859 956.5,-645.859 873.5,-645.859"/>
<text text-anchor="middle" x="915" y="-653.859" font-family="Helvetica,sans-Serif" font-size="10.00">Triangle::getV3</text>
</a>
</g>
<!-- Node19&#45;&gt;Node27 -->
<g id="edge76" class="edge"><title>Node19&#45;&gt;Node27</title>
<path fill="none" stroke="midnightblue" d="M743.914,-434.116C750.692,-468.983 776.857,-579.876 844,-636.359 849.727,-641.177 856.539,-644.837 863.642,-647.617"/>
<polygon fill="midnightblue" stroke="midnightblue" points="862.84,-651.039 873.434,-650.889 865.059,-644.4 862.84,-651.039"/>
</g>
<!-- Node28 -->
<g id="node67" class="node"><title>Node28</title>
<a xlink:href="classTetrahedron.xhtml#a7308b7b73edeba7782dff551a03095bf" target="_top" xlink:title="Gibt eine Referenz auf den Ortsvektor zum 3. ">
<polygon fill="none" stroke="black" points="865,-605.859 865,-626.859 965,-626.859 965,-605.859 865,-605.859"/>
<text text-anchor="middle" x="915" y="-613.859" font-family="Helvetica,sans-Serif" font-size="10.00">Tetrahedron::getV4</text>
</a>
</g>
<!-- Node19&#45;&gt;Node28 -->
<g id="edge78" class="edge"><title>Node19&#45;&gt;Node28</title>
<path fill="none" stroke="midnightblue" d="M745.601,-434.145C756,-463.679 788.896,-546.63 844,-591.359 848.994,-595.413 854.692,-598.832 860.639,-601.71"/>
<polygon fill="midnightblue" stroke="midnightblue" points="859.555,-605.054 870.123,-605.803 862.328,-598.627 859.555,-605.054"/>
</g>
<!-- Node29 -->
<g id="node69" class="node"><title>Node29</title>
<a xlink:href="classTriangle.xhtml#a3c72b19f316fa9ffb0a2f206e3558790" target="_top" xlink:title="Gibt die Normale des Dreiecks zurück. ">
<polygon fill="none" stroke="black" points="864,-527.859 864,-548.859 966,-548.859 966,-527.859 864,-527.859"/>
<text text-anchor="middle" x="915" y="-535.859" font-family="Helvetica,sans-Serif" font-size="10.00">Triangle::getNormal</text>
</a>
</g>
<!-- Node19&#45;&gt;Node29 -->
<g id="edge80" class="edge"><title>Node19&#45;&gt;Node29</title>
<path fill="none" stroke="midnightblue" d="M751.393,-433.983C768.255,-452.477 805.506,-490.765 844,-513.359 851.131,-517.545 859.074,-521.188 866.993,-524.302"/>
<polygon fill="midnightblue" stroke="midnightblue" points="865.99,-527.663 876.583,-527.839 868.412,-521.095 865.99,-527.663"/>
</g>
<!-- Node30 -->
<g id="node74" class="node"><title>Node30</title>
<a xlink:href="classVector3D.xhtml#abfb12ecb9c9beb88e095cc4a1a512d3c" target="_top" xlink:title="Normalisiert den Vektor. ">
<polygon fill="none" stroke="black" points="1033,-449.859 1033,-470.859 1139,-470.859 1139,-449.859 1033,-449.859"/>
<text text-anchor="middle" x="1086" y="-457.859" font-family="Helvetica,sans-Serif" font-size="10.00">Vector3D::normalize</text>
</a>
</g>
<!-- Node19&#45;&gt;Node30 -->
<g id="edge120" class="edge"><title>Node19&#45;&gt;Node30</title>
<path fill="none" stroke="midnightblue" d="M807.513,-430.406C869.339,-437.055 961.426,-446.96 1022.56,-453.536"/>
<polygon fill="midnightblue" stroke="midnightblue" points="1022.53,-457.053 1032.85,-454.642 1023.28,-450.093 1022.53,-457.053"/>
</g>
<!-- Node31 -->
<g id="node78" class="node"><title>Node31</title>
<a xlink:href="classVector3D.xhtml#a4bf1dcea68296f2f38f3574242933153" target="_top" xlink:title="Gibt den Winkel zu einem anderen Vektor in RAD zurück. ">
<polygon fill="none" stroke="black" points="858.5,-59.859 858.5,-80.859 971.5,-80.859 971.5,-59.859 858.5,-59.859"/>
<text text-anchor="middle" x="915" y="-67.859" font-family="Helvetica,sans-Serif" font-size="10.00">Vector3D::getAngleTo</text>
</a>
</g>
<!-- Node19&#45;&gt;Node31 -->
<g id="edge94" class="edge"><title>Node19&#45;&gt;Node31</title>
<path fill="none" stroke="midnightblue" d="M743.738,-412.745C750.64,-372.979 778.963,-230.154 844,-133.359 856.292,-115.064 875.121,-98.6891 890.3,-87.2217"/>
<polygon fill="midnightblue" stroke="midnightblue" points="892.727,-89.7836 898.739,-81.0596 888.599,-84.1303 892.727,-89.7836"/>
</g>
<!-- Node32 -->
<g id="node83" class="node"><title>Node32</title>
<a xlink:href="classVector3D.xhtml#a2e3aa1d244483abcb1a8e48e47e79512" target="_top" xlink:title="Gibt die Länge des Vektors zurück. ">
<polygon fill="none" stroke="black" points="1032.5,-59.859 1032.5,-80.859 1139.5,-80.859 1139.5,-59.859 1032.5,-59.859"/>
<text text-anchor="middle" x="1086" y="-67.859" font-family="Helvetica,sans-Serif" font-size="10.00">Vector3D::getLength</text>
</a>
</g>
<!-- Node19&#45;&gt;Node32 -->
<g id="edge106" class="edge"><title>Node19&#45;&gt;Node32</title>
<path fill="none" stroke="midnightblue" d="M742.993,-412.576C748.655,-353.712 778.929,-71.9818 844,-21.359 909.659,29.7206 1014.84,-24.8001 1061.89,-54.172"/>
<polygon fill="midnightblue" stroke="midnightblue" points="1060.18,-57.2362 1070.49,-59.6723 1063.95,-51.3379 1060.18,-57.2362"/>
</g>
<!-- Node34 -->
<g id="node89" class="node"><title>Node34</title>
<a xlink:href="classVector3D.xhtml#a42deb992ec2f44abfb5824ea4917135c" target="_top" xlink:title="Gibt den Abstand zu einem anderen Vektor zurück. ">
<polygon fill="none" stroke="black" points="1022,-194.859 1022,-215.859 1150,-215.859 1150,-194.859 1022,-194.859"/>
<text text-anchor="middle" x="1086" y="-202.859" font-family="Helvetica,sans-Serif" font-size="10.00">Vector3D::getDistanceTo</text>
</a>
</g>
<!-- Node19&#45;&gt;Node34 -->
<g id="edge110" class="edge"><title>Node19&#45;&gt;Node34</title>
<path fill="none" stroke="midnightblue" d="M743.21,-412.615C749.784,-356.385 783.163,-96.7936 844,-50.359 894.168,-12.0681 930.582,-20.1621 986,-50.359 999.834,-57.8968 1051.48,-145.425 1074.64,-185.52"/>
<polygon fill="midnightblue" stroke="midnightblue" points="1071.73,-187.478 1079.75,-194.399 1077.8,-183.986 1071.73,-187.478"/>
</g>
<!-- Node35 -->
<g id="node96" class="node"><title>Node35</title>
<a xlink:href="classVector3D.xhtml#a0d14ff1f789254ff90adc22628eb8347" target="_top" xlink:title="Addiert einen Vektor zu diesem Vektor. ">
<polygon fill="none" stroke="black" points="1046,-312.859 1046,-333.859 1126,-333.859 1126,-312.859 1046,-312.859"/>
<text text-anchor="middle" x="1086" y="-320.859" font-family="Helvetica,sans-Serif" font-size="10.00">Vector3D::add</text>
</a>
</g>
<!-- Node19&#45;&gt;Node35 -->
<g id="edge122" class="edge"><title>Node19&#45;&gt;Node35</title>
<path fill="none" stroke="midnightblue" d="M743.097,-412.556C747.511,-375.485 767.603,-253.053 844,-204.359 897.22,-170.437 934.308,-168.152 986,-204.359 1024.35,-231.219 988.143,-271.021 1022,-303.359 1026.1,-307.279 1030.97,-310.431 1036.15,-312.966"/>
<polygon fill="midnightblue" stroke="midnightblue" points="1035.15,-316.338 1045.73,-316.894 1037.8,-309.861 1035.15,-316.338"/>
</g>
<!-- Node20&#45;&gt;Node11 -->
<g id="edge54" class="edge"><title>Node20&#45;&gt;Node11</title>
<path fill="none" stroke="midnightblue" d="M1130.76,-293.945C1137.48,-296.485 1144.12,-299.587 1150,-303.359 1170.13,-316.274 1166.83,-329.053 1186,-343.359 1188.1,-344.923 1190.33,-346.411 1192.64,-347.818"/>
<polygon fill="midnightblue" stroke="midnightblue" points="1191.31,-351.08 1201.76,-352.827 1194.68,-344.945 1191.31,-351.08"/>
</g>
<!-- Node20&#45;&gt;Node12 -->
<g id="edge56" class="edge"><title>Node20&#45;&gt;Node12</title>
<path fill="none" stroke="midnightblue" d="M1132.1,-283.359C1146.05,-283.359 1161.46,-283.359 1175.78,-283.359"/>
<polygon fill="midnightblue" stroke="midnightblue" points="1175.97,-286.859 1185.97,-283.359 1175.97,-279.859 1175.97,-286.859"/>
</g>
<!-- Node20&#45;&gt;Node13 -->
<g id="edge58" class="edge"><title>Node20&#45;&gt;Node13</title>
<path fill="none" stroke="midnightblue" d="M1123.31,-293.869C1140.86,-298.813 1161.99,-304.765 1180.66,-310.023"/>
<polygon fill="midnightblue" stroke="midnightblue" points="1179.87,-313.438 1190.45,-312.781 1181.77,-306.7 1179.87,-313.438"/>
</g>
<!-- Node29&#45;&gt;Node10 -->
<g id="edge84" class="edge"><title>Node29&#45;&gt;Node10</title>
<path fill="none" stroke="midnightblue" d="M966.306,-538.959C988.302,-539.216 1013.91,-539.516 1035.79,-539.772"/>
<polygon fill="midnightblue" stroke="midnightblue" points="1035.83,-543.272 1045.87,-539.89 1035.91,-536.273 1035.83,-543.272"/>
</g>
<!-- Node29&#45;&gt;Node14 -->
<g id="edge86" class="edge"><title>Node29&#45;&gt;Node14</title>
<path fill="none" stroke="midnightblue" d="M962.633,-527.774C983.108,-523.224 1007.21,-517.867 1028.66,-513.102"/>
<polygon fill="midnightblue" stroke="midnightblue" points="1029.62,-516.473 1038.62,-510.887 1028.1,-509.64 1029.62,-516.473"/>
</g>
<!-- Node29&#45;&gt;Node17 -->
<g id="edge82" class="edge"><title>Node29&#45;&gt;Node17</title>
<path fill="none" stroke="midnightblue" d="M932.071,-549.014C947.746,-559.494 970.782,-576.739 986,-596.359 1035.18,-659.769 1067.29,-751.271 1079.93,-791.757"/>
<polygon fill="midnightblue" stroke="midnightblue" points="1076.65,-792.999 1082.91,-801.545 1083.34,-790.959 1076.65,-792.999"/>
</g>
<!-- Node29&#45;&gt;Node30 -->
<g id="edge88" class="edge"><title>Node29&#45;&gt;Node30</title>
<path fill="none" stroke="midnightblue" d="M931.911,-527.854C952.584,-515.33 988.912,-494.341 1022,-480.359 1027.16,-478.178 1032.64,-476.111 1038.14,-474.191"/>
<polygon fill="midnightblue" stroke="midnightblue" points="1039.62,-477.388 1048,-470.902 1037.4,-470.748 1039.62,-477.388"/>
</g>
<!-- Node31&#45;&gt;Node11 -->
<g id="edge96" class="edge"><title>Node31&#45;&gt;Node11</title>
<path fill="none" stroke="midnightblue" d="M966.658,-80.8884C974.036,-84.4077 980.854,-89.1009 986,-95.359 1056.74,-181.386 941.401,-266.491 1022,-343.359 1062.33,-381.827 1129.42,-381.02 1176.03,-374.41"/>
<polygon fill="midnightblue" stroke="midnightblue" points="1176.6,-377.865 1185.94,-372.875 1175.53,-370.947 1176.6,-377.865"/>
</g>
<!-- Node31&#45;&gt;Node12 -->
<g id="edge98" class="edge"><title>Node31&#45;&gt;Node12</title>
<path fill="none" stroke="midnightblue" d="M948.711,-80.9546C997.202,-97.4202 1087.65,-132.82 1150,-185.359 1177.67,-208.673 1202.32,-243.077 1216.19,-264.308"/>
<polygon fill="midnightblue" stroke="midnightblue" points="1213.27,-266.251 1221.61,-272.79 1219.17,-262.48 1213.27,-266.251"/>
</g>
<!-- Node31&#45;&gt;Node13 -->
<g id="edge100" class="edge"><title>Node31&#45;&gt;Node13</title>
<path fill="none" stroke="midnightblue" d="M964.911,-80.9747C972.772,-84.4834 980.203,-89.1508 986,-95.359 1026.92,-139.176 980,-182.577 1022,-225.359 1063.57,-267.706 1099.83,-231.672 1150,-263.359 1170.22,-276.13 1166.83,-289.053 1186,-303.359 1188.1,-304.923 1190.33,-306.411 1192.64,-307.818"/>
<polygon fill="midnightblue" stroke="midnightblue" points="1191.31,-311.08 1201.76,-312.827 1194.68,-304.945 1191.31,-311.08"/>
</g>
<!-- Node31&#45;&gt;Node32 -->
<g id="edge102" class="edge"><title>Node31&#45;&gt;Node32</title>
<path fill="none" stroke="midnightblue" d="M971.941,-70.359C988.112,-70.359 1005.82,-70.359 1022.37,-70.359"/>
<polygon fill="midnightblue" stroke="midnightblue" points="1022.49,-73.8591 1032.49,-70.359 1022.49,-66.8591 1022.49,-73.8591"/>
</g>
<!-- Node33 -->
<g id="node85" class="node"><title>Node33</title>
<a xlink:href="GeometryClasses_8cpp.xhtml#a73527f20206c906e9f333e0f233de13e" target="_top" xlink:title="sqr">
<polygon fill="none" stroke="black" points="1213,-127.859 1213,-148.859 1243,-148.859 1243,-127.859 1213,-127.859"/>
<text text-anchor="middle" x="1228" y="-135.859" font-family="Helvetica,sans-Serif" font-size="10.00">sqr</text>
</a>
</g>
<!-- Node32&#45;&gt;Node33 -->
<g id="edge104" class="edge"><title>Node32&#45;&gt;Node33</title>
<path fill="none" stroke="midnightblue" d="M1108.19,-80.984C1134.17,-93.4263 1177.06,-113.963 1203.85,-126.796"/>
<polygon fill="midnightblue" stroke="midnightblue" points="1202.41,-129.984 1212.94,-131.146 1205.43,-123.67 1202.41,-129.984"/>
</g>
<!-- Node34&#45;&gt;Node11 -->
<g id="edge114" class="edge"><title>Node34&#45;&gt;Node11</title>
<path fill="none" stroke="midnightblue" d="M1100.83,-215.926C1114.95,-226.595 1136.07,-244.197 1150,-263.359 1172.93,-294.894 1158.73,-315.493 1186,-343.359 1187.24,-344.629 1188.58,-345.828 1189.99,-346.96"/>
<polygon fill="midnightblue" stroke="midnightblue" points="1188.4,-350.101 1198.66,-352.718 1192.27,-344.27 1188.4,-350.101"/>
</g>
<!-- Node34&#45;&gt;Node12 -->
<g id="edge116" class="edge"><title>Node34&#45;&gt;Node12</title>
<path fill="none" stroke="midnightblue" d="M1117.22,-215.95C1127.85,-219.973 1139.66,-224.913 1150,-230.359 1169.98,-240.879 1191.07,-255.449 1206.28,-266.65"/>
<polygon fill="midnightblue" stroke="midnightblue" points="1204.4,-269.612 1214.5,-272.8 1208.59,-264.007 1204.4,-269.612"/>
</g>
<!-- Node34&#45;&gt;Node13 -->
<g id="edge118" class="edge"><title>Node34&#45;&gt;Node13</title>
<path fill="none" stroke="midnightblue" d="M1126.52,-215.966C1134.97,-219.536 1143.32,-224.229 1150,-230.359 1176.65,-254.819 1160.25,-277.956 1186,-303.359 1187.42,-304.763 1188.96,-306.082 1190.59,-307.32"/>
<polygon fill="midnightblue" stroke="midnightblue" points="1188.9,-310.396 1199.21,-312.847 1192.68,-304.503 1188.9,-310.396"/>
</g>
<!-- Node34&#45;&gt;Node33 -->
<g id="edge112" class="edge"><title>Node34&#45;&gt;Node33</title>
<path fill="none" stroke="midnightblue" d="M1108.5,-194.743C1134.41,-182.518 1176.83,-162.505 1203.54,-149.902"/>
<polygon fill="midnightblue" stroke="midnightblue" points="1205.06,-153.054 1212.61,-145.622 1202.07,-146.724 1205.06,-153.054"/>
</g>
<!-- Node35&#45;&gt;Node11 -->
<g id="edge124" class="edge"><title>Node35&#45;&gt;Node11</title>
<path fill="none" stroke="midnightblue" d="M1123.31,-333.869C1140.86,-338.813 1161.99,-344.765 1180.66,-350.023"/>
<polygon fill="midnightblue" stroke="midnightblue" points="1179.87,-353.438 1190.45,-352.781 1181.77,-346.7 1179.87,-353.438"/>
</g>
<!-- Node35&#45;&gt;Node12 -->
<g id="edge126" class="edge"><title>Node35&#45;&gt;Node12</title>
<path fill="none" stroke="midnightblue" d="M1123.31,-312.85C1140.86,-307.905 1161.99,-301.953 1180.66,-296.695"/>
<polygon fill="midnightblue" stroke="midnightblue" points="1181.77,-300.018 1190.45,-293.937 1179.87,-293.28 1181.77,-300.018"/>
</g>
<!-- Node35&#45;&gt;Node13 -->
<g id="edge128" class="edge"><title>Node35&#45;&gt;Node13</title>
<path fill="none" stroke="midnightblue" d="M1126.31,-323.359C1141.65,-323.359 1159.35,-323.359 1175.64,-323.359"/>
<polygon fill="midnightblue" stroke="midnightblue" points="1176.1,-326.859 1186.1,-323.359 1176.1,-319.859 1176.1,-326.859"/>
</g>
</g>
</svg>
