<?xml version="1.0" encoding="UTF-8" standalone="no"?>
<!DOCTYPE svg PUBLIC "-//W3C//DTD SVG 1.1//EN"
 "http://www.w3.org/Graphics/SVG/1.1/DTD/svg11.dtd">
<!-- Generated by graphviz version 2.26.3 (20100126.1600)
 -->
<!-- Title: tetgenmesh::enqueuetetrahedron Pages: 1 -->
<svg width="614pt" height="122pt"
 viewBox="0.00 0.00 614.00 122.00" xmlns="http://www.w3.org/2000/svg" xmlns:xlink="http://www.w3.org/1999/xlink">
<g id="graph1" class="graph" transform="scale(1 1) rotate(0) translate(4 118)">
<title>tetgenmesh::enqueuetetrahedron</title>
<!-- Node1 -->
<g id="node1" class="node"><title>Node1</title>
<polygon fill="#bfbfbf" stroke="black" points="0.5,-52.5 0.5,-73.5 159.5,-73.5 159.5,-52.5 0.5,-52.5"/>
<text text-anchor="middle" x="80" y="-60.5" font-family="Helvetica,sans-Serif" font-size="10.00">tetgenmesh::enqueuetetrahedron</text>
</g>
<!-- Node2 -->
<g id="node3" class="node"><title>Node2</title>
<a xlink:href="classtetgenmesh.xhtml#ad4d3ded9c1d8981db9d25351381c2766" target="_top" xlink:title="tetgenmesh::marktest2ed">
<polygon fill="none" stroke="black" points="196,-92.5 196,-113.5 324,-113.5 324,-92.5 196,-92.5"/>
<text text-anchor="middle" x="260" y="-100.5" font-family="Helvetica,sans-Serif" font-size="10.00">tetgenmesh::marktest2ed</text>
</a>
</g>
<!-- Node1&#45;&gt;Node2 -->
<g id="edge2" class="edge"><title>Node1&#45;&gt;Node2</title>
<path fill="none" stroke="midnightblue" d="M127.293,-73.5095C150.455,-78.6566 178.529,-84.8954 202.88,-90.3067"/>
<polygon fill="midnightblue" stroke="midnightblue" points="202.19,-93.7386 212.711,-92.4913 203.708,-86.9052 202.19,-93.7386"/>
</g>
<!-- Node3 -->
<g id="node5" class="node"><title>Node3</title>
<a xlink:href="classtetgenmesh.xhtml#aaeb2fae51d48efe3b6b320194a555177" target="_top" xlink:title="tetgenmesh::marktest2">
<polygon fill="none" stroke="black" points="201.5,-52.5 201.5,-73.5 318.5,-73.5 318.5,-52.5 201.5,-52.5"/>
<text text-anchor="middle" x="260" y="-60.5" font-family="Helvetica,sans-Serif" font-size="10.00">tetgenmesh::marktest2</text>
</a>
</g>
<!-- Node1&#45;&gt;Node3 -->
<g id="edge4" class="edge"><title>Node1&#45;&gt;Node3</title>
<path fill="none" stroke="midnightblue" d="M159.737,-63C170.245,-63 180.943,-63 191.247,-63"/>
<polygon fill="midnightblue" stroke="midnightblue" points="191.397,-66.5001 201.397,-63 191.397,-59.5001 191.397,-66.5001"/>
</g>
<!-- Node4 -->
<g id="node7" class="node"><title>Node4</title>
<a xlink:href="classtetgenmesh_1_1memorypool.xhtml#a9631e38a788a91ae067a756232b515ab" target="_top" xlink:title="tetgenmesh::memorypool\l::alloc">
<polygon fill="none" stroke="black" points="196.5,-0 196.5,-34 323.5,-34 323.5,-0 196.5,-0"/>
<text text-anchor="start" x="204.5" y="-21" font-family="Helvetica,sans-Serif" font-size="10.00">tetgenmesh::memorypool</text>
<text text-anchor="middle" x="260" y="-8" font-family="Helvetica,sans-Serif" font-size="10.00">::alloc</text>
</a>
</g>
<!-- Node1&#45;&gt;Node4 -->
<g id="edge6" class="edge"><title>Node1&#45;&gt;Node4</title>
<path fill="none" stroke="midnightblue" d="M121.296,-52.4467C140.644,-47.502 164.29,-41.4591 186.54,-35.7732"/>
<polygon fill="midnightblue" stroke="midnightblue" points="187.485,-39.1441 196.307,-33.277 185.752,-32.3621 187.485,-39.1441"/>
</g>
<!-- Node5 -->
<g id="node9" class="node"><title>Node5</title>
<a xlink:href="tetgen_8h.xhtml#a4012bf160c63ec4ff007f6645b993ca5" target="_top" xlink:title="terminatetetgen">
<polygon fill="none" stroke="black" points="360,-6.5 360,-27.5 444,-27.5 444,-6.5 360,-6.5"/>
<text text-anchor="middle" x="402" y="-14.5" font-family="Helvetica,sans-Serif" font-size="10.00">terminatetetgen</text>
</a>
</g>
<!-- Node4&#45;&gt;Node5 -->
<g id="edge8" class="edge"><title>Node4&#45;&gt;Node5</title>
<path fill="none" stroke="midnightblue" d="M323.524,-17C332.239,-17 341.106,-17 349.591,-17"/>
<polygon fill="midnightblue" stroke="midnightblue" points="349.717,-20.5001 359.717,-17 349.717,-13.5001 349.717,-20.5001"/>
</g>
<!-- Node6 -->
<g id="node11" class="node"><title>Node6</title>
<a xlink:href="classtetgenmesh.xhtml#ade805f03ec7ca1b4623c8148fb915278" target="_top" xlink:title="tetgenmesh::freememory">
<polygon fill="none" stroke="black" points="480.5,-6.5 480.5,-27.5 605.5,-27.5 605.5,-6.5 480.5,-6.5"/>
<text text-anchor="middle" x="543" y="-14.5" font-family="Helvetica,sans-Serif" font-size="10.00">tetgenmesh::freememory</text>
</a>
</g>
<!-- Node5&#45;&gt;Node6 -->
<g id="edge10" class="edge"><title>Node5&#45;&gt;Node6</title>
<path fill="none" stroke="midnightblue" d="M444.305,-17C452.556,-17 461.424,-17 470.338,-17"/>
<polygon fill="midnightblue" stroke="midnightblue" points="470.392,-20.5001 480.392,-17 470.392,-13.5001 470.392,-20.5001"/>
</g>
</g>
</svg>
