<?xml version="1.0" encoding="UTF-8" standalone="no"?>
<!DOCTYPE svg PUBLIC "-//W3C//DTD SVG 1.1//EN"
 "http://www.w3.org/Graphics/SVG/1.1/DTD/svg11.dtd">
<!-- Generated by graphviz version 2.26.3 (20100126.1600)
 -->
<!-- Title: tetgenmesh::removefacebyflips Pages: 1 -->
<svg width="1384pt" height="134pt"
 viewBox="0.00 0.00 1384.00 134.00" xmlns="http://www.w3.org/2000/svg" xmlns:xlink="http://www.w3.org/1999/xlink">
<g id="graph1" class="graph" transform="scale(1 1) rotate(0) translate(4 130)">
<title>tetgenmesh::removefacebyflips</title>
<!-- Node1 -->
<g id="node1" class="node"><title>Node1</title>
<polygon fill="#bfbfbf" stroke="black" points="0.5,-45.5 0.5,-66.5 153.5,-66.5 153.5,-45.5 0.5,-45.5"/>
<text text-anchor="middle" x="77" y="-53.5" font-family="Helvetica,sans-Serif" font-size="10.00">tetgenmesh::removefacebyflips</text>
</g>
<!-- Node2 -->
<g id="node3" class="node"><title>Node2</title>
<a xlink:href="classtetgenmesh.xhtml#a558494ab92a7012fae3cfe96bb33f8e9" target="_top" xlink:title="tetgenmesh::recoveredgebyflips">
<polygon fill="none" stroke="black" points="377.5,-66.5 377.5,-87.5 532.5,-87.5 532.5,-66.5 377.5,-66.5"/>
<text text-anchor="middle" x="455" y="-74.5" font-family="Helvetica,sans-Serif" font-size="10.00">tetgenmesh::recoveredgebyflips</text>
</a>
</g>
<!-- Node1&#45;&gt;Node2 -->
<g id="edge2" class="edge"><title>Node1&#45;&gt;Node2</title>
<path fill="none" stroke="midnightblue" d="M164.072,-60.8373C228.389,-64.4105 315.176,-69.232 377.185,-72.677"/>
<polygon fill="midnightblue" stroke="midnightblue" points="164.128,-57.3352 153.95,-60.275 163.74,-64.3244 164.128,-57.3352"/>
</g>
<!-- Node13 -->
<g id="node26" class="node"><title>Node13</title>
<a xlink:href="classtetgenmesh.xhtml#a3de6e9d82e74671af7f038043b5e9bcc" target="_top" xlink:title="tetgenmesh::add_steinerpt\l_in_segment">
<polygon fill="none" stroke="black" points="190,-17 190,-51 322,-51 322,-17 190,-17"/>
<text text-anchor="start" x="198" y="-38" font-family="Helvetica,sans-Serif" font-size="10.00">tetgenmesh::add_steinerpt</text>
<text text-anchor="middle" x="256" y="-25" font-family="Helvetica,sans-Serif" font-size="10.00">_in_segment</text>
</a>
</g>
<!-- Node1&#45;&gt;Node13 -->
<g id="edge26" class="edge"><title>Node1&#45;&gt;Node13</title>
<path fill="none" stroke="midnightblue" d="M163.629,-45.3528C172.462,-44.2672 181.332,-43.1771 189.895,-42.1247"/>
<polygon fill="midnightblue" stroke="midnightblue" points="163.189,-41.8805 153.691,-46.5743 164.043,-48.8282 163.189,-41.8805"/>
</g>
<!-- Node3 -->
<g id="node5" class="node"><title>Node3</title>
<a xlink:href="classtetgenmesh.xhtml#a50e12e269b11573e6e1b91347ad19b37" target="_top" xlink:title="tetgenmesh::recoversegments">
<polygon fill="none" stroke="black" points="588.5,-26.5 588.5,-47.5 737.5,-47.5 737.5,-26.5 588.5,-26.5"/>
<text text-anchor="middle" x="663" y="-34.5" font-family="Helvetica,sans-Serif" font-size="10.00">tetgenmesh::recoversegments</text>
</a>
</g>
<!-- Node2&#45;&gt;Node3 -->
<g id="edge4" class="edge"><title>Node2&#45;&gt;Node3</title>
<path fill="none" stroke="midnightblue" d="M519.513,-64.5937C547.994,-59.1166 581.115,-52.7472 608.355,-47.5087"/>
<polygon fill="midnightblue" stroke="midnightblue" points="518.809,-61.1649 509.65,-66.4905 520.131,-68.0389 518.809,-61.1649"/>
</g>
<!-- Node12 -->
<g id="node23" class="node"><title>Node12</title>
<a xlink:href="classtetgenmesh.xhtml#ace09080e4f274e0a48cd1728475878c9" target="_top" xlink:title="tetgenmesh::recoversubfaces">
<polygon fill="none" stroke="black" points="590,-66.5 590,-87.5 736,-87.5 736,-66.5 590,-66.5"/>
<text text-anchor="middle" x="663" y="-74.5" font-family="Helvetica,sans-Serif" font-size="10.00">tetgenmesh::recoversubfaces</text>
</a>
</g>
<!-- Node2&#45;&gt;Node12 -->
<g id="edge22" class="edge"><title>Node2&#45;&gt;Node12</title>
<path fill="none" stroke="midnightblue" d="M542.926,-77C558.547,-77 574.664,-77 589.821,-77"/>
<polygon fill="midnightblue" stroke="midnightblue" points="542.747,-73.5001 532.747,-77 542.747,-80.5001 542.747,-73.5001"/>
</g>
<!-- Node4 -->
<g id="node7" class="node"><title>Node4</title>
<a xlink:href="classtetgenmesh.xhtml#a1be7dce56688fbe7a97fc31f98b61c19" target="_top" xlink:title="tetgenmesh::recoverboundary">
<polygon fill="none" stroke="black" points="774,-46.5 774,-67.5 920,-67.5 920,-46.5 774,-46.5"/>
<text text-anchor="middle" x="847" y="-54.5" font-family="Helvetica,sans-Serif" font-size="10.00">tetgenmesh::recoverboundary</text>
</a>
</g>
<!-- Node3&#45;&gt;Node4 -->
<g id="edge6" class="edge"><title>Node3&#45;&gt;Node4</title>
<path fill="none" stroke="midnightblue" d="M747.739,-46.2107C756.447,-47.1573 765.243,-48.1134 773.812,-49.0447"/>
<polygon fill="midnightblue" stroke="midnightblue" points="747.894,-42.7071 737.575,-45.1059 747.138,-49.6661 747.894,-42.7071"/>
</g>
<!-- Node5 -->
<g id="node9" class="node"><title>Node5</title>
<a xlink:href="tetgen_8h.xhtml#ad3637eb4ffe7fda90667e67b7771d964" target="_top" xlink:title="tetrahedralize">
<polygon fill="none" stroke="black" points="956.5,-46.5 956.5,-67.5 1031.5,-67.5 1031.5,-46.5 956.5,-46.5"/>
<text text-anchor="middle" x="994" y="-54.5" font-family="Helvetica,sans-Serif" font-size="10.00">tetrahedralize</text>
</a>
</g>
<!-- Node4&#45;&gt;Node5 -->
<g id="edge8" class="edge"><title>Node4&#45;&gt;Node5</title>
<path fill="none" stroke="midnightblue" d="M930.328,-57C939.365,-57 948.2,-57 956.274,-57"/>
<polygon fill="midnightblue" stroke="midnightblue" points="930.069,-53.5001 920.069,-57 930.069,-60.5001 930.069,-53.5001"/>
</g>
<!-- Node6 -->
<g id="node11" class="node"><title>Node6</title>
<a xlink:href="classGUICutRenderWindow.xhtml#a9eedb7088ad31f4680a77ed3a06fa60c" target="_top" xlink:title="Berechnet die 2D&#45;Temperaturverteilung als Grafik. ">
<polygon fill="none" stroke="black" points="1070.5,-89 1070.5,-123 1187.5,-123 1187.5,-89 1070.5,-89"/>
<text text-anchor="start" x="1078.5" y="-110" font-family="Helvetica,sans-Serif" font-size="10.00">GUICutRenderWindow</text>
<text text-anchor="middle" x="1129" y="-97" font-family="Helvetica,sans-Serif" font-size="10.00">::renderImage</text>
</a>
</g>
<!-- Node5&#45;&gt;Node6 -->
<g id="edge10" class="edge"><title>Node5&#45;&gt;Node6</title>
<path fill="none" stroke="midnightblue" d="M1032.67,-71.0375C1048.06,-76.6228 1065.91,-83.1014 1082.03,-88.953"/>
<polygon fill="midnightblue" stroke="midnightblue" points="1033.56,-67.6336 1022.96,-67.5117 1031.17,-74.2136 1033.56,-67.6336"/>
</g>
<!-- Node8 -->
<g id="node15" class="node"><title>Node8</title>
<a xlink:href="classObjectData.xhtml#af3a850833d08eb9b45357449f455e24d" target="_top" xlink:title="Zerlegt das Objekt in Tetraeder (Schnittstelle zur Tetgen&#45;Bibliothek) und Berechnet die Temperaturver...">
<polygon fill="none" stroke="black" points="1068,-46.5 1068,-67.5 1190,-67.5 1190,-46.5 1068,-46.5"/>
<text text-anchor="middle" x="1129" y="-54.5" font-family="Helvetica,sans-Serif" font-size="10.00">ObjectData::calculateIO</text>
</a>
</g>
<!-- Node5&#45;&gt;Node8 -->
<g id="edge14" class="edge"><title>Node5&#45;&gt;Node8</title>
<path fill="none" stroke="midnightblue" d="M1041.65,-57C1050.11,-57 1059.02,-57 1067.8,-57"/>
<polygon fill="midnightblue" stroke="midnightblue" points="1041.61,-53.5001 1031.61,-57 1041.6,-60.5001 1041.61,-53.5001"/>
</g>
<!-- Node11 -->
<g id="node21" class="node"><title>Node11</title>
<a xlink:href="tetgen_8cxx.xhtml#a0ddf1224851353fc92bfbff6f499fa97" target="_top" xlink:title="main">
<polygon fill="none" stroke="black" points="1110,-6.5 1110,-27.5 1148,-27.5 1148,-6.5 1110,-6.5"/>
<text text-anchor="middle" x="1129" y="-14.5" font-family="Helvetica,sans-Serif" font-size="10.00">main</text>
</a>
</g>
<!-- Node5&#45;&gt;Node11 -->
<g id="edge20" class="edge"><title>Node5&#45;&gt;Node11</title>
<path fill="none" stroke="midnightblue" d="M1039.15,-43.6209C1063.27,-36.4764 1091.67,-28.0613 1109.98,-22.6343"/>
<polygon fill="midnightblue" stroke="midnightblue" points="1038.06,-40.2937 1029.47,-46.4905 1040.05,-47.0053 1038.06,-40.2937"/>
</g>
<!-- Node7 -->
<g id="node13" class="node"><title>Node7</title>
<a xlink:href="classGUICutRenderWindow.xhtml#a7cd1bfbec53756a1cbbe1616b4d46c7a" target="_top" xlink:title="Behandelt das Drücken des Buttons zur Berechnung der zweidimensionalen Temperaturverteilung. ">
<polygon fill="none" stroke="black" points="1242.5,-92 1242.5,-126 1359.5,-126 1359.5,-92 1242.5,-92"/>
<text text-anchor="start" x="1250.5" y="-113" font-family="Helvetica,sans-Serif" font-size="10.00">GUICutRenderWindow</text>
<text text-anchor="middle" x="1301" y="-100" font-family="Helvetica,sans-Serif" font-size="10.00">::renderCutBtClick</text>
</a>
</g>
<!-- Node6&#45;&gt;Node7 -->
<g id="edge12" class="edge"><title>Node6&#45;&gt;Node7</title>
<path fill="none" stroke="midnightblue" d="M1197.78,-107.2C1212.51,-107.457 1227.95,-107.726 1242.26,-107.975"/>
<polygon fill="midnightblue" stroke="midnightblue" points="1197.77,-103.699 1187.71,-107.024 1197.65,-110.698 1197.77,-103.699"/>
</g>
<!-- Node9 -->
<g id="node17" class="node"><title>Node9</title>
<a xlink:href="classGUIMainWindow.xhtml#a0c2de30274c7f52ff74ec1217e47a9e5" target="_top" xlink:title="Berechnet die 3D&#45;Temperaturverteilung neu. ">
<polygon fill="none" stroke="black" points="1226,-40 1226,-74 1376,-74 1376,-40 1226,-40"/>
<text text-anchor="start" x="1234" y="-61" font-family="Helvetica,sans-Serif" font-size="10.00">GUIMainWindow::OnRecalcBt</text>
<text text-anchor="middle" x="1301" y="-48" font-family="Helvetica,sans-Serif" font-size="10.00">Click</text>
</a>
</g>
<!-- Node8&#45;&gt;Node9 -->
<g id="edge16" class="edge"><title>Node8&#45;&gt;Node9</title>
<path fill="none" stroke="midnightblue" d="M1200.32,-57C1208.77,-57 1217.42,-57 1225.92,-57"/>
<polygon fill="midnightblue" stroke="midnightblue" points="1200.13,-53.5001 1190.13,-57 1200.13,-60.5001 1200.13,-53.5001"/>
</g>
<!-- Node10 -->
<g id="node19" class="node"><title>Node10</title>
<a xlink:href="classGUITimeline.xhtml#a099f3654aa6e7ea04df861851a0e9ec8" target="_top" xlink:title="Sucht den Zeitpunkt zwischen zwei markierten Stellen auf der Sensordaten&#45;Zeitleiste, für den der Wäremeenergiegehalt maximal wird. ">
<polygon fill="none" stroke="black" points="1232.5,-0.5 1232.5,-21.5 1369.5,-21.5 1369.5,-0.5 1232.5,-0.5"/>
<text text-anchor="middle" x="1301" y="-8.5" font-family="Helvetica,sans-Serif" font-size="10.00">GUITimeline::findMaxValue</text>
</a>
</g>
<!-- Node8&#45;&gt;Node10 -->
<g id="edge18" class="edge"><title>Node8&#45;&gt;Node10</title>
<path fill="none" stroke="midnightblue" d="M1178,-43.8537C1193.36,-39.7343 1210.39,-35.1741 1226,-31 1237.46,-27.9371 1249.9,-24.6167 1261.3,-21.5777"/>
<polygon fill="midnightblue" stroke="midnightblue" points="1176.92,-40.5181 1168.17,-46.4885 1178.74,-47.2793 1176.92,-40.5181"/>
</g>
<!-- Node12&#45;&gt;Node4 -->
<g id="edge24" class="edge"><title>Node12&#45;&gt;Node4</title>
<path fill="none" stroke="midnightblue" d="M746.448,-67.9295C755.54,-66.9413 764.744,-65.9409 773.701,-64.9673"/>
<polygon fill="midnightblue" stroke="midnightblue" points="745.814,-64.4778 736.25,-69.038 746.57,-71.4368 745.814,-64.4778"/>
</g>
<!-- Node14 -->
<g id="node28" class="node"><title>Node14</title>
<a xlink:href="classtetgenmesh.xhtml#a9d878a0e64588b0471a58e534affea8e" target="_top" xlink:title="tetgenmesh::addsteiner4recoversegment">
<polygon fill="none" stroke="black" points="358,-25.5 358,-46.5 552,-46.5 552,-25.5 358,-25.5"/>
<text text-anchor="middle" x="455" y="-33.5" font-family="Helvetica,sans-Serif" font-size="10.00">tetgenmesh::addsteiner4recoversegment</text>
</a>
</g>
<!-- Node13&#45;&gt;Node14 -->
<g id="edge28" class="edge"><title>Node13&#45;&gt;Node14</title>
<path fill="none" stroke="midnightblue" d="M332.315,-34.767C340.663,-34.8509 349.242,-34.9371 357.798,-35.0231"/>
<polygon fill="midnightblue" stroke="midnightblue" points="332.299,-31.2667 322.264,-34.666 332.228,-38.2664 332.299,-31.2667"/>
</g>
<!-- Node14&#45;&gt;Node3 -->
<g id="edge30" class="edge"><title>Node14&#45;&gt;Node3</title>
<path fill="none" stroke="midnightblue" d="M562.574,-36.5172C571.325,-36.5593 580.042,-36.6012 588.478,-36.6417"/>
<polygon fill="midnightblue" stroke="midnightblue" points="562.318,-33.016 552.301,-36.4678 562.284,-40.0159 562.318,-33.016"/>
</g>
</g>
</svg>
