<?xml version="1.0" encoding="UTF-8" standalone="no"?>
<!DOCTYPE svg PUBLIC "-//W3C//DTD SVG 1.1//EN"
 "http://www.w3.org/Graphics/SVG/1.1/DTD/svg11.dtd">
<!-- Generated by graphviz version 2.26.3 (20100126.1600)
 -->
<!-- Title: tetgenmesh::hilbert_split Pages: 1 -->
<!--zoomable 134 -->
<svg id="main" version="1.1" xmlns="http://www.w3.org/2000/svg" xmlns:xlink="http://www.w3.org/1999/xlink" xml:space="preserve" onload="init(evt)">
<style type="text/css"><![CDATA[
.edge:hover path { stroke: red; }
.edge:hover polygon { stroke: red; fill: red; }
]]></style>
<script type="text/javascript"><![CDATA[
var edges = document.getElementsByTagName('g');
if (edges && edges.length) {
  for (var i=0;i<edges.length;i++) {
    if (edges[i].id.substr(0,4)=='edge') {
      edges[i].setAttribute('class','edge');
    }
  }
}
]]></script>
        <defs>
                <circle id="rim" cx="0" cy="0" r="7"/>
                <circle id="rim2" cx="0" cy="0" r="3.5"/>
                <g id="zoomPlus">
                        <use xlink:href="#rim" fill="#404040">
                                <set attributeName="fill" to="#808080" begin="zoomplus.mouseover" end="zoomplus.mouseout"/>
                        </use>
                        <path d="M-4,0h8M0,-4v8" fill="none" stroke="white" stroke-width="1.5" pointer-events="none"/>
                </g>
                <g id="zoomMin">
                        <use xlink:href="#rim" fill="#404040">
                                <set attributeName="fill" to="#808080" begin="zoomminus.mouseover" end="zoomminus.mouseout"/>
                        </use>
                        <path d="M-4,0h8" fill="none" stroke="white" stroke-width="1.5" pointer-events="none"/>
                </g>
                <g id="dirArrow">
                        <path fill="none" stroke="white" stroke-width="1.5" d="M0,-3.0v7 M-2.5,-0.5L0,-3.0L2.5,-0.5"/>
                </g>
               <g id="resetDef">
                       <use xlink:href="#rim2" fill="#404040">
                               <set attributeName="fill" to="#808080" begin="reset.mouseover" end="reset.mouseout"/>
                       </use>
               </g>
        </defs>

<script type="text/javascript">
var viewWidth = 1206;
var viewHeight = 134;
var sectionId = 'dynsection-160';
</script>
<script xlink:href="svgpan.js"/>
<svg id="graph" class="graph">
<g id="viewport">
<title>tetgenmesh::hilbert_split</title>
<!-- Node1 -->
<g id="node1" class="node"><title>Node1</title>
<polygon fill="#bfbfbf" stroke="black" points="0,-20 0,-54 100,-54 100,-20 0,-20"/>
<text text-anchor="start" x="8" y="-41" font-family="Helvetica,sans-Serif" font-size="10.00">tetgenmesh::hilbert</text>
<text text-anchor="middle" x="50" y="-28" font-family="Helvetica,sans-Serif" font-size="10.00">_split</text>
</g>
<!-- Node2 -->
<g id="node3" class="node"><title>Node2</title>
<a xlink:href="classtetgenmesh.xhtml#a49edbd210b6c45754eca98046b0ef477" target="_top" xlink:title="tetgenmesh::hilbert\l_sort3">
<polygon fill="none" stroke="black" points="136,-20 136,-54 236,-54 236,-20 136,-20"/>
<text text-anchor="start" x="144" y="-41" font-family="Helvetica,sans-Serif" font-size="10.00">tetgenmesh::hilbert</text>
<text text-anchor="middle" x="186" y="-28" font-family="Helvetica,sans-Serif" font-size="10.00">_sort3</text>
</a>
</g>
<!-- Node1&#45;&gt;Node2 -->
<g id="edge2" class="edge"><title>Node1&#45;&gt;Node2</title>
<path fill="none" stroke="midnightblue" d="M110.511,-37C119.013,-37 127.674,-37 135.952,-37"/>
<polygon fill="midnightblue" stroke="midnightblue" points="110.255,-33.5001 100.255,-37 110.255,-40.5001 110.255,-33.5001"/>
</g>
<!-- Node3 -->
<g id="node5" class="node"><title>Node3</title>
<a xlink:href="classtetgenmesh.xhtml#a3f09dd9fb2d975c75397a92aa6128565" target="_top" xlink:title="tetgenmesh::brio_multiscale_sort">
<polygon fill="none" stroke="black" points="272.5,-26.5 272.5,-47.5 433.5,-47.5 433.5,-26.5 272.5,-26.5"/>
<text text-anchor="middle" x="353" y="-34.5" font-family="Helvetica,sans-Serif" font-size="10.00">tetgenmesh::brio_multiscale_sort</text>
</a>
</g>
<!-- Node2&#45;&gt;Node3 -->
<g id="edge4" class="edge"><title>Node2&#45;&gt;Node3</title>
<path fill="none" stroke="midnightblue" d="M246.245,-37C254.72,-37 263.542,-37 272.322,-37"/>
<polygon fill="midnightblue" stroke="midnightblue" points="246.106,-33.5001 236.106,-37 246.105,-40.5001 246.106,-33.5001"/>
</g>
<!-- Node4 -->
<g id="node7" class="node"><title>Node4</title>
<a xlink:href="classtetgenmesh.xhtml#a5a5a0513d0bea7aa457eb0bc5fad1b02" target="_top" xlink:title="tetgenmesh::incrementaldelaunay">
<polygon fill="none" stroke="black" points="475.5,-46.5 475.5,-67.5 638.5,-67.5 638.5,-46.5 475.5,-46.5"/>
<text text-anchor="middle" x="557" y="-54.5" font-family="Helvetica,sans-Serif" font-size="10.00">tetgenmesh::incrementaldelaunay</text>
</a>
</g>
<!-- Node3&#45;&gt;Node4 -->
<g id="edge6" class="edge"><title>Node3&#45;&gt;Node4</title>
<path fill="none" stroke="midnightblue" d="M443.659,-45.8881C454.191,-46.9207 464.886,-47.9692 475.288,-48.989"/>
<polygon fill="midnightblue" stroke="midnightblue" points="443.92,-42.397 433.626,-44.9045 443.237,-49.3636 443.92,-42.397"/>
</g>
<!-- Node12 -->
<g id="node23" class="node"><title>Node12</title>
<a xlink:href="classtetgenmesh.xhtml#ac8205cae8e16f490b80d74975934ff74" target="_top" xlink:title="tetgenmesh::insertconstrainedpoints">
<polygon fill="none" stroke="black" points="470,-6.5 470,-27.5 644,-27.5 644,-6.5 470,-6.5"/>
<text text-anchor="middle" x="557" y="-14.5" font-family="Helvetica,sans-Serif" font-size="10.00">tetgenmesh::insertconstrainedpoints</text>
</a>
</g>
<!-- Node3&#45;&gt;Node12 -->
<g id="edge22" class="edge"><title>Node3&#45;&gt;Node12</title>
<path fill="none" stroke="midnightblue" d="M443.762,-28.1017C452.453,-27.2497 461.253,-26.3869 469.908,-25.5385"/>
<polygon fill="midnightblue" stroke="midnightblue" points="443.237,-24.6364 433.626,-29.0955 443.92,-31.603 443.237,-24.6364"/>
</g>
<!-- Node5 -->
<g id="node9" class="node"><title>Node5</title>
<a xlink:href="tetgen_8h.xhtml#ad3637eb4ffe7fda90667e67b7771d964" target="_top" xlink:title="tetrahedralize">
<polygon fill="none" stroke="black" points="729.5,-46.5 729.5,-67.5 804.5,-67.5 804.5,-46.5 729.5,-46.5"/>
<text text-anchor="middle" x="767" y="-54.5" font-family="Helvetica,sans-Serif" font-size="10.00">tetrahedralize</text>
</a>
</g>
<!-- Node4&#45;&gt;Node5 -->
<g id="edge8" class="edge"><title>Node4&#45;&gt;Node5</title>
<path fill="none" stroke="midnightblue" d="M649.121,-57C677.353,-57 706.845,-57 729.269,-57"/>
<polygon fill="midnightblue" stroke="midnightblue" points="648.793,-53.5001 638.793,-57 648.793,-60.5001 648.793,-53.5001"/>
</g>
<!-- Node6 -->
<g id="node11" class="node"><title>Node6</title>
<a xlink:href="classGUICutRenderWindow.xhtml#a9eedb7088ad31f4680a77ed3a06fa60c" target="_top" xlink:title="Berechnet die 2D&#45;Temperaturverteilung als Grafik. ">
<polygon fill="none" stroke="black" points="892.5,-89 892.5,-123 1009.5,-123 1009.5,-89 892.5,-89"/>
<text text-anchor="start" x="900.5" y="-110" font-family="Helvetica,sans-Serif" font-size="10.00">GUICutRenderWindow</text>
<text text-anchor="middle" x="951" y="-97" font-family="Helvetica,sans-Serif" font-size="10.00">::renderImage</text>
</a>
</g>
<!-- Node5&#45;&gt;Node6 -->
<g id="edge10" class="edge"><title>Node5&#45;&gt;Node6</title>
<path fill="none" stroke="midnightblue" d="M814.514,-69.6531C838.266,-75.9785 867.23,-83.6916 892.354,-90.3824"/>
<polygon fill="midnightblue" stroke="midnightblue" points="815.243,-66.2254 804.679,-67.0341 813.442,-72.9897 815.243,-66.2254"/>
</g>
<!-- Node8 -->
<g id="node15" class="node"><title>Node8</title>
<a xlink:href="classObjectData.xhtml#af3a850833d08eb9b45357449f455e24d" target="_top" xlink:title="Zerlegt das Objekt in Tetraeder (Schnittstelle zur Tetgen&#45;Bibliothek) und Berechnet die Temperaturver...">
<polygon fill="none" stroke="black" points="890,-46.5 890,-67.5 1012,-67.5 1012,-46.5 890,-46.5"/>
<text text-anchor="middle" x="951" y="-54.5" font-family="Helvetica,sans-Serif" font-size="10.00">ObjectData::calculateIO</text>
</a>
</g>
<!-- Node5&#45;&gt;Node8 -->
<g id="edge14" class="edge"><title>Node5&#45;&gt;Node8</title>
<path fill="none" stroke="midnightblue" d="M814.835,-57C837.734,-57 865.419,-57 889.83,-57"/>
<polygon fill="midnightblue" stroke="midnightblue" points="814.679,-53.5001 804.679,-57 814.679,-60.5001 814.679,-53.5001"/>
</g>
<!-- Node11 -->
<g id="node21" class="node"><title>Node11</title>
<a xlink:href="tetgen_8cxx.xhtml#a0ddf1224851353fc92bfbff6f499fa97" target="_top" xlink:title="main">
<polygon fill="none" stroke="black" points="932,-6.5 932,-27.5 970,-27.5 970,-6.5 932,-6.5"/>
<text text-anchor="middle" x="951" y="-14.5" font-family="Helvetica,sans-Serif" font-size="10.00">main</text>
</a>
</g>
<!-- Node5&#45;&gt;Node11 -->
<g id="edge20" class="edge"><title>Node5&#45;&gt;Node11</title>
<path fill="none" stroke="midnightblue" d="M814.577,-46.6571C852.802,-38.3475 904.488,-27.1112 931.97,-21.1371"/>
<polygon fill="midnightblue" stroke="midnightblue" points="813.707,-43.2644 804.679,-48.8089 815.194,-50.1046 813.707,-43.2644"/>
</g>
<!-- Node7 -->
<g id="node13" class="node"><title>Node7</title>
<a xlink:href="classGUICutRenderWindow.xhtml#a7cd1bfbec53756a1cbbe1616b4d46c7a" target="_top" xlink:title="Behandelt das Drücken des Buttons zur Berechnung der zweidimensionalen Temperaturverteilung. ">
<polygon fill="none" stroke="black" points="1064.5,-92 1064.5,-126 1181.5,-126 1181.5,-92 1064.5,-92"/>
<text text-anchor="start" x="1072.5" y="-113" font-family="Helvetica,sans-Serif" font-size="10.00">GUICutRenderWindow</text>
<text text-anchor="middle" x="1123" y="-100" font-family="Helvetica,sans-Serif" font-size="10.00">::renderCutBtClick</text>
</a>
</g>
<!-- Node6&#45;&gt;Node7 -->
<g id="edge12" class="edge"><title>Node6&#45;&gt;Node7</title>
<path fill="none" stroke="midnightblue" d="M1019.78,-107.2C1034.51,-107.457 1049.95,-107.726 1064.26,-107.975"/>
<polygon fill="midnightblue" stroke="midnightblue" points="1019.77,-103.699 1009.71,-107.024 1019.65,-110.698 1019.77,-103.699"/>
</g>
<!-- Node9 -->
<g id="node17" class="node"><title>Node9</title>
<a xlink:href="classGUIMainWindow.xhtml#a0c2de30274c7f52ff74ec1217e47a9e5" target="_top" xlink:title="Berechnet die 3D&#45;Temperaturverteilung neu. ">
<polygon fill="none" stroke="black" points="1048,-40 1048,-74 1198,-74 1198,-40 1048,-40"/>
<text text-anchor="start" x="1056" y="-61" font-family="Helvetica,sans-Serif" font-size="10.00">GUIMainWindow::OnRecalcBt</text>
<text text-anchor="middle" x="1123" y="-48" font-family="Helvetica,sans-Serif" font-size="10.00">Click</text>
</a>
</g>
<!-- Node8&#45;&gt;Node9 -->
<g id="edge16" class="edge"><title>Node8&#45;&gt;Node9</title>
<path fill="none" stroke="midnightblue" d="M1022.32,-57C1030.77,-57 1039.42,-57 1047.92,-57"/>
<polygon fill="midnightblue" stroke="midnightblue" points="1022.13,-53.5001 1012.13,-57 1022.13,-60.5001 1022.13,-53.5001"/>
</g>
<!-- Node10 -->
<g id="node19" class="node"><title>Node10</title>
<a xlink:href="classGUITimeline.xhtml#a099f3654aa6e7ea04df861851a0e9ec8" target="_top" xlink:title="Sucht den Zeitpunkt zwischen zwei markierten Stellen auf der Sensordaten&#45;Zeitleiste, für den der Wäremeenergiegehalt maximal wird. ">
<polygon fill="none" stroke="black" points="1054.5,-0.5 1054.5,-21.5 1191.5,-21.5 1191.5,-0.5 1054.5,-0.5"/>
<text text-anchor="middle" x="1123" y="-8.5" font-family="Helvetica,sans-Serif" font-size="10.00">GUITimeline::findMaxValue</text>
</a>
</g>
<!-- Node8&#45;&gt;Node10 -->
<g id="edge18" class="edge"><title>Node8&#45;&gt;Node10</title>
<path fill="none" stroke="midnightblue" d="M999.997,-43.8537C1015.36,-39.7343 1032.39,-35.1741 1048,-31 1059.46,-27.9371 1071.9,-24.6167 1083.3,-21.5777"/>
<polygon fill="midnightblue" stroke="midnightblue" points="998.923,-40.5181 990.17,-46.4885 1000.74,-47.2793 998.923,-40.5181"/>
</g>
<!-- Node12&#45;&gt;Node5 -->
<g id="edge26" class="edge"><title>Node12&#45;&gt;Node5</title>
<path fill="none" stroke="midnightblue" d="M622.373,-29.452C657.559,-36.1542 699.704,-44.1817 729.396,-49.8373"/>
<polygon fill="midnightblue" stroke="midnightblue" points="622.653,-25.9425 612.175,-27.5095 621.343,-32.8189 622.653,-25.9425"/>
</g>
<!-- Node13 -->
<g id="node25" class="node"><title>Node13</title>
<a xlink:href="classtetgenmesh.xhtml#ab859365ca3dd3eafb77fac56d0ae3a03" target="_top" xlink:title="tetgenmesh::insertconstrainedpoints">
<polygon fill="none" stroke="black" points="680,-6.5 680,-27.5 854,-27.5 854,-6.5 680,-6.5"/>
<text text-anchor="middle" x="767" y="-14.5" font-family="Helvetica,sans-Serif" font-size="10.00">tetgenmesh::insertconstrainedpoints</text>
</a>
</g>
<!-- Node12&#45;&gt;Node13 -->
<g id="edge24" class="edge"><title>Node12&#45;&gt;Node13</title>
<path fill="none" stroke="midnightblue" d="M654.459,-17C662.88,-17 671.366,-17 679.699,-17"/>
<polygon fill="midnightblue" stroke="midnightblue" points="654.235,-13.5001 644.235,-17 654.234,-20.5001 654.235,-13.5001"/>
</g>
</g>
</svg>
        <g id="navigator" transform="translate(0 0)" fill="#404254">
                <rect fill="#f2f5e9" fill-opacity="0.5" stroke="#606060" stroke-width=".5" x="0" y="0" width="60" height="60"/>
                <use id="zoomplus" xlink:href="#zoomPlus" x="17" y="9" onmousedown="handleZoom(evt,'in')"/>
                <use id="zoomminus" xlink:href="#zoomMin" x="42" y="9" onmousedown="handleZoom(evt,'out')"/>
                <use id="reset" xlink:href="#resetDef" x="30" y="36" onmousedown="handleReset()"/>
                <g id="arrowUp" xlink:href="#dirArrow" transform="translate(30 24)" onmousedown="handlePan(0,-1)">
                  <use xlink:href="#rim" fill="#404040">
                        <set attributeName="fill" to="#808080" begin="arrowUp.mouseover" end="arrowUp.mouseout"/>
                  </use>
                  <path fill="none" stroke="white" stroke-width="1.5" d="M0,-3.0v7 M-2.5,-0.5L0,-3.0L2.5,-0.5"/>
                </g>
                <g id="arrowRight" xlink:href="#dirArrow" transform="rotate(90) translate(36 -43)" onmousedown="handlePan(1,0)">
                  <use xlink:href="#rim" fill="#404040">
                        <set attributeName="fill" to="#808080" begin="arrowRight.mouseover" end="arrowRight.mouseout"/>
                  </use>
                  <path fill="none" stroke="white" stroke-width="1.5" d="M0,-3.0v7 M-2.5,-0.5L0,-3.0L2.5,-0.5"/>
                </g>
                <g id="arrowDown" xlink:href="#dirArrow" transform="rotate(180) translate(-30 -48)" onmousedown="handlePan(0,1)">
                  <use xlink:href="#rim" fill="#404040">
                        <set attributeName="fill" to="#808080" begin="arrowDown.mouseover" end="arrowDown.mouseout"/>
                  </use>
                  <path fill="none" stroke="white" stroke-width="1.5" d="M0,-3.0v7 M-2.5,-0.5L0,-3.0L2.5,-0.5"/>
                </g>
                <g id="arrowLeft" xlink:href="#dirArrow" transform="rotate(270) translate(-36 17)" onmousedown="handlePan(-1,0)">
                  <use xlink:href="#rim" fill="#404040">
                        <set attributeName="fill" to="#808080" begin="arrowLeft.mouseover" end="arrowLeft.mouseout"/>
                  </use>
                  <path fill="none" stroke="white" stroke-width="1.5" d="M0,-3.0v7 M-2.5,-0.5L0,-3.0L2.5,-0.5"/>
                </g>
        </g>
        <svg viewBox="0 0 15 15" width="100%" height="30px" preserveAspectRatio="xMaxYMin meet">
         <g id="arrow_out" transform="scale(0.3 0.3)">
          <a xlink:href="classtetgenmesh_a11227c742897ec6e617a82dc61fc460d_icgraph_org.svg" target="_base">
           <rect id="button" ry="5" rx="5" y="6" x="6" height="38" width="38"
                fill="#f2f5e9" fill-opacity="0.5" stroke="#606060" stroke-width="1.0"/>
           <path id="arrow"
             d="M 11.500037,31.436501 C 11.940474,20.09759 22.043105,11.32322 32.158766,21.979434 L 37.068811,17.246167 C 37.068811,17.246167 37.088388,32 37.088388,32 L 22.160133,31.978069 C 22.160133,31.978069 26.997745,27.140456 26.997745,27.140456 C 18.528582,18.264221 13.291696,25.230495 11.500037,31.436501 z"
             style="fill:#404040;"/>
          </a>
         </g>
        </svg>
</svg>
