<?xml version="1.0" encoding="UTF-8" standalone="no"?>
<!DOCTYPE svg PUBLIC "-//W3C//DTD SVG 1.1//EN"
 "http://www.w3.org/Graphics/SVG/1.1/DTD/svg11.dtd">
<!-- Generated by graphviz version 2.26.3 (20100126.1600)
 -->
<!-- Title: tetgenmesh::facedihedral Pages: 1 -->
<svg width="594pt" height="156pt"
 viewBox="0.00 0.00 594.00 156.00" xmlns="http://www.w3.org/2000/svg" xmlns:xlink="http://www.w3.org/1999/xlink">
<g id="graph1" class="graph" transform="scale(1 1) rotate(0) translate(4 152)">
<title>tetgenmesh::facedihedral</title>
<!-- Node1 -->
<g id="node1" class="node"><title>Node1</title>
<polygon fill="#bfbfbf" stroke="black" points="0,-86.5 0,-107.5 126,-107.5 126,-86.5 0,-86.5"/>
<text text-anchor="middle" x="63" y="-94.5" font-family="Helvetica,sans-Serif" font-size="10.00">tetgenmesh::facedihedral</text>
</g>
<!-- Node2 -->
<g id="node3" class="node"><title>Node2</title>
<a xlink:href="classtetgenmesh.xhtml#adef28f2839ea13688a3ac9a7184d1db8" target="_top" xlink:title="tetgenmesh::facenormal">
<polygon fill="none" stroke="black" points="162,-86.5 162,-107.5 284,-107.5 284,-86.5 162,-86.5"/>
<text text-anchor="middle" x="223" y="-94.5" font-family="Helvetica,sans-Serif" font-size="10.00">tetgenmesh::facenormal</text>
</a>
</g>
<!-- Node1&#45;&gt;Node2 -->
<g id="edge2" class="edge"><title>Node1&#45;&gt;Node2</title>
<path fill="none" stroke="midnightblue" d="M126.236,-97C134.558,-97 143.132,-97 151.578,-97"/>
<polygon fill="midnightblue" stroke="midnightblue" points="151.79,-100.5 161.79,-97 151.79,-93.5001 151.79,-100.5"/>
</g>
<!-- Node3 -->
<g id="node5" class="node"><title>Node3</title>
<a xlink:href="classtetgenmesh.xhtml#afa0906703b590597155547336c360004" target="_top" xlink:title="tetgenmesh::dot">
<polygon fill="none" stroke="black" points="325.5,-126.5 325.5,-147.5 412.5,-147.5 412.5,-126.5 325.5,-126.5"/>
<text text-anchor="middle" x="369" y="-134.5" font-family="Helvetica,sans-Serif" font-size="10.00">tetgenmesh::dot</text>
</a>
</g>
<!-- Node1&#45;&gt;Node3 -->
<g id="edge8" class="edge"><title>Node1&#45;&gt;Node3</title>
<path fill="none" stroke="midnightblue" d="M110.161,-107.559C126.512,-110.945 145.003,-114.469 162,-117 213.796,-124.713 273.346,-130.106 315.239,-133.332"/>
<polygon fill="midnightblue" stroke="midnightblue" points="314.991,-136.823 325.226,-134.086 315.518,-129.843 314.991,-136.823"/>
</g>
<!-- Node5 -->
<g id="node10" class="node"><title>Node5</title>
<a xlink:href="predicates_8cxx.xhtml#a701f35178b28c7bbb94644665c0b058a" target="_top" xlink:title="orient3d">
<polygon fill="none" stroke="black" points="197.5,-46.5 197.5,-67.5 248.5,-67.5 248.5,-46.5 197.5,-46.5"/>
<text text-anchor="middle" x="223" y="-54.5" font-family="Helvetica,sans-Serif" font-size="10.00">orient3d</text>
</a>
</g>
<!-- Node1&#45;&gt;Node5 -->
<g id="edge10" class="edge"><title>Node1&#45;&gt;Node5</title>
<path fill="none" stroke="midnightblue" d="M105.038,-86.4905C130.639,-80.0903 162.991,-72.0021 187.337,-65.9157"/>
<polygon fill="midnightblue" stroke="midnightblue" points="188.385,-69.2615 197.238,-63.4406 186.687,-62.4705 188.385,-69.2615"/>
</g>
<!-- Node2&#45;&gt;Node3 -->
<g id="edge4" class="edge"><title>Node2&#45;&gt;Node3</title>
<path fill="none" stroke="midnightblue" d="M261.36,-107.51C279.562,-112.496 301.505,-118.508 320.818,-123.799"/>
<polygon fill="midnightblue" stroke="midnightblue" points="320.074,-127.224 330.643,-126.491 321.923,-120.473 320.074,-127.224"/>
</g>
<!-- Node4 -->
<g id="node7" class="node"><title>Node4</title>
<a xlink:href="classtetgenmesh.xhtml#a9b5ff4d3e2452044830fbd47d2f70cbd" target="_top" xlink:title="tetgenmesh::cross">
<polygon fill="none" stroke="black" points="320,-86.5 320,-107.5 418,-107.5 418,-86.5 320,-86.5"/>
<text text-anchor="middle" x="369" y="-94.5" font-family="Helvetica,sans-Serif" font-size="10.00">tetgenmesh::cross</text>
</a>
</g>
<!-- Node2&#45;&gt;Node4 -->
<g id="edge6" class="edge"><title>Node2&#45;&gt;Node4</title>
<path fill="none" stroke="midnightblue" d="M284.071,-97C292.515,-97 301.178,-97 309.591,-97"/>
<polygon fill="midnightblue" stroke="midnightblue" points="309.698,-100.5 319.698,-97 309.698,-93.5001 309.698,-100.5"/>
</g>
<!-- Node6 -->
<g id="node12" class="node"><title>Node6</title>
<a xlink:href="predicates_8cxx.xhtml#ae16b246ccaad9f1d90f37590816c5fde" target="_top" xlink:title="orient3dadapt">
<polygon fill="none" stroke="black" points="331.5,-46.5 331.5,-67.5 406.5,-67.5 406.5,-46.5 331.5,-46.5"/>
<text text-anchor="middle" x="369" y="-54.5" font-family="Helvetica,sans-Serif" font-size="10.00">orient3dadapt</text>
</a>
</g>
<!-- Node5&#45;&gt;Node6 -->
<g id="edge12" class="edge"><title>Node5&#45;&gt;Node6</title>
<path fill="none" stroke="midnightblue" d="M248.766,-57C268.822,-57 297.215,-57 321.373,-57"/>
<polygon fill="midnightblue" stroke="midnightblue" points="321.431,-60.5001 331.431,-57 321.431,-53.5001 321.431,-60.5001"/>
</g>
<!-- Node7 -->
<g id="node14" class="node"><title>Node7</title>
<a xlink:href="predicates_8cxx.xhtml#abdcdaa8948d9a2937154d9d67f67da8d" target="_top" xlink:title="scale_expansion_zeroelim">
<polygon fill="none" stroke="black" points="454.5,-92.5 454.5,-113.5 585.5,-113.5 585.5,-92.5 454.5,-92.5"/>
<text text-anchor="middle" x="520" y="-100.5" font-family="Helvetica,sans-Serif" font-size="10.00">scale_expansion_zeroelim</text>
</a>
</g>
<!-- Node6&#45;&gt;Node7 -->
<g id="edge14" class="edge"><title>Node6&#45;&gt;Node7</title>
<path fill="none" stroke="midnightblue" d="M403.321,-67.5204C418.802,-72.2601 437.318,-77.9211 454,-83 460.93,-85.1097 468.27,-87.3393 475.44,-89.5143"/>
<polygon fill="midnightblue" stroke="midnightblue" points="474.472,-92.878 485.057,-92.4298 476.503,-86.1791 474.472,-92.878"/>
</g>
<!-- Node8 -->
<g id="node16" class="node"><title>Node8</title>
<a xlink:href="predicates_8cxx.xhtml#a37646a7e0014e10c612e946bc95aeeea" target="_top" xlink:title="fast_expansion_sum\l_zeroelim">
<polygon fill="none" stroke="black" points="466.5,-40 466.5,-74 573.5,-74 573.5,-40 466.5,-40"/>
<text text-anchor="start" x="474.5" y="-61" font-family="Helvetica,sans-Serif" font-size="10.00">fast_expansion_sum</text>
<text text-anchor="middle" x="520" y="-48" font-family="Helvetica,sans-Serif" font-size="10.00">_zeroelim</text>
</a>
</g>
<!-- Node6&#45;&gt;Node8 -->
<g id="edge16" class="edge"><title>Node6&#45;&gt;Node8</title>
<path fill="none" stroke="midnightblue" d="M406.714,-57C421.616,-57 439.164,-57 455.941,-57"/>
<polygon fill="midnightblue" stroke="midnightblue" points="456.256,-60.5001 466.256,-57 456.256,-53.5001 456.256,-60.5001"/>
</g>
<!-- Node9 -->
<g id="node18" class="node"><title>Node9</title>
<a xlink:href="predicates_8cxx.xhtml#a3487d9f90ea72da543d5d38b3dab1fbc" target="_top" xlink:title="estimate">
<polygon fill="none" stroke="black" points="493,-0.5 493,-21.5 547,-21.5 547,-0.5 493,-0.5"/>
<text text-anchor="middle" x="520" y="-8.5" font-family="Helvetica,sans-Serif" font-size="10.00">estimate</text>
</a>
</g>
<!-- Node6&#45;&gt;Node9 -->
<g id="edge18" class="edge"><title>Node6&#45;&gt;Node9</title>
<path fill="none" stroke="midnightblue" d="M403.321,-46.4796C418.802,-41.7399 437.318,-36.0789 454,-31 463.436,-28.1272 473.634,-25.0321 483.126,-22.1554"/>
<polygon fill="midnightblue" stroke="midnightblue" points="484.145,-25.5039 492.701,-19.2551 482.115,-18.8045 484.145,-25.5039"/>
</g>
</g>
</svg>
