<?xml version="1.0" encoding="UTF-8" standalone="no"?>
<!DOCTYPE svg PUBLIC "-//W3C//DTD SVG 1.1//EN"
 "http://www.w3.org/Graphics/SVG/1.1/DTD/svg11.dtd">
<!-- Generated by graphviz version 2.26.3 (20100126.1600)
 -->
<!-- Title: tetgenmesh::planelineint Pages: 1 -->
<svg width="422pt" height="70pt"
 viewBox="0.00 0.00 422.00 70.00" xmlns="http://www.w3.org/2000/svg" xmlns:xlink="http://www.w3.org/1999/xlink">
<g id="graph1" class="graph" transform="scale(1 1) rotate(0) translate(4 66)">
<title>tetgenmesh::planelineint</title>
<!-- Node1 -->
<g id="node1" class="node"><title>Node1</title>
<polygon fill="#bfbfbf" stroke="black" points="0,-20.5 0,-41.5 122,-41.5 122,-20.5 0,-20.5"/>
<text text-anchor="middle" x="61" y="-28.5" font-family="Helvetica,sans-Serif" font-size="10.00">tetgenmesh::planelineint</text>
</g>
<!-- Node2 -->
<g id="node3" class="node"><title>Node2</title>
<a xlink:href="classtetgenmesh.xhtml#adef28f2839ea13688a3ac9a7184d1db8" target="_top" xlink:title="tetgenmesh::facenormal">
<polygon fill="none" stroke="black" points="158,-20.5 158,-41.5 280,-41.5 280,-20.5 158,-20.5"/>
<text text-anchor="middle" x="219" y="-28.5" font-family="Helvetica,sans-Serif" font-size="10.00">tetgenmesh::facenormal</text>
</a>
</g>
<!-- Node1&#45;&gt;Node2 -->
<g id="edge2" class="edge"><title>Node1&#45;&gt;Node2</title>
<path fill="none" stroke="midnightblue" d="M122.087,-31C130.513,-31 139.226,-31 147.815,-31"/>
<polygon fill="midnightblue" stroke="midnightblue" points="147.815,-34.5001 157.815,-31 147.815,-27.5001 147.815,-34.5001"/>
</g>
<!-- Node3 -->
<g id="node5" class="node"><title>Node3</title>
<a xlink:href="classtetgenmesh.xhtml#afa0906703b590597155547336c360004" target="_top" xlink:title="tetgenmesh::dot">
<polygon fill="none" stroke="black" points="321.5,-40.5 321.5,-61.5 408.5,-61.5 408.5,-40.5 321.5,-40.5"/>
<text text-anchor="middle" x="365" y="-48.5" font-family="Helvetica,sans-Serif" font-size="10.00">tetgenmesh::dot</text>
</a>
</g>
<!-- Node2&#45;&gt;Node3 -->
<g id="edge4" class="edge"><title>Node2&#45;&gt;Node3</title>
<path fill="none" stroke="midnightblue" d="M280.071,-39.3659C290.503,-40.7949 301.269,-42.2697 311.485,-43.6692"/>
<polygon fill="midnightblue" stroke="midnightblue" points="311.103,-47.1495 321.486,-45.0391 312.053,-40.2142 311.103,-47.1495"/>
</g>
<!-- Node4 -->
<g id="node7" class="node"><title>Node4</title>
<a xlink:href="classtetgenmesh.xhtml#a9b5ff4d3e2452044830fbd47d2f70cbd" target="_top" xlink:title="tetgenmesh::cross">
<polygon fill="none" stroke="black" points="316,-0.5 316,-21.5 414,-21.5 414,-0.5 316,-0.5"/>
<text text-anchor="middle" x="365" y="-8.5" font-family="Helvetica,sans-Serif" font-size="10.00">tetgenmesh::cross</text>
</a>
</g>
<!-- Node2&#45;&gt;Node4 -->
<g id="edge6" class="edge"><title>Node2&#45;&gt;Node4</title>
<path fill="none" stroke="midnightblue" d="M280.071,-22.6341C288.515,-21.4774 297.178,-20.2907 305.591,-19.1382"/>
<polygon fill="midnightblue" stroke="midnightblue" points="306.266,-22.5785 315.698,-17.7537 305.316,-15.6433 306.266,-22.5785"/>
</g>
</g>
</svg>
