<?xml version="1.0" encoding="UTF-8" standalone="no"?>
<!DOCTYPE svg PUBLIC "-//W3C//DTD SVG 1.1//EN"
 "http://www.w3.org/Graphics/SVG/1.1/DTD/svg11.dtd">
<!-- Generated by graphviz version 2.26.3 (20100126.1600)
 -->
<!-- Title: GUICutRenderWindow::refreshVisualisation Pages: 1 -->
<svg width="308pt" height="146pt"
 viewBox="0.00 0.00 308.00 146.00" xmlns="http://www.w3.org/2000/svg" xmlns:xlink="http://www.w3.org/1999/xlink">
<g id="graph1" class="graph" transform="scale(1 1) rotate(0) translate(4 142)">
<title>GUICutRenderWindow::refreshVisualisation</title>
<!-- Node1 -->
<g id="node1" class="node"><title>Node1</title>
<polygon fill="#bfbfbf" stroke="black" points="0.5,-52 0.5,-86 117.5,-86 117.5,-52 0.5,-52"/>
<text text-anchor="start" x="8.5" y="-73" font-family="Helvetica,sans-Serif" font-size="10.00">GUICutRenderWindow</text>
<text text-anchor="middle" x="59" y="-60" font-family="Helvetica,sans-Serif" font-size="10.00">::refreshVisualisation</text>
</g>
<!-- Node2 -->
<g id="node3" class="node"><title>Node2</title>
<a xlink:href="classGUICutRenderWindow.xhtml#a780972413c43b3086e86c28d581d1f70" target="_top" xlink:title="Behandelt das Ändern von Parametern zur Berechnung der 2D&#45;Temperaturverteilung. ">
<polygon fill="none" stroke="black" points="168.5,-104 168.5,-138 285.5,-138 285.5,-104 168.5,-104"/>
<text text-anchor="start" x="176.5" y="-125" font-family="Helvetica,sans-Serif" font-size="10.00">GUICutRenderWindow</text>
<text text-anchor="middle" x="227" y="-112" font-family="Helvetica,sans-Serif" font-size="10.00">::OnCutPropsChanged</text>
</a>
</g>
<!-- Node1&#45;&gt;Node2 -->
<g id="edge2" class="edge"><title>Node1&#45;&gt;Node2</title>
<path fill="none" stroke="midnightblue" d="M123.751,-89.042C139.633,-93.9578 156.485,-99.1739 171.867,-103.935"/>
<polygon fill="midnightblue" stroke="midnightblue" points="124.597,-85.6401 114.009,-86.0267 122.527,-92.3272 124.597,-85.6401"/>
</g>
<!-- Node3 -->
<g id="node5" class="node"><title>Node3</title>
<a xlink:href="classGUICutRenderWindow.xhtml#a50e92af9db469de6d0298e58eee783ce" target="_top" xlink:title="Behandelt das Ändern von Parametern zur Berechnung der 2D&#45;Temperaturverteilung. ">
<polygon fill="none" stroke="black" points="154,-52 154,-86 300,-86 300,-52 154,-52"/>
<text text-anchor="start" x="162" y="-73" font-family="Helvetica,sans-Serif" font-size="10.00">GUICutRenderWindow</text>
<text text-anchor="middle" x="227" y="-60" font-family="Helvetica,sans-Serif" font-size="10.00">::OnSCutPropsChanged_spin</text>
</a>
</g>
<!-- Node1&#45;&gt;Node3 -->
<g id="edge4" class="edge"><title>Node1&#45;&gt;Node3</title>
<path fill="none" stroke="midnightblue" d="M128.005,-69C136.512,-69 145.231,-69 153.798,-69"/>
<polygon fill="midnightblue" stroke="midnightblue" points="127.758,-65.5001 117.758,-69 127.758,-72.5001 127.758,-65.5001"/>
</g>
<!-- Node4 -->
<g id="node7" class="node"><title>Node4</title>
<a xlink:href="classGUICutRenderWindow.xhtml#ab57ff6c0d5e6465bb0f3b5cf0e6d9dc9" target="_top" xlink:title="Behandelt Änderungen der Größe des Fensters. ">
<polygon fill="none" stroke="black" points="168.5,-0 168.5,-34 285.5,-34 285.5,-0 168.5,-0"/>
<text text-anchor="start" x="176.5" y="-21" font-family="Helvetica,sans-Serif" font-size="10.00">GUICutRenderWindow</text>
<text text-anchor="middle" x="227" y="-8" font-family="Helvetica,sans-Serif" font-size="10.00">::OnResize</text>
</a>
</g>
<!-- Node1&#45;&gt;Node4 -->
<g id="edge6" class="edge"><title>Node1&#45;&gt;Node4</title>
<path fill="none" stroke="midnightblue" d="M123.751,-48.958C139.633,-44.0422 156.485,-38.8261 171.867,-34.065"/>
<polygon fill="midnightblue" stroke="midnightblue" points="122.527,-45.6728 114.009,-51.9733 124.597,-52.3599 122.527,-45.6728"/>
</g>
</g>
</svg>
