<?xml version="1.0" encoding="UTF-8" standalone="no"?>
<!DOCTYPE svg PUBLIC "-//W3C//DTD SVG 1.1//EN"
 "http://www.w3.org/Graphics/SVG/1.1/DTD/svg11.dtd">
<!-- Generated by graphviz version 2.36.0 (20140111.2315)
 -->
<!-- Title: Vector3D::copy Pages: 1 -->
<svg width="1286pt" height="375pt"
 viewBox="0.00 0.00 1286.00 374.87" xmlns="http://www.w3.org/2000/svg" xmlns:xlink="http://www.w3.org/1999/xlink">
<g id="graph0" class="graph" transform="scale(1 1) rotate(0) translate(4 370.873)">
<title>Vector3D::copy</title>
<!-- Node1 -->
<g id="node1" class="node"><title>Node1</title>
<polygon fill="#bfbfbf" stroke="black" points="0.5,-171.5 0.5,-190.5 85.5,-190.5 85.5,-171.5 0.5,-171.5"/>
<text text-anchor="middle" x="43" y="-178.5" font-family="Helvetica,sans-Serif" font-size="10.00">Vector3D::copy</text>
</g>
<!-- Node2 -->
<g id="node2" class="node"><title>Node2</title>
<g id="a_node2"><a xlink:href="simpleanalyzer-gui_2src_2GUI_2Renderer_8cpp.xhtml#a17ef754a4f478e115d6e7fb813702639" target="_top" xlink:title="pointBehindCut">
<polygon fill="none" stroke="black" points="329.5,-304.5 329.5,-323.5 412.5,-323.5 412.5,-304.5 329.5,-304.5"/>
<text text-anchor="middle" x="371" y="-311.5" font-family="Helvetica,sans-Serif" font-size="10.00">pointBehindCut</text>
</a>
</g>
</g>
<!-- Node1&#45;&gt;Node2 -->
<g id="edge1" class="edge"><title>Node1&#45;&gt;Node2</title>
<path fill="none" stroke="midnightblue" d="M52.2015,-199.733C63.8834,-223.942 87.7605,-265.312 122,-285 187.012,-322.383 277.413,-322.484 329.198,-318.62"/>
<polygon fill="midnightblue" stroke="midnightblue" points="55.3177,-198.133 47.9469,-190.522 48.9628,-201.068 55.3177,-198.133"/>
</g>
<!-- Node3 -->
<g id="node3" class="node"><title>Node3</title>
<g id="a_node3"><a xlink:href="classRenderer.xhtml#a927f376a6283de3181b86f65b927386c" target="_top" xlink:title="Zeichnet die Tetraeder eines Materials des Objekts. ">
<polygon fill="none" stroke="black" points="478,-323.5 478,-342.5 614,-342.5 614,-323.5 478,-323.5"/>
<text text-anchor="middle" x="546" y="-330.5" font-family="Helvetica,sans-Serif" font-size="10.00">Renderer::renderTetrahedra</text>
</a>
</g>
</g>
<!-- Node1&#45;&gt;Node3 -->
<g id="edge3" class="edge"><title>Node1&#45;&gt;Node3</title>
<path fill="none" stroke="midnightblue" d="M48.9801,-200.63C57.9001,-231.315 79.7493,-289.927 122,-317 245.445,-396.099 433.379,-361.632 510.321,-342.565"/>
<polygon fill="midnightblue" stroke="midnightblue" points="52.2783,-199.422 46.2649,-190.699 45.5261,-201.268 52.2783,-199.422"/>
</g>
<!-- Node4 -->
<g id="node4" class="node"><title>Node4</title>
<g id="a_node4"><a xlink:href="simpleanalyzer-gui_2src_2GUI_2Renderer_8cpp.xhtml#a608a02845726b8844beac12e5154c500" target="_top" xlink:title="Visualisiert Informationen über eine 2D&#45;Temperaturverteilung. ">
<polygon fill="none" stroke="black" points="320.5,-266.5 320.5,-285.5 421.5,-285.5 421.5,-266.5 320.5,-266.5"/>
<text text-anchor="middle" x="371" y="-273.5" font-family="Helvetica,sans-Serif" font-size="10.00">drawCutRenderInfo</text>
</a>
</g>
</g>
<!-- Node1&#45;&gt;Node4 -->
<g id="edge4" class="edge"><title>Node1&#45;&gt;Node4</title>
<path fill="none" stroke="midnightblue" d="M56.5885,-199.182C70.3271,-217.371 94.1236,-244.402 122,-257 185.747,-285.808 268.126,-285.764 320.029,-281.848"/>
<polygon fill="midnightblue" stroke="midnightblue" points="59.0623,-196.632 50.3526,-190.6 53.3994,-200.747 59.0623,-196.632"/>
</g>
<!-- Node6 -->
<g id="node6" class="node"><title>Node6</title>
<g id="a_node6"><a xlink:href="namespaceUtils.xhtml#a5f216cc7011a901130db81321b565334" target="_top" xlink:title="Testet, ob ein Strahl ein Dreieck schneidet. ">
<polygon fill="none" stroke="black" points="126,-76.5 126,-95.5 260,-95.5 260,-76.5 126,-76.5"/>
<text text-anchor="middle" x="193" y="-83.5" font-family="Helvetica,sans-Serif" font-size="10.00">Utils::rayIntersectsTriangle</text>
</a>
</g>
</g>
<!-- Node1&#45;&gt;Node6 -->
<g id="edge6" class="edge"><title>Node1&#45;&gt;Node6</title>
<path fill="none" stroke="midnightblue" d="M58.9602,-163.832C73.6218,-147.936 97.308,-124.613 122,-110 132.172,-103.98 144.073,-99.1877 155.147,-95.5176"/>
<polygon fill="midnightblue" stroke="midnightblue" points="56.2511,-161.61 52.1583,-171.383 61.4519,-166.296 56.2511,-161.61"/>
</g>
<!-- Node8 -->
<g id="node8" class="node"><title>Node8</title>
<g id="a_node8"><a xlink:href="GUICutRenderWindow_8cpp.xhtml#aeaaae4c8452680389d221d0e60a6fc33" target="_top" xlink:title="Funktion zum verteilten berechnen der 2D&#45;Temperaturverteilung. ">
<polygon fill="none" stroke="black" points="671,-136.5 671,-155.5 747,-155.5 747,-136.5 671,-136.5"/>
<text text-anchor="middle" x="709" y="-143.5" font-family="Helvetica,sans-Serif" font-size="10.00">render_thread</text>
</a>
</g>
</g>
<!-- Node1&#45;&gt;Node8 -->
<g id="edge26" class="edge"><title>Node1&#45;&gt;Node8</title>
<path fill="none" stroke="midnightblue" d="M95.5492,-178.283C224.455,-171.488 558.477,-153.881 670.642,-147.969"/>
<polygon fill="midnightblue" stroke="midnightblue" points="95.338,-174.789 85.5362,-178.811 95.7066,-181.779 95.338,-174.789"/>
</g>
<!-- Node9 -->
<g id="node9" class="node"><title>Node9</title>
<g id="a_node9"><a xlink:href="classGUICutRenderWindow.xhtml#a9eedb7088ad31f4680a77ed3a06fa60c" target="_top" xlink:title="Berechnet die 2D&#45;Temperaturverteilung als Grafik. ">
<polygon fill="none" stroke="black" points="809.5,-185 809.5,-215 926.5,-215 926.5,-185 809.5,-185"/>
<text text-anchor="start" x="817.5" y="-203" font-family="Helvetica,sans-Serif" font-size="10.00">GUICutRenderWindow</text>
<text text-anchor="middle" x="868" y="-192" font-family="Helvetica,sans-Serif" font-size="10.00">::renderImage</text>
</a>
</g>
</g>
<!-- Node1&#45;&gt;Node9 -->
<g id="edge27" class="edge"><title>Node1&#45;&gt;Node9</title>
<path fill="none" stroke="midnightblue" d="M95.9108,-185.895C160.191,-191.524 273.065,-200 370,-200 370,-200 370,-200 547,-200 638.806,-200 745.426,-200 809.482,-200"/>
<polygon fill="midnightblue" stroke="midnightblue" points="95.9086,-182.381 85.6383,-184.983 95.2896,-189.354 95.9086,-182.381"/>
</g>
<!-- Node11 -->
<g id="node11" class="node"><title>Node11</title>
<g id="a_node11"><a xlink:href="namespaceUtils.xhtml#a9b995a1220a78be108b19bda4b776332" target="_top" xlink:title="Testet, ob sich ein Punkt innerhalb eines Tetraeders befindet. ">
<polygon fill="none" stroke="black" points="122,-38.5 122,-57.5 264,-57.5 264,-38.5 122,-38.5"/>
<text text-anchor="middle" x="193" y="-45.5" font-family="Helvetica,sans-Serif" font-size="10.00">Utils::pointInsideTetrahedron</text>
</a>
</g>
</g>
<!-- Node1&#45;&gt;Node11 -->
<g id="edge11" class="edge"><title>Node1&#45;&gt;Node11</title>
<path fill="none" stroke="midnightblue" d="M51.8817,-162.01C63.4516,-136.5 87.4684,-91.5428 122,-67 127.44,-63.1336 133.628,-60.0538 140.021,-57.6005"/>
<polygon fill="midnightblue" stroke="midnightblue" points="48.6014,-160.776 47.8134,-171.342 55.0181,-163.574 48.6014,-160.776"/>
</g>
<!-- Node23 -->
<g id="node23" class="node"><title>Node23</title>
<g id="a_node23"><a xlink:href="classTriangle.xhtml#a3c72b19f316fa9ffb0a2f206e3558790" target="_top" xlink:title="Gibt die Normale des Dreiecks zurück. ">
<polygon fill="none" stroke="black" points="142,-228.5 142,-247.5 244,-247.5 244,-228.5 142,-228.5"/>
<text text-anchor="middle" x="193" y="-235.5" font-family="Helvetica,sans-Serif" font-size="10.00">Triangle::getNormal</text>
</a>
</g>
</g>
<!-- Node1&#45;&gt;Node23 -->
<g id="edge28" class="edge"><title>Node1&#45;&gt;Node23</title>
<path fill="none" stroke="midnightblue" d="M74.7109,-194.579C88.9939,-200.743 106.266,-207.983 122,-214 135.2,-219.048 149.98,-224.189 162.546,-228.411"/>
<polygon fill="midnightblue" stroke="midnightblue" points="75.9222,-191.289 65.3559,-190.512 73.1313,-197.708 75.9222,-191.289"/>
</g>
<!-- Node24 -->
<g id="node24" class="node"><title>Node24</title>
<g id="a_node24"><a xlink:href="classInterpolator.xhtml#a30e714ca6dff9b5745d029f95af1420a" target="_top" xlink:title="Ermittelt den Wert für einen beliebigen Punkt im Raum. ">
<polygon fill="none" stroke="black" points="305.5,-114.5 305.5,-133.5 436.5,-133.5 436.5,-114.5 305.5,-114.5"/>
<text text-anchor="middle" x="371" y="-121.5" font-family="Helvetica,sans-Serif" font-size="10.00">Interpolator::interpolateTet</text>
</a>
</g>
</g>
<!-- Node1&#45;&gt;Node24 -->
<g id="edge35" class="edge"><title>Node1&#45;&gt;Node24</title>
<path fill="none" stroke="midnightblue" d="M71.3663,-167.003C86.0132,-160.14 104.58,-152.418 122,-148 183.007,-132.529 254.779,-126.891 305.371,-124.907"/>
<polygon fill="midnightblue" stroke="midnightblue" points="69.8461,-163.851 62.3586,-171.347 72.8863,-170.156 69.8461,-163.851"/>
</g>
<!-- Node25 -->
<g id="node25" class="node"><title>Node25</title>
<g id="a_node25"><a xlink:href="classInterpolator.xhtml#ad59ac6ed3822e08a67ac7d1ee88a5bd2" target="_top" xlink:title="Ermittelt den Wert für einen beliebigen Punkt in einer Ebene. ">
<polygon fill="none" stroke="black" points="129,-0.5 129,-19.5 257,-19.5 257,-0.5 129,-0.5"/>
<text text-anchor="middle" x="193" y="-7.5" font-family="Helvetica,sans-Serif" font-size="10.00">Interpolator::interpolateTri</text>
</a>
</g>
</g>
<!-- Node1&#45;&gt;Node25 -->
<g id="edge34" class="edge"><title>Node1&#45;&gt;Node25</title>
<path fill="none" stroke="midnightblue" d="M48.5579,-161.412C57.1577,-128.895 78.9116,-63.9053 122,-29 126.795,-25.116 132.318,-22.0228 138.116,-19.5599"/>
<polygon fill="midnightblue" stroke="midnightblue" points="45.0767,-160.907 46.0512,-171.457 51.8684,-162.602 45.0767,-160.907"/>
</g>
<!-- Node2&#45;&gt;Node3 -->
<g id="edge2" class="edge"><title>Node2&#45;&gt;Node3</title>
<path fill="none" stroke="midnightblue" d="M422.959,-319.597C440.182,-321.488 459.68,-323.63 477.956,-325.637"/>
<polygon fill="midnightblue" stroke="midnightblue" points="422.883,-316.067 412.561,-318.455 422.119,-323.026 422.883,-316.067"/>
</g>
<!-- Node5 -->
<g id="node5" class="node"><title>Node5</title>
<g id="a_node5"><a xlink:href="classRenderer.xhtml#af7e5f8f68742f198e315fb4683a605a4" target="_top" xlink:title="Zeichnet das Objekt (Attribut object). ">
<polygon fill="none" stroke="black" points="501.5,-266.5 501.5,-285.5 590.5,-285.5 590.5,-266.5 501.5,-266.5"/>
<text text-anchor="middle" x="546" y="-273.5" font-family="Helvetica,sans-Serif" font-size="10.00">Renderer::render</text>
</a>
</g>
</g>
<!-- Node4&#45;&gt;Node5 -->
<g id="edge5" class="edge"><title>Node4&#45;&gt;Node5</title>
<path fill="none" stroke="midnightblue" d="M431.845,-276C454.676,-276 480.253,-276 501.306,-276"/>
<polygon fill="midnightblue" stroke="midnightblue" points="431.575,-272.5 421.575,-276 431.575,-279.5 431.575,-272.5"/>
</g>
<!-- Node7 -->
<g id="node7" class="node"><title>Node7</title>
<g id="a_node7"><a xlink:href="namespaceUtils.xhtml#af8fc5d6dab27f759ab5d76757a53023f" target="_top" xlink:title="Testet, ob sich ein Punkt innerhalb eines Körpers befindet. ">
<polygon fill="none" stroke="black" points="314,-76.5 314,-95.5 428,-95.5 428,-76.5 314,-76.5"/>
<text text-anchor="middle" x="371" y="-83.5" font-family="Helvetica,sans-Serif" font-size="10.00">Utils::pointInsideMesh</text>
</a>
</g>
</g>
<!-- Node6&#45;&gt;Node7 -->
<g id="edge7" class="edge"><title>Node6&#45;&gt;Node7</title>
<path fill="none" stroke="midnightblue" d="M270.136,-86C284.858,-86 300.031,-86 313.967,-86"/>
<polygon fill="midnightblue" stroke="midnightblue" points="270.037,-82.5001 260.037,-86 270.037,-89.5001 270.037,-82.5001"/>
</g>
<!-- Node7&#45;&gt;Node8 -->
<g id="edge8" class="edge"><title>Node7&#45;&gt;Node8</title>
<path fill="none" stroke="midnightblue" d="M435.202,-97.3389C449.289,-99.8633 464.153,-102.525 478,-105 546.076,-117.169 625.495,-131.315 670.951,-139.407"/>
<polygon fill="midnightblue" stroke="midnightblue" points="435.569,-93.8489 425.108,-95.5296 434.334,-100.739 435.569,-93.8489"/>
</g>
<!-- Node8&#45;&gt;Node9 -->
<g id="edge9" class="edge"><title>Node8&#45;&gt;Node9</title>
<path fill="none" stroke="midnightblue" d="M747.365,-158.852C770.161,-166.692 799.406,-176.751 823.276,-184.961"/>
<polygon fill="midnightblue" stroke="midnightblue" points="748.302,-155.473 737.707,-155.53 746.025,-162.092 748.302,-155.473"/>
</g>
<!-- Node10 -->
<g id="node10" class="node"><title>Node10</title>
<g id="a_node10"><a xlink:href="classGUICutRenderWindow.xhtml#a7cd1bfbec53756a1cbbe1616b4d46c7a" target="_top" xlink:title="Behandelt das Drücken des Buttons zur Berechnung der zweidimensionalen Temperaturverteilung. ">
<polygon fill="none" stroke="black" points="971.5,-185 971.5,-215 1088.5,-215 1088.5,-185 971.5,-185"/>
<text text-anchor="start" x="979.5" y="-203" font-family="Helvetica,sans-Serif" font-size="10.00">GUICutRenderWindow</text>
<text text-anchor="middle" x="1030" y="-192" font-family="Helvetica,sans-Serif" font-size="10.00">::renderCutBtClick</text>
</a>
</g>
</g>
<!-- Node9&#45;&gt;Node10 -->
<g id="edge10" class="edge"><title>Node9&#45;&gt;Node10</title>
<path fill="none" stroke="midnightblue" d="M937.107,-200C948.5,-200 960.222,-200 971.321,-200"/>
<polygon fill="midnightblue" stroke="midnightblue" points="936.764,-196.5 926.764,-200 936.764,-203.5 936.764,-196.5"/>
</g>
<!-- Node11&#45;&gt;Node7 -->
<g id="edge12" class="edge"><title>Node11&#45;&gt;Node7</title>
<path fill="none" stroke="midnightblue" d="M248.433,-59.7526C273.319,-65.1258 302.419,-71.4086 325.907,-76.4799"/>
<polygon fill="midnightblue" stroke="midnightblue" points="248.926,-56.2784 238.412,-57.589 247.448,-63.1207 248.926,-56.2784"/>
</g>
<!-- Node12 -->
<g id="node12" class="node"><title>Node12</title>
<g id="a_node12"><a xlink:href="namespaceUtils.xhtml#a40eaef4d22da849a5deb2f1153d88bbc" target="_top" xlink:title="Testet, ob sich ein Punkt innerhalb eines Tetraeders befindet. ">
<polygon fill="none" stroke="black" points="300,-0.5 300,-19.5 442,-19.5 442,-0.5 300,-0.5"/>
<text text-anchor="middle" x="371" y="-7.5" font-family="Helvetica,sans-Serif" font-size="10.00">Utils::pointInsideTetrahedron</text>
</a>
</g>
</g>
<!-- Node11&#45;&gt;Node12 -->
<g id="edge13" class="edge"><title>Node11&#45;&gt;Node12</title>
<path fill="none" stroke="midnightblue" d="M248.433,-36.2474C273.319,-30.8742 302.419,-24.5914 325.907,-19.5201"/>
<polygon fill="midnightblue" stroke="midnightblue" points="247.448,-32.8793 238.412,-38.411 248.926,-39.7216 247.448,-32.8793"/>
</g>
<!-- Node13 -->
<g id="node13" class="node"><title>Node13</title>
<g id="a_node13"><a xlink:href="namespaceUtils.xhtml#a6a0ae18a42e2d206bc1b43da27820fe2" target="_top" xlink:title="Gibt den inter/extrapolierten Wert eines Punktes zurück. ">
<polygon fill="none" stroke="black" points="494,-76.5 494,-95.5 598,-95.5 598,-76.5 494,-76.5"/>
<text text-anchor="middle" x="546" y="-83.5" font-family="Helvetica,sans-Serif" font-size="10.00">Utils::getPointValue</text>
</a>
</g>
</g>
<!-- Node11&#45;&gt;Node13 -->
<g id="edge14" class="edge"><title>Node11&#45;&gt;Node13</title>
<path fill="none" stroke="midnightblue" d="M274.374,-51.9953C323.021,-54.9503 386.232,-59.7409 442,-67 460.843,-69.4527 481.465,-73.069 499.274,-76.4902"/>
<polygon fill="midnightblue" stroke="midnightblue" points="274.412,-48.4915 264.222,-51.3924 273.997,-55.4791 274.412,-48.4915"/>
</g>
<!-- Node13&#45;&gt;Node8 -->
<g id="edge15" class="edge"><title>Node13&#45;&gt;Node8</title>
<path fill="none" stroke="midnightblue" d="M583.651,-98.9662C593.52,-102.502 604.181,-106.362 614,-110 637.597,-118.744 664.389,-129.041 683.316,-136.378"/>
<polygon fill="midnightblue" stroke="midnightblue" points="584.701,-95.6247 574.106,-95.5586 582.347,-102.217 584.701,-95.6247"/>
</g>
<!-- Node14 -->
<g id="node14" class="node"><title>Node14</title>
<g id="a_node14"><a xlink:href="classAnalyzer.xhtml#a8f73ee0aa71ae395a74b43dc76b35458" target="_top" xlink:title="Ermittelt Daten für einen Punkt am aktuell ausgewählten Zeitpunkt. ">
<polygon fill="none" stroke="black" points="650.5,-51.5 650.5,-70.5 767.5,-70.5 767.5,-51.5 650.5,-51.5"/>
<text text-anchor="middle" x="709" y="-58.5" font-family="Helvetica,sans-Serif" font-size="10.00">Analyzer::analyzePoint</text>
</a>
</g>
</g>
<!-- Node13&#45;&gt;Node14 -->
<g id="edge16" class="edge"><title>Node13&#45;&gt;Node14</title>
<path fill="none" stroke="midnightblue" d="M608.282,-76.4841C622.106,-74.3377 636.732,-72.0665 650.397,-69.9445"/>
<polygon fill="midnightblue" stroke="midnightblue" points="607.729,-73.0281 598.384,-78.0211 608.803,-79.9452 607.729,-73.0281"/>
</g>
<!-- Node16 -->
<g id="node16" class="node"><title>Node16</title>
<g id="a_node16"><a xlink:href="MeshProcessor_8cpp.xhtml#ad2670c4e8381f9a0a89c65f5559ed421" target="_top" xlink:title="interpolatePoint">
<polygon fill="none" stroke="black" points="667,-92.5 667,-111.5 751,-111.5 751,-92.5 667,-92.5"/>
<text text-anchor="middle" x="709" y="-99.5" font-family="Helvetica,sans-Serif" font-size="10.00">interpolatePoint</text>
</a>
</g>
</g>
<!-- Node13&#45;&gt;Node16 -->
<g id="edge18" class="edge"><title>Node13&#45;&gt;Node16</title>
<path fill="none" stroke="midnightblue" d="M608.417,-92.1035C627.928,-94.0426 649.028,-96.1394 666.761,-97.9017"/>
<polygon fill="midnightblue" stroke="midnightblue" points="608.681,-88.6127 598.384,-91.1065 607.989,-95.5783 608.681,-88.6127"/>
</g>
<!-- Node15 -->
<g id="node15" class="node"><title>Node15</title>
<g id="a_node15"><a xlink:href="classGUIAnalyzePointWindow.xhtml#aa84ea9958e8b41423f01316d01ba5151" target="_top" xlink:title="Event&#45;Tabellendeklaration für wxWidgets. ">
<polygon fill="none" stroke="black" points="804,-45 804,-75 932,-75 932,-45 804,-45"/>
<text text-anchor="start" x="812" y="-63" font-family="Helvetica,sans-Serif" font-size="10.00">GUIAnalyzePointWindow</text>
<text text-anchor="middle" x="868" y="-52" font-family="Helvetica,sans-Serif" font-size="10.00">::analyzePoint</text>
</a>
</g>
</g>
<!-- Node14&#45;&gt;Node15 -->
<g id="edge17" class="edge"><title>Node14&#45;&gt;Node15</title>
<path fill="none" stroke="midnightblue" d="M777.674,-60.569C786.374,-60.5135 795.255,-60.457 803.879,-60.402"/>
<polygon fill="midnightblue" stroke="midnightblue" points="777.547,-57.0696 767.57,-60.6333 777.592,-64.0695 777.547,-57.0696"/>
</g>
<!-- Node17 -->
<g id="node17" class="node"><title>Node17</title>
<g id="a_node17"><a xlink:href="classMeshProcessor.xhtml#a060c3815db33f8e52ac620ed2239ccc9" target="_top" xlink:title="Berechnet die Temperaturverteilung für ein Objekt. ">
<polygon fill="none" stroke="black" points="805.5,-94.5 805.5,-113.5 930.5,-113.5 930.5,-94.5 805.5,-94.5"/>
<text text-anchor="middle" x="868" y="-101.5" font-family="Helvetica,sans-Serif" font-size="10.00">MeshProcessor::process</text>
</a>
</g>
</g>
<!-- Node16&#45;&gt;Node17 -->
<g id="edge19" class="edge"><title>Node16&#45;&gt;Node17</title>
<path fill="none" stroke="midnightblue" d="M761.647,-102.658C775.617,-102.836 790.877,-103.03 805.337,-103.214"/>
<polygon fill="midnightblue" stroke="midnightblue" points="761.294,-99.1532 751.25,-102.525 761.204,-106.153 761.294,-99.1532"/>
</g>
<!-- Node18 -->
<g id="node18" class="node"><title>Node18</title>
<g id="a_node18"><a xlink:href="classAnalyzer.xhtml#a2a7b5f169f664ccd9f206e508cba78ef" target="_top" xlink:title="Ermittelt Daten für ein Objekt. ">
<polygon fill="none" stroke="black" points="968.5,-93.5 968.5,-112.5 1091.5,-112.5 1091.5,-93.5 968.5,-93.5"/>
<text text-anchor="middle" x="1030" y="-100.5" font-family="Helvetica,sans-Serif" font-size="10.00">Analyzer::analyzeObject</text>
</a>
</g>
</g>
<!-- Node17&#45;&gt;Node18 -->
<g id="edge20" class="edge"><title>Node17&#45;&gt;Node18</title>
<path fill="none" stroke="midnightblue" d="M941.069,-103.55C950.187,-103.493 959.443,-103.435 968.358,-103.379"/>
<polygon fill="midnightblue" stroke="midnightblue" points="940.838,-100.051 930.86,-103.613 940.882,-107.051 940.838,-100.051"/>
</g>
<!-- Node21 -->
<g id="node21" class="node"><title>Node21</title>
<g id="a_node21"><a xlink:href="classObjectData.xhtml#af3a850833d08eb9b45357449f455e24d" target="_top" xlink:title="Zerlegt das Objekt in Tetraeder (Schnittstelle zur Tetgen&#45;Bibliothek) und Berechnet die Temperaturver...">
<polygon fill="none" stroke="black" points="969,-131.5 969,-150.5 1091,-150.5 1091,-131.5 969,-131.5"/>
<text text-anchor="middle" x="1030" y="-138.5" font-family="Helvetica,sans-Serif" font-size="10.00">ObjectData::calculateIO</text>
</a>
</g>
</g>
<!-- Node17&#45;&gt;Node21 -->
<g id="edge23" class="edge"><title>Node17&#45;&gt;Node21</title>
<path fill="none" stroke="midnightblue" d="M919.977,-115.788C941.82,-120.84 967.002,-126.663 987.658,-131.44"/>
<polygon fill="midnightblue" stroke="midnightblue" points="920.735,-112.372 910.204,-113.528 919.158,-119.192 920.735,-112.372"/>
</g>
<!-- Node19 -->
<g id="node19" class="node"><title>Node19</title>
<g id="a_node19"><a xlink:href="classGUIAnalyzeOutputWindow.xhtml#a9ea5a7cf46d6189f368315903508cecc" target="_top" xlink:title="Methode zum aktualisieren des Fensters, alle Objekte werden erneut analysiert und die aktualisierten ...">
<polygon fill="none" stroke="black" points="1136,-63 1136,-93 1270,-93 1270,-63 1136,-63"/>
<text text-anchor="start" x="1144" y="-81" font-family="Helvetica,sans-Serif" font-size="10.00">GUIAnalyzeOutputWindow</text>
<text text-anchor="middle" x="1203" y="-70" font-family="Helvetica,sans-Serif" font-size="10.00">::Update</text>
</a>
</g>
</g>
<!-- Node18&#45;&gt;Node19 -->
<g id="edge21" class="edge"><title>Node18&#45;&gt;Node19</title>
<path fill="none" stroke="midnightblue" d="M1101.97,-92.6242C1113.21,-90.9813 1124.79,-89.2878 1135.91,-87.662"/>
<polygon fill="midnightblue" stroke="midnightblue" points="1101.16,-89.2057 1091.77,-94.1155 1102.17,-96.132 1101.16,-89.2057"/>
</g>
<!-- Node20 -->
<g id="node20" class="node"><title>Node20</title>
<g id="a_node20"><a xlink:href="classGUITimeline.xhtml#a099f3654aa6e7ea04df861851a0e9ec8" target="_top" xlink:title="Sucht den Zeitpunkt zwischen zwei markierten Stellen auf der Sensordaten&#45;Zeitleiste, für den der Wäremeenergiegehalt maximal wird. ">
<polygon fill="none" stroke="black" points="1134.5,-112.5 1134.5,-131.5 1271.5,-131.5 1271.5,-112.5 1134.5,-112.5"/>
<text text-anchor="middle" x="1203" y="-119.5" font-family="Helvetica,sans-Serif" font-size="10.00">GUITimeline::findMaxValue</text>
</a>
</g>
</g>
<!-- Node18&#45;&gt;Node20 -->
<g id="edge22" class="edge"><title>Node18&#45;&gt;Node20</title>
<path fill="none" stroke="midnightblue" d="M1101.96,-110.884C1112.71,-112.078 1123.77,-113.308 1134.45,-114.494"/>
<polygon fill="midnightblue" stroke="midnightblue" points="1102.1,-107.378 1091.77,-109.752 1101.32,-114.335 1102.1,-107.378"/>
</g>
<!-- Node21&#45;&gt;Node20 -->
<g id="edge25" class="edge"><title>Node21&#45;&gt;Node20</title>
<path fill="none" stroke="midnightblue" d="M1101.23,-133.196C1112.19,-131.979 1123.49,-130.723 1134.39,-129.512"/>
<polygon fill="midnightblue" stroke="midnightblue" points="1100.84,-129.718 1091.29,-134.301 1101.61,-136.675 1100.84,-129.718"/>
</g>
<!-- Node22 -->
<g id="node22" class="node"><title>Node22</title>
<g id="a_node22"><a xlink:href="classGUIMainWindow.xhtml#a0c2de30274c7f52ff74ec1217e47a9e5" target="_top" xlink:title="Berechnet die 3D&#45;Temperaturverteilung neu. ">
<polygon fill="none" stroke="black" points="1128,-151 1128,-181 1278,-181 1278,-151 1128,-151"/>
<text text-anchor="start" x="1136" y="-169" font-family="Helvetica,sans-Serif" font-size="10.00">GUIMainWindow::OnRecalcBt</text>
<text text-anchor="middle" x="1203" y="-158" font-family="Helvetica,sans-Serif" font-size="10.00">Click</text>
</a>
</g>
</g>
<!-- Node21&#45;&gt;Node22 -->
<g id="edge24" class="edge"><title>Node21&#45;&gt;Node22</title>
<path fill="none" stroke="midnightblue" d="M1101.41,-151.294C1110.14,-152.57 1119.09,-153.878 1127.87,-155.162"/>
<polygon fill="midnightblue" stroke="midnightblue" points="1101.69,-147.798 1091.29,-149.814 1100.68,-154.724 1101.69,-147.798"/>
</g>
<!-- Node23&#45;&gt;Node2 -->
<g id="edge29" class="edge"><title>Node23&#45;&gt;Node2</title>
<path fill="none" stroke="midnightblue" d="M217.839,-252.864C238.839,-265.454 270.58,-283.276 300,-295 309.241,-298.683 319.445,-301.902 329.137,-304.593"/>
<polygon fill="midnightblue" stroke="midnightblue" points="219.628,-249.856 209.264,-247.655 215.994,-255.838 219.628,-249.856"/>
</g>
<!-- Node23&#45;&gt;Node4 -->
<g id="edge30" class="edge"><title>Node23&#45;&gt;Node4</title>
<path fill="none" stroke="midnightblue" d="M248.433,-249.753C273.319,-255.126 302.419,-261.409 325.907,-266.48"/>
<polygon fill="midnightblue" stroke="midnightblue" points="248.926,-246.278 238.412,-247.589 247.448,-253.121 248.926,-246.278"/>
</g>
<!-- Node23&#45;&gt;Node9 -->
<g id="edge31" class="edge"><title>Node23&#45;&gt;Node9</title>
<path fill="none" stroke="midnightblue" d="M254.07,-237.437C358.688,-236.021 581.037,-231.086 768,-214 781.397,-212.776 795.756,-211.01 809.266,-209.142"/>
<polygon fill="midnightblue" stroke="midnightblue" points="253.97,-233.938 244.016,-237.567 254.061,-240.937 253.97,-233.938"/>
</g>
<!-- Node23&#45;&gt;Node24 -->
<g id="edge32" class="edge"><title>Node23&#45;&gt;Node24</title>
<path fill="none" stroke="midnightblue" d="M217.261,-222.933C253.944,-199.173 324.215,-153.656 354.966,-133.738"/>
<polygon fill="midnightblue" stroke="midnightblue" points="215.193,-220.102 208.703,-228.477 218.999,-225.978 215.193,-220.102"/>
</g>
<!-- Node24&#45;&gt;Node13 -->
<g id="edge33" class="edge"><title>Node24&#45;&gt;Node13</title>
<path fill="none" stroke="midnightblue" d="M425.505,-112.247C449.967,-106.874 478.571,-100.591 501.659,-95.5201"/>
<polygon fill="midnightblue" stroke="midnightblue" points="424.671,-108.847 415.655,-114.411 426.173,-115.684 424.671,-108.847"/>
</g>
</g>
</svg>
