<?xml version="1.0" encoding="UTF-8" standalone="no"?>
<!DOCTYPE svg PUBLIC "-//W3C//DTD SVG 1.1//EN"
 "http://www.w3.org/Graphics/SVG/1.1/DTD/svg11.dtd">
<!-- Generated by graphviz version 2.26.3 (20100126.1600)
 -->
<!-- Title: Interpolator::interpolateTri Pages: 1 -->
<!--zoomable 569 -->
<svg id="main" version="1.1" xmlns="http://www.w3.org/2000/svg" xmlns:xlink="http://www.w3.org/1999/xlink" xml:space="preserve" onload="init(evt)">
<style type="text/css"><![CDATA[
.edge:hover path { stroke: red; }
.edge:hover polygon { stroke: red; fill: red; }
]]></style>
<script type="text/javascript"><![CDATA[
var edges = document.getElementsByTagName('g');
if (edges && edges.length) {
  for (var i=0;i<edges.length;i++) {
    if (edges[i].id.substr(0,4)=='edge') {
      edges[i].setAttribute('class','edge');
    }
  }
}
]]></script>
        <defs>
                <circle id="rim" cx="0" cy="0" r="7"/>
                <circle id="rim2" cx="0" cy="0" r="3.5"/>
                <g id="zoomPlus">
                        <use xlink:href="#rim" fill="#404040">
                                <set attributeName="fill" to="#808080" begin="zoomplus.mouseover" end="zoomplus.mouseout"/>
                        </use>
                        <path d="M-4,0h8M0,-4v8" fill="none" stroke="white" stroke-width="1.5" pointer-events="none"/>
                </g>
                <g id="zoomMin">
                        <use xlink:href="#rim" fill="#404040">
                                <set attributeName="fill" to="#808080" begin="zoomminus.mouseover" end="zoomminus.mouseout"/>
                        </use>
                        <path d="M-4,0h8" fill="none" stroke="white" stroke-width="1.5" pointer-events="none"/>
                </g>
                <g id="dirArrow">
                        <path fill="none" stroke="white" stroke-width="1.5" d="M0,-3.0v7 M-2.5,-0.5L0,-3.0L2.5,-0.5"/>
                </g>
               <g id="resetDef">
                       <use xlink:href="#rim2" fill="#404040">
                               <set attributeName="fill" to="#808080" begin="reset.mouseover" end="reset.mouseout"/>
                       </use>
               </g>
        </defs>

<script type="text/javascript">
var viewWidth = 496;
var viewHeight = 569;
var sectionId = 'dynsection-2';
</script>
<script xlink:href="svgpan.js"/>
<svg id="graph" class="graph">
<g id="viewport">
<title>Interpolator::interpolateTri</title>
<!-- Node1 -->
<g id="node1" class="node"><title>Node1</title>
<polygon fill="#bfbfbf" stroke="black" points="0,-279.5 0,-300.5 128,-300.5 128,-279.5 0,-279.5"/>
<text text-anchor="middle" x="64" y="-287.5" font-family="Helvetica,sans-Serif" font-size="10.00">Interpolator::interpolateTri</text>
</g>
<!-- Node2 -->
<g id="node3" class="node"><title>Node2</title>
<a xlink:href="classVector3D.xhtml#ac83e936757114f32bc9d868ea5fabbc2" target="_top" xlink:title="Testet, ob zwei Vektoren identisch sind. ">
<polygon fill="none" stroke="black" points="175,-514.5 175,-535.5 267,-535.5 267,-514.5 175,-514.5"/>
<text text-anchor="middle" x="221" y="-522.5" font-family="Helvetica,sans-Serif" font-size="10.00">Vector3D::equals</text>
</a>
</g>
<!-- Node1&#45;&gt;Node2 -->
<g id="edge2" class="edge"><title>Node1&#45;&gt;Node2</title>
<path fill="none" stroke="midnightblue" d="M65.9215,-300.684C72.7052,-335.344 98.7334,-445.829 164,-505 165.704,-506.545 167.535,-507.973 169.459,-509.291"/>
<polygon fill="midnightblue" stroke="midnightblue" points="167.959,-512.465 178.375,-514.399 171.438,-506.391 167.959,-512.465"/>
</g>
<!-- Node3 -->
<g id="node5" class="node"><title>Node3</title>
<a xlink:href="classVector3D.xhtml#aa9eaf29045bf32b95c5c7bcb2b8b68d7" target="_top" xlink:title="Gibt das X&#45;Element des Vektors zurück. ">
<polygon fill="none" stroke="black" points="326,-494.5 326,-515.5 410,-515.5 410,-494.5 326,-494.5"/>
<text text-anchor="middle" x="368" y="-502.5" font-family="Helvetica,sans-Serif" font-size="10.00">Vector3D::getX</text>
</a>
</g>
<!-- Node1&#45;&gt;Node3 -->
<g id="edge54" class="edge"><title>Node1&#45;&gt;Node3</title>
<path fill="none" stroke="midnightblue" d="M66.5156,-300.725C77.2151,-345.337 120.392,-515.26 164,-545 219.463,-582.825 302.029,-544.564 343.03,-520.816"/>
<polygon fill="midnightblue" stroke="midnightblue" points="345.026,-523.701 351.822,-515.574 341.441,-517.689 345.026,-523.701"/>
</g>
<!-- Node4 -->
<g id="node7" class="node"><title>Node4</title>
<a xlink:href="classVector3D.xhtml#aa3ffff17b886274a58417dfe4bb4c4a2" target="_top" xlink:title="Gibt das Y&#45;Element des Vektors zurück. ">
<polygon fill="none" stroke="black" points="326,-414.5 326,-435.5 410,-435.5 410,-414.5 326,-414.5"/>
<text text-anchor="middle" x="368" y="-422.5" font-family="Helvetica,sans-Serif" font-size="10.00">Vector3D::getY</text>
</a>
</g>
<!-- Node1&#45;&gt;Node4 -->
<g id="edge52" class="edge"><title>Node1&#45;&gt;Node4</title>
<path fill="none" stroke="midnightblue" d="M87.752,-300.54C127.243,-318.065 208.902,-354.308 278,-385 296.81,-393.355 317.83,-402.697 334.822,-410.25"/>
<polygon fill="midnightblue" stroke="midnightblue" points="333.755,-413.606 344.315,-414.47 336.599,-407.21 333.755,-413.606"/>
</g>
<!-- Node6 -->
<g id="node11" class="node"><title>Node6</title>
<a xlink:href="classTriangle.xhtml#a9320d1ab83c104352bf5e8f2c8274334" target="_top" xlink:title="Gibt eine Referenz auf den Ortsvektor zum index+1 Punkt des Dreiecks zurück. ">
<polygon fill="none" stroke="black" points="176.5,-240.5 176.5,-261.5 265.5,-261.5 265.5,-240.5 176.5,-240.5"/>
<text text-anchor="middle" x="221" y="-248.5" font-family="Helvetica,sans-Serif" font-size="10.00">Triangle::getVert</text>
</a>
</g>
<!-- Node1&#45;&gt;Node6 -->
<g id="edge10" class="edge"><title>Node1&#45;&gt;Node6</title>
<path fill="none" stroke="midnightblue" d="M106.486,-279.446C125.598,-274.699 148.345,-269.048 168.51,-264.039"/>
<polygon fill="midnightblue" stroke="midnightblue" points="169.618,-267.37 178.48,-261.562 167.931,-260.577 169.618,-267.37"/>
</g>
<!-- Node7 -->
<g id="node13" class="node"><title>Node7</title>
<a xlink:href="classTriangle.xhtml#a6de5f8560482f4130bdbb96b25aa1b58" target="_top" xlink:title="Gibt eine Referenz auf den Ortsvektor zum zweiten Punkt des Dreiecks zurück. ">
<polygon fill="none" stroke="black" points="179.5,-200.5 179.5,-221.5 262.5,-221.5 262.5,-200.5 179.5,-200.5"/>
<text text-anchor="middle" x="221" y="-208.5" font-family="Helvetica,sans-Serif" font-size="10.00">Triangle::getV2</text>
</a>
</g>
<!-- Node1&#45;&gt;Node7 -->
<g id="edge12" class="edge"><title>Node1&#45;&gt;Node7</title>
<path fill="none" stroke="midnightblue" d="M79.7537,-279.39C99.0249,-266.725 132.927,-245.448 164,-231 168.404,-228.952 173.08,-226.991 177.786,-225.151"/>
<polygon fill="midnightblue" stroke="midnightblue" points="179.264,-228.336 187.408,-221.559 176.816,-221.778 179.264,-228.336"/>
</g>
<!-- Node8 -->
<g id="node15" class="node"><title>Node8</title>
<a xlink:href="classVector3D.xhtml#a46dd0d9a849809a3857783102959e788" target="_top" xlink:title="Gibt eine Kopie des Vektors zurück. ">
<polygon fill="none" stroke="black" points="178.5,-160.5 178.5,-181.5 263.5,-181.5 263.5,-160.5 178.5,-160.5"/>
<text text-anchor="middle" x="221" y="-168.5" font-family="Helvetica,sans-Serif" font-size="10.00">Vector3D::copy</text>
</a>
</g>
<!-- Node1&#45;&gt;Node8 -->
<g id="edge14" class="edge"><title>Node1&#45;&gt;Node8</title>
<path fill="none" stroke="midnightblue" d="M72.1685,-279.195C87.8661,-259.124 124.232,-215.872 164,-191 167.165,-189.021 170.551,-187.205 174.037,-185.546"/>
<polygon fill="midnightblue" stroke="midnightblue" points="175.607,-188.681 183.41,-181.515 172.841,-182.25 175.607,-188.681"/>
</g>
<!-- Node9 -->
<g id="node17" class="node"><title>Node9</title>
<a xlink:href="classVector3D.xhtml#a02364a41693ac080f5adadd776df74b4" target="_top" xlink:title="Subtrahiert einen Vektor von diesem Vektor. ">
<polygon fill="none" stroke="black" points="181,-474.5 181,-495.5 261,-495.5 261,-474.5 181,-474.5"/>
<text text-anchor="middle" x="221" y="-482.5" font-family="Helvetica,sans-Serif" font-size="10.00">Vector3D::sub</text>
</a>
</g>
<!-- Node1&#45;&gt;Node9 -->
<g id="edge16" class="edge"><title>Node1&#45;&gt;Node9</title>
<path fill="none" stroke="midnightblue" d="M67.1922,-300.797C76.7151,-331.171 107.808,-418.191 164,-465 166.381,-466.983 168.971,-468.775 171.692,-470.393"/>
<polygon fill="midnightblue" stroke="midnightblue" points="170.223,-473.573 180.722,-474.993 173.4,-467.336 170.223,-473.573"/>
</g>
<!-- Node10 -->
<g id="node22" class="node"><title>Node10</title>
<a xlink:href="classTriangle.xhtml#ae054a0eae5dae026c5af69274c5f277e" target="_top" xlink:title="Gibt eine Referenz auf den Ortsvektor zum ersten Punkt des Dreiecks zurück. ">
<polygon fill="none" stroke="black" points="179.5,-120.5 179.5,-141.5 262.5,-141.5 262.5,-120.5 179.5,-120.5"/>
<text text-anchor="middle" x="221" y="-128.5" font-family="Helvetica,sans-Serif" font-size="10.00">Triangle::getV1</text>
</a>
</g>
<!-- Node1&#45;&gt;Node10 -->
<g id="edge24" class="edge"><title>Node1&#45;&gt;Node10</title>
<path fill="none" stroke="midnightblue" d="M68.8703,-279.242C81.1118,-253.372 115.678,-187.151 164,-151 166.44,-149.174 169.061,-147.505 171.791,-145.981"/>
<polygon fill="midnightblue" stroke="midnightblue" points="173.334,-149.122 180.786,-141.59 170.264,-142.831 173.334,-149.122"/>
</g>
<!-- Node11 -->
<g id="node24" class="node"><title>Node11</title>
<a xlink:href="classTriangle.xhtml#a792a627dc42adad87c0b30e16a6b5824" target="_top" xlink:title="Gibt eine Referenz auf den Ortsvektor zum dritten Punkt des Dreiecks zurück. ">
<polygon fill="none" stroke="black" points="179.5,-80.5 179.5,-101.5 262.5,-101.5 262.5,-80.5 179.5,-80.5"/>
<text text-anchor="middle" x="221" y="-88.5" font-family="Helvetica,sans-Serif" font-size="10.00">Triangle::getV3</text>
</a>
</g>
<!-- Node1&#45;&gt;Node11 -->
<g id="edge26" class="edge"><title>Node1&#45;&gt;Node11</title>
<path fill="none" stroke="midnightblue" d="M66.985,-279.4C76.151,-248.746 106.796,-159.123 164,-111 165.966,-109.346 168.078,-107.825 170.29,-106.428"/>
<polygon fill="midnightblue" stroke="midnightblue" points="172.07,-109.445 179.218,-101.625 168.754,-103.28 172.07,-109.445"/>
</g>
<!-- Node12 -->
<g id="node26" class="node"><title>Node12</title>
<a xlink:href="classVector3D.xhtml#a3dec11494c99de7370e3877054c3ef13" target="_top" xlink:title="Multipliziert den Vektor mit einem Skalar. ">
<polygon fill="none" stroke="black" points="179.5,-40.5 179.5,-61.5 262.5,-61.5 262.5,-40.5 179.5,-40.5"/>
<text text-anchor="middle" x="221" y="-48.5" font-family="Helvetica,sans-Serif" font-size="10.00">Vector3D::mult</text>
</a>
</g>
<!-- Node1&#45;&gt;Node12 -->
<g id="edge28" class="edge"><title>Node1&#45;&gt;Node12</title>
<path fill="none" stroke="midnightblue" d="M65.8578,-279.12C72.4463,-243.824 97.9444,-131.309 164,-71 165.931,-69.2366 168.027,-67.627 170.238,-66.158"/>
<polygon fill="midnightblue" stroke="midnightblue" points="172.184,-69.0803 179.222,-61.1605 168.781,-62.963 172.184,-69.0803"/>
</g>
<!-- Node13 -->
<g id="node28" class="node"><title>Node13</title>
<a xlink:href="classVector3D.xhtml#a4bf1dcea68296f2f38f3574242933153" target="_top" xlink:title="Gibt den Winkel zu einem anderen Vektor in RAD zurück. ">
<polygon fill="none" stroke="black" points="164.5,-394.5 164.5,-415.5 277.5,-415.5 277.5,-394.5 164.5,-394.5"/>
<text text-anchor="middle" x="221" y="-402.5" font-family="Helvetica,sans-Serif" font-size="10.00">Vector3D::getAngleTo</text>
</a>
</g>
<!-- Node1&#45;&gt;Node13 -->
<g id="edge30" class="edge"><title>Node1&#45;&gt;Node13</title>
<path fill="none" stroke="midnightblue" d="M73.6089,-300.637C90.4684,-318.814 127.104,-356.191 164,-380 169.795,-383.74 176.244,-387.169 182.66,-390.21"/>
<polygon fill="midnightblue" stroke="midnightblue" points="181.401,-393.48 191.957,-394.378 184.264,-387.093 181.401,-393.48"/>
</g>
<!-- Node14 -->
<g id="node33" class="node"><title>Node14</title>
<a xlink:href="classVector3D.xhtml#a2e3aa1d244483abcb1a8e48e47e79512" target="_top" xlink:title="Gibt die Länge des Vektors zurück. ">
<polygon fill="none" stroke="black" points="314.5,-318.5 314.5,-339.5 421.5,-339.5 421.5,-318.5 314.5,-318.5"/>
<text text-anchor="middle" x="368" y="-326.5" font-family="Helvetica,sans-Serif" font-size="10.00">Vector3D::getLength</text>
</a>
</g>
<!-- Node1&#45;&gt;Node14 -->
<g id="edge42" class="edge"><title>Node1&#45;&gt;Node14</title>
<path fill="none" stroke="midnightblue" d="M128.262,-299.163C140.14,-300.809 152.441,-302.483 164,-304 210.964,-310.165 264.077,-316.658 304.333,-321.482"/>
<polygon fill="midnightblue" stroke="midnightblue" points="303.934,-324.959 314.279,-322.671 304.765,-318.009 303.934,-324.959"/>
</g>
<!-- Node15 -->
<g id="node35" class="node"><title>Node15</title>
<a xlink:href="GeometryClasses_8cpp.xhtml#a73527f20206c906e9f333e0f233de13e" target="_top" xlink:title="sqr">
<polygon fill="none" stroke="black" points="458,-298.5 458,-319.5 488,-319.5 488,-298.5 458,-298.5"/>
<text text-anchor="middle" x="473" y="-306.5" font-family="Helvetica,sans-Serif" font-size="10.00">sqr</text>
</a>
</g>
<!-- Node1&#45;&gt;Node15 -->
<g id="edge58" class="edge"><title>Node1&#45;&gt;Node15</title>
<path fill="none" stroke="midnightblue" d="M128.356,-292.99C220.247,-297.258 384.878,-304.906 447.697,-307.825"/>
<polygon fill="midnightblue" stroke="midnightblue" points="447.722,-311.329 457.874,-308.297 448.047,-304.337 447.722,-311.329"/>
</g>
<!-- Node16 -->
<g id="node38" class="node"><title>Node16</title>
<a xlink:href="classVector3D.xhtml#a0808a8e6004a347d82f9214778b5968f" target="_top" xlink:title="Gibt das Skalarprodukt mit einem anderen Vektor. ">
<polygon fill="none" stroke="black" points="165.5,-434.5 165.5,-455.5 276.5,-455.5 276.5,-434.5 165.5,-434.5"/>
<text text-anchor="middle" x="221" y="-442.5" font-family="Helvetica,sans-Serif" font-size="10.00">Vector3D::dotProduct</text>
</a>
</g>
<!-- Node1&#45;&gt;Node16 -->
<g id="edge44" class="edge"><title>Node1&#45;&gt;Node16</title>
<path fill="none" stroke="midnightblue" d="M69.1414,-300.819C81.7324,-326.195 116.579,-390.035 164,-425 166.494,-426.839 169.172,-428.52 171.957,-430.055"/>
<polygon fill="midnightblue" stroke="midnightblue" points="170.601,-433.286 181.129,-434.474 173.64,-426.98 170.601,-433.286"/>
</g>
<!-- Node17 -->
<g id="node45" class="node"><title>Node17</title>
<a xlink:href="Interpolator_8cpp.xhtml#a5d341112a316fd540a42316885c464e0" target="_top" xlink:title="getSign">
<polygon fill="none" stroke="black" points="196,-0.5 196,-21.5 246,-21.5 246,-0.5 196,-0.5"/>
<text text-anchor="middle" x="221" y="-8.5" font-family="Helvetica,sans-Serif" font-size="10.00">getSign</text>
</a>
</g>
<!-- Node1&#45;&gt;Node17 -->
<g id="edge56" class="edge"><title>Node1&#45;&gt;Node17</title>
<path fill="none" stroke="midnightblue" d="M64.9691,-279.409C69.0868,-240.529 88.5563,-104.14 164,-31 170.103,-25.0838 178.054,-20.909 186.072,-17.966"/>
<polygon fill="midnightblue" stroke="midnightblue" points="187.256,-21.2634 195.766,-14.9528 185.178,-14.5789 187.256,-21.2634"/>
</g>
<!-- Node2&#45;&gt;Node3 -->
<g id="edge4" class="edge"><title>Node2&#45;&gt;Node3</title>
<path fill="none" stroke="midnightblue" d="M267.108,-518.727C282.442,-516.641 299.632,-514.302 315.417,-512.154"/>
<polygon fill="midnightblue" stroke="midnightblue" points="316.117,-515.591 325.554,-510.775 315.173,-508.655 316.117,-515.591"/>
</g>
<!-- Node2&#45;&gt;Node4 -->
<g id="edge6" class="edge"><title>Node2&#45;&gt;Node4</title>
<path fill="none" stroke="midnightblue" d="M262.382,-514.38C267.971,-511.864 273.367,-508.777 278,-505 302.105,-485.351 290.066,-464.856 314,-445 315.986,-443.352 318.121,-441.834 320.354,-440.435"/>
<polygon fill="midnightblue" stroke="midnightblue" points="322.188,-443.422 329.347,-435.612 318.88,-437.253 322.188,-443.422"/>
</g>
<!-- Node5 -->
<g id="node9" class="node"><title>Node5</title>
<a xlink:href="classVector3D.xhtml#ab0dcbf253ff78856eccb5ea74d080fc7" target="_top" xlink:title="Gibt das Z&#45;Element des Vektors zurück. ">
<polygon fill="none" stroke="black" points="326.5,-454.5 326.5,-475.5 409.5,-475.5 409.5,-454.5 326.5,-454.5"/>
<text text-anchor="middle" x="368" y="-462.5" font-family="Helvetica,sans-Serif" font-size="10.00">Vector3D::getZ</text>
</a>
</g>
<!-- Node2&#45;&gt;Node5 -->
<g id="edge8" class="edge"><title>Node2&#45;&gt;Node5</title>
<path fill="none" stroke="midnightblue" d="M254.228,-514.408C262.122,-511.6 270.443,-508.396 278,-505 294.696,-497.499 297.37,-492.645 314,-485 318.369,-482.992 323.002,-481.032 327.646,-479.174"/>
<polygon fill="midnightblue" stroke="midnightblue" points="329.044,-482.386 337.112,-475.518 326.522,-475.856 329.044,-482.386"/>
</g>
<!-- Node9&#45;&gt;Node3 -->
<g id="edge18" class="edge"><title>Node9&#45;&gt;Node3</title>
<path fill="none" stroke="midnightblue" d="M261.168,-490.465C278.017,-492.757 297.831,-495.453 315.789,-497.896"/>
<polygon fill="midnightblue" stroke="midnightblue" points="315.446,-501.382 325.826,-499.262 316.39,-494.446 315.446,-501.382"/>
</g>
<!-- Node9&#45;&gt;Node4 -->
<g id="edge20" class="edge"><title>Node9&#45;&gt;Node4</title>
<path fill="none" stroke="midnightblue" d="M254.228,-474.408C262.122,-471.6 270.443,-468.396 278,-465 294.696,-457.499 297.37,-452.645 314,-445 318.369,-442.992 323.002,-441.032 327.646,-439.174"/>
<polygon fill="midnightblue" stroke="midnightblue" points="329.044,-442.386 337.112,-435.518 326.522,-435.856 329.044,-442.386"/>
</g>
<!-- Node9&#45;&gt;Node5 -->
<g id="edge22" class="edge"><title>Node9&#45;&gt;Node5</title>
<path fill="none" stroke="midnightblue" d="M261.168,-479.535C278.16,-477.223 298.167,-474.501 316.245,-472.042"/>
<polygon fill="midnightblue" stroke="midnightblue" points="316.906,-475.484 326.343,-470.668 315.962,-468.548 316.906,-475.484"/>
</g>
<!-- Node13&#45;&gt;Node3 -->
<g id="edge32" class="edge"><title>Node13&#45;&gt;Node3</title>
<path fill="none" stroke="midnightblue" d="M262.382,-415.62C267.971,-418.136 273.367,-421.223 278,-425 302.105,-444.649 290.066,-465.144 314,-485 315.986,-486.648 318.121,-488.166 320.354,-489.565"/>
<polygon fill="midnightblue" stroke="midnightblue" points="318.88,-492.747 329.347,-494.388 322.188,-486.578 318.88,-492.747"/>
</g>
<!-- Node13&#45;&gt;Node4 -->
<g id="edge34" class="edge"><title>Node13&#45;&gt;Node4</title>
<path fill="none" stroke="midnightblue" d="M277.834,-412.733C290.332,-414.433 303.508,-416.226 315.812,-417.9"/>
<polygon fill="midnightblue" stroke="midnightblue" points="315.527,-421.393 325.908,-419.273 316.471,-414.457 315.527,-421.393"/>
</g>
<!-- Node13&#45;&gt;Node5 -->
<g id="edge36" class="edge"><title>Node13&#45;&gt;Node5</title>
<path fill="none" stroke="midnightblue" d="M254.228,-415.592C262.122,-418.4 270.443,-421.604 278,-425 294.696,-432.501 297.37,-437.355 314,-445 318.369,-447.008 323.002,-448.968 327.646,-450.826"/>
<polygon fill="midnightblue" stroke="midnightblue" points="326.522,-454.144 337.112,-454.482 329.044,-447.614 326.522,-454.144"/>
</g>
<!-- Node13&#45;&gt;Node14 -->
<g id="edge38" class="edge"><title>Node13&#45;&gt;Node14</title>
<path fill="none" stroke="midnightblue" d="M241.44,-394.433C266.53,-381.46 309.285,-359.356 338.077,-344.47"/>
<polygon fill="midnightblue" stroke="midnightblue" points="339.984,-347.424 347.26,-339.723 336.77,-341.206 339.984,-347.424"/>
</g>
<!-- Node14&#45;&gt;Node15 -->
<g id="edge40" class="edge"><title>Node14&#45;&gt;Node15</title>
<path fill="none" stroke="midnightblue" d="M421.73,-318.766C430.888,-317.021 439.996,-315.286 447.938,-313.774"/>
<polygon fill="midnightblue" stroke="midnightblue" points="448.774,-317.178 457.942,-311.868 447.464,-310.301 448.774,-317.178"/>
</g>
<!-- Node16&#45;&gt;Node3 -->
<g id="edge46" class="edge"><title>Node16&#45;&gt;Node3</title>
<path fill="none" stroke="midnightblue" d="M254.228,-455.592C262.122,-458.4 270.443,-461.604 278,-465 294.696,-472.501 297.37,-477.355 314,-485 318.369,-487.008 323.002,-488.968 327.646,-490.826"/>
<polygon fill="midnightblue" stroke="midnightblue" points="326.522,-494.144 337.112,-494.482 329.044,-487.614 326.522,-494.144"/>
</g>
<!-- Node16&#45;&gt;Node4 -->
<g id="edge48" class="edge"><title>Node16&#45;&gt;Node4</title>
<path fill="none" stroke="midnightblue" d="M276.574,-437.439C289.405,-435.693 303.012,-433.842 315.698,-432.116"/>
<polygon fill="midnightblue" stroke="midnightblue" points="316.205,-435.579 325.642,-430.763 315.261,-428.643 316.205,-435.579"/>
</g>
<!-- Node16&#45;&gt;Node5 -->
<g id="edge50" class="edge"><title>Node16&#45;&gt;Node5</title>
<path fill="none" stroke="midnightblue" d="M276.574,-452.561C289.534,-454.324 303.284,-456.195 316.078,-457.936"/>
<polygon fill="midnightblue" stroke="midnightblue" points="315.719,-461.419 326.1,-459.299 316.663,-454.483 315.719,-461.419"/>
</g>
</g>
</svg>
        <g id="navigator" transform="translate(0 0)" fill="#404254">
                <rect fill="#f2f5e9" fill-opacity="0.5" stroke="#606060" stroke-width=".5" x="0" y="0" width="60" height="60"/>
                <use id="zoomplus" xlink:href="#zoomPlus" x="17" y="9" onmousedown="handleZoom(evt,'in')"/>
                <use id="zoomminus" xlink:href="#zoomMin" x="42" y="9" onmousedown="handleZoom(evt,'out')"/>
                <use id="reset" xlink:href="#resetDef" x="30" y="36" onmousedown="handleReset()"/>
                <g id="arrowUp" xlink:href="#dirArrow" transform="translate(30 24)" onmousedown="handlePan(0,-1)">
                  <use xlink:href="#rim" fill="#404040">
                        <set attributeName="fill" to="#808080" begin="arrowUp.mouseover" end="arrowUp.mouseout"/>
                  </use>
                  <path fill="none" stroke="white" stroke-width="1.5" d="M0,-3.0v7 M-2.5,-0.5L0,-3.0L2.5,-0.5"/>
                </g>
                <g id="arrowRight" xlink:href="#dirArrow" transform="rotate(90) translate(36 -43)" onmousedown="handlePan(1,0)">
                  <use xlink:href="#rim" fill="#404040">
                        <set attributeName="fill" to="#808080" begin="arrowRight.mouseover" end="arrowRight.mouseout"/>
                  </use>
                  <path fill="none" stroke="white" stroke-width="1.5" d="M0,-3.0v7 M-2.5,-0.5L0,-3.0L2.5,-0.5"/>
                </g>
                <g id="arrowDown" xlink:href="#dirArrow" transform="rotate(180) translate(-30 -48)" onmousedown="handlePan(0,1)">
                  <use xlink:href="#rim" fill="#404040">
                        <set attributeName="fill" to="#808080" begin="arrowDown.mouseover" end="arrowDown.mouseout"/>
                  </use>
                  <path fill="none" stroke="white" stroke-width="1.5" d="M0,-3.0v7 M-2.5,-0.5L0,-3.0L2.5,-0.5"/>
                </g>
                <g id="arrowLeft" xlink:href="#dirArrow" transform="rotate(270) translate(-36 17)" onmousedown="handlePan(-1,0)">
                  <use xlink:href="#rim" fill="#404040">
                        <set attributeName="fill" to="#808080" begin="arrowLeft.mouseover" end="arrowLeft.mouseout"/>
                  </use>
                  <path fill="none" stroke="white" stroke-width="1.5" d="M0,-3.0v7 M-2.5,-0.5L0,-3.0L2.5,-0.5"/>
                </g>
        </g>
        <svg viewBox="0 0 15 15" width="100%" height="30px" preserveAspectRatio="xMaxYMin meet">
         <g id="arrow_out" transform="scale(0.3 0.3)">
          <a xlink:href="classInterpolator_ad59ac6ed3822e08a67ac7d1ee88a5bd2_cgraph_org.svg" target="_base">
           <rect id="button" ry="5" rx="5" y="6" x="6" height="38" width="38"
                fill="#f2f5e9" fill-opacity="0.5" stroke="#606060" stroke-width="1.0"/>
           <path id="arrow"
             d="M 11.500037,31.436501 C 11.940474,20.09759 22.043105,11.32322 32.158766,21.979434 L 37.068811,17.246167 C 37.068811,17.246167 37.088388,32 37.088388,32 L 22.160133,31.978069 C 22.160133,31.978069 26.997745,27.140456 26.997745,27.140456 C 18.528582,18.264221 13.291696,25.230495 11.500037,31.436501 z"
             style="fill:#404040;"/>
          </a>
         </g>
        </svg>
</svg>
