<?xml version="1.0" encoding="UTF-8" standalone="no"?>
<!DOCTYPE svg PUBLIC "-//W3C//DTD SVG 1.1//EN"
 "http://www.w3.org/Graphics/SVG/1.1/DTD/svg11.dtd">
<!-- Generated by graphviz version 2.26.3 (20100126.1600)
 -->
<!-- Title: tetgenmesh::outelements Pages: 1 -->
<svg width="494pt" height="242pt"
 viewBox="0.00 0.00 494.00 242.00" xmlns="http://www.w3.org/2000/svg" xmlns:xlink="http://www.w3.org/1999/xlink">
<g id="graph1" class="graph" transform="scale(1 1) rotate(0) translate(4 238)">
<title>tetgenmesh::outelements</title>
<!-- Node1 -->
<g id="node1" class="node"><title>Node1</title>
<polygon fill="#bfbfbf" stroke="black" points="0.5,-100.5 0.5,-121.5 127.5,-121.5 127.5,-100.5 0.5,-100.5"/>
<text text-anchor="middle" x="64" y="-108.5" font-family="Helvetica,sans-Serif" font-size="10.00">tetgenmesh::outelements</text>
</g>
<!-- Node2 -->
<g id="node3" class="node"><title>Node2</title>
<a xlink:href="tetgen_8h.xhtml#a4012bf160c63ec4ff007f6645b993ca5" target="_top" xlink:title="terminatetetgen">
<polygon fill="none" stroke="black" points="201,-212.5 201,-233.5 285,-233.5 285,-212.5 201,-212.5"/>
<text text-anchor="middle" x="243" y="-220.5" font-family="Helvetica,sans-Serif" font-size="10.00">terminatetetgen</text>
</a>
</g>
<!-- Node1&#45;&gt;Node2 -->
<g id="edge2" class="edge"><title>Node1&#45;&gt;Node2</title>
<path fill="none" stroke="midnightblue" d="M72.4018,-121.635C88.2091,-140.901 124.369,-181.562 164,-203 172.405,-207.546 181.873,-211.086 191.259,-213.833"/>
<polygon fill="midnightblue" stroke="midnightblue" points="190.399,-217.226 200.963,-216.419 192.201,-210.462 190.399,-217.226"/>
</g>
<!-- Node4 -->
<g id="node7" class="node"><title>Node4</title>
<a xlink:href="classtetgenmesh_1_1memorypool.xhtml#a623b101e4e2f249d8b7e5dba65c3f7e2" target="_top" xlink:title="tetgenmesh::memorypool\l::traversalinit">
<polygon fill="none" stroke="black" points="179.5,-160 179.5,-194 306.5,-194 306.5,-160 179.5,-160"/>
<text text-anchor="start" x="187.5" y="-181" font-family="Helvetica,sans-Serif" font-size="10.00">tetgenmesh::memorypool</text>
<text text-anchor="middle" x="243" y="-168" font-family="Helvetica,sans-Serif" font-size="10.00">::traversalinit</text>
</a>
</g>
<!-- Node1&#45;&gt;Node4 -->
<g id="edge6" class="edge"><title>Node1&#45;&gt;Node4</title>
<path fill="none" stroke="midnightblue" d="M89.3142,-121.635C109.43,-129.962 138.348,-141.659 164,-151 169.173,-152.884 174.557,-154.783 179.974,-156.651"/>
<polygon fill="midnightblue" stroke="midnightblue" points="179.13,-160.061 189.725,-159.971 181.386,-153.435 179.13,-160.061"/>
</g>
<!-- Node5 -->
<g id="node9" class="node"><title>Node5</title>
<a xlink:href="classtetgenmesh.xhtml#a11da430cc44475b41fdbfc80de511192" target="_top" xlink:title="tetgenmesh::tetrahedrontraverse">
<polygon fill="none" stroke="black" points="164,-120.5 164,-141.5 322,-141.5 322,-120.5 164,-120.5"/>
<text text-anchor="middle" x="243" y="-128.5" font-family="Helvetica,sans-Serif" font-size="10.00">tetgenmesh::tetrahedrontraverse</text>
</a>
</g>
<!-- Node1&#45;&gt;Node5 -->
<g id="edge8" class="edge"><title>Node1&#45;&gt;Node5</title>
<path fill="none" stroke="midnightblue" d="M127.613,-118.108C136.155,-119.062 145.041,-120.055 153.922,-121.047"/>
<polygon fill="midnightblue" stroke="midnightblue" points="153.601,-124.533 163.928,-122.165 154.379,-117.576 153.601,-124.533"/>
</g>
<!-- Node7 -->
<g id="node13" class="node"><title>Node7</title>
<a xlink:href="classtetgenmesh.xhtml#a46fa5fabd0e8e806f7f8beb069732e21" target="_top" xlink:title="tetgenmesh::pointmark">
<polygon fill="none" stroke="black" points="185,-80.5 185,-101.5 301,-101.5 301,-80.5 185,-80.5"/>
<text text-anchor="middle" x="243" y="-88.5" font-family="Helvetica,sans-Serif" font-size="10.00">tetgenmesh::pointmark</text>
</a>
</g>
<!-- Node1&#45;&gt;Node7 -->
<g id="edge12" class="edge"><title>Node1&#45;&gt;Node7</title>
<path fill="none" stroke="midnightblue" d="M127.613,-103.892C142.945,-102.179 159.386,-100.342 174.914,-98.6074"/>
<polygon fill="midnightblue" stroke="midnightblue" points="175.415,-102.073 184.965,-97.4844 174.638,-95.1165 175.415,-102.073"/>
</g>
<!-- Node8 -->
<g id="node15" class="node"><title>Node8</title>
<a xlink:href="classtetgenmesh.xhtml#abffbd551714f2e119e0f8ba3e4e54c92" target="_top" xlink:title="tetgenmesh::elemattribute">
<polygon fill="none" stroke="black" points="178,-40.5 178,-61.5 308,-61.5 308,-40.5 178,-40.5"/>
<text text-anchor="middle" x="243" y="-48.5" font-family="Helvetica,sans-Serif" font-size="10.00">tetgenmesh::elemattribute</text>
</a>
</g>
<!-- Node1&#45;&gt;Node8 -->
<g id="edge14" class="edge"><title>Node1&#45;&gt;Node8</title>
<path fill="none" stroke="midnightblue" d="M87.919,-100.391C107.975,-91.749 137.503,-79.6113 164,-71 171.474,-68.571 179.424,-66.2544 187.291,-64.116"/>
<polygon fill="midnightblue" stroke="midnightblue" points="188.395,-67.4444 197.171,-61.5073 186.608,-60.6764 188.395,-67.4444"/>
</g>
<!-- Node9 -->
<g id="node17" class="node"><title>Node9</title>
<a xlink:href="classtetgenmesh.xhtml#a2cbb9d3c9692a5769ad8e9f20263a3ad" target="_top" xlink:title="tetgenmesh::setelemindex">
<polygon fill="none" stroke="black" points="177.5,-0.5 177.5,-21.5 308.5,-21.5 308.5,-0.5 177.5,-0.5"/>
<text text-anchor="middle" x="243" y="-8.5" font-family="Helvetica,sans-Serif" font-size="10.00">tetgenmesh::setelemindex</text>
</a>
</g>
<!-- Node1&#45;&gt;Node9 -->
<g id="edge16" class="edge"><title>Node1&#45;&gt;Node9</title>
<path fill="none" stroke="midnightblue" d="M74.0355,-100.456C90.9598,-83.2987 126.97,-49.4087 164,-31 168.632,-28.6973 173.552,-26.6443 178.584,-24.8168"/>
<polygon fill="midnightblue" stroke="midnightblue" points="179.964,-28.0466 188.352,-21.5738 177.758,-21.4032 179.964,-28.0466"/>
</g>
<!-- Node3 -->
<g id="node5" class="node"><title>Node3</title>
<a xlink:href="classtetgenmesh.xhtml#ade805f03ec7ca1b4623c8148fb915278" target="_top" xlink:title="tetgenmesh::freememory">
<polygon fill="none" stroke="black" points="359.5,-212.5 359.5,-233.5 484.5,-233.5 484.5,-212.5 359.5,-212.5"/>
<text text-anchor="middle" x="422" y="-220.5" font-family="Helvetica,sans-Serif" font-size="10.00">tetgenmesh::freememory</text>
</a>
</g>
<!-- Node2&#45;&gt;Node3 -->
<g id="edge4" class="edge"><title>Node2&#45;&gt;Node3</title>
<path fill="none" stroke="midnightblue" d="M285.421,-223C304.431,-223 327.402,-223 349.038,-223"/>
<polygon fill="midnightblue" stroke="midnightblue" points="349.196,-226.5 359.196,-223 349.196,-219.5 349.196,-226.5"/>
</g>
<!-- Node6 -->
<g id="node11" class="node"><title>Node6</title>
<a xlink:href="classtetgenmesh_1_1memorypool.xhtml#a151fe73459d0fa9a7262d0030fecf291" target="_top" xlink:title="tetgenmesh::memorypool\l::traverse">
<polygon fill="none" stroke="black" points="358.5,-114 358.5,-148 485.5,-148 485.5,-114 358.5,-114"/>
<text text-anchor="start" x="366.5" y="-135" font-family="Helvetica,sans-Serif" font-size="10.00">tetgenmesh::memorypool</text>
<text text-anchor="middle" x="422" y="-122" font-family="Helvetica,sans-Serif" font-size="10.00">::traverse</text>
</a>
</g>
<!-- Node5&#45;&gt;Node6 -->
<g id="edge10" class="edge"><title>Node5&#45;&gt;Node6</title>
<path fill="none" stroke="midnightblue" d="M322.033,-131C330.784,-131 339.67,-131 348.351,-131"/>
<polygon fill="midnightblue" stroke="midnightblue" points="348.427,-134.5 358.427,-131 348.427,-127.5 348.427,-134.5"/>
</g>
</g>
</svg>
