<?xml version="1.0" encoding="UTF-8" standalone="no"?>
<!DOCTYPE svg PUBLIC "-//W3C//DTD SVG 1.1//EN"
 "http://www.w3.org/Graphics/SVG/1.1/DTD/svg11.dtd">
<!-- Generated by graphviz version 2.26.3 (20100126.1600)
 -->
<!-- Title: GUITimeline::posToVal Pages: 1 -->
<svg width="310pt" height="70pt"
 viewBox="0.00 0.00 310.00 70.00" xmlns="http://www.w3.org/2000/svg" xmlns:xlink="http://www.w3.org/1999/xlink">
<g id="graph1" class="graph" transform="scale(1 1) rotate(0) translate(4 66)">
<title>GUITimeline::posToVal</title>
<!-- Node1 -->
<g id="node1" class="node"><title>Node1</title>
<polygon fill="#bfbfbf" stroke="black" points="0.5,-20.5 0.5,-41.5 119.5,-41.5 119.5,-20.5 0.5,-20.5"/>
<text text-anchor="middle" x="60" y="-28.5" font-family="Helvetica,sans-Serif" font-size="10.00">GUITimeline::posToVal</text>
</g>
<!-- Node2 -->
<g id="node3" class="node"><title>Node2</title>
<a xlink:href="classGUITimeline.xhtml#a7254dd9824190a6288da682d8fefad09" target="_top" xlink:title="GUITimeline::OnMouseDown">
<polygon fill="none" stroke="black" points="156.5,-40.5 156.5,-61.5 301.5,-61.5 301.5,-40.5 156.5,-40.5"/>
<text text-anchor="middle" x="229" y="-48.5" font-family="Helvetica,sans-Serif" font-size="10.00">GUITimeline::OnMouseDown</text>
</a>
</g>
<!-- Node1&#45;&gt;Node2 -->
<g id="edge2" class="edge"><title>Node1&#45;&gt;Node2</title>
<path fill="none" stroke="midnightblue" d="M129.754,-39.2549C138.523,-40.2927 147.511,-41.3563 156.324,-42.3993"/>
<polygon fill="midnightblue" stroke="midnightblue" points="129.925,-35.7508 119.583,-38.0513 129.102,-42.7023 129.925,-35.7508"/>
</g>
<!-- Node3 -->
<g id="node5" class="node"><title>Node3</title>
<a xlink:href="classGUITimeline.xhtml#a7d53538e56f4571e729dfe64a820ddf2" target="_top" xlink:title="GUITimeline::OnMouseMove">
<polygon fill="none" stroke="black" points="157.5,-0.5 157.5,-21.5 300.5,-21.5 300.5,-0.5 157.5,-0.5"/>
<text text-anchor="middle" x="229" y="-8.5" font-family="Helvetica,sans-Serif" font-size="10.00">GUITimeline::OnMouseMove</text>
</a>
</g>
<!-- Node1&#45;&gt;Node3 -->
<g id="edge4" class="edge"><title>Node1&#45;&gt;Node3</title>
<path fill="none" stroke="midnightblue" d="M129.708,-22.7506C138.784,-21.6764 148.096,-20.5744 157.206,-19.4963"/>
<polygon fill="midnightblue" stroke="midnightblue" points="129.102,-19.2977 119.583,-23.9487 129.925,-26.2492 129.102,-19.2977"/>
</g>
</g>
</svg>
