<?xml version="1.0" encoding="UTF-8" standalone="no"?>
<!DOCTYPE svg PUBLIC "-//W3C//DTD SVG 1.1//EN"
 "http://www.w3.org/Graphics/SVG/1.1/DTD/svg11.dtd">
<!-- Generated by graphviz version 2.26.3 (20100126.1600)
 -->
<!-- Title: GUIRenderCutCanvas::OnMouseMove Pages: 1 -->
<svg width="268pt" height="94pt"
 viewBox="0.00 0.00 268.00 94.00" xmlns="http://www.w3.org/2000/svg" xmlns:xlink="http://www.w3.org/1999/xlink">
<g id="graph1" class="graph" transform="scale(1 1) rotate(0) translate(4 90)">
<title>GUIRenderCutCanvas::OnMouseMove</title>
<!-- Node1 -->
<g id="node1" class="node"><title>Node1</title>
<polygon fill="#bfbfbf" stroke="black" points="0,-26 0,-60 116,-60 116,-26 0,-26"/>
<text text-anchor="start" x="8" y="-47" font-family="Helvetica,sans-Serif" font-size="10.00">GUIRenderCutCanvas</text>
<text text-anchor="middle" x="58" y="-34" font-family="Helvetica,sans-Serif" font-size="10.00">::OnMouseMove</text>
</g>
<!-- Node2 -->
<g id="node3" class="node"><title>Node2</title>
<a xlink:href="classGUIColorScalePanel.xhtml#a59e27a091ec86d4c3e649f432a10ec08" target="_top" xlink:title="GUIColorScalePanel\l::handleMouse">
<polygon fill="none" stroke="black" points="152.5,-52 152.5,-86 259.5,-86 259.5,-52 152.5,-52"/>
<text text-anchor="start" x="160.5" y="-73" font-family="Helvetica,sans-Serif" font-size="10.00">GUIColorScalePanel</text>
<text text-anchor="middle" x="206" y="-60" font-family="Helvetica,sans-Serif" font-size="10.00">::handleMouse</text>
</a>
</g>
<!-- Node1&#45;&gt;Node2 -->
<g id="edge2" class="edge"><title>Node1&#45;&gt;Node2</title>
<path fill="none" stroke="midnightblue" d="M116.069,-53.2013C124.683,-54.7146 133.6,-56.2811 142.322,-57.8133"/>
<polygon fill="midnightblue" stroke="midnightblue" points="141.986,-61.3079 152.441,-59.591 143.198,-54.4135 141.986,-61.3079"/>
</g>
<!-- Node3 -->
<g id="node5" class="node"><title>Node3</title>
<a xlink:href="classGUIColorScalePanel.xhtml#ac8faaae6f7016f0fecedfc350b65644b" target="_top" xlink:title="GUIColorScalePanel\l::fitBounds">
<polygon fill="none" stroke="black" points="152.5,-0 152.5,-34 259.5,-34 259.5,-0 152.5,-0"/>
<text text-anchor="start" x="160.5" y="-21" font-family="Helvetica,sans-Serif" font-size="10.00">GUIColorScalePanel</text>
<text text-anchor="middle" x="206" y="-8" font-family="Helvetica,sans-Serif" font-size="10.00">::fitBounds</text>
</a>
</g>
<!-- Node1&#45;&gt;Node3 -->
<g id="edge4" class="edge"><title>Node1&#45;&gt;Node3</title>
<path fill="none" stroke="midnightblue" d="M116.069,-32.7987C124.683,-31.2854 133.6,-29.7189 142.322,-28.1867"/>
<polygon fill="midnightblue" stroke="midnightblue" points="143.198,-31.5865 152.441,-26.409 141.986,-24.6921 143.198,-31.5865"/>
</g>
</g>
</svg>
