<?xml version="1.0" encoding="UTF-8" standalone="no"?>
<!DOCTYPE svg PUBLIC "-//W3C//DTD SVG 1.1//EN"
 "http://www.w3.org/Graphics/SVG/1.1/DTD/svg11.dtd">
<!-- Generated by graphviz version 2.26.3 (20100126.1600)
 -->
<!-- Title: tetgenmesh::checkfac4encroach Pages: 1 -->
<!--zoomable 641 -->
<svg id="main" version="1.1" xmlns="http://www.w3.org/2000/svg" xmlns:xlink="http://www.w3.org/1999/xlink" xml:space="preserve" onload="init(evt)">
<style type="text/css"><![CDATA[
.edge:hover path { stroke: red; }
.edge:hover polygon { stroke: red; fill: red; }
]]></style>
<script type="text/javascript"><![CDATA[
var edges = document.getElementsByTagName('g');
if (edges && edges.length) {
  for (var i=0;i<edges.length;i++) {
    if (edges[i].id.substr(0,4)=='edge') {
      edges[i].setAttribute('class','edge');
    }
  }
}
]]></script>
        <defs>
                <circle id="rim" cx="0" cy="0" r="7"/>
                <circle id="rim2" cx="0" cy="0" r="3.5"/>
                <g id="zoomPlus">
                        <use xlink:href="#rim" fill="#404040">
                                <set attributeName="fill" to="#808080" begin="zoomplus.mouseover" end="zoomplus.mouseout"/>
                        </use>
                        <path d="M-4,0h8M0,-4v8" fill="none" stroke="white" stroke-width="1.5" pointer-events="none"/>
                </g>
                <g id="zoomMin">
                        <use xlink:href="#rim" fill="#404040">
                                <set attributeName="fill" to="#808080" begin="zoomminus.mouseover" end="zoomminus.mouseout"/>
                        </use>
                        <path d="M-4,0h8" fill="none" stroke="white" stroke-width="1.5" pointer-events="none"/>
                </g>
                <g id="dirArrow">
                        <path fill="none" stroke="white" stroke-width="1.5" d="M0,-3.0v7 M-2.5,-0.5L0,-3.0L2.5,-0.5"/>
                </g>
               <g id="resetDef">
                       <use xlink:href="#rim2" fill="#404040">
                               <set attributeName="fill" to="#808080" begin="reset.mouseover" end="reset.mouseout"/>
                       </use>
               </g>
        </defs>

<script type="text/javascript">
var viewWidth = 2192;
var viewHeight = 641;
var sectionId = 'dynsection-28';
</script>
<script xlink:href="svgpan.js"/>
<svg id="graph" class="graph">
<g id="viewport">
<title>tetgenmesh::checkfac4encroach</title>
<!-- Node1 -->
<g id="node1" class="node"><title>Node1</title>
<polygon fill="#bfbfbf" stroke="black" points="0,-352.5 0,-373.5 158,-373.5 158,-352.5 0,-352.5"/>
<text text-anchor="middle" x="79" y="-360.5" font-family="Helvetica,sans-Serif" font-size="10.00">tetgenmesh::checkfac4encroach</text>
</g>
<!-- Node2 -->
<g id="node3" class="node"><title>Node2</title>
<a xlink:href="classtetgenmesh.xhtml#a5d85611ca91db181e357457beb13a633" target="_top" xlink:title="tetgenmesh::insertpoint">
<polygon fill="none" stroke="black" points="194.5,-352.5 194.5,-373.5 313.5,-373.5 313.5,-352.5 194.5,-352.5"/>
<text text-anchor="middle" x="254" y="-360.5" font-family="Helvetica,sans-Serif" font-size="10.00">tetgenmesh::insertpoint</text>
</a>
</g>
<!-- Node1&#45;&gt;Node2 -->
<g id="edge2" class="edge"><title>Node1&#45;&gt;Node2</title>
<path fill="none" stroke="midnightblue" d="M168.113,-363C177.033,-363 185.931,-363 194.436,-363"/>
<polygon fill="midnightblue" stroke="midnightblue" points="168.052,-359.5 158.052,-363 168.052,-366.5 168.052,-359.5"/>
</g>
<!-- Node3 -->
<g id="node5" class="node"><title>Node3</title>
<a xlink:href="classtetgenmesh.xhtml#a5a5a0513d0bea7aa457eb0bc5fad1b02" target="_top" xlink:title="tetgenmesh::incrementaldelaunay">
<polygon fill="none" stroke="black" points="1370.5,-558.5 1370.5,-579.5 1533.5,-579.5 1533.5,-558.5 1370.5,-558.5"/>
<text text-anchor="middle" x="1452" y="-566.5" font-family="Helvetica,sans-Serif" font-size="10.00">tetgenmesh::incrementaldelaunay</text>
</a>
</g>
<!-- Node2&#45;&gt;Node3 -->
<g id="edge4" class="edge"><title>Node2&#45;&gt;Node3</title>
<path fill="none" stroke="midnightblue" d="M255.88,-383.834C261.243,-429.685 281.011,-539.206 350,-589 461.003,-669.118 520.104,-614 657,-614 657,-614 657,-614 1055,-614 1176.74,-614 1318.14,-592.851 1395.03,-579.551"/>
<polygon fill="midnightblue" stroke="midnightblue" points="259.333,-383.202 254.806,-373.623 252.372,-383.935 259.333,-383.202"/>
</g>
<!-- Node11 -->
<g id="node21" class="node"><title>Node11</title>
<a xlink:href="classtetgenmesh.xhtml#a8dee14a42e35e4fe65944518eed4f7d3" target="_top" xlink:title="tetgenmesh::delaunizesegments">
<polygon fill="none" stroke="black" points="976,-555.5 976,-576.5 1134,-576.5 1134,-555.5 976,-555.5"/>
<text text-anchor="middle" x="1055" y="-563.5" font-family="Helvetica,sans-Serif" font-size="10.00">tetgenmesh::delaunizesegments</text>
</a>
</g>
<!-- Node2&#45;&gt;Node11 -->
<g id="edge20" class="edge"><title>Node2&#45;&gt;Node11</title>
<path fill="none" stroke="midnightblue" d="M257.18,-384.073C264.723,-425.723 287.958,-517.928 350,-557 451.959,-621.211 814.052,-591.983 975.87,-575.057"/>
<polygon fill="midnightblue" stroke="midnightblue" points="260.591,-383.253 255.483,-373.971 253.688,-384.413 260.591,-383.253"/>
</g>
<!-- Node13 -->
<g id="node26" class="node"><title>Node13</title>
<a xlink:href="classtetgenmesh.xhtml#ab1a82368937a13996efae911b8b1fded" target="_top" xlink:title="tetgenmesh::delaunizecavity">
<polygon fill="none" stroke="black" points="366.5,-526.5 366.5,-547.5 507.5,-547.5 507.5,-526.5 366.5,-526.5"/>
<text text-anchor="middle" x="437" y="-534.5" font-family="Helvetica,sans-Serif" font-size="10.00">tetgenmesh::delaunizecavity</text>
</a>
</g>
<!-- Node2&#45;&gt;Node13 -->
<g id="edge26" class="edge"><title>Node2&#45;&gt;Node13</title>
<path fill="none" stroke="midnightblue" d="M261.497,-383.149C274.496,-415.298 304.289,-478.028 350,-512 358.325,-518.187 368.14,-522.845 378.123,-526.352"/>
<polygon fill="midnightblue" stroke="midnightblue" points="264.629,-381.548 257.733,-373.504 258.108,-384.092 264.629,-381.548"/>
</g>
<!-- Node14 -->
<g id="node28" class="node"><title>Node14</title>
<a xlink:href="classtetgenmesh.xhtml#a9c967ef25cfd6e06d6b9301302be3f70" target="_top" xlink:title="tetgenmesh::insertpoint_cdt">
<polygon fill="none" stroke="black" points="588.5,-487.5 588.5,-508.5 725.5,-508.5 725.5,-487.5 588.5,-487.5"/>
<text text-anchor="middle" x="657" y="-495.5" font-family="Helvetica,sans-Serif" font-size="10.00">tetgenmesh::insertpoint_cdt</text>
</a>
</g>
<!-- Node2&#45;&gt;Node14 -->
<g id="edge38" class="edge"><title>Node2&#45;&gt;Node14</title>
<path fill="none" stroke="midnightblue" d="M263.725,-382.811C278.273,-409.994 308.499,-457.886 350,-479 425.438,-517.38 525.146,-515.518 590.154,-508.533"/>
<polygon fill="midnightblue" stroke="midnightblue" points="266.78,-381.1 259.082,-373.821 260.561,-384.312 266.78,-381.1"/>
</g>
<!-- Node17 -->
<g id="node37" class="node"><title>Node17</title>
<a xlink:href="classtetgenmesh.xhtml#acb5fc751eaa4a4ddffbebedfa7b7382a" target="_top" xlink:title="tetgenmesh::add_steinerpt\l_in_schoenhardtpoly">
<polygon fill="none" stroke="black" points="371,-346 371,-380 503,-380 503,-346 371,-346"/>
<text text-anchor="start" x="379" y="-367" font-family="Helvetica,sans-Serif" font-size="10.00">tetgenmesh::add_steinerpt</text>
<text text-anchor="middle" x="437" y="-354" font-family="Helvetica,sans-Serif" font-size="10.00">_in_schoenhardtpoly</text>
</a>
</g>
<!-- Node2&#45;&gt;Node17 -->
<g id="edge40" class="edge"><title>Node2&#45;&gt;Node17</title>
<path fill="none" stroke="midnightblue" d="M323.674,-363C339.125,-363 355.458,-363 370.767,-363"/>
<polygon fill="midnightblue" stroke="midnightblue" points="323.668,-359.5 313.668,-363 323.668,-366.5 323.668,-359.5"/>
</g>
<!-- Node18 -->
<g id="node39" class="node"><title>Node18</title>
<a xlink:href="classtetgenmesh.xhtml#a9d878a0e64588b0471a58e534affea8e" target="_top" xlink:title="tetgenmesh::addsteiner4recoversegment">
<polygon fill="none" stroke="black" points="560,-394.5 560,-415.5 754,-415.5 754,-394.5 560,-394.5"/>
<text text-anchor="middle" x="657" y="-402.5" font-family="Helvetica,sans-Serif" font-size="10.00">tetgenmesh::addsteiner4recoversegment</text>
</a>
</g>
<!-- Node2&#45;&gt;Node18 -->
<g id="edge54" class="edge"><title>Node2&#45;&gt;Node18</title>
<path fill="none" stroke="midnightblue" d="M296.03,-376.46C312.666,-381.239 332.067,-386.138 350,-389 419.569,-400.104 499.017,-404.011 559.66,-405.191"/>
<polygon fill="midnightblue" stroke="midnightblue" points="296.648,-372.993 286.066,-373.519 294.667,-379.707 296.648,-372.993"/>
</g>
<!-- Node21 -->
<g id="node46" class="node"><title>Node21</title>
<a xlink:href="classtetgenmesh.xhtml#a3de6e9d82e74671af7f038043b5e9bcc" target="_top" xlink:title="tetgenmesh::add_steinerpt\l_in_segment">
<polygon fill="none" stroke="black" points="371,-436 371,-470 503,-470 503,-436 371,-436"/>
<text text-anchor="start" x="379" y="-457" font-family="Helvetica,sans-Serif" font-size="10.00">tetgenmesh::add_steinerpt</text>
<text text-anchor="middle" x="437" y="-444" font-family="Helvetica,sans-Serif" font-size="10.00">_in_segment</text>
</a>
</g>
<!-- Node2&#45;&gt;Node21 -->
<g id="edge50" class="edge"><title>Node2&#45;&gt;Node21</title>
<path fill="none" stroke="midnightblue" d="M277.379,-379.287C296.352,-392.026 324.107,-409.598 350,-422 360.557,-427.056 372.167,-431.75 383.372,-435.876"/>
<polygon fill="midnightblue" stroke="midnightblue" points="279.306,-376.364 269.068,-373.638 275.371,-382.154 279.306,-376.364"/>
</g>
<!-- Node22 -->
<g id="node50" class="node"><title>Node22</title>
<a xlink:href="classtetgenmesh.xhtml#ace09080e4f274e0a48cd1728475878c9" target="_top" xlink:title="tetgenmesh::recoversubfaces">
<polygon fill="none" stroke="black" points="792,-346.5 792,-367.5 938,-367.5 938,-346.5 792,-346.5"/>
<text text-anchor="middle" x="865" y="-354.5" font-family="Helvetica,sans-Serif" font-size="10.00">tetgenmesh::recoversubfaces</text>
</a>
</g>
<!-- Node2&#45;&gt;Node22 -->
<g id="edge56" class="edge"><title>Node2&#45;&gt;Node22</title>
<path fill="none" stroke="midnightblue" d="M294.308,-349.536C311.291,-344.533 331.399,-339.474 350,-337 433.152,-325.939 670.767,-341.809 791.974,-351.095"/>
<polygon fill="midnightblue" stroke="midnightblue" points="293.254,-346.198 284.704,-352.456 295.29,-352.896 293.254,-346.198"/>
</g>
<!-- Node23 -->
<g id="node53" class="node"><title>Node23</title>
<a xlink:href="classtetgenmesh.xhtml#ac8205cae8e16f490b80d74975934ff74" target="_top" xlink:title="tetgenmesh::insertconstrainedpoints">
<polygon fill="none" stroke="black" points="350,-268.5 350,-289.5 524,-289.5 524,-268.5 350,-268.5"/>
<text text-anchor="middle" x="437" y="-276.5" font-family="Helvetica,sans-Serif" font-size="10.00">tetgenmesh::insertconstrainedpoints</text>
</a>
</g>
<!-- Node2&#45;&gt;Node23 -->
<g id="edge60" class="edge"><title>Node2&#45;&gt;Node23</title>
<path fill="none" stroke="midnightblue" d="M276.513,-346.725C295.38,-333.696 323.423,-315.723 350,-304 363.085,-298.228 377.86,-293.401 391.471,-289.576"/>
<polygon fill="midnightblue" stroke="midnightblue" points="274.458,-343.89 268.281,-352.498 278.478,-349.621 274.458,-343.89"/>
</g>
<!-- Node25 -->
<g id="node58" class="node"><title>Node25</title>
<a xlink:href="classtetgenmesh.xhtml#a6394d7b4d386e8d08077c39cd8983e0e" target="_top" xlink:title="tetgenmesh::splitsegment">
<polygon fill="none" stroke="black" points="372.5,-133.5 372.5,-154.5 501.5,-154.5 501.5,-133.5 372.5,-133.5"/>
<text text-anchor="middle" x="437" y="-141.5" font-family="Helvetica,sans-Serif" font-size="10.00">tetgenmesh::splitsegment</text>
</a>
</g>
<!-- Node2&#45;&gt;Node25 -->
<g id="edge66" class="edge"><title>Node2&#45;&gt;Node25</title>
<path fill="none" stroke="midnightblue" d="M260.709,-342.387C273.189,-306.827 303.044,-233.409 350,-188 365.696,-172.822 387.664,-161.768 405.598,-154.536"/>
<polygon fill="midnightblue" stroke="midnightblue" points="257.301,-341.54 257.395,-352.135 263.928,-343.794 257.301,-341.54"/>
</g>
<!-- Node27 -->
<g id="node62" class="node"><title>Node27</title>
<a xlink:href="classtetgenmesh.xhtml#a3a8404870ab3c2e8ce4312d48c2b29f4" target="_top" xlink:title="tetgenmesh::splitsubface">
<polygon fill="none" stroke="black" points="802,-154.5 802,-175.5 928,-175.5 928,-154.5 802,-154.5"/>
<text text-anchor="middle" x="865" y="-162.5" font-family="Helvetica,sans-Serif" font-size="10.00">tetgenmesh::splitsubface</text>
</a>
</g>
<!-- Node2&#45;&gt;Node27 -->
<g id="edge94" class="edge"><title>Node2&#45;&gt;Node27</title>
<path fill="none" stroke="midnightblue" d="M261.587,-343.182C274.547,-312.311 304.086,-253.444 350,-226 388.061,-203.25 672.516,-179.391 801.61,-169.602"/>
<polygon fill="midnightblue" stroke="midnightblue" points="258.326,-341.908 257.827,-352.492 264.817,-344.53 258.326,-341.908"/>
</g>
<!-- Node29 -->
<g id="node66" class="node"><title>Node29</title>
<a xlink:href="classtetgenmesh.xhtml#aa752155eb1d18550a212dd40297f122e" target="_top" xlink:title="tetgenmesh::splittetrahedron">
<polygon fill="none" stroke="black" points="1182,-153.5 1182,-174.5 1322,-174.5 1322,-153.5 1182,-153.5"/>
<text text-anchor="middle" x="1252" y="-161.5" font-family="Helvetica,sans-Serif" font-size="10.00">tetgenmesh::splittetrahedron</text>
</a>
</g>
<!-- Node2&#45;&gt;Node29 -->
<g id="edge96" class="edge"><title>Node2&#45;&gt;Node29</title>
<path fill="none" stroke="midnightblue" d="M265.126,-343.669C280.58,-318.93 311.086,-277.113 350,-259 508.117,-185.404 965.224,-266.954 1134,-223 1173.01,-212.841 1214.15,-188.764 1236.06,-174.708"/>
<polygon fill="midnightblue" stroke="midnightblue" points="262.13,-341.86 259.954,-352.229 268.121,-345.48 262.13,-341.86"/>
</g>
<!-- Node32 -->
<g id="node81" class="node"><title>Node32</title>
<a xlink:href="classtetgenmesh.xhtml#aa9540f310c97db99c989a02b0978ceec" target="_top" xlink:title="tetgenmesh::splitsliver">
<polygon fill="none" stroke="black" points="599.5,-18.5 599.5,-39.5 714.5,-39.5 714.5,-18.5 599.5,-18.5"/>
<text text-anchor="middle" x="657" y="-26.5" font-family="Helvetica,sans-Serif" font-size="10.00">tetgenmesh::splitsliver</text>
</a>
</g>
<!-- Node2&#45;&gt;Node32 -->
<g id="edge98" class="edge"><title>Node2&#45;&gt;Node32</title>
<path fill="none" stroke="midnightblue" d="M256.329,-342.399C262.629,-296.395 284.226,-184.599 350,-124 419.549,-59.9223 531.585,-39.0506 599.357,-32.2616"/>
<polygon fill="midnightblue" stroke="midnightblue" points="252.85,-342.01 255.066,-352.371 259.795,-342.89 252.85,-342.01"/>
</g>
<!-- Node4 -->
<g id="node7" class="node"><title>Node4</title>
<a xlink:href="tetgen_8h.xhtml#ad3637eb4ffe7fda90667e67b7771d964" target="_top" xlink:title="tetrahedralize">
<polygon fill="none" stroke="black" points="1764.5,-326.5 1764.5,-347.5 1839.5,-347.5 1839.5,-326.5 1764.5,-326.5"/>
<text text-anchor="middle" x="1802" y="-334.5" font-family="Helvetica,sans-Serif" font-size="10.00">tetrahedralize</text>
</a>
</g>
<!-- Node3&#45;&gt;Node4 -->
<g id="edge6" class="edge"><title>Node3&#45;&gt;Node4</title>
<path fill="none" stroke="midnightblue" d="M1509.81,-555.939C1569.75,-540.053 1663.54,-508.38 1728,-454 1764.37,-423.313 1788.75,-370.105 1797.93,-347.57"/>
<polygon fill="midnightblue" stroke="midnightblue" points="1508.92,-552.552 1500.12,-558.447 1510.68,-559.329 1508.92,-552.552"/>
</g>
<!-- Node5 -->
<g id="node9" class="node"><title>Node5</title>
<a xlink:href="classGUICutRenderWindow.xhtml#a9eedb7088ad31f4680a77ed3a06fa60c" target="_top" xlink:title="Berechnet die 2D&#45;Temperaturverteilung als Grafik. ">
<polygon fill="none" stroke="black" points="1878.5,-366 1878.5,-400 1995.5,-400 1995.5,-366 1878.5,-366"/>
<text text-anchor="start" x="1886.5" y="-387" font-family="Helvetica,sans-Serif" font-size="10.00">GUICutRenderWindow</text>
<text text-anchor="middle" x="1937" y="-374" font-family="Helvetica,sans-Serif" font-size="10.00">::renderImage</text>
</a>
</g>
<!-- Node4&#45;&gt;Node5 -->
<g id="edge8" class="edge"><title>Node4&#45;&gt;Node5</title>
<path fill="none" stroke="midnightblue" d="M1842.73,-350.877C1856.62,-355.611 1872.32,-360.96 1886.86,-365.915"/>
<polygon fill="midnightblue" stroke="midnightblue" points="1843.57,-347.466 1832.97,-347.553 1841.31,-354.092 1843.57,-347.466"/>
</g>
<!-- Node7 -->
<g id="node13" class="node"><title>Node7</title>
<a xlink:href="classObjectData.xhtml#af3a850833d08eb9b45357449f455e24d" target="_top" xlink:title="Zerlegt das Objekt in Tetraeder (Schnittstelle zur Tetgen&#45;Bibliothek) und Berechnet die Temperaturver...">
<polygon fill="none" stroke="black" points="1876,-326.5 1876,-347.5 1998,-347.5 1998,-326.5 1876,-326.5"/>
<text text-anchor="middle" x="1937" y="-334.5" font-family="Helvetica,sans-Serif" font-size="10.00">ObjectData::calculateIO</text>
</a>
</g>
<!-- Node4&#45;&gt;Node7 -->
<g id="edge12" class="edge"><title>Node4&#45;&gt;Node7</title>
<path fill="none" stroke="midnightblue" d="M1849.65,-337C1858.11,-337 1867.02,-337 1875.8,-337"/>
<polygon fill="midnightblue" stroke="midnightblue" points="1849.61,-333.5 1839.61,-337 1849.6,-340.5 1849.61,-333.5"/>
</g>
<!-- Node10 -->
<g id="node19" class="node"><title>Node10</title>
<a xlink:href="tetgen_8cxx.xhtml#a0ddf1224851353fc92bfbff6f499fa97" target="_top" xlink:title="main">
<polygon fill="none" stroke="black" points="1918,-286.5 1918,-307.5 1956,-307.5 1956,-286.5 1918,-286.5"/>
<text text-anchor="middle" x="1937" y="-294.5" font-family="Helvetica,sans-Serif" font-size="10.00">main</text>
</a>
</g>
<!-- Node4&#45;&gt;Node10 -->
<g id="edge18" class="edge"><title>Node4&#45;&gt;Node10</title>
<path fill="none" stroke="midnightblue" d="M1847.15,-323.621C1871.27,-316.476 1899.67,-308.061 1917.98,-302.634"/>
<polygon fill="midnightblue" stroke="midnightblue" points="1846.06,-320.294 1837.47,-326.49 1848.05,-327.005 1846.06,-320.294"/>
</g>
<!-- Node6 -->
<g id="node11" class="node"><title>Node6</title>
<a xlink:href="classGUICutRenderWindow.xhtml#a7cd1bfbec53756a1cbbe1616b4d46c7a" target="_top" xlink:title="Behandelt das Drücken des Buttons zur Berechnung der zweidimensionalen Temperaturverteilung. ">
<polygon fill="none" stroke="black" points="2050.5,-366 2050.5,-400 2167.5,-400 2167.5,-366 2050.5,-366"/>
<text text-anchor="start" x="2058.5" y="-387" font-family="Helvetica,sans-Serif" font-size="10.00">GUICutRenderWindow</text>
<text text-anchor="middle" x="2109" y="-374" font-family="Helvetica,sans-Serif" font-size="10.00">::renderCutBtClick</text>
</a>
</g>
<!-- Node5&#45;&gt;Node6 -->
<g id="edge10" class="edge"><title>Node5&#45;&gt;Node6</title>
<path fill="none" stroke="midnightblue" d="M2005.78,-383C2020.51,-383 2035.95,-383 2050.26,-383"/>
<polygon fill="midnightblue" stroke="midnightblue" points="2005.71,-379.5 1995.71,-383 2005.71,-386.5 2005.71,-379.5"/>
</g>
<!-- Node8 -->
<g id="node15" class="node"><title>Node8</title>
<a xlink:href="classGUIMainWindow.xhtml#a0c2de30274c7f52ff74ec1217e47a9e5" target="_top" xlink:title="Berechnet die 3D&#45;Temperaturverteilung neu. ">
<polygon fill="none" stroke="black" points="2034,-274 2034,-308 2184,-308 2184,-274 2034,-274"/>
<text text-anchor="start" x="2042" y="-295" font-family="Helvetica,sans-Serif" font-size="10.00">GUIMainWindow::OnRecalcBt</text>
<text text-anchor="middle" x="2109" y="-282" font-family="Helvetica,sans-Serif" font-size="10.00">Click</text>
</a>
</g>
<!-- Node7&#45;&gt;Node8 -->
<g id="edge14" class="edge"><title>Node7&#45;&gt;Node8</title>
<path fill="none" stroke="midnightblue" d="M1986.33,-323.808C2004.64,-318.91 2025.69,-313.281 2045.12,-308.085"/>
<polygon fill="midnightblue" stroke="midnightblue" points="1985.22,-320.482 1976.46,-326.447 1987.03,-327.244 1985.22,-320.482"/>
</g>
<!-- Node9 -->
<g id="node17" class="node"><title>Node9</title>
<a xlink:href="classGUITimeline.xhtml#a099f3654aa6e7ea04df861851a0e9ec8" target="_top" xlink:title="Sucht den Zeitpunkt zwischen zwei markierten Stellen auf der Sensordaten&#45;Zeitleiste, für den der Wäremeenergiegehalt maximal wird. ">
<polygon fill="none" stroke="black" points="2040.5,-326.5 2040.5,-347.5 2177.5,-347.5 2177.5,-326.5 2040.5,-326.5"/>
<text text-anchor="middle" x="2109" y="-334.5" font-family="Helvetica,sans-Serif" font-size="10.00">GUITimeline::findMaxValue</text>
</a>
</g>
<!-- Node7&#45;&gt;Node9 -->
<g id="edge16" class="edge"><title>Node7&#45;&gt;Node9</title>
<path fill="none" stroke="midnightblue" d="M2008.23,-337C2018.89,-337 2029.86,-337 2040.46,-337"/>
<polygon fill="midnightblue" stroke="midnightblue" points="2008.13,-333.5 1998.13,-337 2008.13,-340.5 2008.13,-333.5"/>
</g>
<!-- Node12 -->
<g id="node23" class="node"><title>Node12</title>
<a xlink:href="classtetgenmesh.xhtml#aab64d62b3d2b048a38158fb2bf678624" target="_top" xlink:title="tetgenmesh::constraineddelaunay">
<polygon fill="none" stroke="black" points="1170.5,-497.5 1170.5,-518.5 1333.5,-518.5 1333.5,-497.5 1170.5,-497.5"/>
<text text-anchor="middle" x="1252" y="-505.5" font-family="Helvetica,sans-Serif" font-size="10.00">tetgenmesh::constraineddelaunay</text>
</a>
</g>
<!-- Node11&#45;&gt;Node12 -->
<g id="edge22" class="edge"><title>Node11&#45;&gt;Node12</title>
<path fill="none" stroke="midnightblue" d="M1100.7,-552.546C1135.89,-542.186 1183.84,-528.067 1216.26,-518.523"/>
<polygon fill="midnightblue" stroke="midnightblue" points="1099.28,-549.315 1090.68,-555.497 1101.26,-556.03 1099.28,-549.315"/>
</g>
<!-- Node12&#45;&gt;Node4 -->
<g id="edge24" class="edge"><title>Node12&#45;&gt;Node4</title>
<path fill="none" stroke="midnightblue" d="M1306.95,-495.049C1396.46,-473.316 1578.76,-426.402 1728,-371 1746.42,-364.16 1766.66,-354.724 1781.3,-347.528"/>
<polygon fill="midnightblue" stroke="midnightblue" points="1305.92,-491.697 1297.02,-497.448 1307.56,-498.501 1305.92,-491.697"/>
</g>
<!-- Node13&#45;&gt;Node14 -->
<g id="edge28" class="edge"><title>Node13&#45;&gt;Node14</title>
<path fill="none" stroke="midnightblue" d="M506.411,-524.695C535.727,-519.498 569.515,-513.509 597.649,-508.521"/>
<polygon fill="midnightblue" stroke="midnightblue" points="505.481,-521.306 496.245,-526.497 506.703,-528.198 505.481,-521.306"/>
</g>
<!-- Node16 -->
<g id="node32" class="node"><title>Node16</title>
<a xlink:href="classtetgenmesh.xhtml#a7579c3a44a54712623d9f9e5fc1dfbdc" target="_top" xlink:title="tetgenmesh::constrainedfacets">
<polygon fill="none" stroke="black" points="979.5,-497.5 979.5,-518.5 1130.5,-518.5 1130.5,-497.5 979.5,-497.5"/>
<text text-anchor="middle" x="1055" y="-505.5" font-family="Helvetica,sans-Serif" font-size="10.00">tetgenmesh::constrainedfacets</text>
</a>
</g>
<!-- Node13&#45;&gt;Node16 -->
<g id="edge36" class="edge"><title>Node13&#45;&gt;Node16</title>
<path fill="none" stroke="midnightblue" d="M518.138,-535.158C617.614,-532.617 791.319,-527.267 940,-518 952.701,-517.208 966.177,-516.194 979.262,-515.117"/>
<polygon fill="midnightblue" stroke="midnightblue" points="517.769,-531.666 507.86,-535.417 517.945,-538.664 517.769,-531.666"/>
</g>
<!-- Node15 -->
<g id="node30" class="node"><title>Node15</title>
<a xlink:href="classtetgenmesh.xhtml#aa34a5188a4cee82197394560c388c348" target="_top" xlink:title="tetgenmesh::refineregion">
<polygon fill="none" stroke="black" points="803,-487.5 803,-508.5 927,-508.5 927,-487.5 803,-487.5"/>
<text text-anchor="middle" x="865" y="-495.5" font-family="Helvetica,sans-Serif" font-size="10.00">tetgenmesh::refineregion</text>
</a>
</g>
<!-- Node14&#45;&gt;Node15 -->
<g id="edge30" class="edge"><title>Node14&#45;&gt;Node15</title>
<path fill="none" stroke="midnightblue" d="M735.73,-498C757.881,-498 781.659,-498 802.705,-498"/>
<polygon fill="midnightblue" stroke="midnightblue" points="735.683,-494.5 725.683,-498 735.683,-501.5 735.683,-494.5"/>
</g>
<!-- Node15&#45;&gt;Node16 -->
<g id="edge32" class="edge"><title>Node15&#45;&gt;Node16</title>
<path fill="none" stroke="midnightblue" d="M937.539,-501.818C951.237,-502.539 965.597,-503.295 979.387,-504.02"/>
<polygon fill="midnightblue" stroke="midnightblue" points="937.383,-498.305 927.213,-501.274 937.015,-505.295 937.383,-498.305"/>
</g>
<!-- Node16&#45;&gt;Node12 -->
<g id="edge34" class="edge"><title>Node16&#45;&gt;Node12</title>
<path fill="none" stroke="midnightblue" d="M1140.77,-508C1150.6,-508 1160.6,-508 1170.38,-508"/>
<polygon fill="midnightblue" stroke="midnightblue" points="1140.6,-504.5 1130.6,-508 1140.6,-511.5 1140.6,-504.5"/>
</g>
<!-- Node17&#45;&gt;Node18 -->
<g id="edge42" class="edge"><title>Node17&#45;&gt;Node18</title>
<path fill="none" stroke="midnightblue" d="M513.156,-377.539C542.306,-383.104 574.969,-389.339 601.793,-394.46"/>
<polygon fill="midnightblue" stroke="midnightblue" points="513.486,-374.039 503.007,-375.601 512.174,-380.915 513.486,-374.039"/>
</g>
<!-- Node19 -->
<g id="node41" class="node"><title>Node19</title>
<a xlink:href="classtetgenmesh.xhtml#a50e12e269b11573e6e1b91347ad19b37" target="_top" xlink:title="tetgenmesh::recoversegments">
<polygon fill="none" stroke="black" points="790.5,-389.5 790.5,-410.5 939.5,-410.5 939.5,-389.5 790.5,-389.5"/>
<text text-anchor="middle" x="865" y="-397.5" font-family="Helvetica,sans-Serif" font-size="10.00">tetgenmesh::recoversegments</text>
</a>
</g>
<!-- Node18&#45;&gt;Node19 -->
<g id="edge44" class="edge"><title>Node18&#45;&gt;Node19</title>
<path fill="none" stroke="midnightblue" d="M764.574,-402.414C773.325,-402.204 782.042,-401.994 790.478,-401.791"/>
<polygon fill="midnightblue" stroke="midnightblue" points="764.214,-398.922 754.301,-402.661 764.382,-405.92 764.214,-398.922"/>
</g>
<!-- Node20 -->
<g id="node43" class="node"><title>Node20</title>
<a xlink:href="classtetgenmesh.xhtml#a1be7dce56688fbe7a97fc31f98b61c19" target="_top" xlink:title="tetgenmesh::recoverboundary">
<polygon fill="none" stroke="black" points="982,-346.5 982,-367.5 1128,-367.5 1128,-346.5 982,-346.5"/>
<text text-anchor="middle" x="1055" y="-354.5" font-family="Helvetica,sans-Serif" font-size="10.00">tetgenmesh::recoverboundary</text>
</a>
</g>
<!-- Node19&#45;&gt;Node20 -->
<g id="edge46" class="edge"><title>Node19&#45;&gt;Node20</title>
<path fill="none" stroke="midnightblue" d="M921.423,-387.231C949.121,-380.962 982.089,-373.501 1008.34,-367.559"/>
<polygon fill="midnightblue" stroke="midnightblue" points="920.46,-383.86 911.479,-389.481 922.005,-390.687 920.46,-383.86"/>
</g>
<!-- Node20&#45;&gt;Node4 -->
<g id="edge48" class="edge"><title>Node20&#45;&gt;Node4</title>
<path fill="none" stroke="midnightblue" d="M1138.69,-354.759C1300.17,-350.436 1648.98,-341.097 1764.21,-338.012"/>
<polygon fill="midnightblue" stroke="midnightblue" points="1138.23,-351.27 1128.33,-355.037 1138.42,-358.268 1138.23,-351.27"/>
</g>
<!-- Node21&#45;&gt;Node18 -->
<g id="edge52" class="edge"><title>Node21&#45;&gt;Node18</title>
<path fill="none" stroke="midnightblue" d="M513.159,-436.383C544.925,-429.453 580.863,-421.612 608.871,-415.501"/>
<polygon fill="midnightblue" stroke="midnightblue" points="512.031,-433.047 503.007,-438.598 513.524,-439.886 512.031,-433.047"/>
</g>
<!-- Node22&#45;&gt;Node20 -->
<g id="edge58" class="edge"><title>Node22&#45;&gt;Node20</title>
<path fill="none" stroke="midnightblue" d="M948.354,-357C959.512,-357 970.886,-357 981.85,-357"/>
<polygon fill="midnightblue" stroke="midnightblue" points="948.187,-353.5 938.187,-357 948.187,-360.5 948.187,-353.5"/>
</g>
<!-- Node23&#45;&gt;Node4 -->
<g id="edge64" class="edge"><title>Node23&#45;&gt;Node4</title>
<path fill="none" stroke="midnightblue" d="M504.514,-291.211C522.496,-294.126 541.944,-296.975 560,-299 694.972,-314.14 729.182,-318 865,-318 865,-318 865,-318 1452,-318 1565.95,-318 1700.46,-328.165 1764.48,-333.625"/>
<polygon fill="midnightblue" stroke="midnightblue" points="504.843,-287.718 494.407,-289.542 503.703,-294.625 504.843,-287.718"/>
</g>
<!-- Node24 -->
<g id="node55" class="node"><title>Node24</title>
<a xlink:href="classtetgenmesh.xhtml#ab859365ca3dd3eafb77fac56d0ae3a03" target="_top" xlink:title="tetgenmesh::insertconstrainedpoints">
<polygon fill="none" stroke="black" points="570,-268.5 570,-289.5 744,-289.5 744,-268.5 570,-268.5"/>
<text text-anchor="middle" x="657" y="-276.5" font-family="Helvetica,sans-Serif" font-size="10.00">tetgenmesh::insertconstrainedpoints</text>
</a>
</g>
<!-- Node23&#45;&gt;Node24 -->
<g id="edge62" class="edge"><title>Node23&#45;&gt;Node24</title>
<path fill="none" stroke="midnightblue" d="M534.535,-279C546.293,-279 558.244,-279 569.84,-279"/>
<polygon fill="midnightblue" stroke="midnightblue" points="534.266,-275.5 524.266,-279 534.266,-282.5 534.266,-275.5"/>
</g>
<!-- Node26 -->
<g id="node60" class="node"><title>Node26</title>
<a xlink:href="classtetgenmesh.xhtml#a7af360f1ae413f9e0d7803ccae55b6d6" target="_top" xlink:title="tetgenmesh::repairencsegs">
<polygon fill="none" stroke="black" points="590,-76.5 590,-97.5 724,-97.5 724,-76.5 590,-76.5"/>
<text text-anchor="middle" x="657" y="-84.5" font-family="Helvetica,sans-Serif" font-size="10.00">tetgenmesh::repairencsegs</text>
</a>
</g>
<!-- Node25&#45;&gt;Node26 -->
<g id="edge68" class="edge"><title>Node25&#45;&gt;Node26</title>
<path fill="none" stroke="midnightblue" d="M487.342,-130.875C509.606,-125.078 536.105,-118.188 560,-112 578.351,-107.248 598.66,-102.011 615.932,-97.5624"/>
<polygon fill="midnightblue" stroke="midnightblue" points="486.23,-127.548 477.435,-133.456 487.994,-134.322 486.23,-127.548"/>
</g>
<!-- Node25&#45;&gt;Node27 -->
<g id="edge90" class="edge"><title>Node25&#45;&gt;Node27</title>
<path fill="none" stroke="midnightblue" d="M511.555,-147.658C593.682,-151.688 724.338,-158.098 801.683,-161.893"/>
<polygon fill="midnightblue" stroke="midnightblue" points="511.699,-144.161 501.539,-147.167 511.356,-151.153 511.699,-144.161"/>
</g>
<!-- Node25&#45;&gt;Node29 -->
<g id="edge92" class="edge"><title>Node25&#45;&gt;Node29</title>
<path fill="none" stroke="midnightblue" d="M511.865,-142.775C610.151,-141.483 788.049,-140.226 940,-145 1023.12,-147.611 1118.53,-153.905 1181.73,-158.537"/>
<polygon fill="midnightblue" stroke="midnightblue" points="511.685,-139.277 501.734,-142.913 511.78,-146.277 511.685,-139.277"/>
</g>
<!-- Node26&#45;&gt;Node27 -->
<g id="edge70" class="edge"><title>Node26&#45;&gt;Node27</title>
<path fill="none" stroke="midnightblue" d="M694.66,-101.122C735.556,-116.458 799.944,-140.604 836.728,-154.398"/>
<polygon fill="midnightblue" stroke="midnightblue" points="695.644,-97.7536 685.052,-97.5194 693.186,-104.308 695.644,-97.7536"/>
</g>
<!-- Node26&#45;&gt;Node29 -->
<g id="edge86" class="edge"><title>Node26&#45;&gt;Node29</title>
<path fill="none" stroke="midnightblue" d="M734.184,-82.5775C829.529,-79.0367 996.037,-79.1551 1134,-112 1171.02,-120.814 1210.91,-140.853 1233.53,-153.322"/>
<polygon fill="midnightblue" stroke="midnightblue" points="733.904,-79.0858 724.05,-82.9777 734.18,-86.0803 733.904,-79.0858"/>
</g>
<!-- Node31 -->
<g id="node70" class="node"><title>Node31</title>
<a xlink:href="classtetgenmesh.xhtml#a477bbfde72103de66546d4ea3343b4a1" target="_top" xlink:title="tetgenmesh::delaunayrefinement">
<polygon fill="none" stroke="black" points="1570,-173.5 1570,-194.5 1728,-194.5 1728,-173.5 1570,-173.5"/>
<text text-anchor="middle" x="1649" y="-181.5" font-family="Helvetica,sans-Serif" font-size="10.00">tetgenmesh::delaunayrefinement</text>
</a>
</g>
<!-- Node26&#45;&gt;Node31 -->
<g id="edge88" class="edge"><title>Node26&#45;&gt;Node31</title>
<path fill="none" stroke="midnightblue" d="M734.07,-75.5664C814.102,-64.6979 943.032,-50 1055,-50 1055,-50 1055,-50 1252,-50 1406.22,-50 1577.27,-141.896 1631.52,-173.485"/>
<polygon fill="midnightblue" stroke="midnightblue" points="733.506,-72.1109 724.075,-76.9385 734.458,-79.0459 733.506,-72.1109"/>
</g>
<!-- Node28 -->
<g id="node64" class="node"><title>Node28</title>
<a xlink:href="classtetgenmesh.xhtml#a701d4f317ed66df6a2e2b7b237e2386a" target="_top" xlink:title="tetgenmesh::repairencfacs">
<polygon fill="none" stroke="black" points="989,-192.5 989,-213.5 1121,-213.5 1121,-192.5 989,-192.5"/>
<text text-anchor="middle" x="1055" y="-200.5" font-family="Helvetica,sans-Serif" font-size="10.00">tetgenmesh::repairencfacs</text>
</a>
</g>
<!-- Node27&#45;&gt;Node28 -->
<g id="edge72" class="edge"><title>Node27&#45;&gt;Node28</title>
<path fill="none" stroke="midnightblue" d="M927.792,-177.558C951.901,-182.38 979.149,-187.83 1002.22,-192.445"/>
<polygon fill="midnightblue" stroke="midnightblue" points="928.166,-174.064 917.673,-175.535 926.793,-180.928 928.166,-174.064"/>
</g>
<!-- Node27&#45;&gt;Node29 -->
<g id="edge84" class="edge"><title>Node27&#45;&gt;Node29</title>
<path fill="none" stroke="midnightblue" d="M938.098,-164.811C1008.04,-164.63 1112.81,-164.36 1181.78,-164.181"/>
<polygon fill="midnightblue" stroke="midnightblue" points="938.03,-161.311 928.04,-164.837 938.049,-168.311 938.03,-161.311"/>
</g>
<!-- Node28&#45;&gt;Node29 -->
<g id="edge74" class="edge"><title>Node28&#45;&gt;Node29</title>
<path fill="none" stroke="midnightblue" d="M1118.19,-190.491C1144.2,-185.342 1173.99,-179.443 1198.85,-174.521"/>
<polygon fill="midnightblue" stroke="midnightblue" points="1117.18,-187.122 1108.05,-192.497 1118.54,-193.989 1117.18,-187.122"/>
</g>
<!-- Node28&#45;&gt;Node31 -->
<g id="edge82" class="edge"><title>Node28&#45;&gt;Node31</title>
<path fill="none" stroke="midnightblue" d="M1131.42,-200.556C1244.45,-196.94 1455.14,-190.201 1569.77,-186.534"/>
<polygon fill="midnightblue" stroke="midnightblue" points="1131.01,-197.067 1121.12,-200.885 1131.23,-204.063 1131.01,-197.067"/>
</g>
<!-- Node30 -->
<g id="node68" class="node"><title>Node30</title>
<a xlink:href="classtetgenmesh.xhtml#a7c46c82d83099214115fa9719aefbd78" target="_top" xlink:title="tetgenmesh::repairbadtets">
<polygon fill="none" stroke="black" points="1387,-153.5 1387,-174.5 1517,-174.5 1517,-153.5 1387,-153.5"/>
<text text-anchor="middle" x="1452" y="-161.5" font-family="Helvetica,sans-Serif" font-size="10.00">tetgenmesh::repairbadtets</text>
</a>
</g>
<!-- Node29&#45;&gt;Node30 -->
<g id="edge76" class="edge"><title>Node29&#45;&gt;Node30</title>
<path fill="none" stroke="midnightblue" d="M1332.48,-164C1350.58,-164 1369.58,-164 1386.96,-164"/>
<polygon fill="midnightblue" stroke="midnightblue" points="1332.23,-160.5 1322.23,-164 1332.23,-167.5 1332.23,-160.5"/>
</g>
<!-- Node30&#45;&gt;Node31 -->
<g id="edge78" class="edge"><title>Node30&#45;&gt;Node31</title>
<path fill="none" stroke="midnightblue" d="M1527.12,-171.626C1541.14,-173.049 1555.82,-174.54 1569.95,-175.975"/>
<polygon fill="midnightblue" stroke="midnightblue" points="1527.35,-168.132 1517.05,-170.604 1526.65,-175.096 1527.35,-168.132"/>
</g>
<!-- Node31&#45;&gt;Node4 -->
<g id="edge80" class="edge"><title>Node31&#45;&gt;Node4</title>
<path fill="none" stroke="midnightblue" d="M1666.9,-201.9C1699.04,-234.036 1765.57,-300.566 1791.41,-326.41"/>
<polygon fill="midnightblue" stroke="midnightblue" points="1669.06,-199.113 1659.52,-194.516 1664.11,-204.062 1669.06,-199.113"/>
</g>
<!-- Node33 -->
<g id="node83" class="node"><title>Node33</title>
<a xlink:href="classtetgenmesh.xhtml#ad5c46c2f6c9adeed23fc8c64b682778d" target="_top" xlink:title="tetgenmesh::removeslivers">
<polygon fill="none" stroke="black" points="1185,-0.5 1185,-21.5 1319,-21.5 1319,-0.5 1185,-0.5"/>
<text text-anchor="middle" x="1252" y="-8.5" font-family="Helvetica,sans-Serif" font-size="10.00">tetgenmesh::removeslivers</text>
</a>
</g>
<!-- Node32&#45;&gt;Node33 -->
<g id="edge100" class="edge"><title>Node32&#45;&gt;Node33</title>
<path fill="none" stroke="midnightblue" d="M724.651,-26.9534C839.336,-23.484 1070.58,-16.4885 1184.89,-13.0302"/>
<polygon fill="midnightblue" stroke="midnightblue" points="724.481,-23.4569 714.592,-27.2577 724.693,-30.4536 724.481,-23.4569"/>
</g>
<!-- Node34 -->
<g id="node85" class="node"><title>Node34</title>
<a xlink:href="classtetgenmesh.xhtml#a8bb5c6ad8ccfa57f2a84e5a78295b263" target="_top" xlink:title="tetgenmesh::optimizemesh">
<polygon fill="none" stroke="black" points="1582,-67.5 1582,-88.5 1716,-88.5 1716,-67.5 1582,-67.5"/>
<text text-anchor="middle" x="1649" y="-75.5" font-family="Helvetica,sans-Serif" font-size="10.00">tetgenmesh::optimizemesh</text>
</a>
</g>
<!-- Node33&#45;&gt;Node34 -->
<g id="edge102" class="edge"><title>Node33&#45;&gt;Node34</title>
<path fill="none" stroke="midnightblue" d="M1329.18,-12.4144C1386.33,-14.7678 1465.78,-20.7945 1534,-36 1566.78,-43.3057 1602.9,-57.5921 1625.76,-67.4595"/>
<polygon fill="midnightblue" stroke="midnightblue" points="1329.26,-8.91505 1319.13,-12.029 1328.99,-15.9099 1329.26,-8.91505"/>
</g>
<!-- Node34&#45;&gt;Node4 -->
<g id="edge104" class="edge"><title>Node34&#45;&gt;Node4</title>
<path fill="none" stroke="midnightblue" d="M1668.44,-95.4742C1685.79,-111.86 1711.02,-137.714 1728,-164 1764.52,-220.524 1790.18,-298.101 1798.81,-326.248"/>
<polygon fill="midnightblue" stroke="midnightblue" points="1670.79,-92.8801 1661.08,-88.6442 1666.03,-98.0116 1670.79,-92.8801"/>
</g>
</g>
</svg>
        <g id="navigator" transform="translate(0 0)" fill="#404254">
                <rect fill="#f2f5e9" fill-opacity="0.5" stroke="#606060" stroke-width=".5" x="0" y="0" width="60" height="60"/>
                <use id="zoomplus" xlink:href="#zoomPlus" x="17" y="9" onmousedown="handleZoom(evt,'in')"/>
                <use id="zoomminus" xlink:href="#zoomMin" x="42" y="9" onmousedown="handleZoom(evt,'out')"/>
                <use id="reset" xlink:href="#resetDef" x="30" y="36" onmousedown="handleReset()"/>
                <g id="arrowUp" xlink:href="#dirArrow" transform="translate(30 24)" onmousedown="handlePan(0,-1)">
                  <use xlink:href="#rim" fill="#404040">
                        <set attributeName="fill" to="#808080" begin="arrowUp.mouseover" end="arrowUp.mouseout"/>
                  </use>
                  <path fill="none" stroke="white" stroke-width="1.5" d="M0,-3.0v7 M-2.5,-0.5L0,-3.0L2.5,-0.5"/>
                </g>
                <g id="arrowRight" xlink:href="#dirArrow" transform="rotate(90) translate(36 -43)" onmousedown="handlePan(1,0)">
                  <use xlink:href="#rim" fill="#404040">
                        <set attributeName="fill" to="#808080" begin="arrowRight.mouseover" end="arrowRight.mouseout"/>
                  </use>
                  <path fill="none" stroke="white" stroke-width="1.5" d="M0,-3.0v7 M-2.5,-0.5L0,-3.0L2.5,-0.5"/>
                </g>
                <g id="arrowDown" xlink:href="#dirArrow" transform="rotate(180) translate(-30 -48)" onmousedown="handlePan(0,1)">
                  <use xlink:href="#rim" fill="#404040">
                        <set attributeName="fill" to="#808080" begin="arrowDown.mouseover" end="arrowDown.mouseout"/>
                  </use>
                  <path fill="none" stroke="white" stroke-width="1.5" d="M0,-3.0v7 M-2.5,-0.5L0,-3.0L2.5,-0.5"/>
                </g>
                <g id="arrowLeft" xlink:href="#dirArrow" transform="rotate(270) translate(-36 17)" onmousedown="handlePan(-1,0)">
                  <use xlink:href="#rim" fill="#404040">
                        <set attributeName="fill" to="#808080" begin="arrowLeft.mouseover" end="arrowLeft.mouseout"/>
                  </use>
                  <path fill="none" stroke="white" stroke-width="1.5" d="M0,-3.0v7 M-2.5,-0.5L0,-3.0L2.5,-0.5"/>
                </g>
        </g>
        <svg viewBox="0 0 15 15" width="100%" height="30px" preserveAspectRatio="xMaxYMin meet">
         <g id="arrow_out" transform="scale(0.3 0.3)">
          <a xlink:href="classtetgenmesh_a7e79473a5bfee155427a924bba678fbd_icgraph_org.svg" target="_base">
           <rect id="button" ry="5" rx="5" y="6" x="6" height="38" width="38"
                fill="#f2f5e9" fill-opacity="0.5" stroke="#606060" stroke-width="1.0"/>
           <path id="arrow"
             d="M 11.500037,31.436501 C 11.940474,20.09759 22.043105,11.32322 32.158766,21.979434 L 37.068811,17.246167 C 37.068811,17.246167 37.088388,32 37.088388,32 L 22.160133,31.978069 C 22.160133,31.978069 26.997745,27.140456 26.997745,27.140456 C 18.528582,18.264221 13.291696,25.230495 11.500037,31.436501 z"
             style="fill:#404040;"/>
          </a>
         </g>
        </svg>
</svg>
