<?xml version="1.0" encoding="UTF-8" standalone="no"?>
<!DOCTYPE svg PUBLIC "-//W3C//DTD SVG 1.1//EN"
 "http://www.w3.org/Graphics/SVG/1.1/DTD/svg11.dtd">
<!-- Generated by graphviz version 2.26.3 (20100126.1600)
 -->
<!-- Title: tetgenmesh::scoutpoint Pages: 1 -->
<!--zoomable 720 -->
<svg id="main" version="1.1" xmlns="http://www.w3.org/2000/svg" xmlns:xlink="http://www.w3.org/1999/xlink" xml:space="preserve" onload="init(evt)">
<style type="text/css"><![CDATA[
.edge:hover path { stroke: red; }
.edge:hover polygon { stroke: red; fill: red; }
]]></style>
<script type="text/javascript"><![CDATA[
var edges = document.getElementsByTagName('g');
if (edges && edges.length) {
  for (var i=0;i<edges.length;i++) {
    if (edges[i].id.substr(0,4)=='edge') {
      edges[i].setAttribute('class','edge');
    }
  }
}
]]></script>
        <defs>
                <circle id="rim" cx="0" cy="0" r="7"/>
                <circle id="rim2" cx="0" cy="0" r="3.5"/>
                <g id="zoomPlus">
                        <use xlink:href="#rim" fill="#404040">
                                <set attributeName="fill" to="#808080" begin="zoomplus.mouseover" end="zoomplus.mouseout"/>
                        </use>
                        <path d="M-4,0h8M0,-4v8" fill="none" stroke="white" stroke-width="1.5" pointer-events="none"/>
                </g>
                <g id="zoomMin">
                        <use xlink:href="#rim" fill="#404040">
                                <set attributeName="fill" to="#808080" begin="zoomminus.mouseover" end="zoomminus.mouseout"/>
                        </use>
                        <path d="M-4,0h8" fill="none" stroke="white" stroke-width="1.5" pointer-events="none"/>
                </g>
                <g id="dirArrow">
                        <path fill="none" stroke="white" stroke-width="1.5" d="M0,-3.0v7 M-2.5,-0.5L0,-3.0L2.5,-0.5"/>
                </g>
               <g id="resetDef">
                       <use xlink:href="#rim2" fill="#404040">
                               <set attributeName="fill" to="#808080" begin="reset.mouseover" end="reset.mouseout"/>
                       </use>
               </g>
        </defs>

<script type="text/javascript">
var viewWidth = 776;
var viewHeight = 720;
var sectionId = 'dynsection-360';
</script>
<script xlink:href="svgpan.js"/>
<svg id="graph" class="graph">
<g id="viewport">
<title>tetgenmesh::scoutpoint</title>
<!-- Node1 -->
<g id="node1" class="node"><title>Node1</title>
<polygon fill="#bfbfbf" stroke="black" points="0.5,-272.5 0.5,-293.5 119.5,-293.5 119.5,-272.5 0.5,-272.5"/>
<text text-anchor="middle" x="60" y="-280.5" font-family="Helvetica,sans-Serif" font-size="10.00">tetgenmesh::scoutpoint</text>
</g>
<!-- Node2 -->
<g id="node3" class="node"><title>Node2</title>
<a xlink:href="classtetgenmesh.xhtml#aa05e91020e6e60c4bc589571c64ae646" target="_top" xlink:title="tetgenmesh::randomsample">
<polygon fill="none" stroke="black" points="166.5,-610.5 166.5,-631.5 303.5,-631.5 303.5,-610.5 166.5,-610.5"/>
<text text-anchor="middle" x="235" y="-618.5" font-family="Helvetica,sans-Serif" font-size="10.00">tetgenmesh::randomsample</text>
</a>
</g>
<!-- Node1&#45;&gt;Node2 -->
<g id="edge2" class="edge"><title>Node1&#45;&gt;Node2</title>
<path fill="none" stroke="midnightblue" d="M61.0506,-293.501C65.5144,-333.429 86.0143,-478.123 156,-569 167.976,-584.551 185.993,-596.917 201.798,-605.682"/>
<polygon fill="midnightblue" stroke="midnightblue" points="200.308,-608.853 210.786,-610.423 203.574,-602.662 200.308,-608.853"/>
</g>
<!-- Node4 -->
<g id="node7" class="node"><title>Node4</title>
<a xlink:href="classtetgenmesh.xhtml#ae2d4d27d7babd7b0e60956cc00bca89a" target="_top" xlink:title="tetgenmesh::org">
<polygon fill="none" stroke="black" points="375.5,-650.5 375.5,-671.5 462.5,-671.5 462.5,-650.5 375.5,-650.5"/>
<text text-anchor="middle" x="419" y="-658.5" font-family="Helvetica,sans-Serif" font-size="10.00">tetgenmesh::org</text>
</a>
</g>
<!-- Node1&#45;&gt;Node4 -->
<g id="edge46" class="edge"><title>Node1&#45;&gt;Node4</title>
<path fill="none" stroke="midnightblue" d="M61.2096,-293.586C67.6401,-347.87 99.6572,-594.275 156,-641 214.356,-689.395 307.23,-683.559 365.569,-673.395"/>
<polygon fill="midnightblue" stroke="midnightblue" points="366.489,-676.785 375.689,-671.529 365.219,-669.901 366.489,-676.785"/>
</g>
<!-- Node6 -->
<g id="node11" class="node"><title>Node6</title>
<a xlink:href="classtetgenmesh.xhtml#a909ae9072f70495a9dbb1ee6f0e9f151" target="_top" xlink:title="tetgenmesh::locate">
<polygon fill="none" stroke="black" points="185,-390.5 185,-411.5 285,-411.5 285,-390.5 185,-390.5"/>
<text text-anchor="middle" x="235" y="-398.5" font-family="Helvetica,sans-Serif" font-size="10.00">tetgenmesh::locate</text>
</a>
</g>
<!-- Node1&#45;&gt;Node6 -->
<g id="edge10" class="edge"><title>Node1&#45;&gt;Node6</title>
<path fill="none" stroke="midnightblue" d="M73.0032,-293.517C91.1386,-308.006 125.265,-334.626 156,-355 172.323,-365.82 191.264,-376.897 206.507,-385.468"/>
<polygon fill="midnightblue" stroke="midnightblue" points="205.024,-388.649 215.463,-390.457 208.43,-382.533 205.024,-388.649"/>
</g>
<!-- Node8 -->
<g id="node15" class="node"><title>Node8</title>
<a xlink:href="classtetgenmesh.xhtml#a57b18059c68cacbe01720c387c19ee9e" target="_top" xlink:title="tetgenmesh::fsymself">
<polygon fill="none" stroke="black" points="363.5,-570.5 363.5,-591.5 474.5,-591.5 474.5,-570.5 363.5,-570.5"/>
<text text-anchor="middle" x="419" y="-578.5" font-family="Helvetica,sans-Serif" font-size="10.00">tetgenmesh::fsymself</text>
</a>
</g>
<!-- Node1&#45;&gt;Node8 -->
<g id="edge60" class="edge"><title>Node1&#45;&gt;Node8</title>
<path fill="none" stroke="midnightblue" d="M62.5003,-293.88C70.4714,-326.27 98.2229,-423.218 156,-478 210.914,-530.067 295.194,-556.79 353.479,-569.803"/>
<polygon fill="midnightblue" stroke="midnightblue" points="352.81,-573.239 363.323,-571.926 354.286,-566.396 352.81,-573.239"/>
</g>
<!-- Node9 -->
<g id="node18" class="node"><title>Node9</title>
<a xlink:href="classtetgenmesh.xhtml#ad56ef3448cd57e637acf373622bfb769" target="_top" xlink:title="tetgenmesh::dest">
<polygon fill="none" stroke="black" points="373,-530.5 373,-551.5 465,-551.5 465,-530.5 373,-530.5"/>
<text text-anchor="middle" x="419" y="-538.5" font-family="Helvetica,sans-Serif" font-size="10.00">tetgenmesh::dest</text>
</a>
</g>
<!-- Node1&#45;&gt;Node9 -->
<g id="edge48" class="edge"><title>Node1&#45;&gt;Node9</title>
<path fill="none" stroke="midnightblue" d="M65.0934,-293.645C77.5214,-318.689 111.657,-382.15 156,-421 219.032,-476.224 311.725,-510.459 368.572,-527.592"/>
<polygon fill="midnightblue" stroke="midnightblue" points="367.828,-531.022 378.41,-530.494 369.809,-524.308 367.828,-531.022"/>
</g>
<!-- Node10 -->
<g id="node20" class="node"><title>Node10</title>
<a xlink:href="classtetgenmesh.xhtml#a9287d941f7f432ca846d5c004603af40" target="_top" xlink:title="tetgenmesh::apex">
<polygon fill="none" stroke="black" points="371.5,-330.5 371.5,-351.5 466.5,-351.5 466.5,-330.5 371.5,-330.5"/>
<text text-anchor="middle" x="419" y="-338.5" font-family="Helvetica,sans-Serif" font-size="10.00">tetgenmesh::apex</text>
</a>
</g>
<!-- Node1&#45;&gt;Node10 -->
<g id="edge50" class="edge"><title>Node1&#45;&gt;Node10</title>
<path fill="none" stroke="midnightblue" d="M99.9725,-293.549C117.134,-297.825 137.465,-302.556 156,-306 226.199,-319.045 307.812,-329.124 361.279,-335.047"/>
<polygon fill="midnightblue" stroke="midnightblue" points="360.934,-338.53 371.255,-336.14 361.696,-331.572 360.934,-338.53"/>
</g>
<!-- Node16 -->
<g id="node32" class="node"><title>Node16</title>
<a xlink:href="classtetgenmesh.xhtml#a2ff33d38976a7bc134380ef8f15c4519" target="_top" xlink:title="tetgenmesh::oppo">
<polygon fill="none" stroke="black" points="371.5,-290.5 371.5,-311.5 466.5,-311.5 466.5,-290.5 371.5,-290.5"/>
<text text-anchor="middle" x="419" y="-298.5" font-family="Helvetica,sans-Serif" font-size="10.00">tetgenmesh::oppo</text>
</a>
</g>
<!-- Node1&#45;&gt;Node16 -->
<g id="edge62" class="edge"><title>Node1&#45;&gt;Node16</title>
<path fill="none" stroke="midnightblue" d="M119.685,-285.993C186.681,-289.352 294.661,-294.766 360.973,-298.091"/>
<polygon fill="midnightblue" stroke="midnightblue" points="361.082,-301.6 371.245,-298.606 361.433,-294.609 361.082,-301.6"/>
</g>
<!-- Node17 -->
<g id="node34" class="node"><title>Node17</title>
<a xlink:href="classtetgenmesh.xhtml#a9c4f9877ba70f7c0f399b7fcdd8fdddf" target="_top" xlink:title="tetgenmesh::esymself">
<polygon fill="none" stroke="black" points="362.5,-250.5 362.5,-271.5 475.5,-271.5 475.5,-250.5 362.5,-250.5"/>
<text text-anchor="middle" x="419" y="-258.5" font-family="Helvetica,sans-Serif" font-size="10.00">tetgenmesh::esymself</text>
</a>
</g>
<!-- Node1&#45;&gt;Node17 -->
<g id="edge74" class="edge"><title>Node1&#45;&gt;Node17</title>
<path fill="none" stroke="midnightblue" d="M119.685,-279.342C183.88,-275.408 285.702,-269.169 352.441,-265.079"/>
<polygon fill="midnightblue" stroke="midnightblue" points="352.665,-268.572 362.432,-264.467 352.237,-261.585 352.665,-268.572"/>
</g>
<!-- Node18 -->
<g id="node36" class="node"><title>Node18</title>
<a xlink:href="classtetgenmesh.xhtml#adf5410985bba6ea50ce8f1efdfc97fde" target="_top" xlink:title="tetgenmesh::eprevself">
<polygon fill="none" stroke="black" points="362.5,-210.5 362.5,-231.5 475.5,-231.5 475.5,-210.5 362.5,-210.5"/>
<text text-anchor="middle" x="419" y="-218.5" font-family="Helvetica,sans-Serif" font-size="10.00">tetgenmesh::eprevself</text>
</a>
</g>
<!-- Node1&#45;&gt;Node18 -->
<g id="edge72" class="edge"><title>Node1&#45;&gt;Node18</title>
<path fill="none" stroke="midnightblue" d="M111.755,-272.428C126.069,-269.594 141.621,-266.598 156,-264 222.725,-251.946 299.246,-239.601 352.48,-231.248"/>
<polygon fill="midnightblue" stroke="midnightblue" points="353.134,-234.688 362.473,-229.684 352.052,-227.773 353.134,-234.688"/>
</g>
<!-- Node20 -->
<g id="node41" class="node"><title>Node20</title>
<a xlink:href="classtetgenmesh.xhtml#a1c65efaf2a8a72d023327c2592d89188" target="_top" xlink:title="tetgenmesh::enextself">
<polygon fill="none" stroke="black" points="362.5,-170.5 362.5,-191.5 475.5,-191.5 475.5,-170.5 362.5,-170.5"/>
<text text-anchor="middle" x="419" y="-178.5" font-family="Helvetica,sans-Serif" font-size="10.00">tetgenmesh::enextself</text>
</a>
</g>
<!-- Node1&#45;&gt;Node20 -->
<g id="edge70" class="edge"><title>Node1&#45;&gt;Node20</title>
<path fill="none" stroke="midnightblue" d="M77.0564,-272.477C95.7736,-261.37 127.022,-244.101 156,-234 220.871,-211.388 298.294,-197.238 352.271,-189.306"/>
<polygon fill="midnightblue" stroke="midnightblue" points="353.005,-192.737 362.405,-187.849 352.009,-185.808 353.005,-192.737"/>
</g>
<!-- Node22 -->
<g id="node48" class="node"><title>Node22</title>
<a xlink:href="classtetgenmesh.xhtml#aa05bc79cab358be88f26876be920616f" target="_top" xlink:title="tetgenmesh::triarea">
<polygon fill="none" stroke="black" points="184.5,-138.5 184.5,-159.5 285.5,-159.5 285.5,-138.5 184.5,-138.5"/>
<text text-anchor="middle" x="235" y="-146.5" font-family="Helvetica,sans-Serif" font-size="10.00">tetgenmesh::triarea</text>
</a>
</g>
<!-- Node1&#45;&gt;Node22 -->
<g id="edge52" class="edge"><title>Node1&#45;&gt;Node22</title>
<path fill="none" stroke="midnightblue" d="M66.5248,-272.291C80.3172,-250.544 114.593,-200.987 156,-174 162.61,-169.692 170.013,-166.083 177.567,-163.07"/>
<polygon fill="midnightblue" stroke="midnightblue" points="178.973,-166.282 187.167,-159.566 176.573,-159.707 178.973,-166.282"/>
</g>
<!-- Node25 -->
<g id="node54" class="node"><title>Node25</title>
<a xlink:href="classtetgenmesh.xhtml#aef205894579ac572d70018a484e81c84" target="_top" xlink:title="tetgenmesh::orient3dfast">
<polygon fill="none" stroke="black" points="172.5,-98.5 172.5,-119.5 297.5,-119.5 297.5,-98.5 172.5,-98.5"/>
<text text-anchor="middle" x="235" y="-106.5" font-family="Helvetica,sans-Serif" font-size="10.00">tetgenmesh::orient3dfast</text>
</a>
</g>
<!-- Node1&#45;&gt;Node25 -->
<g id="edge58" class="edge"><title>Node1&#45;&gt;Node25</title>
<path fill="none" stroke="midnightblue" d="M63.4158,-272.461C73.0697,-244.411 103.329,-167.457 156,-129 158.546,-127.141 161.247,-125.454 164.057,-123.924"/>
<polygon fill="midnightblue" stroke="midnightblue" points="165.792,-126.976 173.346,-119.548 162.808,-120.643 165.792,-126.976"/>
</g>
<!-- Node26 -->
<g id="node58" class="node"><title>Node26</title>
<a xlink:href="classtetgenmesh_1_1memorypool.xhtml#a623b101e4e2f249d8b7e5dba65c3f7e2" target="_top" xlink:title="tetgenmesh::memorypool\l::traversalinit">
<polygon fill="none" stroke="black" points="171.5,-46 171.5,-80 298.5,-80 298.5,-46 171.5,-46"/>
<text text-anchor="start" x="179.5" y="-67" font-family="Helvetica,sans-Serif" font-size="10.00">tetgenmesh::memorypool</text>
<text text-anchor="middle" x="235" y="-54" font-family="Helvetica,sans-Serif" font-size="10.00">::traversalinit</text>
</a>
</g>
<!-- Node1&#45;&gt;Node26 -->
<g id="edge64" class="edge"><title>Node1&#45;&gt;Node26</title>
<path fill="none" stroke="midnightblue" d="M62.2,-272.404C69.4786,-239.99 95.824,-141.208 156,-89 158.004,-87.2613 160.127,-85.6383 162.343,-84.1232"/>
<polygon fill="midnightblue" stroke="midnightblue" points="164.483,-86.9224 171.284,-78.7989 160.902,-80.9079 164.483,-86.9224"/>
</g>
<!-- Node27 -->
<g id="node60" class="node"><title>Node27</title>
<a xlink:href="classtetgenmesh.xhtml#a11da430cc44475b41fdbfc80de511192" target="_top" xlink:title="tetgenmesh::tetrahedrontraverse">
<polygon fill="none" stroke="black" points="156,-6.5 156,-27.5 314,-27.5 314,-6.5 156,-6.5"/>
<text text-anchor="middle" x="235" y="-14.5" font-family="Helvetica,sans-Serif" font-size="10.00">tetgenmesh::tetrahedrontraverse</text>
</a>
</g>
<!-- Node1&#45;&gt;Node27 -->
<g id="edge66" class="edge"><title>Node1&#45;&gt;Node27</title>
<path fill="none" stroke="midnightblue" d="M60.7891,-272.46C64.2219,-234.423 81.2551,-103 156,-37 157.766,-35.4402 159.637,-33.9988 161.592,-32.6668"/>
<polygon fill="midnightblue" stroke="midnightblue" points="163.685,-35.5018 170.631,-27.501 160.212,-29.4243 163.685,-35.5018"/>
</g>
<!-- Node3 -->
<g id="node5" class="node"><title>Node3</title>
<a xlink:href="classtetgenmesh.xhtml#a46fa5fabd0e8e806f7f8beb069732e21" target="_top" xlink:title="tetgenmesh::pointmark">
<polygon fill="none" stroke="black" points="361,-690.5 361,-711.5 477,-711.5 477,-690.5 361,-690.5"/>
<text text-anchor="middle" x="419" y="-698.5" font-family="Helvetica,sans-Serif" font-size="10.00">tetgenmesh::pointmark</text>
</a>
</g>
<!-- Node2&#45;&gt;Node3 -->
<g id="edge4" class="edge"><title>Node2&#45;&gt;Node3</title>
<path fill="none" stroke="midnightblue" d="M252.795,-631.71C274.956,-644.708 314.261,-666.663 350,-681 355.773,-683.316 361.916,-685.489 368.065,-687.486"/>
<polygon fill="midnightblue" stroke="midnightblue" points="367.093,-690.849 377.681,-690.476 369.171,-684.165 367.093,-690.849"/>
</g>
<!-- Node2&#45;&gt;Node4 -->
<g id="edge6" class="edge"><title>Node2&#45;&gt;Node4</title>
<path fill="none" stroke="midnightblue" d="M283.344,-631.51C308.536,-636.986 339.412,-643.698 365.341,-649.335"/>
<polygon fill="midnightblue" stroke="midnightblue" points="364.865,-652.813 375.38,-651.517 366.352,-645.973 364.865,-652.813"/>
</g>
<!-- Node5 -->
<g id="node9" class="node"><title>Node5</title>
<a xlink:href="classtetgenmesh.xhtml#a0ae35b219eb4a0d1e0c14f9759cd6563" target="_top" xlink:title="tetgenmesh::randomnation">
<polygon fill="none" stroke="black" points="353,-610.5 353,-631.5 485,-631.5 485,-610.5 353,-610.5"/>
<text text-anchor="middle" x="419" y="-618.5" font-family="Helvetica,sans-Serif" font-size="10.00">tetgenmesh::randomnation</text>
</a>
</g>
<!-- Node2&#45;&gt;Node5 -->
<g id="edge8" class="edge"><title>Node2&#45;&gt;Node5</title>
<path fill="none" stroke="midnightblue" d="M303.515,-621C316.253,-621 329.635,-621 342.593,-621"/>
<polygon fill="midnightblue" stroke="midnightblue" points="342.872,-624.5 352.872,-621 342.872,-617.5 342.872,-624.5"/>
</g>
<!-- Node6&#45;&gt;Node4 -->
<g id="edge16" class="edge"><title>Node6&#45;&gt;Node4</title>
<path fill="none" stroke="midnightblue" d="M238.779,-411.666C253.905,-453.813 311.14,-608.066 350,-641 354.633,-644.926 359.999,-648.082 365.652,-650.619"/>
<polygon fill="midnightblue" stroke="midnightblue" points="364.768,-654.028 375.358,-654.331 367.268,-647.49 364.768,-654.028"/>
</g>
<!-- Node6&#45;&gt;Node5 -->
<g id="edge38" class="edge"><title>Node6&#45;&gt;Node5</title>
<path fill="none" stroke="midnightblue" d="M237.964,-411.574C247.845,-444.848 282.894,-548.32 350,-601 352.299,-602.805 354.756,-604.447 357.322,-605.941"/>
<polygon fill="midnightblue" stroke="midnightblue" points="355.887,-609.136 366.397,-610.471 359.013,-602.873 355.887,-609.136"/>
</g>
<!-- Node7 -->
<g id="node13" class="node"><title>Node7</title>
<a xlink:href="classtetgenmesh.xhtml#aa14f996a69b46afb1429ebf35a6e881c" target="_top" xlink:title="tetgenmesh::ishulltet">
<polygon fill="none" stroke="black" points="365.5,-370.5 365.5,-391.5 472.5,-391.5 472.5,-370.5 365.5,-370.5"/>
<text text-anchor="middle" x="419" y="-378.5" font-family="Helvetica,sans-Serif" font-size="10.00">tetgenmesh::ishulltet</text>
</a>
</g>
<!-- Node6&#45;&gt;Node7 -->
<g id="edge12" class="edge"><title>Node6&#45;&gt;Node7</title>
<path fill="none" stroke="midnightblue" d="M285.279,-395.535C306.875,-393.187 332.363,-390.417 355.263,-387.928"/>
<polygon fill="midnightblue" stroke="midnightblue" points="355.675,-391.404 365.239,-386.844 354.919,-384.445 355.675,-391.404"/>
</g>
<!-- Node6&#45;&gt;Node8 -->
<g id="edge14" class="edge"><title>Node6&#45;&gt;Node8</title>
<path fill="none" stroke="midnightblue" d="M239.669,-411.852C252.667,-440.751 292.157,-520.153 350,-561 352.7,-562.907 355.58,-564.633 358.574,-566.195"/>
<polygon fill="midnightblue" stroke="midnightblue" points="357.282,-569.453 367.834,-570.41 360.182,-563.082 357.282,-569.453"/>
</g>
<!-- Node6&#45;&gt;Node9 -->
<g id="edge18" class="edge"><title>Node6&#45;&gt;Node9</title>
<path fill="none" stroke="midnightblue" d="M246.938,-411.66C262.791,-425.996 291.414,-452.523 314,-477 331.135,-495.569 328.915,-507.077 350,-521 354.079,-523.693 358.525,-526.03 363.132,-528.058"/>
<polygon fill="midnightblue" stroke="midnightblue" points="362.157,-531.434 372.746,-531.798 364.695,-524.91 362.157,-531.434"/>
</g>
<!-- Node6&#45;&gt;Node10 -->
<g id="edge20" class="edge"><title>Node6&#45;&gt;Node10</title>
<path fill="none" stroke="midnightblue" d="M264.163,-390.38C287.325,-382.061 320.594,-370.369 350,-361 356.945,-358.787 364.314,-356.543 371.553,-354.396"/>
<polygon fill="midnightblue" stroke="midnightblue" points="372.678,-357.714 381.29,-351.542 370.709,-350.996 372.678,-357.714"/>
</g>
<!-- Node11 -->
<g id="node22" class="node"><title>Node11</title>
<a xlink:href="predicates_8cxx.xhtml#a701f35178b28c7bbb94644665c0b058a" target="_top" xlink:title="orient3d">
<polygon fill="none" stroke="black" points="393.5,-490.5 393.5,-511.5 444.5,-511.5 444.5,-490.5 393.5,-490.5"/>
<text text-anchor="middle" x="419" y="-498.5" font-family="Helvetica,sans-Serif" font-size="10.00">orient3d</text>
</a>
</g>
<!-- Node6&#45;&gt;Node11 -->
<g id="edge22" class="edge"><title>Node6&#45;&gt;Node11</title>
<path fill="none" stroke="midnightblue" d="M247.259,-411.578C267.416,-428.479 309.387,-461.634 350,-481 360.515,-486.014 372.543,-490.032 383.58,-493.113"/>
<polygon fill="midnightblue" stroke="midnightblue" points="382.804,-496.528 393.365,-495.681 384.581,-489.757 382.804,-496.528"/>
</g>
<!-- Node6&#45;&gt;Node16 -->
<g id="edge32" class="edge"><title>Node6&#45;&gt;Node16</title>
<path fill="none" stroke="midnightblue" d="M247.259,-390.422C267.416,-373.521 309.387,-340.366 350,-321 354.665,-318.775 359.628,-316.747 364.669,-314.91"/>
<polygon fill="midnightblue" stroke="midnightblue" points="366.057,-318.135 374.405,-311.61 363.81,-311.505 366.057,-318.135"/>
</g>
<!-- Node6&#45;&gt;Node17 -->
<g id="edge34" class="edge"><title>Node6&#45;&gt;Node17</title>
<path fill="none" stroke="midnightblue" d="M242.259,-390.225C258.635,-366.755 300.879,-310.739 350,-281 353.442,-278.916 357.113,-277.039 360.9,-275.351"/>
<polygon fill="midnightblue" stroke="midnightblue" points="362.494,-278.484 370.489,-271.532 359.903,-271.981 362.494,-278.484"/>
</g>
<!-- Node6&#45;&gt;Node18 -->
<g id="edge36" class="edge"><title>Node6&#45;&gt;Node18</title>
<path fill="none" stroke="midnightblue" d="M239.669,-390.148C252.667,-361.249 292.157,-281.847 350,-241 352.7,-239.093 355.58,-237.367 358.574,-235.805"/>
<polygon fill="midnightblue" stroke="midnightblue" points="360.182,-238.918 367.834,-231.59 357.282,-232.547 360.182,-238.918"/>
</g>
<!-- Node19 -->
<g id="node39" class="node"><title>Node19</title>
<a xlink:href="classtetgenmesh.xhtml#a532ef2752219b80766e145980178443e" target="_top" xlink:title="tetgenmesh::enextesymself">
<polygon fill="none" stroke="black" points="350.5,-450.5 350.5,-471.5 487.5,-471.5 487.5,-450.5 350.5,-450.5"/>
<text text-anchor="middle" x="419" y="-458.5" font-family="Helvetica,sans-Serif" font-size="10.00">tetgenmesh::enextesymself</text>
</a>
</g>
<!-- Node6&#45;&gt;Node19 -->
<g id="edge40" class="edge"><title>Node6&#45;&gt;Node19</title>
<path fill="none" stroke="midnightblue" d="M264.163,-411.62C287.325,-419.939 320.594,-431.631 350,-441 356.945,-443.213 364.314,-445.457 371.553,-447.604"/>
<polygon fill="midnightblue" stroke="midnightblue" points="370.709,-451.004 381.29,-450.458 372.678,-444.286 370.709,-451.004"/>
</g>
<!-- Node6&#45;&gt;Node20 -->
<g id="edge42" class="edge"><title>Node6&#45;&gt;Node20</title>
<path fill="none" stroke="midnightblue" d="M237.964,-390.426C247.845,-357.152 282.894,-253.68 350,-201 352.299,-199.195 354.756,-197.553 357.322,-196.059"/>
<polygon fill="midnightblue" stroke="midnightblue" points="359.013,-199.127 366.397,-191.529 355.887,-192.864 359.013,-199.127"/>
</g>
<!-- Node21 -->
<g id="node43" class="node"><title>Node21</title>
<a xlink:href="classtetgenmesh.xhtml#a548dec05fd31790f2ae36cf3890ffb15" target="_top" xlink:title="tetgenmesh::eprevesymself">
<polygon fill="none" stroke="black" points="350.5,-410.5 350.5,-431.5 487.5,-431.5 487.5,-410.5 350.5,-410.5"/>
<text text-anchor="middle" x="419" y="-418.5" font-family="Helvetica,sans-Serif" font-size="10.00">tetgenmesh::eprevesymself</text>
</a>
</g>
<!-- Node6&#45;&gt;Node21 -->
<g id="edge44" class="edge"><title>Node6&#45;&gt;Node21</title>
<path fill="none" stroke="midnightblue" d="M285.279,-406.465C302.235,-408.308 321.591,-410.412 340.209,-412.436"/>
<polygon fill="midnightblue" stroke="midnightblue" points="339.838,-415.916 350.158,-413.517 340.595,-408.957 339.838,-415.916"/>
</g>
<!-- Node12 -->
<g id="node24" class="node"><title>Node12</title>
<a xlink:href="predicates_8cxx.xhtml#ae16b246ccaad9f1d90f37590816c5fde" target="_top" xlink:title="orient3dadapt">
<polygon fill="none" stroke="black" points="524.5,-490.5 524.5,-511.5 599.5,-511.5 599.5,-490.5 524.5,-490.5"/>
<text text-anchor="middle" x="562" y="-498.5" font-family="Helvetica,sans-Serif" font-size="10.00">orient3dadapt</text>
</a>
</g>
<!-- Node11&#45;&gt;Node12 -->
<g id="edge24" class="edge"><title>Node11&#45;&gt;Node12</title>
<path fill="none" stroke="midnightblue" d="M444.566,-501C463.88,-501 490.95,-501 514.232,-501"/>
<polygon fill="midnightblue" stroke="midnightblue" points="514.282,-504.5 524.282,-501 514.282,-497.5 514.282,-504.5"/>
</g>
<!-- Node13 -->
<g id="node26" class="node"><title>Node13</title>
<a xlink:href="predicates_8cxx.xhtml#abdcdaa8948d9a2937154d9d67f67da8d" target="_top" xlink:title="scale_expansion_zeroelim">
<polygon fill="none" stroke="black" points="636.5,-536.5 636.5,-557.5 767.5,-557.5 767.5,-536.5 636.5,-536.5"/>
<text text-anchor="middle" x="702" y="-544.5" font-family="Helvetica,sans-Serif" font-size="10.00">scale_expansion_zeroelim</text>
</a>
</g>
<!-- Node12&#45;&gt;Node13 -->
<g id="edge26" class="edge"><title>Node12&#45;&gt;Node13</title>
<path fill="none" stroke="midnightblue" d="M591.072,-511.544C604.671,-516.392 621.116,-522.133 636,-527 642.575,-529.15 649.545,-531.349 656.396,-533.464"/>
<polygon fill="midnightblue" stroke="midnightblue" points="655.701,-536.912 666.288,-536.489 657.748,-530.218 655.701,-536.912"/>
</g>
<!-- Node14 -->
<g id="node28" class="node"><title>Node14</title>
<a xlink:href="predicates_8cxx.xhtml#a37646a7e0014e10c612e946bc95aeeea" target="_top" xlink:title="fast_expansion_sum\l_zeroelim">
<polygon fill="none" stroke="black" points="648.5,-484 648.5,-518 755.5,-518 755.5,-484 648.5,-484"/>
<text text-anchor="start" x="656.5" y="-505" font-family="Helvetica,sans-Serif" font-size="10.00">fast_expansion_sum</text>
<text text-anchor="middle" x="702" y="-492" font-family="Helvetica,sans-Serif" font-size="10.00">_zeroelim</text>
</a>
</g>
<!-- Node12&#45;&gt;Node14 -->
<g id="edge28" class="edge"><title>Node12&#45;&gt;Node14</title>
<path fill="none" stroke="midnightblue" d="M599.517,-501C611.458,-501 625.019,-501 638.277,-501"/>
<polygon fill="midnightblue" stroke="midnightblue" points="638.324,-504.5 648.324,-501 638.324,-497.5 638.324,-504.5"/>
</g>
<!-- Node15 -->
<g id="node30" class="node"><title>Node15</title>
<a xlink:href="predicates_8cxx.xhtml#a3487d9f90ea72da543d5d38b3dab1fbc" target="_top" xlink:title="estimate">
<polygon fill="none" stroke="black" points="675,-444.5 675,-465.5 729,-465.5 729,-444.5 675,-444.5"/>
<text text-anchor="middle" x="702" y="-452.5" font-family="Helvetica,sans-Serif" font-size="10.00">estimate</text>
</a>
</g>
<!-- Node12&#45;&gt;Node15 -->
<g id="edge30" class="edge"><title>Node12&#45;&gt;Node15</title>
<path fill="none" stroke="midnightblue" d="M591.072,-490.456C604.671,-485.608 621.116,-479.867 636,-475 645.459,-471.907 655.735,-468.713 665.298,-465.811"/>
<polygon fill="midnightblue" stroke="midnightblue" points="666.376,-469.142 674.943,-462.909 664.359,-462.439 666.376,-469.142"/>
</g>
<!-- Node23 -->
<g id="node50" class="node"><title>Node23</title>
<a xlink:href="classtetgenmesh.xhtml#a9b5ff4d3e2452044830fbd47d2f70cbd" target="_top" xlink:title="tetgenmesh::cross">
<polygon fill="none" stroke="black" points="370,-90.5 370,-111.5 468,-111.5 468,-90.5 370,-90.5"/>
<text text-anchor="middle" x="419" y="-98.5" font-family="Helvetica,sans-Serif" font-size="10.00">tetgenmesh::cross</text>
</a>
</g>
<!-- Node22&#45;&gt;Node23 -->
<g id="edge54" class="edge"><title>Node22&#45;&gt;Node23</title>
<path fill="none" stroke="midnightblue" d="M277.254,-138.408C289.147,-135.398 302.087,-132.096 314,-129 332.164,-124.279 352.066,-118.999 369.613,-114.308"/>
<polygon fill="midnightblue" stroke="midnightblue" points="370.887,-117.59 379.641,-111.622 369.076,-110.828 370.887,-117.59"/>
</g>
<!-- Node24 -->
<g id="node52" class="node"><title>Node24</title>
<a xlink:href="classtetgenmesh.xhtml#afa0906703b590597155547336c360004" target="_top" xlink:title="tetgenmesh::dot">
<polygon fill="none" stroke="black" points="375.5,-130.5 375.5,-151.5 462.5,-151.5 462.5,-130.5 375.5,-130.5"/>
<text text-anchor="middle" x="419" y="-138.5" font-family="Helvetica,sans-Serif" font-size="10.00">tetgenmesh::dot</text>
</a>
</g>
<!-- Node22&#45;&gt;Node24 -->
<g id="edge56" class="edge"><title>Node22&#45;&gt;Node24</title>
<path fill="none" stroke="midnightblue" d="M285.766,-146.793C310.448,-145.72 340.122,-144.429 365.194,-143.339"/>
<polygon fill="midnightblue" stroke="midnightblue" points="365.432,-146.832 375.271,-142.901 365.128,-139.839 365.432,-146.832"/>
</g>
<!-- Node28 -->
<g id="node62" class="node"><title>Node28</title>
<a xlink:href="classtetgenmesh_1_1memorypool.xhtml#a151fe73459d0fa9a7262d0030fecf291" target="_top" xlink:title="tetgenmesh::memorypool\l::traverse">
<polygon fill="none" stroke="black" points="355.5,-0 355.5,-34 482.5,-34 482.5,-0 355.5,-0"/>
<text text-anchor="start" x="363.5" y="-21" font-family="Helvetica,sans-Serif" font-size="10.00">tetgenmesh::memorypool</text>
<text text-anchor="middle" x="419" y="-8" font-family="Helvetica,sans-Serif" font-size="10.00">::traverse</text>
</a>
</g>
<!-- Node27&#45;&gt;Node28 -->
<g id="edge68" class="edge"><title>Node27&#45;&gt;Node28</title>
<path fill="none" stroke="midnightblue" d="M314.1,-17C324.401,-17 334.921,-17 345.131,-17"/>
<polygon fill="midnightblue" stroke="midnightblue" points="345.219,-20.5001 355.219,-17 345.219,-13.5001 345.219,-20.5001"/>
</g>
</g>
</svg>
        <g id="navigator" transform="translate(0 0)" fill="#404254">
                <rect fill="#f2f5e9" fill-opacity="0.5" stroke="#606060" stroke-width=".5" x="0" y="0" width="60" height="60"/>
                <use id="zoomplus" xlink:href="#zoomPlus" x="17" y="9" onmousedown="handleZoom(evt,'in')"/>
                <use id="zoomminus" xlink:href="#zoomMin" x="42" y="9" onmousedown="handleZoom(evt,'out')"/>
                <use id="reset" xlink:href="#resetDef" x="30" y="36" onmousedown="handleReset()"/>
                <g id="arrowUp" xlink:href="#dirArrow" transform="translate(30 24)" onmousedown="handlePan(0,-1)">
                  <use xlink:href="#rim" fill="#404040">
                        <set attributeName="fill" to="#808080" begin="arrowUp.mouseover" end="arrowUp.mouseout"/>
                  </use>
                  <path fill="none" stroke="white" stroke-width="1.5" d="M0,-3.0v7 M-2.5,-0.5L0,-3.0L2.5,-0.5"/>
                </g>
                <g id="arrowRight" xlink:href="#dirArrow" transform="rotate(90) translate(36 -43)" onmousedown="handlePan(1,0)">
                  <use xlink:href="#rim" fill="#404040">
                        <set attributeName="fill" to="#808080" begin="arrowRight.mouseover" end="arrowRight.mouseout"/>
                  </use>
                  <path fill="none" stroke="white" stroke-width="1.5" d="M0,-3.0v7 M-2.5,-0.5L0,-3.0L2.5,-0.5"/>
                </g>
                <g id="arrowDown" xlink:href="#dirArrow" transform="rotate(180) translate(-30 -48)" onmousedown="handlePan(0,1)">
                  <use xlink:href="#rim" fill="#404040">
                        <set attributeName="fill" to="#808080" begin="arrowDown.mouseover" end="arrowDown.mouseout"/>
                  </use>
                  <path fill="none" stroke="white" stroke-width="1.5" d="M0,-3.0v7 M-2.5,-0.5L0,-3.0L2.5,-0.5"/>
                </g>
                <g id="arrowLeft" xlink:href="#dirArrow" transform="rotate(270) translate(-36 17)" onmousedown="handlePan(-1,0)">
                  <use xlink:href="#rim" fill="#404040">
                        <set attributeName="fill" to="#808080" begin="arrowLeft.mouseover" end="arrowLeft.mouseout"/>
                  </use>
                  <path fill="none" stroke="white" stroke-width="1.5" d="M0,-3.0v7 M-2.5,-0.5L0,-3.0L2.5,-0.5"/>
                </g>
        </g>
        <svg viewBox="0 0 15 15" width="100%" height="30px" preserveAspectRatio="xMaxYMin meet">
         <g id="arrow_out" transform="scale(0.3 0.3)">
          <a xlink:href="classtetgenmesh_a230d03da7e72e7092f5f51886806dd9b_cgraph_org.svg" target="_base">
           <rect id="button" ry="5" rx="5" y="6" x="6" height="38" width="38"
                fill="#f2f5e9" fill-opacity="0.5" stroke="#606060" stroke-width="1.0"/>
           <path id="arrow"
             d="M 11.500037,31.436501 C 11.940474,20.09759 22.043105,11.32322 32.158766,21.979434 L 37.068811,17.246167 C 37.068811,17.246167 37.088388,32 37.088388,32 L 22.160133,31.978069 C 22.160133,31.978069 26.997745,27.140456 26.997745,27.140456 C 18.528582,18.264221 13.291696,25.230495 11.500037,31.436501 z"
             style="fill:#404040;"/>
          </a>
         </g>
        </svg>
</svg>
