<?xml version="1.0" encoding="UTF-8" standalone="no"?>
<!DOCTYPE svg PUBLIC "-//W3C//DTD SVG 1.1//EN"
 "http://www.w3.org/Graphics/SVG/1.1/DTD/svg11.dtd">
<!-- Generated by graphviz version 2.26.3 (20100126.1600)
 -->
<!-- Title: Vector3D::equals Pages: 1 -->
<!--zoomable 76 -->
<svg id="main" version="1.1" xmlns="http://www.w3.org/2000/svg" xmlns:xlink="http://www.w3.org/1999/xlink" xml:space="preserve" onload="init(evt)">
<style type="text/css"><![CDATA[
.edge:hover path { stroke: red; }
.edge:hover polygon { stroke: red; fill: red; }
]]></style>
<script type="text/javascript"><![CDATA[
var edges = document.getElementsByTagName('g');
if (edges && edges.length) {
  for (var i=0;i<edges.length;i++) {
    if (edges[i].id.substr(0,4)=='edge') {
      edges[i].setAttribute('class','edge');
    }
  }
}
]]></script>
        <defs>
                <circle id="rim" cx="0" cy="0" r="7"/>
                <circle id="rim2" cx="0" cy="0" r="3.5"/>
                <g id="zoomPlus">
                        <use xlink:href="#rim" fill="#404040">
                                <set attributeName="fill" to="#808080" begin="zoomplus.mouseover" end="zoomplus.mouseout"/>
                        </use>
                        <path d="M-4,0h8M0,-4v8" fill="none" stroke="white" stroke-width="1.5" pointer-events="none"/>
                </g>
                <g id="zoomMin">
                        <use xlink:href="#rim" fill="#404040">
                                <set attributeName="fill" to="#808080" begin="zoomminus.mouseover" end="zoomminus.mouseout"/>
                        </use>
                        <path d="M-4,0h8" fill="none" stroke="white" stroke-width="1.5" pointer-events="none"/>
                </g>
                <g id="dirArrow">
                        <path fill="none" stroke="white" stroke-width="1.5" d="M0,-3.0v7 M-2.5,-0.5L0,-3.0L2.5,-0.5"/>
                </g>
               <g id="resetDef">
                       <use xlink:href="#rim2" fill="#404040">
                               <set attributeName="fill" to="#808080" begin="reset.mouseover" end="reset.mouseout"/>
                       </use>
               </g>
        </defs>

<script type="text/javascript">
var viewWidth = 726;
var viewHeight = 76;
var sectionId = 'dynsection-9';
</script>
<script xlink:href="svgpan.js"/>
<svg id="graph" class="graph">
<g id="viewport">
<title>Vector3D::equals</title>
<!-- Node1 -->
<g id="node1" class="node"><title>Node1</title>
<polygon fill="#bfbfbf" stroke="black" points="0,-26.5 0,-47.5 92,-47.5 92,-26.5 0,-26.5"/>
<text text-anchor="middle" x="46" y="-34.5" font-family="Helvetica,sans-Serif" font-size="10.00">Vector3D::equals</text>
</g>
<!-- Node2 -->
<g id="node3" class="node"><title>Node2</title>
<a xlink:href="classInterpolator.xhtml#ad59ac6ed3822e08a67ac7d1ee88a5bd2" target="_top" xlink:title="Interpolator::interpolateTri">
<polygon fill="none" stroke="black" points="130,-46.5 130,-67.5 258,-67.5 258,-46.5 130,-46.5"/>
<text text-anchor="middle" x="194" y="-54.5" font-family="Helvetica,sans-Serif" font-size="10.00">Interpolator::interpolateTri</text>
</a>
</g>
<!-- Node1&#45;&gt;Node2 -->
<g id="edge2" class="edge"><title>Node1&#45;&gt;Node2</title>
<path fill="none" stroke="midnightblue" d="M102.057,-44.5752C111.121,-45.8001 120.567,-47.0767 129.806,-48.3252"/>
<polygon fill="midnightblue" stroke="midnightblue" points="102.396,-41.0893 92.0168,-43.2185 101.458,-48.0262 102.396,-41.0893"/>
</g>
<!-- Node3 -->
<g id="node5" class="node"><title>Node3</title>
<a xlink:href="classInterpolator.xhtml#a30e714ca6dff9b5745d029f95af1420a" target="_top" xlink:title="Interpolator::interpolateTet">
<polygon fill="none" stroke="black" points="128.5,-6.5 128.5,-27.5 259.5,-27.5 259.5,-6.5 128.5,-6.5"/>
<text text-anchor="middle" x="194" y="-14.5" font-family="Helvetica,sans-Serif" font-size="10.00">Interpolator::interpolateTet</text>
</a>
</g>
<!-- Node1&#45;&gt;Node3 -->
<g id="edge4" class="edge"><title>Node1&#45;&gt;Node3</title>
<path fill="none" stroke="midnightblue" d="M101.976,-29.4357C110.623,-28.2672 119.619,-27.0515 128.452,-25.8578"/>
<polygon fill="midnightblue" stroke="midnightblue" points="101.458,-25.9738 92.0168,-30.7815 102.396,-32.9107 101.458,-25.9738"/>
</g>
<!-- Node4 -->
<g id="node7" class="node"><title>Node4</title>
<a xlink:href="namespaceUtils.xhtml#a6a0ae18a42e2d206bc1b43da27820fe2" target="_top" xlink:title="Utils::getPointValue">
<polygon fill="none" stroke="black" points="296,-6.5 296,-27.5 400,-27.5 400,-6.5 296,-6.5"/>
<text text-anchor="middle" x="348" y="-14.5" font-family="Helvetica,sans-Serif" font-size="10.00">Utils::getPointValue</text>
</a>
</g>
<!-- Node3&#45;&gt;Node4 -->
<g id="edge6" class="edge"><title>Node3&#45;&gt;Node4</title>
<path fill="none" stroke="midnightblue" d="M270.028,-17C278.807,-17 287.603,-17 295.96,-17"/>
<polygon fill="midnightblue" stroke="midnightblue" points="269.757,-13.5001 259.757,-17 269.757,-20.5001 269.757,-13.5001"/>
</g>
<!-- Node5 -->
<g id="node9" class="node"><title>Node5</title>
<a xlink:href="classAnalyzer.xhtml#a8f73ee0aa71ae395a74b43dc76b35458" target="_top" xlink:title="Analyzer::analyzePoint">
<polygon fill="none" stroke="black" points="436.5,-6.5 436.5,-27.5 553.5,-27.5 553.5,-6.5 436.5,-6.5"/>
<text text-anchor="middle" x="495" y="-14.5" font-family="Helvetica,sans-Serif" font-size="10.00">Analyzer::analyzePoint</text>
</a>
</g>
<!-- Node4&#45;&gt;Node5 -->
<g id="edge8" class="edge"><title>Node4&#45;&gt;Node5</title>
<path fill="none" stroke="midnightblue" d="M410.285,-17C418.951,-17 427.829,-17 436.423,-17"/>
<polygon fill="midnightblue" stroke="midnightblue" points="410.241,-13.5001 400.241,-17 410.241,-20.5001 410.241,-13.5001"/>
</g>
<!-- Node6 -->
<g id="node11" class="node"><title>Node6</title>
<a xlink:href="classGUIAnalyzePointWindow.xhtml#aa84ea9958e8b41423f01316d01ba5151" target="_top" xlink:title="GUIAnalyzePointWindow\l::analyzePoint">
<polygon fill="none" stroke="black" points="590,-0 590,-34 718,-34 718,-0 590,-0"/>
<text text-anchor="start" x="598" y="-21" font-family="Helvetica,sans-Serif" font-size="10.00">GUIAnalyzePointWindow</text>
<text text-anchor="middle" x="654" y="-8" font-family="Helvetica,sans-Serif" font-size="10.00">::analyzePoint</text>
</a>
</g>
<!-- Node5&#45;&gt;Node6 -->
<g id="edge10" class="edge"><title>Node5&#45;&gt;Node6</title>
<path fill="none" stroke="midnightblue" d="M563.811,-17C572.466,-17 581.294,-17 589.874,-17"/>
<polygon fill="midnightblue" stroke="midnightblue" points="563.754,-13.5001 553.754,-17 563.754,-20.5001 563.754,-13.5001"/>
</g>
</g>
</svg>
        <g id="navigator" transform="translate(0 0)" fill="#404254">
                <rect fill="#f2f5e9" fill-opacity="0.5" stroke="#606060" stroke-width=".5" x="0" y="0" width="60" height="60"/>
                <use id="zoomplus" xlink:href="#zoomPlus" x="17" y="9" onmousedown="handleZoom(evt,'in')"/>
                <use id="zoomminus" xlink:href="#zoomMin" x="42" y="9" onmousedown="handleZoom(evt,'out')"/>
                <use id="reset" xlink:href="#resetDef" x="30" y="36" onmousedown="handleReset()"/>
                <g id="arrowUp" xlink:href="#dirArrow" transform="translate(30 24)" onmousedown="handlePan(0,-1)">
                  <use xlink:href="#rim" fill="#404040">
                        <set attributeName="fill" to="#808080" begin="arrowUp.mouseover" end="arrowUp.mouseout"/>
                  </use>
                  <path fill="none" stroke="white" stroke-width="1.5" d="M0,-3.0v7 M-2.5,-0.5L0,-3.0L2.5,-0.5"/>
                </g>
                <g id="arrowRight" xlink:href="#dirArrow" transform="rotate(90) translate(36 -43)" onmousedown="handlePan(1,0)">
                  <use xlink:href="#rim" fill="#404040">
                        <set attributeName="fill" to="#808080" begin="arrowRight.mouseover" end="arrowRight.mouseout"/>
                  </use>
                  <path fill="none" stroke="white" stroke-width="1.5" d="M0,-3.0v7 M-2.5,-0.5L0,-3.0L2.5,-0.5"/>
                </g>
                <g id="arrowDown" xlink:href="#dirArrow" transform="rotate(180) translate(-30 -48)" onmousedown="handlePan(0,1)">
                  <use xlink:href="#rim" fill="#404040">
                        <set attributeName="fill" to="#808080" begin="arrowDown.mouseover" end="arrowDown.mouseout"/>
                  </use>
                  <path fill="none" stroke="white" stroke-width="1.5" d="M0,-3.0v7 M-2.5,-0.5L0,-3.0L2.5,-0.5"/>
                </g>
                <g id="arrowLeft" xlink:href="#dirArrow" transform="rotate(270) translate(-36 17)" onmousedown="handlePan(-1,0)">
                  <use xlink:href="#rim" fill="#404040">
                        <set attributeName="fill" to="#808080" begin="arrowLeft.mouseover" end="arrowLeft.mouseout"/>
                  </use>
                  <path fill="none" stroke="white" stroke-width="1.5" d="M0,-3.0v7 M-2.5,-0.5L0,-3.0L2.5,-0.5"/>
                </g>
        </g>
        <svg viewBox="0 0 15 15" width="100%" height="30px" preserveAspectRatio="xMaxYMin meet">
         <g id="arrow_out" transform="scale(0.3 0.3)">
          <a xlink:href="classVector3D_ac83e936757114f32bc9d868ea5fabbc2_icgraph_org.svg" target="_base">
           <rect id="button" ry="5" rx="5" y="6" x="6" height="38" width="38"
                fill="#f2f5e9" fill-opacity="0.5" stroke="#606060" stroke-width="1.0"/>
           <path id="arrow"
             d="M 11.500037,31.436501 C 11.940474,20.09759 22.043105,11.32322 32.158766,21.979434 L 37.068811,17.246167 C 37.068811,17.246167 37.088388,32 37.088388,32 L 22.160133,31.978069 C 22.160133,31.978069 26.997745,27.140456 26.997745,27.140456 C 18.528582,18.264221 13.291696,25.230495 11.500037,31.436501 z"
             style="fill:#404040;"/>
          </a>
         </g>
        </svg>
</svg>
