<?xml version="1.0" encoding="UTF-8" standalone="no"?>
<!DOCTYPE svg PUBLIC "-//W3C//DTD SVG 1.1//EN"
 "http://www.w3.org/Graphics/SVG/1.1/DTD/svg11.dtd">
<!-- Generated by graphviz version 2.26.3 (20100126.1600)
 -->
<!-- Title: Analyzer::analyzePoint Pages: 1 -->
<svg width="970pt" height="795pt"
 viewBox="0.00 0.00 970.00 794.90" xmlns="http://www.w3.org/2000/svg" xmlns:xlink="http://www.w3.org/1999/xlink">
<g id="graph1" class="graph" transform="scale(1 1) rotate(0) translate(4 790.902)">
<title>Analyzer::analyzePoint</title>
<!-- Node1 -->
<g id="node1" class="node"><title>Node1</title>
<polygon fill="#bfbfbf" stroke="black" points="0.5,-409.5 0.5,-430.5 117.5,-430.5 117.5,-409.5 0.5,-409.5"/>
<text text-anchor="middle" x="59" y="-417.5" font-family="Helvetica,sans-Serif" font-size="10.00">Analyzer::analyzePoint</text>
</g>
<!-- Node2 -->
<g id="node3" class="node"><title>Node2</title>
<a xlink:href="classObjectData.xhtml#a72ac93213382f67b4d5b40c011eb1656" target="_top" xlink:title="ObjectData::getSensorDataList">
<polygon fill="none" stroke="black" points="154.5,-478.5 154.5,-499.5 307.5,-499.5 307.5,-478.5 154.5,-478.5"/>
<text text-anchor="middle" x="231" y="-486.5" font-family="Helvetica,sans-Serif" font-size="10.00">ObjectData::getSensorDataList</text>
</a>
</g>
<!-- Node1&#45;&gt;Node2 -->
<g id="edge2" class="edge"><title>Node1&#45;&gt;Node2</title>
<path fill="none" stroke="midnightblue" d="M76.661,-430.625C95.3349,-441.494 125.919,-458.264 154,-469 160.328,-471.419 167.057,-473.645 173.802,-475.664"/>
<polygon fill="midnightblue" stroke="midnightblue" points="173.074,-479.096 183.65,-478.471 174.993,-472.364 173.074,-479.096"/>
</g>
<!-- Node3 -->
<g id="node5" class="node"><title>Node3</title>
<a xlink:href="classObjectData.xhtml#a503d63160a3afe2ea517449f78f8ac42" target="_top" xlink:title="ObjectData::getCurrentSensor\lIndex">
<polygon fill="none" stroke="black" points="156.5,-426 156.5,-460 305.5,-460 305.5,-426 156.5,-426"/>
<text text-anchor="start" x="164.5" y="-447" font-family="Helvetica,sans-Serif" font-size="10.00">ObjectData::getCurrentSensor</text>
<text text-anchor="middle" x="231" y="-434" font-family="Helvetica,sans-Serif" font-size="10.00">Index</text>
</a>
</g>
<!-- Node1&#45;&gt;Node3 -->
<g id="edge4" class="edge"><title>Node1&#45;&gt;Node3</title>
<path fill="none" stroke="midnightblue" d="M117.712,-427.851C126.957,-429.087 136.671,-430.386 146.363,-431.682"/>
<polygon fill="midnightblue" stroke="midnightblue" points="146.058,-435.173 156.434,-433.029 146.986,-428.234 146.058,-435.173"/>
</g>
<!-- Node4 -->
<g id="node7" class="node"><title>Node4</title>
<a xlink:href="namespaceUtils.xhtml#a6a0ae18a42e2d206bc1b43da27820fe2" target="_top" xlink:title="Utils::getPointValue">
<polygon fill="none" stroke="black" points="179,-386.5 179,-407.5 283,-407.5 283,-386.5 179,-386.5"/>
<text text-anchor="middle" x="231" y="-394.5" font-family="Helvetica,sans-Serif" font-size="10.00">Utils::getPointValue</text>
</a>
</g>
<!-- Node1&#45;&gt;Node4 -->
<g id="edge6" class="edge"><title>Node1&#45;&gt;Node4</title>
<path fill="none" stroke="midnightblue" d="M117.712,-412.149C134.152,-409.951 152.077,-407.554 168.717,-405.328"/>
<polygon fill="midnightblue" stroke="midnightblue" points="169.44,-408.763 178.887,-403.969 168.512,-401.825 169.44,-408.763"/>
</g>
<!-- Node31 -->
<g id="node90" class="node"><title>Node31</title>
<a xlink:href="classVector3D.xhtml#a89aeff2092d6a954cd449aca97c59197" target="_top" xlink:title="Vector3D::getXYZ">
<polygon fill="none" stroke="black" points="182.5,-346.5 182.5,-367.5 279.5,-367.5 279.5,-346.5 182.5,-346.5"/>
<text text-anchor="middle" x="231" y="-354.5" font-family="Helvetica,sans-Serif" font-size="10.00">Vector3D::getXYZ</text>
</a>
</g>
<!-- Node1&#45;&gt;Node31 -->
<g id="edge118" class="edge"><title>Node1&#45;&gt;Node31</title>
<path fill="none" stroke="midnightblue" d="M79.7066,-409.384C98.6735,-399.961 127.712,-386.287 154,-377 160.804,-374.596 168.039,-372.34 175.244,-370.273"/>
<polygon fill="midnightblue" stroke="midnightblue" points="176.303,-373.611 185.009,-367.573 174.438,-366.864 176.303,-373.611"/>
</g>
<!-- Node5 -->
<g id="node9" class="node"><title>Node5</title>
<a xlink:href="namespaceUtils.xhtml#a9b995a1220a78be108b19bda4b776332" target="_top" xlink:title="Utils::pointInsideTetrahedron">
<polygon fill="none" stroke="black" points="512,-702.5 512,-723.5 654,-723.5 654,-702.5 512,-702.5"/>
<text text-anchor="middle" x="583" y="-710.5" font-family="Helvetica,sans-Serif" font-size="10.00">Utils::pointInsideTetrahedron</text>
</a>
</g>
<!-- Node4&#45;&gt;Node5 -->
<g id="edge8" class="edge"><title>Node4&#45;&gt;Node5</title>
<path fill="none" stroke="midnightblue" d="M283.206,-405.393C291.936,-408.211 300.561,-411.974 308,-417 434.391,-502.398 386.489,-606.314 512,-693 514.88,-694.989 517.954,-696.781 521.147,-698.396"/>
<polygon fill="midnightblue" stroke="midnightblue" points="519.844,-701.646 530.404,-702.493 522.677,-695.245 519.844,-701.646"/>
</g>
<!-- Node14 -->
<g id="node33" class="node"><title>Node14</title>
<a xlink:href="namespaceUtils.xhtml#af4ba26e928c7cef5269c51bfac49d547" target="_top" xlink:title="Utils::nextCombination">
<polygon fill="none" stroke="black" points="352,-328.5 352,-349.5 468,-349.5 468,-328.5 352,-328.5"/>
<text text-anchor="middle" x="410" y="-336.5" font-family="Helvetica,sans-Serif" font-size="10.00">Utils::nextCombination</text>
</a>
</g>
<!-- Node4&#45;&gt;Node14 -->
<g id="edge38" class="edge"><title>Node4&#45;&gt;Node14</title>
<path fill="none" stroke="midnightblue" d="M274.794,-386.455C285.704,-383.601 297.33,-380.363 308,-377 330.356,-369.953 354.995,-360.813 374.456,-353.263"/>
<polygon fill="midnightblue" stroke="midnightblue" points="375.803,-356.495 383.84,-349.591 373.252,-349.976 375.803,-356.495"/>
</g>
<!-- Node15 -->
<g id="node36" class="node"><title>Node15</title>
<a xlink:href="classInterpolator.xhtml#a30e714ca6dff9b5745d029f95af1420a" target="_top" xlink:title="Interpolator::interpolateTet">
<polygon fill="none" stroke="black" points="344.5,-386.5 344.5,-407.5 475.5,-407.5 475.5,-386.5 344.5,-386.5"/>
<text text-anchor="middle" x="410" y="-394.5" font-family="Helvetica,sans-Serif" font-size="10.00">Interpolator::interpolateTet</text>
</a>
</g>
<!-- Node4&#45;&gt;Node15 -->
<g id="edge42" class="edge"><title>Node4&#45;&gt;Node15</title>
<path fill="none" stroke="midnightblue" d="M283.255,-397C299.214,-397 317.095,-397 334.282,-397"/>
<polygon fill="midnightblue" stroke="midnightblue" points="334.301,-400.5 344.301,-397 334.301,-393.5 334.301,-400.5"/>
</g>
<!-- Node6 -->
<g id="node11" class="node"><title>Node6</title>
<a xlink:href="classVector3D.xhtml#a02364a41693ac080f5adadd776df74b4" target="_top" xlink:title="Vector3D::sub">
<polygon fill="none" stroke="black" points="714,-412.5 714,-433.5 794,-433.5 794,-412.5 714,-412.5"/>
<text text-anchor="middle" x="754" y="-420.5" font-family="Helvetica,sans-Serif" font-size="10.00">Vector3D::sub</text>
</a>
</g>
<!-- Node5&#45;&gt;Node6 -->
<g id="edge10" class="edge"><title>Node5&#45;&gt;Node6</title>
<path fill="none" stroke="midnightblue" d="M642.463,-702.348C646.772,-699.832 650.708,-696.756 654,-693 727.989,-608.576 617.214,-528.463 690,-443 693.917,-438.401 698.875,-434.845 704.292,-432.098"/>
<polygon fill="midnightblue" stroke="midnightblue" points="705.831,-435.249 713.738,-428.197 703.159,-428.779 705.831,-435.249"/>
</g>
<!-- Node10 -->
<g id="node19" class="node"><title>Node10</title>
<a xlink:href="classVector3D.xhtml#a482cd77ce44ea7dd71fd7a43cb7b1cf5" target="_top" xlink:title="Vector3D::crossProduct">
<polygon fill="none" stroke="black" points="693,-452.5 693,-473.5 815,-473.5 815,-452.5 693,-452.5"/>
<text text-anchor="middle" x="754" y="-460.5" font-family="Helvetica,sans-Serif" font-size="10.00">Vector3D::crossProduct</text>
</a>
</g>
<!-- Node5&#45;&gt;Node10 -->
<g id="edge18" class="edge"><title>Node5&#45;&gt;Node10</title>
<path fill="none" stroke="midnightblue" d="M642.021,-702.443C646.483,-699.912 650.573,-696.807 654,-693 717.36,-622.626 627.642,-554.264 690,-483 691.159,-481.675 692.405,-480.437 693.723,-479.28"/>
<polygon fill="midnightblue" stroke="midnightblue" points="695.785,-482.109 701.961,-473.5 691.765,-476.378 695.785,-482.109"/>
</g>
<!-- Node11 -->
<g id="node24" class="node"><title>Node11</title>
<a xlink:href="classVector3D.xhtml#a0808a8e6004a347d82f9214778b5968f" target="_top" xlink:title="Vector3D::dotProduct">
<polygon fill="none" stroke="black" points="698.5,-492.5 698.5,-513.5 809.5,-513.5 809.5,-492.5 698.5,-492.5"/>
<text text-anchor="middle" x="754" y="-500.5" font-family="Helvetica,sans-Serif" font-size="10.00">Vector3D::dotProduct</text>
</a>
</g>
<!-- Node5&#45;&gt;Node11 -->
<g id="edge26" class="edge"><title>Node5&#45;&gt;Node11</title>
<path fill="none" stroke="midnightblue" d="M638.344,-702.347C643.968,-699.857 649.322,-696.787 654,-693 710.027,-647.652 738.469,-562.408 749.032,-523.411"/>
<polygon fill="midnightblue" stroke="midnightblue" points="752.479,-524.061 751.597,-513.503 745.703,-522.307 752.479,-524.061"/>
</g>
<!-- Node12 -->
<g id="node29" class="node"><title>Node12</title>
<a xlink:href="classVector3D.xhtml#a3dec11494c99de7370e3877054c3ef13" target="_top" xlink:title="Vector3D::mult">
<polygon fill="none" stroke="black" points="712.5,-740.5 712.5,-761.5 795.5,-761.5 795.5,-740.5 712.5,-740.5"/>
<text text-anchor="middle" x="754" y="-748.5" font-family="Helvetica,sans-Serif" font-size="10.00">Vector3D::mult</text>
</a>
</g>
<!-- Node5&#45;&gt;Node12 -->
<g id="edge34" class="edge"><title>Node5&#45;&gt;Node12</title>
<path fill="none" stroke="midnightblue" d="M630.633,-723.585C653.015,-728.559 679.735,-734.497 702.576,-739.573"/>
<polygon fill="midnightblue" stroke="midnightblue" points="701.914,-743.011 712.435,-741.763 703.433,-736.177 701.914,-743.011"/>
</g>
<!-- Node13 -->
<g id="node31" class="node"><title>Node13</title>
<a xlink:href="classVector3D.xhtml#a46dd0d9a849809a3857783102959e788" target="_top" xlink:title="Vector3D::copy">
<polygon fill="none" stroke="black" points="711.5,-372.5 711.5,-393.5 796.5,-393.5 796.5,-372.5 711.5,-372.5"/>
<text text-anchor="middle" x="754" y="-380.5" font-family="Helvetica,sans-Serif" font-size="10.00">Vector3D::copy</text>
</a>
</g>
<!-- Node5&#45;&gt;Node13 -->
<g id="edge36" class="edge"><title>Node5&#45;&gt;Node13</title>
<path fill="none" stroke="midnightblue" d="M642.542,-702.416C646.834,-699.886 650.745,-696.788 654,-693 738.646,-594.494 606.757,-502.694 690,-403 693.364,-398.971 697.529,-395.74 702.109,-393.152"/>
<polygon fill="midnightblue" stroke="midnightblue" points="703.692,-396.276 711.323,-388.926 700.774,-389.914 703.692,-396.276"/>
</g>
<!-- Node7 -->
<g id="node13" class="node"><title>Node7</title>
<a xlink:href="classVector3D.xhtml#aa9eaf29045bf32b95c5c7bcb2b8b68d7" target="_top" xlink:title="Vector3D::getX">
<polygon fill="none" stroke="black" points="866,-252.5 866,-273.5 950,-273.5 950,-252.5 866,-252.5"/>
<text text-anchor="middle" x="908" y="-260.5" font-family="Helvetica,sans-Serif" font-size="10.00">Vector3D::getX</text>
</a>
</g>
<!-- Node6&#45;&gt;Node7 -->
<g id="edge12" class="edge"><title>Node6&#45;&gt;Node7</title>
<path fill="none" stroke="midnightblue" d="M794.205,-416.917C802.965,-413.948 811.534,-409.54 818,-403 857.147,-363.403 815.892,-323.598 854,-283 855.223,-281.697 856.539,-280.479 857.928,-279.339"/>
<polygon fill="midnightblue" stroke="midnightblue" points="860.142,-282.071 866.557,-273.639 856.284,-276.23 860.142,-282.071"/>
</g>
<!-- Node8 -->
<g id="node15" class="node"><title>Node8</title>
<a xlink:href="classVector3D.xhtml#aa3ffff17b886274a58417dfe4bb4c4a2" target="_top" xlink:title="Vector3D::getY">
<polygon fill="none" stroke="black" points="866,-332.5 866,-353.5 950,-353.5 950,-332.5 866,-332.5"/>
<text text-anchor="middle" x="908" y="-340.5" font-family="Helvetica,sans-Serif" font-size="10.00">Vector3D::getY</text>
</a>
</g>
<!-- Node6&#45;&gt;Node8 -->
<g id="edge14" class="edge"><title>Node6&#45;&gt;Node8</title>
<path fill="none" stroke="midnightblue" d="M793.938,-412.453C802.065,-409.773 810.436,-406.611 818,-403 842.821,-391.149 868.701,-373.218 886.303,-360.044"/>
<polygon fill="midnightblue" stroke="midnightblue" points="888.869,-362.489 894.704,-353.645 884.628,-356.92 888.869,-362.489"/>
</g>
<!-- Node9 -->
<g id="node17" class="node"><title>Node9</title>
<a xlink:href="classVector3D.xhtml#ab0dcbf253ff78856eccb5ea74d080fc7" target="_top" xlink:title="Vector3D::getZ">
<polygon fill="none" stroke="black" points="866.5,-292.5 866.5,-313.5 949.5,-313.5 949.5,-292.5 866.5,-292.5"/>
<text text-anchor="middle" x="908" y="-300.5" font-family="Helvetica,sans-Serif" font-size="10.00">Vector3D::getZ</text>
</a>
</g>
<!-- Node6&#45;&gt;Node9 -->
<g id="edge16" class="edge"><title>Node6&#45;&gt;Node9</title>
<path fill="none" stroke="midnightblue" d="M794.276,-416.062C802.831,-413.126 811.293,-408.947 818,-403 847.173,-377.132 825.507,-349.615 854,-323 855.662,-321.447 857.455,-320.013 859.343,-318.688"/>
<polygon fill="midnightblue" stroke="midnightblue" points="861.254,-321.625 868.113,-313.55 857.715,-315.585 861.254,-321.625"/>
</g>
<!-- Node10&#45;&gt;Node7 -->
<g id="edge24" class="edge"><title>Node10&#45;&gt;Node7</title>
<path fill="none" stroke="midnightblue" d="M805.528,-452.487C810.17,-449.968 814.45,-446.852 818,-443 867.396,-389.401 806.009,-337.861 854,-283 855.154,-281.681 856.403,-280.449 857.729,-279.297"/>
<polygon fill="midnightblue" stroke="midnightblue" points="859.801,-282.12 866.034,-273.552 855.818,-276.363 859.801,-282.12"/>
</g>
<!-- Node10&#45;&gt;Node8 -->
<g id="edge22" class="edge"><title>Node10&#45;&gt;Node8</title>
<path fill="none" stroke="midnightblue" d="M798.763,-452.414C805.483,-449.874 812.121,-446.772 818,-443 851.347,-421.605 880.017,-384.658 895.566,-362.162"/>
<polygon fill="midnightblue" stroke="midnightblue" points="898.539,-364.014 901.224,-353.765 892.734,-360.102 898.539,-364.014"/>
</g>
<!-- Node10&#45;&gt;Node9 -->
<g id="edge20" class="edge"><title>Node10&#45;&gt;Node9</title>
<path fill="none" stroke="midnightblue" d="M804.943,-452.393C809.757,-449.893 814.235,-446.808 818,-443 857.147,-403.403 815.892,-363.598 854,-323 855.223,-321.697 856.539,-320.479 857.928,-319.339"/>
<polygon fill="midnightblue" stroke="midnightblue" points="860.142,-322.071 866.557,-313.639 856.284,-316.23 860.142,-322.071"/>
</g>
<!-- Node11&#45;&gt;Node7 -->
<g id="edge28" class="edge"><title>Node11&#45;&gt;Node7</title>
<path fill="none" stroke="midnightblue" d="M806.006,-492.471C810.496,-489.952 814.611,-486.841 818,-483 877.757,-415.278 796.017,-352.247 854,-283 855.125,-281.656 856.35,-280.403 857.654,-279.233"/>
<polygon fill="midnightblue" stroke="midnightblue" points="859.733,-282.05 865.873,-273.415 855.689,-276.337 859.733,-282.05"/>
</g>
<!-- Node11&#45;&gt;Node8 -->
<g id="edge30" class="edge"><title>Node11&#45;&gt;Node8</title>
<path fill="none" stroke="midnightblue" d="M801.319,-492.411C807.262,-489.903 813,-486.81 818,-483 859.939,-451.04 887.818,-393.507 900.372,-363.098"/>
<polygon fill="midnightblue" stroke="midnightblue" points="903.723,-364.145 904.172,-353.56 897.22,-361.555 903.723,-364.145"/>
</g>
<!-- Node11&#45;&gt;Node9 -->
<g id="edge32" class="edge"><title>Node11&#45;&gt;Node9</title>
<path fill="none" stroke="midnightblue" d="M805.528,-492.487C810.17,-489.968 814.45,-486.852 818,-483 867.396,-429.401 806.009,-377.861 854,-323 855.177,-321.655 856.452,-320.4 857.807,-319.23"/>
<polygon fill="midnightblue" stroke="midnightblue" points="860.032,-321.948 866.3,-313.406 856.073,-316.175 860.032,-321.948"/>
</g>
<!-- Node14&#45;&gt;Node14 -->
<g id="edge40" class="edge"><title>Node14&#45;&gt;Node14</title>
<path fill="none" stroke="midnightblue" d="M382.671,-349.708C370.992,-358.653 380.102,-368 410,-368 429.621,-368 440.289,-363.975 442.004,-358.679"/>
<polygon fill="midnightblue" stroke="midnightblue" points="445.054,-356.959 437.329,-349.708 438.846,-360.194 445.054,-356.959"/>
</g>
<!-- Node15&#45;&gt;Node6 -->
<g id="edge64" class="edge"><title>Node15&#45;&gt;Node6</title>
<path fill="none" stroke="midnightblue" d="M416.549,-407.543C430.751,-429.268 466.773,-478.528 512,-497 570.426,-520.863 598.357,-526.779 654,-497 679.431,-483.39 666.913,-460.291 690,-443 694.368,-439.729 699.281,-436.985 704.395,-434.685"/>
<polygon fill="midnightblue" stroke="midnightblue" points="705.717,-437.926 713.741,-431.007 703.154,-431.413 705.717,-437.926"/>
</g>
<!-- Node15&#45;&gt;Node10 -->
<g id="edge98" class="edge"><title>Node15&#45;&gt;Node10</title>
<path fill="none" stroke="midnightblue" d="M412.214,-407.612C419.592,-439.915 446.67,-537.14 512,-575 566.605,-606.644 601.873,-610.578 654,-575 690.266,-550.247 657.883,-512.94 690,-483 691.66,-481.452 693.439,-480.024 695.309,-478.706"/>
<polygon fill="midnightblue" stroke="midnightblue" points="697.146,-481.687 704.001,-473.608 693.604,-475.649 697.146,-481.687"/>
</g>
<!-- Node15&#45;&gt;Node11 -->
<g id="edge82" class="edge"><title>Node15&#45;&gt;Node11</title>
<path fill="none" stroke="midnightblue" d="M411.542,-407.719C419.372,-460.499 456.543,-691.879 512,-733 562.695,-770.59 601.221,-767.604 654,-733 727.165,-685.029 747.082,-570.669 752.266,-523.69"/>
<polygon fill="midnightblue" stroke="midnightblue" points="755.77,-523.813 753.269,-513.518 748.804,-523.126 755.77,-523.813"/>
</g>
<!-- Node15&#45;&gt;Node12 -->
<g id="edge84" class="edge"><title>Node15&#45;&gt;Node12</title>
<path fill="none" stroke="midnightblue" d="M411.304,-407.823C418.232,-463.312 452.651,-715.029 512,-760 572.317,-805.704 667.454,-782.688 718.626,-764.993"/>
<polygon fill="midnightblue" stroke="midnightblue" points="720.016,-768.213 728.251,-761.547 717.656,-761.623 720.016,-768.213"/>
</g>
<!-- Node15&#45;&gt;Node13 -->
<g id="edge62" class="edge"><title>Node15&#45;&gt;Node13</title>
<path fill="none" stroke="midnightblue" d="M453.907,-386.458C471.81,-382.667 492.782,-378.866 512,-377 577.022,-370.685 652.305,-374.251 701.415,-378.027"/>
<polygon fill="midnightblue" stroke="midnightblue" points="701.236,-381.524 711.484,-378.833 701.795,-374.546 701.236,-381.524"/>
</g>
<!-- Node16 -->
<g id="node38" class="node"><title>Node16</title>
<a xlink:href="classVector3D.xhtml#ac83e936757114f32bc9d868ea5fabbc2" target="_top" xlink:title="Vector3D::equals">
<polygon fill="none" stroke="black" points="708,-252.5 708,-273.5 800,-273.5 800,-252.5 708,-252.5"/>
<text text-anchor="middle" x="754" y="-260.5" font-family="Helvetica,sans-Serif" font-size="10.00">Vector3D::equals</text>
</a>
</g>
<!-- Node15&#45;&gt;Node16 -->
<g id="edge44" class="edge"><title>Node15&#45;&gt;Node16</title>
<path fill="none" stroke="midnightblue" d="M460.896,-386.361C466.347,-383.87 471.526,-380.795 476,-377 503.588,-353.6 482.989,-325.61 512,-304 565.663,-264.026 644.548,-257.666 697.52,-258.722"/>
<polygon fill="midnightblue" stroke="midnightblue" points="697.655,-262.228 707.754,-259.025 697.862,-255.231 697.655,-262.228"/>
</g>
<!-- Node17 -->
<g id="node43" class="node"><title>Node17</title>
<a xlink:href="classTetrahedron.xhtml#a88afe41ae5991168ad51ba4dbb2e1a6b" target="_top" xlink:title="Tetrahedron::getVert">
<polygon fill="none" stroke="black" points="530,-80.5 530,-101.5 636,-101.5 636,-80.5 530,-80.5"/>
<text text-anchor="middle" x="583" y="-88.5" font-family="Helvetica,sans-Serif" font-size="10.00">Tetrahedron::getVert</text>
</a>
</g>
<!-- Node15&#45;&gt;Node17 -->
<g id="edge52" class="edge"><title>Node15&#45;&gt;Node17</title>
<path fill="none" stroke="midnightblue" d="M464.407,-386.455C468.764,-383.931 472.734,-380.824 476,-377 552.045,-287.954 437.947,-206.709 512,-116 514.914,-112.43 518.373,-109.369 522.171,-106.745"/>
<polygon fill="midnightblue" stroke="midnightblue" points="524.043,-109.706 530.948,-101.669 520.539,-103.646 524.043,-109.706"/>
</g>
<!-- Node18 -->
<g id="node45" class="node"><title>Node18</title>
<a xlink:href="classTetrahedron.xhtml#add51e42ab17afbd023d47a436ce24b0d" target="_top" xlink:title="Tetrahedron::getV1">
<polygon fill="none" stroke="black" points="533,-40.5 533,-61.5 633,-61.5 633,-40.5 533,-40.5"/>
<text text-anchor="middle" x="583" y="-48.5" font-family="Helvetica,sans-Serif" font-size="10.00">Tetrahedron::getV1</text>
</a>
</g>
<!-- Node15&#45;&gt;Node18 -->
<g id="edge54" class="edge"><title>Node15&#45;&gt;Node18</title>
<path fill="none" stroke="midnightblue" d="M464.797,-386.34C469.015,-383.836 472.85,-380.765 476,-377 563.886,-271.985 423.086,-175.146 512,-71 515.258,-67.1834 519.183,-64.0665 523.493,-61.5247"/>
<polygon fill="midnightblue" stroke="midnightblue" points="525.283,-64.5484 532.793,-57.0749 522.262,-58.234 525.283,-64.5484"/>
</g>
<!-- Node19 -->
<g id="node47" class="node"><title>Node19</title>
<a xlink:href="classTetrahedron.xhtml#aa728c967f17e2b8408009b5f2b77a17a" target="_top" xlink:title="Tetrahedron::getV2">
<polygon fill="none" stroke="black" points="533,-0.5 533,-21.5 633,-21.5 633,-0.5 533,-0.5"/>
<text text-anchor="middle" x="583" y="-8.5" font-family="Helvetica,sans-Serif" font-size="10.00">Tetrahedron::getV2</text>
</a>
</g>
<!-- Node15&#45;&gt;Node19 -->
<g id="edge56" class="edge"><title>Node15&#45;&gt;Node19</title>
<path fill="none" stroke="midnightblue" d="M464.851,-386.385C469.058,-383.872 472.875,-380.786 476,-377 574.428,-257.771 412.405,-149.256 512,-31 515.233,-27.1616 519.139,-24.0296 523.438,-21.4778"/>
<polygon fill="midnightblue" stroke="midnightblue" points="525.226,-24.5019 532.722,-17.0142 522.193,-18.1932 525.226,-24.5019"/>
</g>
<!-- Node20 -->
<g id="node49" class="node"><title>Node20</title>
<a xlink:href="classTetrahedron.xhtml#aa539a97f133ea621520121acb2ef4a7e" target="_top" xlink:title="Tetrahedron::getV3">
<polygon fill="none" stroke="black" points="533,-662.5 533,-683.5 633,-683.5 633,-662.5 533,-662.5"/>
<text text-anchor="middle" x="583" y="-670.5" font-family="Helvetica,sans-Serif" font-size="10.00">Tetrahedron::getV3</text>
</a>
</g>
<!-- Node15&#45;&gt;Node20 -->
<g id="edge58" class="edge"><title>Node15&#45;&gt;Node20</title>
<path fill="none" stroke="midnightblue" d="M414.381,-407.657C425.051,-433.646 453.183,-502.376 476,-560 492.318,-601.209 479.21,-623.179 512,-653 515.451,-656.138 519.357,-658.788 523.518,-661.026"/>
<polygon fill="midnightblue" stroke="midnightblue" points="522.407,-664.364 532.961,-665.293 525.29,-657.985 522.407,-664.364"/>
</g>
<!-- Node21 -->
<g id="node51" class="node"><title>Node21</title>
<a xlink:href="classTriangle.xhtml#a6de5f8560482f4130bdbb96b25aa1b58" target="_top" xlink:title="Triangle::getV2">
<polygon fill="none" stroke="black" points="541.5,-622.5 541.5,-643.5 624.5,-643.5 624.5,-622.5 541.5,-622.5"/>
<text text-anchor="middle" x="583" y="-630.5" font-family="Helvetica,sans-Serif" font-size="10.00">Triangle::getV2</text>
</a>
</g>
<!-- Node15&#45;&gt;Node21 -->
<g id="edge60" class="edge"><title>Node15&#45;&gt;Node21</title>
<path fill="none" stroke="midnightblue" d="M413.89,-407.613C428.219,-446.216 478.938,-578.44 512,-608 517.822,-613.206 524.796,-617.343 532.066,-620.628"/>
<polygon fill="midnightblue" stroke="midnightblue" points="530.784,-623.885 541.369,-624.348 533.383,-617.385 530.784,-623.885"/>
</g>
<!-- Node22 -->
<g id="node55" class="node"><title>Node22</title>
<a xlink:href="classTriangle.xhtml#ae054a0eae5dae026c5af69274c5f277e" target="_top" xlink:title="Triangle::getV1">
<polygon fill="none" stroke="black" points="541.5,-544.5 541.5,-565.5 624.5,-565.5 624.5,-544.5 541.5,-544.5"/>
<text text-anchor="middle" x="583" y="-552.5" font-family="Helvetica,sans-Serif" font-size="10.00">Triangle::getV1</text>
</a>
</g>
<!-- Node15&#45;&gt;Node22 -->
<g id="edge66" class="edge"><title>Node15&#45;&gt;Node22</title>
<path fill="none" stroke="midnightblue" d="M415.35,-407.65C428.42,-432.631 464.42,-495.486 512,-530 517.963,-534.326 524.744,-537.959 531.691,-540.994"/>
<polygon fill="midnightblue" stroke="midnightblue" points="530.623,-544.336 541.209,-544.772 533.206,-537.83 530.623,-544.336"/>
</g>
<!-- Node23 -->
<g id="node57" class="node"><title>Node23</title>
<a xlink:href="classTriangle.xhtml#a792a627dc42adad87c0b30e16a6b5824" target="_top" xlink:title="Triangle::getV3">
<polygon fill="none" stroke="black" points="541.5,-466.5 541.5,-487.5 624.5,-487.5 624.5,-466.5 541.5,-466.5"/>
<text text-anchor="middle" x="583" y="-474.5" font-family="Helvetica,sans-Serif" font-size="10.00">Triangle::getV3</text>
</a>
</g>
<!-- Node15&#45;&gt;Node23 -->
<g id="edge68" class="edge"><title>Node15&#45;&gt;Node23</title>
<path fill="none" stroke="midnightblue" d="M425.24,-407.663C444.625,-420.817 479.496,-443.137 512,-457 518.252,-459.667 524.964,-462.087 531.676,-464.249"/>
<polygon fill="midnightblue" stroke="midnightblue" points="530.871,-467.663 541.457,-467.23 532.912,-460.967 530.871,-467.663"/>
</g>
<!-- Node24 -->
<g id="node59" class="node"><title>Node24</title>
<a xlink:href="classTetrahedron.xhtml#a7308b7b73edeba7782dff551a03095bf" target="_top" xlink:title="Tetrahedron::getV4">
<polygon fill="none" stroke="black" points="533,-426.5 533,-447.5 633,-447.5 633,-426.5 533,-426.5"/>
<text text-anchor="middle" x="583" y="-434.5" font-family="Helvetica,sans-Serif" font-size="10.00">Tetrahedron::getV4</text>
</a>
</g>
<!-- Node15&#45;&gt;Node24 -->
<g id="edge70" class="edge"><title>Node15&#45;&gt;Node24</title>
<path fill="none" stroke="midnightblue" d="M455.454,-407.51C477.616,-412.634 504.458,-418.84 527.789,-424.235"/>
<polygon fill="midnightblue" stroke="midnightblue" points="527.018,-427.649 537.55,-426.491 528.595,-420.828 527.018,-427.649"/>
</g>
<!-- Node25 -->
<g id="node61" class="node"><title>Node25</title>
<a xlink:href="classTriangle.xhtml#a3c72b19f316fa9ffb0a2f206e3558790" target="_top" xlink:title="Triangle::getNormal">
<polygon fill="none" stroke="black" points="532,-386.5 532,-407.5 634,-407.5 634,-386.5 532,-386.5"/>
<text text-anchor="middle" x="583" y="-394.5" font-family="Helvetica,sans-Serif" font-size="10.00">Triangle::getNormal</text>
</a>
</g>
<!-- Node15&#45;&gt;Node25 -->
<g id="edge72" class="edge"><title>Node15&#45;&gt;Node25</title>
<path fill="none" stroke="midnightblue" d="M475.897,-397C490.949,-397 506.884,-397 521.731,-397"/>
<polygon fill="midnightblue" stroke="midnightblue" points="521.813,-400.5 531.813,-397 521.813,-393.5 521.813,-400.5"/>
</g>
<!-- Node26 -->
<g id="node66" class="node"><title>Node26</title>
<a xlink:href="classVector3D.xhtml#abfb12ecb9c9beb88e095cc4a1a512d3c" target="_top" xlink:title="Vector3D::normalize">
<polygon fill="none" stroke="black" points="701,-332.5 701,-353.5 807,-353.5 807,-332.5 701,-332.5"/>
<text text-anchor="middle" x="754" y="-340.5" font-family="Helvetica,sans-Serif" font-size="10.00">Vector3D::normalize</text>
</a>
</g>
<!-- Node15&#45;&gt;Node26 -->
<g id="edge108" class="edge"><title>Node15&#45;&gt;Node26</title>
<path fill="none" stroke="midnightblue" d="M443.219,-386.424C463.008,-380.49 488.726,-373.415 512,-369 572.076,-357.604 641.558,-350.784 690.618,-347.008"/>
<polygon fill="midnightblue" stroke="midnightblue" points="691.055,-350.485 700.766,-346.248 690.532,-343.504 691.055,-350.485"/>
</g>
<!-- Node27 -->
<g id="node70" class="node"><title>Node27</title>
<a xlink:href="classVector3D.xhtml#a4bf1dcea68296f2f38f3574242933153" target="_top" xlink:title="Vector3D::getAngleTo">
<polygon fill="none" stroke="black" points="697.5,-172.5 697.5,-193.5 810.5,-193.5 810.5,-172.5 697.5,-172.5"/>
<text text-anchor="middle" x="754" y="-180.5" font-family="Helvetica,sans-Serif" font-size="10.00">Vector3D::getAngleTo</text>
</a>
</g>
<!-- Node15&#45;&gt;Node27 -->
<g id="edge86" class="edge"><title>Node15&#45;&gt;Node27</title>
<path fill="none" stroke="midnightblue" d="M463.804,-386.376C468.341,-383.872 472.516,-380.791 476,-377 527.965,-320.455 454.872,-259.323 512,-208 560.409,-164.51 638.203,-164.312 692.479,-171.05"/>
<polygon fill="midnightblue" stroke="midnightblue" points="692.287,-174.556 702.666,-172.429 693.226,-167.619 692.287,-174.556"/>
</g>
<!-- Node28 -->
<g id="node75" class="node"><title>Node28</title>
<a xlink:href="classVector3D.xhtml#a2e3aa1d244483abcb1a8e48e47e79512" target="_top" xlink:title="Vector3D::getLength">
<polygon fill="none" stroke="black" points="854.5,-152.5 854.5,-173.5 961.5,-173.5 961.5,-152.5 854.5,-152.5"/>
<text text-anchor="middle" x="908" y="-160.5" font-family="Helvetica,sans-Serif" font-size="10.00">Vector3D::getLength</text>
</a>
</g>
<!-- Node15&#45;&gt;Node28 -->
<g id="edge96" class="edge"><title>Node15&#45;&gt;Node28</title>
<path fill="none" stroke="midnightblue" d="M464.29,-386.353C468.67,-383.85 472.678,-380.775 476,-377 539.713,-304.593 438.361,-225.285 512,-163 615.36,-75.5752 794.002,-122.641 870.965,-149.026"/>
<polygon fill="midnightblue" stroke="midnightblue" points="870.106,-152.434 880.701,-152.441 872.423,-145.828 870.106,-152.434"/>
</g>
<!-- Node29 -->
<g id="node79" class="node"><title>Node29</title>
<a xlink:href="classVector3D.xhtml#a42deb992ec2f44abfb5824ea4917135c" target="_top" xlink:title="Vector3D::getDistanceTo">
<polygon fill="none" stroke="black" points="690,-212.5 690,-233.5 818,-233.5 818,-212.5 690,-212.5"/>
<text text-anchor="middle" x="754" y="-220.5" font-family="Helvetica,sans-Serif" font-size="10.00">Vector3D::getDistanceTo</text>
</a>
</g>
<!-- Node15&#45;&gt;Node29 -->
<g id="edge100" class="edge"><title>Node15&#45;&gt;Node29</title>
<path fill="none" stroke="midnightblue" d="M462.863,-386.429C467.703,-383.921 472.204,-380.824 476,-377 515.829,-336.879 469.041,-291.75 512,-255 557.683,-215.919 627.046,-210.324 679.818,-213.104"/>
<polygon fill="midnightblue" stroke="midnightblue" points="679.602,-216.597 689.804,-213.739 680.046,-209.612 679.602,-216.597"/>
</g>
<!-- Node30 -->
<g id="node85" class="node"><title>Node30</title>
<a xlink:href="classVector3D.xhtml#a0d14ff1f789254ff90adc22628eb8347" target="_top" xlink:title="Vector3D::add">
<polygon fill="none" stroke="black" points="714,-292.5 714,-313.5 794,-313.5 794,-292.5 714,-292.5"/>
<text text-anchor="middle" x="754" y="-300.5" font-family="Helvetica,sans-Serif" font-size="10.00">Vector3D::add</text>
</a>
</g>
<!-- Node15&#45;&gt;Node30 -->
<g id="edge110" class="edge"><title>Node15&#45;&gt;Node30</title>
<path fill="none" stroke="midnightblue" d="M454.007,-386.473C461.568,-383.883 469.18,-380.749 476,-377 494.504,-366.829 492.927,-355.058 512,-346 573.845,-316.629 653.228,-307.183 703.871,-304.224"/>
<polygon fill="midnightblue" stroke="midnightblue" points="704.11,-307.716 713.914,-303.7 703.745,-300.726 704.11,-307.716"/>
</g>
<!-- Node16&#45;&gt;Node7 -->
<g id="edge46" class="edge"><title>Node16&#45;&gt;Node7</title>
<path fill="none" stroke="midnightblue" d="M800.205,-263C817.691,-263 837.713,-263 855.719,-263"/>
<polygon fill="midnightblue" stroke="midnightblue" points="855.768,-266.5 865.768,-263 855.768,-259.5 855.768,-266.5"/>
</g>
<!-- Node16&#45;&gt;Node8 -->
<g id="edge48" class="edge"><title>Node16&#45;&gt;Node8</title>
<path fill="none" stroke="midnightblue" d="M798.763,-273.586C805.483,-276.126 812.121,-279.228 818,-283 838.131,-295.915 834.211,-309.567 854,-323 856.73,-324.853 859.653,-326.56 862.674,-328.129"/>
<polygon fill="midnightblue" stroke="midnightblue" points="861.394,-331.394 871.939,-332.426 864.34,-325.043 861.394,-331.394"/>
</g>
<!-- Node16&#45;&gt;Node9 -->
<g id="edge50" class="edge"><title>Node16&#45;&gt;Node9</title>
<path fill="none" stroke="midnightblue" d="M794.462,-273.51C813.838,-278.542 837.232,-284.619 857.737,-289.945"/>
<polygon fill="midnightblue" stroke="midnightblue" points="856.983,-293.365 867.541,-292.491 858.743,-286.59 856.983,-293.365"/>
</g>
<!-- Node25&#45;&gt;Node6 -->
<g id="edge76" class="edge"><title>Node25&#45;&gt;Node6</title>
<path fill="none" stroke="midnightblue" d="M634.306,-404.801C656.302,-408.145 681.913,-412.039 703.787,-415.365"/>
<polygon fill="midnightblue" stroke="midnightblue" points="703.457,-418.855 713.869,-416.898 704.509,-411.935 703.457,-418.855"/>
</g>
<!-- Node25&#45;&gt;Node10 -->
<g id="edge78" class="edge"><title>Node25&#45;&gt;Node10</title>
<path fill="none" stroke="midnightblue" d="M629.323,-407.504C637.729,-410.119 646.274,-413.268 654,-417 671.771,-425.585 672.352,-434.164 690,-443 694.326,-445.166 698.935,-447.156 703.62,-448.97"/>
<polygon fill="midnightblue" stroke="midnightblue" points="702.684,-452.353 713.278,-452.446 705.054,-445.766 702.684,-452.353"/>
</g>
<!-- Node25&#45;&gt;Node13 -->
<g id="edge74" class="edge"><title>Node25&#45;&gt;Node13</title>
<path fill="none" stroke="midnightblue" d="M634.306,-392.8C655.441,-391.069 679.915,-389.065 701.203,-387.323"/>
<polygon fill="midnightblue" stroke="midnightblue" points="701.689,-390.795 711.37,-386.49 701.117,-383.818 701.689,-390.795"/>
</g>
<!-- Node25&#45;&gt;Node26 -->
<g id="edge80" class="edge"><title>Node25&#45;&gt;Node26</title>
<path fill="none" stroke="midnightblue" d="M616.243,-386.392C637.36,-379.664 665.275,-370.792 690,-363 696.565,-360.931 703.511,-358.751 710.312,-356.622"/>
<polygon fill="midnightblue" stroke="midnightblue" points="711.612,-359.882 720.112,-353.557 709.523,-353.202 711.612,-359.882"/>
</g>
<!-- Node27&#45;&gt;Node7 -->
<g id="edge88" class="edge"><title>Node27&#45;&gt;Node7</title>
<path fill="none" stroke="midnightblue" d="M793.938,-193.547C802.065,-196.227 810.436,-199.389 818,-203 842.821,-214.851 868.701,-232.782 886.303,-245.956"/>
<polygon fill="midnightblue" stroke="midnightblue" points="884.628,-249.08 894.704,-252.355 888.869,-243.511 884.628,-249.08"/>
</g>
<!-- Node27&#45;&gt;Node8 -->
<g id="edge90" class="edge"><title>Node27&#45;&gt;Node8</title>
<path fill="none" stroke="midnightblue" d="M804.943,-193.607C809.757,-196.107 814.235,-199.192 818,-203 857.147,-242.597 815.892,-282.402 854,-323 855.223,-324.303 856.539,-325.521 857.928,-326.661"/>
<polygon fill="midnightblue" stroke="midnightblue" points="856.284,-329.77 866.557,-332.361 860.142,-323.929 856.284,-329.77"/>
</g>
<!-- Node27&#45;&gt;Node9 -->
<g id="edge92" class="edge"><title>Node27&#45;&gt;Node9</title>
<path fill="none" stroke="midnightblue" d="M803.169,-193.508C808.55,-196.022 813.645,-199.138 818,-203 847.173,-228.868 825.507,-256.385 854,-283 855.662,-284.553 857.455,-285.987 859.343,-287.312"/>
<polygon fill="midnightblue" stroke="midnightblue" points="857.715,-290.415 868.113,-292.45 861.254,-284.375 857.715,-290.415"/>
</g>
<!-- Node27&#45;&gt;Node28 -->
<g id="edge94" class="edge"><title>Node27&#45;&gt;Node28</title>
<path fill="none" stroke="midnightblue" d="M810.906,-175.61C821.796,-174.195 833.262,-172.706 844.347,-171.267"/>
<polygon fill="midnightblue" stroke="midnightblue" points="844.927,-174.721 854.393,-169.962 844.026,-167.779 844.927,-174.721"/>
</g>
<!-- Node29&#45;&gt;Node7 -->
<g id="edge102" class="edge"><title>Node29&#45;&gt;Node7</title>
<path fill="none" stroke="midnightblue" d="M794.462,-233.51C813.838,-238.542 837.232,-244.619 857.737,-249.945"/>
<polygon fill="midnightblue" stroke="midnightblue" points="856.983,-253.365 867.541,-252.491 858.743,-246.59 856.983,-253.365"/>
</g>
<!-- Node29&#45;&gt;Node8 -->
<g id="edge104" class="edge"><title>Node29&#45;&gt;Node8</title>
<path fill="none" stroke="midnightblue" d="M803.169,-233.508C808.55,-236.022 813.645,-239.138 818,-243 847.173,-268.868 825.507,-296.385 854,-323 855.662,-324.553 857.455,-325.987 859.343,-327.312"/>
<polygon fill="midnightblue" stroke="midnightblue" points="857.715,-330.415 868.113,-332.45 861.254,-324.375 857.715,-330.415"/>
</g>
<!-- Node29&#45;&gt;Node9 -->
<g id="edge106" class="edge"><title>Node29&#45;&gt;Node9</title>
<path fill="none" stroke="midnightblue" d="M798.763,-233.586C805.483,-236.126 812.121,-239.228 818,-243 838.131,-255.915 834.211,-269.567 854,-283 856.73,-284.853 859.653,-286.56 862.674,-288.129"/>
<polygon fill="midnightblue" stroke="midnightblue" points="861.394,-291.394 871.939,-292.426 864.34,-285.043 861.394,-291.394"/>
</g>
<!-- Node30&#45;&gt;Node7 -->
<g id="edge112" class="edge"><title>Node30&#45;&gt;Node7</title>
<path fill="none" stroke="midnightblue" d="M794.06,-292.595C813.436,-287.562 836.903,-281.467 857.492,-276.119"/>
<polygon fill="midnightblue" stroke="midnightblue" points="858.539,-279.463 867.338,-273.562 856.779,-272.688 858.539,-279.463"/>
</g>
<!-- Node30&#45;&gt;Node8 -->
<g id="edge114" class="edge"><title>Node30&#45;&gt;Node8</title>
<path fill="none" stroke="midnightblue" d="M794.06,-313.405C813.436,-318.438 836.903,-324.533 857.492,-329.881"/>
<polygon fill="midnightblue" stroke="midnightblue" points="856.779,-333.312 867.338,-332.438 858.539,-326.537 856.779,-333.312"/>
</g>
<!-- Node30&#45;&gt;Node9 -->
<g id="edge116" class="edge"><title>Node30&#45;&gt;Node9</title>
<path fill="none" stroke="midnightblue" d="M794.06,-303C813.043,-303 835.953,-303 856.236,-303"/>
<polygon fill="midnightblue" stroke="midnightblue" points="856.26,-306.5 866.26,-303 856.26,-299.5 856.26,-306.5"/>
</g>
</g>
</svg>
