<?xml version="1.0" encoding="UTF-8" standalone="no"?>
<!DOCTYPE svg PUBLIC "-//W3C//DTD SVG 1.1//EN"
 "http://www.w3.org/Graphics/SVG/1.1/DTD/svg11.dtd">
<!-- Generated by graphviz version 2.26.3 (20100126.1600)
 -->
<!-- Title: GUICutRenderWindow::OnColorScaleChanged Pages: 1 -->
<svg width="412pt" height="264pt"
 viewBox="0.00 0.00 412.00 264.00" xmlns="http://www.w3.org/2000/svg" xmlns:xlink="http://www.w3.org/1999/xlink">
<g id="graph1" class="graph" transform="scale(1 1) rotate(0) translate(4 260)">
<title>GUICutRenderWindow::OnColorScaleChanged</title>
<!-- Node1 -->
<g id="node1" class="node"><title>Node1</title>
<polygon fill="#bfbfbf" stroke="black" points="0,-118 0,-152 122,-152 122,-118 0,-118"/>
<text text-anchor="start" x="8" y="-139" font-family="Helvetica,sans-Serif" font-size="10.00">GUICutRenderWindow</text>
<text text-anchor="middle" x="61" y="-126" font-family="Helvetica,sans-Serif" font-size="10.00">::OnColorScaleChanged</text>
</g>
<!-- Node2 -->
<g id="node3" class="node"><title>Node2</title>
<a xlink:href="classGUIRenderCutCanvas.xhtml#a3f1bece4366e82377ec3754921351929" target="_top" xlink:title="Gibt das Temperaturskala&#45;Objekt zurück. ">
<polygon fill="none" stroke="black" points="158,-222 158,-256 274,-256 274,-222 158,-222"/>
<text text-anchor="start" x="166" y="-243" font-family="Helvetica,sans-Serif" font-size="10.00">GUIRenderCutCanvas</text>
<text text-anchor="middle" x="216" y="-230" font-family="Helvetica,sans-Serif" font-size="10.00">::getScalePanel</text>
</a>
</g>
<!-- Node1&#45;&gt;Node2 -->
<g id="edge2" class="edge"><title>Node1&#45;&gt;Node2</title>
<path fill="none" stroke="midnightblue" d="M79.251,-152.064C97.9932,-168.992 128.512,-194.948 158,-213 160.426,-214.485 162.952,-215.935 165.533,-217.342"/>
<polygon fill="midnightblue" stroke="midnightblue" points="163.962,-220.47 174.454,-221.945 167.172,-214.249 163.962,-220.47"/>
</g>
<!-- Node3 -->
<g id="node5" class="node"><title>Node3</title>
<a xlink:href="classGUIColorScalePanel.xhtml#aba2363ced766a14d72ad5448502f62a4" target="_top" xlink:title="Setzt den Modus der Skala. ">
<polygon fill="none" stroke="black" points="162.5,-170 162.5,-204 269.5,-204 269.5,-170 162.5,-170"/>
<text text-anchor="start" x="170.5" y="-191" font-family="Helvetica,sans-Serif" font-size="10.00">GUIColorScalePanel</text>
<text text-anchor="middle" x="216" y="-178" font-family="Helvetica,sans-Serif" font-size="10.00">::setMode</text>
</a>
</g>
<!-- Node1&#45;&gt;Node3 -->
<g id="edge4" class="edge"><title>Node1&#45;&gt;Node3</title>
<path fill="none" stroke="midnightblue" d="M111.753,-152.027C125.67,-156.696 140.898,-161.804 155.311,-166.64"/>
<polygon fill="midnightblue" stroke="midnightblue" points="154.539,-170.073 165.133,-169.935 156.766,-163.436 154.539,-170.073"/>
</g>
<!-- Node4 -->
<g id="node7" class="node"><title>Node4</title>
<a xlink:href="classGUIColorScalePanel.xhtml#ae26f3f500092717aa7e9a85126b38461" target="_top" xlink:title="Setzt die Schriftgröße der Skala. ">
<polygon fill="none" stroke="black" points="162.5,-118 162.5,-152 269.5,-152 269.5,-118 162.5,-118"/>
<text text-anchor="start" x="170.5" y="-139" font-family="Helvetica,sans-Serif" font-size="10.00">GUIColorScalePanel</text>
<text text-anchor="middle" x="216" y="-126" font-family="Helvetica,sans-Serif" font-size="10.00">::setFontSize</text>
</a>
</g>
<!-- Node1&#45;&gt;Node4 -->
<g id="edge6" class="edge"><title>Node1&#45;&gt;Node4</title>
<path fill="none" stroke="midnightblue" d="M122.26,-135C132.057,-135 142.217,-135 152.075,-135"/>
<polygon fill="midnightblue" stroke="midnightblue" points="152.21,-138.5 162.21,-135 152.21,-131.5 152.21,-138.5"/>
</g>
<!-- Node5 -->
<g id="node9" class="node"><title>Node5</title>
<a xlink:href="classGUIColorScalePanel.xhtml#aba534a319236878bc3504050d8227fe4" target="_top" xlink:title="Setzt die Schrittweite der Skalenbeschriftung. ">
<polygon fill="none" stroke="black" points="162.5,-66 162.5,-100 269.5,-100 269.5,-66 162.5,-66"/>
<text text-anchor="start" x="170.5" y="-87" font-family="Helvetica,sans-Serif" font-size="10.00">GUIColorScalePanel</text>
<text text-anchor="middle" x="216" y="-74" font-family="Helvetica,sans-Serif" font-size="10.00">::setStepWidth</text>
</a>
</g>
<!-- Node1&#45;&gt;Node5 -->
<g id="edge8" class="edge"><title>Node1&#45;&gt;Node5</title>
<path fill="none" stroke="midnightblue" d="M111.753,-117.973C125.67,-113.304 140.898,-108.196 155.311,-103.36"/>
<polygon fill="midnightblue" stroke="midnightblue" points="156.766,-106.564 165.133,-100.065 154.539,-99.9274 156.766,-106.564"/>
</g>
<!-- Node6 -->
<g id="node11" class="node"><title>Node6</title>
<a xlink:href="classGUIColorScalePanel.xhtml#a73f647d4f5eeb6b653777bb4c55696fa" target="_top" xlink:title="Zeichnet die Temperaturskala neu. ">
<polygon fill="none" stroke="black" points="162.5,-14 162.5,-48 269.5,-48 269.5,-14 162.5,-14"/>
<text text-anchor="start" x="170.5" y="-35" font-family="Helvetica,sans-Serif" font-size="10.00">GUIColorScalePanel</text>
<text text-anchor="middle" x="216" y="-22" font-family="Helvetica,sans-Serif" font-size="10.00">::refresh</text>
</a>
</g>
<!-- Node1&#45;&gt;Node6 -->
<g id="edge10" class="edge"><title>Node1&#45;&gt;Node6</title>
<path fill="none" stroke="midnightblue" d="M79.251,-117.936C97.9932,-101.008 128.512,-75.0524 158,-57 160.426,-55.5146 162.952,-54.0647 165.533,-52.6582"/>
<polygon fill="midnightblue" stroke="midnightblue" points="167.172,-55.7508 174.454,-48.0549 163.962,-49.5301 167.172,-55.7508"/>
</g>
<!-- Node7 -->
<g id="node13" class="node"><title>Node7</title>
<a xlink:href="namespaceUtils.xhtml#a5d6523eb946892eee52c9c74efd016de" target="_top" xlink:title="Wandelt eine Farbe im HSV&#45;Format ins RGB&#45;Format um. ">
<polygon fill="none" stroke="black" points="313,-40.5 313,-61.5 401,-61.5 401,-40.5 313,-40.5"/>
<text text-anchor="middle" x="357" y="-48.5" font-family="Helvetica,sans-Serif" font-size="10.00">Utils::hsvToRgb</text>
</a>
</g>
<!-- Node6&#45;&gt;Node7 -->
<g id="edge12" class="edge"><title>Node6&#45;&gt;Node7</title>
<path fill="none" stroke="midnightblue" d="M269.708,-38.6182C280.442,-40.1407 291.727,-41.7415 302.488,-43.2678"/>
<polygon fill="midnightblue" stroke="midnightblue" points="302.217,-46.7642 312.609,-44.7034 303.2,-39.8336 302.217,-46.7642"/>
</g>
<!-- Node8 -->
<g id="node15" class="node"><title>Node8</title>
<a xlink:href="namespaceUtils.xhtml#a233ff9a0b34b10195a434f1ff66323b8" target="_top" xlink:title="Wandelt eine Fließkommazahl in einen wxWidgets&#45;String um. ">
<polygon fill="none" stroke="black" points="310,-0.5 310,-21.5 404,-21.5 404,-0.5 310,-0.5"/>
<text text-anchor="middle" x="357" y="-8.5" font-family="Helvetica,sans-Serif" font-size="10.00">Utils::floattowxstr</text>
</a>
</g>
<!-- Node6&#45;&gt;Node8 -->
<g id="edge14" class="edge"><title>Node6&#45;&gt;Node8</title>
<path fill="none" stroke="midnightblue" d="M269.708,-23.3818C279.528,-21.989 289.808,-20.5307 299.727,-19.1238"/>
<polygon fill="midnightblue" stroke="midnightblue" points="300.488,-22.551 309.897,-17.6812 299.505,-15.6204 300.488,-22.551"/>
</g>
</g>
</svg>
