<?xml version="1.0" encoding="UTF-8" standalone="no"?>
<!DOCTYPE svg PUBLIC "-//W3C//DTD SVG 1.1//EN"
 "http://www.w3.org/Graphics/SVG/1.1/DTD/svg11.dtd">
<!-- Generated by graphviz version 2.26.3 (20100126.1600)
 -->
<!-- Title: GUIMainWindow::OnMenuImportObj Pages: 1 -->
<svg width="706pt" height="174pt"
 viewBox="0.00 0.00 706.00 174.00" xmlns="http://www.w3.org/2000/svg" xmlns:xlink="http://www.w3.org/1999/xlink">
<g id="graph1" class="graph" transform="scale(1 1) rotate(0) translate(4 170)">
<title>GUIMainWindow::OnMenuImportObj</title>
<!-- Node1 -->
<g id="node1" class="node"><title>Node1</title>
<polygon fill="#bfbfbf" stroke="black" points="0,-98.5 0,-119.5 176,-119.5 176,-98.5 0,-98.5"/>
<text text-anchor="middle" x="88" y="-106.5" font-family="Helvetica,sans-Serif" font-size="10.00">GUIMainWindow::OnMenuImportObj</text>
</g>
<!-- Node2 -->
<g id="node3" class="node"><title>Node2</title>
<a xlink:href="classObjectData.xhtml#ab2fabb02de2ac4b5ff09b73beb15223d" target="_top" xlink:title="ObjectData::loadFromFile">
<polygon fill="none" stroke="black" points="212,-98.5 212,-119.5 340,-119.5 340,-98.5 212,-98.5"/>
<text text-anchor="middle" x="276" y="-106.5" font-family="Helvetica,sans-Serif" font-size="10.00">ObjectData::loadFromFile</text>
</a>
</g>
<!-- Node1&#45;&gt;Node2 -->
<g id="edge2" class="edge"><title>Node1&#45;&gt;Node2</title>
<path fill="none" stroke="midnightblue" d="M176.22,-109C184.766,-109 193.376,-109 201.766,-109"/>
<polygon fill="midnightblue" stroke="midnightblue" points="201.871,-112.5 211.871,-109 201.871,-105.5 201.871,-112.5"/>
</g>
<!-- Node3 -->
<g id="node5" class="node"><title>Node3</title>
<a xlink:href="classImporter.xhtml#a5013417fb7556dce65dba1ed3aec4e50" target="_top" xlink:title="Importer::ImportObj">
<polygon fill="none" stroke="black" points="391.5,-141.5 391.5,-162.5 492.5,-162.5 492.5,-141.5 391.5,-141.5"/>
<text text-anchor="middle" x="442" y="-149.5" font-family="Helvetica,sans-Serif" font-size="10.00">Importer::ImportObj</text>
</a>
</g>
<!-- Node2&#45;&gt;Node3 -->
<g id="edge4" class="edge"><title>Node2&#45;&gt;Node3</title>
<path fill="none" stroke="midnightblue" d="M316.608,-119.519C339.117,-125.349 367.31,-132.653 391.26,-138.857"/>
<polygon fill="midnightblue" stroke="midnightblue" points="390.678,-142.321 401.236,-141.441 392.433,-135.545 390.678,-142.321"/>
</g>
<!-- Node5 -->
<g id="node9" class="node"><title>Node5</title>
<a xlink:href="classImporter.xhtml#a001bd26372d94f96de66f7bcb90cc790" target="_top" xlink:title="Importer::LoadSensorData">
<polygon fill="none" stroke="black" points="376.5,-58.5 376.5,-79.5 507.5,-79.5 507.5,-58.5 376.5,-58.5"/>
<text text-anchor="middle" x="442" y="-66.5" font-family="Helvetica,sans-Serif" font-size="10.00">Importer::LoadSensorData</text>
</a>
</g>
<!-- Node2&#45;&gt;Node5 -->
<g id="edge8" class="edge"><title>Node2&#45;&gt;Node5</title>
<path fill="none" stroke="midnightblue" d="M319.615,-98.4905C340.69,-93.412 366.176,-87.2708 388.423,-81.9102"/>
<polygon fill="midnightblue" stroke="midnightblue" points="389.487,-85.254 398.389,-79.5087 387.847,-78.4488 389.487,-85.254"/>
</g>
<!-- Node9 -->
<g id="node17" class="node"><title>Node9</title>
<a xlink:href="classImporter.xhtml#a196e66a161a0102194580ec4b10895e5" target="_top" xlink:title="Importer::LoadTimedData">
<polygon fill="none" stroke="black" points="378,-98.5 378,-119.5 506,-119.5 506,-98.5 378,-98.5"/>
<text text-anchor="middle" x="442" y="-106.5" font-family="Helvetica,sans-Serif" font-size="10.00">Importer::LoadTimedData</text>
</a>
</g>
<!-- Node2&#45;&gt;Node9 -->
<g id="edge16" class="edge"><title>Node2&#45;&gt;Node9</title>
<path fill="none" stroke="midnightblue" d="M340.18,-109C349.195,-109 358.523,-109 367.707,-109"/>
<polygon fill="midnightblue" stroke="midnightblue" points="367.991,-112.5 377.991,-109 367.991,-105.5 367.991,-112.5"/>
</g>
<!-- Node4 -->
<g id="node7" class="node"><title>Node4</title>
<a xlink:href="classObjectData.xhtml#afda67d7524b83780e431dd3a9c5ac23a" target="_top" xlink:title="ObjectData::getMaterials">
<polygon fill="none" stroke="black" points="558.5,-144.5 558.5,-165.5 683.5,-165.5 683.5,-144.5 558.5,-144.5"/>
<text text-anchor="middle" x="621" y="-152.5" font-family="Helvetica,sans-Serif" font-size="10.00">ObjectData::getMaterials</text>
</a>
</g>
<!-- Node3&#45;&gt;Node4 -->
<g id="edge6" class="edge"><title>Node3&#45;&gt;Node4</title>
<path fill="none" stroke="midnightblue" d="M492.815,-152.852C509.996,-153.14 529.531,-153.467 548.082,-153.778"/>
<polygon fill="midnightblue" stroke="midnightblue" points="548.208,-157.28 558.265,-153.949 548.325,-150.281 548.208,-157.28"/>
</g>
<!-- Node6 -->
<g id="node11" class="node"><title>Node6</title>
<a xlink:href="classObjectData.xhtml#a72ac93213382f67b4d5b40c011eb1656" target="_top" xlink:title="ObjectData::getSensorDataList">
<polygon fill="none" stroke="black" points="544.5,-104.5 544.5,-125.5 697.5,-125.5 697.5,-104.5 544.5,-104.5"/>
<text text-anchor="middle" x="621" y="-112.5" font-family="Helvetica,sans-Serif" font-size="10.00">ObjectData::getSensorDataList</text>
</a>
</g>
<!-- Node5&#45;&gt;Node6 -->
<g id="edge10" class="edge"><title>Node5&#45;&gt;Node6</title>
<path fill="none" stroke="midnightblue" d="M483.066,-79.5533C508.99,-86.2152 542.671,-94.8708 570.261,-101.961"/>
<polygon fill="midnightblue" stroke="midnightblue" points="569.568,-105.397 580.125,-104.496 571.311,-98.6169 569.568,-105.397"/>
</g>
<!-- Node7 -->
<g id="node13" class="node"><title>Node7</title>
<a xlink:href="classObjectData.xhtml#a503d63160a3afe2ea517449f78f8ac42" target="_top" xlink:title="ObjectData::getCurrentSensor\lIndex">
<polygon fill="none" stroke="black" points="546.5,-52 546.5,-86 695.5,-86 695.5,-52 546.5,-52"/>
<text text-anchor="start" x="554.5" y="-73" font-family="Helvetica,sans-Serif" font-size="10.00">ObjectData::getCurrentSensor</text>
<text text-anchor="middle" x="621" y="-60" font-family="Helvetica,sans-Serif" font-size="10.00">Index</text>
</a>
</g>
<!-- Node5&#45;&gt;Node7 -->
<g id="edge12" class="edge"><title>Node5&#45;&gt;Node7</title>
<path fill="none" stroke="midnightblue" d="M507.637,-69C516.869,-69 526.467,-69 535.997,-69"/>
<polygon fill="midnightblue" stroke="midnightblue" points="536.291,-72.5001 546.291,-69 536.291,-65.5001 536.291,-72.5001"/>
</g>
<!-- Node8 -->
<g id="node15" class="node"><title>Node8</title>
<a xlink:href="classObjectData.xhtml#a65bc706c460a62f98e6c24959df04c76" target="_top" xlink:title="ObjectData::setCurrentSensor\lIndex">
<polygon fill="none" stroke="black" points="546.5,-0 546.5,-34 695.5,-34 695.5,-0 546.5,-0"/>
<text text-anchor="start" x="554.5" y="-21" font-family="Helvetica,sans-Serif" font-size="10.00">ObjectData::setCurrentSensor</text>
<text text-anchor="middle" x="621" y="-8" font-family="Helvetica,sans-Serif" font-size="10.00">Index</text>
</a>
</g>
<!-- Node5&#45;&gt;Node8 -->
<g id="edge14" class="edge"><title>Node5&#45;&gt;Node8</title>
<path fill="none" stroke="midnightblue" d="M478.223,-58.477C499.507,-52.294 527.111,-44.2751 552.367,-36.9381"/>
<polygon fill="midnightblue" stroke="midnightblue" points="553.654,-40.2091 562.28,-34.0582 551.701,-33.487 553.654,-40.2091"/>
</g>
<!-- Node9&#45;&gt;Node6 -->
<g id="edge18" class="edge"><title>Node9&#45;&gt;Node6</title>
<path fill="none" stroke="midnightblue" d="M506.118,-111.149C515.253,-111.455 524.772,-111.774 534.251,-112.092"/>
<polygon fill="midnightblue" stroke="midnightblue" points="534.388,-115.599 544.5,-112.436 534.623,-108.603 534.388,-115.599"/>
</g>
<!-- Node9&#45;&gt;Node7 -->
<g id="edge20" class="edge"><title>Node9&#45;&gt;Node7</title>
<path fill="none" stroke="midnightblue" d="M489.03,-98.4905C503.527,-95.251 519.959,-91.579 536.185,-87.953"/>
<polygon fill="midnightblue" stroke="midnightblue" points="537.246,-91.3023 546.242,-85.7056 535.72,-84.4708 537.246,-91.3023"/>
</g>
<!-- Node9&#45;&gt;Node8 -->
<g id="edge22" class="edge"><title>Node9&#45;&gt;Node8</title>
<path fill="none" stroke="midnightblue" d="M489.778,-98.3894C496.198,-95.8766 502.468,-92.7885 508,-89 529.419,-74.3307 522.814,-58.0038 544,-43 546.065,-41.5373 548.219,-40.1519 550.44,-38.8402"/>
<polygon fill="midnightblue" stroke="midnightblue" points="552.096,-41.9236 559.282,-34.1384 548.81,-35.743 552.096,-41.9236"/>
</g>
</g>
</svg>
