<?xml version="1.0" encoding="UTF-8" standalone="no"?>
<!DOCTYPE svg PUBLIC "-//W3C//DTD SVG 1.1//EN"
 "http://www.w3.org/Graphics/SVG/1.1/DTD/svg11.dtd">
<!-- Generated by graphviz version 2.26.3 (20100126.1600)
 -->
<!-- Title: tetgenmesh::outhullfaces Pages: 1 -->
<svg width="502pt" height="202pt"
 viewBox="0.00 0.00 502.00 202.00" xmlns="http://www.w3.org/2000/svg" xmlns:xlink="http://www.w3.org/1999/xlink">
<g id="graph1" class="graph" transform="scale(1 1) rotate(0) translate(4 198)">
<title>tetgenmesh::outhullfaces</title>
<!-- Node1 -->
<g id="node1" class="node"><title>Node1</title>
<polygon fill="#bfbfbf" stroke="black" points="0,-80.5 0,-101.5 126,-101.5 126,-80.5 0,-80.5"/>
<text text-anchor="middle" x="63" y="-88.5" font-family="Helvetica,sans-Serif" font-size="10.00">tetgenmesh::outhullfaces</text>
</g>
<!-- Node2 -->
<g id="node3" class="node"><title>Node2</title>
<a xlink:href="tetgen_8h.xhtml#a4012bf160c63ec4ff007f6645b993ca5" target="_top" xlink:title="terminatetetgen">
<polygon fill="none" stroke="black" points="204,-172.5 204,-193.5 288,-193.5 288,-172.5 204,-172.5"/>
<text text-anchor="middle" x="246" y="-180.5" font-family="Helvetica,sans-Serif" font-size="10.00">terminatetetgen</text>
</a>
</g>
<!-- Node1&#45;&gt;Node2 -->
<g id="edge2" class="edge"><title>Node1&#45;&gt;Node2</title>
<path fill="none" stroke="midnightblue" d="M74.2261,-101.517C91.6483,-117.261 126.862,-146.831 162,-163 172.009,-167.606 183.196,-171.216 194.058,-174.022"/>
<polygon fill="midnightblue" stroke="midnightblue" points="193.359,-177.453 203.899,-176.378 194.989,-170.646 193.359,-177.453"/>
</g>
<!-- Node4 -->
<g id="node7" class="node"><title>Node4</title>
<a xlink:href="classtetgenmesh_1_1memorypool.xhtml#a623b101e4e2f249d8b7e5dba65c3f7e2" target="_top" xlink:title="tetgenmesh::memorypool\l::traversalinit">
<polygon fill="none" stroke="black" points="182.5,-120 182.5,-154 309.5,-154 309.5,-120 182.5,-120"/>
<text text-anchor="start" x="190.5" y="-141" font-family="Helvetica,sans-Serif" font-size="10.00">tetgenmesh::memorypool</text>
<text text-anchor="middle" x="246" y="-128" font-family="Helvetica,sans-Serif" font-size="10.00">::traversalinit</text>
</a>
</g>
<!-- Node1&#45;&gt;Node4 -->
<g id="edge6" class="edge"><title>Node1&#45;&gt;Node4</title>
<path fill="none" stroke="midnightblue" d="M104.984,-101.553C125.02,-106.59 149.589,-112.766 172.574,-118.543"/>
<polygon fill="midnightblue" stroke="midnightblue" points="171.758,-121.947 182.31,-120.99 173.465,-115.158 171.758,-121.947"/>
</g>
<!-- Node5 -->
<g id="node9" class="node"><title>Node5</title>
<a xlink:href="classtetgenmesh.xhtml#afacb84170cf526490d58e2e5a633d6e8" target="_top" xlink:title="tetgenmesh::alltetrahedrontraverse">
<polygon fill="none" stroke="black" points="162.5,-80.5 162.5,-101.5 329.5,-101.5 329.5,-80.5 162.5,-80.5"/>
<text text-anchor="middle" x="246" y="-88.5" font-family="Helvetica,sans-Serif" font-size="10.00">tetgenmesh::alltetrahedrontraverse</text>
</a>
</g>
<!-- Node1&#45;&gt;Node5 -->
<g id="edge8" class="edge"><title>Node1&#45;&gt;Node5</title>
<path fill="none" stroke="midnightblue" d="M126.234,-91C134.716,-91 143.558,-91 152.425,-91"/>
<polygon fill="midnightblue" stroke="midnightblue" points="152.43,-94.5001 162.43,-91 152.43,-87.5001 152.43,-94.5001"/>
</g>
<!-- Node7 -->
<g id="node13" class="node"><title>Node7</title>
<a xlink:href="classtetgenmesh.xhtml#aa14f996a69b46afb1429ebf35a6e881c" target="_top" xlink:title="tetgenmesh::ishulltet">
<polygon fill="none" stroke="black" points="192.5,-40.5 192.5,-61.5 299.5,-61.5 299.5,-40.5 192.5,-40.5"/>
<text text-anchor="middle" x="246" y="-48.5" font-family="Helvetica,sans-Serif" font-size="10.00">tetgenmesh::ishulltet</text>
</a>
</g>
<!-- Node1&#45;&gt;Node7 -->
<g id="edge12" class="edge"><title>Node1&#45;&gt;Node7</title>
<path fill="none" stroke="midnightblue" d="M111.081,-80.4905C134.629,-75.3434 163.171,-69.1046 187.928,-63.6933"/>
<polygon fill="midnightblue" stroke="midnightblue" points="188.901,-67.0634 197.923,-61.5087 187.406,-60.2249 188.901,-67.0634"/>
</g>
<!-- Node8 -->
<g id="node15" class="node"><title>Node8</title>
<a xlink:href="classtetgenmesh.xhtml#a46fa5fabd0e8e806f7f8beb069732e21" target="_top" xlink:title="tetgenmesh::pointmark">
<polygon fill="none" stroke="black" points="188,-0.5 188,-21.5 304,-21.5 304,-0.5 188,-0.5"/>
<text text-anchor="middle" x="246" y="-8.5" font-family="Helvetica,sans-Serif" font-size="10.00">tetgenmesh::pointmark</text>
</a>
</g>
<!-- Node1&#45;&gt;Node8 -->
<g id="edge14" class="edge"><title>Node1&#45;&gt;Node8</title>
<path fill="none" stroke="midnightblue" d="M77.3278,-80.3301C95.9301,-66.9578 129.833,-44.1964 162,-31 167.916,-28.573 174.193,-26.3995 180.546,-24.4624"/>
<polygon fill="midnightblue" stroke="midnightblue" points="181.893,-27.7178 190.551,-21.6106 179.974,-20.9859 181.893,-27.7178"/>
</g>
<!-- Node3 -->
<g id="node5" class="node"><title>Node3</title>
<a xlink:href="classtetgenmesh.xhtml#ade805f03ec7ca1b4623c8148fb915278" target="_top" xlink:title="tetgenmesh::freememory">
<polygon fill="none" stroke="black" points="367.5,-172.5 367.5,-193.5 492.5,-193.5 492.5,-172.5 367.5,-172.5"/>
<text text-anchor="middle" x="430" y="-180.5" font-family="Helvetica,sans-Serif" font-size="10.00">tetgenmesh::freememory</text>
</a>
</g>
<!-- Node2&#45;&gt;Node3 -->
<g id="edge4" class="edge"><title>Node2&#45;&gt;Node3</title>
<path fill="none" stroke="midnightblue" d="M288.213,-183C308.639,-183 333.749,-183 357.134,-183"/>
<polygon fill="midnightblue" stroke="midnightblue" points="357.382,-186.5 367.382,-183 357.382,-179.5 357.382,-186.5"/>
</g>
<!-- Node6 -->
<g id="node11" class="node"><title>Node6</title>
<a xlink:href="classtetgenmesh_1_1memorypool.xhtml#a151fe73459d0fa9a7262d0030fecf291" target="_top" xlink:title="tetgenmesh::memorypool\l::traverse">
<polygon fill="none" stroke="black" points="366.5,-74 366.5,-108 493.5,-108 493.5,-74 366.5,-74"/>
<text text-anchor="start" x="374.5" y="-95" font-family="Helvetica,sans-Serif" font-size="10.00">tetgenmesh::memorypool</text>
<text text-anchor="middle" x="430" y="-82" font-family="Helvetica,sans-Serif" font-size="10.00">::traverse</text>
</a>
</g>
<!-- Node5&#45;&gt;Node6 -->
<g id="edge10" class="edge"><title>Node5&#45;&gt;Node6</title>
<path fill="none" stroke="midnightblue" d="M329.655,-91C338.525,-91 347.5,-91 356.245,-91"/>
<polygon fill="midnightblue" stroke="midnightblue" points="356.387,-94.5001 366.387,-91 356.387,-87.5001 356.387,-94.5001"/>
</g>
</g>
</svg>
