<?xml version="1.0" encoding="UTF-8" standalone="no"?>
<!DOCTYPE svg PUBLIC "-//W3C//DTD SVG 1.1//EN"
 "http://www.w3.org/Graphics/SVG/1.1/DTD/svg11.dtd">
<!-- Generated by graphviz version 2.26.3 (20100126.1600)
 -->
<!-- Title: ObjectData::getCurrentSensorIndex Pages: 1 -->
<!--zoomable 424 -->
<svg id="main" version="1.1" xmlns="http://www.w3.org/2000/svg" xmlns:xlink="http://www.w3.org/1999/xlink" xml:space="preserve" onload="init(evt)">
<style type="text/css"><![CDATA[
.edge:hover path { stroke: red; }
.edge:hover polygon { stroke: red; fill: red; }
]]></style>
<script type="text/javascript"><![CDATA[
var edges = document.getElementsByTagName('g');
if (edges && edges.length) {
  for (var i=0;i<edges.length;i++) {
    if (edges[i].id.substr(0,4)=='edge') {
      edges[i].setAttribute('class','edge');
    }
  }
}
]]></script>
        <defs>
                <circle id="rim" cx="0" cy="0" r="7"/>
                <circle id="rim2" cx="0" cy="0" r="3.5"/>
                <g id="zoomPlus">
                        <use xlink:href="#rim" fill="#404040">
                                <set attributeName="fill" to="#808080" begin="zoomplus.mouseover" end="zoomplus.mouseout"/>
                        </use>
                        <path d="M-4,0h8M0,-4v8" fill="none" stroke="white" stroke-width="1.5" pointer-events="none"/>
                </g>
                <g id="zoomMin">
                        <use xlink:href="#rim" fill="#404040">
                                <set attributeName="fill" to="#808080" begin="zoomminus.mouseover" end="zoomminus.mouseout"/>
                        </use>
                        <path d="M-4,0h8" fill="none" stroke="white" stroke-width="1.5" pointer-events="none"/>
                </g>
                <g id="dirArrow">
                        <path fill="none" stroke="white" stroke-width="1.5" d="M0,-3.0v7 M-2.5,-0.5L0,-3.0L2.5,-0.5"/>
                </g>
               <g id="resetDef">
                       <use xlink:href="#rim2" fill="#404040">
                               <set attributeName="fill" to="#808080" begin="reset.mouseover" end="reset.mouseout"/>
                       </use>
               </g>
        </defs>

<script type="text/javascript">
var viewWidth = 932;
var viewHeight = 424;
var sectionId = 'dynsection-6';
</script>
<script xlink:href="svgpan.js"/>
<svg id="graph" class="graph">
<g id="viewport">
<title>ObjectData::getCurrentSensorIndex</title>
<!-- Node1 -->
<g id="node1" class="node"><title>Node1</title>
<polygon fill="#bfbfbf" stroke="black" points="0.5,-170 0.5,-204 149.5,-204 149.5,-170 0.5,-170"/>
<text text-anchor="start" x="8.5" y="-191" font-family="Helvetica,sans-Serif" font-size="10.00">ObjectData::getCurrentSensor</text>
<text text-anchor="middle" x="75" y="-178" font-family="Helvetica,sans-Serif" font-size="10.00">Index</text>
</g>
<!-- Node2 -->
<g id="node3" class="node"><title>Node2</title>
<a xlink:href="classImporter.xhtml#ae837d750c92450f8e83b2d93eb099f79" target="_top" xlink:title="Lädt von einfache Sensordaten (ohne Zeit) und Verknüpft diese mit dem Objekt. ">
<polygon fill="none" stroke="black" points="204.5,-354.5 204.5,-375.5 335.5,-375.5 335.5,-354.5 204.5,-354.5"/>
<text text-anchor="middle" x="270" y="-362.5" font-family="Helvetica,sans-Serif" font-size="10.00">Importer::LoadSensorData</text>
</a>
</g>
<!-- Node1&#45;&gt;Node2 -->
<g id="edge2" class="edge"><title>Node1&#45;&gt;Node2</title>
<path fill="none" stroke="midnightblue" d="M86.1952,-213.414C102.681,-249.002 136.932,-311.714 186,-345 191.583,-348.787 197.798,-351.861 204.252,-354.355"/>
<polygon fill="midnightblue" stroke="midnightblue" points="89.3172,-211.823 82.0189,-204.143 82.9348,-214.698 89.3172,-211.823"/>
</g>
<!-- Node7 -->
<g id="node13" class="node"><title>Node7</title>
<a xlink:href="classImporter.xhtml#ad8dec9ce375155ca130453632530eb52" target="_top" xlink:title="Lädt zeitgesteuerte Sensordaten und Verknüpft diese mit dem Objekt. ">
<polygon fill="none" stroke="black" points="206,-314.5 206,-335.5 334,-335.5 334,-314.5 206,-314.5"/>
<text text-anchor="middle" x="270" y="-322.5" font-family="Helvetica,sans-Serif" font-size="10.00">Importer::LoadTimedData</text>
</a>
</g>
<!-- Node1&#45;&gt;Node7 -->
<g id="edge12" class="edge"><title>Node1&#45;&gt;Node7</title>
<path fill="none" stroke="midnightblue" d="M91.8363,-212.252C111.283,-239.382 145.808,-281.728 186,-305 192.616,-308.831 199.93,-311.929 207.401,-314.435"/>
<polygon fill="midnightblue" stroke="midnightblue" points="94.6717,-210.199 86.0644,-204.022 88.9406,-214.219 94.6717,-210.199"/>
</g>
<!-- Node10 -->
<g id="node20" class="node"><title>Node10</title>
<a xlink:href="classGUICutRenderWindow.xhtml#a9eedb7088ad31f4680a77ed3a06fa60c" target="_top" xlink:title="Berechnet die 2D&#45;Temperaturverteilung als Grafik. ">
<polygon fill="none" stroke="black" points="211.5,-262 211.5,-296 328.5,-296 328.5,-262 211.5,-262"/>
<text text-anchor="start" x="219.5" y="-283" font-family="Helvetica,sans-Serif" font-size="10.00">GUICutRenderWindow</text>
<text text-anchor="middle" x="270" y="-270" font-family="Helvetica,sans-Serif" font-size="10.00">::renderImage</text>
</a>
</g>
<!-- Node1&#45;&gt;Node10 -->
<g id="edge20" class="edge"><title>Node1&#45;&gt;Node10</title>
<path fill="none" stroke="midnightblue" d="M108.518,-209.768C129.98,-223.621 158.811,-240.913 186,-253 193.951,-256.535 202.526,-259.784 211.053,-262.701"/>
<polygon fill="midnightblue" stroke="midnightblue" points="110.375,-206.801 100.089,-204.261 106.546,-212.661 110.375,-206.801"/>
</g>
<!-- Node12 -->
<g id="node24" class="node"><title>Node12</title>
<a xlink:href="classGUIMainWindow.xhtml#af21ea342f481cfdd01ed04005f903ad5" target="_top" xlink:title="Sucht den Zeitpunkt zwischen zwei markierten Stellen auf der Sensordaten&#45;Zeitleiste, für den der Wäremeenergiegehalt maximal wird. ">
<polygon fill="none" stroke="black" points="186.5,-222.5 186.5,-243.5 353.5,-243.5 353.5,-222.5 186.5,-222.5"/>
<text text-anchor="middle" x="270" y="-230.5" font-family="Helvetica,sans-Serif" font-size="10.00">GUIMainWindow::OnFindMaxTSD</text>
</a>
</g>
<!-- Node1&#45;&gt;Node12 -->
<g id="edge24" class="edge"><title>Node1&#45;&gt;Node12</title>
<path fill="none" stroke="midnightblue" d="M157.235,-206.399C180.544,-211.898 205.048,-217.678 225.237,-222.44"/>
<polygon fill="midnightblue" stroke="midnightblue" points="157.87,-202.953 147.334,-204.063 156.263,-209.766 157.87,-202.953"/>
</g>
<!-- Node13 -->
<g id="node26" class="node"><title>Node13</title>
<a xlink:href="classGUIMainWindow.xhtml#a4c520b8716196fa1e88a7bea5ec34ef0" target="_top" xlink:title="Überträgt die Eigenschaften des aktiven Objekts in die GUI. ">
<polygon fill="none" stroke="black" points="192.5,-170 192.5,-204 347.5,-204 347.5,-170 192.5,-170"/>
<text text-anchor="start" x="200.5" y="-191" font-family="Helvetica,sans-Serif" font-size="10.00">GUIMainWindow::updateObject</text>
<text text-anchor="middle" x="270" y="-178" font-family="Helvetica,sans-Serif" font-size="10.00">PropGUI</text>
</a>
</g>
<!-- Node1&#45;&gt;Node13 -->
<g id="edge26" class="edge"><title>Node1&#45;&gt;Node13</title>
<path fill="none" stroke="midnightblue" d="M159.811,-187C170.593,-187 181.585,-187 192.249,-187"/>
<polygon fill="midnightblue" stroke="midnightblue" points="159.556,-183.5 149.556,-187 159.556,-190.5 159.556,-183.5"/>
</g>
<!-- Node14 -->
<g id="node28" class="node"><title>Node14</title>
<a xlink:href="classGUITimeline.xhtml#a099f3654aa6e7ea04df861851a0e9ec8" target="_top" xlink:title="Sucht den Zeitpunkt zwischen zwei markierten Stellen auf der Sensordaten&#45;Zeitleiste, für den der Wäremeenergiegehalt maximal wird. ">
<polygon fill="none" stroke="black" points="588.5,-134.5 588.5,-155.5 725.5,-155.5 725.5,-134.5 588.5,-134.5"/>
<text text-anchor="middle" x="657" y="-142.5" font-family="Helvetica,sans-Serif" font-size="10.00">GUITimeline::findMaxValue</text>
</a>
</g>
<!-- Node1&#45;&gt;Node14 -->
<g id="edge28" class="edge"><title>Node1&#45;&gt;Node14</title>
<path fill="none" stroke="midnightblue" d="M147.99,-167.764C160.588,-165.059 173.615,-162.645 186,-161 328.138,-142.125 496.397,-141.594 588.403,-143.138"/>
<polygon fill="midnightblue" stroke="midnightblue" points="147,-164.398 137.999,-169.986 148.52,-171.231 147,-164.398"/>
</g>
<!-- Node15 -->
<g id="node30" class="node"><title>Node15</title>
<a xlink:href="classAnalyzer.xhtml#a2a7b5f169f664ccd9f206e508cba78ef" target="_top" xlink:title="Ermittelt Daten für ein Objekt. ">
<polygon fill="none" stroke="black" points="398.5,-92.5 398.5,-113.5 521.5,-113.5 521.5,-92.5 398.5,-92.5"/>
<text text-anchor="middle" x="460" y="-100.5" font-family="Helvetica,sans-Serif" font-size="10.00">Analyzer::analyzeObject</text>
</a>
</g>
<!-- Node1&#45;&gt;Node15 -->
<g id="edge30" class="edge"><title>Node1&#45;&gt;Node15</title>
<path fill="none" stroke="midnightblue" d="M108.832,-164.454C130.07,-151.485 158.55,-136.185 186,-128 256.723,-106.913 341.881,-102.173 398.29,-101.729"/>
<polygon fill="midnightblue" stroke="midnightblue" points="106.828,-161.579 100.197,-169.842 110.534,-167.517 106.828,-161.579"/>
</g>
<!-- Node18 -->
<g id="node37" class="node"><title>Node18</title>
<a xlink:href="classAnalyzer.xhtml#a8f73ee0aa71ae395a74b43dc76b35458" target="_top" xlink:title="Ermittelt Daten für einen Punkt am aktuell ausgewählten Zeitpunkt. ">
<polygon fill="none" stroke="black" points="211.5,-10.5 211.5,-31.5 328.5,-31.5 328.5,-10.5 211.5,-10.5"/>
<text text-anchor="middle" x="270" y="-18.5" font-family="Helvetica,sans-Serif" font-size="10.00">Analyzer::analyzePoint</text>
</a>
</g>
<!-- Node1&#45;&gt;Node18 -->
<g id="edge38" class="edge"><title>Node1&#45;&gt;Node18</title>
<path fill="none" stroke="midnightblue" d="M88.5861,-160.891C106.592,-128.846 141.358,-75.0726 186,-45 194.428,-39.3227 204.198,-34.9731 214.031,-31.6453"/>
<polygon fill="midnightblue" stroke="midnightblue" points="85.4936,-159.251 83.7505,-169.701 91.6302,-162.619 85.4936,-159.251"/>
</g>
<!-- Node20 -->
<g id="node41" class="node"><title>Node20</title>
<a xlink:href="classMeshProcessor.xhtml#a060c3815db33f8e52ac620ed2239ccc9" target="_top" xlink:title="Berechnet die Temperaturverteilung für ein Objekt. ">
<polygon fill="none" stroke="black" points="207.5,-54.5 207.5,-75.5 332.5,-75.5 332.5,-54.5 207.5,-54.5"/>
<text text-anchor="middle" x="270" y="-62.5" font-family="Helvetica,sans-Serif" font-size="10.00">MeshProcessor::process</text>
</a>
</g>
<!-- Node1&#45;&gt;Node20 -->
<g id="edge42" class="edge"><title>Node1&#45;&gt;Node20</title>
<path fill="none" stroke="midnightblue" d="M97.077,-162.455C118.002,-140.568 151.315,-109.117 186,-90 196.927,-83.9775 209.472,-79.2482 221.478,-75.6015"/>
<polygon fill="midnightblue" stroke="midnightblue" points="94.508,-160.078 90.2104,-169.762 99.609,-164.872 94.508,-160.078"/>
</g>
<!-- Node3 -->
<g id="node5" class="node"><title>Node3</title>
<a xlink:href="classObjectData.xhtml#ab2fabb02de2ac4b5ff09b73beb15223d" target="_top" xlink:title="Lädt ein Objekt und erste Sensordaten. ">
<polygon fill="none" stroke="black" points="396,-354.5 396,-375.5 524,-375.5 524,-354.5 396,-354.5"/>
<text text-anchor="middle" x="460" y="-362.5" font-family="Helvetica,sans-Serif" font-size="10.00">ObjectData::loadFromFile</text>
</a>
</g>
<!-- Node2&#45;&gt;Node3 -->
<g id="edge4" class="edge"><title>Node2&#45;&gt;Node3</title>
<path fill="none" stroke="midnightblue" d="M345.863,-365C362.459,-365 379.868,-365 395.949,-365"/>
<polygon fill="midnightblue" stroke="midnightblue" points="345.653,-361.5 335.653,-365 345.653,-368.5 345.653,-361.5"/>
</g>
<!-- Node5 -->
<g id="node9" class="node"><title>Node5</title>
<a xlink:href="classObjectData.xhtml#a351c17608005c849cb0f26e44beee2ec" target="_top" xlink:title="Lädt einfache Sensordaten und verknüpft sie mit dem Objekt. ">
<polygon fill="none" stroke="black" points="390,-394.5 390,-415.5 530,-415.5 530,-394.5 390,-394.5"/>
<text text-anchor="middle" x="460" y="-402.5" font-family="Helvetica,sans-Serif" font-size="10.00">ObjectData::addSensorData</text>
</a>
</g>
<!-- Node2&#45;&gt;Node5 -->
<g id="edge8" class="edge"><title>Node2&#45;&gt;Node5</title>
<path fill="none" stroke="midnightblue" d="M329.955,-377.622C355.738,-383.05 385.527,-389.321 410.084,-394.491"/>
<polygon fill="midnightblue" stroke="midnightblue" points="330.427,-374.145 319.92,-375.51 328.985,-380.995 330.427,-374.145"/>
</g>
<!-- Node4 -->
<g id="node7" class="node"><title>Node4</title>
<a xlink:href="classGUIMainWindow.xhtml#a9fd9f2be8f45cb5433193f5d28c924bc" target="_top" xlink:title="Event&#45;Tabellendeklaration für wxWidgets. ">
<polygon fill="none" stroke="black" points="569,-354.5 569,-375.5 745,-375.5 745,-354.5 569,-354.5"/>
<text text-anchor="middle" x="657" y="-362.5" font-family="Helvetica,sans-Serif" font-size="10.00">GUIMainWindow::OnMenuImportObj</text>
</a>
</g>
<!-- Node3&#45;&gt;Node4 -->
<g id="edge6" class="edge"><title>Node3&#45;&gt;Node4</title>
<path fill="none" stroke="midnightblue" d="M534.421,-365C545.672,-365 557.369,-365 568.875,-365"/>
<polygon fill="midnightblue" stroke="midnightblue" points="534.233,-361.5 524.233,-365 534.233,-368.5 534.233,-361.5"/>
</g>
<!-- Node6 -->
<g id="node11" class="node"><title>Node6</title>
<a xlink:href="classGUIMainWindow.xhtml#a405b99746fe6f35ec527c57604e53ce2" target="_top" xlink:title="Öffnet den Dialog zum Importieren einfacher Sensordaten. ">
<polygon fill="none" stroke="black" points="569,-394.5 569,-415.5 745,-415.5 745,-394.5 569,-394.5"/>
<text text-anchor="middle" x="657" y="-402.5" font-family="Helvetica,sans-Serif" font-size="10.00">GUIMainWindow::OnMenuImportSD</text>
</a>
</g>
<!-- Node5&#45;&gt;Node6 -->
<g id="edge10" class="edge"><title>Node5&#45;&gt;Node6</title>
<path fill="none" stroke="midnightblue" d="M540.183,-405C549.659,-405 559.37,-405 568.948,-405"/>
<polygon fill="midnightblue" stroke="midnightblue" points="540.01,-401.5 530.01,-405 540.009,-408.5 540.01,-401.5"/>
</g>
<!-- Node7&#45;&gt;Node3 -->
<g id="edge14" class="edge"><title>Node7&#45;&gt;Node3</title>
<path fill="none" stroke="midnightblue" d="M329.955,-337.622C355.738,-343.05 385.527,-349.321 410.084,-354.491"/>
<polygon fill="midnightblue" stroke="midnightblue" points="330.427,-334.145 319.92,-335.51 328.985,-340.995 330.427,-334.145"/>
</g>
<!-- Node8 -->
<g id="node16" class="node"><title>Node8</title>
<a xlink:href="classObjectData.xhtml#ac8056d23b0882a826b6e572ff080688f" target="_top" xlink:title="Lädt zeitbezogene Sensordaten und verknüpft sie mit dem Objekt. ">
<polygon fill="none" stroke="black" points="392,-314.5 392,-335.5 528,-335.5 528,-314.5 392,-314.5"/>
<text text-anchor="middle" x="460" y="-322.5" font-family="Helvetica,sans-Serif" font-size="10.00">ObjectData::addTimedData</text>
</a>
</g>
<!-- Node7&#45;&gt;Node8 -->
<g id="edge16" class="edge"><title>Node7&#45;&gt;Node8</title>
<path fill="none" stroke="midnightblue" d="M344.261,-325C359.987,-325 376.51,-325 391.991,-325"/>
<polygon fill="midnightblue" stroke="midnightblue" points="344.06,-321.5 334.06,-325 344.06,-328.5 344.06,-321.5"/>
</g>
<!-- Node9 -->
<g id="node18" class="node"><title>Node9</title>
<a xlink:href="classGUIMainWindow.xhtml#ab6b1fb242c4b529764093a092349f560" target="_top" xlink:title="Öffnet den Dialog zum Importieren zeitbezogener Sensordaten. ">
<polygon fill="none" stroke="black" points="566,-314.5 566,-335.5 748,-335.5 748,-314.5 566,-314.5"/>
<text text-anchor="middle" x="657" y="-322.5" font-family="Helvetica,sans-Serif" font-size="10.00">GUIMainWindow::OnMenuImportTSD</text>
</a>
</g>
<!-- Node8&#45;&gt;Node9 -->
<g id="edge18" class="edge"><title>Node8&#45;&gt;Node9</title>
<path fill="none" stroke="midnightblue" d="M538.246,-325C547.363,-325 556.723,-325 565.993,-325"/>
<polygon fill="midnightblue" stroke="midnightblue" points="538.072,-321.5 528.072,-325 538.072,-328.5 538.072,-321.5"/>
</g>
<!-- Node11 -->
<g id="node22" class="node"><title>Node11</title>
<a xlink:href="classGUICutRenderWindow.xhtml#a7cd1bfbec53756a1cbbe1616b4d46c7a" target="_top" xlink:title="Behandelt das Drücken des Buttons zur Berechnung der zweidimensionalen Temperaturverteilung. ">
<polygon fill="none" stroke="black" points="401.5,-262 401.5,-296 518.5,-296 518.5,-262 401.5,-262"/>
<text text-anchor="start" x="409.5" y="-283" font-family="Helvetica,sans-Serif" font-size="10.00">GUICutRenderWindow</text>
<text text-anchor="middle" x="460" y="-270" font-family="Helvetica,sans-Serif" font-size="10.00">::renderCutBtClick</text>
</a>
</g>
<!-- Node10&#45;&gt;Node11 -->
<g id="edge22" class="edge"><title>Node10&#45;&gt;Node11</title>
<path fill="none" stroke="midnightblue" d="M338.772,-279C359.264,-279 381.524,-279 401.31,-279"/>
<polygon fill="midnightblue" stroke="midnightblue" points="338.557,-275.5 328.557,-279 338.557,-282.5 338.557,-275.5"/>
</g>
<!-- Node15&#45;&gt;Node14 -->
<g id="edge36" class="edge"><title>Node15&#45;&gt;Node14</title>
<path fill="none" stroke="midnightblue" d="M519.564,-115.699C547.672,-121.691 580.822,-128.759 607.523,-134.452"/>
<polygon fill="midnightblue" stroke="midnightblue" points="519.967,-112.206 509.457,-113.544 518.508,-119.052 519.967,-112.206"/>
</g>
<!-- Node16 -->
<g id="node32" class="node"><title>Node16</title>
<a xlink:href="classGUIAnalyzeOutputWindow.xhtml#a9ea5a7cf46d6189f368315903508cecc" target="_top" xlink:title="Methode zum aktualisieren des Fensters, alle Objekte werden erneut analysiert und die aktualisierten ...">
<polygon fill="none" stroke="black" points="590,-82 590,-116 724,-116 724,-82 590,-82"/>
<text text-anchor="start" x="598" y="-103" font-family="Helvetica,sans-Serif" font-size="10.00">GUIAnalyzeOutputWindow</text>
<text text-anchor="middle" x="657" y="-90" font-family="Helvetica,sans-Serif" font-size="10.00">::Update</text>
</a>
</g>
<!-- Node15&#45;&gt;Node16 -->
<g id="edge32" class="edge"><title>Node15&#45;&gt;Node16</title>
<path fill="none" stroke="midnightblue" d="M531.605,-101.546C550.599,-101.16 571.038,-100.745 589.789,-100.365"/>
<polygon fill="midnightblue" stroke="midnightblue" points="531.449,-98.0484 521.522,-101.751 531.591,-105.047 531.449,-98.0484"/>
</g>
<!-- Node17 -->
<g id="node34" class="node"><title>Node17</title>
<a xlink:href="classGUIAnalyzeOutputWindow.xhtml#af9407245a6b2a0478579c4d592a31e63" target="_top" xlink:title="Der Konstruktor. ">
<polygon fill="none" stroke="black" points="784,-82 784,-116 924,-116 924,-82 784,-82"/>
<text text-anchor="start" x="792" y="-103" font-family="Helvetica,sans-Serif" font-size="10.00">GUIAnalyzeOutputWindow</text>
<text text-anchor="middle" x="854" y="-90" font-family="Helvetica,sans-Serif" font-size="10.00">::GUIAnalyzeOutputWindow</text>
</a>
</g>
<!-- Node16&#45;&gt;Node17 -->
<g id="edge34" class="edge"><title>Node16&#45;&gt;Node17</title>
<path fill="none" stroke="midnightblue" d="M734.27,-99C750.566,-99 767.677,-99 783.7,-99"/>
<polygon fill="midnightblue" stroke="midnightblue" points="734.245,-95.5001 724.245,-99 734.245,-102.5 734.245,-95.5001"/>
</g>
<!-- Node19 -->
<g id="node39" class="node"><title>Node19</title>
<a xlink:href="classGUIAnalyzePointWindow.xhtml#aa84ea9958e8b41423f01316d01ba5151" target="_top" xlink:title="Event&#45;Tabellendeklaration für wxWidgets. ">
<polygon fill="none" stroke="black" points="396,-0 396,-34 524,-34 524,-0 396,-0"/>
<text text-anchor="start" x="404" y="-21" font-family="Helvetica,sans-Serif" font-size="10.00">GUIAnalyzePointWindow</text>
<text text-anchor="middle" x="460" y="-8" font-family="Helvetica,sans-Serif" font-size="10.00">::analyzePoint</text>
</a>
</g>
<!-- Node18&#45;&gt;Node19 -->
<g id="edge40" class="edge"><title>Node18&#45;&gt;Node19</title>
<path fill="none" stroke="midnightblue" d="M338.713,-19.5534C357.302,-19.1621 377.347,-18.7401 395.684,-18.354"/>
<polygon fill="midnightblue" stroke="midnightblue" points="338.481,-16.0574 328.557,-19.7672 338.628,-23.0559 338.481,-16.0574"/>
</g>
<!-- Node20&#45;&gt;Node15 -->
<g id="edge44" class="edge"><title>Node20&#45;&gt;Node15</title>
<path fill="none" stroke="midnightblue" d="M332.792,-77.5584C356.901,-82.3802 384.149,-87.8298 407.224,-92.4449"/>
<polygon fill="midnightblue" stroke="midnightblue" points="333.166,-74.0639 322.673,-75.5347 331.793,-80.9279 333.166,-74.0639"/>
</g>
<!-- Node21 -->
<g id="node44" class="node"><title>Node21</title>
<a xlink:href="classObjectData.xhtml#af3a850833d08eb9b45357449f455e24d" target="_top" xlink:title="Zerlegt das Objekt in Tetraeder (Schnittstelle zur Tetgen&#45;Bibliothek) und Berechnet die Temperaturver...">
<polygon fill="none" stroke="black" points="399,-52.5 399,-73.5 521,-73.5 521,-52.5 399,-52.5"/>
<text text-anchor="middle" x="460" y="-60.5" font-family="Helvetica,sans-Serif" font-size="10.00">ObjectData::calculateIO</text>
</a>
</g>
<!-- Node20&#45;&gt;Node21 -->
<g id="edge46" class="edge"><title>Node20&#45;&gt;Node21</title>
<path fill="none" stroke="midnightblue" d="M342.882,-64.2328C361.392,-64.038 381.088,-63.8307 398.942,-63.6427"/>
<polygon fill="midnightblue" stroke="midnightblue" points="342.702,-60.7344 332.74,-64.3396 342.776,-67.734 342.702,-60.7344"/>
</g>
<!-- Node22 -->
<g id="node46" class="node"><title>Node22</title>
<a xlink:href="classGUIMainWindow.xhtml#a0c2de30274c7f52ff74ec1217e47a9e5" target="_top" xlink:title="Berechnet die 3D&#45;Temperaturverteilung neu. ">
<polygon fill="none" stroke="black" points="582,-30 582,-64 732,-64 732,-30 582,-30"/>
<text text-anchor="start" x="590" y="-51" font-family="Helvetica,sans-Serif" font-size="10.00">GUIMainWindow::OnRecalcBt</text>
<text text-anchor="middle" x="657" y="-38" font-family="Helvetica,sans-Serif" font-size="10.00">Click</text>
</a>
</g>
<!-- Node21&#45;&gt;Node22 -->
<g id="edge48" class="edge"><title>Node21&#45;&gt;Node22</title>
<path fill="none" stroke="midnightblue" d="M531.331,-57.2066C547.775,-55.8711 565.314,-54.4466 581.912,-53.0985"/>
<polygon fill="midnightblue" stroke="midnightblue" points="530.936,-53.7271 521.252,-58.0252 531.503,-60.7041 530.936,-53.7271"/>
</g>
</g>
</svg>
        <g id="navigator" transform="translate(0 0)" fill="#404254">
                <rect fill="#f2f5e9" fill-opacity="0.5" stroke="#606060" stroke-width=".5" x="0" y="0" width="60" height="60"/>
                <use id="zoomplus" xlink:href="#zoomPlus" x="17" y="9" onmousedown="handleZoom(evt,'in')"/>
                <use id="zoomminus" xlink:href="#zoomMin" x="42" y="9" onmousedown="handleZoom(evt,'out')"/>
                <use id="reset" xlink:href="#resetDef" x="30" y="36" onmousedown="handleReset()"/>
                <g id="arrowUp" xlink:href="#dirArrow" transform="translate(30 24)" onmousedown="handlePan(0,-1)">
                  <use xlink:href="#rim" fill="#404040">
                        <set attributeName="fill" to="#808080" begin="arrowUp.mouseover" end="arrowUp.mouseout"/>
                  </use>
                  <path fill="none" stroke="white" stroke-width="1.5" d="M0,-3.0v7 M-2.5,-0.5L0,-3.0L2.5,-0.5"/>
                </g>
                <g id="arrowRight" xlink:href="#dirArrow" transform="rotate(90) translate(36 -43)" onmousedown="handlePan(1,0)">
                  <use xlink:href="#rim" fill="#404040">
                        <set attributeName="fill" to="#808080" begin="arrowRight.mouseover" end="arrowRight.mouseout"/>
                  </use>
                  <path fill="none" stroke="white" stroke-width="1.5" d="M0,-3.0v7 M-2.5,-0.5L0,-3.0L2.5,-0.5"/>
                </g>
                <g id="arrowDown" xlink:href="#dirArrow" transform="rotate(180) translate(-30 -48)" onmousedown="handlePan(0,1)">
                  <use xlink:href="#rim" fill="#404040">
                        <set attributeName="fill" to="#808080" begin="arrowDown.mouseover" end="arrowDown.mouseout"/>
                  </use>
                  <path fill="none" stroke="white" stroke-width="1.5" d="M0,-3.0v7 M-2.5,-0.5L0,-3.0L2.5,-0.5"/>
                </g>
                <g id="arrowLeft" xlink:href="#dirArrow" transform="rotate(270) translate(-36 17)" onmousedown="handlePan(-1,0)">
                  <use xlink:href="#rim" fill="#404040">
                        <set attributeName="fill" to="#808080" begin="arrowLeft.mouseover" end="arrowLeft.mouseout"/>
                  </use>
                  <path fill="none" stroke="white" stroke-width="1.5" d="M0,-3.0v7 M-2.5,-0.5L0,-3.0L2.5,-0.5"/>
                </g>
        </g>
        <svg viewBox="0 0 15 15" width="100%" height="30px" preserveAspectRatio="xMaxYMin meet">
         <g id="arrow_out" transform="scale(0.3 0.3)">
          <a xlink:href="classObjectData_a503d63160a3afe2ea517449f78f8ac42_icgraph_org.svg" target="_base">
           <rect id="button" ry="5" rx="5" y="6" x="6" height="38" width="38"
                fill="#f2f5e9" fill-opacity="0.5" stroke="#606060" stroke-width="1.0"/>
           <path id="arrow"
             d="M 11.500037,31.436501 C 11.940474,20.09759 22.043105,11.32322 32.158766,21.979434 L 37.068811,17.246167 C 37.068811,17.246167 37.088388,32 37.088388,32 L 22.160133,31.978069 C 22.160133,31.978069 26.997745,27.140456 26.997745,27.140456 C 18.528582,18.264221 13.291696,25.230495 11.500037,31.436501 z"
             style="fill:#404040;"/>
          </a>
         </g>
        </svg>
</svg>
