<?xml version="1.0" encoding="UTF-8" standalone="no"?>
<!DOCTYPE svg PUBLIC "-//W3C//DTD SVG 1.1//EN"
 "http://www.w3.org/Graphics/SVG/1.1/DTD/svg11.dtd">
<!-- Generated by graphviz version 2.26.3 (20100126.1600)
 -->
<!-- Title: Triangle::getV1 Pages: 1 -->
<!--zoomable 376 -->
<svg id="main" version="1.1" xmlns="http://www.w3.org/2000/svg" xmlns:xlink="http://www.w3.org/1999/xlink" xml:space="preserve" onload="init(evt)">
<style type="text/css"><![CDATA[
.edge:hover path { stroke: red; }
.edge:hover polygon { stroke: red; fill: red; }
]]></style>
<script type="text/javascript"><![CDATA[
var edges = document.getElementsByTagName('g');
if (edges && edges.length) {
  for (var i=0;i<edges.length;i++) {
    if (edges[i].id.substr(0,4)=='edge') {
      edges[i].setAttribute('class','edge');
    }
  }
}
]]></script>
        <defs>
                <circle id="rim" cx="0" cy="0" r="7"/>
                <circle id="rim2" cx="0" cy="0" r="3.5"/>
                <g id="zoomPlus">
                        <use xlink:href="#rim" fill="#404040">
                                <set attributeName="fill" to="#808080" begin="zoomplus.mouseover" end="zoomplus.mouseout"/>
                        </use>
                        <path d="M-4,0h8M0,-4v8" fill="none" stroke="white" stroke-width="1.5" pointer-events="none"/>
                </g>
                <g id="zoomMin">
                        <use xlink:href="#rim" fill="#404040">
                                <set attributeName="fill" to="#808080" begin="zoomminus.mouseover" end="zoomminus.mouseout"/>
                        </use>
                        <path d="M-4,0h8" fill="none" stroke="white" stroke-width="1.5" pointer-events="none"/>
                </g>
                <g id="dirArrow">
                        <path fill="none" stroke="white" stroke-width="1.5" d="M0,-3.0v7 M-2.5,-0.5L0,-3.0L2.5,-0.5"/>
                </g>
               <g id="resetDef">
                       <use xlink:href="#rim2" fill="#404040">
                               <set attributeName="fill" to="#808080" begin="reset.mouseover" end="reset.mouseout"/>
                       </use>
               </g>
        </defs>

<script type="text/javascript">
var viewWidth = 1278;
var viewHeight = 376;
var sectionId = 'dynsection-3';
</script>
<script xlink:href="svgpan.js"/>
<svg id="graph" class="graph">
<g id="viewport">
<title>Triangle::getV1</title>
<!-- Node1 -->
<g id="node1" class="node"><title>Node1</title>
<polygon fill="#bfbfbf" stroke="black" points="0.5,-216.5 0.5,-237.5 83.5,-237.5 83.5,-216.5 0.5,-216.5"/>
<text text-anchor="middle" x="42" y="-224.5" font-family="Helvetica,sans-Serif" font-size="10.00">Triangle::getV1</text>
</g>
<!-- Node2 -->
<g id="node3" class="node"><title>Node2</title>
<a xlink:href="classExporter.xhtml#ae2aa06b8c8c77e172801a1f77800ffd0" target="_top" xlink:title="Exportiert die zweidimensionale Temperaturverteilung (Schnitt durch das Modell) als csv&#45;Datei...">
<polygon fill="none" stroke="black" points="124.5,-337.5 124.5,-358.5 249.5,-358.5 249.5,-337.5 124.5,-337.5"/>
<text text-anchor="middle" x="187" y="-345.5" font-family="Helvetica,sans-Serif" font-size="10.00">Exporter::ExportCutCSV</text>
</a>
</g>
<!-- Node1&#45;&gt;Node2 -->
<g id="edge2" class="edge"><title>Node1&#45;&gt;Node2</title>
<path fill="none" stroke="midnightblue" d="M54.0033,-246.176C67.7561,-266.808 92.0343,-299.422 120,-320 129.849,-327.248 141.854,-333.023 152.967,-337.401"/>
<polygon fill="midnightblue" stroke="midnightblue" points="56.832,-244.105 48.4497,-237.625 50.9616,-247.918 56.832,-244.105"/>
</g>
<!-- Node4 -->
<g id="node7" class="node"><title>Node4</title>
<a xlink:href="classGUICutRenderWindow.xhtml#a9eedb7088ad31f4680a77ed3a06fa60c" target="_top" xlink:title="Berechnet die 2D&#45;Temperaturverteilung als Grafik. ">
<polygon fill="none" stroke="black" points="625.5,-216 625.5,-250 742.5,-250 742.5,-216 625.5,-216"/>
<text text-anchor="start" x="633.5" y="-237" font-family="Helvetica,sans-Serif" font-size="10.00">GUICutRenderWindow</text>
<text text-anchor="middle" x="684" y="-224" font-family="Helvetica,sans-Serif" font-size="10.00">::renderImage</text>
</a>
</g>
<!-- Node1&#45;&gt;Node4 -->
<g id="edge6" class="edge"><title>Node1&#45;&gt;Node4</title>
<path fill="none" stroke="midnightblue" d="M58.5108,-245.043C73.0724,-259.519 95.7077,-278.738 120,-287 303.69,-349.477 539.148,-283.617 637.545,-250.098"/>
<polygon fill="midnightblue" stroke="midnightblue" points="60.7632,-242.338 51.2924,-237.589 55.7344,-247.207 60.7632,-242.338"/>
</g>
<!-- Node6 -->
<g id="node11" class="node"><title>Node6</title>
<a xlink:href="Renderer_8cpp.xhtml#a17ef754a4f478e115d6e7fb813702639" target="_top" xlink:title="pointBehindCut">
<polygon fill="none" stroke="black" points="145.5,-256.5 145.5,-277.5 228.5,-277.5 228.5,-256.5 145.5,-256.5"/>
<text text-anchor="middle" x="187" y="-264.5" font-family="Helvetica,sans-Serif" font-size="10.00">pointBehindCut</text>
</a>
</g>
<!-- Node1&#45;&gt;Node6 -->
<g id="edge10" class="edge"><title>Node1&#45;&gt;Node6</title>
<path fill="none" stroke="midnightblue" d="M89.8556,-240.202C109.036,-245.493 130.829,-251.504 148.906,-256.491"/>
<polygon fill="midnightblue" stroke="midnightblue" points="90.6677,-236.795 80.097,-237.51 88.8062,-243.543 90.6677,-236.795"/>
</g>
<!-- Node8 -->
<g id="node15" class="node"><title>Node8</title>
<a xlink:href="Renderer_8cpp.xhtml#a608a02845726b8844beac12e5154c500" target="_top" xlink:title="Visualisiert Informationen über eine 2D&#45;Temperaturverteilung. ">
<polygon fill="none" stroke="black" points="136.5,-216.5 136.5,-237.5 237.5,-237.5 237.5,-216.5 136.5,-216.5"/>
<text text-anchor="middle" x="187" y="-224.5" font-family="Helvetica,sans-Serif" font-size="10.00">drawCutRenderInfo</text>
</a>
</g>
<!-- Node1&#45;&gt;Node8 -->
<g id="edge14" class="edge"><title>Node1&#45;&gt;Node8</title>
<path fill="none" stroke="midnightblue" d="M93.8854,-227C107.727,-227 122.662,-227 136.432,-227"/>
<polygon fill="midnightblue" stroke="midnightblue" points="93.5512,-223.5 83.5512,-227 93.5511,-230.5 93.5512,-223.5"/>
</g>
<!-- Node11 -->
<g id="node21" class="node"><title>Node11</title>
<a xlink:href="classInterpolator.xhtml#ad59ac6ed3822e08a67ac7d1ee88a5bd2" target="_top" xlink:title="Ermittelt den Wert für einen beliebigen Punkt in einer Ebene. ">
<polygon fill="none" stroke="black" points="123,-176.5 123,-197.5 251,-197.5 251,-176.5 123,-176.5"/>
<text text-anchor="middle" x="187" y="-184.5" font-family="Helvetica,sans-Serif" font-size="10.00">Interpolator::interpolateTri</text>
</a>
</g>
<!-- Node1&#45;&gt;Node11 -->
<g id="edge20" class="edge"><title>Node1&#45;&gt;Node11</title>
<path fill="none" stroke="midnightblue" d="M89.8556,-213.798C109.036,-208.507 130.829,-202.496 148.906,-197.509"/>
<polygon fill="midnightblue" stroke="midnightblue" points="88.8062,-210.457 80.097,-216.49 90.6677,-217.205 88.8062,-210.457"/>
</g>
<!-- Node12 -->
<g id="node23" class="node"><title>Node12</title>
<a xlink:href="classInterpolator.xhtml#a30e714ca6dff9b5745d029f95af1420a" target="_top" xlink:title="Ermittelt den Wert für einen beliebigen Punkt im Raum. ">
<polygon fill="none" stroke="black" points="121.5,-96.5 121.5,-117.5 252.5,-117.5 252.5,-96.5 121.5,-96.5"/>
<text text-anchor="middle" x="187" y="-104.5" font-family="Helvetica,sans-Serif" font-size="10.00">Interpolator::interpolateTet</text>
</a>
</g>
<!-- Node1&#45;&gt;Node12 -->
<g id="edge22" class="edge"><title>Node1&#45;&gt;Node12</title>
<path fill="none" stroke="midnightblue" d="M52.258,-207.47C65.1246,-184.842 89.2744,-147.986 120,-127 125.614,-123.166 131.977,-120.052 138.494,-117.527"/>
<polygon fill="midnightblue" stroke="midnightblue" points="49.0532,-206.035 47.3025,-216.484 55.1873,-209.407 49.0532,-206.035"/>
</g>
<!-- Node25 -->
<g id="node51" class="node"><title>Node25</title>
<a xlink:href="namespaceUtils.xhtml#a5f216cc7011a901130db81321b565334" target="_top" xlink:title="Testet, ob ein Strahl ein Dreieck schneidet. ">
<polygon fill="none" stroke="black" points="120,-136.5 120,-157.5 254,-157.5 254,-136.5 120,-136.5"/>
<text text-anchor="middle" x="187" y="-144.5" font-family="Helvetica,sans-Serif" font-size="10.00">Utils::rayIntersectsTriangle</text>
</a>
</g>
<!-- Node1&#45;&gt;Node25 -->
<g id="edge52" class="edge"><title>Node1&#45;&gt;Node25</title>
<path fill="none" stroke="midnightblue" d="M60.7986,-209.339C75.8133,-196.064 97.927,-178.293 120,-167 127.241,-163.296 135.281,-160.16 143.205,-157.55"/>
<polygon fill="midnightblue" stroke="midnightblue" points="58.3016,-206.879 53.2329,-216.182 62.9971,-212.07 58.3016,-206.879"/>
</g>
<!-- Node3 -->
<g id="node5" class="node"><title>Node3</title>
<a xlink:href="classGUICutRenderWindow.xhtml#a3aee786d94c840ab4e6df6e3c2817802" target="_top" xlink:title="Fragt den Benutzer nach dem Pfad und Exporiert die 2D&#45;Temperaturverteilung als .csv&#45;Datei. ">
<polygon fill="none" stroke="black" points="299.5,-334 299.5,-368 416.5,-368 416.5,-334 299.5,-334"/>
<text text-anchor="start" x="307.5" y="-355" font-family="Helvetica,sans-Serif" font-size="10.00">GUICutRenderWindow</text>
<text text-anchor="middle" x="358" y="-342" font-family="Helvetica,sans-Serif" font-size="10.00">::OnExportCSV</text>
</a>
</g>
<!-- Node2&#45;&gt;Node3 -->
<g id="edge4" class="edge"><title>Node2&#45;&gt;Node3</title>
<path fill="none" stroke="midnightblue" d="M259.702,-349.275C272.912,-349.507 286.539,-349.746 299.282,-349.97"/>
<polygon fill="midnightblue" stroke="midnightblue" points="259.763,-345.776 249.703,-349.1 259.64,-352.775 259.763,-345.776"/>
</g>
<!-- Node5 -->
<g id="node9" class="node"><title>Node5</title>
<a xlink:href="classGUICutRenderWindow.xhtml#a7cd1bfbec53756a1cbbe1616b4d46c7a" target="_top" xlink:title="Behandelt das Drücken des Buttons zur Berechnung der zweidimensionalen Temperaturverteilung. ">
<polygon fill="none" stroke="black" points="787.5,-216 787.5,-250 904.5,-250 904.5,-216 787.5,-216"/>
<text text-anchor="start" x="795.5" y="-237" font-family="Helvetica,sans-Serif" font-size="10.00">GUICutRenderWindow</text>
<text text-anchor="middle" x="846" y="-224" font-family="Helvetica,sans-Serif" font-size="10.00">::renderCutBtClick</text>
</a>
</g>
<!-- Node4&#45;&gt;Node5 -->
<g id="edge8" class="edge"><title>Node4&#45;&gt;Node5</title>
<path fill="none" stroke="midnightblue" d="M753.263,-233C764.624,-233 776.3,-233 787.371,-233"/>
<polygon fill="midnightblue" stroke="midnightblue" points="752.944,-229.5 742.944,-233 752.944,-236.5 752.944,-229.5"/>
</g>
<!-- Node7 -->
<g id="node13" class="node"><title>Node7</title>
<a xlink:href="classRenderer.xhtml#a927f376a6283de3181b86f65b927386c" target="_top" xlink:title="Zeichnet die Tetraeder eines Materials des Objekts. ">
<polygon fill="none" stroke="black" points="290,-256.5 290,-277.5 426,-277.5 426,-256.5 290,-256.5"/>
<text text-anchor="middle" x="358" y="-264.5" font-family="Helvetica,sans-Serif" font-size="10.00">Renderer::renderTetrahedra</text>
</a>
</g>
<!-- Node6&#45;&gt;Node7 -->
<g id="edge12" class="edge"><title>Node6&#45;&gt;Node7</title>
<path fill="none" stroke="midnightblue" d="M239.072,-267C255.11,-267 273.009,-267 289.954,-267"/>
<polygon fill="midnightblue" stroke="midnightblue" points="238.831,-263.5 228.831,-267 238.831,-270.5 238.831,-263.5"/>
</g>
<!-- Node9 -->
<g id="node17" class="node"><title>Node9</title>
<a xlink:href="classRenderer.xhtml#af7e5f8f68742f198e315fb4683a605a4" target="_top" xlink:title="Zeichnet das Objekt (Attribut object). ">
<polygon fill="none" stroke="black" points="313.5,-216.5 313.5,-237.5 402.5,-237.5 402.5,-216.5 313.5,-216.5"/>
<text text-anchor="middle" x="358" y="-224.5" font-family="Helvetica,sans-Serif" font-size="10.00">Renderer::render</text>
</a>
</g>
<!-- Node8&#45;&gt;Node9 -->
<g id="edge16" class="edge"><title>Node8&#45;&gt;Node9</title>
<path fill="none" stroke="midnightblue" d="M247.917,-227C269.536,-227 293.447,-227 313.445,-227"/>
<polygon fill="midnightblue" stroke="midnightblue" points="247.843,-223.5 237.843,-227 247.843,-230.5 247.843,-223.5"/>
</g>
<!-- Node10 -->
<g id="node19" class="node"><title>Node10</title>
<a xlink:href="classGUIGLCanvas.xhtml#a83f52d08591920a339150c2f45069c8f" target="_top" xlink:title="Event&#45;Tabellendeklaration für wxWidgets. ">
<polygon fill="none" stroke="black" points="462,-216.5 462,-237.5 584,-237.5 584,-216.5 462,-216.5"/>
<text text-anchor="middle" x="523" y="-224.5" font-family="Helvetica,sans-Serif" font-size="10.00">GUIGLCanvas::OnPaint</text>
</a>
</g>
<!-- Node9&#45;&gt;Node10 -->
<g id="edge18" class="edge"><title>Node9&#45;&gt;Node10</title>
<path fill="none" stroke="midnightblue" d="M412.755,-227C428.507,-227 445.786,-227 461.896,-227"/>
<polygon fill="midnightblue" stroke="midnightblue" points="412.651,-223.5 402.651,-227 412.651,-230.5 412.651,-223.5"/>
</g>
<!-- Node13 -->
<g id="node25" class="node"><title>Node13</title>
<a xlink:href="namespaceUtils.xhtml#a6a0ae18a42e2d206bc1b43da27820fe2" target="_top" xlink:title="Gibt den inter/extrapolierten Wert eines Punktes zurück. ">
<polygon fill="none" stroke="black" points="306,-96.5 306,-117.5 410,-117.5 410,-96.5 306,-96.5"/>
<text text-anchor="middle" x="358" y="-104.5" font-family="Helvetica,sans-Serif" font-size="10.00">Utils::getPointValue</text>
</a>
</g>
<!-- Node12&#45;&gt;Node13 -->
<g id="edge24" class="edge"><title>Node12&#45;&gt;Node13</title>
<path fill="none" stroke="midnightblue" d="M262.636,-107C277.217,-107 292.186,-107 305.816,-107"/>
<polygon fill="midnightblue" stroke="midnightblue" points="262.624,-103.5 252.624,-107 262.624,-110.5 262.624,-103.5"/>
</g>
<!-- Node14 -->
<g id="node27" class="node"><title>Node14</title>
<a xlink:href="GUICutRenderWindow_8cpp.xhtml#aeaaae4c8452680389d221d0e60a6fc33" target="_top" xlink:title="Funktion zum verteilten berechnen der 2D&#45;Temperaturverteilung. ">
<polygon fill="none" stroke="black" points="485,-136.5 485,-157.5 561,-157.5 561,-136.5 485,-136.5"/>
<text text-anchor="middle" x="523" y="-144.5" font-family="Helvetica,sans-Serif" font-size="10.00">render_thread</text>
</a>
</g>
<!-- Node13&#45;&gt;Node14 -->
<g id="edge26" class="edge"><title>Node13&#45;&gt;Node14</title>
<path fill="none" stroke="midnightblue" d="M411.378,-119.94C435.379,-125.759 463.152,-132.491 484.99,-137.786"/>
<polygon fill="midnightblue" stroke="midnightblue" points="411.895,-116.464 401.352,-117.51 410.246,-123.267 411.895,-116.464"/>
</g>
<!-- Node15 -->
<g id="node30" class="node"><title>Node15</title>
<a xlink:href="classAnalyzer.xhtml#a8f73ee0aa71ae395a74b43dc76b35458" target="_top" xlink:title="Ermittelt Daten für einen Punkt am aktuell ausgewählten Zeitpunkt. ">
<polygon fill="none" stroke="black" points="464.5,-96.5 464.5,-117.5 581.5,-117.5 581.5,-96.5 464.5,-96.5"/>
<text text-anchor="middle" x="523" y="-104.5" font-family="Helvetica,sans-Serif" font-size="10.00">Analyzer::analyzePoint</text>
</a>
</g>
<!-- Node13&#45;&gt;Node15 -->
<g id="edge30" class="edge"><title>Node13&#45;&gt;Node15</title>
<path fill="none" stroke="midnightblue" d="M420.481,-107C434.838,-107 450.054,-107 464.246,-107"/>
<polygon fill="midnightblue" stroke="midnightblue" points="420.207,-103.5 410.207,-107 420.207,-110.5 420.207,-103.5"/>
</g>
<!-- Node17 -->
<g id="node34" class="node"><title>Node17</title>
<a xlink:href="MeshProcessor_8cpp.xhtml#ad2670c4e8381f9a0a89c65f5559ed421" target="_top" xlink:title="interpolatePoint">
<polygon fill="none" stroke="black" points="481,-53.5 481,-74.5 565,-74.5 565,-53.5 481,-53.5"/>
<text text-anchor="middle" x="523" y="-61.5" font-family="Helvetica,sans-Serif" font-size="10.00">interpolatePoint</text>
</a>
</g>
<!-- Node13&#45;&gt;Node17 -->
<g id="edge34" class="edge"><title>Node13&#45;&gt;Node17</title>
<path fill="none" stroke="midnightblue" d="M408.269,-93.8996C432.055,-87.7008 460.082,-80.3967 482.481,-74.5594"/>
<polygon fill="midnightblue" stroke="midnightblue" points="407.158,-90.5722 398.364,-96.481 408.923,-97.346 407.158,-90.5722"/>
</g>
<!-- Node14&#45;&gt;Node4 -->
<g id="edge28" class="edge"><title>Node14&#45;&gt;Node4</title>
<path fill="none" stroke="midnightblue" d="M551.705,-162.333C579.923,-177.406 622.9,-200.363 652.156,-215.99"/>
<polygon fill="midnightblue" stroke="midnightblue" points="553.211,-159.17 542.742,-157.545 549.913,-165.344 553.211,-159.17"/>
</g>
<!-- Node16 -->
<g id="node32" class="node"><title>Node16</title>
<a xlink:href="classGUIAnalyzePointWindow.xhtml#aa84ea9958e8b41423f01316d01ba5151" target="_top" xlink:title="Event&#45;Tabellendeklaration für wxWidgets. ">
<polygon fill="none" stroke="black" points="620,-92 620,-126 748,-126 748,-92 620,-92"/>
<text text-anchor="start" x="628" y="-113" font-family="Helvetica,sans-Serif" font-size="10.00">GUIAnalyzePointWindow</text>
<text text-anchor="middle" x="684" y="-100" font-family="Helvetica,sans-Serif" font-size="10.00">::analyzePoint</text>
</a>
</g>
<!-- Node15&#45;&gt;Node16 -->
<g id="edge32" class="edge"><title>Node15&#45;&gt;Node16</title>
<path fill="none" stroke="midnightblue" d="M591.602,-107.852C600.94,-107.968 610.495,-108.087 619.752,-108.202"/>
<polygon fill="midnightblue" stroke="midnightblue" points="591.623,-104.352 581.58,-107.728 591.536,-111.352 591.623,-104.352"/>
</g>
<!-- Node18 -->
<g id="node36" class="node"><title>Node18</title>
<a xlink:href="classMeshProcessor.xhtml#a060c3815db33f8e52ac620ed2239ccc9" target="_top" xlink:title="Berechnet die Temperaturverteilung für ein Objekt. ">
<polygon fill="none" stroke="black" points="621.5,-52.5 621.5,-73.5 746.5,-73.5 746.5,-52.5 621.5,-52.5"/>
<text text-anchor="middle" x="684" y="-60.5" font-family="Helvetica,sans-Serif" font-size="10.00">MeshProcessor::process</text>
</a>
</g>
<!-- Node17&#45;&gt;Node18 -->
<g id="edge36" class="edge"><title>Node17&#45;&gt;Node18</title>
<path fill="none" stroke="midnightblue" d="M575.657,-63.6729C590.263,-63.5822 606.264,-63.4828 621.379,-63.389"/>
<polygon fill="midnightblue" stroke="midnightblue" points="575.279,-60.1751 565.301,-63.7373 575.322,-67.175 575.279,-60.1751"/>
</g>
<!-- Node19 -->
<g id="node38" class="node"><title>Node19</title>
<a xlink:href="classAnalyzer.xhtml#a2a7b5f169f664ccd9f206e508cba78ef" target="_top" xlink:title="Ermittelt Daten für ein Objekt. ">
<polygon fill="none" stroke="black" points="784.5,-72.5 784.5,-93.5 907.5,-93.5 907.5,-72.5 784.5,-72.5"/>
<text text-anchor="middle" x="846" y="-80.5" font-family="Helvetica,sans-Serif" font-size="10.00">Analyzer::analyzeObject</text>
</a>
</g>
<!-- Node18&#45;&gt;Node19 -->
<g id="edge38" class="edge"><title>Node18&#45;&gt;Node19</title>
<path fill="none" stroke="midnightblue" d="M756.6,-71.963C765.86,-73.1062 775.268,-74.2677 784.333,-75.3868"/>
<polygon fill="midnightblue" stroke="midnightblue" points="756.987,-68.4842 746.633,-70.7325 756.129,-75.4315 756.987,-68.4842"/>
</g>
<!-- Node23 -->
<g id="node46" class="node"><title>Node23</title>
<a xlink:href="classObjectData.xhtml#af3a850833d08eb9b45357449f455e24d" target="_top" xlink:title="Zerlegt das Objekt in Tetraeder (Schnittstelle zur Tetgen&#45;Bibliothek) und Berechnet die Temperaturver...">
<polygon fill="none" stroke="black" points="785,-32.5 785,-53.5 907,-53.5 907,-32.5 785,-32.5"/>
<text text-anchor="middle" x="846" y="-40.5" font-family="Helvetica,sans-Serif" font-size="10.00">ObjectData::calculateIO</text>
</a>
</g>
<!-- Node18&#45;&gt;Node23 -->
<g id="edge46" class="edge"><title>Node18&#45;&gt;Node23</title>
<path fill="none" stroke="midnightblue" d="M756.745,-54.0192C766.14,-52.8593 775.684,-51.681 784.866,-50.5474"/>
<polygon fill="midnightblue" stroke="midnightblue" points="756.129,-50.5685 746.633,-55.2675 756.987,-57.5158 756.129,-50.5685"/>
</g>
<!-- Node20 -->
<g id="node40" class="node"><title>Node20</title>
<a xlink:href="classGUIAnalyzeOutputWindow.xhtml#a9ea5a7cf46d6189f368315903508cecc" target="_top" xlink:title="Methode zum aktualisieren des Fensters, alle Objekte werden erneut analysiert und die aktualisierten ...">
<polygon fill="none" stroke="black" points="952,-92 952,-126 1086,-126 1086,-92 952,-92"/>
<text text-anchor="start" x="960" y="-113" font-family="Helvetica,sans-Serif" font-size="10.00">GUIAnalyzeOutputWindow</text>
<text text-anchor="middle" x="1019" y="-100" font-family="Helvetica,sans-Serif" font-size="10.00">::Update</text>
</a>
</g>
<!-- Node19&#45;&gt;Node20 -->
<g id="edge40" class="edge"><title>Node19&#45;&gt;Node20</title>
<path fill="none" stroke="midnightblue" d="M918.127,-93.8399C929.313,-95.5211 940.83,-97.2519 951.9,-98.9156"/>
<polygon fill="midnightblue" stroke="midnightblue" points="918.377,-90.3383 907.968,-92.3132 917.337,-97.2606 918.377,-90.3383"/>
</g>
<!-- Node22 -->
<g id="node44" class="node"><title>Node22</title>
<a xlink:href="classGUITimeline.xhtml#a099f3654aa6e7ea04df861851a0e9ec8" target="_top" xlink:title="Sucht den Zeitpunkt zwischen zwei markierten Stellen auf der Sensordaten&#45;Zeitleiste, für den der Wäremeenergiegehalt maximal wird. ">
<polygon fill="none" stroke="black" points="950.5,-52.5 950.5,-73.5 1087.5,-73.5 1087.5,-52.5 950.5,-52.5"/>
<text text-anchor="middle" x="1019" y="-60.5" font-family="Helvetica,sans-Serif" font-size="10.00">GUITimeline::findMaxValue</text>
</a>
</g>
<!-- Node19&#45;&gt;Node22 -->
<g id="edge44" class="edge"><title>Node19&#45;&gt;Node22</title>
<path fill="none" stroke="midnightblue" d="M918.108,-74.6638C928.804,-73.4273 939.801,-72.1559 950.422,-70.9281"/>
<polygon fill="midnightblue" stroke="midnightblue" points="917.5,-71.2107 907.968,-75.836 918.304,-78.1644 917.5,-71.2107"/>
</g>
<!-- Node21 -->
<g id="node42" class="node"><title>Node21</title>
<a xlink:href="classGUIAnalyzeOutputWindow.xhtml#af9407245a6b2a0478579c4d592a31e63" target="_top" xlink:title="Der Konstruktor. ">
<polygon fill="none" stroke="black" points="1130,-92 1130,-126 1270,-126 1270,-92 1130,-92"/>
<text text-anchor="start" x="1138" y="-113" font-family="Helvetica,sans-Serif" font-size="10.00">GUIAnalyzeOutputWindow</text>
<text text-anchor="middle" x="1200" y="-100" font-family="Helvetica,sans-Serif" font-size="10.00">::GUIAnalyzeOutputWindow</text>
</a>
</g>
<!-- Node20&#45;&gt;Node21 -->
<g id="edge42" class="edge"><title>Node20&#45;&gt;Node21</title>
<path fill="none" stroke="midnightblue" d="M1096.3,-109C1107.47,-109 1118.92,-109 1129.94,-109"/>
<polygon fill="midnightblue" stroke="midnightblue" points="1096.14,-105.5 1086.14,-109 1096.14,-112.5 1096.14,-105.5"/>
</g>
<!-- Node23&#45;&gt;Node22 -->
<g id="edge50" class="edge"><title>Node23&#45;&gt;Node22</title>
<path fill="none" stroke="midnightblue" d="M917.714,-51.2906C928.512,-52.539 939.628,-53.824 950.36,-55.0647"/>
<polygon fill="midnightblue" stroke="midnightblue" points="917.816,-47.7792 907.48,-50.1076 917.012,-54.7329 917.816,-47.7792"/>
</g>
<!-- Node24 -->
<g id="node48" class="node"><title>Node24</title>
<a xlink:href="classGUIMainWindow.xhtml#a0c2de30274c7f52ff74ec1217e47a9e5" target="_top" xlink:title="Berechnet die 3D&#45;Temperaturverteilung neu. ">
<polygon fill="none" stroke="black" points="944,-0 944,-34 1094,-34 1094,-0 944,-0"/>
<text text-anchor="start" x="952" y="-21" font-family="Helvetica,sans-Serif" font-size="10.00">GUIMainWindow::OnRecalcBt</text>
<text text-anchor="middle" x="1019" y="-8" font-family="Helvetica,sans-Serif" font-size="10.00">Click</text>
</a>
</g>
<!-- Node23&#45;&gt;Node24 -->
<g id="edge48" class="edge"><title>Node23&#45;&gt;Node24</title>
<path fill="none" stroke="midnightblue" d="M917.534,-32.2492C926.197,-30.9472 935.067,-29.6141 943.782,-28.3044"/>
<polygon fill="midnightblue" stroke="midnightblue" points="916.849,-28.8128 907.48,-33.7602 917.89,-35.735 916.849,-28.8128"/>
</g>
<!-- Node26 -->
<g id="node53" class="node"><title>Node26</title>
<a xlink:href="namespaceUtils.xhtml#af8fc5d6dab27f759ab5d76757a53023f" target="_top" xlink:title="Testet, ob sich ein Punkt innerhalb eines Körpers befindet. ">
<polygon fill="none" stroke="black" points="301,-136.5 301,-157.5 415,-157.5 415,-136.5 301,-136.5"/>
<text text-anchor="middle" x="358" y="-144.5" font-family="Helvetica,sans-Serif" font-size="10.00">Utils::pointInsideMesh</text>
</a>
</g>
<!-- Node25&#45;&gt;Node26 -->
<g id="edge54" class="edge"><title>Node25&#45;&gt;Node26</title>
<path fill="none" stroke="midnightblue" d="M264.323,-147C276.591,-147 289.087,-147 300.785,-147"/>
<polygon fill="midnightblue" stroke="midnightblue" points="264.093,-143.5 254.093,-147 264.093,-150.5 264.093,-143.5"/>
</g>
<!-- Node26&#45;&gt;Node14 -->
<g id="edge56" class="edge"><title>Node26&#45;&gt;Node14</title>
<path fill="none" stroke="midnightblue" d="M425.371,-147C445.609,-147 467.105,-147 484.759,-147"/>
<polygon fill="midnightblue" stroke="midnightblue" points="425.246,-143.5 415.246,-147 425.246,-150.5 425.246,-143.5"/>
</g>
</g>
</svg>
        <g id="navigator" transform="translate(0 0)" fill="#404254">
                <rect fill="#f2f5e9" fill-opacity="0.5" stroke="#606060" stroke-width=".5" x="0" y="0" width="60" height="60"/>
                <use id="zoomplus" xlink:href="#zoomPlus" x="17" y="9" onmousedown="handleZoom(evt,'in')"/>
                <use id="zoomminus" xlink:href="#zoomMin" x="42" y="9" onmousedown="handleZoom(evt,'out')"/>
                <use id="reset" xlink:href="#resetDef" x="30" y="36" onmousedown="handleReset()"/>
                <g id="arrowUp" xlink:href="#dirArrow" transform="translate(30 24)" onmousedown="handlePan(0,-1)">
                  <use xlink:href="#rim" fill="#404040">
                        <set attributeName="fill" to="#808080" begin="arrowUp.mouseover" end="arrowUp.mouseout"/>
                  </use>
                  <path fill="none" stroke="white" stroke-width="1.5" d="M0,-3.0v7 M-2.5,-0.5L0,-3.0L2.5,-0.5"/>
                </g>
                <g id="arrowRight" xlink:href="#dirArrow" transform="rotate(90) translate(36 -43)" onmousedown="handlePan(1,0)">
                  <use xlink:href="#rim" fill="#404040">
                        <set attributeName="fill" to="#808080" begin="arrowRight.mouseover" end="arrowRight.mouseout"/>
                  </use>
                  <path fill="none" stroke="white" stroke-width="1.5" d="M0,-3.0v7 M-2.5,-0.5L0,-3.0L2.5,-0.5"/>
                </g>
                <g id="arrowDown" xlink:href="#dirArrow" transform="rotate(180) translate(-30 -48)" onmousedown="handlePan(0,1)">
                  <use xlink:href="#rim" fill="#404040">
                        <set attributeName="fill" to="#808080" begin="arrowDown.mouseover" end="arrowDown.mouseout"/>
                  </use>
                  <path fill="none" stroke="white" stroke-width="1.5" d="M0,-3.0v7 M-2.5,-0.5L0,-3.0L2.5,-0.5"/>
                </g>
                <g id="arrowLeft" xlink:href="#dirArrow" transform="rotate(270) translate(-36 17)" onmousedown="handlePan(-1,0)">
                  <use xlink:href="#rim" fill="#404040">
                        <set attributeName="fill" to="#808080" begin="arrowLeft.mouseover" end="arrowLeft.mouseout"/>
                  </use>
                  <path fill="none" stroke="white" stroke-width="1.5" d="M0,-3.0v7 M-2.5,-0.5L0,-3.0L2.5,-0.5"/>
                </g>
        </g>
        <svg viewBox="0 0 15 15" width="100%" height="30px" preserveAspectRatio="xMaxYMin meet">
         <g id="arrow_out" transform="scale(0.3 0.3)">
          <a xlink:href="classTriangle_ae054a0eae5dae026c5af69274c5f277e_icgraph_org.svg" target="_base">
           <rect id="button" ry="5" rx="5" y="6" x="6" height="38" width="38"
                fill="#f2f5e9" fill-opacity="0.5" stroke="#606060" stroke-width="1.0"/>
           <path id="arrow"
             d="M 11.500037,31.436501 C 11.940474,20.09759 22.043105,11.32322 32.158766,21.979434 L 37.068811,17.246167 C 37.068811,17.246167 37.088388,32 37.088388,32 L 22.160133,31.978069 C 22.160133,31.978069 26.997745,27.140456 26.997745,27.140456 C 18.528582,18.264221 13.291696,25.230495 11.500037,31.436501 z"
             style="fill:#404040;"/>
          </a>
         </g>
        </svg>
</svg>
