<?xml version="1.0" encoding="UTF-8" standalone="no"?>
<!DOCTYPE svg PUBLIC "-//W3C//DTD SVG 1.1//EN"
 "http://www.w3.org/Graphics/SVG/1.1/DTD/svg11.dtd">
<!-- Generated by graphviz version 2.26.3 (20100126.1600)
 -->
<!-- Title: GUIRenderCutCanvas::getScalePanel Pages: 1 -->
<svg width="464pt" height="198pt"
 viewBox="0.00 0.00 464.00 198.00" xmlns="http://www.w3.org/2000/svg" xmlns:xlink="http://www.w3.org/1999/xlink">
<g id="graph1" class="graph" transform="scale(1 1) rotate(0) translate(4 194)">
<title>GUIRenderCutCanvas::getScalePanel</title>
<!-- Node1 -->
<g id="node1" class="node"><title>Node1</title>
<polygon fill="#bfbfbf" stroke="black" points="0,-78 0,-112 116,-112 116,-78 0,-78"/>
<text text-anchor="start" x="8" y="-99" font-family="Helvetica,sans-Serif" font-size="10.00">GUIRenderCutCanvas</text>
<text text-anchor="middle" x="58" y="-86" font-family="Helvetica,sans-Serif" font-size="10.00">::getScalePanel</text>
</g>
<!-- Node2 -->
<g id="node3" class="node"><title>Node2</title>
<a xlink:href="classGUICutRenderWindow.xhtml#a9eedb7088ad31f4680a77ed3a06fa60c" target="_top" xlink:title="GUICutRenderWindow\l::renderImage">
<polygon fill="none" stroke="black" points="154.5,-156 154.5,-190 271.5,-190 271.5,-156 154.5,-156"/>
<text text-anchor="start" x="162.5" y="-177" font-family="Helvetica,sans-Serif" font-size="10.00">GUICutRenderWindow</text>
<text text-anchor="middle" x="213" y="-164" font-family="Helvetica,sans-Serif" font-size="10.00">::renderImage</text>
</a>
</g>
<!-- Node1&#45;&gt;Node2 -->
<g id="edge2" class="edge"><title>Node1&#45;&gt;Node2</title>
<path fill="none" stroke="midnightblue" d="M96.2326,-117.313C113.117,-126.863 133.334,-137.888 152,-147 158.207,-150.03 164.856,-153.068 171.398,-155.943"/>
<polygon fill="midnightblue" stroke="midnightblue" points="97.6473,-114.091 87.226,-112.181 94.1817,-120.173 97.6473,-114.091"/>
</g>
<!-- Node4 -->
<g id="node7" class="node"><title>Node4</title>
<a xlink:href="classGUICutRenderWindow.xhtml#a97f4602acc61f4b62c4d90ddbb692a25" target="_top" xlink:title="GUICutRenderWindow\l::OnExportImage">
<polygon fill="none" stroke="black" points="154.5,-104 154.5,-138 271.5,-138 271.5,-104 154.5,-104"/>
<text text-anchor="start" x="162.5" y="-125" font-family="Helvetica,sans-Serif" font-size="10.00">GUICutRenderWindow</text>
<text text-anchor="middle" x="213" y="-112" font-family="Helvetica,sans-Serif" font-size="10.00">::OnExportImage</text>
</a>
</g>
<!-- Node1&#45;&gt;Node4 -->
<g id="edge6" class="edge"><title>Node1&#45;&gt;Node4</title>
<path fill="none" stroke="midnightblue" d="M126.207,-106.441C135.56,-108.01 145.095,-109.61 154.259,-111.147"/>
<polygon fill="midnightblue" stroke="midnightblue" points="126.599,-102.958 116.157,-104.755 125.44,-109.862 126.599,-102.958"/>
</g>
<!-- Node5 -->
<g id="node9" class="node"><title>Node5</title>
<a xlink:href="classGUICutRenderWindow.xhtml#a0923a36cdf4e0094d78f623693ff8ac6" target="_top" xlink:title="GUICutRenderWindow\l::OnCSColorBtClick">
<polygon fill="none" stroke="black" points="154.5,-52 154.5,-86 271.5,-86 271.5,-52 154.5,-52"/>
<text text-anchor="start" x="162.5" y="-73" font-family="Helvetica,sans-Serif" font-size="10.00">GUICutRenderWindow</text>
<text text-anchor="middle" x="213" y="-60" font-family="Helvetica,sans-Serif" font-size="10.00">::OnCSColorBtClick</text>
</a>
</g>
<!-- Node1&#45;&gt;Node5 -->
<g id="edge8" class="edge"><title>Node1&#45;&gt;Node5</title>
<path fill="none" stroke="midnightblue" d="M126.207,-83.5588C135.56,-81.99 145.095,-80.3904 154.259,-78.8534"/>
<polygon fill="midnightblue" stroke="midnightblue" points="125.44,-80.1384 116.157,-85.2446 126.599,-87.042 125.44,-80.1384"/>
</g>
<!-- Node6 -->
<g id="node11" class="node"><title>Node6</title>
<a xlink:href="classGUICutRenderWindow.xhtml#a25feed7d1598253a25fc9c3bfe4131ec" target="_top" xlink:title="GUICutRenderWindow\l::OnColorScaleChanged">
<polygon fill="none" stroke="black" points="152,-0 152,-34 274,-34 274,-0 152,-0"/>
<text text-anchor="start" x="160" y="-21" font-family="Helvetica,sans-Serif" font-size="10.00">GUICutRenderWindow</text>
<text text-anchor="middle" x="213" y="-8" font-family="Helvetica,sans-Serif" font-size="10.00">::OnColorScaleChanged</text>
</a>
</g>
<!-- Node1&#45;&gt;Node6 -->
<g id="edge10" class="edge"><title>Node1&#45;&gt;Node6</title>
<path fill="none" stroke="midnightblue" d="M96.2326,-72.6871C113.117,-63.1373 133.334,-52.1115 152,-43 158.207,-39.9701 164.856,-36.9322 171.398,-34.0566"/>
<polygon fill="midnightblue" stroke="midnightblue" points="94.1817,-69.8274 87.226,-77.8192 97.6473,-75.9093 94.1817,-69.8274"/>
</g>
<!-- Node3 -->
<g id="node5" class="node"><title>Node3</title>
<a xlink:href="classGUICutRenderWindow.xhtml#a7cd1bfbec53756a1cbbe1616b4d46c7a" target="_top" xlink:title="GUICutRenderWindow\l::renderCutBtClick">
<polygon fill="none" stroke="black" points="324.5,-156 324.5,-190 441.5,-190 441.5,-156 324.5,-156"/>
<text text-anchor="start" x="332.5" y="-177" font-family="Helvetica,sans-Serif" font-size="10.00">GUICutRenderWindow</text>
<text text-anchor="middle" x="383" y="-164" font-family="Helvetica,sans-Serif" font-size="10.00">::renderCutBtClick</text>
</a>
</g>
<!-- Node2&#45;&gt;Node3 -->
<g id="edge4" class="edge"><title>Node2&#45;&gt;Node3</title>
<path fill="none" stroke="midnightblue" d="M281.68,-173C295.839,-173 310.626,-173 324.388,-173"/>
<polygon fill="midnightblue" stroke="midnightblue" points="281.504,-169.5 271.504,-173 281.504,-176.5 281.504,-169.5"/>
</g>
<!-- Node7 -->
<g id="node13" class="node"><title>Node7</title>
<a xlink:href="classGUICutRenderWindow.xhtml#a3a2c47b00b30661632dae29eed266438" target="_top" xlink:title="GUICutRenderWindow\l::OnColorScaleChanged_spin">
<polygon fill="none" stroke="black" points="310,-0 310,-34 456,-34 456,-0 310,-0"/>
<text text-anchor="start" x="318" y="-21" font-family="Helvetica,sans-Serif" font-size="10.00">GUICutRenderWindow</text>
<text text-anchor="middle" x="383" y="-8" font-family="Helvetica,sans-Serif" font-size="10.00">::OnColorScaleChanged_spin</text>
</a>
</g>
<!-- Node6&#45;&gt;Node7 -->
<g id="edge12" class="edge"><title>Node6&#45;&gt;Node7</title>
<path fill="none" stroke="midnightblue" d="M284.488,-17C292.872,-17 301.435,-17 309.841,-17"/>
<polygon fill="midnightblue" stroke="midnightblue" points="284.374,-13.5001 274.374,-17 284.374,-20.5001 284.374,-13.5001"/>
</g>
</g>
</svg>
