<?xml version="1.0" encoding="UTF-8" standalone="no"?>
<!DOCTYPE svg PUBLIC "-//W3C//DTD SVG 1.1//EN"
 "http://www.w3.org/Graphics/SVG/1.1/DTD/svg11.dtd">
<!-- Generated by graphviz version 2.26.3 (20100126.1600)
 -->
<!-- Title: tetgenmesh::flip22 Pages: 1 -->
<!--zoomable 998 -->
<svg id="main" version="1.1" xmlns="http://www.w3.org/2000/svg" xmlns:xlink="http://www.w3.org/1999/xlink" xml:space="preserve" onload="init(evt)">
<style type="text/css"><![CDATA[
.edge:hover path { stroke: red; }
.edge:hover polygon { stroke: red; fill: red; }
]]></style>
<script type="text/javascript"><![CDATA[
var edges = document.getElementsByTagName('g');
if (edges && edges.length) {
  for (var i=0;i<edges.length;i++) {
    if (edges[i].id.substr(0,4)=='edge') {
      edges[i].setAttribute('class','edge');
    }
  }
}
]]></script>
        <defs>
                <circle id="rim" cx="0" cy="0" r="7"/>
                <circle id="rim2" cx="0" cy="0" r="3.5"/>
                <g id="zoomPlus">
                        <use xlink:href="#rim" fill="#404040">
                                <set attributeName="fill" to="#808080" begin="zoomplus.mouseover" end="zoomplus.mouseout"/>
                        </use>
                        <path d="M-4,0h8M0,-4v8" fill="none" stroke="white" stroke-width="1.5" pointer-events="none"/>
                </g>
                <g id="zoomMin">
                        <use xlink:href="#rim" fill="#404040">
                                <set attributeName="fill" to="#808080" begin="zoomminus.mouseover" end="zoomminus.mouseout"/>
                        </use>
                        <path d="M-4,0h8" fill="none" stroke="white" stroke-width="1.5" pointer-events="none"/>
                </g>
                <g id="dirArrow">
                        <path fill="none" stroke="white" stroke-width="1.5" d="M0,-3.0v7 M-2.5,-0.5L0,-3.0L2.5,-0.5"/>
                </g>
               <g id="resetDef">
                       <use xlink:href="#rim2" fill="#404040">
                               <set attributeName="fill" to="#808080" begin="reset.mouseover" end="reset.mouseout"/>
                       </use>
               </g>
        </defs>

<script type="text/javascript">
var viewWidth = 808;
var viewHeight = 998;
var sectionId = 'dynsection-110';
</script>
<script xlink:href="svgpan.js"/>
<svg id="graph" class="graph">
<g id="viewport">
<title>tetgenmesh::flip22</title>
<!-- Node1 -->
<g id="node1" class="node"><title>Node1</title>
<polygon fill="#bfbfbf" stroke="black" points="0.5,-338.5 0.5,-359.5 97.5,-359.5 97.5,-338.5 0.5,-338.5"/>
<text text-anchor="middle" x="49" y="-346.5" font-family="Helvetica,sans-Serif" font-size="10.00">tetgenmesh::flip22</text>
</g>
<!-- Node2 -->
<g id="node3" class="node"><title>Node2</title>
<a xlink:href="classtetgenmesh.xhtml#a66e4aa0af0703d1cb1a88e6d5f5a7fe6" target="_top" xlink:title="tetgenmesh::outfaces">
<polygon fill="none" stroke="black" points="151.5,-518.5 151.5,-539.5 262.5,-539.5 262.5,-518.5 151.5,-518.5"/>
<text text-anchor="middle" x="207" y="-526.5" font-family="Helvetica,sans-Serif" font-size="10.00">tetgenmesh::outfaces</text>
</a>
</g>
<!-- Node1&#45;&gt;Node2 -->
<g id="edge2" class="edge"><title>Node1&#45;&gt;Node2</title>
<path fill="none" stroke="midnightblue" d="M51.563,-359.87C58.9648,-388.814 83.1653,-468.316 134,-509 136.565,-511.053 139.325,-512.895 142.218,-514.549"/>
<polygon fill="midnightblue" stroke="midnightblue" points="140.711,-517.709 151.231,-518.966 143.792,-511.423 140.711,-517.709"/>
</g>
<!-- Node21 -->
<g id="node41" class="node"><title>Node21</title>
<a xlink:href="classtetgenmesh.xhtml#a55db9a054b722d91a17b82d442f88f4c" target="_top" xlink:title="tetgenmesh::sorg">
<polygon fill="none" stroke="black" points="349,-836.5 349,-857.5 441,-857.5 441,-836.5 349,-836.5"/>
<text text-anchor="middle" x="395" y="-844.5" font-family="Helvetica,sans-Serif" font-size="10.00">tetgenmesh::sorg</text>
</a>
</g>
<!-- Node1&#45;&gt;Node21 -->
<g id="edge40" class="edge"><title>Node1&#45;&gt;Node21</title>
<path fill="none" stroke="midnightblue" d="M49.8818,-359.566C53.6992,-400.478 71.539,-551.339 134,-655 191.44,-750.328 218.465,-773.392 316,-827 323.14,-830.924 331.065,-834.095 339.061,-836.653"/>
<polygon fill="midnightblue" stroke="midnightblue" points="338.222,-840.054 348.801,-839.478 340.172,-833.331 338.222,-840.054"/>
</g>
<!-- Node22 -->
<g id="node43" class="node"><title>Node22</title>
<a xlink:href="classtetgenmesh.xhtml#aa6017928ea3dc0b8ba39e7f24ea312b2" target="_top" xlink:title="tetgenmesh::sdest">
<polygon fill="none" stroke="black" points="346,-796.5 346,-817.5 444,-817.5 444,-796.5 346,-796.5"/>
<text text-anchor="middle" x="395" y="-804.5" font-family="Helvetica,sans-Serif" font-size="10.00">tetgenmesh::sdest</text>
</a>
</g>
<!-- Node1&#45;&gt;Node22 -->
<g id="edge42" class="edge"><title>Node1&#45;&gt;Node22</title>
<path fill="none" stroke="midnightblue" d="M52.478,-359.889C62.5845,-390.788 93.7988,-481.166 134,-549 187.402,-639.107 218.089,-649.512 280,-734 296.831,-756.969 292.677,-770.663 316,-787 322.055,-791.241 328.929,-794.584 336.036,-797.219"/>
<polygon fill="midnightblue" stroke="midnightblue" points="335.224,-800.635 345.816,-800.391 337.383,-793.977 335.224,-800.635"/>
</g>
<!-- Node23 -->
<g id="node45" class="node"><title>Node23</title>
<a xlink:href="classtetgenmesh.xhtml#a273687e8175a97ef3d97e4d3a5d03d3c" target="_top" xlink:title="tetgenmesh::sapex">
<polygon fill="none" stroke="black" points="157,-398.5 157,-419.5 257,-419.5 257,-398.5 157,-398.5"/>
<text text-anchor="middle" x="207" y="-406.5" font-family="Helvetica,sans-Serif" font-size="10.00">tetgenmesh::sapex</text>
</a>
</g>
<!-- Node1&#45;&gt;Node23 -->
<g id="edge44" class="edge"><title>Node1&#45;&gt;Node23</title>
<path fill="none" stroke="midnightblue" d="M68.8466,-359.537C85.812,-368.251 111.05,-380.528 134,-389 140.378,-391.354 147.159,-393.574 153.92,-395.617"/>
<polygon fill="midnightblue" stroke="midnightblue" points="153.183,-399.047 163.762,-398.479 155.137,-392.326 153.183,-399.047"/>
</g>
<!-- Node24 -->
<g id="node47" class="node"><title>Node24</title>
<a xlink:href="classtetgenmesh.xhtml#a867b8f5e8312c7a918eb96813a6f6de7" target="_top" xlink:title="tetgenmesh::sesymself">
<polygon fill="none" stroke="black" points="147.5,-358.5 147.5,-379.5 266.5,-379.5 266.5,-358.5 147.5,-358.5"/>
<text text-anchor="middle" x="207" y="-366.5" font-family="Helvetica,sans-Serif" font-size="10.00">tetgenmesh::sesymself</text>
</a>
</g>
<!-- Node1&#45;&gt;Node24 -->
<g id="edge46" class="edge"><title>Node1&#45;&gt;Node24</title>
<path fill="none" stroke="midnightblue" d="M97.6944,-355.164C110.194,-356.746 123.888,-358.479 137.225,-360.168"/>
<polygon fill="midnightblue" stroke="midnightblue" points="136.969,-363.663 147.329,-361.447 137.848,-356.719 136.969,-363.663"/>
</g>
<!-- Node25 -->
<g id="node49" class="node"><title>Node25</title>
<a xlink:href="classtetgenmesh.xhtml#a5e0c9efed1fb3a19ed5c2b0721086840" target="_top" xlink:title="tetgenmesh::senext">
<polygon fill="none" stroke="black" points="155.5,-318.5 155.5,-339.5 258.5,-339.5 258.5,-318.5 155.5,-318.5"/>
<text text-anchor="middle" x="207" y="-326.5" font-family="Helvetica,sans-Serif" font-size="10.00">tetgenmesh::senext</text>
</a>
</g>
<!-- Node1&#45;&gt;Node25 -->
<g id="edge48" class="edge"><title>Node1&#45;&gt;Node25</title>
<path fill="none" stroke="midnightblue" d="M97.6944,-342.836C112.719,-340.934 129.468,-338.814 145.25,-336.816"/>
<polygon fill="midnightblue" stroke="midnightblue" points="145.973,-340.253 155.454,-335.525 145.094,-333.308 145.973,-340.253"/>
</g>
<!-- Node26 -->
<g id="node51" class="node"><title>Node26</title>
<a xlink:href="classtetgenmesh.xhtml#a9e2a0e8ac94c6273dd98c83b6c4bb0d9" target="_top" xlink:title="tetgenmesh::senext2">
<polygon fill="none" stroke="black" points="153,-278.5 153,-299.5 261,-299.5 261,-278.5 153,-278.5"/>
<text text-anchor="middle" x="207" y="-286.5" font-family="Helvetica,sans-Serif" font-size="10.00">tetgenmesh::senext2</text>
</a>
</g>
<!-- Node1&#45;&gt;Node26 -->
<g id="edge50" class="edge"><title>Node1&#45;&gt;Node26</title>
<path fill="none" stroke="midnightblue" d="M68.8466,-338.463C85.812,-329.749 111.05,-317.472 134,-309 140.378,-306.646 147.159,-304.426 153.92,-302.383"/>
<polygon fill="midnightblue" stroke="midnightblue" points="155.137,-305.674 163.762,-299.521 153.183,-298.953 155.137,-305.674"/>
</g>
<!-- Node27 -->
<g id="node53" class="node"><title>Node27</title>
<a xlink:href="classtetgenmesh.xhtml#a5066bdb73c8fc7d21ea6c9bc2974e059" target="_top" xlink:title="tetgenmesh::spivot">
<polygon fill="none" stroke="black" points="157,-478.5 157,-499.5 257,-499.5 257,-478.5 157,-478.5"/>
<text text-anchor="middle" x="207" y="-486.5" font-family="Helvetica,sans-Serif" font-size="10.00">tetgenmesh::spivot</text>
</a>
</g>
<!-- Node1&#45;&gt;Node27 -->
<g id="edge52" class="edge"><title>Node1&#45;&gt;Node27</title>
<path fill="none" stroke="midnightblue" d="M53.4187,-359.51C63.8222,-382.943 92.1763,-439.709 134,-469 138.026,-471.82 142.434,-474.242 147.027,-476.324"/>
<polygon fill="midnightblue" stroke="midnightblue" points="146.063,-479.707 156.65,-480.135 148.641,-473.199 146.063,-479.707"/>
</g>
<!-- Node28 -->
<g id="node56" class="node"><title>Node28</title>
<a xlink:href="classtetgenmesh.xhtml#a0c20f7727f97d5d31f9d853d85267a21" target="_top" xlink:title="tetgenmesh::sspivot">
<polygon fill="none" stroke="black" points="154.5,-438.5 154.5,-459.5 259.5,-459.5 259.5,-438.5 154.5,-438.5"/>
<text text-anchor="middle" x="207" y="-446.5" font-family="Helvetica,sans-Serif" font-size="10.00">tetgenmesh::sspivot</text>
</a>
</g>
<!-- Node1&#45;&gt;Node28 -->
<g id="edge56" class="edge"><title>Node1&#45;&gt;Node28</title>
<path fill="none" stroke="midnightblue" d="M57.2167,-359.537C71.1516,-376.683 101.127,-410.558 134,-429 137.909,-431.193 142.072,-433.157 146.353,-434.913"/>
<polygon fill="midnightblue" stroke="midnightblue" points="145.264,-438.242 155.857,-438.436 147.697,-431.679 145.264,-438.242"/>
</g>
<!-- Node29 -->
<g id="node59" class="node"><title>Node29</title>
<a xlink:href="classtetgenmesh.xhtml#a87204594ee11bb38e68e0381e6e04b6c" target="_top" xlink:title="tetgenmesh::pointtype">
<polygon fill="none" stroke="black" points="150.5,-238.5 150.5,-259.5 263.5,-259.5 263.5,-238.5 150.5,-238.5"/>
<text text-anchor="middle" x="207" y="-246.5" font-family="Helvetica,sans-Serif" font-size="10.00">tetgenmesh::pointtype</text>
</a>
</g>
<!-- Node1&#45;&gt;Node29 -->
<g id="edge60" class="edge"><title>Node1&#45;&gt;Node29</title>
<path fill="none" stroke="midnightblue" d="M57.2167,-338.463C71.1516,-321.317 101.127,-287.442 134,-269 137.909,-266.807 142.072,-264.843 146.353,-263.087"/>
<polygon fill="midnightblue" stroke="midnightblue" points="147.697,-266.321 155.857,-259.564 145.264,-259.758 147.697,-266.321"/>
</g>
<!-- Node30 -->
<g id="node61" class="node"><title>Node30</title>
<a xlink:href="classtetgenmesh.xhtml#a7f6bda7c35edc24c58af75365b42398c" target="_top" xlink:title="tetgenmesh::setpoint2sh">
<polygon fill="none" stroke="black" points="145,-198.5 145,-219.5 269,-219.5 269,-198.5 145,-198.5"/>
<text text-anchor="middle" x="207" y="-206.5" font-family="Helvetica,sans-Serif" font-size="10.00">tetgenmesh::setpoint2sh</text>
</a>
</g>
<!-- Node1&#45;&gt;Node30 -->
<g id="edge62" class="edge"><title>Node1&#45;&gt;Node30</title>
<path fill="none" stroke="midnightblue" d="M53.4187,-338.49C63.8222,-315.057 92.1763,-258.291 134,-229 136.745,-227.078 139.667,-225.34 142.704,-223.769"/>
<polygon fill="midnightblue" stroke="midnightblue" points="144.416,-226.837 152.098,-219.539 141.542,-220.454 144.416,-226.837"/>
</g>
<!-- Node31 -->
<g id="node63" class="node"><title>Node31</title>
<a xlink:href="classtetgenmesh.xhtml#a6ed111e5eb830d867ab5fa47113313a1" target="_top" xlink:title="tetgenmesh::sencode">
<polygon fill="none" stroke="black" points="340,-110.5 340,-131.5 450,-131.5 450,-110.5 340,-110.5"/>
<text text-anchor="middle" x="395" y="-118.5" font-family="Helvetica,sans-Serif" font-size="10.00">tetgenmesh::sencode</text>
</a>
</g>
<!-- Node1&#45;&gt;Node31 -->
<g id="edge64" class="edge"><title>Node1&#45;&gt;Node31</title>
<path fill="none" stroke="midnightblue" d="M51.5345,-338.094C58.8656,-309.061 82.9062,-229.358 134,-189 186.616,-147.439 215.116,-167.907 280,-151 301.18,-145.481 324.553,-139.385 344.665,-134.137"/>
<polygon fill="midnightblue" stroke="midnightblue" points="345.761,-137.469 354.553,-131.557 343.994,-130.695 345.761,-137.469"/>
</g>
<!-- Node32 -->
<g id="node65" class="node"><title>Node32</title>
<a xlink:href="classtetgenmesh.xhtml#ab87f8abb2a585813daa8c627ba2bd75d" target="_top" xlink:title="tetgenmesh::sbond1">
<polygon fill="none" stroke="black" points="154.5,-120.5 154.5,-141.5 259.5,-141.5 259.5,-120.5 154.5,-120.5"/>
<text text-anchor="middle" x="207" y="-128.5" font-family="Helvetica,sans-Serif" font-size="10.00">tetgenmesh::sbond1</text>
</a>
</g>
<!-- Node1&#45;&gt;Node32 -->
<g id="edge66" class="edge"><title>Node1&#45;&gt;Node32</title>
<path fill="none" stroke="midnightblue" d="M50.6819,-338.05C56.2543,-305.484 77.105,-208.258 134,-156 138.361,-151.994 143.393,-148.627 148.733,-145.796"/>
<polygon fill="midnightblue" stroke="midnightblue" points="150.349,-148.904 157.948,-141.521 147.404,-142.554 150.349,-148.904"/>
</g>
<!-- Node33 -->
<g id="node68" class="node"><title>Node33</title>
<a xlink:href="classtetgenmesh.xhtml#a79054e4aa576c7d56742b0008f60c268" target="_top" xlink:title="tetgenmesh::sdissolve">
<polygon fill="none" stroke="black" points="149.5,-40.5 149.5,-61.5 264.5,-61.5 264.5,-40.5 149.5,-40.5"/>
<text text-anchor="middle" x="207" y="-48.5" font-family="Helvetica,sans-Serif" font-size="10.00">tetgenmesh::sdissolve</text>
</a>
</g>
<!-- Node1&#45;&gt;Node33 -->
<g id="edge70" class="edge"><title>Node1&#45;&gt;Node33</title>
<path fill="none" stroke="midnightblue" d="M50.8607,-338.287C59.0936,-292.055 93.6296,-110.204 134,-71 135.938,-69.1176 138.036,-67.4085 140.256,-65.8571"/>
<polygon fill="midnightblue" stroke="midnightblue" points="142.422,-68.6483 149.338,-60.6217 138.926,-62.5838 142.422,-68.6483"/>
</g>
<!-- Node34 -->
<g id="node70" class="node"><title>Node34</title>
<a xlink:href="classtetgenmesh.xhtml#a3455f1e360143408fa4436b4abdf0829" target="_top" xlink:title="tetgenmesh::ssbond">
<polygon fill="none" stroke="black" points="154.5,-80.5 154.5,-101.5 259.5,-101.5 259.5,-80.5 154.5,-80.5"/>
<text text-anchor="middle" x="207" y="-88.5" font-family="Helvetica,sans-Serif" font-size="10.00">tetgenmesh::ssbond</text>
</a>
</g>
<!-- Node1&#45;&gt;Node34 -->
<g id="edge72" class="edge"><title>Node1&#45;&gt;Node34</title>
<path fill="none" stroke="midnightblue" d="M49.4712,-338.363C51.7104,-301.15 64.3407,-175.582 134,-111 137.343,-107.901 141.12,-105.275 145.152,-103.05"/>
<polygon fill="midnightblue" stroke="midnightblue" points="146.723,-106.179 154.318,-98.7926 143.774,-99.8307 146.723,-106.179"/>
</g>
<!-- Node35 -->
<g id="node73" class="node"><title>Node35</title>
<a xlink:href="classtetgenmesh.xhtml#aa6b6a173116973ca6ecb08f538321ebd" target="_top" xlink:title="tetgenmesh::enqueuesubface">
<polygon fill="none" stroke="black" points="134.5,-905.5 134.5,-926.5 279.5,-926.5 279.5,-905.5 134.5,-905.5"/>
<text text-anchor="middle" x="207" y="-913.5" font-family="Helvetica,sans-Serif" font-size="10.00">tetgenmesh::enqueuesubface</text>
</a>
</g>
<!-- Node1&#45;&gt;Node35 -->
<g id="edge76" class="edge"><title>Node1&#45;&gt;Node35</title>
<path fill="none" stroke="midnightblue" d="M49.9062,-359.765C55.4564,-424.071 86.2072,-757.679 134,-847 145.49,-868.474 166.169,-887.053 182.591,-899.505"/>
<polygon fill="midnightblue" stroke="midnightblue" points="180.58,-902.37 190.72,-905.441 184.708,-896.717 180.58,-902.37"/>
</g>
<!-- Node39 -->
<g id="node82" class="node"><title>Node39</title>
<a xlink:href="classtetgenmesh.xhtml#a66ffac4c97815467190daa5d52fc69ef" target="_top" xlink:title="tetgenmesh::ssdissolve">
<polygon fill="none" stroke="black" points="147,-0.5 147,-21.5 267,-21.5 267,-0.5 147,-0.5"/>
<text text-anchor="middle" x="207" y="-8.5" font-family="Helvetica,sans-Serif" font-size="10.00">tetgenmesh::ssdissolve</text>
</a>
</g>
<!-- Node1&#45;&gt;Node39 -->
<g id="edge86" class="edge"><title>Node1&#45;&gt;Node39</title>
<path fill="none" stroke="midnightblue" d="M50.398,-338.48C57.2249,-288.63 88.5811,-76.7023 134,-31 135.424,-29.5669 136.941,-28.2339 138.533,-26.994"/>
<polygon fill="midnightblue" stroke="midnightblue" points="140.519,-29.8785 147.054,-21.539 136.745,-23.9831 140.519,-29.8785"/>
</g>
<!-- Node40 -->
<g id="node84" class="node"><title>Node40</title>
<a xlink:href="classtetgenmesh.xhtml#a5a83480cb33ea6ceebb125e20d33c324" target="_top" xlink:title="tetgenmesh::flipshpush">
<polygon fill="none" stroke="black" points="148,-816.5 148,-837.5 266,-837.5 266,-816.5 148,-816.5"/>
<text text-anchor="middle" x="207" y="-824.5" font-family="Helvetica,sans-Serif" font-size="10.00">tetgenmesh::flipshpush</text>
</a>
</g>
<!-- Node1&#45;&gt;Node40 -->
<g id="edge88" class="edge"><title>Node1&#45;&gt;Node40</title>
<path fill="none" stroke="midnightblue" d="M50.2853,-359.765C57.3037,-417.399 92.2153,-689.55 134,-762 145.445,-781.845 165.12,-798.836 181.162,-810.464"/>
<polygon fill="midnightblue" stroke="midnightblue" points="179.418,-813.514 189.625,-816.356 183.418,-807.77 179.418,-813.514"/>
</g>
<!-- Node3 -->
<g id="node5" class="node"><title>Node3</title>
<a xlink:href="tetgen_8h.xhtml#a4012bf160c63ec4ff007f6645b993ca5" target="_top" xlink:title="terminatetetgen">
<polygon fill="none" stroke="black" points="532,-799.5 532,-820.5 616,-820.5 616,-799.5 532,-799.5"/>
<text text-anchor="middle" x="574" y="-807.5" font-family="Helvetica,sans-Serif" font-size="10.00">terminatetetgen</text>
</a>
</g>
<!-- Node2&#45;&gt;Node3 -->
<g id="edge4" class="edge"><title>Node2&#45;&gt;Node3</title>
<path fill="none" stroke="midnightblue" d="M218.253,-539.733C233.881,-555.146 262.233,-585.007 280,-615 302.8,-653.491 282.382,-679.483 316,-709 370.273,-756.653 407.452,-718.934 474,-747 502.856,-759.17 532.849,-779.221 552.367,-793.431"/>
<polygon fill="midnightblue" stroke="midnightblue" points="550.437,-796.358 560.555,-799.5 554.605,-790.734 550.437,-796.358"/>
</g>
<!-- Node5 -->
<g id="node9" class="node"><title>Node5</title>
<a xlink:href="classtetgenmesh_1_1memorypool.xhtml#a623b101e4e2f249d8b7e5dba65c3f7e2" target="_top" xlink:title="tetgenmesh::memorypool\l::traversalinit">
<polygon fill="none" stroke="black" points="331.5,-306 331.5,-340 458.5,-340 458.5,-306 331.5,-306"/>
<text text-anchor="start" x="339.5" y="-327" font-family="Helvetica,sans-Serif" font-size="10.00">tetgenmesh::memorypool</text>
<text text-anchor="middle" x="395" y="-314" font-family="Helvetica,sans-Serif" font-size="10.00">::traversalinit</text>
</a>
</g>
<!-- Node2&#45;&gt;Node5 -->
<g id="edge8" class="edge"><title>Node2&#45;&gt;Node5</title>
<path fill="none" stroke="midnightblue" d="M262.835,-520.718C269.243,-517.845 275.19,-514.037 280,-509 330.339,-456.286 267.009,-402.969 316,-349 318.047,-346.745 320.293,-344.685 322.692,-342.803"/>
<polygon fill="midnightblue" stroke="midnightblue" points="324.955,-345.503 331.365,-337.067 321.093,-339.664 324.955,-345.503"/>
</g>
<!-- Node6 -->
<g id="node11" class="node"><title>Node6</title>
<a xlink:href="classtetgenmesh.xhtml#a11da430cc44475b41fdbfc80de511192" target="_top" xlink:title="tetgenmesh::tetrahedrontraverse">
<polygon fill="none" stroke="black" points="316,-478.5 316,-499.5 474,-499.5 474,-478.5 316,-478.5"/>
<text text-anchor="middle" x="395" y="-486.5" font-family="Helvetica,sans-Serif" font-size="10.00">tetgenmesh::tetrahedrontraverse</text>
</a>
</g>
<!-- Node2&#45;&gt;Node6 -->
<g id="edge10" class="edge"><title>Node2&#45;&gt;Node6</title>
<path fill="none" stroke="midnightblue" d="M256.395,-518.49C280.694,-513.321 310.169,-507.049 335.68,-501.621"/>
<polygon fill="midnightblue" stroke="midnightblue" points="336.556,-505.013 345.609,-499.509 335.1,-498.166 336.556,-505.013"/>
</g>
<!-- Node8 -->
<g id="node15" class="node"><title>Node8</title>
<a xlink:href="classtetgenmesh.xhtml#ab53db19d6ec094dfcd35dcfc02270d72" target="_top" xlink:title="tetgenmesh::fsym">
<polygon fill="none" stroke="black" points="347.5,-438.5 347.5,-459.5 442.5,-459.5 442.5,-438.5 347.5,-438.5"/>
<text text-anchor="middle" x="395" y="-446.5" font-family="Helvetica,sans-Serif" font-size="10.00">tetgenmesh::fsym</text>
</a>
</g>
<!-- Node2&#45;&gt;Node8 -->
<g id="edge14" class="edge"><title>Node2&#45;&gt;Node8</title>
<path fill="none" stroke="midnightblue" d="M259.963,-518.39C266.971,-515.881 273.849,-512.794 280,-509 300.357,-496.444 295.522,-481.358 316,-469 322.643,-464.991 330.066,-461.782 337.629,-459.214"/>
<polygon fill="midnightblue" stroke="midnightblue" points="338.687,-462.55 347.236,-456.292 336.651,-455.853 338.687,-462.55"/>
</g>
<!-- Node10 -->
<g id="node19" class="node"><title>Node10</title>
<a xlink:href="classtetgenmesh.xhtml#aa14f996a69b46afb1429ebf35a6e881c" target="_top" xlink:title="tetgenmesh::ishulltet">
<polygon fill="none" stroke="black" points="341.5,-266.5 341.5,-287.5 448.5,-287.5 448.5,-266.5 341.5,-266.5"/>
<text text-anchor="middle" x="395" y="-274.5" font-family="Helvetica,sans-Serif" font-size="10.00">tetgenmesh::ishulltet</text>
</a>
</g>
<!-- Node2&#45;&gt;Node10 -->
<g id="edge18" class="edge"><title>Node2&#45;&gt;Node10</title>
<path fill="none" stroke="midnightblue" d="M262.73,-521.12C269.236,-518.191 275.237,-514.26 280,-509 344.145,-438.153 251.169,-367.219 316,-297 320.409,-292.225 325.779,-288.519 331.624,-285.654"/>
<polygon fill="midnightblue" stroke="midnightblue" points="333.172,-288.803 341.129,-281.808 330.546,-282.314 333.172,-288.803"/>
</g>
<!-- Node11 -->
<g id="node21" class="node"><title>Node11</title>
<a xlink:href="classtetgenmesh.xhtml#a0a12e21d9d363bc5aef59c1b1e51e5f2" target="_top" xlink:title="tetgenmesh::elemindex">
<polygon fill="none" stroke="black" points="336,-756.5 336,-777.5 454,-777.5 454,-756.5 336,-756.5"/>
<text text-anchor="middle" x="395" y="-764.5" font-family="Helvetica,sans-Serif" font-size="10.00">tetgenmesh::elemindex</text>
</a>
</g>
<!-- Node2&#45;&gt;Node11 -->
<g id="edge20" class="edge"><title>Node2&#45;&gt;Node11</title>
<path fill="none" stroke="midnightblue" d="M218.632,-539.52C234.71,-554.679 263.593,-584.242 280,-615 307.612,-666.765 275.148,-699.892 316,-742 319.662,-745.775 323.89,-748.982 328.447,-751.705"/>
<polygon fill="midnightblue" stroke="midnightblue" points="327.058,-754.926 337.554,-756.37 330.249,-748.696 327.058,-754.926"/>
</g>
<!-- Node12 -->
<g id="node23" class="node"><title>Node12</title>
<a xlink:href="classtetgenmesh.xhtml#ae2d4d27d7babd7b0e60956cc00bca89a" target="_top" xlink:title="tetgenmesh::org">
<polygon fill="none" stroke="black" points="351.5,-678.5 351.5,-699.5 438.5,-699.5 438.5,-678.5 351.5,-678.5"/>
<text text-anchor="middle" x="395" y="-686.5" font-family="Helvetica,sans-Serif" font-size="10.00">tetgenmesh::org</text>
</a>
</g>
<!-- Node2&#45;&gt;Node12 -->
<g id="edge22" class="edge"><title>Node2&#45;&gt;Node12</title>
<path fill="none" stroke="midnightblue" d="M216.632,-539.531C231.006,-555.423 258.663,-586.693 280,-615 297.362,-638.034 292.447,-652.349 316,-669 323.551,-674.338 332.395,-678.254 341.381,-681.126"/>
<polygon fill="midnightblue" stroke="midnightblue" points="340.559,-684.53 351.132,-683.851 342.443,-677.789 340.559,-684.53"/>
</g>
<!-- Node13 -->
<g id="node25" class="node"><title>Node13</title>
<a xlink:href="classtetgenmesh.xhtml#ad56ef3448cd57e637acf373622bfb769" target="_top" xlink:title="tetgenmesh::dest">
<polygon fill="none" stroke="black" points="349,-638.5 349,-659.5 441,-659.5 441,-638.5 349,-638.5"/>
<text text-anchor="middle" x="395" y="-646.5" font-family="Helvetica,sans-Serif" font-size="10.00">tetgenmesh::dest</text>
</a>
</g>
<!-- Node2&#45;&gt;Node13 -->
<g id="edge24" class="edge"><title>Node2&#45;&gt;Node13</title>
<path fill="none" stroke="midnightblue" d="M215.37,-539.59C232.17,-560.105 272.163,-605.326 316,-629 323.169,-632.871 331.11,-636.013 339.113,-638.557"/>
<polygon fill="midnightblue" stroke="midnightblue" points="338.279,-641.96 348.858,-641.374 340.223,-635.235 338.279,-641.96"/>
</g>
<!-- Node14 -->
<g id="node27" class="node"><title>Node14</title>
<a xlink:href="classtetgenmesh.xhtml#a9287d941f7f432ca846d5c004603af40" target="_top" xlink:title="tetgenmesh::apex">
<polygon fill="none" stroke="black" points="347.5,-598.5 347.5,-619.5 442.5,-619.5 442.5,-598.5 347.5,-598.5"/>
<text text-anchor="middle" x="395" y="-606.5" font-family="Helvetica,sans-Serif" font-size="10.00">tetgenmesh::apex</text>
</a>
</g>
<!-- Node2&#45;&gt;Node14 -->
<g id="edge26" class="edge"><title>Node2&#45;&gt;Node14</title>
<path fill="none" stroke="midnightblue" d="M222.981,-539.509C243.679,-552.711 281.235,-575.292 316,-589 322.787,-591.676 330.044,-594.085 337.308,-596.227"/>
<polygon fill="midnightblue" stroke="midnightblue" points="336.6,-599.663 347.173,-598.981 338.482,-592.921 336.6,-599.663"/>
</g>
<!-- Node15 -->
<g id="node29" class="node"><title>Node15</title>
<a xlink:href="classtetgenmesh.xhtml#acf741079840d587ec0d71354cea6e6cf" target="_top" xlink:title="tetgenmesh::enext">
<polygon fill="none" stroke="black" points="346,-558.5 346,-579.5 444,-579.5 444,-558.5 346,-558.5"/>
<text text-anchor="middle" x="395" y="-566.5" font-family="Helvetica,sans-Serif" font-size="10.00">tetgenmesh::enext</text>
</a>
</g>
<!-- Node2&#45;&gt;Node15 -->
<g id="edge28" class="edge"><title>Node2&#45;&gt;Node15</title>
<path fill="none" stroke="midnightblue" d="M256.395,-539.51C280.79,-544.7 310.402,-551 335.983,-556.443"/>
<polygon fill="midnightblue" stroke="midnightblue" points="335.426,-559.903 345.935,-558.561 336.882,-553.056 335.426,-559.903"/>
</g>
<!-- Node16 -->
<g id="node31" class="node"><title>Node16</title>
<a xlink:href="classtetgenmesh.xhtml#a1c65efaf2a8a72d023327c2592d89188" target="_top" xlink:title="tetgenmesh::enextself">
<polygon fill="none" stroke="black" points="338.5,-518.5 338.5,-539.5 451.5,-539.5 451.5,-518.5 338.5,-518.5"/>
<text text-anchor="middle" x="395" y="-526.5" font-family="Helvetica,sans-Serif" font-size="10.00">tetgenmesh::enextself</text>
</a>
</g>
<!-- Node2&#45;&gt;Node16 -->
<g id="edge30" class="edge"><title>Node2&#45;&gt;Node16</title>
<path fill="none" stroke="midnightblue" d="M262.643,-529C283.207,-529 306.727,-529 328.18,-529"/>
<polygon fill="midnightblue" stroke="midnightblue" points="328.197,-532.5 338.197,-529 328.197,-525.5 328.197,-532.5"/>
</g>
<!-- Node17 -->
<g id="node33" class="node"><title>Node17</title>
<a xlink:href="classtetgenmesh.xhtml#a9f17777c1c04712dfa0ac34e8fbd0a4a" target="_top" xlink:title="tetgenmesh::tspivot">
<polygon fill="none" stroke="black" points="343.5,-226.5 343.5,-247.5 446.5,-247.5 446.5,-226.5 343.5,-226.5"/>
<text text-anchor="middle" x="395" y="-234.5" font-family="Helvetica,sans-Serif" font-size="10.00">tetgenmesh::tspivot</text>
</a>
</g>
<!-- Node2&#45;&gt;Node17 -->
<g id="edge32" class="edge"><title>Node2&#45;&gt;Node17</title>
<path fill="none" stroke="midnightblue" d="M262.86,-521.236C269.346,-518.289 275.307,-514.322 280,-509 354.825,-424.14 240.353,-341.128 316,-257 320.943,-251.503 327.159,-247.417 333.922,-244.395"/>
<polygon fill="midnightblue" stroke="midnightblue" points="335.241,-247.639 343.417,-240.9 332.823,-241.07 335.241,-247.639"/>
</g>
<!-- Node19 -->
<g id="node37" class="node"><title>Node19</title>
<a xlink:href="classtetgenmesh.xhtml#ab5a2f1e0884a200fc6152ec15c2531d9" target="_top" xlink:title="tetgenmesh::shellmark">
<polygon fill="none" stroke="black" points="337,-398.5 337,-419.5 453,-419.5 453,-398.5 337,-398.5"/>
<text text-anchor="middle" x="395" y="-406.5" font-family="Helvetica,sans-Serif" font-size="10.00">tetgenmesh::shellmark</text>
</a>
</g>
<!-- Node2&#45;&gt;Node19 -->
<g id="edge36" class="edge"><title>Node2&#45;&gt;Node19</title>
<path fill="none" stroke="midnightblue" d="M262.666,-519.446C268.947,-516.771 274.908,-513.357 280,-509 309.627,-483.654 286.128,-454.057 316,-429 319.509,-426.056 323.395,-423.537 327.504,-421.383"/>
<polygon fill="midnightblue" stroke="midnightblue" points="329.102,-424.502 336.802,-417.225 326.244,-418.112 329.102,-424.502"/>
</g>
<!-- Node20 -->
<g id="node39" class="node"><title>Node20</title>
<a xlink:href="classtetgenmesh.xhtml#a46fa5fabd0e8e806f7f8beb069732e21" target="_top" xlink:title="tetgenmesh::pointmark">
<polygon fill="none" stroke="black" points="337,-358.5 337,-379.5 453,-379.5 453,-358.5 337,-358.5"/>
<text text-anchor="middle" x="395" y="-366.5" font-family="Helvetica,sans-Serif" font-size="10.00">tetgenmesh::pointmark</text>
</a>
</g>
<!-- Node2&#45;&gt;Node20 -->
<g id="edge38" class="edge"><title>Node2&#45;&gt;Node20</title>
<path fill="none" stroke="midnightblue" d="M262.508,-520.394C268.968,-517.573 275.016,-513.865 280,-509 319.843,-470.103 275.78,-427.507 316,-389 319.519,-385.631 323.521,-382.806 327.813,-380.44"/>
<polygon fill="midnightblue" stroke="midnightblue" points="329.362,-383.58 336.965,-376.201 326.42,-377.228 329.362,-383.58"/>
</g>
<!-- Node4 -->
<g id="node7" class="node"><title>Node4</title>
<a xlink:href="classtetgenmesh.xhtml#ade805f03ec7ca1b4623c8148fb915278" target="_top" xlink:title="tetgenmesh::freememory">
<polygon fill="none" stroke="black" points="674.5,-799.5 674.5,-820.5 799.5,-820.5 799.5,-799.5 674.5,-799.5"/>
<text text-anchor="middle" x="737" y="-807.5" font-family="Helvetica,sans-Serif" font-size="10.00">tetgenmesh::freememory</text>
</a>
</g>
<!-- Node3&#45;&gt;Node4 -->
<g id="edge6" class="edge"><title>Node3&#45;&gt;Node4</title>
<path fill="none" stroke="midnightblue" d="M616.401,-810C631.008,-810 647.812,-810 664.147,-810"/>
<polygon fill="midnightblue" stroke="midnightblue" points="664.234,-813.5 674.234,-810 664.234,-806.5 664.234,-813.5"/>
</g>
<!-- Node7 -->
<g id="node13" class="node"><title>Node7</title>
<a xlink:href="classtetgenmesh_1_1memorypool.xhtml#a151fe73459d0fa9a7262d0030fecf291" target="_top" xlink:title="tetgenmesh::memorypool\l::traverse">
<polygon fill="none" stroke="black" points="510.5,-475 510.5,-509 637.5,-509 637.5,-475 510.5,-475"/>
<text text-anchor="start" x="518.5" y="-496" font-family="Helvetica,sans-Serif" font-size="10.00">tetgenmesh::memorypool</text>
<text text-anchor="middle" x="574" y="-483" font-family="Helvetica,sans-Serif" font-size="10.00">::traverse</text>
</a>
</g>
<!-- Node6&#45;&gt;Node7 -->
<g id="edge12" class="edge"><title>Node6&#45;&gt;Node7</title>
<path fill="none" stroke="midnightblue" d="M474.033,-490.325C482.784,-490.471 491.67,-490.62 500.351,-490.766"/>
<polygon fill="midnightblue" stroke="midnightblue" points="500.369,-494.266 510.427,-490.935 500.487,-487.267 500.369,-494.266"/>
</g>
<!-- Node9 -->
<g id="node17" class="node"><title>Node9</title>
<a xlink:href="classtetgenmesh.xhtml#a809cfdec35ae9a52670e045823a302c0" target="_top" xlink:title="tetgenmesh::decode">
<polygon fill="none" stroke="black" points="521.5,-435.5 521.5,-456.5 626.5,-456.5 626.5,-435.5 521.5,-435.5"/>
<text text-anchor="middle" x="574" y="-443.5" font-family="Helvetica,sans-Serif" font-size="10.00">tetgenmesh::decode</text>
</a>
</g>
<!-- Node8&#45;&gt;Node9 -->
<g id="edge16" class="edge"><title>Node8&#45;&gt;Node9</title>
<path fill="none" stroke="midnightblue" d="M442.969,-448.196C463.983,-447.844 488.922,-447.426 511.374,-447.05"/>
<polygon fill="midnightblue" stroke="midnightblue" points="511.552,-450.547 521.492,-446.88 511.435,-443.548 511.552,-450.547"/>
</g>
<!-- Node18 -->
<g id="node35" class="node"><title>Node18</title>
<a xlink:href="classtetgenmesh.xhtml#ac5a50a5f6e277b5b95d58e40f3d58c2f" target="_top" xlink:title="tetgenmesh::sdecode">
<polygon fill="none" stroke="black" points="519,-187.5 519,-208.5 629,-208.5 629,-187.5 519,-187.5"/>
<text text-anchor="middle" x="574" y="-195.5" font-family="Helvetica,sans-Serif" font-size="10.00">tetgenmesh::sdecode</text>
</a>
</g>
<!-- Node17&#45;&gt;Node18 -->
<g id="edge34" class="edge"><title>Node17&#45;&gt;Node18</title>
<path fill="none" stroke="midnightblue" d="M443.44,-226.446C465.727,-221.59 492.35,-215.79 515.725,-210.697"/>
<polygon fill="midnightblue" stroke="midnightblue" points="516.496,-214.111 525.521,-208.562 515.005,-207.272 516.496,-214.111"/>
</g>
<!-- Node27&#45;&gt;Node18 -->
<g id="edge54" class="edge"><title>Node27&#45;&gt;Node18</title>
<path fill="none" stroke="midnightblue" d="M257.35,-483.462C265.936,-480.389 274.003,-475.801 280,-469 354.825,-384.14 233.312,-294.218 316,-217 342.969,-191.815 441.608,-191.133 508.803,-193.875"/>
<polygon fill="midnightblue" stroke="midnightblue" points="508.743,-197.375 518.888,-194.321 509.053,-190.382 508.743,-197.375"/>
</g>
<!-- Node28&#45;&gt;Node18 -->
<g id="edge58" class="edge"><title>Node28&#45;&gt;Node18</title>
<path fill="none" stroke="midnightblue" d="M259.556,-442.607C267.305,-439.557 274.512,-435.199 280,-429 352.954,-346.595 232.712,-255.944 316,-184 379.436,-129.204 487.733,-161.865 541.597,-183.501"/>
<polygon fill="midnightblue" stroke="midnightblue" points="540.419,-186.802 550.998,-187.389 543.094,-180.333 540.419,-186.802"/>
</g>
<!-- Node32&#45;&gt;Node31 -->
<g id="edge68" class="edge"><title>Node32&#45;&gt;Node31</title>
<path fill="none" stroke="midnightblue" d="M259.618,-128.201C281.382,-127.044 306.843,-125.689 329.776,-124.469"/>
<polygon fill="midnightblue" stroke="midnightblue" points="329.97,-127.964 339.77,-123.938 329.598,-120.974 329.97,-127.964"/>
</g>
<!-- Node34&#45;&gt;Node31 -->
<g id="edge74" class="edge"><title>Node34&#45;&gt;Node31</title>
<path fill="none" stroke="midnightblue" d="M259.618,-99.3966C281.382,-102.869 306.843,-106.932 329.776,-110.592"/>
<polygon fill="midnightblue" stroke="midnightblue" points="329.343,-114.067 339.77,-112.187 330.447,-107.155 329.343,-114.067"/>
</g>
<!-- Node36 -->
<g id="node75" class="node"><title>Node36</title>
<a xlink:href="classtetgenmesh.xhtml#af0763e190de4c7e562a697ef70b07f49" target="_top" xlink:title="tetgenmesh::smarktest2ed">
<polygon fill="none" stroke="black" points="328.5,-968.5 328.5,-989.5 461.5,-989.5 461.5,-968.5 328.5,-968.5"/>
<text text-anchor="middle" x="395" y="-976.5" font-family="Helvetica,sans-Serif" font-size="10.00">tetgenmesh::smarktest2ed</text>
</a>
</g>
<!-- Node35&#45;&gt;Node36 -->
<g id="edge78" class="edge"><title>Node35&#45;&gt;Node36</title>
<path fill="none" stroke="midnightblue" d="M231.35,-926.644C253.228,-935.956 286.377,-949.45 316,-959 323.48,-961.411 331.433,-963.718 339.302,-965.851"/>
<polygon fill="midnightblue" stroke="midnightblue" points="338.62,-969.291 349.182,-968.456 340.405,-962.523 338.62,-969.291"/>
</g>
<!-- Node37 -->
<g id="node77" class="node"><title>Node37</title>
<a xlink:href="classtetgenmesh.xhtml#a00988e7fce3b262e64921568b792f876" target="_top" xlink:title="tetgenmesh::smarktest2">
<polygon fill="none" stroke="black" points="334,-928.5 334,-949.5 456,-949.5 456,-928.5 334,-928.5"/>
<text text-anchor="middle" x="395" y="-936.5" font-family="Helvetica,sans-Serif" font-size="10.00">tetgenmesh::smarktest2</text>
</a>
</g>
<!-- Node35&#45;&gt;Node37 -->
<g id="edge80" class="edge"><title>Node35&#45;&gt;Node37</title>
<path fill="none" stroke="midnightblue" d="M279.686,-924.892C294.07,-926.652 309.157,-928.498 323.501,-930.253"/>
<polygon fill="midnightblue" stroke="midnightblue" points="323.443,-933.772 333.794,-931.512 324.293,-926.824 323.443,-933.772"/>
</g>
<!-- Node38 -->
<g id="node79" class="node"><title>Node38</title>
<a xlink:href="classtetgenmesh_1_1memorypool.xhtml#a9631e38a788a91ae067a756232b515ab" target="_top" xlink:title="tetgenmesh::memorypool\l::alloc">
<polygon fill="none" stroke="black" points="331.5,-876 331.5,-910 458.5,-910 458.5,-876 331.5,-876"/>
<text text-anchor="start" x="339.5" y="-897" font-family="Helvetica,sans-Serif" font-size="10.00">tetgenmesh::memorypool</text>
<text text-anchor="middle" x="395" y="-884" font-family="Helvetica,sans-Serif" font-size="10.00">::alloc</text>
</a>
</g>
<!-- Node35&#45;&gt;Node38 -->
<g id="edge82" class="edge"><title>Node35&#45;&gt;Node38</title>
<path fill="none" stroke="midnightblue" d="M279.686,-907.108C293.272,-905.446 307.484,-903.707 321.106,-902.04"/>
<polygon fill="midnightblue" stroke="midnightblue" points="321.887,-905.471 331.388,-900.782 321.037,-898.523 321.887,-905.471"/>
</g>
<!-- Node38&#45;&gt;Node3 -->
<g id="edge84" class="edge"><title>Node38&#45;&gt;Node3</title>
<path fill="none" stroke="midnightblue" d="M451.628,-875.895C459.24,-873.152 466.874,-870.165 474,-867 500.644,-855.165 529.398,-838.307 549.203,-825.994"/>
<polygon fill="midnightblue" stroke="midnightblue" points="551.296,-828.813 557.896,-820.525 547.568,-822.888 551.296,-828.813"/>
</g>
<!-- Node40&#45;&gt;Node21 -->
<g id="edge92" class="edge"><title>Node40&#45;&gt;Node21</title>
<path fill="none" stroke="midnightblue" d="M266.226,-833.301C289.373,-835.763 315.795,-838.574 338.657,-841.006"/>
<polygon fill="midnightblue" stroke="midnightblue" points="338.572,-844.517 348.886,-842.094 339.312,-837.556 338.572,-844.517"/>
</g>
<!-- Node40&#45;&gt;Node22 -->
<g id="edge94" class="edge"><title>Node40&#45;&gt;Node22</title>
<path fill="none" stroke="midnightblue" d="M266.226,-820.699C288.44,-818.336 313.67,-815.652 335.875,-813.29"/>
<polygon fill="midnightblue" stroke="midnightblue" points="336.269,-816.768 345.842,-812.23 335.528,-809.807 336.269,-816.768"/>
</g>
<!-- Node40&#45;&gt;Node38 -->
<g id="edge90" class="edge"><title>Node40&#45;&gt;Node38</title>
<path fill="none" stroke="midnightblue" d="M235.137,-837.622C257.092,-845.838 288.395,-857.395 316,-867 321.416,-868.885 327.054,-870.81 332.713,-872.719"/>
<polygon fill="midnightblue" stroke="midnightblue" points="331.629,-876.047 342.223,-875.905 333.853,-869.409 331.629,-876.047"/>
</g>
</g>
</svg>
        <g id="navigator" transform="translate(0 0)" fill="#404254">
                <rect fill="#f2f5e9" fill-opacity="0.5" stroke="#606060" stroke-width=".5" x="0" y="0" width="60" height="60"/>
                <use id="zoomplus" xlink:href="#zoomPlus" x="17" y="9" onmousedown="handleZoom(evt,'in')"/>
                <use id="zoomminus" xlink:href="#zoomMin" x="42" y="9" onmousedown="handleZoom(evt,'out')"/>
                <use id="reset" xlink:href="#resetDef" x="30" y="36" onmousedown="handleReset()"/>
                <g id="arrowUp" xlink:href="#dirArrow" transform="translate(30 24)" onmousedown="handlePan(0,-1)">
                  <use xlink:href="#rim" fill="#404040">
                        <set attributeName="fill" to="#808080" begin="arrowUp.mouseover" end="arrowUp.mouseout"/>
                  </use>
                  <path fill="none" stroke="white" stroke-width="1.5" d="M0,-3.0v7 M-2.5,-0.5L0,-3.0L2.5,-0.5"/>
                </g>
                <g id="arrowRight" xlink:href="#dirArrow" transform="rotate(90) translate(36 -43)" onmousedown="handlePan(1,0)">
                  <use xlink:href="#rim" fill="#404040">
                        <set attributeName="fill" to="#808080" begin="arrowRight.mouseover" end="arrowRight.mouseout"/>
                  </use>
                  <path fill="none" stroke="white" stroke-width="1.5" d="M0,-3.0v7 M-2.5,-0.5L0,-3.0L2.5,-0.5"/>
                </g>
                <g id="arrowDown" xlink:href="#dirArrow" transform="rotate(180) translate(-30 -48)" onmousedown="handlePan(0,1)">
                  <use xlink:href="#rim" fill="#404040">
                        <set attributeName="fill" to="#808080" begin="arrowDown.mouseover" end="arrowDown.mouseout"/>
                  </use>
                  <path fill="none" stroke="white" stroke-width="1.5" d="M0,-3.0v7 M-2.5,-0.5L0,-3.0L2.5,-0.5"/>
                </g>
                <g id="arrowLeft" xlink:href="#dirArrow" transform="rotate(270) translate(-36 17)" onmousedown="handlePan(-1,0)">
                  <use xlink:href="#rim" fill="#404040">
                        <set attributeName="fill" to="#808080" begin="arrowLeft.mouseover" end="arrowLeft.mouseout"/>
                  </use>
                  <path fill="none" stroke="white" stroke-width="1.5" d="M0,-3.0v7 M-2.5,-0.5L0,-3.0L2.5,-0.5"/>
                </g>
        </g>
        <svg viewBox="0 0 15 15" width="100%" height="30px" preserveAspectRatio="xMaxYMin meet">
         <g id="arrow_out" transform="scale(0.3 0.3)">
          <a xlink:href="classtetgenmesh_ac34f0cd148accd132b491f9c6145c6f6_cgraph_org.svg" target="_base">
           <rect id="button" ry="5" rx="5" y="6" x="6" height="38" width="38"
                fill="#f2f5e9" fill-opacity="0.5" stroke="#606060" stroke-width="1.0"/>
           <path id="arrow"
             d="M 11.500037,31.436501 C 11.940474,20.09759 22.043105,11.32322 32.158766,21.979434 L 37.068811,17.246167 C 37.068811,17.246167 37.088388,32 37.088388,32 L 22.160133,31.978069 C 22.160133,31.978069 26.997745,27.140456 26.997745,27.140456 C 18.528582,18.264221 13.291696,25.230495 11.500037,31.436501 z"
             style="fill:#404040;"/>
          </a>
         </g>
        </svg>
</svg>
