<?xml version="1.0" encoding="UTF-8" standalone="no"?>
<!DOCTYPE svg PUBLIC "-//W3C//DTD SVG 1.1//EN"
 "http://www.w3.org/Graphics/SVG/1.1/DTD/svg11.dtd">
<!-- Generated by graphviz version 2.26.3 (20100126.1600)
 -->
<!-- Title: tetgenmesh::point2tetorg Pages: 1 -->
<svg width="282pt" height="70pt"
 viewBox="0.00 0.00 282.00 70.00" xmlns="http://www.w3.org/2000/svg" xmlns:xlink="http://www.w3.org/1999/xlink">
<g id="graph1" class="graph" transform="scale(1 1) rotate(0) translate(4 66)">
<title>tetgenmesh::point2tetorg</title>
<!-- Node1 -->
<g id="node1" class="node"><title>Node1</title>
<polygon fill="#bfbfbf" stroke="black" points="0.5,-20.5 0.5,-41.5 125.5,-41.5 125.5,-20.5 0.5,-20.5"/>
<text text-anchor="middle" x="63" y="-28.5" font-family="Helvetica,sans-Serif" font-size="10.00">tetgenmesh::point2tetorg</text>
</g>
<!-- Node2 -->
<g id="node3" class="node"><title>Node2</title>
<a xlink:href="classtetgenmesh.xhtml#a809cfdec35ae9a52670e045823a302c0" target="_top" xlink:title="tetgenmesh::decode">
<polygon fill="none" stroke="black" points="165.5,-40.5 165.5,-61.5 270.5,-61.5 270.5,-40.5 165.5,-40.5"/>
<text text-anchor="middle" x="218" y="-48.5" font-family="Helvetica,sans-Serif" font-size="10.00">tetgenmesh::decode</text>
</a>
</g>
<!-- Node1&#45;&gt;Node2 -->
<g id="edge2" class="edge"><title>Node1&#45;&gt;Node2</title>
<path fill="none" stroke="midnightblue" d="M125.598,-39.0771C135.326,-40.3323 145.379,-41.6296 155.113,-42.8856"/>
<polygon fill="midnightblue" stroke="midnightblue" points="154.749,-46.3676 165.115,-44.1761 155.645,-39.4251 154.749,-46.3676"/>
</g>
<!-- Node3 -->
<g id="node5" class="node"><title>Node3</title>
<a xlink:href="classtetgenmesh.xhtml#a6c3e38cde82f108d0c0ca90d1a046931" target="_top" xlink:title="tetgenmesh::point2tet">
<polygon fill="none" stroke="black" points="162.5,-0.5 162.5,-21.5 273.5,-21.5 273.5,-0.5 162.5,-0.5"/>
<text text-anchor="middle" x="218" y="-8.5" font-family="Helvetica,sans-Serif" font-size="10.00">tetgenmesh::point2tet</text>
</a>
</g>
<!-- Node1&#45;&gt;Node3 -->
<g id="edge4" class="edge"><title>Node1&#45;&gt;Node3</title>
<path fill="none" stroke="midnightblue" d="M125.598,-22.9229C134.294,-21.8008 143.25,-20.6452 152.006,-19.5154"/>
<polygon fill="midnightblue" stroke="midnightblue" points="152.695,-22.9556 162.165,-18.2046 151.799,-16.0131 152.695,-22.9556"/>
</g>
</g>
</svg>
