<?xml version="1.0" encoding="UTF-8" standalone="no"?>
<!DOCTYPE svg PUBLIC "-//W3C//DTD SVG 1.1//EN"
 "http://www.w3.org/Graphics/SVG/1.1/DTD/svg11.dtd">
<!-- Generated by graphviz version 2.26.3 (20100126.1600)
 -->
<!-- Title: tetgenmesh::setapex Pages: 1 -->
<svg width="2210pt" height="698pt"
 viewBox="0.00 0.00 2210.00 698.22" xmlns="http://www.w3.org/2000/svg" xmlns:xlink="http://www.w3.org/1999/xlink">
<g id="graph1" class="graph" transform="scale(1 1) rotate(0) translate(4 694.215)">
<title>tetgenmesh::setapex</title>
<!-- Node1 -->
<g id="node1" class="node"><title>Node1</title>
<polygon fill="#bfbfbf" stroke="black" points="0,-201.715 0,-222.715 108,-222.715 108,-201.715 0,-201.715"/>
<text text-anchor="middle" x="54" y="-209.715" font-family="Helvetica,sans-Serif" font-size="10.00">tetgenmesh::setapex</text>
</g>
<!-- Node2 -->
<g id="node3" class="node"><title>Node2</title>
<a xlink:href="classtetgenmesh.xhtml#a5d85611ca91db181e357457beb13a633" target="_top" xlink:title="tetgenmesh::insertpoint">
<polygon fill="none" stroke="black" points="175.5,-275.715 175.5,-296.715 294.5,-296.715 294.5,-275.715 175.5,-275.715"/>
<text text-anchor="middle" x="235" y="-283.715" font-family="Helvetica,sans-Serif" font-size="10.00">tetgenmesh::insertpoint</text>
</a>
</g>
<!-- Node1&#45;&gt;Node2 -->
<g id="edge2" class="edge"><title>Node1&#45;&gt;Node2</title>
<path fill="none" stroke="midnightblue" d="M89.3464,-226.666C124.529,-241.05 177.686,-262.783 209.115,-275.632"/>
<polygon fill="midnightblue" stroke="midnightblue" points="90.5137,-223.362 79.9329,-222.818 87.8646,-229.842 90.5137,-223.362"/>
</g>
<!-- Node35 -->
<g id="node88" class="node"><title>Node35</title>
<a xlink:href="classtetgenmesh.xhtml#aae5530d808e30771e717c94cb8586f0b" target="_top" xlink:title="tetgenmesh::suppressbdrysteinerpoint">
<polygon fill="none" stroke="black" points="144,-127.715 144,-148.715 326,-148.715 326,-127.715 144,-127.715"/>
<text text-anchor="middle" x="235" y="-135.715" font-family="Helvetica,sans-Serif" font-size="10.00">tetgenmesh::suppressbdrysteinerpoint</text>
</a>
</g>
<!-- Node1&#45;&gt;Node35 -->
<g id="edge106" class="edge"><title>Node1&#45;&gt;Node35</title>
<path fill="none" stroke="midnightblue" d="M89.3464,-197.764C124.529,-183.38 177.686,-161.647 209.115,-148.798"/>
<polygon fill="midnightblue" stroke="midnightblue" points="87.8646,-194.589 79.9329,-201.613 90.5137,-201.068 87.8646,-194.589"/>
</g>
<!-- Node3 -->
<g id="node5" class="node"><title>Node3</title>
<a xlink:href="classtetgenmesh.xhtml#a5a5a0513d0bea7aa457eb0bc5fad1b02" target="_top" xlink:title="tetgenmesh::incrementaldelaunay">
<polygon fill="none" stroke="black" points="1385.5,-332.715 1385.5,-353.715 1548.5,-353.715 1548.5,-332.715 1385.5,-332.715"/>
<text text-anchor="middle" x="1467" y="-340.715" font-family="Helvetica,sans-Serif" font-size="10.00">tetgenmesh::incrementaldelaunay</text>
</a>
</g>
<!-- Node2&#45;&gt;Node3 -->
<g id="edge4" class="edge"><title>Node2&#45;&gt;Node3</title>
<path fill="none" stroke="midnightblue" d="M292.196,-298.791C374.902,-315.848 532.905,-344.215 669,-344.215 669,-344.215 669,-344.215 877,-344.215 1058.56,-344.215 1271.54,-343.736 1385.4,-343.441"/>
<polygon fill="midnightblue" stroke="midnightblue" points="292.75,-295.331 282.247,-296.718 291.323,-302.184 292.75,-295.331"/>
</g>
<!-- Node11 -->
<g id="node21" class="node"><title>Node11</title>
<a xlink:href="classtetgenmesh.xhtml#a8dee14a42e35e4fe65944518eed4f7d3" target="_top" xlink:title="tetgenmesh::delaunizesegments">
<polygon fill="none" stroke="black" points="988,-294.715 988,-315.715 1146,-315.715 1146,-294.715 988,-294.715"/>
<text text-anchor="middle" x="1067" y="-302.715" font-family="Helvetica,sans-Serif" font-size="10.00">tetgenmesh::delaunizesegments</text>
</a>
</g>
<!-- Node2&#45;&gt;Node11 -->
<g id="edge20" class="edge"><title>Node2&#45;&gt;Node11</title>
<path fill="none" stroke="midnightblue" d="M304.755,-287.808C458.484,-291.319 825.632,-299.703 987.748,-303.405"/>
<polygon fill="midnightblue" stroke="midnightblue" points="304.579,-284.303 294.501,-287.574 304.419,-291.301 304.579,-284.303"/>
</g>
<!-- Node13 -->
<g id="node26" class="node"><title>Node13</title>
<a xlink:href="classtetgenmesh.xhtml#ab1a82368937a13996efae911b8b1fded" target="_top" xlink:title="tetgenmesh::delaunizecavity">
<polygon fill="none" stroke="black" points="378.5,-256.715 378.5,-277.715 519.5,-277.715 519.5,-256.715 378.5,-256.715"/>
<text text-anchor="middle" x="449" y="-264.715" font-family="Helvetica,sans-Serif" font-size="10.00">tetgenmesh::delaunizecavity</text>
</a>
</g>
<!-- Node2&#45;&gt;Node13 -->
<g id="edge26" class="edge"><title>Node2&#45;&gt;Node13</title>
<path fill="none" stroke="midnightblue" d="M304.87,-280.012C328.423,-277.921 354.716,-275.586 378.331,-273.489"/>
<polygon fill="midnightblue" stroke="midnightblue" points="304.262,-276.552 294.611,-280.923 304.881,-283.524 304.262,-276.552"/>
</g>
<!-- Node14 -->
<g id="node28" class="node"><title>Node14</title>
<a xlink:href="classtetgenmesh.xhtml#a9c967ef25cfd6e06d6b9301302be3f70" target="_top" xlink:title="tetgenmesh::insertpoint_cdt">
<polygon fill="none" stroke="black" points="600.5,-218.715 600.5,-239.715 737.5,-239.715 737.5,-218.715 600.5,-218.715"/>
<text text-anchor="middle" x="669" y="-226.715" font-family="Helvetica,sans-Serif" font-size="10.00">tetgenmesh::insertpoint_cdt</text>
</a>
</g>
<!-- Node2&#45;&gt;Node14 -->
<g id="edge38" class="edge"><title>Node2&#45;&gt;Node14</title>
<path fill="none" stroke="midnightblue" d="M272.231,-272.198C297.239,-263.429 331.14,-252.775 362,-247.215 443.049,-232.613 537.885,-229.072 600.469,-228.565"/>
<polygon fill="midnightblue" stroke="midnightblue" points="271.012,-268.917 262.77,-275.574 273.365,-275.51 271.012,-268.917"/>
</g>
<!-- Node17 -->
<g id="node37" class="node"><title>Node17</title>
<a xlink:href="classtetgenmesh.xhtml#acb5fc751eaa4a4ddffbebedfa7b7382a" target="_top" xlink:title="tetgenmesh::add_steinerpt\l_in_schoenhardtpoly">
<polygon fill="none" stroke="black" points="383,-90.2151 383,-124.215 515,-124.215 515,-90.2151 383,-90.2151"/>
<text text-anchor="start" x="391" y="-111.215" font-family="Helvetica,sans-Serif" font-size="10.00">tetgenmesh::add_steinerpt</text>
<text text-anchor="middle" x="449" y="-98.2151" font-family="Helvetica,sans-Serif" font-size="10.00">_in_schoenhardtpoly</text>
</a>
</g>
<!-- Node2&#45;&gt;Node17 -->
<g id="edge40" class="edge"><title>Node2&#45;&gt;Node17</title>
<path fill="none" stroke="midnightblue" d="M246.721,-266.958C266.674,-235.699 310.155,-173.833 362,-138.215 369.93,-132.767 378.921,-128.17 388.042,-124.325"/>
<polygon fill="midnightblue" stroke="midnightblue" points="243.642,-265.28 241.301,-275.614 249.575,-268.996 243.642,-265.28"/>
</g>
<!-- Node18 -->
<g id="node39" class="node"><title>Node18</title>
<a xlink:href="classtetgenmesh.xhtml#a9d878a0e64588b0471a58e534affea8e" target="_top" xlink:title="tetgenmesh::addsteiner4recoversegment">
<polygon fill="none" stroke="black" points="572,-106.715 572,-127.715 766,-127.715 766,-106.715 572,-106.715"/>
<text text-anchor="middle" x="669" y="-114.715" font-family="Helvetica,sans-Serif" font-size="10.00">tetgenmesh::addsteiner4recoversegment</text>
</a>
</g>
<!-- Node2&#45;&gt;Node18 -->
<g id="edge54" class="edge"><title>Node2&#45;&gt;Node18</title>
<path fill="none" stroke="midnightblue" d="M250.551,-267.691C272.625,-242.709 315.554,-198.756 362,-176.215 401.245,-157.169 512.253,-138.779 589.425,-127.73"/>
<polygon fill="midnightblue" stroke="midnightblue" points="247.794,-265.529 243.89,-275.378 253.084,-270.113 247.794,-265.529"/>
</g>
<!-- Node21 -->
<g id="node46" class="node"><title>Node21</title>
<a xlink:href="classtetgenmesh.xhtml#a3de6e9d82e74671af7f038043b5e9bcc" target="_top" xlink:title="tetgenmesh::add_steinerpt\l_in_segment">
<polygon fill="none" stroke="black" points="383,-38.2151 383,-72.2151 515,-72.2151 515,-38.2151 383,-38.2151"/>
<text text-anchor="start" x="391" y="-59.2151" font-family="Helvetica,sans-Serif" font-size="10.00">tetgenmesh::add_steinerpt</text>
<text text-anchor="middle" x="449" y="-46.2151" font-family="Helvetica,sans-Serif" font-size="10.00">_in_segment</text>
</a>
</g>
<!-- Node2&#45;&gt;Node21 -->
<g id="edge50" class="edge"><title>Node2&#45;&gt;Node21</title>
<path fill="none" stroke="midnightblue" d="M249.783,-267.709C268.783,-243.439 302.156,-199.127 326,-158.215 345.022,-125.576 333.398,-105.895 362,-81.2151 368.087,-75.9628 375.201,-71.7713 382.693,-68.4264"/>
<polygon fill="midnightblue" stroke="midnightblue" points="246.924,-265.682 243.478,-275.7 252.42,-270.018 246.924,-265.682"/>
</g>
<!-- Node22 -->
<g id="node50" class="node"><title>Node22</title>
<a xlink:href="classtetgenmesh.xhtml#ace09080e4f274e0a48cd1728475878c9" target="_top" xlink:title="tetgenmesh::recoversubfaces">
<polygon fill="none" stroke="black" points="804,-178.715 804,-199.715 950,-199.715 950,-178.715 804,-178.715"/>
<text text-anchor="middle" x="877" y="-186.715" font-family="Helvetica,sans-Serif" font-size="10.00">tetgenmesh::recoversubfaces</text>
</a>
</g>
<!-- Node2&#45;&gt;Node22 -->
<g id="edge56" class="edge"><title>Node2&#45;&gt;Node22</title>
<path fill="none" stroke="midnightblue" d="M260.672,-270.35C285.57,-255.835 324.919,-235.155 362,-225.215 515.231,-184.139 702.764,-182.654 803.915,-185.649"/>
<polygon fill="midnightblue" stroke="midnightblue" points="258.682,-267.461 251.871,-275.576 262.257,-273.479 258.682,-267.461"/>
</g>
<!-- Node23 -->
<g id="node53" class="node"><title>Node23</title>
<a xlink:href="classtetgenmesh.xhtml#ac8205cae8e16f490b80d74975934ff74" target="_top" xlink:title="tetgenmesh::insertconstrainedpoints">
<polygon fill="none" stroke="black" points="362,-640.715 362,-661.715 536,-661.715 536,-640.715 362,-640.715"/>
<text text-anchor="middle" x="449" y="-648.715" font-family="Helvetica,sans-Serif" font-size="10.00">tetgenmesh::insertconstrainedpoints</text>
</a>
</g>
<!-- Node2&#45;&gt;Node23 -->
<g id="edge60" class="edge"><title>Node2&#45;&gt;Node23</title>
<path fill="none" stroke="midnightblue" d="M236.457,-306.921C241.746,-365.948 265.103,-536.566 362,-626.215 368.691,-632.405 376.815,-637.074 385.381,-640.592"/>
<polygon fill="midnightblue" stroke="midnightblue" points="239.946,-306.633 235.645,-296.951 232.969,-307.202 239.946,-306.633"/>
</g>
<!-- Node25 -->
<g id="node58" class="node"><title>Node25</title>
<a xlink:href="classtetgenmesh.xhtml#a6394d7b4d386e8d08077c39cd8983e0e" target="_top" xlink:title="tetgenmesh::splitsegment">
<polygon fill="none" stroke="black" points="384.5,-469.715 384.5,-490.715 513.5,-490.715 513.5,-469.715 384.5,-469.715"/>
<text text-anchor="middle" x="449" y="-477.715" font-family="Helvetica,sans-Serif" font-size="10.00">tetgenmesh::splitsegment</text>
</a>
</g>
<!-- Node2&#45;&gt;Node25 -->
<g id="edge66" class="edge"><title>Node2&#45;&gt;Node25</title>
<path fill="none" stroke="midnightblue" d="M247.496,-305.466C268.253,-336.267 312.485,-397.129 362,-436.215 380.068,-450.478 403.493,-462.005 421.483,-469.677"/>
<polygon fill="midnightblue" stroke="midnightblue" points="250.275,-303.324 241.828,-296.929 244.444,-307.196 250.275,-303.324"/>
</g>
<!-- Node27 -->
<g id="node62" class="node"><title>Node27</title>
<a xlink:href="classtetgenmesh.xhtml#a3a8404870ab3c2e8ce4312d48c2b29f4" target="_top" xlink:title="tetgenmesh::splitsubface">
<polygon fill="none" stroke="black" points="814,-450.715 814,-471.715 940,-471.715 940,-450.715 814,-450.715"/>
<text text-anchor="middle" x="877" y="-458.715" font-family="Helvetica,sans-Serif" font-size="10.00">tetgenmesh::splitsubface</text>
</a>
</g>
<!-- Node2&#45;&gt;Node27 -->
<g id="edge94" class="edge"><title>Node2&#45;&gt;Node27</title>
<path fill="none" stroke="midnightblue" d="M251.783,-304.179C274.414,-327.152 317.083,-366.228 362,-385.215 528.967,-455.795 586.986,-412.693 766,-441.215 783.984,-444.08 803.55,-447.503 821.176,-450.701"/>
<polygon fill="midnightblue" stroke="midnightblue" points="254.107,-301.547 244.643,-296.784 249.071,-306.409 254.107,-301.547"/>
</g>
<!-- Node29 -->
<g id="node66" class="node"><title>Node29</title>
<a xlink:href="classtetgenmesh.xhtml#aa752155eb1d18550a212dd40297f122e" target="_top" xlink:title="tetgenmesh::splittetrahedron">
<polygon fill="none" stroke="black" points="1194,-506.715 1194,-527.715 1334,-527.715 1334,-506.715 1194,-506.715"/>
<text text-anchor="middle" x="1264" y="-514.715" font-family="Helvetica,sans-Serif" font-size="10.00">tetgenmesh::splittetrahedron</text>
</a>
</g>
<!-- Node2&#45;&gt;Node29 -->
<g id="edge96" class="edge"><title>Node2&#45;&gt;Node29</title>
<path fill="none" stroke="midnightblue" d="M241.721,-306.505C256.655,-348.577 296.541,-445.913 362,-500.215 473.784,-592.947 523.759,-612.215 669,-612.215 669,-612.215 669,-612.215 877,-612.215 1017.44,-612.215 1178.5,-552.479 1239.16,-527.745"/>
<polygon fill="midnightblue" stroke="midnightblue" points="244.957,-305.152 238.388,-296.839 238.339,-307.434 244.957,-305.152"/>
</g>
<!-- Node32 -->
<g id="node81" class="node"><title>Node32</title>
<a xlink:href="classtetgenmesh.xhtml#aa9540f310c97db99c989a02b0978ceec" target="_top" xlink:title="tetgenmesh::splitsliver">
<polygon fill="none" stroke="black" points="611.5,-372.715 611.5,-393.715 726.5,-393.715 726.5,-372.715 611.5,-372.715"/>
<text text-anchor="middle" x="669" y="-380.715" font-family="Helvetica,sans-Serif" font-size="10.00">tetgenmesh::splitsliver</text>
</a>
</g>
<!-- Node2&#45;&gt;Node32 -->
<g id="edge98" class="edge"><title>Node2&#45;&gt;Node32</title>
<path fill="none" stroke="midnightblue" d="M257.08,-302.731C281.387,-319.92 322.302,-346 362,-358.215 445.949,-384.046 548.551,-387.022 611.314,-385.837"/>
<polygon fill="midnightblue" stroke="midnightblue" points="259.069,-299.85 248.909,-296.843 254.976,-305.529 259.069,-299.85"/>
</g>
<!-- Node4 -->
<g id="node7" class="node"><title>Node4</title>
<a xlink:href="tetgen_8h.xhtml#ad3637eb4ffe7fda90667e67b7771d964" target="_top" xlink:title="tetrahedralize">
<polygon fill="none" stroke="black" points="1782.5,-332.715 1782.5,-353.715 1857.5,-353.715 1857.5,-332.715 1782.5,-332.715"/>
<text text-anchor="middle" x="1820" y="-340.715" font-family="Helvetica,sans-Serif" font-size="10.00">tetrahedralize</text>
</a>
</g>
<!-- Node3&#45;&gt;Node4 -->
<g id="edge6" class="edge"><title>Node3&#45;&gt;Node4</title>
<path fill="none" stroke="midnightblue" d="M1558.96,-343.215C1631.7,-343.215 1729.51,-343.215 1782.35,-343.215"/>
<polygon fill="midnightblue" stroke="midnightblue" points="1558.87,-339.715 1548.87,-343.215 1558.87,-346.715 1558.87,-339.715"/>
</g>
<!-- Node5 -->
<g id="node9" class="node"><title>Node5</title>
<a xlink:href="classGUICutRenderWindow.xhtml#a9eedb7088ad31f4680a77ed3a06fa60c" target="_top" xlink:title="Berechnet die 2D&#45;Temperaturverteilung als Grafik. ">
<polygon fill="none" stroke="black" points="1896.5,-372.215 1896.5,-406.215 2013.5,-406.215 2013.5,-372.215 1896.5,-372.215"/>
<text text-anchor="start" x="1904.5" y="-393.215" font-family="Helvetica,sans-Serif" font-size="10.00">GUICutRenderWindow</text>
<text text-anchor="middle" x="1955" y="-380.215" font-family="Helvetica,sans-Serif" font-size="10.00">::renderImage</text>
</a>
</g>
<!-- Node4&#45;&gt;Node5 -->
<g id="edge8" class="edge"><title>Node4&#45;&gt;Node5</title>
<path fill="none" stroke="midnightblue" d="M1860.73,-357.092C1874.62,-361.826 1890.32,-367.175 1904.86,-372.131"/>
<polygon fill="midnightblue" stroke="midnightblue" points="1861.57,-353.681 1850.97,-353.768 1859.31,-360.307 1861.57,-353.681"/>
</g>
<!-- Node7 -->
<g id="node13" class="node"><title>Node7</title>
<a xlink:href="classObjectData.xhtml#af3a850833d08eb9b45357449f455e24d" target="_top" xlink:title="Zerlegt das Objekt in Tetraeder (Schnittstelle zur Tetgen&#45;Bibliothek) und Berechnet die Temperaturver...">
<polygon fill="none" stroke="black" points="1894,-332.715 1894,-353.715 2016,-353.715 2016,-332.715 1894,-332.715"/>
<text text-anchor="middle" x="1955" y="-340.715" font-family="Helvetica,sans-Serif" font-size="10.00">ObjectData::calculateIO</text>
</a>
</g>
<!-- Node4&#45;&gt;Node7 -->
<g id="edge12" class="edge"><title>Node4&#45;&gt;Node7</title>
<path fill="none" stroke="midnightblue" d="M1867.65,-343.215C1876.11,-343.215 1885.02,-343.215 1893.8,-343.215"/>
<polygon fill="midnightblue" stroke="midnightblue" points="1867.61,-339.715 1857.61,-343.215 1867.6,-346.715 1867.61,-339.715"/>
</g>
<!-- Node10 -->
<g id="node19" class="node"><title>Node10</title>
<a xlink:href="tetgen_8cxx.xhtml#a0ddf1224851353fc92bfbff6f499fa97" target="_top" xlink:title="main">
<polygon fill="none" stroke="black" points="1936,-292.715 1936,-313.715 1974,-313.715 1974,-292.715 1936,-292.715"/>
<text text-anchor="middle" x="1955" y="-300.715" font-family="Helvetica,sans-Serif" font-size="10.00">main</text>
</a>
</g>
<!-- Node4&#45;&gt;Node10 -->
<g id="edge18" class="edge"><title>Node4&#45;&gt;Node10</title>
<path fill="none" stroke="midnightblue" d="M1865.15,-329.836C1889.27,-322.691 1917.67,-314.276 1935.98,-308.849"/>
<polygon fill="midnightblue" stroke="midnightblue" points="1864.06,-326.509 1855.47,-332.706 1866.05,-333.22 1864.06,-326.509"/>
</g>
<!-- Node6 -->
<g id="node11" class="node"><title>Node6</title>
<a xlink:href="classGUICutRenderWindow.xhtml#a7cd1bfbec53756a1cbbe1616b4d46c7a" target="_top" xlink:title="Behandelt das Drücken des Buttons zur Berechnung der zweidimensionalen Temperaturverteilung. ">
<polygon fill="none" stroke="black" points="2068.5,-372.215 2068.5,-406.215 2185.5,-406.215 2185.5,-372.215 2068.5,-372.215"/>
<text text-anchor="start" x="2076.5" y="-393.215" font-family="Helvetica,sans-Serif" font-size="10.00">GUICutRenderWindow</text>
<text text-anchor="middle" x="2127" y="-380.215" font-family="Helvetica,sans-Serif" font-size="10.00">::renderCutBtClick</text>
</a>
</g>
<!-- Node5&#45;&gt;Node6 -->
<g id="edge10" class="edge"><title>Node5&#45;&gt;Node6</title>
<path fill="none" stroke="midnightblue" d="M2023.78,-389.215C2038.51,-389.215 2053.95,-389.215 2068.26,-389.215"/>
<polygon fill="midnightblue" stroke="midnightblue" points="2023.71,-385.715 2013.71,-389.215 2023.71,-392.715 2023.71,-385.715"/>
</g>
<!-- Node8 -->
<g id="node15" class="node"><title>Node8</title>
<a xlink:href="classGUIMainWindow.xhtml#a0c2de30274c7f52ff74ec1217e47a9e5" target="_top" xlink:title="Berechnet die 3D&#45;Temperaturverteilung neu. ">
<polygon fill="none" stroke="black" points="2052,-280.215 2052,-314.215 2202,-314.215 2202,-280.215 2052,-280.215"/>
<text text-anchor="start" x="2060" y="-301.215" font-family="Helvetica,sans-Serif" font-size="10.00">GUIMainWindow::OnRecalcBt</text>
<text text-anchor="middle" x="2127" y="-288.215" font-family="Helvetica,sans-Serif" font-size="10.00">Click</text>
</a>
</g>
<!-- Node7&#45;&gt;Node8 -->
<g id="edge14" class="edge"><title>Node7&#45;&gt;Node8</title>
<path fill="none" stroke="midnightblue" d="M2004.33,-330.023C2022.64,-325.125 2043.69,-319.496 2063.12,-314.3"/>
<polygon fill="midnightblue" stroke="midnightblue" points="2003.22,-326.697 1994.46,-332.662 2005.03,-333.459 2003.22,-326.697"/>
</g>
<!-- Node9 -->
<g id="node17" class="node"><title>Node9</title>
<a xlink:href="classGUITimeline.xhtml#a099f3654aa6e7ea04df861851a0e9ec8" target="_top" xlink:title="Sucht den Zeitpunkt zwischen zwei markierten Stellen auf der Sensordaten&#45;Zeitleiste, für den der Wäremeenergiegehalt maximal wird. ">
<polygon fill="none" stroke="black" points="2058.5,-332.715 2058.5,-353.715 2195.5,-353.715 2195.5,-332.715 2058.5,-332.715"/>
<text text-anchor="middle" x="2127" y="-340.715" font-family="Helvetica,sans-Serif" font-size="10.00">GUITimeline::findMaxValue</text>
</a>
</g>
<!-- Node7&#45;&gt;Node9 -->
<g id="edge16" class="edge"><title>Node7&#45;&gt;Node9</title>
<path fill="none" stroke="midnightblue" d="M2026.23,-343.215C2036.89,-343.215 2047.86,-343.215 2058.46,-343.215"/>
<polygon fill="midnightblue" stroke="midnightblue" points="2026.13,-339.715 2016.13,-343.215 2026.13,-346.715 2026.13,-339.715"/>
</g>
<!-- Node12 -->
<g id="node23" class="node"><title>Node12</title>
<a xlink:href="classtetgenmesh.xhtml#aab64d62b3d2b048a38158fb2bf678624" target="_top" xlink:title="tetgenmesh::constraineddelaunay">
<polygon fill="none" stroke="black" points="1182.5,-293.715 1182.5,-314.715 1345.5,-314.715 1345.5,-293.715 1182.5,-293.715"/>
<text text-anchor="middle" x="1264" y="-301.715" font-family="Helvetica,sans-Serif" font-size="10.00">tetgenmesh::constraineddelaunay</text>
</a>
</g>
<!-- Node11&#45;&gt;Node12 -->
<g id="edge22" class="edge"><title>Node11&#45;&gt;Node12</title>
<path fill="none" stroke="midnightblue" d="M1156.37,-304.761C1165.01,-304.718 1173.75,-304.673 1182.32,-304.63"/>
<polygon fill="midnightblue" stroke="midnightblue" points="1156.26,-301.262 1146.28,-304.813 1156.29,-308.262 1156.26,-301.262"/>
</g>
<!-- Node12&#45;&gt;Node4 -->
<g id="edge24" class="edge"><title>Node12&#45;&gt;Node4</title>
<path fill="none" stroke="midnightblue" d="M1355.63,-310.058C1412.23,-313.718 1486.34,-318.599 1552,-323.215 1634.15,-328.99 1730.41,-336.309 1782.28,-340.297"/>
<polygon fill="midnightblue" stroke="midnightblue" points="1355.84,-306.564 1345.63,-309.413 1355.39,-313.55 1355.84,-306.564"/>
</g>
<!-- Node13&#45;&gt;Node14 -->
<g id="edge28" class="edge"><title>Node13&#45;&gt;Node14</title>
<path fill="none" stroke="midnightblue" d="M520.215,-254.914C548.494,-250.03 580.695,-244.468 607.891,-239.77"/>
<polygon fill="midnightblue" stroke="midnightblue" points="519.248,-251.529 509.99,-256.68 520.44,-258.427 519.248,-251.529"/>
</g>
<!-- Node16 -->
<g id="node32" class="node"><title>Node16</title>
<a xlink:href="classtetgenmesh.xhtml#a7579c3a44a54712623d9f9e5fc1dfbdc" target="_top" xlink:title="tetgenmesh::constrainedfacets">
<polygon fill="none" stroke="black" points="991.5,-254.715 991.5,-275.715 1142.5,-275.715 1142.5,-254.715 991.5,-254.715"/>
<text text-anchor="middle" x="1067" y="-262.715" font-family="Helvetica,sans-Serif" font-size="10.00">tetgenmesh::constrainedfacets</text>
</a>
</g>
<!-- Node13&#45;&gt;Node16 -->
<g id="edge36" class="edge"><title>Node13&#45;&gt;Node16</title>
<path fill="none" stroke="midnightblue" d="M529.822,-266.954C649.918,-266.565 873.88,-265.84 991.077,-265.461"/>
<polygon fill="midnightblue" stroke="midnightblue" points="529.58,-263.454 519.591,-266.987 529.603,-270.454 529.58,-263.454"/>
</g>
<!-- Node15 -->
<g id="node30" class="node"><title>Node15</title>
<a xlink:href="classtetgenmesh.xhtml#aa34a5188a4cee82197394560c388c348" target="_top" xlink:title="tetgenmesh::refineregion">
<polygon fill="none" stroke="black" points="815,-218.715 815,-239.715 939,-239.715 939,-218.715 815,-218.715"/>
<text text-anchor="middle" x="877" y="-226.715" font-family="Helvetica,sans-Serif" font-size="10.00">tetgenmesh::refineregion</text>
</a>
</g>
<!-- Node14&#45;&gt;Node15 -->
<g id="edge30" class="edge"><title>Node14&#45;&gt;Node15</title>
<path fill="none" stroke="midnightblue" d="M747.73,-229.215C769.881,-229.215 793.659,-229.215 814.705,-229.215"/>
<polygon fill="midnightblue" stroke="midnightblue" points="747.683,-225.715 737.683,-229.215 747.683,-232.715 747.683,-225.715"/>
</g>
<!-- Node15&#45;&gt;Node16 -->
<g id="edge32" class="edge"><title>Node15&#45;&gt;Node16</title>
<path fill="none" stroke="midnightblue" d="M942.586,-241.642C965.026,-245.894 989.896,-250.606 1011.46,-254.693"/>
<polygon fill="midnightblue" stroke="midnightblue" points="942.943,-238.147 932.467,-239.725 941.64,-245.025 942.943,-238.147"/>
</g>
<!-- Node16&#45;&gt;Node12 -->
<g id="edge34" class="edge"><title>Node16&#45;&gt;Node12</title>
<path fill="none" stroke="midnightblue" d="M1130.19,-277.724C1156.2,-282.873 1185.99,-288.772 1210.85,-293.694"/>
<polygon fill="midnightblue" stroke="midnightblue" points="1130.54,-274.226 1120.05,-275.718 1129.18,-281.093 1130.54,-274.226"/>
</g>
<!-- Node17&#45;&gt;Node18 -->
<g id="edge42" class="edge"><title>Node17&#45;&gt;Node18</title>
<path fill="none" stroke="midnightblue" d="M525.225,-110.68C540.221,-111.362 556.144,-112.085 571.722,-112.793"/>
<polygon fill="midnightblue" stroke="midnightblue" points="525.156,-107.173 515.007,-110.215 524.838,-114.166 525.156,-107.173"/>
</g>
<!-- Node19 -->
<g id="node41" class="node"><title>Node19</title>
<a xlink:href="classtetgenmesh.xhtml#a50e12e269b11573e6e1b91347ad19b37" target="_top" xlink:title="tetgenmesh::recoversegments">
<polygon fill="none" stroke="black" points="802.5,-117.715 802.5,-138.715 951.5,-138.715 951.5,-117.715 802.5,-117.715"/>
<text text-anchor="middle" x="877" y="-125.715" font-family="Helvetica,sans-Serif" font-size="10.00">tetgenmesh::recoversegments</text>
</a>
</g>
<!-- Node18&#45;&gt;Node19 -->
<g id="edge44" class="edge"><title>Node18&#45;&gt;Node19</title>
<path fill="none" stroke="midnightblue" d="M776.289,-122.889C785.136,-123.357 793.951,-123.823 802.478,-124.274"/>
<polygon fill="midnightblue" stroke="midnightblue" points="776.472,-119.394 766.301,-122.361 776.102,-126.384 776.472,-119.394"/>
</g>
<!-- Node20 -->
<g id="node43" class="node"><title>Node20</title>
<a xlink:href="classtetgenmesh.xhtml#a1be7dce56688fbe7a97fc31f98b61c19" target="_top" xlink:title="tetgenmesh::recoverboundary">
<polygon fill="none" stroke="black" points="994,-178.715 994,-199.715 1140,-199.715 1140,-178.715 994,-178.715"/>
<text text-anchor="middle" x="1067" y="-186.715" font-family="Helvetica,sans-Serif" font-size="10.00">tetgenmesh::recoverboundary</text>
</a>
</g>
<!-- Node19&#45;&gt;Node20 -->
<g id="edge46" class="edge"><title>Node19&#45;&gt;Node20</title>
<path fill="none" stroke="midnightblue" d="M919.944,-142.002C954.617,-153.134 1002.67,-168.563 1034.28,-178.711"/>
<polygon fill="midnightblue" stroke="midnightblue" points="920.687,-138.565 910.095,-138.841 918.547,-145.23 920.687,-138.565"/>
</g>
<!-- Node20&#45;&gt;Node4 -->
<g id="edge48" class="edge"><title>Node20&#45;&gt;Node4</title>
<path fill="none" stroke="midnightblue" d="M1142.46,-201.423C1268.34,-222.337 1528.82,-267.955 1746,-321.215 1759.54,-324.535 1774.29,-328.788 1787.03,-332.669"/>
<polygon fill="midnightblue" stroke="midnightblue" points="1142.97,-197.96 1132.53,-199.778 1141.82,-204.865 1142.97,-197.96"/>
</g>
<!-- Node21&#45;&gt;Node18 -->
<g id="edge52" class="edge"><title>Node21&#45;&gt;Node18</title>
<path fill="none" stroke="midnightblue" d="M519.216,-75.0031C556.487,-85.507 600.802,-97.9957 631.515,-106.651"/>
<polygon fill="midnightblue" stroke="midnightblue" points="519.981,-71.5827 509.407,-72.2389 518.083,-78.3203 519.981,-71.5827"/>
</g>
<!-- Node22&#45;&gt;Node20 -->
<g id="edge58" class="edge"><title>Node22&#45;&gt;Node20</title>
<path fill="none" stroke="midnightblue" d="M960.354,-189.215C971.512,-189.215 982.886,-189.215 993.85,-189.215"/>
<polygon fill="midnightblue" stroke="midnightblue" points="960.187,-185.715 950.187,-189.215 960.187,-192.715 960.187,-185.715"/>
</g>
<!-- Node23&#45;&gt;Node4 -->
<g id="edge64" class="edge"><title>Node23&#45;&gt;Node4</title>
<path fill="none" stroke="midnightblue" d="M516.514,-663.427C534.496,-666.341 553.944,-669.19 572,-671.215 706.972,-686.355 741.182,-690.215 877,-690.215 877,-690.215 877,-690.215 1467,-690.215 1663.79,-690.215 1790.98,-412.551 1815.62,-353.981"/>
<polygon fill="midnightblue" stroke="midnightblue" points="516.843,-659.934 506.407,-661.757 515.703,-666.84 516.843,-659.934"/>
</g>
<!-- Node24 -->
<g id="node55" class="node"><title>Node24</title>
<a xlink:href="classtetgenmesh.xhtml#ab859365ca3dd3eafb77fac56d0ae3a03" target="_top" xlink:title="tetgenmesh::insertconstrainedpoints">
<polygon fill="none" stroke="black" points="582,-640.715 582,-661.715 756,-661.715 756,-640.715 582,-640.715"/>
<text text-anchor="middle" x="669" y="-648.715" font-family="Helvetica,sans-Serif" font-size="10.00">tetgenmesh::insertconstrainedpoints</text>
</a>
</g>
<!-- Node23&#45;&gt;Node24 -->
<g id="edge62" class="edge"><title>Node23&#45;&gt;Node24</title>
<path fill="none" stroke="midnightblue" d="M546.535,-651.215C558.293,-651.215 570.244,-651.215 581.84,-651.215"/>
<polygon fill="midnightblue" stroke="midnightblue" points="546.266,-647.715 536.266,-651.215 546.266,-654.715 546.266,-647.715"/>
</g>
<!-- Node26 -->
<g id="node60" class="node"><title>Node26</title>
<a xlink:href="classtetgenmesh.xhtml#a7af360f1ae413f9e0d7803ccae55b6d6" target="_top" xlink:title="tetgenmesh::repairencsegs">
<polygon fill="none" stroke="black" points="602,-450.715 602,-471.715 736,-471.715 736,-450.715 602,-450.715"/>
<text text-anchor="middle" x="669" y="-458.715" font-family="Helvetica,sans-Serif" font-size="10.00">tetgenmesh::repairencsegs</text>
</a>
</g>
<!-- Node25&#45;&gt;Node26 -->
<g id="edge68" class="edge"><title>Node25&#45;&gt;Node26</title>
<path fill="none" stroke="midnightblue" d="M523.798,-473.755C549.084,-471.571 577.144,-469.148 601.804,-467.018"/>
<polygon fill="midnightblue" stroke="midnightblue" points="523.182,-470.295 513.521,-474.643 523.785,-477.269 523.182,-470.295"/>
</g>
<!-- Node25&#45;&gt;Node27 -->
<g id="edge90" class="edge"><title>Node25&#45;&gt;Node27</title>
<path fill="none" stroke="midnightblue" d="M523.56,-484.319C587.905,-486.937 683.268,-488.609 766,-481.215 786.869,-479.35 809.684,-475.55 829.173,-471.759"/>
<polygon fill="midnightblue" stroke="midnightblue" points="523.645,-480.82 513.506,-483.892 523.348,-487.813 523.645,-480.82"/>
</g>
<!-- Node25&#45;&gt;Node29 -->
<g id="edge92" class="edge"><title>Node25&#45;&gt;Node29</title>
<path fill="none" stroke="midnightblue" d="M523.955,-491.515C539.794,-493.639 556.426,-495.673 572,-497.215 826.111,-522.373 890.704,-527.621 1146,-522.215 1161.48,-521.887 1178.09,-521.318 1193.82,-520.678"/>
<polygon fill="midnightblue" stroke="midnightblue" points="524.063,-487.997 513.681,-490.111 523.115,-494.933 524.063,-487.997"/>
</g>
<!-- Node26&#45;&gt;Node27 -->
<g id="edge70" class="edge"><title>Node26&#45;&gt;Node27</title>
<path fill="none" stroke="midnightblue" d="M746.331,-461.215C768.585,-461.215 792.587,-461.215 813.873,-461.215"/>
<polygon fill="midnightblue" stroke="midnightblue" points="746.244,-457.715 736.244,-461.215 746.244,-464.715 746.244,-457.715"/>
</g>
<!-- Node26&#45;&gt;Node29 -->
<g id="edge86" class="edge"><title>Node26&#45;&gt;Node29</title>
<path fill="none" stroke="midnightblue" d="M746.279,-473.186C764.537,-475.917 783.945,-478.742 802,-481.215 884.526,-492.52 905.005,-497.139 988,-504.215 1057.9,-510.175 1138.01,-513.568 1193.86,-515.382"/>
<polygon fill="midnightblue" stroke="midnightblue" points="746.679,-469.707 736.27,-471.681 745.638,-476.629 746.679,-469.707"/>
</g>
<!-- Node31 -->
<g id="node70" class="node"><title>Node31</title>
<a xlink:href="classtetgenmesh.xhtml#a477bbfde72103de66546d4ea3343b4a1" target="_top" xlink:title="tetgenmesh::delaunayrefinement">
<polygon fill="none" stroke="black" points="1588,-430.715 1588,-451.715 1746,-451.715 1746,-430.715 1588,-430.715"/>
<text text-anchor="middle" x="1667" y="-438.715" font-family="Helvetica,sans-Serif" font-size="10.00">tetgenmesh::delaunayrefinement</text>
</a>
</g>
<!-- Node26&#45;&gt;Node31 -->
<g id="edge88" class="edge"><title>Node26&#45;&gt;Node31</title>
<path fill="none" stroke="midnightblue" d="M737.07,-449.126C757.844,-445.938 780.798,-442.915 802,-441.215 1090.72,-418.067 1435.39,-429.799 1587.82,-436.993"/>
<polygon fill="midnightblue" stroke="midnightblue" points="736.399,-445.689 727.065,-450.7 737.487,-452.604 736.399,-445.689"/>
</g>
<!-- Node28 -->
<g id="node64" class="node"><title>Node28</title>
<a xlink:href="classtetgenmesh.xhtml#a701d4f317ed66df6a2e2b7b237e2386a" target="_top" xlink:title="tetgenmesh::repairencfacs">
<polygon fill="none" stroke="black" points="1001,-448.715 1001,-469.715 1133,-469.715 1133,-448.715 1001,-448.715"/>
<text text-anchor="middle" x="1067" y="-456.715" font-family="Helvetica,sans-Serif" font-size="10.00">tetgenmesh::repairencfacs</text>
</a>
</g>
<!-- Node27&#45;&gt;Node28 -->
<g id="edge72" class="edge"><title>Node27&#45;&gt;Node28</title>
<path fill="none" stroke="midnightblue" d="M950.247,-460.444C966.926,-460.269 984.55,-460.083 1000.91,-459.911"/>
<polygon fill="midnightblue" stroke="midnightblue" points="949.966,-456.947 940.003,-460.552 950.04,-463.946 949.966,-456.947"/>
</g>
<!-- Node27&#45;&gt;Node29 -->
<g id="edge84" class="edge"><title>Node27&#45;&gt;Node29</title>
<path fill="none" stroke="midnightblue" d="M950.091,-473.323C962.725,-475.343 975.736,-477.377 988,-479.215 1057.96,-489.702 1138.06,-500.609 1193.89,-508.033"/>
<polygon fill="midnightblue" stroke="midnightblue" points="950.491,-469.842 940.062,-471.71 949.38,-476.753 950.491,-469.842"/>
</g>
<!-- Node28&#45;&gt;Node29 -->
<g id="edge74" class="edge"><title>Node28&#45;&gt;Node29</title>
<path fill="none" stroke="midnightblue" d="M1112.7,-472.669C1147.89,-483.029 1195.84,-497.148 1228.26,-506.692"/>
<polygon fill="midnightblue" stroke="midnightblue" points="1113.26,-469.185 1102.68,-469.718 1111.28,-475.9 1113.26,-469.185"/>
</g>
<!-- Node28&#45;&gt;Node31 -->
<g id="edge82" class="edge"><title>Node28&#45;&gt;Node31</title>
<path fill="none" stroke="midnightblue" d="M1143.28,-456.927C1257.48,-453.501 1471.87,-447.069 1587.77,-443.592"/>
<polygon fill="midnightblue" stroke="midnightblue" points="1143.11,-453.43 1133.21,-457.229 1143.32,-460.427 1143.11,-453.43"/>
</g>
<!-- Node30 -->
<g id="node68" class="node"><title>Node30</title>
<a xlink:href="classtetgenmesh.xhtml#a7c46c82d83099214115fa9719aefbd78" target="_top" xlink:title="tetgenmesh::repairbadtets">
<polygon fill="none" stroke="black" points="1402,-497.715 1402,-518.715 1532,-518.715 1532,-497.715 1402,-497.715"/>
<text text-anchor="middle" x="1467" y="-505.715" font-family="Helvetica,sans-Serif" font-size="10.00">tetgenmesh::repairbadtets</text>
</a>
</g>
<!-- Node29&#45;&gt;Node30 -->
<g id="edge76" class="edge"><title>Node29&#45;&gt;Node30</title>
<path fill="none" stroke="midnightblue" d="M1344.34,-513.653C1363.46,-512.806 1383.63,-511.911 1401.97,-511.098"/>
<polygon fill="midnightblue" stroke="midnightblue" points="1343.98,-510.166 1334.15,-514.105 1344.29,-517.159 1343.98,-510.166"/>
</g>
<!-- Node30&#45;&gt;Node31 -->
<g id="edge78" class="edge"><title>Node30&#45;&gt;Node31</title>
<path fill="none" stroke="midnightblue" d="M1508.37,-494.355C1546.14,-481.705 1601.14,-463.278 1635.46,-451.782"/>
<polygon fill="midnightblue" stroke="midnightblue" points="1507.06,-491.103 1498.69,-497.599 1509.28,-497.741 1507.06,-491.103"/>
</g>
<!-- Node31&#45;&gt;Node4 -->
<g id="edge80" class="edge"><title>Node31&#45;&gt;Node4</title>
<path fill="none" stroke="midnightblue" d="M1701.36,-426.224C1715.55,-419.531 1731.94,-411.143 1746,-402.215 1769.3,-387.416 1793.89,-366.632 1808.04,-354.091"/>
<polygon fill="midnightblue" stroke="midnightblue" points="1699.55,-423.203 1691.94,-430.572 1702.48,-429.559 1699.55,-423.203"/>
</g>
<!-- Node33 -->
<g id="node83" class="node"><title>Node33</title>
<a xlink:href="classtetgenmesh.xhtml#ad5c46c2f6c9adeed23fc8c64b682778d" target="_top" xlink:title="tetgenmesh::removeslivers">
<polygon fill="none" stroke="black" points="1197,-371.715 1197,-392.715 1331,-392.715 1331,-371.715 1197,-371.715"/>
<text text-anchor="middle" x="1264" y="-379.715" font-family="Helvetica,sans-Serif" font-size="10.00">tetgenmesh::removeslivers</text>
</a>
</g>
<!-- Node32&#45;&gt;Node33 -->
<g id="edge100" class="edge"><title>Node32&#45;&gt;Node33</title>
<path fill="none" stroke="midnightblue" d="M736.651,-383.101C851.336,-382.909 1082.58,-382.52 1196.89,-382.328"/>
<polygon fill="midnightblue" stroke="midnightblue" points="736.586,-379.601 726.592,-383.118 736.598,-386.601 736.586,-379.601"/>
</g>
<!-- Node34 -->
<g id="node85" class="node"><title>Node34</title>
<a xlink:href="classtetgenmesh.xhtml#a8bb5c6ad8ccfa57f2a84e5a78295b263" target="_top" xlink:title="tetgenmesh::optimizemesh">
<polygon fill="none" stroke="black" points="1600,-371.715 1600,-392.715 1734,-392.715 1734,-371.715 1600,-371.715"/>
<text text-anchor="middle" x="1667" y="-379.715" font-family="Helvetica,sans-Serif" font-size="10.00">tetgenmesh::optimizemesh</text>
</a>
</g>
<!-- Node33&#45;&gt;Node34 -->
<g id="edge102" class="edge"><title>Node33&#45;&gt;Node34</title>
<path fill="none" stroke="midnightblue" d="M1341.77,-382.215C1416.71,-382.215 1528.91,-382.215 1600,-382.215"/>
<polygon fill="midnightblue" stroke="midnightblue" points="1341.45,-378.715 1331.45,-382.215 1341.45,-385.715 1341.45,-378.715"/>
</g>
<!-- Node34&#45;&gt;Node4 -->
<g id="edge104" class="edge"><title>Node34&#45;&gt;Node4</title>
<path fill="none" stroke="midnightblue" d="M1718.15,-369.176C1739.19,-363.813 1763.12,-357.714 1782.49,-352.776"/>
<polygon fill="midnightblue" stroke="midnightblue" points="1717.23,-365.799 1708.4,-371.661 1718.96,-372.583 1717.23,-365.799"/>
</g>
<!-- Node36 -->
<g id="node90" class="node"><title>Node36</title>
<a xlink:href="classtetgenmesh.xhtml#affc448708b6df2b57048544d3efd6e3c" target="_top" xlink:title="tetgenmesh::suppresssteinerpoints">
<polygon fill="none" stroke="black" points="1382.5,-44.7151 1382.5,-65.7151 1551.5,-65.7151 1551.5,-44.7151 1382.5,-44.7151"/>
<text text-anchor="middle" x="1467" y="-52.7151" font-family="Helvetica,sans-Serif" font-size="10.00">tetgenmesh::suppresssteinerpoints</text>
</a>
</g>
<!-- Node35&#45;&gt;Node36 -->
<g id="edge108" class="edge"><title>Node35&#45;&gt;Node36</title>
<path fill="none" stroke="midnightblue" d="M249.553,-119.782C271.019,-94.1647 313.865,-48.751 362,-29.2151 488.671,22.1946 532.294,-10.2151 669,-10.2151 669,-10.2151 669,-10.2151 1067,-10.2151 1189.64,-10.2151 1332.12,-31.364 1409.6,-44.6646"/>
<polygon fill="midnightblue" stroke="midnightblue" points="246.743,-117.689 243.116,-127.644 252.159,-122.124 246.743,-117.689"/>
</g>
<!-- Node36&#45;&gt;Node4 -->
<g id="edge110" class="edge"><title>Node36&#45;&gt;Node4</title>
<path fill="none" stroke="midnightblue" d="M1505.96,-69.4391C1564.13,-92.2602 1674.48,-141.853 1746,-213.215 1782.77,-249.901 1807.25,-308.611 1816.2,-332.541"/>
<polygon fill="midnightblue" stroke="midnightblue" points="1507,-66.0871 1496.41,-65.7482 1504.47,-72.6168 1507,-66.0871"/>
</g>
</g>
</svg>
