<?xml version="1.0" encoding="UTF-8" standalone="no"?>
<!DOCTYPE svg PUBLIC "-//W3C//DTD SVG 1.1//EN"
 "http://www.w3.org/Graphics/SVG/1.1/DTD/svg11.dtd">
<!-- Generated by graphviz version 2.26.3 (20100126.1600)
 -->
<!-- Title: Vector3D::normalize Pages: 1 -->
<svg width="1432pt" height="226pt"
 viewBox="0.00 0.00 1432.00 226.00" xmlns="http://www.w3.org/2000/svg" xmlns:xlink="http://www.w3.org/1999/xlink">
<g id="graph1" class="graph" transform="scale(1 1) rotate(0) translate(4 222)">
<title>Vector3D::normalize</title>
<!-- Node1 -->
<g id="node1" class="node"><title>Node1</title>
<polygon fill="#bfbfbf" stroke="black" points="0,-86.5 0,-107.5 106,-107.5 106,-86.5 0,-86.5"/>
<text text-anchor="middle" x="53" y="-94.5" font-family="Helvetica,sans-Serif" font-size="10.00">Vector3D::normalize</text>
</g>
<!-- Node2 -->
<g id="node3" class="node"><title>Node2</title>
<a xlink:href="classGUICutRenderWindow.xhtml#a9eedb7088ad31f4680a77ed3a06fa60c" target="_top" xlink:title="Berechnet die 2D&#45;Temperaturverteilung als Grafik. ">
<polygon fill="none" stroke="black" points="779.5,-61 779.5,-95 896.5,-95 896.5,-61 779.5,-61"/>
<text text-anchor="start" x="787.5" y="-82" font-family="Helvetica,sans-Serif" font-size="10.00">GUICutRenderWindow</text>
<text text-anchor="middle" x="838" y="-69" font-family="Helvetica,sans-Serif" font-size="10.00">::renderImage</text>
</a>
</g>
<!-- Node1&#45;&gt;Node2 -->
<g id="edge2" class="edge"><title>Node1&#45;&gt;Node2</title>
<path fill="none" stroke="midnightblue" d="M73.1595,-79.8056C90.3421,-66.0762 116.276,-47.4627 142,-37 227.356,-2.28309 253.854,-5.64231e-15 346,-0 346,-0 346,-0 516,-0 618.816,-0 735.04,-38.0283 795.82,-60.979"/>
<polygon fill="midnightblue" stroke="midnightblue" points="70.5391,-77.4276 65.0192,-86.4709 74.9738,-82.8436 70.5391,-77.4276"/>
</g>
<!-- Node4 -->
<g id="node7" class="node"><title>Node4</title>
<a xlink:href="classRenderer.xhtml#a927f376a6283de3181b86f65b927386c" target="_top" xlink:title="Zeichnet die Tetraeder eines Materials des Objekts. ">
<polygon fill="none" stroke="black" points="448,-106.5 448,-127.5 584,-127.5 584,-106.5 448,-106.5"/>
<text text-anchor="middle" x="516" y="-114.5" font-family="Helvetica,sans-Serif" font-size="10.00">Renderer::renderTetrahedra</text>
</a>
</g>
<!-- Node1&#45;&gt;Node4 -->
<g id="edge6" class="edge"><title>Node1&#45;&gt;Node4</title>
<path fill="none" stroke="midnightblue" d="M71.8769,-114.24C88.8959,-128.724 115.285,-148.667 142,-159 254.168,-202.387 302.137,-225.929 412,-177 433.849,-167.269 427.761,-149.746 448,-137 454.039,-133.197 460.833,-130.09 467.728,-127.56"/>
<polygon fill="midnightblue" stroke="midnightblue" points="74.1483,-111.576 64.3144,-107.634 69.5431,-116.848 74.1483,-111.576"/>
</g>
<!-- Node5 -->
<g id="node9" class="node"><title>Node5</title>
<a xlink:href="Renderer_8cpp.xhtml#a4225af4db7b633515f133a4f40c72b33" target="_top" xlink:title="drawVector">
<polygon fill="none" stroke="black" points="160,-66.5 160,-87.5 226,-87.5 226,-66.5 160,-66.5"/>
<text text-anchor="middle" x="193" y="-74.5" font-family="Helvetica,sans-Serif" font-size="10.00">drawVector</text>
</a>
</g>
<!-- Node1&#45;&gt;Node5 -->
<g id="edge8" class="edge"><title>Node1&#45;&gt;Node5</title>
<path fill="none" stroke="midnightblue" d="M116.541,-87.9227C131.434,-85.7951 146.72,-83.6114 159.672,-81.7611"/>
<polygon fill="midnightblue" stroke="midnightblue" points="115.732,-84.5027 106.327,-89.3818 116.722,-91.4323 115.732,-84.5027"/>
</g>
<!-- Node6 -->
<g id="node11" class="node"><title>Node6</title>
<a xlink:href="classRenderer.xhtml#af7e5f8f68742f198e315fb4683a605a4" target="_top" xlink:title="Zeichnet das Objekt (Attribut object). ">
<polygon fill="none" stroke="black" points="301.5,-28.5 301.5,-49.5 390.5,-49.5 390.5,-28.5 301.5,-28.5"/>
<text text-anchor="middle" x="346" y="-36.5" font-family="Helvetica,sans-Serif" font-size="10.00">Renderer::render</text>
</a>
</g>
<!-- Node1&#45;&gt;Node6 -->
<g id="edge14" class="edge"><title>Node1&#45;&gt;Node6</title>
<path fill="none" stroke="midnightblue" d="M80.6631,-81.6659C97.8013,-72.9104 120.563,-62.5926 142,-57 195.496,-43.0436 259.271,-39.4007 301.1,-38.6915"/>
<polygon fill="midnightblue" stroke="midnightblue" points="78.9973,-78.5874 71.7646,-86.3294 82.2466,-84.7875 78.9973,-78.5874"/>
</g>
<!-- Node8 -->
<g id="node16" class="node"><title>Node8</title>
<a xlink:href="classTriangle.xhtml#a3c72b19f316fa9ffb0a2f206e3558790" target="_top" xlink:title="Gibt die Normale des Dreiecks zurück. ">
<polygon fill="none" stroke="black" points="142,-106.5 142,-127.5 244,-127.5 244,-106.5 142,-106.5"/>
<text text-anchor="middle" x="193" y="-114.5" font-family="Helvetica,sans-Serif" font-size="10.00">Triangle::getNormal</text>
</a>
</g>
<!-- Node1&#45;&gt;Node8 -->
<g id="edge16" class="edge"><title>Node1&#45;&gt;Node8</title>
<path fill="none" stroke="midnightblue" d="M116.23,-106.033C124.745,-107.249 133.395,-108.485 141.669,-109.667"/>
<polygon fill="midnightblue" stroke="midnightblue" points="116.722,-102.568 106.327,-104.618 115.732,-109.497 116.722,-102.568"/>
</g>
<!-- Node10 -->
<g id="node23" class="node"><title>Node10</title>
<a xlink:href="classInterpolator.xhtml#a30e714ca6dff9b5745d029f95af1420a" target="_top" xlink:title="Ermittelt den Wert für einen beliebigen Punkt im Raum. ">
<polygon fill="none" stroke="black" points="280.5,-146.5 280.5,-167.5 411.5,-167.5 411.5,-146.5 280.5,-146.5"/>
<text text-anchor="middle" x="346" y="-154.5" font-family="Helvetica,sans-Serif" font-size="10.00">Interpolator::interpolateTet</text>
</a>
</g>
<!-- Node1&#45;&gt;Node10 -->
<g id="edge54" class="edge"><title>Node1&#45;&gt;Node10</title>
<path fill="none" stroke="midnightblue" d="M80.6828,-112.259C97.8281,-120.988 120.59,-131.303 142,-137 187.223,-149.033 239.813,-153.981 280.27,-155.948"/>
<polygon fill="midnightblue" stroke="midnightblue" points="82.2645,-109.137 71.7798,-107.613 79.0257,-115.343 82.2645,-109.137"/>
</g>
<!-- Node3 -->
<g id="node5" class="node"><title>Node3</title>
<a xlink:href="classGUICutRenderWindow.xhtml#a7cd1bfbec53756a1cbbe1616b4d46c7a" target="_top" xlink:title="Behandelt das Drücken des Buttons zur Berechnung der zweidimensionalen Temperaturverteilung. ">
<polygon fill="none" stroke="black" points="941.5,-61 941.5,-95 1058.5,-95 1058.5,-61 941.5,-61"/>
<text text-anchor="start" x="949.5" y="-82" font-family="Helvetica,sans-Serif" font-size="10.00">GUICutRenderWindow</text>
<text text-anchor="middle" x="1000" y="-69" font-family="Helvetica,sans-Serif" font-size="10.00">::renderCutBtClick</text>
</a>
</g>
<!-- Node2&#45;&gt;Node3 -->
<g id="edge4" class="edge"><title>Node2&#45;&gt;Node3</title>
<path fill="none" stroke="midnightblue" d="M907.263,-78C918.624,-78 930.3,-78 941.371,-78"/>
<polygon fill="midnightblue" stroke="midnightblue" points="906.944,-74.5001 896.944,-78 906.944,-81.5001 906.944,-74.5001"/>
</g>
<!-- Node5&#45;&gt;Node6 -->
<g id="edge10" class="edge"><title>Node5&#45;&gt;Node6</title>
<path fill="none" stroke="midnightblue" d="M236.177,-66.2764C257.265,-61.0389 282.552,-54.7584 303.543,-49.5449"/>
<polygon fill="midnightblue" stroke="midnightblue" points="235.06,-62.9473 226.199,-68.7546 236.748,-69.7409 235.06,-62.9473"/>
</g>
<!-- Node7 -->
<g id="node13" class="node"><title>Node7</title>
<a xlink:href="classGUIGLCanvas.xhtml#a83f52d08591920a339150c2f45069c8f" target="_top" xlink:title="Event&#45;Tabellendeklaration für wxWidgets. ">
<polygon fill="none" stroke="black" points="455,-28.5 455,-49.5 577,-49.5 577,-28.5 455,-28.5"/>
<text text-anchor="middle" x="516" y="-36.5" font-family="Helvetica,sans-Serif" font-size="10.00">GUIGLCanvas::OnPaint</text>
</a>
</g>
<!-- Node6&#45;&gt;Node7 -->
<g id="edge12" class="edge"><title>Node6&#45;&gt;Node7</title>
<path fill="none" stroke="midnightblue" d="M401.059,-39C418.186,-39 437.172,-39 454.697,-39"/>
<polygon fill="midnightblue" stroke="midnightblue" points="400.666,-35.5001 390.665,-39 400.665,-42.5001 400.666,-35.5001"/>
</g>
<!-- Node8&#45;&gt;Node2 -->
<g id="edge18" class="edge"><title>Node8&#45;&gt;Node2</title>
<path fill="none" stroke="midnightblue" d="M241.447,-104.131C253.923,-101.296 267.389,-98.6487 280,-97 460.933,-73.3456 677.501,-74.2057 779.458,-76.3177"/>
<polygon fill="midnightblue" stroke="midnightblue" points="240.619,-100.73 231.688,-106.43 242.224,-107.544 240.619,-100.73"/>
</g>
<!-- Node8&#45;&gt;Node6 -->
<g id="edge24" class="edge"><title>Node8&#45;&gt;Node6</title>
<path fill="none" stroke="midnightblue" d="M234.524,-102.239C237.805,-100.617 241.004,-98.8691 244,-97 262.415,-85.5104 261.519,-75.3823 280,-64 289.39,-58.2171 300.334,-53.4104 310.581,-49.6082"/>
<polygon fill="midnightblue" stroke="midnightblue" points="232.831,-99.163 225.163,-106.474 235.717,-105.541 232.831,-99.163"/>
</g>
<!-- Node9 -->
<g id="node19" class="node"><title>Node9</title>
<a xlink:href="Renderer_8cpp.xhtml#a17ef754a4f478e115d6e7fb813702639" target="_top" xlink:title="pointBehindCut">
<polygon fill="none" stroke="black" points="304.5,-106.5 304.5,-127.5 387.5,-127.5 387.5,-106.5 304.5,-106.5"/>
<text text-anchor="middle" x="346" y="-114.5" font-family="Helvetica,sans-Serif" font-size="10.00">pointBehindCut</text>
</a>
</g>
<!-- Node8&#45;&gt;Node9 -->
<g id="edge20" class="edge"><title>Node8&#45;&gt;Node9</title>
<path fill="none" stroke="midnightblue" d="M254.586,-117C271.24,-117 288.875,-117 304.167,-117"/>
<polygon fill="midnightblue" stroke="midnightblue" points="254.372,-113.5 244.372,-117 254.372,-120.5 254.372,-113.5"/>
</g>
<!-- Node8&#45;&gt;Node10 -->
<g id="edge26" class="edge"><title>Node8&#45;&gt;Node10</title>
<path fill="none" stroke="midnightblue" d="M242.94,-130.056C263.312,-135.382 286.555,-141.459 305.804,-146.491"/>
<polygon fill="midnightblue" stroke="midnightblue" points="243.759,-126.653 233.199,-127.51 241.988,-133.425 243.759,-126.653"/>
</g>
<!-- Node9&#45;&gt;Node4 -->
<g id="edge22" class="edge"><title>Node9&#45;&gt;Node4</title>
<path fill="none" stroke="midnightblue" d="M397.655,-117C413.419,-117 431,-117 447.689,-117"/>
<polygon fill="midnightblue" stroke="midnightblue" points="397.587,-113.5 387.587,-117 397.587,-120.5 397.587,-113.5"/>
</g>
<!-- Node11 -->
<g id="node25" class="node"><title>Node11</title>
<a xlink:href="namespaceUtils.xhtml#a6a0ae18a42e2d206bc1b43da27820fe2" target="_top" xlink:title="Gibt den inter/extrapolierten Wert eines Punktes zurück. ">
<polygon fill="none" stroke="black" points="464,-146.5 464,-167.5 568,-167.5 568,-146.5 464,-146.5"/>
<text text-anchor="middle" x="516" y="-154.5" font-family="Helvetica,sans-Serif" font-size="10.00">Utils::getPointValue</text>
</a>
</g>
<!-- Node10&#45;&gt;Node11 -->
<g id="edge28" class="edge"><title>Node10&#45;&gt;Node11</title>
<path fill="none" stroke="midnightblue" d="M421.96,-157C436.128,-157 450.635,-157 463.882,-157"/>
<polygon fill="midnightblue" stroke="midnightblue" points="421.726,-153.5 411.726,-157 421.726,-160.5 421.726,-153.5"/>
</g>
<!-- Node12 -->
<g id="node27" class="node"><title>Node12</title>
<a xlink:href="GUICutRenderWindow_8cpp.xhtml#aeaaae4c8452680389d221d0e60a6fc33" target="_top" xlink:title="render_thread">
<polygon fill="none" stroke="black" points="641,-106.5 641,-127.5 717,-127.5 717,-106.5 641,-106.5"/>
<text text-anchor="middle" x="679" y="-114.5" font-family="Helvetica,sans-Serif" font-size="10.00">render_thread</text>
</a>
</g>
<!-- Node11&#45;&gt;Node12 -->
<g id="edge30" class="edge"><title>Node11&#45;&gt;Node12</title>
<path fill="none" stroke="midnightblue" d="M568.657,-144.078C592.184,-138.304 619.394,-131.627 640.906,-126.348"/>
<polygon fill="midnightblue" stroke="midnightblue" points="567.704,-140.708 558.826,-146.49 569.372,-147.506 567.704,-140.708"/>
</g>
<!-- Node13 -->
<g id="node30" class="node"><title>Node13</title>
<a xlink:href="classAnalyzer.xhtml#a8f73ee0aa71ae395a74b43dc76b35458" target="_top" xlink:title="Ermittelt Daten für einen Punkt am aktuell ausgewählten Zeitpunkt. ">
<polygon fill="none" stroke="black" points="620.5,-189.5 620.5,-210.5 737.5,-210.5 737.5,-189.5 620.5,-189.5"/>
<text text-anchor="middle" x="679" y="-197.5" font-family="Helvetica,sans-Serif" font-size="10.00">Analyzer::analyzePoint</text>
</a>
</g>
<!-- Node11&#45;&gt;Node13 -->
<g id="edge34" class="edge"><title>Node11&#45;&gt;Node13</title>
<path fill="none" stroke="midnightblue" d="M565.66,-170.1C589.157,-176.299 616.845,-183.603 638.972,-189.441"/>
<polygon fill="midnightblue" stroke="midnightblue" points="566.436,-166.686 555.874,-167.519 564.651,-173.454 566.436,-166.686"/>
</g>
<!-- Node15 -->
<g id="node34" class="node"><title>Node15</title>
<a xlink:href="MeshProcessor_8cpp.xhtml#ad2670c4e8381f9a0a89c65f5559ed421" target="_top" xlink:title="interpolatePoint">
<polygon fill="none" stroke="black" points="637,-146.5 637,-167.5 721,-167.5 721,-146.5 637,-146.5"/>
<text text-anchor="middle" x="679" y="-154.5" font-family="Helvetica,sans-Serif" font-size="10.00">interpolatePoint</text>
</a>
</g>
<!-- Node11&#45;&gt;Node15 -->
<g id="edge38" class="edge"><title>Node11&#45;&gt;Node15</title>
<path fill="none" stroke="midnightblue" d="M578.136,-157C597.806,-157 619.073,-157 636.985,-157"/>
<polygon fill="midnightblue" stroke="midnightblue" points="578.022,-153.5 568.022,-157 578.022,-160.5 578.022,-153.5"/>
</g>
<!-- Node12&#45;&gt;Node2 -->
<g id="edge32" class="edge"><title>Node12&#45;&gt;Node2</title>
<path fill="none" stroke="midnightblue" d="M727.043,-105.216C743.535,-101.171 762.18,-96.5972 779.414,-92.3701"/>
<polygon fill="midnightblue" stroke="midnightblue" points="725.963,-101.877 717.084,-107.659 727.63,-108.675 725.963,-101.877"/>
</g>
<!-- Node14 -->
<g id="node32" class="node"><title>Node14</title>
<a xlink:href="classGUIAnalyzePointWindow.xhtml#aa84ea9958e8b41423f01316d01ba5151" target="_top" xlink:title="Event&#45;Tabellendeklaration für wxWidgets. ">
<polygon fill="none" stroke="black" points="774,-184 774,-218 902,-218 902,-184 774,-184"/>
<text text-anchor="start" x="782" y="-205" font-family="Helvetica,sans-Serif" font-size="10.00">GUIAnalyzePointWindow</text>
<text text-anchor="middle" x="838" y="-192" font-family="Helvetica,sans-Serif" font-size="10.00">::analyzePoint</text>
</a>
</g>
<!-- Node13&#45;&gt;Node14 -->
<g id="edge36" class="edge"><title>Node13&#45;&gt;Node14</title>
<path fill="none" stroke="midnightblue" d="M747.811,-200.433C756.466,-200.487 765.294,-200.543 773.874,-200.597"/>
<polygon fill="midnightblue" stroke="midnightblue" points="747.776,-196.933 737.754,-200.37 747.732,-203.932 747.776,-196.933"/>
</g>
<!-- Node16 -->
<g id="node36" class="node"><title>Node16</title>
<a xlink:href="classMeshProcessor.xhtml#a060c3815db33f8e52ac620ed2239ccc9" target="_top" xlink:title="Berechnet die Temperaturverteilung für ein Objekt. ">
<polygon fill="none" stroke="black" points="775.5,-144.5 775.5,-165.5 900.5,-165.5 900.5,-144.5 775.5,-144.5"/>
<text text-anchor="middle" x="838" y="-152.5" font-family="Helvetica,sans-Serif" font-size="10.00">MeshProcessor::process</text>
</a>
</g>
<!-- Node15&#45;&gt;Node16 -->
<g id="edge40" class="edge"><title>Node15&#45;&gt;Node16</title>
<path fill="none" stroke="midnightblue" d="M731.595,-156.338C745.564,-156.163 760.789,-155.971 775.241,-155.789"/>
<polygon fill="midnightblue" stroke="midnightblue" points="731.147,-152.844 721.192,-156.469 731.235,-159.843 731.147,-152.844"/>
</g>
<!-- Node17 -->
<g id="node38" class="node"><title>Node17</title>
<a xlink:href="classAnalyzer.xhtml#a2a7b5f169f664ccd9f206e508cba78ef" target="_top" xlink:title="Ermittelt Daten für ein Objekt. ">
<polygon fill="none" stroke="black" points="938.5,-128.5 938.5,-149.5 1061.5,-149.5 1061.5,-128.5 938.5,-128.5"/>
<text text-anchor="middle" x="1000" y="-136.5" font-family="Helvetica,sans-Serif" font-size="10.00">Analyzer::analyzeObject</text>
</a>
</g>
<!-- Node16&#45;&gt;Node17 -->
<g id="edge42" class="edge"><title>Node16&#45;&gt;Node17</title>
<path fill="none" stroke="midnightblue" d="M910.6,-147.83C919.86,-146.915 929.268,-145.986 938.333,-145.091"/>
<polygon fill="midnightblue" stroke="midnightblue" points="910.241,-144.348 900.633,-148.814 910.929,-151.314 910.241,-144.348"/>
</g>
<!-- Node21 -->
<g id="node46" class="node"><title>Node21</title>
<a xlink:href="classObjectData.xhtml#af3a850833d08eb9b45357449f455e24d" target="_top" xlink:title="Zerlegt das Objekt in Tetraeder (Schnittstelle zur Tetgen&#45;Bibliothek) und Berechnet die Temperaturver...">
<polygon fill="none" stroke="black" points="939,-171.5 939,-192.5 1061,-192.5 1061,-171.5 939,-171.5"/>
<text text-anchor="middle" x="1000" y="-179.5" font-family="Helvetica,sans-Serif" font-size="10.00">ObjectData::calculateIO</text>
</a>
</g>
<!-- Node16&#45;&gt;Node21 -->
<g id="edge50" class="edge"><title>Node16&#45;&gt;Node21</title>
<path fill="none" stroke="midnightblue" d="M910.745,-167.124C920.14,-168.69 929.684,-170.281 938.866,-171.811"/>
<polygon fill="midnightblue" stroke="midnightblue" points="911.073,-163.631 900.633,-165.439 909.922,-170.535 911.073,-163.631"/>
</g>
<!-- Node18 -->
<g id="node40" class="node"><title>Node18</title>
<a xlink:href="classGUIAnalyzeOutputWindow.xhtml#a9ea5a7cf46d6189f368315903508cecc" target="_top" xlink:title="Methode zum aktualisieren des Fensters, alle Objekte werden erneut analysiert und die aktualisierten ...">
<polygon fill="none" stroke="black" points="1106,-76 1106,-110 1240,-110 1240,-76 1106,-76"/>
<text text-anchor="start" x="1114" y="-97" font-family="Helvetica,sans-Serif" font-size="10.00">GUIAnalyzeOutputWindow</text>
<text text-anchor="middle" x="1173" y="-84" font-family="Helvetica,sans-Serif" font-size="10.00">::Update</text>
</a>
</g>
<!-- Node17&#45;&gt;Node18 -->
<g id="edge44" class="edge"><title>Node17&#45;&gt;Node18</title>
<path fill="none" stroke="midnightblue" d="M1049.36,-125.876C1067.84,-120.962 1089.11,-115.305 1108.75,-110.085"/>
<polygon fill="midnightblue" stroke="midnightblue" points="1048.45,-122.494 1039.69,-128.447 1050.25,-129.259 1048.45,-122.494"/>
</g>
<!-- Node20 -->
<g id="node44" class="node"><title>Node20</title>
<a xlink:href="classGUITimeline.xhtml#a099f3654aa6e7ea04df861851a0e9ec8" target="_top" xlink:title="Sucht den Zeitpunkt zwischen zwei markierten Stellen auf der Sensordaten&#45;Zeitleiste, für den der Wäremeenergiegehalt maximal wird. ">
<polygon fill="none" stroke="black" points="1104.5,-128.5 1104.5,-149.5 1241.5,-149.5 1241.5,-128.5 1104.5,-128.5"/>
<text text-anchor="middle" x="1173" y="-136.5" font-family="Helvetica,sans-Serif" font-size="10.00">GUITimeline::findMaxValue</text>
</a>
</g>
<!-- Node17&#45;&gt;Node20 -->
<g id="edge48" class="edge"><title>Node17&#45;&gt;Node20</title>
<path fill="none" stroke="midnightblue" d="M1072.11,-139C1082.8,-139 1093.8,-139 1104.42,-139"/>
<polygon fill="midnightblue" stroke="midnightblue" points="1071.97,-135.5 1061.97,-139 1071.97,-142.5 1071.97,-135.5"/>
</g>
<!-- Node19 -->
<g id="node42" class="node"><title>Node19</title>
<a xlink:href="classGUIAnalyzeOutputWindow.xhtml#af9407245a6b2a0478579c4d592a31e63" target="_top" xlink:title="Der Konstruktor. ">
<polygon fill="none" stroke="black" points="1284,-76 1284,-110 1424,-110 1424,-76 1284,-76"/>
<text text-anchor="start" x="1292" y="-97" font-family="Helvetica,sans-Serif" font-size="10.00">GUIAnalyzeOutputWindow</text>
<text text-anchor="middle" x="1354" y="-84" font-family="Helvetica,sans-Serif" font-size="10.00">::GUIAnalyzeOutputWindow</text>
</a>
</g>
<!-- Node18&#45;&gt;Node19 -->
<g id="edge46" class="edge"><title>Node18&#45;&gt;Node19</title>
<path fill="none" stroke="midnightblue" d="M1250.3,-93C1261.47,-93 1272.92,-93 1283.94,-93"/>
<polygon fill="midnightblue" stroke="midnightblue" points="1250.14,-89.5001 1240.14,-93 1250.14,-96.5001 1250.14,-89.5001"/>
</g>
<!-- Node22 -->
<g id="node48" class="node"><title>Node22</title>
<a xlink:href="classGUIMainWindow.xhtml#a0c2de30274c7f52ff74ec1217e47a9e5" target="_top" xlink:title="Berechnet die 3D&#45;Temperaturverteilung neu. ">
<polygon fill="none" stroke="black" points="1098,-168 1098,-202 1248,-202 1248,-168 1098,-168"/>
<text text-anchor="start" x="1106" y="-189" font-family="Helvetica,sans-Serif" font-size="10.00">GUIMainWindow::OnRecalcBt</text>
<text text-anchor="middle" x="1173" y="-176" font-family="Helvetica,sans-Serif" font-size="10.00">Click</text>
</a>
</g>
<!-- Node21&#45;&gt;Node22 -->
<g id="edge52" class="edge"><title>Node21&#45;&gt;Node22</title>
<path fill="none" stroke="midnightblue" d="M1071.53,-183.24C1080.2,-183.391 1089.07,-183.545 1097.78,-183.696"/>
<polygon fill="midnightblue" stroke="midnightblue" points="1071.54,-179.74 1061.48,-183.066 1071.42,-186.739 1071.54,-179.74"/>
</g>
</g>
</svg>
