<?xml version="1.0" encoding="UTF-8" standalone="no"?>
<!DOCTYPE svg PUBLIC "-//W3C//DTD SVG 1.1//EN"
 "http://www.w3.org/Graphics/SVG/1.1/DTD/svg11.dtd">
<!-- Generated by graphviz version 2.26.3 (20100126.1600)
 -->
<!-- Title: Vector3D::copy Pages: 1 -->
<svg width="1466pt" height="416pt"
 viewBox="0.00 0.00 1466.00 416.28" xmlns="http://www.w3.org/2000/svg" xmlns:xlink="http://www.w3.org/1999/xlink">
<g id="graph1" class="graph" transform="scale(1 1) rotate(0) translate(4 412.282)">
<title>Vector3D::copy</title>
<!-- Node1 -->
<g id="node1" class="node"><title>Node1</title>
<polygon fill="#bfbfbf" stroke="black" points="0.5,-176.5 0.5,-197.5 85.5,-197.5 85.5,-176.5 0.5,-176.5"/>
<text text-anchor="middle" x="43" y="-184.5" font-family="Helvetica,sans-Serif" font-size="10.00">Vector3D::copy</text>
</g>
<!-- Node2 -->
<g id="node3" class="node"><title>Node2</title>
<a xlink:href="GUICutRenderWindow_8cpp.xhtml#aeaaae4c8452680389d221d0e60a6fc33" target="_top" xlink:title="Funktion zum verteilten berechnen der 2D&#45;Temperaturverteilung. ">
<polygon fill="none" stroke="black" points="673,-314.5 673,-335.5 749,-335.5 749,-314.5 673,-314.5"/>
<text text-anchor="middle" x="711" y="-322.5" font-family="Helvetica,sans-Serif" font-size="10.00">render_thread</text>
</a>
</g>
<!-- Node1&#45;&gt;Node2 -->
<g id="edge2" class="edge"><title>Node1&#45;&gt;Node2</title>
<path fill="none" stroke="midnightblue" d="M47.2514,-207.618C55.3322,-240.943 76.3471,-305.847 122,-335 213.368,-393.346 557.339,-348.198 672.879,-330.955"/>
<polygon fill="midnightblue" stroke="midnightblue" points="50.6108,-206.605 44.99,-197.624 43.7835,-208.15 50.6108,-206.605"/>
</g>
<!-- Node3 -->
<g id="node5" class="node"><title>Node3</title>
<a xlink:href="classGUICutRenderWindow.xhtml#a9eedb7088ad31f4680a77ed3a06fa60c" target="_top" xlink:title="Berechnet die 2D&#45;Temperaturverteilung als Grafik. ">
<polygon fill="none" stroke="black" points="813.5,-308 813.5,-342 930.5,-342 930.5,-308 813.5,-308"/>
<text text-anchor="start" x="821.5" y="-329" font-family="Helvetica,sans-Serif" font-size="10.00">GUICutRenderWindow</text>
<text text-anchor="middle" x="872" y="-316" font-family="Helvetica,sans-Serif" font-size="10.00">::renderImage</text>
</a>
</g>
<!-- Node1&#45;&gt;Node3 -->
<g id="edge8" class="edge"><title>Node1&#45;&gt;Node3</title>
<path fill="none" stroke="midnightblue" d="M45.9824,-208.04C52.4825,-245.505 71.6132,-323.455 122,-362 211.024,-430.102 258.914,-402 371,-402 371,-402 371,-402 546,-402 649.515,-402 766.687,-364.774 828.479,-342.089"/>
<polygon fill="midnightblue" stroke="midnightblue" points="49.3809,-207.125 44.35,-197.801 42.4682,-208.227 49.3809,-207.125"/>
</g>
<!-- Node5 -->
<g id="node10" class="node"><title>Node5</title>
<a xlink:href="Renderer_8cpp.xhtml#a17ef754a4f478e115d6e7fb813702639" target="_top" xlink:title="pointBehindCut">
<polygon fill="none" stroke="black" points="329.5,-78.5 329.5,-99.5 412.5,-99.5 412.5,-78.5 329.5,-78.5"/>
<text text-anchor="middle" x="371" y="-86.5" font-family="Helvetica,sans-Serif" font-size="10.00">pointBehindCut</text>
</a>
</g>
<!-- Node1&#45;&gt;Node5 -->
<g id="edge10" class="edge"><title>Node1&#45;&gt;Node5</title>
<path fill="none" stroke="midnightblue" d="M59.9292,-168.946C74.8041,-154.293 97.7996,-134.415 122,-124 190.367,-94.5759 278.118,-88.8204 329.106,-88.2581"/>
<polygon fill="midnightblue" stroke="midnightblue" points="57.0604,-166.872 52.5446,-176.456 62.0516,-171.78 57.0604,-166.872"/>
</g>
<!-- Node6 -->
<g id="node12" class="node"><title>Node6</title>
<a xlink:href="classRenderer.xhtml#a927f376a6283de3181b86f65b927386c" target="_top" xlink:title="Zeichnet die Tetraeder eines Materials des Objekts. ">
<polygon fill="none" stroke="black" points="478,-59.5 478,-80.5 614,-80.5 614,-59.5 478,-59.5"/>
<text text-anchor="middle" x="546" y="-67.5" font-family="Helvetica,sans-Serif" font-size="10.00">Renderer::renderTetrahedra</text>
</a>
</g>
<!-- Node1&#45;&gt;Node6 -->
<g id="edge14" class="edge"><title>Node1&#45;&gt;Node6</title>
<path fill="none" stroke="midnightblue" d="M52.4536,-167.108C64.8268,-143.527 88.8974,-105.148 122,-87 244.9,-19.6226 419.303,-43.0012 500.781,-59.4546"/>
<polygon fill="midnightblue" stroke="midnightblue" points="49.2442,-165.699 47.8748,-176.205 55.4969,-168.846 49.2442,-165.699"/>
</g>
<!-- Node7 -->
<g id="node15" class="node"><title>Node7</title>
<a xlink:href="Renderer_8cpp.xhtml#a608a02845726b8844beac12e5154c500" target="_top" xlink:title="Visualisiert Informationen über eine 2D&#45;Temperaturverteilung. ">
<polygon fill="none" stroke="black" points="320.5,-118.5 320.5,-139.5 421.5,-139.5 421.5,-118.5 320.5,-118.5"/>
<text text-anchor="middle" x="371" y="-126.5" font-family="Helvetica,sans-Serif" font-size="10.00">drawCutRenderInfo</text>
</a>
</g>
<!-- Node1&#45;&gt;Node7 -->
<g id="edge16" class="edge"><title>Node1&#45;&gt;Node7</title>
<path fill="none" stroke="midnightblue" d="M68.5033,-171.286C83.512,-162.851 103.186,-153.153 122,-148 188.903,-129.674 269.443,-126.833 320.44,-127.28"/>
<polygon fill="midnightblue" stroke="midnightblue" points="66.7081,-168.281 59.8107,-176.323 70.2178,-174.338 66.7081,-168.281"/>
</g>
<!-- Node10 -->
<g id="node21" class="node"><title>Node10</title>
<a xlink:href="classTriangle.xhtml#a3c72b19f316fa9ffb0a2f206e3558790" target="_top" xlink:title="Gibt die Normale des Dreiecks zurück. ">
<polygon fill="none" stroke="black" points="142,-157.5 142,-178.5 244,-178.5 244,-157.5 142,-157.5"/>
<text text-anchor="middle" x="193" y="-165.5" font-family="Helvetica,sans-Serif" font-size="10.00">Triangle::getNormal</text>
</a>
</g>
<!-- Node1&#45;&gt;Node10 -->
<g id="edge22" class="edge"><title>Node1&#45;&gt;Node10</title>
<path fill="none" stroke="midnightblue" d="M95.6986,-180.325C110.659,-178.43 126.921,-176.37 141.791,-174.486"/>
<polygon fill="midnightblue" stroke="midnightblue" points="95.0636,-176.877 85.5828,-181.606 95.9433,-183.822 95.0636,-176.877"/>
</g>
<!-- Node11 -->
<g id="node26" class="node"><title>Node11</title>
<a xlink:href="classInterpolator.xhtml#a30e714ca6dff9b5745d029f95af1420a" target="_top" xlink:title="Ermittelt den Wert für einen beliebigen Punkt im Raum. ">
<polygon fill="none" stroke="black" points="305.5,-196.5 305.5,-217.5 436.5,-217.5 436.5,-196.5 305.5,-196.5"/>
<text text-anchor="middle" x="371" y="-204.5" font-family="Helvetica,sans-Serif" font-size="10.00">Interpolator::interpolateTet</text>
</a>
</g>
<!-- Node1&#45;&gt;Node11 -->
<g id="edge60" class="edge"><title>Node1&#45;&gt;Node11</title>
<path fill="none" stroke="midnightblue" d="M95.7797,-190.218C152.79,-193.694 243.707,-199.238 305.304,-202.994"/>
<polygon fill="midnightblue" stroke="midnightblue" points="95.7385,-186.709 85.544,-189.594 95.3124,-193.696 95.7385,-186.709"/>
</g>
<!-- Node23 -->
<g id="node52" class="node"><title>Node23</title>
<a xlink:href="classInterpolator.xhtml#ad59ac6ed3822e08a67ac7d1ee88a5bd2" target="_top" xlink:title="Ermittelt den Wert für einen beliebigen Punkt in einer Ebene. ">
<polygon fill="none" stroke="black" points="129,-0.5 129,-21.5 257,-21.5 257,-0.5 129,-0.5"/>
<text text-anchor="middle" x="193" y="-8.5" font-family="Helvetica,sans-Serif" font-size="10.00">Interpolator::interpolateTri</text>
</a>
</g>
<!-- Node1&#45;&gt;Node23 -->
<g id="edge58" class="edge"><title>Node1&#45;&gt;Node23</title>
<path fill="none" stroke="midnightblue" d="M48.438,-166.437C57.9949,-134.174 80.8059,-71.671 122,-36 129.113,-29.8407 137.841,-25.1685 146.713,-21.634"/>
<polygon fill="midnightblue" stroke="midnightblue" points="45.0484,-165.561 45.6976,-176.136 51.7847,-167.465 45.0484,-165.561"/>
</g>
<!-- Node24 -->
<g id="node55" class="node"><title>Node24</title>
<a xlink:href="namespaceUtils.xhtml#a5f216cc7011a901130db81321b565334" target="_top" xlink:title="Testet, ob ein Strahl ein Dreieck schneidet. ">
<polygon fill="none" stroke="black" points="126,-304.5 126,-325.5 260,-325.5 260,-304.5 126,-304.5"/>
<text text-anchor="middle" x="193" y="-312.5" font-family="Helvetica,sans-Serif" font-size="10.00">Utils::rayIntersectsTriangle</text>
</a>
</g>
<!-- Node1&#45;&gt;Node24 -->
<g id="edge62" class="edge"><title>Node1&#45;&gt;Node24</title>
<path fill="none" stroke="midnightblue" d="M56.7042,-205.944C71.3258,-225.238 95.9315,-255.195 122,-276 136.4,-287.492 154.654,-297.435 169.047,-304.405"/>
<polygon fill="midnightblue" stroke="midnightblue" points="59.3185,-203.595 50.5425,-197.659 53.7015,-207.772 59.3185,-203.595"/>
</g>
<!-- Node26 -->
<g id="node60" class="node"><title>Node26</title>
<a xlink:href="namespaceUtils.xhtml#a9b995a1220a78be108b19bda4b776332" target="_top" xlink:title="Testet, ob sich ein Punkt innerhalb eines Tetraeders befindet. ">
<polygon fill="none" stroke="black" points="122,-245.5 122,-266.5 264,-266.5 264,-245.5 122,-245.5"/>
<text text-anchor="middle" x="193" y="-253.5" font-family="Helvetica,sans-Serif" font-size="10.00">Utils::pointInsideTetrahedron</text>
</a>
</g>
<!-- Node1&#45;&gt;Node26 -->
<g id="edge68" class="edge"><title>Node1&#45;&gt;Node26</title>
<path fill="none" stroke="midnightblue" d="M75.2788,-201.848C103.84,-214.986 144.803,-233.829 170.111,-245.471"/>
<polygon fill="midnightblue" stroke="midnightblue" points="76.6564,-198.629 66.1088,-197.63 73.731,-204.989 76.6564,-198.629"/>
</g>
<!-- Node2&#45;&gt;Node3 -->
<g id="edge4" class="edge"><title>Node2&#45;&gt;Node3</title>
<path fill="none" stroke="midnightblue" d="M759.394,-325C776.366,-325 795.616,-325 813.338,-325"/>
<polygon fill="midnightblue" stroke="midnightblue" points="759.155,-321.5 749.155,-325 759.155,-328.5 759.155,-321.5"/>
</g>
<!-- Node4 -->
<g id="node7" class="node"><title>Node4</title>
<a xlink:href="classGUICutRenderWindow.xhtml#a7cd1bfbec53756a1cbbe1616b4d46c7a" target="_top" xlink:title="Behandelt das Drücken des Buttons zur Berechnung der zweidimensionalen Temperaturverteilung. ">
<polygon fill="none" stroke="black" points="975.5,-308 975.5,-342 1092.5,-342 1092.5,-308 975.5,-308"/>
<text text-anchor="start" x="983.5" y="-329" font-family="Helvetica,sans-Serif" font-size="10.00">GUICutRenderWindow</text>
<text text-anchor="middle" x="1034" y="-316" font-family="Helvetica,sans-Serif" font-size="10.00">::renderCutBtClick</text>
</a>
</g>
<!-- Node3&#45;&gt;Node4 -->
<g id="edge6" class="edge"><title>Node3&#45;&gt;Node4</title>
<path fill="none" stroke="midnightblue" d="M941.263,-325C952.624,-325 964.3,-325 975.371,-325"/>
<polygon fill="midnightblue" stroke="midnightblue" points="940.944,-321.5 930.944,-325 940.944,-328.5 940.944,-321.5"/>
</g>
<!-- Node5&#45;&gt;Node6 -->
<g id="edge12" class="edge"><title>Node5&#45;&gt;Node6</title>
<path fill="none" stroke="midnightblue" d="M423.266,-83.3254C440.383,-81.467 459.66,-79.3741 477.777,-77.4071"/>
<polygon fill="midnightblue" stroke="midnightblue" points="422.481,-79.89 412.917,-84.449 423.236,-86.8491 422.481,-79.89"/>
</g>
<!-- Node8 -->
<g id="node17" class="node"><title>Node8</title>
<a xlink:href="classRenderer.xhtml#af7e5f8f68742f198e315fb4683a605a4" target="_top" xlink:title="Zeichnet das Objekt (Attribut object). ">
<polygon fill="none" stroke="black" points="501.5,-99.5 501.5,-120.5 590.5,-120.5 590.5,-99.5 501.5,-99.5"/>
<text text-anchor="middle" x="546" y="-107.5" font-family="Helvetica,sans-Serif" font-size="10.00">Renderer::render</text>
</a>
</g>
<!-- Node7&#45;&gt;Node8 -->
<g id="edge18" class="edge"><title>Node7&#45;&gt;Node8</title>
<path fill="none" stroke="midnightblue" d="M431.603,-122.42C454.554,-119.928 480.239,-117.14 501.448,-114.837"/>
<polygon fill="midnightblue" stroke="midnightblue" points="431.181,-118.945 421.617,-123.504 431.937,-125.905 431.181,-118.945"/>
</g>
<!-- Node9 -->
<g id="node19" class="node"><title>Node9</title>
<a xlink:href="classGUIGLCanvas.xhtml#a83f52d08591920a339150c2f45069c8f" target="_top" xlink:title="Event&#45;Tabellendeklaration für wxWidgets. ">
<polygon fill="none" stroke="black" points="650,-77.5 650,-98.5 772,-98.5 772,-77.5 650,-77.5"/>
<text text-anchor="middle" x="711" y="-85.5" font-family="Helvetica,sans-Serif" font-size="10.00">GUIGLCanvas::OnPaint</text>
</a>
</g>
<!-- Node8&#45;&gt;Node9 -->
<g id="edge20" class="edge"><title>Node8&#45;&gt;Node9</title>
<path fill="none" stroke="midnightblue" d="M600.755,-102.699C616.507,-100.599 633.786,-98.2952 649.896,-96.1472"/>
<polygon fill="midnightblue" stroke="midnightblue" points="600.101,-99.2555 590.651,-104.046 601.026,-106.194 600.101,-99.2555"/>
</g>
<!-- Node10&#45;&gt;Node3 -->
<g id="edge24" class="edge"><title>Node10&#45;&gt;Node3</title>
<path fill="none" stroke="midnightblue" d="M254.05,-162.427C337.142,-156.704 489.724,-152.855 614,-187 707.555,-212.704 805.125,-276.871 848.642,-307.799"/>
<polygon fill="midnightblue" stroke="midnightblue" points="253.745,-158.94 244.023,-163.15 254.249,-165.922 253.745,-158.94"/>
</g>
<!-- Node10&#45;&gt;Node5 -->
<g id="edge26" class="edge"><title>Node10&#45;&gt;Node5</title>
<path fill="none" stroke="midnightblue" d="M218.144,-151.97C239.325,-139.003 270.765,-120.991 300,-109 309.242,-105.209 319.443,-101.872 329.161,-99.0635"/>
<polygon fill="midnightblue" stroke="midnightblue" points="216.109,-149.114 209.455,-157.359 219.798,-155.062 216.109,-149.114"/>
</g>
<!-- Node10&#45;&gt;Node7 -->
<g id="edge28" class="edge"><title>Node10&#45;&gt;Node7</title>
<path fill="none" stroke="midnightblue" d="M251.221,-155.244C274.386,-150.168 300.724,-144.398 322.792,-139.562"/>
<polygon fill="midnightblue" stroke="midnightblue" points="250.189,-151.887 241.169,-157.446 251.687,-158.725 250.189,-151.887"/>
</g>
<!-- Node10&#45;&gt;Node11 -->
<g id="edge30" class="edge"><title>Node10&#45;&gt;Node11</title>
<path fill="none" stroke="midnightblue" d="M251.221,-180.756C274.386,-185.832 300.724,-191.602 322.792,-196.438"/>
<polygon fill="midnightblue" stroke="midnightblue" points="251.687,-177.275 241.169,-178.554 250.189,-184.113 251.687,-177.275"/>
</g>
<!-- Node12 -->
<g id="node28" class="node"><title>Node12</title>
<a xlink:href="namespaceUtils.xhtml#a6a0ae18a42e2d206bc1b43da27820fe2" target="_top" xlink:title="Gibt den inter/extrapolierten Wert eines Punktes zurück. ">
<polygon fill="none" stroke="black" points="494,-196.5 494,-217.5 598,-217.5 598,-196.5 494,-196.5"/>
<text text-anchor="middle" x="546" y="-204.5" font-family="Helvetica,sans-Serif" font-size="10.00">Utils::getPointValue</text>
</a>
</g>
<!-- Node11&#45;&gt;Node12 -->
<g id="edge32" class="edge"><title>Node11&#45;&gt;Node12</title>
<path fill="none" stroke="midnightblue" d="M446.975,-207C462.816,-207 479.169,-207 493.91,-207"/>
<polygon fill="midnightblue" stroke="midnightblue" points="446.661,-203.5 436.661,-207 446.661,-210.5 446.661,-203.5"/>
</g>
<!-- Node12&#45;&gt;Node2 -->
<g id="edge34" class="edge"><title>Node12&#45;&gt;Node2</title>
<path fill="none" stroke="midnightblue" d="M569.45,-223.77C603.979,-248.464 667.505,-293.894 696.219,-314.429"/>
<polygon fill="midnightblue" stroke="midnightblue" points="571.104,-220.65 560.934,-217.68 567.032,-226.344 571.104,-220.65"/>
</g>
<!-- Node13 -->
<g id="node31" class="node"><title>Node13</title>
<a xlink:href="classAnalyzer.xhtml#a8f73ee0aa71ae395a74b43dc76b35458" target="_top" xlink:title="Ermittelt Daten für einen Punkt am aktuell ausgewählten Zeitpunkt. ">
<polygon fill="none" stroke="black" points="652.5,-117.5 652.5,-138.5 769.5,-138.5 769.5,-117.5 652.5,-117.5"/>
<text text-anchor="middle" x="711" y="-125.5" font-family="Helvetica,sans-Serif" font-size="10.00">Analyzer::analyzePoint</text>
</a>
</g>
<!-- Node12&#45;&gt;Node13 -->
<g id="edge36" class="edge"><title>Node12&#45;&gt;Node13</title>
<path fill="none" stroke="midnightblue" d="M570.874,-191.015C591.498,-178.226 621.886,-160.435 650,-148 657.848,-144.529 666.494,-141.336 674.747,-138.569"/>
<polygon fill="midnightblue" stroke="midnightblue" points="569.01,-188.053 562.398,-196.331 572.729,-193.983 569.01,-188.053"/>
</g>
<!-- Node15 -->
<g id="node35" class="node"><title>Node15</title>
<a xlink:href="MeshProcessor_8cpp.xhtml#ad2670c4e8381f9a0a89c65f5559ed421" target="_top" xlink:title="interpolatePoint">
<polygon fill="none" stroke="black" points="669,-157.5 669,-178.5 753,-178.5 753,-157.5 669,-157.5"/>
<text text-anchor="middle" x="711" y="-165.5" font-family="Helvetica,sans-Serif" font-size="10.00">interpolatePoint</text>
</a>
</g>
<!-- Node12&#45;&gt;Node15 -->
<g id="edge40" class="edge"><title>Node12&#45;&gt;Node15</title>
<path fill="none" stroke="midnightblue" d="M600.618,-194.09C622.837,-188.838 648.115,-182.864 668.869,-177.958"/>
<polygon fill="midnightblue" stroke="midnightblue" points="599.578,-190.74 590.651,-196.446 601.188,-197.552 599.578,-190.74"/>
</g>
<!-- Node14 -->
<g id="node33" class="node"><title>Node14</title>
<a xlink:href="classGUIAnalyzePointWindow.xhtml#aa84ea9958e8b41423f01316d01ba5151" target="_top" xlink:title="Event&#45;Tabellendeklaration für wxWidgets. ">
<polygon fill="none" stroke="black" points="808,-108 808,-142 936,-142 936,-108 808,-108"/>
<text text-anchor="start" x="816" y="-129" font-family="Helvetica,sans-Serif" font-size="10.00">GUIAnalyzePointWindow</text>
<text text-anchor="middle" x="872" y="-116" font-family="Helvetica,sans-Serif" font-size="10.00">::analyzePoint</text>
</a>
</g>
<!-- Node13&#45;&gt;Node14 -->
<g id="edge38" class="edge"><title>Node13&#45;&gt;Node14</title>
<path fill="none" stroke="midnightblue" d="M779.602,-126.722C788.94,-126.548 798.495,-126.37 807.752,-126.197"/>
<polygon fill="midnightblue" stroke="midnightblue" points="779.513,-123.223 769.58,-126.908 779.644,-130.221 779.513,-123.223"/>
</g>
<!-- Node16 -->
<g id="node37" class="node"><title>Node16</title>
<a xlink:href="classMeshProcessor.xhtml#a060c3815db33f8e52ac620ed2239ccc9" target="_top" xlink:title="Berechnet die Temperaturverteilung für ein Objekt. ">
<polygon fill="none" stroke="black" points="809.5,-160.5 809.5,-181.5 934.5,-181.5 934.5,-160.5 809.5,-160.5"/>
<text text-anchor="middle" x="872" y="-168.5" font-family="Helvetica,sans-Serif" font-size="10.00">MeshProcessor::process</text>
</a>
</g>
<!-- Node15&#45;&gt;Node16 -->
<g id="edge42" class="edge"><title>Node15&#45;&gt;Node16</title>
<path fill="none" stroke="midnightblue" d="M763.657,-168.981C778.263,-169.253 794.264,-169.551 809.379,-169.833"/>
<polygon fill="midnightblue" stroke="midnightblue" points="763.364,-165.475 753.301,-168.788 763.234,-172.474 763.364,-165.475"/>
</g>
<!-- Node17 -->
<g id="node39" class="node"><title>Node17</title>
<a xlink:href="classAnalyzer.xhtml#a2a7b5f169f664ccd9f206e508cba78ef" target="_top" xlink:title="Ermittelt Daten für ein Objekt. ">
<polygon fill="none" stroke="black" points="972.5,-140.5 972.5,-161.5 1095.5,-161.5 1095.5,-140.5 972.5,-140.5"/>
<text text-anchor="middle" x="1034" y="-148.5" font-family="Helvetica,sans-Serif" font-size="10.00">Analyzer::analyzeObject</text>
</a>
</g>
<!-- Node16&#45;&gt;Node17 -->
<g id="edge44" class="edge"><title>Node16&#45;&gt;Node17</title>
<path fill="none" stroke="midnightblue" d="M944.6,-162.037C953.86,-160.894 963.268,-159.732 972.333,-158.613"/>
<polygon fill="midnightblue" stroke="midnightblue" points="944.129,-158.568 934.633,-163.267 944.987,-165.516 944.129,-158.568"/>
</g>
<!-- Node21 -->
<g id="node47" class="node"><title>Node21</title>
<a xlink:href="classObjectData.xhtml#af3a850833d08eb9b45357449f455e24d" target="_top" xlink:title="Zerlegt das Objekt in Tetraeder (Schnittstelle zur Tetgen&#45;Bibliothek) und Berechnet die Temperaturver...">
<polygon fill="none" stroke="black" points="973,-180.5 973,-201.5 1095,-201.5 1095,-180.5 973,-180.5"/>
<text text-anchor="middle" x="1034" y="-188.5" font-family="Helvetica,sans-Serif" font-size="10.00">ObjectData::calculateIO</text>
</a>
</g>
<!-- Node16&#45;&gt;Node21 -->
<g id="edge52" class="edge"><title>Node16&#45;&gt;Node21</title>
<path fill="none" stroke="midnightblue" d="M944.745,-179.981C954.14,-181.141 963.684,-182.319 972.866,-183.453"/>
<polygon fill="midnightblue" stroke="midnightblue" points="944.987,-176.484 934.633,-178.733 944.129,-183.432 944.987,-176.484"/>
</g>
<!-- Node18 -->
<g id="node41" class="node"><title>Node18</title>
<a xlink:href="classGUIAnalyzeOutputWindow.xhtml#a9ea5a7cf46d6189f368315903508cecc" target="_top" xlink:title="Methode zum aktualisieren des Fensters, alle Objekte werden erneut analysiert und die aktualisierten ...">
<polygon fill="none" stroke="black" points="1140,-108 1140,-142 1274,-142 1274,-108 1140,-108"/>
<text text-anchor="start" x="1148" y="-129" font-family="Helvetica,sans-Serif" font-size="10.00">GUIAnalyzeOutputWindow</text>
<text text-anchor="middle" x="1207" y="-116" font-family="Helvetica,sans-Serif" font-size="10.00">::Update</text>
</a>
</g>
<!-- Node17&#45;&gt;Node18 -->
<g id="edge46" class="edge"><title>Node17&#45;&gt;Node18</title>
<path fill="none" stroke="midnightblue" d="M1106.13,-140.16C1117.31,-138.479 1128.83,-136.748 1139.9,-135.084"/>
<polygon fill="midnightblue" stroke="midnightblue" points="1105.34,-136.739 1095.97,-141.687 1106.38,-143.662 1105.34,-136.739"/>
</g>
<!-- Node20 -->
<g id="node45" class="node"><title>Node20</title>
<a xlink:href="classGUITimeline.xhtml#a099f3654aa6e7ea04df861851a0e9ec8" target="_top" xlink:title="Sucht den Zeitpunkt zwischen zwei markierten Stellen auf der Sensordaten&#45;Zeitleiste, für den der Wäremeenergiegehalt maximal wird. ">
<polygon fill="none" stroke="black" points="1138.5,-160.5 1138.5,-181.5 1275.5,-181.5 1275.5,-160.5 1138.5,-160.5"/>
<text text-anchor="middle" x="1207" y="-168.5" font-family="Helvetica,sans-Serif" font-size="10.00">GUITimeline::findMaxValue</text>
</a>
</g>
<!-- Node17&#45;&gt;Node20 -->
<g id="edge50" class="edge"><title>Node17&#45;&gt;Node20</title>
<path fill="none" stroke="midnightblue" d="M1106.11,-159.336C1116.8,-160.573 1127.8,-161.844 1138.42,-163.072"/>
<polygon fill="midnightblue" stroke="midnightblue" points="1106.3,-155.836 1095.97,-158.164 1105.5,-162.789 1106.3,-155.836"/>
</g>
<!-- Node19 -->
<g id="node43" class="node"><title>Node19</title>
<a xlink:href="classGUIAnalyzeOutputWindow.xhtml#af9407245a6b2a0478579c4d592a31e63" target="_top" xlink:title="Der Konstruktor. ">
<polygon fill="none" stroke="black" points="1318,-108 1318,-142 1458,-142 1458,-108 1318,-108"/>
<text text-anchor="start" x="1326" y="-129" font-family="Helvetica,sans-Serif" font-size="10.00">GUIAnalyzeOutputWindow</text>
<text text-anchor="middle" x="1388" y="-116" font-family="Helvetica,sans-Serif" font-size="10.00">::GUIAnalyzeOutputWindow</text>
</a>
</g>
<!-- Node18&#45;&gt;Node19 -->
<g id="edge48" class="edge"><title>Node18&#45;&gt;Node19</title>
<path fill="none" stroke="midnightblue" d="M1284.3,-125C1295.47,-125 1306.92,-125 1317.94,-125"/>
<polygon fill="midnightblue" stroke="midnightblue" points="1284.14,-121.5 1274.14,-125 1284.14,-128.5 1284.14,-121.5"/>
</g>
<!-- Node21&#45;&gt;Node20 -->
<g id="edge56" class="edge"><title>Node21&#45;&gt;Node20</title>
<path fill="none" stroke="midnightblue" d="M1105.71,-182.709C1116.51,-181.461 1127.63,-180.176 1138.36,-178.935"/>
<polygon fill="midnightblue" stroke="midnightblue" points="1105.01,-179.267 1095.48,-183.892 1105.82,-186.221 1105.01,-179.267"/>
</g>
<!-- Node22 -->
<g id="node49" class="node"><title>Node22</title>
<a xlink:href="classGUIMainWindow.xhtml#a0c2de30274c7f52ff74ec1217e47a9e5" target="_top" xlink:title="Berechnet die 3D&#45;Temperaturverteilung neu. ">
<polygon fill="none" stroke="black" points="1132,-200 1132,-234 1282,-234 1282,-200 1132,-200"/>
<text text-anchor="start" x="1140" y="-221" font-family="Helvetica,sans-Serif" font-size="10.00">GUIMainWindow::OnRecalcBt</text>
<text text-anchor="middle" x="1207" y="-208" font-family="Helvetica,sans-Serif" font-size="10.00">Click</text>
</a>
</g>
<!-- Node21&#45;&gt;Node22 -->
<g id="edge54" class="edge"><title>Node21&#45;&gt;Node22</title>
<path fill="none" stroke="midnightblue" d="M1105.53,-201.751C1114.2,-203.053 1123.07,-204.386 1131.78,-205.696"/>
<polygon fill="midnightblue" stroke="midnightblue" points="1105.89,-198.265 1095.48,-200.24 1104.85,-205.187 1105.89,-198.265"/>
</g>
<!-- Node25 -->
<g id="node57" class="node"><title>Node25</title>
<a xlink:href="namespaceUtils.xhtml#af8fc5d6dab27f759ab5d76757a53023f" target="_top" xlink:title="Testet, ob sich ein Punkt innerhalb eines Körpers befindet. ">
<polygon fill="none" stroke="black" points="314,-314.5 314,-335.5 428,-335.5 428,-314.5 314,-314.5"/>
<text text-anchor="middle" x="371" y="-322.5" font-family="Helvetica,sans-Serif" font-size="10.00">Utils::pointInsideMesh</text>
</a>
</g>
<!-- Node24&#45;&gt;Node25 -->
<g id="edge64" class="edge"><title>Node24&#45;&gt;Node25</title>
<path fill="none" stroke="midnightblue" d="M270.129,-319.333C284.833,-320.159 299.977,-321.01 313.916,-321.793"/>
<polygon fill="midnightblue" stroke="midnightblue" points="270.221,-315.833 260.041,-318.766 269.828,-322.822 270.221,-315.833"/>
</g>
<!-- Node25&#45;&gt;Node2 -->
<g id="edge66" class="edge"><title>Node25&#45;&gt;Node2</title>
<path fill="none" stroke="midnightblue" d="M438.35,-325C508.42,-325 615.683,-325 672.532,-325"/>
<polygon fill="midnightblue" stroke="midnightblue" points="438.292,-321.5 428.292,-325 438.292,-328.5 438.292,-321.5"/>
</g>
<!-- Node26&#45;&gt;Node12 -->
<g id="edge74" class="edge"><title>Node26&#45;&gt;Node12</title>
<path fill="none" stroke="midnightblue" d="M274.204,-248.078C322.971,-242.938 386.182,-235.605 442,-227 459.445,-224.311 478.431,-220.826 495.349,-217.52"/>
<polygon fill="midnightblue" stroke="midnightblue" points="273.608,-244.621 264.025,-249.141 274.335,-251.583 273.608,-244.621"/>
</g>
<!-- Node26&#45;&gt;Node25 -->
<g id="edge70" class="edge"><title>Node26&#45;&gt;Node25</title>
<path fill="none" stroke="midnightblue" d="M222.634,-271.075C243.827,-281.483 273.223,-295.165 300,-305 309.376,-308.444 319.63,-311.646 329.356,-314.434"/>
<polygon fill="midnightblue" stroke="midnightblue" points="224.026,-267.859 213.512,-266.55 220.915,-274.13 224.026,-267.859"/>
</g>
<!-- Node27 -->
<g id="node63" class="node"><title>Node27</title>
<a xlink:href="namespaceUtils.xhtml#a40eaef4d22da849a5deb2f1153d88bbc" target="_top" xlink:title="Testet, ob sich ein Punkt innerhalb eines Tetraeders befindet. ">
<polygon fill="none" stroke="black" points="300,-274.5 300,-295.5 442,-295.5 442,-274.5 300,-274.5"/>
<text text-anchor="middle" x="371" y="-282.5" font-family="Helvetica,sans-Serif" font-size="10.00">Utils::pointInsideTetrahedron</text>
</a>
</g>
<!-- Node26&#45;&gt;Node27 -->
<g id="edge72" class="edge"><title>Node26&#45;&gt;Node27</title>
<path fill="none" stroke="midnightblue" d="M267.717,-268.173C280.576,-270.268 293.844,-272.43 306.408,-274.477"/>
<polygon fill="midnightblue" stroke="midnightblue" points="267.946,-264.664 257.514,-266.511 266.821,-271.573 267.946,-264.664"/>
</g>
</g>
</svg>
