<?xml version="1.0" encoding="UTF-8" standalone="no"?>
<!DOCTYPE svg PUBLIC "-//W3C//DTD SVG 1.1//EN"
 "http://www.w3.org/Graphics/SVG/1.1/DTD/svg11.dtd">
<!-- Generated by graphviz version 2.26.3 (20100126.1600)
 -->
<!-- Title: Importer::LoadTimedData Pages: 1 -->
<svg width="326pt" height="174pt"
 viewBox="0.00 0.00 326.00 174.00" xmlns="http://www.w3.org/2000/svg" xmlns:xlink="http://www.w3.org/1999/xlink">
<g id="graph1" class="graph" transform="scale(1 1) rotate(0) translate(4 170)">
<title>Importer::LoadTimedData</title>
<!-- Node1 -->
<g id="node1" class="node"><title>Node1</title>
<polygon fill="#bfbfbf" stroke="black" points="0,-81.5 0,-102.5 128,-102.5 128,-81.5 0,-81.5"/>
<text text-anchor="middle" x="64" y="-89.5" font-family="Helvetica,sans-Serif" font-size="10.00">Importer::LoadTimedData</text>
</g>
<!-- Node2 -->
<g id="node3" class="node"><title>Node2</title>
<a xlink:href="classObjectData.xhtml#a72ac93213382f67b4d5b40c011eb1656" target="_top" xlink:title="Gibt eine Referenz auf die Sensordaten des Objekts zurück. ">
<polygon fill="none" stroke="black" points="164.5,-144.5 164.5,-165.5 317.5,-165.5 317.5,-144.5 164.5,-144.5"/>
<text text-anchor="middle" x="241" y="-152.5" font-family="Helvetica,sans-Serif" font-size="10.00">ObjectData::getSensorDataList</text>
</a>
</g>
<!-- Node1&#45;&gt;Node2 -->
<g id="edge2" class="edge"><title>Node1&#45;&gt;Node2</title>
<path fill="none" stroke="midnightblue" d="M85.863,-102.546C105.873,-111.922 136.468,-125.566 164,-135 170.917,-137.37 178.266,-139.615 185.572,-141.686"/>
<polygon fill="midnightblue" stroke="midnightblue" points="184.895,-145.129 195.464,-144.396 186.745,-138.378 184.895,-145.129"/>
</g>
<!-- Node3 -->
<g id="node5" class="node"><title>Node3</title>
<a xlink:href="Importer_8cpp.xhtml#a0dd0686c00e64af27b47b4c16399d747" target="_top" xlink:title="getTextBlock">
<polygon fill="none" stroke="black" points="204,-104.5 204,-125.5 278,-125.5 278,-104.5 204,-104.5"/>
<text text-anchor="middle" x="241" y="-112.5" font-family="Helvetica,sans-Serif" font-size="10.00">getTextBlock</text>
</a>
</g>
<!-- Node1&#45;&gt;Node3 -->
<g id="edge4" class="edge"><title>Node1&#45;&gt;Node3</title>
<path fill="none" stroke="midnightblue" d="M128.151,-100.336C149.803,-103.15 173.564,-106.237 193.674,-108.85"/>
<polygon fill="midnightblue" stroke="midnightblue" points="193.459,-112.352 203.827,-110.17 194.362,-105.41 193.459,-112.352"/>
</g>
<!-- Node4 -->
<g id="node7" class="node"><title>Node4</title>
<a xlink:href="classObjectData.xhtml#a503d63160a3afe2ea517449f78f8ac42" target="_top" xlink:title="Gibt den Index des aktuell verwendeten Sensordatensatzes zurück. ">
<polygon fill="none" stroke="black" points="166.5,-52 166.5,-86 315.5,-86 315.5,-52 166.5,-52"/>
<text text-anchor="start" x="174.5" y="-73" font-family="Helvetica,sans-Serif" font-size="10.00">ObjectData::getCurrentSensor</text>
<text text-anchor="middle" x="241" y="-60" font-family="Helvetica,sans-Serif" font-size="10.00">Index</text>
</a>
</g>
<!-- Node1&#45;&gt;Node4 -->
<g id="edge6" class="edge"><title>Node1&#45;&gt;Node4</title>
<path fill="none" stroke="midnightblue" d="M128.151,-83.664C137.233,-82.4838 146.686,-81.2555 156.085,-80.0342"/>
<polygon fill="midnightblue" stroke="midnightblue" points="156.777,-83.4738 166.242,-78.7143 155.875,-76.5322 156.777,-83.4738"/>
</g>
<!-- Node5 -->
<g id="node9" class="node"><title>Node5</title>
<a xlink:href="classObjectData.xhtml#a65bc706c460a62f98e6c24959df04c76" target="_top" xlink:title="Setzt den Index des aktuell verwendeten Sensordatensatzes. ">
<polygon fill="none" stroke="black" points="166.5,-0 166.5,-34 315.5,-34 315.5,-0 166.5,-0"/>
<text text-anchor="start" x="174.5" y="-21" font-family="Helvetica,sans-Serif" font-size="10.00">ObjectData::setCurrentSensor</text>
<text text-anchor="middle" x="241" y="-8" font-family="Helvetica,sans-Serif" font-size="10.00">Index</text>
</a>
</g>
<!-- Node1&#45;&gt;Node5 -->
<g id="edge8" class="edge"><title>Node1&#45;&gt;Node5</title>
<path fill="none" stroke="midnightblue" d="M83.5737,-81.4651C103.485,-70.9745 135.397,-54.7785 164,-43 168.493,-41.1498 173.171,-39.327 177.902,-37.5575"/>
<polygon fill="midnightblue" stroke="midnightblue" points="179.448,-40.7194 187.646,-34.0088 177.052,-34.142 179.448,-40.7194"/>
</g>
</g>
</svg>
