<?xml version="1.0" encoding="UTF-8" standalone="no"?>
<!DOCTYPE svg PUBLIC "-//W3C//DTD SVG 1.1//EN"
 "http://www.w3.org/Graphics/SVG/1.1/DTD/svg11.dtd">
<!-- Generated by graphviz version 2.26.3 (20100126.1600)
 -->
<!-- Title: tetgenio::readnumberline Pages: 1 -->
<!--zoomable 341 -->
<svg id="main" version="1.1" xmlns="http://www.w3.org/2000/svg" xmlns:xlink="http://www.w3.org/1999/xlink" xml:space="preserve" onload="init(evt)">
<style type="text/css"><![CDATA[
.edge:hover path { stroke: red; }
.edge:hover polygon { stroke: red; fill: red; }
]]></style>
<script type="text/javascript"><![CDATA[
var edges = document.getElementsByTagName('g');
if (edges && edges.length) {
  for (var i=0;i<edges.length;i++) {
    if (edges[i].id.substr(0,4)=='edge') {
      edges[i].setAttribute('class','edge');
    }
  }
}
]]></script>
        <defs>
                <circle id="rim" cx="0" cy="0" r="7"/>
                <circle id="rim2" cx="0" cy="0" r="3.5"/>
                <g id="zoomPlus">
                        <use xlink:href="#rim" fill="#404040">
                                <set attributeName="fill" to="#808080" begin="zoomplus.mouseover" end="zoomplus.mouseout"/>
                        </use>
                        <path d="M-4,0h8M0,-4v8" fill="none" stroke="white" stroke-width="1.5" pointer-events="none"/>
                </g>
                <g id="zoomMin">
                        <use xlink:href="#rim" fill="#404040">
                                <set attributeName="fill" to="#808080" begin="zoomminus.mouseover" end="zoomminus.mouseout"/>
                        </use>
                        <path d="M-4,0h8" fill="none" stroke="white" stroke-width="1.5" pointer-events="none"/>
                </g>
                <g id="dirArrow">
                        <path fill="none" stroke="white" stroke-width="1.5" d="M0,-3.0v7 M-2.5,-0.5L0,-3.0L2.5,-0.5"/>
                </g>
               <g id="resetDef">
                       <use xlink:href="#rim2" fill="#404040">
                               <set attributeName="fill" to="#808080" begin="reset.mouseover" end="reset.mouseout"/>
                       </use>
               </g>
        </defs>

<script type="text/javascript">
var viewWidth = 784;
var viewHeight = 341;
var sectionId = 'dynsection-41';
</script>
<script xlink:href="svgpan.js"/>
<svg id="graph" class="graph">
<g id="viewport">
<title>tetgenio::readnumberline</title>
<!-- Node1 -->
<g id="node1" class="node"><title>Node1</title>
<polygon fill="#bfbfbf" stroke="black" points="0.5,-157.5 0.5,-178.5 123.5,-178.5 123.5,-157.5 0.5,-157.5"/>
<text text-anchor="middle" x="62" y="-165.5" font-family="Helvetica,sans-Serif" font-size="10.00">tetgenio::readnumberline</text>
</g>
<!-- Node2 -->
<g id="node3" class="node"><title>Node2</title>
<a xlink:href="classtetgenio.xhtml#a72c82390f2cf5cc8e82b7e78d3957d97" target="_top" xlink:title="tetgenio::load_node_call">
<polygon fill="none" stroke="black" points="160,-311.5 160,-332.5 282,-332.5 282,-311.5 160,-311.5"/>
<text text-anchor="middle" x="221" y="-319.5" font-family="Helvetica,sans-Serif" font-size="10.00">tetgenio::load_node_call</text>
</a>
</g>
<!-- Node1&#45;&gt;Node2 -->
<g id="edge2" class="edge"><title>Node1&#45;&gt;Node2</title>
<path fill="none" stroke="midnightblue" d="M72.4246,-187.66C88.0644,-215.472 120.072,-266.328 160,-297 167.715,-302.926 177.031,-307.673 186.036,-311.371"/>
<polygon fill="midnightblue" stroke="midnightblue" points="75.2973,-185.619 67.4188,-178.536 69.1603,-188.986 75.2973,-185.619"/>
</g>
<!-- Node3 -->
<g id="node5" class="node"><title>Node3</title>
<a xlink:href="classtetgenio.xhtml#afeb93fe605c74f7523314fe21b726872" target="_top" xlink:title="tetgenio::load_node">
<polygon fill="none" stroke="black" points="318.5,-234.5 318.5,-255.5 419.5,-255.5 419.5,-234.5 318.5,-234.5"/>
<text text-anchor="middle" x="369" y="-242.5" font-family="Helvetica,sans-Serif" font-size="10.00">tetgenio::load_node</text>
</a>
</g>
<!-- Node1&#45;&gt;Node3 -->
<g id="edge22" class="edge"><title>Node1&#45;&gt;Node3</title>
<path fill="none" stroke="midnightblue" d="M93.4193,-182.82C112.352,-191.244 137.149,-201.395 160,-208 213.1,-223.348 275.728,-233.413 318.488,-239.117"/>
<polygon fill="midnightblue" stroke="midnightblue" points="94.6479,-179.535 84.0943,-178.601 91.7622,-185.912 94.6479,-179.535"/>
</g>
<!-- Node4 -->
<g id="node7" class="node"><title>Node4</title>
<a xlink:href="classtetgenio.xhtml#a88658f64d725eb11ff33e7104e14561b" target="_top" xlink:title="tetgenio::load_poly">
<polygon fill="none" stroke="black" points="465,-273.5 465,-294.5 563,-294.5 563,-273.5 465,-273.5"/>
<text text-anchor="middle" x="514" y="-281.5" font-family="Helvetica,sans-Serif" font-size="10.00">tetgenio::load_poly</text>
</a>
</g>
<!-- Node1&#45;&gt;Node4 -->
<g id="edge54" class="edge"><title>Node1&#45;&gt;Node4</title>
<path fill="none" stroke="midnightblue" d="M81.9295,-184.958C100.814,-200.129 130.589,-221.8 160,-234 262.48,-276.511 394.438,-284.033 464.745,-284.702"/>
<polygon fill="midnightblue" stroke="midnightblue" points="84.011,-182.139 74.0597,-178.503 79.5715,-187.551 84.011,-182.139"/>
</g>
<!-- Node8 -->
<g id="node20" class="node"><title>Node8</title>
<a xlink:href="classtetgenio.xhtml#ae57d905901345797047108bc8995382a" target="_top" xlink:title="tetgenio::load_edge">
<polygon fill="none" stroke="black" points="318.5,-194.5 318.5,-215.5 419.5,-215.5 419.5,-194.5 318.5,-194.5"/>
<text text-anchor="middle" x="369" y="-202.5" font-family="Helvetica,sans-Serif" font-size="10.00">tetgenio::load_edge</text>
</a>
</g>
<!-- Node1&#45;&gt;Node8 -->
<g id="edge24" class="edge"><title>Node1&#45;&gt;Node8</title>
<path fill="none" stroke="midnightblue" d="M117.527,-180.54C131.346,-183.327 146.166,-186.033 160,-188 213.703,-195.636 275.693,-200.142 318.131,-202.575"/>
<polygon fill="midnightblue" stroke="midnightblue" points="118.171,-177.099 107.67,-178.506 116.756,-183.955 118.171,-177.099"/>
</g>
<!-- Node9 -->
<g id="node24" class="node"><title>Node9</title>
<a xlink:href="classtetgenio.xhtml#acfd5a05583426d2d50c554e353814b22" target="_top" xlink:title="tetgenio::load_face">
<polygon fill="none" stroke="black" points="171.5,-157.5 171.5,-178.5 270.5,-178.5 270.5,-157.5 171.5,-157.5"/>
<text text-anchor="middle" x="221" y="-165.5" font-family="Helvetica,sans-Serif" font-size="10.00">tetgenio::load_face</text>
</a>
</g>
<!-- Node1&#45;&gt;Node9 -->
<g id="edge30" class="edge"><title>Node1&#45;&gt;Node9</title>
<path fill="none" stroke="midnightblue" d="M133.965,-168C146.578,-168 159.446,-168 171.284,-168"/>
<polygon fill="midnightblue" stroke="midnightblue" points="133.929,-164.5 123.929,-168 133.929,-171.5 133.929,-164.5"/>
</g>
<!-- Node10 -->
<g id="node27" class="node"><title>Node10</title>
<a xlink:href="classtetgenio.xhtml#afcb7616b65ca87657affbdad0c9dbe0b" target="_top" xlink:title="tetgenio::load_tet">
<polygon fill="none" stroke="black" points="175,-117.5 175,-138.5 267,-138.5 267,-117.5 175,-117.5"/>
<text text-anchor="middle" x="221" y="-125.5" font-family="Helvetica,sans-Serif" font-size="10.00">tetgenio::load_tet</text>
</a>
</g>
<!-- Node1&#45;&gt;Node10 -->
<g id="edge34" class="edge"><title>Node1&#45;&gt;Node10</title>
<path fill="none" stroke="midnightblue" d="M113.609,-155.016C134.85,-149.673 159.132,-143.564 179.228,-138.509"/>
<polygon fill="midnightblue" stroke="midnightblue" points="112.619,-151.656 103.775,-157.49 114.327,-158.445 112.619,-151.656"/>
</g>
<!-- Node11 -->
<g id="node30" class="node"><title>Node11</title>
<a xlink:href="classtetgenio.xhtml#ad2c1a5e053689f1e68c0c849d3ebcd3d" target="_top" xlink:title="tetgenio::load_vol">
<polygon fill="none" stroke="black" points="174.5,-77.5 174.5,-98.5 267.5,-98.5 267.5,-77.5 174.5,-77.5"/>
<text text-anchor="middle" x="221" y="-85.5" font-family="Helvetica,sans-Serif" font-size="10.00">tetgenio::load_vol</text>
</a>
</g>
<!-- Node1&#45;&gt;Node11 -->
<g id="edge38" class="edge"><title>Node1&#45;&gt;Node11</title>
<path fill="none" stroke="midnightblue" d="M85.4488,-151.49C104.78,-138.416 133.27,-120.36 160,-108 167.587,-104.492 175.964,-101.323 184.017,-98.595"/>
<polygon fill="midnightblue" stroke="midnightblue" points="83.2658,-148.743 76.9967,-157.284 87.2237,-154.516 83.2658,-148.743"/>
</g>
<!-- Node12 -->
<g id="node33" class="node"><title>Node12</title>
<a xlink:href="classtetgenio.xhtml#a42b38e1e09d889f3027225402d888721" target="_top" xlink:title="tetgenio::load_var">
<polygon fill="none" stroke="black" points="322,-40.5 322,-61.5 416,-61.5 416,-40.5 322,-40.5"/>
<text text-anchor="middle" x="369" y="-48.5" font-family="Helvetica,sans-Serif" font-size="10.00">tetgenio::load_var</text>
</a>
</g>
<!-- Node1&#45;&gt;Node12 -->
<g id="edge42" class="edge"><title>Node1&#45;&gt;Node12</title>
<path fill="none" stroke="midnightblue" d="M74.2081,-148.922C90.5433,-125.256 121.916,-85.8516 160,-68 211.422,-43.8963 277.783,-42.8562 321.781,-45.7216"/>
<polygon fill="midnightblue" stroke="midnightblue" points="71.1692,-147.17 68.5173,-157.428 76.9871,-151.063 71.1692,-147.17"/>
</g>
<!-- Node13 -->
<g id="node37" class="node"><title>Node13</title>
<a xlink:href="classtetgenio.xhtml#a281d6699f746ac5d2b4ca70075be53c7" target="_top" xlink:title="tetgenio::load_mtr">
<polygon fill="none" stroke="black" points="321.5,-0.5 321.5,-21.5 416.5,-21.5 416.5,-0.5 321.5,-0.5"/>
<text text-anchor="middle" x="369" y="-8.5" font-family="Helvetica,sans-Serif" font-size="10.00">tetgenio::load_mtr</text>
</a>
</g>
<!-- Node1&#45;&gt;Node13 -->
<g id="edge48" class="edge"><title>Node1&#45;&gt;Node13</title>
<path fill="none" stroke="midnightblue" d="M70.8961,-148.33C85.164,-119.279 116.089,-65.5881 160,-40 209.533,-11.1356 276.612,-6.72452 321.273,-7.65599"/>
<polygon fill="midnightblue" stroke="midnightblue" points="67.674,-146.956 66.5501,-157.491 73.9984,-149.956 67.674,-146.956"/>
</g>
<!-- Node2&#45;&gt;Node3 -->
<g id="edge4" class="edge"><title>Node2&#45;&gt;Node3</title>
<path fill="none" stroke="midnightblue" d="M250.507,-306.649C279.528,-291.55 323.071,-268.896 348.501,-255.665"/>
<polygon fill="midnightblue" stroke="midnightblue" points="248.524,-303.735 241.268,-311.455 251.755,-309.944 248.524,-303.735"/>
</g>
<!-- Node2&#45;&gt;Node4 -->
<g id="edge20" class="edge"><title>Node2&#45;&gt;Node4</title>
<path fill="none" stroke="midnightblue" d="M291.971,-313.926C329.978,-309.48 377.578,-303.716 420,-298 434.553,-296.039 450.348,-293.75 464.763,-291.597"/>
<polygon fill="midnightblue" stroke="midnightblue" points="291.55,-310.452 282.022,-315.086 292.36,-317.405 291.55,-310.452"/>
</g>
<!-- Node3&#45;&gt;Node4 -->
<g id="edge6" class="edge"><title>Node3&#45;&gt;Node4</title>
<path fill="none" stroke="midnightblue" d="M417.956,-258.167C436.45,-263.142 457.236,-268.733 474.73,-273.438"/>
<polygon fill="midnightblue" stroke="midnightblue" points="418.805,-254.772 408.239,-255.554 416.987,-261.531 418.805,-254.772"/>
</g>
<!-- Node5 -->
<g id="node9" class="node"><title>Node5</title>
<a xlink:href="classtetgenio.xhtml#ac47582d8d9a09f1d8d32221527a0aa7b" target="_top" xlink:title="tetgenio::load_plc">
<polygon fill="none" stroke="black" points="608.5,-158.5 608.5,-179.5 701.5,-179.5 701.5,-158.5 608.5,-158.5"/>
<text text-anchor="middle" x="655" y="-166.5" font-family="Helvetica,sans-Serif" font-size="10.00">tetgenio::load_plc</text>
</a>
</g>
<!-- Node3&#45;&gt;Node5 -->
<g id="edge12" class="edge"><title>Node3&#45;&gt;Node5</title>
<path fill="none" stroke="midnightblue" d="M421.658,-231.983C462.705,-221.722 521.09,-206.877 572,-193 587.63,-188.74 604.844,-183.802 619.524,-179.518"/>
<polygon fill="midnightblue" stroke="midnightblue" points="420.727,-228.608 411.872,-234.424 422.422,-235.399 420.727,-228.608"/>
</g>
<!-- Node6 -->
<g id="node11" class="node"><title>Node6</title>
<a xlink:href="tetgen_8cxx.xhtml#a0ddf1224851353fc92bfbff6f499fa97" target="_top" xlink:title="main">
<polygon fill="none" stroke="black" points="738,-158.5 738,-179.5 776,-179.5 776,-158.5 738,-158.5"/>
<text text-anchor="middle" x="757" y="-166.5" font-family="Helvetica,sans-Serif" font-size="10.00">main</text>
</a>
</g>
<!-- Node3&#45;&gt;Node6 -->
<g id="edge18" class="edge"><title>Node3&#45;&gt;Node6</title>
<path fill="none" stroke="midnightblue" d="M429.738,-240.29C470.241,-236.617 524.556,-230.668 572,-222 630.64,-211.287 645.029,-206.541 702,-189 714.041,-185.293 727.321,-180.484 737.815,-176.512"/>
<polygon fill="midnightblue" stroke="midnightblue" points="429.403,-236.805 419.752,-241.175 430.021,-243.778 429.403,-236.805"/>
</g>
<!-- Node7 -->
<g id="node14" class="node"><title>Node7</title>
<a xlink:href="classtetgenio.xhtml#ae7f0c3300cec04c22b7659b27c5e3dae" target="_top" xlink:title="tetgenio::load_tetmesh">
<polygon fill="none" stroke="black" points="456,-118.5 456,-139.5 572,-139.5 572,-118.5 456,-118.5"/>
<text text-anchor="middle" x="514" y="-126.5" font-family="Helvetica,sans-Serif" font-size="10.00">tetgenio::load_tetmesh</text>
</a>
</g>
<!-- Node3&#45;&gt;Node7 -->
<g id="edge14" class="edge"><title>Node3&#45;&gt;Node7</title>
<path fill="none" stroke="midnightblue" d="M411.195,-230.128C414.255,-228.547 417.224,-226.838 420,-225 439.255,-212.252 484.956,-161.796 504.676,-139.587"/>
<polygon fill="midnightblue" stroke="midnightblue" points="409.435,-227.087 401.855,-234.489 412.397,-233.43 409.435,-227.087"/>
</g>
<!-- Node4&#45;&gt;Node5 -->
<g id="edge8" class="edge"><title>Node4&#45;&gt;Node5</title>
<path fill="none" stroke="midnightblue" d="M535.036,-266.843C564.612,-242.721 617.596,-199.507 642.019,-179.587"/>
<polygon fill="midnightblue" stroke="midnightblue" points="532.549,-264.354 527.012,-273.387 536.974,-269.779 532.549,-264.354"/>
</g>
<!-- Node5&#45;&gt;Node6 -->
<g id="edge10" class="edge"><title>Node5&#45;&gt;Node6</title>
<path fill="none" stroke="midnightblue" d="M711.758,-169C721.152,-169 730.281,-169 737.85,-169"/>
<polygon fill="midnightblue" stroke="midnightblue" points="711.523,-165.5 701.523,-169 711.523,-172.5 711.523,-165.5"/>
</g>
<!-- Node7&#45;&gt;Node6 -->
<g id="edge16" class="edge"><title>Node7&#45;&gt;Node6</title>
<path fill="none" stroke="midnightblue" d="M582.572,-132.285C618.489,-135.011 662.999,-139.976 702,-149 714.176,-151.817 727.348,-156.544 737.748,-160.696"/>
<polygon fill="midnightblue" stroke="midnightblue" points="582.424,-128.766 572.2,-131.542 581.924,-135.748 582.424,-128.766"/>
</g>
<!-- Node8&#45;&gt;Node5 -->
<g id="edge26" class="edge"><title>Node8&#45;&gt;Node5</title>
<path fill="none" stroke="midnightblue" d="M429.511,-196.518C438.391,-195.313 447.43,-194.108 456,-193 508.113,-186.264 567.984,-179.124 608.33,-174.401"/>
<polygon fill="midnightblue" stroke="midnightblue" points="429.019,-193.053 419.585,-197.874 429.967,-199.989 429.019,-193.053"/>
</g>
<!-- Node8&#45;&gt;Node7 -->
<g id="edge28" class="edge"><title>Node8&#45;&gt;Node7</title>
<path fill="none" stroke="midnightblue" d="M401.874,-189.796C407.987,-186.714 414.254,-183.377 420,-180 436.794,-170.129 439.039,-164.581 456,-155 466.088,-149.301 477.658,-143.903 487.797,-139.518"/>
<polygon fill="midnightblue" stroke="midnightblue" points="399.929,-186.852 392.493,-194.399 403.012,-193.136 399.929,-186.852"/>
</g>
<!-- Node9&#45;&gt;Node7 -->
<g id="edge32" class="edge"><title>Node9&#45;&gt;Node7</title>
<path fill="none" stroke="midnightblue" d="M280.902,-160.293C320.413,-155.18 373.304,-148.279 420,-142 431.593,-140.441 443.986,-138.747 455.843,-137.112"/>
<polygon fill="midnightblue" stroke="midnightblue" points="280.37,-156.832 270.901,-161.586 281.267,-163.775 280.37,-156.832"/>
</g>
<!-- Node10&#45;&gt;Node7 -->
<g id="edge36" class="edge"><title>Node10&#45;&gt;Node7</title>
<path fill="none" stroke="midnightblue" d="M277.34,-128.192C328.606,-128.367 403.973,-128.624 455.809,-128.801"/>
<polygon fill="midnightblue" stroke="midnightblue" points="277.115,-124.692 267.104,-128.157 277.092,-131.692 277.115,-124.692"/>
</g>
<!-- Node11&#45;&gt;Node7 -->
<g id="edge40" class="edge"><title>Node11&#45;&gt;Node7</title>
<path fill="none" stroke="midnightblue" d="M277.67,-95.93C328.931,-103.103 404.089,-113.62 455.814,-120.858"/>
<polygon fill="midnightblue" stroke="midnightblue" points="278.139,-92.4616 267.751,-94.5419 277.169,-99.394 278.139,-92.4616"/>
</g>
<!-- Node12&#45;&gt;Node5 -->
<g id="edge44" class="edge"><title>Node12&#45;&gt;Node5</title>
<path fill="none" stroke="midnightblue" d="M426.231,-61.7715C467.999,-70.9453 525.245,-86.2929 572,-109 599.67,-122.438 627.847,-145.115 643.209,-158.406"/>
<polygon fill="midnightblue" stroke="midnightblue" points="426.741,-58.3014 416.23,-59.6275 425.274,-65.1459 426.741,-58.3014"/>
</g>
<!-- Node12&#45;&gt;Node7 -->
<g id="edge46" class="edge"><title>Node12&#45;&gt;Node7</title>
<path fill="none" stroke="midnightblue" d="M400.46,-66.0686C406.956,-69.2785 413.727,-72.6977 420,-76 446.69,-90.0512 476.988,-107.391 495.8,-118.326"/>
<polygon fill="midnightblue" stroke="midnightblue" points="401.752,-62.8042 391.231,-61.5534 398.675,-69.092 401.752,-62.8042"/>
</g>
<!-- Node13&#45;&gt;Node5 -->
<g id="edge50" class="edge"><title>Node13&#45;&gt;Node5</title>
<path fill="none" stroke="midnightblue" d="M426.773,-16.5398C469.71,-22.8802 528.187,-36.3822 572,-65 609.714,-89.6341 638.131,-137.082 649.532,-158.295"/>
<polygon fill="midnightblue" stroke="midnightblue" points="427.148,-13.0584 416.762,-15.1489 426.185,-19.9918 427.148,-13.0584"/>
</g>
<!-- Node13&#45;&gt;Node7 -->
<g id="edge52" class="edge"><title>Node13&#45;&gt;Node7</title>
<path fill="none" stroke="midnightblue" d="M411.347,-25.9084C414.356,-27.4779 417.273,-29.1745 420,-31 457.613,-56.1826 491.681,-98.7163 506.365,-118.409"/>
<polygon fill="midnightblue" stroke="midnightblue" points="412.692,-22.6728 402.153,-21.5802 409.71,-29.0061 412.692,-22.6728"/>
</g>
</g>
</svg>
        <g id="navigator" transform="translate(0 0)" fill="#404254">
                <rect fill="#f2f5e9" fill-opacity="0.5" stroke="#606060" stroke-width=".5" x="0" y="0" width="60" height="60"/>
                <use id="zoomplus" xlink:href="#zoomPlus" x="17" y="9" onmousedown="handleZoom(evt,'in')"/>
                <use id="zoomminus" xlink:href="#zoomMin" x="42" y="9" onmousedown="handleZoom(evt,'out')"/>
                <use id="reset" xlink:href="#resetDef" x="30" y="36" onmousedown="handleReset()"/>
                <g id="arrowUp" xlink:href="#dirArrow" transform="translate(30 24)" onmousedown="handlePan(0,-1)">
                  <use xlink:href="#rim" fill="#404040">
                        <set attributeName="fill" to="#808080" begin="arrowUp.mouseover" end="arrowUp.mouseout"/>
                  </use>
                  <path fill="none" stroke="white" stroke-width="1.5" d="M0,-3.0v7 M-2.5,-0.5L0,-3.0L2.5,-0.5"/>
                </g>
                <g id="arrowRight" xlink:href="#dirArrow" transform="rotate(90) translate(36 -43)" onmousedown="handlePan(1,0)">
                  <use xlink:href="#rim" fill="#404040">
                        <set attributeName="fill" to="#808080" begin="arrowRight.mouseover" end="arrowRight.mouseout"/>
                  </use>
                  <path fill="none" stroke="white" stroke-width="1.5" d="M0,-3.0v7 M-2.5,-0.5L0,-3.0L2.5,-0.5"/>
                </g>
                <g id="arrowDown" xlink:href="#dirArrow" transform="rotate(180) translate(-30 -48)" onmousedown="handlePan(0,1)">
                  <use xlink:href="#rim" fill="#404040">
                        <set attributeName="fill" to="#808080" begin="arrowDown.mouseover" end="arrowDown.mouseout"/>
                  </use>
                  <path fill="none" stroke="white" stroke-width="1.5" d="M0,-3.0v7 M-2.5,-0.5L0,-3.0L2.5,-0.5"/>
                </g>
                <g id="arrowLeft" xlink:href="#dirArrow" transform="rotate(270) translate(-36 17)" onmousedown="handlePan(-1,0)">
                  <use xlink:href="#rim" fill="#404040">
                        <set attributeName="fill" to="#808080" begin="arrowLeft.mouseover" end="arrowLeft.mouseout"/>
                  </use>
                  <path fill="none" stroke="white" stroke-width="1.5" d="M0,-3.0v7 M-2.5,-0.5L0,-3.0L2.5,-0.5"/>
                </g>
        </g>
        <svg viewBox="0 0 15 15" width="100%" height="30px" preserveAspectRatio="xMaxYMin meet">
         <g id="arrow_out" transform="scale(0.3 0.3)">
          <a xlink:href="classtetgenio_a5e59fa66b5f0f4a7b7aa72df554ac1c7_icgraph_org.svg" target="_base">
           <rect id="button" ry="5" rx="5" y="6" x="6" height="38" width="38"
                fill="#f2f5e9" fill-opacity="0.5" stroke="#606060" stroke-width="1.0"/>
           <path id="arrow"
             d="M 11.500037,31.436501 C 11.940474,20.09759 22.043105,11.32322 32.158766,21.979434 L 37.068811,17.246167 C 37.068811,17.246167 37.088388,32 37.088388,32 L 22.160133,31.978069 C 22.160133,31.978069 26.997745,27.140456 26.997745,27.140456 C 18.528582,18.264221 13.291696,25.230495 11.500037,31.436501 z"
             style="fill:#404040;"/>
          </a>
         </g>
        </svg>
</svg>
