<?xml version="1.0" encoding="UTF-8" standalone="no"?>
<!DOCTYPE svg PUBLIC "-//W3C//DTD SVG 1.1//EN"
 "http://www.w3.org/Graphics/SVG/1.1/DTD/svg11.dtd">
<!-- Generated by graphviz version 2.26.3 (20100126.1600)
 -->
<!-- Title: Vector3D::copy Pages: 1 -->
<!--zoomable 316 -->
<svg id="main" version="1.1" xmlns="http://www.w3.org/2000/svg" xmlns:xlink="http://www.w3.org/1999/xlink" xml:space="preserve" onload="init(evt)">
<style type="text/css"><![CDATA[
.edge:hover path { stroke: red; }
.edge:hover polygon { stroke: red; fill: red; }
]]></style>
<script type="text/javascript"><![CDATA[
var edges = document.getElementsByTagName('g');
if (edges && edges.length) {
  for (var i=0;i<edges.length;i++) {
    if (edges[i].id.substr(0,4)=='edge') {
      edges[i].setAttribute('class','edge');
    }
  }
}
]]></script>
        <defs>
                <circle id="rim" cx="0" cy="0" r="7"/>
                <circle id="rim2" cx="0" cy="0" r="3.5"/>
                <g id="zoomPlus">
                        <use xlink:href="#rim" fill="#404040">
                                <set attributeName="fill" to="#808080" begin="zoomplus.mouseover" end="zoomplus.mouseout"/>
                        </use>
                        <path d="M-4,0h8M0,-4v8" fill="none" stroke="white" stroke-width="1.5" pointer-events="none"/>
                </g>
                <g id="zoomMin">
                        <use xlink:href="#rim" fill="#404040">
                                <set attributeName="fill" to="#808080" begin="zoomminus.mouseover" end="zoomminus.mouseout"/>
                        </use>
                        <path d="M-4,0h8" fill="none" stroke="white" stroke-width="1.5" pointer-events="none"/>
                </g>
                <g id="dirArrow">
                        <path fill="none" stroke="white" stroke-width="1.5" d="M0,-3.0v7 M-2.5,-0.5L0,-3.0L2.5,-0.5"/>
                </g>
               <g id="resetDef">
                       <use xlink:href="#rim2" fill="#404040">
                               <set attributeName="fill" to="#808080" begin="reset.mouseover" end="reset.mouseout"/>
                       </use>
               </g>
        </defs>

<script type="text/javascript">
var viewWidth = 926;
var viewHeight = 316;
var sectionId = 'dynsection-3';
</script>
<script xlink:href="svgpan.js"/>
<svg id="graph" class="graph">
<g id="viewport">
<title>Vector3D::copy</title>
<!-- Node1 -->
<g id="node1" class="node"><title>Node1</title>
<polygon fill="#bfbfbf" stroke="black" points="0.5,-139.5 0.5,-160.5 85.5,-160.5 85.5,-139.5 0.5,-139.5"/>
<text text-anchor="middle" x="43" y="-147.5" font-family="Helvetica,sans-Serif" font-size="10.00">Vector3D::copy</text>
</g>
<!-- Node2 -->
<g id="node3" class="node"><title>Node2</title>
<a xlink:href="classGUICutRenderWindow.xhtml#a9eedb7088ad31f4680a77ed3a06fa60c" target="_top" xlink:title="GUICutRenderWindow\l::renderImage">
<polygon fill="none" stroke="black" points="312.5,-274 312.5,-308 429.5,-308 429.5,-274 312.5,-274"/>
<text text-anchor="start" x="320.5" y="-295" font-family="Helvetica,sans-Serif" font-size="10.00">GUICutRenderWindow</text>
<text text-anchor="middle" x="371" y="-282" font-family="Helvetica,sans-Serif" font-size="10.00">::renderImage</text>
</a>
</g>
<!-- Node1&#45;&gt;Node2 -->
<g id="edge2" class="edge"><title>Node1&#45;&gt;Node2</title>
<path fill="none" stroke="midnightblue" d="M50.3553,-170.416C61.338,-197.618 84.8055,-244.881 122,-267 179.858,-301.407 258.935,-302.947 312.326,-298.807"/>
<polygon fill="midnightblue" stroke="midnightblue" points="53.4944,-168.828 46.6387,-160.75 46.9606,-171.34 53.4944,-168.828"/>
</g>
<!-- Node4 -->
<g id="node7" class="node"><title>Node4</title>
<a xlink:href="classRenderer.xhtml#a927f376a6283de3181b86f65b927386c" target="_top" xlink:title="Renderer::renderTetrahedra">
<polygon fill="none" stroke="black" points="125,-40.5 125,-61.5 261,-61.5 261,-40.5 125,-40.5"/>
<text text-anchor="middle" x="193" y="-48.5" font-family="Helvetica,sans-Serif" font-size="10.00">Renderer::renderTetrahedra</text>
</a>
</g>
<!-- Node1&#45;&gt;Node4 -->
<g id="edge6" class="edge"><title>Node1&#45;&gt;Node4</title>
<path fill="none" stroke="midnightblue" d="M56.9743,-131.279C71.365,-113.284 95.3933,-86.5888 122,-71 128.519,-67.1805 135.804,-64.0592 143.157,-61.5172"/>
<polygon fill="midnightblue" stroke="midnightblue" points="54.0915,-129.284 50.7149,-139.327 59.617,-133.582 54.0915,-129.284"/>
</g>
<!-- Node5 -->
<g id="node9" class="node"><title>Node5</title>
<a xlink:href="classRenderer.xhtml#af7e5f8f68742f198e315fb4683a605a4" target="_top" xlink:title="Renderer::render">
<polygon fill="none" stroke="black" points="326.5,-234.5 326.5,-255.5 415.5,-255.5 415.5,-234.5 326.5,-234.5"/>
<text text-anchor="middle" x="371" y="-242.5" font-family="Helvetica,sans-Serif" font-size="10.00">Renderer::render</text>
</a>
</g>
<!-- Node1&#45;&gt;Node5 -->
<g id="edge8" class="edge"><title>Node1&#45;&gt;Node5</title>
<path fill="none" stroke="midnightblue" d="M71.0872,-165.405C85.894,-173.035 104.56,-181.896 122,-188 191.483,-212.32 275.553,-229.067 326.076,-237.836"/>
<polygon fill="midnightblue" stroke="midnightblue" points="72.4461,-162.165 61.966,-160.61 69.1889,-168.361 72.4461,-162.165"/>
</g>
<!-- Node7 -->
<g id="node13" class="node"><title>Node7</title>
<a xlink:href="classTriangle.xhtml#a3c72b19f316fa9ffb0a2f206e3558790" target="_top" xlink:title="Triangle::getNormal">
<polygon fill="none" stroke="black" points="142,-236.5 142,-257.5 244,-257.5 244,-236.5 142,-236.5"/>
<text text-anchor="middle" x="193" y="-244.5" font-family="Helvetica,sans-Serif" font-size="10.00">Triangle::getNormal</text>
</a>
</g>
<!-- Node1&#45;&gt;Node7 -->
<g id="edge12" class="edge"><title>Node1&#45;&gt;Node7</title>
<path fill="none" stroke="midnightblue" d="M59.1578,-168.424C74.0858,-184.475 97.5858,-207.405 122,-222 131.871,-227.901 143.345,-232.699 154.154,-236.455"/>
<polygon fill="midnightblue" stroke="midnightblue" points="61.4889,-165.785 52.1734,-160.738 56.3083,-170.492 61.4889,-165.785"/>
</g>
<!-- Node8 -->
<g id="node17" class="node"><title>Node8</title>
<a xlink:href="classInterpolator.xhtml#a30e714ca6dff9b5745d029f95af1420a" target="_top" xlink:title="Interpolator::interpolateTet">
<polygon fill="none" stroke="black" points="305.5,-194.5 305.5,-215.5 436.5,-215.5 436.5,-194.5 305.5,-194.5"/>
<text text-anchor="middle" x="371" y="-202.5" font-family="Helvetica,sans-Serif" font-size="10.00">Interpolator::interpolateTet</text>
</a>
</g>
<!-- Node1&#45;&gt;Node8 -->
<g id="edge28" class="edge"><title>Node1&#45;&gt;Node8</title>
<path fill="none" stroke="midnightblue" d="M95.5848,-158.818C153.521,-168.533 246.647,-184.148 308.327,-194.491"/>
<polygon fill="midnightblue" stroke="midnightblue" points="95.9852,-155.336 85.544,-157.134 94.8275,-162.24 95.9852,-155.336"/>
</g>
<!-- Node12 -->
<g id="node25" class="node"><title>Node12</title>
<a xlink:href="classInterpolator.xhtml#ad59ac6ed3822e08a67ac7d1ee88a5bd2" target="_top" xlink:title="Interpolator::interpolateTri">
<polygon fill="none" stroke="black" points="129,-0.5 129,-21.5 257,-21.5 257,-0.5 129,-0.5"/>
<text text-anchor="middle" x="193" y="-8.5" font-family="Helvetica,sans-Serif" font-size="10.00">Interpolator::interpolateTri</text>
</a>
</g>
<!-- Node1&#45;&gt;Node12 -->
<g id="edge26" class="edge"><title>Node1&#45;&gt;Node12</title>
<path fill="none" stroke="midnightblue" d="M51.052,-129.784C62.7013,-103.139 86.7896,-56.6538 122,-31 127.279,-27.154 133.272,-24.0467 139.486,-21.5363"/>
<polygon fill="midnightblue" stroke="midnightblue" points="47.7213,-128.675 47.0735,-139.25 54.1746,-131.388 47.7213,-128.675"/>
</g>
<!-- Node13 -->
<g id="node28" class="node"><title>Node13</title>
<a xlink:href="namespaceUtils.xhtml#a5f216cc7011a901130db81321b565334" target="_top" xlink:title="Utils::rayIntersectsTriangle">
<polygon fill="none" stroke="black" points="126,-80.5 126,-101.5 260,-101.5 260,-80.5 126,-80.5"/>
<text text-anchor="middle" x="193" y="-88.5" font-family="Helvetica,sans-Serif" font-size="10.00">Utils::rayIntersectsTriangle</text>
</a>
</g>
<!-- Node1&#45;&gt;Node13 -->
<g id="edge30" class="edge"><title>Node1&#45;&gt;Node13</title>
<path fill="none" stroke="midnightblue" d="M71.1734,-134.514C86.0034,-126.77 104.664,-117.656 122,-111 131.086,-107.512 141.035,-104.332 150.533,-101.585"/>
<polygon fill="midnightblue" stroke="midnightblue" points="69.2255,-131.585 62.0337,-139.365 72.5075,-137.768 69.2255,-131.585"/>
</g>
<!-- Node15 -->
<g id="node32" class="node"><title>Node15</title>
<a xlink:href="namespaceUtils.xhtml#a9b995a1220a78be108b19bda4b776332" target="_top" xlink:title="Utils::pointInsideTetrahedron">
<polygon fill="none" stroke="black" points="122,-120.5 122,-141.5 264,-141.5 264,-120.5 122,-120.5"/>
<text text-anchor="middle" x="193" y="-128.5" font-family="Helvetica,sans-Serif" font-size="10.00">Utils::pointInsideTetrahedron</text>
</a>
</g>
<!-- Node1&#45;&gt;Node15 -->
<g id="edge34" class="edge"><title>Node1&#45;&gt;Node15</title>
<path fill="none" stroke="midnightblue" d="M95.6965,-143.325C104.186,-142.25 113.094,-141.121 121.929,-140.002"/>
<polygon fill="midnightblue" stroke="midnightblue" points="95.0636,-139.877 85.5828,-144.606 95.9433,-146.822 95.0636,-139.877"/>
</g>
<!-- Node3 -->
<g id="node5" class="node"><title>Node3</title>
<a xlink:href="classGUICutRenderWindow.xhtml#a7cd1bfbec53756a1cbbe1616b4d46c7a" target="_top" xlink:title="GUICutRenderWindow\l::renderCutBtClick">
<polygon fill="none" stroke="black" points="480.5,-274 480.5,-308 597.5,-308 597.5,-274 480.5,-274"/>
<text text-anchor="start" x="488.5" y="-295" font-family="Helvetica,sans-Serif" font-size="10.00">GUICutRenderWindow</text>
<text text-anchor="middle" x="539" y="-282" font-family="Helvetica,sans-Serif" font-size="10.00">::renderCutBtClick</text>
</a>
</g>
<!-- Node2&#45;&gt;Node3 -->
<g id="edge4" class="edge"><title>Node2&#45;&gt;Node3</title>
<path fill="none" stroke="midnightblue" d="M439.884,-291C453.292,-291 467.232,-291 480.275,-291"/>
<polygon fill="midnightblue" stroke="midnightblue" points="439.758,-287.5 429.758,-291 439.758,-294.5 439.758,-287.5"/>
</g>
<!-- Node6 -->
<g id="node11" class="node"><title>Node6</title>
<a xlink:href="classGUIGLCanvas.xhtml#a83f52d08591920a339150c2f45069c8f" target="_top" xlink:title="GUIGLCanvas::OnPaint">
<polygon fill="none" stroke="black" points="478,-234.5 478,-255.5 600,-255.5 600,-234.5 478,-234.5"/>
<text text-anchor="middle" x="539" y="-242.5" font-family="Helvetica,sans-Serif" font-size="10.00">GUIGLCanvas::OnPaint</text>
</a>
</g>
<!-- Node5&#45;&gt;Node6 -->
<g id="edge10" class="edge"><title>Node5&#45;&gt;Node6</title>
<path fill="none" stroke="midnightblue" d="M425.686,-245C442.327,-245 460.722,-245 477.765,-245"/>
<polygon fill="midnightblue" stroke="midnightblue" points="425.58,-241.5 415.58,-245 425.58,-248.5 425.58,-241.5"/>
</g>
<!-- Node7&#45;&gt;Node2 -->
<g id="edge14" class="edge"><title>Node7&#45;&gt;Node2</title>
<path fill="none" stroke="midnightblue" d="M245.624,-260.008C266.553,-265.182 290.725,-271.157 312.226,-276.472"/>
<polygon fill="midnightblue" stroke="midnightblue" points="246.183,-256.541 235.635,-257.539 244.503,-263.337 246.183,-256.541"/>
</g>
<!-- Node7&#45;&gt;Node5 -->
<g id="edge16" class="edge"><title>Node7&#45;&gt;Node5</title>
<path fill="none" stroke="midnightblue" d="M254.299,-246.311C277.967,-246.045 304.538,-245.747 326.341,-245.502"/>
<polygon fill="midnightblue" stroke="midnightblue" points="253.968,-242.815 244.008,-246.427 254.046,-249.814 253.968,-242.815"/>
</g>
<!-- Node7&#45;&gt;Node8 -->
<g id="edge18" class="edge"><title>Node7&#45;&gt;Node8</title>
<path fill="none" stroke="midnightblue" d="M247.716,-234.089C272.959,-228.133 302.545,-221.152 326.406,-215.522"/>
<polygon fill="midnightblue" stroke="midnightblue" points="246.846,-230.699 237.917,-236.402 248.453,-237.512 246.846,-230.699"/>
</g>
<!-- Node9 -->
<g id="node19" class="node"><title>Node9</title>
<a xlink:href="namespaceUtils.xhtml#a6a0ae18a42e2d206bc1b43da27820fe2" target="_top" xlink:title="Utils::getPointValue">
<polygon fill="none" stroke="black" points="487,-175.5 487,-196.5 591,-196.5 591,-175.5 487,-175.5"/>
<text text-anchor="middle" x="539" y="-183.5" font-family="Helvetica,sans-Serif" font-size="10.00">Utils::getPointValue</text>
</a>
</g>
<!-- Node8&#45;&gt;Node9 -->
<g id="edge20" class="edge"><title>Node8&#45;&gt;Node9</title>
<path fill="none" stroke="midnightblue" d="M447.098,-196.394C460.512,-194.877 474.197,-193.329 486.768,-191.907"/>
<polygon fill="midnightblue" stroke="midnightblue" points="446.459,-192.944 436.916,-197.545 447.246,-199.899 446.459,-192.944"/>
</g>
<!-- Node10 -->
<g id="node21" class="node"><title>Node10</title>
<a xlink:href="classAnalyzer.xhtml#a8f73ee0aa71ae395a74b43dc76b35458" target="_top" xlink:title="Analyzer::analyzePoint">
<polygon fill="none" stroke="black" points="636.5,-175.5 636.5,-196.5 753.5,-196.5 753.5,-175.5 636.5,-175.5"/>
<text text-anchor="middle" x="695" y="-183.5" font-family="Helvetica,sans-Serif" font-size="10.00">Analyzer::analyzePoint</text>
</a>
</g>
<!-- Node9&#45;&gt;Node10 -->
<g id="edge22" class="edge"><title>Node9&#45;&gt;Node10</title>
<path fill="none" stroke="midnightblue" d="M601.712,-186C613.133,-186 625.01,-186 636.31,-186"/>
<polygon fill="midnightblue" stroke="midnightblue" points="601.38,-182.5 591.38,-186 601.38,-189.5 601.38,-182.5"/>
</g>
<!-- Node11 -->
<g id="node23" class="node"><title>Node11</title>
<a xlink:href="classGUIAnalyzePointWindow.xhtml#aa84ea9958e8b41423f01316d01ba5151" target="_top" xlink:title="GUIAnalyzePointWindow\l::analyzePoint">
<polygon fill="none" stroke="black" points="790,-169 790,-203 918,-203 918,-169 790,-169"/>
<text text-anchor="start" x="798" y="-190" font-family="Helvetica,sans-Serif" font-size="10.00">GUIAnalyzePointWindow</text>
<text text-anchor="middle" x="854" y="-177" font-family="Helvetica,sans-Serif" font-size="10.00">::analyzePoint</text>
</a>
</g>
<!-- Node10&#45;&gt;Node11 -->
<g id="edge24" class="edge"><title>Node10&#45;&gt;Node11</title>
<path fill="none" stroke="midnightblue" d="M763.811,-186C772.466,-186 781.294,-186 789.874,-186"/>
<polygon fill="midnightblue" stroke="midnightblue" points="763.754,-182.5 753.754,-186 763.754,-189.5 763.754,-182.5"/>
</g>
<!-- Node14 -->
<g id="node30" class="node"><title>Node14</title>
<a xlink:href="namespaceUtils.xhtml#af8fc5d6dab27f759ab5d76757a53023f" target="_top" xlink:title="Utils::pointInsideMesh">
<polygon fill="none" stroke="black" points="314,-76.5 314,-97.5 428,-97.5 428,-76.5 314,-76.5"/>
<text text-anchor="middle" x="371" y="-84.5" font-family="Helvetica,sans-Serif" font-size="10.00">Utils::pointInsideMesh</text>
</a>
</g>
<!-- Node13&#45;&gt;Node14 -->
<g id="edge32" class="edge"><title>Node13&#45;&gt;Node14</title>
<path fill="none" stroke="midnightblue" d="M270.129,-89.2668C284.833,-88.9363 299.977,-88.596 313.916,-88.2828"/>
<polygon fill="midnightblue" stroke="midnightblue" points="269.959,-85.7696 260.041,-89.4935 270.117,-92.7678 269.959,-85.7696"/>
</g>
<!-- Node15&#45;&gt;Node9 -->
<g id="edge40" class="edge"><title>Node15&#45;&gt;Node9</title>
<path fill="none" stroke="midnightblue" d="M269.24,-143.119C335.244,-153.611 428.946,-168.506 486.756,-177.695"/>
<polygon fill="midnightblue" stroke="midnightblue" points="269.728,-139.653 259.303,-141.539 268.629,-146.566 269.728,-139.653"/>
</g>
<!-- Node15&#45;&gt;Node14 -->
<g id="edge36" class="edge"><title>Node15&#45;&gt;Node14</title>
<path fill="none" stroke="midnightblue" d="M245.482,-118.027C271.901,-111.496 303.514,-103.682 328.404,-97.5293"/>
<polygon fill="midnightblue" stroke="midnightblue" points="244.503,-114.663 235.635,-120.461 246.183,-121.459 244.503,-114.663"/>
</g>
<!-- Node16 -->
<g id="node35" class="node"><title>Node16</title>
<a xlink:href="namespaceUtils.xhtml#a40eaef4d22da849a5deb2f1153d88bbc" target="_top" xlink:title="Utils::pointInsideTetrahedron">
<polygon fill="none" stroke="black" points="300,-116.5 300,-137.5 442,-137.5 442,-116.5 300,-116.5"/>
<text text-anchor="middle" x="371" y="-124.5" font-family="Helvetica,sans-Serif" font-size="10.00">Utils::pointInsideTetrahedron</text>
</a>
</g>
<!-- Node15&#45;&gt;Node16 -->
<g id="edge38" class="edge"><title>Node15&#45;&gt;Node16</title>
<path fill="none" stroke="midnightblue" d="M274.17,-129.176C282.789,-128.982 291.506,-128.786 299.995,-128.596"/>
<polygon fill="midnightblue" stroke="midnightblue" points="274.037,-125.678 264.118,-129.402 274.194,-132.676 274.037,-125.678"/>
</g>
</g>
</svg>
        <g id="navigator" transform="translate(0 0)" fill="#404254">
                <rect fill="#f2f5e9" fill-opacity="0.5" stroke="#606060" stroke-width=".5" x="0" y="0" width="60" height="60"/>
                <use id="zoomplus" xlink:href="#zoomPlus" x="17" y="9" onmousedown="handleZoom(evt,'in')"/>
                <use id="zoomminus" xlink:href="#zoomMin" x="42" y="9" onmousedown="handleZoom(evt,'out')"/>
                <use id="reset" xlink:href="#resetDef" x="30" y="36" onmousedown="handleReset()"/>
                <g id="arrowUp" xlink:href="#dirArrow" transform="translate(30 24)" onmousedown="handlePan(0,-1)">
                  <use xlink:href="#rim" fill="#404040">
                        <set attributeName="fill" to="#808080" begin="arrowUp.mouseover" end="arrowUp.mouseout"/>
                  </use>
                  <path fill="none" stroke="white" stroke-width="1.5" d="M0,-3.0v7 M-2.5,-0.5L0,-3.0L2.5,-0.5"/>
                </g>
                <g id="arrowRight" xlink:href="#dirArrow" transform="rotate(90) translate(36 -43)" onmousedown="handlePan(1,0)">
                  <use xlink:href="#rim" fill="#404040">
                        <set attributeName="fill" to="#808080" begin="arrowRight.mouseover" end="arrowRight.mouseout"/>
                  </use>
                  <path fill="none" stroke="white" stroke-width="1.5" d="M0,-3.0v7 M-2.5,-0.5L0,-3.0L2.5,-0.5"/>
                </g>
                <g id="arrowDown" xlink:href="#dirArrow" transform="rotate(180) translate(-30 -48)" onmousedown="handlePan(0,1)">
                  <use xlink:href="#rim" fill="#404040">
                        <set attributeName="fill" to="#808080" begin="arrowDown.mouseover" end="arrowDown.mouseout"/>
                  </use>
                  <path fill="none" stroke="white" stroke-width="1.5" d="M0,-3.0v7 M-2.5,-0.5L0,-3.0L2.5,-0.5"/>
                </g>
                <g id="arrowLeft" xlink:href="#dirArrow" transform="rotate(270) translate(-36 17)" onmousedown="handlePan(-1,0)">
                  <use xlink:href="#rim" fill="#404040">
                        <set attributeName="fill" to="#808080" begin="arrowLeft.mouseover" end="arrowLeft.mouseout"/>
                  </use>
                  <path fill="none" stroke="white" stroke-width="1.5" d="M0,-3.0v7 M-2.5,-0.5L0,-3.0L2.5,-0.5"/>
                </g>
        </g>
        <svg viewBox="0 0 15 15" width="100%" height="30px" preserveAspectRatio="xMaxYMin meet">
         <g id="arrow_out" transform="scale(0.3 0.3)">
          <a xlink:href="classVector3D_a46dd0d9a849809a3857783102959e788_icgraph_org.svg" target="_base">
           <rect id="button" ry="5" rx="5" y="6" x="6" height="38" width="38"
                fill="#f2f5e9" fill-opacity="0.5" stroke="#606060" stroke-width="1.0"/>
           <path id="arrow"
             d="M 11.500037,31.436501 C 11.940474,20.09759 22.043105,11.32322 32.158766,21.979434 L 37.068811,17.246167 C 37.068811,17.246167 37.088388,32 37.088388,32 L 22.160133,31.978069 C 22.160133,31.978069 26.997745,27.140456 26.997745,27.140456 C 18.528582,18.264221 13.291696,25.230495 11.500037,31.436501 z"
             style="fill:#404040;"/>
          </a>
         </g>
        </svg>
</svg>
