<?xml version="1.0" encoding="UTF-8" standalone="no"?>
<!DOCTYPE svg PUBLIC "-//W3C//DTD SVG 1.1//EN"
 "http://www.w3.org/Graphics/SVG/1.1/DTD/svg11.dtd">
<!-- Generated by graphviz version 2.26.3 (20100126.1600)
 -->
<!-- Title: tetgenmesh::outsubsegments Pages: 1 -->
<!--zoomable 442 -->
<svg id="main" version="1.1" xmlns="http://www.w3.org/2000/svg" xmlns:xlink="http://www.w3.org/1999/xlink" xml:space="preserve" onload="init(evt)">
<style type="text/css"><![CDATA[
.edge:hover path { stroke: red; }
.edge:hover polygon { stroke: red; fill: red; }
]]></style>
<script type="text/javascript"><![CDATA[
var edges = document.getElementsByTagName('g');
if (edges && edges.length) {
  for (var i=0;i<edges.length;i++) {
    if (edges[i].id.substr(0,4)=='edge') {
      edges[i].setAttribute('class','edge');
    }
  }
}
]]></script>
        <defs>
                <circle id="rim" cx="0" cy="0" r="7"/>
                <circle id="rim2" cx="0" cy="0" r="3.5"/>
                <g id="zoomPlus">
                        <use xlink:href="#rim" fill="#404040">
                                <set attributeName="fill" to="#808080" begin="zoomplus.mouseover" end="zoomplus.mouseout"/>
                        </use>
                        <path d="M-4,0h8M0,-4v8" fill="none" stroke="white" stroke-width="1.5" pointer-events="none"/>
                </g>
                <g id="zoomMin">
                        <use xlink:href="#rim" fill="#404040">
                                <set attributeName="fill" to="#808080" begin="zoomminus.mouseover" end="zoomminus.mouseout"/>
                        </use>
                        <path d="M-4,0h8" fill="none" stroke="white" stroke-width="1.5" pointer-events="none"/>
                </g>
                <g id="dirArrow">
                        <path fill="none" stroke="white" stroke-width="1.5" d="M0,-3.0v7 M-2.5,-0.5L0,-3.0L2.5,-0.5"/>
                </g>
               <g id="resetDef">
                       <use xlink:href="#rim2" fill="#404040">
                               <set attributeName="fill" to="#808080" begin="reset.mouseover" end="reset.mouseout"/>
                       </use>
               </g>
        </defs>

<script type="text/javascript">
var viewWidth = 502;
var viewHeight = 442;
var sectionId = 'dynsection-275';
</script>
<script xlink:href="svgpan.js"/>
<svg id="graph" class="graph">
<g id="viewport">
<title>tetgenmesh::outsubsegments</title>
<!-- Node1 -->
<g id="node1" class="node"><title>Node1</title>
<polygon fill="#bfbfbf" stroke="black" points="0,-200.5 0,-221.5 146,-221.5 146,-200.5 0,-200.5"/>
<text text-anchor="middle" x="73" y="-208.5" font-family="Helvetica,sans-Serif" font-size="10.00">tetgenmesh::outsubsegments</text>
</g>
<!-- Node2 -->
<g id="node3" class="node"><title>Node2</title>
<a xlink:href="tetgen_8h.xhtml#a4012bf160c63ec4ff007f6645b993ca5" target="_top" xlink:title="terminatetetgen">
<polygon fill="none" stroke="black" points="214,-412.5 214,-433.5 298,-433.5 298,-412.5 214,-412.5"/>
<text text-anchor="middle" x="256" y="-420.5" font-family="Helvetica,sans-Serif" font-size="10.00">terminatetetgen</text>
</a>
</g>
<!-- Node1&#45;&gt;Node2 -->
<g id="edge2" class="edge"><title>Node1&#45;&gt;Node2</title>
<path fill="none" stroke="midnightblue" d="M75.8604,-221.655C85.1682,-254.219 117.766,-353.229 182,-403 188.507,-408.042 196.189,-411.815 204.099,-414.638"/>
<polygon fill="midnightblue" stroke="midnightblue" points="203.209,-418.026 213.796,-417.631 205.274,-411.337 203.209,-418.026"/>
</g>
<!-- Node4 -->
<g id="node7" class="node"><title>Node4</title>
<a xlink:href="classtetgenmesh_1_1memorypool.xhtml#a623b101e4e2f249d8b7e5dba65c3f7e2" target="_top" xlink:title="tetgenmesh::memorypool\l::traversalinit">
<polygon fill="none" stroke="black" points="192.5,-360 192.5,-394 319.5,-394 319.5,-360 192.5,-360"/>
<text text-anchor="start" x="200.5" y="-381" font-family="Helvetica,sans-Serif" font-size="10.00">tetgenmesh::memorypool</text>
<text text-anchor="middle" x="256" y="-368" font-family="Helvetica,sans-Serif" font-size="10.00">::traversalinit</text>
</a>
</g>
<!-- Node1&#45;&gt;Node4 -->
<g id="edge6" class="edge"><title>Node1&#45;&gt;Node4</title>
<path fill="none" stroke="midnightblue" d="M78.554,-221.822C92.4418,-247.849 131.237,-314.486 182,-351 183.886,-352.357 185.85,-353.648 187.872,-354.877"/>
<polygon fill="midnightblue" stroke="midnightblue" points="186.598,-358.168 197.055,-359.871 189.942,-352.019 186.598,-358.168"/>
</g>
<!-- Node5 -->
<g id="node9" class="node"><title>Node5</title>
<a xlink:href="classtetgenmesh.xhtml#ae50ecae1d69935b12a4fa7ca843011d7" target="_top" xlink:title="tetgenmesh::shellfacetraverse">
<polygon fill="none" stroke="black" points="182,-320.5 182,-341.5 330,-341.5 330,-320.5 182,-320.5"/>
<text text-anchor="middle" x="256" y="-328.5" font-family="Helvetica,sans-Serif" font-size="10.00">tetgenmesh::shellfacetraverse</text>
</a>
</g>
<!-- Node1&#45;&gt;Node5 -->
<g id="edge8" class="edge"><title>Node1&#45;&gt;Node5</title>
<path fill="none" stroke="midnightblue" d="M81.4031,-221.528C98.2623,-241.936 138.354,-286.976 182,-311 185.977,-313.189 190.207,-315.149 194.554,-316.904"/>
<polygon fill="midnightblue" stroke="midnightblue" points="193.606,-320.284 204.2,-320.424 196.006,-313.708 193.606,-320.284"/>
</g>
<!-- Node7 -->
<g id="node13" class="node"><title>Node7</title>
<a xlink:href="classtetgenmesh.xhtml#a55db9a054b722d91a17b82d442f88f4c" target="_top" xlink:title="tetgenmesh::sorg">
<polygon fill="none" stroke="black" points="210,-280.5 210,-301.5 302,-301.5 302,-280.5 210,-280.5"/>
<text text-anchor="middle" x="256" y="-288.5" font-family="Helvetica,sans-Serif" font-size="10.00">tetgenmesh::sorg</text>
</a>
</g>
<!-- Node1&#45;&gt;Node7 -->
<g id="edge12" class="edge"><title>Node1&#45;&gt;Node7</title>
<path fill="none" stroke="midnightblue" d="M89.3767,-221.649C110.185,-234.79 147.546,-257.095 182,-271 187.831,-273.353 194.031,-275.519 200.264,-277.487"/>
<polygon fill="midnightblue" stroke="midnightblue" points="199.455,-280.898 210.039,-280.414 201.463,-274.192 199.455,-280.898"/>
</g>
<!-- Node8 -->
<g id="node15" class="node"><title>Node8</title>
<a xlink:href="classtetgenmesh.xhtml#aa6017928ea3dc0b8ba39e7f24ea312b2" target="_top" xlink:title="tetgenmesh::sdest">
<polygon fill="none" stroke="black" points="207,-240.5 207,-261.5 305,-261.5 305,-240.5 207,-240.5"/>
<text text-anchor="middle" x="256" y="-248.5" font-family="Helvetica,sans-Serif" font-size="10.00">tetgenmesh::sdest</text>
</a>
</g>
<!-- Node1&#45;&gt;Node8 -->
<g id="edge14" class="edge"><title>Node1&#45;&gt;Node8</title>
<path fill="none" stroke="midnightblue" d="M121.081,-221.51C144.629,-226.657 173.171,-232.895 197.928,-238.307"/>
<polygon fill="midnightblue" stroke="midnightblue" points="197.406,-241.775 207.923,-240.491 198.901,-234.937 197.406,-241.775"/>
</g>
<!-- Node9 -->
<g id="node17" class="node"><title>Node9</title>
<a xlink:href="classtetgenmesh.xhtml#a08c6f7bbaecd0aa7733b5e797106be24" target="_top" xlink:title="tetgenmesh::sstpivot1">
<polygon fill="none" stroke="black" points="199.5,-200.5 199.5,-221.5 312.5,-221.5 312.5,-200.5 199.5,-200.5"/>
<text text-anchor="middle" x="256" y="-208.5" font-family="Helvetica,sans-Serif" font-size="10.00">tetgenmesh::sstpivot1</text>
</a>
</g>
<!-- Node1&#45;&gt;Node9 -->
<g id="edge16" class="edge"><title>Node1&#45;&gt;Node9</title>
<path fill="none" stroke="midnightblue" d="M146.115,-211C160.375,-211 175.256,-211 189.295,-211"/>
<polygon fill="midnightblue" stroke="midnightblue" points="189.348,-214.5 199.348,-211 189.348,-207.5 189.348,-214.5"/>
</g>
<!-- Node11 -->
<g id="node21" class="node"><title>Node11</title>
<a xlink:href="classtetgenmesh.xhtml#aa14f996a69b46afb1429ebf35a6e881c" target="_top" xlink:title="tetgenmesh::ishulltet">
<polygon fill="none" stroke="black" points="202.5,-160.5 202.5,-181.5 309.5,-181.5 309.5,-160.5 202.5,-160.5"/>
<text text-anchor="middle" x="256" y="-168.5" font-family="Helvetica,sans-Serif" font-size="10.00">tetgenmesh::ishulltet</text>
</a>
</g>
<!-- Node1&#45;&gt;Node11 -->
<g id="edge20" class="edge"><title>Node1&#45;&gt;Node11</title>
<path fill="none" stroke="midnightblue" d="M121.081,-200.49C144.629,-195.343 173.171,-189.105 197.928,-183.693"/>
<polygon fill="midnightblue" stroke="midnightblue" points="198.901,-187.063 207.923,-181.509 197.406,-180.225 198.901,-187.063"/>
</g>
<!-- Node12 -->
<g id="node23" class="node"><title>Node12</title>
<a xlink:href="classtetgenmesh.xhtml#a473568d02dfc5c262325ed18b1f9af3a" target="_top" xlink:title="tetgenmesh::fnextself">
<polygon fill="none" stroke="black" points="200.5,-120.5 200.5,-141.5 311.5,-141.5 311.5,-120.5 200.5,-120.5"/>
<text text-anchor="middle" x="256" y="-128.5" font-family="Helvetica,sans-Serif" font-size="10.00">tetgenmesh::fnextself</text>
</a>
</g>
<!-- Node1&#45;&gt;Node12 -->
<g id="edge22" class="edge"><title>Node1&#45;&gt;Node12</title>
<path fill="none" stroke="midnightblue" d="M89.3767,-200.351C110.185,-187.21 147.546,-164.905 182,-151 187.831,-148.647 194.031,-146.481 200.264,-144.513"/>
<polygon fill="midnightblue" stroke="midnightblue" points="201.463,-147.808 210.039,-141.586 199.455,-141.102 201.463,-147.808"/>
</g>
<!-- Node13 -->
<g id="node25" class="node"><title>Node13</title>
<a xlink:href="classtetgenmesh.xhtml#a0a12e21d9d363bc5aef59c1b1e51e5f2" target="_top" xlink:title="tetgenmesh::elemindex">
<polygon fill="none" stroke="black" points="197,-80.5 197,-101.5 315,-101.5 315,-80.5 197,-80.5"/>
<text text-anchor="middle" x="256" y="-88.5" font-family="Helvetica,sans-Serif" font-size="10.00">tetgenmesh::elemindex</text>
</a>
</g>
<!-- Node1&#45;&gt;Node13 -->
<g id="edge24" class="edge"><title>Node1&#45;&gt;Node13</title>
<path fill="none" stroke="midnightblue" d="M81.4031,-200.472C98.2623,-180.064 138.354,-135.024 182,-111 185.977,-108.811 190.207,-106.851 194.554,-105.096"/>
<polygon fill="midnightblue" stroke="midnightblue" points="196.006,-108.292 204.2,-101.576 193.606,-101.716 196.006,-108.292"/>
</g>
<!-- Node14 -->
<g id="node27" class="node"><title>Node14</title>
<a xlink:href="classtetgenmesh.xhtml#ab5a2f1e0884a200fc6152ec15c2531d9" target="_top" xlink:title="tetgenmesh::shellmark">
<polygon fill="none" stroke="black" points="198,-40.5 198,-61.5 314,-61.5 314,-40.5 198,-40.5"/>
<text text-anchor="middle" x="256" y="-48.5" font-family="Helvetica,sans-Serif" font-size="10.00">tetgenmesh::shellmark</text>
</a>
</g>
<!-- Node1&#45;&gt;Node14 -->
<g id="edge26" class="edge"><title>Node1&#45;&gt;Node14</title>
<path fill="none" stroke="midnightblue" d="M78.187,-200.323C91.5233,-174.032 129.666,-105.784 182,-71 184.972,-69.0248 188.133,-67.244 191.411,-65.6385"/>
<polygon fill="midnightblue" stroke="midnightblue" points="193.092,-68.7254 200.899,-61.5622 190.329,-62.2939 193.092,-68.7254"/>
</g>
<!-- Node15 -->
<g id="node29" class="node"><title>Node15</title>
<a xlink:href="classtetgenmesh.xhtml#a46fa5fabd0e8e806f7f8beb069732e21" target="_top" xlink:title="tetgenmesh::pointmark">
<polygon fill="none" stroke="black" points="198,-0.5 198,-21.5 314,-21.5 314,-0.5 198,-0.5"/>
<text text-anchor="middle" x="256" y="-8.5" font-family="Helvetica,sans-Serif" font-size="10.00">tetgenmesh::pointmark</text>
</a>
</g>
<!-- Node1&#45;&gt;Node15 -->
<g id="edge28" class="edge"><title>Node1&#45;&gt;Node15</title>
<path fill="none" stroke="midnightblue" d="M76.3556,-200.122C86.6227,-168.703 120.7,-77.1318 182,-31 184.472,-29.1395 187.106,-27.4519 189.851,-25.9213"/>
<polygon fill="midnightblue" stroke="midnightblue" points="191.445,-29.0383 198.938,-21.5471 188.409,-22.7311 191.445,-29.0383"/>
</g>
<!-- Node3 -->
<g id="node5" class="node"><title>Node3</title>
<a xlink:href="classtetgenmesh.xhtml#ade805f03ec7ca1b4623c8148fb915278" target="_top" xlink:title="tetgenmesh::freememory">
<polygon fill="none" stroke="black" points="367.5,-412.5 367.5,-433.5 492.5,-433.5 492.5,-412.5 367.5,-412.5"/>
<text text-anchor="middle" x="430" y="-420.5" font-family="Helvetica,sans-Serif" font-size="10.00">tetgenmesh::freememory</text>
</a>
</g>
<!-- Node2&#45;&gt;Node3 -->
<g id="edge4" class="edge"><title>Node2&#45;&gt;Node3</title>
<path fill="none" stroke="midnightblue" d="M298.121,-423C315.845,-423 336.992,-423 357.105,-423"/>
<polygon fill="midnightblue" stroke="midnightblue" points="357.19,-426.5 367.19,-423 357.19,-419.5 357.19,-426.5"/>
</g>
<!-- Node6 -->
<g id="node11" class="node"><title>Node6</title>
<a xlink:href="classtetgenmesh_1_1memorypool.xhtml#a151fe73459d0fa9a7262d0030fecf291" target="_top" xlink:title="tetgenmesh::memorypool\l::traverse">
<polygon fill="none" stroke="black" points="366.5,-314 366.5,-348 493.5,-348 493.5,-314 366.5,-314"/>
<text text-anchor="start" x="374.5" y="-335" font-family="Helvetica,sans-Serif" font-size="10.00">tetgenmesh::memorypool</text>
<text text-anchor="middle" x="430" y="-322" font-family="Helvetica,sans-Serif" font-size="10.00">::traverse</text>
</a>
</g>
<!-- Node5&#45;&gt;Node6 -->
<g id="edge10" class="edge"><title>Node5&#45;&gt;Node6</title>
<path fill="none" stroke="midnightblue" d="M330.044,-331C338.753,-331 347.639,-331 356.343,-331"/>
<polygon fill="midnightblue" stroke="midnightblue" points="356.455,-334.5 366.455,-331 356.455,-327.5 356.455,-334.5"/>
</g>
<!-- Node10 -->
<g id="node19" class="node"><title>Node10</title>
<a xlink:href="classtetgenmesh.xhtml#a809cfdec35ae9a52670e045823a302c0" target="_top" xlink:title="tetgenmesh::decode">
<polygon fill="none" stroke="black" points="377.5,-200.5 377.5,-221.5 482.5,-221.5 482.5,-200.5 377.5,-200.5"/>
<text text-anchor="middle" x="430" y="-208.5" font-family="Helvetica,sans-Serif" font-size="10.00">tetgenmesh::decode</text>
</a>
</g>
<!-- Node9&#45;&gt;Node10 -->
<g id="edge18" class="edge"><title>Node9&#45;&gt;Node10</title>
<path fill="none" stroke="midnightblue" d="M312.974,-211C330.29,-211 349.415,-211 367.098,-211"/>
<polygon fill="midnightblue" stroke="midnightblue" points="367.318,-214.5 377.318,-211 367.318,-207.5 367.318,-214.5"/>
</g>
</g>
</svg>
        <g id="navigator" transform="translate(0 0)" fill="#404254">
                <rect fill="#f2f5e9" fill-opacity="0.5" stroke="#606060" stroke-width=".5" x="0" y="0" width="60" height="60"/>
                <use id="zoomplus" xlink:href="#zoomPlus" x="17" y="9" onmousedown="handleZoom(evt,'in')"/>
                <use id="zoomminus" xlink:href="#zoomMin" x="42" y="9" onmousedown="handleZoom(evt,'out')"/>
                <use id="reset" xlink:href="#resetDef" x="30" y="36" onmousedown="handleReset()"/>
                <g id="arrowUp" xlink:href="#dirArrow" transform="translate(30 24)" onmousedown="handlePan(0,-1)">
                  <use xlink:href="#rim" fill="#404040">
                        <set attributeName="fill" to="#808080" begin="arrowUp.mouseover" end="arrowUp.mouseout"/>
                  </use>
                  <path fill="none" stroke="white" stroke-width="1.5" d="M0,-3.0v7 M-2.5,-0.5L0,-3.0L2.5,-0.5"/>
                </g>
                <g id="arrowRight" xlink:href="#dirArrow" transform="rotate(90) translate(36 -43)" onmousedown="handlePan(1,0)">
                  <use xlink:href="#rim" fill="#404040">
                        <set attributeName="fill" to="#808080" begin="arrowRight.mouseover" end="arrowRight.mouseout"/>
                  </use>
                  <path fill="none" stroke="white" stroke-width="1.5" d="M0,-3.0v7 M-2.5,-0.5L0,-3.0L2.5,-0.5"/>
                </g>
                <g id="arrowDown" xlink:href="#dirArrow" transform="rotate(180) translate(-30 -48)" onmousedown="handlePan(0,1)">
                  <use xlink:href="#rim" fill="#404040">
                        <set attributeName="fill" to="#808080" begin="arrowDown.mouseover" end="arrowDown.mouseout"/>
                  </use>
                  <path fill="none" stroke="white" stroke-width="1.5" d="M0,-3.0v7 M-2.5,-0.5L0,-3.0L2.5,-0.5"/>
                </g>
                <g id="arrowLeft" xlink:href="#dirArrow" transform="rotate(270) translate(-36 17)" onmousedown="handlePan(-1,0)">
                  <use xlink:href="#rim" fill="#404040">
                        <set attributeName="fill" to="#808080" begin="arrowLeft.mouseover" end="arrowLeft.mouseout"/>
                  </use>
                  <path fill="none" stroke="white" stroke-width="1.5" d="M0,-3.0v7 M-2.5,-0.5L0,-3.0L2.5,-0.5"/>
                </g>
        </g>
        <svg viewBox="0 0 15 15" width="100%" height="30px" preserveAspectRatio="xMaxYMin meet">
         <g id="arrow_out" transform="scale(0.3 0.3)">
          <a xlink:href="classtetgenmesh_a9074a5c187967e3d4a7a7851b4900c09_cgraph_org.svg" target="_base">
           <rect id="button" ry="5" rx="5" y="6" x="6" height="38" width="38"
                fill="#f2f5e9" fill-opacity="0.5" stroke="#606060" stroke-width="1.0"/>
           <path id="arrow"
             d="M 11.500037,31.436501 C 11.940474,20.09759 22.043105,11.32322 32.158766,21.979434 L 37.068811,17.246167 C 37.068811,17.246167 37.088388,32 37.088388,32 L 22.160133,31.978069 C 22.160133,31.978069 26.997745,27.140456 26.997745,27.140456 C 18.528582,18.264221 13.291696,25.230495 11.500037,31.436501 z"
             style="fill:#404040;"/>
          </a>
         </g>
        </svg>
</svg>
