<?xml version="1.0" encoding="UTF-8" standalone="no"?>
<!DOCTYPE svg PUBLIC "-//W3C//DTD SVG 1.1//EN"
 "http://www.w3.org/Graphics/SVG/1.1/DTD/svg11.dtd">
<!-- Generated by graphviz version 2.26.3 (20100126.1600)
 -->
<!-- Title: Vector3D::getAngleTo Pages: 1 -->
<svg width="748pt" height="76pt"
 viewBox="0.00 0.00 748.00 76.00" xmlns="http://www.w3.org/2000/svg" xmlns:xlink="http://www.w3.org/1999/xlink">
<g id="graph1" class="graph" transform="scale(1 1) rotate(0) translate(4 72)">
<title>Vector3D::getAngleTo</title>
<!-- Node1 -->
<g id="node1" class="node"><title>Node1</title>
<polygon fill="#bfbfbf" stroke="black" points="0.5,-26.5 0.5,-47.5 113.5,-47.5 113.5,-26.5 0.5,-26.5"/>
<text text-anchor="middle" x="57" y="-34.5" font-family="Helvetica,sans-Serif" font-size="10.00">Vector3D::getAngleTo</text>
</g>
<!-- Node2 -->
<g id="node3" class="node"><title>Node2</title>
<a xlink:href="classInterpolator.xhtml#ad59ac6ed3822e08a67ac7d1ee88a5bd2" target="_top" xlink:title="Interpolator::interpolateTri">
<polygon fill="none" stroke="black" points="152,-46.5 152,-67.5 280,-67.5 280,-46.5 152,-46.5"/>
<text text-anchor="middle" x="216" y="-54.5" font-family="Helvetica,sans-Serif" font-size="10.00">Interpolator::interpolateTri</text>
</a>
</g>
<!-- Node1&#45;&gt;Node2 -->
<g id="edge2" class="edge"><title>Node1&#45;&gt;Node2</title>
<path fill="none" stroke="midnightblue" d="M123.54,-45.3698C132.9,-46.5471 142.506,-47.7555 151.821,-48.9272"/>
<polygon fill="midnightblue" stroke="midnightblue" points="123.864,-41.883 113.505,-44.1076 122.99,-48.8283 123.864,-41.883"/>
</g>
<!-- Node3 -->
<g id="node5" class="node"><title>Node3</title>
<a xlink:href="classInterpolator.xhtml#a30e714ca6dff9b5745d029f95af1420a" target="_top" xlink:title="Interpolator::interpolateTet">
<polygon fill="none" stroke="black" points="150.5,-6.5 150.5,-27.5 281.5,-27.5 281.5,-6.5 150.5,-6.5"/>
<text text-anchor="middle" x="216" y="-14.5" font-family="Helvetica,sans-Serif" font-size="10.00">Interpolator::interpolateTet</text>
</a>
</g>
<!-- Node1&#45;&gt;Node3 -->
<g id="edge4" class="edge"><title>Node1&#45;&gt;Node3</title>
<path fill="none" stroke="midnightblue" d="M123.462,-28.64C132.388,-27.5172 141.54,-26.366 150.45,-25.2453"/>
<polygon fill="midnightblue" stroke="midnightblue" points="122.99,-25.1717 113.505,-29.8924 123.864,-32.117 122.99,-25.1717"/>
</g>
<!-- Node4 -->
<g id="node7" class="node"><title>Node4</title>
<a xlink:href="namespaceUtils.xhtml#a6a0ae18a42e2d206bc1b43da27820fe2" target="_top" xlink:title="Utils::getPointValue">
<polygon fill="none" stroke="black" points="318,-6.5 318,-27.5 422,-27.5 422,-6.5 318,-6.5"/>
<text text-anchor="middle" x="370" y="-14.5" font-family="Helvetica,sans-Serif" font-size="10.00">Utils::getPointValue</text>
</a>
</g>
<!-- Node3&#45;&gt;Node4 -->
<g id="edge6" class="edge"><title>Node3&#45;&gt;Node4</title>
<path fill="none" stroke="midnightblue" d="M292.028,-17C300.807,-17 309.603,-17 317.96,-17"/>
<polygon fill="midnightblue" stroke="midnightblue" points="291.757,-13.5001 281.757,-17 291.757,-20.5001 291.757,-13.5001"/>
</g>
<!-- Node5 -->
<g id="node9" class="node"><title>Node5</title>
<a xlink:href="classAnalyzer.xhtml#a8f73ee0aa71ae395a74b43dc76b35458" target="_top" xlink:title="Analyzer::analyzePoint">
<polygon fill="none" stroke="black" points="458.5,-6.5 458.5,-27.5 575.5,-27.5 575.5,-6.5 458.5,-6.5"/>
<text text-anchor="middle" x="517" y="-14.5" font-family="Helvetica,sans-Serif" font-size="10.00">Analyzer::analyzePoint</text>
</a>
</g>
<!-- Node4&#45;&gt;Node5 -->
<g id="edge8" class="edge"><title>Node4&#45;&gt;Node5</title>
<path fill="none" stroke="midnightblue" d="M432.285,-17C440.951,-17 449.829,-17 458.423,-17"/>
<polygon fill="midnightblue" stroke="midnightblue" points="432.241,-13.5001 422.241,-17 432.241,-20.5001 432.241,-13.5001"/>
</g>
<!-- Node6 -->
<g id="node11" class="node"><title>Node6</title>
<a xlink:href="classGUIAnalyzePointWindow.xhtml#aa84ea9958e8b41423f01316d01ba5151" target="_top" xlink:title="GUIAnalyzePointWindow\l::analyzePoint">
<polygon fill="none" stroke="black" points="612,-0 612,-34 740,-34 740,-0 612,-0"/>
<text text-anchor="start" x="620" y="-21" font-family="Helvetica,sans-Serif" font-size="10.00">GUIAnalyzePointWindow</text>
<text text-anchor="middle" x="676" y="-8" font-family="Helvetica,sans-Serif" font-size="10.00">::analyzePoint</text>
</a>
</g>
<!-- Node5&#45;&gt;Node6 -->
<g id="edge10" class="edge"><title>Node5&#45;&gt;Node6</title>
<path fill="none" stroke="midnightblue" d="M585.811,-17C594.466,-17 603.294,-17 611.874,-17"/>
<polygon fill="midnightblue" stroke="midnightblue" points="585.754,-13.5001 575.754,-17 585.754,-20.5001 585.754,-13.5001"/>
</g>
</g>
</svg>
