<?xml version="1.0" encoding="UTF-8" standalone="no"?>
<!DOCTYPE svg PUBLIC "-//W3C//DTD SVG 1.1//EN"
 "http://www.w3.org/Graphics/SVG/1.1/DTD/svg11.dtd">
<!-- Generated by graphviz version 2.26.3 (20100126.1600)
 -->
<!-- Title: GUICutRenderWindow::OnSCutPropsChanged_spin Pages: 1 -->
<svg width="502pt" height="162pt"
 viewBox="0.00 0.00 502.00 162.00" xmlns="http://www.w3.org/2000/svg" xmlns:xlink="http://www.w3.org/1999/xlink">
<g id="graph1" class="graph" transform="scale(1 1) rotate(0) translate(4 158)">
<title>GUICutRenderWindow::OnSCutPropsChanged_spin</title>
<!-- Node1 -->
<g id="node1" class="node"><title>Node1</title>
<polygon fill="#bfbfbf" stroke="black" points="0,-66 0,-100 146,-100 146,-66 0,-66"/>
<text text-anchor="start" x="8" y="-87" font-family="Helvetica,sans-Serif" font-size="10.00">GUICutRenderWindow</text>
<text text-anchor="middle" x="73" y="-74" font-family="Helvetica,sans-Serif" font-size="10.00">::OnSCutPropsChanged_spin</text>
</g>
<!-- Node2 -->
<g id="node3" class="node"><title>Node2</title>
<a xlink:href="classGUICutRenderWindow.xhtml#a525891e3dde6ffd445bfed747dcee970" target="_top" xlink:title="Aktualisiert die Visualisierung der Schnittebene im Hauptfenster. ">
<polygon fill="none" stroke="black" points="182.5,-66 182.5,-100 299.5,-100 299.5,-66 182.5,-66"/>
<text text-anchor="start" x="190.5" y="-87" font-family="Helvetica,sans-Serif" font-size="10.00">GUICutRenderWindow</text>
<text text-anchor="middle" x="241" y="-74" font-family="Helvetica,sans-Serif" font-size="10.00">::refreshVisualisation</text>
</a>
</g>
<!-- Node1&#45;&gt;Node2 -->
<g id="edge2" class="edge"><title>Node1&#45;&gt;Node2</title>
<path fill="none" stroke="midnightblue" d="M146.199,-83C154.905,-83 163.77,-83 172.409,-83"/>
<polygon fill="midnightblue" stroke="midnightblue" points="172.424,-86.5001 182.424,-83 172.424,-79.5001 172.424,-86.5001"/>
</g>
<!-- Node3 -->
<g id="node5" class="node"><title>Node3</title>
<a xlink:href="classGUIMainWindow.xhtml#a52e68b866f7835c3691fd8fad8ba910d" target="_top" xlink:title="Gibt die Zeichenfläche des 3D&#45;Fensters zurück. ">
<polygon fill="none" stroke="black" points="336.5,-132.5 336.5,-153.5 493.5,-153.5 493.5,-132.5 336.5,-132.5"/>
<text text-anchor="middle" x="415" y="-140.5" font-family="Helvetica,sans-Serif" font-size="10.00">GUIMainWindow::getGLCanvas</text>
</a>
</g>
<!-- Node2&#45;&gt;Node3 -->
<g id="edge4" class="edge"><title>Node2&#45;&gt;Node3</title>
<path fill="none" stroke="midnightblue" d="M277.952,-100.087C295.333,-107.727 316.486,-116.463 336,-123 343.182,-125.406 350.816,-127.68 358.398,-129.773"/>
<polygon fill="midnightblue" stroke="midnightblue" points="357.728,-133.217 368.293,-132.415 359.534,-126.454 357.728,-133.217"/>
</g>
<!-- Node4 -->
<g id="node7" class="node"><title>Node4</title>
<a xlink:href="classGUIGLCanvas.xhtml#a57085ce831e09e627fe93f17a6c79dfa" target="_top" xlink:title="Gibt den Renderer der Zeichenfläche zurück. ">
<polygon fill="none" stroke="black" points="345,-92.5 345,-113.5 485,-113.5 485,-92.5 345,-92.5"/>
<text text-anchor="middle" x="415" y="-100.5" font-family="Helvetica,sans-Serif" font-size="10.00">GUIGLCanvas::getRenderer</text>
</a>
</g>
<!-- Node2&#45;&gt;Node4 -->
<g id="edge6" class="edge"><title>Node2&#45;&gt;Node4</title>
<path fill="none" stroke="midnightblue" d="M299.908,-89.7711C311.042,-91.0508 322.862,-92.4094 334.526,-93.7501"/>
<polygon fill="midnightblue" stroke="midnightblue" points="334.379,-97.2562 344.713,-94.9211 335.179,-90.302 334.379,-97.2562"/>
</g>
<!-- Node5 -->
<g id="node9" class="node"><title>Node5</title>
<a xlink:href="classRenderer.xhtml#a566b30ae615b9cd74d481f360e0a567e" target="_top" xlink:title="Setzt die Eigenschaften einer 2D&#45;Temperaturverteilung, welche teilweise zur Visualisierung der Ebene ...">
<polygon fill="none" stroke="black" points="345,-52.5 345,-73.5 485,-73.5 485,-52.5 345,-52.5"/>
<text text-anchor="middle" x="415" y="-60.5" font-family="Helvetica,sans-Serif" font-size="10.00">Renderer::setCutRenderInfo</text>
</a>
</g>
<!-- Node2&#45;&gt;Node5 -->
<g id="edge8" class="edge"><title>Node2&#45;&gt;Node5</title>
<path fill="none" stroke="midnightblue" d="M299.908,-76.2289C311.042,-74.9492 322.862,-73.5906 334.526,-72.2499"/>
<polygon fill="midnightblue" stroke="midnightblue" points="335.179,-75.698 344.713,-71.0789 334.379,-68.7438 335.179,-75.698"/>
</g>
<!-- Node6 -->
<g id="node11" class="node"><title>Node6</title>
<a xlink:href="classGUICutRenderWindow.xhtml#a01c347a6ff7868df925e46e48fc1a289" target="_top" xlink:title="Gibt die aktuell eingestellten Eigenschaften für die zweidimensionale Temperaturverteilung zurück...">
<polygon fill="none" stroke="black" points="351,-0 351,-34 479,-34 479,-0 351,-0"/>
<text text-anchor="start" x="359" y="-21" font-family="Helvetica,sans-Serif" font-size="10.00">GUICutRenderWindow</text>
<text text-anchor="middle" x="415" y="-8" font-family="Helvetica,sans-Serif" font-size="10.00">::getCutRenderProperties</text>
</a>
</g>
<!-- Node2&#45;&gt;Node6 -->
<g id="edge10" class="edge"><title>Node2&#45;&gt;Node6</title>
<path fill="none" stroke="midnightblue" d="M279.543,-65.9401C296.7,-58.5622 317.23,-50.0275 336,-43 341.071,-41.1015 346.351,-39.2013 351.671,-37.3407"/>
<polygon fill="midnightblue" stroke="midnightblue" points="352.936,-40.607 361.252,-34.0431 350.658,-33.988 352.936,-40.607"/>
</g>
</g>
</svg>
