<?xml version="1.0" encoding="UTF-8" standalone="no"?>
<!DOCTYPE svg PUBLIC "-//W3C//DTD SVG 1.1//EN"
 "http://www.w3.org/Graphics/SVG/1.1/DTD/svg11.dtd">
<!-- Generated by graphviz version 2.26.3 (20100126.1600)
 -->
<!-- Title: tetgenmesh::insertvertexflags Pages: 1 -->
<svg width="218pt" height="102pt"
 viewBox="0.00 0.00 218.00 102.00" xmlns="http://www.w3.org/2000/svg" xmlns:xlink="http://www.w3.org/1999/xlink">
<g id="graph1" class="graph" transform="scale(1 1) rotate(0) translate(4 98)">
<title>tetgenmesh::insertvertexflags</title>
<!-- Node1 -->
<g id="node1" class="node"><title>Node1</title>
<polygon fill="#bfbfbf" stroke="black" points="30,-0.5 30,-21.5 176,-21.5 176,-0.5 30,-0.5"/>
<text text-anchor="middle" x="103" y="-8.5" font-family="Helvetica,sans-Serif" font-size="10.00">tetgenmesh::insertvertexflags</text>
</g>
<!-- Node2 -->
<g id="node2" class="node"><title>Node2</title>
<a xlink:href="classtetgenmesh_1_1face.xhtml" target="_top" xlink:title="tetgenmesh::face">
<polygon fill="none" stroke="black" points="0,-72.5 0,-93.5 92,-93.5 92,-72.5 0,-72.5"/>
<text text-anchor="middle" x="46" y="-80.5" font-family="Helvetica,sans-Serif" font-size="10.00">tetgenmesh::face</text>
</a>
</g>
<!-- Node2&#45;&gt;Node1 -->
<g id="edge2" class="edge"><title>Node2&#45;&gt;Node1</title>
<path fill="none" stroke="#9a32cd" stroke-dasharray="5,2" d="M60.8848,-64.1981C71.6112,-50.649 85.701,-32.8514 94.5549,-21.6674"/>
<polygon fill="#9a32cd" stroke="#9a32cd" points="57.8734,-62.3632 54.4105,-72.3762 63.3618,-66.7081 57.8734,-62.3632"/>
<text text-anchor="middle" x="99" y="-44.5" font-family="Helvetica,sans-Serif" font-size="10.00"> refinesh</text>
</g>
<!-- Node3 -->
<g id="node4" class="node"><title>Node3</title>
<a xlink:href="classtetgenmesh_1_1triface.xhtml" target="_top" xlink:title="tetgenmesh::triface">
<polygon fill="none" stroke="black" points="109.5,-72.5 109.5,-93.5 210.5,-93.5 210.5,-72.5 109.5,-72.5"/>
<text text-anchor="middle" x="160" y="-80.5" font-family="Helvetica,sans-Serif" font-size="10.00">tetgenmesh::triface</text>
</a>
</g>
<!-- Node3&#45;&gt;Node1 -->
<g id="edge4" class="edge"><title>Node3&#45;&gt;Node1</title>
<path fill="none" stroke="#9a32cd" stroke-dasharray="5,2" d="M145.115,-64.1981C134.389,-50.649 120.299,-32.8514 111.445,-21.6674"/>
<polygon fill="#9a32cd" stroke="#9a32cd" points="142.638,-66.7081 151.589,-72.3762 148.127,-62.3632 142.638,-66.7081"/>
<text text-anchor="middle" x="155.5" y="-44.5" font-family="Helvetica,sans-Serif" font-size="10.00"> refinetet</text>
</g>
</g>
</svg>
