<?xml version="1.0" encoding="UTF-8" standalone="no"?>
<!DOCTYPE svg PUBLIC "-//W3C//DTD SVG 1.1//EN"
 "http://www.w3.org/Graphics/SVG/1.1/DTD/svg11.dtd">
<!-- Generated by graphviz version 2.26.3 (20100126.1600)
 -->
<!-- Title: tetgenmesh::refineregion Pages: 1 -->
<!--zoomable 3492 -->
<svg id="main" version="1.1" xmlns="http://www.w3.org/2000/svg" xmlns:xlink="http://www.w3.org/1999/xlink" xml:space="preserve" onload="init(evt)">
<style type="text/css"><![CDATA[
.edge:hover path { stroke: red; }
.edge:hover polygon { stroke: red; fill: red; }
]]></style>
<script type="text/javascript"><![CDATA[
var edges = document.getElementsByTagName('g');
if (edges && edges.length) {
  for (var i=0;i<edges.length;i++) {
    if (edges[i].id.substr(0,4)=='edge') {
      edges[i].setAttribute('class','edge');
    }
  }
}
]]></script>
        <defs>
                <circle id="rim" cx="0" cy="0" r="7"/>
                <circle id="rim2" cx="0" cy="0" r="3.5"/>
                <g id="zoomPlus">
                        <use xlink:href="#rim" fill="#404040">
                                <set attributeName="fill" to="#808080" begin="zoomplus.mouseover" end="zoomplus.mouseout"/>
                        </use>
                        <path d="M-4,0h8M0,-4v8" fill="none" stroke="white" stroke-width="1.5" pointer-events="none"/>
                </g>
                <g id="zoomMin">
                        <use xlink:href="#rim" fill="#404040">
                                <set attributeName="fill" to="#808080" begin="zoomminus.mouseover" end="zoomminus.mouseout"/>
                        </use>
                        <path d="M-4,0h8" fill="none" stroke="white" stroke-width="1.5" pointer-events="none"/>
                </g>
                <g id="dirArrow">
                        <path fill="none" stroke="white" stroke-width="1.5" d="M0,-3.0v7 M-2.5,-0.5L0,-3.0L2.5,-0.5"/>
                </g>
               <g id="resetDef">
                       <use xlink:href="#rim2" fill="#404040">
                               <set attributeName="fill" to="#808080" begin="reset.mouseover" end="reset.mouseout"/>
                       </use>
               </g>
        </defs>

<script type="text/javascript">
var viewWidth = 1210;
var viewHeight = 3492;
var sectionId = 'dynsection-333';
</script>
<script xlink:href="svgpan.js"/>
<svg id="graph" class="graph">
<g id="viewport">
<title>tetgenmesh::refineregion</title>
<!-- Node1 -->
<g id="node1" class="node"><title>Node1</title>
<polygon fill="#bfbfbf" stroke="black" points="0,-3040.84 0,-3061.84 124,-3061.84 124,-3040.84 0,-3040.84"/>
<text text-anchor="middle" x="62" y="-3048.84" font-family="Helvetica,sans-Serif" font-size="10.00">tetgenmesh::refineregion</text>
</g>
<!-- Node2 -->
<g id="node3" class="node"><title>Node2</title>
<a xlink:href="classtetgenmesh.xhtml#a46fa5fabd0e8e806f7f8beb069732e21" target="_top" xlink:title="tetgenmesh::pointmark">
<polygon fill="none" stroke="black" points="908,-2174.84 908,-2195.84 1024,-2195.84 1024,-2174.84 908,-2174.84"/>
<text text-anchor="middle" x="966" y="-2182.84" font-family="Helvetica,sans-Serif" font-size="10.00">tetgenmesh::pointmark</text>
</a>
</g>
<!-- Node1&#45;&gt;Node2 -->
<g id="edge2" class="edge"><title>Node1&#45;&gt;Node2</title>
<path fill="none" stroke="midnightblue" d="M62.1266,-3040.56C63.8952,-2908.4 87.5672,-1600.13 334,-1326.34 355.853,-1302.06 372.334,-1307.34 405,-1307.34 405,-1307.34 405,-1307.34 580,-1307.34 703.875,-1307.34 768.1,-1242.11 858,-1327.34 861.95,-1331.08 947.438,-2032.69 963.434,-2164.22"/>
<polygon fill="midnightblue" stroke="midnightblue" points="960.007,-2165.04 964.688,-2174.54 966.956,-2164.19 960.007,-2165.04"/>
</g>
<!-- Node3 -->
<g id="node5" class="node"><title>Node3</title>
<a xlink:href="classtetgenmesh.xhtml#a55db9a054b722d91a17b82d442f88f4c" target="_top" xlink:title="tetgenmesh::sorg">
<polygon fill="none" stroke="black" points="920,-2963.84 920,-2984.84 1012,-2984.84 1012,-2963.84 920,-2963.84"/>
<text text-anchor="middle" x="966" y="-2971.84" font-family="Helvetica,sans-Serif" font-size="10.00">tetgenmesh::sorg</text>
</a>
</g>
<!-- Node1&#45;&gt;Node3 -->
<g id="edge4" class="edge"><title>Node1&#45;&gt;Node3</title>
<path fill="none" stroke="midnightblue" d="M63.9136,-3061.92C70.8035,-3097.4 97.3317,-3213.81 160,-3284.34 243.154,-3377.92 279.807,-3423.34 405,-3423.34 405,-3423.34 405,-3423.34 580,-3423.34 641.922,-3423.34 813.793,-3447.7 858,-3404.34 923.296,-3340.29 835.52,-3064.66 894,-2994.34 898.403,-2989.04 904.075,-2985.08 910.301,-2982.13"/>
<polygon fill="midnightblue" stroke="midnightblue" points="911.664,-2985.36 919.736,-2978.5 909.146,-2978.83 911.664,-2985.36"/>
</g>
<!-- Node4 -->
<g id="node7" class="node"><title>Node4</title>
<a xlink:href="classtetgenmesh.xhtml#aa6017928ea3dc0b8ba39e7f24ea312b2" target="_top" xlink:title="tetgenmesh::sdest">
<polygon fill="none" stroke="black" points="917,-2923.84 917,-2944.84 1015,-2944.84 1015,-2923.84 917,-2923.84"/>
<text text-anchor="middle" x="966" y="-2931.84" font-family="Helvetica,sans-Serif" font-size="10.00">tetgenmesh::sdest</text>
</a>
</g>
<!-- Node1&#45;&gt;Node4 -->
<g id="edge6" class="edge"><title>Node1&#45;&gt;Node4</title>
<path fill="none" stroke="midnightblue" d="M66.2229,-3062.09C77.2075,-3088.51 109.387,-3156.76 160,-3188.34 253.666,-3246.78 294.597,-3229.34 405,-3229.34 405,-3229.34 405,-3229.34 580,-3229.34 641.922,-3229.34 812.678,-3252.53 858,-3210.34 942.095,-3132.05 818.258,-3040.73 894,-2954.34 897.742,-2950.07 902.307,-2946.68 907.306,-2943.98"/>
<polygon fill="midnightblue" stroke="midnightblue" points="908.944,-2947.09 916.687,-2939.85 906.124,-2940.68 908.944,-2947.09"/>
</g>
<!-- Node5 -->
<g id="node9" class="node"><title>Node5</title>
<a xlink:href="classtetgenmesh.xhtml#a273687e8175a97ef3d97e4d3a5d03d3c" target="_top" xlink:title="tetgenmesh::sapex">
<polygon fill="none" stroke="black" points="916,-3003.84 916,-3024.84 1016,-3024.84 1016,-3003.84 916,-3003.84"/>
<text text-anchor="middle" x="966" y="-3011.84" font-family="Helvetica,sans-Serif" font-size="10.00">tetgenmesh::sapex</text>
</a>
</g>
<!-- Node1&#45;&gt;Node5 -->
<g id="edge8" class="edge"><title>Node1&#45;&gt;Node5</title>
<path fill="none" stroke="midnightblue" d="M63.0757,-3061.96C69.0526,-3118.75 100.09,-3385.85 160,-3437.34 242.979,-3508.65 295.59,-3461.34 405,-3461.34 405,-3461.34 405,-3461.34 580,-3461.34 704.015,-3461.34 769.667,-3524.38 858,-3437.34 914.636,-3381.53 858.624,-3152.55 894,-3081.34 904.32,-3060.56 923.961,-3042.97 940.125,-3031.03"/>
<polygon fill="midnightblue" stroke="midnightblue" points="942.519,-3033.63 948.666,-3025 938.48,-3027.91 942.519,-3033.63"/>
</g>
<!-- Node6 -->
<g id="node11" class="node"><title>Node6</title>
<a xlink:href="classtetgenmesh.xhtml#ac6115b981e63664fe06c4a1d4b541737" target="_top" xlink:title="tetgenmesh::makepoint">
<polygon fill="none" stroke="black" points="520.5,-3139.84 520.5,-3160.84 639.5,-3160.84 639.5,-3139.84 520.5,-3139.84"/>
<text text-anchor="middle" x="580" y="-3147.84" font-family="Helvetica,sans-Serif" font-size="10.00">tetgenmesh::makepoint</text>
</a>
</g>
<!-- Node1&#45;&gt;Node6 -->
<g id="edge10" class="edge"><title>Node1&#45;&gt;Node6</title>
<path fill="none" stroke="midnightblue" d="M71.8932,-3062.11C88.2935,-3079.13 122.992,-3111.7 160,-3125.34 277.069,-3168.48 424.891,-3165.18 510.312,-3158.21"/>
<polygon fill="midnightblue" stroke="midnightblue" points="510.749,-3161.68 520.414,-3157.34 510.152,-3154.71 510.749,-3161.68"/>
</g>
<!-- Node14 -->
<g id="node27" class="node"><title>Node14</title>
<a xlink:href="classtetgenmesh.xhtml#a08a487daca1979751e3d4e536182cbc3" target="_top" xlink:title="tetgenmesh::point2tetorg">
<polygon fill="none" stroke="black" points="708.5,-1219.84 708.5,-1240.84 833.5,-1240.84 833.5,-1219.84 708.5,-1219.84"/>
<text text-anchor="middle" x="771" y="-1227.84" font-family="Helvetica,sans-Serif" font-size="10.00">tetgenmesh::point2tetorg</text>
</a>
</g>
<!-- Node1&#45;&gt;Node14 -->
<g id="edge26" class="edge"><title>Node1&#45;&gt;Node14</title>
<path fill="none" stroke="midnightblue" d="M62.2016,-3040.56C64.9388,-2896.71 95.6436,-1360.8 160,-1293.34 309.695,-1136.43 607.128,-1189.05 723.114,-1217.33"/>
<polygon fill="midnightblue" stroke="midnightblue" points="722.561,-1220.8 733.111,-1219.82 724.252,-1214.01 722.561,-1220.8"/>
</g>
<!-- Node17 -->
<g id="node33" class="node"><title>Node17</title>
<a xlink:href="classtetgenmesh.xhtml#a9c967ef25cfd6e06d6b9301302be3f70" target="_top" xlink:title="tetgenmesh::insertpoint_cdt">
<polygon fill="none" stroke="black" points="160.5,-2560.84 160.5,-2581.84 297.5,-2581.84 297.5,-2560.84 160.5,-2560.84"/>
<text text-anchor="middle" x="229" y="-2568.84" font-family="Helvetica,sans-Serif" font-size="10.00">tetgenmesh::insertpoint_cdt</text>
</a>
</g>
<!-- Node1&#45;&gt;Node17 -->
<g id="edge32" class="edge"><title>Node1&#45;&gt;Node17</title>
<path fill="none" stroke="midnightblue" d="M62.9004,-3040.78C68.3503,-2979.18 98.7569,-2666.49 160,-2596.34 163.234,-2592.63 167.061,-2589.48 171.228,-2586.79"/>
<polygon fill="midnightblue" stroke="midnightblue" points="173.081,-2589.77 180.181,-2581.9 169.727,-2583.62 173.081,-2589.77"/>
</g>
<!-- Node20 -->
<g id="node43" class="node"><title>Node20</title>
<a xlink:href="classtetgenmesh.xhtml#a473568d02dfc5c262325ed18b1f9af3a" target="_top" xlink:title="tetgenmesh::fnextself">
<polygon fill="none" stroke="black" points="910.5,-1084.84 910.5,-1105.84 1021.5,-1105.84 1021.5,-1084.84 910.5,-1084.84"/>
<text text-anchor="middle" x="966" y="-1092.84" font-family="Helvetica,sans-Serif" font-size="10.00">tetgenmesh::fnextself</text>
</a>
</g>
<!-- Node1&#45;&gt;Node20 -->
<g id="edge302" class="edge"><title>Node1&#45;&gt;Node20</title>
<path fill="none" stroke="midnightblue" d="M62.1749,-3040.43C64.6611,-2888.14 93.8202,-1191.28 160,-1112.34 356.298,-878.178 803.951,-1031.03 931.501,-1081.11"/>
<polygon fill="midnightblue" stroke="midnightblue" points="930.223,-1084.37 940.808,-1084.81 932.806,-1077.86 930.223,-1084.37"/>
</g>
<!-- Node24 -->
<g id="node53" class="node"><title>Node24</title>
<a xlink:href="classtetgenmesh_1_1arraypool.xhtml#a19030126ef81a9ff3c4aca35f0347cdc" target="_top" xlink:title="tetgenmesh::arraypool\l::restart">
<polygon fill="none" stroke="black" points="909.5,-2831.34 909.5,-2865.34 1022.5,-2865.34 1022.5,-2831.34 909.5,-2831.34"/>
<text text-anchor="start" x="917.5" y="-2852.34" font-family="Helvetica,sans-Serif" font-size="10.00">tetgenmesh::arraypool</text>
<text text-anchor="middle" x="966" y="-2839.34" font-family="Helvetica,sans-Serif" font-size="10.00">::restart</text>
</a>
</g>
<!-- Node1&#45;&gt;Node24 -->
<g id="edge262" class="edge"><title>Node1&#45;&gt;Node24</title>
<path fill="none" stroke="midnightblue" d="M119.702,-3061.84C132.923,-3064.11 146.932,-3066.41 160,-3068.34 392.101,-3102.62 449.814,-3118.09 684,-3132.34 761.191,-3137.03 799.661,-3183.1 858,-3132.34 945.341,-3056.34 821.07,-2964.26 894,-2874.34 895.962,-2871.92 898.168,-2869.72 900.558,-2867.73"/>
<polygon fill="midnightblue" stroke="midnightblue" points="903.041,-2870.27 909.298,-2861.72 899.075,-2864.51 903.041,-2870.27"/>
</g>
<!-- Node31 -->
<g id="node70" class="node"><title>Node31</title>
<a xlink:href="classtetgenmesh.xhtml#a08c6f7bbaecd0aa7733b5e797106be24" target="_top" xlink:title="tetgenmesh::sstpivot1">
<polygon fill="none" stroke="black" points="714.5,-2559.84 714.5,-2580.84 827.5,-2580.84 827.5,-2559.84 714.5,-2559.84"/>
<text text-anchor="middle" x="771" y="-2567.84" font-family="Helvetica,sans-Serif" font-size="10.00">tetgenmesh::sstpivot1</text>
</a>
</g>
<!-- Node1&#45;&gt;Node31 -->
<g id="edge264" class="edge"><title>Node1&#45;&gt;Node31</title>
<path fill="none" stroke="midnightblue" d="M67.64,-3040.62C81.2788,-3015.3 118.034,-2950.52 160,-2905.34 295.292,-2759.67 332.515,-2714.82 512,-2629.34 573.509,-2600.04 650.277,-2584.91 704.21,-2577.35"/>
<polygon fill="midnightblue" stroke="midnightblue" points="704.902,-2580.79 714.343,-2575.98 703.965,-2573.85 704.902,-2580.79"/>
</g>
<!-- Node32 -->
<g id="node74" class="node"><title>Node32</title>
<a xlink:href="classtetgenmesh.xhtml#a6a6f8f76c46a4548b4333fabbe4640ba" target="_top" xlink:title="tetgenmesh::sstbond1">
<polygon fill="none" stroke="red" points="714.5,-2599.84 714.5,-2620.84 827.5,-2620.84 827.5,-2599.84 714.5,-2599.84"/>
<text text-anchor="middle" x="771" y="-2607.84" font-family="Helvetica,sans-Serif" font-size="10.00">tetgenmesh::sstbond1</text>
</a>
</g>
<!-- Node1&#45;&gt;Node32 -->
<g id="edge298" class="edge"><title>Node1&#45;&gt;Node32</title>
<path fill="none" stroke="midnightblue" d="M79.1746,-3040.65C173.794,-2981.8 631.356,-2697.2 745.274,-2626.34"/>
<polygon fill="midnightblue" stroke="midnightblue" points="747.409,-2629.13 754.051,-2620.88 743.711,-2623.19 747.409,-2629.13"/>
</g>
<!-- Node33 -->
<g id="node77" class="node"><title>Node33</title>
<a xlink:href="classtetgenmesh.xhtml#a6580d7cb0bf0caf9ebed36ff34c2d79a" target="_top" xlink:title="tetgenmesh::tssbond1">
<polygon fill="none" stroke="red" points="714.5,-2983.84 714.5,-3004.84 827.5,-3004.84 827.5,-2983.84 714.5,-2983.84"/>
<text text-anchor="middle" x="771" y="-2991.84" font-family="Helvetica,sans-Serif" font-size="10.00">tetgenmesh::tssbond1</text>
</a>
</g>
<!-- Node1&#45;&gt;Node33 -->
<g id="edge300" class="edge"><title>Node1&#45;&gt;Node33</title>
<path fill="none" stroke="midnightblue" d="M124.235,-3053.46C205.382,-3055.54 351.642,-3056.92 476,-3045.34 559.41,-3037.57 654.726,-3019.37 713.893,-3006.95"/>
<polygon fill="midnightblue" stroke="midnightblue" points="714.731,-3010.35 723.789,-3004.85 713.281,-3003.5 714.731,-3010.35"/>
</g>
<!-- Node38 -->
<g id="node103" class="node"><title>Node38</title>
<a xlink:href="classtetgenmesh.xhtml#a0ae35b219eb4a0d1e0c14f9759cd6563" target="_top" xlink:title="tetgenmesh::randomnation">
<polygon fill="none" stroke="black" points="900,-1142.84 900,-1163.84 1032,-1163.84 1032,-1142.84 900,-1142.84"/>
<text text-anchor="middle" x="966" y="-1150.84" font-family="Helvetica,sans-Serif" font-size="10.00">tetgenmesh::randomnation</text>
</a>
</g>
<!-- Node1&#45;&gt;Node38 -->
<g id="edge260" class="edge"><title>Node1&#45;&gt;Node38</title>
<path fill="none" stroke="midnightblue" d="M62.183,-3040.5C64.7271,-2892.58 93.9575,-1279.58 160,-1207.34 362.893,-985.398 791.325,-1097.35 925.165,-1139.58"/>
<polygon fill="midnightblue" stroke="midnightblue" points="924.425,-1143.02 935.016,-1142.73 926.558,-1136.35 924.425,-1143.02"/>
</g>
<!-- Node44 -->
<g id="node171" class="node"><title>Node44</title>
<a xlink:href="classtetgenmesh.xhtml#abafc92933f5d33791abeca5eb0a7cc05" target="_top" xlink:title="tetgenmesh::pointdealloc">
<polygon fill="none" stroke="black" points="517.5,-3179.84 517.5,-3200.84 642.5,-3200.84 642.5,-3179.84 517.5,-3179.84"/>
<text text-anchor="middle" x="580" y="-3187.84" font-family="Helvetica,sans-Serif" font-size="10.00">tetgenmesh::pointdealloc</text>
</a>
</g>
<!-- Node1&#45;&gt;Node44 -->
<g id="edge254" class="edge"><title>Node1&#45;&gt;Node44</title>
<path fill="none" stroke="midnightblue" d="M68.4911,-3062.1C82.258,-3083.85 116.701,-3132.76 160,-3154.34 271.362,-3209.84 420.057,-3207.5 507.377,-3199.66"/>
<polygon fill="midnightblue" stroke="midnightblue" points="507.828,-3203.14 517.454,-3198.71 507.169,-3196.17 507.828,-3203.14"/>
</g>
<!-- Node45 -->
<g id="node178" class="node"><title>Node45</title>
<a xlink:href="classtetgenmesh.xhtml#a92560ebc99b4555a560030efa62d2382" target="_top" xlink:title="tetgenmesh::scoutsegment">
<polygon fill="none" stroke="red" points="512.5,-340.837 512.5,-361.837 647.5,-361.837 647.5,-340.837 512.5,-340.837"/>
<text text-anchor="middle" x="580" y="-348.837" font-family="Helvetica,sans-Serif" font-size="10.00">tetgenmesh::scoutsegment</text>
</a>
</g>
<!-- Node1&#45;&gt;Node45 -->
<g id="edge266" class="edge"><title>Node1&#45;&gt;Node45</title>
<path fill="none" stroke="midnightblue" d="M62.1199,-3040.65C63.8822,-2887.81 85.5683,-1144.14 160,-931.337 249.337,-675.918 490.361,-435.564 560.565,-369.288"/>
<polygon fill="midnightblue" stroke="midnightblue" points="563.354,-371.471 568.257,-362.079 558.567,-366.363 563.354,-371.471"/>
</g>
<!-- Node50 -->
<g id="node202" class="node"><title>Node50</title>
<a xlink:href="classtetgenmesh.xhtml#ac06ee6fd9ced44e8e9c5bb520c5c2c7f" target="_top" xlink:title="tetgenmesh::getsteinerptonsegment">
<polygon fill="none" stroke="red" points="684.5,-3257.84 684.5,-3278.84 857.5,-3278.84 857.5,-3257.84 684.5,-3257.84"/>
<text text-anchor="middle" x="771" y="-3265.84" font-family="Helvetica,sans-Serif" font-size="10.00">tetgenmesh::getsteinerptonsegment</text>
</a>
</g>
<!-- Node1&#45;&gt;Node50 -->
<g id="edge304" class="edge"><title>Node1&#45;&gt;Node50</title>
<path fill="none" stroke="midnightblue" d="M63.6851,-3062.13C69.6099,-3095.97 92.8833,-3200.33 160,-3243.34 339.648,-3358.45 613.799,-3308.23 723.351,-3281.32"/>
<polygon fill="midnightblue" stroke="midnightblue" points="724.271,-3284.7 733.122,-3278.88 722.571,-3277.91 724.271,-3284.7"/>
</g>
<!-- Node7 -->
<g id="node13" class="node"><title>Node7</title>
<a xlink:href="classtetgenmesh_1_1memorypool.xhtml#a9631e38a788a91ae067a756232b515ab" target="_top" xlink:title="tetgenmesh::memorypool\l::alloc">
<polygon fill="none" stroke="red" points="902.5,-3196.34 902.5,-3230.34 1029.5,-3230.34 1029.5,-3196.34 902.5,-3196.34"/>
<text text-anchor="start" x="910.5" y="-3217.34" font-family="Helvetica,sans-Serif" font-size="10.00">tetgenmesh::memorypool</text>
<text text-anchor="middle" x="966" y="-3204.34" font-family="Helvetica,sans-Serif" font-size="10.00">::alloc</text>
</a>
</g>
<!-- Node6&#45;&gt;Node7 -->
<g id="edge12" class="edge"><title>Node6&#45;&gt;Node7</title>
<path fill="none" stroke="midnightblue" d="M635.305,-3160.88C640.005,-3163.4 644.348,-3166.51 648,-3170.34 694.719,-3219.33 630.775,-3276.51 684,-3318.34 744.803,-3366.12 786.347,-3347.43 858,-3318.34 897.402,-3302.34 930.325,-3264.3 949.101,-3238.67"/>
<polygon fill="midnightblue" stroke="midnightblue" points="951.965,-3240.68 954.915,-3230.51 946.263,-3236.62 951.965,-3240.68"/>
</g>
<!-- Node8 -->
<g id="node15" class="node"><title>Node8</title>
<a xlink:href="classtetgenmesh.xhtml#adcba3dbce598107f18e9990c733a20ed" target="_top" xlink:title="tetgenmesh::setpoint2tet">
<polygon fill="none" stroke="black" points="708.5,-2289.84 708.5,-2310.84 833.5,-2310.84 833.5,-2289.84 708.5,-2289.84"/>
<text text-anchor="middle" x="771" y="-2297.84" font-family="Helvetica,sans-Serif" font-size="10.00">tetgenmesh::setpoint2tet</text>
</a>
</g>
<!-- Node6&#45;&gt;Node8 -->
<g id="edge14" class="edge"><title>Node6&#45;&gt;Node8</title>
<path fill="none" stroke="midnightblue" d="M581.374,-3139.78C590.918,-3066.84 647.992,-2637.02 684,-2510.34 704.612,-2437.82 742.909,-2356.59 761.019,-2320.03"/>
<polygon fill="midnightblue" stroke="midnightblue" points="764.218,-2321.46 765.56,-2310.95 757.957,-2318.33 764.218,-2321.46"/>
</g>
<!-- Node9 -->
<g id="node17" class="node"><title>Node9</title>
<a xlink:href="classtetgenmesh.xhtml#a1a212c15e5f467b3baf68cd79217ed99" target="_top" xlink:title="tetgenmesh::setpoint2ppt">
<polygon fill="none" stroke="black" points="707.5,-3061.84 707.5,-3082.84 834.5,-3082.84 834.5,-3061.84 707.5,-3061.84"/>
<text text-anchor="middle" x="771" y="-3069.84" font-family="Helvetica,sans-Serif" font-size="10.00">tetgenmesh::setpoint2ppt</text>
</a>
</g>
<!-- Node6&#45;&gt;Node9 -->
<g id="edge16" class="edge"><title>Node6&#45;&gt;Node9</title>
<path fill="none" stroke="midnightblue" d="M595.525,-3139.83C615.274,-3126.9 650.814,-3105.11 684,-3092.34 690.663,-3089.77 697.744,-3087.48 704.878,-3085.46"/>
<polygon fill="midnightblue" stroke="midnightblue" points="705.853,-3088.82 714.605,-3082.85 704.04,-3082.06 705.853,-3088.82"/>
</g>
<!-- Node10 -->
<g id="node19" class="node"><title>Node10</title>
<a xlink:href="classtetgenmesh.xhtml#a7f6bda7c35edc24c58af75365b42398c" target="_top" xlink:title="tetgenmesh::setpoint2sh">
<polygon fill="none" stroke="black" points="904,-3090.84 904,-3111.84 1028,-3111.84 1028,-3090.84 904,-3090.84"/>
<text text-anchor="middle" x="966" y="-3098.84" font-family="Helvetica,sans-Serif" font-size="10.00">tetgenmesh::setpoint2sh</text>
</a>
</g>
<!-- Node6&#45;&gt;Node10 -->
<g id="edge18" class="edge"><title>Node6&#45;&gt;Node10</title>
<path fill="none" stroke="midnightblue" d="M634.748,-3160.93C639.618,-3163.44 644.152,-3166.53 648,-3170.34 686.966,-3208.91 639.933,-3255.71 684,-3288.34 746.151,-3334.36 794.801,-3332.9 858,-3288.34 896.945,-3260.87 870.333,-3228.7 894,-3187.34 908.793,-3161.48 931.615,-3135.82 947.588,-3119.35"/>
<polygon fill="midnightblue" stroke="midnightblue" points="950.272,-3121.62 954.815,-3112.04 945.294,-3116.69 950.272,-3121.62"/>
</g>
<!-- Node11 -->
<g id="node21" class="node"><title>Node11</title>
<a xlink:href="classtetgenmesh.xhtml#a28fee8bde806c0943c547c942d345720" target="_top" xlink:title="tetgenmesh::setpoint2bgmtet">
<polygon fill="none" stroke="black" points="699.5,-3101.84 699.5,-3122.84 842.5,-3122.84 842.5,-3101.84 699.5,-3101.84"/>
<text text-anchor="middle" x="771" y="-3109.84" font-family="Helvetica,sans-Serif" font-size="10.00">tetgenmesh::setpoint2bgmtet</text>
</a>
</g>
<!-- Node6&#45;&gt;Node11 -->
<g id="edge20" class="edge"><title>Node6&#45;&gt;Node11</title>
<path fill="none" stroke="midnightblue" d="M632.951,-3139.8C656.238,-3135.17 683.769,-3129.69 708.094,-3124.85"/>
<polygon fill="midnightblue" stroke="midnightblue" points="708.822,-3128.28 717.946,-3122.89 707.456,-3121.41 708.822,-3128.28"/>
</g>
<!-- Node12 -->
<g id="node23" class="node"><title>Node12</title>
<a xlink:href="classtetgenmesh.xhtml#ad2cce627693ef75e8fc956b0e0743800" target="_top" xlink:title="tetgenmesh::setpointmark">
<polygon fill="none" stroke="black" points="706,-3373.84 706,-3394.84 836,-3394.84 836,-3373.84 706,-3373.84"/>
<text text-anchor="middle" x="771" y="-3381.84" font-family="Helvetica,sans-Serif" font-size="10.00">tetgenmesh::setpointmark</text>
</a>
</g>
<!-- Node6&#45;&gt;Node12 -->
<g id="edge22" class="edge"><title>Node6&#45;&gt;Node12</title>
<path fill="none" stroke="midnightblue" d="M635.832,-3160.87C640.366,-3163.4 644.528,-3166.51 648,-3170.34 705.436,-3233.69 626.367,-3296.17 684,-3359.34 687.773,-3363.47 692.181,-3366.94 696.974,-3369.85"/>
<polygon fill="midnightblue" stroke="midnightblue" points="695.473,-3373.01 705.963,-3374.5 698.689,-3366.8 695.473,-3373.01"/>
</g>
<!-- Node13 -->
<g id="node25" class="node"><title>Node13</title>
<a xlink:href="classtetgenmesh.xhtml#a036752e66b8fcce81d7f983842fcf8d3" target="_top" xlink:title="tetgenmesh::setpointtype">
<polygon fill="none" stroke="black" points="707.5,-3179.84 707.5,-3200.84 834.5,-3200.84 834.5,-3179.84 707.5,-3179.84"/>
<text text-anchor="middle" x="771" y="-3187.84" font-family="Helvetica,sans-Serif" font-size="10.00">tetgenmesh::setpointtype</text>
</a>
</g>
<!-- Node6&#45;&gt;Node13 -->
<g id="edge24" class="edge"><title>Node6&#45;&gt;Node13</title>
<path fill="none" stroke="midnightblue" d="M630.183,-3160.85C654.869,-3166.02 684.815,-3172.29 710.734,-3177.72"/>
<polygon fill="midnightblue" stroke="midnightblue" points="710.316,-3181.2 720.821,-3179.83 711.751,-3174.35 710.316,-3181.2"/>
</g>
<!-- Node15 -->
<g id="node29" class="node"><title>Node15</title>
<a xlink:href="classtetgenmesh.xhtml#a809cfdec35ae9a52670e045823a302c0" target="_top" xlink:title="tetgenmesh::decode">
<polygon fill="none" stroke="black" points="913.5,-1563.84 913.5,-1584.84 1018.5,-1584.84 1018.5,-1563.84 913.5,-1563.84"/>
<text text-anchor="middle" x="966" y="-1571.84" font-family="Helvetica,sans-Serif" font-size="10.00">tetgenmesh::decode</text>
</a>
</g>
<!-- Node14&#45;&gt;Node15 -->
<g id="edge28" class="edge"><title>Node14&#45;&gt;Node15</title>
<path fill="none" stroke="midnightblue" d="M833.667,-1238.84C842.898,-1242.59 851.479,-1247.89 858,-1255.34 929.911,-1337.49 846.243,-1400.16 894,-1498.34 905.509,-1522 927.026,-1543.2 943.551,-1557.16"/>
<polygon fill="midnightblue" stroke="midnightblue" points="941.698,-1560.17 951.659,-1563.78 946.123,-1554.74 941.698,-1560.17"/>
</g>
<!-- Node16 -->
<g id="node31" class="node"><title>Node16</title>
<a xlink:href="classtetgenmesh.xhtml#a6c3e38cde82f108d0c0ca90d1a046931" target="_top" xlink:title="tetgenmesh::point2tet">
<polygon fill="none" stroke="black" points="910.5,-1467.84 910.5,-1488.84 1021.5,-1488.84 1021.5,-1467.84 910.5,-1467.84"/>
<text text-anchor="middle" x="966" y="-1475.84" font-family="Helvetica,sans-Serif" font-size="10.00">tetgenmesh::point2tet</text>
</a>
</g>
<!-- Node14&#45;&gt;Node16 -->
<g id="edge30" class="edge"><title>Node14&#45;&gt;Node16</title>
<path fill="none" stroke="midnightblue" d="M832.77,-1241.01C841.888,-1244.51 850.667,-1249.16 858,-1255.34 923.222,-1310.25 952.189,-1413.81 961.944,-1457.77"/>
<polygon fill="midnightblue" stroke="midnightblue" points="958.529,-1458.53 964.021,-1467.59 965.378,-1457.09 958.529,-1458.53"/>
</g>
<!-- Node17&#45;&gt;Node2 -->
<g id="edge34" class="edge"><title>Node17&#45;&gt;Node2</title>
<path fill="none" stroke="midnightblue" d="M247.034,-2581.98C267.524,-2593.71 302.247,-2612.47 334,-2624.34 444.078,-2665.46 770.68,-2773.97 858,-2695.34 914.952,-2644.05 874.607,-2426.48 894,-2352.34 908.571,-2296.63 938.924,-2235.53 955.177,-2205"/>
<polygon fill="midnightblue" stroke="midnightblue" points="958.435,-2206.34 960.105,-2195.87 952.275,-2203.01 958.435,-2206.34"/>
</g>
<!-- Node18 -->
<g id="node36" class="node"><title>Node18</title>
<a xlink:href="classtetgenmesh.xhtml#a5d85611ca91db181e357457beb13a633" target="_top" xlink:title="tetgenmesh::insertpoint">
<polygon fill="none" stroke="red" points="520.5,-2212.84 520.5,-2233.84 639.5,-2233.84 639.5,-2212.84 520.5,-2212.84"/>
<text text-anchor="middle" x="580" y="-2220.84" font-family="Helvetica,sans-Serif" font-size="10.00">tetgenmesh::insertpoint</text>
</a>
</g>
<!-- Node17&#45;&gt;Node18 -->
<g id="edge36" class="edge"><title>Node17&#45;&gt;Node18</title>
<path fill="none" stroke="midnightblue" d="M239.89,-2560.54C290.047,-2510.81 499.047,-2303.6 561.987,-2241.2"/>
<polygon fill="midnightblue" stroke="midnightblue" points="564.6,-2243.53 569.237,-2234.01 559.672,-2238.56 564.6,-2243.53"/>
</g>
<!-- Node19 -->
<g id="node41" class="node"><title>Node19</title>
<a xlink:href="classtetgenmesh_1_1arraypool.xhtml#afb546c70f7728e3e0d58e2aada464437" target="_top" xlink:title="tetgenmesh::arraypool\l::newindex">
<polygon fill="none" stroke="black" points="909.5,-2361.34 909.5,-2395.34 1022.5,-2395.34 1022.5,-2361.34 909.5,-2361.34"/>
<text text-anchor="start" x="917.5" y="-2382.34" font-family="Helvetica,sans-Serif" font-size="10.00">tetgenmesh::arraypool</text>
<text text-anchor="middle" x="966" y="-2369.34" font-family="Helvetica,sans-Serif" font-size="10.00">::newindex</text>
</a>
</g>
<!-- Node17&#45;&gt;Node19 -->
<g id="edge144" class="edge"><title>Node17&#45;&gt;Node19</title>
<path fill="none" stroke="midnightblue" d="M231.833,-2582.27C240.641,-2613.7 270.826,-2704.32 334,-2739.34 435.874,-2795.8 766.264,-2799.11 858,-2727.34 884.3,-2706.76 940.416,-2483.86 959.495,-2405.44"/>
<polygon fill="midnightblue" stroke="midnightblue" points="962.982,-2405.91 961.934,-2395.37 956.178,-2404.26 962.982,-2405.91"/>
</g>
<!-- Node21 -->
<g id="node45" class="node"><title>Node21</title>
<a xlink:href="classtetgenmesh.xhtml#a5066bdb73c8fc7d21ea6c9bc2974e059" target="_top" xlink:title="tetgenmesh::spivot">
<polygon fill="none" stroke="red" points="916,-2883.84 916,-2904.84 1016,-2904.84 1016,-2883.84 916,-2883.84"/>
<text text-anchor="middle" x="966" y="-2891.84" font-family="Helvetica,sans-Serif" font-size="10.00">tetgenmesh::spivot</text>
</a>
</g>
<!-- Node17&#45;&gt;Node21 -->
<g id="edge242" class="edge"><title>Node17&#45;&gt;Node21</title>
<path fill="none" stroke="midnightblue" d="M230.32,-2581.96C237.596,-2638.78 274.652,-2906.1 334,-2959.34 421.155,-3037.52 762.208,-3081.66 858,-3014.34 896.646,-2987.18 859.376,-2946.47 894,-2914.34 897.767,-2910.84 902.091,-2907.95 906.711,-2905.56"/>
<polygon fill="midnightblue" stroke="midnightblue" points="908.129,-2908.76 915.89,-2901.54 905.325,-2902.34 908.129,-2908.76"/>
</g>
<!-- Node22 -->
<g id="node48" class="node"><title>Node22</title>
<a xlink:href="classtetgenmesh.xhtml#a26ecd46a8e767042b2bd0a2725ac4a89" target="_top" xlink:title="tetgenmesh::infected">
<polygon fill="none" stroke="black" points="717,-2519.84 717,-2540.84 825,-2540.84 825,-2519.84 717,-2519.84"/>
<text text-anchor="middle" x="771" y="-2527.84" font-family="Helvetica,sans-Serif" font-size="10.00">tetgenmesh::infected</text>
</a>
</g>
<!-- Node17&#45;&gt;Node22 -->
<g id="edge246" class="edge"><title>Node17&#45;&gt;Node22</title>
<path fill="none" stroke="midnightblue" d="M297.645,-2566.14C403.121,-2558.17 603.614,-2543 706.523,-2535.21"/>
<polygon fill="midnightblue" stroke="midnightblue" points="707.065,-2538.68 716.772,-2534.44 706.537,-2531.7 707.065,-2538.68"/>
</g>
<!-- Node17&#45;&gt;Node24 -->
<g id="edge146" class="edge"><title>Node17&#45;&gt;Node24</title>
<path fill="none" stroke="midnightblue" d="M229.403,-2582.02C231.604,-2623.79 245.64,-2777.24 334,-2847.34 504.561,-2982.64 790.402,-2908.8 910.354,-2868.74"/>
<polygon fill="midnightblue" stroke="midnightblue" points="911.723,-2871.97 920.07,-2865.45 909.476,-2865.34 911.723,-2871.97"/>
</g>
<!-- Node25 -->
<g id="node55" class="node"><title>Node25</title>
<a xlink:href="classtetgenmesh.xhtml#a2d9e294c7e3eb0dc1e75d7972d6fd5cd" target="_top" xlink:title="tetgenmesh::stpivot">
<polygon fill="none" stroke="black" points="719.5,-1755.84 719.5,-1776.84 822.5,-1776.84 822.5,-1755.84 719.5,-1755.84"/>
<text text-anchor="middle" x="771" y="-1763.84" font-family="Helvetica,sans-Serif" font-size="10.00">tetgenmesh::stpivot</text>
</a>
</g>
<!-- Node17&#45;&gt;Node25 -->
<g id="edge244" class="edge"><title>Node17&#45;&gt;Node25</title>
<path fill="none" stroke="midnightblue" d="M232.808,-2560.45C245.101,-2525.88 285.746,-2415.94 334,-2332.34 451.931,-2128 543.273,-2115.74 648,-1904.34 673.095,-1853.68 641.981,-1820.16 684,-1782.34 691.201,-1775.86 700.136,-1771.6 709.514,-1768.86"/>
<polygon fill="midnightblue" stroke="midnightblue" points="710.463,-1772.23 719.392,-1766.53 708.855,-1765.42 710.463,-1772.23"/>
</g>
<!-- Node26 -->
<g id="node58" class="node"><title>Node26</title>
<a xlink:href="classtetgenmesh.xhtml#a57b18059c68cacbe01720c387c19ee9e" target="_top" xlink:title="tetgenmesh::fsymself">
<polygon fill="none" stroke="black" points="910.5,-971.837 910.5,-992.837 1021.5,-992.837 1021.5,-971.837 910.5,-971.837"/>
<text text-anchor="middle" x="966" y="-979.837" font-family="Helvetica,sans-Serif" font-size="10.00">tetgenmesh::fsymself</text>
</a>
</g>
<!-- Node17&#45;&gt;Node26 -->
<g id="edge250" class="edge"><title>Node17&#45;&gt;Node26</title>
<path fill="none" stroke="midnightblue" d="M229.037,-2560.52C229.531,-2452.59 236.549,-1567.99 334,-1326.34 415.806,-1123.48 476.232,-1048.73 684,-980.337 755.4,-956.834 842.587,-962.241 900.945,-970.336"/>
<polygon fill="midnightblue" stroke="midnightblue" points="900.736,-973.842 911.135,-971.817 901.743,-966.915 900.736,-973.842"/>
</g>
<!-- Node34 -->
<g id="node80" class="node"><title>Node34</title>
<a xlink:href="classtetgenmesh.xhtml#ad48cec74c7fbcf66ebd312661da5d0bc" target="_top" xlink:title="tetgenmesh::sinsertvertex">
<polygon fill="none" stroke="red" points="706,-2943.84 706,-2964.84 836,-2964.84 836,-2943.84 706,-2943.84"/>
<text text-anchor="middle" x="771" y="-2951.84" font-family="Helvetica,sans-Serif" font-size="10.00">tetgenmesh::sinsertvertex</text>
</a>
</g>
<!-- Node17&#45;&gt;Node34 -->
<g id="edge240" class="edge"><title>Node17&#45;&gt;Node34</title>
<path fill="none" stroke="midnightblue" d="M230.469,-2581.96C238.233,-2636.41 276.311,-2883.51 334,-2929.34 388.094,-2972.31 585.794,-2966.85 695.82,-2960.08"/>
<polygon fill="midnightblue" stroke="midnightblue" points="696.102,-2963.57 705.861,-2959.44 695.66,-2956.58 696.102,-2963.57"/>
</g>
<!-- Node35 -->
<g id="node89" class="node"><title>Node35</title>
<a xlink:href="classtetgenmesh.xhtml#ab368f639981dcf465b5e8654942bcc69" target="_top" xlink:title="tetgenmesh::shellfacedealloc">
<polygon fill="none" stroke="black" points="894.5,-2665.84 894.5,-2686.84 1037.5,-2686.84 1037.5,-2665.84 894.5,-2665.84"/>
<text text-anchor="middle" x="966" y="-2673.84" font-family="Helvetica,sans-Serif" font-size="10.00">tetgenmesh::shellfacedealloc</text>
</a>
</g>
<!-- Node17&#45;&gt;Node35 -->
<g id="edge252" class="edge"><title>Node17&#45;&gt;Node35</title>
<path fill="none" stroke="midnightblue" d="M229.681,-2581.94C232.851,-2621.35 249.836,-2759.93 334,-2815.34 431.26,-2879.37 753.409,-2866.52 858,-2815.34 909.023,-2790.37 942.891,-2728.37 957.615,-2696.29"/>
<polygon fill="midnightblue" stroke="midnightblue" points="960.876,-2697.57 961.721,-2687.01 954.475,-2694.74 960.876,-2697.57"/>
</g>
<!-- Node39 -->
<g id="node109" class="node"><title>Node39</title>
<a xlink:href="classtetgenmesh.xhtml#a7bc17e79a3044819d9877b53d4153ac7" target="_top" xlink:title="tetgenmesh::tsdissolve">
<polygon fill="none" stroke="black" points="712,-1715.84 712,-1736.84 830,-1736.84 830,-1715.84 712,-1715.84"/>
<text text-anchor="middle" x="771" y="-1723.84" font-family="Helvetica,sans-Serif" font-size="10.00">tetgenmesh::tsdissolve</text>
</a>
</g>
<!-- Node17&#45;&gt;Node39 -->
<g id="edge248" class="edge"><title>Node17&#45;&gt;Node39</title>
<path fill="none" stroke="midnightblue" d="M229.994,-2560.82C234.984,-2511.36 260.066,-2297.64 334,-2141.34 434.297,-1929.3 476.436,-1855.58 684,-1746.34 689.67,-1743.35 695.778,-1740.81 702.034,-1738.65"/>
<polygon fill="midnightblue" stroke="midnightblue" points="703.447,-1741.87 711.946,-1735.55 701.357,-1735.19 703.447,-1741.87"/>
</g>
<!-- Node40 -->
<g id="node114" class="node"><title>Node40</title>
<a xlink:href="classtetgenmesh.xhtml#ab1a82368937a13996efae911b8b1fded" target="_top" xlink:title="tetgenmesh::delaunizecavity">
<polygon fill="none" stroke="red" points="334.5,-1335.84 334.5,-1356.84 475.5,-1356.84 475.5,-1335.84 334.5,-1335.84"/>
<text text-anchor="middle" x="405" y="-1343.84" font-family="Helvetica,sans-Serif" font-size="10.00">tetgenmesh::delaunizecavity</text>
</a>
</g>
<!-- Node17&#45;&gt;Node40 -->
<g id="edge148" class="edge"><title>Node17&#45;&gt;Node40</title>
<path fill="none" stroke="midnightblue" d="M229.363,-2560.72C232.219,-2481.86 253.11,-1979.23 334,-1580.34 350.42,-1499.37 382.906,-1406.28 397.542,-1366.28"/>
<polygon fill="midnightblue" stroke="midnightblue" points="400.833,-1367.47 401.014,-1356.88 394.267,-1365.05 400.833,-1367.47"/>
</g>
<!-- Node41 -->
<g id="node130" class="node"><title>Node41</title>
<a xlink:href="classtetgenmesh.xhtml#a7bbebc8419ee43b912236c4ba7f69ba7" target="_top" xlink:title="tetgenmesh::fillcavity">
<polygon fill="none" stroke="red" points="525,-1410.84 525,-1431.84 635,-1431.84 635,-1410.84 525,-1410.84"/>
<text text-anchor="middle" x="580" y="-1418.84" font-family="Helvetica,sans-Serif" font-size="10.00">tetgenmesh::fillcavity</text>
</a>
</g>
<!-- Node17&#45;&gt;Node41 -->
<g id="edge178" class="edge"><title>Node17&#45;&gt;Node41</title>
<path fill="none" stroke="midnightblue" d="M229.239,-2560.82C230.983,-2495.95 244.387,-2144.24 334,-1876.34 394.568,-1695.26 524.225,-1501.1 566.423,-1440.5"/>
<polygon fill="midnightblue" stroke="midnightblue" points="569.547,-1442.14 572.421,-1431.95 563.815,-1438.13 569.547,-1442.14"/>
</g>
<!-- Node43 -->
<g id="node153" class="node"><title>Node43</title>
<a xlink:href="classtetgenmesh.xhtml#a820c230ca5161419ee7d1d9a731a17af" target="_top" xlink:title="tetgenmesh::carvecavity">
<polygon fill="none" stroke="red" points="518,-2638.84 518,-2659.84 642,-2659.84 642,-2638.84 518,-2638.84"/>
<text text-anchor="middle" x="580" y="-2646.84" font-family="Helvetica,sans-Serif" font-size="10.00">tetgenmesh::carvecavity</text>
</a>
</g>
<!-- Node17&#45;&gt;Node43 -->
<g id="edge220" class="edge"><title>Node17&#45;&gt;Node43</title>
<path fill="none" stroke="midnightblue" d="M276.337,-2581.86C340.277,-2596.07 454.121,-2621.36 522.782,-2636.62"/>
<polygon fill="midnightblue" stroke="midnightblue" points="522.052,-2640.05 532.573,-2638.8 523.57,-2633.21 522.052,-2640.05"/>
</g>
<!-- Node18&#45;&gt;Node2 -->
<g id="edge38" class="edge"><title>Node18&#45;&gt;Node2</title>
<path fill="none" stroke="midnightblue" d="M639.609,-2214.8C654.118,-2212.87 669.603,-2210.92 684,-2209.34 756.914,-2201.33 840.687,-2194.5 897.858,-2190.2"/>
<polygon fill="midnightblue" stroke="midnightblue" points="898.149,-2193.69 907.86,-2189.45 897.627,-2186.71 898.149,-2193.69"/>
</g>
<!-- Node18&#45;&gt;Node3 -->
<g id="edge50" class="edge"><title>Node18&#45;&gt;Node3</title>
<path fill="none" stroke="midnightblue" d="M584.05,-2234.1C598.737,-2272.6 650.116,-2402.68 684,-2430.34 746.059,-2480.99 806.939,-2415.62 858,-2477.34 925.759,-2559.24 826.533,-2872.19 894,-2954.34 898.37,-2959.66 904.024,-2963.63 910.24,-2966.59"/>
<polygon fill="midnightblue" stroke="midnightblue" points="909.077,-2969.89 919.667,-2970.23 911.601,-2963.36 909.077,-2969.89"/>
</g>
<!-- Node18&#45;&gt;Node4 -->
<g id="edge66" class="edge"><title>Node18&#45;&gt;Node4</title>
<path fill="none" stroke="midnightblue" d="M583.365,-2234.06C593.387,-2264.17 626.004,-2350.15 684,-2393.34 748.154,-2441.11 806.837,-2377.85 858,-2439.34 925.708,-2520.71 826.801,-2832.54 894,-2914.34 897.654,-2918.79 902.205,-2922.29 907.232,-2925.05"/>
<polygon fill="midnightblue" stroke="midnightblue" points="906.143,-2928.4 916.703,-2929.25 908.98,-2922 906.143,-2928.4"/>
</g>
<!-- Node18&#45;&gt;Node5 -->
<g id="edge68" class="edge"><title>Node18&#45;&gt;Node5</title>
<path fill="none" stroke="midnightblue" d="M584.622,-2234.2C595.616,-2260.04 624.188,-2327.21 648,-2383.34 664.024,-2421.11 652.714,-2441.8 684,-2468.34 744.666,-2519.8 806.501,-2449.7 858,-2510.34 927.818,-2592.54 825.594,-2910.95 894,-2994.34 897.548,-2998.66 901.945,-3002.1 906.802,-3004.82"/>
<polygon fill="midnightblue" stroke="midnightblue" points="905.409,-3008.03 915.961,-3008.99 908.31,-3001.66 905.409,-3008.03"/>
</g>
<!-- Node18&#45;&gt;Node8 -->
<g id="edge86" class="edge"><title>Node18&#45;&gt;Node8</title>
<path fill="none" stroke="midnightblue" d="M598.69,-2234C619.148,-2245.35 653.155,-2263.31 684,-2275.34 694.985,-2279.62 707.003,-2283.54 718.506,-2286.94"/>
<polygon fill="midnightblue" stroke="midnightblue" points="717.865,-2290.4 728.443,-2289.79 719.796,-2283.67 717.865,-2290.4"/>
</g>
<!-- Node18&#45;&gt;Node9 -->
<g id="edge82" class="edge"><title>Node18&#45;&gt;Node9</title>
<path fill="none" stroke="midnightblue" d="M582.072,-2233.96C591.091,-2280.52 627.404,-2471.3 648,-2629.34 659.104,-2714.55 639.967,-2940.55 684,-3014.34 695.539,-3033.67 716.321,-3047.89 734.681,-3057.41"/>
<polygon fill="midnightblue" stroke="midnightblue" points="733.202,-3060.58 743.723,-3061.83 736.278,-3054.29 733.202,-3060.58"/>
</g>
<!-- Node18&#45;&gt;Node11 -->
<g id="edge56" class="edge"><title>Node18&#45;&gt;Node11</title>
<path fill="none" stroke="midnightblue" d="M582.133,-2233.95C591.41,-2280.48 628.641,-2471.14 648,-2629.34 654.268,-2680.55 650.318,-3053.25 684,-3092.34 685.992,-3094.65 688.192,-3096.72 690.556,-3098.58"/>
<polygon fill="midnightblue" stroke="midnightblue" points="688.859,-3101.65 699.164,-3104.11 692.643,-3095.76 688.859,-3101.65"/>
</g>
<!-- Node18&#45;&gt;Node13 -->
<g id="edge40" class="edge"><title>Node18&#45;&gt;Node13</title>
<path fill="none" stroke="midnightblue" d="M582.158,-2233.95C591.536,-2280.46 629.127,-2471.09 648,-2629.34 661.271,-2740.61 627.627,-3035.49 684,-3132.34 695.249,-3151.66 715.817,-3165.82 734.131,-3175.31"/>
<polygon fill="midnightblue" stroke="midnightblue" points="732.643,-3178.48 743.165,-3179.72 735.715,-3172.19 732.643,-3178.48"/>
</g>
<!-- Node18&#45;&gt;Node14 -->
<g id="edge114" class="edge"><title>Node18&#45;&gt;Node14</title>
<path fill="none" stroke="midnightblue" d="M582.08,-2212.52C600.877,-2114.8 741.328,-1384.6 766.983,-1251.22"/>
<polygon fill="midnightblue" stroke="midnightblue" points="770.476,-1251.59 768.928,-1241.11 763.602,-1250.27 770.476,-1251.59"/>
</g>
<!-- Node18&#45;&gt;Node15 -->
<g id="edge42" class="edge"><title>Node18&#45;&gt;Node15</title>
<path fill="none" stroke="midnightblue" d="M611.819,-2212.83C683.012,-2189.18 849.601,-2133.11 858,-2123.34 928.578,-2041.2 958.14,-1685.69 964.595,-1595.3"/>
<polygon fill="midnightblue" stroke="midnightblue" points="968.095,-1595.42 965.297,-1585.2 961.112,-1594.93 968.095,-1595.42"/>
</g>
<!-- Node18&#45;&gt;Node16 -->
<g id="edge138" class="edge"><title>Node18&#45;&gt;Node16</title>
<path fill="none" stroke="midnightblue" d="M587.803,-2212.61C603.512,-2191.85 641.134,-2146.22 684,-2123.34 753.827,-2086.06 806.299,-2145.28 858,-2085.34 935.249,-1995.78 846.527,-1662.66 894,-1554.34 904.499,-1530.38 925.948,-1509.34 942.717,-1495.51"/>
<polygon fill="midnightblue" stroke="midnightblue" points="945.318,-1497.91 950.977,-1488.96 940.968,-1492.43 945.318,-1497.91"/>
</g>
<!-- Node18&#45;&gt;Node19 -->
<g id="edge44" class="edge"><title>Node18&#45;&gt;Node19</title>
<path fill="none" stroke="midnightblue" d="M639.567,-2215.68C698.515,-2210.93 789.598,-2211.4 858,-2247.34 902.457,-2270.69 935.576,-2320.98 952.756,-2352.01"/>
<polygon fill="midnightblue" stroke="midnightblue" points="949.755,-2353.82 957.572,-2360.97 955.921,-2350.51 949.755,-2353.82"/>
</g>
<!-- Node18&#45;&gt;Node20 -->
<g id="edge46" class="edge"><title>Node18&#45;&gt;Node20</title>
<path fill="none" stroke="midnightblue" d="M586.758,-2212.83C599.204,-2193.4 626.451,-2150.41 648,-2113.34 664.791,-2084.45 657.264,-2067.38 684,-2047.34 747.338,-1999.86 807.102,-2069.96 858,-2009.34 920.64,-1934.73 841.997,-1215.71 894,-1133.34 900.244,-1123.45 909.976,-1115.98 920.287,-1110.4"/>
<polygon fill="midnightblue" stroke="midnightblue" points="921.952,-1113.48 929.425,-1105.97 918.9,-1107.19 921.952,-1113.48"/>
</g>
<!-- Node18&#45;&gt;Node21 -->
<g id="edge48" class="edge"><title>Node18&#45;&gt;Node21</title>
<path fill="none" stroke="midnightblue" d="M585.128,-2233.88C597.998,-2259.2 634.232,-2323.72 684,-2356.34 750.81,-2400.12 806.735,-2340.08 858,-2401.34 925.655,-2482.18 827.07,-2792.9 894,-2874.34 897.552,-2878.66 901.951,-2882.09 906.81,-2884.81"/>
<polygon fill="midnightblue" stroke="midnightblue" points="905.419,-2888.03 915.97,-2888.98 908.318,-2881.66 905.419,-2888.03"/>
</g>
<!-- Node18&#45;&gt;Node22 -->
<g id="edge52" class="edge"><title>Node18&#45;&gt;Node22</title>
<path fill="none" stroke="midnightblue" d="M585.053,-2234.03C596.978,-2259.51 627.415,-2325.95 648,-2383.34 667.088,-2436.55 643.883,-2465.5 684,-2505.34 690.552,-2511.84 698.678,-2516.68 707.312,-2520.27"/>
<polygon fill="midnightblue" stroke="midnightblue" points="706.234,-2523.6 716.829,-2523.7 708.606,-2517.02 706.234,-2523.6"/>
</g>
<!-- Node23 -->
<g id="node50" class="node"><title>Node23</title>
<a xlink:href="classtetgenmesh.xhtml#ae2d4d27d7babd7b0e60956cc00bca89a" target="_top" xlink:title="tetgenmesh::org">
<polygon fill="none" stroke="black" points="922.5,-875.837 922.5,-896.837 1009.5,-896.837 1009.5,-875.837 922.5,-875.837"/>
<text text-anchor="middle" x="966" y="-883.837" font-family="Helvetica,sans-Serif" font-size="10.00">tetgenmesh::org</text>
</a>
</g>
<!-- Node18&#45;&gt;Node23 -->
<g id="edge54" class="edge"><title>Node18&#45;&gt;Node23</title>
<path fill="none" stroke="midnightblue" d="M588.132,-2212.71C602.266,-2193.74 631.437,-2152.4 648,-2113.34 673.413,-2053.39 637.202,-2016.6 684,-1971.34 740.895,-1916.3 807.223,-1994.06 858,-1933.34 927.256,-1850.51 852.184,-1061.87 894,-962.337 904.131,-938.222 925.625,-917.202 942.505,-903.418"/>
<polygon fill="midnightblue" stroke="midnightblue" points="945.118,-905.817 950.827,-896.892 940.799,-900.309 945.118,-905.817"/>
</g>
<!-- Node18&#45;&gt;Node24 -->
<g id="edge58" class="edge"><title>Node18&#45;&gt;Node24</title>
<path fill="none" stroke="midnightblue" d="M588.183,-2233.95C604.267,-2254.03 642.1,-2297.64 684,-2320.34 754.044,-2358.28 805.587,-2303.35 858,-2363.34 906.973,-2419.39 873.786,-2624.7 894,-2696.34 907.166,-2743 933.54,-2793.07 950.451,-2822.5"/>
<polygon fill="midnightblue" stroke="midnightblue" points="947.521,-2824.42 955.58,-2831.3 953.568,-2820.9 947.521,-2824.42"/>
</g>
<!-- Node18&#45;&gt;Node25 -->
<g id="edge60" class="edge"><title>Node18&#45;&gt;Node25</title>
<path fill="none" stroke="midnightblue" d="M588.928,-2212.62C604.008,-2193.86 634.222,-2153.23 648,-2113.34 671.502,-2045.28 637.552,-1846.35 684,-1791.34 690.761,-1783.33 699.903,-1777.8 709.727,-1773.99"/>
<polygon fill="midnightblue" stroke="midnightblue" points="710.889,-1777.3 719.3,-1770.85 708.707,-1770.65 710.889,-1777.3"/>
</g>
<!-- Node18&#45;&gt;Node26 -->
<g id="edge64" class="edge"><title>Node18&#45;&gt;Node26</title>
<path fill="none" stroke="midnightblue" d="M587.794,-2212.55C601.406,-2193.36 629.793,-2151.67 648,-2113.34 668.987,-2069.16 647.43,-2041.82 684,-2009.34 743.181,-1956.77 807.129,-2031.98 858,-1971.34 922.032,-1895 859.884,-1168.95 894,-1075.34 904.914,-1045.39 929.287,-1017.39 946.648,-1000.09"/>
<polygon fill="midnightblue" stroke="midnightblue" points="949.3,-1002.4 954.058,-992.93 944.435,-997.363 949.3,-1002.4"/>
</g>
<!-- Node27 -->
<g id="node62" class="node"><title>Node27</title>
<a xlink:href="classtetgenmesh.xhtml#a2ff33d38976a7bc134380ef8f15c4519" target="_top" xlink:title="tetgenmesh::oppo">
<polygon fill="none" stroke="black" points="918.5,-762.837 918.5,-783.837 1013.5,-783.837 1013.5,-762.837 918.5,-762.837"/>
<text text-anchor="middle" x="966" y="-770.837" font-family="Helvetica,sans-Serif" font-size="10.00">tetgenmesh::oppo</text>
</a>
</g>
<!-- Node18&#45;&gt;Node27 -->
<g id="edge70" class="edge"><title>Node18&#45;&gt;Node27</title>
<path fill="none" stroke="midnightblue" d="M588.708,-2212.54C603.456,-2193.66 633.183,-2152.86 648,-2113.34 682.472,-2021.39 616.367,-1966.54 684,-1895.34 738.516,-1837.95 807.289,-1918.12 858,-1857.34 931.435,-1769.32 840.503,-927.713 894,-826.337 902.519,-810.195 918.403,-797.699 933.09,-788.906"/>
<polygon fill="midnightblue" stroke="midnightblue" points="934.991,-791.853 942.002,-783.91 931.568,-785.747 934.991,-791.853"/>
</g>
<!-- Node28 -->
<g id="node64" class="node"><title>Node28</title>
<a xlink:href="classtetgenmesh.xhtml#ad56ef3448cd57e637acf373622bfb769" target="_top" xlink:title="tetgenmesh::dest">
<polygon fill="none" stroke="black" points="920,-682.837 920,-703.837 1012,-703.837 1012,-682.837 920,-682.837"/>
<text text-anchor="middle" x="966" y="-690.837" font-family="Helvetica,sans-Serif" font-size="10.00">tetgenmesh::dest</text>
</a>
</g>
<!-- Node18&#45;&gt;Node28 -->
<g id="edge72" class="edge"><title>Node18&#45;&gt;Node28</title>
<path fill="none" stroke="midnightblue" d="M588.884,-2212.61C603.897,-2193.82 634.013,-2153.16 648,-2113.34 669.812,-2051.23 639.008,-1867.38 684,-1819.34 737.803,-1761.88 806.785,-1846.11 858,-1786.34 935.617,-1695.75 820.233,-807.083 894,-713.337 898.312,-707.857 903.988,-703.797 910.264,-700.801"/>
<polygon fill="midnightblue" stroke="midnightblue" points="911.723,-703.99 919.8,-697.133 909.21,-697.457 911.723,-703.99"/>
</g>
<!-- Node29 -->
<g id="node66" class="node"><title>Node29</title>
<a xlink:href="classtetgenmesh.xhtml#a9287d941f7f432ca846d5c004603af40" target="_top" xlink:title="tetgenmesh::apex">
<polygon fill="none" stroke="black" points="918.5,-722.837 918.5,-743.837 1013.5,-743.837 1013.5,-722.837 918.5,-722.837"/>
<text text-anchor="middle" x="966" y="-730.837" font-family="Helvetica,sans-Serif" font-size="10.00">tetgenmesh::apex</text>
</a>
</g>
<!-- Node18&#45;&gt;Node29 -->
<g id="edge74" class="edge"><title>Node18&#45;&gt;Node29</title>
<path fill="none" stroke="midnightblue" d="M588.809,-2212.58C603.708,-2193.75 633.658,-2153.03 648,-2113.34 687.041,-2005.28 605.871,-1941.58 684,-1857.34 737.825,-1799.3 807.324,-1880.14 858,-1819.34 933.872,-1728.3 820.703,-846.464 894,-753.337 898.002,-748.253 903.177,-744.39 908.917,-741.467"/>
<polygon fill="midnightblue" stroke="midnightblue" points="910.395,-744.643 918.314,-737.605 907.734,-738.169 910.395,-744.643"/>
</g>
<!-- Node30 -->
<g id="node68" class="node"><title>Node30</title>
<a xlink:href="classtetgenmesh.xhtml#a1c65efaf2a8a72d023327c2592d89188" target="_top" xlink:title="tetgenmesh::enextself">
<polygon fill="none" stroke="black" points="909.5,-835.837 909.5,-856.837 1022.5,-856.837 1022.5,-835.837 909.5,-835.837"/>
<text text-anchor="middle" x="966" y="-843.837" font-family="Helvetica,sans-Serif" font-size="10.00">tetgenmesh::enextself</text>
</a>
</g>
<!-- Node18&#45;&gt;Node30 -->
<g id="edge76" class="edge"><title>Node18&#45;&gt;Node30</title>
<path fill="none" stroke="midnightblue" d="M588.337,-2212.79C602.789,-2193.96 632.436,-2152.81 648,-2113.34 677.923,-2037.44 626.822,-1991.53 684,-1933.34 739.477,-1876.87 807.287,-1956.11 858,-1895.34 931.295,-1807.5 823.19,-956.193 894,-866.337 895.92,-863.901 898.109,-861.746 900.5,-859.84"/>
<polygon fill="midnightblue" stroke="midnightblue" points="902.726,-862.574 909.312,-854.275 898.988,-856.655 902.726,-862.574"/>
</g>
<!-- Node18&#45;&gt;Node31 -->
<g id="edge78" class="edge"><title>Node18&#45;&gt;Node31</title>
<path fill="none" stroke="midnightblue" d="M581.91,-2233.88C591.343,-2284.8 634.489,-2504.73 684,-2550.34 689.997,-2555.86 697.203,-2559.96 704.868,-2562.99"/>
<polygon fill="midnightblue" stroke="midnightblue" points="703.802,-2566.32 714.396,-2566.17 706.019,-2559.68 703.802,-2566.32"/>
</g>
<!-- Node18&#45;&gt;Node32 -->
<g id="edge84" class="edge"><title>Node18&#45;&gt;Node32</title>
<path fill="none" stroke="midnightblue" d="M581.55,-2234.04C589.713,-2288.94 629.414,-2538.42 684,-2590.34 689.908,-2595.96 697.062,-2600.11 704.701,-2603.16"/>
<polygon fill="midnightblue" stroke="midnightblue" points="703.613,-2606.49 714.207,-2606.37 705.849,-2599.86 703.613,-2606.49"/>
</g>
<!-- Node18&#45;&gt;Node33 -->
<g id="edge88" class="edge"><title>Node18&#45;&gt;Node33</title>
<path fill="none" stroke="midnightblue" d="M582.03,-2233.96C590.873,-2280.55 626.556,-2471.41 648,-2629.34 658.372,-2705.72 632.918,-2916.61 684,-2974.34 689.684,-2980.76 696.977,-2985.34 704.916,-2988.58"/>
<polygon fill="midnightblue" stroke="midnightblue" points="703.883,-2991.92 714.477,-2991.78 706.11,-2985.29 703.883,-2991.92"/>
</g>
<!-- Node18&#45;&gt;Node34 -->
<g id="edge92" class="edge"><title>Node18&#45;&gt;Node34</title>
<path fill="none" stroke="midnightblue" d="M582.684,-2234.04C594.457,-2280.94 642.779,-2473.01 684,-2630.34 714.119,-2745.29 751.491,-2882.81 765.423,-2933.91"/>
<polygon fill="midnightblue" stroke="midnightblue" points="762.091,-2935 768.099,-2943.72 768.844,-2933.15 762.091,-2935"/>
</g>
<!-- Node18&#45;&gt;Node35 -->
<g id="edge142" class="edge"><title>Node18&#45;&gt;Node35</title>
<path fill="none" stroke="midnightblue" d="M629.179,-2233.85C646.499,-2237.52 666.106,-2241.65 684,-2245.34 761.255,-2261.28 800.365,-2226.48 858,-2280.34 861.582,-2283.68 938.87,-2574.12 960.449,-2655.41"/>
<polygon fill="midnightblue" stroke="midnightblue" points="957.163,-2656.67 963.11,-2665.44 963.928,-2654.87 957.163,-2656.67"/>
</g>
<!-- Node37 -->
<g id="node95" class="node"><title>Node37</title>
<a xlink:href="classtetgenmesh.xhtml#a4a33553a18b0e9535d43d683b9473cbf" target="_top" xlink:title="tetgenmesh::finddirection">
<polygon fill="none" stroke="red" points="708,-913.837 708,-934.837 834,-934.837 834,-913.837 708,-913.837"/>
<text text-anchor="middle" x="771" y="-921.837" font-family="Helvetica,sans-Serif" font-size="10.00">tetgenmesh::finddirection</text>
</a>
</g>
<!-- Node18&#45;&gt;Node37 -->
<g id="edge116" class="edge"><title>Node18&#45;&gt;Node37</title>
<path fill="none" stroke="midnightblue" d="M580.808,-2212.68C588.04,-2117.83 642.363,-1417.01 684,-1210.34 704.54,-1108.38 746.232,-990.801 763.375,-944.528"/>
<polygon fill="midnightblue" stroke="midnightblue" points="766.694,-945.646 766.913,-935.054 760.136,-943.197 766.694,-945.646"/>
</g>
<!-- Node18&#45;&gt;Node38 -->
<g id="edge136" class="edge"><title>Node18&#45;&gt;Node38</title>
<path fill="none" stroke="midnightblue" d="M584.752,-2212.66C597.027,-2186.39 632.475,-2118.36 684,-2085.34 750.642,-2042.62 806.499,-2107.45 858,-2047.34 900.66,-1997.55 884.433,-1523.2 894,-1458.34 910.052,-1349.5 945.667,-1222.31 959.925,-1173.66"/>
<polygon fill="midnightblue" stroke="midnightblue" points="963.299,-1174.6 962.776,-1164.01 956.586,-1172.61 963.299,-1174.6"/>
</g>
<!-- Node18&#45;&gt;Node39 -->
<g id="edge140" class="edge"><title>Node18&#45;&gt;Node39</title>
<path fill="none" stroke="midnightblue" d="M582.315,-2212.53C597.458,-2141.87 681.83,-1748.53 684,-1746.34 689.169,-1741.11 695.41,-1737.13 702.148,-1734.12"/>
<polygon fill="midnightblue" stroke="midnightblue" points="703.45,-1737.37 711.59,-1730.59 700.997,-1730.82 703.45,-1737.37"/>
</g>
<!-- Node25&#45;&gt;Node15 -->
<g id="edge62" class="edge"><title>Node25&#45;&gt;Node15</title>
<path fill="none" stroke="midnightblue" d="M822.585,-1761.38C834.994,-1758.4 847.642,-1753.7 858,-1746.34 912.927,-1707.29 946.038,-1630.67 959.291,-1594.35"/>
<polygon fill="midnightblue" stroke="midnightblue" points="962.617,-1595.44 962.637,-1584.85 956.015,-1593.12 962.617,-1595.44"/>
</g>
<!-- Node31&#45;&gt;Node15 -->
<g id="edge80" class="edge"><title>Node31&#45;&gt;Node15</title>
<path fill="none" stroke="midnightblue" d="M827.594,-2567.85C839.137,-2564.7 850.14,-2559.32 858,-2550.34 914.598,-2485.68 884.803,-2250.77 894,-2165.34 918.044,-1941.98 953.159,-1671.89 963.215,-1595.42"/>
<polygon fill="midnightblue" stroke="midnightblue" points="966.725,-1595.57 964.561,-1585.2 959.785,-1594.66 966.725,-1595.57"/>
</g>
<!-- Node33&#45;&gt;Node7 -->
<g id="edge90" class="edge"><title>Node33&#45;&gt;Node7</title>
<path fill="none" stroke="midnightblue" d="M792.905,-3004.91C811.989,-3014.99 839.44,-3031.67 858,-3052.34 881.114,-3078.07 875.263,-3092.26 894,-3121.34 909.34,-3145.14 929.363,-3170.34 944.399,-3188.34"/>
<polygon fill="midnightblue" stroke="midnightblue" points="941.798,-3190.69 950.921,-3196.07 947.148,-3186.17 941.798,-3190.69"/>
</g>
<!-- Node34&#45;&gt;Node2 -->
<g id="edge94" class="edge"><title>Node34&#45;&gt;Node2</title>
<path fill="none" stroke="midnightblue" d="M776.709,-2943.53C792.709,-2912.66 838.107,-2821.11 858,-2739.34 898.832,-2571.49 851.278,-2519.71 894,-2352.34 908.241,-2296.54 938.735,-2235.49 955.095,-2204.98"/>
<polygon fill="midnightblue" stroke="midnightblue" points="958.353,-2206.32 960.058,-2195.86 952.204,-2202.97 958.353,-2206.32"/>
</g>
<!-- Node34&#45;&gt;Node3 -->
<g id="edge100" class="edge"><title>Node34&#45;&gt;Node3</title>
<path fill="none" stroke="midnightblue" d="M836.203,-2961.02C860.122,-2963.48 886.964,-2966.23 910.004,-2968.59"/>
<polygon fill="midnightblue" stroke="midnightblue" points="909.656,-2972.08 919.961,-2969.62 910.371,-2965.11 909.656,-2972.08"/>
</g>
<!-- Node34&#45;&gt;Node4 -->
<g id="edge102" class="edge"><title>Node34&#45;&gt;Node4</title>
<path fill="none" stroke="midnightblue" d="M836.203,-2947.65C859.055,-2945.31 884.574,-2942.69 906.898,-2940.4"/>
<polygon fill="midnightblue" stroke="midnightblue" points="907.318,-2943.87 916.908,-2939.37 906.603,-2936.91 907.318,-2943.87"/>
</g>
<!-- Node34&#45;&gt;Node5 -->
<g id="edge104" class="edge"><title>Node34&#45;&gt;Node5</title>
<path fill="none" stroke="midnightblue" d="M827.39,-2964.86C837.727,-2967.47 848.306,-2970.62 858,-2974.34 875.088,-2980.9 877.064,-2987.4 894,-2994.34 899.751,-2996.69 905.87,-2998.87 912.02,-3000.85"/>
<polygon fill="midnightblue" stroke="midnightblue" points="911.072,-3004.22 921.658,-3003.8 913.118,-2997.52 911.072,-3004.22"/>
</g>
<!-- Node34&#45;&gt;Node10 -->
<g id="edge106" class="edge"><title>Node34&#45;&gt;Node10</title>
<path fill="none" stroke="midnightblue" d="M836.268,-2963.17C844.018,-2965.96 851.479,-2969.6 858,-2974.34 883.162,-2992.61 874.424,-3010.17 894,-3034.34 909.145,-3053.03 929.431,-3071.45 944.61,-3084.22"/>
<polygon fill="midnightblue" stroke="midnightblue" points="942.516,-3087.03 952.452,-3090.71 946.976,-3081.64 942.516,-3087.03"/>
</g>
<!-- Node34&#45;&gt;Node19 -->
<g id="edge98" class="edge"><title>Node34&#45;&gt;Node19</title>
<path fill="none" stroke="midnightblue" d="M779.593,-2943.51C797.035,-2921 836.737,-2866.93 858,-2815.34 885.611,-2748.35 876.915,-2726.75 894,-2656.34 916.398,-2564.03 945.336,-2455.14 958.674,-2405.48"/>
<polygon fill="midnightblue" stroke="midnightblue" points="962.132,-2406.1 961.35,-2395.53 955.372,-2404.28 962.132,-2406.1"/>
</g>
<!-- Node34&#45;&gt;Node21 -->
<g id="edge96" class="edge"><title>Node34&#45;&gt;Node21</title>
<path fill="none" stroke="midnightblue" d="M811.587,-2943.72C826.32,-2939.59 843.022,-2934.59 858,-2929.34 874.357,-2923.6 877.618,-2920 894,-2914.34 900.59,-2912.06 907.587,-2909.86 914.53,-2907.8"/>
<polygon fill="midnightblue" stroke="midnightblue" points="915.969,-2911.02 924.608,-2904.89 914.03,-2904.3 915.969,-2911.02"/>
</g>
<!-- Node34&#45;&gt;Node24 -->
<g id="edge112" class="edge"><title>Node34&#45;&gt;Node24</title>
<path fill="none" stroke="midnightblue" d="M829.386,-2943.8C839.529,-2940.28 849.526,-2935.59 858,-2929.34 881.511,-2912 871.08,-2892.45 894,-2874.34 896.053,-2872.71 898.215,-2871.19 900.459,-2869.75"/>
<polygon fill="midnightblue" stroke="midnightblue" points="902.482,-2872.63 909.454,-2864.65 899.029,-2866.54 902.482,-2872.63"/>
</g>
<!-- Node34&#45;&gt;Node35 -->
<g id="edge108" class="edge"><title>Node34&#45;&gt;Node35</title>
<path fill="none" stroke="midnightblue" d="M781.273,-2943.62C798.215,-2925.68 832.658,-2888.13 858,-2853.34 897.564,-2799.01 936.858,-2729.79 955.237,-2696.29"/>
<polygon fill="midnightblue" stroke="midnightblue" points="958.535,-2697.55 960.246,-2687.1 952.388,-2694.2 958.535,-2697.55"/>
</g>
<!-- Node36 -->
<g id="node91" class="node"><title>Node36</title>
<a xlink:href="classtetgenmesh_1_1memorypool.xhtml#a0329d16675985efd7fd1e0a0630cabf7" target="_top" xlink:title="tetgenmesh::memorypool\l::dealloc">
<polygon fill="none" stroke="black" points="1074.5,-3070.34 1074.5,-3104.34 1201.5,-3104.34 1201.5,-3070.34 1074.5,-3070.34"/>
<text text-anchor="start" x="1082.5" y="-3091.34" font-family="Helvetica,sans-Serif" font-size="10.00">tetgenmesh::memorypool</text>
<text text-anchor="middle" x="1138" y="-3078.34" font-family="Helvetica,sans-Serif" font-size="10.00">::dealloc</text>
</a>
</g>
<!-- Node35&#45;&gt;Node36 -->
<g id="edge110" class="edge"><title>Node35&#45;&gt;Node36</title>
<path fill="none" stroke="midnightblue" d="M971.789,-2687.16C984.522,-2711.14 1015.61,-2770.75 1038,-2822.34 1075.12,-2907.86 1112.1,-3012.05 1128.8,-3060.35"/>
<polygon fill="midnightblue" stroke="midnightblue" points="1125.57,-3061.74 1132.13,-3070.05 1132.19,-3059.46 1125.57,-3061.74"/>
</g>
<!-- Node37&#45;&gt;Node15 -->
<g id="edge120" class="edge"><title>Node37&#45;&gt;Node15</title>
<path fill="none" stroke="midnightblue" d="M774.998,-935.072C788.767,-972.466 834.65,-1100.69 858,-1210.34 884.869,-1336.5 838.896,-1381.7 894,-1498.34 905.24,-1522.13 926.792,-1543.31 943.399,-1557.24"/>
<polygon fill="midnightblue" stroke="midnightblue" points="941.575,-1560.26 951.551,-1563.83 945.976,-1554.82 941.575,-1560.26"/>
</g>
<!-- Node37&#45;&gt;Node20 -->
<g id="edge132" class="edge"><title>Node37&#45;&gt;Node20</title>
<path fill="none" stroke="midnightblue" d="M783.198,-935.034C815.96,-963.764 906.1,-1042.81 946.254,-1078.02"/>
<polygon fill="midnightblue" stroke="midnightblue" points="943.98,-1080.68 953.806,-1084.64 948.596,-1075.42 943.98,-1080.68"/>
</g>
<!-- Node37&#45;&gt;Node23 -->
<g id="edge118" class="edge"><title>Node37&#45;&gt;Node23</title>
<path fill="none" stroke="midnightblue" d="M825.059,-913.803C852.244,-908.505 885.093,-902.104 912.237,-896.814"/>
<polygon fill="midnightblue" stroke="midnightblue" points="913.191,-900.194 922.337,-894.846 911.852,-893.323 913.191,-900.194"/>
</g>
<!-- Node37&#45;&gt;Node26 -->
<g id="edge134" class="edge"><title>Node37&#45;&gt;Node26</title>
<path fill="none" stroke="midnightblue" d="M808.296,-934.906C823.701,-939.31 841.727,-944.513 858,-949.337 879.226,-955.629 902.74,-962.791 922.394,-968.832"/>
<polygon fill="midnightblue" stroke="midnightblue" points="921.408,-972.19 931.995,-971.787 923.467,-965.5 921.408,-972.19"/>
</g>
<!-- Node37&#45;&gt;Node27 -->
<g id="edge126" class="edge"><title>Node37&#45;&gt;Node27</title>
<path fill="none" stroke="midnightblue" d="M784.156,-913.583C806.519,-895.365 853.467,-857.385 894,-826.337 910.225,-813.909 928.807,-800.245 943.029,-789.903"/>
<polygon fill="midnightblue" stroke="midnightblue" points="945.22,-792.638 951.261,-783.935 941.11,-786.971 945.22,-792.638"/>
</g>
<!-- Node37&#45;&gt;Node28 -->
<g id="edge122" class="edge"><title>Node37&#45;&gt;Node28</title>
<path fill="none" stroke="midnightblue" d="M774.044,-913.638C784.472,-878.966 822.149,-768.755 894,-713.337 898.804,-709.632 904.256,-706.613 909.958,-704.153"/>
<polygon fill="midnightblue" stroke="midnightblue" points="911.57,-707.288 919.721,-700.519 909.128,-700.727 911.57,-707.288"/>
</g>
<!-- Node37&#45;&gt;Node29 -->
<g id="edge124" class="edge"><title>Node37&#45;&gt;Node29</title>
<path fill="none" stroke="midnightblue" d="M775.577,-913.584C789.001,-883.368 831.314,-797.065 894,-753.337 898.522,-750.183 903.527,-747.524 908.73,-745.284"/>
<polygon fill="midnightblue" stroke="midnightblue" points="910.131,-748.497 918.248,-741.688 907.656,-741.949 910.131,-748.497"/>
</g>
<!-- Node37&#45;&gt;Node30 -->
<g id="edge128" class="edge"><title>Node37&#45;&gt;Node30</title>
<path fill="none" stroke="midnightblue" d="M790.579,-913.832C814.482,-901.307 856.378,-880.318 894,-866.337 900.291,-863.999 906.98,-861.79 913.649,-859.752"/>
<polygon fill="midnightblue" stroke="midnightblue" points="914.752,-863.076 923.357,-856.894 912.776,-856.36 914.752,-863.076"/>
</g>
<!-- Node37&#45;&gt;Node38 -->
<g id="edge130" class="edge"><title>Node37&#45;&gt;Node38</title>
<path fill="none" stroke="midnightblue" d="M775.574,-935.199C789.294,-966.693 832.956,-1059.36 894,-1115.34 904.11,-1124.61 916.903,-1132.31 928.892,-1138.3"/>
<polygon fill="midnightblue" stroke="midnightblue" points="927.731,-1141.63 938.267,-1142.74 930.724,-1135.3 927.731,-1141.63"/>
</g>
<!-- Node40&#45;&gt;Node15 -->
<g id="edge176" class="edge"><title>Node40&#45;&gt;Node15</title>
<path fill="none" stroke="midnightblue" d="M429.305,-1335.77C503.251,-1305.41 728.358,-1226.66 858,-1331.34 917.075,-1379.03 858.579,-1431.18 894,-1498.34 906.275,-1521.61 927.691,-1542.87 943.985,-1556.94"/>
<polygon fill="midnightblue" stroke="midnightblue" points="942.049,-1559.89 951.963,-1563.62 946.543,-1554.52 942.049,-1559.89"/>
</g>
<!-- Node40&#45;&gt;Node18 -->
<g id="edge156" class="edge"><title>Node40&#45;&gt;Node18</title>
<path fill="none" stroke="midnightblue" d="M407.15,-1357.11C425.201,-1447.57 551.454,-2080.28 575.905,-2202.81"/>
<polygon fill="midnightblue" stroke="midnightblue" points="572.502,-2203.65 577.891,-2212.77 579.366,-2202.28 572.502,-2203.65"/>
</g>
<!-- Node40&#45;&gt;Node19 -->
<g id="edge160" class="edge"><title>Node40&#45;&gt;Node19</title>
<path fill="none" stroke="midnightblue" d="M455.113,-1335.83C549.901,-1319.22 755.142,-1299.48 858,-1413.34 917.052,-1478.7 874.784,-2119.37 894,-2205.34 906.207,-2259.95 934.518,-2319.28 951.78,-2352.33"/>
<polygon fill="midnightblue" stroke="midnightblue" points="948.768,-2354.12 956.542,-2361.32 954.953,-2350.85 948.768,-2354.12"/>
</g>
<!-- Node40&#45;&gt;Node22 -->
<g id="edge158" class="edge"><title>Node40&#45;&gt;Node22</title>
<path fill="none" stroke="midnightblue" d="M405.591,-1356.97C410.636,-1446.03 447.862,-2068.49 512,-2243.34 559.716,-2373.41 573.169,-2420.19 684,-2503.34 690.985,-2508.58 699.005,-2512.81 707.288,-2516.23"/>
<polygon fill="midnightblue" stroke="midnightblue" points="706.118,-2519.53 716.71,-2519.76 708.571,-2512.98 706.118,-2519.53"/>
</g>
<!-- Node40&#45;&gt;Node23 -->
<g id="edge152" class="edge"><title>Node40&#45;&gt;Node23</title>
<path fill="none" stroke="midnightblue" d="M406.59,-1335.79C412.72,-1298.89 438.271,-1174.45 512,-1111.34 559.676,-1070.52 606.049,-1120.02 648,-1073.34 712.763,-1001.28 610.051,-920.934 684,-858.337 743.026,-808.373 781.288,-848.555 858,-858.337 864.219,-859.13 891.768,-866.282 917.483,-873.158"/>
<polygon fill="midnightblue" stroke="midnightblue" points="916.635,-876.554 927.2,-875.766 918.449,-869.794 916.635,-876.554"/>
</g>
<!-- Node40&#45;&gt;Node24 -->
<g id="edge170" class="edge"><title>Node40&#45;&gt;Node24</title>
<path fill="none" stroke="midnightblue" d="M411.42,-1357.19C426.567,-1382.17 466.687,-1444.77 512,-1486.34 646.291,-1609.52 767.391,-1548.23 858,-1706.34 912.731,-1801.84 867.904,-2589.4 894,-2696.34 905.431,-2743.18 932.073,-2792.83 949.546,-2822.18"/>
<polygon fill="midnightblue" stroke="midnightblue" points="946.692,-2824.23 954.866,-2830.97 952.68,-2820.6 946.692,-2824.23"/>
</g>
<!-- Node40&#45;&gt;Node25 -->
<g id="edge164" class="edge"><title>Node40&#45;&gt;Node25</title>
<path fill="none" stroke="midnightblue" d="M406.675,-1356.84C415.474,-1410.71 457.996,-1655.5 512,-1706.34 565.026,-1756.25 651.07,-1767.43 709.292,-1768.66"/>
<polygon fill="midnightblue" stroke="midnightblue" points="709.424,-1772.16 719.465,-1768.78 709.507,-1765.16 709.424,-1772.16"/>
</g>
<!-- Node40&#45;&gt;Node26 -->
<g id="edge168" class="edge"><title>Node40&#45;&gt;Node26</title>
<path fill="none" stroke="midnightblue" d="M420.062,-1335.64C461.908,-1305.19 580.895,-1213.66 648,-1111.34 672.99,-1073.23 648.121,-1043.43 684,-1015.34 716.507,-989.886 827.215,-983.613 899.865,-982.317"/>
<polygon fill="midnightblue" stroke="midnightblue" points="900.348,-985.81 910.294,-982.16 900.242,-978.811 900.348,-985.81"/>
</g>
<!-- Node40&#45;&gt;Node27 -->
<g id="edge172" class="edge"><title>Node40&#45;&gt;Node27</title>
<path fill="none" stroke="midnightblue" d="M405.347,-1335.77C408.062,-1258.98 428.05,-786.378 512,-676.337 607.613,-551.008 734.567,-500.287 858,-598.337 913.377,-642.327 845.071,-702.272 894,-753.337 898.197,-757.718 903.264,-761.166 908.742,-763.875"/>
<polygon fill="midnightblue" stroke="midnightblue" points="907.688,-767.225 918.269,-767.772 910.339,-760.746 907.688,-767.225"/>
</g>
<!-- Node40&#45;&gt;Node28 -->
<g id="edge154" class="edge"><title>Node40&#45;&gt;Node28</title>
<path fill="none" stroke="midnightblue" d="M405.223,-1335.56C407.7,-1220.24 431.516,-216.64 512,-115.337 608.904,6.63291 738.958,41.1415 858,-59.3372 906.468,-100.247 953.98,-568 964.05,-672.652"/>
<polygon fill="midnightblue" stroke="midnightblue" points="960.566,-672.985 965,-682.607 967.534,-672.32 960.566,-672.985"/>
</g>
<!-- Node40&#45;&gt;Node29 -->
<g id="edge150" class="edge"><title>Node40&#45;&gt;Node29</title>
<path fill="none" stroke="midnightblue" d="M405.354,-1335.82C408.668,-1240.75 435.82,-528.666 512,-331.337 558.615,-210.592 568.573,-154.895 684,-96.3372 752.966,-61.3495 801.747,-43.2708 858,-96.3372 957.905,-190.583 807.739,-606.461 894,-713.337 898.064,-718.372 903.277,-722.205 909.038,-725.112"/>
<polygon fill="midnightblue" stroke="midnightblue" points="907.873,-728.416 918.454,-728.958 910.52,-721.936 907.873,-728.416"/>
</g>
<!-- Node40&#45;&gt;Node30 -->
<g id="edge174" class="edge"><title>Node40&#45;&gt;Node30</title>
<path fill="none" stroke="midnightblue" d="M407.477,-1335.62C426.709,-1253.48 554.834,-724.309 684,-636.337 747.917,-592.805 797.514,-588.151 858,-636.337 913.993,-680.944 854.718,-733.488 894,-793.337 904.227,-808.919 920.701,-821.544 935.311,-830.558"/>
<polygon fill="midnightblue" stroke="midnightblue" points="933.696,-833.668 944.095,-835.698 937.232,-827.626 933.696,-833.668"/>
</g>
<!-- Node40&#45;&gt;Node35 -->
<g id="edge162" class="edge"><title>Node40&#45;&gt;Node35</title>
<path fill="none" stroke="midnightblue" d="M415.291,-1356.86C433.656,-1375.31 473.748,-1414.11 512,-1441.34 655.637,-1543.56 765.357,-1485.34 858,-1635.34 902.949,-1708.11 880.983,-2319.8 894,-2404.34 908.765,-2500.23 943.961,-2611.06 958.996,-2655.92"/>
<polygon fill="midnightblue" stroke="midnightblue" points="955.76,-2657.28 962.281,-2665.63 962.39,-2655.03 955.76,-2657.28"/>
</g>
<!-- Node40&#45;&gt;Node39 -->
<g id="edge166" class="edge"><title>Node40&#45;&gt;Node39</title>
<path fill="none" stroke="midnightblue" d="M407.139,-1356.88C417.474,-1406.83 463.722,-1619.08 512,-1663.34 563.409,-1710.46 644.046,-1723.94 701.683,-1727.05"/>
<polygon fill="midnightblue" stroke="midnightblue" points="701.659,-1730.55 711.805,-1727.5 701.972,-1723.56 701.659,-1730.55"/>
</g>
<!-- Node41&#45;&gt;Node3 -->
<g id="edge214" class="edge"><title>Node41&#45;&gt;Node3</title>
<path fill="none" stroke="midnightblue" d="M582.133,-1432.16C589.6,-1467.26 617.788,-1579.27 684,-1640.34 744.799,-1696.41 810.041,-1638.95 858,-1706.34 938.439,-1819.36 808.471,-2845.12 894,-2954.34 898.299,-2959.83 903.967,-2963.89 910.239,-2966.89"/>
<polygon fill="midnightblue" stroke="midnightblue" points="909.183,-2970.24 919.773,-2970.56 911.698,-2963.7 909.183,-2970.24"/>
</g>
<!-- Node41&#45;&gt;Node4 -->
<g id="edge216" class="edge"><title>Node41&#45;&gt;Node4</title>
<path fill="none" stroke="midnightblue" d="M584.83,-1432.23C597.538,-1459.89 634.376,-1533.84 684,-1579.34 748.791,-1638.73 811.89,-1598.51 858,-1673.34 930.367,-1790.78 808.941,-2805.74 894,-2914.34 897.69,-2919.05 902.387,-2922.71 907.61,-2925.55"/>
<polygon fill="midnightblue" stroke="midnightblue" points="906.245,-2928.77 916.809,-2929.59 909.06,-2922.36 906.245,-2928.77"/>
</g>
<!-- Node41&#45;&gt;Node8 -->
<g id="edge192" class="edge"><title>Node41&#45;&gt;Node8</title>
<path fill="none" stroke="midnightblue" d="M582.346,-1432.13C602.048,-1522.8 739.845,-2156.96 766.53,-2279.77"/>
<polygon fill="midnightblue" stroke="midnightblue" points="763.154,-2280.71 768.698,-2289.74 769.995,-2279.23 763.154,-2280.71"/>
</g>
<!-- Node41&#45;&gt;Node15 -->
<g id="edge180" class="edge"><title>Node41&#45;&gt;Node15</title>
<path fill="none" stroke="midnightblue" d="M605.345,-1410.77C657.704,-1390.77 779.469,-1353.95 858,-1407.34 893.97,-1431.79 870.619,-1461.66 894,-1498.34 908.311,-1520.78 929.815,-1542.42 945.597,-1556.83"/>
<polygon fill="midnightblue" stroke="midnightblue" points="943.469,-1559.62 953.259,-1563.67 948.131,-1554.4 943.469,-1559.62"/>
</g>
<!-- Node41&#45;&gt;Node19 -->
<g id="edge202" class="edge"><title>Node41&#45;&gt;Node19</title>
<path fill="none" stroke="midnightblue" d="M635.204,-1417.93C707.446,-1414.79 828.362,-1414.53 858,-1445.34 916.608,-1506.26 875.48,-2122.85 894,-2205.34 906.259,-2259.94 934.553,-2319.27 951.796,-2352.33"/>
<polygon fill="midnightblue" stroke="midnightblue" points="948.783,-2354.12 956.554,-2361.32 954.97,-2350.84 948.783,-2354.12"/>
</g>
<!-- Node41&#45;&gt;Node20 -->
<g id="edge210" class="edge"><title>Node41&#45;&gt;Node20</title>
<path fill="none" stroke="midnightblue" d="M581.036,-1410.77C585.417,-1372 605.966,-1236.37 684,-1168.34 744.211,-1115.84 837.48,-1100.34 900.089,-1096.16"/>
<polygon fill="midnightblue" stroke="midnightblue" points="900.472,-1099.64 910.25,-1095.56 900.062,-1092.65 900.472,-1099.64"/>
</g>
<!-- Node41&#45;&gt;Node21 -->
<g id="edge206" class="edge"><title>Node41&#45;&gt;Node21</title>
<path fill="none" stroke="midnightblue" d="M587.327,-1432.16C602.745,-1454.17 640.71,-1504.51 684,-1533.34 752.586,-1579.01 809.905,-1530.43 858,-1597.34 940.851,-1712.59 806.521,-2762.55 894,-2874.34 897.448,-2878.74 901.777,-2882.23 906.594,-2884.99"/>
<polygon fill="midnightblue" stroke="midnightblue" points="905.157,-2888.18 915.703,-2889.2 908.093,-2881.83 905.157,-2888.18"/>
</g>
<!-- Node41&#45;&gt;Node22 -->
<g id="edge208" class="edge"><title>Node41&#45;&gt;Node22</title>
<path fill="none" stroke="midnightblue" d="M580.126,-1432.23C581.231,-1508.05 591.629,-1964.48 684,-2320.34 702.941,-2393.31 742.062,-2474.32 760.696,-2510.73"/>
<polygon fill="midnightblue" stroke="midnightblue" points="757.671,-2512.5 765.375,-2519.77 763.889,-2509.28 757.671,-2512.5"/>
</g>
<!-- Node41&#45;&gt;Node23 -->
<g id="edge182" class="edge"><title>Node41&#45;&gt;Node23</title>
<path fill="none" stroke="midnightblue" d="M582.519,-1410.66C591.812,-1371.13 624.836,-1229.2 648,-1111.34 657.004,-1065.52 649.244,-935.515 684,-904.337 747.996,-846.93 856.522,-859.684 918.624,-873.443"/>
<polygon fill="midnightblue" stroke="midnightblue" points="918.016,-876.895 928.548,-875.738 919.594,-870.075 918.016,-876.895"/>
</g>
<!-- Node41&#45;&gt;Node24 -->
<g id="edge218" class="edge"><title>Node41&#45;&gt;Node24</title>
<path fill="none" stroke="midnightblue" d="M598.591,-1432.01C619.247,-1443.75 653.688,-1463 684,-1478.34 760.11,-1516.86 811.011,-1488.14 858,-1559.34 927.626,-1664.83 864.322,-2573.47 894,-2696.34 905.321,-2743.21 931.994,-2792.85 949.504,-2822.19"/>
<polygon fill="midnightblue" stroke="midnightblue" points="946.655,-2824.25 954.836,-2830.98 952.639,-2820.61 946.655,-2824.25"/>
</g>
<!-- Node41&#45;&gt;Node25 -->
<g id="edge188" class="edge"><title>Node41&#45;&gt;Node25</title>
<path fill="none" stroke="midnightblue" d="M581.983,-1432.15C591.589,-1483.39 634.833,-1701.12 684,-1746.34 691.197,-1752.96 700.13,-1757.53 709.506,-1760.66"/>
<polygon fill="midnightblue" stroke="midnightblue" points="708.811,-1764.1 719.384,-1763.42 710.699,-1757.36 708.811,-1764.1"/>
</g>
<!-- Node41&#45;&gt;Node26 -->
<g id="edge196" class="edge"><title>Node41&#45;&gt;Node26</title>
<path fill="none" stroke="midnightblue" d="M583.155,-1410.64C599.326,-1355.96 672.584,-1109.66 684,-1097.34 717.198,-1061.49 849.428,-1017.47 920.405,-995.756"/>
<polygon fill="midnightblue" stroke="midnightblue" points="921.446,-999.098 929.997,-992.843 919.412,-992.399 921.446,-999.098"/>
</g>
<!-- Node41&#45;&gt;Node27 -->
<g id="edge198" class="edge"><title>Node41&#45;&gt;Node27</title>
<path fill="none" stroke="midnightblue" d="M580.2,-1410.64C581.81,-1336.83 594.999,-903.671 684,-816.337 742.765,-758.673 844.13,-757.769 907.985,-764.223"/>
<polygon fill="midnightblue" stroke="midnightblue" points="907.962,-767.742 918.286,-765.361 908.731,-760.784 907.962,-767.742"/>
</g>
<!-- Node41&#45;&gt;Node28 -->
<g id="edge184" class="edge"><title>Node41&#45;&gt;Node28</title>
<path fill="none" stroke="midnightblue" d="M580.751,-1410.71C586.85,-1325.79 629.459,-759.26 684,-709.337 715.762,-680.265 836.651,-683.55 909.44,-688.48"/>
<polygon fill="midnightblue" stroke="midnightblue" points="909.592,-691.999 919.814,-689.215 910.087,-685.017 909.592,-691.999"/>
</g>
<!-- Node41&#45;&gt;Node29 -->
<g id="edge186" class="edge"><title>Node41&#45;&gt;Node29</title>
<path fill="none" stroke="midnightblue" d="M580.886,-1410.69C587.769,-1329.13 633.787,-805.285 684,-758.337 745.471,-700.863 850.86,-709.086 913.924,-720.836"/>
<polygon fill="midnightblue" stroke="midnightblue" points="913.561,-724.331 924.048,-722.82 914.908,-717.462 913.561,-724.331"/>
</g>
<!-- Node41&#45;&gt;Node30 -->
<g id="edge200" class="edge"><title>Node41&#45;&gt;Node30</title>
<path fill="none" stroke="midnightblue" d="M582.154,-1410.82C590.79,-1368.55 623.62,-1206.87 648,-1073.34 656.583,-1026.33 648.324,-893.128 684,-861.337 748.839,-803.56 858.967,-818.559 920.664,-833.282"/>
<polygon fill="midnightblue" stroke="midnightblue" points="919.953,-836.712 930.502,-835.726 921.641,-829.918 919.953,-836.712"/>
</g>
<!-- Node41&#45;&gt;Node35 -->
<g id="edge212" class="edge"><title>Node41&#45;&gt;Node35</title>
<path fill="none" stroke="midnightblue" d="M625.022,-1431.85C643.312,-1436.09 664.655,-1440.99 684,-1445.34 761.232,-1462.68 807.162,-1422.66 858,-1483.34 890.887,-1522.59 886.403,-2353.7 894,-2404.34 908.396,-2500.29 943.795,-2611.09 958.94,-2655.93"/>
<polygon fill="midnightblue" stroke="midnightblue" points="955.709,-2657.3 962.25,-2665.63 962.334,-2655.04 955.709,-2657.3"/>
</g>
<!-- Node41&#45;&gt;Node38 -->
<g id="edge204" class="edge"><title>Node41&#45;&gt;Node38</title>
<path fill="none" stroke="midnightblue" d="M581.888,-1410.47C588.603,-1375.28 614.751,-1263.66 684,-1210.34 700.263,-1197.82 811.898,-1177.87 889.729,-1165.2"/>
<polygon fill="midnightblue" stroke="midnightblue" points="890.684,-1168.6 899.996,-1163.54 889.566,-1161.69 890.684,-1168.6"/>
</g>
<!-- Node41&#45;&gt;Node39 -->
<g id="edge190" class="edge"><title>Node41&#45;&gt;Node39</title>
<path fill="none" stroke="midnightblue" d="M580.649,-1432.07C583.738,-1473.42 600.522,-1623.96 684,-1701.34 689.388,-1706.33 695.71,-1710.34 702.444,-1713.54"/>
<polygon fill="midnightblue" stroke="midnightblue" points="701.257,-1716.84 711.835,-1717.45 703.943,-1710.38 701.257,-1716.84"/>
</g>
<!-- Node42 -->
<g id="node139" class="node"><title>Node42</title>
<a xlink:href="classtetgenmesh.xhtml#ad7597699d6fc2771701cfd85673d39f9" target="_top" xlink:title="tetgenmesh::tri_edge_test">
<polygon fill="none" stroke="red" points="706,-645.837 706,-666.837 836,-666.837 836,-645.837 706,-645.837"/>
<text text-anchor="middle" x="771" y="-653.837" font-family="Helvetica,sans-Serif" font-size="10.00">tetgenmesh::tri_edge_test</text>
</a>
</g>
<!-- Node41&#45;&gt;Node42 -->
<g id="edge194" class="edge"><title>Node41&#45;&gt;Node42</title>
<path fill="none" stroke="midnightblue" d="M582.517,-1410.58C592.379,-1368.05 628.797,-1207.4 648,-1073.34 660.404,-986.743 628.231,-748.733 684,-681.337 687.632,-676.948 691.98,-673.301 696.768,-670.273"/>
<polygon fill="midnightblue" stroke="midnightblue" points="698.618,-673.253 705.802,-665.466 695.33,-667.074 698.618,-673.253"/>
</g>
<!-- Node43&#45;&gt;Node15 -->
<g id="edge238" class="edge"><title>Node43&#45;&gt;Node15</title>
<path fill="none" stroke="midnightblue" d="M602.741,-2659.99C655.412,-2682.9 786.706,-2729.66 858,-2663.34 898.618,-2625.55 888.644,-2220.56 894,-2165.34 915.689,-1941.74 952.447,-1671.82 963.054,-1595.4"/>
<polygon fill="midnightblue" stroke="midnightblue" points="966.563,-1595.58 964.475,-1585.19 959.63,-1594.62 966.563,-1595.58"/>
</g>
<!-- Node43&#45;&gt;Node19 -->
<g id="edge222" class="edge"><title>Node43&#45;&gt;Node19</title>
<path fill="none" stroke="midnightblue" d="M596.25,-2660.02C642.129,-2688.7 774.722,-2761.3 858,-2701.34 907.634,-2665.6 947.578,-2476.68 961.079,-2405.5"/>
<polygon fill="midnightblue" stroke="midnightblue" points="964.551,-2405.98 962.947,-2395.51 957.67,-2404.69 964.551,-2405.98"/>
</g>
<!-- Node43&#45;&gt;Node20 -->
<g id="edge230" class="edge"><title>Node43&#45;&gt;Node20</title>
<path fill="none" stroke="midnightblue" d="M642.135,-2654.33C714.973,-2658.66 829.406,-2660.22 858,-2630.34 915.511,-2570.23 850.191,-1204.06 894,-1133.34 900.16,-1123.39 909.861,-1115.91 920.171,-1110.33"/>
<polygon fill="midnightblue" stroke="midnightblue" points="921.837,-1113.41 929.314,-1105.91 918.788,-1107.11 921.837,-1113.41"/>
</g>
<!-- Node43&#45;&gt;Node22 -->
<g id="edge226" class="edge"><title>Node43&#45;&gt;Node22</title>
<path fill="none" stroke="midnightblue" d="M587.851,-2638.76C603.644,-2618.28 641.407,-2573.24 684,-2550.34 691.181,-2546.48 699.085,-2543.36 707.111,-2540.84"/>
<polygon fill="midnightblue" stroke="midnightblue" points="708.257,-2544.15 716.922,-2538.05 706.346,-2537.42 708.257,-2544.15"/>
</g>
<!-- Node43&#45;&gt;Node24 -->
<g id="edge236" class="edge"><title>Node43&#45;&gt;Node24</title>
<path fill="none" stroke="midnightblue" d="M585.42,-2659.87C598.673,-2684.52 635.23,-2746.24 684,-2777.34 749.797,-2819.28 838.936,-2836.46 899.248,-2843.49"/>
<polygon fill="midnightblue" stroke="midnightblue" points="899.093,-2846.99 909.416,-2844.61 899.859,-2840.03 899.093,-2846.99"/>
</g>
<!-- Node43&#45;&gt;Node25 -->
<g id="edge224" class="edge"><title>Node43&#45;&gt;Node25</title>
<path fill="none" stroke="midnightblue" d="M582.278,-2638.81C601.726,-2548.9 739.783,-1910.66 766.521,-1787.04"/>
<polygon fill="midnightblue" stroke="midnightblue" points="770,-1787.52 768.693,-1777 763.158,-1786.04 770,-1787.52"/>
</g>
<!-- Node43&#45;&gt;Node31 -->
<g id="edge228" class="edge"><title>Node43&#45;&gt;Node31</title>
<path fill="none" stroke="midnightblue" d="M616.909,-2638.83C627.365,-2635.05 638.483,-2630.23 648,-2624.34 666.709,-2612.75 664.596,-2600.72 684,-2590.34 690.388,-2586.92 697.344,-2584.08 704.448,-2581.73"/>
<polygon fill="midnightblue" stroke="midnightblue" points="705.614,-2585.03 714.188,-2578.81 703.604,-2578.33 705.614,-2585.03"/>
</g>
<!-- Node43&#45;&gt;Node32 -->
<g id="edge232" class="edge"><title>Node43&#45;&gt;Node32</title>
<path fill="none" stroke="midnightblue" d="M631.436,-2638.83C655.529,-2633.92 684.414,-2628.02 709.64,-2622.87"/>
<polygon fill="midnightblue" stroke="midnightblue" points="710.375,-2626.29 719.472,-2620.86 708.974,-2619.43 710.375,-2626.29"/>
</g>
<!-- Node43&#45;&gt;Node33 -->
<g id="edge234" class="edge"><title>Node43&#45;&gt;Node33</title>
<path fill="none" stroke="midnightblue" d="M581.983,-2660.15C591.589,-2711.39 634.833,-2929.12 684,-2974.34 690.002,-2979.86 697.211,-2983.95 704.878,-2986.98"/>
<polygon fill="midnightblue" stroke="midnightblue" points="703.812,-2990.31 714.406,-2990.16 706.029,-2983.67 703.812,-2990.31"/>
</g>
<!-- Node44&#45;&gt;Node13 -->
<g id="edge256" class="edge"><title>Node44&#45;&gt;Node13</title>
<path fill="none" stroke="midnightblue" d="M642.541,-3190.34C659.993,-3190.34 679.118,-3190.34 697.156,-3190.34"/>
<polygon fill="midnightblue" stroke="midnightblue" points="697.338,-3193.84 707.338,-3190.34 697.338,-3186.84 697.338,-3193.84"/>
</g>
<!-- Node44&#45;&gt;Node36 -->
<g id="edge258" class="edge"><title>Node44&#45;&gt;Node36</title>
<path fill="none" stroke="midnightblue" d="M581.284,-3200.91C586.325,-3237.2 608.367,-3357 684,-3404.34 749.553,-3445.36 785.927,-3432.37 858,-3404.34 997.949,-3349.9 1092.98,-3180.15 1125.56,-3114.05"/>
<polygon fill="midnightblue" stroke="midnightblue" points="1128.87,-3115.25 1130.08,-3104.72 1122.57,-3112.2 1128.87,-3115.25"/>
</g>
<!-- Node45&#45;&gt;Node2 -->
<g id="edge268" class="edge"><title>Node45&#45;&gt;Node2</title>
<path fill="none" stroke="midnightblue" d="M582.814,-362.093C591.938,-395.056 623.666,-495.965 684,-554.337 745.442,-613.781 810.865,-565.015 858,-636.337 887.365,-680.771 889.776,-1541.25 894,-1594.34 911.818,-1818.28 951.278,-2087.96 962.789,-2164.3"/>
<polygon fill="midnightblue" stroke="midnightblue" points="959.376,-2165.13 964.334,-2174.49 966.297,-2164.08 959.376,-2165.13"/>
</g>
<!-- Node45&#45;&gt;Node14 -->
<g id="edge270" class="edge"><title>Node45&#45;&gt;Node14</title>
<path fill="none" stroke="midnightblue" d="M581.371,-361.966C589.051,-420.719 628.394,-711.529 684,-944.337 708.217,-1045.73 747.989,-1164.07 763.999,-1210.36"/>
<polygon fill="midnightblue" stroke="midnightblue" points="760.699,-1211.52 767.29,-1219.82 767.311,-1209.22 760.699,-1211.52"/>
</g>
<!-- Node45&#45;&gt;Node20 -->
<g id="edge296" class="edge"><title>Node45&#45;&gt;Node20</title>
<path fill="none" stroke="midnightblue" d="M583.709,-361.958C594.405,-391.012 628.164,-472.417 684,-514.337 748.445,-562.721 807.081,-502.875 858,-565.337 919.567,-640.862 858.719,-911.509 894,-1002.34 905.541,-1032.05 929.776,-1060.1 946.935,-1077.48"/>
<polygon fill="midnightblue" stroke="midnightblue" points="944.667,-1080.15 954.249,-1084.67 949.576,-1075.16 944.667,-1080.15"/>
</g>
<!-- Node45&#45;&gt;Node23 -->
<g id="edge282" class="edge"><title>Node45&#45;&gt;Node23</title>
<path fill="none" stroke="midnightblue" d="M591.647,-362.026C610.048,-378.44 647.515,-409.98 684,-429.337 756.262,-467.675 807.397,-425.065 858,-489.337 910.061,-555.461 839.943,-801.835 894,-866.337 898.927,-872.216 905.419,-876.446 912.489,-879.476"/>
<polygon fill="midnightblue" stroke="midnightblue" points="911.803,-882.942 922.398,-882.905 914.092,-876.327 911.803,-882.942"/>
</g>
<!-- Node45&#45;&gt;Node26 -->
<g id="edge280" class="edge"><title>Node45&#45;&gt;Node26</title>
<path fill="none" stroke="midnightblue" d="M586.081,-361.898C600.192,-385.469 637.528,-442.697 684,-473.337 751.601,-517.908 806.941,-464.492 858,-527.337 911.347,-592.999 858.998,-829.316 894,-906.337 904.822,-930.151 926.23,-951.208 942.903,-965.082"/>
<polygon fill="midnightblue" stroke="midnightblue" points="941.117,-968.136 951.108,-971.66 945.495,-962.674 941.117,-968.136"/>
</g>
<!-- Node45&#45;&gt;Node27 -->
<g id="edge288" class="edge"><title>Node45&#45;&gt;Node27</title>
<path fill="none" stroke="midnightblue" d="M647.676,-347.676C720.376,-345.334 829.357,-346.946 858,-375.337 917.929,-434.739 839.809,-688.659 894,-753.337 898.101,-758.232 903.286,-761.983 908.988,-764.851"/>
<polygon fill="midnightblue" stroke="midnightblue" points="907.71,-768.11 918.29,-768.666 910.366,-761.633 907.71,-768.11"/>
</g>
<!-- Node45&#45;&gt;Node28 -->
<g id="edge274" class="edge"><title>Node45&#45;&gt;Node28</title>
<path fill="none" stroke="midnightblue" d="M582.349,-340.774C590.135,-308.623 618.42,-211.867 684,-174.337 751.12,-135.926 798.005,-125.541 858,-174.337 937.517,-239.011 960.422,-584.034 965.031,-672.603"/>
<polygon fill="midnightblue" stroke="midnightblue" points="961.542,-672.913 965.535,-682.726 968.534,-672.565 961.542,-672.913"/>
</g>
<!-- Node45&#45;&gt;Node29 -->
<g id="edge286" class="edge"><title>Node45&#45;&gt;Node29</title>
<path fill="none" stroke="midnightblue" d="M602.636,-340.799C655.085,-318.126 785.939,-271.846 858,-337.337 920.117,-393.791 840.077,-649.011 894,-713.337 898.102,-718.231 903.288,-721.982 908.99,-724.849"/>
<polygon fill="midnightblue" stroke="midnightblue" points="907.712,-728.108 918.293,-728.664 910.368,-721.631 907.712,-728.108"/>
</g>
<!-- Node45&#45;&gt;Node30 -->
<g id="edge276" class="edge"><title>Node45&#45;&gt;Node30</title>
<path fill="none" stroke="midnightblue" d="M626.981,-361.877C698.358,-378.889 828.915,-414.26 858,-451.337 952.334,-571.592 817.983,-660.742 894,-793.337 903.142,-809.283 919.233,-821.818 933.888,-830.685"/>
<polygon fill="midnightblue" stroke="midnightblue" points="932.33,-833.825 942.752,-835.729 935.792,-827.741 932.33,-833.825"/>
</g>
<!-- Node45&#45;&gt;Node37 -->
<g id="edge272" class="edge"><title>Node45&#45;&gt;Node37</title>
<path fill="none" stroke="midnightblue" d="M583.305,-362.033C595.967,-402.936 642.751,-553.329 684,-676.337 712.485,-761.283 748.457,-861.824 763.672,-904.059"/>
<polygon fill="midnightblue" stroke="midnightblue" points="760.391,-905.277 767.076,-913.496 766.975,-902.902 760.391,-905.277"/>
</g>
<!-- Node45&#45;&gt;Node42 -->
<g id="edge290" class="edge"><title>Node45&#45;&gt;Node42</title>
<path fill="none" stroke="midnightblue" d="M582.421,-362.064C590.966,-398.059 622.564,-516.578 684,-593.337 699.823,-613.106 723.335,-629.627 741.93,-640.785"/>
<polygon fill="midnightblue" stroke="midnightblue" points="740.202,-643.829 750.607,-645.822 743.716,-637.775 740.202,-643.829"/>
</g>
<!-- Node46 -->
<g id="node185" class="node"><title>Node46</title>
<a xlink:href="classtetgenmesh.xhtml#a532ef2752219b80766e145980178443e" target="_top" xlink:title="tetgenmesh::enextesymself">
<polygon fill="none" stroke="black" points="702.5,-263.837 702.5,-284.837 839.5,-284.837 839.5,-263.837 702.5,-263.837"/>
<text text-anchor="middle" x="771" y="-271.837" font-family="Helvetica,sans-Serif" font-size="10.00">tetgenmesh::enextesymself</text>
</a>
</g>
<!-- Node45&#45;&gt;Node46 -->
<g id="edge278" class="edge"><title>Node45&#45;&gt;Node46</title>
<path fill="none" stroke="midnightblue" d="M598.69,-340.676C619.148,-329.321 653.155,-311.362 684,-299.337 694.985,-295.055 707.003,-291.135 718.506,-287.734"/>
<polygon fill="midnightblue" stroke="midnightblue" points="719.796,-291.005 728.443,-284.882 717.865,-284.276 719.796,-291.005"/>
</g>
<!-- Node47 -->
<g id="node189" class="node"><title>Node47</title>
<a xlink:href="classtetgenmesh.xhtml#a814827be2067d8163a688c7fc017972f" target="_top" xlink:title="tetgenmesh::interiorangle">
<polygon fill="none" stroke="red" points="708,-223.837 708,-244.837 834,-244.837 834,-223.837 708,-223.837"/>
<text text-anchor="middle" x="771" y="-231.837" font-family="Helvetica,sans-Serif" font-size="10.00">tetgenmesh::interiorangle</text>
</a>
</g>
<!-- Node45&#45;&gt;Node47 -->
<g id="edge284" class="edge"><title>Node45&#45;&gt;Node47</title>
<path fill="none" stroke="midnightblue" d="M588.149,-340.666C604.176,-320.472 641.917,-276.691 684,-254.337 688.504,-251.945 693.287,-249.837 698.204,-247.98"/>
<polygon fill="midnightblue" stroke="midnightblue" points="699.452,-251.253 707.785,-244.71 697.191,-244.628 699.452,-251.253"/>
</g>
<!-- Node48 -->
<g id="node194" class="node"><title>Node48</title>
<a xlink:href="classtetgenmesh.xhtml#a593fc155043632c528675e7297976aff" target="_top" xlink:title="tetgenmesh::enextesym">
<polygon fill="none" stroke="black" points="710,-183.837 710,-204.837 832,-204.837 832,-183.837 710,-183.837"/>
<text text-anchor="middle" x="771" y="-191.837" font-family="Helvetica,sans-Serif" font-size="10.00">tetgenmesh::enextesym</text>
</a>
</g>
<!-- Node45&#45;&gt;Node48 -->
<g id="edge292" class="edge"><title>Node45&#45;&gt;Node48</title>
<path fill="none" stroke="midnightblue" d="M584.797,-340.768C597.174,-314.766 632.836,-247.401 684,-214.337 689.003,-211.104 694.465,-208.391 700.136,-206.114"/>
<polygon fill="midnightblue" stroke="midnightblue" points="701.573,-209.318 709.831,-202.681 699.236,-202.72 701.573,-209.318"/>
</g>
<!-- Node49 -->
<g id="node196" class="node"><title>Node49</title>
<a xlink:href="classtetgenmesh.xhtml#a337957bc71d4df951a580bf88f10b437" target="_top" xlink:title="tetgenmesh::eprevesym">
<polygon fill="none" stroke="black" points="710,-105.837 710,-126.837 832,-126.837 832,-105.837 710,-105.837"/>
<text text-anchor="middle" x="771" y="-113.837" font-family="Helvetica,sans-Serif" font-size="10.00">tetgenmesh::eprevesym</text>
</a>
</g>
<!-- Node45&#45;&gt;Node49 -->
<g id="edge294" class="edge"><title>Node45&#45;&gt;Node49</title>
<path fill="none" stroke="midnightblue" d="M582.081,-340.739C589.391,-306.387 617.152,-197.118 684,-141.337 688.909,-137.241 694.456,-133.815 700.313,-130.95"/>
<polygon fill="midnightblue" stroke="midnightblue" points="701.927,-134.065 709.726,-126.893 699.157,-127.637 701.927,-134.065"/>
</g>
<!-- Node50&#45;&gt;Node3 -->
<g id="edge306" class="edge"><title>Node50&#45;&gt;Node3</title>
<path fill="none" stroke="midnightblue" d="M838.456,-3257.74C845.849,-3254.18 852.628,-3249.5 858,-3243.34 931.502,-3159.07 820.125,-3078.28 894,-2994.34 898.492,-2989.23 904.162,-2985.38 910.34,-2982.48"/>
<polygon fill="midnightblue" stroke="midnightblue" points="911.605,-2985.75 919.676,-2978.88 909.086,-2979.21 911.605,-2985.75"/>
</g>
<!-- Node50&#45;&gt;Node4 -->
<g id="edge308" class="edge"><title>Node50&#45;&gt;Node4</title>
<path fill="none" stroke="midnightblue" d="M838.997,-3257.64C846.205,-3254.09 852.791,-3249.43 858,-3243.34 942.121,-3144.96 809.443,-3052.34 894,-2954.34 897.761,-2949.98 902.381,-2946.53 907.45,-2943.81"/>
<polygon fill="midnightblue" stroke="midnightblue" points="909.207,-2946.86 916.97,-2939.65 906.405,-2940.44 909.207,-2946.86"/>
</g>
</g>
</svg>
        <g id="navigator" transform="translate(0 0)" fill="#404254">
                <rect fill="#f2f5e9" fill-opacity="0.5" stroke="#606060" stroke-width=".5" x="0" y="0" width="60" height="60"/>
                <use id="zoomplus" xlink:href="#zoomPlus" x="17" y="9" onmousedown="handleZoom(evt,'in')"/>
                <use id="zoomminus" xlink:href="#zoomMin" x="42" y="9" onmousedown="handleZoom(evt,'out')"/>
                <use id="reset" xlink:href="#resetDef" x="30" y="36" onmousedown="handleReset()"/>
                <g id="arrowUp" xlink:href="#dirArrow" transform="translate(30 24)" onmousedown="handlePan(0,-1)">
                  <use xlink:href="#rim" fill="#404040">
                        <set attributeName="fill" to="#808080" begin="arrowUp.mouseover" end="arrowUp.mouseout"/>
                  </use>
                  <path fill="none" stroke="white" stroke-width="1.5" d="M0,-3.0v7 M-2.5,-0.5L0,-3.0L2.5,-0.5"/>
                </g>
                <g id="arrowRight" xlink:href="#dirArrow" transform="rotate(90) translate(36 -43)" onmousedown="handlePan(1,0)">
                  <use xlink:href="#rim" fill="#404040">
                        <set attributeName="fill" to="#808080" begin="arrowRight.mouseover" end="arrowRight.mouseout"/>
                  </use>
                  <path fill="none" stroke="white" stroke-width="1.5" d="M0,-3.0v7 M-2.5,-0.5L0,-3.0L2.5,-0.5"/>
                </g>
                <g id="arrowDown" xlink:href="#dirArrow" transform="rotate(180) translate(-30 -48)" onmousedown="handlePan(0,1)">
                  <use xlink:href="#rim" fill="#404040">
                        <set attributeName="fill" to="#808080" begin="arrowDown.mouseover" end="arrowDown.mouseout"/>
                  </use>
                  <path fill="none" stroke="white" stroke-width="1.5" d="M0,-3.0v7 M-2.5,-0.5L0,-3.0L2.5,-0.5"/>
                </g>
                <g id="arrowLeft" xlink:href="#dirArrow" transform="rotate(270) translate(-36 17)" onmousedown="handlePan(-1,0)">
                  <use xlink:href="#rim" fill="#404040">
                        <set attributeName="fill" to="#808080" begin="arrowLeft.mouseover" end="arrowLeft.mouseout"/>
                  </use>
                  <path fill="none" stroke="white" stroke-width="1.5" d="M0,-3.0v7 M-2.5,-0.5L0,-3.0L2.5,-0.5"/>
                </g>
        </g>
        <svg viewBox="0 0 15 15" width="100%" height="30px" preserveAspectRatio="xMaxYMin meet">
         <g id="arrow_out" transform="scale(0.3 0.3)">
          <a xlink:href="classtetgenmesh_aa34a5188a4cee82197394560c388c348_cgraph_org.svg" target="_base">
           <rect id="button" ry="5" rx="5" y="6" x="6" height="38" width="38"
                fill="#f2f5e9" fill-opacity="0.5" stroke="#606060" stroke-width="1.0"/>
           <path id="arrow"
             d="M 11.500037,31.436501 C 11.940474,20.09759 22.043105,11.32322 32.158766,21.979434 L 37.068811,17.246167 C 37.068811,17.246167 37.088388,32 37.088388,32 L 22.160133,31.978069 C 22.160133,31.978069 26.997745,27.140456 26.997745,27.140456 C 18.528582,18.264221 13.291696,25.230495 11.500037,31.436501 z"
             style="fill:#404040;"/>
          </a>
         </g>
        </svg>
</svg>
