<?xml version="1.0" encoding="UTF-8" standalone="no"?>
<!DOCTYPE svg PUBLIC "-//W3C//DTD SVG 1.1//EN"
 "http://www.w3.org/Graphics/SVG/1.1/DTD/svg11.dtd">
<!-- Generated by graphviz version 2.26.3 (20100126.1600)
 -->
<!-- Title: GUIMainWindow::OnMenuImportSD Pages: 1 -->
<!--zoomable 174 -->
<svg id="main" version="1.1" xmlns="http://www.w3.org/2000/svg" xmlns:xlink="http://www.w3.org/1999/xlink" xml:space="preserve" onload="init(evt)">
<style type="text/css"><![CDATA[
.edge:hover path { stroke: red; }
.edge:hover polygon { stroke: red; fill: red; }
]]></style>
<script type="text/javascript"><![CDATA[
var edges = document.getElementsByTagName('g');
if (edges && edges.length) {
  for (var i=0;i<edges.length;i++) {
    if (edges[i].id.substr(0,4)=='edge') {
      edges[i].setAttribute('class','edge');
    }
  }
}
]]></script>
        <defs>
                <circle id="rim" cx="0" cy="0" r="7"/>
                <circle id="rim2" cx="0" cy="0" r="3.5"/>
                <g id="zoomPlus">
                        <use xlink:href="#rim" fill="#404040">
                                <set attributeName="fill" to="#808080" begin="zoomplus.mouseover" end="zoomplus.mouseout"/>
                        </use>
                        <path d="M-4,0h8M0,-4v8" fill="none" stroke="white" stroke-width="1.5" pointer-events="none"/>
                </g>
                <g id="zoomMin">
                        <use xlink:href="#rim" fill="#404040">
                                <set attributeName="fill" to="#808080" begin="zoomminus.mouseover" end="zoomminus.mouseout"/>
                        </use>
                        <path d="M-4,0h8" fill="none" stroke="white" stroke-width="1.5" pointer-events="none"/>
                </g>
                <g id="dirArrow">
                        <path fill="none" stroke="white" stroke-width="1.5" d="M0,-3.0v7 M-2.5,-0.5L0,-3.0L2.5,-0.5"/>
                </g>
               <g id="resetDef">
                       <use xlink:href="#rim2" fill="#404040">
                               <set attributeName="fill" to="#808080" begin="reset.mouseover" end="reset.mouseout"/>
                       </use>
               </g>
        </defs>

<script type="text/javascript">
var viewWidth = 718;
var viewHeight = 174;
var sectionId = 'dynsection-9';
</script>
<script xlink:href="svgpan.js"/>
<svg id="graph" class="graph">
<g id="viewport">
<title>GUIMainWindow::OnMenuImportSD</title>
<!-- Node1 -->
<g id="node1" class="node"><title>Node1</title>
<polygon fill="#bfbfbf" stroke="black" points="0,-81.5 0,-102.5 176,-102.5 176,-81.5 0,-81.5"/>
<text text-anchor="middle" x="88" y="-89.5" font-family="Helvetica,sans-Serif" font-size="10.00">GUIMainWindow::OnMenuImportSD</text>
</g>
<!-- Node2 -->
<g id="node3" class="node"><title>Node2</title>
<a xlink:href="classObjectData.xhtml#a351c17608005c849cb0f26e44beee2ec" target="_top" xlink:title="Lädt einfache Sensordaten und verknüpft sie mit dem Objekt. ">
<polygon fill="none" stroke="black" points="212,-81.5 212,-102.5 352,-102.5 352,-81.5 212,-81.5"/>
<text text-anchor="middle" x="282" y="-89.5" font-family="Helvetica,sans-Serif" font-size="10.00">ObjectData::addSensorData</text>
</a>
</g>
<!-- Node1&#45;&gt;Node2 -->
<g id="edge2" class="edge"><title>Node1&#45;&gt;Node2</title>
<path fill="none" stroke="midnightblue" d="M176.201,-92C184.669,-92 193.228,-92 201.615,-92"/>
<polygon fill="midnightblue" stroke="midnightblue" points="201.744,-95.5001 211.744,-92 201.743,-88.5001 201.744,-95.5001"/>
</g>
<!-- Node3 -->
<g id="node5" class="node"><title>Node3</title>
<a xlink:href="classImporter.xhtml#ae837d750c92450f8e83b2d93eb099f79" target="_top" xlink:title="Lädt von einfache Sensordaten (ohne Zeit) und Verknüpft diese mit dem Objekt. ">
<polygon fill="none" stroke="black" points="388.5,-81.5 388.5,-102.5 519.5,-102.5 519.5,-81.5 388.5,-81.5"/>
<text text-anchor="middle" x="454" y="-89.5" font-family="Helvetica,sans-Serif" font-size="10.00">Importer::LoadSensorData</text>
</a>
</g>
<!-- Node2&#45;&gt;Node3 -->
<g id="edge4" class="edge"><title>Node2&#45;&gt;Node3</title>
<path fill="none" stroke="midnightblue" d="M352.455,-92C360.99,-92 369.737,-92 378.343,-92"/>
<polygon fill="midnightblue" stroke="midnightblue" points="378.361,-95.5001 388.361,-92 378.361,-88.5001 378.361,-95.5001"/>
</g>
<!-- Node4 -->
<g id="node7" class="node"><title>Node4</title>
<a xlink:href="classObjectData.xhtml#a72ac93213382f67b4d5b40c011eb1656" target="_top" xlink:title="Gibt eine Referenz auf die Sensordaten des Objekts zurück. ">
<polygon fill="none" stroke="black" points="556.5,-144.5 556.5,-165.5 709.5,-165.5 709.5,-144.5 556.5,-144.5"/>
<text text-anchor="middle" x="633" y="-152.5" font-family="Helvetica,sans-Serif" font-size="10.00">ObjectData::getSensorDataList</text>
</a>
</g>
<!-- Node3&#45;&gt;Node4 -->
<g id="edge6" class="edge"><title>Node3&#45;&gt;Node4</title>
<path fill="none" stroke="midnightblue" d="M476.325,-102.518C496.751,-111.874 527.969,-125.507 556,-135 563.095,-137.403 570.639,-139.685 578.125,-141.79"/>
<polygon fill="midnightblue" stroke="midnightblue" points="577.32,-145.198 587.888,-144.451 579.16,-138.445 577.32,-145.198"/>
</g>
<!-- Node5 -->
<g id="node9" class="node"><title>Node5</title>
<a xlink:href="Importer_8cpp.xhtml#a0dd0686c00e64af27b47b4c16399d747" target="_top" xlink:title="Gibt den n&#45;ten durch Leerzeichen abgetrennten Block aus einem String zurück. ">
<polygon fill="none" stroke="black" points="596,-104.5 596,-125.5 670,-125.5 670,-104.5 596,-104.5"/>
<text text-anchor="middle" x="633" y="-112.5" font-family="Helvetica,sans-Serif" font-size="10.00">getTextBlock</text>
</a>
</g>
<!-- Node3&#45;&gt;Node5 -->
<g id="edge8" class="edge"><title>Node3&#45;&gt;Node5</title>
<path fill="none" stroke="midnightblue" d="M519.637,-100.434C541.659,-103.263 565.76,-106.36 586.056,-108.968"/>
<polygon fill="midnightblue" stroke="midnightblue" points="585.625,-112.441 595.989,-110.244 586.517,-105.498 585.625,-112.441"/>
</g>
<!-- Node6 -->
<g id="node11" class="node"><title>Node6</title>
<a xlink:href="classObjectData.xhtml#a503d63160a3afe2ea517449f78f8ac42" target="_top" xlink:title="Gibt den Index des aktuell verwendeten Sensordatensatzes zurück. ">
<polygon fill="none" stroke="black" points="558.5,-52 558.5,-86 707.5,-86 707.5,-52 558.5,-52"/>
<text text-anchor="start" x="566.5" y="-73" font-family="Helvetica,sans-Serif" font-size="10.00">ObjectData::getCurrentSensor</text>
<text text-anchor="middle" x="633" y="-60" font-family="Helvetica,sans-Serif" font-size="10.00">Index</text>
</a>
</g>
<!-- Node3&#45;&gt;Node6 -->
<g id="edge10" class="edge"><title>Node3&#45;&gt;Node6</title>
<path fill="none" stroke="midnightblue" d="M519.637,-83.5662C528.967,-82.3673 538.672,-81.1204 548.301,-79.8831"/>
<polygon fill="midnightblue" stroke="midnightblue" points="548.819,-83.3455 558.291,-78.5995 547.926,-76.4025 548.819,-83.3455"/>
</g>
<!-- Node7 -->
<g id="node13" class="node"><title>Node7</title>
<a xlink:href="classObjectData.xhtml#a65bc706c460a62f98e6c24959df04c76" target="_top" xlink:title="Setzt den Index des aktuell verwendeten Sensordatensatzes. ">
<polygon fill="none" stroke="black" points="558.5,-0 558.5,-34 707.5,-34 707.5,-0 558.5,-0"/>
<text text-anchor="start" x="566.5" y="-21" font-family="Helvetica,sans-Serif" font-size="10.00">ObjectData::setCurrentSensor</text>
<text text-anchor="middle" x="633" y="-8" font-family="Helvetica,sans-Serif" font-size="10.00">Index</text>
</a>
</g>
<!-- Node3&#45;&gt;Node7 -->
<g id="edge12" class="edge"><title>Node3&#45;&gt;Node7</title>
<path fill="none" stroke="midnightblue" d="M473.992,-81.4977C494.323,-71.0324 526.888,-54.8557 556,-43 560.5,-41.1673 565.183,-39.3572 569.918,-37.5968"/>
<polygon fill="midnightblue" stroke="midnightblue" points="571.46,-40.7607 579.668,-34.0617 569.074,-34.1799 571.46,-40.7607"/>
</g>
</g>
</svg>
        <g id="navigator" transform="translate(0 0)" fill="#404254">
                <rect fill="#f2f5e9" fill-opacity="0.5" stroke="#606060" stroke-width=".5" x="0" y="0" width="60" height="60"/>
                <use id="zoomplus" xlink:href="#zoomPlus" x="17" y="9" onmousedown="handleZoom(evt,'in')"/>
                <use id="zoomminus" xlink:href="#zoomMin" x="42" y="9" onmousedown="handleZoom(evt,'out')"/>
                <use id="reset" xlink:href="#resetDef" x="30" y="36" onmousedown="handleReset()"/>
                <g id="arrowUp" xlink:href="#dirArrow" transform="translate(30 24)" onmousedown="handlePan(0,-1)">
                  <use xlink:href="#rim" fill="#404040">
                        <set attributeName="fill" to="#808080" begin="arrowUp.mouseover" end="arrowUp.mouseout"/>
                  </use>
                  <path fill="none" stroke="white" stroke-width="1.5" d="M0,-3.0v7 M-2.5,-0.5L0,-3.0L2.5,-0.5"/>
                </g>
                <g id="arrowRight" xlink:href="#dirArrow" transform="rotate(90) translate(36 -43)" onmousedown="handlePan(1,0)">
                  <use xlink:href="#rim" fill="#404040">
                        <set attributeName="fill" to="#808080" begin="arrowRight.mouseover" end="arrowRight.mouseout"/>
                  </use>
                  <path fill="none" stroke="white" stroke-width="1.5" d="M0,-3.0v7 M-2.5,-0.5L0,-3.0L2.5,-0.5"/>
                </g>
                <g id="arrowDown" xlink:href="#dirArrow" transform="rotate(180) translate(-30 -48)" onmousedown="handlePan(0,1)">
                  <use xlink:href="#rim" fill="#404040">
                        <set attributeName="fill" to="#808080" begin="arrowDown.mouseover" end="arrowDown.mouseout"/>
                  </use>
                  <path fill="none" stroke="white" stroke-width="1.5" d="M0,-3.0v7 M-2.5,-0.5L0,-3.0L2.5,-0.5"/>
                </g>
                <g id="arrowLeft" xlink:href="#dirArrow" transform="rotate(270) translate(-36 17)" onmousedown="handlePan(-1,0)">
                  <use xlink:href="#rim" fill="#404040">
                        <set attributeName="fill" to="#808080" begin="arrowLeft.mouseover" end="arrowLeft.mouseout"/>
                  </use>
                  <path fill="none" stroke="white" stroke-width="1.5" d="M0,-3.0v7 M-2.5,-0.5L0,-3.0L2.5,-0.5"/>
                </g>
        </g>
        <svg viewBox="0 0 15 15" width="100%" height="30px" preserveAspectRatio="xMaxYMin meet">
         <g id="arrow_out" transform="scale(0.3 0.3)">
          <a xlink:href="classGUIMainWindow_a405b99746fe6f35ec527c57604e53ce2_cgraph_org.svg" target="_base">
           <rect id="button" ry="5" rx="5" y="6" x="6" height="38" width="38"
                fill="#f2f5e9" fill-opacity="0.5" stroke="#606060" stroke-width="1.0"/>
           <path id="arrow"
             d="M 11.500037,31.436501 C 11.940474,20.09759 22.043105,11.32322 32.158766,21.979434 L 37.068811,17.246167 C 37.068811,17.246167 37.088388,32 37.088388,32 L 22.160133,31.978069 C 22.160133,31.978069 26.997745,27.140456 26.997745,27.140456 C 18.528582,18.264221 13.291696,25.230495 11.500037,31.436501 z"
             style="fill:#404040;"/>
          </a>
         </g>
        </svg>
</svg>
