<?xml version="1.0" encoding="UTF-8" standalone="no"?>
<!DOCTYPE svg PUBLIC "-//W3C//DTD SVG 1.1//EN"
 "http://www.w3.org/Graphics/SVG/1.1/DTD/svg11.dtd">
<!-- Generated by graphviz version 2.26.3 (20100126.1600)
 -->
<!-- Title: tetgenmesh::brio_multiscale_sort Pages: 1 -->
<svg width="442pt" height="42pt"
 viewBox="0.00 0.00 442.00 42.00" xmlns="http://www.w3.org/2000/svg" xmlns:xlink="http://www.w3.org/1999/xlink">
<g id="graph1" class="graph" transform="scale(1 1) rotate(0) translate(4 38)">
<title>tetgenmesh::brio_multiscale_sort</title>
<!-- Node1 -->
<g id="node1" class="node"><title>Node1</title>
<polygon fill="#bfbfbf" stroke="black" points="0.5,-6.5 0.5,-27.5 161.5,-27.5 161.5,-6.5 0.5,-6.5"/>
<text text-anchor="middle" x="81" y="-14.5" font-family="Helvetica,sans-Serif" font-size="10.00">tetgenmesh::brio_multiscale_sort</text>
</g>
<!-- Node2 -->
<g id="node3" class="node"><title>Node2</title>
<a xlink:href="classtetgenmesh.xhtml#a49edbd210b6c45754eca98046b0ef477" target="_top" xlink:title="tetgenmesh::hilbert\l_sort3">
<polygon fill="none" stroke="black" points="198,-0 198,-34 298,-34 298,-0 198,-0"/>
<text text-anchor="start" x="206" y="-21" font-family="Helvetica,sans-Serif" font-size="10.00">tetgenmesh::hilbert</text>
<text text-anchor="middle" x="248" y="-8" font-family="Helvetica,sans-Serif" font-size="10.00">_sort3</text>
</a>
</g>
<!-- Node1&#45;&gt;Node2 -->
<g id="edge2" class="edge"><title>Node1&#45;&gt;Node2</title>
<path fill="none" stroke="midnightblue" d="M161.565,-17C170.341,-17 179.161,-17 187.635,-17"/>
<polygon fill="midnightblue" stroke="midnightblue" points="187.774,-20.5001 197.774,-17 187.774,-13.5001 187.774,-20.5001"/>
</g>
<!-- Node3 -->
<g id="node5" class="node"><title>Node3</title>
<a xlink:href="classtetgenmesh.xhtml#a11227c742897ec6e617a82dc61fc460d" target="_top" xlink:title="tetgenmesh::hilbert\l_split">
<polygon fill="none" stroke="black" points="334,-0 334,-34 434,-34 434,-0 334,-0"/>
<text text-anchor="start" x="342" y="-21" font-family="Helvetica,sans-Serif" font-size="10.00">tetgenmesh::hilbert</text>
<text text-anchor="middle" x="384" y="-8" font-family="Helvetica,sans-Serif" font-size="10.00">_split</text>
</a>
</g>
<!-- Node2&#45;&gt;Node3 -->
<g id="edge4" class="edge"><title>Node2&#45;&gt;Node3</title>
<path fill="none" stroke="midnightblue" d="M298.255,-17C306.539,-17 315.201,-17 323.701,-17"/>
<polygon fill="midnightblue" stroke="midnightblue" points="323.952,-20.5001 333.952,-17 323.952,-13.5001 323.952,-20.5001"/>
</g>
</g>
</svg>
