<?xml version="1.0" encoding="UTF-8" standalone="no"?>
<!DOCTYPE svg PUBLIC "-//W3C//DTD SVG 1.1//EN"
 "http://www.w3.org/Graphics/SVG/1.1/DTD/svg11.dtd">
<!-- Generated by graphviz version 2.26.3 (20100126.1600)
 -->
<!-- Title: tetgenmesh::numberedges Pages: 1 -->
<svg width="498pt" height="242pt"
 viewBox="0.00 0.00 498.00 242.00" xmlns="http://www.w3.org/2000/svg" xmlns:xlink="http://www.w3.org/1999/xlink">
<g id="graph1" class="graph" transform="scale(1 1) rotate(0) translate(4 238)">
<title>tetgenmesh::numberedges</title>
<!-- Node1 -->
<g id="node1" class="node"><title>Node1</title>
<polygon fill="#bfbfbf" stroke="black" points="0,-100.5 0,-121.5 132,-121.5 132,-100.5 0,-100.5"/>
<text text-anchor="middle" x="66" y="-108.5" font-family="Helvetica,sans-Serif" font-size="10.00">tetgenmesh::numberedges</text>
</g>
<!-- Node2 -->
<g id="node3" class="node"><title>Node2</title>
<a xlink:href="classtetgenmesh_1_1memorypool.xhtml#a623b101e4e2f249d8b7e5dba65c3f7e2" target="_top" xlink:title="tetgenmesh::memorypool\l::traversalinit">
<polygon fill="none" stroke="black" points="183.5,-200 183.5,-234 310.5,-234 310.5,-200 183.5,-200"/>
<text text-anchor="start" x="191.5" y="-221" font-family="Helvetica,sans-Serif" font-size="10.00">tetgenmesh::memorypool</text>
<text text-anchor="middle" x="247" y="-208" font-family="Helvetica,sans-Serif" font-size="10.00">::traversalinit</text>
</a>
</g>
<!-- Node1&#45;&gt;Node2 -->
<g id="edge2" class="edge"><title>Node1&#45;&gt;Node2</title>
<path fill="none" stroke="midnightblue" d="M76.7153,-121.513C94.3721,-138.322 131.294,-171.35 168,-191 171.246,-192.738 174.629,-194.387 178.09,-195.949"/>
<polygon fill="midnightblue" stroke="midnightblue" points="176.818,-199.211 187.392,-199.878 179.541,-192.763 176.818,-199.211"/>
</g>
<!-- Node3 -->
<g id="node5" class="node"><title>Node3</title>
<a xlink:href="classtetgenmesh.xhtml#a11da430cc44475b41fdbfc80de511192" target="_top" xlink:title="tetgenmesh::tetrahedrontraverse">
<polygon fill="none" stroke="black" points="168,-160.5 168,-181.5 326,-181.5 326,-160.5 168,-160.5"/>
<text text-anchor="middle" x="247" y="-168.5" font-family="Helvetica,sans-Serif" font-size="10.00">tetgenmesh::tetrahedrontraverse</text>
</a>
</g>
<!-- Node1&#45;&gt;Node3 -->
<g id="edge4" class="edge"><title>Node1&#45;&gt;Node3</title>
<path fill="none" stroke="midnightblue" d="M90.4199,-121.579C110.89,-130.203 141.016,-142.331 168,-151 175.482,-153.404 183.437,-155.706 191.306,-157.837"/>
<polygon fill="midnightblue" stroke="midnightblue" points="190.625,-161.277 201.187,-160.441 192.409,-154.508 190.625,-161.277"/>
</g>
<!-- Node5 -->
<g id="node9" class="node"><title>Node5</title>
<a xlink:href="classtetgenmesh.xhtml#a1aec13642da07ff1a874fccf9b62eca5" target="_top" xlink:title="tetgenmesh::fnext">
<polygon fill="none" stroke="black" points="199.5,-120.5 199.5,-141.5 294.5,-141.5 294.5,-120.5 199.5,-120.5"/>
<text text-anchor="middle" x="247" y="-128.5" font-family="Helvetica,sans-Serif" font-size="10.00">tetgenmesh::fnext</text>
</a>
</g>
<!-- Node1&#45;&gt;Node5 -->
<g id="edge8" class="edge"><title>Node1&#45;&gt;Node5</title>
<path fill="none" stroke="midnightblue" d="M132.113,-118.305C150.857,-120.376 171.109,-122.614 189.312,-124.626"/>
<polygon fill="midnightblue" stroke="midnightblue" points="189.154,-128.129 199.478,-125.749 189.923,-121.172 189.154,-128.129"/>
</g>
<!-- Node7 -->
<g id="node13" class="node"><title>Node7</title>
<a xlink:href="classtetgenmesh.xhtml#aa14f996a69b46afb1429ebf35a6e881c" target="_top" xlink:title="tetgenmesh::ishulltet">
<polygon fill="none" stroke="black" points="193.5,-80.5 193.5,-101.5 300.5,-101.5 300.5,-80.5 193.5,-80.5"/>
<text text-anchor="middle" x="247" y="-88.5" font-family="Helvetica,sans-Serif" font-size="10.00">tetgenmesh::ishulltet</text>
</a>
</g>
<!-- Node1&#45;&gt;Node7 -->
<g id="edge12" class="edge"><title>Node1&#45;&gt;Node7</title>
<path fill="none" stroke="midnightblue" d="M132.113,-103.695C148.756,-101.856 166.587,-99.8854 183.118,-98.0588"/>
<polygon fill="midnightblue" stroke="midnightblue" points="183.665,-101.52 193.22,-96.9425 182.896,-94.5621 183.665,-101.52"/>
</g>
<!-- Node8 -->
<g id="node15" class="node"><title>Node8</title>
<a xlink:href="classtetgenmesh.xhtml#a0a12e21d9d363bc5aef59c1b1e51e5f2" target="_top" xlink:title="tetgenmesh::elemindex">
<polygon fill="none" stroke="black" points="188,-40.5 188,-61.5 306,-61.5 306,-40.5 188,-40.5"/>
<text text-anchor="middle" x="247" y="-48.5" font-family="Helvetica,sans-Serif" font-size="10.00">tetgenmesh::elemindex</text>
</a>
</g>
<!-- Node1&#45;&gt;Node8 -->
<g id="edge14" class="edge"><title>Node1&#45;&gt;Node8</title>
<path fill="none" stroke="midnightblue" d="M90.4199,-100.421C110.89,-91.7968 141.016,-79.6686 168,-71 175.482,-68.5963 183.437,-66.2941 191.306,-64.1626"/>
<polygon fill="midnightblue" stroke="midnightblue" points="192.409,-67.4915 201.187,-61.559 190.625,-60.7226 192.409,-67.4915"/>
</g>
<!-- Node9 -->
<g id="node17" class="node"><title>Node9</title>
<a xlink:href="classtetgenmesh.xhtml#a473568d02dfc5c262325ed18b1f9af3a" target="_top" xlink:title="tetgenmesh::fnextself">
<polygon fill="none" stroke="black" points="191.5,-0.5 191.5,-21.5 302.5,-21.5 302.5,-0.5 191.5,-0.5"/>
<text text-anchor="middle" x="247" y="-8.5" font-family="Helvetica,sans-Serif" font-size="10.00">tetgenmesh::fnextself</text>
</a>
</g>
<!-- Node1&#45;&gt;Node9 -->
<g id="edge16" class="edge"><title>Node1&#45;&gt;Node9</title>
<path fill="none" stroke="midnightblue" d="M76.2806,-100.466C93.6073,-83.3231 130.427,-49.4533 168,-31 172.842,-28.6222 177.993,-26.509 183.255,-24.6344"/>
<polygon fill="midnightblue" stroke="midnightblue" points="184.386,-27.9471 192.803,-21.5122 182.21,-21.2938 184.386,-27.9471"/>
</g>
<!-- Node4 -->
<g id="node7" class="node"><title>Node4</title>
<a xlink:href="classtetgenmesh_1_1memorypool.xhtml#a151fe73459d0fa9a7262d0030fecf291" target="_top" xlink:title="tetgenmesh::memorypool\l::traverse">
<polygon fill="none" stroke="black" points="362.5,-157 362.5,-191 489.5,-191 489.5,-157 362.5,-157"/>
<text text-anchor="start" x="370.5" y="-178" font-family="Helvetica,sans-Serif" font-size="10.00">tetgenmesh::memorypool</text>
<text text-anchor="middle" x="426" y="-165" font-family="Helvetica,sans-Serif" font-size="10.00">::traverse</text>
</a>
</g>
<!-- Node3&#45;&gt;Node4 -->
<g id="edge6" class="edge"><title>Node3&#45;&gt;Node4</title>
<path fill="none" stroke="midnightblue" d="M326.033,-172.325C334.784,-172.471 343.67,-172.62 352.351,-172.766"/>
<polygon fill="midnightblue" stroke="midnightblue" points="352.369,-176.266 362.427,-172.935 352.487,-169.267 352.369,-176.266"/>
</g>
<!-- Node6 -->
<g id="node11" class="node"><title>Node6</title>
<a xlink:href="classtetgenmesh.xhtml#a809cfdec35ae9a52670e045823a302c0" target="_top" xlink:title="tetgenmesh::decode">
<polygon fill="none" stroke="black" points="373.5,-117.5 373.5,-138.5 478.5,-138.5 478.5,-117.5 373.5,-117.5"/>
<text text-anchor="middle" x="426" y="-125.5" font-family="Helvetica,sans-Serif" font-size="10.00">tetgenmesh::decode</text>
</a>
</g>
<!-- Node5&#45;&gt;Node6 -->
<g id="edge10" class="edge"><title>Node5&#45;&gt;Node6</title>
<path fill="none" stroke="midnightblue" d="M294.969,-130.196C315.983,-129.844 340.922,-129.426 363.374,-129.05"/>
<polygon fill="midnightblue" stroke="midnightblue" points="363.552,-132.547 373.492,-128.88 363.435,-125.548 363.552,-132.547"/>
</g>
</g>
</svg>
