<?xml version="1.0" encoding="UTF-8" standalone="no"?>
<!DOCTYPE svg PUBLIC "-//W3C//DTD SVG 1.1//EN"
 "http://www.w3.org/Graphics/SVG/1.1/DTD/svg11.dtd">
<!-- Generated by graphviz version 2.26.3 (20100126.1600)
 -->
<!-- Title: tetgenio Pages: 1 -->
<svg width="438pt" height="174pt"
 viewBox="0.00 0.00 438.00 174.00" xmlns="http://www.w3.org/2000/svg" xmlns:xlink="http://www.w3.org/1999/xlink">
<g id="graph1" class="graph" transform="scale(1 1) rotate(0) translate(4 170)">
<title>tetgenio</title>
<!-- Node1 -->
<g id="node1" class="node"><title>Node1</title>
<polygon fill="#bfbfbf" stroke="black" points="207.5,-0.5 207.5,-21.5 258.5,-21.5 258.5,-0.5 207.5,-0.5"/>
<text text-anchor="middle" x="233" y="-8.5" font-family="Helvetica,sans-Serif" font-size="10.00">tetgenio</text>
</g>
<!-- Node2 -->
<g id="node2" class="node"><title>Node2</title>
<a xlink:href="structtetgenio_1_1vorofacet.xhtml" target="_top" xlink:title="tetgenio::vorofacet">
<polygon fill="none" stroke="black" points="0,-72.5 0,-93.5 98,-93.5 98,-72.5 0,-72.5"/>
<text text-anchor="middle" x="49" y="-80.5" font-family="Helvetica,sans-Serif" font-size="10.00">tetgenio::vorofacet</text>
</a>
</g>
<!-- Node2&#45;&gt;Node1 -->
<g id="edge2" class="edge"><title>Node2&#45;&gt;Node1</title>
<path fill="none" stroke="#9a32cd" stroke-dasharray="5,2" d="M78.7741,-67.8635C96.5772,-59.1217 119.791,-48.2578 141,-40 163.004,-31.4327 188.679,-23.5054 207.305,-18.112"/>
<polygon fill="#9a32cd" stroke="#9a32cd" points="76.8894,-64.8915 69.4873,-72.4717 80.0008,-71.162 76.8894,-64.8915"/>
<text text-anchor="middle" x="162.5" y="-44.5" font-family="Helvetica,sans-Serif" font-size="10.00"> vfacetlist</text>
</g>
<!-- Node3 -->
<g id="node4" class="node"><title>Node3</title>
<a xlink:href="structtetgenio_1_1facet.xhtml" target="_top" xlink:title="tetgenio::facet">
<polygon fill="none" stroke="black" points="115.5,-72.5 115.5,-93.5 194.5,-93.5 194.5,-72.5 115.5,-72.5"/>
<text text-anchor="middle" x="155" y="-80.5" font-family="Helvetica,sans-Serif" font-size="10.00">tetgenio::facet</text>
</a>
</g>
<!-- Node3&#45;&gt;Node1 -->
<g id="edge4" class="edge"><title>Node3&#45;&gt;Node1</title>
<path fill="none" stroke="#9a32cd" stroke-dasharray="5,2" d="M174.122,-65.3488C188.939,-51.6714 208.981,-33.1709 221.444,-21.6674"/>
<polygon fill="#9a32cd" stroke="#9a32cd" points="171.483,-63.0215 166.509,-72.3762 176.231,-68.1651 171.483,-63.0215"/>
<text text-anchor="middle" x="220" y="-44.5" font-family="Helvetica,sans-Serif" font-size="10.00"> facetlist</text>
</g>
<!-- Node4 -->
<g id="node6" class="node"><title>Node4</title>
<a xlink:href="structtetgenio_1_1polygon.xhtml" target="_top" xlink:title="tetgenio::polygon">
<polygon fill="none" stroke="black" points="109.5,-144.5 109.5,-165.5 200.5,-165.5 200.5,-144.5 109.5,-144.5"/>
<text text-anchor="middle" x="155" y="-152.5" font-family="Helvetica,sans-Serif" font-size="10.00">tetgenio::polygon</text>
</a>
</g>
<!-- Node4&#45;&gt;Node3 -->
<g id="edge6" class="edge"><title>Node4&#45;&gt;Node3</title>
<path fill="none" stroke="#9a32cd" stroke-dasharray="5,2" d="M155,-134.235C155,-120.969 155,-104.319 155,-93.6674"/>
<polygon fill="#9a32cd" stroke="#9a32cd" points="151.5,-134.376 155,-144.376 158.5,-134.376 151.5,-134.376"/>
<text text-anchor="middle" x="180" y="-116.5" font-family="Helvetica,sans-Serif" font-size="10.00"> polygonlist</text>
</g>
<!-- Node5 -->
<g id="node8" class="node"><title>Node5</title>
<a xlink:href="structtetgenio_1_1pointparam.xhtml" target="_top" xlink:title="tetgenio::pointparam">
<polygon fill="none" stroke="black" points="211.5,-72.5 211.5,-93.5 316.5,-93.5 316.5,-72.5 211.5,-72.5"/>
<text text-anchor="middle" x="264" y="-80.5" font-family="Helvetica,sans-Serif" font-size="10.00">tetgenio::pointparam</text>
</a>
</g>
<!-- Node5&#45;&gt;Node1 -->
<g id="edge8" class="edge"><title>Node5&#45;&gt;Node1</title>
<path fill="none" stroke="#9a32cd" stroke-dasharray="5,2" d="M255.4,-63.0266C249.636,-49.6374 242.271,-32.5318 237.593,-21.6674"/>
<polygon fill="#9a32cd" stroke="#9a32cd" points="252.257,-64.5754 259.426,-72.3762 258.686,-61.8072 252.257,-64.5754"/>
<text text-anchor="middle" x="284" y="-44.5" font-family="Helvetica,sans-Serif" font-size="10.00"> pointparamlist</text>
</g>
<!-- Node6 -->
<g id="node10" class="node"><title>Node6</title>
<a xlink:href="structtetgenio_1_1voroedge.xhtml" target="_top" xlink:title="tetgenio::voroedge">
<polygon fill="none" stroke="black" points="333.5,-72.5 333.5,-93.5 430.5,-93.5 430.5,-72.5 333.5,-72.5"/>
<text text-anchor="middle" x="382" y="-80.5" font-family="Helvetica,sans-Serif" font-size="10.00">tetgenio::voroedge</text>
</a>
</g>
<!-- Node6&#45;&gt;Node1 -->
<g id="edge10" class="edge"><title>Node6&#45;&gt;Node1</title>
<path fill="none" stroke="#9a32cd" stroke-dasharray="5,2" d="M360.772,-66.021C349.216,-57.3732 334.375,-47.1951 320,-40 300.21,-30.0947 276.262,-22.3963 258.505,-17.4285"/>
<polygon fill="#9a32cd" stroke="#9a32cd" points="358.842,-68.9517 368.907,-72.2609 363.102,-63.3975 358.842,-68.9517"/>
<text text-anchor="middle" x="364.5" y="-44.5" font-family="Helvetica,sans-Serif" font-size="10.00"> vedgelist</text>
</g>
</g>
</svg>
