<?xml version="1.0" encoding="UTF-8" standalone="no"?>
<!DOCTYPE svg PUBLIC "-//W3C//DTD SVG 1.1//EN"
 "http://www.w3.org/Graphics/SVG/1.1/DTD/svg11.dtd">
<!-- Generated by graphviz version 2.26.3 (20100126.1600)
 -->
<!-- Title: tetgenmesh::removevertexbyflips Pages: 1 -->
<!--zoomable 529 -->
<svg id="main" version="1.1" xmlns="http://www.w3.org/2000/svg" xmlns:xlink="http://www.w3.org/1999/xlink" xml:space="preserve" onload="init(evt)">
<style type="text/css"><![CDATA[
.edge:hover path { stroke: red; }
.edge:hover polygon { stroke: red; fill: red; }
]]></style>
<script type="text/javascript"><![CDATA[
var edges = document.getElementsByTagName('g');
if (edges && edges.length) {
  for (var i=0;i<edges.length;i++) {
    if (edges[i].id.substr(0,4)=='edge') {
      edges[i].setAttribute('class','edge');
    }
  }
}
]]></script>
        <defs>
                <circle id="rim" cx="0" cy="0" r="7"/>
                <circle id="rim2" cx="0" cy="0" r="3.5"/>
                <g id="zoomPlus">
                        <use xlink:href="#rim" fill="#404040">
                                <set attributeName="fill" to="#808080" begin="zoomplus.mouseover" end="zoomplus.mouseout"/>
                        </use>
                        <path d="M-4,0h8M0,-4v8" fill="none" stroke="white" stroke-width="1.5" pointer-events="none"/>
                </g>
                <g id="zoomMin">
                        <use xlink:href="#rim" fill="#404040">
                                <set attributeName="fill" to="#808080" begin="zoomminus.mouseover" end="zoomminus.mouseout"/>
                        </use>
                        <path d="M-4,0h8" fill="none" stroke="white" stroke-width="1.5" pointer-events="none"/>
                </g>
                <g id="dirArrow">
                        <path fill="none" stroke="white" stroke-width="1.5" d="M0,-3.0v7 M-2.5,-0.5L0,-3.0L2.5,-0.5"/>
                </g>
               <g id="resetDef">
                       <use xlink:href="#rim2" fill="#404040">
                               <set attributeName="fill" to="#808080" begin="reset.mouseover" end="reset.mouseout"/>
                       </use>
               </g>
        </defs>

<script type="text/javascript">
var viewWidth = 2180;
var viewHeight = 529;
var sectionId = 'dynsection-342';
</script>
<script xlink:href="svgpan.js"/>
<svg id="graph" class="graph">
<g id="viewport">
<title>tetgenmesh::removevertexbyflips</title>
<!-- Node1 -->
<g id="node1" class="node"><title>Node1</title>
<polygon fill="#bfbfbf" stroke="black" points="0.5,-422.5 0.5,-443.5 161.5,-443.5 161.5,-422.5 0.5,-422.5"/>
<text text-anchor="middle" x="81" y="-430.5" font-family="Helvetica,sans-Serif" font-size="10.00">tetgenmesh::removevertexbyflips</text>
</g>
<!-- Node2 -->
<g id="node3" class="node"><title>Node2</title>
<a xlink:href="classtetgenmesh.xhtml#aae5530d808e30771e717c94cb8586f0b" target="_top" xlink:title="tetgenmesh::suppressbdrysteinerpoint">
<polygon fill="none" stroke="black" points="198,-499.5 198,-520.5 380,-520.5 380,-499.5 198,-499.5"/>
<text text-anchor="middle" x="289" y="-507.5" font-family="Helvetica,sans-Serif" font-size="10.00">tetgenmesh::suppressbdrysteinerpoint</text>
</a>
</g>
<!-- Node1&#45;&gt;Node2 -->
<g id="edge2" class="edge"><title>Node1&#45;&gt;Node2</title>
<path fill="none" stroke="midnightblue" d="M111.212,-447.933C134.541,-459.094 167.828,-474.219 198,-485 213.274,-490.458 230.344,-495.433 245.536,-499.483"/>
<polygon fill="midnightblue" stroke="midnightblue" points="112.697,-444.764 102.17,-443.568 109.654,-451.068 112.697,-444.764"/>
</g>
<!-- Node3 -->
<g id="node5" class="node"><title>Node3</title>
<a xlink:href="classtetgenmesh.xhtml#affc448708b6df2b57048544d3efd6e3c" target="_top" xlink:title="tetgenmesh::suppresssteinerpoints">
<polygon fill="none" stroke="black" points="418.5,-462.5 418.5,-483.5 587.5,-483.5 587.5,-462.5 418.5,-462.5"/>
<text text-anchor="middle" x="503" y="-470.5" font-family="Helvetica,sans-Serif" font-size="10.00">tetgenmesh::suppresssteinerpoints</text>
</a>
</g>
<!-- Node1&#45;&gt;Node3 -->
<g id="edge20" class="edge"><title>Node1&#45;&gt;Node3</title>
<path fill="none" stroke="midnightblue" d="M171.578,-444.148C180.501,-445.153 189.424,-446.122 198,-447 272.41,-454.621 357.195,-461.722 418.454,-466.57"/>
<polygon fill="midnightblue" stroke="midnightblue" points="171.854,-440.657 161.521,-443 171.06,-447.612 171.854,-440.657"/>
</g>
<!-- Node11 -->
<g id="node22" class="node"><title>Node11</title>
<a xlink:href="classtetgenmesh.xhtml#a1be7dce56688fbe7a97fc31f98b61c19" target="_top" xlink:title="tetgenmesh::recoverboundary">
<polygon fill="none" stroke="black" points="836,-423.5 836,-444.5 982,-444.5 982,-423.5 836,-423.5"/>
<text text-anchor="middle" x="909" y="-431.5" font-family="Helvetica,sans-Serif" font-size="10.00">tetgenmesh::recoverboundary</text>
</a>
</g>
<!-- Node1&#45;&gt;Node11 -->
<g id="edge22" class="edge"><title>Node1&#45;&gt;Node11</title>
<path fill="none" stroke="midnightblue" d="M171.663,-433.109C336.981,-433.309 684.307,-433.729 835.769,-433.912"/>
<polygon fill="midnightblue" stroke="midnightblue" points="171.526,-429.609 161.522,-433.097 171.517,-436.609 171.526,-429.609"/>
</g>
<!-- Node12 -->
<g id="node25" class="node"><title>Node12</title>
<a xlink:href="classtetgenmesh.xhtml#a85e17b620820cbcb6cb47b565f822062" target="_top" xlink:title="tetgenmesh::meshcoarsening">
<polygon fill="none" stroke="black" points="1018.5,-385.5 1018.5,-406.5 1163.5,-406.5 1163.5,-385.5 1018.5,-385.5"/>
<text text-anchor="middle" x="1091" y="-393.5" font-family="Helvetica,sans-Serif" font-size="10.00">tetgenmesh::meshcoarsening</text>
</a>
</g>
<!-- Node1&#45;&gt;Node12 -->
<g id="edge26" class="edge"><title>Node1&#45;&gt;Node12</title>
<path fill="none" stroke="midnightblue" d="M163.731,-421.126C248.67,-409.977 384.776,-395 503,-395 503,-395 503,-395 713,-395 819.149,-395 942.064,-395.399 1018.18,-395.693"/>
<polygon fill="midnightblue" stroke="midnightblue" points="163.084,-417.681 153.631,-422.465 164.004,-424.62 163.084,-417.681"/>
</g>
<!-- Node13 -->
<g id="node28" class="node"><title>Node13</title>
<a xlink:href="classtetgenmesh.xhtml#a6755cfa20d8ea6ce62d059750657a292" target="_top" xlink:title="tetgenmesh::lawsonflip3d">
<polygon fill="none" stroke="black" points="225,-154.5 225,-175.5 353,-175.5 353,-154.5 225,-154.5"/>
<text text-anchor="middle" x="289" y="-162.5" font-family="Helvetica,sans-Serif" font-size="10.00">tetgenmesh::lawsonflip3d</text>
</a>
</g>
<!-- Node1&#45;&gt;Node13 -->
<g id="edge30" class="edge"><title>Node1&#45;&gt;Node13</title>
<path fill="none" stroke="midnightblue" d="M95.3926,-414.456C135.731,-362.481 249,-216.538 280.676,-175.725"/>
<polygon fill="midnightblue" stroke="midnightblue" points="92.5202,-412.448 89.1538,-422.494 98.0501,-416.74 92.5202,-412.448"/>
</g>
<!-- Node2&#45;&gt;Node3 -->
<g id="edge4" class="edge"><title>Node2&#45;&gt;Node3</title>
<path fill="none" stroke="midnightblue" d="M359.777,-497.763C386.411,-493.158 416.44,-487.966 442.097,-483.53"/>
<polygon fill="midnightblue" stroke="midnightblue" points="359.009,-494.344 349.751,-499.496 360.202,-501.241 359.009,-494.344"/>
</g>
<!-- Node4 -->
<g id="node7" class="node"><title>Node4</title>
<a xlink:href="tetgen_8h.xhtml#ad3637eb4ffe7fda90667e67b7771d964" target="_top" xlink:title="tetrahedralize">
<polygon fill="none" stroke="black" points="1752.5,-269.5 1752.5,-290.5 1827.5,-290.5 1827.5,-269.5 1752.5,-269.5"/>
<text text-anchor="middle" x="1790" y="-277.5" font-family="Helvetica,sans-Serif" font-size="10.00">tetrahedralize</text>
</a>
</g>
<!-- Node3&#45;&gt;Node4 -->
<g id="edge6" class="edge"><title>Node3&#45;&gt;Node4</title>
<path fill="none" stroke="midnightblue" d="M597.842,-473C680.123,-473 802.429,-473 909,-473 909,-473 909,-473 1449,-473 1571.91,-473 1617.61,-474.66 1716,-401 1755.42,-371.485 1778.41,-314.234 1786.59,-290.6"/>
<polygon fill="midnightblue" stroke="midnightblue" points="597.759,-469.5 587.759,-473 597.759,-476.5 597.759,-469.5"/>
</g>
<!-- Node5 -->
<g id="node9" class="node"><title>Node5</title>
<a xlink:href="classGUICutRenderWindow.xhtml#a9eedb7088ad31f4680a77ed3a06fa60c" target="_top" xlink:title="Berechnet die 2D&#45;Temperaturverteilung als Grafik. ">
<polygon fill="none" stroke="black" points="1866.5,-309 1866.5,-343 1983.5,-343 1983.5,-309 1866.5,-309"/>
<text text-anchor="start" x="1874.5" y="-330" font-family="Helvetica,sans-Serif" font-size="10.00">GUICutRenderWindow</text>
<text text-anchor="middle" x="1925" y="-317" font-family="Helvetica,sans-Serif" font-size="10.00">::renderImage</text>
</a>
</g>
<!-- Node4&#45;&gt;Node5 -->
<g id="edge8" class="edge"><title>Node4&#45;&gt;Node5</title>
<path fill="none" stroke="midnightblue" d="M1830.73,-293.877C1844.62,-298.611 1860.32,-303.96 1874.86,-308.915"/>
<polygon fill="midnightblue" stroke="midnightblue" points="1831.57,-290.466 1820.97,-290.553 1829.31,-297.092 1831.57,-290.466"/>
</g>
<!-- Node7 -->
<g id="node13" class="node"><title>Node7</title>
<a xlink:href="classObjectData.xhtml#af3a850833d08eb9b45357449f455e24d" target="_top" xlink:title="Zerlegt das Objekt in Tetraeder (Schnittstelle zur Tetgen&#45;Bibliothek) und Berechnet die Temperaturver...">
<polygon fill="none" stroke="black" points="1864,-269.5 1864,-290.5 1986,-290.5 1986,-269.5 1864,-269.5"/>
<text text-anchor="middle" x="1925" y="-277.5" font-family="Helvetica,sans-Serif" font-size="10.00">ObjectData::calculateIO</text>
</a>
</g>
<!-- Node4&#45;&gt;Node7 -->
<g id="edge12" class="edge"><title>Node4&#45;&gt;Node7</title>
<path fill="none" stroke="midnightblue" d="M1837.65,-280C1846.11,-280 1855.02,-280 1863.8,-280"/>
<polygon fill="midnightblue" stroke="midnightblue" points="1837.61,-276.5 1827.61,-280 1837.6,-283.5 1837.61,-276.5"/>
</g>
<!-- Node10 -->
<g id="node19" class="node"><title>Node10</title>
<a xlink:href="tetgen_8cxx.xhtml#a0ddf1224851353fc92bfbff6f499fa97" target="_top" xlink:title="main">
<polygon fill="none" stroke="black" points="1906,-229.5 1906,-250.5 1944,-250.5 1944,-229.5 1906,-229.5"/>
<text text-anchor="middle" x="1925" y="-237.5" font-family="Helvetica,sans-Serif" font-size="10.00">main</text>
</a>
</g>
<!-- Node4&#45;&gt;Node10 -->
<g id="edge18" class="edge"><title>Node4&#45;&gt;Node10</title>
<path fill="none" stroke="midnightblue" d="M1835.15,-266.621C1859.27,-259.476 1887.67,-251.061 1905.98,-245.634"/>
<polygon fill="midnightblue" stroke="midnightblue" points="1834.06,-263.294 1825.47,-269.49 1836.05,-270.005 1834.06,-263.294"/>
</g>
<!-- Node6 -->
<g id="node11" class="node"><title>Node6</title>
<a xlink:href="classGUICutRenderWindow.xhtml#a7cd1bfbec53756a1cbbe1616b4d46c7a" target="_top" xlink:title="Behandelt das Drücken des Buttons zur Berechnung der zweidimensionalen Temperaturverteilung. ">
<polygon fill="none" stroke="black" points="2038.5,-309 2038.5,-343 2155.5,-343 2155.5,-309 2038.5,-309"/>
<text text-anchor="start" x="2046.5" y="-330" font-family="Helvetica,sans-Serif" font-size="10.00">GUICutRenderWindow</text>
<text text-anchor="middle" x="2097" y="-317" font-family="Helvetica,sans-Serif" font-size="10.00">::renderCutBtClick</text>
</a>
</g>
<!-- Node5&#45;&gt;Node6 -->
<g id="edge10" class="edge"><title>Node5&#45;&gt;Node6</title>
<path fill="none" stroke="midnightblue" d="M1993.78,-326C2008.51,-326 2023.95,-326 2038.26,-326"/>
<polygon fill="midnightblue" stroke="midnightblue" points="1993.71,-322.5 1983.71,-326 1993.71,-329.5 1993.71,-322.5"/>
</g>
<!-- Node8 -->
<g id="node15" class="node"><title>Node8</title>
<a xlink:href="classGUIMainWindow.xhtml#a0c2de30274c7f52ff74ec1217e47a9e5" target="_top" xlink:title="Berechnet die 3D&#45;Temperaturverteilung neu. ">
<polygon fill="none" stroke="black" points="2022,-217 2022,-251 2172,-251 2172,-217 2022,-217"/>
<text text-anchor="start" x="2030" y="-238" font-family="Helvetica,sans-Serif" font-size="10.00">GUIMainWindow::OnRecalcBt</text>
<text text-anchor="middle" x="2097" y="-225" font-family="Helvetica,sans-Serif" font-size="10.00">Click</text>
</a>
</g>
<!-- Node7&#45;&gt;Node8 -->
<g id="edge14" class="edge"><title>Node7&#45;&gt;Node8</title>
<path fill="none" stroke="midnightblue" d="M1974.33,-266.808C1992.64,-261.91 2013.69,-256.281 2033.12,-251.085"/>
<polygon fill="midnightblue" stroke="midnightblue" points="1973.22,-263.482 1964.46,-269.447 1975.03,-270.244 1973.22,-263.482"/>
</g>
<!-- Node9 -->
<g id="node17" class="node"><title>Node9</title>
<a xlink:href="classGUITimeline.xhtml#a099f3654aa6e7ea04df861851a0e9ec8" target="_top" xlink:title="Sucht den Zeitpunkt zwischen zwei markierten Stellen auf der Sensordaten&#45;Zeitleiste, für den der Wäremeenergiegehalt maximal wird. ">
<polygon fill="none" stroke="black" points="2028.5,-269.5 2028.5,-290.5 2165.5,-290.5 2165.5,-269.5 2028.5,-269.5"/>
<text text-anchor="middle" x="2097" y="-277.5" font-family="Helvetica,sans-Serif" font-size="10.00">GUITimeline::findMaxValue</text>
</a>
</g>
<!-- Node7&#45;&gt;Node9 -->
<g id="edge16" class="edge"><title>Node7&#45;&gt;Node9</title>
<path fill="none" stroke="midnightblue" d="M1996.23,-280C2006.89,-280 2017.86,-280 2028.46,-280"/>
<polygon fill="midnightblue" stroke="midnightblue" points="1996.13,-276.5 1986.13,-280 1996.13,-283.5 1996.13,-276.5"/>
</g>
<!-- Node11&#45;&gt;Node4 -->
<g id="edge24" class="edge"><title>Node11&#45;&gt;Node4</title>
<path fill="none" stroke="midnightblue" d="M992.368,-434.362C1065.54,-434.648 1174.83,-435 1270,-435 1270,-435 1270,-435 1449,-435 1573.4,-435 1608.97,-414.399 1716,-351 1743.57,-334.667 1768.96,-306.201 1781.6,-290.739"/>
<polygon fill="midnightblue" stroke="midnightblue" points="992.303,-430.862 982.289,-434.322 992.275,-437.862 992.303,-430.862"/>
</g>
<!-- Node12&#45;&gt;Node4 -->
<g id="edge28" class="edge"><title>Node12&#45;&gt;Node4</title>
<path fill="none" stroke="midnightblue" d="M1173.93,-397.764C1261.32,-398.098 1402.59,-394.293 1522,-371 1615.08,-352.844 1720.14,-310.342 1766.21,-290.522"/>
<polygon fill="midnightblue" stroke="midnightblue" points="1173.83,-394.263 1163.81,-397.706 1173.79,-401.263 1173.83,-394.263"/>
</g>
<!-- Node14 -->
<g id="node30" class="node"><title>Node14</title>
<a xlink:href="classtetgenmesh.xhtml#ad71017c71bd2cac0232c410a651ed085" target="_top" xlink:title="tetgenmesh::carveholes">
<polygon fill="none" stroke="black" points="1209.5,-78.5 1209.5,-99.5 1330.5,-99.5 1330.5,-78.5 1209.5,-78.5"/>
<text text-anchor="middle" x="1270" y="-86.5" font-family="Helvetica,sans-Serif" font-size="10.00">tetgenmesh::carveholes</text>
</a>
</g>
<!-- Node13&#45;&gt;Node14 -->
<g id="edge32" class="edge"><title>Node13&#45;&gt;Node14</title>
<path fill="none" stroke="midnightblue" d="M318.485,-149.875C343.686,-137.702 381.275,-121.3 416,-113 544.802,-82.2123 580.57,-89 713,-89 713,-89 713,-89 909,-89 1014.61,-89 1137.59,-89 1209.32,-89"/>
<polygon fill="midnightblue" stroke="midnightblue" points="316.896,-146.756 309.465,-154.308 319.983,-153.039 316.896,-146.756"/>
</g>
<!-- Node15 -->
<g id="node33" class="node"><title>Node15</title>
<a xlink:href="classtetgenmesh.xhtml#ac8205cae8e16f490b80d74975934ff74" target="_top" xlink:title="tetgenmesh::insertconstrainedpoints">
<polygon fill="none" stroke="black" points="416,-39.5 416,-60.5 590,-60.5 590,-39.5 416,-39.5"/>
<text text-anchor="middle" x="503" y="-47.5" font-family="Helvetica,sans-Serif" font-size="10.00">tetgenmesh::insertconstrainedpoints</text>
</a>
</g>
<!-- Node13&#45;&gt;Node15 -->
<g id="edge36" class="edge"><title>Node13&#45;&gt;Node15</title>
<path fill="none" stroke="midnightblue" d="M308.744,-147.762C332.644,-127.699 374.824,-94.7973 416,-75 428.322,-69.0756 442.317,-64.2905 455.425,-60.5547"/>
<polygon fill="midnightblue" stroke="midnightblue" points="306.432,-145.134 301.085,-154.281 310.969,-150.465 306.432,-145.134"/>
</g>
<!-- Node17 -->
<g id="node38" class="node"><title>Node17</title>
<a xlink:href="classtetgenmesh.xhtml#a6394d7b4d386e8d08077c39cd8983e0e" target="_top" xlink:title="tetgenmesh::splitsegment">
<polygon fill="none" stroke="black" points="438.5,-249.5 438.5,-270.5 567.5,-270.5 567.5,-249.5 438.5,-249.5"/>
<text text-anchor="middle" x="503" y="-257.5" font-family="Helvetica,sans-Serif" font-size="10.00">tetgenmesh::splitsegment</text>
</a>
</g>
<!-- Node13&#45;&gt;Node17 -->
<g id="edge42" class="edge"><title>Node13&#45;&gt;Node17</title>
<path fill="none" stroke="midnightblue" d="M322.004,-179.651C365.471,-198.947 440.863,-232.416 479.174,-249.423"/>
<polygon fill="midnightblue" stroke="midnightblue" points="323.279,-176.388 312.719,-175.53 320.439,-182.786 323.279,-176.388"/>
</g>
<!-- Node19 -->
<g id="node42" class="node"><title>Node19</title>
<a xlink:href="classtetgenmesh.xhtml#a3a8404870ab3c2e8ce4312d48c2b29f4" target="_top" xlink:title="tetgenmesh::splitsubface">
<polygon fill="none" stroke="black" points="846,-268.5 846,-289.5 972,-289.5 972,-268.5 846,-268.5"/>
<text text-anchor="middle" x="909" y="-276.5" font-family="Helvetica,sans-Serif" font-size="10.00">tetgenmesh::splitsubface</text>
</a>
</g>
<!-- Node13&#45;&gt;Node19 -->
<g id="edge70" class="edge"><title>Node13&#45;&gt;Node19</title>
<path fill="none" stroke="midnightblue" d="M356.226,-177.361C478.781,-199.895 736.476,-247.278 851.472,-268.422"/>
<polygon fill="midnightblue" stroke="midnightblue" points="356.685,-173.887 346.217,-175.521 355.419,-180.771 356.685,-173.887"/>
</g>
<!-- Node21 -->
<g id="node46" class="node"><title>Node21</title>
<a xlink:href="classtetgenmesh.xhtml#aa752155eb1d18550a212dd40297f122e" target="_top" xlink:title="tetgenmesh::splittetrahedron">
<polygon fill="none" stroke="black" points="1200,-230.5 1200,-251.5 1340,-251.5 1340,-230.5 1200,-230.5"/>
<text text-anchor="middle" x="1270" y="-238.5" font-family="Helvetica,sans-Serif" font-size="10.00">tetgenmesh::splittetrahedron</text>
</a>
</g>
<!-- Node13&#45;&gt;Node21 -->
<g id="edge72" class="edge"><title>Node13&#45;&gt;Node21</title>
<path fill="none" stroke="midnightblue" d="M363.322,-165C447.977,-165 590.45,-165 713,-165 713,-165 713,-165 909,-165 1034.53,-165 1179.46,-209.55 1240.49,-230.433"/>
<polygon fill="midnightblue" stroke="midnightblue" points="363.29,-161.5 353.29,-165 363.29,-168.5 363.29,-161.5"/>
</g>
<!-- Node24 -->
<g id="node61" class="node"><title>Node24</title>
<a xlink:href="classtetgenmesh.xhtml#a4f6f365744005e9d9da43a7d8a1fbba8" target="_top" xlink:title="tetgenmesh::recoverdelaunay">
<polygon fill="none" stroke="black" points="1376.5,-145.5 1376.5,-166.5 1521.5,-166.5 1521.5,-145.5 1376.5,-145.5"/>
<text text-anchor="middle" x="1449" y="-153.5" font-family="Helvetica,sans-Serif" font-size="10.00">tetgenmesh::recoverdelaunay</text>
</a>
</g>
<!-- Node13&#45;&gt;Node24 -->
<g id="edge74" class="edge"><title>Node13&#45;&gt;Node24</title>
<path fill="none" stroke="midnightblue" d="M363.141,-154.31C447.633,-143.071 589.959,-127 713,-127 713,-127 713,-127 909,-127 1076.35,-127 1272.45,-141.06 1376.14,-149.6"/>
<polygon fill="midnightblue" stroke="midnightblue" points="362.574,-150.855 353.129,-155.655 363.506,-157.793 362.574,-150.855"/>
</g>
<!-- Node14&#45;&gt;Node4 -->
<g id="edge34" class="edge"><title>Node14&#45;&gt;Node4</title>
<path fill="none" stroke="midnightblue" d="M1340.74,-90.8954C1433.85,-96.4663 1599.34,-117.255 1716,-193 1747.43,-213.409 1772.79,-251.103 1783.91,-269.435"/>
<polygon fill="midnightblue" stroke="midnightblue" points="1340.76,-87.3912 1330.58,-90.331 1340.37,-94.3804 1340.76,-87.3912"/>
</g>
<!-- Node15&#45;&gt;Node4 -->
<g id="edge40" class="edge"><title>Node15&#45;&gt;Node4</title>
<path fill="none" stroke="midnightblue" d="M600.203,-50C682.452,-50 803.444,-50 909,-50 909,-50 909,-50 1449,-50 1572.02,-50 1621.8,-43.8776 1716,-123 1763.76,-163.117 1782.67,-241.008 1788.15,-269.355"/>
<polygon fill="midnightblue" stroke="midnightblue" points="600.118,-46.5001 590.118,-50 600.118,-53.5001 600.118,-46.5001"/>
</g>
<!-- Node16 -->
<g id="node35" class="node"><title>Node16</title>
<a xlink:href="classtetgenmesh.xhtml#ab859365ca3dd3eafb77fac56d0ae3a03" target="_top" xlink:title="tetgenmesh::insertconstrainedpoints">
<polygon fill="none" stroke="black" points="626,-0.5 626,-21.5 800,-21.5 800,-0.5 626,-0.5"/>
<text text-anchor="middle" x="713" y="-8.5" font-family="Helvetica,sans-Serif" font-size="10.00">tetgenmesh::insertconstrainedpoints</text>
</a>
</g>
<!-- Node15&#45;&gt;Node16 -->
<g id="edge38" class="edge"><title>Node15&#45;&gt;Node16</title>
<path fill="none" stroke="midnightblue" d="M569.623,-37.6271C597.521,-32.4462 629.609,-26.4869 656.347,-21.5213"/>
<polygon fill="midnightblue" stroke="midnightblue" points="568.745,-34.2302 559.552,-39.4974 570.023,-41.1126 568.745,-34.2302"/>
</g>
<!-- Node18 -->
<g id="node40" class="node"><title>Node18</title>
<a xlink:href="classtetgenmesh.xhtml#a7af360f1ae413f9e0d7803ccae55b6d6" target="_top" xlink:title="tetgenmesh::repairencsegs">
<polygon fill="none" stroke="black" points="646,-308.5 646,-329.5 780,-329.5 780,-308.5 646,-308.5"/>
<text text-anchor="middle" x="713" y="-316.5" font-family="Helvetica,sans-Serif" font-size="10.00">tetgenmesh::repairencsegs</text>
</a>
</g>
<!-- Node17&#45;&gt;Node18 -->
<g id="edge44" class="edge"><title>Node17&#45;&gt;Node18</title>
<path fill="none" stroke="midnightblue" d="M550.314,-273.293C588.136,-283.919 640.438,-298.614 675.428,-308.444"/>
<polygon fill="midnightblue" stroke="midnightblue" points="551.118,-269.883 540.544,-270.548 549.224,-276.622 551.118,-269.883"/>
</g>
<!-- Node17&#45;&gt;Node19 -->
<g id="edge66" class="edge"><title>Node17&#45;&gt;Node19</title>
<path fill="none" stroke="midnightblue" d="M577.889,-263.505C654.859,-267.107 773.383,-272.653 845.786,-276.042"/>
<polygon fill="midnightblue" stroke="midnightblue" points="577.934,-260.003 567.781,-263.032 577.606,-266.995 577.934,-260.003"/>
</g>
<!-- Node17&#45;&gt;Node21 -->
<g id="edge68" class="edge"><title>Node17&#45;&gt;Node21</title>
<path fill="none" stroke="midnightblue" d="M577.641,-256.949C677.807,-252.99 861.273,-246.208 1018,-243 1079.46,-241.742 1149.36,-241.262 1199.93,-241.086"/>
<polygon fill="midnightblue" stroke="midnightblue" points="577.473,-253.453 567.62,-257.347 577.751,-260.448 577.473,-253.453"/>
</g>
<!-- Node18&#45;&gt;Node19 -->
<g id="edge46" class="edge"><title>Node18&#45;&gt;Node19</title>
<path fill="none" stroke="midnightblue" d="M774.495,-306.45C801.174,-301.005 832.063,-294.701 857.507,-289.509"/>
<polygon fill="midnightblue" stroke="midnightblue" points="773.595,-303.061 764.497,-308.49 774.995,-309.92 773.595,-303.061"/>
</g>
<!-- Node18&#45;&gt;Node21 -->
<g id="edge62" class="edge"><title>Node18&#45;&gt;Node21</title>
<path fill="none" stroke="midnightblue" d="M790.219,-326.406C881.41,-332.737 1036.78,-335.896 1164,-300 1199.68,-289.934 1236.4,-265.822 1255.87,-251.735"/>
<polygon fill="midnightblue" stroke="midnightblue" points="790.466,-322.915 780.239,-325.682 789.959,-329.896 790.466,-322.915"/>
</g>
<!-- Node23 -->
<g id="node50" class="node"><title>Node23</title>
<a xlink:href="classtetgenmesh.xhtml#a477bbfde72103de66546d4ea3343b4a1" target="_top" xlink:title="tetgenmesh::delaunayrefinement">
<polygon fill="none" stroke="black" points="1558,-269.5 1558,-290.5 1716,-290.5 1716,-269.5 1558,-269.5"/>
<text text-anchor="middle" x="1637" y="-277.5" font-family="Helvetica,sans-Serif" font-size="10.00">tetgenmesh::delaunayrefinement</text>
</a>
</g>
<!-- Node18&#45;&gt;Node23 -->
<g id="edge64" class="edge"><title>Node18&#45;&gt;Node23</title>
<path fill="none" stroke="midnightblue" d="M768.909,-331.598C789.853,-335.871 813.92,-340.253 836,-343 948.636,-357.013 977.496,-357 1091,-357 1091,-357 1091,-357 1270,-357 1397.93,-357 1545.69,-311.633 1607.47,-290.545"/>
<polygon fill="midnightblue" stroke="midnightblue" points="769.404,-328.126 758.901,-329.517 767.979,-334.98 769.404,-328.126"/>
</g>
<!-- Node20 -->
<g id="node44" class="node"><title>Node20</title>
<a xlink:href="classtetgenmesh.xhtml#a701d4f317ed66df6a2e2b7b237e2386a" target="_top" xlink:title="tetgenmesh::repairencfacs">
<polygon fill="none" stroke="black" points="1025,-269.5 1025,-290.5 1157,-290.5 1157,-269.5 1025,-269.5"/>
<text text-anchor="middle" x="1091" y="-277.5" font-family="Helvetica,sans-Serif" font-size="10.00">tetgenmesh::repairencfacs</text>
</a>
</g>
<!-- Node19&#45;&gt;Node20 -->
<g id="edge48" class="edge"><title>Node19&#45;&gt;Node20</title>
<path fill="none" stroke="midnightblue" d="M982.275,-279.403C996.359,-279.48 1011.03,-279.561 1024.87,-279.637"/>
<polygon fill="midnightblue" stroke="midnightblue" points="982.163,-275.902 972.144,-279.347 982.125,-282.902 982.163,-275.902"/>
</g>
<!-- Node19&#45;&gt;Node21 -->
<g id="edge60" class="edge"><title>Node19&#45;&gt;Node21</title>
<path fill="none" stroke="midnightblue" d="M973.181,-266.743C987.868,-264.236 1003.44,-261.813 1018,-260 1079.17,-252.381 1149.1,-247.402 1199.75,-244.46"/>
<polygon fill="midnightblue" stroke="midnightblue" points="972.429,-263.321 963.178,-268.485 973.631,-270.217 972.429,-263.321"/>
</g>
<!-- Node20&#45;&gt;Node21 -->
<g id="edge50" class="edge"><title>Node20&#45;&gt;Node21</title>
<path fill="none" stroke="midnightblue" d="M1149.23,-267.312C1172.61,-262.22 1199.23,-256.419 1221.52,-251.562"/>
<polygon fill="midnightblue" stroke="midnightblue" points="1148.47,-263.897 1139.44,-269.446 1149.96,-270.737 1148.47,-263.897"/>
</g>
<!-- Node20&#45;&gt;Node23 -->
<g id="edge58" class="edge"><title>Node20&#45;&gt;Node23</title>
<path fill="none" stroke="midnightblue" d="M1167.15,-280C1270.19,-280 1453.12,-280 1557.74,-280"/>
<polygon fill="midnightblue" stroke="midnightblue" points="1167.13,-276.5 1157.13,-280 1167.13,-283.5 1167.13,-276.5"/>
</g>
<!-- Node22 -->
<g id="node48" class="node"><title>Node22</title>
<a xlink:href="classtetgenmesh.xhtml#a7c46c82d83099214115fa9719aefbd78" target="_top" xlink:title="tetgenmesh::repairbadtets">
<polygon fill="none" stroke="black" points="1384,-230.5 1384,-251.5 1514,-251.5 1514,-230.5 1384,-230.5"/>
<text text-anchor="middle" x="1449" y="-238.5" font-family="Helvetica,sans-Serif" font-size="10.00">tetgenmesh::repairbadtets</text>
</a>
</g>
<!-- Node21&#45;&gt;Node22 -->
<g id="edge52" class="edge"><title>Node21&#45;&gt;Node22</title>
<path fill="none" stroke="midnightblue" d="M1350.45,-241C1361.66,-241 1373.06,-241 1383.93,-241"/>
<polygon fill="midnightblue" stroke="midnightblue" points="1350.23,-237.5 1340.23,-241 1350.23,-244.5 1350.23,-237.5"/>
</g>
<!-- Node22&#45;&gt;Node23 -->
<g id="edge54" class="edge"><title>Node22&#45;&gt;Node23</title>
<path fill="none" stroke="midnightblue" d="M1509.83,-253.62C1534.46,-258.728 1562.57,-264.559 1586.08,-269.438"/>
<polygon fill="midnightblue" stroke="midnightblue" points="1510.38,-250.158 1499.88,-251.554 1508.96,-257.012 1510.38,-250.158"/>
</g>
<!-- Node23&#45;&gt;Node4 -->
<g id="edge56" class="edge"><title>Node23&#45;&gt;Node4</title>
<path fill="none" stroke="midnightblue" d="M1726.43,-280C1735.43,-280 1744.18,-280 1752.17,-280"/>
<polygon fill="midnightblue" stroke="midnightblue" points="1726.19,-276.5 1716.19,-280 1726.19,-283.5 1726.19,-276.5"/>
</g>
<!-- Node24&#45;&gt;Node4 -->
<g id="edge76" class="edge"><title>Node24&#45;&gt;Node4</title>
<path fill="none" stroke="midnightblue" d="M1487.71,-170.075C1556.75,-195.182 1699.66,-247.149 1761,-269.455"/>
<polygon fill="midnightblue" stroke="midnightblue" points="1488.67,-166.7 1478.07,-166.572 1486.28,-173.279 1488.67,-166.7"/>
</g>
</g>
</svg>
        <g id="navigator" transform="translate(0 0)" fill="#404254">
                <rect fill="#f2f5e9" fill-opacity="0.5" stroke="#606060" stroke-width=".5" x="0" y="0" width="60" height="60"/>
                <use id="zoomplus" xlink:href="#zoomPlus" x="17" y="9" onmousedown="handleZoom(evt,'in')"/>
                <use id="zoomminus" xlink:href="#zoomMin" x="42" y="9" onmousedown="handleZoom(evt,'out')"/>
                <use id="reset" xlink:href="#resetDef" x="30" y="36" onmousedown="handleReset()"/>
                <g id="arrowUp" xlink:href="#dirArrow" transform="translate(30 24)" onmousedown="handlePan(0,-1)">
                  <use xlink:href="#rim" fill="#404040">
                        <set attributeName="fill" to="#808080" begin="arrowUp.mouseover" end="arrowUp.mouseout"/>
                  </use>
                  <path fill="none" stroke="white" stroke-width="1.5" d="M0,-3.0v7 M-2.5,-0.5L0,-3.0L2.5,-0.5"/>
                </g>
                <g id="arrowRight" xlink:href="#dirArrow" transform="rotate(90) translate(36 -43)" onmousedown="handlePan(1,0)">
                  <use xlink:href="#rim" fill="#404040">
                        <set attributeName="fill" to="#808080" begin="arrowRight.mouseover" end="arrowRight.mouseout"/>
                  </use>
                  <path fill="none" stroke="white" stroke-width="1.5" d="M0,-3.0v7 M-2.5,-0.5L0,-3.0L2.5,-0.5"/>
                </g>
                <g id="arrowDown" xlink:href="#dirArrow" transform="rotate(180) translate(-30 -48)" onmousedown="handlePan(0,1)">
                  <use xlink:href="#rim" fill="#404040">
                        <set attributeName="fill" to="#808080" begin="arrowDown.mouseover" end="arrowDown.mouseout"/>
                  </use>
                  <path fill="none" stroke="white" stroke-width="1.5" d="M0,-3.0v7 M-2.5,-0.5L0,-3.0L2.5,-0.5"/>
                </g>
                <g id="arrowLeft" xlink:href="#dirArrow" transform="rotate(270) translate(-36 17)" onmousedown="handlePan(-1,0)">
                  <use xlink:href="#rim" fill="#404040">
                        <set attributeName="fill" to="#808080" begin="arrowLeft.mouseover" end="arrowLeft.mouseout"/>
                  </use>
                  <path fill="none" stroke="white" stroke-width="1.5" d="M0,-3.0v7 M-2.5,-0.5L0,-3.0L2.5,-0.5"/>
                </g>
        </g>
        <svg viewBox="0 0 15 15" width="100%" height="30px" preserveAspectRatio="xMaxYMin meet">
         <g id="arrow_out" transform="scale(0.3 0.3)">
          <a xlink:href="classtetgenmesh_ad3277eea82fb5eb134c5eaa6abf5c18d_icgraph_org.svg" target="_base">
           <rect id="button" ry="5" rx="5" y="6" x="6" height="38" width="38"
                fill="#f2f5e9" fill-opacity="0.5" stroke="#606060" stroke-width="1.0"/>
           <path id="arrow"
             d="M 11.500037,31.436501 C 11.940474,20.09759 22.043105,11.32322 32.158766,21.979434 L 37.068811,17.246167 C 37.068811,17.246167 37.088388,32 37.088388,32 L 22.160133,31.978069 C 22.160133,31.978069 26.997745,27.140456 26.997745,27.140456 C 18.528582,18.264221 13.291696,25.230495 11.500037,31.436501 z"
             style="fill:#404040;"/>
          </a>
         </g>
        </svg>
</svg>
