<?xml version="1.0" encoding="UTF-8" standalone="no"?>
<!DOCTYPE svg PUBLIC "-//W3C//DTD SVG 1.1//EN"
 "http://www.w3.org/Graphics/SVG/1.1/DTD/svg11.dtd">
<!-- Generated by graphviz version 2.26.3 (20100126.1600)
 -->
<!-- Title: tetgenmesh::randomsample Pages: 1 -->
<svg width="314pt" height="110pt"
 viewBox="0.00 0.00 314.00 110.00" xmlns="http://www.w3.org/2000/svg" xmlns:xlink="http://www.w3.org/1999/xlink">
<g id="graph1" class="graph" transform="scale(1 1) rotate(0) translate(4 106)">
<title>tetgenmesh::randomsample</title>
<!-- Node1 -->
<g id="node1" class="node"><title>Node1</title>
<polygon fill="#bfbfbf" stroke="black" points="0.5,-40.5 0.5,-61.5 137.5,-61.5 137.5,-40.5 0.5,-40.5"/>
<text text-anchor="middle" x="69" y="-48.5" font-family="Helvetica,sans-Serif" font-size="10.00">tetgenmesh::randomsample</text>
</g>
<!-- Node2 -->
<g id="node3" class="node"><title>Node2</title>
<a xlink:href="classtetgenmesh.xhtml#a46fa5fabd0e8e806f7f8beb069732e21" target="_top" xlink:title="tetgenmesh::pointmark">
<polygon fill="none" stroke="black" points="182,-80.5 182,-101.5 298,-101.5 298,-80.5 182,-80.5"/>
<text text-anchor="middle" x="240" y="-88.5" font-family="Helvetica,sans-Serif" font-size="10.00">tetgenmesh::pointmark</text>
</a>
</g>
<!-- Node1&#45;&gt;Node2 -->
<g id="edge2" class="edge"><title>Node1&#45;&gt;Node2</title>
<path fill="none" stroke="midnightblue" d="M113.928,-61.5095C135.736,-66.6108 162.129,-72.7845 185.119,-78.1622"/>
<polygon fill="midnightblue" stroke="midnightblue" points="184.541,-81.6215 195.075,-80.4913 186.135,-74.8055 184.541,-81.6215"/>
</g>
<!-- Node3 -->
<g id="node5" class="node"><title>Node3</title>
<a xlink:href="classtetgenmesh.xhtml#ae2d4d27d7babd7b0e60956cc00bca89a" target="_top" xlink:title="tetgenmesh::org">
<polygon fill="none" stroke="black" points="196.5,-40.5 196.5,-61.5 283.5,-61.5 283.5,-40.5 196.5,-40.5"/>
<text text-anchor="middle" x="240" y="-48.5" font-family="Helvetica,sans-Serif" font-size="10.00">tetgenmesh::org</text>
</a>
</g>
<!-- Node1&#45;&gt;Node3 -->
<g id="edge4" class="edge"><title>Node1&#45;&gt;Node3</title>
<path fill="none" stroke="midnightblue" d="M137.567,-51C153.647,-51 170.56,-51 185.906,-51"/>
<polygon fill="midnightblue" stroke="midnightblue" points="186.249,-54.5001 196.249,-51 186.249,-47.5001 186.249,-54.5001"/>
</g>
<!-- Node4 -->
<g id="node7" class="node"><title>Node4</title>
<a xlink:href="classtetgenmesh.xhtml#a0ae35b219eb4a0d1e0c14f9759cd6563" target="_top" xlink:title="tetgenmesh::randomnation">
<polygon fill="none" stroke="black" points="174,-0.5 174,-21.5 306,-21.5 306,-0.5 174,-0.5"/>
<text text-anchor="middle" x="240" y="-8.5" font-family="Helvetica,sans-Serif" font-size="10.00">tetgenmesh::randomnation</text>
</a>
</g>
<!-- Node1&#45;&gt;Node4 -->
<g id="edge6" class="edge"><title>Node1&#45;&gt;Node4</title>
<path fill="none" stroke="midnightblue" d="M113.928,-40.4905C135.736,-35.3892 162.129,-29.2155 185.119,-23.8378"/>
<polygon fill="midnightblue" stroke="midnightblue" points="186.135,-27.1945 195.075,-21.5087 184.541,-20.3785 186.135,-27.1945"/>
</g>
</g>
</svg>
