<?xml version="1.0" encoding="UTF-8" standalone="no"?>
<!DOCTYPE svg PUBLIC "-//W3C//DTD SVG 1.1//EN"
 "http://www.w3.org/Graphics/SVG/1.1/DTD/svg11.dtd">
<!-- Generated by graphviz version 2.26.3 (20100126.1600)
 -->
<!-- Title: tetgenbehavior::parse_commandline Pages: 1 -->
<svg width="728pt" height="79pt"
 viewBox="0.00 0.00 728.00 79.00" xmlns="http://www.w3.org/2000/svg" xmlns:xlink="http://www.w3.org/1999/xlink">
<g id="graph1" class="graph" transform="scale(1 1) rotate(0) translate(4 75)">
<title>tetgenbehavior::parse_commandline</title>
<!-- Node1 -->
<g id="node1" class="node"><title>Node1</title>
<polygon fill="#bfbfbf" stroke="black" points="0,-14 0,-48 110,-48 110,-14 0,-14"/>
<text text-anchor="start" x="8" y="-35" font-family="Helvetica,sans-Serif" font-size="10.00">tetgenbehavior::parse</text>
<text text-anchor="middle" x="55" y="-22" font-family="Helvetica,sans-Serif" font-size="10.00">_commandline</text>
</g>
<!-- Node2 -->
<g id="node3" class="node"><title>Node2</title>
<a xlink:href="classtetgenbehavior.xhtml#a240b6eb4bee021fc945ca8b01f7b7b9f" target="_top" xlink:title="tetgenbehavior::parse\l_commandline">
<polygon fill="none" stroke="black" points="146,-14 146,-48 256,-48 256,-14 146,-14"/>
<text text-anchor="start" x="154" y="-35" font-family="Helvetica,sans-Serif" font-size="10.00">tetgenbehavior::parse</text>
<text text-anchor="middle" x="201" y="-22" font-family="Helvetica,sans-Serif" font-size="10.00">_commandline</text>
</a>
</g>
<!-- Node1&#45;&gt;Node2 -->
<g id="edge2" class="edge"><title>Node1&#45;&gt;Node2</title>
<path fill="none" stroke="midnightblue" d="M110.196,-31C118.463,-31 127.055,-31 135.51,-31"/>
<polygon fill="midnightblue" stroke="midnightblue" points="135.726,-34.5001 145.726,-31 135.726,-27.5001 135.726,-34.5001"/>
</g>
<!-- Node3 -->
<g id="node5" class="node"><title>Node3</title>
<a xlink:href="classtetgenbehavior.xhtml#aa0bf59fe9ca35269d58e5f1ee10aca05" target="_top" xlink:title="tetgenbehavior::usage">
<polygon fill="none" stroke="black" points="292.5,-20.5 292.5,-41.5 405.5,-41.5 405.5,-20.5 292.5,-20.5"/>
<text text-anchor="middle" x="349" y="-28.5" font-family="Helvetica,sans-Serif" font-size="10.00">tetgenbehavior::usage</text>
</a>
</g>
<!-- Node2&#45;&gt;Node3 -->
<g id="edge4" class="edge"><title>Node2&#45;&gt;Node3</title>
<path fill="none" stroke="midnightblue" d="M256.11,-31C264.616,-31 273.479,-31 282.207,-31"/>
<polygon fill="midnightblue" stroke="midnightblue" points="282.361,-34.5001 292.361,-31 282.361,-27.5001 282.361,-34.5001"/>
</g>
<!-- Node4 -->
<g id="node7" class="node"><title>Node4</title>
<a xlink:href="classtetgenbehavior.xhtml#a6e22cb6ec468a3b0a5fc45fcb4d9709c" target="_top" xlink:title="tetgenbehavior::syntax">
<polygon fill="none" stroke="black" points="442,-49.5 442,-70.5 558,-70.5 558,-49.5 442,-49.5"/>
<text text-anchor="middle" x="500" y="-57.5" font-family="Helvetica,sans-Serif" font-size="10.00">tetgenbehavior::syntax</text>
</a>
</g>
<!-- Node2&#45;&gt;Node4 -->
<g id="edge12" class="edge"><title>Node2&#45;&gt;Node4</title>
<path fill="none" stroke="midnightblue" d="M256.071,-44.7057C267.86,-47.1887 280.291,-49.4717 292,-51 338.422,-57.0593 391.115,-59.291 431.85,-60.0173"/>
<polygon fill="midnightblue" stroke="midnightblue" points="431.885,-63.5181 441.937,-60.1709 431.992,-56.5189 431.885,-63.5181"/>
</g>
<!-- Node5 -->
<g id="node9" class="node"><title>Node5</title>
<a xlink:href="tetgen_8h.xhtml#a4012bf160c63ec4ff007f6645b993ca5" target="_top" xlink:title="terminatetetgen">
<polygon fill="none" stroke="black" points="458,-0.5 458,-21.5 542,-21.5 542,-0.5 458,-0.5"/>
<text text-anchor="middle" x="500" y="-8.5" font-family="Helvetica,sans-Serif" font-size="10.00">terminatetetgen</text>
</a>
</g>
<!-- Node2&#45;&gt;Node5 -->
<g id="edge14" class="edge"><title>Node2&#45;&gt;Node5</title>
<path fill="none" stroke="midnightblue" d="M256.025,-16.9056C267.817,-14.4489 280.261,-12.2748 292,-11 344.733,-5.27349 405.431,-6.11854 447.592,-7.87916"/>
<polygon fill="midnightblue" stroke="midnightblue" points="447.481,-11.3776 457.628,-8.33017 447.795,-4.38467 447.481,-11.3776"/>
</g>
<!-- Node3&#45;&gt;Node4 -->
<g id="edge6" class="edge"><title>Node3&#45;&gt;Node4</title>
<path fill="none" stroke="midnightblue" d="M403.942,-41.5517C414.102,-43.5031 424.8,-45.5577 435.221,-47.5589"/>
<polygon fill="midnightblue" stroke="midnightblue" points="434.619,-51.0072 445.099,-49.4562 435.939,-44.1328 434.619,-51.0072"/>
</g>
<!-- Node3&#45;&gt;Node5 -->
<g id="edge8" class="edge"><title>Node3&#45;&gt;Node5</title>
<path fill="none" stroke="midnightblue" d="M405.656,-23.4958C419.394,-21.6763 434.021,-19.739 447.554,-17.9465"/>
<polygon fill="midnightblue" stroke="midnightblue" points="448.203,-21.3911 457.657,-16.6083 447.284,-14.4517 448.203,-21.3911"/>
</g>
<!-- Node6 -->
<g id="node11" class="node"><title>Node6</title>
<a xlink:href="classtetgenmesh.xhtml#ade805f03ec7ca1b4623c8148fb915278" target="_top" xlink:title="tetgenmesh::freememory">
<polygon fill="none" stroke="black" points="594.5,-0.5 594.5,-21.5 719.5,-21.5 719.5,-0.5 594.5,-0.5"/>
<text text-anchor="middle" x="657" y="-8.5" font-family="Helvetica,sans-Serif" font-size="10.00">tetgenmesh::freememory</text>
</a>
</g>
<!-- Node5&#45;&gt;Node6 -->
<g id="edge10" class="edge"><title>Node5&#45;&gt;Node6</title>
<path fill="none" stroke="midnightblue" d="M542.073,-11C555.01,-11 569.643,-11 584.027,-11"/>
<polygon fill="midnightblue" stroke="midnightblue" points="584.43,-14.5001 594.43,-11 584.43,-7.5001 584.43,-14.5001"/>
</g>
</g>
</svg>
