<?xml version="1.0" encoding="UTF-8" standalone="no"?>
<!DOCTYPE svg PUBLIC "-//W3C//DTD SVG 1.1//EN"
 "http://www.w3.org/Graphics/SVG/1.1/DTD/svg11.dtd">
<!-- Generated by graphviz version 2.26.3 (20100126.1600)
 -->
<!-- Title: tetgenmesh::detectinterfaces Pages: 1 -->
<!--zoomable 346 -->
<svg id="main" version="1.1" xmlns="http://www.w3.org/2000/svg" xmlns:xlink="http://www.w3.org/1999/xlink" xml:space="preserve" onload="init(evt)">
<style type="text/css"><![CDATA[
.edge:hover path { stroke: red; }
.edge:hover polygon { stroke: red; fill: red; }
]]></style>
<script type="text/javascript"><![CDATA[
var edges = document.getElementsByTagName('g');
if (edges && edges.length) {
  for (var i=0;i<edges.length;i++) {
    if (edges[i].id.substr(0,4)=='edge') {
      edges[i].setAttribute('class','edge');
    }
  }
}
]]></script>
        <defs>
                <circle id="rim" cx="0" cy="0" r="7"/>
                <circle id="rim2" cx="0" cy="0" r="3.5"/>
                <g id="zoomPlus">
                        <use xlink:href="#rim" fill="#404040">
                                <set attributeName="fill" to="#808080" begin="zoomplus.mouseover" end="zoomplus.mouseout"/>
                        </use>
                        <path d="M-4,0h8M0,-4v8" fill="none" stroke="white" stroke-width="1.5" pointer-events="none"/>
                </g>
                <g id="zoomMin">
                        <use xlink:href="#rim" fill="#404040">
                                <set attributeName="fill" to="#808080" begin="zoomminus.mouseover" end="zoomminus.mouseout"/>
                        </use>
                        <path d="M-4,0h8" fill="none" stroke="white" stroke-width="1.5" pointer-events="none"/>
                </g>
                <g id="dirArrow">
                        <path fill="none" stroke="white" stroke-width="1.5" d="M0,-3.0v7 M-2.5,-0.5L0,-3.0L2.5,-0.5"/>
                </g>
               <g id="resetDef">
                       <use xlink:href="#rim2" fill="#404040">
                               <set attributeName="fill" to="#808080" begin="reset.mouseover" end="reset.mouseout"/>
                       </use>
               </g>
        </defs>

<script type="text/javascript">
var viewWidth = 1444;
var viewHeight = 346;
var sectionId = 'dynsection-65';
</script>
<script xlink:href="svgpan.js"/>
<svg id="graph" class="graph">
<g id="viewport">
<title>tetgenmesh::detectinterfaces</title>
<!-- Node1 -->
<g id="node1" class="node"><title>Node1</title>
<polygon fill="#bfbfbf" stroke="black" points="0.5,-132.5 0.5,-153.5 143.5,-153.5 143.5,-132.5 0.5,-132.5"/>
<text text-anchor="middle" x="72" y="-140.5" font-family="Helvetica,sans-Serif" font-size="10.00">tetgenmesh::detectinterfaces</text>
</g>
<!-- Node2 -->
<g id="node3" class="node"><title>Node2</title>
<a xlink:href="classtetgenmesh_1_1memorypool.xhtml#a623b101e4e2f249d8b7e5dba65c3f7e2" target="_top" xlink:title="tetgenmesh::memorypool\l::traversalinit">
<polygon fill="none" stroke="black" points="190.5,-252 190.5,-286 317.5,-286 317.5,-252 190.5,-252"/>
<text text-anchor="start" x="198.5" y="-273" font-family="Helvetica,sans-Serif" font-size="10.00">tetgenmesh::memorypool</text>
<text text-anchor="middle" x="254" y="-260" font-family="Helvetica,sans-Serif" font-size="10.00">::traversalinit</text>
</a>
</g>
<!-- Node1&#45;&gt;Node2 -->
<g id="edge2" class="edge"><title>Node1&#45;&gt;Node2</title>
<path fill="none" stroke="midnightblue" d="M80.7286,-153.562C97.8261,-173.632 137.761,-217.542 180,-243 182.655,-244.6 185.423,-246.122 188.263,-247.565"/>
<polygon fill="midnightblue" stroke="midnightblue" points="186.988,-250.833 197.527,-251.913 189.962,-244.496 186.988,-250.833"/>
</g>
<!-- Node3 -->
<g id="node5" class="node"><title>Node3</title>
<a xlink:href="classtetgenmesh.xhtml#ae50ecae1d69935b12a4fa7ca843011d7" target="_top" xlink:title="tetgenmesh::shellfacetraverse">
<polygon fill="none" stroke="black" points="180,-212.5 180,-233.5 328,-233.5 328,-212.5 180,-212.5"/>
<text text-anchor="middle" x="254" y="-220.5" font-family="Helvetica,sans-Serif" font-size="10.00">tetgenmesh::shellfacetraverse</text>
</a>
</g>
<!-- Node1&#45;&gt;Node3 -->
<g id="edge4" class="edge"><title>Node1&#45;&gt;Node3</title>
<path fill="none" stroke="midnightblue" d="M88.2114,-153.659C108.813,-166.811 145.815,-189.126 180,-203 185.827,-205.365 192.023,-207.538 198.255,-209.509"/>
<polygon fill="midnightblue" stroke="midnightblue" points="197.444,-212.92 208.028,-212.441 199.455,-206.215 197.444,-212.92"/>
</g>
<!-- Node5 -->
<g id="node9" class="node"><title>Node5</title>
<a xlink:href="classtetgenmesh.xhtml#a46c5e7f1f3f94dd0c493f2b559671854" target="_top" xlink:title="tetgenmesh::interecursive">
<polygon fill="none" stroke="black" points="189.5,-172.5 189.5,-193.5 318.5,-193.5 318.5,-172.5 189.5,-172.5"/>
<text text-anchor="middle" x="254" y="-180.5" font-family="Helvetica,sans-Serif" font-size="10.00">tetgenmesh::interecursive</text>
</a>
</g>
<!-- Node1&#45;&gt;Node5 -->
<g id="edge8" class="edge"><title>Node1&#45;&gt;Node5</title>
<path fill="none" stroke="midnightblue" d="M119.818,-153.51C143.237,-158.657 171.624,-164.895 196.246,-170.307"/>
<polygon fill="midnightblue" stroke="midnightblue" points="195.667,-173.763 206.185,-172.491 197.17,-166.926 195.667,-173.763"/>
</g>
<!-- Node24 -->
<g id="node50" class="node"><title>Node24</title>
<a xlink:href="classtetgenmesh.xhtml#a5ffe02962a36a2c20231991c2c1a1996" target="_top" xlink:title="tetgenmesh::sinfected">
<polygon fill="none" stroke="black" points="197.5,-132.5 197.5,-153.5 310.5,-153.5 310.5,-132.5 197.5,-132.5"/>
<text text-anchor="middle" x="254" y="-140.5" font-family="Helvetica,sans-Serif" font-size="10.00">tetgenmesh::sinfected</text>
</a>
</g>
<!-- Node1&#45;&gt;Node24 -->
<g id="edge52" class="edge"><title>Node1&#45;&gt;Node24</title>
<path fill="none" stroke="midnightblue" d="M143.67,-143C157.998,-143 172.996,-143 187.154,-143"/>
<polygon fill="midnightblue" stroke="midnightblue" points="187.293,-146.5 197.293,-143 187.293,-139.5 187.293,-146.5"/>
</g>
<!-- Node25 -->
<g id="node52" class="node"><title>Node25</title>
<a xlink:href="classtetgenmesh.xhtml#a511f009f29bef3d614063e9c174bc677" target="_top" xlink:title="tetgenmesh::suninfect">
<polygon fill="none" stroke="black" points="197.5,-92.5 197.5,-113.5 310.5,-113.5 310.5,-92.5 197.5,-92.5"/>
<text text-anchor="middle" x="254" y="-100.5" font-family="Helvetica,sans-Serif" font-size="10.00">tetgenmesh::suninfect</text>
</a>
</g>
<!-- Node1&#45;&gt;Node25 -->
<g id="edge54" class="edge"><title>Node1&#45;&gt;Node25</title>
<path fill="none" stroke="midnightblue" d="M119.818,-132.49C143.237,-127.343 171.624,-121.105 196.246,-115.693"/>
<polygon fill="midnightblue" stroke="midnightblue" points="197.17,-119.074 206.185,-113.509 195.667,-112.237 197.17,-119.074"/>
</g>
<!-- Node26 -->
<g id="node54" class="node"><title>Node26</title>
<a xlink:href="classtetgenmesh.xhtml#ab368f639981dcf465b5e8654942bcc69" target="_top" xlink:title="tetgenmesh::shellfacedealloc">
<polygon fill="none" stroke="black" points="182.5,-52.5 182.5,-73.5 325.5,-73.5 325.5,-52.5 182.5,-52.5"/>
<text text-anchor="middle" x="254" y="-60.5" font-family="Helvetica,sans-Serif" font-size="10.00">tetgenmesh::shellfacedealloc</text>
</a>
</g>
<!-- Node1&#45;&gt;Node26 -->
<g id="edge56" class="edge"><title>Node1&#45;&gt;Node26</title>
<path fill="none" stroke="midnightblue" d="M88.2114,-132.341C108.813,-119.189 145.815,-96.8735 180,-83 185.827,-80.6353 192.023,-78.4623 198.255,-76.4906"/>
<polygon fill="midnightblue" stroke="midnightblue" points="199.455,-79.7847 208.028,-73.5594 197.444,-73.0798 199.455,-79.7847"/>
</g>
<!-- Node28 -->
<g id="node58" class="node"><title>Node28</title>
<a xlink:href="classtetgenmesh_1_1memorypool.xhtml#a8a34eeaa526e3a27ac9187ff1ead2938" target="_top" xlink:title="tetgenmesh::memorypool\l::restart">
<polygon fill="none" stroke="black" points="190.5,-0 190.5,-34 317.5,-34 317.5,-0 190.5,-0"/>
<text text-anchor="start" x="198.5" y="-21" font-family="Helvetica,sans-Serif" font-size="10.00">tetgenmesh::memorypool</text>
<text text-anchor="middle" x="254" y="-8" font-family="Helvetica,sans-Serif" font-size="10.00">::restart</text>
</a>
</g>
<!-- Node1&#45;&gt;Node28 -->
<g id="edge60" class="edge"><title>Node1&#45;&gt;Node28</title>
<path fill="none" stroke="midnightblue" d="M80.7286,-132.438C97.8261,-112.368 137.761,-68.4582 180,-43 182.655,-41.3997 185.423,-39.8785 188.263,-38.4348"/>
<polygon fill="midnightblue" stroke="midnightblue" points="189.962,-41.5038 197.527,-34.0866 186.988,-35.1671 189.962,-41.5038"/>
</g>
<!-- Node4 -->
<g id="node7" class="node"><title>Node4</title>
<a xlink:href="classtetgenmesh_1_1memorypool.xhtml#a151fe73459d0fa9a7262d0030fecf291" target="_top" xlink:title="tetgenmesh::memorypool\l::traverse">
<polygon fill="none" stroke="black" points="364.5,-304 364.5,-338 491.5,-338 491.5,-304 364.5,-304"/>
<text text-anchor="start" x="372.5" y="-325" font-family="Helvetica,sans-Serif" font-size="10.00">tetgenmesh::memorypool</text>
<text text-anchor="middle" x="428" y="-312" font-family="Helvetica,sans-Serif" font-size="10.00">::traverse</text>
</a>
</g>
<!-- Node3&#45;&gt;Node4 -->
<g id="edge6" class="edge"><title>Node3&#45;&gt;Node4</title>
<path fill="none" stroke="midnightblue" d="M310.074,-233.556C316.428,-236.062 322.564,-239.163 328,-243 350.965,-259.209 342.065,-277.422 364,-295 365.544,-296.237 367.155,-297.423 368.818,-298.559"/>
<polygon fill="midnightblue" stroke="midnightblue" points="367.13,-301.629 377.494,-303.829 370.764,-295.646 367.13,-301.629"/>
</g>
<!-- Node6 -->
<g id="node11" class="node"><title>Node6</title>
<a xlink:href="tetgen_8h.xhtml#a4012bf160c63ec4ff007f6645b993ca5" target="_top" xlink:title="terminatetetgen">
<polygon fill="none" stroke="black" points="386,-264.5 386,-285.5 470,-285.5 470,-264.5 386,-264.5"/>
<text text-anchor="middle" x="428" y="-272.5" font-family="Helvetica,sans-Serif" font-size="10.00">terminatetetgen</text>
</a>
</g>
<!-- Node5&#45;&gt;Node6 -->
<g id="edge10" class="edge"><title>Node5&#45;&gt;Node6</title>
<path fill="none" stroke="midnightblue" d="M310.074,-193.556C316.428,-196.062 322.564,-199.163 328,-203 350.965,-219.209 341.355,-238.347 364,-255 367.842,-257.825 372.094,-260.259 376.525,-262.353"/>
<polygon fill="midnightblue" stroke="midnightblue" points="375.222,-265.602 385.8,-266.193 377.9,-259.134 375.222,-265.602"/>
</g>
<!-- Node8 -->
<g id="node15" class="node"><title>Node8</title>
<a xlink:href="classtetgenmesh.xhtml#a8d7e2af757a3a301a22e46580e037f7c" target="_top" xlink:title="tetgenmesh::tri_tri\l_inter">
<polygon fill="none" stroke="black" points="380.5,-212 380.5,-246 475.5,-246 475.5,-212 380.5,-212"/>
<text text-anchor="start" x="388.5" y="-233" font-family="Helvetica,sans-Serif" font-size="10.00">tetgenmesh::tri_tri</text>
<text text-anchor="middle" x="428" y="-220" font-family="Helvetica,sans-Serif" font-size="10.00">_inter</text>
</a>
</g>
<!-- Node5&#45;&gt;Node8 -->
<g id="edge14" class="edge"><title>Node5&#45;&gt;Node8</title>
<path fill="none" stroke="midnightblue" d="M293.919,-193.553C316.594,-199.548 345.376,-207.157 370.455,-213.787"/>
<polygon fill="midnightblue" stroke="midnightblue" points="369.661,-217.197 380.224,-216.369 371.45,-210.43 369.661,-217.197"/>
</g>
<!-- Node21 -->
<g id="node44" class="node"><title>Node21</title>
<a xlink:href="classtetgenmesh.xhtml#ab5a2f1e0884a200fc6152ec15c2531d9" target="_top" xlink:title="tetgenmesh::shellmark">
<polygon fill="none" stroke="black" points="370,-172.5 370,-193.5 486,-193.5 486,-172.5 370,-172.5"/>
<text text-anchor="middle" x="428" y="-180.5" font-family="Helvetica,sans-Serif" font-size="10.00">tetgenmesh::shellmark</text>
</a>
</g>
<!-- Node5&#45;&gt;Node21 -->
<g id="edge46" class="edge"><title>Node5&#45;&gt;Node21</title>
<path fill="none" stroke="midnightblue" d="M318.791,-183C332.111,-183 346.176,-183 359.619,-183"/>
<polygon fill="midnightblue" stroke="midnightblue" points="359.754,-186.5 369.754,-183 359.754,-179.5 359.754,-186.5"/>
</g>
<!-- Node22 -->
<g id="node46" class="node"><title>Node22</title>
<a xlink:href="classtetgenmesh.xhtml#a46fa5fabd0e8e806f7f8beb069732e21" target="_top" xlink:title="tetgenmesh::pointmark">
<polygon fill="none" stroke="black" points="370,-132.5 370,-153.5 486,-153.5 486,-132.5 370,-132.5"/>
<text text-anchor="middle" x="428" y="-140.5" font-family="Helvetica,sans-Serif" font-size="10.00">tetgenmesh::pointmark</text>
</a>
</g>
<!-- Node5&#45;&gt;Node22 -->
<g id="edge48" class="edge"><title>Node5&#45;&gt;Node22</title>
<path fill="none" stroke="midnightblue" d="M299.716,-172.49C322.007,-167.366 349.004,-161.16 372.47,-155.765"/>
<polygon fill="midnightblue" stroke="midnightblue" points="373.325,-159.16 382.287,-153.509 371.757,-152.338 373.325,-159.16"/>
</g>
<!-- Node23 -->
<g id="node48" class="node"><title>Node23</title>
<a xlink:href="classtetgenmesh.xhtml#aa417a432076c7de138fed761c5322f4f" target="_top" xlink:title="tetgenmesh::sinfect">
<polygon fill="none" stroke="black" points="376.5,-92.5 376.5,-113.5 479.5,-113.5 479.5,-92.5 376.5,-92.5"/>
<text text-anchor="middle" x="428" y="-100.5" font-family="Helvetica,sans-Serif" font-size="10.00">tetgenmesh::sinfect</text>
</a>
</g>
<!-- Node5&#45;&gt;Node23 -->
<g id="edge50" class="edge"><title>Node5&#45;&gt;Node23</title>
<path fill="none" stroke="midnightblue" d="M307.687,-172.46C314.791,-169.94 321.764,-166.832 328,-163 348.378,-150.479 343.869,-135.915 364,-123 367.123,-120.996 370.461,-119.182 373.911,-117.54"/>
<polygon fill="midnightblue" stroke="midnightblue" points="375.396,-120.712 383.237,-113.586 372.664,-114.267 375.396,-120.712"/>
</g>
<!-- Node7 -->
<g id="node13" class="node"><title>Node7</title>
<a xlink:href="classtetgenmesh.xhtml#ade805f03ec7ca1b4623c8148fb915278" target="_top" xlink:title="tetgenmesh::freememory">
<polygon fill="none" stroke="black" points="528.5,-264.5 528.5,-285.5 653.5,-285.5 653.5,-264.5 528.5,-264.5"/>
<text text-anchor="middle" x="591" y="-272.5" font-family="Helvetica,sans-Serif" font-size="10.00">tetgenmesh::freememory</text>
</a>
</g>
<!-- Node6&#45;&gt;Node7 -->
<g id="edge12" class="edge"><title>Node6&#45;&gt;Node7</title>
<path fill="none" stroke="midnightblue" d="M470.401,-275C485.008,-275 501.812,-275 518.147,-275"/>
<polygon fill="midnightblue" stroke="midnightblue" points="518.234,-278.5 528.234,-275 518.234,-271.5 518.234,-278.5"/>
</g>
<!-- Node9 -->
<g id="node17" class="node"><title>Node9</title>
<a xlink:href="predicates_8cxx.xhtml#a701f35178b28c7bbb94644665c0b058a" target="_top" xlink:title="orient3d">
<polygon fill="none" stroke="black" points="1047.5,-203.5 1047.5,-224.5 1098.5,-224.5 1098.5,-203.5 1047.5,-203.5"/>
<text text-anchor="middle" x="1073" y="-211.5" font-family="Helvetica,sans-Serif" font-size="10.00">orient3d</text>
</a>
</g>
<!-- Node8&#45;&gt;Node9 -->
<g id="edge16" class="edge"><title>Node8&#45;&gt;Node9</title>
<path fill="none" stroke="midnightblue" d="M475.69,-227.891C599.228,-225.018 927.619,-217.381 1036.99,-214.837"/>
<polygon fill="midnightblue" stroke="midnightblue" points="1037.26,-218.332 1047.17,-214.601 1037.1,-211.334 1037.26,-218.332"/>
</g>
<!-- Node14 -->
<g id="node27" class="node"><title>Node14</title>
<a xlink:href="classtetgenmesh.xhtml#aa3f520658457aef3298ec00832c5e960" target="_top" xlink:title="tetgenmesh::tri_edge\l_inter_tail">
<polygon fill="none" stroke="black" points="537,-171 537,-205 645,-205 645,-171 537,-171"/>
<text text-anchor="start" x="545" y="-192" font-family="Helvetica,sans-Serif" font-size="10.00">tetgenmesh::tri_edge</text>
<text text-anchor="middle" x="591" y="-179" font-family="Helvetica,sans-Serif" font-size="10.00">_inter_tail</text>
</a>
</g>
<!-- Node8&#45;&gt;Node14 -->
<g id="edge26" class="edge"><title>Node8&#45;&gt;Node14</title>
<path fill="none" stroke="midnightblue" d="M475.585,-217.031C491.609,-213 509.763,-208.434 526.849,-204.136"/>
<polygon fill="midnightblue" stroke="midnightblue" points="527.918,-207.476 536.762,-201.643 526.211,-200.688 527.918,-207.476"/>
</g>
<!-- Node10 -->
<g id="node19" class="node"><title>Node10</title>
<a xlink:href="predicates_8cxx.xhtml#ae16b246ccaad9f1d90f37590816c5fde" target="_top" xlink:title="orient3dadapt">
<polygon fill="none" stroke="black" points="1181.5,-203.5 1181.5,-224.5 1256.5,-224.5 1256.5,-203.5 1181.5,-203.5"/>
<text text-anchor="middle" x="1219" y="-211.5" font-family="Helvetica,sans-Serif" font-size="10.00">orient3dadapt</text>
</a>
</g>
<!-- Node9&#45;&gt;Node10 -->
<g id="edge18" class="edge"><title>Node9&#45;&gt;Node10</title>
<path fill="none" stroke="midnightblue" d="M1098.77,-214C1118.82,-214 1147.21,-214 1171.37,-214"/>
<polygon fill="midnightblue" stroke="midnightblue" points="1171.43,-217.5 1181.43,-214 1171.43,-210.5 1171.43,-217.5"/>
</g>
<!-- Node11 -->
<g id="node21" class="node"><title>Node11</title>
<a xlink:href="predicates_8cxx.xhtml#abdcdaa8948d9a2937154d9d67f67da8d" target="_top" xlink:title="scale_expansion_zeroelim">
<polygon fill="none" stroke="black" points="1304.5,-249.5 1304.5,-270.5 1435.5,-270.5 1435.5,-249.5 1304.5,-249.5"/>
<text text-anchor="middle" x="1370" y="-257.5" font-family="Helvetica,sans-Serif" font-size="10.00">scale_expansion_zeroelim</text>
</a>
</g>
<!-- Node10&#45;&gt;Node11 -->
<g id="edge20" class="edge"><title>Node10&#45;&gt;Node11</title>
<path fill="none" stroke="midnightblue" d="M1253.32,-224.52C1268.8,-229.26 1287.32,-234.921 1304,-240 1310.93,-242.11 1318.27,-244.339 1325.44,-246.514"/>
<polygon fill="midnightblue" stroke="midnightblue" points="1324.47,-249.878 1335.06,-249.43 1326.5,-243.179 1324.47,-249.878"/>
</g>
<!-- Node12 -->
<g id="node23" class="node"><title>Node12</title>
<a xlink:href="predicates_8cxx.xhtml#a37646a7e0014e10c612e946bc95aeeea" target="_top" xlink:title="fast_expansion_sum\l_zeroelim">
<polygon fill="none" stroke="black" points="1316.5,-197 1316.5,-231 1423.5,-231 1423.5,-197 1316.5,-197"/>
<text text-anchor="start" x="1324.5" y="-218" font-family="Helvetica,sans-Serif" font-size="10.00">fast_expansion_sum</text>
<text text-anchor="middle" x="1370" y="-205" font-family="Helvetica,sans-Serif" font-size="10.00">_zeroelim</text>
</a>
</g>
<!-- Node10&#45;&gt;Node12 -->
<g id="edge22" class="edge"><title>Node10&#45;&gt;Node12</title>
<path fill="none" stroke="midnightblue" d="M1256.71,-214C1271.62,-214 1289.16,-214 1305.94,-214"/>
<polygon fill="midnightblue" stroke="midnightblue" points="1306.26,-217.5 1316.26,-214 1306.26,-210.5 1306.26,-217.5"/>
</g>
<!-- Node13 -->
<g id="node25" class="node"><title>Node13</title>
<a xlink:href="predicates_8cxx.xhtml#a3487d9f90ea72da543d5d38b3dab1fbc" target="_top" xlink:title="estimate">
<polygon fill="none" stroke="black" points="1343,-157.5 1343,-178.5 1397,-178.5 1397,-157.5 1343,-157.5"/>
<text text-anchor="middle" x="1370" y="-165.5" font-family="Helvetica,sans-Serif" font-size="10.00">estimate</text>
</a>
</g>
<!-- Node10&#45;&gt;Node13 -->
<g id="edge24" class="edge"><title>Node10&#45;&gt;Node13</title>
<path fill="none" stroke="midnightblue" d="M1253.32,-203.48C1268.8,-198.74 1287.32,-193.079 1304,-188 1313.44,-185.127 1323.63,-182.032 1333.13,-179.155"/>
<polygon fill="midnightblue" stroke="midnightblue" points="1334.14,-182.504 1342.7,-176.255 1332.12,-175.804 1334.14,-182.504"/>
</g>
<!-- Node15 -->
<g id="node29" class="node"><title>Node15</title>
<a xlink:href="classtetgenmesh.xhtml#a719a8d28b08865c073395b2650c7b477" target="_top" xlink:title="tetgenmesh::tri_edge_tail">
<polygon fill="none" stroke="black" points="690,-177.5 690,-198.5 816,-198.5 816,-177.5 690,-177.5"/>
<text text-anchor="middle" x="753" y="-185.5" font-family="Helvetica,sans-Serif" font-size="10.00">tetgenmesh::tri_edge_tail</text>
</a>
</g>
<!-- Node14&#45;&gt;Node15 -->
<g id="edge28" class="edge"><title>Node14&#45;&gt;Node15</title>
<path fill="none" stroke="midnightblue" d="M645.394,-188C656.414,-188 668.172,-188 679.72,-188"/>
<polygon fill="midnightblue" stroke="midnightblue" points="679.789,-191.5 689.789,-188 679.789,-184.5 679.789,-191.5"/>
</g>
<!-- Node15&#45;&gt;Node9 -->
<g id="edge44" class="edge"><title>Node15&#45;&gt;Node9</title>
<path fill="none" stroke="midnightblue" d="M816.222,-193.137C882.306,-198.506 983.672,-206.742 1037.13,-211.086"/>
<polygon fill="midnightblue" stroke="midnightblue" points="1036.91,-214.579 1047.16,-211.901 1037.48,-207.602 1036.91,-214.579"/>
</g>
<!-- Node16 -->
<g id="node31" class="node"><title>Node16</title>
<a xlink:href="classtetgenmesh.xhtml#a6dbb29feba157ab5d848921fa0a11c08" target="_top" xlink:title="tetgenmesh::tri_edge_2d">
<polygon fill="none" stroke="black" points="852,-145.5 852,-166.5 976,-166.5 976,-145.5 852,-145.5"/>
<text text-anchor="middle" x="914" y="-153.5" font-family="Helvetica,sans-Serif" font-size="10.00">tetgenmesh::tri_edge_2d</text>
</a>
</g>
<!-- Node15&#45;&gt;Node16 -->
<g id="edge30" class="edge"><title>Node15&#45;&gt;Node16</title>
<path fill="none" stroke="midnightblue" d="M806.164,-177.433C820.527,-174.579 836.207,-171.462 851.051,-168.512"/>
<polygon fill="midnightblue" stroke="midnightblue" points="852.041,-171.883 861.167,-166.501 850.676,-165.018 852.041,-171.883"/>
</g>
<!-- Node16&#45;&gt;Node9 -->
<g id="edge42" class="edge"><title>Node16&#45;&gt;Node9</title>
<path fill="none" stroke="midnightblue" d="M942.794,-166.503C969.451,-176.227 1009.16,-190.714 1037.72,-201.129"/>
<polygon fill="midnightblue" stroke="midnightblue" points="1036.72,-204.49 1047.31,-204.629 1039.12,-197.914 1036.72,-204.49"/>
</g>
<!-- Node17 -->
<g id="node33" class="node"><title>Node17</title>
<a xlink:href="classtetgenmesh.xhtml#adef28f2839ea13688a3ac9a7184d1db8" target="_top" xlink:title="tetgenmesh::facenormal">
<polygon fill="none" stroke="black" points="1012,-125.5 1012,-146.5 1134,-146.5 1134,-125.5 1012,-125.5"/>
<text text-anchor="middle" x="1073" y="-133.5" font-family="Helvetica,sans-Serif" font-size="10.00">tetgenmesh::facenormal</text>
</a>
</g>
<!-- Node16&#45;&gt;Node17 -->
<g id="edge32" class="edge"><title>Node16&#45;&gt;Node17</title>
<path fill="none" stroke="midnightblue" d="M976.385,-148.153C984.673,-147.11 993.222,-146.035 1001.65,-144.975"/>
<polygon fill="midnightblue" stroke="midnightblue" points="1002.35,-148.414 1011.84,-143.693 1001.48,-141.469 1002.35,-148.414"/>
</g>
<!-- Node18 -->
<g id="node35" class="node"><title>Node18</title>
<a xlink:href="classtetgenmesh.xhtml#afa0906703b590597155547336c360004" target="_top" xlink:title="tetgenmesh::dot">
<polygon fill="none" stroke="black" points="1175.5,-163.5 1175.5,-184.5 1262.5,-184.5 1262.5,-163.5 1175.5,-163.5"/>
<text text-anchor="middle" x="1219" y="-171.5" font-family="Helvetica,sans-Serif" font-size="10.00">tetgenmesh::dot</text>
</a>
</g>
<!-- Node16&#45;&gt;Node18 -->
<g id="edge38" class="edge"><title>Node16&#45;&gt;Node18</title>
<path fill="none" stroke="midnightblue" d="M976.089,-159.664C1031.61,-162.941 1112.15,-167.694 1165.03,-170.815"/>
<polygon fill="midnightblue" stroke="midnightblue" points="1165.04,-174.321 1175.23,-171.417 1165.45,-167.334 1165.04,-174.321"/>
</g>
<!-- Node20 -->
<g id="node40" class="node"><title>Node20</title>
<a xlink:href="classtetgenmesh.xhtml#a4f2849235299c81ad7d585dc0b657d80" target="_top" xlink:title="tetgenmesh::distance">
<polygon fill="none" stroke="black" points="1018,-85.5 1018,-106.5 1128,-106.5 1128,-85.5 1018,-85.5"/>
<text text-anchor="middle" x="1073" y="-93.5" font-family="Helvetica,sans-Serif" font-size="10.00">tetgenmesh::distance</text>
</a>
</g>
<!-- Node16&#45;&gt;Node20 -->
<g id="edge40" class="edge"><title>Node16&#45;&gt;Node20</title>
<path fill="none" stroke="midnightblue" d="M938.38,-145.488C958.095,-137.124 986.644,-125.318 1012,-116 1017.63,-113.931 1023.59,-111.849 1029.49,-109.849"/>
<polygon fill="midnightblue" stroke="midnightblue" points="1030.91,-113.063 1039.29,-106.58 1028.7,-106.422 1030.91,-113.063"/>
</g>
<!-- Node17&#45;&gt;Node18 -->
<g id="edge34" class="edge"><title>Node17&#45;&gt;Node18</title>
<path fill="none" stroke="midnightblue" d="M1113.67,-146.585C1130.76,-151.032 1150.8,-156.25 1168.8,-160.933"/>
<polygon fill="midnightblue" stroke="midnightblue" points="1167.99,-164.34 1178.55,-163.472 1169.75,-157.566 1167.99,-164.34"/>
</g>
<!-- Node19 -->
<g id="node37" class="node"><title>Node19</title>
<a xlink:href="classtetgenmesh.xhtml#a9b5ff4d3e2452044830fbd47d2f70cbd" target="_top" xlink:title="tetgenmesh::cross">
<polygon fill="none" stroke="black" points="1170,-123.5 1170,-144.5 1268,-144.5 1268,-123.5 1170,-123.5"/>
<text text-anchor="middle" x="1219" y="-131.5" font-family="Helvetica,sans-Serif" font-size="10.00">tetgenmesh::cross</text>
</a>
</g>
<!-- Node17&#45;&gt;Node19 -->
<g id="edge36" class="edge"><title>Node17&#45;&gt;Node19</title>
<path fill="none" stroke="midnightblue" d="M1134.07,-135.163C1142.52,-135.048 1151.18,-134.929 1159.59,-134.814"/>
<polygon fill="midnightblue" stroke="midnightblue" points="1159.75,-138.312 1169.7,-134.675 1159.65,-131.313 1159.75,-138.312"/>
</g>
<!-- Node27 -->
<g id="node56" class="node"><title>Node27</title>
<a xlink:href="classtetgenmesh_1_1memorypool.xhtml#a0329d16675985efd7fd1e0a0630cabf7" target="_top" xlink:title="tetgenmesh::memorypool\l::dealloc">
<polygon fill="none" stroke="black" points="364.5,-40 364.5,-74 491.5,-74 491.5,-40 364.5,-40"/>
<text text-anchor="start" x="372.5" y="-61" font-family="Helvetica,sans-Serif" font-size="10.00">tetgenmesh::memorypool</text>
<text text-anchor="middle" x="428" y="-48" font-family="Helvetica,sans-Serif" font-size="10.00">::dealloc</text>
</a>
</g>
<!-- Node26&#45;&gt;Node27 -->
<g id="edge58" class="edge"><title>Node26&#45;&gt;Node27</title>
<path fill="none" stroke="midnightblue" d="M325.526,-60.5336C334.956,-60.2084 344.637,-59.8746 354.106,-59.5481"/>
<polygon fill="midnightblue" stroke="midnightblue" points="354.403,-63.04 364.276,-59.1974 354.162,-56.0442 354.403,-63.04"/>
</g>
</g>
</svg>
        <g id="navigator" transform="translate(0 0)" fill="#404254">
                <rect fill="#f2f5e9" fill-opacity="0.5" stroke="#606060" stroke-width=".5" x="0" y="0" width="60" height="60"/>
                <use id="zoomplus" xlink:href="#zoomPlus" x="17" y="9" onmousedown="handleZoom(evt,'in')"/>
                <use id="zoomminus" xlink:href="#zoomMin" x="42" y="9" onmousedown="handleZoom(evt,'out')"/>
                <use id="reset" xlink:href="#resetDef" x="30" y="36" onmousedown="handleReset()"/>
                <g id="arrowUp" xlink:href="#dirArrow" transform="translate(30 24)" onmousedown="handlePan(0,-1)">
                  <use xlink:href="#rim" fill="#404040">
                        <set attributeName="fill" to="#808080" begin="arrowUp.mouseover" end="arrowUp.mouseout"/>
                  </use>
                  <path fill="none" stroke="white" stroke-width="1.5" d="M0,-3.0v7 M-2.5,-0.5L0,-3.0L2.5,-0.5"/>
                </g>
                <g id="arrowRight" xlink:href="#dirArrow" transform="rotate(90) translate(36 -43)" onmousedown="handlePan(1,0)">
                  <use xlink:href="#rim" fill="#404040">
                        <set attributeName="fill" to="#808080" begin="arrowRight.mouseover" end="arrowRight.mouseout"/>
                  </use>
                  <path fill="none" stroke="white" stroke-width="1.5" d="M0,-3.0v7 M-2.5,-0.5L0,-3.0L2.5,-0.5"/>
                </g>
                <g id="arrowDown" xlink:href="#dirArrow" transform="rotate(180) translate(-30 -48)" onmousedown="handlePan(0,1)">
                  <use xlink:href="#rim" fill="#404040">
                        <set attributeName="fill" to="#808080" begin="arrowDown.mouseover" end="arrowDown.mouseout"/>
                  </use>
                  <path fill="none" stroke="white" stroke-width="1.5" d="M0,-3.0v7 M-2.5,-0.5L0,-3.0L2.5,-0.5"/>
                </g>
                <g id="arrowLeft" xlink:href="#dirArrow" transform="rotate(270) translate(-36 17)" onmousedown="handlePan(-1,0)">
                  <use xlink:href="#rim" fill="#404040">
                        <set attributeName="fill" to="#808080" begin="arrowLeft.mouseover" end="arrowLeft.mouseout"/>
                  </use>
                  <path fill="none" stroke="white" stroke-width="1.5" d="M0,-3.0v7 M-2.5,-0.5L0,-3.0L2.5,-0.5"/>
                </g>
        </g>
        <svg viewBox="0 0 15 15" width="100%" height="30px" preserveAspectRatio="xMaxYMin meet">
         <g id="arrow_out" transform="scale(0.3 0.3)">
          <a xlink:href="classtetgenmesh_a854e8e8d77d2d1b2b74372a87a1a7717_cgraph_org.svg" target="_base">
           <rect id="button" ry="5" rx="5" y="6" x="6" height="38" width="38"
                fill="#f2f5e9" fill-opacity="0.5" stroke="#606060" stroke-width="1.0"/>
           <path id="arrow"
             d="M 11.500037,31.436501 C 11.940474,20.09759 22.043105,11.32322 32.158766,21.979434 L 37.068811,17.246167 C 37.068811,17.246167 37.088388,32 37.088388,32 L 22.160133,31.978069 C 22.160133,31.978069 26.997745,27.140456 26.997745,27.140456 C 18.528582,18.264221 13.291696,25.230495 11.500037,31.436501 z"
             style="fill:#404040;"/>
          </a>
         </g>
        </svg>
</svg>
