<?xml version="1.0" encoding="UTF-8" standalone="no"?>
<!DOCTYPE svg PUBLIC "-//W3C//DTD SVG 1.1//EN"
 "http://www.w3.org/Graphics/SVG/1.1/DTD/svg11.dtd">
<!-- Generated by graphviz version 2.26.3 (20100126.1600)
 -->
<!-- Title: tetgenmesh::orient4d_s Pages: 1 -->
<svg width="2142pt" height="590pt"
 viewBox="0.00 0.00 2142.00 589.64" xmlns="http://www.w3.org/2000/svg" xmlns:xlink="http://www.w3.org/1999/xlink">
<g id="graph1" class="graph" transform="scale(1 1) rotate(0) translate(4 585.641)">
<title>tetgenmesh::orient4d_s</title>
<!-- Node1 -->
<g id="node1" class="node"><title>Node1</title>
<polygon fill="#bfbfbf" stroke="black" points="0.5,-344.141 0.5,-365.141 119.5,-365.141 119.5,-344.141 0.5,-344.141"/>
<text text-anchor="middle" x="60" y="-352.141" font-family="Helvetica,sans-Serif" font-size="10.00">tetgenmesh::orient4d_s</text>
</g>
<!-- Node2 -->
<g id="node3" class="node"><title>Node2</title>
<a xlink:href="classtetgenmesh.xhtml#a5d85611ca91db181e357457beb13a633" target="_top" xlink:title="tetgenmesh::insertpoint">
<polygon fill="none" stroke="black" points="165.5,-344.141 165.5,-365.141 284.5,-365.141 284.5,-344.141 165.5,-344.141"/>
<text text-anchor="middle" x="225" y="-352.141" font-family="Helvetica,sans-Serif" font-size="10.00">tetgenmesh::insertpoint</text>
</a>
</g>
<!-- Node1&#45;&gt;Node2 -->
<g id="edge2" class="edge"><title>Node1&#45;&gt;Node2</title>
<path fill="none" stroke="midnightblue" d="M129.811,-354.641C141.599,-354.641 153.74,-354.641 165.242,-354.641"/>
<polygon fill="midnightblue" stroke="midnightblue" points="129.569,-351.141 119.569,-354.641 129.569,-358.141 129.569,-351.141"/>
</g>
<!-- Node35 -->
<g id="node88" class="node"><title>Node35</title>
<a xlink:href="classtetgenmesh.xhtml#a2388d9669cc9bb2a68943633bd5148ef" target="_top" xlink:title="tetgenmesh::incrementalflip">
<polygon fill="none" stroke="black" points="156.5,-483.141 156.5,-504.141 293.5,-504.141 293.5,-483.141 156.5,-483.141"/>
<text text-anchor="middle" x="225" y="-491.141" font-family="Helvetica,sans-Serif" font-size="10.00">tetgenmesh::incrementalflip</text>
</a>
</g>
<!-- Node1&#45;&gt;Node35 -->
<g id="edge106" class="edge"><title>Node1&#45;&gt;Node35</title>
<path fill="none" stroke="midnightblue" d="M80.7165,-372.093C115.427,-401.334 184.301,-459.355 212.509,-483.118"/>
<polygon fill="midnightblue" stroke="midnightblue" points="82.5762,-369.083 72.6733,-365.317 78.0662,-374.437 82.5762,-369.083"/>
</g>
<!-- Node36 -->
<g id="node91" class="node"><title>Node36</title>
<a xlink:href="classtetgenmesh.xhtml#a4acb9c2400d8d496b0e546f59eb0e9a8" target="_top" xlink:title="tetgenmesh::checkregular">
<polygon fill="none" stroke="black" points="160.5,-304.141 160.5,-325.141 289.5,-325.141 289.5,-304.141 160.5,-304.141"/>
<text text-anchor="middle" x="225" y="-312.141" font-family="Helvetica,sans-Serif" font-size="10.00">tetgenmesh::checkregular</text>
</a>
</g>
<!-- Node1&#45;&gt;Node36 -->
<g id="edge110" class="edge"><title>Node1&#45;&gt;Node36</title>
<path fill="none" stroke="midnightblue" d="M113.258,-341.73C135.371,-336.369 160.703,-330.228 181.652,-325.149"/>
<polygon fill="midnightblue" stroke="midnightblue" points="112.246,-338.374 103.352,-344.131 113.895,-345.177 112.246,-338.374"/>
</g>
<!-- Node3 -->
<g id="node5" class="node"><title>Node3</title>
<a xlink:href="classtetgenmesh.xhtml#a5a5a0513d0bea7aa457eb0bc5fad1b02" target="_top" xlink:title="tetgenmesh::incrementaldelaunay">
<polygon fill="none" stroke="black" points="335.5,-560.141 335.5,-581.141 498.5,-581.141 498.5,-560.141 335.5,-560.141"/>
<text text-anchor="middle" x="417" y="-568.141" font-family="Helvetica,sans-Serif" font-size="10.00">tetgenmesh::incrementaldelaunay</text>
</a>
</g>
<!-- Node2&#45;&gt;Node3 -->
<g id="edge4" class="edge"><title>Node2&#45;&gt;Node3</title>
<path fill="none" stroke="midnightblue" d="M236.697,-373.961C250.731,-397.333 274.772,-437.985 294,-473.641 310.981,-505.131 302.487,-522.771 330,-545.641 337.493,-551.869 346.46,-556.547 355.746,-560.06"/>
<polygon fill="midnightblue" stroke="midnightblue" points="239.663,-372.103 231.505,-365.343 233.667,-375.715 239.663,-372.103"/>
</g>
<!-- Node11 -->
<g id="node21" class="node"><title>Node11</title>
<a xlink:href="classtetgenmesh.xhtml#a8dee14a42e35e4fe65944518eed4f7d3" target="_top" xlink:title="tetgenmesh::delaunizesegments">
<polygon fill="none" stroke="black" points="956,-474.141 956,-495.141 1114,-495.141 1114,-474.141 956,-474.141"/>
<text text-anchor="middle" x="1035" y="-482.141" font-family="Helvetica,sans-Serif" font-size="10.00">tetgenmesh::delaunizesegments</text>
</a>
</g>
<!-- Node2&#45;&gt;Node11 -->
<g id="edge20" class="edge"><title>Node2&#45;&gt;Node11</title>
<path fill="none" stroke="midnightblue" d="M235.125,-374.233C250.976,-402.505 284.597,-453.649 330,-474.641 439.094,-525.08 795.659,-504.021 955.836,-491.474"/>
<polygon fill="midnightblue" stroke="midnightblue" points="238.112,-372.398 230.27,-365.274 231.957,-375.733 238.112,-372.398"/>
</g>
<!-- Node13 -->
<g id="node26" class="node"><title>Node13</title>
<a xlink:href="classtetgenmesh.xhtml#ab1a82368937a13996efae911b8b1fded" target="_top" xlink:title="tetgenmesh::delaunizecavity">
<polygon fill="none" stroke="black" points="346.5,-444.141 346.5,-465.141 487.5,-465.141 487.5,-444.141 346.5,-444.141"/>
<text text-anchor="middle" x="417" y="-452.141" font-family="Helvetica,sans-Serif" font-size="10.00">tetgenmesh::delaunizecavity</text>
</a>
</g>
<!-- Node2&#45;&gt;Node13 -->
<g id="edge26" class="edge"><title>Node2&#45;&gt;Node13</title>
<path fill="none" stroke="midnightblue" d="M244.891,-372.031C265.088,-388.888 297.877,-414.122 330,-429.641 342.311,-435.588 356.302,-440.38 369.41,-444.116"/>
<polygon fill="midnightblue" stroke="midnightblue" points="246.935,-369.175 237.046,-365.372 242.405,-374.512 246.935,-369.175"/>
</g>
<!-- Node14 -->
<g id="node28" class="node"><title>Node14</title>
<a xlink:href="classtetgenmesh.xhtml#a9c967ef25cfd6e06d6b9301302be3f70" target="_top" xlink:title="tetgenmesh::insertpoint_cdt">
<polygon fill="none" stroke="black" points="568.5,-406.141 568.5,-427.141 705.5,-427.141 705.5,-406.141 568.5,-406.141"/>
<text text-anchor="middle" x="637" y="-414.141" font-family="Helvetica,sans-Serif" font-size="10.00">tetgenmesh::insertpoint_cdt</text>
</a>
</g>
<!-- Node2&#45;&gt;Node14 -->
<g id="edge38" class="edge"><title>Node2&#45;&gt;Node14</title>
<path fill="none" stroke="midnightblue" d="M258.925,-369.103C279.182,-377.102 305.633,-386.446 330,-391.641 410.673,-408.837 505.586,-414.387 568.29,-416.082"/>
<polygon fill="midnightblue" stroke="midnightblue" points="260.097,-365.802 249.514,-365.309 257.48,-372.295 260.097,-365.802"/>
</g>
<!-- Node17 -->
<g id="node37" class="node"><title>Node17</title>
<a xlink:href="classtetgenmesh.xhtml#acb5fc751eaa4a4ddffbebedfa7b7382a" target="_top" xlink:title="tetgenmesh::add_steinerpt\l_in_schoenhardtpoly">
<polygon fill="none" stroke="black" points="351,-315.641 351,-349.641 483,-349.641 483,-315.641 351,-315.641"/>
<text text-anchor="start" x="359" y="-336.641" font-family="Helvetica,sans-Serif" font-size="10.00">tetgenmesh::add_steinerpt</text>
<text text-anchor="middle" x="417" y="-323.641" font-family="Helvetica,sans-Serif" font-size="10.00">_in_schoenhardtpoly</text>
</a>
</g>
<!-- Node2&#45;&gt;Node17 -->
<g id="edge40" class="edge"><title>Node2&#45;&gt;Node17</title>
<path fill="none" stroke="midnightblue" d="M294.734,-346.65C313.091,-344.547 332.835,-342.285 350.99,-340.204"/>
<polygon fill="midnightblue" stroke="midnightblue" points="294.234,-343.185 284.698,-347.8 295.031,-350.139 294.234,-343.185"/>
</g>
<!-- Node18 -->
<g id="node39" class="node"><title>Node18</title>
<a xlink:href="classtetgenmesh.xhtml#a9d878a0e64588b0471a58e534affea8e" target="_top" xlink:title="tetgenmesh::addsteiner4recoversegment">
<polygon fill="none" stroke="black" points="540,-312.141 540,-333.141 734,-333.141 734,-312.141 540,-312.141"/>
<text text-anchor="middle" x="637" y="-320.141" font-family="Helvetica,sans-Serif" font-size="10.00">tetgenmesh::addsteiner4recoversegment</text>
</a>
</g>
<!-- Node2&#45;&gt;Node18 -->
<g id="edge54" class="edge"><title>Node2&#45;&gt;Node18</title>
<path fill="none" stroke="midnightblue" d="M280.275,-340.681C285.008,-338.87 289.646,-336.861 294,-334.641 312.057,-325.432 310.827,-313.219 330,-306.641 423.14,-274.684 541.487,-297.1 600.33,-312.115"/>
<polygon fill="midnightblue" stroke="midnightblue" points="278.76,-337.504 270.488,-344.123 281.083,-344.107 278.76,-337.504"/>
</g>
<!-- Node21 -->
<g id="node46" class="node"><title>Node21</title>
<a xlink:href="classtetgenmesh.xhtml#a3de6e9d82e74671af7f038043b5e9bcc" target="_top" xlink:title="tetgenmesh::add_steinerpt\l_in_segment">
<polygon fill="none" stroke="black" points="351,-225.641 351,-259.641 483,-259.641 483,-225.641 351,-225.641"/>
<text text-anchor="start" x="359" y="-246.641" font-family="Helvetica,sans-Serif" font-size="10.00">tetgenmesh::add_steinerpt</text>
<text text-anchor="middle" x="417" y="-233.641" font-family="Helvetica,sans-Serif" font-size="10.00">_in_segment</text>
</a>
</g>
<!-- Node2&#45;&gt;Node21 -->
<g id="edge50" class="edge"><title>Node2&#45;&gt;Node21</title>
<path fill="none" stroke="midnightblue" d="M286.653,-339.55C289.226,-338.064 291.69,-336.433 294,-334.641 318.872,-315.342 305.72,-293.678 330,-273.641 336.678,-268.129 344.41,-263.564 352.454,-259.79"/>
<polygon fill="midnightblue" stroke="midnightblue" points="284.965,-336.48 277.561,-344.058 288.075,-342.751 284.965,-336.48"/>
</g>
<!-- Node22 -->
<g id="node50" class="node"><title>Node22</title>
<a xlink:href="classtetgenmesh.xhtml#ace09080e4f274e0a48cd1728475878c9" target="_top" xlink:title="tetgenmesh::recoversubfaces">
<polygon fill="none" stroke="black" points="772,-366.141 772,-387.141 918,-387.141 918,-366.141 772,-366.141"/>
<text text-anchor="middle" x="845" y="-374.141" font-family="Helvetica,sans-Serif" font-size="10.00">tetgenmesh::recoversubfaces</text>
</a>
</g>
<!-- Node2&#45;&gt;Node22 -->
<g id="edge56" class="edge"><title>Node2&#45;&gt;Node22</title>
<path fill="none" stroke="midnightblue" d="M294.886,-357.334C306.609,-357.777 318.65,-358.226 330,-358.641 487.352,-364.388 671.763,-370.74 771.654,-374.15"/>
<polygon fill="midnightblue" stroke="midnightblue" points="294.817,-353.829 284.691,-356.947 294.551,-360.824 294.817,-353.829"/>
</g>
<!-- Node23 -->
<g id="node53" class="node"><title>Node23</title>
<a xlink:href="classtetgenmesh.xhtml#ac8205cae8e16f490b80d74975934ff74" target="_top" xlink:title="tetgenmesh::insertconstrainedpoints">
<polygon fill="none" stroke="black" points="330,-186.141 330,-207.141 504,-207.141 504,-186.141 330,-186.141"/>
<text text-anchor="middle" x="417" y="-194.141" font-family="Helvetica,sans-Serif" font-size="10.00">tetgenmesh::insertconstrainedpoints</text>
</a>
</g>
<!-- Node2&#45;&gt;Node23 -->
<g id="edge60" class="edge"><title>Node2&#45;&gt;Node23</title>
<path fill="none" stroke="midnightblue" d="M289.329,-338.673C290.972,-337.427 292.535,-336.086 294,-334.641 333.042,-296.142 289.893,-254.028 330,-216.641 333.968,-212.942 338.477,-209.881 343.305,-207.352"/>
<polygon fill="midnightblue" stroke="midnightblue" points="287.189,-335.883 280.546,-344.138 290.886,-341.827 287.189,-335.883"/>
</g>
<!-- Node25 -->
<g id="node58" class="node"><title>Node25</title>
<a xlink:href="classtetgenmesh.xhtml#a6394d7b4d386e8d08077c39cd8983e0e" target="_top" xlink:title="tetgenmesh::splitsegment">
<polygon fill="none" stroke="black" points="352.5,-89.1407 352.5,-110.141 481.5,-110.141 481.5,-89.1407 352.5,-89.1407"/>
<text text-anchor="middle" x="417" y="-97.1407" font-family="Helvetica,sans-Serif" font-size="10.00">tetgenmesh::splitsegment</text>
</a>
</g>
<!-- Node2&#45;&gt;Node25 -->
<g id="edge66" class="edge"><title>Node2&#45;&gt;Node25</title>
<path fill="none" stroke="midnightblue" d="M290.229,-338.301C291.557,-337.16 292.818,-335.942 294,-334.641 352.087,-270.703 278.106,-212.699 330,-143.641 341.998,-127.674 361.42,-117.078 378.873,-110.294"/>
<polygon fill="midnightblue" stroke="midnightblue" points="288.202,-335.448 281.981,-344.024 292.193,-341.199 288.202,-335.448"/>
</g>
<!-- Node27 -->
<g id="node62" class="node"><title>Node27</title>
<a xlink:href="classtetgenmesh.xhtml#a3a8404870ab3c2e8ce4312d48c2b29f4" target="_top" xlink:title="tetgenmesh::splitsubface">
<polygon fill="none" stroke="black" points="782,-146.141 782,-167.141 908,-167.141 908,-146.141 782,-146.141"/>
<text text-anchor="middle" x="845" y="-154.141" font-family="Helvetica,sans-Serif" font-size="10.00">tetgenmesh::splitsubface</text>
</a>
</g>
<!-- Node2&#45;&gt;Node27 -->
<g id="edge94" class="edge"><title>Node2&#45;&gt;Node27</title>
<path fill="none" stroke="midnightblue" d="M290.065,-338.323C291.448,-337.176 292.764,-335.95 294,-334.641 343.426,-282.256 274.582,-222.64 330,-176.641 363.994,-148.424 652.058,-151.841 781.937,-154.876"/>
<polygon fill="midnightblue" stroke="midnightblue" points="287.857,-335.59 281.501,-344.066 291.756,-341.403 287.857,-335.59"/>
</g>
<!-- Node29 -->
<g id="node66" class="node"><title>Node29</title>
<a xlink:href="classtetgenmesh.xhtml#aa752155eb1d18550a212dd40297f122e" target="_top" xlink:title="tetgenmesh::splittetrahedron">
<polygon fill="none" stroke="black" points="1162,-127.141 1162,-148.141 1302,-148.141 1302,-127.141 1162,-127.141"/>
<text text-anchor="middle" x="1232" y="-135.141" font-family="Helvetica,sans-Serif" font-size="10.00">tetgenmesh::splittetrahedron</text>
</a>
</g>
<!-- Node2&#45;&gt;Node29 -->
<g id="edge96" class="edge"><title>Node2&#45;&gt;Node29</title>
<path fill="none" stroke="midnightblue" d="M290.75,-337.976C291.892,-336.929 292.979,-335.818 294,-334.641 368.994,-248.174 253.316,-164.611 330,-79.6407 424.175,24.7104 496.437,-3.64066 637,-3.64066 637,-3.64066 637,-3.64066 845,-3.64066 968.316,-3.64066 999.425,-26.0391 1114,-71.6407 1152.6,-87.0044 1194.23,-112.674 1216.25,-127.054"/>
<polygon fill="midnightblue" stroke="midnightblue" points="288.506,-335.28 282.491,-344.002 292.633,-340.935 288.506,-335.28"/>
</g>
<!-- Node32 -->
<g id="node81" class="node"><title>Node32</title>
<a xlink:href="classtetgenmesh.xhtml#aa9540f310c97db99c989a02b0978ceec" target="_top" xlink:title="tetgenmesh::splitsliver">
<polygon fill="none" stroke="black" points="579.5,-522.141 579.5,-543.141 694.5,-543.141 694.5,-522.141 579.5,-522.141"/>
<text text-anchor="middle" x="637" y="-530.141" font-family="Helvetica,sans-Serif" font-size="10.00">tetgenmesh::splitsliver</text>
</a>
</g>
<!-- Node2&#45;&gt;Node32 -->
<g id="edge98" class="edge"><title>Node2&#45;&gt;Node32</title>
<path fill="none" stroke="midnightblue" d="M235.835,-374.639C256.752,-412.439 303.007,-491.995 330,-507.641 407.263,-552.424 514.366,-549.418 579.499,-541.915"/>
<polygon fill="midnightblue" stroke="midnightblue" points="238.745,-372.666 230.867,-365.581 232.608,-376.032 238.745,-372.666"/>
</g>
<!-- Node4 -->
<g id="node7" class="node"><title>Node4</title>
<a xlink:href="tetgen_8h.xhtml#ad3637eb4ffe7fda90667e67b7771d964" target="_top" xlink:title="tetrahedralize">
<polygon fill="none" stroke="black" points="1714.5,-391.141 1714.5,-412.141 1789.5,-412.141 1789.5,-391.141 1714.5,-391.141"/>
<text text-anchor="middle" x="1752" y="-399.141" font-family="Helvetica,sans-Serif" font-size="10.00">tetrahedralize</text>
</a>
</g>
<!-- Node3&#45;&gt;Node4 -->
<g id="edge6" class="edge"><title>Node3&#45;&gt;Node4</title>
<path fill="none" stroke="midnightblue" d="M508.721,-570.979C595.386,-571.269 729.031,-571.641 845,-571.641 845,-571.641 845,-571.641 1417,-571.641 1541.54,-571.641 1572.34,-535.571 1678,-469.641 1704.35,-453.2 1729.83,-426.747 1742.92,-412.153"/>
<polygon fill="midnightblue" stroke="midnightblue" points="508.664,-567.479 498.652,-570.945 508.64,-574.479 508.664,-567.479"/>
</g>
<!-- Node5 -->
<g id="node9" class="node"><title>Node5</title>
<a xlink:href="classGUICutRenderWindow.xhtml#a9eedb7088ad31f4680a77ed3a06fa60c" target="_top" xlink:title="Berechnet die 2D&#45;Temperaturverteilung als Grafik. ">
<polygon fill="none" stroke="black" points="1828.5,-430.641 1828.5,-464.641 1945.5,-464.641 1945.5,-430.641 1828.5,-430.641"/>
<text text-anchor="start" x="1836.5" y="-451.641" font-family="Helvetica,sans-Serif" font-size="10.00">GUICutRenderWindow</text>
<text text-anchor="middle" x="1887" y="-438.641" font-family="Helvetica,sans-Serif" font-size="10.00">::renderImage</text>
</a>
</g>
<!-- Node4&#45;&gt;Node5 -->
<g id="edge8" class="edge"><title>Node4&#45;&gt;Node5</title>
<path fill="none" stroke="midnightblue" d="M1792.73,-415.518C1806.62,-420.251 1822.32,-425.6 1836.86,-430.556"/>
<polygon fill="midnightblue" stroke="midnightblue" points="1793.57,-412.106 1782.97,-412.194 1791.31,-418.732 1793.57,-412.106"/>
</g>
<!-- Node7 -->
<g id="node13" class="node"><title>Node7</title>
<a xlink:href="classObjectData.xhtml#af3a850833d08eb9b45357449f455e24d" target="_top" xlink:title="Zerlegt das Objekt in Tetraeder (Schnittstelle zur Tetgen&#45;Bibliothek) und Berechnet die Temperaturver...">
<polygon fill="none" stroke="black" points="1826,-391.141 1826,-412.141 1948,-412.141 1948,-391.141 1826,-391.141"/>
<text text-anchor="middle" x="1887" y="-399.141" font-family="Helvetica,sans-Serif" font-size="10.00">ObjectData::calculateIO</text>
</a>
</g>
<!-- Node4&#45;&gt;Node7 -->
<g id="edge12" class="edge"><title>Node4&#45;&gt;Node7</title>
<path fill="none" stroke="midnightblue" d="M1799.65,-401.641C1808.11,-401.641 1817.02,-401.641 1825.8,-401.641"/>
<polygon fill="midnightblue" stroke="midnightblue" points="1799.61,-398.141 1789.61,-401.641 1799.6,-405.141 1799.61,-398.141"/>
</g>
<!-- Node10 -->
<g id="node19" class="node"><title>Node10</title>
<a xlink:href="tetgen_8cxx.xhtml#a0ddf1224851353fc92bfbff6f499fa97" target="_top" xlink:title="main">
<polygon fill="none" stroke="black" points="1868,-351.141 1868,-372.141 1906,-372.141 1906,-351.141 1868,-351.141"/>
<text text-anchor="middle" x="1887" y="-359.141" font-family="Helvetica,sans-Serif" font-size="10.00">main</text>
</a>
</g>
<!-- Node4&#45;&gt;Node10 -->
<g id="edge18" class="edge"><title>Node4&#45;&gt;Node10</title>
<path fill="none" stroke="midnightblue" d="M1797.15,-388.262C1821.27,-381.117 1849.67,-372.702 1867.98,-367.275"/>
<polygon fill="midnightblue" stroke="midnightblue" points="1796.06,-384.934 1787.47,-391.131 1798.05,-391.646 1796.06,-384.934"/>
</g>
<!-- Node6 -->
<g id="node11" class="node"><title>Node6</title>
<a xlink:href="classGUICutRenderWindow.xhtml#a7cd1bfbec53756a1cbbe1616b4d46c7a" target="_top" xlink:title="Behandelt das Drücken des Buttons zur Berechnung der zweidimensionalen Temperaturverteilung. ">
<polygon fill="none" stroke="black" points="2000.5,-430.641 2000.5,-464.641 2117.5,-464.641 2117.5,-430.641 2000.5,-430.641"/>
<text text-anchor="start" x="2008.5" y="-451.641" font-family="Helvetica,sans-Serif" font-size="10.00">GUICutRenderWindow</text>
<text text-anchor="middle" x="2059" y="-438.641" font-family="Helvetica,sans-Serif" font-size="10.00">::renderCutBtClick</text>
</a>
</g>
<!-- Node5&#45;&gt;Node6 -->
<g id="edge10" class="edge"><title>Node5&#45;&gt;Node6</title>
<path fill="none" stroke="midnightblue" d="M1955.78,-447.641C1970.51,-447.641 1985.95,-447.641 2000.26,-447.641"/>
<polygon fill="midnightblue" stroke="midnightblue" points="1955.71,-444.141 1945.71,-447.641 1955.71,-451.141 1955.71,-444.141"/>
</g>
<!-- Node8 -->
<g id="node15" class="node"><title>Node8</title>
<a xlink:href="classGUIMainWindow.xhtml#a0c2de30274c7f52ff74ec1217e47a9e5" target="_top" xlink:title="Berechnet die 3D&#45;Temperaturverteilung neu. ">
<polygon fill="none" stroke="black" points="1984,-338.641 1984,-372.641 2134,-372.641 2134,-338.641 1984,-338.641"/>
<text text-anchor="start" x="1992" y="-359.641" font-family="Helvetica,sans-Serif" font-size="10.00">GUIMainWindow::OnRecalcBt</text>
<text text-anchor="middle" x="2059" y="-346.641" font-family="Helvetica,sans-Serif" font-size="10.00">Click</text>
</a>
</g>
<!-- Node7&#45;&gt;Node8 -->
<g id="edge14" class="edge"><title>Node7&#45;&gt;Node8</title>
<path fill="none" stroke="midnightblue" d="M1936.33,-388.449C1954.64,-383.55 1975.69,-377.922 1995.12,-372.725"/>
<polygon fill="midnightblue" stroke="midnightblue" points="1935.22,-385.122 1926.46,-391.087 1937.03,-391.885 1935.22,-385.122"/>
</g>
<!-- Node9 -->
<g id="node17" class="node"><title>Node9</title>
<a xlink:href="classGUITimeline.xhtml#a099f3654aa6e7ea04df861851a0e9ec8" target="_top" xlink:title="Sucht den Zeitpunkt zwischen zwei markierten Stellen auf der Sensordaten&#45;Zeitleiste, für den der Wäremeenergiegehalt maximal wird. ">
<polygon fill="none" stroke="black" points="1990.5,-391.141 1990.5,-412.141 2127.5,-412.141 2127.5,-391.141 1990.5,-391.141"/>
<text text-anchor="middle" x="2059" y="-399.141" font-family="Helvetica,sans-Serif" font-size="10.00">GUITimeline::findMaxValue</text>
</a>
</g>
<!-- Node7&#45;&gt;Node9 -->
<g id="edge16" class="edge"><title>Node7&#45;&gt;Node9</title>
<path fill="none" stroke="midnightblue" d="M1958.23,-401.641C1968.89,-401.641 1979.86,-401.641 1990.46,-401.641"/>
<polygon fill="midnightblue" stroke="midnightblue" points="1958.13,-398.141 1948.13,-401.641 1958.13,-405.141 1958.13,-398.141"/>
</g>
<!-- Node12 -->
<g id="node23" class="node"><title>Node12</title>
<a xlink:href="classtetgenmesh.xhtml#aab64d62b3d2b048a38158fb2bf678624" target="_top" xlink:title="tetgenmesh::constraineddelaunay">
<polygon fill="none" stroke="black" points="1150.5,-416.141 1150.5,-437.141 1313.5,-437.141 1313.5,-416.141 1150.5,-416.141"/>
<text text-anchor="middle" x="1232" y="-424.141" font-family="Helvetica,sans-Serif" font-size="10.00">tetgenmesh::constraineddelaunay</text>
</a>
</g>
<!-- Node11&#45;&gt;Node12 -->
<g id="edge22" class="edge"><title>Node11&#45;&gt;Node12</title>
<path fill="none" stroke="midnightblue" d="M1080.7,-471.187C1115.89,-460.826 1163.84,-446.707 1196.26,-437.164"/>
<polygon fill="midnightblue" stroke="midnightblue" points="1079.28,-467.955 1070.68,-474.137 1081.26,-474.67 1079.28,-467.955"/>
</g>
<!-- Node12&#45;&gt;Node4 -->
<g id="edge24" class="edge"><title>Node12&#45;&gt;Node4</title>
<path fill="none" stroke="midnightblue" d="M1323.8,-422.227C1439.51,-416.664 1633.12,-407.356 1714.33,-403.451"/>
<polygon fill="midnightblue" stroke="midnightblue" points="1323.36,-418.744 1313.54,-422.721 1323.69,-425.736 1323.36,-418.744"/>
</g>
<!-- Node13&#45;&gt;Node14 -->
<g id="edge28" class="edge"><title>Node13&#45;&gt;Node14</title>
<path fill="none" stroke="midnightblue" d="M488.215,-442.34C516.494,-437.455 548.695,-431.893 575.891,-427.196"/>
<polygon fill="midnightblue" stroke="midnightblue" points="487.248,-438.955 477.99,-444.106 488.44,-445.853 487.248,-438.955"/>
</g>
<!-- Node16 -->
<g id="node32" class="node"><title>Node16</title>
<a xlink:href="classtetgenmesh.xhtml#a7579c3a44a54712623d9f9e5fc1dfbdc" target="_top" xlink:title="tetgenmesh::constrainedfacets">
<polygon fill="none" stroke="black" points="959.5,-416.141 959.5,-437.141 1110.5,-437.141 1110.5,-416.141 959.5,-416.141"/>
<text text-anchor="middle" x="1035" y="-424.141" font-family="Helvetica,sans-Serif" font-size="10.00">tetgenmesh::constrainedfacets</text>
</a>
</g>
<!-- Node13&#45;&gt;Node16 -->
<g id="edge36" class="edge"><title>Node13&#45;&gt;Node16</title>
<path fill="none" stroke="midnightblue" d="M498.139,-453.009C597.616,-450.715 771.321,-445.759 920,-436.641 932.702,-435.862 946.178,-434.854 959.263,-433.779"/>
<polygon fill="midnightblue" stroke="midnightblue" points="497.778,-449.516 487.861,-453.243 497.938,-456.514 497.778,-449.516"/>
</g>
<!-- Node15 -->
<g id="node30" class="node"><title>Node15</title>
<a xlink:href="classtetgenmesh.xhtml#aa34a5188a4cee82197394560c388c348" target="_top" xlink:title="tetgenmesh::refineregion">
<polygon fill="none" stroke="black" points="783,-406.141 783,-427.141 907,-427.141 907,-406.141 783,-406.141"/>
<text text-anchor="middle" x="845" y="-414.141" font-family="Helvetica,sans-Serif" font-size="10.00">tetgenmesh::refineregion</text>
</a>
</g>
<!-- Node14&#45;&gt;Node15 -->
<g id="edge30" class="edge"><title>Node14&#45;&gt;Node15</title>
<path fill="none" stroke="midnightblue" d="M715.73,-416.641C737.881,-416.641 761.659,-416.641 782.705,-416.641"/>
<polygon fill="midnightblue" stroke="midnightblue" points="715.683,-413.141 705.683,-416.641 715.683,-420.141 715.683,-413.141"/>
</g>
<!-- Node15&#45;&gt;Node16 -->
<g id="edge32" class="edge"><title>Node15&#45;&gt;Node16</title>
<path fill="none" stroke="midnightblue" d="M917.539,-420.459C931.237,-421.179 945.597,-421.935 959.387,-422.661"/>
<polygon fill="midnightblue" stroke="midnightblue" points="917.383,-416.946 907.213,-419.915 917.015,-423.936 917.383,-416.946"/>
</g>
<!-- Node16&#45;&gt;Node12 -->
<g id="edge34" class="edge"><title>Node16&#45;&gt;Node12</title>
<path fill="none" stroke="midnightblue" d="M1120.77,-426.641C1130.6,-426.641 1140.6,-426.641 1150.38,-426.641"/>
<polygon fill="midnightblue" stroke="midnightblue" points="1120.6,-423.141 1110.6,-426.641 1120.6,-430.141 1120.6,-423.141"/>
</g>
<!-- Node17&#45;&gt;Node18 -->
<g id="edge42" class="edge"><title>Node17&#45;&gt;Node18</title>
<path fill="none" stroke="midnightblue" d="M493.225,-329.176C508.221,-328.494 524.144,-327.77 539.722,-327.062"/>
<polygon fill="midnightblue" stroke="midnightblue" points="492.838,-325.69 483.007,-329.64 493.156,-332.683 492.838,-325.69"/>
</g>
<!-- Node19 -->
<g id="node41" class="node"><title>Node19</title>
<a xlink:href="classtetgenmesh.xhtml#a50e12e269b11573e6e1b91347ad19b37" target="_top" xlink:title="tetgenmesh::recoversegments">
<polygon fill="none" stroke="black" points="770.5,-319.141 770.5,-340.141 919.5,-340.141 919.5,-319.141 770.5,-319.141"/>
<text text-anchor="middle" x="845" y="-327.141" font-family="Helvetica,sans-Serif" font-size="10.00">tetgenmesh::recoversegments</text>
</a>
</g>
<!-- Node18&#45;&gt;Node19 -->
<g id="edge44" class="edge"><title>Node18&#45;&gt;Node19</title>
<path fill="none" stroke="midnightblue" d="M744.574,-326.261C753.325,-326.555 762.042,-326.849 770.478,-327.133"/>
<polygon fill="midnightblue" stroke="midnightblue" points="744.413,-322.754 734.301,-325.915 744.178,-329.75 744.413,-322.754"/>
</g>
<!-- Node20 -->
<g id="node43" class="node"><title>Node20</title>
<a xlink:href="classtetgenmesh.xhtml#a1be7dce56688fbe7a97fc31f98b61c19" target="_top" xlink:title="tetgenmesh::recoverboundary">
<polygon fill="none" stroke="black" points="962,-366.141 962,-387.141 1108,-387.141 1108,-366.141 962,-366.141"/>
<text text-anchor="middle" x="1035" y="-374.141" font-family="Helvetica,sans-Serif" font-size="10.00">tetgenmesh::recoverboundary</text>
</a>
</g>
<!-- Node19&#45;&gt;Node20 -->
<g id="edge46" class="edge"><title>Node19&#45;&gt;Node20</title>
<path fill="none" stroke="midnightblue" d="M897.492,-342.625C927.412,-350.027 964.419,-359.181 992.503,-366.128"/>
<polygon fill="midnightblue" stroke="midnightblue" points="898.188,-339.192 887.64,-340.188 896.507,-345.987 898.188,-339.192"/>
</g>
<!-- Node20&#45;&gt;Node4 -->
<g id="edge48" class="edge"><title>Node20&#45;&gt;Node4</title>
<path fill="none" stroke="midnightblue" d="M1118.48,-379.552C1274.23,-384.982 1603.36,-396.458 1714.46,-400.332"/>
<polygon fill="midnightblue" stroke="midnightblue" points="1118.14,-376.038 1108.03,-379.187 1117.9,-383.033 1118.14,-376.038"/>
</g>
<!-- Node21&#45;&gt;Node18 -->
<g id="edge52" class="edge"><title>Node21&#45;&gt;Node18</title>
<path fill="none" stroke="midnightblue" d="M478.644,-263.364C487.237,-266.612 495.894,-270.079 504,-273.641 520.564,-280.918 523.286,-285.716 540,-292.641 558.239,-300.197 579.085,-306.884 596.767,-312.016"/>
<polygon fill="midnightblue" stroke="midnightblue" points="479.595,-259.984 469.002,-259.796 477.166,-266.549 479.595,-259.984"/>
</g>
<!-- Node22&#45;&gt;Node20 -->
<g id="edge58" class="edge"><title>Node22&#45;&gt;Node20</title>
<path fill="none" stroke="midnightblue" d="M928.354,-376.641C939.512,-376.641 950.886,-376.641 961.85,-376.641"/>
<polygon fill="midnightblue" stroke="midnightblue" points="928.187,-373.141 918.187,-376.641 928.187,-380.141 928.187,-373.141"/>
</g>
<!-- Node23&#45;&gt;Node4 -->
<g id="edge64" class="edge"><title>Node23&#45;&gt;Node4</title>
<path fill="none" stroke="midnightblue" d="M502.6,-208.413C588.867,-219.246 725.908,-233.641 845,-233.641 845,-233.641 845,-233.641 1417,-233.641 1558.19,-233.641 1700.72,-354.352 1740.87,-391.132"/>
<polygon fill="midnightblue" stroke="midnightblue" points="502.957,-204.931 492.596,-207.144 502.077,-211.875 502.957,-204.931"/>
</g>
<!-- Node24 -->
<g id="node55" class="node"><title>Node24</title>
<a xlink:href="classtetgenmesh.xhtml#ab859365ca3dd3eafb77fac56d0ae3a03" target="_top" xlink:title="tetgenmesh::insertconstrainedpoints">
<polygon fill="none" stroke="black" points="550,-262.141 550,-283.141 724,-283.141 724,-262.141 550,-262.141"/>
<text text-anchor="middle" x="637" y="-270.141" font-family="Helvetica,sans-Serif" font-size="10.00">tetgenmesh::insertconstrainedpoints</text>
</a>
</g>
<!-- Node23&#45;&gt;Node24 -->
<g id="edge62" class="edge"><title>Node23&#45;&gt;Node24</title>
<path fill="none" stroke="midnightblue" d="M489.415,-210.388C494.453,-212.222 499.365,-214.295 504,-216.641 522.84,-226.174 521.287,-237.861 540,-247.641 551.791,-253.803 565.197,-258.514 578.199,-262.092"/>
<polygon fill="midnightblue" stroke="midnightblue" points="490.205,-206.963 479.612,-207.15 488.01,-213.61 490.205,-206.963"/>
</g>
<!-- Node26 -->
<g id="node60" class="node"><title>Node26</title>
<a xlink:href="classtetgenmesh.xhtml#a7af360f1ae413f9e0d7803ccae55b6d6" target="_top" xlink:title="tetgenmesh::repairencsegs">
<polygon fill="none" stroke="black" points="570,-70.1407 570,-91.1407 704,-91.1407 704,-70.1407 570,-70.1407"/>
<text text-anchor="middle" x="637" y="-78.1407" font-family="Helvetica,sans-Serif" font-size="10.00">tetgenmesh::repairencsegs</text>
</a>
</g>
<!-- Node25&#45;&gt;Node26 -->
<g id="edge68" class="edge"><title>Node25&#45;&gt;Node26</title>
<path fill="none" stroke="midnightblue" d="M491.798,-93.1808C517.084,-90.997 545.144,-88.5737 569.804,-86.444"/>
<polygon fill="midnightblue" stroke="midnightblue" points="491.182,-89.7209 481.521,-94.0684 491.785,-96.6949 491.182,-89.7209"/>
</g>
<!-- Node25&#45;&gt;Node27 -->
<g id="edge90" class="edge"><title>Node25&#45;&gt;Node27</title>
<path fill="none" stroke="midnightblue" d="M491.555,-109.57C573.682,-120.507 704.338,-137.908 781.683,-148.208"/>
<polygon fill="midnightblue" stroke="midnightblue" points="491.914,-106.087 481.539,-108.236 490.99,-113.025 491.914,-106.087"/>
</g>
<!-- Node25&#45;&gt;Node29 -->
<g id="edge92" class="edge"><title>Node25&#45;&gt;Node29</title>
<path fill="none" stroke="midnightblue" d="M451.841,-85.4321C476.099,-76.3299 509.452,-65.3677 540,-60.6407 790.266,-21.9144 1094.36,-98.14 1196.57,-127.109"/>
<polygon fill="midnightblue" stroke="midnightblue" points="450.447,-82.2182 442.363,-89.0672 452.953,-88.754 450.447,-82.2182"/>
</g>
<!-- Node26&#45;&gt;Node27 -->
<g id="edge70" class="edge"><title>Node26&#45;&gt;Node27</title>
<path fill="none" stroke="midnightblue" d="M702.469,-93.9391C713.247,-97.1341 724.117,-101.001 734,-105.641 751.866,-114.027 752.436,-122.639 770,-131.641 781.237,-137.4 794.084,-142.249 805.932,-146.097"/>
<polygon fill="midnightblue" stroke="midnightblue" points="703.201,-90.5096 692.628,-91.191 701.318,-97.2517 703.201,-90.5096"/>
</g>
<!-- Node26&#45;&gt;Node29 -->
<g id="edge86" class="edge"><title>Node26&#45;&gt;Node29</title>
<path fill="none" stroke="midnightblue" d="M714.325,-88.2315C732.581,-90.0146 751.977,-91.9016 770,-93.6407 908.944,-107.048 1071.42,-122.46 1161.94,-131.023"/>
<polygon fill="midnightblue" stroke="midnightblue" points="714.609,-84.7427 704.316,-87.2532 713.928,-91.7095 714.609,-84.7427"/>
</g>
<!-- Node31 -->
<g id="node70" class="node"><title>Node31</title>
<a xlink:href="classtetgenmesh.xhtml#a477bbfde72103de66546d4ea3343b4a1" target="_top" xlink:title="tetgenmesh::delaunayrefinement">
<polygon fill="none" stroke="black" points="1520,-147.141 1520,-168.141 1678,-168.141 1678,-147.141 1520,-147.141"/>
<text text-anchor="middle" x="1599" y="-155.141" font-family="Helvetica,sans-Serif" font-size="10.00">tetgenmesh::delaunayrefinement</text>
</a>
</g>
<!-- Node26&#45;&gt;Node31 -->
<g id="edge88" class="edge"><title>Node26&#45;&gt;Node31</title>
<path fill="none" stroke="midnightblue" d="M714.267,-80.3316C794.457,-80.0379 923.512,-79.6407 1035,-79.6407 1035,-79.6407 1035,-79.6407 1232,-79.6407 1360.32,-79.6407 1508.48,-125.831 1569.95,-147.121"/>
<polygon fill="midnightblue" stroke="midnightblue" points="714.238,-76.8316 704.251,-80.3687 714.264,-83.8316 714.238,-76.8316"/>
</g>
<!-- Node28 -->
<g id="node64" class="node"><title>Node28</title>
<a xlink:href="classtetgenmesh.xhtml#a701d4f317ed66df6a2e2b7b237e2386a" target="_top" xlink:title="tetgenmesh::repairencfacs">
<polygon fill="none" stroke="black" points="969,-184.141 969,-205.141 1101,-205.141 1101,-184.141 969,-184.141"/>
<text text-anchor="middle" x="1035" y="-192.141" font-family="Helvetica,sans-Serif" font-size="10.00">tetgenmesh::repairencfacs</text>
</a>
</g>
<!-- Node27&#45;&gt;Node28 -->
<g id="edge72" class="edge"><title>Node27&#45;&gt;Node28</title>
<path fill="none" stroke="midnightblue" d="M907.792,-169.199C931.901,-174.021 959.149,-179.47 982.224,-184.086"/>
<polygon fill="midnightblue" stroke="midnightblue" points="908.166,-165.705 897.673,-167.175 906.793,-172.569 908.166,-165.705"/>
</g>
<!-- Node27&#45;&gt;Node29 -->
<g id="edge84" class="edge"><title>Node27&#45;&gt;Node29</title>
<path fill="none" stroke="midnightblue" d="M918.098,-153.052C988.041,-149.618 1092.81,-144.474 1161.78,-141.088"/>
<polygon fill="midnightblue" stroke="midnightblue" points="917.856,-149.559 908.04,-153.546 918.199,-156.551 917.856,-149.559"/>
</g>
<!-- Node28&#45;&gt;Node29 -->
<g id="edge74" class="edge"><title>Node28&#45;&gt;Node29</title>
<path fill="none" stroke="midnightblue" d="M1081.54,-181.175C1116.41,-171.085 1163.46,-157.472 1195.6,-148.172"/>
<polygon fill="midnightblue" stroke="midnightblue" points="1080.23,-177.911 1071.59,-184.053 1082.17,-184.636 1080.23,-177.911"/>
</g>
<!-- Node28&#45;&gt;Node31 -->
<g id="edge82" class="edge"><title>Node28&#45;&gt;Node31</title>
<path fill="none" stroke="midnightblue" d="M1111.14,-189.646C1217.92,-182.641 1411.22,-169.959 1519.69,-162.844"/>
<polygon fill="midnightblue" stroke="midnightblue" points="1110.83,-186.158 1101.08,-190.306 1111.29,-193.143 1110.83,-186.158"/>
</g>
<!-- Node30 -->
<g id="node68" class="node"><title>Node30</title>
<a xlink:href="classtetgenmesh.xhtml#a7c46c82d83099214115fa9719aefbd78" target="_top" xlink:title="tetgenmesh::repairbadtets">
<polygon fill="none" stroke="black" points="1352,-131.141 1352,-152.141 1482,-152.141 1482,-131.141 1352,-131.141"/>
<text text-anchor="middle" x="1417" y="-139.141" font-family="Helvetica,sans-Serif" font-size="10.00">tetgenmesh::repairbadtets</text>
</a>
</g>
<!-- Node29&#45;&gt;Node30 -->
<g id="edge76" class="edge"><title>Node29&#45;&gt;Node30</title>
<path fill="none" stroke="midnightblue" d="M1312.21,-139.375C1325.41,-139.66 1338.94,-139.953 1351.72,-140.229"/>
<polygon fill="midnightblue" stroke="midnightblue" points="1312.28,-135.876 1302.2,-139.159 1312.13,-142.874 1312.28,-135.876"/>
</g>
<!-- Node30&#45;&gt;Node31 -->
<g id="edge78" class="edge"><title>Node30&#45;&gt;Node31</title>
<path fill="none" stroke="midnightblue" d="M1492.36,-148.266C1501.47,-149.067 1510.8,-149.887 1519.96,-150.692"/>
<polygon fill="midnightblue" stroke="midnightblue" points="1492.46,-144.761 1482.19,-147.372 1491.85,-151.734 1492.46,-144.761"/>
</g>
<!-- Node31&#45;&gt;Node4 -->
<g id="edge80" class="edge"><title>Node31&#45;&gt;Node4</title>
<path fill="none" stroke="midnightblue" d="M1626.4,-173.922C1643.17,-185.035 1664.01,-201.078 1678,-219.641 1720.7,-276.301 1742.86,-361.037 1749.67,-390.821"/>
<polygon fill="midnightblue" stroke="midnightblue" points="1627.89,-170.716 1617.58,-168.27 1624.11,-176.61 1627.89,-170.716"/>
</g>
<!-- Node33 -->
<g id="node83" class="node"><title>Node33</title>
<a xlink:href="classtetgenmesh.xhtml#ad5c46c2f6c9adeed23fc8c64b682778d" target="_top" xlink:title="tetgenmesh::removeslivers">
<polygon fill="none" stroke="black" points="1165,-522.141 1165,-543.141 1299,-543.141 1299,-522.141 1165,-522.141"/>
<text text-anchor="middle" x="1232" y="-530.141" font-family="Helvetica,sans-Serif" font-size="10.00">tetgenmesh::removeslivers</text>
</a>
</g>
<!-- Node32&#45;&gt;Node33 -->
<g id="edge100" class="edge"><title>Node32&#45;&gt;Node33</title>
<path fill="none" stroke="midnightblue" d="M704.651,-532.641C819.336,-532.641 1050.58,-532.641 1164.89,-532.641"/>
<polygon fill="midnightblue" stroke="midnightblue" points="704.592,-529.141 694.592,-532.641 704.592,-536.141 704.592,-529.141"/>
</g>
<!-- Node34 -->
<g id="node85" class="node"><title>Node34</title>
<a xlink:href="classtetgenmesh.xhtml#a8bb5c6ad8ccfa57f2a84e5a78295b263" target="_top" xlink:title="tetgenmesh::optimizemesh">
<polygon fill="none" stroke="black" points="1350,-489.141 1350,-510.141 1484,-510.141 1484,-489.141 1350,-489.141"/>
<text text-anchor="middle" x="1417" y="-497.141" font-family="Helvetica,sans-Serif" font-size="10.00">tetgenmesh::optimizemesh</text>
</a>
</g>
<!-- Node33&#45;&gt;Node34 -->
<g id="edge102" class="edge"><title>Node33&#45;&gt;Node34</title>
<path fill="none" stroke="midnightblue" d="M1300.98,-520.336C1319.69,-516.999 1339.77,-513.417 1357.88,-510.186"/>
<polygon fill="midnightblue" stroke="midnightblue" points="1300.27,-516.907 1291.04,-522.109 1301.5,-523.798 1300.27,-516.907"/>
</g>
<!-- Node34&#45;&gt;Node4 -->
<g id="edge104" class="edge"><title>Node34&#45;&gt;Node4</title>
<path fill="none" stroke="midnightblue" d="M1480.8,-487.03C1534.2,-475.697 1612.05,-457.361 1678,-434.641 1696.35,-428.318 1716.42,-419.222 1731.03,-412.181"/>
<polygon fill="midnightblue" stroke="midnightblue" points="1479.85,-483.652 1470.78,-489.133 1481.29,-490.502 1479.85,-483.652"/>
</g>
<!-- Node35&#45;&gt;Node3 -->
<g id="edge108" class="edge"><title>Node35&#45;&gt;Node3</title>
<path fill="none" stroke="midnightblue" d="M252.802,-509.129C273.616,-520.297 303.026,-535.184 330,-545.641 344.213,-551.151 360.146,-556.074 374.455,-560.065"/>
<polygon fill="midnightblue" stroke="midnightblue" points="254.342,-505.983 243.884,-504.289 251.003,-512.135 254.342,-505.983"/>
</g>
</g>
</svg>
