<?xml version="1.0" encoding="UTF-8" standalone="no"?>
<!DOCTYPE svg PUBLIC "-//W3C//DTD SVG 1.1//EN"
 "http://www.w3.org/Graphics/SVG/1.1/DTD/svg11.dtd">
<!-- Generated by graphviz version 2.26.3 (20100126.1600)
 -->
<!-- Title: tetgenmesh::jettisonnodes Pages: 1 -->
<svg width="762pt" height="134pt"
 viewBox="0.00 0.00 762.00 134.00" xmlns="http://www.w3.org/2000/svg" xmlns:xlink="http://www.w3.org/1999/xlink">
<g id="graph1" class="graph" transform="scale(1 1) rotate(0) translate(4 130)">
<title>tetgenmesh::jettisonnodes</title>
<!-- Node1 -->
<g id="node1" class="node"><title>Node1</title>
<polygon fill="#bfbfbf" stroke="black" points="0.5,-46.5 0.5,-67.5 131.5,-67.5 131.5,-46.5 0.5,-46.5"/>
<text text-anchor="middle" x="66" y="-54.5" font-family="Helvetica,sans-Serif" font-size="10.00">tetgenmesh::jettisonnodes</text>
</g>
<!-- Node2 -->
<g id="node3" class="node"><title>Node2</title>
<a xlink:href="classtetgenmesh.xhtml#a0c51cd3511d2b0ef9d0d45fe8b546b2e" target="_top" xlink:title="tetgenmesh::meshsurface">
<polygon fill="none" stroke="black" points="168,-66.5 168,-87.5 298,-87.5 298,-66.5 168,-66.5"/>
<text text-anchor="middle" x="233" y="-74.5" font-family="Helvetica,sans-Serif" font-size="10.00">tetgenmesh::meshsurface</text>
</a>
</g>
<!-- Node1&#45;&gt;Node2 -->
<g id="edge2" class="edge"><title>Node1&#45;&gt;Node2</title>
<path fill="none" stroke="midnightblue" d="M141.723,-66.0686C150.477,-67.117 159.345,-68.1791 167.939,-69.2083"/>
<polygon fill="midnightblue" stroke="midnightblue" points="141.869,-62.5612 131.524,-64.8471 141.036,-69.5115 141.869,-62.5612"/>
</g>
<!-- Node3 -->
<g id="node5" class="node"><title>Node3</title>
<a xlink:href="tetgen_8h.xhtml#ad3637eb4ffe7fda90667e67b7771d964" target="_top" xlink:title="tetrahedralize">
<polygon fill="none" stroke="black" points="334.5,-46.5 334.5,-67.5 409.5,-67.5 409.5,-46.5 334.5,-46.5"/>
<text text-anchor="middle" x="372" y="-54.5" font-family="Helvetica,sans-Serif" font-size="10.00">tetrahedralize</text>
</a>
</g>
<!-- Node1&#45;&gt;Node3 -->
<g id="edge18" class="edge"><title>Node1&#45;&gt;Node3</title>
<path fill="none" stroke="midnightblue" d="M141.653,-57C202.886,-57 286.547,-57 334.363,-57"/>
<polygon fill="midnightblue" stroke="midnightblue" points="141.645,-53.5001 131.645,-57 141.645,-60.5001 141.645,-53.5001"/>
</g>
<!-- Node2&#45;&gt;Node3 -->
<g id="edge4" class="edge"><title>Node2&#45;&gt;Node3</title>
<path fill="none" stroke="midnightblue" d="M307.943,-66.2168C317.068,-64.9039 326.066,-63.6092 334.304,-62.4238"/>
<polygon fill="midnightblue" stroke="midnightblue" points="307.423,-62.7555 298.023,-67.6441 308.42,-69.6842 307.423,-62.7555"/>
</g>
<!-- Node4 -->
<g id="node7" class="node"><title>Node4</title>
<a xlink:href="classGUICutRenderWindow.xhtml#a9eedb7088ad31f4680a77ed3a06fa60c" target="_top" xlink:title="Berechnet die 2D&#45;Temperaturverteilung als Grafik. ">
<polygon fill="none" stroke="black" points="448.5,-89 448.5,-123 565.5,-123 565.5,-89 448.5,-89"/>
<text text-anchor="start" x="456.5" y="-110" font-family="Helvetica,sans-Serif" font-size="10.00">GUICutRenderWindow</text>
<text text-anchor="middle" x="507" y="-97" font-family="Helvetica,sans-Serif" font-size="10.00">::renderImage</text>
</a>
</g>
<!-- Node3&#45;&gt;Node4 -->
<g id="edge6" class="edge"><title>Node3&#45;&gt;Node4</title>
<path fill="none" stroke="midnightblue" d="M410.675,-71.0375C426.063,-76.6228 443.912,-83.1014 460.034,-88.953"/>
<polygon fill="midnightblue" stroke="midnightblue" points="411.555,-67.6336 400.961,-67.5117 409.167,-74.2136 411.555,-67.6336"/>
</g>
<!-- Node6 -->
<g id="node11" class="node"><title>Node6</title>
<a xlink:href="classObjectData.xhtml#af3a850833d08eb9b45357449f455e24d" target="_top" xlink:title="Zerlegt das Objekt in Tetraeder (Schnittstelle zur Tetgen&#45;Bibliothek) und Berechnet die Temperaturver...">
<polygon fill="none" stroke="black" points="446,-46.5 446,-67.5 568,-67.5 568,-46.5 446,-46.5"/>
<text text-anchor="middle" x="507" y="-54.5" font-family="Helvetica,sans-Serif" font-size="10.00">ObjectData::calculateIO</text>
</a>
</g>
<!-- Node3&#45;&gt;Node6 -->
<g id="edge10" class="edge"><title>Node3&#45;&gt;Node6</title>
<path fill="none" stroke="midnightblue" d="M419.654,-57C428.112,-57 437.025,-57 445.795,-57"/>
<polygon fill="midnightblue" stroke="midnightblue" points="419.605,-53.5001 409.605,-57 419.605,-60.5001 419.605,-53.5001"/>
</g>
<!-- Node9 -->
<g id="node17" class="node"><title>Node9</title>
<a xlink:href="tetgen_8cxx.xhtml#a0ddf1224851353fc92bfbff6f499fa97" target="_top" xlink:title="main">
<polygon fill="none" stroke="black" points="488,-6.5 488,-27.5 526,-27.5 526,-6.5 488,-6.5"/>
<text text-anchor="middle" x="507" y="-14.5" font-family="Helvetica,sans-Serif" font-size="10.00">main</text>
</a>
</g>
<!-- Node3&#45;&gt;Node9 -->
<g id="edge16" class="edge"><title>Node3&#45;&gt;Node9</title>
<path fill="none" stroke="midnightblue" d="M417.154,-43.6209C441.267,-36.4764 469.668,-28.0613 487.984,-22.6343"/>
<polygon fill="midnightblue" stroke="midnightblue" points="416.063,-40.2937 407.47,-46.4905 418.052,-47.0053 416.063,-40.2937"/>
</g>
<!-- Node5 -->
<g id="node9" class="node"><title>Node5</title>
<a xlink:href="classGUICutRenderWindow.xhtml#a7cd1bfbec53756a1cbbe1616b4d46c7a" target="_top" xlink:title="Behandelt das Drücken des Buttons zur Berechnung der zweidimensionalen Temperaturverteilung. ">
<polygon fill="none" stroke="black" points="620.5,-92 620.5,-126 737.5,-126 737.5,-92 620.5,-92"/>
<text text-anchor="start" x="628.5" y="-113" font-family="Helvetica,sans-Serif" font-size="10.00">GUICutRenderWindow</text>
<text text-anchor="middle" x="679" y="-100" font-family="Helvetica,sans-Serif" font-size="10.00">::renderCutBtClick</text>
</a>
</g>
<!-- Node4&#45;&gt;Node5 -->
<g id="edge8" class="edge"><title>Node4&#45;&gt;Node5</title>
<path fill="none" stroke="midnightblue" d="M575.777,-107.2C590.511,-107.457 605.948,-107.726 620.261,-107.975"/>
<polygon fill="midnightblue" stroke="midnightblue" points="575.771,-103.699 565.712,-107.024 575.649,-110.698 575.771,-103.699"/>
</g>
<!-- Node7 -->
<g id="node13" class="node"><title>Node7</title>
<a xlink:href="classGUIMainWindow.xhtml#a0c2de30274c7f52ff74ec1217e47a9e5" target="_top" xlink:title="Berechnet die 3D&#45;Temperaturverteilung neu. ">
<polygon fill="none" stroke="black" points="604,-40 604,-74 754,-74 754,-40 604,-40"/>
<text text-anchor="start" x="612" y="-61" font-family="Helvetica,sans-Serif" font-size="10.00">GUIMainWindow::OnRecalcBt</text>
<text text-anchor="middle" x="679" y="-48" font-family="Helvetica,sans-Serif" font-size="10.00">Click</text>
</a>
</g>
<!-- Node6&#45;&gt;Node7 -->
<g id="edge12" class="edge"><title>Node6&#45;&gt;Node7</title>
<path fill="none" stroke="midnightblue" d="M578.316,-57C586.768,-57 595.415,-57 603.918,-57"/>
<polygon fill="midnightblue" stroke="midnightblue" points="578.125,-53.5001 568.125,-57 578.125,-60.5001 578.125,-53.5001"/>
</g>
<!-- Node8 -->
<g id="node15" class="node"><title>Node8</title>
<a xlink:href="classGUITimeline.xhtml#a099f3654aa6e7ea04df861851a0e9ec8" target="_top" xlink:title="Sucht den Zeitpunkt zwischen zwei markierten Stellen auf der Sensordaten&#45;Zeitleiste, für den der Wäremeenergiegehalt maximal wird. ">
<polygon fill="none" stroke="black" points="610.5,-0.5 610.5,-21.5 747.5,-21.5 747.5,-0.5 610.5,-0.5"/>
<text text-anchor="middle" x="679" y="-8.5" font-family="Helvetica,sans-Serif" font-size="10.00">GUITimeline::findMaxValue</text>
</a>
</g>
<!-- Node6&#45;&gt;Node8 -->
<g id="edge14" class="edge"><title>Node6&#45;&gt;Node8</title>
<path fill="none" stroke="midnightblue" d="M555.997,-43.8537C571.363,-39.7343 588.387,-35.1741 604,-31 615.456,-27.9371 627.899,-24.6167 639.296,-21.5777"/>
<polygon fill="midnightblue" stroke="midnightblue" points="554.923,-40.5181 546.17,-46.4885 556.735,-47.2793 554.923,-40.5181"/>
</g>
</g>
</svg>
