<?xml version="1.0" encoding="UTF-8" standalone="no"?>
<!DOCTYPE svg PUBLIC "-//W3C//DTD SVG 1.1//EN"
 "http://www.w3.org/Graphics/SVG/1.1/DTD/svg11.dtd">
<!-- Generated by graphviz version 2.36.0 (20140111.2315)
 -->
<!-- Title: Vector3D::getXYZ Pages: 1 -->
<svg width="732pt" height="223pt"
 viewBox="0.00 0.00 732.00 223.00" xmlns="http://www.w3.org/2000/svg" xmlns:xlink="http://www.w3.org/1999/xlink">
<g id="graph0" class="graph" transform="scale(1 1) rotate(0) translate(4 219)">
<title>Vector3D::getXYZ</title>
<!-- Node1 -->
<g id="node1" class="node"><title>Node1</title>
<polygon fill="#bfbfbf" stroke="black" points="0.5,-100.5 0.5,-119.5 97.5,-119.5 97.5,-100.5 0.5,-100.5"/>
<text text-anchor="middle" x="49" y="-107.5" font-family="Helvetica,sans-Serif" font-size="10.00">Vector3D::getXYZ</text>
</g>
<!-- Node2 -->
<g id="node2" class="node"><title>Node2</title>
<g id="a_node2"><a xlink:href="simpleanalyzer-gui_2src_2GUI_2Renderer_8cpp.xhtml#a4225af4db7b633515f133a4f40c72b33" target="_top" xlink:title="Zeichnet einen Vektor als Pfeil. ">
<polygon fill="none" stroke="black" points="160,-195.5 160,-214.5 226,-214.5 226,-195.5 160,-195.5"/>
<text text-anchor="middle" x="193" y="-202.5" font-family="Helvetica,sans-Serif" font-size="10.00">drawVector</text>
</a>
</g>
</g>
<!-- Node1&#45;&gt;Node2 -->
<g id="edge1" class="edge"><title>Node1&#45;&gt;Node2</title>
<path fill="none" stroke="midnightblue" d="M67.109,-127.25C83.2654,-142.829 108.725,-165.607 134,-181 143.307,-186.668 154.193,-191.57 164.005,-195.44"/>
<polygon fill="midnightblue" stroke="midnightblue" points="69.1461,-124.345 59.5584,-119.837 64.242,-129.34 69.1461,-124.345"/>
</g>
<!-- Node4 -->
<g id="node4" class="node"><title>Node4</title>
<g id="a_node4"><a xlink:href="simpleanalyzer-gui_2src_2GUI_2Renderer_8cpp.xhtml#a608a02845726b8844beac12e5154c500" target="_top" xlink:title="Visualisiert Informationen über eine 2D&#45;Temperaturverteilung. ">
<polygon fill="none" stroke="black" points="301.5,-157.5 301.5,-176.5 402.5,-176.5 402.5,-157.5 301.5,-157.5"/>
<text text-anchor="middle" x="352" y="-164.5" font-family="Helvetica,sans-Serif" font-size="10.00">drawCutRenderInfo</text>
</a>
</g>
</g>
<!-- Node1&#45;&gt;Node4 -->
<g id="edge5" class="edge"><title>Node1&#45;&gt;Node4</title>
<path fill="none" stroke="midnightblue" d="M75.6169,-124.328C91.8409,-132.701 113.549,-142.645 134,-148 189.974,-162.656 256.553,-166.58 301.066,-167.365"/>
<polygon fill="midnightblue" stroke="midnightblue" points="77.2236,-121.218 66.749,-119.626 73.9446,-127.403 77.2236,-121.218"/>
</g>
<!-- Node6 -->
<g id="node6" class="node"><title>Node6</title>
<g id="a_node6"><a xlink:href="namespaceUtils.xhtml#af8fc5d6dab27f759ab5d76757a53023f" target="_top" xlink:title="Testet, ob sich ein Punkt innerhalb eines Körpers befindet. ">
<polygon fill="none" stroke="black" points="136,-119.5 136,-138.5 250,-138.5 250,-119.5 136,-119.5"/>
<text text-anchor="middle" x="193" y="-126.5" font-family="Helvetica,sans-Serif" font-size="10.00">Utils::pointInsideMesh</text>
</a>
</g>
</g>
<!-- Node1&#45;&gt;Node6 -->
<g id="edge6" class="edge"><title>Node1&#45;&gt;Node6</title>
<path fill="none" stroke="midnightblue" d="M107.627,-117.711C116.939,-118.957 126.569,-120.245 135.846,-121.486"/>
<polygon fill="midnightblue" stroke="midnightblue" points="108.055,-114.237 97.679,-116.38 107.126,-121.175 108.055,-114.237"/>
</g>
<!-- Node7 -->
<g id="node7" class="node"><title>Node7</title>
<g id="a_node7"><a xlink:href="GUICutRenderWindow_8cpp.xhtml#aeaaae4c8452680389d221d0e60a6fc33" target="_top" xlink:title="Funktion zum verteilten berechnen der 2D&#45;Temperaturverteilung. ">
<polygon fill="none" stroke="black" points="314,-97.5 314,-116.5 390,-116.5 390,-97.5 314,-97.5"/>
<text text-anchor="middle" x="352" y="-104.5" font-family="Helvetica,sans-Serif" font-size="10.00">render_thread</text>
</a>
</g>
</g>
<!-- Node1&#45;&gt;Node7 -->
<g id="edge10" class="edge"><title>Node1&#45;&gt;Node7</title>
<path fill="none" stroke="midnightblue" d="M107.9,-109.423C168.693,-108.817 262.461,-107.882 313.967,-107.369"/>
<polygon fill="midnightblue" stroke="midnightblue" points="107.659,-105.925 97.6943,-109.525 107.729,-112.925 107.659,-105.925"/>
</g>
<!-- Node10 -->
<g id="node10" class="node"><title>Node10</title>
<g id="a_node10"><a xlink:href="classMatrix3D.xhtml#adb30531e4dd89eb99ed2fb7f94269122" target="_top" xlink:title="Multipliziert die Matrix mit einem Vektor. ">
<polygon fill="none" stroke="black" points="152.5,-43.5 152.5,-62.5 233.5,-62.5 233.5,-43.5 152.5,-43.5"/>
<text text-anchor="middle" x="193" y="-50.5" font-family="Helvetica,sans-Serif" font-size="10.00">Matrix3D::mult</text>
</a>
</g>
</g>
<!-- Node1&#45;&gt;Node10 -->
<g id="edge11" class="edge"><title>Node1&#45;&gt;Node10</title>
<path fill="none" stroke="midnightblue" d="M83.2352,-96.6591C109.279,-86.205 144.884,-71.9126 168.155,-62.5716"/>
<polygon fill="midnightblue" stroke="midnightblue" points="81.744,-93.4862 73.7676,-100.459 84.3517,-99.9823 81.744,-93.4862"/>
</g>
<!-- Node11 -->
<g id="node11" class="node"><title>Node11</title>
<g id="a_node11"><a xlink:href="classAnalyzer.xhtml#a8f73ee0aa71ae395a74b43dc76b35458" target="_top" xlink:title="Ermittelt Daten für einen Punkt am aktuell ausgewählten Zeitpunkt. ">
<polygon fill="none" stroke="black" points="134.5,-5.5 134.5,-24.5 251.5,-24.5 251.5,-5.5 134.5,-5.5"/>
<text text-anchor="middle" x="193" y="-12.5" font-family="Helvetica,sans-Serif" font-size="10.00">Analyzer::analyzePoint</text>
</a>
</g>
</g>
<!-- Node1&#45;&gt;Node11 -->
<g id="edge12" class="edge"><title>Node1&#45;&gt;Node11</title>
<path fill="none" stroke="midnightblue" d="M64.8917,-92.8429C80.5495,-75.7629 106.668,-49.8681 134,-34 140.506,-30.2228 147.865,-27.0792 155.103,-24.5085"/>
<polygon fill="midnightblue" stroke="midnightblue" points="62.1535,-90.654 58.0859,-100.437 67.3664,-95.3258 62.1535,-90.654"/>
</g>
<!-- Node3 -->
<g id="node3" class="node"><title>Node3</title>
<g id="a_node3"><a xlink:href="simpleanalyzer-gui_2src_2GUI_2Renderer_8cpp.xhtml#ac35d259852428046b123c635864e2197" target="_top" xlink:title="Zeichnet markante Linien zum leichteren Erfassen des Koordinatensystems. ">
<polygon fill="none" stroke="black" points="321,-195.5 321,-214.5 383,-214.5 383,-195.5 321,-195.5"/>
<text text-anchor="middle" x="352" y="-202.5" font-family="Helvetica,sans-Serif" font-size="10.00">renderGrid</text>
</a>
</g>
</g>
<!-- Node2&#45;&gt;Node3 -->
<g id="edge2" class="edge"><title>Node2&#45;&gt;Node3</title>
<path fill="none" stroke="midnightblue" d="M236.351,-205C263.011,-205 296.788,-205 320.757,-205"/>
<polygon fill="midnightblue" stroke="midnightblue" points="236.15,-201.5 226.15,-205 236.15,-208.5 236.15,-201.5"/>
</g>
<!-- Node2&#45;&gt;Node4 -->
<g id="edge3" class="edge"><title>Node2&#45;&gt;Node4</title>
<path fill="none" stroke="midnightblue" d="M236.166,-194.794C259.633,-189.114 288.659,-182.089 311.658,-176.522"/>
<polygon fill="midnightblue" stroke="midnightblue" points="235.046,-191.464 226.15,-197.218 236.693,-198.268 235.046,-191.464"/>
</g>
<!-- Node5 -->
<g id="node5" class="node"><title>Node5</title>
<g id="a_node5"><a xlink:href="classRenderer.xhtml#af7e5f8f68742f198e315fb4683a605a4" target="_top" xlink:title="Zeichnet das Objekt (Attribut object). ">
<polygon fill="none" stroke="black" points="466.5,-157.5 466.5,-176.5 555.5,-176.5 555.5,-157.5 466.5,-157.5"/>
<text text-anchor="middle" x="511" y="-164.5" font-family="Helvetica,sans-Serif" font-size="10.00">Renderer::render</text>
</a>
</g>
</g>
<!-- Node4&#45;&gt;Node5 -->
<g id="edge4" class="edge"><title>Node4&#45;&gt;Node5</title>
<path fill="none" stroke="midnightblue" d="M412.973,-167C430.777,-167 449.929,-167 466.475,-167"/>
<polygon fill="midnightblue" stroke="midnightblue" points="412.676,-163.5 402.676,-167 412.676,-170.5 412.676,-163.5"/>
</g>
<!-- Node6&#45;&gt;Node7 -->
<g id="edge7" class="edge"><title>Node6&#45;&gt;Node7</title>
<path fill="none" stroke="midnightblue" d="M260.281,-119.712C278.576,-117.149 297.778,-114.458 313.781,-112.215"/>
<polygon fill="midnightblue" stroke="midnightblue" points="259.655,-116.266 250.237,-121.12 260.626,-123.198 259.655,-116.266"/>
</g>
<!-- Node8 -->
<g id="node8" class="node"><title>Node8</title>
<g id="a_node8"><a xlink:href="classGUICutRenderWindow.xhtml#a9eedb7088ad31f4680a77ed3a06fa60c" target="_top" xlink:title="Berechnet die 2D&#45;Temperaturverteilung als Grafik. ">
<polygon fill="none" stroke="black" points="452.5,-92 452.5,-122 569.5,-122 569.5,-92 452.5,-92"/>
<text text-anchor="start" x="460.5" y="-110" font-family="Helvetica,sans-Serif" font-size="10.00">GUICutRenderWindow</text>
<text text-anchor="middle" x="511" y="-99" font-family="Helvetica,sans-Serif" font-size="10.00">::renderImage</text>
</a>
</g>
</g>
<!-- Node7&#45;&gt;Node8 -->
<g id="edge8" class="edge"><title>Node7&#45;&gt;Node8</title>
<path fill="none" stroke="midnightblue" d="M400.608,-107C416.96,-107 435.439,-107 452.491,-107"/>
<polygon fill="midnightblue" stroke="midnightblue" points="400.207,-103.5 390.207,-107 400.207,-110.5 400.207,-103.5"/>
</g>
<!-- Node9 -->
<g id="node9" class="node"><title>Node9</title>
<g id="a_node9"><a xlink:href="classGUICutRenderWindow.xhtml#a7cd1bfbec53756a1cbbe1616b4d46c7a" target="_top" xlink:title="Behandelt das Drücken des Buttons zur Berechnung der zweidimensionalen Temperaturverteilung. ">
<polygon fill="none" stroke="black" points="606.5,-92 606.5,-122 723.5,-122 723.5,-92 606.5,-92"/>
<text text-anchor="start" x="614.5" y="-110" font-family="Helvetica,sans-Serif" font-size="10.00">GUICutRenderWindow</text>
<text text-anchor="middle" x="665" y="-99" font-family="Helvetica,sans-Serif" font-size="10.00">::renderCutBtClick</text>
</a>
</g>
</g>
<!-- Node8&#45;&gt;Node9 -->
<g id="edge9" class="edge"><title>Node8&#45;&gt;Node9</title>
<path fill="none" stroke="midnightblue" d="M580.072,-107C588.817,-107 597.704,-107 606.263,-107"/>
<polygon fill="midnightblue" stroke="midnightblue" points="579.898,-103.5 569.898,-107 579.898,-110.5 579.898,-103.5"/>
</g>
<!-- Node12 -->
<g id="node12" class="node"><title>Node12</title>
<g id="a_node12"><a xlink:href="classGUIAnalyzePointWindow.xhtml#aa84ea9958e8b41423f01316d01ba5151" target="_top" xlink:title="Event&#45;Tabellendeklaration für wxWidgets. ">
<polygon fill="none" stroke="black" points="288,-0 288,-30 416,-30 416,-0 288,-0"/>
<text text-anchor="start" x="296" y="-18" font-family="Helvetica,sans-Serif" font-size="10.00">GUIAnalyzePointWindow</text>
<text text-anchor="middle" x="352" y="-7" font-family="Helvetica,sans-Serif" font-size="10.00">::analyzePoint</text>
</a>
</g>
</g>
<!-- Node11&#45;&gt;Node12 -->
<g id="edge13" class="edge"><title>Node11&#45;&gt;Node12</title>
<path fill="none" stroke="midnightblue" d="M261.674,-15C270.374,-15 279.255,-15 287.879,-15"/>
<polygon fill="midnightblue" stroke="midnightblue" points="261.57,-11.5001 251.57,-15 261.569,-18.5001 261.57,-11.5001"/>
</g>
</g>
</svg>
