<?xml version="1.0" encoding="UTF-8" standalone="no"?>
<!DOCTYPE svg PUBLIC "-//W3C//DTD SVG 1.1//EN"
 "http://www.w3.org/Graphics/SVG/1.1/DTD/svg11.dtd">
<!-- Generated by graphviz version 2.36.0 (20140111.2315)
 -->
<!-- Title: PropertiesBox Pages: 1 -->
<svg width="297pt" height="164pt"
 viewBox="0.00 0.00 297.00 164.00" xmlns="http://www.w3.org/2000/svg" xmlns:xlink="http://www.w3.org/1999/xlink">
<g id="graph0" class="graph" transform="scale(1 1) rotate(0) translate(4 160)">
<title>PropertiesBox</title>
<!-- Node1 -->
<g id="node1" class="node"><title>Node1</title>
<polygon fill="#bfbfbf" stroke="black" points="27,-0.5 27,-19.5 105,-19.5 105,-0.5 27,-0.5"/>
<text text-anchor="middle" x="66" y="-7.5" font-family="Helvetica,sans-Serif" font-size="10.00">PropertiesBox</text>
</g>
<!-- Node2 -->
<g id="node2" class="node"><title>Node2</title>
<polygon fill="none" stroke="#bfbfbf" points="0,-68.5 0,-87.5 72,-87.5 72,-68.5 0,-68.5"/>
<text text-anchor="middle" x="36" y="-75.5" font-family="Helvetica,sans-Serif" font-size="10.00">wxStaticBox</text>
</g>
<!-- Node2&#45;&gt;Node1 -->
<g id="edge1" class="edge"><title>Node2&#45;&gt;Node1</title>
<path fill="none" stroke="midnightblue" d="M44.0973,-59.1859C49.8853,-46.4523 57.4269,-29.8607 61.9813,-19.8411"/>
<polygon fill="midnightblue" stroke="midnightblue" points="40.8738,-57.8196 39.922,-68.3717 47.2463,-60.7163 40.8738,-57.8196"/>
</g>
<!-- Node3 -->
<g id="node3" class="node"><title>Node3</title>
<g id="a_node3"><a xlink:href="classGUITimeline.xhtml" target="_top" xlink:title="Eine Zeitleistenkomponente. ">
<polygon fill="none" stroke="black" points="90.5,-68.5 90.5,-87.5 161.5,-87.5 161.5,-68.5 90.5,-68.5"/>
<text text-anchor="middle" x="126" y="-75.5" font-family="Helvetica,sans-Serif" font-size="10.00">GUITimeline</text>
</a>
</g>
</g>
<!-- Node3&#45;&gt;Node1 -->
<g id="edge2" class="edge"><title>Node3&#45;&gt;Node1</title>
<path fill="none" stroke="#9a32cd" stroke-dasharray="5,2" d="M111.164,-60.68C99.4334,-47.7768 83.5068,-30.2575 74.0374,-19.8411"/>
<polygon fill="#9a32cd" stroke="#9a32cd" points="108.839,-63.3266 118.156,-68.3717 114.019,-58.6179 108.839,-63.3266"/>
<text text-anchor="middle" x="127.5" y="-41.5" font-family="Helvetica,sans-Serif" font-size="10.00"> sdTimeline</text>
</g>
<!-- Node4 -->
<g id="node4" class="node"><title>Node4</title>
<polygon fill="none" stroke="#bfbfbf" points="1,-136.5 1,-155.5 55,-155.5 55,-136.5 1,-136.5"/>
<text text-anchor="middle" x="28" y="-143.5" font-family="Helvetica,sans-Serif" font-size="10.00">wxPanel</text>
</g>
<!-- Node4&#45;&gt;Node3 -->
<g id="edge3" class="edge"><title>Node4&#45;&gt;Node3</title>
<path fill="none" stroke="midnightblue" d="M49.332,-130.634C68.8118,-117.515 96.9697,-98.551 113.185,-87.6305"/>
<polygon fill="midnightblue" stroke="midnightblue" points="47.1511,-127.883 40.8118,-136.372 51.0613,-133.689 47.1511,-127.883"/>
</g>
<!-- Node5 -->
<g id="node5" class="node"><title>Node5</title>
<g id="a_node5"><a xlink:href="classstd_1_1vector.xhtml" target="_top" xlink:title="std::vector\&lt; string \&gt;">
<polygon fill="none" stroke="black" points="73.5,-136.5 73.5,-155.5 178.5,-155.5 178.5,-136.5 73.5,-136.5"/>
<text text-anchor="middle" x="126" y="-143.5" font-family="Helvetica,sans-Serif" font-size="10.00">std::vector&lt; string &gt;</text>
</a>
</g>
</g>
<!-- Node5&#45;&gt;Node3 -->
<g id="edge4" class="edge"><title>Node5&#45;&gt;Node3</title>
<path fill="none" stroke="#9a32cd" stroke-dasharray="5,2" d="M126,-126.041C126,-113.472 126,-97.5631 126,-87.8411"/>
<polygon fill="#9a32cd" stroke="#9a32cd" points="122.5,-126.372 126,-136.372 129.5,-126.372 122.5,-126.372"/>
<text text-anchor="middle" x="142.5" y="-109.5" font-family="Helvetica,sans-Serif" font-size="10.00"> names</text>
</g>
<!-- Node6 -->
<g id="node6" class="node"><title>Node6</title>
<g id="a_node6"><a xlink:href="classstd_1_1vector.xhtml" target="_top" xlink:title="std::vector\&lt; int \&gt;">
<polygon fill="none" stroke="black" points="197,-136.5 197,-155.5 289,-155.5 289,-136.5 197,-136.5"/>
<text text-anchor="middle" x="243" y="-143.5" font-family="Helvetica,sans-Serif" font-size="10.00">std::vector&lt; int &gt;</text>
</a>
</g>
</g>
<!-- Node6&#45;&gt;Node3 -->
<g id="edge5" class="edge"><title>Node6&#45;&gt;Node3</title>
<path fill="none" stroke="#9a32cd" stroke-dasharray="5,2" d="M218.785,-131.34C195.497,-118.204 161.009,-98.7487 141.299,-87.6305"/>
<polygon fill="#9a32cd" stroke="#9a32cd" points="217.275,-134.507 227.704,-136.372 220.714,-128.41 217.275,-134.507"/>
<text text-anchor="middle" x="213.5" y="-109.5" font-family="Helvetica,sans-Serif" font-size="10.00"> markers</text>
</g>
</g>
</svg>
