<?xml version="1.0" encoding="UTF-8" standalone="no"?>
<!DOCTYPE svg PUBLIC "-//W3C//DTD SVG 1.1//EN"
 "http://www.w3.org/Graphics/SVG/1.1/DTD/svg11.dtd">
<!-- Generated by graphviz version 2.26.3 (20100126.1600)
 -->
<!-- Title: tetgenmesh::makepoint2submap Pages: 1 -->
<svg width="988pt" height="135pt"
 viewBox="0.00 0.00 988.00 135.00" xmlns="http://www.w3.org/2000/svg" xmlns:xlink="http://www.w3.org/1999/xlink">
<g id="graph1" class="graph" transform="scale(1 1) rotate(0) translate(4 131)">
<title>tetgenmesh::makepoint2submap</title>
<!-- Node1 -->
<g id="node1" class="node"><title>Node1</title>
<polygon fill="#bfbfbf" stroke="black" points="0,-65.5 0,-86.5 158,-86.5 158,-65.5 0,-65.5"/>
<text text-anchor="middle" x="79" y="-73.5" font-family="Helvetica,sans-Serif" font-size="10.00">tetgenmesh::makepoint2submap</text>
</g>
<!-- Node2 -->
<g id="node3" class="node"><title>Node2</title>
<a xlink:href="classtetgenmesh.xhtml#adcb0e0e582808c23829b42708a7596dc" target="_top" xlink:title="tetgenmesh::unifysegments">
<polygon fill="none" stroke="black" points="199.5,-105.5 199.5,-126.5 336.5,-126.5 336.5,-105.5 199.5,-105.5"/>
<text text-anchor="middle" x="268" y="-113.5" font-family="Helvetica,sans-Serif" font-size="10.00">tetgenmesh::unifysegments</text>
</a>
</g>
<!-- Node1&#45;&gt;Node2 -->
<g id="edge2" class="edge"><title>Node1&#45;&gt;Node2</title>
<path fill="none" stroke="midnightblue" d="M138.639,-88.622C164.287,-94.0501 193.919,-100.321 218.346,-105.491"/>
<polygon fill="midnightblue" stroke="midnightblue" points="139.166,-85.156 128.658,-86.5095 137.716,-92.0043 139.166,-85.156"/>
</g>
<!-- Node11 -->
<g id="node21" class="node"><title>Node11</title>
<a xlink:href="classtetgenmesh.xhtml#a3193fcbef94cca623411966a3661f215" target="_top" xlink:title="tetgenmesh::identifypscedges">
<polygon fill="none" stroke="black" points="194.5,-65.5 194.5,-86.5 341.5,-86.5 341.5,-65.5 194.5,-65.5"/>
<text text-anchor="middle" x="268" y="-73.5" font-family="Helvetica,sans-Serif" font-size="10.00">tetgenmesh::identifypscedges</text>
</a>
</g>
<!-- Node1&#45;&gt;Node11 -->
<g id="edge20" class="edge"><title>Node1&#45;&gt;Node11</title>
<path fill="none" stroke="midnightblue" d="M168.278,-76C177.023,-76 185.827,-76 194.391,-76"/>
<polygon fill="midnightblue" stroke="midnightblue" points="168.058,-72.5001 158.058,-76 168.058,-79.5001 168.058,-72.5001"/>
</g>
<!-- Node12 -->
<g id="node24" class="node"><title>Node12</title>
<a xlink:href="classtetgenmesh.xhtml#ad44b2ea3720da385a0cbcf306884e126" target="_top" xlink:title="tetgenmesh::reconstructmesh">
<polygon fill="none" stroke="black" points="378,-26.5 378,-47.5 524,-47.5 524,-26.5 378,-26.5"/>
<text text-anchor="middle" x="451" y="-34.5" font-family="Helvetica,sans-Serif" font-size="10.00">tetgenmesh::reconstructmesh</text>
</a>
</g>
<!-- Node1&#45;&gt;Node12 -->
<g id="edge24" class="edge"><title>Node1&#45;&gt;Node12</title>
<path fill="none" stroke="midnightblue" d="M143.065,-63.7083C159.61,-60.8504 177.428,-58.0486 194,-56 255.83,-48.3568 326.436,-43.4069 377.976,-40.4817"/>
<polygon fill="midnightblue" stroke="midnightblue" points="142.192,-60.3081 132.951,-65.4888 143.406,-67.2021 142.192,-60.3081"/>
</g>
<!-- Node3 -->
<g id="node5" class="node"><title>Node3</title>
<a xlink:href="classtetgenmesh.xhtml#a0c51cd3511d2b0ef9d0d45fe8b546b2e" target="_top" xlink:title="tetgenmesh::meshsurface">
<polygon fill="none" stroke="black" points="386,-66.5 386,-87.5 516,-87.5 516,-66.5 386,-66.5"/>
<text text-anchor="middle" x="451" y="-74.5" font-family="Helvetica,sans-Serif" font-size="10.00">tetgenmesh::meshsurface</text>
</a>
</g>
<!-- Node2&#45;&gt;Node3 -->
<g id="edge4" class="edge"><title>Node2&#45;&gt;Node3</title>
<path fill="none" stroke="midnightblue" d="M327.536,-103.312C351.429,-98.22 378.648,-92.4192 401.438,-87.5624"/>
<polygon fill="midnightblue" stroke="midnightblue" points="326.573,-99.9385 317.522,-105.446 328.032,-106.785 326.573,-99.9385"/>
</g>
<!-- Node4 -->
<g id="node7" class="node"><title>Node4</title>
<a xlink:href="tetgen_8h.xhtml#ad3637eb4ffe7fda90667e67b7771d964" target="_top" xlink:title="tetrahedralize">
<polygon fill="none" stroke="black" points="560.5,-46.5 560.5,-67.5 635.5,-67.5 635.5,-46.5 560.5,-46.5"/>
<text text-anchor="middle" x="598" y="-54.5" font-family="Helvetica,sans-Serif" font-size="10.00">tetrahedralize</text>
</a>
</g>
<!-- Node3&#45;&gt;Node4 -->
<g id="edge6" class="edge"><title>Node3&#45;&gt;Node4</title>
<path fill="none" stroke="midnightblue" d="M526.589,-66.7158C538.273,-65.1261 549.887,-63.546 560.248,-62.1363"/>
<polygon fill="midnightblue" stroke="midnightblue" points="525.769,-63.295 516.332,-68.1112 526.713,-70.2311 525.769,-63.295"/>
</g>
<!-- Node5 -->
<g id="node9" class="node"><title>Node5</title>
<a xlink:href="classGUICutRenderWindow.xhtml#a9eedb7088ad31f4680a77ed3a06fa60c" target="_top" xlink:title="Berechnet die 2D&#45;Temperaturverteilung als Grafik. ">
<polygon fill="none" stroke="black" points="674.5,-89 674.5,-123 791.5,-123 791.5,-89 674.5,-89"/>
<text text-anchor="start" x="682.5" y="-110" font-family="Helvetica,sans-Serif" font-size="10.00">GUICutRenderWindow</text>
<text text-anchor="middle" x="733" y="-97" font-family="Helvetica,sans-Serif" font-size="10.00">::renderImage</text>
</a>
</g>
<!-- Node4&#45;&gt;Node5 -->
<g id="edge8" class="edge"><title>Node4&#45;&gt;Node5</title>
<path fill="none" stroke="midnightblue" d="M636.675,-71.0375C652.063,-76.6228 669.912,-83.1014 686.034,-88.953"/>
<polygon fill="midnightblue" stroke="midnightblue" points="637.555,-67.6336 626.961,-67.5117 635.167,-74.2136 637.555,-67.6336"/>
</g>
<!-- Node7 -->
<g id="node13" class="node"><title>Node7</title>
<a xlink:href="classObjectData.xhtml#af3a850833d08eb9b45357449f455e24d" target="_top" xlink:title="Zerlegt das Objekt in Tetraeder (Schnittstelle zur Tetgen&#45;Bibliothek) und Berechnet die Temperaturver...">
<polygon fill="none" stroke="black" points="672,-46.5 672,-67.5 794,-67.5 794,-46.5 672,-46.5"/>
<text text-anchor="middle" x="733" y="-54.5" font-family="Helvetica,sans-Serif" font-size="10.00">ObjectData::calculateIO</text>
</a>
</g>
<!-- Node4&#45;&gt;Node7 -->
<g id="edge12" class="edge"><title>Node4&#45;&gt;Node7</title>
<path fill="none" stroke="midnightblue" d="M645.654,-57C654.112,-57 663.025,-57 671.795,-57"/>
<polygon fill="midnightblue" stroke="midnightblue" points="645.605,-53.5001 635.605,-57 645.605,-60.5001 645.605,-53.5001"/>
</g>
<!-- Node10 -->
<g id="node19" class="node"><title>Node10</title>
<a xlink:href="tetgen_8cxx.xhtml#a0ddf1224851353fc92bfbff6f499fa97" target="_top" xlink:title="main">
<polygon fill="none" stroke="black" points="714,-6.5 714,-27.5 752,-27.5 752,-6.5 714,-6.5"/>
<text text-anchor="middle" x="733" y="-14.5" font-family="Helvetica,sans-Serif" font-size="10.00">main</text>
</a>
</g>
<!-- Node4&#45;&gt;Node10 -->
<g id="edge18" class="edge"><title>Node4&#45;&gt;Node10</title>
<path fill="none" stroke="midnightblue" d="M643.154,-43.6209C667.267,-36.4764 695.668,-28.0613 713.984,-22.6343"/>
<polygon fill="midnightblue" stroke="midnightblue" points="642.063,-40.2937 633.47,-46.4905 644.052,-47.0053 642.063,-40.2937"/>
</g>
<!-- Node6 -->
<g id="node11" class="node"><title>Node6</title>
<a xlink:href="classGUICutRenderWindow.xhtml#a7cd1bfbec53756a1cbbe1616b4d46c7a" target="_top" xlink:title="Behandelt das Drücken des Buttons zur Berechnung der zweidimensionalen Temperaturverteilung. ">
<polygon fill="none" stroke="black" points="846.5,-92 846.5,-126 963.5,-126 963.5,-92 846.5,-92"/>
<text text-anchor="start" x="854.5" y="-113" font-family="Helvetica,sans-Serif" font-size="10.00">GUICutRenderWindow</text>
<text text-anchor="middle" x="905" y="-100" font-family="Helvetica,sans-Serif" font-size="10.00">::renderCutBtClick</text>
</a>
</g>
<!-- Node5&#45;&gt;Node6 -->
<g id="edge10" class="edge"><title>Node5&#45;&gt;Node6</title>
<path fill="none" stroke="midnightblue" d="M801.777,-107.2C816.511,-107.457 831.948,-107.726 846.261,-107.975"/>
<polygon fill="midnightblue" stroke="midnightblue" points="801.771,-103.699 791.712,-107.024 801.649,-110.698 801.771,-103.699"/>
</g>
<!-- Node8 -->
<g id="node15" class="node"><title>Node8</title>
<a xlink:href="classGUIMainWindow.xhtml#a0c2de30274c7f52ff74ec1217e47a9e5" target="_top" xlink:title="Berechnet die 3D&#45;Temperaturverteilung neu. ">
<polygon fill="none" stroke="black" points="830,-40 830,-74 980,-74 980,-40 830,-40"/>
<text text-anchor="start" x="838" y="-61" font-family="Helvetica,sans-Serif" font-size="10.00">GUIMainWindow::OnRecalcBt</text>
<text text-anchor="middle" x="905" y="-48" font-family="Helvetica,sans-Serif" font-size="10.00">Click</text>
</a>
</g>
<!-- Node7&#45;&gt;Node8 -->
<g id="edge14" class="edge"><title>Node7&#45;&gt;Node8</title>
<path fill="none" stroke="midnightblue" d="M804.316,-57C812.768,-57 821.415,-57 829.918,-57"/>
<polygon fill="midnightblue" stroke="midnightblue" points="804.125,-53.5001 794.125,-57 804.125,-60.5001 804.125,-53.5001"/>
</g>
<!-- Node9 -->
<g id="node17" class="node"><title>Node9</title>
<a xlink:href="classGUITimeline.xhtml#a099f3654aa6e7ea04df861851a0e9ec8" target="_top" xlink:title="Sucht den Zeitpunkt zwischen zwei markierten Stellen auf der Sensordaten&#45;Zeitleiste, für den der Wäremeenergiegehalt maximal wird. ">
<polygon fill="none" stroke="black" points="836.5,-0.5 836.5,-21.5 973.5,-21.5 973.5,-0.5 836.5,-0.5"/>
<text text-anchor="middle" x="905" y="-8.5" font-family="Helvetica,sans-Serif" font-size="10.00">GUITimeline::findMaxValue</text>
</a>
</g>
<!-- Node7&#45;&gt;Node9 -->
<g id="edge16" class="edge"><title>Node7&#45;&gt;Node9</title>
<path fill="none" stroke="midnightblue" d="M781.997,-43.8537C797.363,-39.7343 814.387,-35.1741 830,-31 841.456,-27.9371 853.899,-24.6167 865.296,-21.5777"/>
<polygon fill="midnightblue" stroke="midnightblue" points="780.923,-40.5181 772.17,-46.4885 782.735,-47.2793 780.923,-40.5181"/>
</g>
<!-- Node11&#45;&gt;Node3 -->
<g id="edge22" class="edge"><title>Node11&#45;&gt;Node3</title>
<path fill="none" stroke="midnightblue" d="M351.644,-76.4571C363.095,-76.5196 374.712,-76.5831 385.769,-76.6435"/>
<polygon fill="midnightblue" stroke="midnightblue" points="351.661,-72.9572 341.642,-76.4024 351.623,-79.9571 351.661,-72.9572"/>
</g>
<!-- Node12&#45;&gt;Node4 -->
<g id="edge26" class="edge"><title>Node12&#45;&gt;Node4</title>
<path fill="none" stroke="midnightblue" d="M534.037,-48.2975C543.175,-49.5408 552.113,-50.7569 560.274,-51.8672"/>
<polygon fill="midnightblue" stroke="midnightblue" points="534.45,-44.8216 524.069,-46.9414 533.506,-51.7577 534.45,-44.8216"/>
</g>
</g>
</svg>
