<?xml version="1.0" encoding="UTF-8" standalone="no"?>
<!DOCTYPE svg PUBLIC "-//W3C//DTD SVG 1.1//EN"
 "http://www.w3.org/Graphics/SVG/1.1/DTD/svg11.dtd">
<!-- Generated by graphviz version 2.26.3 (20100126.1600)
 -->
<!-- Title: tetgenio::load_vol Pages: 1 -->
<svg width="424pt" height="110pt"
 viewBox="0.00 0.00 424.00 110.00" xmlns="http://www.w3.org/2000/svg" xmlns:xlink="http://www.w3.org/1999/xlink">
<g id="graph1" class="graph" transform="scale(1 1) rotate(0) translate(4 106)">
<title>tetgenio::load_vol</title>
<!-- Node1 -->
<g id="node1" class="node"><title>Node1</title>
<polygon fill="#bfbfbf" stroke="black" points="0.5,-40.5 0.5,-61.5 93.5,-61.5 93.5,-40.5 0.5,-40.5"/>
<text text-anchor="middle" x="47" y="-48.5" font-family="Helvetica,sans-Serif" font-size="10.00">tetgenio::load_vol</text>
</g>
<!-- Node2 -->
<g id="node3" class="node"><title>Node2</title>
<a xlink:href="classtetgenio.xhtml#a5e59fa66b5f0f4a7b7aa72df554ac1c7" target="_top" xlink:title="tetgenio::readnumberline">
<polygon fill="none" stroke="black" points="130.5,-80.5 130.5,-101.5 253.5,-101.5 253.5,-80.5 130.5,-80.5"/>
<text text-anchor="middle" x="192" y="-88.5" font-family="Helvetica,sans-Serif" font-size="10.00">tetgenio::readnumberline</text>
</a>
</g>
<!-- Node1&#45;&gt;Node2 -->
<g id="edge2" class="edge"><title>Node1&#45;&gt;Node2</title>
<path fill="none" stroke="midnightblue" d="M85.097,-61.5095C103.175,-66.4965 124.967,-72.5082 144.148,-77.7993"/>
<polygon fill="midnightblue" stroke="midnightblue" points="143.335,-81.2059 153.906,-80.4913 145.197,-74.4579 143.335,-81.2059"/>
</g>
<!-- Node3 -->
<g id="node5" class="node"><title>Node3</title>
<a xlink:href="tetgen_8h.xhtml#a4012bf160c63ec4ff007f6645b993ca5" target="_top" xlink:title="terminatetetgen">
<polygon fill="none" stroke="black" points="150,-40.5 150,-61.5 234,-61.5 234,-40.5 150,-40.5"/>
<text text-anchor="middle" x="192" y="-48.5" font-family="Helvetica,sans-Serif" font-size="10.00">terminatetetgen</text>
</a>
</g>
<!-- Node1&#45;&gt;Node3 -->
<g id="edge4" class="edge"><title>Node1&#45;&gt;Node3</title>
<path fill="none" stroke="midnightblue" d="M93.6771,-51C108.341,-51 124.626,-51 139.656,-51"/>
<polygon fill="midnightblue" stroke="midnightblue" points="139.826,-54.5001 149.826,-51 139.826,-47.5001 139.826,-54.5001"/>
</g>
<!-- Node5 -->
<g id="node9" class="node"><title>Node5</title>
<a xlink:href="classtetgenio.xhtml#a9a30e99d63fb2288525cdbda2b887c38" target="_top" xlink:title="tetgenio::findnextnumber">
<polygon fill="none" stroke="black" points="130,-0.5 130,-21.5 254,-21.5 254,-0.5 130,-0.5"/>
<text text-anchor="middle" x="192" y="-8.5" font-family="Helvetica,sans-Serif" font-size="10.00">tetgenio::findnextnumber</text>
</a>
</g>
<!-- Node1&#45;&gt;Node5 -->
<g id="edge8" class="edge"><title>Node1&#45;&gt;Node5</title>
<path fill="none" stroke="midnightblue" d="M85.097,-40.4905C103.175,-35.5035 124.967,-29.4918 144.148,-24.2007"/>
<polygon fill="midnightblue" stroke="midnightblue" points="145.197,-27.5421 153.906,-21.5087 143.335,-20.7941 145.197,-27.5421"/>
</g>
<!-- Node4 -->
<g id="node7" class="node"><title>Node4</title>
<a xlink:href="classtetgenmesh.xhtml#ade805f03ec7ca1b4623c8148fb915278" target="_top" xlink:title="tetgenmesh::freememory">
<polygon fill="none" stroke="black" points="290.5,-40.5 290.5,-61.5 415.5,-61.5 415.5,-40.5 290.5,-40.5"/>
<text text-anchor="middle" x="353" y="-48.5" font-family="Helvetica,sans-Serif" font-size="10.00">tetgenmesh::freememory</text>
</a>
</g>
<!-- Node3&#45;&gt;Node4 -->
<g id="edge6" class="edge"><title>Node3&#45;&gt;Node4</title>
<path fill="none" stroke="midnightblue" d="M234.301,-51C248.363,-51 264.45,-51 280.146,-51"/>
<polygon fill="midnightblue" stroke="midnightblue" points="280.379,-54.5001 290.379,-51 280.379,-47.5001 280.379,-54.5001"/>
</g>
</g>
</svg>
