<?xml version="1.0" encoding="UTF-8" standalone="no"?>
<!DOCTYPE svg PUBLIC "-//W3C//DTD SVG 1.1//EN"
 "http://www.w3.org/Graphics/SVG/1.1/DTD/svg11.dtd">
<!-- Generated by graphviz version 2.26.3 (20100126.1600)
 -->
<!-- Title: Vector3D::getDistanceTo Pages: 1 -->
<svg width="1108pt" height="186pt"
 viewBox="0.00 0.00 1108.00 186.00" xmlns="http://www.w3.org/2000/svg" xmlns:xlink="http://www.w3.org/1999/xlink">
<g id="graph1" class="graph" transform="scale(1 1) rotate(0) translate(4 182)">
<title>Vector3D::getDistanceTo</title>
<!-- Node1 -->
<g id="node1" class="node"><title>Node1</title>
<polygon fill="#bfbfbf" stroke="black" points="0,-98.5 0,-119.5 128,-119.5 128,-98.5 0,-98.5"/>
<text text-anchor="middle" x="64" y="-106.5" font-family="Helvetica,sans-Serif" font-size="10.00">Vector3D::getDistanceTo</text>
</g>
<!-- Node2 -->
<g id="node3" class="node"><title>Node2</title>
<a xlink:href="classInterpolator.xhtml#a30e714ca6dff9b5745d029f95af1420a" target="_top" xlink:title="Ermittelt den Wert für einen beliebigen Punkt im Raum. ">
<polygon fill="none" stroke="black" points="164.5,-98.5 164.5,-119.5 295.5,-119.5 295.5,-98.5 164.5,-98.5"/>
<text text-anchor="middle" x="230" y="-106.5" font-family="Helvetica,sans-Serif" font-size="10.00">Interpolator::interpolateTet</text>
</a>
</g>
<!-- Node1&#45;&gt;Node2 -->
<g id="edge2" class="edge"><title>Node1&#45;&gt;Node2</title>
<path fill="none" stroke="midnightblue" d="M138.293,-109C146.977,-109 155.79,-109 164.346,-109"/>
<polygon fill="midnightblue" stroke="midnightblue" points="138.18,-105.5 128.18,-109 138.18,-112.5 138.18,-105.5"/>
</g>
<!-- Node3 -->
<g id="node5" class="node"><title>Node3</title>
<a xlink:href="namespaceUtils.xhtml#a6a0ae18a42e2d206bc1b43da27820fe2" target="_top" xlink:title="Gibt den inter/extrapolierten Wert eines Punktes zurück. ">
<polygon fill="none" stroke="black" points="332,-98.5 332,-119.5 436,-119.5 436,-98.5 332,-98.5"/>
<text text-anchor="middle" x="384" y="-106.5" font-family="Helvetica,sans-Serif" font-size="10.00">Utils::getPointValue</text>
</a>
</g>
<!-- Node2&#45;&gt;Node3 -->
<g id="edge4" class="edge"><title>Node2&#45;&gt;Node3</title>
<path fill="none" stroke="midnightblue" d="M306.028,-109C314.807,-109 323.603,-109 331.96,-109"/>
<polygon fill="midnightblue" stroke="midnightblue" points="305.757,-105.5 295.757,-109 305.757,-112.5 305.757,-105.5"/>
</g>
<!-- Node4 -->
<g id="node7" class="node"><title>Node4</title>
<a xlink:href="GUICutRenderWindow_8cpp.xhtml#aeaaae4c8452680389d221d0e60a6fc33" target="_top" xlink:title="Funktion zum verteilten berechnen der 2D&#45;Temperaturverteilung. ">
<polygon fill="none" stroke="black" points="493,-144.5 493,-165.5 569,-165.5 569,-144.5 493,-144.5"/>
<text text-anchor="middle" x="531" y="-152.5" font-family="Helvetica,sans-Serif" font-size="10.00">render_thread</text>
</a>
</g>
<!-- Node3&#45;&gt;Node4 -->
<g id="edge6" class="edge"><title>Node3&#45;&gt;Node4</title>
<path fill="none" stroke="midnightblue" d="M427.335,-122.561C449.728,-129.568 476.641,-137.99 497.432,-144.496"/>
<polygon fill="midnightblue" stroke="midnightblue" points="428.314,-119.2 417.725,-119.553 426.223,-125.88 428.314,-119.2"/>
</g>
<!-- Node7 -->
<g id="node13" class="node"><title>Node7</title>
<a xlink:href="classAnalyzer.xhtml#a8f73ee0aa71ae395a74b43dc76b35458" target="_top" xlink:title="Ermittelt Daten für einen Punkt am aktuell ausgewählten Zeitpunkt. ">
<polygon fill="none" stroke="black" points="472.5,-98.5 472.5,-119.5 589.5,-119.5 589.5,-98.5 472.5,-98.5"/>
<text text-anchor="middle" x="531" y="-106.5" font-family="Helvetica,sans-Serif" font-size="10.00">Analyzer::analyzePoint</text>
</a>
</g>
<!-- Node3&#45;&gt;Node7 -->
<g id="edge12" class="edge"><title>Node3&#45;&gt;Node7</title>
<path fill="none" stroke="midnightblue" d="M446.285,-109C454.951,-109 463.829,-109 472.423,-109"/>
<polygon fill="midnightblue" stroke="midnightblue" points="446.241,-105.5 436.241,-109 446.241,-112.5 446.241,-105.5"/>
</g>
<!-- Node9 -->
<g id="node17" class="node"><title>Node9</title>
<a xlink:href="MeshProcessor_8cpp.xhtml#ad2670c4e8381f9a0a89c65f5559ed421" target="_top" xlink:title="interpolatePoint">
<polygon fill="none" stroke="black" points="489,-55.5 489,-76.5 573,-76.5 573,-55.5 489,-55.5"/>
<text text-anchor="middle" x="531" y="-63.5" font-family="Helvetica,sans-Serif" font-size="10.00">interpolatePoint</text>
</a>
</g>
<!-- Node3&#45;&gt;Node9 -->
<g id="edge16" class="edge"><title>Node3&#45;&gt;Node9</title>
<path fill="none" stroke="midnightblue" d="M429.639,-95.6499C450.644,-89.5054 475.213,-82.3185 494.902,-76.5594"/>
<polygon fill="midnightblue" stroke="midnightblue" points="428.575,-92.3142 419.96,-98.481 430.541,-99.0327 428.575,-92.3142"/>
</g>
<!-- Node5 -->
<g id="node9" class="node"><title>Node5</title>
<a xlink:href="classGUICutRenderWindow.xhtml#a9eedb7088ad31f4680a77ed3a06fa60c" target="_top" xlink:title="Berechnet die 2D&#45;Temperaturverteilung als Grafik. ">
<polygon fill="none" stroke="black" points="631.5,-144 631.5,-178 748.5,-178 748.5,-144 631.5,-144"/>
<text text-anchor="start" x="639.5" y="-165" font-family="Helvetica,sans-Serif" font-size="10.00">GUICutRenderWindow</text>
<text text-anchor="middle" x="690" y="-152" font-family="Helvetica,sans-Serif" font-size="10.00">::renderImage</text>
</a>
</g>
<!-- Node4&#45;&gt;Node5 -->
<g id="edge8" class="edge"><title>Node4&#45;&gt;Node5</title>
<path fill="none" stroke="midnightblue" d="M579.51,-156.831C595.887,-157.449 614.343,-158.145 631.414,-158.789"/>
<polygon fill="midnightblue" stroke="midnightblue" points="579.209,-153.317 569.084,-156.437 578.945,-160.312 579.209,-153.317"/>
</g>
<!-- Node6 -->
<g id="node11" class="node"><title>Node6</title>
<a xlink:href="classGUICutRenderWindow.xhtml#a7cd1bfbec53756a1cbbe1616b4d46c7a" target="_top" xlink:title="Behandelt das Drücken des Buttons zur Berechnung der zweidimensionalen Temperaturverteilung. ">
<polygon fill="none" stroke="black" points="793.5,-144 793.5,-178 910.5,-178 910.5,-144 793.5,-144"/>
<text text-anchor="start" x="801.5" y="-165" font-family="Helvetica,sans-Serif" font-size="10.00">GUICutRenderWindow</text>
<text text-anchor="middle" x="852" y="-152" font-family="Helvetica,sans-Serif" font-size="10.00">::renderCutBtClick</text>
</a>
</g>
<!-- Node5&#45;&gt;Node6 -->
<g id="edge10" class="edge"><title>Node5&#45;&gt;Node6</title>
<path fill="none" stroke="midnightblue" d="M759.263,-161C770.624,-161 782.3,-161 793.371,-161"/>
<polygon fill="midnightblue" stroke="midnightblue" points="758.944,-157.5 748.944,-161 758.944,-164.5 758.944,-157.5"/>
</g>
<!-- Node8 -->
<g id="node15" class="node"><title>Node8</title>
<a xlink:href="classGUIAnalyzePointWindow.xhtml#aa84ea9958e8b41423f01316d01ba5151" target="_top" xlink:title="Event&#45;Tabellendeklaration für wxWidgets. ">
<polygon fill="none" stroke="black" points="626,-92 626,-126 754,-126 754,-92 626,-92"/>
<text text-anchor="start" x="634" y="-113" font-family="Helvetica,sans-Serif" font-size="10.00">GUIAnalyzePointWindow</text>
<text text-anchor="middle" x="690" y="-100" font-family="Helvetica,sans-Serif" font-size="10.00">::analyzePoint</text>
</a>
</g>
<!-- Node7&#45;&gt;Node8 -->
<g id="edge14" class="edge"><title>Node7&#45;&gt;Node8</title>
<path fill="none" stroke="midnightblue" d="M599.811,-109C608.466,-109 617.294,-109 625.874,-109"/>
<polygon fill="midnightblue" stroke="midnightblue" points="599.754,-105.5 589.754,-109 599.754,-112.5 599.754,-105.5"/>
</g>
<!-- Node10 -->
<g id="node19" class="node"><title>Node10</title>
<a xlink:href="classMeshProcessor.xhtml#a060c3815db33f8e52ac620ed2239ccc9" target="_top" xlink:title="Berechnet die Temperaturverteilung für ein Objekt. ">
<polygon fill="none" stroke="black" points="627.5,-52.5 627.5,-73.5 752.5,-73.5 752.5,-52.5 627.5,-52.5"/>
<text text-anchor="middle" x="690" y="-60.5" font-family="Helvetica,sans-Serif" font-size="10.00">MeshProcessor::process</text>
</a>
</g>
<!-- Node9&#45;&gt;Node10 -->
<g id="edge18" class="edge"><title>Node9&#45;&gt;Node10</title>
<path fill="none" stroke="midnightblue" d="M583.595,-65.0076C597.564,-64.7441 612.789,-64.4568 627.241,-64.1841"/>
<polygon fill="midnightblue" stroke="midnightblue" points="583.124,-61.5158 573.192,-65.2039 583.256,-68.5146 583.124,-61.5158"/>
</g>
<!-- Node11 -->
<g id="node21" class="node"><title>Node11</title>
<a xlink:href="classAnalyzer.xhtml#a2a7b5f169f664ccd9f206e508cba78ef" target="_top" xlink:title="Ermittelt Daten für ein Objekt. ">
<polygon fill="none" stroke="black" points="790.5,-72.5 790.5,-93.5 913.5,-93.5 913.5,-72.5 790.5,-72.5"/>
<text text-anchor="middle" x="852" y="-80.5" font-family="Helvetica,sans-Serif" font-size="10.00">Analyzer::analyzeObject</text>
</a>
</g>
<!-- Node10&#45;&gt;Node11 -->
<g id="edge20" class="edge"><title>Node10&#45;&gt;Node11</title>
<path fill="none" stroke="midnightblue" d="M762.6,-71.963C771.86,-73.1062 781.268,-74.2677 790.333,-75.3868"/>
<polygon fill="midnightblue" stroke="midnightblue" points="762.987,-68.4842 752.633,-70.7325 762.129,-75.4315 762.987,-68.4842"/>
</g>
<!-- Node14 -->
<g id="node27" class="node"><title>Node14</title>
<a xlink:href="classObjectData.xhtml#af3a850833d08eb9b45357449f455e24d" target="_top" xlink:title="Zerlegt das Objekt in Tetraeder (Schnittstelle zur Tetgen&#45;Bibliothek) und Berechnet die Temperaturver...">
<polygon fill="none" stroke="black" points="791,-32.5 791,-53.5 913,-53.5 913,-32.5 791,-32.5"/>
<text text-anchor="middle" x="852" y="-40.5" font-family="Helvetica,sans-Serif" font-size="10.00">ObjectData::calculateIO</text>
</a>
</g>
<!-- Node10&#45;&gt;Node14 -->
<g id="edge26" class="edge"><title>Node10&#45;&gt;Node14</title>
<path fill="none" stroke="midnightblue" d="M762.745,-54.0192C772.14,-52.8593 781.684,-51.681 790.866,-50.5474"/>
<polygon fill="midnightblue" stroke="midnightblue" points="762.129,-50.5685 752.633,-55.2675 762.987,-57.5158 762.129,-50.5685"/>
</g>
<!-- Node12 -->
<g id="node23" class="node"><title>Node12</title>
<a xlink:href="classGUIAnalyzeOutputWindow.xhtml#a9ea5a7cf46d6189f368315903508cecc" target="_top" xlink:title="Methode zum aktualisieren des Fensters, alle Objekte werden erneut analysiert und die aktualisierten ...">
<polygon fill="none" stroke="black" points="958,-92 958,-126 1092,-126 1092,-92 958,-92"/>
<text text-anchor="start" x="966" y="-113" font-family="Helvetica,sans-Serif" font-size="10.00">GUIAnalyzeOutputWindow</text>
<text text-anchor="middle" x="1025" y="-100" font-family="Helvetica,sans-Serif" font-size="10.00">::Update</text>
</a>
</g>
<!-- Node11&#45;&gt;Node12 -->
<g id="edge22" class="edge"><title>Node11&#45;&gt;Node12</title>
<path fill="none" stroke="midnightblue" d="M924.127,-93.8399C935.313,-95.5211 946.83,-97.2519 957.9,-98.9156"/>
<polygon fill="midnightblue" stroke="midnightblue" points="924.377,-90.3383 913.968,-92.3132 923.337,-97.2606 924.377,-90.3383"/>
</g>
<!-- Node13 -->
<g id="node25" class="node"><title>Node13</title>
<a xlink:href="classGUITimeline.xhtml#a099f3654aa6e7ea04df861851a0e9ec8" target="_top" xlink:title="Sucht den Zeitpunkt zwischen zwei markierten Stellen auf der Sensordaten&#45;Zeitleiste, für den der Wäremeenergiegehalt maximal wird. ">
<polygon fill="none" stroke="black" points="956.5,-52.5 956.5,-73.5 1093.5,-73.5 1093.5,-52.5 956.5,-52.5"/>
<text text-anchor="middle" x="1025" y="-60.5" font-family="Helvetica,sans-Serif" font-size="10.00">GUITimeline::findMaxValue</text>
</a>
</g>
<!-- Node11&#45;&gt;Node13 -->
<g id="edge24" class="edge"><title>Node11&#45;&gt;Node13</title>
<path fill="none" stroke="midnightblue" d="M924.108,-74.6638C934.804,-73.4273 945.801,-72.1559 956.422,-70.9281"/>
<polygon fill="midnightblue" stroke="midnightblue" points="923.5,-71.2107 913.968,-75.836 924.304,-78.1644 923.5,-71.2107"/>
</g>
<!-- Node14&#45;&gt;Node13 -->
<g id="edge30" class="edge"><title>Node14&#45;&gt;Node13</title>
<path fill="none" stroke="midnightblue" d="M923.714,-51.2906C934.512,-52.539 945.628,-53.824 956.36,-55.0647"/>
<polygon fill="midnightblue" stroke="midnightblue" points="923.816,-47.7792 913.48,-50.1076 923.012,-54.7329 923.816,-47.7792"/>
</g>
<!-- Node15 -->
<g id="node29" class="node"><title>Node15</title>
<a xlink:href="classGUIMainWindow.xhtml#a0c2de30274c7f52ff74ec1217e47a9e5" target="_top" xlink:title="Berechnet die 3D&#45;Temperaturverteilung neu. ">
<polygon fill="none" stroke="black" points="950,-0 950,-34 1100,-34 1100,-0 950,-0"/>
<text text-anchor="start" x="958" y="-21" font-family="Helvetica,sans-Serif" font-size="10.00">GUIMainWindow::OnRecalcBt</text>
<text text-anchor="middle" x="1025" y="-8" font-family="Helvetica,sans-Serif" font-size="10.00">Click</text>
</a>
</g>
<!-- Node14&#45;&gt;Node15 -->
<g id="edge28" class="edge"><title>Node14&#45;&gt;Node15</title>
<path fill="none" stroke="midnightblue" d="M923.534,-32.2492C932.197,-30.9472 941.067,-29.6141 949.782,-28.3044"/>
<polygon fill="midnightblue" stroke="midnightblue" points="922.849,-28.8128 913.48,-33.7602 923.89,-35.735 922.849,-28.8128"/>
</g>
</g>
</svg>
