<?xml version="1.0" encoding="UTF-8" standalone="no"?>
<!DOCTYPE svg PUBLIC "-//W3C//DTD SVG 1.1//EN"
 "http://www.w3.org/Graphics/SVG/1.1/DTD/svg11.dtd">
<!-- Generated by graphviz version 2.26.3 (20100126.1600)
 -->
<!-- Title: tetgenmesh::farsorg Pages: 1 -->
<svg width="1166pt" height="134pt"
 viewBox="0.00 0.00 1166.00 134.00" xmlns="http://www.w3.org/2000/svg" xmlns:xlink="http://www.w3.org/1999/xlink">
<g id="graph1" class="graph" transform="scale(1 1) rotate(0) translate(4 130)">
<title>tetgenmesh::farsorg</title>
<!-- Node1 -->
<g id="node1" class="node"><title>Node1</title>
<polygon fill="#bfbfbf" stroke="black" points="0,-46.5 0,-67.5 104,-67.5 104,-46.5 0,-46.5"/>
<text text-anchor="middle" x="52" y="-54.5" font-family="Helvetica,sans-Serif" font-size="10.00">tetgenmesh::farsorg</text>
</g>
<!-- Node2 -->
<g id="node3" class="node"><title>Node2</title>
<a xlink:href="classtetgenmesh.xhtml#a9d878a0e64588b0471a58e534affea8e" target="_top" xlink:title="tetgenmesh::addsteiner4recoversegment">
<polygon fill="none" stroke="black" points="140,-66.5 140,-87.5 334,-87.5 334,-66.5 140,-66.5"/>
<text text-anchor="middle" x="237" y="-74.5" font-family="Helvetica,sans-Serif" font-size="10.00">tetgenmesh::addsteiner4recoversegment</text>
</a>
</g>
<!-- Node1&#45;&gt;Node2 -->
<g id="edge2" class="edge"><title>Node1&#45;&gt;Node2</title>
<path fill="none" stroke="midnightblue" d="M113.983,-63.7009C122.316,-64.6017 131.02,-65.5427 139.782,-66.4899"/>
<polygon fill="midnightblue" stroke="midnightblue" points="114.343,-60.2195 104.025,-62.6243 113.591,-67.179 114.343,-60.2195"/>
</g>
<!-- Node12 -->
<g id="node23" class="node"><title>Node12</title>
<a xlink:href="classtetgenmesh.xhtml#a38c7fc92a1ced3f4885006837a83c2e6" target="_top" xlink:title="tetgenmesh::recoverfacebyflips">
<polygon fill="none" stroke="black" points="160.5,-26.5 160.5,-47.5 313.5,-47.5 313.5,-26.5 160.5,-26.5"/>
<text text-anchor="middle" x="237" y="-34.5" font-family="Helvetica,sans-Serif" font-size="10.00">tetgenmesh::recoverfacebyflips</text>
</a>
</g>
<!-- Node1&#45;&gt;Node12 -->
<g id="edge22" class="edge"><title>Node1&#45;&gt;Node12</title>
<path fill="none" stroke="midnightblue" d="M114.054,-50.2915C128.841,-48.6929 144.796,-46.968 160.158,-45.3073"/>
<polygon fill="midnightblue" stroke="midnightblue" points="113.591,-46.821 104.025,-51.3757 114.343,-53.7805 113.591,-46.821"/>
</g>
<!-- Node3 -->
<g id="node5" class="node"><title>Node3</title>
<a xlink:href="classtetgenmesh.xhtml#a50e12e269b11573e6e1b91347ad19b37" target="_top" xlink:title="tetgenmesh::recoversegments">
<polygon fill="none" stroke="black" points="370.5,-66.5 370.5,-87.5 519.5,-87.5 519.5,-66.5 370.5,-66.5"/>
<text text-anchor="middle" x="445" y="-74.5" font-family="Helvetica,sans-Serif" font-size="10.00">tetgenmesh::recoversegments</text>
</a>
</g>
<!-- Node2&#45;&gt;Node3 -->
<g id="edge4" class="edge"><title>Node2&#45;&gt;Node3</title>
<path fill="none" stroke="midnightblue" d="M344.574,-77C353.325,-77 362.042,-77 370.478,-77"/>
<polygon fill="midnightblue" stroke="midnightblue" points="344.301,-73.5001 334.301,-77 344.301,-80.5001 344.301,-73.5001"/>
</g>
<!-- Node4 -->
<g id="node7" class="node"><title>Node4</title>
<a xlink:href="classtetgenmesh.xhtml#a1be7dce56688fbe7a97fc31f98b61c19" target="_top" xlink:title="tetgenmesh::recoverboundary">
<polygon fill="none" stroke="black" points="556,-46.5 556,-67.5 702,-67.5 702,-46.5 556,-46.5"/>
<text text-anchor="middle" x="629" y="-54.5" font-family="Helvetica,sans-Serif" font-size="10.00">tetgenmesh::recoverboundary</text>
</a>
</g>
<!-- Node3&#45;&gt;Node4 -->
<g id="edge6" class="edge"><title>Node3&#45;&gt;Node4</title>
<path fill="none" stroke="midnightblue" d="M529.739,-67.7893C538.447,-66.8427 547.243,-65.8866 555.812,-64.9553"/>
<polygon fill="midnightblue" stroke="midnightblue" points="529.138,-64.3339 519.575,-68.8941 529.894,-71.2929 529.138,-64.3339"/>
</g>
<!-- Node5 -->
<g id="node9" class="node"><title>Node5</title>
<a xlink:href="tetgen_8h.xhtml#ad3637eb4ffe7fda90667e67b7771d964" target="_top" xlink:title="tetrahedralize">
<polygon fill="none" stroke="black" points="738.5,-46.5 738.5,-67.5 813.5,-67.5 813.5,-46.5 738.5,-46.5"/>
<text text-anchor="middle" x="776" y="-54.5" font-family="Helvetica,sans-Serif" font-size="10.00">tetrahedralize</text>
</a>
</g>
<!-- Node4&#45;&gt;Node5 -->
<g id="edge8" class="edge"><title>Node4&#45;&gt;Node5</title>
<path fill="none" stroke="midnightblue" d="M712.328,-57C721.365,-57 730.2,-57 738.274,-57"/>
<polygon fill="midnightblue" stroke="midnightblue" points="712.069,-53.5001 702.069,-57 712.069,-60.5001 712.069,-53.5001"/>
</g>
<!-- Node6 -->
<g id="node11" class="node"><title>Node6</title>
<a xlink:href="classGUICutRenderWindow.xhtml#a9eedb7088ad31f4680a77ed3a06fa60c" target="_top" xlink:title="Berechnet die 2D&#45;Temperaturverteilung als Grafik. ">
<polygon fill="none" stroke="black" points="852.5,-89 852.5,-123 969.5,-123 969.5,-89 852.5,-89"/>
<text text-anchor="start" x="860.5" y="-110" font-family="Helvetica,sans-Serif" font-size="10.00">GUICutRenderWindow</text>
<text text-anchor="middle" x="911" y="-97" font-family="Helvetica,sans-Serif" font-size="10.00">::renderImage</text>
</a>
</g>
<!-- Node5&#45;&gt;Node6 -->
<g id="edge10" class="edge"><title>Node5&#45;&gt;Node6</title>
<path fill="none" stroke="midnightblue" d="M814.675,-71.0375C830.063,-76.6228 847.912,-83.1014 864.034,-88.953"/>
<polygon fill="midnightblue" stroke="midnightblue" points="815.555,-67.6336 804.961,-67.5117 813.167,-74.2136 815.555,-67.6336"/>
</g>
<!-- Node8 -->
<g id="node15" class="node"><title>Node8</title>
<a xlink:href="classObjectData.xhtml#af3a850833d08eb9b45357449f455e24d" target="_top" xlink:title="Zerlegt das Objekt in Tetraeder (Schnittstelle zur Tetgen&#45;Bibliothek) und Berechnet die Temperaturver...">
<polygon fill="none" stroke="black" points="850,-46.5 850,-67.5 972,-67.5 972,-46.5 850,-46.5"/>
<text text-anchor="middle" x="911" y="-54.5" font-family="Helvetica,sans-Serif" font-size="10.00">ObjectData::calculateIO</text>
</a>
</g>
<!-- Node5&#45;&gt;Node8 -->
<g id="edge14" class="edge"><title>Node5&#45;&gt;Node8</title>
<path fill="none" stroke="midnightblue" d="M823.654,-57C832.112,-57 841.025,-57 849.795,-57"/>
<polygon fill="midnightblue" stroke="midnightblue" points="823.605,-53.5001 813.605,-57 823.605,-60.5001 823.605,-53.5001"/>
</g>
<!-- Node11 -->
<g id="node21" class="node"><title>Node11</title>
<a xlink:href="tetgen_8cxx.xhtml#a0ddf1224851353fc92bfbff6f499fa97" target="_top" xlink:title="main">
<polygon fill="none" stroke="black" points="892,-6.5 892,-27.5 930,-27.5 930,-6.5 892,-6.5"/>
<text text-anchor="middle" x="911" y="-14.5" font-family="Helvetica,sans-Serif" font-size="10.00">main</text>
</a>
</g>
<!-- Node5&#45;&gt;Node11 -->
<g id="edge20" class="edge"><title>Node5&#45;&gt;Node11</title>
<path fill="none" stroke="midnightblue" d="M821.154,-43.6209C845.267,-36.4764 873.668,-28.0613 891.984,-22.6343"/>
<polygon fill="midnightblue" stroke="midnightblue" points="820.063,-40.2937 811.47,-46.4905 822.052,-47.0053 820.063,-40.2937"/>
</g>
<!-- Node7 -->
<g id="node13" class="node"><title>Node7</title>
<a xlink:href="classGUICutRenderWindow.xhtml#a7cd1bfbec53756a1cbbe1616b4d46c7a" target="_top" xlink:title="Behandelt das Drücken des Buttons zur Berechnung der zweidimensionalen Temperaturverteilung. ">
<polygon fill="none" stroke="black" points="1024.5,-92 1024.5,-126 1141.5,-126 1141.5,-92 1024.5,-92"/>
<text text-anchor="start" x="1032.5" y="-113" font-family="Helvetica,sans-Serif" font-size="10.00">GUICutRenderWindow</text>
<text text-anchor="middle" x="1083" y="-100" font-family="Helvetica,sans-Serif" font-size="10.00">::renderCutBtClick</text>
</a>
</g>
<!-- Node6&#45;&gt;Node7 -->
<g id="edge12" class="edge"><title>Node6&#45;&gt;Node7</title>
<path fill="none" stroke="midnightblue" d="M979.777,-107.2C994.511,-107.457 1009.95,-107.726 1024.26,-107.975"/>
<polygon fill="midnightblue" stroke="midnightblue" points="979.771,-103.699 969.712,-107.024 979.649,-110.698 979.771,-103.699"/>
</g>
<!-- Node9 -->
<g id="node17" class="node"><title>Node9</title>
<a xlink:href="classGUIMainWindow.xhtml#a0c2de30274c7f52ff74ec1217e47a9e5" target="_top" xlink:title="Berechnet die 3D&#45;Temperaturverteilung neu. ">
<polygon fill="none" stroke="black" points="1008,-40 1008,-74 1158,-74 1158,-40 1008,-40"/>
<text text-anchor="start" x="1016" y="-61" font-family="Helvetica,sans-Serif" font-size="10.00">GUIMainWindow::OnRecalcBt</text>
<text text-anchor="middle" x="1083" y="-48" font-family="Helvetica,sans-Serif" font-size="10.00">Click</text>
</a>
</g>
<!-- Node8&#45;&gt;Node9 -->
<g id="edge16" class="edge"><title>Node8&#45;&gt;Node9</title>
<path fill="none" stroke="midnightblue" d="M982.316,-57C990.768,-57 999.415,-57 1007.92,-57"/>
<polygon fill="midnightblue" stroke="midnightblue" points="982.125,-53.5001 972.125,-57 982.125,-60.5001 982.125,-53.5001"/>
</g>
<!-- Node10 -->
<g id="node19" class="node"><title>Node10</title>
<a xlink:href="classGUITimeline.xhtml#a099f3654aa6e7ea04df861851a0e9ec8" target="_top" xlink:title="Sucht den Zeitpunkt zwischen zwei markierten Stellen auf der Sensordaten&#45;Zeitleiste, für den der Wäremeenergiegehalt maximal wird. ">
<polygon fill="none" stroke="black" points="1014.5,-0.5 1014.5,-21.5 1151.5,-21.5 1151.5,-0.5 1014.5,-0.5"/>
<text text-anchor="middle" x="1083" y="-8.5" font-family="Helvetica,sans-Serif" font-size="10.00">GUITimeline::findMaxValue</text>
</a>
</g>
<!-- Node8&#45;&gt;Node10 -->
<g id="edge18" class="edge"><title>Node8&#45;&gt;Node10</title>
<path fill="none" stroke="midnightblue" d="M959.997,-43.8537C975.363,-39.7343 992.387,-35.1741 1008,-31 1019.46,-27.9371 1031.9,-24.6167 1043.3,-21.5777"/>
<polygon fill="midnightblue" stroke="midnightblue" points="958.923,-40.5181 950.17,-46.4885 960.735,-47.2793 958.923,-40.5181"/>
</g>
<!-- Node13 -->
<g id="node25" class="node"><title>Node13</title>
<a xlink:href="classtetgenmesh.xhtml#ace09080e4f274e0a48cd1728475878c9" target="_top" xlink:title="tetgenmesh::recoversubfaces">
<polygon fill="none" stroke="black" points="372,-26.5 372,-47.5 518,-47.5 518,-26.5 372,-26.5"/>
<text text-anchor="middle" x="445" y="-34.5" font-family="Helvetica,sans-Serif" font-size="10.00">tetgenmesh::recoversubfaces</text>
</a>
</g>
<!-- Node12&#45;&gt;Node13 -->
<g id="edge24" class="edge"><title>Node12&#45;&gt;Node13</title>
<path fill="none" stroke="midnightblue" d="M323.917,-37C339.814,-37 356.259,-37 371.71,-37"/>
<polygon fill="midnightblue" stroke="midnightblue" points="323.565,-33.5001 313.565,-37 323.565,-40.5001 323.565,-33.5001"/>
</g>
<!-- Node13&#45;&gt;Node4 -->
<g id="edge26" class="edge"><title>Node13&#45;&gt;Node4</title>
<path fill="none" stroke="midnightblue" d="M528.448,-46.0705C537.54,-47.0587 546.744,-48.0591 555.701,-49.0327"/>
<polygon fill="midnightblue" stroke="midnightblue" points="528.57,-42.5632 518.25,-44.962 527.814,-49.5222 528.57,-42.5632"/>
</g>
</g>
</svg>
