<?xml version="1.0" encoding="UTF-8" standalone="no"?>
<!DOCTYPE svg PUBLIC "-//W3C//DTD SVG 1.1//EN"
 "http://www.w3.org/Graphics/SVG/1.1/DTD/svg11.dtd">
<!-- Generated by graphviz version 2.26.3 (20100126.1600)
 -->
<!-- Title: tetgenio::init Pages: 1 -->
<svg width="444pt" height="230pt"
 viewBox="0.00 0.00 444.00 230.00" xmlns="http://www.w3.org/2000/svg" xmlns:xlink="http://www.w3.org/1999/xlink">
<g id="graph1" class="graph" transform="scale(1 1) rotate(0) translate(4 226)">
<title>tetgenio::init</title>
<!-- Node1 -->
<g id="node1" class="node"><title>Node1</title>
<polygon fill="#bfbfbf" stroke="black" points="0,-100.5 0,-121.5 70,-121.5 70,-100.5 0,-100.5"/>
<text text-anchor="middle" x="35" y="-108.5" font-family="Helvetica,sans-Serif" font-size="10.00">tetgenio::init</text>
</g>
<!-- Node2 -->
<g id="node3" class="node"><title>Node2</title>
<a xlink:href="classtetgenio.xhtml#a88658f64d725eb11ff33e7104e14561b" target="_top" xlink:title="tetgenio::load_poly">
<polygon fill="none" stroke="black" points="109,-200.5 109,-221.5 207,-221.5 207,-200.5 109,-200.5"/>
<text text-anchor="middle" x="158" y="-208.5" font-family="Helvetica,sans-Serif" font-size="10.00">tetgenio::load_poly</text>
</a>
</g>
<!-- Node1&#45;&gt;Node2 -->
<g id="edge2" class="edge"><title>Node1&#45;&gt;Node2</title>
<path fill="none" stroke="midnightblue" d="M47.7589,-130.004C60.6164,-147.885 81.9553,-174.336 106,-191 111.326,-194.692 117.427,-197.821 123.531,-200.429"/>
<polygon fill="midnightblue" stroke="midnightblue" points="50.4356,-127.724 41.8389,-121.532 44.6976,-131.734 50.4356,-127.724"/>
</g>
<!-- Node5 -->
<g id="node9" class="node"><title>Node5</title>
<a xlink:href="classtetgenio.xhtml#a71c8e637cb420c3a87b648405df47abd" target="_top" xlink:title="tetgenio::load_off">
<polygon fill="none" stroke="black" points="112,-160.5 112,-181.5 204,-181.5 204,-160.5 112,-160.5"/>
<text text-anchor="middle" x="158" y="-168.5" font-family="Helvetica,sans-Serif" font-size="10.00">tetgenio::load_off</text>
</a>
</g>
<!-- Node1&#45;&gt;Node5 -->
<g id="edge8" class="edge"><title>Node1&#45;&gt;Node5</title>
<path fill="none" stroke="midnightblue" d="M60.7363,-126.7C74.0108,-134.487 90.6084,-143.752 106,-151 113.088,-154.338 120.897,-157.566 128.26,-160.419"/>
<polygon fill="midnightblue" stroke="midnightblue" points="62.5175,-123.687 52.1328,-121.587 58.9416,-129.705 62.5175,-123.687"/>
</g>
<!-- Node6 -->
<g id="node12" class="node"><title>Node6</title>
<a xlink:href="classtetgenio.xhtml#a9b2764289916b479bda5f78b7e6189dc" target="_top" xlink:title="tetgenio::load_ply">
<polygon fill="none" stroke="black" points="111.5,-120.5 111.5,-141.5 204.5,-141.5 204.5,-120.5 111.5,-120.5"/>
<text text-anchor="middle" x="158" y="-128.5" font-family="Helvetica,sans-Serif" font-size="10.00">tetgenio::load_ply</text>
</a>
</g>
<!-- Node1&#45;&gt;Node6 -->
<g id="edge12" class="edge"><title>Node1&#45;&gt;Node6</title>
<path fill="none" stroke="midnightblue" d="M80.1342,-118.339C90.2804,-119.989 101.067,-121.743 111.277,-123.403"/>
<polygon fill="midnightblue" stroke="midnightblue" points="80.679,-114.882 70.2469,-116.731 79.5555,-121.791 80.679,-114.882"/>
</g>
<!-- Node7 -->
<g id="node15" class="node"><title>Node7</title>
<a xlink:href="classtetgenio.xhtml#a90b035937bf1ff57597f7ba8ecf3d21f" target="_top" xlink:title="tetgenio::load_stl">
<polygon fill="none" stroke="black" points="112.5,-80.5 112.5,-101.5 203.5,-101.5 203.5,-80.5 112.5,-80.5"/>
<text text-anchor="middle" x="158" y="-88.5" font-family="Helvetica,sans-Serif" font-size="10.00">tetgenio::load_stl</text>
</a>
</g>
<!-- Node1&#45;&gt;Node7 -->
<g id="edge16" class="edge"><title>Node1&#45;&gt;Node7</title>
<path fill="none" stroke="midnightblue" d="M80.3598,-103.624C90.7411,-101.936 101.783,-100.141 112.183,-98.4499"/>
<polygon fill="midnightblue" stroke="midnightblue" points="79.5555,-100.209 70.2469,-105.269 80.679,-107.118 79.5555,-100.209"/>
</g>
<!-- Node8 -->
<g id="node18" class="node"><title>Node8</title>
<a xlink:href="classtetgenio.xhtml#a5008aeef714575c2cd9c74da1354b962" target="_top" xlink:title="tetgenio::load_medit">
<polygon fill="none" stroke="black" points="106,-0.5 106,-21.5 210,-21.5 210,-0.5 106,-0.5"/>
<text text-anchor="middle" x="158" y="-8.5" font-family="Helvetica,sans-Serif" font-size="10.00">tetgenio::load_medit</text>
</a>
</g>
<!-- Node1&#45;&gt;Node8 -->
<g id="edge20" class="edge"><title>Node1&#45;&gt;Node8</title>
<path fill="none" stroke="midnightblue" d="M47.7589,-91.996C60.6164,-74.1147 81.9553,-47.6644 106,-31 111.326,-27.3085 117.427,-24.1793 123.531,-21.571"/>
<polygon fill="midnightblue" stroke="midnightblue" points="44.6976,-90.2665 41.8389,-100.468 50.4356,-94.2759 44.6976,-90.2665"/>
</g>
<!-- Node10 -->
<g id="node24" class="node"><title>Node10</title>
<a xlink:href="classtetgenio.xhtml#a566bcdee657ea1ca15a64bcb2acd4231" target="_top" xlink:title="tetgenio::load_vtk">
<polygon fill="none" stroke="black" points="111,-40.5 111,-61.5 205,-61.5 205,-40.5 111,-40.5"/>
<text text-anchor="middle" x="158" y="-48.5" font-family="Helvetica,sans-Serif" font-size="10.00">tetgenio::load_vtk</text>
</a>
</g>
<!-- Node1&#45;&gt;Node10 -->
<g id="edge28" class="edge"><title>Node1&#45;&gt;Node10</title>
<path fill="none" stroke="midnightblue" d="M60.7363,-95.3002C74.0108,-87.5128 90.6084,-78.2483 106,-71 113.088,-67.6621 120.897,-64.4342 128.26,-61.5808"/>
<polygon fill="midnightblue" stroke="midnightblue" points="58.9416,-92.2953 52.1328,-100.413 62.5175,-98.313 58.9416,-92.2953"/>
</g>
<!-- Node3 -->
<g id="node5" class="node"><title>Node3</title>
<a xlink:href="classtetgenio.xhtml#ac47582d8d9a09f1d8d32221527a0aa7b" target="_top" xlink:title="tetgenio::load_plc">
<polygon fill="none" stroke="black" points="257.5,-80.5 257.5,-101.5 350.5,-101.5 350.5,-80.5 257.5,-80.5"/>
<text text-anchor="middle" x="304" y="-88.5" font-family="Helvetica,sans-Serif" font-size="10.00">tetgenio::load_plc</text>
</a>
</g>
<!-- Node2&#45;&gt;Node3 -->
<g id="edge4" class="edge"><title>Node2&#45;&gt;Node3</title>
<path fill="none" stroke="midnightblue" d="M201.334,-196.103C204.349,-194.534 207.271,-192.834 210,-191 248.167,-165.348 282.213,-121.537 296.658,-101.527"/>
<polygon fill="midnightblue" stroke="midnightblue" points="199.684,-193.011 192.11,-200.42 202.651,-199.351 199.684,-193.011"/>
</g>
<!-- Node4 -->
<g id="node7" class="node"><title>Node4</title>
<a xlink:href="tetgen_8cxx.xhtml#a0ddf1224851353fc92bfbff6f499fa97" target="_top" xlink:title="main">
<polygon fill="none" stroke="black" points="398,-50.5 398,-71.5 436,-71.5 436,-50.5 398,-50.5"/>
<text text-anchor="middle" x="417" y="-58.5" font-family="Helvetica,sans-Serif" font-size="10.00">main</text>
</a>
</g>
<!-- Node3&#45;&gt;Node4 -->
<g id="edge6" class="edge"><title>Node3&#45;&gt;Node4</title>
<path fill="none" stroke="midnightblue" d="M353.902,-77.7516C369.439,-73.6268 385.651,-69.3227 397.751,-66.1103"/>
<polygon fill="midnightblue" stroke="midnightblue" points="352.607,-74.4743 343.84,-80.4231 354.403,-81.2399 352.607,-74.4743"/>
</g>
<!-- Node5&#45;&gt;Node3 -->
<g id="edge10" class="edge"><title>Node5&#45;&gt;Node3</title>
<path fill="none" stroke="midnightblue" d="M197.982,-156.568C202.092,-154.805 206.163,-152.938 210,-151 239.552,-136.076 271.566,-114.319 289.567,-101.516"/>
<polygon fill="midnightblue" stroke="midnightblue" points="196.35,-153.454 188.418,-160.478 198.999,-159.934 196.35,-153.454"/>
</g>
<!-- Node6&#45;&gt;Node3 -->
<g id="edge14" class="edge"><title>Node6&#45;&gt;Node3</title>
<path fill="none" stroke="midnightblue" d="M206.186,-117.798C225.498,-112.507 247.441,-106.496 265.643,-101.509"/>
<polygon fill="midnightblue" stroke="midnightblue" points="205.08,-114.472 196.36,-120.49 206.929,-121.224 205.08,-114.472"/>
</g>
<!-- Node7&#45;&gt;Node3 -->
<g id="edge18" class="edge"><title>Node7&#45;&gt;Node3</title>
<path fill="none" stroke="midnightblue" d="M214.022,-91C228.337,-91 243.574,-91 257.362,-91"/>
<polygon fill="midnightblue" stroke="midnightblue" points="213.795,-87.5001 203.795,-91 213.795,-94.5001 213.795,-87.5001"/>
</g>
<!-- Node8&#45;&gt;Node3 -->
<g id="edge22" class="edge"><title>Node8&#45;&gt;Node3</title>
<path fill="none" stroke="midnightblue" d="M197.982,-25.4315C202.092,-27.1949 206.163,-29.0625 210,-31 239.552,-45.9238 271.566,-67.6813 289.567,-80.4843"/>
<polygon fill="midnightblue" stroke="midnightblue" points="198.999,-22.0661 188.418,-21.5218 196.35,-28.5456 198.999,-22.0661"/>
</g>
<!-- Node9 -->
<g id="node21" class="node"><title>Node9</title>
<a xlink:href="classtetgenio.xhtml#ae7f0c3300cec04c22b7659b27c5e3dae" target="_top" xlink:title="tetgenio::load_tetmesh">
<polygon fill="none" stroke="black" points="246,-20.5 246,-41.5 362,-41.5 362,-20.5 246,-20.5"/>
<text text-anchor="middle" x="304" y="-28.5" font-family="Helvetica,sans-Serif" font-size="10.00">tetgenio::load_tetmesh</text>
</a>
</g>
<!-- Node8&#45;&gt;Node9 -->
<g id="edge24" class="edge"><title>Node8&#45;&gt;Node9</title>
<path fill="none" stroke="midnightblue" d="M220.459,-19.556C228.894,-20.7115 237.52,-21.8932 245.875,-23.0377"/>
<polygon fill="midnightblue" stroke="midnightblue" points="220.679,-16.0536 210.297,-18.164 219.729,-22.9889 220.679,-16.0536"/>
</g>
<!-- Node9&#45;&gt;Node4 -->
<g id="edge26" class="edge"><title>Node9&#45;&gt;Node4</title>
<path fill="none" stroke="midnightblue" d="M353.902,-44.2484C369.439,-48.3732 385.651,-52.6773 397.751,-55.8897"/>
<polygon fill="midnightblue" stroke="midnightblue" points="354.403,-40.7601 343.84,-41.5769 352.607,-47.5257 354.403,-40.7601"/>
</g>
<!-- Node10&#45;&gt;Node3 -->
<g id="edge30" class="edge"><title>Node10&#45;&gt;Node3</title>
<path fill="none" stroke="midnightblue" d="M206.186,-64.2015C225.498,-69.4927 247.441,-75.5045 265.643,-80.4913"/>
<polygon fill="midnightblue" stroke="midnightblue" points="206.929,-60.7763 196.36,-61.5095 205.08,-67.5276 206.929,-60.7763"/>
</g>
</g>
</svg>
