<?xml version="1.0" encoding="UTF-8" standalone="no"?>
<!DOCTYPE svg PUBLIC "-//W3C//DTD SVG 1.1//EN"
 "http://www.w3.org/Graphics/SVG/1.1/DTD/svg11.dtd">
<!-- Generated by graphviz version 2.26.3 (20100126.1600)
 -->
<!-- Title: tetgenmesh::outneighbors Pages: 1 -->
<svg width="496pt" height="242pt"
 viewBox="0.00 0.00 496.00 242.00" xmlns="http://www.w3.org/2000/svg" xmlns:xlink="http://www.w3.org/1999/xlink">
<g id="graph1" class="graph" transform="scale(1 1) rotate(0) translate(4 238)">
<title>tetgenmesh::outneighbors</title>
<!-- Node1 -->
<g id="node1" class="node"><title>Node1</title>
<polygon fill="#bfbfbf" stroke="black" points="0.5,-100.5 0.5,-121.5 129.5,-121.5 129.5,-100.5 0.5,-100.5"/>
<text text-anchor="middle" x="65" y="-108.5" font-family="Helvetica,sans-Serif" font-size="10.00">tetgenmesh::outneighbors</text>
</g>
<!-- Node2 -->
<g id="node3" class="node"><title>Node2</title>
<a xlink:href="tetgen_8h.xhtml#a4012bf160c63ec4ff007f6645b993ca5" target="_top" xlink:title="terminatetetgen">
<polygon fill="none" stroke="black" points="203,-212.5 203,-233.5 287,-233.5 287,-212.5 203,-212.5"/>
<text text-anchor="middle" x="245" y="-220.5" font-family="Helvetica,sans-Serif" font-size="10.00">terminatetetgen</text>
</a>
</g>
<!-- Node1&#45;&gt;Node2 -->
<g id="edge2" class="edge"><title>Node1&#45;&gt;Node2</title>
<path fill="none" stroke="midnightblue" d="M73.5106,-121.632C89.5161,-140.892 126.1,-181.544 166,-203 174.416,-207.525 183.89,-211.055 193.278,-213.799"/>
<polygon fill="midnightblue" stroke="midnightblue" points="192.418,-217.192 202.982,-216.384 194.219,-210.428 192.418,-217.192"/>
</g>
<!-- Node4 -->
<g id="node7" class="node"><title>Node4</title>
<a xlink:href="classtetgenmesh_1_1memorypool.xhtml#a623b101e4e2f249d8b7e5dba65c3f7e2" target="_top" xlink:title="tetgenmesh::memorypool\l::traversalinit">
<polygon fill="none" stroke="black" points="181.5,-160 181.5,-194 308.5,-194 308.5,-160 181.5,-160"/>
<text text-anchor="start" x="189.5" y="-181" font-family="Helvetica,sans-Serif" font-size="10.00">tetgenmesh::memorypool</text>
<text text-anchor="middle" x="245" y="-168" font-family="Helvetica,sans-Serif" font-size="10.00">::traversalinit</text>
</a>
</g>
<!-- Node1&#45;&gt;Node4 -->
<g id="edge6" class="edge"><title>Node1&#45;&gt;Node4</title>
<path fill="none" stroke="midnightblue" d="M90.578,-121.615C110.901,-129.931 140.111,-141.622 166,-151 171.176,-152.875 176.562,-154.768 181.981,-156.632"/>
<polygon fill="midnightblue" stroke="midnightblue" points="181.139,-160.042 191.734,-159.946 183.392,-153.415 181.139,-160.042"/>
</g>
<!-- Node5 -->
<g id="node9" class="node"><title>Node5</title>
<a xlink:href="classtetgenmesh.xhtml#a11da430cc44475b41fdbfc80de511192" target="_top" xlink:title="tetgenmesh::tetrahedrontraverse">
<polygon fill="none" stroke="black" points="166,-120.5 166,-141.5 324,-141.5 324,-120.5 166,-120.5"/>
<text text-anchor="middle" x="245" y="-128.5" font-family="Helvetica,sans-Serif" font-size="10.00">tetgenmesh::tetrahedrontraverse</text>
</a>
</g>
<!-- Node1&#45;&gt;Node5 -->
<g id="edge8" class="edge"><title>Node1&#45;&gt;Node5</title>
<path fill="none" stroke="midnightblue" d="M129.73,-118.192C138.133,-119.126 146.856,-120.095 155.572,-121.064"/>
<polygon fill="midnightblue" stroke="midnightblue" points="155.456,-124.572 165.781,-122.198 156.229,-117.615 155.456,-124.572"/>
</g>
<!-- Node7 -->
<g id="node13" class="node"><title>Node7</title>
<a xlink:href="classtetgenmesh.xhtml#ab53db19d6ec094dfcd35dcfc02270d72" target="_top" xlink:title="tetgenmesh::fsym">
<polygon fill="none" stroke="black" points="197.5,-80.5 197.5,-101.5 292.5,-101.5 292.5,-80.5 197.5,-80.5"/>
<text text-anchor="middle" x="245" y="-88.5" font-family="Helvetica,sans-Serif" font-size="10.00">tetgenmesh::fsym</text>
</a>
</g>
<!-- Node1&#45;&gt;Node7 -->
<g id="edge12" class="edge"><title>Node1&#45;&gt;Node7</title>
<path fill="none" stroke="midnightblue" d="M129.73,-103.808C148.609,-101.71 169.102,-99.4331 187.502,-97.3886"/>
<polygon fill="midnightblue" stroke="midnightblue" points="187.933,-100.862 197.485,-96.2794 187.16,-93.9052 187.933,-100.862"/>
</g>
<!-- Node9 -->
<g id="node17" class="node"><title>Node9</title>
<a xlink:href="classtetgenmesh.xhtml#aa14f996a69b46afb1429ebf35a6e881c" target="_top" xlink:title="tetgenmesh::ishulltet">
<polygon fill="none" stroke="black" points="191.5,-40.5 191.5,-61.5 298.5,-61.5 298.5,-40.5 191.5,-40.5"/>
<text text-anchor="middle" x="245" y="-48.5" font-family="Helvetica,sans-Serif" font-size="10.00">tetgenmesh::ishulltet</text>
</a>
</g>
<!-- Node1&#45;&gt;Node9 -->
<g id="edge16" class="edge"><title>Node1&#45;&gt;Node9</title>
<path fill="none" stroke="midnightblue" d="M89.1696,-100.406C109.432,-91.7729 139.26,-79.6399 166,-71 173.478,-68.5838 181.43,-66.2745 189.299,-64.1395"/>
<polygon fill="midnightblue" stroke="midnightblue" points="190.402,-67.4682 199.179,-61.5334 188.617,-60.6997 190.402,-67.4682"/>
</g>
<!-- Node10 -->
<g id="node19" class="node"><title>Node10</title>
<a xlink:href="classtetgenmesh.xhtml#a0a12e21d9d363bc5aef59c1b1e51e5f2" target="_top" xlink:title="tetgenmesh::elemindex">
<polygon fill="none" stroke="black" points="186,-0.5 186,-21.5 304,-21.5 304,-0.5 186,-0.5"/>
<text text-anchor="middle" x="245" y="-8.5" font-family="Helvetica,sans-Serif" font-size="10.00">tetgenmesh::elemindex</text>
</a>
</g>
<!-- Node1&#45;&gt;Node10 -->
<g id="edge18" class="edge"><title>Node1&#45;&gt;Node10</title>
<path fill="none" stroke="midnightblue" d="M75.1582,-100.461C92.2837,-83.3108 128.699,-49.4308 166,-31 170.638,-28.7085 175.562,-26.6636 180.597,-24.8416"/>
<polygon fill="midnightblue" stroke="midnightblue" points="181.975,-28.0722 190.368,-21.6063 179.775,-21.427 181.975,-28.0722"/>
</g>
<!-- Node3 -->
<g id="node5" class="node"><title>Node3</title>
<a xlink:href="classtetgenmesh.xhtml#ade805f03ec7ca1b4623c8148fb915278" target="_top" xlink:title="tetgenmesh::freememory">
<polygon fill="none" stroke="black" points="361.5,-212.5 361.5,-233.5 486.5,-233.5 486.5,-212.5 361.5,-212.5"/>
<text text-anchor="middle" x="424" y="-220.5" font-family="Helvetica,sans-Serif" font-size="10.00">tetgenmesh::freememory</text>
</a>
</g>
<!-- Node2&#45;&gt;Node3 -->
<g id="edge4" class="edge"><title>Node2&#45;&gt;Node3</title>
<path fill="none" stroke="midnightblue" d="M287.421,-223C306.431,-223 329.402,-223 351.038,-223"/>
<polygon fill="midnightblue" stroke="midnightblue" points="351.196,-226.5 361.196,-223 351.196,-219.5 351.196,-226.5"/>
</g>
<!-- Node6 -->
<g id="node11" class="node"><title>Node6</title>
<a xlink:href="classtetgenmesh_1_1memorypool.xhtml#a151fe73459d0fa9a7262d0030fecf291" target="_top" xlink:title="tetgenmesh::memorypool\l::traverse">
<polygon fill="none" stroke="black" points="360.5,-117 360.5,-151 487.5,-151 487.5,-117 360.5,-117"/>
<text text-anchor="start" x="368.5" y="-138" font-family="Helvetica,sans-Serif" font-size="10.00">tetgenmesh::memorypool</text>
<text text-anchor="middle" x="424" y="-125" font-family="Helvetica,sans-Serif" font-size="10.00">::traverse</text>
</a>
</g>
<!-- Node5&#45;&gt;Node6 -->
<g id="edge10" class="edge"><title>Node5&#45;&gt;Node6</title>
<path fill="none" stroke="midnightblue" d="M324.033,-132.325C332.784,-132.471 341.67,-132.62 350.351,-132.766"/>
<polygon fill="midnightblue" stroke="midnightblue" points="350.369,-136.266 360.427,-132.935 350.487,-129.267 350.369,-136.266"/>
</g>
<!-- Node8 -->
<g id="node15" class="node"><title>Node8</title>
<a xlink:href="classtetgenmesh.xhtml#a809cfdec35ae9a52670e045823a302c0" target="_top" xlink:title="tetgenmesh::decode">
<polygon fill="none" stroke="black" points="371.5,-77.5 371.5,-98.5 476.5,-98.5 476.5,-77.5 371.5,-77.5"/>
<text text-anchor="middle" x="424" y="-85.5" font-family="Helvetica,sans-Serif" font-size="10.00">tetgenmesh::decode</text>
</a>
</g>
<!-- Node7&#45;&gt;Node8 -->
<g id="edge14" class="edge"><title>Node7&#45;&gt;Node8</title>
<path fill="none" stroke="midnightblue" d="M292.969,-90.1961C313.983,-89.8439 338.922,-89.4259 361.374,-89.0496"/>
<polygon fill="midnightblue" stroke="midnightblue" points="361.552,-92.5472 371.492,-88.88 361.435,-85.5482 361.552,-92.5472"/>
</g>
</g>
</svg>
