<?xml version="1.0" encoding="UTF-8" standalone="no"?>
<!DOCTYPE svg PUBLIC "-//W3C//DTD SVG 1.1//EN"
 "http://www.w3.org/Graphics/SVG/1.1/DTD/svg11.dtd">
<!-- Generated by graphviz version 2.26.3 (20100126.1600)
 -->
<!-- Title: tetgenmesh::setsapex Pages: 1 -->
<svg width="1446pt" height="134pt"
 viewBox="0.00 0.00 1446.00 134.00" xmlns="http://www.w3.org/2000/svg" xmlns:xlink="http://www.w3.org/1999/xlink">
<g id="graph1" class="graph" transform="scale(1 1) rotate(0) translate(4 130)">
<title>tetgenmesh::setsapex</title>
<!-- Node1 -->
<g id="node1" class="node"><title>Node1</title>
<polygon fill="#bfbfbf" stroke="black" points="0.5,-26.5 0.5,-47.5 113.5,-47.5 113.5,-26.5 0.5,-26.5"/>
<text text-anchor="middle" x="57" y="-34.5" font-family="Helvetica,sans-Serif" font-size="10.00">tetgenmesh::setsapex</text>
</g>
<!-- Node2 -->
<g id="node3" class="node"><title>Node2</title>
<a xlink:href="classtetgenmesh.xhtml#a7bbebc8419ee43b912236c4ba7f69ba7" target="_top" xlink:title="tetgenmesh::fillcavity">
<polygon fill="none" stroke="black" points="150,-46.5 150,-67.5 260,-67.5 260,-46.5 150,-46.5"/>
<text text-anchor="middle" x="205" y="-54.5" font-family="Helvetica,sans-Serif" font-size="10.00">tetgenmesh::fillcavity</text>
</a>
</g>
<!-- Node1&#45;&gt;Node2 -->
<g id="edge2" class="edge"><title>Node1&#45;&gt;Node2</title>
<path fill="none" stroke="midnightblue" d="M123.819,-46.0295C132.43,-47.1933 141.173,-48.3748 149.575,-49.5101"/>
<polygon fill="midnightblue" stroke="midnightblue" points="124.176,-42.5461 113.797,-44.6753 123.239,-49.4831 124.176,-42.5461"/>
</g>
<!-- Node14 -->
<g id="node28" class="node"><title>Node14</title>
<a xlink:href="classtetgenmesh.xhtml#ad34c3db4b465048cf061a3e2ae2ba34e" target="_top" xlink:title="tetgenmesh::fillregion">
<polygon fill="none" stroke="black" points="310,-7.5 310,-28.5 420,-28.5 420,-7.5 310,-7.5"/>
<text text-anchor="middle" x="365" y="-15.5" font-family="Helvetica,sans-Serif" font-size="10.00">tetgenmesh::fillregion</text>
</a>
</g>
<!-- Node1&#45;&gt;Node14 -->
<g id="edge28" class="edge"><title>Node1&#45;&gt;Node14</title>
<path fill="none" stroke="midnightblue" d="M123.959,-32.8694C179.562,-29.4394 257.703,-24.6189 309.776,-21.4066"/>
<polygon fill="midnightblue" stroke="midnightblue" points="123.616,-29.3838 113.851,-33.493 124.047,-36.3705 123.616,-29.3838"/>
</g>
<!-- Node3 -->
<g id="node5" class="node"><title>Node3</title>
<a xlink:href="classtetgenmesh.xhtml#a9c967ef25cfd6e06d6b9301302be3f70" target="_top" xlink:title="tetgenmesh::insertpoint_cdt">
<polygon fill="none" stroke="black" points="296.5,-85.5 296.5,-106.5 433.5,-106.5 433.5,-85.5 296.5,-85.5"/>
<text text-anchor="middle" x="365" y="-93.5" font-family="Helvetica,sans-Serif" font-size="10.00">tetgenmesh::insertpoint_cdt</text>
</a>
</g>
<!-- Node2&#45;&gt;Node3 -->
<g id="edge4" class="edge"><title>Node2&#45;&gt;Node3</title>
<path fill="none" stroke="midnightblue" d="M258.175,-69.9615C278.792,-74.9869 302.097,-80.6675 321.667,-85.4376"/>
<polygon fill="midnightblue" stroke="midnightblue" points="258.843,-66.5218 248.298,-67.554 257.185,-73.3226 258.843,-66.5218"/>
</g>
<!-- Node5 -->
<g id="node9" class="node"><title>Node5</title>
<a xlink:href="classtetgenmesh.xhtml#a7579c3a44a54712623d9f9e5fc1dfbdc" target="_top" xlink:title="tetgenmesh::constrainedfacets">
<polygon fill="none" stroke="black" points="630.5,-46.5 630.5,-67.5 781.5,-67.5 781.5,-46.5 630.5,-46.5"/>
<text text-anchor="middle" x="706" y="-54.5" font-family="Helvetica,sans-Serif" font-size="10.00">tetgenmesh::constrainedfacets</text>
</a>
</g>
<!-- Node2&#45;&gt;Node5 -->
<g id="edge26" class="edge"><title>Node2&#45;&gt;Node5</title>
<path fill="none" stroke="midnightblue" d="M270.128,-57C362.695,-57 531.944,-57 630.083,-57"/>
<polygon fill="midnightblue" stroke="midnightblue" points="270.049,-53.5001 260.049,-57 270.049,-60.5001 270.049,-53.5001"/>
</g>
<!-- Node4 -->
<g id="node7" class="node"><title>Node4</title>
<a xlink:href="classtetgenmesh.xhtml#aa34a5188a4cee82197394560c388c348" target="_top" xlink:title="tetgenmesh::refineregion">
<polygon fill="none" stroke="black" points="470,-85.5 470,-106.5 594,-106.5 594,-85.5 470,-85.5"/>
<text text-anchor="middle" x="532" y="-93.5" font-family="Helvetica,sans-Serif" font-size="10.00">tetgenmesh::refineregion</text>
</a>
</g>
<!-- Node3&#45;&gt;Node4 -->
<g id="edge6" class="edge"><title>Node3&#45;&gt;Node4</title>
<path fill="none" stroke="midnightblue" d="M444.047,-96C452.745,-96 461.507,-96 469.954,-96"/>
<polygon fill="midnightblue" stroke="midnightblue" points="443.889,-92.5001 433.889,-96 443.889,-99.5001 443.889,-92.5001"/>
</g>
<!-- Node4&#45;&gt;Node5 -->
<g id="edge8" class="edge"><title>Node4&#45;&gt;Node5</title>
<path fill="none" stroke="midnightblue" d="M588.913,-83.2437C611.557,-78.1682 637.303,-72.3976 658.875,-67.5624"/>
<polygon fill="midnightblue" stroke="midnightblue" points="588.079,-79.8436 579.087,-85.446 589.61,-86.6741 588.079,-79.8436"/>
</g>
<!-- Node6 -->
<g id="node11" class="node"><title>Node6</title>
<a xlink:href="classtetgenmesh.xhtml#aab64d62b3d2b048a38158fb2bf678624" target="_top" xlink:title="tetgenmesh::constraineddelaunay">
<polygon fill="none" stroke="black" points="818.5,-46.5 818.5,-67.5 981.5,-67.5 981.5,-46.5 818.5,-46.5"/>
<text text-anchor="middle" x="900" y="-54.5" font-family="Helvetica,sans-Serif" font-size="10.00">tetgenmesh::constraineddelaunay</text>
</a>
</g>
<!-- Node5&#45;&gt;Node6 -->
<g id="edge10" class="edge"><title>Node5&#45;&gt;Node6</title>
<path fill="none" stroke="midnightblue" d="M791.797,-57C800.58,-57 809.487,-57 818.225,-57"/>
<polygon fill="midnightblue" stroke="midnightblue" points="791.561,-53.5001 781.561,-57 791.561,-60.5001 791.561,-53.5001"/>
</g>
<!-- Node7 -->
<g id="node13" class="node"><title>Node7</title>
<a xlink:href="tetgen_8h.xhtml#ad3637eb4ffe7fda90667e67b7771d964" target="_top" xlink:title="tetrahedralize">
<polygon fill="none" stroke="black" points="1018.5,-46.5 1018.5,-67.5 1093.5,-67.5 1093.5,-46.5 1018.5,-46.5"/>
<text text-anchor="middle" x="1056" y="-54.5" font-family="Helvetica,sans-Serif" font-size="10.00">tetrahedralize</text>
</a>
</g>
<!-- Node6&#45;&gt;Node7 -->
<g id="edge12" class="edge"><title>Node6&#45;&gt;Node7</title>
<path fill="none" stroke="midnightblue" d="M991.823,-57C1001.12,-57 1010.14,-57 1018.35,-57"/>
<polygon fill="midnightblue" stroke="midnightblue" points="991.655,-53.5001 981.655,-57 991.655,-60.5001 991.655,-53.5001"/>
</g>
<!-- Node8 -->
<g id="node15" class="node"><title>Node8</title>
<a xlink:href="classGUICutRenderWindow.xhtml#a9eedb7088ad31f4680a77ed3a06fa60c" target="_top" xlink:title="Berechnet die 2D&#45;Temperaturverteilung als Grafik. ">
<polygon fill="none" stroke="black" points="1132.5,-89 1132.5,-123 1249.5,-123 1249.5,-89 1132.5,-89"/>
<text text-anchor="start" x="1140.5" y="-110" font-family="Helvetica,sans-Serif" font-size="10.00">GUICutRenderWindow</text>
<text text-anchor="middle" x="1191" y="-97" font-family="Helvetica,sans-Serif" font-size="10.00">::renderImage</text>
</a>
</g>
<!-- Node7&#45;&gt;Node8 -->
<g id="edge14" class="edge"><title>Node7&#45;&gt;Node8</title>
<path fill="none" stroke="midnightblue" d="M1094.67,-71.0375C1110.06,-76.6228 1127.91,-83.1014 1144.03,-88.953"/>
<polygon fill="midnightblue" stroke="midnightblue" points="1095.56,-67.6336 1084.96,-67.5117 1093.17,-74.2136 1095.56,-67.6336"/>
</g>
<!-- Node10 -->
<g id="node19" class="node"><title>Node10</title>
<a xlink:href="classObjectData.xhtml#af3a850833d08eb9b45357449f455e24d" target="_top" xlink:title="Zerlegt das Objekt in Tetraeder (Schnittstelle zur Tetgen&#45;Bibliothek) und Berechnet die Temperaturver...">
<polygon fill="none" stroke="black" points="1130,-46.5 1130,-67.5 1252,-67.5 1252,-46.5 1130,-46.5"/>
<text text-anchor="middle" x="1191" y="-54.5" font-family="Helvetica,sans-Serif" font-size="10.00">ObjectData::calculateIO</text>
</a>
</g>
<!-- Node7&#45;&gt;Node10 -->
<g id="edge18" class="edge"><title>Node7&#45;&gt;Node10</title>
<path fill="none" stroke="midnightblue" d="M1103.65,-57C1112.11,-57 1121.02,-57 1129.8,-57"/>
<polygon fill="midnightblue" stroke="midnightblue" points="1103.61,-53.5001 1093.61,-57 1103.6,-60.5001 1103.61,-53.5001"/>
</g>
<!-- Node13 -->
<g id="node25" class="node"><title>Node13</title>
<a xlink:href="tetgen_8cxx.xhtml#a0ddf1224851353fc92bfbff6f499fa97" target="_top" xlink:title="main">
<polygon fill="none" stroke="black" points="1172,-6.5 1172,-27.5 1210,-27.5 1210,-6.5 1172,-6.5"/>
<text text-anchor="middle" x="1191" y="-14.5" font-family="Helvetica,sans-Serif" font-size="10.00">main</text>
</a>
</g>
<!-- Node7&#45;&gt;Node13 -->
<g id="edge24" class="edge"><title>Node7&#45;&gt;Node13</title>
<path fill="none" stroke="midnightblue" d="M1101.15,-43.6209C1125.27,-36.4764 1153.67,-28.0613 1171.98,-22.6343"/>
<polygon fill="midnightblue" stroke="midnightblue" points="1100.06,-40.2937 1091.47,-46.4905 1102.05,-47.0053 1100.06,-40.2937"/>
</g>
<!-- Node9 -->
<g id="node17" class="node"><title>Node9</title>
<a xlink:href="classGUICutRenderWindow.xhtml#a7cd1bfbec53756a1cbbe1616b4d46c7a" target="_top" xlink:title="Behandelt das Drücken des Buttons zur Berechnung der zweidimensionalen Temperaturverteilung. ">
<polygon fill="none" stroke="black" points="1304.5,-92 1304.5,-126 1421.5,-126 1421.5,-92 1304.5,-92"/>
<text text-anchor="start" x="1312.5" y="-113" font-family="Helvetica,sans-Serif" font-size="10.00">GUICutRenderWindow</text>
<text text-anchor="middle" x="1363" y="-100" font-family="Helvetica,sans-Serif" font-size="10.00">::renderCutBtClick</text>
</a>
</g>
<!-- Node8&#45;&gt;Node9 -->
<g id="edge16" class="edge"><title>Node8&#45;&gt;Node9</title>
<path fill="none" stroke="midnightblue" d="M1259.78,-107.2C1274.51,-107.457 1289.95,-107.726 1304.26,-107.975"/>
<polygon fill="midnightblue" stroke="midnightblue" points="1259.77,-103.699 1249.71,-107.024 1259.65,-110.698 1259.77,-103.699"/>
</g>
<!-- Node11 -->
<g id="node21" class="node"><title>Node11</title>
<a xlink:href="classGUIMainWindow.xhtml#a0c2de30274c7f52ff74ec1217e47a9e5" target="_top" xlink:title="Berechnet die 3D&#45;Temperaturverteilung neu. ">
<polygon fill="none" stroke="black" points="1288,-40 1288,-74 1438,-74 1438,-40 1288,-40"/>
<text text-anchor="start" x="1296" y="-61" font-family="Helvetica,sans-Serif" font-size="10.00">GUIMainWindow::OnRecalcBt</text>
<text text-anchor="middle" x="1363" y="-48" font-family="Helvetica,sans-Serif" font-size="10.00">Click</text>
</a>
</g>
<!-- Node10&#45;&gt;Node11 -->
<g id="edge20" class="edge"><title>Node10&#45;&gt;Node11</title>
<path fill="none" stroke="midnightblue" d="M1262.32,-57C1270.77,-57 1279.42,-57 1287.92,-57"/>
<polygon fill="midnightblue" stroke="midnightblue" points="1262.13,-53.5001 1252.13,-57 1262.13,-60.5001 1262.13,-53.5001"/>
</g>
<!-- Node12 -->
<g id="node23" class="node"><title>Node12</title>
<a xlink:href="classGUITimeline.xhtml#a099f3654aa6e7ea04df861851a0e9ec8" target="_top" xlink:title="Sucht den Zeitpunkt zwischen zwei markierten Stellen auf der Sensordaten&#45;Zeitleiste, für den der Wäremeenergiegehalt maximal wird. ">
<polygon fill="none" stroke="black" points="1294.5,-0.5 1294.5,-21.5 1431.5,-21.5 1431.5,-0.5 1294.5,-0.5"/>
<text text-anchor="middle" x="1363" y="-8.5" font-family="Helvetica,sans-Serif" font-size="10.00">GUITimeline::findMaxValue</text>
</a>
</g>
<!-- Node10&#45;&gt;Node12 -->
<g id="edge22" class="edge"><title>Node10&#45;&gt;Node12</title>
<path fill="none" stroke="midnightblue" d="M1240,-43.8537C1255.36,-39.7343 1272.39,-35.1741 1288,-31 1299.46,-27.9371 1311.9,-24.6167 1323.3,-21.5777"/>
<polygon fill="midnightblue" stroke="midnightblue" points="1238.92,-40.5181 1230.17,-46.4885 1240.74,-47.2793 1238.92,-40.5181"/>
</g>
<!-- Node14&#45;&gt;Node5 -->
<g id="edge30" class="edge"><title>Node14&#45;&gt;Node5</title>
<path fill="none" stroke="midnightblue" d="M430.19,-24.8432C476.029,-29.722 538.791,-36.5363 594,-43 605.775,-44.3786 618.24,-45.8875 630.411,-47.3881"/>
<polygon fill="midnightblue" stroke="midnightblue" points="430.404,-21.3463 420.09,-23.7704 429.664,-28.3071 430.404,-21.3463"/>
</g>
</g>
</svg>
