<?xml version="1.0" encoding="UTF-8" standalone="no"?>
<!DOCTYPE svg PUBLIC "-//W3C//DTD SVG 1.1//EN"
 "http://www.w3.org/Graphics/SVG/1.1/DTD/svg11.dtd">
<!-- Generated by graphviz version 2.26.3 (20100126.1600)
 -->
<!-- Title: tetgenmesh::segsegadjacent Pages: 1 -->
<svg width="1808pt" height="148pt"
 viewBox="0.00 0.00 1808.00 148.00" xmlns="http://www.w3.org/2000/svg" xmlns:xlink="http://www.w3.org/1999/xlink">
<g id="graph1" class="graph" transform="scale(1 1) rotate(0) translate(4 144)">
<title>tetgenmesh::segsegadjacent</title>
<!-- Node1 -->
<g id="node1" class="node"><title>Node1</title>
<polygon fill="#bfbfbf" stroke="black" points="0,-77.5 0,-98.5 142,-98.5 142,-77.5 0,-77.5"/>
<text text-anchor="middle" x="71" y="-85.5" font-family="Helvetica,sans-Serif" font-size="10.00">tetgenmesh::segsegadjacent</text>
</g>
<!-- Node2 -->
<g id="node3" class="node"><title>Node2</title>
<a xlink:href="classtetgenmesh.xhtml#a6394d7b4d386e8d08077c39cd8983e0e" target="_top" xlink:title="tetgenmesh::splitsegment">
<polygon fill="none" stroke="black" points="178.5,-77.5 178.5,-98.5 307.5,-98.5 307.5,-77.5 178.5,-77.5"/>
<text text-anchor="middle" x="243" y="-85.5" font-family="Helvetica,sans-Serif" font-size="10.00">tetgenmesh::splitsegment</text>
</a>
</g>
<!-- Node1&#45;&gt;Node2 -->
<g id="edge2" class="edge"><title>Node1&#45;&gt;Node2</title>
<path fill="none" stroke="midnightblue" d="M152.565,-88C161.224,-88 169.943,-88 178.369,-88"/>
<polygon fill="midnightblue" stroke="midnightblue" points="152.449,-84.5001 142.449,-88 152.449,-91.5001 152.449,-84.5001"/>
</g>
<!-- Node3 -->
<g id="node5" class="node"><title>Node3</title>
<a xlink:href="classtetgenmesh.xhtml#a7af360f1ae413f9e0d7803ccae55b6d6" target="_top" xlink:title="tetgenmesh::repairencsegs">
<polygon fill="none" stroke="black" points="344,-77.5 344,-98.5 478,-98.5 478,-77.5 344,-77.5"/>
<text text-anchor="middle" x="411" y="-85.5" font-family="Helvetica,sans-Serif" font-size="10.00">tetgenmesh::repairencsegs</text>
</a>
</g>
<!-- Node2&#45;&gt;Node3 -->
<g id="edge4" class="edge"><title>Node2&#45;&gt;Node3</title>
<path fill="none" stroke="midnightblue" d="M318.029,-88C326.681,-88 335.462,-88 343.998,-88"/>
<polygon fill="midnightblue" stroke="midnightblue" points="317.953,-84.5001 307.953,-88 317.953,-91.5001 317.953,-84.5001"/>
</g>
<!-- Node4 -->
<g id="node7" class="node"><title>Node4</title>
<a xlink:href="classtetgenmesh.xhtml#a3a8404870ab3c2e8ce4312d48c2b29f4" target="_top" xlink:title="tetgenmesh::splitsubface">
<polygon fill="none" stroke="black" points="514,-38.5 514,-59.5 640,-59.5 640,-38.5 514,-38.5"/>
<text text-anchor="middle" x="577" y="-46.5" font-family="Helvetica,sans-Serif" font-size="10.00">tetgenmesh::splitsubface</text>
</a>
</g>
<!-- Node2&#45;&gt;Node4 -->
<g id="edge38" class="edge"><title>Node2&#45;&gt;Node4</title>
<path fill="none" stroke="midnightblue" d="M300.456,-75.4435C314.637,-72.6708 329.825,-69.9749 344,-68 401.281,-60.0196 466.987,-55.0365 513.99,-52.1866"/>
<polygon fill="midnightblue" stroke="midnightblue" points="299.457,-72.074 290.337,-77.4669 300.83,-78.9381 299.457,-72.074"/>
</g>
<!-- Node6 -->
<g id="node11" class="node"><title>Node6</title>
<a xlink:href="classtetgenmesh.xhtml#aa752155eb1d18550a212dd40297f122e" target="_top" xlink:title="tetgenmesh::splittetrahedron">
<polygon fill="none" stroke="black" points="844,-66.5 844,-87.5 984,-87.5 984,-66.5 844,-66.5"/>
<text text-anchor="middle" x="914" y="-74.5" font-family="Helvetica,sans-Serif" font-size="10.00">tetgenmesh::splittetrahedron</text>
</a>
</g>
<!-- Node2&#45;&gt;Node6 -->
<g id="edge40" class="edge"><title>Node2&#45;&gt;Node6</title>
<path fill="none" stroke="midnightblue" d="M296.294,-100.575C311.605,-103.637 328.385,-106.469 344,-108 449.511,-118.346 765.336,-98.3113 808,-94 823.669,-92.4166 840.543,-90.0263 856.119,-87.5343"/>
<polygon fill="midnightblue" stroke="midnightblue" points="296.973,-97.1418 286.471,-98.5419 295.554,-103.996 296.973,-97.1418"/>
</g>
<!-- Node3&#45;&gt;Node4 -->
<g id="edge6" class="edge"><title>Node3&#45;&gt;Node4</title>
<path fill="none" stroke="midnightblue" d="M465.878,-75.107C487.34,-70.0648 511.646,-64.3542 532.042,-59.5624"/>
<polygon fill="midnightblue" stroke="midnightblue" points="464.856,-71.7516 455.922,-77.446 466.457,-78.5661 464.856,-71.7516"/>
</g>
<!-- Node3&#45;&gt;Node6 -->
<g id="edge34" class="edge"><title>Node3&#45;&gt;Node6</title>
<path fill="none" stroke="midnightblue" d="M488.087,-86.3142C585.049,-84.1938 750.154,-80.5831 843.768,-78.5359"/>
<polygon fill="midnightblue" stroke="midnightblue" points="487.976,-82.8157 478.055,-86.5336 488.129,-89.814 487.976,-82.8157"/>
</g>
<!-- Node8 -->
<g id="node15" class="node"><title>Node8</title>
<a xlink:href="classtetgenmesh.xhtml#a477bbfde72103de66546d4ea3343b4a1" target="_top" xlink:title="tetgenmesh::delaunayrefinement">
<polygon fill="none" stroke="black" points="1186,-66.5 1186,-87.5 1344,-87.5 1344,-66.5 1186,-66.5"/>
<text text-anchor="middle" x="1265" y="-74.5" font-family="Helvetica,sans-Serif" font-size="10.00">tetgenmesh::delaunayrefinement</text>
</a>
</g>
<!-- Node3&#45;&gt;Node8 -->
<g id="edge36" class="edge"><title>Node3&#45;&gt;Node8</title>
<path fill="none" stroke="midnightblue" d="M477.835,-100.215C544.508,-111.326 649.982,-126 742,-126 742,-126 742,-126 914,-126 1024.44,-126 1152.57,-101.91 1219.29,-87.5117"/>
<polygon fill="midnightblue" stroke="midnightblue" points="478.324,-96.7482 467.881,-98.5347 477.159,-103.651 478.324,-96.7482"/>
</g>
<!-- Node5 -->
<g id="node9" class="node"><title>Node5</title>
<a xlink:href="classtetgenmesh.xhtml#a701d4f317ed66df6a2e2b7b237e2386a" target="_top" xlink:title="tetgenmesh::repairencfacs">
<polygon fill="none" stroke="black" points="676,-0.5 676,-21.5 808,-21.5 808,-0.5 676,-0.5"/>
<text text-anchor="middle" x="742" y="-8.5" font-family="Helvetica,sans-Serif" font-size="10.00">tetgenmesh::repairencfacs</text>
</a>
</g>
<!-- Node4&#45;&gt;Node5 -->
<g id="edge8" class="edge"><title>Node4&#45;&gt;Node5</title>
<path fill="none" stroke="midnightblue" d="M632.869,-36.1332C653.512,-31.379 676.647,-26.051 696.285,-21.5284"/>
<polygon fill="midnightblue" stroke="midnightblue" points="631.921,-32.7598 622.962,-38.4149 633.492,-39.5812 631.921,-32.7598"/>
</g>
<!-- Node4&#45;&gt;Node6 -->
<g id="edge32" class="edge"><title>Node4&#45;&gt;Node6</title>
<path fill="none" stroke="midnightblue" d="M650.492,-55.1062C707.963,-59.8812 787.338,-66.4761 843.918,-71.1771"/>
<polygon fill="midnightblue" stroke="midnightblue" points="650.643,-51.6067 640.387,-54.2666 650.063,-58.5827 650.643,-51.6067"/>
</g>
<!-- Node5&#45;&gt;Node6 -->
<g id="edge10" class="edge"><title>Node5&#45;&gt;Node6</title>
<path fill="none" stroke="midnightblue" d="M779.4,-25.1147C788.745,-28.6559 798.743,-32.4564 808,-36 834.904,-46.2985 865.598,-58.1858 887.008,-66.5"/>
<polygon fill="midnightblue" stroke="midnightblue" points="780.547,-21.8066 769.956,-21.5399 778.069,-28.3534 780.547,-21.8066"/>
</g>
<!-- Node5&#45;&gt;Node8 -->
<g id="edge30" class="edge"><title>Node5&#45;&gt;Node8</title>
<path fill="none" stroke="midnightblue" d="M818.222,-18.2162C900.313,-26.3093 1034.68,-40.4861 1150,-57 1169.06,-59.729 1189.81,-63.1867 1208.37,-66.4566"/>
<polygon fill="midnightblue" stroke="midnightblue" points="818.522,-14.7289 808.228,-17.2355 817.839,-21.6954 818.522,-14.7289"/>
</g>
<!-- Node7 -->
<g id="node13" class="node"><title>Node7</title>
<a xlink:href="classtetgenmesh.xhtml#a7c46c82d83099214115fa9719aefbd78" target="_top" xlink:title="tetgenmesh::repairbadtets">
<polygon fill="none" stroke="black" points="1020,-66.5 1020,-87.5 1150,-87.5 1150,-66.5 1020,-66.5"/>
<text text-anchor="middle" x="1085" y="-74.5" font-family="Helvetica,sans-Serif" font-size="10.00">tetgenmesh::repairbadtets</text>
</a>
</g>
<!-- Node6&#45;&gt;Node7 -->
<g id="edge12" class="edge"><title>Node6&#45;&gt;Node7</title>
<path fill="none" stroke="midnightblue" d="M994.083,-77C1002.68,-77 1011.35,-77 1019.74,-77"/>
<polygon fill="midnightblue" stroke="midnightblue" points="994.046,-73.5001 984.046,-77 994.046,-80.5001 994.046,-73.5001"/>
</g>
<!-- Node7&#45;&gt;Node8 -->
<g id="edge14" class="edge"><title>Node7&#45;&gt;Node8</title>
<path fill="none" stroke="midnightblue" d="M1160.4,-77C1168.82,-77 1177.41,-77 1185.88,-77"/>
<polygon fill="midnightblue" stroke="midnightblue" points="1160.24,-73.5001 1150.24,-77 1160.24,-80.5001 1160.24,-73.5001"/>
</g>
<!-- Node9 -->
<g id="node17" class="node"><title>Node9</title>
<a xlink:href="tetgen_8h.xhtml#ad3637eb4ffe7fda90667e67b7771d964" target="_top" xlink:title="tetrahedralize">
<polygon fill="none" stroke="black" points="1380.5,-66.5 1380.5,-87.5 1455.5,-87.5 1455.5,-66.5 1380.5,-66.5"/>
<text text-anchor="middle" x="1418" y="-74.5" font-family="Helvetica,sans-Serif" font-size="10.00">tetrahedralize</text>
</a>
</g>
<!-- Node8&#45;&gt;Node9 -->
<g id="edge16" class="edge"><title>Node8&#45;&gt;Node9</title>
<path fill="none" stroke="midnightblue" d="M1354.43,-77C1363.43,-77 1372.18,-77 1380.17,-77"/>
<polygon fill="midnightblue" stroke="midnightblue" points="1354.19,-73.5001 1344.19,-77 1354.19,-80.5001 1354.19,-73.5001"/>
</g>
<!-- Node10 -->
<g id="node19" class="node"><title>Node10</title>
<a xlink:href="classGUICutRenderWindow.xhtml#a9eedb7088ad31f4680a77ed3a06fa60c" target="_top" xlink:title="Berechnet die 2D&#45;Temperaturverteilung als Grafik. ">
<polygon fill="none" stroke="black" points="1494.5,-106 1494.5,-140 1611.5,-140 1611.5,-106 1494.5,-106"/>
<text text-anchor="start" x="1502.5" y="-127" font-family="Helvetica,sans-Serif" font-size="10.00">GUICutRenderWindow</text>
<text text-anchor="middle" x="1553" y="-114" font-family="Helvetica,sans-Serif" font-size="10.00">::renderImage</text>
</a>
</g>
<!-- Node9&#45;&gt;Node10 -->
<g id="edge18" class="edge"><title>Node9&#45;&gt;Node10</title>
<path fill="none" stroke="midnightblue" d="M1458.73,-90.877C1472.62,-95.6107 1488.32,-100.96 1502.86,-105.915"/>
<polygon fill="midnightblue" stroke="midnightblue" points="1459.57,-87.4657 1448.97,-87.5533 1457.31,-94.0917 1459.57,-87.4657"/>
</g>
<!-- Node12 -->
<g id="node23" class="node"><title>Node12</title>
<a xlink:href="classObjectData.xhtml#af3a850833d08eb9b45357449f455e24d" target="_top" xlink:title="Zerlegt das Objekt in Tetraeder (Schnittstelle zur Tetgen&#45;Bibliothek) und Berechnet die Temperaturver...">
<polygon fill="none" stroke="black" points="1492,-66.5 1492,-87.5 1614,-87.5 1614,-66.5 1492,-66.5"/>
<text text-anchor="middle" x="1553" y="-74.5" font-family="Helvetica,sans-Serif" font-size="10.00">ObjectData::calculateIO</text>
</a>
</g>
<!-- Node9&#45;&gt;Node12 -->
<g id="edge22" class="edge"><title>Node9&#45;&gt;Node12</title>
<path fill="none" stroke="midnightblue" d="M1465.65,-77C1474.11,-77 1483.02,-77 1491.8,-77"/>
<polygon fill="midnightblue" stroke="midnightblue" points="1465.61,-73.5001 1455.61,-77 1465.6,-80.5001 1465.61,-73.5001"/>
</g>
<!-- Node15 -->
<g id="node29" class="node"><title>Node15</title>
<a xlink:href="tetgen_8cxx.xhtml#a0ddf1224851353fc92bfbff6f499fa97" target="_top" xlink:title="main">
<polygon fill="none" stroke="black" points="1534,-26.5 1534,-47.5 1572,-47.5 1572,-26.5 1534,-26.5"/>
<text text-anchor="middle" x="1553" y="-34.5" font-family="Helvetica,sans-Serif" font-size="10.00">main</text>
</a>
</g>
<!-- Node9&#45;&gt;Node15 -->
<g id="edge28" class="edge"><title>Node9&#45;&gt;Node15</title>
<path fill="none" stroke="midnightblue" d="M1463.15,-63.6209C1487.27,-56.4764 1515.67,-48.0613 1533.98,-42.6343"/>
<polygon fill="midnightblue" stroke="midnightblue" points="1462.06,-60.2937 1453.47,-66.4905 1464.05,-67.0053 1462.06,-60.2937"/>
</g>
<!-- Node11 -->
<g id="node21" class="node"><title>Node11</title>
<a xlink:href="classGUICutRenderWindow.xhtml#a7cd1bfbec53756a1cbbe1616b4d46c7a" target="_top" xlink:title="Behandelt das Drücken des Buttons zur Berechnung der zweidimensionalen Temperaturverteilung. ">
<polygon fill="none" stroke="black" points="1666.5,-106 1666.5,-140 1783.5,-140 1783.5,-106 1666.5,-106"/>
<text text-anchor="start" x="1674.5" y="-127" font-family="Helvetica,sans-Serif" font-size="10.00">GUICutRenderWindow</text>
<text text-anchor="middle" x="1725" y="-114" font-family="Helvetica,sans-Serif" font-size="10.00">::renderCutBtClick</text>
</a>
</g>
<!-- Node10&#45;&gt;Node11 -->
<g id="edge20" class="edge"><title>Node10&#45;&gt;Node11</title>
<path fill="none" stroke="midnightblue" d="M1621.78,-123C1636.51,-123 1651.95,-123 1666.26,-123"/>
<polygon fill="midnightblue" stroke="midnightblue" points="1621.71,-119.5 1611.71,-123 1621.71,-126.5 1621.71,-119.5"/>
</g>
<!-- Node13 -->
<g id="node25" class="node"><title>Node13</title>
<a xlink:href="classGUIMainWindow.xhtml#a0c2de30274c7f52ff74ec1217e47a9e5" target="_top" xlink:title="Berechnet die 3D&#45;Temperaturverteilung neu. ">
<polygon fill="none" stroke="black" points="1650,-14 1650,-48 1800,-48 1800,-14 1650,-14"/>
<text text-anchor="start" x="1658" y="-35" font-family="Helvetica,sans-Serif" font-size="10.00">GUIMainWindow::OnRecalcBt</text>
<text text-anchor="middle" x="1725" y="-22" font-family="Helvetica,sans-Serif" font-size="10.00">Click</text>
</a>
</g>
<!-- Node12&#45;&gt;Node13 -->
<g id="edge24" class="edge"><title>Node12&#45;&gt;Node13</title>
<path fill="none" stroke="midnightblue" d="M1602.33,-63.8079C1620.64,-58.9096 1641.69,-53.2809 1661.12,-48.0845"/>
<polygon fill="midnightblue" stroke="midnightblue" points="1601.22,-60.4818 1592.46,-66.4467 1603.03,-67.2442 1601.22,-60.4818"/>
</g>
<!-- Node14 -->
<g id="node27" class="node"><title>Node14</title>
<a xlink:href="classGUITimeline.xhtml#a099f3654aa6e7ea04df861851a0e9ec8" target="_top" xlink:title="Sucht den Zeitpunkt zwischen zwei markierten Stellen auf der Sensordaten&#45;Zeitleiste, für den der Wäremeenergiegehalt maximal wird. ">
<polygon fill="none" stroke="black" points="1656.5,-66.5 1656.5,-87.5 1793.5,-87.5 1793.5,-66.5 1656.5,-66.5"/>
<text text-anchor="middle" x="1725" y="-74.5" font-family="Helvetica,sans-Serif" font-size="10.00">GUITimeline::findMaxValue</text>
</a>
</g>
<!-- Node12&#45;&gt;Node14 -->
<g id="edge26" class="edge"><title>Node12&#45;&gt;Node14</title>
<path fill="none" stroke="midnightblue" d="M1624.23,-77C1634.89,-77 1645.86,-77 1656.46,-77"/>
<polygon fill="midnightblue" stroke="midnightblue" points="1624.13,-73.5001 1614.13,-77 1624.13,-80.5001 1624.13,-73.5001"/>
</g>
</g>
</svg>
