<?xml version="1.0" encoding="UTF-8" standalone="no"?>
<!DOCTYPE svg PUBLIC "-//W3C//DTD SVG 1.1//EN"
 "http://www.w3.org/Graphics/SVG/1.1/DTD/svg11.dtd">
<!-- Generated by graphviz version 2.36.0 (20140111.2315)
 -->
<!-- Title: Importer::ImportObj Pages: 1 -->
<svg width="272pt" height="104pt"
 viewBox="0.00 0.00 272.00 104.00" xmlns="http://www.w3.org/2000/svg" xmlns:xlink="http://www.w3.org/1999/xlink">
<g id="graph0" class="graph" transform="scale(1 1) rotate(0) translate(4 100)">
<title>Importer::ImportObj</title>
<!-- Node1 -->
<g id="node1" class="node"><title>Node1</title>
<polygon fill="#bfbfbf" stroke="black" points="0.5,-38.5 0.5,-57.5 101.5,-57.5 101.5,-38.5 0.5,-38.5"/>
<text text-anchor="middle" x="51" y="-45.5" font-family="Helvetica,sans-Serif" font-size="10.00">Importer::ImportObj</text>
</g>
<!-- Node2 -->
<g id="node2" class="node"><title>Node2</title>
<g id="a_node2"><a xlink:href="Importer_8cpp.xhtml#a0903d5717f5c64c86b68bf17c4783e91" target="_top" xlink:title="Extrahiert den Index einer Fläche aus einem Textblock einer Zeile der .obj&#45;Datei. ...">
<polygon fill="none" stroke="black" points="163,-76.5 163,-95.5 239,-95.5 239,-76.5 163,-76.5"/>
<text text-anchor="middle" x="201" y="-83.5" font-family="Helvetica,sans-Serif" font-size="10.00">getFaceIndex</text>
</a>
</g>
</g>
<!-- Node1&#45;&gt;Node2 -->
<g id="edge1" class="edge"><title>Node1&#45;&gt;Node2</title>
<path fill="none" stroke="midnightblue" d="M89.3466,-57.589C108.701,-62.5583 132.53,-68.6767 153.113,-73.9613"/>
<polygon fill="midnightblue" stroke="midnightblue" points="152.366,-77.383 162.922,-76.4799 154.107,-70.6029 152.366,-77.383"/>
</g>
<!-- Node3 -->
<g id="node3" class="node"><title>Node3</title>
<g id="a_node3"><a xlink:href="namespaceUtils.xhtml#ab5711927eff2cdd7123d98d343f0dfad" target="_top" xlink:title="Gibt den n&#45;ten durch Leerzeichen oder Tabulator abgetrennten Block aus einem String zurück...">
<polygon fill="none" stroke="black" points="150.5,-38.5 150.5,-57.5 251.5,-57.5 251.5,-38.5 150.5,-38.5"/>
<text text-anchor="middle" x="201" y="-45.5" font-family="Helvetica,sans-Serif" font-size="10.00">Utils::getTextBlock</text>
</a>
</g>
</g>
<!-- Node1&#45;&gt;Node3 -->
<g id="edge2" class="edge"><title>Node1&#45;&gt;Node3</title>
<path fill="none" stroke="midnightblue" d="M101.694,-48C114.085,-48 127.498,-48 140.316,-48"/>
<polygon fill="midnightblue" stroke="midnightblue" points="140.438,-51.5001 150.438,-48 140.438,-44.5001 140.438,-51.5001"/>
</g>
<!-- Node4 -->
<g id="node4" class="node"><title>Node4</title>
<g id="a_node4"><a xlink:href="classObjectData.xhtml#afda67d7524b83780e431dd3a9c5ac23a" target="_top" xlink:title="Gibt eine Referenz auf die Liste der Materialien (mit Materialdaten) des Objekts zurück. ">
<polygon fill="none" stroke="black" points="138.5,-0.5 138.5,-19.5 263.5,-19.5 263.5,-0.5 138.5,-0.5"/>
<text text-anchor="middle" x="201" y="-7.5" font-family="Helvetica,sans-Serif" font-size="10.00">ObjectData::getMaterials</text>
</a>
</g>
</g>
<!-- Node1&#45;&gt;Node4 -->
<g id="edge3" class="edge"><title>Node1&#45;&gt;Node4</title>
<path fill="none" stroke="midnightblue" d="M89.3466,-38.411C108.701,-33.4417 132.53,-27.3233 153.113,-22.0387"/>
<polygon fill="midnightblue" stroke="midnightblue" points="154.107,-25.3971 162.922,-19.5201 152.366,-18.617 154.107,-25.3971"/>
</g>
</g>
</svg>
