<?xml version="1.0" encoding="UTF-8" standalone="no"?>
<!DOCTYPE svg PUBLIC "-//W3C//DTD SVG 1.1//EN"
 "http://www.w3.org/Graphics/SVG/1.1/DTD/svg11.dtd">
<!-- Generated by graphviz version 2.26.3 (20100126.1600)
 -->
<!-- Title: tetgenmesh::memorypool Pages: 1 -->
<svg width="421pt" height="166pt"
 viewBox="0.00 0.00 421.00 166.00" xmlns="http://www.w3.org/2000/svg" xmlns:xlink="http://www.w3.org/1999/xlink">
<g id="graph1" class="graph" transform="scale(1 1) rotate(0) translate(4 162)">
<title>tetgenmesh::memorypool</title>
<!-- Node1 -->
<g id="node1" class="node"><title>Node1</title>
<polygon fill="#bfbfbf" stroke="black" points="117.5,-0.5 117.5,-21.5 244.5,-21.5 244.5,-0.5 117.5,-0.5"/>
<text text-anchor="middle" x="181" y="-8.5" font-family="Helvetica,sans-Serif" font-size="10.00">tetgenmesh::memorypool</text>
</g>
<!-- Node2 -->
<g id="node2" class="node"><title>Node2</title>
<polygon fill="none" stroke="#bfbfbf" points="0,-136.5 0,-157.5 56,-157.5 56,-136.5 0,-136.5"/>
<text text-anchor="middle" x="28" y="-144.5" font-family="Helvetica,sans-Serif" font-size="10.00">wordtype</text>
</g>
<!-- Node2&#45;&gt;Node1 -->
<g id="edge2" class="edge"><title>Node2&#45;&gt;Node1</title>
<path fill="none" stroke="#9a32cd" stroke-dasharray="5,2" d="M25.178,-126.017C23.2093,-101.965 24.0864,-62.9211 46,-40 56.1465,-29.387 87.4945,-22.2906 117.43,-17.7755"/>
<polygon fill="#9a32cd" stroke="#9a32cd" points="21.7218,-126.616 26.2552,-136.192 28.6829,-125.879 21.7218,-126.616"/>
<text text-anchor="middle" x="77" y="-76.5" font-family="Helvetica,sans-Serif" font-size="10.00"> itemwordtype</text>
</g>
<!-- Node3 -->
<g id="node4" class="node"><title>Node3</title>
<polygon fill="none" stroke="#bfbfbf" points="90.5,-136.5 90.5,-157.5 135.5,-157.5 135.5,-136.5 90.5,-136.5"/>
<text text-anchor="middle" x="113" y="-144.5" font-family="Helvetica,sans-Serif" font-size="10.00">void **</text>
</g>
<!-- Node3&#45;&gt;Node1 -->
<g id="edge4" class="edge"><title>Node3&#45;&gt;Node1</title>
<path fill="none" stroke="#9a32cd" stroke-dasharray="5,2" d="M111.778,-126.11C111.471,-103.026 114.174,-65.7192 132,-40 137.462,-32.1192 145.82,-26.047 154.095,-21.5443"/>
<polygon fill="#9a32cd" stroke="#9a32cd" points="108.283,-126.31 112.117,-136.186 115.279,-126.074 108.283,-126.31"/>
<text text-anchor="middle" x="154.5" y="-89.5" font-family="Helvetica,sans-Serif" font-size="10.00"> nowblock</text>
<text text-anchor="middle" x="154.5" y="-76.5" font-family="Helvetica,sans-Serif" font-size="10.00">pathblock</text>
<text text-anchor="middle" x="154.5" y="-63.5" font-family="Helvetica,sans-Serif" font-size="10.00">firstblock</text>
</g>
<!-- Node4 -->
<g id="node6" class="node"><title>Node4</title>
<polygon fill="none" stroke="#bfbfbf" points="166.5,-136.5 166.5,-157.5 195.5,-157.5 195.5,-136.5 166.5,-136.5"/>
<text text-anchor="middle" x="181" y="-144.5" font-family="Helvetica,sans-Serif" font-size="10.00">int</text>
</g>
<!-- Node4&#45;&gt;Node1 -->
<g id="edge6" class="edge"><title>Node4&#45;&gt;Node1</title>
<path fill="none" stroke="#9a32cd" stroke-dasharray="5,2" d="M181,-126.319C181,-96.9201 181,-44.1209 181,-21.6221"/>
<polygon fill="#9a32cd" stroke="#9a32cd" points="177.5,-126.328 181,-136.328 184.5,-126.328 177.5,-126.328"/>
<text text-anchor="middle" x="218" y="-109" font-family="Helvetica,sans-Serif" font-size="10.00"> itembytes</text>
<text text-anchor="middle" x="218" y="-96" font-family="Helvetica,sans-Serif" font-size="10.00">unallocateditems</text>
<text text-anchor="middle" x="218" y="-83" font-family="Helvetica,sans-Serif" font-size="10.00">pathitemsleft</text>
<text text-anchor="middle" x="218" y="-70" font-family="Helvetica,sans-Serif" font-size="10.00">itemsperblock</text>
<text text-anchor="middle" x="218" y="-57" font-family="Helvetica,sans-Serif" font-size="10.00">alignbytes</text>
<text text-anchor="middle" x="218" y="-44" font-family="Helvetica,sans-Serif" font-size="10.00">itemwords</text>
</g>
<!-- Node5 -->
<g id="node8" class="node"><title>Node5</title>
<polygon fill="none" stroke="#bfbfbf" points="260.5,-136.5 260.5,-157.5 295.5,-157.5 295.5,-136.5 260.5,-136.5"/>
<text text-anchor="middle" x="278" y="-144.5" font-family="Helvetica,sans-Serif" font-size="10.00">long</text>
</g>
<!-- Node5&#45;&gt;Node1 -->
<g id="edge8" class="edge"><title>Node5&#45;&gt;Node1</title>
<path fill="none" stroke="#9a32cd" stroke-dasharray="5,2" d="M276.089,-126.223C273.184,-98.8806 266.821,-52.7875 256,-40 248.966,-31.6878 239.256,-25.7487 229.153,-21.5081"/>
<polygon fill="#9a32cd" stroke="#9a32cd" points="272.62,-126.717 277.095,-136.32 279.586,-126.022 272.62,-126.717"/>
<text text-anchor="middle" x="298" y="-83" font-family="Helvetica,sans-Serif" font-size="10.00"> maxitems</text>
<text text-anchor="middle" x="298" y="-70" font-family="Helvetica,sans-Serif" font-size="10.00">items</text>
</g>
<!-- Node6 -->
<g id="node10" class="node"><title>Node6</title>
<polygon fill="none" stroke="#bfbfbf" points="326.5,-136.5 326.5,-157.5 367.5,-157.5 367.5,-136.5 326.5,-136.5"/>
<text text-anchor="middle" x="347" y="-144.5" font-family="Helvetica,sans-Serif" font-size="10.00">void *</text>
</g>
<!-- Node6&#45;&gt;Node1 -->
<g id="edge10" class="edge"><title>Node6&#45;&gt;Node1</title>
<path fill="none" stroke="#9a32cd" stroke-dasharray="5,2" d="M348.969,-126.25C350.028,-102.099 347.736,-62.6446 325,-40 313.481,-28.5275 277.717,-21.2892 244.715,-16.9133"/>
<polygon fill="#9a32cd" stroke="#9a32cd" points="345.462,-126.232 348.281,-136.445 352.446,-126.703 345.462,-126.232"/>
<text text-anchor="middle" x="381" y="-89.5" font-family="Helvetica,sans-Serif" font-size="10.00"> nextitem</text>
<text text-anchor="middle" x="381" y="-76.5" font-family="Helvetica,sans-Serif" font-size="10.00">pathitem</text>
<text text-anchor="middle" x="381" y="-63.5" font-family="Helvetica,sans-Serif" font-size="10.00">deaditemstack</text>
</g>
</g>
</svg>
