<?xml version="1.0" encoding="UTF-8" standalone="no"?>
<!DOCTYPE svg PUBLIC "-//W3C//DTD SVG 1.1//EN"
 "http://www.w3.org/Graphics/SVG/1.1/DTD/svg11.dtd">
<!-- Generated by graphviz version 2.26.3 (20100126.1600)
 -->
<!-- Title: tetgenio::load_mtr Pages: 1 -->
<svg width="330pt" height="70pt"
 viewBox="0.00 0.00 330.00 70.00" xmlns="http://www.w3.org/2000/svg" xmlns:xlink="http://www.w3.org/1999/xlink">
<g id="graph1" class="graph" transform="scale(1 1) rotate(0) translate(4 66)">
<title>tetgenio::load_mtr</title>
<!-- Node1 -->
<g id="node1" class="node"><title>Node1</title>
<polygon fill="#bfbfbf" stroke="black" points="0.5,-20.5 0.5,-41.5 95.5,-41.5 95.5,-20.5 0.5,-20.5"/>
<text text-anchor="middle" x="48" y="-28.5" font-family="Helvetica,sans-Serif" font-size="10.00">tetgenio::load_mtr</text>
</g>
<!-- Node2 -->
<g id="node3" class="node"><title>Node2</title>
<a xlink:href="classtetgenio.xhtml#ac47582d8d9a09f1d8d32221527a0aa7b" target="_top" xlink:title="tetgenio::load_plc">
<polygon fill="none" stroke="black" points="143.5,-40.5 143.5,-61.5 236.5,-61.5 236.5,-40.5 143.5,-40.5"/>
<text text-anchor="middle" x="190" y="-48.5" font-family="Helvetica,sans-Serif" font-size="10.00">tetgenio::load_plc</text>
</a>
</g>
<!-- Node1&#45;&gt;Node2 -->
<g id="edge2" class="edge"><title>Node1&#45;&gt;Node2</title>
<path fill="none" stroke="midnightblue" d="M105.924,-39.1583C118.316,-40.9037 131.259,-42.7266 143.17,-44.4043"/>
<polygon fill="midnightblue" stroke="midnightblue" points="106.069,-35.6443 95.679,-37.7153 105.093,-42.5759 106.069,-35.6443"/>
</g>
<!-- Node4 -->
<g id="node7" class="node"><title>Node4</title>
<a xlink:href="classtetgenio.xhtml#ae7f0c3300cec04c22b7659b27c5e3dae" target="_top" xlink:title="tetgenio::load_tetmesh">
<polygon fill="none" stroke="black" points="132,-0.5 132,-21.5 248,-21.5 248,-0.5 132,-0.5"/>
<text text-anchor="middle" x="190" y="-8.5" font-family="Helvetica,sans-Serif" font-size="10.00">tetgenio::load_tetmesh</text>
</a>
</g>
<!-- Node1&#45;&gt;Node4 -->
<g id="edge6" class="edge"><title>Node1&#45;&gt;Node4</title>
<path fill="none" stroke="midnightblue" d="M105.658,-22.8791C114.293,-21.663 123.201,-20.4083 131.846,-19.1907"/>
<polygon fill="midnightblue" stroke="midnightblue" points="105.093,-19.4241 95.679,-24.2847 106.069,-26.3557 105.093,-19.4241"/>
</g>
<!-- Node3 -->
<g id="node5" class="node"><title>Node3</title>
<a xlink:href="tetgen_8cxx.xhtml#a0ddf1224851353fc92bfbff6f499fa97" target="_top" xlink:title="main">
<polygon fill="none" stroke="black" points="284,-20.5 284,-41.5 322,-41.5 322,-20.5 284,-20.5"/>
<text text-anchor="middle" x="303" y="-28.5" font-family="Helvetica,sans-Serif" font-size="10.00">main</text>
</a>
</g>
<!-- Node2&#45;&gt;Node3 -->
<g id="edge4" class="edge"><title>Node2&#45;&gt;Node3</title>
<path fill="none" stroke="midnightblue" d="M246.785,-40.9495C260.146,-38.5848 273.486,-36.2238 283.815,-34.3956"/>
<polygon fill="midnightblue" stroke="midnightblue" points="245.851,-37.5604 236.614,-42.7498 247.071,-44.4533 245.851,-37.5604"/>
</g>
<!-- Node4&#45;&gt;Node3 -->
<g id="edge8" class="edge"><title>Node4&#45;&gt;Node3</title>
<path fill="none" stroke="midnightblue" d="M258.123,-23.0572C267.576,-24.7302 276.575,-26.3229 283.999,-27.6369"/>
<polygon fill="midnightblue" stroke="midnightblue" points="258.612,-19.5894 248.155,-21.2929 257.392,-26.4823 258.612,-19.5894"/>
</g>
</g>
</svg>
