<?xml version="1.0" encoding="UTF-8" standalone="no"?>
<!DOCTYPE svg PUBLIC "-//W3C//DTD SVG 1.1//EN"
 "http://www.w3.org/Graphics/SVG/1.1/DTD/svg11.dtd">
<!-- Generated by graphviz version 2.26.3 (20100126.1600)
 -->
<!-- Title: GUIMainWindow::OnMenuImportObj Pages: 1 -->
<svg width="706pt" height="254pt"
 viewBox="0.00 0.00 706.00 254.00" xmlns="http://www.w3.org/2000/svg" xmlns:xlink="http://www.w3.org/1999/xlink">
<g id="graph1" class="graph" transform="scale(1 1) rotate(0) translate(4 250)">
<title>GUIMainWindow::OnMenuImportObj</title>
<!-- Node1 -->
<g id="node1" class="node"><title>Node1</title>
<polygon fill="#bfbfbf" stroke="black" points="0,-104.5 0,-125.5 176,-125.5 176,-104.5 0,-104.5"/>
<text text-anchor="middle" x="88" y="-112.5" font-family="Helvetica,sans-Serif" font-size="10.00">GUIMainWindow::OnMenuImportObj</text>
</g>
<!-- Node2 -->
<g id="node3" class="node"><title>Node2</title>
<a xlink:href="classObjectData.xhtml#ab2fabb02de2ac4b5ff09b73beb15223d" target="_top" xlink:title="Lädt ein Objekt und erste Sensordaten. ">
<polygon fill="none" stroke="black" points="212,-104.5 212,-125.5 340,-125.5 340,-104.5 212,-104.5"/>
<text text-anchor="middle" x="276" y="-112.5" font-family="Helvetica,sans-Serif" font-size="10.00">ObjectData::loadFromFile</text>
</a>
</g>
<!-- Node1&#45;&gt;Node2 -->
<g id="edge2" class="edge"><title>Node1&#45;&gt;Node2</title>
<path fill="none" stroke="midnightblue" d="M176.22,-115C184.766,-115 193.376,-115 201.766,-115"/>
<polygon fill="midnightblue" stroke="midnightblue" points="201.871,-118.5 211.871,-115 201.871,-111.5 201.871,-118.5"/>
</g>
<!-- Node3 -->
<g id="node5" class="node"><title>Node3</title>
<a xlink:href="classImporter.xhtml#a5013417fb7556dce65dba1ed3aec4e50" target="_top" xlink:title="Lädt Objektdaten aus einer .obj&#45;Datei. ">
<polygon fill="none" stroke="black" points="391.5,-164.5 391.5,-185.5 492.5,-185.5 492.5,-164.5 391.5,-164.5"/>
<text text-anchor="middle" x="442" y="-172.5" font-family="Helvetica,sans-Serif" font-size="10.00">Importer::ImportObj</text>
</a>
</g>
<!-- Node2&#45;&gt;Node3 -->
<g id="edge4" class="edge"><title>Node2&#45;&gt;Node3</title>
<path fill="none" stroke="midnightblue" d="M305.295,-125.589C332.473,-135.412 373.114,-150.101 403.022,-160.912"/>
<polygon fill="midnightblue" stroke="midnightblue" points="402.125,-164.309 412.719,-164.416 404.504,-157.726 402.125,-164.309"/>
</g>
<!-- Node7 -->
<g id="node13" class="node"><title>Node7</title>
<a xlink:href="classImporter.xhtml#a001bd26372d94f96de66f7bcb90cc790" target="_top" xlink:title="Lädt von einfache Sensordaten (ohne Zeit) und Verknüpft diese mit dem Objekt. ">
<polygon fill="none" stroke="black" points="376.5,-64.5 376.5,-85.5 507.5,-85.5 507.5,-64.5 376.5,-64.5"/>
<text text-anchor="middle" x="442" y="-72.5" font-family="Helvetica,sans-Serif" font-size="10.00">Importer::LoadSensorData</text>
</a>
</g>
<!-- Node2&#45;&gt;Node7 -->
<g id="edge12" class="edge"><title>Node2&#45;&gt;Node7</title>
<path fill="none" stroke="midnightblue" d="M319.615,-104.49C340.69,-99.412 366.176,-93.2708 388.423,-87.9102"/>
<polygon fill="midnightblue" stroke="midnightblue" points="389.487,-91.254 398.389,-85.5087 387.847,-84.4488 389.487,-91.254"/>
</g>
<!-- Node11 -->
<g id="node22" class="node"><title>Node11</title>
<a xlink:href="classImporter.xhtml#a196e66a161a0102194580ec4b10895e5" target="_top" xlink:title="Lädt zeitgesteuerte Sensordaten und Verknüpft diese mit dem Objekt. ">
<polygon fill="none" stroke="black" points="378,-104.5 378,-125.5 506,-125.5 506,-104.5 378,-104.5"/>
<text text-anchor="middle" x="442" y="-112.5" font-family="Helvetica,sans-Serif" font-size="10.00">Importer::LoadTimedData</text>
</a>
</g>
<!-- Node2&#45;&gt;Node11 -->
<g id="edge22" class="edge"><title>Node2&#45;&gt;Node11</title>
<path fill="none" stroke="midnightblue" d="M340.18,-115C349.195,-115 358.523,-115 367.707,-115"/>
<polygon fill="midnightblue" stroke="midnightblue" points="367.991,-118.5 377.991,-115 367.991,-111.5 367.991,-118.5"/>
</g>
<!-- Node4 -->
<g id="node7" class="node"><title>Node4</title>
<a xlink:href="Importer_8cpp.xhtml#a0903d5717f5c64c86b68bf17c4783e91" target="_top" xlink:title="getFaceIndex">
<polygon fill="none" stroke="black" points="583,-224.5 583,-245.5 659,-245.5 659,-224.5 583,-224.5"/>
<text text-anchor="middle" x="621" y="-232.5" font-family="Helvetica,sans-Serif" font-size="10.00">getFaceIndex</text>
</a>
</g>
<!-- Node3&#45;&gt;Node4 -->
<g id="edge6" class="edge"><title>Node3&#45;&gt;Node4</title>
<path fill="none" stroke="midnightblue" d="M466.434,-185.536C486.912,-194.134 517.043,-206.248 544,-215 553.262,-218.007 563.264,-220.875 572.894,-223.452"/>
<polygon fill="midnightblue" stroke="midnightblue" points="572.189,-226.885 582.749,-226.026 573.958,-220.113 572.189,-226.885"/>
</g>
<!-- Node5 -->
<g id="node9" class="node"><title>Node5</title>
<a xlink:href="Importer_8cpp.xhtml#a0dd0686c00e64af27b47b4c16399d747" target="_top" xlink:title="getTextBlock">
<polygon fill="none" stroke="black" points="584,-144.5 584,-165.5 658,-165.5 658,-144.5 584,-144.5"/>
<text text-anchor="middle" x="621" y="-152.5" font-family="Helvetica,sans-Serif" font-size="10.00">getTextBlock</text>
</a>
</g>
<!-- Node3&#45;&gt;Node5 -->
<g id="edge8" class="edge"><title>Node3&#45;&gt;Node5</title>
<path fill="none" stroke="midnightblue" d="M492.815,-169.322C518.252,-166.48 548.85,-163.061 573.772,-160.277"/>
<polygon fill="midnightblue" stroke="midnightblue" points="574.171,-163.754 583.721,-159.165 573.394,-156.797 574.171,-163.754"/>
</g>
<!-- Node6 -->
<g id="node11" class="node"><title>Node6</title>
<a xlink:href="classObjectData.xhtml#afda67d7524b83780e431dd3a9c5ac23a" target="_top" xlink:title="Gibt eine Referenz auf die Liste der Materialien (mit Materialdaten) des Objekts zurück. ">
<polygon fill="none" stroke="black" points="558.5,-184.5 558.5,-205.5 683.5,-205.5 683.5,-184.5 558.5,-184.5"/>
<text text-anchor="middle" x="621" y="-192.5" font-family="Helvetica,sans-Serif" font-size="10.00">ObjectData::getMaterials</text>
</a>
</g>
<!-- Node3&#45;&gt;Node6 -->
<g id="edge10" class="edge"><title>Node3&#45;&gt;Node6</title>
<path fill="none" stroke="midnightblue" d="M492.815,-180.678C509.996,-182.597 529.531,-184.78 548.082,-186.853"/>
<polygon fill="midnightblue" stroke="midnightblue" points="547.938,-190.358 558.265,-187.99 548.715,-183.402 547.938,-190.358"/>
</g>
<!-- Node7&#45;&gt;Node5 -->
<g id="edge16" class="edge"><title>Node7&#45;&gt;Node5</title>
<path fill="none" stroke="midnightblue" d="M488.507,-85.5718C495.318,-88.1065 502.038,-91.2112 508,-95 528.186,-107.828 523.561,-122.579 544,-135 553.034,-140.49 563.549,-144.485 573.852,-147.388"/>
<polygon fill="midnightblue" stroke="midnightblue" points="573.057,-150.797 583.61,-149.85 574.77,-144.01 573.057,-150.797"/>
</g>
<!-- Node8 -->
<g id="node15" class="node"><title>Node8</title>
<a xlink:href="classObjectData.xhtml#a72ac93213382f67b4d5b40c011eb1656" target="_top" xlink:title="Gibt eine Referenz auf die Sensordaten des Objekts zurück. ">
<polygon fill="none" stroke="black" points="544.5,-104.5 544.5,-125.5 697.5,-125.5 697.5,-104.5 544.5,-104.5"/>
<text text-anchor="middle" x="621" y="-112.5" font-family="Helvetica,sans-Serif" font-size="10.00">ObjectData::getSensorDataList</text>
</a>
</g>
<!-- Node7&#45;&gt;Node8 -->
<g id="edge14" class="edge"><title>Node7&#45;&gt;Node8</title>
<path fill="none" stroke="midnightblue" d="M489.03,-85.5095C512.063,-90.6566 539.982,-96.8954 564.198,-102.307"/>
<polygon fill="midnightblue" stroke="midnightblue" points="563.451,-105.726 573.974,-104.491 564.978,-98.8946 563.451,-105.726"/>
</g>
<!-- Node9 -->
<g id="node18" class="node"><title>Node9</title>
<a xlink:href="classObjectData.xhtml#a503d63160a3afe2ea517449f78f8ac42" target="_top" xlink:title="Gibt den Index des aktuell verwendeten Sensordatensatzes zurück. ">
<polygon fill="none" stroke="black" points="546.5,-52 546.5,-86 695.5,-86 695.5,-52 546.5,-52"/>
<text text-anchor="start" x="554.5" y="-73" font-family="Helvetica,sans-Serif" font-size="10.00">ObjectData::getCurrentSensor</text>
<text text-anchor="middle" x="621" y="-60" font-family="Helvetica,sans-Serif" font-size="10.00">Index</text>
</a>
</g>
<!-- Node7&#45;&gt;Node9 -->
<g id="edge18" class="edge"><title>Node7&#45;&gt;Node9</title>
<path fill="none" stroke="midnightblue" d="M507.637,-72.7999C516.869,-72.4904 526.467,-72.1687 535.997,-71.8493"/>
<polygon fill="midnightblue" stroke="midnightblue" points="536.414,-75.3373 546.291,-71.5042 536.179,-68.3413 536.414,-75.3373"/>
</g>
<!-- Node10 -->
<g id="node20" class="node"><title>Node10</title>
<a xlink:href="classObjectData.xhtml#a65bc706c460a62f98e6c24959df04c76" target="_top" xlink:title="Setzt den Index des aktuell verwendeten Sensordatensatzes. ">
<polygon fill="none" stroke="black" points="546.5,-0 546.5,-34 695.5,-34 695.5,-0 546.5,-0"/>
<text text-anchor="start" x="554.5" y="-21" font-family="Helvetica,sans-Serif" font-size="10.00">ObjectData::setCurrentSensor</text>
<text text-anchor="middle" x="621" y="-8" font-family="Helvetica,sans-Serif" font-size="10.00">Index</text>
</a>
</g>
<!-- Node7&#45;&gt;Node10 -->
<g id="edge20" class="edge"><title>Node7&#45;&gt;Node10</title>
<path fill="none" stroke="midnightblue" d="M474.416,-64.4966C497.847,-56.9042 530.238,-46.4088 558.614,-37.2145"/>
<polygon fill="midnightblue" stroke="midnightblue" points="560.028,-40.4355 568.462,-34.0235 557.87,-33.7764 560.028,-40.4355"/>
</g>
<!-- Node11&#45;&gt;Node5 -->
<g id="edge26" class="edge"><title>Node11&#45;&gt;Node5</title>
<path fill="none" stroke="midnightblue" d="M489.03,-125.51C515.183,-131.354 547.635,-138.606 573.813,-144.455"/>
<polygon fill="midnightblue" stroke="midnightblue" points="573.355,-147.939 583.877,-146.704 574.881,-141.108 573.355,-147.939"/>
</g>
<!-- Node11&#45;&gt;Node8 -->
<g id="edge24" class="edge"><title>Node11&#45;&gt;Node8</title>
<path fill="none" stroke="midnightblue" d="M506.118,-115C515.253,-115 524.772,-115 534.251,-115"/>
<polygon fill="midnightblue" stroke="midnightblue" points="534.5,-118.5 544.5,-115 534.5,-111.5 534.5,-118.5"/>
</g>
<!-- Node11&#45;&gt;Node9 -->
<g id="edge28" class="edge"><title>Node11&#45;&gt;Node9</title>
<path fill="none" stroke="midnightblue" d="M483.066,-104.447C501.333,-99.7525 523.451,-94.0684 544.576,-88.6397"/>
<polygon fill="midnightblue" stroke="midnightblue" points="545.705,-91.9634 554.519,-86.0845 543.962,-85.1837 545.705,-91.9634"/>
</g>
<!-- Node11&#45;&gt;Node10 -->
<g id="edge30" class="edge"><title>Node11&#45;&gt;Node10</title>
<path fill="none" stroke="midnightblue" d="M490.669,-104.406C496.817,-101.899 502.775,-98.8077 508,-95 530.717,-78.4455 521.546,-59.9092 544,-43 545.832,-41.6208 547.741,-40.3118 549.711,-39.0699"/>
<polygon fill="midnightblue" stroke="midnightblue" points="551.668,-41.9849 558.681,-34.0431 548.246,-35.8784 551.668,-41.9849"/>
</g>
</g>
</svg>
