<?xml version="1.0" encoding="UTF-8" standalone="no"?>
<!DOCTYPE svg PUBLIC "-//W3C//DTD SVG 1.1//EN"
 "http://www.w3.org/Graphics/SVG/1.1/DTD/svg11.dtd">
<!-- Generated by graphviz version 2.26.3 (20100126.1600)
 -->
<!-- Title: tetgenmesh::getvertexstar Pages: 1 -->
<svg width="2346pt" height="532pt"
 viewBox="0.00 0.00 2346.00 531.79" xmlns="http://www.w3.org/2000/svg" xmlns:xlink="http://www.w3.org/1999/xlink">
<g id="graph1" class="graph" transform="scale(1 1) rotate(0) translate(4 527.786)">
<title>tetgenmesh::getvertexstar</title>
<!-- Node1 -->
<g id="node1" class="node"><title>Node1</title>
<polygon fill="#bfbfbf" stroke="black" points="0.5,-315.5 0.5,-336.5 131.5,-336.5 131.5,-315.5 0.5,-315.5"/>
<text text-anchor="middle" x="66" y="-323.5" font-family="Helvetica,sans-Serif" font-size="10.00">tetgenmesh::getvertexstar</text>
</g>
<!-- Node2 -->
<g id="node3" class="node"><title>Node2</title>
<a xlink:href="classtetgenmesh.xhtml#ad3277eea82fb5eb134c5eaa6abf5c18d" target="_top" xlink:title="tetgenmesh::removevertexbyflips">
<polygon fill="none" stroke="black" points="168.5,-345.5 168.5,-366.5 329.5,-366.5 329.5,-345.5 168.5,-345.5"/>
<text text-anchor="middle" x="249" y="-353.5" font-family="Helvetica,sans-Serif" font-size="10.00">tetgenmesh::removevertexbyflips</text>
</a>
</g>
<!-- Node1&#45;&gt;Node2 -->
<g id="edge2" class="edge"><title>Node1&#45;&gt;Node2</title>
<path fill="none" stroke="midnightblue" d="M140.364,-338.191C155.127,-340.611 170.508,-343.132 184.893,-345.491"/>
<polygon fill="midnightblue" stroke="midnightblue" points="140.696,-334.699 130.262,-336.535 139.564,-341.606 140.696,-334.699"/>
</g>
<!-- Node3 -->
<g id="node5" class="node"><title>Node3</title>
<a xlink:href="classtetgenmesh.xhtml#aae5530d808e30771e717c94cb8586f0b" target="_top" xlink:title="tetgenmesh::suppressbdrysteinerpoint">
<polygon fill="none" stroke="black" points="366,-480.5 366,-501.5 548,-501.5 548,-480.5 366,-480.5"/>
<text text-anchor="middle" x="457" y="-488.5" font-family="Helvetica,sans-Serif" font-size="10.00">tetgenmesh::suppressbdrysteinerpoint</text>
</a>
</g>
<!-- Node1&#45;&gt;Node3 -->
<g id="edge80" class="edge"><title>Node1&#45;&gt;Node3</title>
<path fill="none" stroke="midnightblue" d="M95.4652,-341.188C148.549,-368.155 264.207,-425.12 366,-463 383.196,-469.399 402.588,-475.513 419.039,-480.386"/>
<polygon fill="midnightblue" stroke="midnightblue" points="96.7974,-337.938 86.2989,-336.513 93.617,-344.174 96.7974,-337.938"/>
</g>
<!-- Node4 -->
<g id="node7" class="node"><title>Node4</title>
<a xlink:href="classtetgenmesh.xhtml#affc448708b6df2b57048544d3efd6e3c" target="_top" xlink:title="tetgenmesh::suppresssteinerpoints">
<polygon fill="none" stroke="black" points="586.5,-500.5 586.5,-521.5 755.5,-521.5 755.5,-500.5 586.5,-500.5"/>
<text text-anchor="middle" x="671" y="-508.5" font-family="Helvetica,sans-Serif" font-size="10.00">tetgenmesh::suppresssteinerpoints</text>
</a>
</g>
<!-- Node1&#45;&gt;Node4 -->
<g id="edge82" class="edge"><title>Node1&#45;&gt;Node4</title>
<path fill="none" stroke="midnightblue" d="M81.1071,-344.52C99.6885,-366.345 133.084,-402.596 168,-426 247.549,-479.32 272.195,-491.716 366,-511 439.262,-526.061 524.531,-524.502 586.254,-520.078"/>
<polygon fill="midnightblue" stroke="midnightblue" points="83.6249,-342.075 74.5216,-336.654 78.2578,-346.569 83.6249,-342.075"/>
</g>
<!-- Node26 -->
<g id="node68" class="node"><title>Node26</title>
<a xlink:href="classtetgenmesh.xhtml#add13a24cf325595ef693dca96f81470c" target="_top" xlink:title="tetgenmesh::collectremovepoints">
<polygon fill="none" stroke="black" points="168.5,-286.5 168.5,-307.5 329.5,-307.5 329.5,-286.5 168.5,-286.5"/>
<text text-anchor="middle" x="249" y="-294.5" font-family="Helvetica,sans-Serif" font-size="10.00">tetgenmesh::collectremovepoints</text>
</a>
</g>
<!-- Node1&#45;&gt;Node26 -->
<g id="edge84" class="edge"><title>Node1&#45;&gt;Node26</title>
<path fill="none" stroke="midnightblue" d="M141.808,-313.987C155.37,-311.838 169.406,-309.613 182.676,-307.51"/>
<polygon fill="midnightblue" stroke="midnightblue" points="140.879,-310.59 131.55,-315.612 141.975,-317.504 140.879,-310.59"/>
</g>
<!-- Node27 -->
<g id="node71" class="node"><title>Node27</title>
<a xlink:href="classtetgenmesh.xhtml#a1d652618e67ac4ff3057373e15016181" target="_top" xlink:title="tetgenmesh::improvequalitybysmoothing">
<polygon fill="none" stroke="black" points="794,-38.5 794,-59.5 986,-59.5 986,-38.5 794,-38.5"/>
<text text-anchor="middle" x="890" y="-46.5" font-family="Helvetica,sans-Serif" font-size="10.00">tetgenmesh::improvequalitybysmoothing</text>
</a>
</g>
<!-- Node1&#45;&gt;Node27 -->
<g id="edge88" class="edge"><title>Node1&#45;&gt;Node27</title>
<path fill="none" stroke="midnightblue" d="M90.5251,-309.896C162.597,-263.52 381.416,-129.445 584,-74 652.505,-55.2507 732.6,-49.2465 793.659,-47.7993"/>
<polygon fill="midnightblue" stroke="midnightblue" points="88.5887,-306.981 82.0956,-315.353 92.3924,-312.857 88.5887,-306.981"/>
</g>
<!-- Node29 -->
<g id="node76" class="node"><title>Node29</title>
<a xlink:href="classtetgenmesh.xhtml#a684c38b1c702ea2a91efe8963f2d788b" target="_top" xlink:title="tetgenmesh::outvoronoi">
<polygon fill="none" stroke="black" points="1743.5,-0.5 1743.5,-21.5 1862.5,-21.5 1862.5,-0.5 1743.5,-0.5"/>
<text text-anchor="middle" x="1803" y="-8.5" font-family="Helvetica,sans-Serif" font-size="10.00">tetgenmesh::outvoronoi</text>
</a>
</g>
<!-- Node1&#45;&gt;Node29 -->
<g id="edge94" class="edge"><title>Node1&#45;&gt;Node29</title>
<path fill="none" stroke="midnightblue" d="M75.43,-306.023C91.0605,-274.57 124.929,-212.978 168,-173 276.083,-72.6796 309.534,-10 457,-10 457,-10 457,-10 1445,-10 1550.04,-10 1672.41,-10.4358 1743.46,-10.732"/>
<polygon fill="midnightblue" stroke="midnightblue" points="72.2365,-304.587 71.0075,-315.11 78.5306,-307.65 72.2365,-304.587"/>
</g>
<!-- Node2&#45;&gt;Node3 -->
<g id="edge4" class="edge"><title>Node2&#45;&gt;Node3</title>
<path fill="none" stroke="midnightblue" d="M263.522,-374.385C283.855,-398.892 323.153,-441.958 366,-466 377.002,-472.173 389.618,-476.895 401.882,-480.479"/>
<polygon fill="midnightblue" stroke="midnightblue" points="266.174,-372.098 257.147,-366.552 260.745,-376.517 266.174,-372.098"/>
</g>
<!-- Node2&#45;&gt;Node4 -->
<g id="edge22" class="edge"><title>Node2&#45;&gt;Node4</title>
<path fill="none" stroke="midnightblue" d="M271.23,-372.698C293.943,-389.01 330.778,-413.446 366,-428 442.817,-459.74 468.933,-445.376 548,-471 564.489,-476.344 567.643,-480.264 584,-486 598.978,-491.253 615.68,-496.252 630.413,-500.381"/>
<polygon fill="midnightblue" stroke="midnightblue" points="273.111,-369.738 262.969,-366.674 268.987,-375.394 273.111,-369.738"/>
</g>
<!-- Node12 -->
<g id="node24" class="node"><title>Node12</title>
<a xlink:href="classtetgenmesh.xhtml#a1be7dce56688fbe7a97fc31f98b61c19" target="_top" xlink:title="tetgenmesh::recoverboundary">
<polygon fill="none" stroke="black" points="1022,-462.5 1022,-483.5 1168,-483.5 1168,-462.5 1022,-462.5"/>
<text text-anchor="middle" x="1095" y="-470.5" font-family="Helvetica,sans-Serif" font-size="10.00">tetgenmesh::recoverboundary</text>
</a>
</g>
<!-- Node2&#45;&gt;Node12 -->
<g id="edge24" class="edge"><title>Node2&#45;&gt;Node12</title>
<path fill="none" stroke="midnightblue" d="M325.36,-368.34C386.859,-379.702 474.816,-399.196 548,-428 565.032,-434.703 566.399,-442.977 584,-448 734.965,-491.082 921.059,-486.591 1021.81,-479.682"/>
<polygon fill="midnightblue" stroke="midnightblue" points="325.807,-364.864 315.342,-366.518 324.554,-371.751 325.807,-364.864"/>
</g>
<!-- Node13 -->
<g id="node27" class="node"><title>Node13</title>
<a xlink:href="classtetgenmesh.xhtml#a85e17b620820cbcb6cb47b565f822062" target="_top" xlink:title="tetgenmesh::meshcoarsening">
<polygon fill="none" stroke="black" points="384.5,-248.5 384.5,-269.5 529.5,-269.5 529.5,-248.5 384.5,-248.5"/>
<text text-anchor="middle" x="457" y="-256.5" font-family="Helvetica,sans-Serif" font-size="10.00">tetgenmesh::meshcoarsening</text>
</a>
</g>
<!-- Node2&#45;&gt;Node13 -->
<g id="edge28" class="edge"><title>Node2&#45;&gt;Node13</title>
<path fill="none" stroke="midnightblue" d="M286.56,-341.351C300.816,-334.93 316.787,-326.645 330,-317 348.79,-303.283 345.746,-290.446 366,-279 372.76,-275.18 380.184,-272.089 387.785,-269.589"/>
<polygon fill="midnightblue" stroke="midnightblue" points="284.798,-338.301 277.019,-345.493 287.585,-344.722 284.798,-338.301"/>
</g>
<!-- Node14 -->
<g id="node30" class="node"><title>Node14</title>
<a xlink:href="classtetgenmesh.xhtml#a6755cfa20d8ea6ce62d059750657a292" target="_top" xlink:title="tetgenmesh::lawsonflip3d">
<polygon fill="none" stroke="black" points="393,-288.5 393,-309.5 521,-309.5 521,-288.5 393,-288.5"/>
<text text-anchor="middle" x="457" y="-296.5" font-family="Helvetica,sans-Serif" font-size="10.00">tetgenmesh::lawsonflip3d</text>
</a>
</g>
<!-- Node2&#45;&gt;Node14 -->
<g id="edge32" class="edge"><title>Node2&#45;&gt;Node14</title>
<path fill="none" stroke="midnightblue" d="M297.663,-342.665C334.53,-332.562 384.486,-318.872 418.571,-309.531"/>
<polygon fill="midnightblue" stroke="midnightblue" points="296.355,-339.394 287.636,-345.412 298.205,-346.145 296.355,-339.394"/>
</g>
<!-- Node3&#45;&gt;Node4 -->
<g id="edge6" class="edge"><title>Node3&#45;&gt;Node4</title>
<path fill="none" stroke="midnightblue" d="M558.27,-500.464C567.709,-501.347 577.207,-502.234 586.47,-503.1"/>
<polygon fill="midnightblue" stroke="midnightblue" points="558.348,-496.957 548.066,-499.511 557.696,-503.926 558.348,-496.957"/>
</g>
<!-- Node5 -->
<g id="node9" class="node"><title>Node5</title>
<a xlink:href="tetgen_8h.xhtml#ad3637eb4ffe7fda90667e67b7771d964" target="_top" xlink:title="tetrahedralize">
<polygon fill="none" stroke="black" points="1918.5,-154.5 1918.5,-175.5 1993.5,-175.5 1993.5,-154.5 1918.5,-154.5"/>
<text text-anchor="middle" x="1956" y="-162.5" font-family="Helvetica,sans-Serif" font-size="10.00">tetrahedralize</text>
</a>
</g>
<!-- Node4&#45;&gt;Node5 -->
<g id="edge8" class="edge"><title>Node4&#45;&gt;Node5</title>
<path fill="none" stroke="midnightblue" d="M766.127,-511.353C852.059,-511.64 981.999,-512 1095,-512 1095,-512 1095,-512 1621,-512 1684.62,-512 1825.03,-460.814 1882,-396 1941.78,-327.997 1953.34,-211.285 1955.51,-175.645"/>
<polygon fill="midnightblue" stroke="midnightblue" points="765.882,-507.852 755.87,-511.318 765.858,-514.852 765.882,-507.852"/>
</g>
<!-- Node6 -->
<g id="node11" class="node"><title>Node6</title>
<a xlink:href="classGUICutRenderWindow.xhtml#a9eedb7088ad31f4680a77ed3a06fa60c" target="_top" xlink:title="Berechnet die 2D&#45;Temperaturverteilung als Grafik. ">
<polygon fill="none" stroke="black" points="2032.5,-194 2032.5,-228 2149.5,-228 2149.5,-194 2032.5,-194"/>
<text text-anchor="start" x="2040.5" y="-215" font-family="Helvetica,sans-Serif" font-size="10.00">GUICutRenderWindow</text>
<text text-anchor="middle" x="2091" y="-202" font-family="Helvetica,sans-Serif" font-size="10.00">::renderImage</text>
</a>
</g>
<!-- Node5&#45;&gt;Node6 -->
<g id="edge10" class="edge"><title>Node5&#45;&gt;Node6</title>
<path fill="none" stroke="midnightblue" d="M1996.73,-178.877C2010.62,-183.611 2026.32,-188.96 2040.86,-193.915"/>
<polygon fill="midnightblue" stroke="midnightblue" points="1997.57,-175.466 1986.97,-175.553 1995.31,-182.092 1997.57,-175.466"/>
</g>
<!-- Node8 -->
<g id="node15" class="node"><title>Node8</title>
<a xlink:href="classObjectData.xhtml#af3a850833d08eb9b45357449f455e24d" target="_top" xlink:title="Zerlegt das Objekt in Tetraeder (Schnittstelle zur Tetgen&#45;Bibliothek) und Berechnet die Temperaturver...">
<polygon fill="none" stroke="black" points="2030,-154.5 2030,-175.5 2152,-175.5 2152,-154.5 2030,-154.5"/>
<text text-anchor="middle" x="2091" y="-162.5" font-family="Helvetica,sans-Serif" font-size="10.00">ObjectData::calculateIO</text>
</a>
</g>
<!-- Node5&#45;&gt;Node8 -->
<g id="edge14" class="edge"><title>Node5&#45;&gt;Node8</title>
<path fill="none" stroke="midnightblue" d="M2003.65,-165C2012.11,-165 2021.02,-165 2029.8,-165"/>
<polygon fill="midnightblue" stroke="midnightblue" points="2003.61,-161.5 1993.61,-165 2003.6,-168.5 2003.61,-161.5"/>
</g>
<!-- Node11 -->
<g id="node21" class="node"><title>Node11</title>
<a xlink:href="tetgen_8cxx.xhtml#a0ddf1224851353fc92bfbff6f499fa97" target="_top" xlink:title="main">
<polygon fill="none" stroke="black" points="2072,-114.5 2072,-135.5 2110,-135.5 2110,-114.5 2072,-114.5"/>
<text text-anchor="middle" x="2091" y="-122.5" font-family="Helvetica,sans-Serif" font-size="10.00">main</text>
</a>
</g>
<!-- Node5&#45;&gt;Node11 -->
<g id="edge20" class="edge"><title>Node5&#45;&gt;Node11</title>
<path fill="none" stroke="midnightblue" d="M2001.15,-151.621C2025.27,-144.476 2053.67,-136.061 2071.98,-130.634"/>
<polygon fill="midnightblue" stroke="midnightblue" points="2000.06,-148.294 1991.47,-154.49 2002.05,-155.005 2000.06,-148.294"/>
</g>
<!-- Node7 -->
<g id="node13" class="node"><title>Node7</title>
<a xlink:href="classGUICutRenderWindow.xhtml#a7cd1bfbec53756a1cbbe1616b4d46c7a" target="_top" xlink:title="Behandelt das Drücken des Buttons zur Berechnung der zweidimensionalen Temperaturverteilung. ">
<polygon fill="none" stroke="black" points="2204.5,-194 2204.5,-228 2321.5,-228 2321.5,-194 2204.5,-194"/>
<text text-anchor="start" x="2212.5" y="-215" font-family="Helvetica,sans-Serif" font-size="10.00">GUICutRenderWindow</text>
<text text-anchor="middle" x="2263" y="-202" font-family="Helvetica,sans-Serif" font-size="10.00">::renderCutBtClick</text>
</a>
</g>
<!-- Node6&#45;&gt;Node7 -->
<g id="edge12" class="edge"><title>Node6&#45;&gt;Node7</title>
<path fill="none" stroke="midnightblue" d="M2159.78,-211C2174.51,-211 2189.95,-211 2204.26,-211"/>
<polygon fill="midnightblue" stroke="midnightblue" points="2159.71,-207.5 2149.71,-211 2159.71,-214.5 2159.71,-207.5"/>
</g>
<!-- Node9 -->
<g id="node17" class="node"><title>Node9</title>
<a xlink:href="classGUIMainWindow.xhtml#a0c2de30274c7f52ff74ec1217e47a9e5" target="_top" xlink:title="Berechnet die 3D&#45;Temperaturverteilung neu. ">
<polygon fill="none" stroke="black" points="2188,-102 2188,-136 2338,-136 2338,-102 2188,-102"/>
<text text-anchor="start" x="2196" y="-123" font-family="Helvetica,sans-Serif" font-size="10.00">GUIMainWindow::OnRecalcBt</text>
<text text-anchor="middle" x="2263" y="-110" font-family="Helvetica,sans-Serif" font-size="10.00">Click</text>
</a>
</g>
<!-- Node8&#45;&gt;Node9 -->
<g id="edge16" class="edge"><title>Node8&#45;&gt;Node9</title>
<path fill="none" stroke="midnightblue" d="M2140.33,-151.808C2158.64,-146.91 2179.69,-141.281 2199.12,-136.085"/>
<polygon fill="midnightblue" stroke="midnightblue" points="2139.22,-148.482 2130.46,-154.447 2141.03,-155.244 2139.22,-148.482"/>
</g>
<!-- Node10 -->
<g id="node19" class="node"><title>Node10</title>
<a xlink:href="classGUITimeline.xhtml#a099f3654aa6e7ea04df861851a0e9ec8" target="_top" xlink:title="Sucht den Zeitpunkt zwischen zwei markierten Stellen auf der Sensordaten&#45;Zeitleiste, für den der Wäremeenergiegehalt maximal wird. ">
<polygon fill="none" stroke="black" points="2194.5,-154.5 2194.5,-175.5 2331.5,-175.5 2331.5,-154.5 2194.5,-154.5"/>
<text text-anchor="middle" x="2263" y="-162.5" font-family="Helvetica,sans-Serif" font-size="10.00">GUITimeline::findMaxValue</text>
</a>
</g>
<!-- Node8&#45;&gt;Node10 -->
<g id="edge18" class="edge"><title>Node8&#45;&gt;Node10</title>
<path fill="none" stroke="midnightblue" d="M2162.23,-165C2172.89,-165 2183.86,-165 2194.46,-165"/>
<polygon fill="midnightblue" stroke="midnightblue" points="2162.13,-161.5 2152.13,-165 2162.13,-168.5 2162.13,-161.5"/>
</g>
<!-- Node12&#45;&gt;Node5 -->
<g id="edge26" class="edge"><title>Node12&#45;&gt;Node5</title>
<path fill="none" stroke="midnightblue" d="M1178.28,-473C1249.19,-473 1353.78,-473 1445,-473 1445,-473 1445,-473 1621,-473 1757.53,-473 1789.72,-411.618 1882,-311 1920.99,-268.486 1944.68,-201.592 1952.81,-175.716"/>
<polygon fill="midnightblue" stroke="midnightblue" points="1178.07,-469.5 1168.07,-473 1178.07,-476.5 1178.07,-469.5"/>
</g>
<!-- Node13&#45;&gt;Node5 -->
<g id="edge30" class="edge"><title>Node13&#45;&gt;Node5</title>
<path fill="none" stroke="midnightblue" d="M471.722,-240.535C493.392,-214.728 536.483,-168.414 584,-145 708.092,-83.8529 751.661,-88 890,-88 890,-88 890,-88 1621,-88 1738.35,-88 1770.16,-92.4392 1882,-128 1902.4,-134.485 1924.12,-145.955 1938.71,-154.411"/>
<polygon fill="midnightblue" stroke="midnightblue" points="468.87,-238.492 465.219,-248.438 474.275,-242.94 468.87,-238.492"/>
</g>
<!-- Node15 -->
<g id="node32" class="node"><title>Node15</title>
<a xlink:href="classtetgenmesh.xhtml#ad71017c71bd2cac0232c410a651ed085" target="_top" xlink:title="tetgenmesh::carveholes">
<polygon fill="none" stroke="black" points="1209.5,-154.5 1209.5,-175.5 1330.5,-175.5 1330.5,-154.5 1209.5,-154.5"/>
<text text-anchor="middle" x="1270" y="-162.5" font-family="Helvetica,sans-Serif" font-size="10.00">tetgenmesh::carveholes</text>
</a>
</g>
<!-- Node14&#45;&gt;Node15 -->
<g id="edge34" class="edge"><title>Node14&#45;&gt;Node15</title>
<path fill="none" stroke="midnightblue" d="M530.807,-287.843C536.868,-285.436 542.694,-282.524 548,-279 571.112,-263.651 559.976,-241.879 584,-228 610.909,-212.455 1046.44,-180.615 1209.24,-169.194"/>
<polygon fill="midnightblue" stroke="midnightblue" points="529.416,-284.621 521.129,-291.223 531.724,-291.23 529.416,-284.621"/>
</g>
<!-- Node16 -->
<g id="node35" class="node"><title>Node16</title>
<a xlink:href="classtetgenmesh.xhtml#ac8205cae8e16f490b80d74975934ff74" target="_top" xlink:title="tetgenmesh::insertconstrainedpoints">
<polygon fill="none" stroke="black" points="584,-154.5 584,-175.5 758,-175.5 758,-154.5 584,-154.5"/>
<text text-anchor="middle" x="671" y="-162.5" font-family="Helvetica,sans-Serif" font-size="10.00">tetgenmesh::insertconstrainedpoints</text>
</a>
</g>
<!-- Node14&#45;&gt;Node16 -->
<g id="edge38" class="edge"><title>Node14&#45;&gt;Node16</title>
<path fill="none" stroke="midnightblue" d="M530.73,-289.561C536.97,-286.81 542.852,-283.348 548,-279 580.597,-251.467 552.293,-218.554 584,-190 590.89,-183.795 599.225,-179.123 607.974,-175.605"/>
<polygon fill="midnightblue" stroke="midnightblue" points="529.488,-286.288 521.373,-293.1 531.964,-292.835 529.488,-286.288"/>
</g>
<!-- Node18 -->
<g id="node40" class="node"><title>Node18</title>
<a xlink:href="classtetgenmesh.xhtml#a6394d7b4d386e8d08077c39cd8983e0e" target="_top" xlink:title="tetgenmesh::splitsegment">
<polygon fill="none" stroke="black" points="606.5,-327.5 606.5,-348.5 735.5,-348.5 735.5,-327.5 606.5,-327.5"/>
<text text-anchor="middle" x="671" y="-335.5" font-family="Helvetica,sans-Serif" font-size="10.00">tetgenmesh::splitsegment</text>
</a>
</g>
<!-- Node14&#45;&gt;Node18 -->
<g id="edge44" class="edge"><title>Node14&#45;&gt;Node18</title>
<path fill="none" stroke="midnightblue" d="M524.518,-311.305C553.034,-316.502 585.901,-322.491 613.268,-327.479"/>
<polygon fill="midnightblue" stroke="midnightblue" points="525.095,-307.852 514.63,-309.503 523.84,-314.739 525.095,-307.852"/>
</g>
<!-- Node20 -->
<g id="node44" class="node"><title>Node20</title>
<a xlink:href="classtetgenmesh.xhtml#a3a8404870ab3c2e8ce4312d48c2b29f4" target="_top" xlink:title="tetgenmesh::splitsubface">
<polygon fill="none" stroke="black" points="1032,-270.5 1032,-291.5 1158,-291.5 1158,-270.5 1032,-270.5"/>
<text text-anchor="middle" x="1095" y="-278.5" font-family="Helvetica,sans-Serif" font-size="10.00">tetgenmesh::splitsubface</text>
</a>
</g>
<!-- Node14&#45;&gt;Node20 -->
<g id="edge72" class="edge"><title>Node14&#45;&gt;Node20</title>
<path fill="none" stroke="midnightblue" d="M531.469,-296.899C658.159,-293.325 913.395,-286.124 1031.89,-282.78"/>
<polygon fill="midnightblue" stroke="midnightblue" points="530.992,-293.411 521.095,-297.192 531.19,-300.408 530.992,-293.411"/>
</g>
<!-- Node22 -->
<g id="node48" class="node"><title>Node22</title>
<a xlink:href="classtetgenmesh.xhtml#aa752155eb1d18550a212dd40297f122e" target="_top" xlink:title="tetgenmesh::splittetrahedron">
<polygon fill="none" stroke="black" points="1375,-348.5 1375,-369.5 1515,-369.5 1515,-348.5 1375,-348.5"/>
<text text-anchor="middle" x="1445" y="-356.5" font-family="Helvetica,sans-Serif" font-size="10.00">tetgenmesh::splittetrahedron</text>
</a>
</g>
<!-- Node14&#45;&gt;Node22 -->
<g id="edge74" class="edge"><title>Node14&#45;&gt;Node22</title>
<path fill="none" stroke="midnightblue" d="M485.376,-314.453C553.192,-349.894 730.891,-434 890,-434 890,-434 890,-434 1095,-434 1216.49,-434 1356.54,-390.26 1415.95,-369.587"/>
<polygon fill="midnightblue" stroke="midnightblue" points="486.659,-311.173 476.183,-309.593 483.387,-317.361 486.659,-311.173"/>
</g>
<!-- Node25 -->
<g id="node63" class="node"><title>Node25</title>
<a xlink:href="classtetgenmesh.xhtml#a4f6f365744005e9d9da43a7d8a1fbba8" target="_top" xlink:title="tetgenmesh::recoverdelaunay">
<polygon fill="none" stroke="black" points="1372.5,-193.5 1372.5,-214.5 1517.5,-214.5 1517.5,-193.5 1372.5,-193.5"/>
<text text-anchor="middle" x="1445" y="-201.5" font-family="Helvetica,sans-Serif" font-size="10.00">tetgenmesh::recoverdelaunay</text>
</a>
</g>
<!-- Node14&#45;&gt;Node25 -->
<g id="edge76" class="edge"><title>Node14&#45;&gt;Node25</title>
<path fill="none" stroke="midnightblue" d="M531.578,-290.846C665.928,-276.283 957.578,-245.246 1204,-223 1260.53,-217.896 1324.6,-212.882 1372.46,-209.287"/>
<polygon fill="midnightblue" stroke="midnightblue" points="530.965,-287.392 521.401,-291.95 531.72,-294.351 530.965,-287.392"/>
</g>
<!-- Node15&#45;&gt;Node5 -->
<g id="edge36" class="edge"><title>Node15&#45;&gt;Node5</title>
<path fill="none" stroke="midnightblue" d="M1340.64,-165C1484.73,-165 1808.26,-165 1918.43,-165"/>
<polygon fill="midnightblue" stroke="midnightblue" points="1340.58,-161.5 1330.58,-165 1340.58,-168.5 1340.58,-161.5"/>
</g>
<!-- Node16&#45;&gt;Node5 -->
<g id="edge42" class="edge"><title>Node16&#45;&gt;Node5</title>
<path fill="none" stroke="midnightblue" d="M738.516,-152.799C756.498,-149.884 775.944,-147.033 794,-145 927.202,-130.003 960.956,-126 1095,-126 1095,-126 1095,-126 1621,-126 1729.61,-126 1856.72,-146.477 1918.49,-157.756"/>
<polygon fill="midnightblue" stroke="midnightblue" points="737.704,-149.385 728.408,-154.468 738.844,-156.292 737.704,-149.385"/>
</g>
<!-- Node17 -->
<g id="node37" class="node"><title>Node17</title>
<a xlink:href="classtetgenmesh.xhtml#ab859365ca3dd3eafb77fac56d0ae3a03" target="_top" xlink:title="tetgenmesh::insertconstrainedpoints">
<polygon fill="none" stroke="black" points="803,-154.5 803,-175.5 977,-175.5 977,-154.5 803,-154.5"/>
<text text-anchor="middle" x="890" y="-162.5" font-family="Helvetica,sans-Serif" font-size="10.00">tetgenmesh::insertconstrainedpoints</text>
</a>
</g>
<!-- Node16&#45;&gt;Node17 -->
<g id="edge40" class="edge"><title>Node16&#45;&gt;Node17</title>
<path fill="none" stroke="midnightblue" d="M768.229,-165C779.728,-165 791.41,-165 802.758,-165"/>
<polygon fill="midnightblue" stroke="midnightblue" points="768.184,-161.5 758.184,-165 768.184,-168.5 768.184,-161.5"/>
</g>
<!-- Node19 -->
<g id="node42" class="node"><title>Node19</title>
<a xlink:href="classtetgenmesh.xhtml#a7af360f1ae413f9e0d7803ccae55b6d6" target="_top" xlink:title="tetgenmesh::repairencsegs">
<polygon fill="none" stroke="black" points="823,-346.5 823,-367.5 957,-367.5 957,-346.5 823,-346.5"/>
<text text-anchor="middle" x="890" y="-354.5" font-family="Helvetica,sans-Serif" font-size="10.00">tetgenmesh::repairencsegs</text>
</a>
</g>
<!-- Node18&#45;&gt;Node19 -->
<g id="edge46" class="edge"><title>Node18&#45;&gt;Node19</title>
<path fill="none" stroke="midnightblue" d="M745.701,-344.481C770.736,-346.653 798.48,-349.06 822.898,-351.178"/>
<polygon fill="midnightblue" stroke="midnightblue" points="745.788,-340.975 735.523,-343.598 745.183,-347.949 745.788,-340.975"/>
</g>
<!-- Node18&#45;&gt;Node20 -->
<g id="edge68" class="edge"><title>Node18&#45;&gt;Node20</title>
<path fill="none" stroke="midnightblue" d="M746.022,-327.914C827.307,-316.987 955.575,-299.743 1031.88,-289.485"/>
<polygon fill="midnightblue" stroke="midnightblue" points="745.303,-324.48 735.858,-329.281 746.235,-331.417 745.303,-324.48"/>
</g>
<!-- Node18&#45;&gt;Node22 -->
<g id="edge70" class="edge"><title>Node18&#45;&gt;Node22</title>
<path fill="none" stroke="midnightblue" d="M705.841,-352.209C730.099,-361.311 763.452,-372.273 794,-377 1003.22,-409.375 1254.67,-384.759 1374.63,-369.202"/>
<polygon fill="midnightblue" stroke="midnightblue" points="706.953,-348.887 696.363,-348.573 704.447,-355.422 706.953,-348.887"/>
</g>
<!-- Node19&#45;&gt;Node20 -->
<g id="edge48" class="edge"><title>Node19&#45;&gt;Node20</title>
<path fill="none" stroke="midnightblue" d="M954.598,-343.704C965.329,-340.504 976.158,-336.635 986,-332 1003.86,-323.591 1004.47,-315.074 1022,-306 1033.06,-300.272 1045.72,-295.407 1057.36,-291.533"/>
<polygon fill="midnightblue" stroke="midnightblue" points="953.483,-340.382 944.803,-346.457 955.377,-347.121 953.483,-340.382"/>
</g>
<!-- Node19&#45;&gt;Node22 -->
<g id="edge64" class="edge"><title>Node19&#45;&gt;Node22</title>
<path fill="none" stroke="midnightblue" d="M967.421,-357.279C1075.67,-357.669 1270.64,-358.372 1374.84,-358.747"/>
<polygon fill="midnightblue" stroke="midnightblue" points="967.235,-353.778 957.222,-357.242 967.21,-360.778 967.235,-353.778"/>
</g>
<!-- Node24 -->
<g id="node52" class="node"><title>Node24</title>
<a xlink:href="classtetgenmesh.xhtml#a477bbfde72103de66546d4ea3343b4a1" target="_top" xlink:title="tetgenmesh::delaunayrefinement">
<polygon fill="none" stroke="black" points="1724,-280.5 1724,-301.5 1882,-301.5 1882,-280.5 1724,-280.5"/>
<text text-anchor="middle" x="1803" y="-288.5" font-family="Helvetica,sans-Serif" font-size="10.00">tetgenmesh::delaunayrefinement</text>
</a>
</g>
<!-- Node19&#45;&gt;Node24 -->
<g id="edge66" class="edge"><title>Node19&#45;&gt;Node24</title>
<path fill="none" stroke="midnightblue" d="M967.125,-345.062C1043.75,-334.249 1164.7,-320 1270,-320 1270,-320 1270,-320 1445,-320 1541.18,-320 1651.43,-309.471 1723.88,-301.102"/>
<polygon fill="midnightblue" stroke="midnightblue" points="966.483,-341.618 957.078,-346.496 967.472,-348.548 966.483,-341.618"/>
</g>
<!-- Node21 -->
<g id="node46" class="node"><title>Node21</title>
<a xlink:href="classtetgenmesh.xhtml#a701d4f317ed66df6a2e2b7b237e2386a" target="_top" xlink:title="tetgenmesh::repairencfacs">
<polygon fill="none" stroke="black" points="1204,-232.5 1204,-253.5 1336,-253.5 1336,-232.5 1204,-232.5"/>
<text text-anchor="middle" x="1270" y="-240.5" font-family="Helvetica,sans-Serif" font-size="10.00">tetgenmesh::repairencfacs</text>
</a>
</g>
<!-- Node20&#45;&gt;Node21 -->
<g id="edge50" class="edge"><title>Node20&#45;&gt;Node21</title>
<path fill="none" stroke="midnightblue" d="M1153.66,-268.263C1175.7,-263.476 1200.5,-258.092 1221.51,-253.528"/>
<polygon fill="midnightblue" stroke="midnightblue" points="1152.78,-264.873 1143.75,-270.415 1154.26,-271.713 1152.78,-264.873"/>
</g>
<!-- Node20&#45;&gt;Node22 -->
<g id="edge62" class="edge"><title>Node20&#45;&gt;Node22</title>
<path fill="none" stroke="midnightblue" d="M1152.38,-293.788C1220.85,-309.046 1334.03,-334.271 1397.71,-348.461"/>
<polygon fill="midnightblue" stroke="midnightblue" points="1152.72,-290.279 1142.2,-291.519 1151.2,-297.111 1152.72,-290.279"/>
</g>
<!-- Node21&#45;&gt;Node22 -->
<g id="edge52" class="edge"><title>Node21&#45;&gt;Node22</title>
<path fill="none" stroke="midnightblue" d="M1313.78,-257.216C1321.39,-260.349 1329.08,-263.957 1336,-268 1376.23,-291.508 1416.47,-329.905 1434.78,-348.394"/>
<polygon fill="midnightblue" stroke="midnightblue" points="1314.82,-253.867 1304.23,-253.507 1312.28,-260.392 1314.82,-253.867"/>
</g>
<!-- Node21&#45;&gt;Node24 -->
<g id="edge60" class="edge"><title>Node21&#45;&gt;Node24</title>
<path fill="none" stroke="midnightblue" d="M1346.23,-249.865C1446.58,-258.902 1622.17,-274.715 1723.92,-283.879"/>
<polygon fill="midnightblue" stroke="midnightblue" points="1346.43,-246.369 1336.16,-248.958 1345.8,-253.341 1346.43,-246.369"/>
</g>
<!-- Node23 -->
<g id="node50" class="node"><title>Node23</title>
<a xlink:href="classtetgenmesh.xhtml#a7c46c82d83099214115fa9719aefbd78" target="_top" xlink:title="tetgenmesh::repairbadtets">
<polygon fill="none" stroke="black" points="1556,-348.5 1556,-369.5 1686,-369.5 1686,-348.5 1556,-348.5"/>
<text text-anchor="middle" x="1621" y="-356.5" font-family="Helvetica,sans-Serif" font-size="10.00">tetgenmesh::repairbadtets</text>
</a>
</g>
<!-- Node22&#45;&gt;Node23 -->
<g id="edge54" class="edge"><title>Node22&#45;&gt;Node23</title>
<path fill="none" stroke="midnightblue" d="M1525.22,-359C1535.44,-359 1545.8,-359 1555.75,-359"/>
<polygon fill="midnightblue" stroke="midnightblue" points="1525.07,-355.5 1515.07,-359 1525.07,-362.5 1525.07,-355.5"/>
</g>
<!-- Node23&#45;&gt;Node24 -->
<g id="edge56" class="edge"><title>Node23&#45;&gt;Node24</title>
<path fill="none" stroke="midnightblue" d="M1658.95,-344.844C1668.44,-341.304 1678.59,-337.514 1688,-334 1717.55,-322.961 1751.37,-310.314 1774.65,-301.608"/>
<polygon fill="midnightblue" stroke="midnightblue" points="1657.51,-341.646 1649.36,-348.421 1659.96,-348.205 1657.51,-341.646"/>
</g>
<!-- Node24&#45;&gt;Node5 -->
<g id="edge58" class="edge"><title>Node24&#45;&gt;Node5</title>
<path fill="none" stroke="midnightblue" d="M1823.63,-274.012C1855.63,-247.66 1916.31,-197.685 1942.93,-175.763"/>
<polygon fill="midnightblue" stroke="midnightblue" points="1821.28,-271.415 1815.78,-280.474 1825.73,-276.819 1821.28,-271.415"/>
</g>
<!-- Node25&#45;&gt;Node5 -->
<g id="edge78" class="edge"><title>Node25&#45;&gt;Node5</title>
<path fill="none" stroke="midnightblue" d="M1527.76,-202.462C1615.85,-200.079 1759.2,-194.064 1882,-179 1893.81,-177.551 1906.57,-175.363 1918.12,-173.145"/>
<polygon fill="midnightblue" stroke="midnightblue" points="1527.46,-198.968 1517.56,-202.728 1527.64,-205.966 1527.46,-198.968"/>
</g>
<!-- Node26&#45;&gt;Node13 -->
<g id="edge86" class="edge"><title>Node26&#45;&gt;Node13</title>
<path fill="none" stroke="midnightblue" d="M316.682,-284.635C343.334,-279.766 373.625,-274.232 399.224,-269.555"/>
<polygon fill="midnightblue" stroke="midnightblue" points="315.872,-281.225 306.663,-286.465 317.13,-288.111 315.872,-281.225"/>
</g>
<!-- Node28 -->
<g id="node73" class="node"><title>Node28</title>
<a xlink:href="classtetgenmesh.xhtml#a8bb5c6ad8ccfa57f2a84e5a78295b263" target="_top" xlink:title="tetgenmesh::optimizemesh">
<polygon fill="none" stroke="black" points="1554,-38.5 1554,-59.5 1688,-59.5 1688,-38.5 1554,-38.5"/>
<text text-anchor="middle" x="1621" y="-46.5" font-family="Helvetica,sans-Serif" font-size="10.00">tetgenmesh::optimizemesh</text>
</a>
</g>
<!-- Node27&#45;&gt;Node28 -->
<g id="edge90" class="edge"><title>Node27&#45;&gt;Node28</title>
<path fill="none" stroke="midnightblue" d="M996.656,-49C1149.55,-49 1426.59,-49 1553.82,-49"/>
<polygon fill="midnightblue" stroke="midnightblue" points="996.317,-45.5001 986.317,-49 996.317,-52.5001 996.317,-45.5001"/>
</g>
<!-- Node28&#45;&gt;Node5 -->
<g id="edge92" class="edge"><title>Node28&#45;&gt;Node5</title>
<path fill="none" stroke="midnightblue" d="M1698.35,-41.2207C1752.81,-39.2382 1825.74,-43.8621 1882,-74 1916.46,-92.4613 1940.86,-134.418 1950.9,-154.243"/>
<polygon fill="midnightblue" stroke="midnightblue" points="1697.89,-37.7375 1688.06,-41.6812 1698.21,-44.7305 1697.89,-37.7375"/>
</g>
<!-- Node29&#45;&gt;Node5 -->
<g id="edge96" class="edge"><title>Node29&#45;&gt;Node5</title>
<path fill="none" stroke="midnightblue" d="M1865.15,-25.623C1871.18,-28.4896 1876.93,-31.913 1882,-36 1922.41,-68.5607 1944.98,-129.516 1952.82,-154.204"/>
<polygon fill="midnightblue" stroke="midnightblue" points="1866.08,-22.2165 1855.5,-21.5613 1863.36,-28.6679 1866.08,-22.2165"/>
</g>
</g>
</svg>
