<?xml version="1.0" encoding="UTF-8" standalone="no"?>
<!DOCTYPE svg PUBLIC "-//W3C//DTD SVG 1.1//EN"
 "http://www.w3.org/Graphics/SVG/1.1/DTD/svg11.dtd">
<!-- Generated by graphviz version 2.26.3 (20100126.1600)
 -->
<!-- Title: tetgenmesh Pages: 1 -->
<!--zoomable 663 -->
<svg id="main" version="1.1" xmlns="http://www.w3.org/2000/svg" xmlns:xlink="http://www.w3.org/1999/xlink" xml:space="preserve" onload="init(evt)">
<style type="text/css"><![CDATA[
.edge:hover path { stroke: red; }
.edge:hover polygon { stroke: red; fill: red; }
]]></style>
<script type="text/javascript"><![CDATA[
var edges = document.getElementsByTagName('g');
if (edges && edges.length) {
  for (var i=0;i<edges.length;i++) {
    if (edges[i].id.substr(0,4)=='edge') {
      edges[i].setAttribute('class','edge');
    }
  }
}
]]></script>
        <defs>
                <circle id="rim" cx="0" cy="0" r="7"/>
                <circle id="rim2" cx="0" cy="0" r="3.5"/>
                <g id="zoomPlus">
                        <use xlink:href="#rim" fill="#404040">
                                <set attributeName="fill" to="#808080" begin="zoomplus.mouseover" end="zoomplus.mouseout"/>
                        </use>
                        <path d="M-4,0h8M0,-4v8" fill="none" stroke="white" stroke-width="1.5" pointer-events="none"/>
                </g>
                <g id="zoomMin">
                        <use xlink:href="#rim" fill="#404040">
                                <set attributeName="fill" to="#808080" begin="zoomminus.mouseover" end="zoomminus.mouseout"/>
                        </use>
                        <path d="M-4,0h8" fill="none" stroke="white" stroke-width="1.5" pointer-events="none"/>
                </g>
                <g id="dirArrow">
                        <path fill="none" stroke="white" stroke-width="1.5" d="M0,-3.0v7 M-2.5,-0.5L0,-3.0L2.5,-0.5"/>
                </g>
               <g id="resetDef">
                       <use xlink:href="#rim2" fill="#404040">
                               <set attributeName="fill" to="#808080" begin="reset.mouseover" end="reset.mouseout"/>
                       </use>
               </g>
        </defs>

<script type="text/javascript">
var viewWidth = 692;
var viewHeight = 663;
var sectionId = 'dynsection-0';
</script>
<script xlink:href="svgpan.js"/>
<svg id="graph" class="graph">
<g id="viewport">
<title>tetgenmesh</title>
<!-- Node1 -->
<g id="node1" class="node"><title>Node1</title>
<polygon fill="#bfbfbf" stroke="black" points="616,-293.5 616,-314.5 684,-314.5 684,-293.5 616,-293.5"/>
<text text-anchor="middle" x="650" y="-301.5" font-family="Helvetica,sans-Serif" font-size="10.00">tetgenmesh</text>
</g>
<!-- Node1&#45;&gt;Node1 -->
<g id="edge8" class="edge"><title>Node1&#45;&gt;Node1</title>
<path fill="none" stroke="#9a32cd" stroke-dasharray="5,2" d="M633.152,-324.793C634.639,-329.529 640.255,-333 650,-333 665.992,-333 670.865,-323.653 664.618,-314.708"/>
<polygon fill="#9a32cd" stroke="#9a32cd" points="636.64,-325.228 635.382,-314.708 629.805,-323.716 636.64,-325.228"/>
<text text-anchor="middle" x="650" y="-337" font-family="Helvetica,sans-Serif" font-size="10.00"> bgm</text>
</g>
<!-- Node2 -->
<g id="node2" class="node"><title>Node2</title>
<a xlink:href="classtetgenmesh_1_1arraypool.xhtml" target="_top" xlink:title="tetgenmesh::arraypool">
<polygon fill="none" stroke="black" points="379.5,-504.5 379.5,-525.5 492.5,-525.5 492.5,-504.5 379.5,-504.5"/>
<text text-anchor="middle" x="436" y="-512.5" font-family="Helvetica,sans-Serif" font-size="10.00">tetgenmesh::arraypool</text>
</a>
</g>
<!-- Node2&#45;&gt;Node1 -->
<g id="edge2" class="edge"><title>Node2&#45;&gt;Node1</title>
<path fill="none" stroke="#9a32cd" stroke-dasharray="5,2" d="M503.162,-515.276C535.527,-511.96 572.708,-502.577 598,-479 622.807,-455.875 642.477,-349.124 648.263,-314.718"/>
<polygon fill="#9a32cd" stroke="#9a32cd" points="502.514,-511.818 492.845,-516.149 503.104,-518.793 502.514,-511.818"/>
<text text-anchor="middle" x="558" y="-646" font-family="Helvetica,sans-Serif" font-size="10.00"> elemfliplist</text>
<text text-anchor="middle" x="558" y="-633" font-family="Helvetica,sans-Serif" font-size="10.00">cavebdrylist</text>
<text text-anchor="middle" x="558" y="-620" font-family="Helvetica,sans-Serif" font-size="10.00">cavetetlist</text>
<text text-anchor="middle" x="558" y="-607" font-family="Helvetica,sans-Serif" font-size="10.00">caveoldtetlist</text>
<text text-anchor="middle" x="558" y="-594" font-family="Helvetica,sans-Serif" font-size="10.00">caveshlist</text>
<text text-anchor="middle" x="558" y="-581" font-family="Helvetica,sans-Serif" font-size="10.00">caveshbdlist</text>
<text text-anchor="middle" x="558" y="-568" font-family="Helvetica,sans-Serif" font-size="10.00">subsegstack</text>
<text text-anchor="middle" x="558" y="-555" font-family="Helvetica,sans-Serif" font-size="10.00">fixededgelist</text>
<text text-anchor="middle" x="558" y="-542" font-family="Helvetica,sans-Serif" font-size="10.00">subfacstack</text>
<text text-anchor="middle" x="558" y="-529" font-family="Helvetica,sans-Serif" font-size="10.00">btreenode_list</text>
<text text-anchor="middle" x="558" y="-516" font-family="Helvetica,sans-Serif" font-size="10.00">...</text>
</g>
<!-- Node3 -->
<g id="node4" class="node"><title>Node3</title>
<a xlink:href="structtetgenmesh_1_1pbcdata.xhtml" target="_top" xlink:title="tetgenmesh::pbcdata">
<polygon fill="none" stroke="black" points="382,-464.5 382,-485.5 490,-485.5 490,-464.5 382,-464.5"/>
<text text-anchor="middle" x="436" y="-472.5" font-family="Helvetica,sans-Serif" font-size="10.00">tetgenmesh::pbcdata</text>
</a>
</g>
<!-- Node3&#45;&gt;Node1 -->
<g id="edge4" class="edge"><title>Node3&#45;&gt;Node1</title>
<path fill="none" stroke="#9a32cd" stroke-dasharray="5,2" d="M500.125,-467.22C532.78,-460.339 571.146,-447.383 598,-423 631.217,-392.839 644.213,-337.662 648.354,-314.586"/>
<polygon fill="#9a32cd" stroke="#9a32cd" points="499.333,-463.809 490.193,-469.166 500.68,-470.678 499.333,-463.809"/>
<text text-anchor="middle" x="558" y="-466" font-family="Helvetica,sans-Serif" font-size="10.00"> subpbcgrouptable</text>
</g>
<!-- Node4 -->
<g id="node6" class="node"><title>Node4</title>
<a xlink:href="classtetgenmesh_1_1face.xhtml" target="_top" xlink:title="tetgenmesh::face">
<polygon fill="none" stroke="black" points="183,-411.5 183,-432.5 275,-432.5 275,-411.5 183,-411.5"/>
<text text-anchor="middle" x="229" y="-419.5" font-family="Helvetica,sans-Serif" font-size="10.00">tetgenmesh::face</text>
</a>
</g>
<!-- Node4&#45;&gt;Node3 -->
<g id="edge6" class="edge"><title>Node4&#45;&gt;Node3</title>
<path fill="none" stroke="#9a32cd" stroke-dasharray="5,2" d="M280.487,-435.183C315.728,-444.206 361.84,-456.012 394.68,-464.42"/>
<polygon fill="#9a32cd" stroke="#9a32cd" points="280.948,-431.688 270.392,-432.598 279.211,-438.469 280.948,-431.688"/>
<text text-anchor="middle" x="326" y="-457" font-family="Helvetica,sans-Serif" font-size="10.00"> ss</text>
</g>
<!-- Node6 -->
<g id="node11" class="node"><title>Node6</title>
<a xlink:href="structtetgenmesh_1_1badface.xhtml" target="_top" xlink:title="tetgenmesh::badface">
<polygon fill="none" stroke="black" points="382,-380.5 382,-401.5 490,-401.5 490,-380.5 382,-380.5"/>
<text text-anchor="middle" x="436" y="-388.5" font-family="Helvetica,sans-Serif" font-size="10.00">tetgenmesh::badface</text>
</a>
</g>
<!-- Node4&#45;&gt;Node6 -->
<g id="edge14" class="edge"><title>Node4&#45;&gt;Node6</title>
<path fill="none" stroke="#9a32cd" stroke-dasharray="5,2" d="M285.119,-413.596C315.207,-409.09 352.106,-403.564 381.883,-399.104"/>
<polygon fill="#9a32cd" stroke="#9a32cd" points="284.569,-410.139 275.197,-415.082 285.605,-417.062 284.569,-410.139"/>
<text text-anchor="middle" x="326" y="-415" font-family="Helvetica,sans-Serif" font-size="10.00"> ss</text>
</g>
<!-- Node5 -->
<g id="node9" class="node"><title>Node5</title>
<a xlink:href="classtetgenbehavior.xhtml" target="_top" xlink:title="tetgenbehavior">
<polygon fill="none" stroke="black" points="396,-265.5 396,-286.5 476,-286.5 476,-265.5 396,-265.5"/>
<text text-anchor="middle" x="436" y="-273.5" font-family="Helvetica,sans-Serif" font-size="10.00">tetgenbehavior</text>
</a>
</g>
<!-- Node5&#45;&gt;Node1 -->
<g id="edge10" class="edge"><title>Node5&#45;&gt;Node1</title>
<path fill="none" stroke="#9a32cd" stroke-dasharray="5,2" d="M486.332,-281.822C518.338,-285.621 560.64,-290.821 598,-296 603.79,-296.803 609.936,-297.704 615.896,-298.604"/>
<polygon fill="#9a32cd" stroke="#9a32cd" points="486.663,-278.337 476.322,-280.64 485.842,-285.289 486.663,-278.337"/>
<text text-anchor="middle" x="558" y="-300" font-family="Helvetica,sans-Serif" font-size="10.00"> b</text>
</g>
<!-- Node6&#45;&gt;Node1 -->
<g id="edge12" class="edge"><title>Node6&#45;&gt;Node1</title>
<path fill="none" stroke="#9a32cd" stroke-dasharray="5,2" d="M486.441,-377.637C519.047,-368.168 561.964,-354.124 598,-337 611.327,-330.667 625.396,-321.572 635.535,-314.534"/>
<polygon fill="#9a32cd" stroke="#9a32cd" points="485.327,-374.315 476.672,-380.427 487.249,-381.046 485.327,-374.315"/>
<text text-anchor="middle" x="558" y="-410" font-family="Helvetica,sans-Serif" font-size="10.00"> subquefront</text>
<text text-anchor="middle" x="558" y="-397" font-family="Helvetica,sans-Serif" font-size="10.00">tetquefront</text>
<text text-anchor="middle" x="558" y="-384" font-family="Helvetica,sans-Serif" font-size="10.00">subquetail</text>
<text text-anchor="middle" x="558" y="-371" font-family="Helvetica,sans-Serif" font-size="10.00">tetquetail</text>
</g>
<!-- Node6&#45;&gt;Node6 -->
<g id="edge16" class="edge"><title>Node6&#45;&gt;Node6</title>
<path fill="none" stroke="#9a32cd" stroke-dasharray="5,2" d="M415.728,-411.427C417.292,-416.349 424.049,-420 436,-420 455.121,-420 460.947,-410.653 453.478,-401.708"/>
<polygon fill="#9a32cd" stroke="#9a32cd" points="419.123,-412.286 418.522,-401.708 412.395,-410.352 419.123,-412.286"/>
<text text-anchor="middle" x="436" y="-437" font-family="Helvetica,sans-Serif" font-size="10.00"> nextitem</text>
<text text-anchor="middle" x="436" y="-424" font-family="Helvetica,sans-Serif" font-size="10.00">previtem</text>
</g>
<!-- Node7 -->
<g id="node15" class="node"><title>Node7</title>
<a xlink:href="classtetgenmesh_1_1triface.xhtml" target="_top" xlink:title="tetgenmesh::triface">
<polygon fill="none" stroke="black" points="178.5,-357.5 178.5,-378.5 279.5,-378.5 279.5,-357.5 178.5,-357.5"/>
<text text-anchor="middle" x="229" y="-365.5" font-family="Helvetica,sans-Serif" font-size="10.00">tetgenmesh::triface</text>
</a>
</g>
<!-- Node7&#45;&gt;Node1 -->
<g id="edge22" class="edge"><title>Node7&#45;&gt;Node1</title>
<path fill="none" stroke="#9a32cd" stroke-dasharray="5,2" d="M274.694,-354.681C302.588,-347.007 339.098,-337.767 372,-332 383.84,-329.925 544.063,-314.272 615.749,-307.315"/>
<polygon fill="#9a32cd" stroke="#9a32cd" points="273.525,-351.374 264.83,-357.429 275.403,-358.117 273.525,-351.374"/>
<text text-anchor="middle" x="436" y="-362" font-family="Helvetica,sans-Serif" font-size="10.00"> firsttopface</text>
<text text-anchor="middle" x="436" y="-349" font-family="Helvetica,sans-Serif" font-size="10.00">recenttet</text>
<text text-anchor="middle" x="436" y="-336" font-family="Helvetica,sans-Serif" font-size="10.00">firstbotface</text>
</g>
<!-- Node7&#45;&gt;Node6 -->
<g id="edge18" class="edge"><title>Node7&#45;&gt;Node6</title>
<path fill="none" stroke="#9a32cd" stroke-dasharray="5,2" d="M289.705,-371.907C310.163,-373.476 333.102,-375.511 354,-378 363.017,-379.074 372.562,-380.406 381.829,-381.805"/>
<polygon fill="#9a32cd" stroke="#9a32cd" points="289.802,-368.405 279.569,-371.152 289.281,-375.385 289.802,-368.405"/>
<text text-anchor="middle" x="326" y="-382" font-family="Helvetica,sans-Serif" font-size="10.00"> tt</text>
</g>
<!-- Node8 -->
<g id="node17" class="node"><title>Node8</title>
<a xlink:href="classtetgenmesh_1_1list.xhtml" target="_top" xlink:title="tetgenmesh::list">
<polygon fill="none" stroke="black" points="393,-225.5 393,-246.5 479,-246.5 479,-225.5 393,-225.5"/>
<text text-anchor="middle" x="436" y="-233.5" font-family="Helvetica,sans-Serif" font-size="10.00">tetgenmesh::list</text>
</a>
</g>
<!-- Node8&#45;&gt;Node1 -->
<g id="edge20" class="edge"><title>Node8&#45;&gt;Node1</title>
<path fill="none" stroke="#9a32cd" stroke-dasharray="5,2" d="M489.199,-240.941C521.618,-245.293 563.336,-253.333 598,-268 612.764,-274.247 627.601,-285.078 637.626,-293.232"/>
<polygon fill="#9a32cd" stroke="#9a32cd" points="489.38,-237.436 479.02,-239.654 488.502,-244.381 489.38,-237.436"/>
<text text-anchor="middle" x="558" y="-272" font-family="Helvetica,sans-Serif" font-size="10.00"> segpbcgrouptable</text>
</g>
<!-- Node9 -->
<g id="node20" class="node"><title>Node9</title>
<a xlink:href="classtetgenmesh_1_1memorypool.xhtml" target="_top" xlink:title="tetgenmesh::memorypool">
<polygon fill="none" stroke="black" points="372.5,-99.5 372.5,-120.5 499.5,-120.5 499.5,-99.5 372.5,-99.5"/>
<text text-anchor="middle" x="436" y="-107.5" font-family="Helvetica,sans-Serif" font-size="10.00">tetgenmesh::memorypool</text>
</a>
</g>
<!-- Node9&#45;&gt;Node1 -->
<g id="edge24" class="edge"><title>Node9&#45;&gt;Node1</title>
<path fill="none" stroke="#9a32cd" stroke-dasharray="5,2" d="M509.777,-99.2381C540.145,-98.835 573.8,-104.113 598,-124 625.016,-146.201 643.331,-258.072 648.505,-293.336"/>
<polygon fill="#9a32cd" stroke="#9a32cd" points="509.499,-95.7454 499.623,-99.5798 509.735,-102.741 509.499,-95.7454"/>
<text text-anchor="middle" x="558" y="-232" font-family="Helvetica,sans-Serif" font-size="10.00"> badsubfaces</text>
<text text-anchor="middle" x="558" y="-219" font-family="Helvetica,sans-Serif" font-size="10.00">subfaces</text>
<text text-anchor="middle" x="558" y="-206" font-family="Helvetica,sans-Serif" font-size="10.00">points</text>
<text text-anchor="middle" x="558" y="-193" font-family="Helvetica,sans-Serif" font-size="10.00">subsegs</text>
<text text-anchor="middle" x="558" y="-180" font-family="Helvetica,sans-Serif" font-size="10.00">badsubsegs</text>
<text text-anchor="middle" x="558" y="-167" font-family="Helvetica,sans-Serif" font-size="10.00">badtetrahedrons</text>
<text text-anchor="middle" x="558" y="-154" font-family="Helvetica,sans-Serif" font-size="10.00">tetrahedrons</text>
<text text-anchor="middle" x="558" y="-141" font-family="Helvetica,sans-Serif" font-size="10.00">tet2subpool</text>
<text text-anchor="middle" x="558" y="-128" font-family="Helvetica,sans-Serif" font-size="10.00">tet2segpool</text>
</g>
<!-- Node10 -->
<g id="node22" class="node"><title>Node10</title>
<a xlink:href="classtetgenio.xhtml" target="_top" xlink:title="tetgenio">
<polygon fill="none" stroke="black" points="410.5,-59.5 410.5,-80.5 461.5,-80.5 461.5,-59.5 410.5,-59.5"/>
<text text-anchor="middle" x="436" y="-67.5" font-family="Helvetica,sans-Serif" font-size="10.00">tetgenio</text>
</a>
</g>
<!-- Node10&#45;&gt;Node1 -->
<g id="edge26" class="edge"><title>Node10&#45;&gt;Node1</title>
<path fill="none" stroke="#9a32cd" stroke-dasharray="5,2" d="M471.739,-61.6057C507.931,-55.3759 563.369,-52.3942 598,-82 631.022,-110.23 645.645,-253.258 649.144,-293.47"/>
<polygon fill="#9a32cd" stroke="#9a32cd" points="470.799,-58.2214 461.623,-63.5173 472.099,-65.0996 470.799,-58.2214"/>
<text text-anchor="middle" x="558" y="-86" font-family="Helvetica,sans-Serif" font-size="10.00"> in</text>
</g>
<!-- Node11 -->
<g id="node24" class="node"><title>Node11</title>
<a xlink:href="structtetgenio_1_1vorofacet.xhtml" target="_top" xlink:title="tetgenio::vorofacet">
<polygon fill="none" stroke="black" points="180,-120.5 180,-141.5 278,-141.5 278,-120.5 180,-120.5"/>
<text text-anchor="middle" x="229" y="-128.5" font-family="Helvetica,sans-Serif" font-size="10.00">tetgenio::vorofacet</text>
</a>
</g>
<!-- Node11&#45;&gt;Node10 -->
<g id="edge28" class="edge"><title>Node11&#45;&gt;Node10</title>
<path fill="none" stroke="#9a32cd" stroke-dasharray="5,2" d="M288.071,-120.797C309.317,-116.099 333.169,-109.613 354,-101 362.664,-97.4178 363.461,-93.8719 372,-90 384.192,-84.4715 398.346,-79.874 410.238,-76.4868"/>
<polygon fill="#9a32cd" stroke="#9a32cd" points="287.249,-117.393 278.195,-122.895 288.704,-124.24 287.249,-117.393"/>
<text text-anchor="middle" x="326" y="-121" font-family="Helvetica,sans-Serif" font-size="10.00"> vfacetlist</text>
</g>
<!-- Node12 -->
<g id="node26" class="node"><title>Node12</title>
<a xlink:href="structtetgenio_1_1facet.xhtml" target="_top" xlink:title="tetgenio::facet">
<polygon fill="none" stroke="black" points="189.5,-80.5 189.5,-101.5 268.5,-101.5 268.5,-80.5 189.5,-80.5"/>
<text text-anchor="middle" x="229" y="-88.5" font-family="Helvetica,sans-Serif" font-size="10.00">tetgenio::facet</text>
</a>
</g>
<!-- Node12&#45;&gt;Node10 -->
<g id="edge30" class="edge"><title>Node12&#45;&gt;Node10</title>
<path fill="none" stroke="#9a32cd" stroke-dasharray="5,2" d="M279.074,-85.92C320.474,-81.72 377.586,-75.926 410.267,-72.6106"/>
<polygon fill="#9a32cd" stroke="#9a32cd" points="278.507,-82.4595 268.912,-86.951 279.214,-89.4237 278.507,-82.4595"/>
<text text-anchor="middle" x="326" y="-88" font-family="Helvetica,sans-Serif" font-size="10.00"> facetlist</text>
</g>
<!-- Node13 -->
<g id="node28" class="node"><title>Node13</title>
<a xlink:href="structtetgenio_1_1polygon.xhtml" target="_top" xlink:title="tetgenio::polygon">
<polygon fill="none" stroke="black" points="0.5,-80.5 0.5,-101.5 91.5,-101.5 91.5,-80.5 0.5,-80.5"/>
<text text-anchor="middle" x="46" y="-88.5" font-family="Helvetica,sans-Serif" font-size="10.00">tetgenio::polygon</text>
</a>
</g>
<!-- Node13&#45;&gt;Node12 -->
<g id="edge32" class="edge"><title>Node13&#45;&gt;Node12</title>
<path fill="none" stroke="#9a32cd" stroke-dasharray="5,2" d="M101.866,-91C130.171,-91 163.869,-91 189.457,-91"/>
<polygon fill="#9a32cd" stroke="#9a32cd" points="101.707,-87.5001 91.7066,-91 101.707,-94.5001 101.707,-87.5001"/>
<text text-anchor="middle" x="135" y="-95" font-family="Helvetica,sans-Serif" font-size="10.00"> polygonlist</text>
</g>
<!-- Node14 -->
<g id="node30" class="node"><title>Node14</title>
<a xlink:href="structtetgenio_1_1voroedge.xhtml" target="_top" xlink:title="tetgenio::voroedge">
<polygon fill="none" stroke="black" points="180.5,-40.5 180.5,-61.5 277.5,-61.5 277.5,-40.5 180.5,-40.5"/>
<text text-anchor="middle" x="229" y="-48.5" font-family="Helvetica,sans-Serif" font-size="10.00">tetgenio::voroedge</text>
</a>
</g>
<!-- Node14&#45;&gt;Node10 -->
<g id="edge34" class="edge"><title>Node14&#45;&gt;Node10</title>
<path fill="none" stroke="#9a32cd" stroke-dasharray="5,2" d="M287.566,-50.3682C308.57,-50.6791 332.394,-51.6499 354,-54 373.034,-56.0704 394.24,-60.2596 410.318,-63.8321"/>
<polygon fill="#9a32cd" stroke="#9a32cd" points="287.539,-46.8679 277.504,-50.2655 287.468,-53.8675 287.539,-46.8679"/>
<text text-anchor="middle" x="326" y="-58" font-family="Helvetica,sans-Serif" font-size="10.00"> vedgelist</text>
</g>
<!-- Node15 -->
<g id="node32" class="node"><title>Node15</title>
<a xlink:href="structtetgenio_1_1pbcgroup.xhtml" target="_top" xlink:title="tetgenio::pbcgroup">
<polygon fill="none" stroke="black" points="180.5,-0.5 180.5,-21.5 277.5,-21.5 277.5,-0.5 180.5,-0.5"/>
<text text-anchor="middle" x="229" y="-8.5" font-family="Helvetica,sans-Serif" font-size="10.00">tetgenio::pbcgroup</text>
</a>
</g>
<!-- Node15&#45;&gt;Node10 -->
<g id="edge36" class="edge"><title>Node15&#45;&gt;Node10</title>
<path fill="none" stroke="#9a32cd" stroke-dasharray="5,2" d="M287.836,-18.941C308.959,-22.5452 332.79,-27.4896 354,-34 375.7,-40.661 399.32,-51.4336 415.611,-59.4614"/>
<polygon fill="#9a32cd" stroke="#9a32cd" points="288.143,-15.4446 277.708,-17.2784 287.009,-22.3522 288.143,-15.4446"/>
<text text-anchor="middle" x="326" y="-38" font-family="Helvetica,sans-Serif" font-size="10.00"> pbcgrouplist</text>
</g>
</g>
</svg>
        <g id="navigator" transform="translate(0 0)" fill="#404254">
                <rect fill="#f2f5e9" fill-opacity="0.5" stroke="#606060" stroke-width=".5" x="0" y="0" width="60" height="60"/>
                <use id="zoomplus" xlink:href="#zoomPlus" x="17" y="9" onmousedown="handleZoom(evt,'in')"/>
                <use id="zoomminus" xlink:href="#zoomMin" x="42" y="9" onmousedown="handleZoom(evt,'out')"/>
                <use id="reset" xlink:href="#resetDef" x="30" y="36" onmousedown="handleReset()"/>
                <g id="arrowUp" xlink:href="#dirArrow" transform="translate(30 24)" onmousedown="handlePan(0,-1)">
                  <use xlink:href="#rim" fill="#404040">
                        <set attributeName="fill" to="#808080" begin="arrowUp.mouseover" end="arrowUp.mouseout"/>
                  </use>
                  <path fill="none" stroke="white" stroke-width="1.5" d="M0,-3.0v7 M-2.5,-0.5L0,-3.0L2.5,-0.5"/>
                </g>
                <g id="arrowRight" xlink:href="#dirArrow" transform="rotate(90) translate(36 -43)" onmousedown="handlePan(1,0)">
                  <use xlink:href="#rim" fill="#404040">
                        <set attributeName="fill" to="#808080" begin="arrowRight.mouseover" end="arrowRight.mouseout"/>
                  </use>
                  <path fill="none" stroke="white" stroke-width="1.5" d="M0,-3.0v7 M-2.5,-0.5L0,-3.0L2.5,-0.5"/>
                </g>
                <g id="arrowDown" xlink:href="#dirArrow" transform="rotate(180) translate(-30 -48)" onmousedown="handlePan(0,1)">
                  <use xlink:href="#rim" fill="#404040">
                        <set attributeName="fill" to="#808080" begin="arrowDown.mouseover" end="arrowDown.mouseout"/>
                  </use>
                  <path fill="none" stroke="white" stroke-width="1.5" d="M0,-3.0v7 M-2.5,-0.5L0,-3.0L2.5,-0.5"/>
                </g>
                <g id="arrowLeft" xlink:href="#dirArrow" transform="rotate(270) translate(-36 17)" onmousedown="handlePan(-1,0)">
                  <use xlink:href="#rim" fill="#404040">
                        <set attributeName="fill" to="#808080" begin="arrowLeft.mouseover" end="arrowLeft.mouseout"/>
                  </use>
                  <path fill="none" stroke="white" stroke-width="1.5" d="M0,-3.0v7 M-2.5,-0.5L0,-3.0L2.5,-0.5"/>
                </g>
        </g>
        <svg viewBox="0 0 15 15" width="100%" height="30px" preserveAspectRatio="xMaxYMin meet">
         <g id="arrow_out" transform="scale(0.3 0.3)">
          <a xlink:href="classtetgenmesh__coll__graph_org.svg" target="_base">
           <rect id="button" ry="5" rx="5" y="6" x="6" height="38" width="38"
                fill="#f2f5e9" fill-opacity="0.5" stroke="#606060" stroke-width="1.0"/>
           <path id="arrow"
             d="M 11.500037,31.436501 C 11.940474,20.09759 22.043105,11.32322 32.158766,21.979434 L 37.068811,17.246167 C 37.068811,17.246167 37.088388,32 37.088388,32 L 22.160133,31.978069 C 22.160133,31.978069 26.997745,27.140456 26.997745,27.140456 C 18.528582,18.264221 13.291696,25.230495 11.500037,31.436501 z"
             style="fill:#404040;"/>
          </a>
         </g>
        </svg>
</svg>
