<?xml version="1.0" encoding="UTF-8" standalone="no"?>
<!DOCTYPE svg PUBLIC "-//W3C//DTD SVG 1.1//EN"
 "http://www.w3.org/Graphics/SVG/1.1/DTD/svg11.dtd">
<!-- Generated by graphviz version 2.26.3 (20100126.1600)
 -->
<!-- Title: Renderer::renderSensorData Pages: 1 -->
<svg width="274pt" height="70pt"
 viewBox="0.00 0.00 274.00 70.00" xmlns="http://www.w3.org/2000/svg" xmlns:xlink="http://www.w3.org/1999/xlink">
<g id="graph1" class="graph" transform="scale(1 1) rotate(0) translate(4 66)">
<title>Renderer::renderSensorData</title>
<!-- Node1 -->
<g id="node1" class="node"><title>Node1</title>
<polygon fill="#bfbfbf" stroke="black" points="0.5,-20.5 0.5,-41.5 141.5,-41.5 141.5,-20.5 0.5,-20.5"/>
<text text-anchor="middle" x="71" y="-28.5" font-family="Helvetica,sans-Serif" font-size="10.00">Renderer::renderSensorData</text>
</g>
<!-- Node2 -->
<g id="node3" class="node"><title>Node2</title>
<a xlink:href="namespaceUtils.xhtml#a5d6523eb946892eee52c9c74efd016de" target="_top" xlink:title="Utils::hsvToRgb">
<polygon fill="none" stroke="black" points="178,-40.5 178,-61.5 266,-61.5 266,-40.5 178,-40.5"/>
<text text-anchor="middle" x="222" y="-48.5" font-family="Helvetica,sans-Serif" font-size="10.00">Utils::hsvToRgb</text>
</a>
</g>
<!-- Node1&#45;&gt;Node2 -->
<g id="edge2" class="edge"><title>Node1&#45;&gt;Node2</title>
<path fill="none" stroke="midnightblue" d="M141.637,-40.3559C150.368,-41.5123 159.186,-42.6803 167.622,-43.7976"/>
<polygon fill="midnightblue" stroke="midnightblue" points="167.317,-47.2877 177.69,-45.1311 168.236,-40.3483 167.317,-47.2877"/>
</g>
<!-- Node3 -->
<g id="node5" class="node"><title>Node3</title>
<a xlink:href="namespaceUtils.xhtml#abb647325616858e0fad55290c36ea03b" target="_top" xlink:title="Begrenzt einen Wert auf den Bereich 0..1. ">
<polygon fill="none" stroke="black" points="178.5,-0.5 178.5,-21.5 265.5,-21.5 265.5,-0.5 178.5,-0.5"/>
<text text-anchor="middle" x="222" y="-8.5" font-family="Helvetica,sans-Serif" font-size="10.00">Utils::clampHue</text>
</a>
</g>
<!-- Node1&#45;&gt;Node3 -->
<g id="edge4" class="edge"><title>Node1&#45;&gt;Node3</title>
<path fill="none" stroke="midnightblue" d="M141.637,-21.6441C150.477,-20.4732 159.406,-19.2905 167.938,-18.1606"/>
<polygon fill="midnightblue" stroke="midnightblue" points="168.66,-21.5956 178.114,-16.8127 167.741,-14.6562 168.66,-21.5956"/>
</g>
</g>
</svg>
