<?xml version="1.0" encoding="UTF-8" standalone="no"?>
<!DOCTYPE svg PUBLIC "-//W3C//DTD SVG 1.1//EN"
 "http://www.w3.org/Graphics/SVG/1.1/DTD/svg11.dtd">
<!-- Generated by graphviz version 2.26.3 (20100126.1600)
 -->
<!-- Title: Vector3D::dotProduct Pages: 1 -->
<!--zoomable 230 -->
<svg id="main" version="1.1" xmlns="http://www.w3.org/2000/svg" xmlns:xlink="http://www.w3.org/1999/xlink" xml:space="preserve" onload="init(evt)">
<style type="text/css"><![CDATA[
.edge:hover path { stroke: red; }
.edge:hover polygon { stroke: red; fill: red; }
]]></style>
<script type="text/javascript"><![CDATA[
var edges = document.getElementsByTagName('g');
if (edges && edges.length) {
  for (var i=0;i<edges.length;i++) {
    if (edges[i].id.substr(0,4)=='edge') {
      edges[i].setAttribute('class','edge');
    }
  }
}
]]></script>
        <defs>
                <circle id="rim" cx="0" cy="0" r="7"/>
                <circle id="rim2" cx="0" cy="0" r="3.5"/>
                <g id="zoomPlus">
                        <use xlink:href="#rim" fill="#404040">
                                <set attributeName="fill" to="#808080" begin="zoomplus.mouseover" end="zoomplus.mouseout"/>
                        </use>
                        <path d="M-4,0h8M0,-4v8" fill="none" stroke="white" stroke-width="1.5" pointer-events="none"/>
                </g>
                <g id="zoomMin">
                        <use xlink:href="#rim" fill="#404040">
                                <set attributeName="fill" to="#808080" begin="zoomminus.mouseover" end="zoomminus.mouseout"/>
                        </use>
                        <path d="M-4,0h8" fill="none" stroke="white" stroke-width="1.5" pointer-events="none"/>
                </g>
                <g id="dirArrow">
                        <path fill="none" stroke="white" stroke-width="1.5" d="M0,-3.0v7 M-2.5,-0.5L0,-3.0L2.5,-0.5"/>
                </g>
               <g id="resetDef">
                       <use xlink:href="#rim2" fill="#404040">
                               <set attributeName="fill" to="#808080" begin="reset.mouseover" end="reset.mouseout"/>
                       </use>
               </g>
        </defs>

<script type="text/javascript">
var viewWidth = 816;
var viewHeight = 230;
var sectionId = 'dynsection-7';
</script>
<script xlink:href="svgpan.js"/>
<svg id="graph" class="graph">
<g id="viewport">
<title>Vector3D::dotProduct</title>
<!-- Node1 -->
<g id="node1" class="node"><title>Node1</title>
<polygon fill="#bfbfbf" stroke="black" points="0.5,-100.5 0.5,-121.5 111.5,-121.5 111.5,-100.5 0.5,-100.5"/>
<text text-anchor="middle" x="56" y="-108.5" font-family="Helvetica,sans-Serif" font-size="10.00">Vector3D::dotProduct</text>
</g>
<!-- Node2 -->
<g id="node3" class="node"><title>Node2</title>
<a xlink:href="classRenderer.xhtml#a927f376a6283de3181b86f65b927386c" target="_top" xlink:title="Renderer::renderTetrahedra">
<polygon fill="none" stroke="black" points="151,-200.5 151,-221.5 287,-221.5 287,-200.5 151,-200.5"/>
<text text-anchor="middle" x="219" y="-208.5" font-family="Helvetica,sans-Serif" font-size="10.00">Renderer::renderTetrahedra</text>
</a>
</g>
<!-- Node1&#45;&gt;Node2 -->
<g id="edge2" class="edge"><title>Node1&#45;&gt;Node2</title>
<path fill="none" stroke="midnightblue" d="M72.4,-129.378C89.5606,-147.535 118.121,-174.865 148,-191 154.986,-194.773 162.753,-197.891 170.512,-200.451"/>
<polygon fill="midnightblue" stroke="midnightblue" points="74.7116,-126.722 65.3538,-121.754 69.5709,-131.473 74.7116,-126.722"/>
</g>
<!-- Node3 -->
<g id="node5" class="node"><title>Node3</title>
<a xlink:href="classInterpolator.xhtml#ad59ac6ed3822e08a67ac7d1ee88a5bd2" target="_top" xlink:title="Interpolator::interpolateTri">
<polygon fill="none" stroke="black" points="155,-160.5 155,-181.5 283,-181.5 283,-160.5 155,-160.5"/>
<text text-anchor="middle" x="219" y="-168.5" font-family="Helvetica,sans-Serif" font-size="10.00">Interpolator::interpolateTri</text>
</a>
</g>
<!-- Node1&#45;&gt;Node3 -->
<g id="edge4" class="edge"><title>Node1&#45;&gt;Node3</title>
<path fill="none" stroke="midnightblue" d="M87.2044,-125.823C104.82,-133.872 127.375,-143.649 148,-151 157.53,-154.396 167.939,-157.601 177.778,-160.409"/>
<polygon fill="midnightblue" stroke="midnightblue" points="88.5158,-122.574 77.9699,-121.557 85.5796,-128.928 88.5158,-122.574"/>
</g>
<!-- Node4 -->
<g id="node7" class="node"><title>Node4</title>
<a xlink:href="classInterpolator.xhtml#a30e714ca6dff9b5745d029f95af1420a" target="_top" xlink:title="Interpolator::interpolateTet">
<polygon fill="none" stroke="black" points="153.5,-80.5 153.5,-101.5 284.5,-101.5 284.5,-80.5 153.5,-80.5"/>
<text text-anchor="middle" x="219" y="-88.5" font-family="Helvetica,sans-Serif" font-size="10.00">Interpolator::interpolateTet</text>
</a>
</g>
<!-- Node1&#45;&gt;Node4 -->
<g id="edge6" class="edge"><title>Node1&#45;&gt;Node4</title>
<path fill="none" stroke="midnightblue" d="M121.583,-102.953C132.098,-101.663 142.98,-100.328 153.492,-99.0377"/>
<polygon fill="midnightblue" stroke="midnightblue" points="121.139,-99.4812 111.639,-104.173 121.991,-106.429 121.139,-99.4812"/>
</g>
<!-- Node8 -->
<g id="node15" class="node"><title>Node8</title>
<a xlink:href="classAnalyzer.xhtml#a2a7b5f169f664ccd9f206e508cba78ef" target="_top" xlink:title="Analyzer::analyzeObject">
<polygon fill="none" stroke="black" points="157.5,-120.5 157.5,-141.5 280.5,-141.5 280.5,-120.5 157.5,-120.5"/>
<text text-anchor="middle" x="219" y="-128.5" font-family="Helvetica,sans-Serif" font-size="10.00">Analyzer::analyzeObject</text>
</a>
</g>
<!-- Node1&#45;&gt;Node8 -->
<g id="edge14" class="edge"><title>Node1&#45;&gt;Node8</title>
<path fill="none" stroke="midnightblue" d="M121.837,-119.078C133.604,-120.522 145.823,-122.021 157.464,-123.45"/>
<polygon fill="midnightblue" stroke="midnightblue" points="121.991,-115.571 111.639,-117.827 121.139,-122.519 121.991,-115.571"/>
</g>
<!-- Node12 -->
<g id="node23" class="node"><title>Node12</title>
<a xlink:href="namespaceUtils.xhtml#a5f216cc7011a901130db81321b565334" target="_top" xlink:title="Utils::rayIntersectsTriangle">
<polygon fill="none" stroke="black" points="152,-0.5 152,-21.5 286,-21.5 286,-0.5 152,-0.5"/>
<text text-anchor="middle" x="219" y="-8.5" font-family="Helvetica,sans-Serif" font-size="10.00">Utils::rayIntersectsTriangle</text>
</a>
</g>
<!-- Node1&#45;&gt;Node12 -->
<g id="edge22" class="edge"><title>Node1&#45;&gt;Node12</title>
<path fill="none" stroke="midnightblue" d="M72.4,-92.6225C89.5606,-74.4655 118.121,-47.1354 148,-31 154.986,-27.2272 162.753,-24.1088 170.512,-21.5491"/>
<polygon fill="midnightblue" stroke="midnightblue" points="69.5709,-90.5268 65.3538,-100.246 74.7116,-95.2781 69.5709,-90.5268"/>
</g>
<!-- Node14 -->
<g id="node27" class="node"><title>Node14</title>
<a xlink:href="namespaceUtils.xhtml#a9b995a1220a78be108b19bda4b776332" target="_top" xlink:title="Utils::pointInsideTetrahedron">
<polygon fill="none" stroke="black" points="148,-40.5 148,-61.5 290,-61.5 290,-40.5 148,-40.5"/>
<text text-anchor="middle" x="219" y="-48.5" font-family="Helvetica,sans-Serif" font-size="10.00">Utils::pointInsideTetrahedron</text>
</a>
</g>
<!-- Node1&#45;&gt;Node14 -->
<g id="edge26" class="edge"><title>Node1&#45;&gt;Node14</title>
<path fill="none" stroke="midnightblue" d="M87.2044,-96.1765C104.82,-88.1283 127.375,-78.3505 148,-71 157.53,-67.6038 167.939,-64.399 177.778,-61.591"/>
<polygon fill="midnightblue" stroke="midnightblue" points="85.5796,-93.0717 77.9699,-100.443 88.5158,-99.4261 85.5796,-93.0717"/>
</g>
<!-- Node5 -->
<g id="node9" class="node"><title>Node5</title>
<a xlink:href="namespaceUtils.xhtml#a6a0ae18a42e2d206bc1b43da27820fe2" target="_top" xlink:title="Utils::getPointValue">
<polygon fill="none" stroke="black" points="345,-80.5 345,-101.5 449,-101.5 449,-80.5 345,-80.5"/>
<text text-anchor="middle" x="397" y="-88.5" font-family="Helvetica,sans-Serif" font-size="10.00">Utils::getPointValue</text>
</a>
</g>
<!-- Node4&#45;&gt;Node5 -->
<g id="edge8" class="edge"><title>Node4&#45;&gt;Node5</title>
<path fill="none" stroke="midnightblue" d="M294.924,-91C311.797,-91 329.312,-91 344.971,-91"/>
<polygon fill="midnightblue" stroke="midnightblue" points="294.522,-87.5001 284.522,-91 294.522,-94.5001 294.522,-87.5001"/>
</g>
<!-- Node6 -->
<g id="node11" class="node"><title>Node6</title>
<a xlink:href="classAnalyzer.xhtml#a8f73ee0aa71ae395a74b43dc76b35458" target="_top" xlink:title="Analyzer::analyzePoint">
<polygon fill="none" stroke="black" points="515.5,-80.5 515.5,-101.5 632.5,-101.5 632.5,-80.5 515.5,-80.5"/>
<text text-anchor="middle" x="574" y="-88.5" font-family="Helvetica,sans-Serif" font-size="10.00">Analyzer::analyzePoint</text>
</a>
</g>
<!-- Node5&#45;&gt;Node6 -->
<g id="edge10" class="edge"><title>Node5&#45;&gt;Node6</title>
<path fill="none" stroke="midnightblue" d="M459.369,-91C477.586,-91 497.425,-91 515.4,-91"/>
<polygon fill="midnightblue" stroke="midnightblue" points="459.149,-87.5001 449.149,-91 459.148,-94.5001 459.149,-87.5001"/>
</g>
<!-- Node7 -->
<g id="node13" class="node"><title>Node7</title>
<a xlink:href="classGUIAnalyzePointWindow.xhtml#aa84ea9958e8b41423f01316d01ba5151" target="_top" xlink:title="GUIAnalyzePointWindow\l::analyzePoint">
<polygon fill="none" stroke="black" points="680,-74 680,-108 808,-108 808,-74 680,-74"/>
<text text-anchor="start" x="688" y="-95" font-family="Helvetica,sans-Serif" font-size="10.00">GUIAnalyzePointWindow</text>
<text text-anchor="middle" x="744" y="-82" font-family="Helvetica,sans-Serif" font-size="10.00">::analyzePoint</text>
</a>
</g>
<!-- Node6&#45;&gt;Node7 -->
<g id="edge12" class="edge"><title>Node6&#45;&gt;Node7</title>
<path fill="none" stroke="midnightblue" d="M642.684,-91C654.964,-91 667.715,-91 679.861,-91"/>
<polygon fill="midnightblue" stroke="midnightblue" points="642.504,-87.5001 632.504,-91 642.504,-94.5001 642.504,-87.5001"/>
</g>
<!-- Node9 -->
<g id="node17" class="node"><title>Node9</title>
<a xlink:href="classGUIAnalyzeOutputWindow.xhtml#a9ea5a7cf46d6189f368315903508cecc" target="_top" xlink:title="GUIAnalyzeOutputWindow\l::Update">
<polygon fill="none" stroke="black" points="330,-120 330,-154 464,-154 464,-120 330,-120"/>
<text text-anchor="start" x="338" y="-141" font-family="Helvetica,sans-Serif" font-size="10.00">GUIAnalyzeOutputWindow</text>
<text text-anchor="middle" x="397" y="-128" font-family="Helvetica,sans-Serif" font-size="10.00">::Update</text>
</a>
</g>
<!-- Node8&#45;&gt;Node9 -->
<g id="edge16" class="edge"><title>Node8&#45;&gt;Node9</title>
<path fill="none" stroke="midnightblue" d="M290.945,-133.425C303.808,-133.859 317.165,-134.309 329.886,-134.738"/>
<polygon fill="midnightblue" stroke="midnightblue" points="290.868,-129.921 280.756,-133.082 290.633,-136.917 290.868,-129.921"/>
</g>
<!-- Node11 -->
<g id="node21" class="node"><title>Node11</title>
<a xlink:href="classGUITimeline.xhtml#a099f3654aa6e7ea04df861851a0e9ec8" target="_top" xlink:title="GUITimeline::findMaxValue">
<polygon fill="none" stroke="black" points="328.5,-172.5 328.5,-193.5 465.5,-193.5 465.5,-172.5 328.5,-172.5"/>
<text text-anchor="middle" x="397" y="-180.5" font-family="Helvetica,sans-Serif" font-size="10.00">GUITimeline::findMaxValue</text>
</a>
</g>
<!-- Node8&#45;&gt;Node11 -->
<g id="edge20" class="edge"><title>Node8&#45;&gt;Node11</title>
<path fill="none" stroke="midnightblue" d="M267.555,-144.348C275.087,-146.514 282.765,-148.777 290,-151 306.121,-155.954 309.879,-158.046 326,-163 336.405,-166.198 347.728,-169.477 358.212,-172.431"/>
<polygon fill="midnightblue" stroke="midnightblue" points="268.364,-140.94 257.788,-141.569 266.449,-147.673 268.364,-140.94"/>
</g>
<!-- Node10 -->
<g id="node19" class="node"><title>Node10</title>
<a xlink:href="classGUIAnalyzeOutputWindow.xhtml#af9407245a6b2a0478579c4d592a31e63" target="_top" xlink:title="GUIAnalyzeOutputWindow\l::GUIAnalyzeOutputWindow">
<polygon fill="none" stroke="black" points="504,-120 504,-154 644,-154 644,-120 504,-120"/>
<text text-anchor="start" x="512" y="-141" font-family="Helvetica,sans-Serif" font-size="10.00">GUIAnalyzeOutputWindow</text>
<text text-anchor="middle" x="574" y="-128" font-family="Helvetica,sans-Serif" font-size="10.00">::GUIAnalyzeOutputWindow</text>
</a>
</g>
<!-- Node9&#45;&gt;Node10 -->
<g id="edge18" class="edge"><title>Node9&#45;&gt;Node10</title>
<path fill="none" stroke="midnightblue" d="M474.338,-137C484.182,-137 494.213,-137 503.933,-137"/>
<polygon fill="midnightblue" stroke="midnightblue" points="474.169,-133.5 464.168,-137 474.168,-140.5 474.169,-133.5"/>
</g>
<!-- Node13 -->
<g id="node25" class="node"><title>Node13</title>
<a xlink:href="namespaceUtils.xhtml#af8fc5d6dab27f759ab5d76757a53023f" target="_top" xlink:title="Utils::pointInsideMesh">
<polygon fill="none" stroke="black" points="340,-0.5 340,-21.5 454,-21.5 454,-0.5 340,-0.5"/>
<text text-anchor="middle" x="397" y="-8.5" font-family="Helvetica,sans-Serif" font-size="10.00">Utils::pointInsideMesh</text>
</a>
</g>
<!-- Node12&#45;&gt;Node13 -->
<g id="edge24" class="edge"><title>Node12&#45;&gt;Node13</title>
<path fill="none" stroke="midnightblue" d="M296.129,-11C310.833,-11 325.977,-11 339.916,-11"/>
<polygon fill="midnightblue" stroke="midnightblue" points="296.041,-7.5001 286.041,-11 296.04,-14.5001 296.041,-7.5001"/>
</g>
<!-- Node14&#45;&gt;Node5 -->
<g id="edge32" class="edge"><title>Node14&#45;&gt;Node5</title>
<path fill="none" stroke="midnightblue" d="M275.81,-63.7663C299.817,-69.161 327.434,-75.3672 350.236,-80.4913"/>
<polygon fill="midnightblue" stroke="midnightblue" points="276.291,-60.2873 265.767,-61.5095 274.757,-67.117 276.291,-60.2873"/>
</g>
<!-- Node14&#45;&gt;Node13 -->
<g id="edge28" class="edge"><title>Node14&#45;&gt;Node13</title>
<path fill="none" stroke="midnightblue" d="M275.81,-38.2337C299.817,-32.839 327.434,-26.6328 350.236,-21.5087"/>
<polygon fill="midnightblue" stroke="midnightblue" points="274.757,-34.883 265.767,-40.4905 276.291,-41.7127 274.757,-34.883"/>
</g>
<!-- Node15 -->
<g id="node30" class="node"><title>Node15</title>
<a xlink:href="namespaceUtils.xhtml#a40eaef4d22da849a5deb2f1153d88bbc" target="_top" xlink:title="Utils::pointInsideTetrahedron">
<polygon fill="none" stroke="black" points="326,-40.5 326,-61.5 468,-61.5 468,-40.5 326,-40.5"/>
<text text-anchor="middle" x="397" y="-48.5" font-family="Helvetica,sans-Serif" font-size="10.00">Utils::pointInsideTetrahedron</text>
</a>
</g>
<!-- Node14&#45;&gt;Node15 -->
<g id="edge30" class="edge"><title>Node14&#45;&gt;Node15</title>
<path fill="none" stroke="midnightblue" d="M300.17,-51C308.789,-51 317.506,-51 325.995,-51"/>
<polygon fill="midnightblue" stroke="midnightblue" points="300.118,-47.5001 290.118,-51 300.118,-54.5001 300.118,-47.5001"/>
</g>
</g>
</svg>
        <g id="navigator" transform="translate(0 0)" fill="#404254">
                <rect fill="#f2f5e9" fill-opacity="0.5" stroke="#606060" stroke-width=".5" x="0" y="0" width="60" height="60"/>
                <use id="zoomplus" xlink:href="#zoomPlus" x="17" y="9" onmousedown="handleZoom(evt,'in')"/>
                <use id="zoomminus" xlink:href="#zoomMin" x="42" y="9" onmousedown="handleZoom(evt,'out')"/>
                <use id="reset" xlink:href="#resetDef" x="30" y="36" onmousedown="handleReset()"/>
                <g id="arrowUp" xlink:href="#dirArrow" transform="translate(30 24)" onmousedown="handlePan(0,-1)">
                  <use xlink:href="#rim" fill="#404040">
                        <set attributeName="fill" to="#808080" begin="arrowUp.mouseover" end="arrowUp.mouseout"/>
                  </use>
                  <path fill="none" stroke="white" stroke-width="1.5" d="M0,-3.0v7 M-2.5,-0.5L0,-3.0L2.5,-0.5"/>
                </g>
                <g id="arrowRight" xlink:href="#dirArrow" transform="rotate(90) translate(36 -43)" onmousedown="handlePan(1,0)">
                  <use xlink:href="#rim" fill="#404040">
                        <set attributeName="fill" to="#808080" begin="arrowRight.mouseover" end="arrowRight.mouseout"/>
                  </use>
                  <path fill="none" stroke="white" stroke-width="1.5" d="M0,-3.0v7 M-2.5,-0.5L0,-3.0L2.5,-0.5"/>
                </g>
                <g id="arrowDown" xlink:href="#dirArrow" transform="rotate(180) translate(-30 -48)" onmousedown="handlePan(0,1)">
                  <use xlink:href="#rim" fill="#404040">
                        <set attributeName="fill" to="#808080" begin="arrowDown.mouseover" end="arrowDown.mouseout"/>
                  </use>
                  <path fill="none" stroke="white" stroke-width="1.5" d="M0,-3.0v7 M-2.5,-0.5L0,-3.0L2.5,-0.5"/>
                </g>
                <g id="arrowLeft" xlink:href="#dirArrow" transform="rotate(270) translate(-36 17)" onmousedown="handlePan(-1,0)">
                  <use xlink:href="#rim" fill="#404040">
                        <set attributeName="fill" to="#808080" begin="arrowLeft.mouseover" end="arrowLeft.mouseout"/>
                  </use>
                  <path fill="none" stroke="white" stroke-width="1.5" d="M0,-3.0v7 M-2.5,-0.5L0,-3.0L2.5,-0.5"/>
                </g>
        </g>
        <svg viewBox="0 0 15 15" width="100%" height="30px" preserveAspectRatio="xMaxYMin meet">
         <g id="arrow_out" transform="scale(0.3 0.3)">
          <a xlink:href="classVector3D_a0808a8e6004a347d82f9214778b5968f_icgraph_org.svg" target="_base">
           <rect id="button" ry="5" rx="5" y="6" x="6" height="38" width="38"
                fill="#f2f5e9" fill-opacity="0.5" stroke="#606060" stroke-width="1.0"/>
           <path id="arrow"
             d="M 11.500037,31.436501 C 11.940474,20.09759 22.043105,11.32322 32.158766,21.979434 L 37.068811,17.246167 C 37.068811,17.246167 37.088388,32 37.088388,32 L 22.160133,31.978069 C 22.160133,31.978069 26.997745,27.140456 26.997745,27.140456 C 18.528582,18.264221 13.291696,25.230495 11.500037,31.436501 z"
             style="fill:#404040;"/>
          </a>
         </g>
        </svg>
</svg>
