<?xml version="1.0" encoding="UTF-8" standalone="no"?>
<!DOCTYPE svg PUBLIC "-//W3C//DTD SVG 1.1//EN"
 "http://www.w3.org/Graphics/SVG/1.1/DTD/svg11.dtd">
<!-- Generated by graphviz version 2.26.3 (20100126.1600)
 -->
<!-- Title: Vector3D::getXYZ Pages: 1 -->
<svg width="424pt" height="150pt"
 viewBox="0.00 0.00 424.00 150.00" xmlns="http://www.w3.org/2000/svg" xmlns:xlink="http://www.w3.org/1999/xlink">
<g id="graph1" class="graph" transform="scale(1 1) rotate(0) translate(4 146)">
<title>Vector3D::getXYZ</title>
<!-- Node1 -->
<g id="node1" class="node"><title>Node1</title>
<polygon fill="#bfbfbf" stroke="black" points="0.5,-60.5 0.5,-81.5 97.5,-81.5 97.5,-60.5 0.5,-60.5"/>
<text text-anchor="middle" x="49" y="-68.5" font-family="Helvetica,sans-Serif" font-size="10.00">Vector3D::getXYZ</text>
</g>
<!-- Node2 -->
<g id="node3" class="node"><title>Node2</title>
<a xlink:href="classRenderer.xhtml#af7e5f8f68742f198e315fb4683a605a4" target="_top" xlink:title="Renderer::render">
<polygon fill="none" stroke="black" points="148.5,-120.5 148.5,-141.5 237.5,-141.5 237.5,-120.5 148.5,-120.5"/>
<text text-anchor="middle" x="193" y="-128.5" font-family="Helvetica,sans-Serif" font-size="10.00">Renderer::render</text>
</a>
</g>
<!-- Node1&#45;&gt;Node2 -->
<g id="edge2" class="edge"><title>Node1&#45;&gt;Node2</title>
<path fill="none" stroke="midnightblue" d="M78.642,-85.958C94.8086,-93.8586 115.287,-103.453 134,-111 142.225,-114.317 151.234,-117.561 159.682,-120.439"/>
<polygon fill="midnightblue" stroke="midnightblue" points="80.184,-82.8161 69.6675,-81.5303 77.0869,-89.0936 80.184,-82.8161"/>
</g>
<!-- Node4 -->
<g id="node7" class="node"><title>Node4</title>
<a xlink:href="classMatrix3D.xhtml#adb30531e4dd89eb99ed2fb7f94269122" target="_top" xlink:title="Matrix3D::mult">
<polygon fill="none" stroke="black" points="152.5,-80.5 152.5,-101.5 233.5,-101.5 233.5,-80.5 152.5,-80.5"/>
<text text-anchor="middle" x="193" y="-88.5" font-family="Helvetica,sans-Serif" font-size="10.00">Matrix3D::mult</text>
</a>
</g>
<!-- Node1&#45;&gt;Node4 -->
<g id="edge6" class="edge"><title>Node1&#45;&gt;Node4</title>
<path fill="none" stroke="midnightblue" d="M107.948,-79.1872C122.902,-81.2642 138.634,-83.4492 152.445,-85.3673"/>
<polygon fill="midnightblue" stroke="midnightblue" points="108.138,-75.6801 97.7518,-77.7711 107.175,-82.6136 108.138,-75.6801"/>
</g>
<!-- Node5 -->
<g id="node9" class="node"><title>Node5</title>
<a xlink:href="classAnalyzer.xhtml#a8f73ee0aa71ae395a74b43dc76b35458" target="_top" xlink:title="Analyzer::analyzePoint">
<polygon fill="none" stroke="black" points="134.5,-40.5 134.5,-61.5 251.5,-61.5 251.5,-40.5 134.5,-40.5"/>
<text text-anchor="middle" x="193" y="-48.5" font-family="Helvetica,sans-Serif" font-size="10.00">Analyzer::analyzePoint</text>
</a>
</g>
<!-- Node1&#45;&gt;Node5 -->
<g id="edge8" class="edge"><title>Node1&#45;&gt;Node5</title>
<path fill="none" stroke="midnightblue" d="M107.853,-62.826C116.589,-61.6126 125.593,-60.3621 134.326,-59.1492"/>
<polygon fill="midnightblue" stroke="midnightblue" points="107.175,-59.3864 97.7518,-64.2289 108.138,-66.3199 107.175,-59.3864"/>
</g>
<!-- Node7 -->
<g id="node13" class="node"><title>Node7</title>
<a xlink:href="namespaceUtils.xhtml#af8fc5d6dab27f759ab5d76757a53023f" target="_top" xlink:title="Utils::pointInsideMesh">
<polygon fill="none" stroke="black" points="136,-0.5 136,-21.5 250,-21.5 250,-0.5 136,-0.5"/>
<text text-anchor="middle" x="193" y="-8.5" font-family="Helvetica,sans-Serif" font-size="10.00">Utils::pointInsideMesh</text>
</a>
</g>
<!-- Node1&#45;&gt;Node7 -->
<g id="edge12" class="edge"><title>Node1&#45;&gt;Node7</title>
<path fill="none" stroke="midnightblue" d="M78.642,-56.042C94.8086,-48.1414 115.287,-38.5467 134,-31 142.225,-27.6829 151.234,-24.4389 159.682,-21.5614"/>
<polygon fill="midnightblue" stroke="midnightblue" points="77.0869,-52.9064 69.6675,-60.4697 80.184,-59.1839 77.0869,-52.9064"/>
</g>
<!-- Node3 -->
<g id="node5" class="node"><title>Node3</title>
<a xlink:href="classGUIGLCanvas.xhtml#a83f52d08591920a339150c2f45069c8f" target="_top" xlink:title="GUIGLCanvas::OnPaint">
<polygon fill="none" stroke="black" points="291,-120.5 291,-141.5 413,-141.5 413,-120.5 291,-120.5"/>
<text text-anchor="middle" x="352" y="-128.5" font-family="Helvetica,sans-Serif" font-size="10.00">GUIGLCanvas::OnPaint</text>
</a>
</g>
<!-- Node2&#45;&gt;Node3 -->
<g id="edge4" class="edge"><title>Node2&#45;&gt;Node3</title>
<path fill="none" stroke="midnightblue" d="M248.007,-131C261.787,-131 276.654,-131 290.717,-131"/>
<polygon fill="midnightblue" stroke="midnightblue" points="247.714,-127.5 237.713,-131 247.713,-134.5 247.714,-127.5"/>
</g>
<!-- Node6 -->
<g id="node11" class="node"><title>Node6</title>
<a xlink:href="classGUIAnalyzePointWindow.xhtml#aa84ea9958e8b41423f01316d01ba5151" target="_top" xlink:title="GUIAnalyzePointWindow\l::analyzePoint">
<polygon fill="none" stroke="black" points="288,-34 288,-68 416,-68 416,-34 288,-34"/>
<text text-anchor="start" x="296" y="-55" font-family="Helvetica,sans-Serif" font-size="10.00">GUIAnalyzePointWindow</text>
<text text-anchor="middle" x="352" y="-42" font-family="Helvetica,sans-Serif" font-size="10.00">::analyzePoint</text>
</a>
</g>
<!-- Node5&#45;&gt;Node6 -->
<g id="edge10" class="edge"><title>Node5&#45;&gt;Node6</title>
<path fill="none" stroke="midnightblue" d="M261.811,-51C270.466,-51 279.294,-51 287.874,-51"/>
<polygon fill="midnightblue" stroke="midnightblue" points="261.754,-47.5001 251.754,-51 261.754,-54.5001 261.754,-47.5001"/>
</g>
</g>
</svg>
