<?xml version="1.0" encoding="UTF-8" standalone="no"?>
<!DOCTYPE svg PUBLIC "-//W3C//DTD SVG 1.1//EN"
 "http://www.w3.org/Graphics/SVG/1.1/DTD/svg11.dtd">
<!-- Generated by graphviz version 2.36.0 (20140111.2315)
 -->
<!-- Title: Main::mainLoop Pages: 1 -->
<svg width="514pt" height="199pt"
 viewBox="0.00 0.00 514.00 199.00" xmlns="http://www.w3.org/2000/svg" xmlns:xlink="http://www.w3.org/1999/xlink">
<g id="graph0" class="graph" transform="scale(1 1) rotate(0) translate(4 195)">
<title>Main::mainLoop</title>
<!-- Node1 -->
<g id="node1" class="node"><title>Node1</title>
<polygon fill="#bfbfbf" stroke="black" points="0,-95.5 0,-114.5 86,-114.5 86,-95.5 0,-95.5"/>
<text text-anchor="middle" x="43" y="-102.5" font-family="Helvetica,sans-Serif" font-size="10.00">Main::mainLoop</text>
</g>
<!-- Node2 -->
<g id="node2" class="node"><title>Node2</title>
<g id="a_node2"><a xlink:href="classRenderer.xhtml#a7727c7b56e9dd7c665c969e9ce2611e4" target="_top" xlink:title="Renderer::glInit">
<polygon fill="none" stroke="black" points="140.5,-171.5 140.5,-190.5 223.5,-190.5 223.5,-171.5 140.5,-171.5"/>
<text text-anchor="middle" x="182" y="-178.5" font-family="Helvetica,sans-Serif" font-size="10.00">Renderer::glInit</text>
</a>
</g>
</g>
<!-- Node1&#45;&gt;Node2 -->
<g id="edge1" class="edge"><title>Node1&#45;&gt;Node2</title>
<path fill="none" stroke="midnightblue" d="M54.6307,-114.506C69.0018,-126.93 95.8489,-148.673 122,-162 126.27,-164.176 130.839,-166.17 135.475,-167.979"/>
<polygon fill="midnightblue" stroke="midnightblue" points="134.415,-171.317 145.009,-171.433 136.799,-164.736 134.415,-171.317"/>
</g>
<!-- Node3 -->
<g id="node3" class="node"><title>Node3</title>
<g id="a_node3"><a xlink:href="classCLHandler.xhtml#aa43428623da161d648d5e7e127cb6839" target="_top" xlink:title="CLHandler::isValid">
<polygon fill="none" stroke="black" points="133,-133.5 133,-152.5 231,-152.5 231,-133.5 133,-133.5"/>
<text text-anchor="middle" x="182" y="-140.5" font-family="Helvetica,sans-Serif" font-size="10.00">CLHandler::isValid</text>
</a>
</g>
</g>
<!-- Node1&#45;&gt;Node3 -->
<g id="edge2" class="edge"><title>Node1&#45;&gt;Node3</title>
<path fill="none" stroke="midnightblue" d="M78.5709,-114.589C96.1752,-119.472 117.779,-125.464 136.601,-130.685"/>
<polygon fill="midnightblue" stroke="midnightblue" points="135.868,-134.114 146.44,-133.414 137.739,-127.369 135.868,-134.114"/>
</g>
<!-- Node4 -->
<g id="node4" class="node"><title>Node4</title>
<g id="a_node4"><a xlink:href="classParticleSystem.xhtml#af1962b233fb096b8907b112812fc94e0" target="_top" xlink:title="ParticleSystem::isValid">
<polygon fill="none" stroke="black" points="122.5,-95.5 122.5,-114.5 241.5,-114.5 241.5,-95.5 122.5,-95.5"/>
<text text-anchor="middle" x="182" y="-102.5" font-family="Helvetica,sans-Serif" font-size="10.00">ParticleSystem::isValid</text>
</a>
</g>
</g>
<!-- Node1&#45;&gt;Node4 -->
<g id="edge3" class="edge"><title>Node1&#45;&gt;Node4</title>
<path fill="none" stroke="midnightblue" d="M86.2224,-105C94.5052,-105 103.392,-105 112.284,-105"/>
<polygon fill="midnightblue" stroke="midnightblue" points="112.293,-108.5 122.293,-105 112.293,-101.5 112.293,-108.5"/>
</g>
<!-- Node5 -->
<g id="node5" class="node"><title>Node5</title>
<g id="a_node5"><a xlink:href="classEventHandler.xhtml#aa4fd84f9bcf3b254a9c400aeab5a4b1a" target="_top" xlink:title="EventHandler::poll">
<polygon fill="none" stroke="black" points="133.5,-57.5 133.5,-76.5 230.5,-76.5 230.5,-57.5 133.5,-57.5"/>
<text text-anchor="middle" x="182" y="-64.5" font-family="Helvetica,sans-Serif" font-size="10.00">EventHandler::poll</text>
</a>
</g>
</g>
<!-- Node1&#45;&gt;Node5 -->
<g id="edge4" class="edge"><title>Node1&#45;&gt;Node5</title>
<path fill="none" stroke="midnightblue" d="M78.5709,-95.411C96.1752,-90.5281 117.779,-84.5357 136.601,-79.315"/>
<polygon fill="midnightblue" stroke="midnightblue" points="137.739,-82.6315 146.44,-76.5859 135.868,-75.8862 137.739,-82.6315"/>
</g>
<!-- Node6 -->
<g id="node6" class="node"><title>Node6</title>
<g id="a_node6"><a xlink:href="classRenderer.xhtml#a0580ba6864ba731290380740c0a470e3" target="_top" xlink:title="Renderer::render">
<polygon fill="none" stroke="black" points="137.5,-19.5 137.5,-38.5 226.5,-38.5 226.5,-19.5 137.5,-19.5"/>
<text text-anchor="middle" x="182" y="-26.5" font-family="Helvetica,sans-Serif" font-size="10.00">Renderer::render</text>
</a>
</g>
</g>
<!-- Node1&#45;&gt;Node6 -->
<g id="edge5" class="edge"><title>Node1&#45;&gt;Node6</title>
<path fill="none" stroke="midnightblue" d="M54.6307,-95.4944C69.0018,-83.0697 95.8489,-61.3271 122,-48 126.27,-45.8241 130.839,-43.8303 135.475,-42.0211"/>
<polygon fill="midnightblue" stroke="midnightblue" points="136.799,-45.2642 145.009,-38.5675 134.415,-38.6827 136.799,-45.2642"/>
</g>
<!-- Node7 -->
<g id="node7" class="node"><title>Node7</title>
<g id="a_node7"><a xlink:href="classParticleSystem.xhtml#a6908575021b0f12f4bf4d7298acf4900" target="_top" xlink:title="ParticleSystem::calc">
<polygon fill="none" stroke="black" points="278.5,-38.5 278.5,-57.5 385.5,-57.5 385.5,-38.5 278.5,-38.5"/>
<text text-anchor="middle" x="332" y="-45.5" font-family="Helvetica,sans-Serif" font-size="10.00">ParticleSystem::calc</text>
</a>
</g>
</g>
<!-- Node6&#45;&gt;Node7 -->
<g id="edge6" class="edge"><title>Node6&#45;&gt;Node7</title>
<path fill="none" stroke="midnightblue" d="M226.604,-34.5979C239.641,-36.2715 254.201,-38.1406 268.211,-39.9393"/>
<polygon fill="midnightblue" stroke="midnightblue" points="267.922,-43.4308 278.287,-41.2328 268.814,-36.4878 267.922,-43.4308"/>
</g>
<!-- Node9 -->
<g id="node9" class="node"><title>Node9</title>
<g id="a_node9"><a xlink:href="CLGL__test_2utils_8cpp.xhtml#acd0aed8d85538d84a97258e97cd65668" target="_top" xlink:title="checkGLError">
<polygon fill="none" stroke="black" points="293.5,-0.5 293.5,-19.5 370.5,-19.5 370.5,-0.5 293.5,-0.5"/>
<text text-anchor="middle" x="332" y="-7.5" font-family="Helvetica,sans-Serif" font-size="10.00">checkGLError</text>
</a>
</g>
</g>
<!-- Node6&#45;&gt;Node9 -->
<g id="edge8" class="edge"><title>Node6&#45;&gt;Node9</title>
<path fill="none" stroke="midnightblue" d="M226.604,-23.4021C244.364,-21.1222 264.95,-18.4794 283.124,-16.1462"/>
<polygon fill="midnightblue" stroke="midnightblue" points="283.75,-19.5947 293.222,-14.8498 282.858,-12.6517 283.75,-19.5947"/>
</g>
<!-- Node8 -->
<g id="node8" class="node"><title>Node8</title>
<g id="a_node8"><a xlink:href="CLGL__test_2utils_8cpp.xhtml#a0ad38b3024e8b403c440e818c8e7ee5d" target="_top" xlink:title="get_error_string">
<polygon fill="none" stroke="black" points="422,-38.5 422,-57.5 506,-57.5 506,-38.5 422,-38.5"/>
<text text-anchor="middle" x="464" y="-45.5" font-family="Helvetica,sans-Serif" font-size="10.00">get_error_string</text>
</a>
</g>
</g>
<!-- Node7&#45;&gt;Node8 -->
<g id="edge7" class="edge"><title>Node7&#45;&gt;Node8</title>
<path fill="none" stroke="midnightblue" d="M385.501,-48C394.118,-48 403.04,-48 411.629,-48"/>
<polygon fill="midnightblue" stroke="midnightblue" points="411.898,-51.5001 421.898,-48 411.898,-44.5001 411.898,-51.5001"/>
</g>
</g>
</svg>
