<?xml version="1.0" encoding="UTF-8" standalone="no"?>
<!DOCTYPE svg PUBLIC "-//W3C//DTD SVG 1.1//EN"
 "http://www.w3.org/Graphics/SVG/1.1/DTD/svg11.dtd">
<!-- Generated by graphviz version 2.26.3 (20100126.1600)
 -->
<!-- Title: Vector3D::equals Pages: 1 -->
<svg width="220pt" height="110pt"
 viewBox="0.00 0.00 220.00 110.00" xmlns="http://www.w3.org/2000/svg" xmlns:xlink="http://www.w3.org/1999/xlink">
<g id="graph1" class="graph" transform="scale(1 1) rotate(0) translate(4 106)">
<title>Vector3D::equals</title>
<!-- Node1 -->
<g id="node1" class="node"><title>Node1</title>
<polygon fill="#bfbfbf" stroke="black" points="0,-40.5 0,-61.5 92,-61.5 92,-40.5 0,-40.5"/>
<text text-anchor="middle" x="46" y="-48.5" font-family="Helvetica,sans-Serif" font-size="10.00">Vector3D::equals</text>
</g>
<!-- Node2 -->
<g id="node3" class="node"><title>Node2</title>
<a xlink:href="classVector3D.xhtml#aa9eaf29045bf32b95c5c7bcb2b8b68d7" target="_top" xlink:title="Vector3D::getX">
<polygon fill="none" stroke="black" points="128,-80.5 128,-101.5 212,-101.5 212,-80.5 128,-80.5"/>
<text text-anchor="middle" x="170" y="-88.5" font-family="Helvetica,sans-Serif" font-size="10.00">Vector3D::getX</text>
</a>
</g>
<!-- Node1&#45;&gt;Node2 -->
<g id="edge2" class="edge"><title>Node1&#45;&gt;Node2</title>
<path fill="none" stroke="midnightblue" d="M78.5795,-61.5095C93.5541,-66.34 111.509,-72.1321 127.528,-77.2994"/>
<polygon fill="midnightblue" stroke="midnightblue" points="126.616,-80.6827 137.208,-80.4218 128.765,-74.0207 126.616,-80.6827"/>
</g>
<!-- Node3 -->
<g id="node5" class="node"><title>Node3</title>
<a xlink:href="classVector3D.xhtml#aa3ffff17b886274a58417dfe4bb4c4a2" target="_top" xlink:title="Vector3D::getY">
<polygon fill="none" stroke="black" points="128,-40.5 128,-61.5 212,-61.5 212,-40.5 128,-40.5"/>
<text text-anchor="middle" x="170" y="-48.5" font-family="Helvetica,sans-Serif" font-size="10.00">Vector3D::getY</text>
</a>
</g>
<!-- Node1&#45;&gt;Node3 -->
<g id="edge4" class="edge"><title>Node1&#45;&gt;Node3</title>
<path fill="none" stroke="midnightblue" d="M92.173,-51C100.495,-51 109.225,-51 117.706,-51"/>
<polygon fill="midnightblue" stroke="midnightblue" points="117.884,-54.5001 127.884,-51 117.884,-47.5001 117.884,-54.5001"/>
</g>
<!-- Node4 -->
<g id="node7" class="node"><title>Node4</title>
<a xlink:href="classVector3D.xhtml#ab0dcbf253ff78856eccb5ea74d080fc7" target="_top" xlink:title="Vector3D::getZ">
<polygon fill="none" stroke="black" points="128.5,-0.5 128.5,-21.5 211.5,-21.5 211.5,-0.5 128.5,-0.5"/>
<text text-anchor="middle" x="170" y="-8.5" font-family="Helvetica,sans-Serif" font-size="10.00">Vector3D::getZ</text>
</a>
</g>
<!-- Node1&#45;&gt;Node4 -->
<g id="edge6" class="edge"><title>Node1&#45;&gt;Node4</title>
<path fill="none" stroke="midnightblue" d="M78.5795,-40.4905C93.5541,-35.66 111.509,-29.8679 127.528,-24.7006"/>
<polygon fill="midnightblue" stroke="midnightblue" points="128.765,-27.9793 137.208,-21.5782 126.616,-21.3173 128.765,-27.9793"/>
</g>
</g>
</svg>
