<?xml version="1.0" encoding="UTF-8" standalone="no"?>
<!DOCTYPE svg PUBLIC "-//W3C//DTD SVG 1.1//EN"
 "http://www.w3.org/Graphics/SVG/1.1/DTD/svg11.dtd">
<!-- Generated by graphviz version 2.26.3 (20100126.1600)
 -->
<!-- Title: GUIRenderCutCanvas::onCanvasPaint Pages: 1 -->
<svg width="268pt" height="134pt"
 viewBox="0.00 0.00 268.00 134.00" xmlns="http://www.w3.org/2000/svg" xmlns:xlink="http://www.w3.org/1999/xlink">
<g id="graph1" class="graph" transform="scale(1 1) rotate(0) translate(4 130)">
<title>GUIRenderCutCanvas::onCanvasPaint</title>
<!-- Node1 -->
<g id="node1" class="node"><title>Node1</title>
<polygon fill="#bfbfbf" stroke="black" points="0,-40 0,-74 116,-74 116,-40 0,-40"/>
<text text-anchor="start" x="8" y="-61" font-family="Helvetica,sans-Serif" font-size="10.00">GUIRenderCutCanvas</text>
<text text-anchor="middle" x="58" y="-48" font-family="Helvetica,sans-Serif" font-size="10.00">::onCanvasPaint</text>
</g>
<!-- Node2 -->
<g id="node3" class="node"><title>Node2</title>
<a xlink:href="classGUIColorScalePanel.xhtml#ac793a56373a8f7f5cb8d3e413c26e8e7" target="_top" xlink:title="GUIColorScalePanel\l::getImage">
<polygon fill="none" stroke="black" points="152.5,-92 152.5,-126 259.5,-126 259.5,-92 152.5,-92"/>
<text text-anchor="start" x="160.5" y="-113" font-family="Helvetica,sans-Serif" font-size="10.00">GUIColorScalePanel</text>
<text text-anchor="middle" x="206" y="-100" font-family="Helvetica,sans-Serif" font-size="10.00">::getImage</text>
</a>
</g>
<!-- Node1&#45;&gt;Node2 -->
<g id="edge2" class="edge"><title>Node1&#45;&gt;Node2</title>
<path fill="none" stroke="midnightblue" d="M106.461,-74.0267C119.621,-78.6507 134.01,-83.7062 147.655,-88.5003"/>
<polygon fill="midnightblue" stroke="midnightblue" points="146.836,-91.9222 157.43,-91.935 149.156,-85.318 146.836,-91.9222"/>
</g>
<!-- Node3 -->
<g id="node5" class="node"><title>Node3</title>
<a xlink:href="classGUIColorScalePanel.xhtml#aaf6408cc09932a82afc7b2c233ec64c8" target="_top" xlink:title="GUIColorScalePanel\l::paintTo">
<polygon fill="none" stroke="black" points="152.5,-40 152.5,-74 259.5,-74 259.5,-40 152.5,-40"/>
<text text-anchor="start" x="160.5" y="-61" font-family="Helvetica,sans-Serif" font-size="10.00">GUIColorScalePanel</text>
<text text-anchor="middle" x="206" y="-48" font-family="Helvetica,sans-Serif" font-size="10.00">::paintTo</text>
</a>
</g>
<!-- Node1&#45;&gt;Node3 -->
<g id="edge4" class="edge"><title>Node1&#45;&gt;Node3</title>
<path fill="none" stroke="midnightblue" d="M116.069,-57C124.683,-57 133.6,-57 142.322,-57"/>
<polygon fill="midnightblue" stroke="midnightblue" points="142.441,-60.5001 152.441,-57 142.441,-53.5001 142.441,-60.5001"/>
</g>
<!-- Node4 -->
<g id="node7" class="node"><title>Node4</title>
<a xlink:href="namespaceUtils.xhtml#a233ff9a0b34b10195a434f1ff66323b8" target="_top" xlink:title="Utils::floattowxstr">
<polygon fill="none" stroke="black" points="159,-0.5 159,-21.5 253,-21.5 253,-0.5 159,-0.5"/>
<text text-anchor="middle" x="206" y="-8.5" font-family="Helvetica,sans-Serif" font-size="10.00">Utils::floattowxstr</text>
</a>
</g>
<!-- Node1&#45;&gt;Node4 -->
<g id="edge6" class="edge"><title>Node1&#45;&gt;Node4</title>
<path fill="none" stroke="midnightblue" d="M113.11,-39.8713C129.29,-34.8424 146.761,-29.4121 162.138,-24.6326"/>
<polygon fill="midnightblue" stroke="midnightblue" points="163.396,-27.907 171.906,-21.5966 161.318,-21.2225 163.396,-27.907"/>
</g>
</g>
</svg>
