<?xml version="1.0" encoding="UTF-8" standalone="no"?>
<!DOCTYPE svg PUBLIC "-//W3C//DTD SVG 1.1//EN"
 "http://www.w3.org/Graphics/SVG/1.1/DTD/svg11.dtd">
<!-- Generated by graphviz version 2.26.3 (20100126.1600)
 -->
<!-- Title: tetgenmesh::outmesh2vtk Pages: 1 -->
<svg width="496pt" height="202pt"
 viewBox="0.00 0.00 496.00 202.00" xmlns="http://www.w3.org/2000/svg" xmlns:xlink="http://www.w3.org/1999/xlink">
<g id="graph1" class="graph" transform="scale(1 1) rotate(0) translate(4 198)">
<title>tetgenmesh::outmesh2vtk</title>
<!-- Node1 -->
<g id="node1" class="node"><title>Node1</title>
<polygon fill="#bfbfbf" stroke="black" points="0,-80.5 0,-101.5 130,-101.5 130,-80.5 0,-80.5"/>
<text text-anchor="middle" x="65" y="-88.5" font-family="Helvetica,sans-Serif" font-size="10.00">tetgenmesh::outmesh2vtk</text>
</g>
<!-- Node2 -->
<g id="node3" class="node"><title>Node2</title>
<a xlink:href="classtetgenmesh_1_1memorypool.xhtml#a623b101e4e2f249d8b7e5dba65c3f7e2" target="_top" xlink:title="tetgenmesh::memorypool\l::traversalinit">
<polygon fill="none" stroke="black" points="181.5,-160 181.5,-194 308.5,-194 308.5,-160 181.5,-160"/>
<text text-anchor="start" x="189.5" y="-181" font-family="Helvetica,sans-Serif" font-size="10.00">tetgenmesh::memorypool</text>
<text text-anchor="middle" x="245" y="-168" font-family="Helvetica,sans-Serif" font-size="10.00">::traversalinit</text>
</a>
</g>
<!-- Node1&#45;&gt;Node2 -->
<g id="edge2" class="edge"><title>Node1&#45;&gt;Node2</title>
<path fill="none" stroke="midnightblue" d="M80.5109,-101.675C99.8551,-114.638 134.255,-136.556 166,-151 170.027,-152.832 174.222,-154.598 178.486,-156.288"/>
<polygon fill="midnightblue" stroke="midnightblue" points="177.305,-159.583 187.896,-159.86 179.789,-153.039 177.305,-159.583"/>
</g>
<!-- Node3 -->
<g id="node5" class="node"><title>Node3</title>
<a xlink:href="classtetgenmesh.xhtml#a2b088cf9fa743d47b4520d43d9964087" target="_top" xlink:title="tetgenmesh::pointtraverse">
<polygon fill="none" stroke="black" points="180,-80.5 180,-101.5 310,-101.5 310,-80.5 180,-80.5"/>
<text text-anchor="middle" x="245" y="-88.5" font-family="Helvetica,sans-Serif" font-size="10.00">tetgenmesh::pointtraverse</text>
</a>
</g>
<!-- Node1&#45;&gt;Node3 -->
<g id="edge4" class="edge"><title>Node1&#45;&gt;Node3</title>
<path fill="none" stroke="midnightblue" d="M130.239,-91C143.02,-91 156.524,-91 169.605,-91"/>
<polygon fill="midnightblue" stroke="midnightblue" points="169.984,-94.5001 179.984,-91 169.984,-87.5001 169.984,-94.5001"/>
</g>
<!-- Node6 -->
<g id="node11" class="node"><title>Node6</title>
<a xlink:href="classtetgenmesh.xhtml#a11da430cc44475b41fdbfc80de511192" target="_top" xlink:title="tetgenmesh::tetrahedrontraverse">
<polygon fill="none" stroke="black" points="166,-120.5 166,-141.5 324,-141.5 324,-120.5 166,-120.5"/>
<text text-anchor="middle" x="245" y="-128.5" font-family="Helvetica,sans-Serif" font-size="10.00">tetgenmesh::tetrahedrontraverse</text>
</a>
</g>
<!-- Node1&#45;&gt;Node6 -->
<g id="edge10" class="edge"><title>Node1&#45;&gt;Node6</title>
<path fill="none" stroke="midnightblue" d="M112.293,-101.51C135.455,-106.657 163.529,-112.895 187.88,-118.307"/>
<polygon fill="midnightblue" stroke="midnightblue" points="187.19,-121.739 197.711,-120.491 188.708,-114.905 187.19,-121.739"/>
</g>
<!-- Node7 -->
<g id="node14" class="node"><title>Node7</title>
<a xlink:href="classtetgenmesh.xhtml#a46fa5fabd0e8e806f7f8beb069732e21" target="_top" xlink:title="tetgenmesh::pointmark">
<polygon fill="none" stroke="black" points="187,-40.5 187,-61.5 303,-61.5 303,-40.5 187,-40.5"/>
<text text-anchor="middle" x="245" y="-48.5" font-family="Helvetica,sans-Serif" font-size="10.00">tetgenmesh::pointmark</text>
</a>
</g>
<!-- Node1&#45;&gt;Node7 -->
<g id="edge14" class="edge"><title>Node1&#45;&gt;Node7</title>
<path fill="none" stroke="midnightblue" d="M112.293,-80.4905C135.455,-75.3434 163.529,-69.1046 187.88,-63.6933"/>
<polygon fill="midnightblue" stroke="midnightblue" points="188.708,-67.0948 197.711,-61.5087 187.19,-60.2614 188.708,-67.0948"/>
</g>
<!-- Node8 -->
<g id="node16" class="node"><title>Node8</title>
<a xlink:href="classtetgenmesh.xhtml#abffbd551714f2e119e0f8ba3e4e54c92" target="_top" xlink:title="tetgenmesh::elemattribute">
<polygon fill="none" stroke="black" points="180,-0.5 180,-21.5 310,-21.5 310,-0.5 180,-0.5"/>
<text text-anchor="middle" x="245" y="-8.5" font-family="Helvetica,sans-Serif" font-size="10.00">tetgenmesh::elemattribute</text>
</a>
</g>
<!-- Node1&#45;&gt;Node8 -->
<g id="edge16" class="edge"><title>Node1&#45;&gt;Node8</title>
<path fill="none" stroke="midnightblue" d="M79.6833,-80.4194C98.7312,-67.1416 133.392,-44.4798 166,-31 171.835,-28.588 178.036,-26.4092 184.298,-24.4556"/>
<polygon fill="midnightblue" stroke="midnightblue" points="185.533,-27.7408 194.145,-21.5697 183.565,-21.0233 185.533,-27.7408"/>
</g>
<!-- Node4 -->
<g id="node7" class="node"><title>Node4</title>
<a xlink:href="classtetgenmesh_1_1memorypool.xhtml#a151fe73459d0fa9a7262d0030fecf291" target="_top" xlink:title="tetgenmesh::memorypool\l::traverse">
<polygon fill="none" stroke="black" points="360.5,-114 360.5,-148 487.5,-148 487.5,-114 360.5,-114"/>
<text text-anchor="start" x="368.5" y="-135" font-family="Helvetica,sans-Serif" font-size="10.00">tetgenmesh::memorypool</text>
<text text-anchor="middle" x="424" y="-122" font-family="Helvetica,sans-Serif" font-size="10.00">::traverse</text>
</a>
</g>
<!-- Node3&#45;&gt;Node4 -->
<g id="edge6" class="edge"><title>Node3&#45;&gt;Node4</title>
<path fill="none" stroke="midnightblue" d="M292.03,-101.51C309.93,-105.509 330.78,-110.169 350.55,-114.587"/>
<polygon fill="midnightblue" stroke="midnightblue" points="349.936,-118.036 360.458,-116.801 351.462,-111.204 349.936,-118.036"/>
</g>
<!-- Node5 -->
<g id="node9" class="node"><title>Node5</title>
<a xlink:href="classtetgenmesh.xhtml#a87204594ee11bb38e68e0381e6e04b6c" target="_top" xlink:title="tetgenmesh::pointtype">
<polygon fill="none" stroke="black" points="367.5,-74.5 367.5,-95.5 480.5,-95.5 480.5,-74.5 367.5,-74.5"/>
<text text-anchor="middle" x="424" y="-82.5" font-family="Helvetica,sans-Serif" font-size="10.00">tetgenmesh::pointtype</text>
</a>
</g>
<!-- Node3&#45;&gt;Node5 -->
<g id="edge8" class="edge"><title>Node3&#45;&gt;Node5</title>
<path fill="none" stroke="midnightblue" d="M310.129,-88.8169C325.545,-88.3002 342.006,-87.7484 357.482,-87.2296"/>
<polygon fill="midnightblue" stroke="midnightblue" points="357.613,-90.7273 367.49,-86.8942 357.378,-83.7313 357.613,-90.7273"/>
</g>
<!-- Node6&#45;&gt;Node4 -->
<g id="edge12" class="edge"><title>Node6&#45;&gt;Node4</title>
<path fill="none" stroke="midnightblue" d="M324.033,-131C332.784,-131 341.67,-131 350.351,-131"/>
<polygon fill="midnightblue" stroke="midnightblue" points="350.427,-134.5 360.427,-131 350.427,-127.5 350.427,-134.5"/>
</g>
</g>
</svg>
