<?xml version="1.0" encoding="UTF-8" standalone="no"?>
<!DOCTYPE svg PUBLIC "-//W3C//DTD SVG 1.1//EN"
 "http://www.w3.org/Graphics/SVG/1.1/DTD/svg11.dtd">
<!-- Generated by graphviz version 2.26.3 (20100126.1600)
 -->
<!-- Title: tetgenmesh::restorecavity Pages: 1 -->
<svg width="982pt" height="134pt"
 viewBox="0.00 0.00 982.00 134.00" xmlns="http://www.w3.org/2000/svg" xmlns:xlink="http://www.w3.org/1999/xlink">
<g id="graph1" class="graph" transform="scale(1 1) rotate(0) translate(4 130)">
<title>tetgenmesh::restorecavity</title>
<!-- Node1 -->
<g id="node1" class="node"><title>Node1</title>
<polygon fill="#bfbfbf" stroke="black" points="0,-46.5 0,-67.5 130,-67.5 130,-46.5 0,-46.5"/>
<text text-anchor="middle" x="65" y="-54.5" font-family="Helvetica,sans-Serif" font-size="10.00">tetgenmesh::restorecavity</text>
</g>
<!-- Node2 -->
<g id="node3" class="node"><title>Node2</title>
<a xlink:href="classtetgenmesh.xhtml#a7579c3a44a54712623d9f9e5fc1dfbdc" target="_top" xlink:title="tetgenmesh::constrainedfacets">
<polygon fill="none" stroke="black" points="166.5,-46.5 166.5,-67.5 317.5,-67.5 317.5,-46.5 166.5,-46.5"/>
<text text-anchor="middle" x="242" y="-54.5" font-family="Helvetica,sans-Serif" font-size="10.00">tetgenmesh::constrainedfacets</text>
</a>
</g>
<!-- Node1&#45;&gt;Node2 -->
<g id="edge2" class="edge"><title>Node1&#45;&gt;Node2</title>
<path fill="none" stroke="midnightblue" d="M140.171,-57C148.789,-57 157.579,-57 166.204,-57"/>
<polygon fill="midnightblue" stroke="midnightblue" points="140.154,-53.5001 130.154,-57 140.154,-60.5001 140.154,-53.5001"/>
</g>
<!-- Node3 -->
<g id="node5" class="node"><title>Node3</title>
<a xlink:href="classtetgenmesh.xhtml#aab64d62b3d2b048a38158fb2bf678624" target="_top" xlink:title="tetgenmesh::constraineddelaunay">
<polygon fill="none" stroke="black" points="354.5,-46.5 354.5,-67.5 517.5,-67.5 517.5,-46.5 354.5,-46.5"/>
<text text-anchor="middle" x="436" y="-54.5" font-family="Helvetica,sans-Serif" font-size="10.00">tetgenmesh::constraineddelaunay</text>
</a>
</g>
<!-- Node2&#45;&gt;Node3 -->
<g id="edge4" class="edge"><title>Node2&#45;&gt;Node3</title>
<path fill="none" stroke="midnightblue" d="M327.797,-57C336.58,-57 345.487,-57 354.225,-57"/>
<polygon fill="midnightblue" stroke="midnightblue" points="327.561,-53.5001 317.561,-57 327.561,-60.5001 327.561,-53.5001"/>
</g>
<!-- Node4 -->
<g id="node7" class="node"><title>Node4</title>
<a xlink:href="tetgen_8h.xhtml#ad3637eb4ffe7fda90667e67b7771d964" target="_top" xlink:title="tetrahedralize">
<polygon fill="none" stroke="black" points="554.5,-46.5 554.5,-67.5 629.5,-67.5 629.5,-46.5 554.5,-46.5"/>
<text text-anchor="middle" x="592" y="-54.5" font-family="Helvetica,sans-Serif" font-size="10.00">tetrahedralize</text>
</a>
</g>
<!-- Node3&#45;&gt;Node4 -->
<g id="edge6" class="edge"><title>Node3&#45;&gt;Node4</title>
<path fill="none" stroke="midnightblue" d="M527.823,-57C537.119,-57 546.145,-57 554.349,-57"/>
<polygon fill="midnightblue" stroke="midnightblue" points="527.655,-53.5001 517.655,-57 527.655,-60.5001 527.655,-53.5001"/>
</g>
<!-- Node5 -->
<g id="node9" class="node"><title>Node5</title>
<a xlink:href="classGUICutRenderWindow.xhtml#a9eedb7088ad31f4680a77ed3a06fa60c" target="_top" xlink:title="Berechnet die 2D&#45;Temperaturverteilung als Grafik. ">
<polygon fill="none" stroke="black" points="668.5,-89 668.5,-123 785.5,-123 785.5,-89 668.5,-89"/>
<text text-anchor="start" x="676.5" y="-110" font-family="Helvetica,sans-Serif" font-size="10.00">GUICutRenderWindow</text>
<text text-anchor="middle" x="727" y="-97" font-family="Helvetica,sans-Serif" font-size="10.00">::renderImage</text>
</a>
</g>
<!-- Node4&#45;&gt;Node5 -->
<g id="edge8" class="edge"><title>Node4&#45;&gt;Node5</title>
<path fill="none" stroke="midnightblue" d="M630.675,-71.0375C646.063,-76.6228 663.912,-83.1014 680.034,-88.953"/>
<polygon fill="midnightblue" stroke="midnightblue" points="631.555,-67.6336 620.961,-67.5117 629.167,-74.2136 631.555,-67.6336"/>
</g>
<!-- Node7 -->
<g id="node13" class="node"><title>Node7</title>
<a xlink:href="classObjectData.xhtml#af3a850833d08eb9b45357449f455e24d" target="_top" xlink:title="Zerlegt das Objekt in Tetraeder (Schnittstelle zur Tetgen&#45;Bibliothek) und Berechnet die Temperaturver...">
<polygon fill="none" stroke="black" points="666,-46.5 666,-67.5 788,-67.5 788,-46.5 666,-46.5"/>
<text text-anchor="middle" x="727" y="-54.5" font-family="Helvetica,sans-Serif" font-size="10.00">ObjectData::calculateIO</text>
</a>
</g>
<!-- Node4&#45;&gt;Node7 -->
<g id="edge12" class="edge"><title>Node4&#45;&gt;Node7</title>
<path fill="none" stroke="midnightblue" d="M639.654,-57C648.112,-57 657.025,-57 665.795,-57"/>
<polygon fill="midnightblue" stroke="midnightblue" points="639.605,-53.5001 629.605,-57 639.605,-60.5001 639.605,-53.5001"/>
</g>
<!-- Node10 -->
<g id="node19" class="node"><title>Node10</title>
<a xlink:href="tetgen_8cxx.xhtml#a0ddf1224851353fc92bfbff6f499fa97" target="_top" xlink:title="main">
<polygon fill="none" stroke="black" points="708,-6.5 708,-27.5 746,-27.5 746,-6.5 708,-6.5"/>
<text text-anchor="middle" x="727" y="-14.5" font-family="Helvetica,sans-Serif" font-size="10.00">main</text>
</a>
</g>
<!-- Node4&#45;&gt;Node10 -->
<g id="edge18" class="edge"><title>Node4&#45;&gt;Node10</title>
<path fill="none" stroke="midnightblue" d="M637.154,-43.6209C661.267,-36.4764 689.668,-28.0613 707.984,-22.6343"/>
<polygon fill="midnightblue" stroke="midnightblue" points="636.063,-40.2937 627.47,-46.4905 638.052,-47.0053 636.063,-40.2937"/>
</g>
<!-- Node6 -->
<g id="node11" class="node"><title>Node6</title>
<a xlink:href="classGUICutRenderWindow.xhtml#a7cd1bfbec53756a1cbbe1616b4d46c7a" target="_top" xlink:title="Behandelt das Drücken des Buttons zur Berechnung der zweidimensionalen Temperaturverteilung. ">
<polygon fill="none" stroke="black" points="840.5,-92 840.5,-126 957.5,-126 957.5,-92 840.5,-92"/>
<text text-anchor="start" x="848.5" y="-113" font-family="Helvetica,sans-Serif" font-size="10.00">GUICutRenderWindow</text>
<text text-anchor="middle" x="899" y="-100" font-family="Helvetica,sans-Serif" font-size="10.00">::renderCutBtClick</text>
</a>
</g>
<!-- Node5&#45;&gt;Node6 -->
<g id="edge10" class="edge"><title>Node5&#45;&gt;Node6</title>
<path fill="none" stroke="midnightblue" d="M795.777,-107.2C810.511,-107.457 825.948,-107.726 840.261,-107.975"/>
<polygon fill="midnightblue" stroke="midnightblue" points="795.771,-103.699 785.712,-107.024 795.649,-110.698 795.771,-103.699"/>
</g>
<!-- Node8 -->
<g id="node15" class="node"><title>Node8</title>
<a xlink:href="classGUIMainWindow.xhtml#a0c2de30274c7f52ff74ec1217e47a9e5" target="_top" xlink:title="Berechnet die 3D&#45;Temperaturverteilung neu. ">
<polygon fill="none" stroke="black" points="824,-40 824,-74 974,-74 974,-40 824,-40"/>
<text text-anchor="start" x="832" y="-61" font-family="Helvetica,sans-Serif" font-size="10.00">GUIMainWindow::OnRecalcBt</text>
<text text-anchor="middle" x="899" y="-48" font-family="Helvetica,sans-Serif" font-size="10.00">Click</text>
</a>
</g>
<!-- Node7&#45;&gt;Node8 -->
<g id="edge14" class="edge"><title>Node7&#45;&gt;Node8</title>
<path fill="none" stroke="midnightblue" d="M798.316,-57C806.768,-57 815.415,-57 823.918,-57"/>
<polygon fill="midnightblue" stroke="midnightblue" points="798.125,-53.5001 788.125,-57 798.125,-60.5001 798.125,-53.5001"/>
</g>
<!-- Node9 -->
<g id="node17" class="node"><title>Node9</title>
<a xlink:href="classGUITimeline.xhtml#a099f3654aa6e7ea04df861851a0e9ec8" target="_top" xlink:title="Sucht den Zeitpunkt zwischen zwei markierten Stellen auf der Sensordaten&#45;Zeitleiste, für den der Wäremeenergiegehalt maximal wird. ">
<polygon fill="none" stroke="black" points="830.5,-0.5 830.5,-21.5 967.5,-21.5 967.5,-0.5 830.5,-0.5"/>
<text text-anchor="middle" x="899" y="-8.5" font-family="Helvetica,sans-Serif" font-size="10.00">GUITimeline::findMaxValue</text>
</a>
</g>
<!-- Node7&#45;&gt;Node9 -->
<g id="edge16" class="edge"><title>Node7&#45;&gt;Node9</title>
<path fill="none" stroke="midnightblue" d="M775.997,-43.8537C791.363,-39.7343 808.387,-35.1741 824,-31 835.456,-27.9371 847.899,-24.6167 859.296,-21.5777"/>
<polygon fill="midnightblue" stroke="midnightblue" points="774.923,-40.5181 766.17,-46.4885 776.735,-47.2793 774.923,-40.5181"/>
</g>
</g>
</svg>
