<?xml version="1.0" encoding="UTF-8" standalone="no"?>
<!DOCTYPE svg PUBLIC "-//W3C//DTD SVG 1.1//EN"
 "http://www.w3.org/Graphics/SVG/1.1/DTD/svg11.dtd">
<!-- Generated by graphviz version 2.26.3 (20100126.1600)
 -->
<!-- Title: Triangle::getV2 Pages: 1 -->
<svg width="738pt" height="254pt"
 viewBox="0.00 0.00 738.00 254.00" xmlns="http://www.w3.org/2000/svg" xmlns:xlink="http://www.w3.org/1999/xlink">
<g id="graph1" class="graph" transform="scale(1 1) rotate(0) translate(4 250)">
<title>Triangle::getV2</title>
<!-- Node1 -->
<g id="node1" class="node"><title>Node1</title>
<polygon fill="#bfbfbf" stroke="black" points="0.5,-100.5 0.5,-121.5 83.5,-121.5 83.5,-100.5 0.5,-100.5"/>
<text text-anchor="middle" x="42" y="-108.5" font-family="Helvetica,sans-Serif" font-size="10.00">Triangle::getV2</text>
</g>
<!-- Node2 -->
<g id="node3" class="node"><title>Node2</title>
<a xlink:href="classExporter.xhtml#ae2aa06b8c8c77e172801a1f77800ffd0" target="_top" xlink:title="Exporter::ExportCutCSV">
<polygon fill="none" stroke="black" points="124.5,-215.5 124.5,-236.5 249.5,-236.5 249.5,-215.5 124.5,-215.5"/>
<text text-anchor="middle" x="187" y="-223.5" font-family="Helvetica,sans-Serif" font-size="10.00">Exporter::ExportCutCSV</text>
</a>
</g>
<!-- Node1&#45;&gt;Node2 -->
<g id="edge2" class="edge"><title>Node1&#45;&gt;Node2</title>
<path fill="none" stroke="midnightblue" d="M53.8024,-130.313C67.3803,-151.022 91.5071,-183.544 120,-203 127.516,-208.132 136.285,-212.219 144.954,-215.436"/>
<polygon fill="midnightblue" stroke="midnightblue" points="56.6526,-128.272 48.3284,-121.718 50.7485,-132.033 56.6526,-128.272"/>
</g>
<!-- Node4 -->
<g id="node7" class="node"><title>Node4</title>
<a xlink:href="classGUICutRenderWindow.xhtml#a9eedb7088ad31f4680a77ed3a06fa60c" target="_top" xlink:title="GUICutRenderWindow\l::renderImage">
<polygon fill="none" stroke="black" points="128.5,-160 128.5,-194 245.5,-194 245.5,-160 128.5,-160"/>
<text text-anchor="start" x="136.5" y="-181" font-family="Helvetica,sans-Serif" font-size="10.00">GUICutRenderWindow</text>
<text text-anchor="middle" x="187" y="-168" font-family="Helvetica,sans-Serif" font-size="10.00">::renderImage</text>
</a>
</g>
<!-- Node1&#45;&gt;Node4 -->
<g id="edge6" class="edge"><title>Node1&#45;&gt;Node4</title>
<path fill="none" stroke="midnightblue" d="M70.332,-126.426C84.9825,-134.173 103.259,-143.483 120,-151 126.716,-154.015 133.895,-157.022 140.966,-159.863"/>
<polygon fill="midnightblue" stroke="midnightblue" points="71.7509,-123.216 61.2806,-121.596 68.4552,-129.392 71.7509,-123.216"/>
</g>
<!-- Node6 -->
<g id="node11" class="node"><title>Node6</title>
<a xlink:href="classRenderer.xhtml#af7e5f8f68742f198e315fb4683a605a4" target="_top" xlink:title="Renderer::render">
<polygon fill="none" stroke="black" points="142.5,-120.5 142.5,-141.5 231.5,-141.5 231.5,-120.5 142.5,-120.5"/>
<text text-anchor="middle" x="187" y="-128.5" font-family="Helvetica,sans-Serif" font-size="10.00">Renderer::render</text>
</a>
</g>
<!-- Node1&#45;&gt;Node6 -->
<g id="edge10" class="edge"><title>Node1&#45;&gt;Node6</title>
<path fill="none" stroke="midnightblue" d="M93.7573,-118.139C109.662,-120.333 127.02,-122.727 142.402,-124.849"/>
<polygon fill="midnightblue" stroke="midnightblue" points="93.9357,-114.63 83.5512,-116.731 92.9791,-121.565 93.9357,-114.63"/>
</g>
<!-- Node8 -->
<g id="node15" class="node"><title>Node8</title>
<a xlink:href="classInterpolator.xhtml#ad59ac6ed3822e08a67ac7d1ee88a5bd2" target="_top" xlink:title="Interpolator::interpolateTri">
<polygon fill="none" stroke="black" points="123,-80.5 123,-101.5 251,-101.5 251,-80.5 123,-80.5"/>
<text text-anchor="middle" x="187" y="-88.5" font-family="Helvetica,sans-Serif" font-size="10.00">Interpolator::interpolateTri</text>
</a>
</g>
<!-- Node1&#45;&gt;Node8 -->
<g id="edge14" class="edge"><title>Node1&#45;&gt;Node8</title>
<path fill="none" stroke="midnightblue" d="M93.6292,-103.879C103.138,-102.567 113.171,-101.183 122.993,-99.8286"/>
<polygon fill="midnightblue" stroke="midnightblue" points="92.9791,-100.435 83.5512,-105.269 93.9357,-107.37 92.9791,-100.435"/>
</g>
<!-- Node9 -->
<g id="node17" class="node"><title>Node9</title>
<a xlink:href="classInterpolator.xhtml#a30e714ca6dff9b5745d029f95af1420a" target="_top" xlink:title="Interpolator::interpolateTet">
<polygon fill="none" stroke="black" points="121.5,-40.5 121.5,-61.5 252.5,-61.5 252.5,-40.5 121.5,-40.5"/>
<text text-anchor="middle" x="187" y="-48.5" font-family="Helvetica,sans-Serif" font-size="10.00">Interpolator::interpolateTet</text>
</a>
</g>
<!-- Node1&#45;&gt;Node9 -->
<g id="edge16" class="edge"><title>Node1&#45;&gt;Node9</title>
<path fill="none" stroke="midnightblue" d="M69.2022,-95.4877C83.9312,-87.4912 102.624,-77.98 120,-71 128.674,-67.5159 138.191,-64.3183 147.26,-61.5501"/>
<polygon fill="midnightblue" stroke="midnightblue" points="67.2145,-92.5869 60.1492,-100.482 70.5959,-98.7161 67.2145,-92.5869"/>
</g>
<!-- Node13 -->
<g id="node25" class="node"><title>Node13</title>
<a xlink:href="namespaceUtils.xhtml#a5f216cc7011a901130db81321b565334" target="_top" xlink:title="Utils::rayIntersectsTriangle">
<polygon fill="none" stroke="black" points="120,-0.5 120,-21.5 254,-21.5 254,-0.5 120,-0.5"/>
<text text-anchor="middle" x="187" y="-8.5" font-family="Helvetica,sans-Serif" font-size="10.00">Utils::rayIntersectsTriangle</text>
</a>
</g>
<!-- Node1&#45;&gt;Node13 -->
<g id="edge24" class="edge"><title>Node1&#45;&gt;Node13</title>
<path fill="none" stroke="midnightblue" d="M55.7471,-92.118C69.9175,-73.9537 93.6134,-46.9633 120,-31 126.232,-27.2299 133.223,-24.1284 140.275,-21.5892"/>
<polygon fill="midnightblue" stroke="midnightblue" points="52.8417,-90.1569 49.5859,-100.239 58.4184,-94.3878 52.8417,-90.1569"/>
</g>
<!-- Node3 -->
<g id="node5" class="node"><title>Node3</title>
<a xlink:href="classGUICutRenderWindow.xhtml#a3aee786d94c840ab4e6df6e3c2817802" target="_top" xlink:title="GUICutRenderWindow\l::OnExportCSV">
<polygon fill="none" stroke="black" points="292.5,-212 292.5,-246 409.5,-246 409.5,-212 292.5,-212"/>
<text text-anchor="start" x="300.5" y="-233" font-family="Helvetica,sans-Serif" font-size="10.00">GUICutRenderWindow</text>
<text text-anchor="middle" x="351" y="-220" font-family="Helvetica,sans-Serif" font-size="10.00">::OnExportCSV</text>
</a>
</g>
<!-- Node2&#45;&gt;Node3 -->
<g id="edge4" class="edge"><title>Node2&#45;&gt;Node3</title>
<path fill="none" stroke="midnightblue" d="M260.157,-227.338C270.906,-227.535 281.861,-227.735 292.27,-227.926"/>
<polygon fill="midnightblue" stroke="midnightblue" points="260,-223.835 249.938,-227.151 259.872,-230.834 260,-223.835"/>
</g>
<!-- Node5 -->
<g id="node9" class="node"><title>Node5</title>
<a xlink:href="classGUICutRenderWindow.xhtml#a7cd1bfbec53756a1cbbe1616b4d46c7a" target="_top" xlink:title="GUICutRenderWindow\l::renderCutBtClick">
<polygon fill="none" stroke="black" points="292.5,-160 292.5,-194 409.5,-194 409.5,-160 292.5,-160"/>
<text text-anchor="start" x="300.5" y="-181" font-family="Helvetica,sans-Serif" font-size="10.00">GUICutRenderWindow</text>
<text text-anchor="middle" x="351" y="-168" font-family="Helvetica,sans-Serif" font-size="10.00">::renderCutBtClick</text>
</a>
</g>
<!-- Node4&#45;&gt;Node5 -->
<g id="edge8" class="edge"><title>Node4&#45;&gt;Node5</title>
<path fill="none" stroke="midnightblue" d="M255.838,-177C267.995,-177 280.548,-177 292.39,-177"/>
<polygon fill="midnightblue" stroke="midnightblue" points="255.745,-173.5 245.745,-177 255.745,-180.5 255.745,-173.5"/>
</g>
<!-- Node7 -->
<g id="node13" class="node"><title>Node7</title>
<a xlink:href="classGUIGLCanvas.xhtml#a83f52d08591920a339150c2f45069c8f" target="_top" xlink:title="GUIGLCanvas::OnPaint">
<polygon fill="none" stroke="black" points="290,-120.5 290,-141.5 412,-141.5 412,-120.5 290,-120.5"/>
<text text-anchor="middle" x="351" y="-128.5" font-family="Helvetica,sans-Serif" font-size="10.00">GUIGLCanvas::OnPaint</text>
</a>
</g>
<!-- Node6&#45;&gt;Node7 -->
<g id="edge12" class="edge"><title>Node6&#45;&gt;Node7</title>
<path fill="none" stroke="midnightblue" d="M242.183,-131C257.53,-131 274.285,-131 289.947,-131"/>
<polygon fill="midnightblue" stroke="midnightblue" points="241.814,-127.5 231.814,-131 241.814,-134.5 241.814,-127.5"/>
</g>
<!-- Node10 -->
<g id="node19" class="node"><title>Node10</title>
<a xlink:href="namespaceUtils.xhtml#a6a0ae18a42e2d206bc1b43da27820fe2" target="_top" xlink:title="Utils::getPointValue">
<polygon fill="none" stroke="black" points="299,-40.5 299,-61.5 403,-61.5 403,-40.5 299,-40.5"/>
<text text-anchor="middle" x="351" y="-48.5" font-family="Helvetica,sans-Serif" font-size="10.00">Utils::getPointValue</text>
</a>
</g>
<!-- Node9&#45;&gt;Node10 -->
<g id="edge18" class="edge"><title>Node9&#45;&gt;Node10</title>
<path fill="none" stroke="midnightblue" d="M262.908,-51C275.068,-51 287.407,-51 298.849,-51"/>
<polygon fill="midnightblue" stroke="midnightblue" points="262.76,-47.5001 252.76,-51 262.76,-54.5001 262.76,-47.5001"/>
</g>
<!-- Node11 -->
<g id="node21" class="node"><title>Node11</title>
<a xlink:href="classAnalyzer.xhtml#a8f73ee0aa71ae395a74b43dc76b35458" target="_top" xlink:title="Analyzer::analyzePoint">
<polygon fill="none" stroke="black" points="448.5,-40.5 448.5,-61.5 565.5,-61.5 565.5,-40.5 448.5,-40.5"/>
<text text-anchor="middle" x="507" y="-48.5" font-family="Helvetica,sans-Serif" font-size="10.00">Analyzer::analyzePoint</text>
</a>
</g>
<!-- Node10&#45;&gt;Node11 -->
<g id="edge20" class="edge"><title>Node10&#45;&gt;Node11</title>
<path fill="none" stroke="midnightblue" d="M413.712,-51C425.133,-51 437.01,-51 448.31,-51"/>
<polygon fill="midnightblue" stroke="midnightblue" points="413.38,-47.5001 403.38,-51 413.38,-54.5001 413.38,-47.5001"/>
</g>
<!-- Node12 -->
<g id="node23" class="node"><title>Node12</title>
<a xlink:href="classGUIAnalyzePointWindow.xhtml#aa84ea9958e8b41423f01316d01ba5151" target="_top" xlink:title="GUIAnalyzePointWindow\l::analyzePoint">
<polygon fill="none" stroke="black" points="602,-34 602,-68 730,-68 730,-34 602,-34"/>
<text text-anchor="start" x="610" y="-55" font-family="Helvetica,sans-Serif" font-size="10.00">GUIAnalyzePointWindow</text>
<text text-anchor="middle" x="666" y="-42" font-family="Helvetica,sans-Serif" font-size="10.00">::analyzePoint</text>
</a>
</g>
<!-- Node11&#45;&gt;Node12 -->
<g id="edge22" class="edge"><title>Node11&#45;&gt;Node12</title>
<path fill="none" stroke="midnightblue" d="M575.811,-51C584.466,-51 593.294,-51 601.874,-51"/>
<polygon fill="midnightblue" stroke="midnightblue" points="575.754,-47.5001 565.754,-51 575.754,-54.5001 575.754,-47.5001"/>
</g>
<!-- Node14 -->
<g id="node27" class="node"><title>Node14</title>
<a xlink:href="namespaceUtils.xhtml#af8fc5d6dab27f759ab5d76757a53023f" target="_top" xlink:title="Utils::pointInsideMesh">
<polygon fill="none" stroke="black" points="294,-0.5 294,-21.5 408,-21.5 408,-0.5 294,-0.5"/>
<text text-anchor="middle" x="351" y="-8.5" font-family="Helvetica,sans-Serif" font-size="10.00">Utils::pointInsideMesh</text>
</a>
</g>
<!-- Node13&#45;&gt;Node14 -->
<g id="edge26" class="edge"><title>Node13&#45;&gt;Node14</title>
<path fill="none" stroke="midnightblue" d="M264.453,-11C274.368,-11 284.371,-11 293.881,-11"/>
<polygon fill="midnightblue" stroke="midnightblue" points="264.178,-7.5001 254.178,-11 264.178,-14.5001 264.178,-7.5001"/>
</g>
</g>
</svg>
