<?xml version="1.0" encoding="UTF-8" standalone="no"?>
<!DOCTYPE svg PUBLIC "-//W3C//DTD SVG 1.1//EN"
 "http://www.w3.org/Graphics/SVG/1.1/DTD/svg11.dtd">
<!-- Generated by graphviz version 2.26.3 (20100126.1600)
 -->
<!-- Title: GUIMainWindow::OnMenuImportTSD Pages: 1 -->
<svg width="716pt" height="174pt"
 viewBox="0.00 0.00 716.00 174.00" xmlns="http://www.w3.org/2000/svg" xmlns:xlink="http://www.w3.org/1999/xlink">
<g id="graph1" class="graph" transform="scale(1 1) rotate(0) translate(4 170)">
<title>GUIMainWindow::OnMenuImportTSD</title>
<!-- Node1 -->
<g id="node1" class="node"><title>Node1</title>
<polygon fill="#bfbfbf" stroke="black" points="0,-81.5 0,-102.5 182,-102.5 182,-81.5 0,-81.5"/>
<text text-anchor="middle" x="91" y="-89.5" font-family="Helvetica,sans-Serif" font-size="10.00">GUIMainWindow::OnMenuImportTSD</text>
</g>
<!-- Node2 -->
<g id="node3" class="node"><title>Node2</title>
<a xlink:href="classObjectData.xhtml#ac8056d23b0882a826b6e572ff080688f" target="_top" xlink:title="Lädt zeitbezogene Sensordaten und verknüpft sie mit dem Objekt. ">
<polygon fill="none" stroke="black" points="218,-81.5 218,-102.5 354,-102.5 354,-81.5 218,-81.5"/>
<text text-anchor="middle" x="286" y="-89.5" font-family="Helvetica,sans-Serif" font-size="10.00">ObjectData::addTimedData</text>
</a>
</g>
<!-- Node1&#45;&gt;Node2 -->
<g id="edge2" class="edge"><title>Node1&#45;&gt;Node2</title>
<path fill="none" stroke="midnightblue" d="M182.22,-92C190.747,-92 199.338,-92 207.731,-92"/>
<polygon fill="midnightblue" stroke="midnightblue" points="207.853,-95.5001 217.853,-92 207.853,-88.5001 207.853,-95.5001"/>
</g>
<!-- Node3 -->
<g id="node5" class="node"><title>Node3</title>
<a xlink:href="classImporter.xhtml#a196e66a161a0102194580ec4b10895e5" target="_top" xlink:title="Lädt zeitgesteuerte Sensordaten und Verknüpft diese mit dem Objekt. ">
<polygon fill="none" stroke="black" points="390,-81.5 390,-102.5 518,-102.5 518,-81.5 390,-81.5"/>
<text text-anchor="middle" x="454" y="-89.5" font-family="Helvetica,sans-Serif" font-size="10.00">Importer::LoadTimedData</text>
</a>
</g>
<!-- Node2&#45;&gt;Node3 -->
<g id="edge4" class="edge"><title>Node2&#45;&gt;Node3</title>
<path fill="none" stroke="midnightblue" d="M354.332,-92C362.663,-92 371.208,-92 379.622,-92"/>
<polygon fill="midnightblue" stroke="midnightblue" points="379.797,-95.5001 389.797,-92 379.797,-88.5001 379.797,-95.5001"/>
</g>
<!-- Node4 -->
<g id="node7" class="node"><title>Node4</title>
<a xlink:href="classObjectData.xhtml#a72ac93213382f67b4d5b40c011eb1656" target="_top" xlink:title="Gibt eine Referenz auf die Sensordaten des Objekts zurück. ">
<polygon fill="none" stroke="black" points="554.5,-144.5 554.5,-165.5 707.5,-165.5 707.5,-144.5 554.5,-144.5"/>
<text text-anchor="middle" x="631" y="-152.5" font-family="Helvetica,sans-Serif" font-size="10.00">ObjectData::getSensorDataList</text>
</a>
</g>
<!-- Node3&#45;&gt;Node4 -->
<g id="edge6" class="edge"><title>Node3&#45;&gt;Node4</title>
<path fill="none" stroke="midnightblue" d="M475.863,-102.546C495.873,-111.922 526.468,-125.566 554,-135 560.917,-137.37 568.266,-139.615 575.572,-141.686"/>
<polygon fill="midnightblue" stroke="midnightblue" points="574.895,-145.129 585.464,-144.396 576.745,-138.378 574.895,-145.129"/>
</g>
<!-- Node5 -->
<g id="node9" class="node"><title>Node5</title>
<a xlink:href="Importer_8cpp.xhtml#a0dd0686c00e64af27b47b4c16399d747" target="_top" xlink:title="getTextBlock">
<polygon fill="none" stroke="black" points="594,-104.5 594,-125.5 668,-125.5 668,-104.5 594,-104.5"/>
<text text-anchor="middle" x="631" y="-112.5" font-family="Helvetica,sans-Serif" font-size="10.00">getTextBlock</text>
</a>
</g>
<!-- Node3&#45;&gt;Node5 -->
<g id="edge8" class="edge"><title>Node3&#45;&gt;Node5</title>
<path fill="none" stroke="midnightblue" d="M518.151,-100.336C539.803,-103.15 563.564,-106.237 583.674,-108.85"/>
<polygon fill="midnightblue" stroke="midnightblue" points="583.459,-112.352 593.827,-110.17 584.362,-105.41 583.459,-112.352"/>
</g>
<!-- Node6 -->
<g id="node11" class="node"><title>Node6</title>
<a xlink:href="classObjectData.xhtml#a503d63160a3afe2ea517449f78f8ac42" target="_top" xlink:title="Gibt den Index des aktuell verwendeten Sensordatensatzes zurück. ">
<polygon fill="none" stroke="black" points="556.5,-52 556.5,-86 705.5,-86 705.5,-52 556.5,-52"/>
<text text-anchor="start" x="564.5" y="-73" font-family="Helvetica,sans-Serif" font-size="10.00">ObjectData::getCurrentSensor</text>
<text text-anchor="middle" x="631" y="-60" font-family="Helvetica,sans-Serif" font-size="10.00">Index</text>
</a>
</g>
<!-- Node3&#45;&gt;Node6 -->
<g id="edge10" class="edge"><title>Node3&#45;&gt;Node6</title>
<path fill="none" stroke="midnightblue" d="M518.151,-83.664C527.233,-82.4838 536.686,-81.2555 546.085,-80.0342"/>
<polygon fill="midnightblue" stroke="midnightblue" points="546.777,-83.4738 556.242,-78.7143 545.875,-76.5322 546.777,-83.4738"/>
</g>
<!-- Node7 -->
<g id="node13" class="node"><title>Node7</title>
<a xlink:href="classObjectData.xhtml#a65bc706c460a62f98e6c24959df04c76" target="_top" xlink:title="Setzt den Index des aktuell verwendeten Sensordatensatzes. ">
<polygon fill="none" stroke="black" points="556.5,-0 556.5,-34 705.5,-34 705.5,-0 556.5,-0"/>
<text text-anchor="start" x="564.5" y="-21" font-family="Helvetica,sans-Serif" font-size="10.00">ObjectData::setCurrentSensor</text>
<text text-anchor="middle" x="631" y="-8" font-family="Helvetica,sans-Serif" font-size="10.00">Index</text>
</a>
</g>
<!-- Node3&#45;&gt;Node7 -->
<g id="edge12" class="edge"><title>Node3&#45;&gt;Node7</title>
<path fill="none" stroke="midnightblue" d="M473.574,-81.4651C493.485,-70.9745 525.397,-54.7785 554,-43 558.493,-41.1498 563.171,-39.327 567.902,-37.5575"/>
<polygon fill="midnightblue" stroke="midnightblue" points="569.448,-40.7194 577.646,-34.0088 567.052,-34.142 569.448,-40.7194"/>
</g>
</g>
</svg>
