<?xml version="1.0" encoding="UTF-8" standalone="no"?>
<!DOCTYPE svg PUBLIC "-//W3C//DTD SVG 1.1//EN"
 "http://www.w3.org/Graphics/SVG/1.1/DTD/svg11.dtd">
<!-- Generated by graphviz version 2.26.3 (20100126.1600)
 -->
<!-- Title: Exporter::ExportCutCSV Pages: 1 -->
<svg width="254pt" height="110pt"
 viewBox="0.00 0.00 254.00 110.00" xmlns="http://www.w3.org/2000/svg" xmlns:xlink="http://www.w3.org/1999/xlink">
<g id="graph1" class="graph" transform="scale(1 1) rotate(0) translate(4 106)">
<title>Exporter::ExportCutCSV</title>
<!-- Node1 -->
<g id="node1" class="node"><title>Node1</title>
<polygon fill="#bfbfbf" stroke="black" points="0.5,-40.5 0.5,-61.5 125.5,-61.5 125.5,-40.5 0.5,-40.5"/>
<text text-anchor="middle" x="63" y="-48.5" font-family="Helvetica,sans-Serif" font-size="10.00">Exporter::ExportCutCSV</text>
</g>
<!-- Node2 -->
<g id="node3" class="node"><title>Node2</title>
<a xlink:href="classTriangle.xhtml#ae054a0eae5dae026c5af69274c5f277e" target="_top" xlink:title="Gibt eine Referenz auf den Ortsvektor zum ersten Punkt des Dreiecks zurück. ">
<polygon fill="none" stroke="black" points="162.5,-80.5 162.5,-101.5 245.5,-101.5 245.5,-80.5 162.5,-80.5"/>
<text text-anchor="middle" x="204" y="-88.5" font-family="Helvetica,sans-Serif" font-size="10.00">Triangle::getV1</text>
</a>
</g>
<!-- Node1&#45;&gt;Node2 -->
<g id="edge2" class="edge"><title>Node1&#45;&gt;Node2</title>
<path fill="none" stroke="midnightblue" d="M100.046,-61.5095C117.475,-66.454 138.456,-72.4058 156.99,-77.6639"/>
<polygon fill="midnightblue" stroke="midnightblue" points="156.136,-81.0597 166.712,-80.4218 158.047,-74.3254 156.136,-81.0597"/>
</g>
<!-- Node3 -->
<g id="node5" class="node"><title>Node3</title>
<a xlink:href="classTriangle.xhtml#a6de5f8560482f4130bdbb96b25aa1b58" target="_top" xlink:title="Gibt eine Referenz auf den Ortsvektor zum zweiten Punkt des Dreiecks zurück. ">
<polygon fill="none" stroke="black" points="162.5,-40.5 162.5,-61.5 245.5,-61.5 245.5,-40.5 162.5,-40.5"/>
<text text-anchor="middle" x="204" y="-48.5" font-family="Helvetica,sans-Serif" font-size="10.00">Triangle::getV2</text>
</a>
</g>
<!-- Node1&#45;&gt;Node3 -->
<g id="edge4" class="edge"><title>Node1&#45;&gt;Node3</title>
<path fill="none" stroke="midnightblue" d="M125.666,-51C134.45,-51 143.399,-51 151.958,-51"/>
<polygon fill="midnightblue" stroke="midnightblue" points="152.166,-54.5001 162.166,-51 152.166,-47.5001 152.166,-54.5001"/>
</g>
<!-- Node4 -->
<g id="node7" class="node"><title>Node4</title>
<a xlink:href="classTriangle.xhtml#a792a627dc42adad87c0b30e16a6b5824" target="_top" xlink:title="Gibt eine Referenz auf den Ortsvektor zum dritten Punkt des Dreiecks zurück. ">
<polygon fill="none" stroke="black" points="162.5,-0.5 162.5,-21.5 245.5,-21.5 245.5,-0.5 162.5,-0.5"/>
<text text-anchor="middle" x="204" y="-8.5" font-family="Helvetica,sans-Serif" font-size="10.00">Triangle::getV3</text>
</a>
</g>
<!-- Node1&#45;&gt;Node4 -->
<g id="edge6" class="edge"><title>Node1&#45;&gt;Node4</title>
<path fill="none" stroke="midnightblue" d="M100.046,-40.4905C117.475,-35.546 138.456,-29.5942 156.99,-24.3361"/>
<polygon fill="midnightblue" stroke="midnightblue" points="158.047,-27.6746 166.712,-21.5782 156.136,-20.9403 158.047,-27.6746"/>
</g>
</g>
</svg>
