<?xml version="1.0" encoding="UTF-8" standalone="no"?>
<!DOCTYPE svg PUBLIC "-//W3C//DTD SVG 1.1//EN"
 "http://www.w3.org/Graphics/SVG/1.1/DTD/svg11.dtd">
<!-- Generated by graphviz version 2.26.3 (20100126.1600)
 -->
<!-- Title: tetgenmesh::projpt2face Pages: 1 -->
<!--zoomable 641 -->
<svg id="main" version="1.1" xmlns="http://www.w3.org/2000/svg" xmlns:xlink="http://www.w3.org/1999/xlink" xml:space="preserve" onload="init(evt)">
<style type="text/css"><![CDATA[
.edge:hover path { stroke: red; }
.edge:hover polygon { stroke: red; fill: red; }
]]></style>
<script type="text/javascript"><![CDATA[
var edges = document.getElementsByTagName('g');
if (edges && edges.length) {
  for (var i=0;i<edges.length;i++) {
    if (edges[i].id.substr(0,4)=='edge') {
      edges[i].setAttribute('class','edge');
    }
  }
}
]]></script>
        <defs>
                <circle id="rim" cx="0" cy="0" r="7"/>
                <circle id="rim2" cx="0" cy="0" r="3.5"/>
                <g id="zoomPlus">
                        <use xlink:href="#rim" fill="#404040">
                                <set attributeName="fill" to="#808080" begin="zoomplus.mouseover" end="zoomplus.mouseout"/>
                        </use>
                        <path d="M-4,0h8M0,-4v8" fill="none" stroke="white" stroke-width="1.5" pointer-events="none"/>
                </g>
                <g id="zoomMin">
                        <use xlink:href="#rim" fill="#404040">
                                <set attributeName="fill" to="#808080" begin="zoomminus.mouseover" end="zoomminus.mouseout"/>
                        </use>
                        <path d="M-4,0h8" fill="none" stroke="white" stroke-width="1.5" pointer-events="none"/>
                </g>
                <g id="dirArrow">
                        <path fill="none" stroke="white" stroke-width="1.5" d="M0,-3.0v7 M-2.5,-0.5L0,-3.0L2.5,-0.5"/>
                </g>
               <g id="resetDef">
                       <use xlink:href="#rim2" fill="#404040">
                               <set attributeName="fill" to="#808080" begin="reset.mouseover" end="reset.mouseout"/>
                       </use>
               </g>
        </defs>

<script type="text/javascript">
var viewWidth = 2350;
var viewHeight = 641;
var sectionId = 'dynsection-308';
</script>
<script xlink:href="svgpan.js"/>
<svg id="graph" class="graph">
<g id="viewport">
<title>tetgenmesh::projpt2face</title>
<!-- Node1 -->
<g id="node1" class="node"><title>Node1</title>
<polygon fill="#bfbfbf" stroke="black" points="0,-352.5 0,-373.5 122,-373.5 122,-352.5 0,-352.5"/>
<text text-anchor="middle" x="61" y="-360.5" font-family="Helvetica,sans-Serif" font-size="10.00">tetgenmesh::projpt2face</text>
</g>
<!-- Node2 -->
<g id="node3" class="node"><title>Node2</title>
<a xlink:href="classtetgenmesh.xhtml#a7e79473a5bfee155427a924bba678fbd" target="_top" xlink:title="tetgenmesh::checkfac4encroach">
<polygon fill="none" stroke="black" points="158,-352.5 158,-373.5 316,-373.5 316,-352.5 158,-352.5"/>
<text text-anchor="middle" x="237" y="-360.5" font-family="Helvetica,sans-Serif" font-size="10.00">tetgenmesh::checkfac4encroach</text>
</a>
</g>
<!-- Node1&#45;&gt;Node2 -->
<g id="edge2" class="edge"><title>Node1&#45;&gt;Node2</title>
<path fill="none" stroke="midnightblue" d="M132.199,-363C140.613,-363 149.24,-363 157.757,-363"/>
<polygon fill="midnightblue" stroke="midnightblue" points="132.062,-359.5 122.062,-363 132.062,-366.5 132.062,-359.5"/>
</g>
<!-- Node3 -->
<g id="node5" class="node"><title>Node3</title>
<a xlink:href="classtetgenmesh.xhtml#a5d85611ca91db181e357457beb13a633" target="_top" xlink:title="tetgenmesh::insertpoint">
<polygon fill="none" stroke="black" points="352.5,-352.5 352.5,-373.5 471.5,-373.5 471.5,-352.5 352.5,-352.5"/>
<text text-anchor="middle" x="412" y="-360.5" font-family="Helvetica,sans-Serif" font-size="10.00">tetgenmesh::insertpoint</text>
</a>
</g>
<!-- Node2&#45;&gt;Node3 -->
<g id="edge4" class="edge"><title>Node2&#45;&gt;Node3</title>
<path fill="none" stroke="midnightblue" d="M326.113,-363C335.033,-363 343.931,-363 352.436,-363"/>
<polygon fill="midnightblue" stroke="midnightblue" points="326.052,-359.5 316.052,-363 326.052,-366.5 326.052,-359.5"/>
</g>
<!-- Node4 -->
<g id="node7" class="node"><title>Node4</title>
<a xlink:href="classtetgenmesh.xhtml#a5a5a0513d0bea7aa457eb0bc5fad1b02" target="_top" xlink:title="tetgenmesh::incrementaldelaunay">
<polygon fill="none" stroke="black" points="1528.5,-558.5 1528.5,-579.5 1691.5,-579.5 1691.5,-558.5 1528.5,-558.5"/>
<text text-anchor="middle" x="1610" y="-566.5" font-family="Helvetica,sans-Serif" font-size="10.00">tetgenmesh::incrementaldelaunay</text>
</a>
</g>
<!-- Node3&#45;&gt;Node4 -->
<g id="edge6" class="edge"><title>Node3&#45;&gt;Node4</title>
<path fill="none" stroke="midnightblue" d="M413.88,-383.834C419.243,-429.685 439.011,-539.206 508,-589 619.003,-669.118 678.104,-614 815,-614 815,-614 815,-614 1213,-614 1334.74,-614 1476.14,-592.851 1553.03,-579.551"/>
<polygon fill="midnightblue" stroke="midnightblue" points="417.333,-383.202 412.806,-373.623 410.372,-383.935 417.333,-383.202"/>
</g>
<!-- Node12 -->
<g id="node23" class="node"><title>Node12</title>
<a xlink:href="classtetgenmesh.xhtml#a8dee14a42e35e4fe65944518eed4f7d3" target="_top" xlink:title="tetgenmesh::delaunizesegments">
<polygon fill="none" stroke="black" points="1134,-555.5 1134,-576.5 1292,-576.5 1292,-555.5 1134,-555.5"/>
<text text-anchor="middle" x="1213" y="-563.5" font-family="Helvetica,sans-Serif" font-size="10.00">tetgenmesh::delaunizesegments</text>
</a>
</g>
<!-- Node3&#45;&gt;Node12 -->
<g id="edge22" class="edge"><title>Node3&#45;&gt;Node12</title>
<path fill="none" stroke="midnightblue" d="M415.18,-384.073C422.723,-425.723 445.958,-517.928 508,-557 609.959,-621.211 972.052,-591.983 1133.87,-575.057"/>
<polygon fill="midnightblue" stroke="midnightblue" points="418.591,-383.253 413.483,-373.971 411.688,-384.413 418.591,-383.253"/>
</g>
<!-- Node14 -->
<g id="node28" class="node"><title>Node14</title>
<a xlink:href="classtetgenmesh.xhtml#ab1a82368937a13996efae911b8b1fded" target="_top" xlink:title="tetgenmesh::delaunizecavity">
<polygon fill="none" stroke="black" points="524.5,-526.5 524.5,-547.5 665.5,-547.5 665.5,-526.5 524.5,-526.5"/>
<text text-anchor="middle" x="595" y="-534.5" font-family="Helvetica,sans-Serif" font-size="10.00">tetgenmesh::delaunizecavity</text>
</a>
</g>
<!-- Node3&#45;&gt;Node14 -->
<g id="edge28" class="edge"><title>Node3&#45;&gt;Node14</title>
<path fill="none" stroke="midnightblue" d="M419.497,-383.149C432.496,-415.298 462.289,-478.028 508,-512 516.325,-518.187 526.14,-522.845 536.123,-526.352"/>
<polygon fill="midnightblue" stroke="midnightblue" points="422.629,-381.548 415.733,-373.504 416.108,-384.092 422.629,-381.548"/>
</g>
<!-- Node15 -->
<g id="node30" class="node"><title>Node15</title>
<a xlink:href="classtetgenmesh.xhtml#a9c967ef25cfd6e06d6b9301302be3f70" target="_top" xlink:title="tetgenmesh::insertpoint_cdt">
<polygon fill="none" stroke="black" points="746.5,-487.5 746.5,-508.5 883.5,-508.5 883.5,-487.5 746.5,-487.5"/>
<text text-anchor="middle" x="815" y="-495.5" font-family="Helvetica,sans-Serif" font-size="10.00">tetgenmesh::insertpoint_cdt</text>
</a>
</g>
<!-- Node3&#45;&gt;Node15 -->
<g id="edge40" class="edge"><title>Node3&#45;&gt;Node15</title>
<path fill="none" stroke="midnightblue" d="M421.725,-382.811C436.273,-409.994 466.499,-457.886 508,-479 583.438,-517.38 683.146,-515.518 748.154,-508.533"/>
<polygon fill="midnightblue" stroke="midnightblue" points="424.78,-381.1 417.082,-373.821 418.561,-384.312 424.78,-381.1"/>
</g>
<!-- Node18 -->
<g id="node39" class="node"><title>Node18</title>
<a xlink:href="classtetgenmesh.xhtml#acb5fc751eaa4a4ddffbebedfa7b7382a" target="_top" xlink:title="tetgenmesh::add_steinerpt\l_in_schoenhardtpoly">
<polygon fill="none" stroke="black" points="529,-346 529,-380 661,-380 661,-346 529,-346"/>
<text text-anchor="start" x="537" y="-367" font-family="Helvetica,sans-Serif" font-size="10.00">tetgenmesh::add_steinerpt</text>
<text text-anchor="middle" x="595" y="-354" font-family="Helvetica,sans-Serif" font-size="10.00">_in_schoenhardtpoly</text>
</a>
</g>
<!-- Node3&#45;&gt;Node18 -->
<g id="edge42" class="edge"><title>Node3&#45;&gt;Node18</title>
<path fill="none" stroke="midnightblue" d="M481.674,-363C497.125,-363 513.458,-363 528.767,-363"/>
<polygon fill="midnightblue" stroke="midnightblue" points="481.668,-359.5 471.668,-363 481.668,-366.5 481.668,-359.5"/>
</g>
<!-- Node19 -->
<g id="node41" class="node"><title>Node19</title>
<a xlink:href="classtetgenmesh.xhtml#a9d878a0e64588b0471a58e534affea8e" target="_top" xlink:title="tetgenmesh::addsteiner4recoversegment">
<polygon fill="none" stroke="black" points="718,-394.5 718,-415.5 912,-415.5 912,-394.5 718,-394.5"/>
<text text-anchor="middle" x="815" y="-402.5" font-family="Helvetica,sans-Serif" font-size="10.00">tetgenmesh::addsteiner4recoversegment</text>
</a>
</g>
<!-- Node3&#45;&gt;Node19 -->
<g id="edge56" class="edge"><title>Node3&#45;&gt;Node19</title>
<path fill="none" stroke="midnightblue" d="M454.03,-376.46C470.666,-381.239 490.067,-386.138 508,-389 577.569,-400.104 657.017,-404.011 717.66,-405.191"/>
<polygon fill="midnightblue" stroke="midnightblue" points="454.648,-372.993 444.066,-373.519 452.667,-379.707 454.648,-372.993"/>
</g>
<!-- Node22 -->
<g id="node48" class="node"><title>Node22</title>
<a xlink:href="classtetgenmesh.xhtml#a3de6e9d82e74671af7f038043b5e9bcc" target="_top" xlink:title="tetgenmesh::add_steinerpt\l_in_segment">
<polygon fill="none" stroke="black" points="529,-436 529,-470 661,-470 661,-436 529,-436"/>
<text text-anchor="start" x="537" y="-457" font-family="Helvetica,sans-Serif" font-size="10.00">tetgenmesh::add_steinerpt</text>
<text text-anchor="middle" x="595" y="-444" font-family="Helvetica,sans-Serif" font-size="10.00">_in_segment</text>
</a>
</g>
<!-- Node3&#45;&gt;Node22 -->
<g id="edge52" class="edge"><title>Node3&#45;&gt;Node22</title>
<path fill="none" stroke="midnightblue" d="M435.379,-379.287C454.352,-392.026 482.107,-409.598 508,-422 518.557,-427.056 530.167,-431.75 541.372,-435.876"/>
<polygon fill="midnightblue" stroke="midnightblue" points="437.306,-376.364 427.068,-373.638 433.371,-382.154 437.306,-376.364"/>
</g>
<!-- Node23 -->
<g id="node52" class="node"><title>Node23</title>
<a xlink:href="classtetgenmesh.xhtml#ace09080e4f274e0a48cd1728475878c9" target="_top" xlink:title="tetgenmesh::recoversubfaces">
<polygon fill="none" stroke="black" points="950,-346.5 950,-367.5 1096,-367.5 1096,-346.5 950,-346.5"/>
<text text-anchor="middle" x="1023" y="-354.5" font-family="Helvetica,sans-Serif" font-size="10.00">tetgenmesh::recoversubfaces</text>
</a>
</g>
<!-- Node3&#45;&gt;Node23 -->
<g id="edge58" class="edge"><title>Node3&#45;&gt;Node23</title>
<path fill="none" stroke="midnightblue" d="M452.308,-349.536C469.291,-344.533 489.399,-339.474 508,-337 591.152,-325.939 828.767,-341.809 949.974,-351.095"/>
<polygon fill="midnightblue" stroke="midnightblue" points="451.254,-346.198 442.704,-352.456 453.29,-352.896 451.254,-346.198"/>
</g>
<!-- Node24 -->
<g id="node55" class="node"><title>Node24</title>
<a xlink:href="classtetgenmesh.xhtml#ac8205cae8e16f490b80d74975934ff74" target="_top" xlink:title="tetgenmesh::insertconstrainedpoints">
<polygon fill="none" stroke="black" points="508,-268.5 508,-289.5 682,-289.5 682,-268.5 508,-268.5"/>
<text text-anchor="middle" x="595" y="-276.5" font-family="Helvetica,sans-Serif" font-size="10.00">tetgenmesh::insertconstrainedpoints</text>
</a>
</g>
<!-- Node3&#45;&gt;Node24 -->
<g id="edge62" class="edge"><title>Node3&#45;&gt;Node24</title>
<path fill="none" stroke="midnightblue" d="M434.513,-346.725C453.38,-333.696 481.423,-315.723 508,-304 521.085,-298.228 535.86,-293.401 549.471,-289.576"/>
<polygon fill="midnightblue" stroke="midnightblue" points="432.458,-343.89 426.281,-352.498 436.478,-349.621 432.458,-343.89"/>
</g>
<!-- Node26 -->
<g id="node60" class="node"><title>Node26</title>
<a xlink:href="classtetgenmesh.xhtml#a6394d7b4d386e8d08077c39cd8983e0e" target="_top" xlink:title="tetgenmesh::splitsegment">
<polygon fill="none" stroke="black" points="530.5,-133.5 530.5,-154.5 659.5,-154.5 659.5,-133.5 530.5,-133.5"/>
<text text-anchor="middle" x="595" y="-141.5" font-family="Helvetica,sans-Serif" font-size="10.00">tetgenmesh::splitsegment</text>
</a>
</g>
<!-- Node3&#45;&gt;Node26 -->
<g id="edge68" class="edge"><title>Node3&#45;&gt;Node26</title>
<path fill="none" stroke="midnightblue" d="M418.709,-342.387C431.189,-306.827 461.044,-233.409 508,-188 523.696,-172.822 545.664,-161.768 563.598,-154.536"/>
<polygon fill="midnightblue" stroke="midnightblue" points="415.301,-341.54 415.395,-352.135 421.928,-343.794 415.301,-341.54"/>
</g>
<!-- Node28 -->
<g id="node64" class="node"><title>Node28</title>
<a xlink:href="classtetgenmesh.xhtml#a3a8404870ab3c2e8ce4312d48c2b29f4" target="_top" xlink:title="tetgenmesh::splitsubface">
<polygon fill="none" stroke="black" points="960,-154.5 960,-175.5 1086,-175.5 1086,-154.5 960,-154.5"/>
<text text-anchor="middle" x="1023" y="-162.5" font-family="Helvetica,sans-Serif" font-size="10.00">tetgenmesh::splitsubface</text>
</a>
</g>
<!-- Node3&#45;&gt;Node28 -->
<g id="edge96" class="edge"><title>Node3&#45;&gt;Node28</title>
<path fill="none" stroke="midnightblue" d="M419.587,-343.182C432.547,-312.311 462.086,-253.444 508,-226 546.061,-203.25 830.516,-179.391 959.61,-169.602"/>
<polygon fill="midnightblue" stroke="midnightblue" points="416.326,-341.908 415.827,-352.492 422.817,-344.53 416.326,-341.908"/>
</g>
<!-- Node30 -->
<g id="node68" class="node"><title>Node30</title>
<a xlink:href="classtetgenmesh.xhtml#aa752155eb1d18550a212dd40297f122e" target="_top" xlink:title="tetgenmesh::splittetrahedron">
<polygon fill="none" stroke="black" points="1340,-153.5 1340,-174.5 1480,-174.5 1480,-153.5 1340,-153.5"/>
<text text-anchor="middle" x="1410" y="-161.5" font-family="Helvetica,sans-Serif" font-size="10.00">tetgenmesh::splittetrahedron</text>
</a>
</g>
<!-- Node3&#45;&gt;Node30 -->
<g id="edge98" class="edge"><title>Node3&#45;&gt;Node30</title>
<path fill="none" stroke="midnightblue" d="M423.126,-343.669C438.58,-318.93 469.086,-277.113 508,-259 666.117,-185.404 1123.22,-266.954 1292,-223 1331.01,-212.841 1372.15,-188.764 1394.06,-174.708"/>
<polygon fill="midnightblue" stroke="midnightblue" points="420.13,-341.86 417.954,-352.229 426.121,-345.48 420.13,-341.86"/>
</g>
<!-- Node33 -->
<g id="node83" class="node"><title>Node33</title>
<a xlink:href="classtetgenmesh.xhtml#aa9540f310c97db99c989a02b0978ceec" target="_top" xlink:title="tetgenmesh::splitsliver">
<polygon fill="none" stroke="black" points="757.5,-18.5 757.5,-39.5 872.5,-39.5 872.5,-18.5 757.5,-18.5"/>
<text text-anchor="middle" x="815" y="-26.5" font-family="Helvetica,sans-Serif" font-size="10.00">tetgenmesh::splitsliver</text>
</a>
</g>
<!-- Node3&#45;&gt;Node33 -->
<g id="edge100" class="edge"><title>Node3&#45;&gt;Node33</title>
<path fill="none" stroke="midnightblue" d="M414.329,-342.399C420.629,-296.395 442.226,-184.599 508,-124 577.549,-59.9223 689.585,-39.0506 757.357,-32.2616"/>
<polygon fill="midnightblue" stroke="midnightblue" points="410.85,-342.01 413.066,-352.371 417.795,-342.89 410.85,-342.01"/>
</g>
<!-- Node5 -->
<g id="node9" class="node"><title>Node5</title>
<a xlink:href="tetgen_8h.xhtml#ad3637eb4ffe7fda90667e67b7771d964" target="_top" xlink:title="tetrahedralize">
<polygon fill="none" stroke="black" points="1922.5,-326.5 1922.5,-347.5 1997.5,-347.5 1997.5,-326.5 1922.5,-326.5"/>
<text text-anchor="middle" x="1960" y="-334.5" font-family="Helvetica,sans-Serif" font-size="10.00">tetrahedralize</text>
</a>
</g>
<!-- Node4&#45;&gt;Node5 -->
<g id="edge8" class="edge"><title>Node4&#45;&gt;Node5</title>
<path fill="none" stroke="midnightblue" d="M1667.81,-555.939C1727.75,-540.053 1821.54,-508.38 1886,-454 1922.37,-423.313 1946.75,-370.105 1955.93,-347.57"/>
<polygon fill="midnightblue" stroke="midnightblue" points="1666.92,-552.552 1658.12,-558.447 1668.68,-559.329 1666.92,-552.552"/>
</g>
<!-- Node6 -->
<g id="node11" class="node"><title>Node6</title>
<a xlink:href="classGUICutRenderWindow.xhtml#a9eedb7088ad31f4680a77ed3a06fa60c" target="_top" xlink:title="Berechnet die 2D&#45;Temperaturverteilung als Grafik. ">
<polygon fill="none" stroke="black" points="2036.5,-366 2036.5,-400 2153.5,-400 2153.5,-366 2036.5,-366"/>
<text text-anchor="start" x="2044.5" y="-387" font-family="Helvetica,sans-Serif" font-size="10.00">GUICutRenderWindow</text>
<text text-anchor="middle" x="2095" y="-374" font-family="Helvetica,sans-Serif" font-size="10.00">::renderImage</text>
</a>
</g>
<!-- Node5&#45;&gt;Node6 -->
<g id="edge10" class="edge"><title>Node5&#45;&gt;Node6</title>
<path fill="none" stroke="midnightblue" d="M2000.73,-350.877C2014.62,-355.611 2030.32,-360.96 2044.86,-365.915"/>
<polygon fill="midnightblue" stroke="midnightblue" points="2001.57,-347.466 1990.97,-347.553 1999.31,-354.092 2001.57,-347.466"/>
</g>
<!-- Node8 -->
<g id="node15" class="node"><title>Node8</title>
<a xlink:href="classObjectData.xhtml#af3a850833d08eb9b45357449f455e24d" target="_top" xlink:title="Zerlegt das Objekt in Tetraeder (Schnittstelle zur Tetgen&#45;Bibliothek) und Berechnet die Temperaturver...">
<polygon fill="none" stroke="black" points="2034,-326.5 2034,-347.5 2156,-347.5 2156,-326.5 2034,-326.5"/>
<text text-anchor="middle" x="2095" y="-334.5" font-family="Helvetica,sans-Serif" font-size="10.00">ObjectData::calculateIO</text>
</a>
</g>
<!-- Node5&#45;&gt;Node8 -->
<g id="edge14" class="edge"><title>Node5&#45;&gt;Node8</title>
<path fill="none" stroke="midnightblue" d="M2007.65,-337C2016.11,-337 2025.02,-337 2033.8,-337"/>
<polygon fill="midnightblue" stroke="midnightblue" points="2007.61,-333.5 1997.61,-337 2007.6,-340.5 2007.61,-333.5"/>
</g>
<!-- Node11 -->
<g id="node21" class="node"><title>Node11</title>
<a xlink:href="tetgen_8cxx.xhtml#a0ddf1224851353fc92bfbff6f499fa97" target="_top" xlink:title="main">
<polygon fill="none" stroke="black" points="2076,-286.5 2076,-307.5 2114,-307.5 2114,-286.5 2076,-286.5"/>
<text text-anchor="middle" x="2095" y="-294.5" font-family="Helvetica,sans-Serif" font-size="10.00">main</text>
</a>
</g>
<!-- Node5&#45;&gt;Node11 -->
<g id="edge20" class="edge"><title>Node5&#45;&gt;Node11</title>
<path fill="none" stroke="midnightblue" d="M2005.15,-323.621C2029.27,-316.476 2057.67,-308.061 2075.98,-302.634"/>
<polygon fill="midnightblue" stroke="midnightblue" points="2004.06,-320.294 1995.47,-326.49 2006.05,-327.005 2004.06,-320.294"/>
</g>
<!-- Node7 -->
<g id="node13" class="node"><title>Node7</title>
<a xlink:href="classGUICutRenderWindow.xhtml#a7cd1bfbec53756a1cbbe1616b4d46c7a" target="_top" xlink:title="Behandelt das Drücken des Buttons zur Berechnung der zweidimensionalen Temperaturverteilung. ">
<polygon fill="none" stroke="black" points="2208.5,-366 2208.5,-400 2325.5,-400 2325.5,-366 2208.5,-366"/>
<text text-anchor="start" x="2216.5" y="-387" font-family="Helvetica,sans-Serif" font-size="10.00">GUICutRenderWindow</text>
<text text-anchor="middle" x="2267" y="-374" font-family="Helvetica,sans-Serif" font-size="10.00">::renderCutBtClick</text>
</a>
</g>
<!-- Node6&#45;&gt;Node7 -->
<g id="edge12" class="edge"><title>Node6&#45;&gt;Node7</title>
<path fill="none" stroke="midnightblue" d="M2163.78,-383C2178.51,-383 2193.95,-383 2208.26,-383"/>
<polygon fill="midnightblue" stroke="midnightblue" points="2163.71,-379.5 2153.71,-383 2163.71,-386.5 2163.71,-379.5"/>
</g>
<!-- Node9 -->
<g id="node17" class="node"><title>Node9</title>
<a xlink:href="classGUIMainWindow.xhtml#a0c2de30274c7f52ff74ec1217e47a9e5" target="_top" xlink:title="Berechnet die 3D&#45;Temperaturverteilung neu. ">
<polygon fill="none" stroke="black" points="2192,-274 2192,-308 2342,-308 2342,-274 2192,-274"/>
<text text-anchor="start" x="2200" y="-295" font-family="Helvetica,sans-Serif" font-size="10.00">GUIMainWindow::OnRecalcBt</text>
<text text-anchor="middle" x="2267" y="-282" font-family="Helvetica,sans-Serif" font-size="10.00">Click</text>
</a>
</g>
<!-- Node8&#45;&gt;Node9 -->
<g id="edge16" class="edge"><title>Node8&#45;&gt;Node9</title>
<path fill="none" stroke="midnightblue" d="M2144.33,-323.808C2162.64,-318.91 2183.69,-313.281 2203.12,-308.085"/>
<polygon fill="midnightblue" stroke="midnightblue" points="2143.22,-320.482 2134.46,-326.447 2145.03,-327.244 2143.22,-320.482"/>
</g>
<!-- Node10 -->
<g id="node19" class="node"><title>Node10</title>
<a xlink:href="classGUITimeline.xhtml#a099f3654aa6e7ea04df861851a0e9ec8" target="_top" xlink:title="Sucht den Zeitpunkt zwischen zwei markierten Stellen auf der Sensordaten&#45;Zeitleiste, für den der Wäremeenergiegehalt maximal wird. ">
<polygon fill="none" stroke="black" points="2198.5,-326.5 2198.5,-347.5 2335.5,-347.5 2335.5,-326.5 2198.5,-326.5"/>
<text text-anchor="middle" x="2267" y="-334.5" font-family="Helvetica,sans-Serif" font-size="10.00">GUITimeline::findMaxValue</text>
</a>
</g>
<!-- Node8&#45;&gt;Node10 -->
<g id="edge18" class="edge"><title>Node8&#45;&gt;Node10</title>
<path fill="none" stroke="midnightblue" d="M2166.23,-337C2176.89,-337 2187.86,-337 2198.46,-337"/>
<polygon fill="midnightblue" stroke="midnightblue" points="2166.13,-333.5 2156.13,-337 2166.13,-340.5 2166.13,-333.5"/>
</g>
<!-- Node13 -->
<g id="node25" class="node"><title>Node13</title>
<a xlink:href="classtetgenmesh.xhtml#aab64d62b3d2b048a38158fb2bf678624" target="_top" xlink:title="tetgenmesh::constraineddelaunay">
<polygon fill="none" stroke="black" points="1328.5,-497.5 1328.5,-518.5 1491.5,-518.5 1491.5,-497.5 1328.5,-497.5"/>
<text text-anchor="middle" x="1410" y="-505.5" font-family="Helvetica,sans-Serif" font-size="10.00">tetgenmesh::constraineddelaunay</text>
</a>
</g>
<!-- Node12&#45;&gt;Node13 -->
<g id="edge24" class="edge"><title>Node12&#45;&gt;Node13</title>
<path fill="none" stroke="midnightblue" d="M1258.7,-552.546C1293.89,-542.186 1341.84,-528.067 1374.26,-518.523"/>
<polygon fill="midnightblue" stroke="midnightblue" points="1257.28,-549.315 1248.68,-555.497 1259.26,-556.03 1257.28,-549.315"/>
</g>
<!-- Node13&#45;&gt;Node5 -->
<g id="edge26" class="edge"><title>Node13&#45;&gt;Node5</title>
<path fill="none" stroke="midnightblue" d="M1464.95,-495.049C1554.46,-473.316 1736.76,-426.402 1886,-371 1904.42,-364.16 1924.66,-354.724 1939.3,-347.528"/>
<polygon fill="midnightblue" stroke="midnightblue" points="1463.92,-491.697 1455.02,-497.448 1465.56,-498.501 1463.92,-491.697"/>
</g>
<!-- Node14&#45;&gt;Node15 -->
<g id="edge30" class="edge"><title>Node14&#45;&gt;Node15</title>
<path fill="none" stroke="midnightblue" d="M664.411,-524.695C693.727,-519.498 727.515,-513.509 755.649,-508.521"/>
<polygon fill="midnightblue" stroke="midnightblue" points="663.481,-521.306 654.245,-526.497 664.703,-528.198 663.481,-521.306"/>
</g>
<!-- Node17 -->
<g id="node34" class="node"><title>Node17</title>
<a xlink:href="classtetgenmesh.xhtml#a7579c3a44a54712623d9f9e5fc1dfbdc" target="_top" xlink:title="tetgenmesh::constrainedfacets">
<polygon fill="none" stroke="black" points="1137.5,-497.5 1137.5,-518.5 1288.5,-518.5 1288.5,-497.5 1137.5,-497.5"/>
<text text-anchor="middle" x="1213" y="-505.5" font-family="Helvetica,sans-Serif" font-size="10.00">tetgenmesh::constrainedfacets</text>
</a>
</g>
<!-- Node14&#45;&gt;Node17 -->
<g id="edge38" class="edge"><title>Node14&#45;&gt;Node17</title>
<path fill="none" stroke="midnightblue" d="M676.138,-535.158C775.614,-532.617 949.319,-527.267 1098,-518 1110.7,-517.208 1124.18,-516.194 1137.26,-515.117"/>
<polygon fill="midnightblue" stroke="midnightblue" points="675.769,-531.666 665.86,-535.417 675.945,-538.664 675.769,-531.666"/>
</g>
<!-- Node16 -->
<g id="node32" class="node"><title>Node16</title>
<a xlink:href="classtetgenmesh.xhtml#aa34a5188a4cee82197394560c388c348" target="_top" xlink:title="tetgenmesh::refineregion">
<polygon fill="none" stroke="black" points="961,-487.5 961,-508.5 1085,-508.5 1085,-487.5 961,-487.5"/>
<text text-anchor="middle" x="1023" y="-495.5" font-family="Helvetica,sans-Serif" font-size="10.00">tetgenmesh::refineregion</text>
</a>
</g>
<!-- Node15&#45;&gt;Node16 -->
<g id="edge32" class="edge"><title>Node15&#45;&gt;Node16</title>
<path fill="none" stroke="midnightblue" d="M893.73,-498C915.881,-498 939.659,-498 960.705,-498"/>
<polygon fill="midnightblue" stroke="midnightblue" points="893.683,-494.5 883.683,-498 893.683,-501.5 893.683,-494.5"/>
</g>
<!-- Node16&#45;&gt;Node17 -->
<g id="edge34" class="edge"><title>Node16&#45;&gt;Node17</title>
<path fill="none" stroke="midnightblue" d="M1095.54,-501.818C1109.24,-502.539 1123.6,-503.295 1137.39,-504.02"/>
<polygon fill="midnightblue" stroke="midnightblue" points="1095.38,-498.305 1085.21,-501.274 1095.02,-505.295 1095.38,-498.305"/>
</g>
<!-- Node17&#45;&gt;Node13 -->
<g id="edge36" class="edge"><title>Node17&#45;&gt;Node13</title>
<path fill="none" stroke="midnightblue" d="M1298.77,-508C1308.6,-508 1318.6,-508 1328.38,-508"/>
<polygon fill="midnightblue" stroke="midnightblue" points="1298.6,-504.5 1288.6,-508 1298.6,-511.5 1298.6,-504.5"/>
</g>
<!-- Node18&#45;&gt;Node19 -->
<g id="edge44" class="edge"><title>Node18&#45;&gt;Node19</title>
<path fill="none" stroke="midnightblue" d="M671.156,-377.539C700.306,-383.104 732.969,-389.339 759.793,-394.46"/>
<polygon fill="midnightblue" stroke="midnightblue" points="671.486,-374.039 661.007,-375.601 670.174,-380.915 671.486,-374.039"/>
</g>
<!-- Node20 -->
<g id="node43" class="node"><title>Node20</title>
<a xlink:href="classtetgenmesh.xhtml#a50e12e269b11573e6e1b91347ad19b37" target="_top" xlink:title="tetgenmesh::recoversegments">
<polygon fill="none" stroke="black" points="948.5,-389.5 948.5,-410.5 1097.5,-410.5 1097.5,-389.5 948.5,-389.5"/>
<text text-anchor="middle" x="1023" y="-397.5" font-family="Helvetica,sans-Serif" font-size="10.00">tetgenmesh::recoversegments</text>
</a>
</g>
<!-- Node19&#45;&gt;Node20 -->
<g id="edge46" class="edge"><title>Node19&#45;&gt;Node20</title>
<path fill="none" stroke="midnightblue" d="M922.574,-402.414C931.325,-402.204 940.042,-401.994 948.478,-401.791"/>
<polygon fill="midnightblue" stroke="midnightblue" points="922.214,-398.922 912.301,-402.661 922.382,-405.92 922.214,-398.922"/>
</g>
<!-- Node21 -->
<g id="node45" class="node"><title>Node21</title>
<a xlink:href="classtetgenmesh.xhtml#a1be7dce56688fbe7a97fc31f98b61c19" target="_top" xlink:title="tetgenmesh::recoverboundary">
<polygon fill="none" stroke="black" points="1140,-346.5 1140,-367.5 1286,-367.5 1286,-346.5 1140,-346.5"/>
<text text-anchor="middle" x="1213" y="-354.5" font-family="Helvetica,sans-Serif" font-size="10.00">tetgenmesh::recoverboundary</text>
</a>
</g>
<!-- Node20&#45;&gt;Node21 -->
<g id="edge48" class="edge"><title>Node20&#45;&gt;Node21</title>
<path fill="none" stroke="midnightblue" d="M1079.42,-387.231C1107.12,-380.962 1140.09,-373.501 1166.34,-367.559"/>
<polygon fill="midnightblue" stroke="midnightblue" points="1078.46,-383.86 1069.48,-389.481 1080.01,-390.687 1078.46,-383.86"/>
</g>
<!-- Node21&#45;&gt;Node5 -->
<g id="edge50" class="edge"><title>Node21&#45;&gt;Node5</title>
<path fill="none" stroke="midnightblue" d="M1296.69,-354.759C1458.17,-350.436 1806.98,-341.097 1922.21,-338.012"/>
<polygon fill="midnightblue" stroke="midnightblue" points="1296.23,-351.27 1286.33,-355.037 1296.42,-358.268 1296.23,-351.27"/>
</g>
<!-- Node22&#45;&gt;Node19 -->
<g id="edge54" class="edge"><title>Node22&#45;&gt;Node19</title>
<path fill="none" stroke="midnightblue" d="M671.159,-436.383C702.925,-429.453 738.863,-421.612 766.871,-415.501"/>
<polygon fill="midnightblue" stroke="midnightblue" points="670.031,-433.047 661.007,-438.598 671.524,-439.886 670.031,-433.047"/>
</g>
<!-- Node23&#45;&gt;Node21 -->
<g id="edge60" class="edge"><title>Node23&#45;&gt;Node21</title>
<path fill="none" stroke="midnightblue" d="M1106.35,-357C1117.51,-357 1128.89,-357 1139.85,-357"/>
<polygon fill="midnightblue" stroke="midnightblue" points="1106.19,-353.5 1096.19,-357 1106.19,-360.5 1106.19,-353.5"/>
</g>
<!-- Node24&#45;&gt;Node5 -->
<g id="edge66" class="edge"><title>Node24&#45;&gt;Node5</title>
<path fill="none" stroke="midnightblue" d="M662.514,-291.211C680.496,-294.126 699.944,-296.975 718,-299 852.972,-314.14 887.182,-318 1023,-318 1023,-318 1023,-318 1610,-318 1723.95,-318 1858.46,-328.165 1922.48,-333.625"/>
<polygon fill="midnightblue" stroke="midnightblue" points="662.843,-287.718 652.407,-289.542 661.703,-294.625 662.843,-287.718"/>
</g>
<!-- Node25 -->
<g id="node57" class="node"><title>Node25</title>
<a xlink:href="classtetgenmesh.xhtml#ab859365ca3dd3eafb77fac56d0ae3a03" target="_top" xlink:title="tetgenmesh::insertconstrainedpoints">
<polygon fill="none" stroke="black" points="728,-268.5 728,-289.5 902,-289.5 902,-268.5 728,-268.5"/>
<text text-anchor="middle" x="815" y="-276.5" font-family="Helvetica,sans-Serif" font-size="10.00">tetgenmesh::insertconstrainedpoints</text>
</a>
</g>
<!-- Node24&#45;&gt;Node25 -->
<g id="edge64" class="edge"><title>Node24&#45;&gt;Node25</title>
<path fill="none" stroke="midnightblue" d="M692.535,-279C704.293,-279 716.244,-279 727.84,-279"/>
<polygon fill="midnightblue" stroke="midnightblue" points="692.266,-275.5 682.266,-279 692.266,-282.5 692.266,-275.5"/>
</g>
<!-- Node27 -->
<g id="node62" class="node"><title>Node27</title>
<a xlink:href="classtetgenmesh.xhtml#a7af360f1ae413f9e0d7803ccae55b6d6" target="_top" xlink:title="tetgenmesh::repairencsegs">
<polygon fill="none" stroke="black" points="748,-76.5 748,-97.5 882,-97.5 882,-76.5 748,-76.5"/>
<text text-anchor="middle" x="815" y="-84.5" font-family="Helvetica,sans-Serif" font-size="10.00">tetgenmesh::repairencsegs</text>
</a>
</g>
<!-- Node26&#45;&gt;Node27 -->
<g id="edge70" class="edge"><title>Node26&#45;&gt;Node27</title>
<path fill="none" stroke="midnightblue" d="M645.342,-130.875C667.606,-125.078 694.105,-118.188 718,-112 736.351,-107.248 756.66,-102.011 773.932,-97.5624"/>
<polygon fill="midnightblue" stroke="midnightblue" points="644.23,-127.548 635.435,-133.456 645.994,-134.322 644.23,-127.548"/>
</g>
<!-- Node26&#45;&gt;Node28 -->
<g id="edge92" class="edge"><title>Node26&#45;&gt;Node28</title>
<path fill="none" stroke="midnightblue" d="M669.555,-147.658C751.682,-151.688 882.338,-158.098 959.683,-161.893"/>
<polygon fill="midnightblue" stroke="midnightblue" points="669.699,-144.161 659.539,-147.167 669.356,-151.153 669.699,-144.161"/>
</g>
<!-- Node26&#45;&gt;Node30 -->
<g id="edge94" class="edge"><title>Node26&#45;&gt;Node30</title>
<path fill="none" stroke="midnightblue" d="M669.865,-142.775C768.151,-141.483 946.049,-140.226 1098,-145 1181.12,-147.611 1276.53,-153.905 1339.73,-158.537"/>
<polygon fill="midnightblue" stroke="midnightblue" points="669.685,-139.277 659.734,-142.913 669.78,-146.277 669.685,-139.277"/>
</g>
<!-- Node27&#45;&gt;Node28 -->
<g id="edge72" class="edge"><title>Node27&#45;&gt;Node28</title>
<path fill="none" stroke="midnightblue" d="M852.66,-101.122C893.556,-116.458 957.944,-140.604 994.728,-154.398"/>
<polygon fill="midnightblue" stroke="midnightblue" points="853.644,-97.7536 843.052,-97.5194 851.186,-104.308 853.644,-97.7536"/>
</g>
<!-- Node27&#45;&gt;Node30 -->
<g id="edge88" class="edge"><title>Node27&#45;&gt;Node30</title>
<path fill="none" stroke="midnightblue" d="M892.184,-82.5775C987.529,-79.0367 1154.04,-79.1551 1292,-112 1329.02,-120.814 1368.91,-140.853 1391.53,-153.322"/>
<polygon fill="midnightblue" stroke="midnightblue" points="891.904,-79.0858 882.05,-82.9777 892.18,-86.0803 891.904,-79.0858"/>
</g>
<!-- Node32 -->
<g id="node72" class="node"><title>Node32</title>
<a xlink:href="classtetgenmesh.xhtml#a477bbfde72103de66546d4ea3343b4a1" target="_top" xlink:title="tetgenmesh::delaunayrefinement">
<polygon fill="none" stroke="black" points="1728,-173.5 1728,-194.5 1886,-194.5 1886,-173.5 1728,-173.5"/>
<text text-anchor="middle" x="1807" y="-181.5" font-family="Helvetica,sans-Serif" font-size="10.00">tetgenmesh::delaunayrefinement</text>
</a>
</g>
<!-- Node27&#45;&gt;Node32 -->
<g id="edge90" class="edge"><title>Node27&#45;&gt;Node32</title>
<path fill="none" stroke="midnightblue" d="M892.07,-75.5664C972.102,-64.6979 1101.03,-50 1213,-50 1213,-50 1213,-50 1410,-50 1564.22,-50 1735.27,-141.896 1789.52,-173.485"/>
<polygon fill="midnightblue" stroke="midnightblue" points="891.506,-72.1109 882.075,-76.9385 892.458,-79.0459 891.506,-72.1109"/>
</g>
<!-- Node29 -->
<g id="node66" class="node"><title>Node29</title>
<a xlink:href="classtetgenmesh.xhtml#a701d4f317ed66df6a2e2b7b237e2386a" target="_top" xlink:title="tetgenmesh::repairencfacs">
<polygon fill="none" stroke="black" points="1147,-192.5 1147,-213.5 1279,-213.5 1279,-192.5 1147,-192.5"/>
<text text-anchor="middle" x="1213" y="-200.5" font-family="Helvetica,sans-Serif" font-size="10.00">tetgenmesh::repairencfacs</text>
</a>
</g>
<!-- Node28&#45;&gt;Node29 -->
<g id="edge74" class="edge"><title>Node28&#45;&gt;Node29</title>
<path fill="none" stroke="midnightblue" d="M1085.79,-177.558C1109.9,-182.38 1137.15,-187.83 1160.22,-192.445"/>
<polygon fill="midnightblue" stroke="midnightblue" points="1086.17,-174.064 1075.67,-175.535 1084.79,-180.928 1086.17,-174.064"/>
</g>
<!-- Node28&#45;&gt;Node30 -->
<g id="edge86" class="edge"><title>Node28&#45;&gt;Node30</title>
<path fill="none" stroke="midnightblue" d="M1096.1,-164.811C1166.04,-164.63 1270.81,-164.36 1339.78,-164.181"/>
<polygon fill="midnightblue" stroke="midnightblue" points="1096.03,-161.311 1086.04,-164.837 1096.05,-168.311 1096.03,-161.311"/>
</g>
<!-- Node29&#45;&gt;Node30 -->
<g id="edge76" class="edge"><title>Node29&#45;&gt;Node30</title>
<path fill="none" stroke="midnightblue" d="M1276.19,-190.491C1302.2,-185.342 1331.99,-179.443 1356.85,-174.521"/>
<polygon fill="midnightblue" stroke="midnightblue" points="1275.18,-187.122 1266.05,-192.497 1276.54,-193.989 1275.18,-187.122"/>
</g>
<!-- Node29&#45;&gt;Node32 -->
<g id="edge84" class="edge"><title>Node29&#45;&gt;Node32</title>
<path fill="none" stroke="midnightblue" d="M1289.42,-200.556C1402.45,-196.94 1613.14,-190.201 1727.77,-186.534"/>
<polygon fill="midnightblue" stroke="midnightblue" points="1289.01,-197.067 1279.12,-200.885 1289.23,-204.063 1289.01,-197.067"/>
</g>
<!-- Node31 -->
<g id="node70" class="node"><title>Node31</title>
<a xlink:href="classtetgenmesh.xhtml#a7c46c82d83099214115fa9719aefbd78" target="_top" xlink:title="tetgenmesh::repairbadtets">
<polygon fill="none" stroke="black" points="1545,-153.5 1545,-174.5 1675,-174.5 1675,-153.5 1545,-153.5"/>
<text text-anchor="middle" x="1610" y="-161.5" font-family="Helvetica,sans-Serif" font-size="10.00">tetgenmesh::repairbadtets</text>
</a>
</g>
<!-- Node30&#45;&gt;Node31 -->
<g id="edge78" class="edge"><title>Node30&#45;&gt;Node31</title>
<path fill="none" stroke="midnightblue" d="M1490.48,-164C1508.58,-164 1527.58,-164 1544.96,-164"/>
<polygon fill="midnightblue" stroke="midnightblue" points="1490.23,-160.5 1480.23,-164 1490.23,-167.5 1490.23,-160.5"/>
</g>
<!-- Node31&#45;&gt;Node32 -->
<g id="edge80" class="edge"><title>Node31&#45;&gt;Node32</title>
<path fill="none" stroke="midnightblue" d="M1685.12,-171.626C1699.14,-173.049 1713.82,-174.54 1727.95,-175.975"/>
<polygon fill="midnightblue" stroke="midnightblue" points="1685.35,-168.132 1675.05,-170.604 1684.65,-175.096 1685.35,-168.132"/>
</g>
<!-- Node32&#45;&gt;Node5 -->
<g id="edge82" class="edge"><title>Node32&#45;&gt;Node5</title>
<path fill="none" stroke="midnightblue" d="M1824.9,-201.9C1857.04,-234.036 1923.57,-300.566 1949.41,-326.41"/>
<polygon fill="midnightblue" stroke="midnightblue" points="1827.06,-199.113 1817.52,-194.516 1822.11,-204.062 1827.06,-199.113"/>
</g>
<!-- Node34 -->
<g id="node85" class="node"><title>Node34</title>
<a xlink:href="classtetgenmesh.xhtml#ad5c46c2f6c9adeed23fc8c64b682778d" target="_top" xlink:title="tetgenmesh::removeslivers">
<polygon fill="none" stroke="black" points="1343,-0.5 1343,-21.5 1477,-21.5 1477,-0.5 1343,-0.5"/>
<text text-anchor="middle" x="1410" y="-8.5" font-family="Helvetica,sans-Serif" font-size="10.00">tetgenmesh::removeslivers</text>
</a>
</g>
<!-- Node33&#45;&gt;Node34 -->
<g id="edge102" class="edge"><title>Node33&#45;&gt;Node34</title>
<path fill="none" stroke="midnightblue" d="M882.651,-26.9534C997.336,-23.484 1228.58,-16.4885 1342.89,-13.0302"/>
<polygon fill="midnightblue" stroke="midnightblue" points="882.481,-23.4569 872.592,-27.2577 882.693,-30.4536 882.481,-23.4569"/>
</g>
<!-- Node35 -->
<g id="node87" class="node"><title>Node35</title>
<a xlink:href="classtetgenmesh.xhtml#a8bb5c6ad8ccfa57f2a84e5a78295b263" target="_top" xlink:title="tetgenmesh::optimizemesh">
<polygon fill="none" stroke="black" points="1740,-67.5 1740,-88.5 1874,-88.5 1874,-67.5 1740,-67.5"/>
<text text-anchor="middle" x="1807" y="-75.5" font-family="Helvetica,sans-Serif" font-size="10.00">tetgenmesh::optimizemesh</text>
</a>
</g>
<!-- Node34&#45;&gt;Node35 -->
<g id="edge104" class="edge"><title>Node34&#45;&gt;Node35</title>
<path fill="none" stroke="midnightblue" d="M1487.18,-12.4144C1544.33,-14.7678 1623.78,-20.7945 1692,-36 1724.78,-43.3057 1760.9,-57.5921 1783.76,-67.4595"/>
<polygon fill="midnightblue" stroke="midnightblue" points="1487.26,-8.91505 1477.13,-12.029 1486.99,-15.9099 1487.26,-8.91505"/>
</g>
<!-- Node35&#45;&gt;Node5 -->
<g id="edge106" class="edge"><title>Node35&#45;&gt;Node5</title>
<path fill="none" stroke="midnightblue" d="M1826.44,-95.4742C1843.79,-111.86 1869.02,-137.714 1886,-164 1922.52,-220.524 1948.18,-298.101 1956.81,-326.248"/>
<polygon fill="midnightblue" stroke="midnightblue" points="1828.79,-92.8801 1819.08,-88.6442 1824.03,-98.0116 1828.79,-92.8801"/>
</g>
</g>
</svg>
        <g id="navigator" transform="translate(0 0)" fill="#404254">
                <rect fill="#f2f5e9" fill-opacity="0.5" stroke="#606060" stroke-width=".5" x="0" y="0" width="60" height="60"/>
                <use id="zoomplus" xlink:href="#zoomPlus" x="17" y="9" onmousedown="handleZoom(evt,'in')"/>
                <use id="zoomminus" xlink:href="#zoomMin" x="42" y="9" onmousedown="handleZoom(evt,'out')"/>
                <use id="reset" xlink:href="#resetDef" x="30" y="36" onmousedown="handleReset()"/>
                <g id="arrowUp" xlink:href="#dirArrow" transform="translate(30 24)" onmousedown="handlePan(0,-1)">
                  <use xlink:href="#rim" fill="#404040">
                        <set attributeName="fill" to="#808080" begin="arrowUp.mouseover" end="arrowUp.mouseout"/>
                  </use>
                  <path fill="none" stroke="white" stroke-width="1.5" d="M0,-3.0v7 M-2.5,-0.5L0,-3.0L2.5,-0.5"/>
                </g>
                <g id="arrowRight" xlink:href="#dirArrow" transform="rotate(90) translate(36 -43)" onmousedown="handlePan(1,0)">
                  <use xlink:href="#rim" fill="#404040">
                        <set attributeName="fill" to="#808080" begin="arrowRight.mouseover" end="arrowRight.mouseout"/>
                  </use>
                  <path fill="none" stroke="white" stroke-width="1.5" d="M0,-3.0v7 M-2.5,-0.5L0,-3.0L2.5,-0.5"/>
                </g>
                <g id="arrowDown" xlink:href="#dirArrow" transform="rotate(180) translate(-30 -48)" onmousedown="handlePan(0,1)">
                  <use xlink:href="#rim" fill="#404040">
                        <set attributeName="fill" to="#808080" begin="arrowDown.mouseover" end="arrowDown.mouseout"/>
                  </use>
                  <path fill="none" stroke="white" stroke-width="1.5" d="M0,-3.0v7 M-2.5,-0.5L0,-3.0L2.5,-0.5"/>
                </g>
                <g id="arrowLeft" xlink:href="#dirArrow" transform="rotate(270) translate(-36 17)" onmousedown="handlePan(-1,0)">
                  <use xlink:href="#rim" fill="#404040">
                        <set attributeName="fill" to="#808080" begin="arrowLeft.mouseover" end="arrowLeft.mouseout"/>
                  </use>
                  <path fill="none" stroke="white" stroke-width="1.5" d="M0,-3.0v7 M-2.5,-0.5L0,-3.0L2.5,-0.5"/>
                </g>
        </g>
        <svg viewBox="0 0 15 15" width="100%" height="30px" preserveAspectRatio="xMaxYMin meet">
         <g id="arrow_out" transform="scale(0.3 0.3)">
          <a xlink:href="classtetgenmesh_a298e94262eee21b087476e970d8324e9_icgraph_org.svg" target="_base">
           <rect id="button" ry="5" rx="5" y="6" x="6" height="38" width="38"
                fill="#f2f5e9" fill-opacity="0.5" stroke="#606060" stroke-width="1.0"/>
           <path id="arrow"
             d="M 11.500037,31.436501 C 11.940474,20.09759 22.043105,11.32322 32.158766,21.979434 L 37.068811,17.246167 C 37.068811,17.246167 37.088388,32 37.088388,32 L 22.160133,31.978069 C 22.160133,31.978069 26.997745,27.140456 26.997745,27.140456 C 18.528582,18.264221 13.291696,25.230495 11.500037,31.436501 z"
             style="fill:#404040;"/>
          </a>
         </g>
        </svg>
</svg>
