<?xml version="1.0" encoding="UTF-8" standalone="no"?>
<!DOCTYPE svg PUBLIC "-//W3C//DTD SVG 1.1//EN"
 "http://www.w3.org/Graphics/SVG/1.1/DTD/svg11.dtd">
<!-- Generated by graphviz version 2.26.3 (20100126.1600)
 -->
<!-- Title: ObjectData::getMaterials Pages: 1 -->
<svg width="738pt" height="318pt"
 viewBox="0.00 0.00 738.00 318.00" xmlns="http://www.w3.org/2000/svg" xmlns:xlink="http://www.w3.org/1999/xlink">
<g id="graph1" class="graph" transform="scale(1 1) rotate(0) translate(4 314)">
<title>ObjectData::getMaterials</title>
<!-- Node1 -->
<g id="node1" class="node"><title>Node1</title>
<polygon fill="#bfbfbf" stroke="black" points="0.5,-164.5 0.5,-185.5 125.5,-185.5 125.5,-164.5 0.5,-164.5"/>
<text text-anchor="middle" x="63" y="-172.5" font-family="Helvetica,sans-Serif" font-size="10.00">ObjectData::getMaterials</text>
</g>
<!-- Node2 -->
<g id="node3" class="node"><title>Node2</title>
<a xlink:href="classImporter.xhtml#a5013417fb7556dce65dba1ed3aec4e50" target="_top" xlink:title="Importer::ImportObj">
<polygon fill="none" stroke="black" points="190.5,-288.5 190.5,-309.5 291.5,-309.5 291.5,-288.5 190.5,-288.5"/>
<text text-anchor="middle" x="241" y="-296.5" font-family="Helvetica,sans-Serif" font-size="10.00">Importer::ImportObj</text>
</a>
</g>
<!-- Node1&#45;&gt;Node2 -->
<g id="edge2" class="edge"><title>Node1&#45;&gt;Node2</title>
<path fill="none" stroke="midnightblue" d="M75.9818,-194.193C92.9629,-217.785 124.952,-257.343 162,-279 170.672,-284.069 180.611,-287.865 190.446,-290.704"/>
<polygon fill="midnightblue" stroke="midnightblue" points="78.6458,-191.897 70.0361,-185.722 72.9162,-195.918 78.6458,-191.897"/>
</g>
<!-- Node5 -->
<g id="node9" class="node"><title>Node5</title>
<a xlink:href="classGUICutRenderWindow.xhtml#a9eedb7088ad31f4680a77ed3a06fa60c" target="_top" xlink:title="GUICutRenderWindow\l::renderImage">
<polygon fill="none" stroke="black" points="182.5,-236 182.5,-270 299.5,-270 299.5,-236 182.5,-236"/>
<text text-anchor="start" x="190.5" y="-257" font-family="Helvetica,sans-Serif" font-size="10.00">GUICutRenderWindow</text>
<text text-anchor="middle" x="241" y="-244" font-family="Helvetica,sans-Serif" font-size="10.00">::renderImage</text>
</a>
</g>
<!-- Node1&#45;&gt;Node5 -->
<g id="edge8" class="edge"><title>Node1&#45;&gt;Node5</title>
<path fill="none" stroke="midnightblue" d="M89.7523,-190.602C109.347,-201.643 136.807,-216.325 162,-227 169.445,-230.155 177.413,-233.173 185.319,-235.965"/>
<polygon fill="midnightblue" stroke="midnightblue" points="91.2308,-187.416 80.8093,-185.507 87.766,-193.498 91.2308,-187.416"/>
</g>
<!-- Node7 -->
<g id="node13" class="node"><title>Node7</title>
<a xlink:href="classGUIMainWindow.xhtml#a1cb2c4f39b9ba971d51ab682f29b7f23" target="_top" xlink:title="GUIMainWindow::assignCurrent\lObjectProps">
<polygon fill="none" stroke="black" points="162,-184 162,-218 320,-218 320,-184 162,-184"/>
<text text-anchor="start" x="170" y="-205" font-family="Helvetica,sans-Serif" font-size="10.00">GUIMainWindow::assignCurrent</text>
<text text-anchor="middle" x="241" y="-192" font-family="Helvetica,sans-Serif" font-size="10.00">ObjectProps</text>
</a>
</g>
<!-- Node1&#45;&gt;Node7 -->
<g id="edge12" class="edge"><title>Node1&#45;&gt;Node7</title>
<path fill="none" stroke="midnightblue" d="M135.534,-185.595C144.179,-186.858 153.038,-188.152 161.77,-189.427"/>
<polygon fill="midnightblue" stroke="midnightblue" points="135.907,-182.112 125.506,-184.13 134.895,-189.039 135.907,-182.112"/>
</g>
<!-- Node8 -->
<g id="node15" class="node"><title>Node8</title>
<a xlink:href="classGUIMainWindow.xhtml#a4c520b8716196fa1e88a7bea5ec34ef0" target="_top" xlink:title="GUIMainWindow::updateObject\lPropGUI">
<polygon fill="none" stroke="black" points="163.5,-132 163.5,-166 318.5,-166 318.5,-132 163.5,-132"/>
<text text-anchor="start" x="171.5" y="-153" font-family="Helvetica,sans-Serif" font-size="10.00">GUIMainWindow::updateObject</text>
<text text-anchor="middle" x="241" y="-140" font-family="Helvetica,sans-Serif" font-size="10.00">PropGUI</text>
</a>
</g>
<!-- Node1&#45;&gt;Node8 -->
<g id="edge14" class="edge"><title>Node1&#45;&gt;Node8</title>
<path fill="none" stroke="midnightblue" d="M135.674,-164.385C144.788,-163.053 154.139,-161.688 163.326,-160.346"/>
<polygon fill="midnightblue" stroke="midnightblue" points="134.895,-160.961 125.506,-165.87 135.907,-167.888 134.895,-160.961"/>
</g>
<!-- Node9 -->
<g id="node17" class="node"><title>Node9</title>
<a xlink:href="classRenderer.xhtml#a9db67fbbd309875b564ca1df08daf372" target="_top" xlink:title="Renderer::setObject">
<polygon fill="none" stroke="black" points="189,-92.5 189,-113.5 293,-113.5 293,-92.5 189,-92.5"/>
<text text-anchor="middle" x="241" y="-100.5" font-family="Helvetica,sans-Serif" font-size="10.00">Renderer::setObject</text>
</a>
</g>
<!-- Node1&#45;&gt;Node9 -->
<g id="edge16" class="edge"><title>Node1&#45;&gt;Node9</title>
<path fill="none" stroke="midnightblue" d="M88.9141,-159.221C108.44,-147.875 136.176,-132.892 162,-123 171.38,-119.407 181.634,-116.268 191.556,-113.609"/>
<polygon fill="midnightblue" stroke="midnightblue" points="87.1314,-156.209 80.2953,-164.303 90.687,-162.238 87.1314,-156.209"/>
</g>
<!-- Node12 -->
<g id="node23" class="node"><title>Node12</title>
<a xlink:href="classAnalyzer.xhtml#a2a7b5f169f664ccd9f206e508cba78ef" target="_top" xlink:title="Analyzer::analyzeObject">
<polygon fill="none" stroke="black" points="179.5,-46.5 179.5,-67.5 302.5,-67.5 302.5,-46.5 179.5,-46.5"/>
<text text-anchor="middle" x="241" y="-54.5" font-family="Helvetica,sans-Serif" font-size="10.00">Analyzer::analyzeObject</text>
</a>
</g>
<!-- Node1&#45;&gt;Node12 -->
<g id="edge22" class="edge"><title>Node1&#45;&gt;Node12</title>
<path fill="none" stroke="midnightblue" d="M78.3452,-156.594C96.4126,-136 128.26,-102.921 162,-83 172.941,-76.5398 185.696,-71.4487 197.723,-67.5488"/>
<polygon fill="midnightblue" stroke="midnightblue" points="75.5605,-154.464 71.6932,-164.328 80.8675,-159.028 75.5605,-154.464"/>
</g>
<!-- Node3 -->
<g id="node5" class="node"><title>Node3</title>
<a xlink:href="classObjectData.xhtml#ab2fabb02de2ac4b5ff09b73beb15223d" target="_top" xlink:title="ObjectData::loadFromFile">
<polygon fill="none" stroke="black" points="373,-288.5 373,-309.5 501,-309.5 501,-288.5 373,-288.5"/>
<text text-anchor="middle" x="437" y="-296.5" font-family="Helvetica,sans-Serif" font-size="10.00">ObjectData::loadFromFile</text>
</a>
</g>
<!-- Node2&#45;&gt;Node3 -->
<g id="edge4" class="edge"><title>Node2&#45;&gt;Node3</title>
<path fill="none" stroke="midnightblue" d="M301.84,-299C324.362,-299 349.957,-299 372.77,-299"/>
<polygon fill="midnightblue" stroke="midnightblue" points="301.73,-295.5 291.73,-299 301.73,-302.5 301.73,-295.5"/>
</g>
<!-- Node4 -->
<g id="node7" class="node"><title>Node4</title>
<a xlink:href="classGUIMainWindow.xhtml#a9fd9f2be8f45cb5433193f5d28c924bc" target="_top" xlink:title="GUIMainWindow::OnMenuImportObj">
<polygon fill="none" stroke="black" points="554,-288.5 554,-309.5 730,-309.5 730,-288.5 554,-288.5"/>
<text text-anchor="middle" x="642" y="-296.5" font-family="Helvetica,sans-Serif" font-size="10.00">GUIMainWindow::OnMenuImportObj</text>
</a>
</g>
<!-- Node3&#45;&gt;Node4 -->
<g id="edge6" class="edge"><title>Node3&#45;&gt;Node4</title>
<path fill="none" stroke="midnightblue" d="M511.364,-299C525.102,-299 539.57,-299 553.673,-299"/>
<polygon fill="midnightblue" stroke="midnightblue" points="511.02,-295.5 501.02,-299 511.02,-302.5 511.02,-295.5"/>
</g>
<!-- Node6 -->
<g id="node11" class="node"><title>Node6</title>
<a xlink:href="classGUICutRenderWindow.xhtml#a7cd1bfbec53756a1cbbe1616b4d46c7a" target="_top" xlink:title="GUICutRenderWindow\l::renderCutBtClick">
<polygon fill="none" stroke="black" points="378.5,-236 378.5,-270 495.5,-270 495.5,-236 378.5,-236"/>
<text text-anchor="start" x="386.5" y="-257" font-family="Helvetica,sans-Serif" font-size="10.00">GUICutRenderWindow</text>
<text text-anchor="middle" x="437" y="-244" font-family="Helvetica,sans-Serif" font-size="10.00">::renderCutBtClick</text>
</a>
</g>
<!-- Node5&#45;&gt;Node6 -->
<g id="edge10" class="edge"><title>Node5&#45;&gt;Node6</title>
<path fill="none" stroke="midnightblue" d="M309.671,-253C332.106,-253 356.8,-253 378.422,-253"/>
<polygon fill="midnightblue" stroke="midnightblue" points="309.541,-249.5 299.541,-253 309.541,-256.5 309.541,-249.5"/>
</g>
<!-- Node10 -->
<g id="node19" class="node"><title>Node10</title>
<a xlink:href="classGUIGLCanvas.xhtml#a83f52d08591920a339150c2f45069c8f" target="_top" xlink:title="GUIGLCanvas::OnPaint">
<polygon fill="none" stroke="black" points="376,-132.5 376,-153.5 498,-153.5 498,-132.5 376,-132.5"/>
<text text-anchor="middle" x="437" y="-140.5" font-family="Helvetica,sans-Serif" font-size="10.00">GUIGLCanvas::OnPaint</text>
</a>
</g>
<!-- Node9&#45;&gt;Node10 -->
<g id="edge18" class="edge"><title>Node9&#45;&gt;Node10</title>
<path fill="none" stroke="midnightblue" d="M302.495,-115.55C329.174,-120.995 360.063,-127.299 385.507,-132.491"/>
<polygon fill="midnightblue" stroke="midnightblue" points="302.995,-112.08 292.497,-113.51 301.595,-118.939 302.995,-112.08"/>
</g>
<!-- Node11 -->
<g id="node21" class="node"><title>Node11</title>
<a xlink:href="classGUIGLCanvas.xhtml#a643f11a7ef05829a6c48d037ad2c4b9b" target="_top" xlink:title="GUIGLCanvas::setRenderObject">
<polygon fill="none" stroke="black" points="356.5,-92.5 356.5,-113.5 517.5,-113.5 517.5,-92.5 356.5,-92.5"/>
<text text-anchor="middle" x="437" y="-100.5" font-family="Helvetica,sans-Serif" font-size="10.00">GUIGLCanvas::setRenderObject</text>
</a>
</g>
<!-- Node9&#45;&gt;Node11 -->
<g id="edge20" class="edge"><title>Node9&#45;&gt;Node11</title>
<path fill="none" stroke="midnightblue" d="M303.263,-103C320.104,-103 338.576,-103 356.273,-103"/>
<polygon fill="midnightblue" stroke="midnightblue" points="303.01,-99.5001 293.01,-103 303.01,-106.5 303.01,-99.5001"/>
</g>
<!-- Node13 -->
<g id="node25" class="node"><title>Node13</title>
<a xlink:href="classGUIAnalyzeOutputWindow.xhtml#a9ea5a7cf46d6189f368315903508cecc" target="_top" xlink:title="GUIAnalyzeOutputWindow\l::Update">
<polygon fill="none" stroke="black" points="370,-40 370,-74 504,-74 504,-40 370,-40"/>
<text text-anchor="start" x="378" y="-61" font-family="Helvetica,sans-Serif" font-size="10.00">GUIAnalyzeOutputWindow</text>
<text text-anchor="middle" x="437" y="-48" font-family="Helvetica,sans-Serif" font-size="10.00">::Update</text>
</a>
</g>
<!-- Node12&#45;&gt;Node13 -->
<g id="edge24" class="edge"><title>Node12&#45;&gt;Node13</title>
<path fill="none" stroke="midnightblue" d="M312.917,-57C331.507,-57 351.447,-57 369.787,-57"/>
<polygon fill="midnightblue" stroke="midnightblue" points="312.747,-53.5001 302.747,-57 312.747,-60.5001 312.747,-53.5001"/>
</g>
<!-- Node15 -->
<g id="node29" class="node"><title>Node15</title>
<a xlink:href="classGUITimeline.xhtml#a099f3654aa6e7ea04df861851a0e9ec8" target="_top" xlink:title="GUITimeline::findMaxValue">
<polygon fill="none" stroke="black" points="368.5,-0.5 368.5,-21.5 505.5,-21.5 505.5,-0.5 368.5,-0.5"/>
<text text-anchor="middle" x="437" y="-8.5" font-family="Helvetica,sans-Serif" font-size="10.00">GUITimeline::findMaxValue</text>
</a>
</g>
<!-- Node12&#45;&gt;Node15 -->
<g id="edge28" class="edge"><title>Node12&#45;&gt;Node15</title>
<path fill="none" stroke="midnightblue" d="M295.986,-44.0951C326.376,-36.9628 363.651,-28.2147 392.243,-21.5042"/>
<polygon fill="midnightblue" stroke="midnightblue" points="294.902,-40.7543 285.966,-46.4467 296.502,-47.5692 294.902,-40.7543"/>
</g>
<!-- Node14 -->
<g id="node27" class="node"><title>Node14</title>
<a xlink:href="classGUIAnalyzeOutputWindow.xhtml#af9407245a6b2a0478579c4d592a31e63" target="_top" xlink:title="GUIAnalyzeOutputWindow\l::GUIAnalyzeOutputWindow">
<polygon fill="none" stroke="black" points="572,-40 572,-74 712,-74 712,-40 572,-40"/>
<text text-anchor="start" x="580" y="-61" font-family="Helvetica,sans-Serif" font-size="10.00">GUIAnalyzeOutputWindow</text>
<text text-anchor="middle" x="642" y="-48" font-family="Helvetica,sans-Serif" font-size="10.00">::GUIAnalyzeOutputWindow</text>
</a>
</g>
<!-- Node13&#45;&gt;Node14 -->
<g id="edge26" class="edge"><title>Node13&#45;&gt;Node14</title>
<path fill="none" stroke="midnightblue" d="M514.203,-57C533.146,-57 553.32,-57 571.908,-57"/>
<polygon fill="midnightblue" stroke="midnightblue" points="514.125,-53.5001 504.125,-57 514.125,-60.5001 514.125,-53.5001"/>
</g>
</g>
</svg>
