<?xml version="1.0" encoding="UTF-8" standalone="no"?>
<!DOCTYPE svg PUBLIC "-//W3C//DTD SVG 1.1//EN"
 "http://www.w3.org/Graphics/SVG/1.1/DTD/svg11.dtd">
<!-- Generated by graphviz version 2.26.3 (20100126.1600)
 -->
<!-- Title: tetgenmesh::flipinsertfacet Pages: 1 -->
<svg width="984pt" height="134pt"
 viewBox="0.00 0.00 984.00 134.00" xmlns="http://www.w3.org/2000/svg" xmlns:xlink="http://www.w3.org/1999/xlink">
<g id="graph1" class="graph" transform="scale(1 1) rotate(0) translate(4 130)">
<title>tetgenmesh::flipinsertfacet</title>
<!-- Node1 -->
<g id="node1" class="node"><title>Node1</title>
<polygon fill="#bfbfbf" stroke="black" points="0,-46.5 0,-67.5 132,-67.5 132,-46.5 0,-46.5"/>
<text text-anchor="middle" x="66" y="-54.5" font-family="Helvetica,sans-Serif" font-size="10.00">tetgenmesh::flipinsertfacet</text>
</g>
<!-- Node2 -->
<g id="node3" class="node"><title>Node2</title>
<a xlink:href="classtetgenmesh.xhtml#a7579c3a44a54712623d9f9e5fc1dfbdc" target="_top" xlink:title="tetgenmesh::constrainedfacets">
<polygon fill="none" stroke="black" points="168.5,-46.5 168.5,-67.5 319.5,-67.5 319.5,-46.5 168.5,-46.5"/>
<text text-anchor="middle" x="244" y="-54.5" font-family="Helvetica,sans-Serif" font-size="10.00">tetgenmesh::constrainedfacets</text>
</a>
</g>
<!-- Node1&#45;&gt;Node2 -->
<g id="edge2" class="edge"><title>Node1&#45;&gt;Node2</title>
<path fill="none" stroke="midnightblue" d="M142.164,-57C150.881,-57 159.767,-57 168.476,-57"/>
<polygon fill="midnightblue" stroke="midnightblue" points="142.028,-53.5001 132.028,-57 142.028,-60.5001 142.028,-53.5001"/>
</g>
<!-- Node3 -->
<g id="node5" class="node"><title>Node3</title>
<a xlink:href="classtetgenmesh.xhtml#aab64d62b3d2b048a38158fb2bf678624" target="_top" xlink:title="tetgenmesh::constraineddelaunay">
<polygon fill="none" stroke="black" points="356.5,-46.5 356.5,-67.5 519.5,-67.5 519.5,-46.5 356.5,-46.5"/>
<text text-anchor="middle" x="438" y="-54.5" font-family="Helvetica,sans-Serif" font-size="10.00">tetgenmesh::constraineddelaunay</text>
</a>
</g>
<!-- Node2&#45;&gt;Node3 -->
<g id="edge4" class="edge"><title>Node2&#45;&gt;Node3</title>
<path fill="none" stroke="midnightblue" d="M329.797,-57C338.58,-57 347.487,-57 356.225,-57"/>
<polygon fill="midnightblue" stroke="midnightblue" points="329.561,-53.5001 319.561,-57 329.561,-60.5001 329.561,-53.5001"/>
</g>
<!-- Node4 -->
<g id="node7" class="node"><title>Node4</title>
<a xlink:href="tetgen_8h.xhtml#ad3637eb4ffe7fda90667e67b7771d964" target="_top" xlink:title="tetrahedralize">
<polygon fill="none" stroke="black" points="556.5,-46.5 556.5,-67.5 631.5,-67.5 631.5,-46.5 556.5,-46.5"/>
<text text-anchor="middle" x="594" y="-54.5" font-family="Helvetica,sans-Serif" font-size="10.00">tetrahedralize</text>
</a>
</g>
<!-- Node3&#45;&gt;Node4 -->
<g id="edge6" class="edge"><title>Node3&#45;&gt;Node4</title>
<path fill="none" stroke="midnightblue" d="M529.823,-57C539.119,-57 548.145,-57 556.349,-57"/>
<polygon fill="midnightblue" stroke="midnightblue" points="529.655,-53.5001 519.655,-57 529.655,-60.5001 529.655,-53.5001"/>
</g>
<!-- Node5 -->
<g id="node9" class="node"><title>Node5</title>
<a xlink:href="classGUICutRenderWindow.xhtml#a9eedb7088ad31f4680a77ed3a06fa60c" target="_top" xlink:title="Berechnet die 2D&#45;Temperaturverteilung als Grafik. ">
<polygon fill="none" stroke="black" points="670.5,-89 670.5,-123 787.5,-123 787.5,-89 670.5,-89"/>
<text text-anchor="start" x="678.5" y="-110" font-family="Helvetica,sans-Serif" font-size="10.00">GUICutRenderWindow</text>
<text text-anchor="middle" x="729" y="-97" font-family="Helvetica,sans-Serif" font-size="10.00">::renderImage</text>
</a>
</g>
<!-- Node4&#45;&gt;Node5 -->
<g id="edge8" class="edge"><title>Node4&#45;&gt;Node5</title>
<path fill="none" stroke="midnightblue" d="M632.675,-71.0375C648.063,-76.6228 665.912,-83.1014 682.034,-88.953"/>
<polygon fill="midnightblue" stroke="midnightblue" points="633.555,-67.6336 622.961,-67.5117 631.167,-74.2136 633.555,-67.6336"/>
</g>
<!-- Node7 -->
<g id="node13" class="node"><title>Node7</title>
<a xlink:href="classObjectData.xhtml#af3a850833d08eb9b45357449f455e24d" target="_top" xlink:title="Zerlegt das Objekt in Tetraeder (Schnittstelle zur Tetgen&#45;Bibliothek) und Berechnet die Temperaturver...">
<polygon fill="none" stroke="black" points="668,-46.5 668,-67.5 790,-67.5 790,-46.5 668,-46.5"/>
<text text-anchor="middle" x="729" y="-54.5" font-family="Helvetica,sans-Serif" font-size="10.00">ObjectData::calculateIO</text>
</a>
</g>
<!-- Node4&#45;&gt;Node7 -->
<g id="edge12" class="edge"><title>Node4&#45;&gt;Node7</title>
<path fill="none" stroke="midnightblue" d="M641.654,-57C650.112,-57 659.025,-57 667.795,-57"/>
<polygon fill="midnightblue" stroke="midnightblue" points="641.605,-53.5001 631.605,-57 641.605,-60.5001 641.605,-53.5001"/>
</g>
<!-- Node10 -->
<g id="node19" class="node"><title>Node10</title>
<a xlink:href="tetgen_8cxx.xhtml#a0ddf1224851353fc92bfbff6f499fa97" target="_top" xlink:title="main">
<polygon fill="none" stroke="black" points="710,-6.5 710,-27.5 748,-27.5 748,-6.5 710,-6.5"/>
<text text-anchor="middle" x="729" y="-14.5" font-family="Helvetica,sans-Serif" font-size="10.00">main</text>
</a>
</g>
<!-- Node4&#45;&gt;Node10 -->
<g id="edge18" class="edge"><title>Node4&#45;&gt;Node10</title>
<path fill="none" stroke="midnightblue" d="M639.154,-43.6209C663.267,-36.4764 691.668,-28.0613 709.984,-22.6343"/>
<polygon fill="midnightblue" stroke="midnightblue" points="638.063,-40.2937 629.47,-46.4905 640.052,-47.0053 638.063,-40.2937"/>
</g>
<!-- Node6 -->
<g id="node11" class="node"><title>Node6</title>
<a xlink:href="classGUICutRenderWindow.xhtml#a7cd1bfbec53756a1cbbe1616b4d46c7a" target="_top" xlink:title="Behandelt das Drücken des Buttons zur Berechnung der zweidimensionalen Temperaturverteilung. ">
<polygon fill="none" stroke="black" points="842.5,-92 842.5,-126 959.5,-126 959.5,-92 842.5,-92"/>
<text text-anchor="start" x="850.5" y="-113" font-family="Helvetica,sans-Serif" font-size="10.00">GUICutRenderWindow</text>
<text text-anchor="middle" x="901" y="-100" font-family="Helvetica,sans-Serif" font-size="10.00">::renderCutBtClick</text>
</a>
</g>
<!-- Node5&#45;&gt;Node6 -->
<g id="edge10" class="edge"><title>Node5&#45;&gt;Node6</title>
<path fill="none" stroke="midnightblue" d="M797.777,-107.2C812.511,-107.457 827.948,-107.726 842.261,-107.975"/>
<polygon fill="midnightblue" stroke="midnightblue" points="797.771,-103.699 787.712,-107.024 797.649,-110.698 797.771,-103.699"/>
</g>
<!-- Node8 -->
<g id="node15" class="node"><title>Node8</title>
<a xlink:href="classGUIMainWindow.xhtml#a0c2de30274c7f52ff74ec1217e47a9e5" target="_top" xlink:title="Berechnet die 3D&#45;Temperaturverteilung neu. ">
<polygon fill="none" stroke="black" points="826,-40 826,-74 976,-74 976,-40 826,-40"/>
<text text-anchor="start" x="834" y="-61" font-family="Helvetica,sans-Serif" font-size="10.00">GUIMainWindow::OnRecalcBt</text>
<text text-anchor="middle" x="901" y="-48" font-family="Helvetica,sans-Serif" font-size="10.00">Click</text>
</a>
</g>
<!-- Node7&#45;&gt;Node8 -->
<g id="edge14" class="edge"><title>Node7&#45;&gt;Node8</title>
<path fill="none" stroke="midnightblue" d="M800.316,-57C808.768,-57 817.415,-57 825.918,-57"/>
<polygon fill="midnightblue" stroke="midnightblue" points="800.125,-53.5001 790.125,-57 800.125,-60.5001 800.125,-53.5001"/>
</g>
<!-- Node9 -->
<g id="node17" class="node"><title>Node9</title>
<a xlink:href="classGUITimeline.xhtml#a099f3654aa6e7ea04df861851a0e9ec8" target="_top" xlink:title="Sucht den Zeitpunkt zwischen zwei markierten Stellen auf der Sensordaten&#45;Zeitleiste, für den der Wäremeenergiegehalt maximal wird. ">
<polygon fill="none" stroke="black" points="832.5,-0.5 832.5,-21.5 969.5,-21.5 969.5,-0.5 832.5,-0.5"/>
<text text-anchor="middle" x="901" y="-8.5" font-family="Helvetica,sans-Serif" font-size="10.00">GUITimeline::findMaxValue</text>
</a>
</g>
<!-- Node7&#45;&gt;Node9 -->
<g id="edge16" class="edge"><title>Node7&#45;&gt;Node9</title>
<path fill="none" stroke="midnightblue" d="M777.997,-43.8537C793.363,-39.7343 810.387,-35.1741 826,-31 837.456,-27.9371 849.899,-24.6167 861.296,-21.5777"/>
<polygon fill="midnightblue" stroke="midnightblue" points="776.923,-40.5181 768.17,-46.4885 778.735,-47.2793 776.923,-40.5181"/>
</g>
</g>
</svg>
