<?xml version="1.0" encoding="UTF-8" standalone="no"?>
<!DOCTYPE svg PUBLIC "-//W3C//DTD SVG 1.1//EN"
 "http://www.w3.org/Graphics/SVG/1.1/DTD/svg11.dtd">
<!-- Generated by graphviz version 2.26.3 (20100126.1600)
 -->
<!-- Title: tetgenmesh::point2shorg Pages: 1 -->
<svg width="278pt" height="70pt"
 viewBox="0.00 0.00 278.00 70.00" xmlns="http://www.w3.org/2000/svg" xmlns:xlink="http://www.w3.org/1999/xlink">
<g id="graph1" class="graph" transform="scale(1 1) rotate(0) translate(4 66)">
<title>tetgenmesh::point2shorg</title>
<!-- Node1 -->
<g id="node1" class="node"><title>Node1</title>
<polygon fill="#bfbfbf" stroke="black" points="0,-20.5 0,-41.5 124,-41.5 124,-20.5 0,-20.5"/>
<text text-anchor="middle" x="62" y="-28.5" font-family="Helvetica,sans-Serif" font-size="10.00">tetgenmesh::point2shorg</text>
</g>
<!-- Node2 -->
<g id="node3" class="node"><title>Node2</title>
<a xlink:href="classtetgenmesh.xhtml#ac5a50a5f6e277b5b95d58e40f3d58c2f" target="_top" xlink:title="tetgenmesh::sdecode">
<polygon fill="none" stroke="black" points="160,-40.5 160,-61.5 270,-61.5 270,-40.5 160,-40.5"/>
<text text-anchor="middle" x="215" y="-48.5" font-family="Helvetica,sans-Serif" font-size="10.00">tetgenmesh::sdecode</text>
</a>
</g>
<!-- Node1&#45;&gt;Node2 -->
<g id="edge2" class="edge"><title>Node1&#45;&gt;Node2</title>
<path fill="none" stroke="midnightblue" d="M124.231,-39.1348C132.583,-40.2265 141.17,-41.3491 149.575,-42.4478"/>
<polygon fill="midnightblue" stroke="midnightblue" points="149.34,-45.9467 159.709,-43.7725 150.247,-39.0058 149.34,-45.9467"/>
</g>
<!-- Node3 -->
<g id="node5" class="node"><title>Node3</title>
<a xlink:href="classtetgenmesh.xhtml#a71c1fce651aaffe6e7db6c1f64f7f67d" target="_top" xlink:title="tetgenmesh::point2sh">
<polygon fill="none" stroke="black" points="160,-0.5 160,-21.5 270,-21.5 270,-0.5 160,-0.5"/>
<text text-anchor="middle" x="215" y="-8.5" font-family="Helvetica,sans-Serif" font-size="10.00">tetgenmesh::point2sh</text>
</a>
</g>
<!-- Node1&#45;&gt;Node3 -->
<g id="edge4" class="edge"><title>Node1&#45;&gt;Node3</title>
<path fill="none" stroke="midnightblue" d="M124.231,-22.8652C132.583,-21.7735 141.17,-20.6509 149.575,-19.5522"/>
<polygon fill="midnightblue" stroke="midnightblue" points="150.247,-22.9942 159.709,-18.2275 149.34,-16.0533 150.247,-22.9942"/>
</g>
</g>
</svg>
