<?xml version="1.0" encoding="UTF-8" standalone="no"?>
<!DOCTYPE svg PUBLIC "-//W3C//DTD SVG 1.1//EN"
 "http://www.w3.org/Graphics/SVG/1.1/DTD/svg11.dtd">
<!-- Generated by graphviz version 2.26.3 (20100126.1600)
 -->
<!-- Title: tetgenmesh::outhullfaces Pages: 1 -->
<svg width="590pt" height="134pt"
 viewBox="0.00 0.00 590.00 134.00" xmlns="http://www.w3.org/2000/svg" xmlns:xlink="http://www.w3.org/1999/xlink">
<g id="graph1" class="graph" transform="scale(1 1) rotate(0) translate(4 130)">
<title>tetgenmesh::outhullfaces</title>
<!-- Node1 -->
<g id="node1" class="node"><title>Node1</title>
<polygon fill="#bfbfbf" stroke="black" points="0,-46.5 0,-67.5 126,-67.5 126,-46.5 0,-46.5"/>
<text text-anchor="middle" x="63" y="-54.5" font-family="Helvetica,sans-Serif" font-size="10.00">tetgenmesh::outhullfaces</text>
</g>
<!-- Node2 -->
<g id="node3" class="node"><title>Node2</title>
<a xlink:href="tetgen_8h.xhtml#ad3637eb4ffe7fda90667e67b7771d964" target="_top" xlink:title="tetrahedralize">
<polygon fill="none" stroke="black" points="162.5,-46.5 162.5,-67.5 237.5,-67.5 237.5,-46.5 162.5,-46.5"/>
<text text-anchor="middle" x="200" y="-54.5" font-family="Helvetica,sans-Serif" font-size="10.00">tetrahedralize</text>
</a>
</g>
<!-- Node1&#45;&gt;Node2 -->
<g id="edge2" class="edge"><title>Node1&#45;&gt;Node2</title>
<path fill="none" stroke="midnightblue" d="M136.427,-57C145.395,-57 154.249,-57 162.372,-57"/>
<polygon fill="midnightblue" stroke="midnightblue" points="136.287,-53.5001 126.287,-57 136.287,-60.5001 136.287,-53.5001"/>
</g>
<!-- Node3 -->
<g id="node5" class="node"><title>Node3</title>
<a xlink:href="classGUICutRenderWindow.xhtml#a9eedb7088ad31f4680a77ed3a06fa60c" target="_top" xlink:title="Berechnet die 2D&#45;Temperaturverteilung als Grafik. ">
<polygon fill="none" stroke="black" points="276.5,-89 276.5,-123 393.5,-123 393.5,-89 276.5,-89"/>
<text text-anchor="start" x="284.5" y="-110" font-family="Helvetica,sans-Serif" font-size="10.00">GUICutRenderWindow</text>
<text text-anchor="middle" x="335" y="-97" font-family="Helvetica,sans-Serif" font-size="10.00">::renderImage</text>
</a>
</g>
<!-- Node2&#45;&gt;Node3 -->
<g id="edge4" class="edge"><title>Node2&#45;&gt;Node3</title>
<path fill="none" stroke="midnightblue" d="M238.675,-71.0375C254.063,-76.6228 271.912,-83.1014 288.034,-88.953"/>
<polygon fill="midnightblue" stroke="midnightblue" points="239.555,-67.6336 228.961,-67.5117 237.167,-74.2136 239.555,-67.6336"/>
</g>
<!-- Node5 -->
<g id="node9" class="node"><title>Node5</title>
<a xlink:href="classObjectData.xhtml#af3a850833d08eb9b45357449f455e24d" target="_top" xlink:title="Zerlegt das Objekt in Tetraeder (Schnittstelle zur Tetgen&#45;Bibliothek) und Berechnet die Temperaturver...">
<polygon fill="none" stroke="black" points="274,-46.5 274,-67.5 396,-67.5 396,-46.5 274,-46.5"/>
<text text-anchor="middle" x="335" y="-54.5" font-family="Helvetica,sans-Serif" font-size="10.00">ObjectData::calculateIO</text>
</a>
</g>
<!-- Node2&#45;&gt;Node5 -->
<g id="edge8" class="edge"><title>Node2&#45;&gt;Node5</title>
<path fill="none" stroke="midnightblue" d="M247.654,-57C256.112,-57 265.025,-57 273.795,-57"/>
<polygon fill="midnightblue" stroke="midnightblue" points="247.605,-53.5001 237.605,-57 247.605,-60.5001 247.605,-53.5001"/>
</g>
<!-- Node8 -->
<g id="node15" class="node"><title>Node8</title>
<a xlink:href="tetgen_8cxx.xhtml#a0ddf1224851353fc92bfbff6f499fa97" target="_top" xlink:title="main">
<polygon fill="none" stroke="black" points="316,-6.5 316,-27.5 354,-27.5 354,-6.5 316,-6.5"/>
<text text-anchor="middle" x="335" y="-14.5" font-family="Helvetica,sans-Serif" font-size="10.00">main</text>
</a>
</g>
<!-- Node2&#45;&gt;Node8 -->
<g id="edge14" class="edge"><title>Node2&#45;&gt;Node8</title>
<path fill="none" stroke="midnightblue" d="M245.154,-43.6209C269.267,-36.4764 297.668,-28.0613 315.984,-22.6343"/>
<polygon fill="midnightblue" stroke="midnightblue" points="244.063,-40.2937 235.47,-46.4905 246.052,-47.0053 244.063,-40.2937"/>
</g>
<!-- Node4 -->
<g id="node7" class="node"><title>Node4</title>
<a xlink:href="classGUICutRenderWindow.xhtml#a7cd1bfbec53756a1cbbe1616b4d46c7a" target="_top" xlink:title="Behandelt das Drücken des Buttons zur Berechnung der zweidimensionalen Temperaturverteilung. ">
<polygon fill="none" stroke="black" points="448.5,-92 448.5,-126 565.5,-126 565.5,-92 448.5,-92"/>
<text text-anchor="start" x="456.5" y="-113" font-family="Helvetica,sans-Serif" font-size="10.00">GUICutRenderWindow</text>
<text text-anchor="middle" x="507" y="-100" font-family="Helvetica,sans-Serif" font-size="10.00">::renderCutBtClick</text>
</a>
</g>
<!-- Node3&#45;&gt;Node4 -->
<g id="edge6" class="edge"><title>Node3&#45;&gt;Node4</title>
<path fill="none" stroke="midnightblue" d="M403.777,-107.2C418.511,-107.457 433.948,-107.726 448.261,-107.975"/>
<polygon fill="midnightblue" stroke="midnightblue" points="403.771,-103.699 393.712,-107.024 403.649,-110.698 403.771,-103.699"/>
</g>
<!-- Node6 -->
<g id="node11" class="node"><title>Node6</title>
<a xlink:href="classGUIMainWindow.xhtml#a0c2de30274c7f52ff74ec1217e47a9e5" target="_top" xlink:title="Berechnet die 3D&#45;Temperaturverteilung neu. ">
<polygon fill="none" stroke="black" points="432,-40 432,-74 582,-74 582,-40 432,-40"/>
<text text-anchor="start" x="440" y="-61" font-family="Helvetica,sans-Serif" font-size="10.00">GUIMainWindow::OnRecalcBt</text>
<text text-anchor="middle" x="507" y="-48" font-family="Helvetica,sans-Serif" font-size="10.00">Click</text>
</a>
</g>
<!-- Node5&#45;&gt;Node6 -->
<g id="edge10" class="edge"><title>Node5&#45;&gt;Node6</title>
<path fill="none" stroke="midnightblue" d="M406.316,-57C414.768,-57 423.415,-57 431.918,-57"/>
<polygon fill="midnightblue" stroke="midnightblue" points="406.125,-53.5001 396.125,-57 406.125,-60.5001 406.125,-53.5001"/>
</g>
<!-- Node7 -->
<g id="node13" class="node"><title>Node7</title>
<a xlink:href="classGUITimeline.xhtml#a099f3654aa6e7ea04df861851a0e9ec8" target="_top" xlink:title="Sucht den Zeitpunkt zwischen zwei markierten Stellen auf der Sensordaten&#45;Zeitleiste, für den der Wäremeenergiegehalt maximal wird. ">
<polygon fill="none" stroke="black" points="438.5,-0.5 438.5,-21.5 575.5,-21.5 575.5,-0.5 438.5,-0.5"/>
<text text-anchor="middle" x="507" y="-8.5" font-family="Helvetica,sans-Serif" font-size="10.00">GUITimeline::findMaxValue</text>
</a>
</g>
<!-- Node5&#45;&gt;Node7 -->
<g id="edge12" class="edge"><title>Node5&#45;&gt;Node7</title>
<path fill="none" stroke="midnightblue" d="M383.997,-43.8537C399.363,-39.7343 416.387,-35.1741 432,-31 443.456,-27.9371 455.899,-24.6167 467.296,-21.5777"/>
<polygon fill="midnightblue" stroke="midnightblue" points="382.923,-40.5181 374.17,-46.4885 384.735,-47.2793 382.923,-40.5181"/>
</g>
</g>
</svg>
