<?xml version="1.0" encoding="UTF-8" standalone="no"?>
<!DOCTYPE svg PUBLIC "-//W3C//DTD SVG 1.1//EN"
 "http://www.w3.org/Graphics/SVG/1.1/DTD/svg11.dtd">
<!-- Generated by graphviz version 2.26.3 (20100126.1600)
 -->
<!-- Title: tetgenmesh::identifypscedges Pages: 1 -->
<!--zoomable 896 -->
<svg id="main" version="1.1" xmlns="http://www.w3.org/2000/svg" xmlns:xlink="http://www.w3.org/1999/xlink" xml:space="preserve" onload="init(evt)">
<style type="text/css"><![CDATA[
.edge:hover path { stroke: red; }
.edge:hover polygon { stroke: red; fill: red; }
]]></style>
<script type="text/javascript"><![CDATA[
var edges = document.getElementsByTagName('g');
if (edges && edges.length) {
  for (var i=0;i<edges.length;i++) {
    if (edges[i].id.substr(0,4)=='edge') {
      edges[i].setAttribute('class','edge');
    }
  }
}
]]></script>
        <defs>
                <circle id="rim" cx="0" cy="0" r="7"/>
                <circle id="rim2" cx="0" cy="0" r="3.5"/>
                <g id="zoomPlus">
                        <use xlink:href="#rim" fill="#404040">
                                <set attributeName="fill" to="#808080" begin="zoomplus.mouseover" end="zoomplus.mouseout"/>
                        </use>
                        <path d="M-4,0h8M0,-4v8" fill="none" stroke="white" stroke-width="1.5" pointer-events="none"/>
                </g>
                <g id="zoomMin">
                        <use xlink:href="#rim" fill="#404040">
                                <set attributeName="fill" to="#808080" begin="zoomminus.mouseover" end="zoomminus.mouseout"/>
                        </use>
                        <path d="M-4,0h8" fill="none" stroke="white" stroke-width="1.5" pointer-events="none"/>
                </g>
                <g id="dirArrow">
                        <path fill="none" stroke="white" stroke-width="1.5" d="M0,-3.0v7 M-2.5,-0.5L0,-3.0L2.5,-0.5"/>
                </g>
               <g id="resetDef">
                       <use xlink:href="#rim2" fill="#404040">
                               <set attributeName="fill" to="#808080" begin="reset.mouseover" end="reset.mouseout"/>
                       </use>
               </g>
        </defs>

<script type="text/javascript">
var viewWidth = 860;
var viewHeight = 896;
var sectionId = 'dynsection-161';
</script>
<script xlink:href="svgpan.js"/>
<svg id="graph" class="graph">
<g id="viewport">
<title>tetgenmesh::identifypscedges</title>
<!-- Node1 -->
<g id="node1" class="node"><title>Node1</title>
<polygon fill="#bfbfbf" stroke="black" points="0.5,-438.5 0.5,-459.5 147.5,-459.5 147.5,-438.5 0.5,-438.5"/>
<text text-anchor="middle" x="74" y="-446.5" font-family="Helvetica,sans-Serif" font-size="10.00">tetgenmesh::identifypscedges</text>
</g>
<!-- Node2 -->
<g id="node3" class="node"><title>Node2</title>
<a xlink:href="classtetgenmesh_1_1memorypool.xhtml#a623b101e4e2f249d8b7e5dba65c3f7e2" target="_top" xlink:title="tetgenmesh::memorypool\l::traversalinit">
<polygon fill="none" stroke="black" points="388.5,-850 388.5,-884 515.5,-884 515.5,-850 388.5,-850"/>
<text text-anchor="start" x="396.5" y="-871" font-family="Helvetica,sans-Serif" font-size="10.00">tetgenmesh::memorypool</text>
<text text-anchor="middle" x="452" y="-858" font-family="Helvetica,sans-Serif" font-size="10.00">::traversalinit</text>
</a>
</g>
<!-- Node1&#45;&gt;Node2 -->
<g id="edge2" class="edge"><title>Node1&#45;&gt;Node2</title>
<path fill="none" stroke="midnightblue" d="M75.2811,-459.669C82.5056,-517.924 120.124,-796.842 184,-849 237.693,-892.843 319.393,-891.839 378.471,-883.287"/>
<polygon fill="midnightblue" stroke="midnightblue" points="379.141,-886.725 388.487,-881.735 378.069,-879.808 379.141,-886.725"/>
</g>
<!-- Node3 -->
<g id="node5" class="node"><title>Node3</title>
<a xlink:href="classtetgenmesh.xhtml#ae50ecae1d69935b12a4fa7ca843011d7" target="_top" xlink:title="tetgenmesh::shellfacetraverse">
<polygon fill="none" stroke="black" points="378,-800.5 378,-821.5 526,-821.5 526,-800.5 378,-800.5"/>
<text text-anchor="middle" x="452" y="-808.5" font-family="Helvetica,sans-Serif" font-size="10.00">tetgenmesh::shellfacetraverse</text>
</a>
</g>
<!-- Node1&#45;&gt;Node3 -->
<g id="edge4" class="edge"><title>Node1&#45;&gt;Node3</title>
<path fill="none" stroke="midnightblue" d="M75.4525,-459.728C83.292,-515.873 122.494,-775.048 184,-821 252.649,-872.288 361.108,-844.663 416.654,-825.082"/>
<polygon fill="midnightblue" stroke="midnightblue" points="418.188,-828.248 426.389,-821.54 415.795,-821.67 418.188,-828.248"/>
</g>
<!-- Node5 -->
<g id="node9" class="node"><title>Node5</title>
<a xlink:href="classtetgenmesh.xhtml#aebfb8c5f527b8145bf96d2709993c59d" target="_top" xlink:title="tetgenmesh::setshellmark">
<polygon fill="none" stroke="black" points="387.5,-642.5 387.5,-663.5 516.5,-663.5 516.5,-642.5 387.5,-642.5"/>
<text text-anchor="middle" x="452" y="-650.5" font-family="Helvetica,sans-Serif" font-size="10.00">tetgenmesh::setshellmark</text>
</a>
</g>
<!-- Node1&#45;&gt;Node5 -->
<g id="edge8" class="edge"><title>Node1&#45;&gt;Node5</title>
<path fill="none" stroke="midnightblue" d="M76.9704,-459.81C86.3985,-491.833 118.935,-586.48 184,-627 241.647,-662.9 320.174,-666.428 377.317,-662.763"/>
<polygon fill="midnightblue" stroke="midnightblue" points="377.651,-666.248 387.37,-662.031 377.142,-659.267 377.651,-666.248"/>
</g>
<!-- Node6 -->
<g id="node11" class="node"><title>Node6</title>
<a xlink:href="classtetgenmesh.xhtml#a20c595345b290a1d08c29e4d3a0e0500" target="_top" xlink:title="tetgenmesh::makepoint2submap">
<polygon fill="none" stroke="black" points="184,-790.5 184,-811.5 342,-811.5 342,-790.5 184,-790.5"/>
<text text-anchor="middle" x="263" y="-798.5" font-family="Helvetica,sans-Serif" font-size="10.00">tetgenmesh::makepoint2submap</text>
</a>
</g>
<!-- Node1&#45;&gt;Node6 -->
<g id="edge10" class="edge"><title>Node1&#45;&gt;Node6</title>
<path fill="none" stroke="midnightblue" d="M74.2734,-459.536C76.0208,-504.542 88.9185,-682.616 184,-776 187.977,-779.906 192.56,-783.202 197.475,-785.984"/>
<polygon fill="midnightblue" stroke="midnightblue" points="196.099,-789.207 206.62,-790.456 199.174,-782.919 196.099,-789.207"/>
</g>
<!-- Node7 -->
<g id="node15" class="node"><title>Node7</title>
<a xlink:href="classtetgenmesh.xhtml#a46fa5fabd0e8e806f7f8beb069732e21" target="_top" xlink:title="tetgenmesh::pointmark">
<polygon fill="none" stroke="black" points="394,-760.5 394,-781.5 510,-781.5 510,-760.5 394,-760.5"/>
<text text-anchor="middle" x="452" y="-768.5" font-family="Helvetica,sans-Serif" font-size="10.00">tetgenmesh::pointmark</text>
</a>
</g>
<!-- Node1&#45;&gt;Node7 -->
<g id="edge20" class="edge"><title>Node1&#45;&gt;Node7</title>
<path fill="none" stroke="midnightblue" d="M76.3888,-459.558C87.4976,-507.689 135.615,-705.569 184,-743 214.136,-766.313 314.423,-771.295 383.389,-771.834"/>
<polygon fill="midnightblue" stroke="midnightblue" points="383.732,-775.336 393.748,-771.884 383.765,-768.336 383.732,-775.336"/>
</g>
<!-- Node8 -->
<g id="node17" class="node"><title>Node8</title>
<a xlink:href="classtetgenmesh.xhtml#aa6017928ea3dc0b8ba39e7f24ea312b2" target="_top" xlink:title="tetgenmesh::sdest">
<polygon fill="none" stroke="black" points="214,-518.5 214,-539.5 312,-539.5 312,-518.5 214,-518.5"/>
<text text-anchor="middle" x="263" y="-526.5" font-family="Helvetica,sans-Serif" font-size="10.00">tetgenmesh::sdest</text>
</a>
</g>
<!-- Node1&#45;&gt;Node8 -->
<g id="edge18" class="edge"><title>Node1&#45;&gt;Node8</title>
<path fill="none" stroke="midnightblue" d="M90.5063,-459.729C111.484,-472.952 149.166,-495.343 184,-509 190.372,-511.498 197.156,-513.766 203.97,-515.802"/>
<polygon fill="midnightblue" stroke="midnightblue" points="203.355,-519.265 213.93,-518.619 205.26,-512.53 203.355,-519.265"/>
</g>
<!-- Node9 -->
<g id="node20" class="node"><title>Node9</title>
<a xlink:href="classtetgenmesh.xhtml#a273687e8175a97ef3d97e4d3a5d03d3c" target="_top" xlink:title="tetgenmesh::sapex">
<polygon fill="none" stroke="black" points="213,-478.5 213,-499.5 313,-499.5 313,-478.5 213,-478.5"/>
<text text-anchor="middle" x="263" y="-486.5" font-family="Helvetica,sans-Serif" font-size="10.00">tetgenmesh::sapex</text>
</a>
</g>
<!-- Node1&#45;&gt;Node9 -->
<g id="edge22" class="edge"><title>Node1&#45;&gt;Node9</title>
<path fill="none" stroke="midnightblue" d="M123.658,-459.51C148.085,-464.679 177.718,-470.951 203.365,-476.379"/>
<polygon fill="midnightblue" stroke="midnightblue" points="202.838,-479.845 213.346,-478.491 204.288,-472.997 202.838,-479.845"/>
</g>
<!-- Node10 -->
<g id="node22" class="node"><title>Node10</title>
<a xlink:href="classtetgenmesh.xhtml#a9e2a0e8ac94c6273dd98c83b6c4bb0d9" target="_top" xlink:title="tetgenmesh::senext2">
<polygon fill="none" stroke="black" points="209,-438.5 209,-459.5 317,-459.5 317,-438.5 209,-438.5"/>
<text text-anchor="middle" x="263" y="-446.5" font-family="Helvetica,sans-Serif" font-size="10.00">tetgenmesh::senext2</text>
</a>
</g>
<!-- Node1&#45;&gt;Node10 -->
<g id="edge24" class="edge"><title>Node1&#45;&gt;Node10</title>
<path fill="none" stroke="midnightblue" d="M147.614,-449C164.523,-449 182.371,-449 198.844,-449"/>
<polygon fill="midnightblue" stroke="midnightblue" points="198.902,-452.5 208.901,-449 198.901,-445.5 198.902,-452.5"/>
</g>
<!-- Node11 -->
<g id="node24" class="node"><title>Node11</title>
<a xlink:href="classtetgenmesh.xhtml#a867b8f5e8312c7a918eb96813a6f6de7" target="_top" xlink:title="tetgenmesh::sesymself">
<polygon fill="none" stroke="black" points="203.5,-398.5 203.5,-419.5 322.5,-419.5 322.5,-398.5 203.5,-398.5"/>
<text text-anchor="middle" x="263" y="-406.5" font-family="Helvetica,sans-Serif" font-size="10.00">tetgenmesh::sesymself</text>
</a>
</g>
<!-- Node1&#45;&gt;Node11 -->
<g id="edge26" class="edge"><title>Node1&#45;&gt;Node11</title>
<path fill="none" stroke="midnightblue" d="M123.658,-438.49C148.085,-433.321 177.718,-427.049 203.365,-421.621"/>
<polygon fill="midnightblue" stroke="midnightblue" points="204.288,-425.003 213.346,-419.509 202.838,-418.155 204.288,-425.003"/>
</g>
<!-- Node12 -->
<g id="node26" class="node"><title>Node12</title>
<a xlink:href="classtetgenmesh.xhtml#a0c20f7727f97d5d31f9d853d85267a21" target="_top" xlink:title="tetgenmesh::sspivot">
<polygon fill="none" stroke="black" points="210.5,-318.5 210.5,-339.5 315.5,-339.5 315.5,-318.5 210.5,-318.5"/>
<text text-anchor="middle" x="263" y="-326.5" font-family="Helvetica,sans-Serif" font-size="10.00">tetgenmesh::sspivot</text>
</a>
</g>
<!-- Node1&#45;&gt;Node12 -->
<g id="edge28" class="edge"><title>Node1&#45;&gt;Node12</title>
<path fill="none" stroke="midnightblue" d="M82.4691,-438.414C99.4634,-417.904 139.89,-372.691 184,-349 189.19,-346.212 194.782,-343.803 200.507,-341.721"/>
<polygon fill="midnightblue" stroke="midnightblue" points="201.82,-344.974 210.222,-338.52 199.629,-338.326 201.82,-344.974"/>
</g>
<!-- Node14 -->
<g id="node30" class="node"><title>Node14</title>
<a xlink:href="classtetgenmesh.xhtml#a55db9a054b722d91a17b82d442f88f4c" target="_top" xlink:title="tetgenmesh::sorg">
<polygon fill="none" stroke="black" points="217,-278.5 217,-299.5 309,-299.5 309,-278.5 217,-278.5"/>
<text text-anchor="middle" x="263" y="-286.5" font-family="Helvetica,sans-Serif" font-size="10.00">tetgenmesh::sorg</text>
</a>
</g>
<!-- Node1&#45;&gt;Node14 -->
<g id="edge32" class="edge"><title>Node1&#45;&gt;Node14</title>
<path fill="none" stroke="midnightblue" d="M79.2278,-438.271C92.6706,-411.863 131.13,-343.366 184,-309 190.915,-304.505 198.778,-301.02 206.797,-298.318"/>
<polygon fill="midnightblue" stroke="midnightblue" points="208.021,-301.606 216.605,-295.396 206.021,-294.897 208.021,-301.606"/>
</g>
<!-- Node15 -->
<g id="node32" class="node"><title>Node15</title>
<a xlink:href="classtetgenmesh.xhtml#a98c862e8bb1f1c25e03bb550804028cd" target="_top" xlink:title="tetgenmesh::makeshellface">
<polygon fill="none" stroke="black" points="194.5,-596.5 194.5,-617.5 331.5,-617.5 331.5,-596.5 194.5,-596.5"/>
<text text-anchor="middle" x="263" y="-604.5" font-family="Helvetica,sans-Serif" font-size="10.00">tetgenmesh::makeshellface</text>
</a>
</g>
<!-- Node1&#45;&gt;Node15 -->
<g id="edge34" class="edge"><title>Node1&#45;&gt;Node15</title>
<path fill="none" stroke="midnightblue" d="M79.9189,-459.741C94.338,-484.918 133.81,-548.167 184,-582 190.233,-586.201 197.212,-589.729 204.374,-592.683"/>
<polygon fill="midnightblue" stroke="midnightblue" points="203.607,-596.134 214.2,-596.366 206.064,-589.579 203.607,-596.134"/>
</g>
<!-- Node19 -->
<g id="node40" class="node"><title>Node19</title>
<a xlink:href="classtetgenmesh.xhtml#a0f80088cbe127eeac6995e365d10eb06" target="_top" xlink:title="tetgenmesh::setareabound">
<polygon fill="none" stroke="black" points="386,-510.5 386,-531.5 518,-531.5 518,-510.5 386,-510.5"/>
<text text-anchor="middle" x="452" y="-518.5" font-family="Helvetica,sans-Serif" font-size="10.00">tetgenmesh::setareabound</text>
</a>
</g>
<!-- Node1&#45;&gt;Node19 -->
<g id="edge62" class="edge"><title>Node1&#45;&gt;Node19</title>
<path fill="none" stroke="midnightblue" d="M81.2783,-459.565C97.0012,-481.331 136.577,-530.666 184,-549 249.498,-574.322 272.322,-557.729 342,-549 348.328,-548.207 376.388,-541.056 402.58,-534.179"/>
<polygon fill="midnightblue" stroke="midnightblue" points="403.7,-537.504 412.478,-531.571 401.916,-530.735 403.7,-537.504"/>
</g>
<!-- Node21 -->
<g id="node45" class="node"><title>Node21</title>
<a xlink:href="classtetgenmesh.xhtml#a3455f1e360143408fa4436b4abdf0829" target="_top" xlink:title="tetgenmesh::ssbond">
<polygon fill="none" stroke="black" points="210.5,-200.5 210.5,-221.5 315.5,-221.5 315.5,-200.5 210.5,-200.5"/>
<text text-anchor="middle" x="263" y="-208.5" font-family="Helvetica,sans-Serif" font-size="10.00">tetgenmesh::ssbond</text>
</a>
</g>
<!-- Node1&#45;&gt;Node21 -->
<g id="edge48" class="edge"><title>Node1&#45;&gt;Node21</title>
<path fill="none" stroke="midnightblue" d="M76.4115,-438.316C84.7862,-403.676 115.896,-293.397 184,-236 188.981,-231.802 194.672,-228.307 200.665,-225.398"/>
<polygon fill="midnightblue" stroke="midnightblue" points="202.454,-228.439 210.273,-221.291 199.703,-222.003 202.454,-228.439"/>
</g>
<!-- Node22 -->
<g id="node47" class="node"><title>Node22</title>
<a xlink:href="classtetgenmesh.xhtml#a6ed111e5eb830d867ab5fa47113313a1" target="_top" xlink:title="tetgenmesh::sencode">
<polygon fill="none" stroke="black" points="397,-200.5 397,-221.5 507,-221.5 507,-200.5 397,-200.5"/>
<text text-anchor="middle" x="452" y="-208.5" font-family="Helvetica,sans-Serif" font-size="10.00">tetgenmesh::sencode</text>
</a>
</g>
<!-- Node1&#45;&gt;Node22 -->
<g id="edge60" class="edge"><title>Node1&#45;&gt;Node22</title>
<path fill="none" stroke="midnightblue" d="M77.1622,-438.418C87.1259,-407.014 121.004,-313.754 184,-269 192.38,-263.047 311.479,-238.719 388.059,-223.524"/>
<polygon fill="midnightblue" stroke="midnightblue" points="388.974,-226.911 398.103,-221.536 387.614,-220.045 388.974,-226.911"/>
</g>
<!-- Node23 -->
<g id="node49" class="node"><title>Node23</title>
<a xlink:href="classtetgenmesh.xhtml#a5066bdb73c8fc7d21ea6c9bc2974e059" target="_top" xlink:title="tetgenmesh::spivot">
<polygon fill="none" stroke="black" points="213,-358.5 213,-379.5 313,-379.5 313,-358.5 213,-358.5"/>
<text text-anchor="middle" x="263" y="-366.5" font-family="Helvetica,sans-Serif" font-size="10.00">tetgenmesh::spivot</text>
</a>
</g>
<!-- Node1&#45;&gt;Node23 -->
<g id="edge52" class="edge"><title>Node1&#45;&gt;Node23</title>
<path fill="none" stroke="midnightblue" d="M90.5063,-438.271C111.484,-425.048 149.166,-402.657 184,-389 190.195,-386.571 196.78,-384.36 203.403,-382.368"/>
<polygon fill="midnightblue" stroke="midnightblue" points="204.434,-385.713 213.092,-379.607 202.515,-378.981 204.434,-385.713"/>
</g>
<!-- Node24 -->
<g id="node52" class="node"><title>Node24</title>
<a xlink:href="classtetgenmesh.xhtml#a87204594ee11bb38e68e0381e6e04b6c" target="_top" xlink:title="tetgenmesh::pointtype">
<polygon fill="none" stroke="black" points="395.5,-682.5 395.5,-703.5 508.5,-703.5 508.5,-682.5 395.5,-682.5"/>
<text text-anchor="middle" x="452" y="-690.5" font-family="Helvetica,sans-Serif" font-size="10.00">tetgenmesh::pointtype</text>
</a>
</g>
<!-- Node1&#45;&gt;Node24 -->
<g id="edge56" class="edge"><title>Node1&#45;&gt;Node24</title>
<path fill="none" stroke="midnightblue" d="M75.9689,-459.549C83.1362,-494.706 111.331,-608.509 184,-659 242.862,-699.898 326.954,-704.083 385.177,-700.813"/>
<polygon fill="midnightblue" stroke="midnightblue" points="385.621,-704.292 395.373,-700.15 385.167,-697.306 385.621,-704.292"/>
</g>
<!-- Node25 -->
<g id="node54" class="node"><title>Node25</title>
<a xlink:href="classtetgenmesh.xhtml#a7f6bda7c35edc24c58af75365b42398c" target="_top" xlink:title="tetgenmesh::setpoint2sh">
<polygon fill="none" stroke="black" points="201,-120.5 201,-141.5 325,-141.5 325,-120.5 201,-120.5"/>
<text text-anchor="middle" x="263" y="-128.5" font-family="Helvetica,sans-Serif" font-size="10.00">tetgenmesh::setpoint2sh</text>
</a>
</g>
<!-- Node1&#45;&gt;Node25 -->
<g id="edge58" class="edge"><title>Node1&#45;&gt;Node25</title>
<path fill="none" stroke="midnightblue" d="M74.525,-438.383C77.2456,-395.374 93.389,-232.51 184,-151 186.472,-148.776 189.156,-146.793 191.991,-145.023"/>
<polygon fill="midnightblue" stroke="midnightblue" points="193.679,-148.09 200.896,-140.333 190.417,-141.897 193.679,-148.09"/>
</g>
<!-- Node26 -->
<g id="node58" class="node"><title>Node26</title>
<a xlink:href="classtetgenmesh.xhtml#ab5a2f1e0884a200fc6152ec15c2531d9" target="_top" xlink:title="tetgenmesh::shellmark">
<polygon fill="none" stroke="black" points="205,-80.5 205,-101.5 321,-101.5 321,-80.5 205,-80.5"/>
<text text-anchor="middle" x="263" y="-88.5" font-family="Helvetica,sans-Serif" font-size="10.00">tetgenmesh::shellmark</text>
</a>
</g>
<!-- Node1&#45;&gt;Node26 -->
<g id="edge64" class="edge"><title>Node1&#45;&gt;Node26</title>
<path fill="none" stroke="midnightblue" d="M76.0123,-438.471C86.1285,-386.593 132.963,-158.743 184,-111 187.405,-107.815 191.242,-105.119 195.344,-102.838"/>
<polygon fill="midnightblue" stroke="midnightblue" points="197.1,-105.881 204.681,-98.4801 194.139,-99.5375 197.1,-105.881"/>
</g>
<!-- Node27 -->
<g id="node60" class="node"><title>Node27</title>
<a xlink:href="classtetgenmesh.xhtml#ab368f639981dcf465b5e8654942bcc69" target="_top" xlink:title="tetgenmesh::shellfacedealloc">
<polygon fill="none" stroke="black" points="191.5,-40.5 191.5,-61.5 334.5,-61.5 334.5,-40.5 191.5,-40.5"/>
<text text-anchor="middle" x="263" y="-48.5" font-family="Helvetica,sans-Serif" font-size="10.00">tetgenmesh::shellfacedealloc</text>
</a>
</g>
<!-- Node1&#45;&gt;Node27 -->
<g id="edge66" class="edge"><title>Node1&#45;&gt;Node27</title>
<path fill="none" stroke="midnightblue" d="M75.6481,-438.365C84.4842,-382.672 127.943,-125.116 184,-71 185.45,-69.5997 186.984,-68.2934 188.588,-67.0749"/>
<polygon fill="midnightblue" stroke="midnightblue" points="190.534,-69.985 197.12,-61.6855 186.796,-64.0668 190.534,-69.985"/>
</g>
<!-- Node29 -->
<g id="node64" class="node"><title>Node29</title>
<a xlink:href="classtetgenmesh.xhtml#a2b088cf9fa743d47b4520d43d9964087" target="_top" xlink:title="tetgenmesh::pointtraverse">
<polygon fill="none" stroke="black" points="198,-712.5 198,-733.5 328,-733.5 328,-712.5 198,-712.5"/>
<text text-anchor="middle" x="263" y="-720.5" font-family="Helvetica,sans-Serif" font-size="10.00">tetgenmesh::pointtraverse</text>
</a>
</g>
<!-- Node1&#45;&gt;Node29 -->
<g id="edge70" class="edge"><title>Node1&#45;&gt;Node29</title>
<path fill="none" stroke="midnightblue" d="M75.5212,-459.547C81.5727,-497.63 107.448,-629.403 184,-698 188.461,-701.998 193.561,-705.356 198.974,-708.178"/>
<polygon fill="midnightblue" stroke="midnightblue" points="197.771,-711.476 208.322,-712.438 200.674,-705.106 197.771,-711.476"/>
</g>
<!-- Node30 -->
<g id="node68" class="node"><title>Node30</title>
<a xlink:href="classtetgenmesh.xhtml#aec1136555f9371102995738aabe1e552" target="_top" xlink:title="tetgenmesh::senextself">
<polygon fill="none" stroke="black" points="203.5,-0.5 203.5,-21.5 322.5,-21.5 322.5,-0.5 203.5,-0.5"/>
<text text-anchor="middle" x="263" y="-8.5" font-family="Helvetica,sans-Serif" font-size="10.00">tetgenmesh::senextself</text>
</a>
</g>
<!-- Node1&#45;&gt;Node30 -->
<g id="edge76" class="edge"><title>Node1&#45;&gt;Node30</title>
<path fill="none" stroke="midnightblue" d="M75.3256,-438.438C82.9301,-379.487 122.827,-91.6021 184,-31 187.053,-27.9755 190.494,-25.3872 194.187,-23.1741"/>
<polygon fill="midnightblue" stroke="midnightblue" points="195.824,-26.2685 203.2,-18.6625 192.691,-20.0089 195.824,-26.2685"/>
</g>
<!-- Node31 -->
<g id="node70" class="node"><title>Node31</title>
<a xlink:href="classtetgenmesh.xhtml#a71a0d2318f836657f366f4f1b8a536b2" target="_top" xlink:title="tetgenmesh::sbond">
<polygon fill="none" stroke="black" points="213,-160.5 213,-181.5 313,-181.5 313,-160.5 213,-160.5"/>
<text text-anchor="middle" x="263" y="-168.5" font-family="Helvetica,sans-Serif" font-size="10.00">tetgenmesh::sbond</text>
</a>
</g>
<!-- Node1&#45;&gt;Node31 -->
<g id="edge78" class="edge"><title>Node1&#45;&gt;Node31</title>
<path fill="none" stroke="midnightblue" d="M75.1861,-438.467C80.1847,-399.217 103.167,-260.179 184,-191 189.616,-186.193 196.231,-182.516 203.202,-179.706"/>
<polygon fill="midnightblue" stroke="midnightblue" points="204.547,-182.945 212.87,-176.389 202.275,-176.324 204.547,-182.945"/>
</g>
<!-- Node4 -->
<g id="node7" class="node"><title>Node4</title>
<a xlink:href="classtetgenmesh_1_1memorypool.xhtml#a151fe73459d0fa9a7262d0030fecf291" target="_top" xlink:title="tetgenmesh::memorypool\l::traverse">
<polygon fill="none" stroke="black" points="562.5,-754 562.5,-788 689.5,-788 689.5,-754 562.5,-754"/>
<text text-anchor="start" x="570.5" y="-775" font-family="Helvetica,sans-Serif" font-size="10.00">tetgenmesh::memorypool</text>
<text text-anchor="middle" x="626" y="-762" font-family="Helvetica,sans-Serif" font-size="10.00">::traverse</text>
</a>
</g>
<!-- Node3&#45;&gt;Node4 -->
<g id="edge6" class="edge"><title>Node3&#45;&gt;Node4</title>
<path fill="none" stroke="midnightblue" d="M497.716,-800.49C514.445,-796.645 533.825,-792.19 552.374,-787.926"/>
<polygon fill="midnightblue" stroke="midnightblue" points="553.312,-791.301 562.274,-785.65 551.744,-784.479 553.312,-791.301"/>
</g>
<!-- Node6&#45;&gt;Node2 -->
<g id="edge12" class="edge"><title>Node6&#45;&gt;Node2</title>
<path fill="none" stroke="midnightblue" d="M293.366,-811.604C320.338,-821.023 360.509,-835.051 393.676,-846.633"/>
<polygon fill="midnightblue" stroke="midnightblue" points="392.679,-849.992 403.274,-849.985 394.987,-843.383 392.679,-849.992"/>
</g>
<!-- Node6&#45;&gt;Node3 -->
<g id="edge14" class="edge"><title>Node6&#45;&gt;Node3</title>
<path fill="none" stroke="midnightblue" d="M342.058,-805.183C350.472,-805.628 359.054,-806.082 367.527,-806.531"/>
<polygon fill="midnightblue" stroke="midnightblue" points="367.619,-810.04 377.79,-807.074 367.989,-803.05 367.619,-810.04"/>
</g>
<!-- Node6&#45;&gt;Node7 -->
<g id="edge16" class="edge"><title>Node6&#45;&gt;Node7</title>
<path fill="none" stroke="midnightblue" d="M329.369,-790.465C346.974,-787.671 366.012,-784.649 383.717,-781.839"/>
<polygon fill="midnightblue" stroke="midnightblue" points="384.638,-785.236 393.966,-780.212 383.541,-778.323 384.638,-785.236"/>
</g>
<!-- Node13 -->
<g id="node28" class="node"><title>Node13</title>
<a xlink:href="classtetgenmesh.xhtml#ac5a50a5f6e277b5b95d58e40f3d58c2f" target="_top" xlink:title="tetgenmesh::sdecode">
<polygon fill="none" stroke="black" points="397,-338.5 397,-359.5 507,-359.5 507,-338.5 397,-338.5"/>
<text text-anchor="middle" x="452" y="-346.5" font-family="Helvetica,sans-Serif" font-size="10.00">tetgenmesh::sdecode</text>
</a>
</g>
<!-- Node12&#45;&gt;Node13 -->
<g id="edge30" class="edge"><title>Node12&#45;&gt;Node13</title>
<path fill="none" stroke="midnightblue" d="M315.647,-334.571C337.626,-336.897 363.39,-339.623 386.569,-342.076"/>
<polygon fill="midnightblue" stroke="midnightblue" points="386.355,-345.573 396.668,-343.145 387.092,-338.612 386.355,-345.573"/>
</g>
<!-- Node15&#45;&gt;Node5 -->
<g id="edge46" class="edge"><title>Node15&#45;&gt;Node5</title>
<path fill="none" stroke="midnightblue" d="M306.36,-617.553C333.852,-624.244 369.607,-632.947 398.81,-640.054"/>
<polygon fill="midnightblue" stroke="midnightblue" points="398.297,-643.532 408.841,-642.496 399.953,-636.73 398.297,-643.532"/>
</g>
<!-- Node16 -->
<g id="node34" class="node"><title>Node16</title>
<a xlink:href="classtetgenmesh_1_1memorypool.xhtml#a9631e38a788a91ae067a756232b515ab" target="_top" xlink:title="tetgenmesh::memorypool\l::alloc">
<polygon fill="none" stroke="black" points="388.5,-590 388.5,-624 515.5,-624 515.5,-590 388.5,-590"/>
<text text-anchor="start" x="396.5" y="-611" font-family="Helvetica,sans-Serif" font-size="10.00">tetgenmesh::memorypool</text>
<text text-anchor="middle" x="452" y="-598" font-family="Helvetica,sans-Serif" font-size="10.00">::alloc</text>
</a>
</g>
<!-- Node15&#45;&gt;Node16 -->
<g id="edge36" class="edge"><title>Node15&#45;&gt;Node16</title>
<path fill="none" stroke="midnightblue" d="M331.501,-607C346.753,-607 362.984,-607 378.431,-607"/>
<polygon fill="midnightblue" stroke="midnightblue" points="378.45,-610.5 388.449,-607 378.449,-603.5 378.45,-610.5"/>
</g>
<!-- Node15&#45;&gt;Node19 -->
<g id="edge42" class="edge"><title>Node15&#45;&gt;Node19</title>
<path fill="none" stroke="midnightblue" d="M310.84,-596.445C321.6,-592.851 332.604,-588.134 342,-582 362.306,-568.744 357.417,-553.822 378,-541 381.336,-538.922 384.887,-537.057 388.559,-535.384"/>
<polygon fill="midnightblue" stroke="midnightblue" points="389.927,-538.606 397.882,-531.609 387.3,-532.118 389.927,-538.606"/>
</g>
<!-- Node20 -->
<g id="node42" class="node"><title>Node20</title>
<a xlink:href="classtetgenmesh.xhtml#ada5d50fbd8ccc1c82389b0b3450ce98e" target="_top" xlink:title="tetgenmesh::setfacetindex">
<polygon fill="none" stroke="black" points="386,-550.5 386,-571.5 518,-571.5 518,-550.5 386,-550.5"/>
<text text-anchor="middle" x="452" y="-558.5" font-family="Helvetica,sans-Serif" font-size="10.00">tetgenmesh::setfacetindex</text>
</a>
</g>
<!-- Node15&#45;&gt;Node20 -->
<g id="edge44" class="edge"><title>Node15&#45;&gt;Node20</title>
<path fill="none" stroke="midnightblue" d="M306.36,-596.447C333.852,-589.756 369.607,-581.053 398.81,-573.946"/>
<polygon fill="midnightblue" stroke="midnightblue" points="399.953,-577.27 408.841,-571.504 398.297,-570.468 399.953,-577.27"/>
</g>
<!-- Node17 -->
<g id="node36" class="node"><title>Node17</title>
<a xlink:href="tetgen_8h.xhtml#a4012bf160c63ec4ff007f6645b993ca5" target="_top" xlink:title="terminatetetgen">
<polygon fill="none" stroke="black" points="584,-596.5 584,-617.5 668,-617.5 668,-596.5 584,-596.5"/>
<text text-anchor="middle" x="626" y="-604.5" font-family="Helvetica,sans-Serif" font-size="10.00">terminatetetgen</text>
</a>
</g>
<!-- Node16&#45;&gt;Node17 -->
<g id="edge38" class="edge"><title>Node16&#45;&gt;Node17</title>
<path fill="none" stroke="midnightblue" d="M515.803,-607C534.864,-607 555.528,-607 573.756,-607"/>
<polygon fill="midnightblue" stroke="midnightblue" points="573.89,-610.5 583.89,-607 573.89,-603.5 573.89,-610.5"/>
</g>
<!-- Node18 -->
<g id="node38" class="node"><title>Node18</title>
<a xlink:href="classtetgenmesh.xhtml#ade805f03ec7ca1b4623c8148fb915278" target="_top" xlink:title="tetgenmesh::freememory">
<polygon fill="none" stroke="black" points="726.5,-596.5 726.5,-617.5 851.5,-617.5 851.5,-596.5 726.5,-596.5"/>
<text text-anchor="middle" x="789" y="-604.5" font-family="Helvetica,sans-Serif" font-size="10.00">tetgenmesh::freememory</text>
</a>
</g>
<!-- Node17&#45;&gt;Node18 -->
<g id="edge40" class="edge"><title>Node17&#45;&gt;Node18</title>
<path fill="none" stroke="midnightblue" d="M668.401,-607C683.008,-607 699.812,-607 716.147,-607"/>
<polygon fill="midnightblue" stroke="midnightblue" points="716.234,-610.5 726.234,-607 716.234,-603.5 716.234,-610.5"/>
</g>
<!-- Node21&#45;&gt;Node22 -->
<g id="edge50" class="edge"><title>Node21&#45;&gt;Node22</title>
<path fill="none" stroke="midnightblue" d="M315.647,-211C337.626,-211 363.39,-211 386.569,-211"/>
<polygon fill="midnightblue" stroke="midnightblue" points="386.668,-214.5 396.668,-211 386.668,-207.5 386.668,-214.5"/>
</g>
<!-- Node23&#45;&gt;Node13 -->
<g id="edge54" class="edge"><title>Node23&#45;&gt;Node13</title>
<path fill="none" stroke="midnightblue" d="M313.152,-363.693C335.735,-361.303 362.688,-358.451 386.812,-355.898"/>
<polygon fill="midnightblue" stroke="midnightblue" points="387.38,-359.358 396.956,-354.825 386.644,-352.397 387.38,-359.358"/>
</g>
<!-- Node28 -->
<g id="node62" class="node"><title>Node28</title>
<a xlink:href="classtetgenmesh_1_1memorypool.xhtml#a0329d16675985efd7fd1e0a0630cabf7" target="_top" xlink:title="tetgenmesh::memorypool\l::dealloc">
<polygon fill="none" stroke="black" points="388.5,-34 388.5,-68 515.5,-68 515.5,-34 388.5,-34"/>
<text text-anchor="start" x="396.5" y="-55" font-family="Helvetica,sans-Serif" font-size="10.00">tetgenmesh::memorypool</text>
<text text-anchor="middle" x="452" y="-42" font-family="Helvetica,sans-Serif" font-size="10.00">::dealloc</text>
</a>
</g>
<!-- Node27&#45;&gt;Node28 -->
<g id="edge68" class="edge"><title>Node27&#45;&gt;Node28</title>
<path fill="none" stroke="midnightblue" d="M334.722,-51C348.924,-51 363.855,-51 378.126,-51"/>
<polygon fill="midnightblue" stroke="midnightblue" points="378.381,-54.5001 388.381,-51 378.381,-47.5001 378.381,-54.5001"/>
</g>
<!-- Node29&#45;&gt;Node4 -->
<g id="edge72" class="edge"><title>Node29&#45;&gt;Node4</title>
<path fill="none" stroke="midnightblue" d="M328.062,-728.261C381.417,-732.975 458.822,-740.728 526,-751 534.583,-752.312 543.548,-753.856 552.433,-755.494"/>
<polygon fill="midnightblue" stroke="midnightblue" points="551.93,-758.961 562.406,-757.376 553.228,-752.082 551.93,-758.961"/>
</g>
<!-- Node29&#45;&gt;Node24 -->
<g id="edge74" class="edge"><title>Node29&#45;&gt;Node24</title>
<path fill="none" stroke="midnightblue" d="M328.043,-712.676C346.598,-709.73 366.836,-706.518 385.478,-703.559"/>
<polygon fill="midnightblue" stroke="midnightblue" points="386.028,-707.016 395.356,-701.991 384.931,-700.102 386.028,-707.016"/>
</g>
<!-- Node31&#45;&gt;Node22 -->
<g id="edge80" class="edge"><title>Node31&#45;&gt;Node22</title>
<path fill="none" stroke="midnightblue" d="M312.658,-181.51C337.085,-186.679 366.718,-192.951 392.365,-198.379"/>
<polygon fill="midnightblue" stroke="midnightblue" points="391.838,-201.845 402.346,-200.491 393.288,-194.997 391.838,-201.845"/>
</g>
</g>
</svg>
        <g id="navigator" transform="translate(0 0)" fill="#404254">
                <rect fill="#f2f5e9" fill-opacity="0.5" stroke="#606060" stroke-width=".5" x="0" y="0" width="60" height="60"/>
                <use id="zoomplus" xlink:href="#zoomPlus" x="17" y="9" onmousedown="handleZoom(evt,'in')"/>
                <use id="zoomminus" xlink:href="#zoomMin" x="42" y="9" onmousedown="handleZoom(evt,'out')"/>
                <use id="reset" xlink:href="#resetDef" x="30" y="36" onmousedown="handleReset()"/>
                <g id="arrowUp" xlink:href="#dirArrow" transform="translate(30 24)" onmousedown="handlePan(0,-1)">
                  <use xlink:href="#rim" fill="#404040">
                        <set attributeName="fill" to="#808080" begin="arrowUp.mouseover" end="arrowUp.mouseout"/>
                  </use>
                  <path fill="none" stroke="white" stroke-width="1.5" d="M0,-3.0v7 M-2.5,-0.5L0,-3.0L2.5,-0.5"/>
                </g>
                <g id="arrowRight" xlink:href="#dirArrow" transform="rotate(90) translate(36 -43)" onmousedown="handlePan(1,0)">
                  <use xlink:href="#rim" fill="#404040">
                        <set attributeName="fill" to="#808080" begin="arrowRight.mouseover" end="arrowRight.mouseout"/>
                  </use>
                  <path fill="none" stroke="white" stroke-width="1.5" d="M0,-3.0v7 M-2.5,-0.5L0,-3.0L2.5,-0.5"/>
                </g>
                <g id="arrowDown" xlink:href="#dirArrow" transform="rotate(180) translate(-30 -48)" onmousedown="handlePan(0,1)">
                  <use xlink:href="#rim" fill="#404040">
                        <set attributeName="fill" to="#808080" begin="arrowDown.mouseover" end="arrowDown.mouseout"/>
                  </use>
                  <path fill="none" stroke="white" stroke-width="1.5" d="M0,-3.0v7 M-2.5,-0.5L0,-3.0L2.5,-0.5"/>
                </g>
                <g id="arrowLeft" xlink:href="#dirArrow" transform="rotate(270) translate(-36 17)" onmousedown="handlePan(-1,0)">
                  <use xlink:href="#rim" fill="#404040">
                        <set attributeName="fill" to="#808080" begin="arrowLeft.mouseover" end="arrowLeft.mouseout"/>
                  </use>
                  <path fill="none" stroke="white" stroke-width="1.5" d="M0,-3.0v7 M-2.5,-0.5L0,-3.0L2.5,-0.5"/>
                </g>
        </g>
        <svg viewBox="0 0 15 15" width="100%" height="30px" preserveAspectRatio="xMaxYMin meet">
         <g id="arrow_out" transform="scale(0.3 0.3)">
          <a xlink:href="classtetgenmesh_a3193fcbef94cca623411966a3661f215_cgraph_org.svg" target="_base">
           <rect id="button" ry="5" rx="5" y="6" x="6" height="38" width="38"
                fill="#f2f5e9" fill-opacity="0.5" stroke="#606060" stroke-width="1.0"/>
           <path id="arrow"
             d="M 11.500037,31.436501 C 11.940474,20.09759 22.043105,11.32322 32.158766,21.979434 L 37.068811,17.246167 C 37.068811,17.246167 37.088388,32 37.088388,32 L 22.160133,31.978069 C 22.160133,31.978069 26.997745,27.140456 26.997745,27.140456 C 18.528582,18.264221 13.291696,25.230495 11.500037,31.436501 z"
             style="fill:#404040;"/>
          </a>
         </g>
        </svg>
</svg>
