<?xml version="1.0" encoding="UTF-8" standalone="no"?>
<!DOCTYPE svg PUBLIC "-//W3C//DTD SVG 1.1//EN"
 "http://www.w3.org/Graphics/SVG/1.1/DTD/svg11.dtd">
<!-- Generated by graphviz version 2.26.3 (20100126.1600)
 -->
<!-- Title: tetgenmesh::scoutsubface Pages: 1 -->
<svg width="764pt" height="760pt"
 viewBox="0.00 0.00 764.00 760.00" xmlns="http://www.w3.org/2000/svg" xmlns:xlink="http://www.w3.org/1999/xlink">
<g id="graph1" class="graph" transform="scale(1 1) rotate(0) translate(4 756)">
<title>tetgenmesh::scoutsubface</title>
<!-- Node1 -->
<g id="node1" class="node"><title>Node1</title>
<polygon fill="#bfbfbf" stroke="black" points="0,-269.5 0,-290.5 132,-290.5 132,-269.5 0,-269.5"/>
<text text-anchor="middle" x="66" y="-277.5" font-family="Helvetica,sans-Serif" font-size="10.00">tetgenmesh::scoutsubface</text>
</g>
<!-- Node2 -->
<g id="node3" class="node"><title>Node2</title>
<a xlink:href="classtetgenmesh.xhtml#a55db9a054b722d91a17b82d442f88f4c" target="_top" xlink:title="tetgenmesh::sorg">
<polygon fill="none" stroke="black" points="185,-606.5 185,-627.5 277,-627.5 277,-606.5 185,-606.5"/>
<text text-anchor="middle" x="231" y="-614.5" font-family="Helvetica,sans-Serif" font-size="10.00">tetgenmesh::sorg</text>
</a>
</g>
<!-- Node1&#45;&gt;Node2 -->
<g id="edge2" class="edge"><title>Node1&#45;&gt;Node2</title>
<path fill="none" stroke="midnightblue" d="M68.0977,-290.8C78.0474,-341.009 121.92,-551.1 168,-597 170.358,-599.349 172.99,-601.422 175.804,-603.252"/>
<polygon fill="midnightblue" stroke="midnightblue" points="174.235,-606.382 184.699,-608.044 177.555,-600.22 174.235,-606.382"/>
</g>
<!-- Node3 -->
<g id="node5" class="node"><title>Node3</title>
<a xlink:href="classtetgenmesh.xhtml#aa6017928ea3dc0b8ba39e7f24ea312b2" target="_top" xlink:title="tetgenmesh::sdest">
<polygon fill="none" stroke="black" points="182,-566.5 182,-587.5 280,-587.5 280,-566.5 182,-566.5"/>
<text text-anchor="middle" x="231" y="-574.5" font-family="Helvetica,sans-Serif" font-size="10.00">tetgenmesh::sdest</text>
</a>
</g>
<!-- Node1&#45;&gt;Node3 -->
<g id="edge4" class="edge"><title>Node1&#45;&gt;Node3</title>
<path fill="none" stroke="midnightblue" d="M66.6695,-290.548C69.8217,-331.197 86.6736,-479.286 168,-557 169.493,-558.427 171.088,-559.752 172.763,-560.983"/>
<polygon fill="midnightblue" stroke="midnightblue" points="171.332,-564.207 181.701,-566.382 174.951,-558.216 171.332,-564.207"/>
</g>
<!-- Node4 -->
<g id="node7" class="node"><title>Node4</title>
<a xlink:href="classtetgenmesh.xhtml#a08a487daca1979751e3d4e536182cbc3" target="_top" xlink:title="tetgenmesh::point2tetorg">
<polygon fill="none" stroke="black" points="168.5,-526.5 168.5,-547.5 293.5,-547.5 293.5,-526.5 168.5,-526.5"/>
<text text-anchor="middle" x="231" y="-534.5" font-family="Helvetica,sans-Serif" font-size="10.00">tetgenmesh::point2tetorg</text>
</a>
</g>
<!-- Node1&#45;&gt;Node4 -->
<g id="edge6" class="edge"><title>Node1&#45;&gt;Node4</title>
<path fill="none" stroke="midnightblue" d="M67.7259,-290.641C74.1237,-326.776 99.7434,-446.187 168,-512 171.971,-515.829 176.6,-519.093 181.512,-521.872"/>
<polygon fill="midnightblue" stroke="midnightblue" points="180.067,-525.062 190.581,-526.367 183.175,-518.79 180.067,-525.062"/>
</g>
<!-- Node7 -->
<g id="node13" class="node"><title>Node7</title>
<a xlink:href="classtetgenmesh.xhtml#a4a33553a18b0e9535d43d683b9473cbf" target="_top" xlink:title="tetgenmesh::finddirection">
<polygon fill="none" stroke="black" points="168,-410.5 168,-431.5 294,-431.5 294,-410.5 168,-410.5"/>
<text text-anchor="middle" x="231" y="-418.5" font-family="Helvetica,sans-Serif" font-size="10.00">tetgenmesh::finddirection</text>
</a>
</g>
<!-- Node1&#45;&gt;Node7 -->
<g id="edge12" class="edge"><title>Node1&#45;&gt;Node7</title>
<path fill="none" stroke="midnightblue" d="M78.4018,-290.598C106.591,-314.687 175.716,-373.757 210.419,-403.412"/>
<polygon fill="midnightblue" stroke="midnightblue" points="208.578,-406.443 218.454,-410.279 213.126,-401.122 208.578,-406.443"/>
</g>
<!-- Node9 -->
<g id="node18" class="node"><title>Node9</title>
<a xlink:href="classtetgenmesh.xhtml#ad56ef3448cd57e637acf373622bfb769" target="_top" xlink:title="tetgenmesh::dest">
<polygon fill="none" stroke="black" points="353,-650.5 353,-671.5 445,-671.5 445,-650.5 353,-650.5"/>
<text text-anchor="middle" x="399" y="-658.5" font-family="Helvetica,sans-Serif" font-size="10.00">tetgenmesh::dest</text>
</a>
</g>
<!-- Node1&#45;&gt;Node9 -->
<g id="edge48" class="edge"><title>Node1&#45;&gt;Node9</title>
<path fill="none" stroke="midnightblue" d="M68.5044,-290.722C76.7184,-323.517 105.946,-423.438 168,-476 212.936,-514.063 253.031,-474.697 294,-517 333.923,-558.223 289.413,-600.43 330,-641 333.914,-644.913 338.545,-648.07 343.526,-650.616"/>
<polygon fill="midnightblue" stroke="midnightblue" points="342.219,-653.864 352.791,-654.57 344.967,-647.425 342.219,-653.864"/>
</g>
<!-- Node10 -->
<g id="node20" class="node"><title>Node10</title>
<a xlink:href="classtetgenmesh.xhtml#a9287d941f7f432ca846d5c004603af40" target="_top" xlink:title="tetgenmesh::apex">
<polygon fill="none" stroke="black" points="351.5,-610.5 351.5,-631.5 446.5,-631.5 446.5,-610.5 351.5,-610.5"/>
<text text-anchor="middle" x="399" y="-618.5" font-family="Helvetica,sans-Serif" font-size="10.00">tetgenmesh::apex</text>
</a>
</g>
<!-- Node1&#45;&gt;Node10 -->
<g id="edge58" class="edge"><title>Node1&#45;&gt;Node10</title>
<path fill="none" stroke="midnightblue" d="M69.8677,-290.777C80.717,-319.504 114.206,-398.602 168,-441 214.472,-477.627 252.8,-441.529 294,-484 331.882,-523.051 291.216,-562.846 330,-601 333.537,-604.48 337.641,-607.361 342.05,-609.745"/>
<polygon fill="midnightblue" stroke="midnightblue" points="340.89,-613.061 351.446,-613.975 343.764,-606.678 340.89,-613.061"/>
</g>
<!-- Node14 -->
<g id="node28" class="node"><title>Node14</title>
<a xlink:href="classtetgenmesh.xhtml#a1c65efaf2a8a72d023327c2592d89188" target="_top" xlink:title="tetgenmesh::enextself">
<polygon fill="none" stroke="black" points="342.5,-290.5 342.5,-311.5 455.5,-311.5 455.5,-290.5 342.5,-290.5"/>
<text text-anchor="middle" x="399" y="-298.5" font-family="Helvetica,sans-Serif" font-size="10.00">tetgenmesh::enextself</text>
</a>
</g>
<!-- Node1&#45;&gt;Node14 -->
<g id="edge50" class="edge"><title>Node1&#45;&gt;Node14</title>
<path fill="none" stroke="midnightblue" d="M132.188,-284.174C190.162,-287.83 274.003,-293.117 332.167,-296.785"/>
<polygon fill="midnightblue" stroke="midnightblue" points="332.154,-300.291 342.355,-297.428 332.595,-293.305 332.154,-300.291"/>
</g>
<!-- Node21 -->
<g id="node42" class="node"><title>Node21</title>
<a xlink:href="classtetgenmesh.xhtml#a473568d02dfc5c262325ed18b1f9af3a" target="_top" xlink:title="tetgenmesh::fnextself">
<polygon fill="none" stroke="black" points="343.5,-250.5 343.5,-271.5 454.5,-271.5 454.5,-250.5 343.5,-250.5"/>
<text text-anchor="middle" x="399" y="-258.5" font-family="Helvetica,sans-Serif" font-size="10.00">tetgenmesh::fnextself</text>
</a>
</g>
<!-- Node1&#45;&gt;Node21 -->
<g id="edge78" class="edge"><title>Node1&#45;&gt;Node21</title>
<path fill="none" stroke="midnightblue" d="M132.188,-276.223C190.52,-272.895 275.039,-268.073 333.241,-264.752"/>
<polygon fill="midnightblue" stroke="midnightblue" points="333.644,-268.235 343.429,-264.171 333.246,-261.246 333.644,-268.235"/>
</g>
<!-- Node23 -->
<g id="node46" class="node"><title>Node23</title>
<a xlink:href="classtetgenmesh.xhtml#a57b18059c68cacbe01720c387c19ee9e" target="_top" xlink:title="tetgenmesh::fsymself">
<polygon fill="none" stroke="black" points="343.5,-210.5 343.5,-231.5 454.5,-231.5 454.5,-210.5 343.5,-210.5"/>
<text text-anchor="middle" x="399" y="-218.5" font-family="Helvetica,sans-Serif" font-size="10.00">tetgenmesh::fsymself</text>
</a>
</g>
<!-- Node1&#45;&gt;Node23 -->
<g id="edge70" class="edge"><title>Node1&#45;&gt;Node23</title>
<path fill="none" stroke="midnightblue" d="M125.534,-269.452C183.892,-259.112 272.655,-243.385 333.108,-232.675"/>
<polygon fill="midnightblue" stroke="midnightblue" points="334.068,-236.059 343.304,-230.868 332.847,-229.166 334.068,-236.059"/>
</g>
<!-- Node24 -->
<g id="node50" class="node"><title>Node24</title>
<a xlink:href="tetgen_8h.xhtml#a4012bf160c63ec4ff007f6645b993ca5" target="_top" xlink:title="terminatetetgen">
<polygon fill="none" stroke="black" points="504,-149.5 504,-170.5 588,-170.5 588,-149.5 504,-149.5"/>
<text text-anchor="middle" x="546" y="-157.5" font-family="Helvetica,sans-Serif" font-size="10.00">terminatetetgen</text>
</a>
</g>
<!-- Node1&#45;&gt;Node24 -->
<g id="edge52" class="edge"><title>Node1&#45;&gt;Node24</title>
<path fill="none" stroke="midnightblue" d="M87.0275,-269.493C107.334,-259.693 139.165,-245.237 168,-236 281.548,-199.625 420.083,-177.076 493.863,-166.722"/>
<polygon fill="midnightblue" stroke="midnightblue" points="494.409,-170.18 503.835,-165.342 493.449,-163.246 494.409,-170.18"/>
</g>
<!-- Node26 -->
<g id="node54" class="node"><title>Node26</title>
<a xlink:href="classtetgenmesh.xhtml#a273687e8175a97ef3d97e4d3a5d03d3c" target="_top" xlink:title="tetgenmesh::sapex">
<polygon fill="none" stroke="black" points="181,-89.5 181,-110.5 281,-110.5 281,-89.5 181,-89.5"/>
<text text-anchor="middle" x="231" y="-97.5" font-family="Helvetica,sans-Serif" font-size="10.00">tetgenmesh::sapex</text>
</a>
</g>
<!-- Node1&#45;&gt;Node26 -->
<g id="edge56" class="edge"><title>Node1&#45;&gt;Node26</title>
<path fill="none" stroke="midnightblue" d="M69.838,-269.226C80.6134,-240.52 113.935,-161.557 168,-120 170.424,-118.137 173.025,-116.445 175.742,-114.909"/>
<polygon fill="midnightblue" stroke="midnightblue" points="177.283,-118.051 184.729,-110.514 174.208,-111.763 177.283,-118.051"/>
</g>
<!-- Node27 -->
<g id="node57" class="node"><title>Node27</title>
<a xlink:href="classtetgenmesh.xhtml#aae16d3c2903a72e7f956d886499c2910" target="_top" xlink:title="tetgenmesh::tsbond">
<polygon fill="none" stroke="black" points="179.5,-129.5 179.5,-150.5 282.5,-150.5 282.5,-129.5 179.5,-129.5"/>
<text text-anchor="middle" x="231" y="-137.5" font-family="Helvetica,sans-Serif" font-size="10.00">tetgenmesh::tsbond</text>
</a>
</g>
<!-- Node1&#45;&gt;Node27 -->
<g id="edge60" class="edge"><title>Node1&#45;&gt;Node27</title>
<path fill="none" stroke="midnightblue" d="M73.2945,-269.398C88.6166,-247.793 126.202,-198.167 168,-168 175.046,-162.915 183.161,-158.462 191.173,-154.692"/>
<polygon fill="midnightblue" stroke="midnightblue" points="192.733,-157.83 200.462,-150.583 189.9,-151.429 192.733,-157.83"/>
</g>
<!-- Node31 -->
<g id="node67" class="node"><title>Node31</title>
<a xlink:href="classtetgenmesh.xhtml#a867b8f5e8312c7a918eb96813a6f6de7" target="_top" xlink:title="tetgenmesh::sesymself">
<polygon fill="none" stroke="black" points="171.5,-49.5 171.5,-70.5 290.5,-70.5 290.5,-49.5 171.5,-49.5"/>
<text text-anchor="middle" x="231" y="-57.5" font-family="Helvetica,sans-Serif" font-size="10.00">tetgenmesh::sesymself</text>
</a>
</g>
<!-- Node1&#45;&gt;Node31 -->
<g id="edge72" class="edge"><title>Node1&#45;&gt;Node31</title>
<path fill="none" stroke="midnightblue" d="M68.4183,-269.042C76.3846,-235.528 104.975,-133.44 168,-80 169.991,-78.3116 172.126,-76.7654 174.363,-75.3493"/>
<polygon fill="midnightblue" stroke="midnightblue" points="176.246,-78.3114 183.412,-70.5078 172.944,-72.1392 176.246,-78.3114"/>
</g>
<!-- Node32 -->
<g id="node69" class="node"><title>Node32</title>
<a xlink:href="classtetgenmesh.xhtml#a9f17777c1c04712dfa0ac34e8fbd0a4a" target="_top" xlink:title="tetgenmesh::tspivot">
<polygon fill="none" stroke="black" points="179.5,-3.5 179.5,-24.5 282.5,-24.5 282.5,-3.5 179.5,-3.5"/>
<text text-anchor="middle" x="231" y="-11.5" font-family="Helvetica,sans-Serif" font-size="10.00">tetgenmesh::tspivot</text>
</a>
</g>
<!-- Node1&#45;&gt;Node32 -->
<g id="edge74" class="edge"><title>Node1&#45;&gt;Node32</title>
<path fill="none" stroke="midnightblue" d="M67.6015,-269.291C73.663,-232.355 98.4905,-108.786 168,-40 172.31,-35.7346 177.42,-32.1349 182.836,-29.1055"/>
<polygon fill="midnightblue" stroke="midnightblue" points="184.72,-32.0792 192.152,-24.5285 181.634,-25.7964 184.72,-32.0792"/>
</g>
<!-- Node5 -->
<g id="node9" class="node"><title>Node5</title>
<a xlink:href="classtetgenmesh.xhtml#a809cfdec35ae9a52670e045823a302c0" target="_top" xlink:title="tetgenmesh::decode">
<polygon fill="none" stroke="black" points="346.5,-690.5 346.5,-711.5 451.5,-711.5 451.5,-690.5 346.5,-690.5"/>
<text text-anchor="middle" x="399" y="-698.5" font-family="Helvetica,sans-Serif" font-size="10.00">tetgenmesh::decode</text>
</a>
</g>
<!-- Node4&#45;&gt;Node5 -->
<g id="edge8" class="edge"><title>Node4&#45;&gt;Node5</title>
<path fill="none" stroke="midnightblue" d="M280.879,-547.505C285.727,-550.022 290.234,-553.139 294,-557 334.071,-598.079 289.413,-640.43 330,-681 332.265,-683.264 334.769,-685.274 337.442,-687.06"/>
<polygon fill="midnightblue" stroke="midnightblue" points="336.019,-690.272 346.467,-692.032 339.397,-684.141 336.019,-690.272"/>
</g>
<!-- Node6 -->
<g id="node11" class="node"><title>Node6</title>
<a xlink:href="classtetgenmesh.xhtml#a6c3e38cde82f108d0c0ca90d1a046931" target="_top" xlink:title="tetgenmesh::point2tet">
<polygon fill="none" stroke="black" points="343.5,-730.5 343.5,-751.5 454.5,-751.5 454.5,-730.5 343.5,-730.5"/>
<text text-anchor="middle" x="399" y="-738.5" font-family="Helvetica,sans-Serif" font-size="10.00">tetgenmesh::point2tet</text>
</a>
</g>
<!-- Node4&#45;&gt;Node6 -->
<g id="edge10" class="edge"><title>Node4&#45;&gt;Node6</title>
<path fill="none" stroke="midnightblue" d="M281.75,-547.59C286.315,-550.094 290.519,-553.186 294,-557 344.304,-612.121 279.003,-666.519 330,-721 331.558,-722.665 333.246,-724.193 335.036,-725.597"/>
<polygon fill="midnightblue" stroke="midnightblue" points="333.153,-728.548 343.463,-730.987 336.925,-722.651 333.153,-728.548"/>
</g>
<!-- Node7&#45;&gt;Node5 -->
<g id="edge16" class="edge"><title>Node7&#45;&gt;Node5</title>
<path fill="none" stroke="midnightblue" d="M239.994,-431.764C253.735,-448.768 279.847,-483.376 294,-517 322.951,-585.779 279.003,-626.519 330,-681 332.188,-683.338 334.631,-685.407 337.256,-687.24"/>
<polygon fill="midnightblue" stroke="midnightblue" points="335.748,-690.409 346.169,-692.32 339.215,-684.328 335.748,-690.409"/>
</g>
<!-- Node8 -->
<g id="node15" class="node"><title>Node8</title>
<a xlink:href="classtetgenmesh.xhtml#ae2d4d27d7babd7b0e60956cc00bca89a" target="_top" xlink:title="tetgenmesh::org">
<polygon fill="none" stroke="black" points="355.5,-530.5 355.5,-551.5 442.5,-551.5 442.5,-530.5 355.5,-530.5"/>
<text text-anchor="middle" x="399" y="-538.5" font-family="Helvetica,sans-Serif" font-size="10.00">tetgenmesh::org</text>
</a>
</g>
<!-- Node7&#45;&gt;Node8 -->
<g id="edge14" class="edge"><title>Node7&#45;&gt;Node8</title>
<path fill="none" stroke="midnightblue" d="M270.611,-431.512C279.034,-435.096 287.374,-439.82 294,-446 321.041,-471.217 301.785,-497.104 330,-521 334.634,-524.924 340.001,-528.08 345.655,-530.616"/>
<polygon fill="midnightblue" stroke="midnightblue" points="344.771,-534.025 355.361,-534.327 347.271,-527.487 344.771,-534.025"/>
</g>
<!-- Node7&#45;&gt;Node9 -->
<g id="edge18" class="edge"><title>Node7&#45;&gt;Node9</title>
<path fill="none" stroke="midnightblue" d="M245.607,-431.586C260.133,-442.91 281.943,-462.21 294,-484 328.66,-546.639 280.835,-588.964 330,-641 333.855,-645.08 338.486,-648.343 343.502,-650.951"/>
<polygon fill="midnightblue" stroke="midnightblue" points="342.292,-654.24 352.862,-654.972 345.056,-647.809 342.292,-654.24"/>
</g>
<!-- Node7&#45;&gt;Node10 -->
<g id="edge20" class="edge"><title>Node7&#45;&gt;Node10</title>
<path fill="none" stroke="midnightblue" d="M273.936,-431.527C281.482,-435.058 288.627,-439.757 294,-446 340.133,-499.605 281.358,-549.662 330,-601 333.555,-604.752 337.766,-607.813 342.329,-610.309"/>
<polygon fill="midnightblue" stroke="midnightblue" points="340.903,-613.505 351.457,-614.444 343.793,-607.129 340.903,-613.505"/>
</g>
<!-- Node11 -->
<g id="node22" class="node"><title>Node11</title>
<a xlink:href="classtetgenmesh.xhtml#a548dec05fd31790f2ae36cf3890ffb15" target="_top" xlink:title="tetgenmesh::eprevesymself">
<polygon fill="none" stroke="black" points="330.5,-490.5 330.5,-511.5 467.5,-511.5 467.5,-490.5 330.5,-490.5"/>
<text text-anchor="middle" x="399" y="-498.5" font-family="Helvetica,sans-Serif" font-size="10.00">tetgenmesh::eprevesymself</text>
</a>
</g>
<!-- Node7&#45;&gt;Node11 -->
<g id="edge22" class="edge"><title>Node7&#45;&gt;Node11</title>
<path fill="none" stroke="midnightblue" d="M264.575,-431.517C274.452,-435.34 285.011,-440.181 294,-446 312.732,-458.127 310.709,-469.782 330,-481 333.639,-483.116 337.517,-485.022 341.509,-486.736"/>
<polygon fill="midnightblue" stroke="midnightblue" points="340.381,-490.052 350.97,-490.396 342.907,-483.524 340.381,-490.052"/>
</g>
<!-- Node12 -->
<g id="node24" class="node"><title>Node12</title>
<a xlink:href="classtetgenmesh.xhtml#a2ff33d38976a7bc134380ef8f15c4519" target="_top" xlink:title="tetgenmesh::oppo">
<polygon fill="none" stroke="black" points="351.5,-450.5 351.5,-471.5 446.5,-471.5 446.5,-450.5 351.5,-450.5"/>
<text text-anchor="middle" x="399" y="-458.5" font-family="Helvetica,sans-Serif" font-size="10.00">tetgenmesh::oppo</text>
</a>
</g>
<!-- Node7&#45;&gt;Node12 -->
<g id="edge24" class="edge"><title>Node7&#45;&gt;Node12</title>
<path fill="none" stroke="midnightblue" d="M275.14,-431.51C296.566,-436.611 322.495,-442.785 345.081,-448.162"/>
<polygon fill="midnightblue" stroke="midnightblue" points="344.325,-451.58 354.863,-450.491 345.946,-444.77 344.325,-451.58"/>
</g>
<!-- Node13 -->
<g id="node26" class="node"><title>Node13</title>
<a xlink:href="classtetgenmesh.xhtml#a9c4f9877ba70f7c0f399b7fcdd8fdddf" target="_top" xlink:title="tetgenmesh::esymself">
<polygon fill="none" stroke="black" points="342.5,-410.5 342.5,-431.5 455.5,-431.5 455.5,-410.5 342.5,-410.5"/>
<text text-anchor="middle" x="399" y="-418.5" font-family="Helvetica,sans-Serif" font-size="10.00">tetgenmesh::esymself</text>
</a>
</g>
<!-- Node7&#45;&gt;Node13 -->
<g id="edge26" class="edge"><title>Node7&#45;&gt;Node13</title>
<path fill="none" stroke="midnightblue" d="M294.035,-421C306.401,-421 319.414,-421 331.907,-421"/>
<polygon fill="midnightblue" stroke="midnightblue" points="332.253,-424.5 342.253,-421 332.253,-417.5 332.253,-424.5"/>
</g>
<!-- Node7&#45;&gt;Node14 -->
<g id="edge28" class="edge"><title>Node7&#45;&gt;Node14</title>
<path fill="none" stroke="midnightblue" d="M238.672,-410.189C253.782,-389.694 289.469,-345.09 330,-321 333.459,-318.944 337.143,-317.088 340.939,-315.415"/>
<polygon fill="midnightblue" stroke="midnightblue" points="342.527,-318.551 350.543,-311.623 339.957,-312.04 342.527,-318.551"/>
</g>
<!-- Node15 -->
<g id="node30" class="node"><title>Node15</title>
<a xlink:href="predicates_8cxx.xhtml#a701f35178b28c7bbb94644665c0b058a" target="_top" xlink:title="orient3d">
<polygon fill="none" stroke="black" points="373.5,-370.5 373.5,-391.5 424.5,-391.5 424.5,-370.5 373.5,-370.5"/>
<text text-anchor="middle" x="399" y="-378.5" font-family="Helvetica,sans-Serif" font-size="10.00">orient3d</text>
</a>
</g>
<!-- Node7&#45;&gt;Node15 -->
<g id="edge30" class="edge"><title>Node7&#45;&gt;Node15</title>
<path fill="none" stroke="midnightblue" d="M275.14,-410.49C302.776,-403.911 337.905,-395.546 363.688,-389.408"/>
<polygon fill="midnightblue" stroke="midnightblue" points="364.504,-392.811 373.422,-387.09 362.883,-386.002 364.504,-392.811"/>
</g>
<!-- Node20 -->
<g id="node40" class="node"><title>Node20</title>
<a xlink:href="classtetgenmesh.xhtml#a0ae35b219eb4a0d1e0c14f9759cd6563" target="_top" xlink:title="tetgenmesh::randomnation">
<polygon fill="none" stroke="black" points="333,-330.5 333,-351.5 465,-351.5 465,-330.5 333,-330.5"/>
<text text-anchor="middle" x="399" y="-338.5" font-family="Helvetica,sans-Serif" font-size="10.00">tetgenmesh::randomnation</text>
</a>
</g>
<!-- Node7&#45;&gt;Node20 -->
<g id="edge40" class="edge"><title>Node7&#45;&gt;Node20</title>
<path fill="none" stroke="midnightblue" d="M245.757,-410.346C264.536,-397.2 298.345,-374.89 330,-361 335.14,-358.745 340.604,-356.665 346.121,-354.767"/>
<polygon fill="midnightblue" stroke="midnightblue" points="347.613,-357.963 356.048,-351.552 345.456,-351.304 347.613,-357.963"/>
</g>
<!-- Node7&#45;&gt;Node21 -->
<g id="edge42" class="edge"><title>Node7&#45;&gt;Node21</title>
<path fill="none" stroke="midnightblue" d="M235.471,-410.377C247.037,-384.21 280.529,-316.221 330,-281 332.692,-279.083 335.567,-277.349 338.557,-275.78"/>
<polygon fill="midnightblue" stroke="midnightblue" points="340.167,-278.892 347.806,-271.551 337.256,-272.526 340.167,-278.892"/>
</g>
<!-- Node22 -->
<g id="node44" class="node"><title>Node22</title>
<a xlink:href="classtetgenmesh.xhtml#adf5410985bba6ea50ce8f1efdfc97fde" target="_top" xlink:title="tetgenmesh::eprevself">
<polygon fill="none" stroke="black" points="342.5,-570.5 342.5,-591.5 455.5,-591.5 455.5,-570.5 342.5,-570.5"/>
<text text-anchor="middle" x="399" y="-578.5" font-family="Helvetica,sans-Serif" font-size="10.00">tetgenmesh::eprevself</text>
</a>
</g>
<!-- Node7&#45;&gt;Node22 -->
<g id="edge44" class="edge"><title>Node7&#45;&gt;Node22</title>
<path fill="none" stroke="midnightblue" d="M272.92,-431.556C280.731,-435.096 288.236,-439.79 294,-446 330.436,-485.252 291.729,-523.534 330,-561 331.471,-562.44 333.038,-563.777 334.684,-565.019"/>
<polygon fill="midnightblue" stroke="midnightblue" points="333.138,-568.178 343.482,-570.468 336.824,-562.227 333.138,-568.178"/>
</g>
<!-- Node7&#45;&gt;Node23 -->
<g id="edge46" class="edge"><title>Node7&#45;&gt;Node23</title>
<path fill="none" stroke="midnightblue" d="M233.777,-410.187C242.369,-378.945 271.53,-287.805 330,-241 332.087,-239.329 334.309,-237.798 336.628,-236.394"/>
<polygon fill="midnightblue" stroke="midnightblue" points="338.68,-239.275 345.974,-231.591 335.48,-233.049 338.68,-239.275"/>
</g>
<!-- Node16 -->
<g id="node32" class="node"><title>Node16</title>
<a xlink:href="predicates_8cxx.xhtml#ae16b246ccaad9f1d90f37590816c5fde" target="_top" xlink:title="orient3dadapt">
<polygon fill="none" stroke="black" points="508.5,-370.5 508.5,-391.5 583.5,-391.5 583.5,-370.5 508.5,-370.5"/>
<text text-anchor="middle" x="546" y="-378.5" font-family="Helvetica,sans-Serif" font-size="10.00">orient3dadapt</text>
</a>
</g>
<!-- Node15&#45;&gt;Node16 -->
<g id="edge32" class="edge"><title>Node15&#45;&gt;Node16</title>
<path fill="none" stroke="midnightblue" d="M424.605,-381C444.831,-381 473.626,-381 498.096,-381"/>
<polygon fill="midnightblue" stroke="midnightblue" points="498.281,-384.5 508.281,-381 498.281,-377.5 498.281,-384.5"/>
</g>
<!-- Node17 -->
<g id="node34" class="node"><title>Node17</title>
<a xlink:href="predicates_8cxx.xhtml#abdcdaa8948d9a2937154d9d67f67da8d" target="_top" xlink:title="scale_expansion_zeroelim">
<polygon fill="none" stroke="black" points="624.5,-416.5 624.5,-437.5 755.5,-437.5 755.5,-416.5 624.5,-416.5"/>
<text text-anchor="middle" x="690" y="-424.5" font-family="Helvetica,sans-Serif" font-size="10.00">scale_expansion_zeroelim</text>
</a>
</g>
<!-- Node16&#45;&gt;Node17 -->
<g id="edge34" class="edge"><title>Node16&#45;&gt;Node17</title>
<path fill="none" stroke="midnightblue" d="M577.06,-391.571C591.329,-396.372 608.493,-402.067 624,-407 630.669,-409.122 637.734,-411.317 644.665,-413.442"/>
<polygon fill="midnightblue" stroke="midnightblue" points="644.079,-416.922 654.665,-416.488 646.119,-410.226 644.079,-416.922"/>
</g>
<!-- Node18 -->
<g id="node36" class="node"><title>Node18</title>
<a xlink:href="predicates_8cxx.xhtml#a37646a7e0014e10c612e946bc95aeeea" target="_top" xlink:title="fast_expansion_sum\l_zeroelim">
<polygon fill="none" stroke="black" points="636.5,-364 636.5,-398 743.5,-398 743.5,-364 636.5,-364"/>
<text text-anchor="start" x="644.5" y="-385" font-family="Helvetica,sans-Serif" font-size="10.00">fast_expansion_sum</text>
<text text-anchor="middle" x="690" y="-372" font-family="Helvetica,sans-Serif" font-size="10.00">_zeroelim</text>
</a>
</g>
<!-- Node16&#45;&gt;Node18 -->
<g id="edge36" class="edge"><title>Node16&#45;&gt;Node18</title>
<path fill="none" stroke="midnightblue" d="M583.834,-381C596.776,-381 611.634,-381 626.056,-381"/>
<polygon fill="midnightblue" stroke="midnightblue" points="626.447,-384.5 636.447,-381 626.447,-377.5 626.447,-384.5"/>
</g>
<!-- Node19 -->
<g id="node38" class="node"><title>Node19</title>
<a xlink:href="predicates_8cxx.xhtml#a3487d9f90ea72da543d5d38b3dab1fbc" target="_top" xlink:title="estimate">
<polygon fill="none" stroke="black" points="663,-324.5 663,-345.5 717,-345.5 717,-324.5 663,-324.5"/>
<text text-anchor="middle" x="690" y="-332.5" font-family="Helvetica,sans-Serif" font-size="10.00">estimate</text>
</a>
</g>
<!-- Node16&#45;&gt;Node19 -->
<g id="edge38" class="edge"><title>Node16&#45;&gt;Node19</title>
<path fill="none" stroke="midnightblue" d="M577.06,-370.429C591.329,-365.628 608.493,-359.933 624,-355 633.484,-351.983 643.768,-348.817 653.332,-345.916"/>
<polygon fill="midnightblue" stroke="midnightblue" points="654.412,-349.246 662.974,-343.007 652.39,-342.544 654.412,-349.246"/>
</g>
<!-- Node25 -->
<g id="node52" class="node"><title>Node25</title>
<a xlink:href="classtetgenmesh.xhtml#ade805f03ec7ca1b4623c8148fb915278" target="_top" xlink:title="tetgenmesh::freememory">
<polygon fill="none" stroke="black" points="627.5,-149.5 627.5,-170.5 752.5,-170.5 752.5,-149.5 627.5,-149.5"/>
<text text-anchor="middle" x="690" y="-157.5" font-family="Helvetica,sans-Serif" font-size="10.00">tetgenmesh::freememory</text>
</a>
</g>
<!-- Node24&#45;&gt;Node25 -->
<g id="edge54" class="edge"><title>Node24&#45;&gt;Node25</title>
<path fill="none" stroke="midnightblue" d="M588.038,-160C597.253,-160 607.264,-160 617.294,-160"/>
<polygon fill="midnightblue" stroke="midnightblue" points="617.301,-163.5 627.301,-160 617.301,-156.5 617.301,-163.5"/>
</g>
<!-- Node28 -->
<g id="node59" class="node"><title>Node28</title>
<a xlink:href="classtetgenmesh_1_1memorypool.xhtml#a9631e38a788a91ae067a756232b515ab" target="_top" xlink:title="tetgenmesh::memorypool\l::alloc">
<polygon fill="none" stroke="black" points="335.5,-120 335.5,-154 462.5,-154 462.5,-120 335.5,-120"/>
<text text-anchor="start" x="343.5" y="-141" font-family="Helvetica,sans-Serif" font-size="10.00">tetgenmesh::memorypool</text>
<text text-anchor="middle" x="399" y="-128" font-family="Helvetica,sans-Serif" font-size="10.00">::alloc</text>
</a>
</g>
<!-- Node27&#45;&gt;Node28 -->
<g id="edge62" class="edge"><title>Node27&#45;&gt;Node28</title>
<path fill="none" stroke="midnightblue" d="M282.776,-139.075C296.12,-138.837 310.743,-138.576 324.978,-138.322"/>
<polygon fill="midnightblue" stroke="midnightblue" points="325.315,-141.816 335.251,-138.138 325.19,-134.818 325.315,-141.816"/>
</g>
<!-- Node29 -->
<g id="node62" class="node"><title>Node29</title>
<a xlink:href="classtetgenmesh.xhtml#a227c9c7b09ca3df6a528efb651b85822" target="_top" xlink:title="tetgenmesh::sencode2">
<polygon fill="none" stroke="black" points="341,-80.5 341,-101.5 457,-101.5 457,-80.5 341,-80.5"/>
<text text-anchor="middle" x="399" y="-88.5" font-family="Helvetica,sans-Serif" font-size="10.00">tetgenmesh::sencode2</text>
</a>
</g>
<!-- Node27&#45;&gt;Node29 -->
<g id="edge66" class="edge"><title>Node27&#45;&gt;Node29</title>
<path fill="none" stroke="midnightblue" d="M267.199,-129.37C285.94,-123.873 309.195,-117.063 330,-111 337.327,-108.865 345.093,-106.608 352.67,-104.409"/>
<polygon fill="midnightblue" stroke="midnightblue" points="353.839,-107.715 362.469,-101.568 351.89,-100.992 353.839,-107.715"/>
</g>
<!-- Node30 -->
<g id="node64" class="node"><title>Node30</title>
<a xlink:href="classtetgenmesh.xhtml#a2bc1e8e424ea557d033135dafcf165bb" target="_top" xlink:title="tetgenmesh::encode2">
<polygon fill="none" stroke="black" points="344,-40.5 344,-61.5 454,-61.5 454,-40.5 344,-40.5"/>
<text text-anchor="middle" x="399" y="-48.5" font-family="Helvetica,sans-Serif" font-size="10.00">tetgenmesh::encode2</text>
</a>
</g>
<!-- Node27&#45;&gt;Node30 -->
<g id="edge68" class="edge"><title>Node27&#45;&gt;Node30</title>
<path fill="none" stroke="midnightblue" d="M276.386,-129.445C282.614,-126.919 288.685,-123.813 294,-120 315.958,-104.248 307.845,-86.473 330,-71 332.847,-69.0116 335.891,-67.2191 339.056,-65.6035"/>
<polygon fill="midnightblue" stroke="midnightblue" points="340.528,-68.7792 348.229,-61.5027 337.671,-62.3886 340.528,-68.7792"/>
</g>
<!-- Node28&#45;&gt;Node24 -->
<g id="edge64" class="edge"><title>Node28&#45;&gt;Node24</title>
<path fill="none" stroke="midnightblue" d="M462.621,-146.954C473.097,-148.593 483.845,-150.275 493.993,-151.863"/>
<polygon fill="midnightblue" stroke="midnightblue" points="493.489,-155.326 503.91,-153.414 494.571,-148.411 493.489,-155.326"/>
</g>
<!-- Node33 -->
<g id="node71" class="node"><title>Node33</title>
<a xlink:href="classtetgenmesh.xhtml#ac5a50a5f6e277b5b95d58e40f3d58c2f" target="_top" xlink:title="tetgenmesh::sdecode">
<polygon fill="none" stroke="black" points="344,-0.5 344,-21.5 454,-21.5 454,-0.5 344,-0.5"/>
<text text-anchor="middle" x="399" y="-8.5" font-family="Helvetica,sans-Serif" font-size="10.00">tetgenmesh::sdecode</text>
</a>
</g>
<!-- Node32&#45;&gt;Node33 -->
<g id="edge76" class="edge"><title>Node32&#45;&gt;Node33</title>
<path fill="none" stroke="midnightblue" d="M282.776,-13.0754C298.824,-12.7889 316.722,-12.4693 333.57,-12.1684"/>
<polygon fill="midnightblue" stroke="midnightblue" points="333.963,-15.662 343.899,-11.984 333.838,-8.66315 333.963,-15.662"/>
</g>
</g>
</svg>
