<?xml version="1.0" encoding="UTF-8" standalone="no"?>
<!DOCTYPE svg PUBLIC "-//W3C//DTD SVG 1.1//EN"
 "http://www.w3.org/Graphics/SVG/1.1/DTD/svg11.dtd">
<!-- Generated by graphviz version 2.26.3 (20100126.1600)
 -->
<!-- Title: tetgenio::load_off Pages: 1 -->
<svg width="260pt" height="110pt"
 viewBox="0.00 0.00 260.00 110.00" xmlns="http://www.w3.org/2000/svg" xmlns:xlink="http://www.w3.org/1999/xlink">
<g id="graph1" class="graph" transform="scale(1 1) rotate(0) translate(4 106)">
<title>tetgenio::load_off</title>
<!-- Node1 -->
<g id="node1" class="node"><title>Node1</title>
<polygon fill="#bfbfbf" stroke="black" points="0,-40.5 0,-61.5 92,-61.5 92,-40.5 0,-40.5"/>
<text text-anchor="middle" x="46" y="-48.5" font-family="Helvetica,sans-Serif" font-size="10.00">tetgenio::load_off</text>
</g>
<!-- Node2 -->
<g id="node3" class="node"><title>Node2</title>
<a xlink:href="classtetgenio.xhtml#a085af1b2c889a6545f6aab67aad1ba43" target="_top" xlink:title="tetgenio::readline">
<polygon fill="none" stroke="black" points="144.5,-80.5 144.5,-101.5 235.5,-101.5 235.5,-80.5 144.5,-80.5"/>
<text text-anchor="middle" x="190" y="-88.5" font-family="Helvetica,sans-Serif" font-size="10.00">tetgenio::readline</text>
</a>
</g>
<!-- Node1&#45;&gt;Node2 -->
<g id="edge2" class="edge"><title>Node1&#45;&gt;Node2</title>
<path fill="none" stroke="midnightblue" d="M83.8343,-61.5095C101.716,-66.4768 123.259,-72.4607 142.252,-77.7365"/>
<polygon fill="midnightblue" stroke="midnightblue" points="141.346,-81.1176 151.918,-80.4218 143.22,-74.373 141.346,-81.1176"/>
</g>
<!-- Node3 -->
<g id="node5" class="node"><title>Node3</title>
<a xlink:href="classtetgenio.xhtml#a9a30e99d63fb2288525cdbda2b887c38" target="_top" xlink:title="tetgenio::findnextnumber">
<polygon fill="none" stroke="black" points="128,-40.5 128,-61.5 252,-61.5 252,-40.5 128,-40.5"/>
<text text-anchor="middle" x="190" y="-48.5" font-family="Helvetica,sans-Serif" font-size="10.00">tetgenio::findnextnumber</text>
</a>
</g>
<!-- Node1&#45;&gt;Node3 -->
<g id="edge4" class="edge"><title>Node1&#45;&gt;Node3</title>
<path fill="none" stroke="midnightblue" d="M92.3551,-51C100.51,-51 109.17,-51 117.833,-51"/>
<polygon fill="midnightblue" stroke="midnightblue" points="117.974,-54.5001 127.974,-51 117.974,-47.5001 117.974,-54.5001"/>
</g>
<!-- Node4 -->
<g id="node7" class="node"><title>Node4</title>
<a xlink:href="classtetgenio.xhtml#aca2fd0dcb29ee3cd313a74d55df2ff2c" target="_top" xlink:title="tetgenio::init">
<polygon fill="none" stroke="black" points="155,-0.5 155,-21.5 225,-21.5 225,-0.5 155,-0.5"/>
<text text-anchor="middle" x="190" y="-8.5" font-family="Helvetica,sans-Serif" font-size="10.00">tetgenio::init</text>
</a>
</g>
<!-- Node1&#45;&gt;Node4 -->
<g id="edge6" class="edge"><title>Node1&#45;&gt;Node4</title>
<path fill="none" stroke="midnightblue" d="M83.8343,-40.4905C102.654,-35.2628 125.527,-28.9091 145.217,-23.4398"/>
<polygon fill="midnightblue" stroke="midnightblue" points="146.19,-26.8019 154.889,-20.7531 144.317,-20.0573 146.19,-26.8019"/>
</g>
</g>
</svg>
