<?xml version="1.0" encoding="UTF-8" standalone="no"?>
<!DOCTYPE svg PUBLIC "-//W3C//DTD SVG 1.1//EN"
 "http://www.w3.org/Graphics/SVG/1.1/DTD/svg11.dtd">
<!-- Generated by graphviz version 2.26.3 (20100126.1600)
 -->
<!-- Title: tetgenmesh::farsdest Pages: 1 -->
<svg width="1172pt" height="134pt"
 viewBox="0.00 0.00 1172.00 134.00" xmlns="http://www.w3.org/2000/svg" xmlns:xlink="http://www.w3.org/1999/xlink">
<g id="graph1" class="graph" transform="scale(1 1) rotate(0) translate(4 130)">
<title>tetgenmesh::farsdest</title>
<!-- Node1 -->
<g id="node1" class="node"><title>Node1</title>
<polygon fill="#bfbfbf" stroke="black" points="0.5,-46.5 0.5,-67.5 109.5,-67.5 109.5,-46.5 0.5,-46.5"/>
<text text-anchor="middle" x="55" y="-54.5" font-family="Helvetica,sans-Serif" font-size="10.00">tetgenmesh::farsdest</text>
</g>
<!-- Node2 -->
<g id="node3" class="node"><title>Node2</title>
<a xlink:href="classtetgenmesh.xhtml#a9d878a0e64588b0471a58e534affea8e" target="_top" xlink:title="tetgenmesh::addsteiner4recoversegment">
<polygon fill="none" stroke="black" points="146,-66.5 146,-87.5 340,-87.5 340,-66.5 146,-66.5"/>
<text text-anchor="middle" x="243" y="-74.5" font-family="Helvetica,sans-Serif" font-size="10.00">tetgenmesh::addsteiner4recoversegment</text>
</a>
</g>
<!-- Node1&#45;&gt;Node2 -->
<g id="edge2" class="edge"><title>Node1&#45;&gt;Node2</title>
<path fill="none" stroke="midnightblue" d="M119.716,-63.8847C128.144,-64.7813 136.921,-65.715 145.736,-66.6528"/>
<polygon fill="midnightblue" stroke="midnightblue" points="119.944,-60.3893 109.63,-62.8117 119.204,-67.35 119.944,-60.3893"/>
</g>
<!-- Node12 -->
<g id="node23" class="node"><title>Node12</title>
<a xlink:href="classtetgenmesh.xhtml#a38c7fc92a1ced3f4885006837a83c2e6" target="_top" xlink:title="tetgenmesh::recoverfacebyflips">
<polygon fill="none" stroke="black" points="166.5,-26.5 166.5,-47.5 319.5,-47.5 319.5,-26.5 166.5,-26.5"/>
<text text-anchor="middle" x="243" y="-34.5" font-family="Helvetica,sans-Serif" font-size="10.00">tetgenmesh::recoverfacebyflips</text>
</a>
</g>
<!-- Node1&#45;&gt;Node12 -->
<g id="edge22" class="edge"><title>Node1&#45;&gt;Node12</title>
<path fill="none" stroke="midnightblue" d="M119.788,-50.1077C134.744,-48.5166 150.795,-46.809 166.207,-45.1694"/>
<polygon fill="midnightblue" stroke="midnightblue" points="119.204,-46.65 109.63,-51.1883 119.944,-53.6107 119.204,-46.65"/>
</g>
<!-- Node3 -->
<g id="node5" class="node"><title>Node3</title>
<a xlink:href="classtetgenmesh.xhtml#a50e12e269b11573e6e1b91347ad19b37" target="_top" xlink:title="tetgenmesh::recoversegments">
<polygon fill="none" stroke="black" points="376.5,-66.5 376.5,-87.5 525.5,-87.5 525.5,-66.5 376.5,-66.5"/>
<text text-anchor="middle" x="451" y="-74.5" font-family="Helvetica,sans-Serif" font-size="10.00">tetgenmesh::recoversegments</text>
</a>
</g>
<!-- Node2&#45;&gt;Node3 -->
<g id="edge4" class="edge"><title>Node2&#45;&gt;Node3</title>
<path fill="none" stroke="midnightblue" d="M350.574,-77C359.325,-77 368.042,-77 376.478,-77"/>
<polygon fill="midnightblue" stroke="midnightblue" points="350.301,-73.5001 340.301,-77 350.301,-80.5001 350.301,-73.5001"/>
</g>
<!-- Node4 -->
<g id="node7" class="node"><title>Node4</title>
<a xlink:href="classtetgenmesh.xhtml#a1be7dce56688fbe7a97fc31f98b61c19" target="_top" xlink:title="tetgenmesh::recoverboundary">
<polygon fill="none" stroke="black" points="562,-46.5 562,-67.5 708,-67.5 708,-46.5 562,-46.5"/>
<text text-anchor="middle" x="635" y="-54.5" font-family="Helvetica,sans-Serif" font-size="10.00">tetgenmesh::recoverboundary</text>
</a>
</g>
<!-- Node3&#45;&gt;Node4 -->
<g id="edge6" class="edge"><title>Node3&#45;&gt;Node4</title>
<path fill="none" stroke="midnightblue" d="M535.739,-67.7893C544.447,-66.8427 553.243,-65.8866 561.812,-64.9553"/>
<polygon fill="midnightblue" stroke="midnightblue" points="535.138,-64.3339 525.575,-68.8941 535.894,-71.2929 535.138,-64.3339"/>
</g>
<!-- Node5 -->
<g id="node9" class="node"><title>Node5</title>
<a xlink:href="tetgen_8h.xhtml#ad3637eb4ffe7fda90667e67b7771d964" target="_top" xlink:title="tetrahedralize">
<polygon fill="none" stroke="black" points="744.5,-46.5 744.5,-67.5 819.5,-67.5 819.5,-46.5 744.5,-46.5"/>
<text text-anchor="middle" x="782" y="-54.5" font-family="Helvetica,sans-Serif" font-size="10.00">tetrahedralize</text>
</a>
</g>
<!-- Node4&#45;&gt;Node5 -->
<g id="edge8" class="edge"><title>Node4&#45;&gt;Node5</title>
<path fill="none" stroke="midnightblue" d="M718.328,-57C727.365,-57 736.2,-57 744.274,-57"/>
<polygon fill="midnightblue" stroke="midnightblue" points="718.069,-53.5001 708.069,-57 718.069,-60.5001 718.069,-53.5001"/>
</g>
<!-- Node6 -->
<g id="node11" class="node"><title>Node6</title>
<a xlink:href="classGUICutRenderWindow.xhtml#a9eedb7088ad31f4680a77ed3a06fa60c" target="_top" xlink:title="Berechnet die 2D&#45;Temperaturverteilung als Grafik. ">
<polygon fill="none" stroke="black" points="858.5,-89 858.5,-123 975.5,-123 975.5,-89 858.5,-89"/>
<text text-anchor="start" x="866.5" y="-110" font-family="Helvetica,sans-Serif" font-size="10.00">GUICutRenderWindow</text>
<text text-anchor="middle" x="917" y="-97" font-family="Helvetica,sans-Serif" font-size="10.00">::renderImage</text>
</a>
</g>
<!-- Node5&#45;&gt;Node6 -->
<g id="edge10" class="edge"><title>Node5&#45;&gt;Node6</title>
<path fill="none" stroke="midnightblue" d="M820.675,-71.0375C836.063,-76.6228 853.912,-83.1014 870.034,-88.953"/>
<polygon fill="midnightblue" stroke="midnightblue" points="821.555,-67.6336 810.961,-67.5117 819.167,-74.2136 821.555,-67.6336"/>
</g>
<!-- Node8 -->
<g id="node15" class="node"><title>Node8</title>
<a xlink:href="classObjectData.xhtml#af3a850833d08eb9b45357449f455e24d" target="_top" xlink:title="Zerlegt das Objekt in Tetraeder (Schnittstelle zur Tetgen&#45;Bibliothek) und Berechnet die Temperaturver...">
<polygon fill="none" stroke="black" points="856,-46.5 856,-67.5 978,-67.5 978,-46.5 856,-46.5"/>
<text text-anchor="middle" x="917" y="-54.5" font-family="Helvetica,sans-Serif" font-size="10.00">ObjectData::calculateIO</text>
</a>
</g>
<!-- Node5&#45;&gt;Node8 -->
<g id="edge14" class="edge"><title>Node5&#45;&gt;Node8</title>
<path fill="none" stroke="midnightblue" d="M829.654,-57C838.112,-57 847.025,-57 855.795,-57"/>
<polygon fill="midnightblue" stroke="midnightblue" points="829.605,-53.5001 819.605,-57 829.605,-60.5001 829.605,-53.5001"/>
</g>
<!-- Node11 -->
<g id="node21" class="node"><title>Node11</title>
<a xlink:href="tetgen_8cxx.xhtml#a0ddf1224851353fc92bfbff6f499fa97" target="_top" xlink:title="main">
<polygon fill="none" stroke="black" points="898,-6.5 898,-27.5 936,-27.5 936,-6.5 898,-6.5"/>
<text text-anchor="middle" x="917" y="-14.5" font-family="Helvetica,sans-Serif" font-size="10.00">main</text>
</a>
</g>
<!-- Node5&#45;&gt;Node11 -->
<g id="edge20" class="edge"><title>Node5&#45;&gt;Node11</title>
<path fill="none" stroke="midnightblue" d="M827.154,-43.6209C851.267,-36.4764 879.668,-28.0613 897.984,-22.6343"/>
<polygon fill="midnightblue" stroke="midnightblue" points="826.063,-40.2937 817.47,-46.4905 828.052,-47.0053 826.063,-40.2937"/>
</g>
<!-- Node7 -->
<g id="node13" class="node"><title>Node7</title>
<a xlink:href="classGUICutRenderWindow.xhtml#a7cd1bfbec53756a1cbbe1616b4d46c7a" target="_top" xlink:title="Behandelt das Drücken des Buttons zur Berechnung der zweidimensionalen Temperaturverteilung. ">
<polygon fill="none" stroke="black" points="1030.5,-92 1030.5,-126 1147.5,-126 1147.5,-92 1030.5,-92"/>
<text text-anchor="start" x="1038.5" y="-113" font-family="Helvetica,sans-Serif" font-size="10.00">GUICutRenderWindow</text>
<text text-anchor="middle" x="1089" y="-100" font-family="Helvetica,sans-Serif" font-size="10.00">::renderCutBtClick</text>
</a>
</g>
<!-- Node6&#45;&gt;Node7 -->
<g id="edge12" class="edge"><title>Node6&#45;&gt;Node7</title>
<path fill="none" stroke="midnightblue" d="M985.777,-107.2C1000.51,-107.457 1015.95,-107.726 1030.26,-107.975"/>
<polygon fill="midnightblue" stroke="midnightblue" points="985.771,-103.699 975.712,-107.024 985.649,-110.698 985.771,-103.699"/>
</g>
<!-- Node9 -->
<g id="node17" class="node"><title>Node9</title>
<a xlink:href="classGUIMainWindow.xhtml#a0c2de30274c7f52ff74ec1217e47a9e5" target="_top" xlink:title="Berechnet die 3D&#45;Temperaturverteilung neu. ">
<polygon fill="none" stroke="black" points="1014,-40 1014,-74 1164,-74 1164,-40 1014,-40"/>
<text text-anchor="start" x="1022" y="-61" font-family="Helvetica,sans-Serif" font-size="10.00">GUIMainWindow::OnRecalcBt</text>
<text text-anchor="middle" x="1089" y="-48" font-family="Helvetica,sans-Serif" font-size="10.00">Click</text>
</a>
</g>
<!-- Node8&#45;&gt;Node9 -->
<g id="edge16" class="edge"><title>Node8&#45;&gt;Node9</title>
<path fill="none" stroke="midnightblue" d="M988.316,-57C996.768,-57 1005.42,-57 1013.92,-57"/>
<polygon fill="midnightblue" stroke="midnightblue" points="988.125,-53.5001 978.125,-57 988.125,-60.5001 988.125,-53.5001"/>
</g>
<!-- Node10 -->
<g id="node19" class="node"><title>Node10</title>
<a xlink:href="classGUITimeline.xhtml#a099f3654aa6e7ea04df861851a0e9ec8" target="_top" xlink:title="Sucht den Zeitpunkt zwischen zwei markierten Stellen auf der Sensordaten&#45;Zeitleiste, für den der Wäremeenergiegehalt maximal wird. ">
<polygon fill="none" stroke="black" points="1020.5,-0.5 1020.5,-21.5 1157.5,-21.5 1157.5,-0.5 1020.5,-0.5"/>
<text text-anchor="middle" x="1089" y="-8.5" font-family="Helvetica,sans-Serif" font-size="10.00">GUITimeline::findMaxValue</text>
</a>
</g>
<!-- Node8&#45;&gt;Node10 -->
<g id="edge18" class="edge"><title>Node8&#45;&gt;Node10</title>
<path fill="none" stroke="midnightblue" d="M965.997,-43.8537C981.363,-39.7343 998.387,-35.1741 1014,-31 1025.46,-27.9371 1037.9,-24.6167 1049.3,-21.5777"/>
<polygon fill="midnightblue" stroke="midnightblue" points="964.923,-40.5181 956.17,-46.4885 966.735,-47.2793 964.923,-40.5181"/>
</g>
<!-- Node13 -->
<g id="node25" class="node"><title>Node13</title>
<a xlink:href="classtetgenmesh.xhtml#ace09080e4f274e0a48cd1728475878c9" target="_top" xlink:title="tetgenmesh::recoversubfaces">
<polygon fill="none" stroke="black" points="378,-26.5 378,-47.5 524,-47.5 524,-26.5 378,-26.5"/>
<text text-anchor="middle" x="451" y="-34.5" font-family="Helvetica,sans-Serif" font-size="10.00">tetgenmesh::recoversubfaces</text>
</a>
</g>
<!-- Node12&#45;&gt;Node13 -->
<g id="edge24" class="edge"><title>Node12&#45;&gt;Node13</title>
<path fill="none" stroke="midnightblue" d="M329.917,-37C345.814,-37 362.259,-37 377.71,-37"/>
<polygon fill="midnightblue" stroke="midnightblue" points="329.565,-33.5001 319.565,-37 329.565,-40.5001 329.565,-33.5001"/>
</g>
<!-- Node13&#45;&gt;Node4 -->
<g id="edge26" class="edge"><title>Node13&#45;&gt;Node4</title>
<path fill="none" stroke="midnightblue" d="M534.448,-46.0705C543.54,-47.0587 552.744,-48.0591 561.701,-49.0327"/>
<polygon fill="midnightblue" stroke="midnightblue" points="534.57,-42.5632 524.25,-44.962 533.814,-49.5222 534.57,-42.5632"/>
</g>
</g>
</svg>
