<?xml version="1.0" encoding="UTF-8" standalone="no"?>
<!DOCTYPE svg PUBLIC "-//W3C//DTD SVG 1.1//EN"
 "http://www.w3.org/Graphics/SVG/1.1/DTD/svg11.dtd">
<!-- Generated by graphviz version 2.26.3 (20100126.1600)
 -->
<!-- Title: tetgenmesh::getsteinerptonsegment Pages: 1 -->
<svg width="474pt" height="310pt"
 viewBox="0.00 0.00 474.00 310.00" xmlns="http://www.w3.org/2000/svg" xmlns:xlink="http://www.w3.org/1999/xlink">
<g id="graph1" class="graph" transform="scale(1 1) rotate(0) translate(4 306)">
<title>tetgenmesh::getsteinerptonsegment</title>
<!-- Node1 -->
<g id="node1" class="node"><title>Node1</title>
<polygon fill="#bfbfbf" stroke="black" points="0.5,-140.5 0.5,-161.5 173.5,-161.5 173.5,-140.5 0.5,-140.5"/>
<text text-anchor="middle" x="87" y="-148.5" font-family="Helvetica,sans-Serif" font-size="10.00">tetgenmesh::getsteinerptonsegment</text>
</g>
<!-- Node2 -->
<g id="node3" class="node"><title>Node2</title>
<a xlink:href="classtetgenmesh.xhtml#a55db9a054b722d91a17b82d442f88f4c" target="_top" xlink:title="tetgenmesh::sorg">
<polygon fill="none" stroke="black" points="230,-280.5 230,-301.5 322,-301.5 322,-280.5 230,-280.5"/>
<text text-anchor="middle" x="276" y="-288.5" font-family="Helvetica,sans-Serif" font-size="10.00">tetgenmesh::sorg</text>
</a>
</g>
<!-- Node1&#45;&gt;Node2 -->
<g id="edge2" class="edge"><title>Node1&#45;&gt;Node2</title>
<path fill="none" stroke="midnightblue" d="M94.976,-161.707C112.914,-185.04 158.886,-240.801 210,-271 213.595,-273.124 217.435,-275.04 221.387,-276.767"/>
<polygon fill="midnightblue" stroke="midnightblue" points="220.162,-280.046 230.749,-280.456 222.729,-273.533 220.162,-280.046"/>
</g>
<!-- Node3 -->
<g id="node5" class="node"><title>Node3</title>
<a xlink:href="classtetgenmesh.xhtml#aa6017928ea3dc0b8ba39e7f24ea312b2" target="_top" xlink:title="tetgenmesh::sdest">
<polygon fill="none" stroke="black" points="227,-240.5 227,-261.5 325,-261.5 325,-240.5 227,-240.5"/>
<text text-anchor="middle" x="276" y="-248.5" font-family="Helvetica,sans-Serif" font-size="10.00">tetgenmesh::sdest</text>
</a>
</g>
<!-- Node1&#45;&gt;Node3 -->
<g id="edge4" class="edge"><title>Node1&#45;&gt;Node3</title>
<path fill="none" stroke="midnightblue" d="M100.631,-161.733C122.553,-178.551 167.503,-211.229 210,-231 214.885,-233.273 220.092,-235.364 225.357,-237.268"/>
<polygon fill="midnightblue" stroke="midnightblue" points="224.244,-240.587 234.839,-240.492 226.497,-233.959 224.244,-240.587"/>
</g>
<!-- Node4 -->
<g id="node7" class="node"><title>Node4</title>
<a xlink:href="classtetgenmesh.xhtml#a87204594ee11bb38e68e0381e6e04b6c" target="_top" xlink:title="tetgenmesh::pointtype">
<polygon fill="none" stroke="black" points="219.5,-200.5 219.5,-221.5 332.5,-221.5 332.5,-200.5 219.5,-200.5"/>
<text text-anchor="middle" x="276" y="-208.5" font-family="Helvetica,sans-Serif" font-size="10.00">tetgenmesh::pointtype</text>
</a>
</g>
<!-- Node1&#45;&gt;Node4 -->
<g id="edge6" class="edge"><title>Node1&#45;&gt;Node4</title>
<path fill="none" stroke="midnightblue" d="M118.8,-161.536C143.602,-169.707 178.936,-181.244 210,-191 216.677,-193.097 223.746,-195.279 230.679,-197.398"/>
<polygon fill="midnightblue" stroke="midnightblue" points="230.094,-200.878 240.68,-200.44 232.131,-194.181 230.094,-200.878"/>
</g>
<!-- Node5 -->
<g id="node9" class="node"><title>Node5</title>
<a xlink:href="classtetgenmesh.xhtml#ac5a50a5f6e277b5b95d58e40f3d58c2f" target="_top" xlink:title="tetgenmesh::sdecode">
<polygon fill="none" stroke="black" points="221,-160.5 221,-181.5 331,-181.5 331,-160.5 221,-160.5"/>
<text text-anchor="middle" x="276" y="-168.5" font-family="Helvetica,sans-Serif" font-size="10.00">tetgenmesh::sdecode</text>
</a>
</g>
<!-- Node1&#45;&gt;Node5 -->
<g id="edge8" class="edge"><title>Node1&#45;&gt;Node5</title>
<path fill="none" stroke="midnightblue" d="M173.756,-160.181C186.14,-161.491 198.703,-162.82 210.585,-164.078"/>
<polygon fill="midnightblue" stroke="midnightblue" points="210.518,-167.59 220.831,-165.162 211.255,-160.629 210.518,-167.59"/>
</g>
<!-- Node6 -->
<g id="node11" class="node"><title>Node6</title>
<a xlink:href="classtetgenmesh.xhtml#a71c1fce651aaffe6e7db6c1f64f7f67d" target="_top" xlink:title="tetgenmesh::point2sh">
<polygon fill="none" stroke="black" points="221,-120.5 221,-141.5 331,-141.5 331,-120.5 221,-120.5"/>
<text text-anchor="middle" x="276" y="-128.5" font-family="Helvetica,sans-Serif" font-size="10.00">tetgenmesh::point2sh</text>
</a>
</g>
<!-- Node1&#45;&gt;Node6 -->
<g id="edge10" class="edge"><title>Node1&#45;&gt;Node6</title>
<path fill="none" stroke="midnightblue" d="M173.756,-141.819C186.14,-140.509 198.703,-139.18 210.585,-137.922"/>
<polygon fill="midnightblue" stroke="midnightblue" points="211.255,-141.371 220.831,-136.838 210.518,-134.41 211.255,-141.371"/>
</g>
<!-- Node7 -->
<g id="node13" class="node"><title>Node7</title>
<a xlink:href="classtetgenmesh.xhtml#ab4b3f98e52ac862ab3c619708c5bc07d" target="_top" xlink:title="tetgenmesh::getfacetindex">
<polygon fill="none" stroke="black" points="210,-80.5 210,-101.5 342,-101.5 342,-80.5 210,-80.5"/>
<text text-anchor="middle" x="276" y="-88.5" font-family="Helvetica,sans-Serif" font-size="10.00">tetgenmesh::getfacetindex</text>
</a>
</g>
<!-- Node1&#45;&gt;Node7 -->
<g id="edge12" class="edge"><title>Node1&#45;&gt;Node7</title>
<path fill="none" stroke="midnightblue" d="M118.8,-140.464C143.602,-132.293 178.936,-120.756 210,-111 216.677,-108.903 223.746,-106.721 230.679,-104.602"/>
<polygon fill="midnightblue" stroke="midnightblue" points="232.131,-107.819 240.68,-101.56 230.094,-101.122 232.131,-107.819"/>
</g>
<!-- Node8 -->
<g id="node15" class="node"><title>Node8</title>
<a xlink:href="classtetgenmesh.xhtml#a4f2849235299c81ad7d585dc0b657d80" target="_top" xlink:title="tetgenmesh::distance">
<polygon fill="none" stroke="black" points="221,-40.5 221,-61.5 331,-61.5 331,-40.5 221,-40.5"/>
<text text-anchor="middle" x="276" y="-48.5" font-family="Helvetica,sans-Serif" font-size="10.00">tetgenmesh::distance</text>
</a>
</g>
<!-- Node1&#45;&gt;Node8 -->
<g id="edge14" class="edge"><title>Node1&#45;&gt;Node8</title>
<path fill="none" stroke="midnightblue" d="M100.631,-140.267C122.553,-123.449 167.503,-90.7711 210,-71 214.885,-68.7273 220.092,-66.6357 225.357,-64.7316"/>
<polygon fill="midnightblue" stroke="midnightblue" points="226.497,-68.0407 234.839,-61.5083 224.244,-61.4131 226.497,-68.0407"/>
</g>
<!-- Node9 -->
<g id="node17" class="node"><title>Node9</title>
<a xlink:href="classtetgenmesh.xhtml#ac22152fa0a43b549ae37cadff0e8c56f" target="_top" xlink:title="tetgenmesh::projpt2edge">
<polygon fill="none" stroke="black" points="214,-0.5 214,-21.5 338,-21.5 338,-0.5 214,-0.5"/>
<text text-anchor="middle" x="276" y="-8.5" font-family="Helvetica,sans-Serif" font-size="10.00">tetgenmesh::projpt2edge</text>
</a>
</g>
<!-- Node1&#45;&gt;Node9 -->
<g id="edge16" class="edge"><title>Node1&#45;&gt;Node9</title>
<path fill="none" stroke="midnightblue" d="M94.976,-140.293C112.914,-116.96 158.886,-61.1991 210,-31 213.595,-28.876 217.435,-26.9596 221.387,-25.2335"/>
<polygon fill="midnightblue" stroke="midnightblue" points="222.729,-28.4667 230.749,-21.5435 220.162,-21.9544 222.729,-28.4667"/>
</g>
<!-- Node10 -->
<g id="node19" class="node"><title>Node10</title>
<a xlink:href="classtetgenmesh.xhtml#afa0906703b590597155547336c360004" target="_top" xlink:title="tetgenmesh::dot">
<polygon fill="none" stroke="black" points="378.5,-0.5 378.5,-21.5 465.5,-21.5 465.5,-0.5 378.5,-0.5"/>
<text text-anchor="middle" x="422" y="-8.5" font-family="Helvetica,sans-Serif" font-size="10.00">tetgenmesh::dot</text>
</a>
</g>
<!-- Node9&#45;&gt;Node10 -->
<g id="edge18" class="edge"><title>Node9&#45;&gt;Node10</title>
<path fill="none" stroke="midnightblue" d="M338.341,-11C348.244,-11 358.415,-11 368.104,-11"/>
<polygon fill="midnightblue" stroke="midnightblue" points="368.391,-14.5001 378.391,-11 368.391,-7.5001 368.391,-14.5001"/>
</g>
</g>
</svg>
