<?xml version="1.0" encoding="UTF-8" standalone="no"?>
<!DOCTYPE svg PUBLIC "-//W3C//DTD SVG 1.1//EN"
 "http://www.w3.org/Graphics/SVG/1.1/DTD/svg11.dtd">
<!-- Generated by graphviz version 2.26.3 (20100126.1600)
 -->
<!-- Title: tetgenmesh::recoverdelaunay Pages: 1 -->
<svg width="610pt" height="134pt"
 viewBox="0.00 0.00 610.00 134.00" xmlns="http://www.w3.org/2000/svg" xmlns:xlink="http://www.w3.org/1999/xlink">
<g id="graph1" class="graph" transform="scale(1 1) rotate(0) translate(4 130)">
<title>tetgenmesh::recoverdelaunay</title>
<!-- Node1 -->
<g id="node1" class="node"><title>Node1</title>
<polygon fill="#bfbfbf" stroke="black" points="0.5,-46.5 0.5,-67.5 145.5,-67.5 145.5,-46.5 0.5,-46.5"/>
<text text-anchor="middle" x="73" y="-54.5" font-family="Helvetica,sans-Serif" font-size="10.00">tetgenmesh::recoverdelaunay</text>
</g>
<!-- Node2 -->
<g id="node3" class="node"><title>Node2</title>
<a xlink:href="tetgen_8h.xhtml#ad3637eb4ffe7fda90667e67b7771d964" target="_top" xlink:title="tetrahedralize">
<polygon fill="none" stroke="black" points="182.5,-46.5 182.5,-67.5 257.5,-67.5 257.5,-46.5 182.5,-46.5"/>
<text text-anchor="middle" x="220" y="-54.5" font-family="Helvetica,sans-Serif" font-size="10.00">tetrahedralize</text>
</a>
</g>
<!-- Node1&#45;&gt;Node2 -->
<g id="edge2" class="edge"><title>Node1&#45;&gt;Node2</title>
<path fill="none" stroke="midnightblue" d="M155.762,-57C165.046,-57 174.129,-57 182.406,-57"/>
<polygon fill="midnightblue" stroke="midnightblue" points="155.639,-53.5001 145.639,-57 155.639,-60.5001 155.639,-53.5001"/>
</g>
<!-- Node3 -->
<g id="node5" class="node"><title>Node3</title>
<a xlink:href="classGUICutRenderWindow.xhtml#a9eedb7088ad31f4680a77ed3a06fa60c" target="_top" xlink:title="Berechnet die 2D&#45;Temperaturverteilung als Grafik. ">
<polygon fill="none" stroke="black" points="296.5,-89 296.5,-123 413.5,-123 413.5,-89 296.5,-89"/>
<text text-anchor="start" x="304.5" y="-110" font-family="Helvetica,sans-Serif" font-size="10.00">GUICutRenderWindow</text>
<text text-anchor="middle" x="355" y="-97" font-family="Helvetica,sans-Serif" font-size="10.00">::renderImage</text>
</a>
</g>
<!-- Node2&#45;&gt;Node3 -->
<g id="edge4" class="edge"><title>Node2&#45;&gt;Node3</title>
<path fill="none" stroke="midnightblue" d="M258.675,-71.0375C274.063,-76.6228 291.912,-83.1014 308.034,-88.953"/>
<polygon fill="midnightblue" stroke="midnightblue" points="259.555,-67.6336 248.961,-67.5117 257.167,-74.2136 259.555,-67.6336"/>
</g>
<!-- Node5 -->
<g id="node9" class="node"><title>Node5</title>
<a xlink:href="classObjectData.xhtml#af3a850833d08eb9b45357449f455e24d" target="_top" xlink:title="Zerlegt das Objekt in Tetraeder (Schnittstelle zur Tetgen&#45;Bibliothek) und Berechnet die Temperaturver...">
<polygon fill="none" stroke="black" points="294,-46.5 294,-67.5 416,-67.5 416,-46.5 294,-46.5"/>
<text text-anchor="middle" x="355" y="-54.5" font-family="Helvetica,sans-Serif" font-size="10.00">ObjectData::calculateIO</text>
</a>
</g>
<!-- Node2&#45;&gt;Node5 -->
<g id="edge8" class="edge"><title>Node2&#45;&gt;Node5</title>
<path fill="none" stroke="midnightblue" d="M267.654,-57C276.112,-57 285.025,-57 293.795,-57"/>
<polygon fill="midnightblue" stroke="midnightblue" points="267.605,-53.5001 257.605,-57 267.605,-60.5001 267.605,-53.5001"/>
</g>
<!-- Node8 -->
<g id="node15" class="node"><title>Node8</title>
<a xlink:href="tetgen_8cxx.xhtml#a0ddf1224851353fc92bfbff6f499fa97" target="_top" xlink:title="main">
<polygon fill="none" stroke="black" points="336,-6.5 336,-27.5 374,-27.5 374,-6.5 336,-6.5"/>
<text text-anchor="middle" x="355" y="-14.5" font-family="Helvetica,sans-Serif" font-size="10.00">main</text>
</a>
</g>
<!-- Node2&#45;&gt;Node8 -->
<g id="edge14" class="edge"><title>Node2&#45;&gt;Node8</title>
<path fill="none" stroke="midnightblue" d="M265.154,-43.6209C289.267,-36.4764 317.668,-28.0613 335.984,-22.6343"/>
<polygon fill="midnightblue" stroke="midnightblue" points="264.063,-40.2937 255.47,-46.4905 266.052,-47.0053 264.063,-40.2937"/>
</g>
<!-- Node4 -->
<g id="node7" class="node"><title>Node4</title>
<a xlink:href="classGUICutRenderWindow.xhtml#a7cd1bfbec53756a1cbbe1616b4d46c7a" target="_top" xlink:title="Behandelt das Drücken des Buttons zur Berechnung der zweidimensionalen Temperaturverteilung. ">
<polygon fill="none" stroke="black" points="468.5,-92 468.5,-126 585.5,-126 585.5,-92 468.5,-92"/>
<text text-anchor="start" x="476.5" y="-113" font-family="Helvetica,sans-Serif" font-size="10.00">GUICutRenderWindow</text>
<text text-anchor="middle" x="527" y="-100" font-family="Helvetica,sans-Serif" font-size="10.00">::renderCutBtClick</text>
</a>
</g>
<!-- Node3&#45;&gt;Node4 -->
<g id="edge6" class="edge"><title>Node3&#45;&gt;Node4</title>
<path fill="none" stroke="midnightblue" d="M423.777,-107.2C438.511,-107.457 453.948,-107.726 468.261,-107.975"/>
<polygon fill="midnightblue" stroke="midnightblue" points="423.771,-103.699 413.712,-107.024 423.649,-110.698 423.771,-103.699"/>
</g>
<!-- Node6 -->
<g id="node11" class="node"><title>Node6</title>
<a xlink:href="classGUIMainWindow.xhtml#a0c2de30274c7f52ff74ec1217e47a9e5" target="_top" xlink:title="Berechnet die 3D&#45;Temperaturverteilung neu. ">
<polygon fill="none" stroke="black" points="452,-40 452,-74 602,-74 602,-40 452,-40"/>
<text text-anchor="start" x="460" y="-61" font-family="Helvetica,sans-Serif" font-size="10.00">GUIMainWindow::OnRecalcBt</text>
<text text-anchor="middle" x="527" y="-48" font-family="Helvetica,sans-Serif" font-size="10.00">Click</text>
</a>
</g>
<!-- Node5&#45;&gt;Node6 -->
<g id="edge10" class="edge"><title>Node5&#45;&gt;Node6</title>
<path fill="none" stroke="midnightblue" d="M426.316,-57C434.768,-57 443.415,-57 451.918,-57"/>
<polygon fill="midnightblue" stroke="midnightblue" points="426.125,-53.5001 416.125,-57 426.125,-60.5001 426.125,-53.5001"/>
</g>
<!-- Node7 -->
<g id="node13" class="node"><title>Node7</title>
<a xlink:href="classGUITimeline.xhtml#a099f3654aa6e7ea04df861851a0e9ec8" target="_top" xlink:title="Sucht den Zeitpunkt zwischen zwei markierten Stellen auf der Sensordaten&#45;Zeitleiste, für den der Wäremeenergiegehalt maximal wird. ">
<polygon fill="none" stroke="black" points="458.5,-0.5 458.5,-21.5 595.5,-21.5 595.5,-0.5 458.5,-0.5"/>
<text text-anchor="middle" x="527" y="-8.5" font-family="Helvetica,sans-Serif" font-size="10.00">GUITimeline::findMaxValue</text>
</a>
</g>
<!-- Node5&#45;&gt;Node7 -->
<g id="edge12" class="edge"><title>Node5&#45;&gt;Node7</title>
<path fill="none" stroke="midnightblue" d="M403.997,-43.8537C419.363,-39.7343 436.387,-35.1741 452,-31 463.456,-27.9371 475.899,-24.6167 487.296,-21.5777"/>
<polygon fill="midnightblue" stroke="midnightblue" points="402.923,-40.5181 394.17,-46.4885 404.735,-47.2793 402.923,-40.5181"/>
</g>
</g>
</svg>
