<?xml version="1.0" encoding="UTF-8" standalone="no"?>
<!DOCTYPE svg PUBLIC "-//W3C//DTD SVG 1.1//EN"
 "http://www.w3.org/Graphics/SVG/1.1/DTD/svg11.dtd">
<!-- Generated by graphviz version 2.26.3 (20100126.1600)
 -->
<!-- Title: GUIAnalyzePointWindow::analyzePoint Pages: 1 -->
<!--zoomable 1009 -->
<svg id="main" version="1.1" xmlns="http://www.w3.org/2000/svg" xmlns:xlink="http://www.w3.org/1999/xlink" xml:space="preserve" onload="init(evt)">
<style type="text/css"><![CDATA[
.edge:hover path { stroke: red; }
.edge:hover polygon { stroke: red; fill: red; }
]]></style>
<script type="text/javascript"><![CDATA[
var edges = document.getElementsByTagName('g');
if (edges && edges.length) {
  for (var i=0;i<edges.length;i++) {
    if (edges[i].id.substr(0,4)=='edge') {
      edges[i].setAttribute('class','edge');
    }
  }
}
]]></script>
        <defs>
                <circle id="rim" cx="0" cy="0" r="7"/>
                <circle id="rim2" cx="0" cy="0" r="3.5"/>
                <g id="zoomPlus">
                        <use xlink:href="#rim" fill="#404040">
                                <set attributeName="fill" to="#808080" begin="zoomplus.mouseover" end="zoomplus.mouseout"/>
                        </use>
                        <path d="M-4,0h8M0,-4v8" fill="none" stroke="white" stroke-width="1.5" pointer-events="none"/>
                </g>
                <g id="zoomMin">
                        <use xlink:href="#rim" fill="#404040">
                                <set attributeName="fill" to="#808080" begin="zoomminus.mouseover" end="zoomminus.mouseout"/>
                        </use>
                        <path d="M-4,0h8" fill="none" stroke="white" stroke-width="1.5" pointer-events="none"/>
                </g>
                <g id="dirArrow">
                        <path fill="none" stroke="white" stroke-width="1.5" d="M0,-3.0v7 M-2.5,-0.5L0,-3.0L2.5,-0.5"/>
                </g>
               <g id="resetDef">
                       <use xlink:href="#rim2" fill="#404040">
                               <set attributeName="fill" to="#808080" begin="reset.mouseover" end="reset.mouseout"/>
                       </use>
               </g>
        </defs>

<script type="text/javascript">
var viewWidth = 1110;
var viewHeight = 1009;
var sectionId = 'dynsection-2';
</script>
<script xlink:href="svgpan.js"/>
<svg id="graph" class="graph">
<g id="viewport">
<title>GUIAnalyzePointWindow::analyzePoint</title>
<!-- Node1 -->
<g id="node1" class="node"><title>Node1</title>
<polygon fill="#bfbfbf" stroke="black" points="0,-297 0,-331 128,-331 128,-297 0,-297"/>
<text text-anchor="start" x="8" y="-318" font-family="Helvetica,sans-Serif" font-size="10.00">GUIAnalyzePointWindow</text>
<text text-anchor="middle" x="64" y="-305" font-family="Helvetica,sans-Serif" font-size="10.00">::analyzePoint</text>
</g>
<!-- Node2 -->
<g id="node3" class="node"><title>Node2</title>
<a xlink:href="classInterpolator.xhtml#a2f9927fc580de7d2f94d85e6ca3ee3e3" target="_top" xlink:title="Setzt den verwendeten Interpolationsmodus (die Interpolationsfunktion). ">
<polygon fill="none" stroke="black" points="168.5,-979.5 168.5,-1000.5 277.5,-1000.5 277.5,-979.5 168.5,-979.5"/>
<text text-anchor="middle" x="223" y="-987.5" font-family="Helvetica,sans-Serif" font-size="10.00">Interpolator::setMode</text>
</a>
</g>
<!-- Node1&#45;&gt;Node2 -->
<g id="edge2" class="edge"><title>Node1&#45;&gt;Node2</title>
<path fill="none" stroke="midnightblue" d="M64.4281,-331.05C67.0586,-423.241 83.6892,-861.779 164,-965 166.804,-968.604 170.226,-971.695 173.995,-974.345"/>
<polygon fill="midnightblue" stroke="midnightblue" points="172.303,-977.41 182.696,-979.469 175.855,-971.379 172.303,-977.41"/>
</g>
<!-- Node3 -->
<g id="node5" class="node"><title>Node3</title>
<a xlink:href="classAnalyzer.xhtml#a8f73ee0aa71ae395a74b43dc76b35458" target="_top" xlink:title="Ermittelt Daten für einen Punkt am aktuell ausgewählten Zeitpunkt. ">
<polygon fill="none" stroke="black" points="164.5,-550.5 164.5,-571.5 281.5,-571.5 281.5,-550.5 164.5,-550.5"/>
<text text-anchor="middle" x="223" y="-558.5" font-family="Helvetica,sans-Serif" font-size="10.00">Analyzer::analyzePoint</text>
</a>
</g>
<!-- Node1&#45;&gt;Node3 -->
<g id="edge4" class="edge"><title>Node1&#45;&gt;Node3</title>
<path fill="none" stroke="midnightblue" d="M75.1806,-331.369C104.014,-376.16 180.726,-495.328 210.728,-541.936"/>
<polygon fill="midnightblue" stroke="midnightblue" points="207.877,-543.974 216.233,-550.488 213.763,-540.185 207.877,-543.974"/>
</g>
<!-- Node9 -->
<g id="node17" class="node"><title>Node9</title>
<a xlink:href="classVector3D.xhtml#aa9eaf29045bf32b95c5c7bcb2b8b68d7" target="_top" xlink:title="Gibt das X&#45;Element des Vektors zurück. ">
<polygon fill="none" stroke="black" points="1018,-601.5 1018,-622.5 1102,-622.5 1102,-601.5 1018,-601.5"/>
<text text-anchor="middle" x="1060" y="-609.5" font-family="Helvetica,sans-Serif" font-size="10.00">Vector3D::getX</text>
</a>
</g>
<!-- Node1&#45;&gt;Node9 -->
<g id="edge128" class="edge"><title>Node1&#45;&gt;Node9</title>
<path fill="none" stroke="midnightblue" d="M65.3831,-296.792C70.0151,-251.681 89.2221,-129.648 164,-74 246.806,-12.3774 291.781,-50 395,-50 395,-50 395,-50 747,-50 851.988,-50 906.213,-1.34543 982,-74 1020.22,-110.637 1051.36,-496.352 1058.47,-591.08"/>
<polygon fill="midnightblue" stroke="midnightblue" points="1054.99,-591.433 1059.22,-601.146 1061.97,-590.915 1054.99,-591.433"/>
</g>
<!-- Node10 -->
<g id="node19" class="node"><title>Node10</title>
<a xlink:href="classVector3D.xhtml#aa3ffff17b886274a58417dfe4bb4c4a2" target="_top" xlink:title="Gibt das Y&#45;Element des Vektors zurück. ">
<polygon fill="none" stroke="black" points="1018,-725.5 1018,-746.5 1102,-746.5 1102,-725.5 1018,-725.5"/>
<text text-anchor="middle" x="1060" y="-733.5" font-family="Helvetica,sans-Serif" font-size="10.00">Vector3D::getY</text>
</a>
</g>
<!-- Node1&#45;&gt;Node10 -->
<g id="edge130" class="edge"><title>Node1&#45;&gt;Node10</title>
<path fill="none" stroke="midnightblue" d="M64.6167,-331.038C69.2625,-432.339 107.106,-951 395,-951 395,-951 395,-951 747,-951 851.785,-951 897.725,-994.271 982,-932 1011.59,-910.138 1042.77,-801.887 1054.83,-756.296"/>
<polygon fill="midnightblue" stroke="midnightblue" points="1058.21,-757.176 1057.35,-746.617 1051.44,-755.412 1058.21,-757.176"/>
</g>
<!-- Node11 -->
<g id="node21" class="node"><title>Node11</title>
<a xlink:href="classVector3D.xhtml#ab0dcbf253ff78856eccb5ea74d080fc7" target="_top" xlink:title="Gibt das Z&#45;Element des Vektors zurück. ">
<polygon fill="none" stroke="black" points="1018.5,-670.5 1018.5,-691.5 1101.5,-691.5 1101.5,-670.5 1018.5,-670.5"/>
<text text-anchor="middle" x="1060" y="-678.5" font-family="Helvetica,sans-Serif" font-size="10.00">Vector3D::getZ</text>
</a>
</g>
<!-- Node1&#45;&gt;Node11 -->
<g id="edge132" class="edge"><title>Node1&#45;&gt;Node11</title>
<path fill="none" stroke="midnightblue" d="M76.6155,-296.641C116.681,-243.721 247.137,-88 395,-88 395,-88 395,-88 747,-88 852.731,-88 910.492,-47.1179 982,-125 1058.39,-208.2 975.083,-527.521 1018,-632 1022.82,-643.744 1031.61,-654.691 1039.9,-663.247"/>
<polygon fill="midnightblue" stroke="midnightblue" points="1037.63,-665.928 1047.25,-670.385 1042.51,-660.907 1037.63,-665.928"/>
</g>
<!-- Node35 -->
<g id="node98" class="node"><title>Node35</title>
<a xlink:href="namespaceUtils.xhtml#a233ff9a0b34b10195a434f1ff66323b8" target="_top" xlink:title="Wandelt eine Fließkommazahl in einen wxWidgets&#45;String um. ">
<polygon fill="none" stroke="black" points="176,-0.5 176,-21.5 270,-21.5 270,-0.5 176,-0.5"/>
<text text-anchor="middle" x="223" y="-8.5" font-family="Helvetica,sans-Serif" font-size="10.00">Utils::floattowxstr</text>
</a>
</g>
<!-- Node1&#45;&gt;Node35 -->
<g id="edge126" class="edge"><title>Node1&#45;&gt;Node35</title>
<path fill="none" stroke="midnightblue" d="M65.4601,-296.863C70.3939,-249.237 90.5071,-113.689 164,-36 167.541,-32.2572 171.731,-29.0505 176.22,-26.3083"/>
<polygon fill="midnightblue" stroke="midnightblue" points="177.932,-29.3627 185.13,-21.5887 174.655,-23.177 177.932,-29.3627"/>
</g>
<!-- Node4 -->
<g id="node7" class="node"><title>Node4</title>
<a xlink:href="classObjectData.xhtml#a72ac93213382f67b4d5b40c011eb1656" target="_top" xlink:title="Gibt eine Referenz auf die Sensordaten des Objekts zurück. ">
<polygon fill="none" stroke="black" points="318.5,-550.5 318.5,-571.5 471.5,-571.5 471.5,-550.5 318.5,-550.5"/>
<text text-anchor="middle" x="395" y="-558.5" font-family="Helvetica,sans-Serif" font-size="10.00">ObjectData::getSensorDataList</text>
</a>
</g>
<!-- Node3&#45;&gt;Node4 -->
<g id="edge6" class="edge"><title>Node3&#45;&gt;Node4</title>
<path fill="none" stroke="midnightblue" d="M281.712,-561C290.267,-561 299.225,-561 308.194,-561"/>
<polygon fill="midnightblue" stroke="midnightblue" points="308.305,-564.5 318.305,-561 308.305,-557.5 308.305,-564.5"/>
</g>
<!-- Node5 -->
<g id="node9" class="node"><title>Node5</title>
<a xlink:href="classObjectData.xhtml#a503d63160a3afe2ea517449f78f8ac42" target="_top" xlink:title="Gibt den Index des aktuell verwendeten Sensordatensatzes zurück. ">
<polygon fill="none" stroke="black" points="320.5,-630 320.5,-664 469.5,-664 469.5,-630 320.5,-630"/>
<text text-anchor="start" x="328.5" y="-651" font-family="Helvetica,sans-Serif" font-size="10.00">ObjectData::getCurrentSensor</text>
<text text-anchor="middle" x="395" y="-638" font-family="Helvetica,sans-Serif" font-size="10.00">Index</text>
</a>
</g>
<!-- Node3&#45;&gt;Node5 -->
<g id="edge8" class="edge"><title>Node3&#45;&gt;Node5</title>
<path fill="none" stroke="midnightblue" d="M237.504,-571.708C255.614,-584.704 287.884,-606.657 318,-621 321.798,-622.809 325.755,-624.549 329.784,-626.212"/>
<polygon fill="midnightblue" stroke="midnightblue" points="328.684,-629.54 339.271,-629.947 331.248,-623.027 328.684,-629.54"/>
</g>
<!-- Node6 -->
<g id="node11" class="node"><title>Node6</title>
<a xlink:href="namespaceUtils.xhtml#a6a0ae18a42e2d206bc1b43da27820fe2" target="_top" xlink:title="Gibt den inter/extrapolierten Wert eines Punktes zurück. ">
<polygon fill="none" stroke="black" points="343,-510.5 343,-531.5 447,-531.5 447,-510.5 343,-510.5"/>
<text text-anchor="middle" x="395" y="-518.5" font-family="Helvetica,sans-Serif" font-size="10.00">Utils::getPointValue</text>
</a>
</g>
<!-- Node3&#45;&gt;Node6 -->
<g id="edge10" class="edge"><title>Node3&#45;&gt;Node6</title>
<path fill="none" stroke="midnightblue" d="M268.191,-550.49C290.127,-545.389 316.673,-539.215 339.798,-533.838"/>
<polygon fill="midnightblue" stroke="midnightblue" points="340.865,-537.183 349.813,-531.509 339.28,-530.365 340.865,-537.183"/>
</g>
<!-- Node34 -->
<g id="node96" class="node"><title>Node34</title>
<a xlink:href="classVector3D.xhtml#a89aeff2092d6a954cd449aca97c59197" target="_top" xlink:title="Gibt eine Referenz auf die Vektorelemente zurück (Vor allem zur Übergabe an OpenGL verwendet)...">
<polygon fill="none" stroke="black" points="346.5,-590.5 346.5,-611.5 443.5,-611.5 443.5,-590.5 346.5,-590.5"/>
<text text-anchor="middle" x="395" y="-598.5" font-family="Helvetica,sans-Serif" font-size="10.00">Vector3D::getXYZ</text>
</a>
</g>
<!-- Node3&#45;&gt;Node34 -->
<g id="edge124" class="edge"><title>Node3&#45;&gt;Node34</title>
<path fill="none" stroke="midnightblue" d="M268.191,-571.51C290.127,-576.611 316.673,-582.785 339.798,-588.162"/>
<polygon fill="midnightblue" stroke="midnightblue" points="339.28,-591.635 349.813,-590.491 340.865,-584.817 339.28,-591.635"/>
</g>
<!-- Node7 -->
<g id="node13" class="node"><title>Node7</title>
<a xlink:href="namespaceUtils.xhtml#a9b995a1220a78be108b19bda4b776332" target="_top" xlink:title="Testet, ob sich ein Punkt innerhalb eines Tetraeders befindet. ">
<polygon fill="none" stroke="black" points="676,-628.5 676,-649.5 818,-649.5 818,-628.5 676,-628.5"/>
<text text-anchor="middle" x="747" y="-636.5" font-family="Helvetica,sans-Serif" font-size="10.00">Utils::pointInsideTetrahedron</text>
</a>
</g>
<!-- Node6&#45;&gt;Node7 -->
<g id="edge12" class="edge"><title>Node6&#45;&gt;Node7</title>
<path fill="none" stroke="midnightblue" d="M447.298,-518.6C499.459,-518.515 580.216,-524.812 640,-559 661.934,-571.543 656.308,-587.168 676,-603 686.369,-611.336 698.979,-618.494 710.679,-624.18"/>
<polygon fill="midnightblue" stroke="midnightblue" points="709.263,-627.381 719.807,-628.419 712.211,-621.032 709.263,-627.381"/>
</g>
<!-- Node16 -->
<g id="node37" class="node"><title>Node16</title>
<a xlink:href="namespaceUtils.xhtml#af4ba26e928c7cef5269c51bfac49d547" target="_top" xlink:title="Ermöglicht das generieren aller möglichen Verteilungen von 4 Elementen auf dataPointCount Plätze...">
<polygon fill="none" stroke="black" points="516,-568.5 516,-589.5 632,-589.5 632,-568.5 516,-568.5"/>
<text text-anchor="middle" x="574" y="-576.5" font-family="Helvetica,sans-Serif" font-size="10.00">Utils::nextCombination</text>
</a>
</g>
<!-- Node6&#45;&gt;Node16 -->
<g id="edge42" class="edge"><title>Node6&#45;&gt;Node16</title>
<path fill="none" stroke="midnightblue" d="M438.794,-531.545C449.704,-534.399 461.33,-537.637 472,-541 478.521,-543.056 510.269,-554.932 536.636,-564.868"/>
<polygon fill="midnightblue" stroke="midnightblue" points="535.458,-568.165 546.05,-568.419 537.929,-561.615 535.458,-568.165"/>
</g>
<!-- Node17 -->
<g id="node39" class="node"><title>Node17</title>
<a xlink:href="classInterpolator.xhtml#a30e714ca6dff9b5745d029f95af1420a" target="_top" xlink:title="Ermittelt den Wert für einen beliebigen Punkt im Raum. ">
<polygon fill="none" stroke="black" points="508.5,-490.5 508.5,-511.5 639.5,-511.5 639.5,-490.5 508.5,-490.5"/>
<text text-anchor="middle" x="574" y="-498.5" font-family="Helvetica,sans-Serif" font-size="10.00">Interpolator::interpolateTet</text>
</a>
</g>
<!-- Node6&#45;&gt;Node17 -->
<g id="edge44" class="edge"><title>Node6&#45;&gt;Node17</title>
<path fill="none" stroke="midnightblue" d="M447.255,-515.161C463.214,-513.378 481.095,-511.38 498.282,-509.46"/>
<polygon fill="midnightblue" stroke="midnightblue" points="498.751,-512.93 508.301,-508.341 497.974,-505.973 498.751,-512.93"/>
</g>
<!-- Node8 -->
<g id="node15" class="node"><title>Node8</title>
<a xlink:href="classVector3D.xhtml#a02364a41693ac080f5adadd776df74b4" target="_top" xlink:title="Subtrahiert einen Vektor von diesem Vektor. ">
<polygon fill="none" stroke="black" points="878,-547.5 878,-568.5 958,-568.5 958,-547.5 878,-547.5"/>
<text text-anchor="middle" x="918" y="-555.5" font-family="Helvetica,sans-Serif" font-size="10.00">Vector3D::sub</text>
</a>
</g>
<!-- Node7&#45;&gt;Node8 -->
<g id="edge14" class="edge"><title>Node7&#45;&gt;Node8</title>
<path fill="none" stroke="midnightblue" d="M786.764,-628.491C797.357,-624.775 808.49,-619.989 818,-614 837.147,-601.943 834.641,-589.714 854,-578 858.431,-575.319 863.254,-572.966 868.199,-570.908"/>
<polygon fill="midnightblue" stroke="midnightblue" points="869.66,-574.098 877.79,-567.305 867.198,-567.545 869.66,-574.098"/>
</g>
<!-- Node12 -->
<g id="node23" class="node"><title>Node12</title>
<a xlink:href="classVector3D.xhtml#a482cd77ce44ea7dd71fd7a43cb7b1cf5" target="_top" xlink:title="Gibt das Kreuzprodukt mit einem anderen Vektor zurück. ">
<polygon fill="none" stroke="black" points="857,-507.5 857,-528.5 979,-528.5 979,-507.5 857,-507.5"/>
<text text-anchor="middle" x="918" y="-515.5" font-family="Helvetica,sans-Serif" font-size="10.00">Vector3D::crossProduct</text>
</a>
</g>
<!-- Node7&#45;&gt;Node12 -->
<g id="edge22" class="edge"><title>Node7&#45;&gt;Node12</title>
<path fill="none" stroke="midnightblue" d="M761.545,-628.407C776.389,-617.307 799.771,-599.01 818,-581 835.73,-563.482 833.266,-551.832 854,-538 856.946,-536.035 860.096,-534.254 863.359,-532.642"/>
<polygon fill="midnightblue" stroke="midnightblue" points="865.015,-535.738 872.781,-528.531 862.216,-529.322 865.015,-535.738"/>
</g>
<!-- Node13 -->
<g id="node28" class="node"><title>Node13</title>
<a xlink:href="classVector3D.xhtml#a0808a8e6004a347d82f9214778b5968f" target="_top" xlink:title="Gibt das Skalarprodukt mit einem anderen Vektor. ">
<polygon fill="none" stroke="black" points="862.5,-587.5 862.5,-608.5 973.5,-608.5 973.5,-587.5 862.5,-587.5"/>
<text text-anchor="middle" x="918" y="-595.5" font-family="Helvetica,sans-Serif" font-size="10.00">Vector3D::dotProduct</text>
</a>
</g>
<!-- Node7&#45;&gt;Node13 -->
<g id="edge30" class="edge"><title>Node7&#45;&gt;Node13</title>
<path fill="none" stroke="midnightblue" d="M791.037,-628.441C813.376,-623.085 840.699,-616.534 864.267,-610.883"/>
<polygon fill="midnightblue" stroke="midnightblue" points="865.204,-614.258 874.112,-608.523 863.572,-607.451 865.204,-614.258"/>
</g>
<!-- Node14 -->
<g id="node33" class="node"><title>Node14</title>
<a xlink:href="classVector3D.xhtml#a3dec11494c99de7370e3877054c3ef13" target="_top" xlink:title="Multipliziert den Vektor mit einem Skalar. ">
<polygon fill="none" stroke="black" points="876.5,-627.5 876.5,-648.5 959.5,-648.5 959.5,-627.5 876.5,-627.5"/>
<text text-anchor="middle" x="918" y="-635.5" font-family="Helvetica,sans-Serif" font-size="10.00">Vector3D::mult</text>
</a>
</g>
<!-- Node7&#45;&gt;Node14 -->
<g id="edge38" class="edge"><title>Node7&#45;&gt;Node14</title>
<path fill="none" stroke="midnightblue" d="M818.034,-638.585C834.138,-638.49 850.947,-638.392 866.086,-638.304"/>
<polygon fill="midnightblue" stroke="midnightblue" points="866.292,-641.803 876.271,-638.244 866.251,-634.803 866.292,-641.803"/>
</g>
<!-- Node15 -->
<g id="node35" class="node"><title>Node15</title>
<a xlink:href="classVector3D.xhtml#a46dd0d9a849809a3857783102959e788" target="_top" xlink:title="Gibt eine Kopie des Vektors zurück. ">
<polygon fill="none" stroke="black" points="875.5,-192.5 875.5,-213.5 960.5,-213.5 960.5,-192.5 875.5,-192.5"/>
<text text-anchor="middle" x="918" y="-200.5" font-family="Helvetica,sans-Serif" font-size="10.00">Vector3D::copy</text>
</a>
</g>
<!-- Node7&#45;&gt;Node15 -->
<g id="edge40" class="edge"><title>Node7&#45;&gt;Node15</title>
<path fill="none" stroke="midnightblue" d="M765.828,-628.33C782.028,-618.191 804.813,-601.473 818,-581 857.608,-519.508 901.396,-293.678 914.258,-223.769"/>
<polygon fill="midnightblue" stroke="midnightblue" points="917.762,-224.064 916.112,-213.598 910.875,-222.808 917.762,-224.064"/>
</g>
<!-- Node8&#45;&gt;Node9 -->
<g id="edge16" class="edge"><title>Node8&#45;&gt;Node9</title>
<path fill="none" stroke="midnightblue" d="M954.112,-568.536C963.276,-571.414 973.056,-574.664 982,-578 997.407,-583.746 1014.16,-590.923 1028.18,-597.201"/>
<polygon fill="midnightblue" stroke="midnightblue" points="1026.85,-600.438 1037.4,-601.374 1029.73,-594.061 1026.85,-600.438"/>
</g>
<!-- Node8&#45;&gt;Node10 -->
<g id="edge18" class="edge"><title>Node8&#45;&gt;Node10</title>
<path fill="none" stroke="midnightblue" d="M958.237,-564.052C966.995,-567.022 975.556,-571.438 982,-578 1021.91,-618.641 986.766,-653.367 1018,-701 1022.37,-707.657 1028.38,-713.71 1034.49,-718.838"/>
<polygon fill="midnightblue" stroke="midnightblue" points="1032.69,-721.873 1042.74,-725.23 1036.98,-716.339 1032.69,-721.873"/>
</g>
<!-- Node8&#45;&gt;Node11 -->
<g id="edge20" class="edge"><title>Node8&#45;&gt;Node11</title>
<path fill="none" stroke="midnightblue" d="M958.259,-566.007C966.625,-568.882 975.012,-572.766 982,-578 1005.09,-595.291 1000.58,-609.008 1018,-632 1025.98,-642.53 1035.52,-653.755 1043.48,-662.8"/>
<polygon fill="midnightblue" stroke="midnightblue" points="1041,-665.278 1050.27,-670.412 1046.23,-660.619 1041,-665.278"/>
</g>
<!-- Node12&#45;&gt;Node9 -->
<g id="edge28" class="edge"><title>Node12&#45;&gt;Node9</title>
<path fill="none" stroke="midnightblue" d="M961.159,-528.509C968.363,-531.091 975.576,-534.227 982,-538 1006.95,-552.65 1030.28,-576.684 1044.8,-593.37"/>
<polygon fill="midnightblue" stroke="midnightblue" points="1042.42,-595.974 1051.56,-601.337 1047.76,-591.447 1042.42,-595.974"/>
</g>
<!-- Node12&#45;&gt;Node10 -->
<g id="edge26" class="edge"><title>Node12&#45;&gt;Node10</title>
<path fill="none" stroke="midnightblue" d="M969.852,-528.667C974.373,-531.16 978.536,-534.227 982,-538 1032.17,-592.655 979.43,-637.624 1018,-701 1022.14,-707.801 1028.07,-713.902 1034.18,-719.033"/>
<polygon fill="midnightblue" stroke="midnightblue" points="1032.41,-722.084 1042.47,-725.401 1036.68,-716.533 1032.41,-722.084"/>
</g>
<!-- Node12&#45;&gt;Node11 -->
<g id="edge24" class="edge"><title>Node12&#45;&gt;Node11</title>
<path fill="none" stroke="midnightblue" d="M968.027,-528.579C973.131,-531.081 977.927,-534.175 982,-538 1014.61,-568.624 995.107,-593.564 1018,-632 1024.58,-643.055 1033.71,-654.053 1041.78,-662.819"/>
<polygon fill="midnightblue" stroke="midnightblue" points="1039.36,-665.349 1048.78,-670.181 1044.43,-660.524 1039.36,-665.349"/>
</g>
<!-- Node13&#45;&gt;Node9 -->
<g id="edge32" class="edge"><title>Node13&#45;&gt;Node9</title>
<path fill="none" stroke="midnightblue" d="M973.715,-603.493C984.784,-604.584 996.374,-605.727 1007.34,-606.808"/>
<polygon fill="midnightblue" stroke="midnightblue" points="1007.33,-610.324 1017.62,-607.822 1008.01,-603.357 1007.33,-610.324"/>
</g>
<!-- Node13&#45;&gt;Node10 -->
<g id="edge34" class="edge"><title>Node13&#45;&gt;Node10</title>
<path fill="none" stroke="midnightblue" d="M967.543,-608.603C972.795,-611.1 977.758,-614.187 982,-618 1011.9,-644.881 993.902,-668.812 1018,-701 1023.04,-707.731 1029.62,-713.996 1036.07,-719.31"/>
<polygon fill="midnightblue" stroke="midnightblue" points="1034.01,-722.135 1044.05,-725.496 1038.29,-716.603 1034.01,-722.135"/>
</g>
<!-- Node13&#45;&gt;Node11 -->
<g id="edge36" class="edge"><title>Node13&#45;&gt;Node11</title>
<path fill="none" stroke="midnightblue" d="M959.897,-608.592C967.461,-611.198 975.122,-614.321 982,-618 1004.53,-630.053 1026.88,-649.001 1041.83,-662.972"/>
<polygon fill="midnightblue" stroke="midnightblue" points="1039.69,-665.766 1049.34,-670.146 1044.53,-660.706 1039.69,-665.766"/>
</g>
<!-- Node17&#45;&gt;Node8 -->
<g id="edge66" class="edge"><title>Node17&#45;&gt;Node8</title>
<path fill="none" stroke="midnightblue" d="M614.2,-511.634C623.279,-515.238 632.453,-519.939 640,-526 662.778,-544.294 650.3,-567.106 676,-581 731.517,-611.014 755.292,-588.119 818,-581 835.59,-579.003 854.592,-575.091 871.26,-571.051"/>
<polygon fill="midnightblue" stroke="midnightblue" points="872.453,-574.36 881.303,-568.535 870.752,-567.57 872.453,-574.36"/>
</g>
<!-- Node17&#45;&gt;Node12 -->
<g id="edge102" class="edge"><title>Node17&#45;&gt;Node12</title>
<path fill="none" stroke="midnightblue" d="M574.634,-490.305C577.597,-451.205 593.686,-315.456 676,-261 728.635,-226.178 765.907,-225.372 818,-261 859.216,-289.189 899.658,-442.07 913.223,-497.725"/>
<polygon fill="midnightblue" stroke="midnightblue" points="909.83,-498.588 915.569,-507.494 916.637,-496.953 909.83,-498.588"/>
</g>
<!-- Node17&#45;&gt;Node13 -->
<g id="edge84" class="edge"><title>Node17&#45;&gt;Node13</title>
<path fill="none" stroke="midnightblue" d="M590.215,-511.631C605.03,-522.094 626.609,-539.329 640,-559 666.582,-598.048 637.354,-631.838 676,-659 727.634,-695.29 760.506,-685.029 818,-659 840.091,-648.999 833.67,-631.22 854,-618 857.111,-615.977 860.439,-614.148 863.882,-612.496"/>
<polygon fill="midnightblue" stroke="midnightblue" points="865.371,-615.666 873.196,-608.523 862.625,-609.227 865.371,-615.666"/>
</g>
<!-- Node17&#45;&gt;Node14 -->
<g id="edge86" class="edge"><title>Node17&#45;&gt;Node14</title>
<path fill="none" stroke="midnightblue" d="M590.801,-511.636C605.814,-521.982 627.338,-539.032 640,-559 670.96,-607.825 629.808,-649.234 676,-684 726.425,-721.952 757.076,-700.471 818,-684 835.881,-679.166 837.323,-671.061 854,-663 861.874,-659.194 870.487,-655.518 878.769,-652.209"/>
<polygon fill="midnightblue" stroke="midnightblue" points="880.228,-655.397 888.277,-648.508 877.688,-648.874 880.228,-655.397"/>
</g>
<!-- Node17&#45;&gt;Node15 -->
<g id="edge64" class="edge"><title>Node17&#45;&gt;Node15</title>
<path fill="none" stroke="midnightblue" d="M575.75,-490.175C584.272,-438.92 623.186,-221.524 676,-183 738.743,-137.233 836.501,-167.691 886.389,-188.37"/>
<polygon fill="midnightblue" stroke="midnightblue" points="885.133,-191.639 895.704,-192.35 887.884,-185.202 885.133,-191.639"/>
</g>
<!-- Node18 -->
<g id="node41" class="node"><title>Node18</title>
<a xlink:href="classVector3D.xhtml#ac83e936757114f32bc9d868ea5fabbc2" target="_top" xlink:title="Testet, ob zwei Vektoren identisch sind. ">
<polygon fill="none" stroke="black" points="872,-745.5 872,-766.5 964,-766.5 964,-745.5 872,-745.5"/>
<text text-anchor="middle" x="918" y="-753.5" font-family="Helvetica,sans-Serif" font-size="10.00">Vector3D::equals</text>
</a>
</g>
<!-- Node17&#45;&gt;Node18 -->
<g id="edge46" class="edge"><title>Node17&#45;&gt;Node18</title>
<path fill="none" stroke="midnightblue" d="M591.484,-511.6C606.747,-521.805 628.243,-538.662 640,-559 680.613,-629.254 615.168,-684.292 676,-738 727.626,-783.58 811.992,-778.29 866.237,-768.511"/>
<polygon fill="midnightblue" stroke="midnightblue" points="867.17,-771.896 876.333,-766.576 865.853,-765.021 867.17,-771.896"/>
</g>
<!-- Node19 -->
<g id="node46" class="node"><title>Node19</title>
<a xlink:href="classTetrahedron.xhtml#a88afe41ae5991168ad51ba4dbb2e1a6b" target="_top" xlink:title="Gibt eine Referenz auf den Ortsvektor zum index+1 Punkt des Tetraeders zurück. ">
<polygon fill="none" stroke="black" points="694,-550.5 694,-571.5 800,-571.5 800,-550.5 694,-550.5"/>
<text text-anchor="middle" x="747" y="-558.5" font-family="Helvetica,sans-Serif" font-size="10.00">Tetrahedron::getVert</text>
</a>
</g>
<!-- Node17&#45;&gt;Node19 -->
<g id="edge54" class="edge"><title>Node17&#45;&gt;Node19</title>
<path fill="none" stroke="midnightblue" d="M602.342,-511.503C614.035,-515.897 627.703,-521.111 640,-526 656.107,-532.404 659.628,-535.307 676,-541 682.501,-543.261 689.403,-545.454 696.249,-547.508"/>
<polygon fill="midnightblue" stroke="midnightblue" points="695.608,-550.967 706.188,-550.41 697.57,-544.248 695.608,-550.967"/>
</g>
<!-- Node20 -->
<g id="node48" class="node"><title>Node20</title>
<a xlink:href="classTetrahedron.xhtml#add51e42ab17afbd023d47a436ce24b0d" target="_top" xlink:title="Gibt eine Referenz auf den Ortsvektor zum 1. ">
<polygon fill="none" stroke="black" points="697,-510.5 697,-531.5 797,-531.5 797,-510.5 697,-510.5"/>
<text text-anchor="middle" x="747" y="-518.5" font-family="Helvetica,sans-Serif" font-size="10.00">Tetrahedron::getV1</text>
</a>
</g>
<!-- Node17&#45;&gt;Node20 -->
<g id="edge56" class="edge"><title>Node17&#45;&gt;Node20</title>
<path fill="none" stroke="midnightblue" d="M639.897,-508.618C655.259,-510.394 671.541,-512.276 686.648,-514.023"/>
<polygon fill="midnightblue" stroke="midnightblue" points="686.558,-517.536 696.894,-515.207 687.362,-510.582 686.558,-517.536"/>
</g>
<!-- Node21 -->
<g id="node50" class="node"><title>Node21</title>
<a xlink:href="classTetrahedron.xhtml#aa728c967f17e2b8408009b5f2b77a17a" target="_top" xlink:title="Gibt eine Referenz auf den Ortsvektor zum 2. ">
<polygon fill="none" stroke="black" points="697,-470.5 697,-491.5 797,-491.5 797,-470.5 697,-470.5"/>
<text text-anchor="middle" x="747" y="-478.5" font-family="Helvetica,sans-Serif" font-size="10.00">Tetrahedron::getV2</text>
</a>
</g>
<!-- Node17&#45;&gt;Node21 -->
<g id="edge58" class="edge"><title>Node17&#45;&gt;Node21</title>
<path fill="none" stroke="midnightblue" d="M639.897,-493.382C655.259,-491.606 671.541,-489.724 686.648,-487.977"/>
<polygon fill="midnightblue" stroke="midnightblue" points="687.362,-491.418 696.894,-486.793 686.558,-484.464 687.362,-491.418"/>
</g>
<!-- Node22 -->
<g id="node52" class="node"><title>Node22</title>
<a xlink:href="classTetrahedron.xhtml#aa539a97f133ea621520121acb2ef4a7e" target="_top" xlink:title="Gibt eine Referenz auf den Ortsvektor zum 3. ">
<polygon fill="none" stroke="black" points="697,-430.5 697,-451.5 797,-451.5 797,-430.5 697,-430.5"/>
<text text-anchor="middle" x="747" y="-438.5" font-family="Helvetica,sans-Serif" font-size="10.00">Tetrahedron::getV3</text>
</a>
</g>
<!-- Node17&#45;&gt;Node22 -->
<g id="edge60" class="edge"><title>Node17&#45;&gt;Node22</title>
<path fill="none" stroke="midnightblue" d="M598.896,-490.437C619.393,-481.935 649.315,-469.966 676,-461 682.843,-458.701 690.116,-456.444 697.297,-454.323"/>
<polygon fill="midnightblue" stroke="midnightblue" points="698.348,-457.662 706.983,-451.523 696.404,-450.938 698.348,-457.662"/>
</g>
<!-- Node23 -->
<g id="node54" class="node"><title>Node23</title>
<a xlink:href="classTriangle.xhtml#a6de5f8560482f4130bdbb96b25aa1b58" target="_top" xlink:title="Gibt eine Referenz auf den Ortsvektor zum zweiten Punkt des Dreiecks zurück. ">
<polygon fill="none" stroke="black" points="705.5,-390.5 705.5,-411.5 788.5,-411.5 788.5,-390.5 705.5,-390.5"/>
<text text-anchor="middle" x="747" y="-398.5" font-family="Helvetica,sans-Serif" font-size="10.00">Triangle::getV2</text>
</a>
</g>
<!-- Node17&#45;&gt;Node23 -->
<g id="edge62" class="edge"><title>Node17&#45;&gt;Node23</title>
<path fill="none" stroke="midnightblue" d="M584.619,-490.302C602.141,-473.234 638.877,-439.85 676,-421 682.137,-417.884 688.828,-415.194 695.568,-412.89"/>
<polygon fill="midnightblue" stroke="midnightblue" points="696.935,-416.129 705.42,-409.784 694.83,-409.453 696.935,-416.129"/>
</g>
<!-- Node24 -->
<g id="node58" class="node"><title>Node24</title>
<a xlink:href="classTriangle.xhtml#ae054a0eae5dae026c5af69274c5f277e" target="_top" xlink:title="Gibt eine Referenz auf den Ortsvektor zum ersten Punkt des Dreiecks zurück. ">
<polygon fill="none" stroke="black" points="705.5,-350.5 705.5,-371.5 788.5,-371.5 788.5,-350.5 705.5,-350.5"/>
<text text-anchor="middle" x="747" y="-358.5" font-family="Helvetica,sans-Serif" font-size="10.00">Triangle::getV1</text>
</a>
</g>
<!-- Node17&#45;&gt;Node24 -->
<g id="edge68" class="edge"><title>Node17&#45;&gt;Node24</title>
<path fill="none" stroke="midnightblue" d="M580.107,-490.172C593.971,-466.596 630.204,-410.382 676,-381 682.076,-377.101 688.92,-373.95 695.897,-371.406"/>
<polygon fill="midnightblue" stroke="midnightblue" points="697.012,-374.724 705.436,-368.3 694.844,-368.068 697.012,-374.724"/>
</g>
<!-- Node25 -->
<g id="node60" class="node"><title>Node25</title>
<a xlink:href="classTriangle.xhtml#a792a627dc42adad87c0b30e16a6b5824" target="_top" xlink:title="Gibt eine Referenz auf den Ortsvektor zum dritten Punkt des Dreiecks zurück. ">
<polygon fill="none" stroke="black" points="705.5,-310.5 705.5,-331.5 788.5,-331.5 788.5,-310.5 705.5,-310.5"/>
<text text-anchor="middle" x="747" y="-318.5" font-family="Helvetica,sans-Serif" font-size="10.00">Triangle::getV3</text>
</a>
</g>
<!-- Node17&#45;&gt;Node25 -->
<g id="edge70" class="edge"><title>Node17&#45;&gt;Node25</title>
<path fill="none" stroke="midnightblue" d="M577.764,-490.128C588.355,-461.178 621.261,-381.664 676,-341 681.866,-336.642 688.645,-333.234 695.637,-330.567"/>
<polygon fill="midnightblue" stroke="midnightblue" points="696.857,-333.85 705.24,-327.372 694.647,-327.208 696.857,-333.85"/>
</g>
<!-- Node26 -->
<g id="node62" class="node"><title>Node26</title>
<a xlink:href="classTetrahedron.xhtml#a7308b7b73edeba7782dff551a03095bf" target="_top" xlink:title="Gibt eine Referenz auf den Ortsvektor zum 3. ">
<polygon fill="none" stroke="black" points="697,-270.5 697,-291.5 797,-291.5 797,-270.5 697,-270.5"/>
<text text-anchor="middle" x="747" y="-278.5" font-family="Helvetica,sans-Serif" font-size="10.00">Tetrahedron::getV4</text>
</a>
</g>
<!-- Node17&#45;&gt;Node26 -->
<g id="edge72" class="edge"><title>Node17&#45;&gt;Node26</title>
<path fill="none" stroke="midnightblue" d="M576.233,-490.423C583.822,-457.141 611.805,-353.646 676,-301 679.492,-298.136 683.369,-295.682 687.459,-293.579"/>
<polygon fill="midnightblue" stroke="midnightblue" points="688.947,-296.748 696.687,-289.512 686.124,-290.342 688.947,-296.748"/>
</g>
<!-- Node27 -->
<g id="node64" class="node"><title>Node27</title>
<a xlink:href="classTriangle.xhtml#a3c72b19f316fa9ffb0a2f206e3558790" target="_top" xlink:title="Gibt die Normale des Dreiecks zurück. ">
<polygon fill="none" stroke="black" points="696,-192.5 696,-213.5 798,-213.5 798,-192.5 696,-192.5"/>
<text text-anchor="middle" x="747" y="-200.5" font-family="Helvetica,sans-Serif" font-size="10.00">Triangle::getNormal</text>
</a>
</g>
<!-- Node17&#45;&gt;Node27 -->
<g id="edge74" class="edge"><title>Node17&#45;&gt;Node27</title>
<path fill="none" stroke="midnightblue" d="M574.82,-490.403C578.491,-450.221 596.908,-305.603 676,-228 679.964,-224.11 684.569,-220.823 689.493,-218.045"/>
<polygon fill="midnightblue" stroke="midnightblue" points="691.185,-221.114 698.63,-213.576 688.109,-214.826 691.185,-221.114"/>
</g>
<!-- Node28 -->
<g id="node69" class="node"><title>Node28</title>
<a xlink:href="classVector3D.xhtml#abfb12ecb9c9beb88e095cc4a1a512d3c" target="_top" xlink:title="Normalisiert den Vektor. ">
<polygon fill="none" stroke="black" points="865,-134.5 865,-155.5 971,-155.5 971,-134.5 865,-134.5"/>
<text text-anchor="middle" x="918" y="-142.5" font-family="Helvetica,sans-Serif" font-size="10.00">Vector3D::normalize</text>
</a>
</g>
<!-- Node17&#45;&gt;Node28 -->
<g id="edge114" class="edge"><title>Node17&#45;&gt;Node28</title>
<path fill="none" stroke="midnightblue" d="M575.482,-490.404C583.155,-437.166 620.188,-199.709 676,-156 731.215,-112.759 817.177,-121.183 870.403,-132.312"/>
<polygon fill="midnightblue" stroke="midnightblue" points="869.751,-135.752 880.27,-134.485 871.256,-128.916 869.751,-135.752"/>
</g>
<!-- Node29 -->
<g id="node73" class="node"><title>Node29</title>
<a xlink:href="classVector3D.xhtml#a4bf1dcea68296f2f38f3574242933153" target="_top" xlink:title="Gibt den Winkel zu einem anderen Vektor in RAD zurück. ">
<polygon fill="none" stroke="black" points="690.5,-820.5 690.5,-841.5 803.5,-841.5 803.5,-820.5 690.5,-820.5"/>
<text text-anchor="middle" x="747" y="-828.5" font-family="Helvetica,sans-Serif" font-size="10.00">Vector3D::getAngleTo</text>
</a>
</g>
<!-- Node17&#45;&gt;Node29 -->
<g id="edge88" class="edge"><title>Node17&#45;&gt;Node29</title>
<path fill="none" stroke="midnightblue" d="M592.048,-511.65C607.466,-521.777 628.867,-538.488 640,-559 692.921,-656.501 605.514,-720.333 676,-806 678.976,-809.617 682.511,-812.711 686.389,-815.358"/>
<polygon fill="midnightblue" stroke="midnightblue" points="684.925,-818.553 695.345,-820.468 688.394,-812.473 684.925,-818.553"/>
</g>
<!-- Node30 -->
<g id="node78" class="node"><title>Node30</title>
<a xlink:href="classVector3D.xhtml#a2e3aa1d244483abcb1a8e48e47e79512" target="_top" xlink:title="Gibt die Länge des Vektors zurück. ">
<polygon fill="none" stroke="black" points="864.5,-901.5 864.5,-922.5 971.5,-922.5 971.5,-901.5 864.5,-901.5"/>
<text text-anchor="middle" x="918" y="-909.5" font-family="Helvetica,sans-Serif" font-size="10.00">Vector3D::getLength</text>
</a>
</g>
<!-- Node17&#45;&gt;Node30 -->
<g id="edge100" class="edge"><title>Node17&#45;&gt;Node30</title>
<path fill="none" stroke="midnightblue" d="M592.22,-511.559C607.752,-521.625 629.221,-538.299 640,-559 673.559,-623.45 624.744,-832.494 676,-884 722.622,-930.85 802.503,-930.935 857.664,-923.892"/>
<polygon fill="midnightblue" stroke="midnightblue" points="858.239,-927.346 867.663,-922.504 857.276,-920.412 858.239,-927.346"/>
</g>
<!-- Node32 -->
<g id="node84" class="node"><title>Node32</title>
<a xlink:href="classVector3D.xhtml#a42deb992ec2f44abfb5824ea4917135c" target="_top" xlink:title="Gibt den Abstand zu einem anderen Vektor zurück. ">
<polygon fill="none" stroke="black" points="854,-861.5 854,-882.5 982,-882.5 982,-861.5 854,-861.5"/>
<text text-anchor="middle" x="918" y="-869.5" font-family="Helvetica,sans-Serif" font-size="10.00">Vector3D::getDistanceTo</text>
</a>
</g>
<!-- Node17&#45;&gt;Node32 -->
<g id="edge104" class="edge"><title>Node17&#45;&gt;Node32</title>
<path fill="none" stroke="midnightblue" d="M592.158,-511.591C607.649,-521.679 629.094,-538.366 640,-559 670.553,-616.802 628.942,-805.611 676,-851 725.863,-899.094 811.383,-894.112 866.264,-884.367"/>
<polygon fill="midnightblue" stroke="midnightblue" points="866.962,-887.797 876.14,-882.504 865.664,-880.918 866.962,-887.797"/>
</g>
<!-- Node33 -->
<g id="node91" class="node"><title>Node33</title>
<a xlink:href="classVector3D.xhtml#a0d14ff1f789254ff90adc22628eb8347" target="_top" xlink:title="Addiert einen Vektor zu diesem Vektor. ">
<polygon fill="none" stroke="black" points="878,-705.5 878,-726.5 958,-726.5 958,-705.5 878,-705.5"/>
<text text-anchor="middle" x="918" y="-713.5" font-family="Helvetica,sans-Serif" font-size="10.00">Vector3D::add</text>
</a>
</g>
<!-- Node17&#45;&gt;Node33 -->
<g id="edge116" class="edge"><title>Node17&#45;&gt;Node33</title>
<path fill="none" stroke="midnightblue" d="M591.004,-511.51C606.158,-521.769 627.774,-538.762 640,-559 675.228,-617.313 623.171,-664.983 676,-708 731.581,-753.259 820.481,-741.777 873.658,-729.061"/>
<polygon fill="midnightblue" stroke="midnightblue" points="874.625,-732.427 883.475,-726.602 872.925,-725.636 874.625,-732.427"/>
</g>
<!-- Node18&#45;&gt;Node9 -->
<g id="edge48" class="edge"><title>Node18&#45;&gt;Node9</title>
<path fill="none" stroke="midnightblue" d="M964.14,-746.679C970.606,-743.977 976.805,-740.493 982,-736 1009.97,-711.813 997.797,-691.967 1018,-661 1025.12,-650.08 1034.45,-638.962 1042.51,-630.083"/>
<polygon fill="midnightblue" stroke="midnightblue" points="1045.19,-632.332 1049.44,-622.628 1040.07,-627.563 1045.19,-632.332"/>
</g>
<!-- Node18&#45;&gt;Node10 -->
<g id="edge50" class="edge"><title>Node18&#45;&gt;Node10</title>
<path fill="none" stroke="midnightblue" d="M964.103,-749.507C978.049,-747.542 993.461,-745.372 1007.78,-743.355"/>
<polygon fill="midnightblue" stroke="midnightblue" points="1008.56,-746.78 1017.97,-741.92 1007.58,-739.849 1008.56,-746.78"/>
</g>
<!-- Node18&#45;&gt;Node11 -->
<g id="edge52" class="edge"><title>Node18&#45;&gt;Node11</title>
<path fill="none" stroke="midnightblue" d="M958.351,-745.493C966.365,-742.826 974.589,-739.658 982,-736 1002.87,-725.7 1024.31,-710.149 1039.42,-698.208"/>
<polygon fill="midnightblue" stroke="midnightblue" points="1041.95,-700.665 1047.53,-691.661 1037.55,-695.218 1041.95,-700.665"/>
</g>
<!-- Node27&#45;&gt;Node8 -->
<g id="edge78" class="edge"><title>Node27&#45;&gt;Node8</title>
<path fill="none" stroke="midnightblue" d="M767.139,-213.667C783.716,-223.591 806.319,-239.996 818,-261 878.338,-369.497 774.158,-442.934 854,-538 857.885,-542.626 862.824,-546.198 868.231,-548.953"/>
<polygon fill="midnightblue" stroke="midnightblue" points="867.09,-552.269 877.669,-552.862 869.769,-545.802 867.09,-552.269"/>
</g>
<!-- Node27&#45;&gt;Node12 -->
<g id="edge80" class="edge"><title>Node27&#45;&gt;Node12</title>
<path fill="none" stroke="midnightblue" d="M795.865,-213.603C804.025,-217.116 811.829,-221.789 818,-228 894.933,-305.434 912.777,-444.768 916.834,-497.249"/>
<polygon fill="midnightblue" stroke="midnightblue" points="913.35,-497.601 917.523,-507.339 920.334,-497.124 913.35,-497.601"/>
</g>
<!-- Node27&#45;&gt;Node15 -->
<g id="edge76" class="edge"><title>Node27&#45;&gt;Node15</title>
<path fill="none" stroke="midnightblue" d="M798.306,-203C819.441,-203 843.915,-203 865.203,-203"/>
<polygon fill="midnightblue" stroke="midnightblue" points="865.37,-206.5 875.37,-203 865.37,-199.5 865.37,-206.5"/>
</g>
<!-- Node27&#45;&gt;Node28 -->
<g id="edge82" class="edge"><title>Node27&#45;&gt;Node28</title>
<path fill="none" stroke="midnightblue" d="M777.967,-192.497C805.844,-183.041 846.997,-169.083 877.482,-158.743"/>
<polygon fill="midnightblue" stroke="midnightblue" points="878.629,-162.05 886.975,-155.523 876.381,-155.421 878.629,-162.05"/>
</g>
<!-- Node29&#45;&gt;Node9 -->
<g id="edge90" class="edge"><title>Node29&#45;&gt;Node9</title>
<path fill="none" stroke="midnightblue" d="M752.393,-820.41C765.895,-794.969 803.709,-730.008 854,-696 903.158,-662.758 927.592,-681.694 982,-658 1000.98,-649.735 1021.07,-637.803 1036.11,-628.162"/>
<polygon fill="midnightblue" stroke="midnightblue" points="1038.3,-630.908 1044.76,-622.509 1034.48,-625.047 1038.3,-630.908"/>
</g>
<!-- Node29&#45;&gt;Node10 -->
<g id="edge92" class="edge"><title>Node29&#45;&gt;Node10</title>
<path fill="none" stroke="midnightblue" d="M803.718,-835.712C853.003,-837.522 925.2,-834.558 982,-809 1008.5,-797.075 1031.78,-772.401 1045.86,-755.051"/>
<polygon fill="midnightblue" stroke="midnightblue" points="1048.94,-756.786 1052.35,-746.752 1043.43,-752.474 1048.94,-756.786"/>
</g>
<!-- Node29&#45;&gt;Node11 -->
<g id="edge94" class="edge"><title>Node29&#45;&gt;Node11</title>
<path fill="none" stroke="midnightblue" d="M796.495,-820.445C863.174,-806.075 974.446,-781.509 982,-776 1007.13,-757.675 997.771,-739.62 1018,-716 1023.56,-709.512 1030.4,-703.26 1036.93,-697.88"/>
<polygon fill="midnightblue" stroke="midnightblue" points="1039.24,-700.518 1044.93,-691.579 1034.91,-695.02 1039.24,-700.518"/>
</g>
<!-- Node29&#45;&gt;Node30 -->
<g id="edge96" class="edge"><title>Node29&#45;&gt;Node30</title>
<path fill="none" stroke="midnightblue" d="M763.108,-841.652C783.568,-854.831 820.277,-877.322 854,-892 859.07,-894.207 864.462,-896.283 869.882,-898.201"/>
<polygon fill="midnightblue" stroke="midnightblue" points="869.01,-901.601 879.604,-901.478 871.246,-894.968 869.01,-901.601"/>
</g>
<!-- Node31 -->
<g id="node80" class="node"><title>Node31</title>
<a xlink:href="GeometryClasses_8cpp.xhtml#a73527f20206c906e9f333e0f233de13e" target="_top" xlink:title="sqr">
<polygon fill="none" stroke="black" points="1045,-881.5 1045,-902.5 1075,-902.5 1075,-881.5 1045,-881.5"/>
<text text-anchor="middle" x="1060" y="-889.5" font-family="Helvetica,sans-Serif" font-size="10.00">sqr</text>
</a>
</g>
<!-- Node30&#45;&gt;Node31 -->
<g id="edge98" class="edge"><title>Node30&#45;&gt;Node31</title>
<path fill="none" stroke="midnightblue" d="M971.684,-904.439C993.407,-901.379 1017.43,-897.995 1034.94,-895.53"/>
<polygon fill="midnightblue" stroke="midnightblue" points="1035.5,-898.986 1044.91,-894.125 1034.52,-892.054 1035.5,-898.986"/>
</g>
<!-- Node32&#45;&gt;Node9 -->
<g id="edge108" class="edge"><title>Node32&#45;&gt;Node9</title>
<path fill="none" stroke="midnightblue" d="M926.569,-861.382C940,-844.3 966.112,-809.256 982,-776 1005.09,-727.675 992.042,-707.846 1018,-661 1024.24,-649.745 1033.33,-638.727 1041.46,-629.998"/>
<polygon fill="midnightblue" stroke="midnightblue" points="1044.1,-632.301 1048.55,-622.685 1039.08,-627.43 1044.1,-632.301"/>
</g>
<!-- Node32&#45;&gt;Node10 -->
<g id="edge110" class="edge"><title>Node32&#45;&gt;Node10</title>
<path fill="none" stroke="midnightblue" d="M955.842,-861.42C964.973,-857.773 974.305,-853.038 982,-847 1013.92,-821.953 1038.2,-780.353 1050.67,-755.819"/>
<polygon fill="midnightblue" stroke="midnightblue" points="1053.86,-757.255 1055.14,-746.738 1047.58,-754.164 1053.86,-757.255"/>
</g>
<!-- Node32&#45;&gt;Node11 -->
<g id="edge112" class="edge"><title>Node32&#45;&gt;Node11</title>
<path fill="none" stroke="midnightblue" d="M931.94,-861.294C946.186,-849.73 968.131,-830.109 982,-809 1006.34,-771.958 992.15,-752.003 1018,-716 1022.72,-709.427 1028.95,-703.351 1035.17,-698.169"/>
<polygon fill="midnightblue" stroke="midnightblue" points="1037.75,-700.597 1043.49,-691.694 1033.45,-695.072 1037.75,-700.597"/>
</g>
<!-- Node32&#45;&gt;Node31 -->
<g id="edge106" class="edge"><title>Node32&#45;&gt;Node31</title>
<path fill="none" stroke="midnightblue" d="M982.352,-881.064C1000.83,-883.666 1019.92,-886.354 1034.54,-888.414"/>
<polygon fill="midnightblue" stroke="midnightblue" points="1034.38,-891.926 1044.77,-889.855 1035.36,-884.994 1034.38,-891.926"/>
</g>
<!-- Node33&#45;&gt;Node9 -->
<g id="edge118" class="edge"><title>Node33&#45;&gt;Node9</title>
<path fill="none" stroke="midnightblue" d="M952.851,-705.415C962.694,-701.637 973.132,-696.837 982,-691 1007.46,-674.245 1031.23,-648.048 1045.68,-630.465"/>
<polygon fill="midnightblue" stroke="midnightblue" points="1048.46,-632.594 1051.99,-622.605 1043,-628.21 1048.46,-632.594"/>
</g>
<!-- Node33&#45;&gt;Node10 -->
<g id="edge120" class="edge"><title>Node33&#45;&gt;Node10</title>
<path fill="none" stroke="midnightblue" d="M958.312,-721.678C973.658,-723.839 991.372,-726.334 1007.67,-728.63"/>
<polygon fill="midnightblue" stroke="midnightblue" points="1007.22,-732.1 1017.61,-730.029 1008.19,-725.168 1007.22,-732.1"/>
</g>
<!-- Node33&#45;&gt;Node11 -->
<g id="edge122" class="edge"><title>Node33&#45;&gt;Node11</title>
<path fill="none" stroke="midnightblue" d="M958.312,-706.064C973.793,-702.248 991.686,-697.838 1008.11,-693.791"/>
<polygon fill="midnightblue" stroke="midnightblue" points="1009.23,-697.118 1018.1,-691.327 1007.56,-690.322 1009.23,-697.118"/>
</g>
</g>
</svg>
        <g id="navigator" transform="translate(0 0)" fill="#404254">
                <rect fill="#f2f5e9" fill-opacity="0.5" stroke="#606060" stroke-width=".5" x="0" y="0" width="60" height="60"/>
                <use id="zoomplus" xlink:href="#zoomPlus" x="17" y="9" onmousedown="handleZoom(evt,'in')"/>
                <use id="zoomminus" xlink:href="#zoomMin" x="42" y="9" onmousedown="handleZoom(evt,'out')"/>
                <use id="reset" xlink:href="#resetDef" x="30" y="36" onmousedown="handleReset()"/>
                <g id="arrowUp" xlink:href="#dirArrow" transform="translate(30 24)" onmousedown="handlePan(0,-1)">
                  <use xlink:href="#rim" fill="#404040">
                        <set attributeName="fill" to="#808080" begin="arrowUp.mouseover" end="arrowUp.mouseout"/>
                  </use>
                  <path fill="none" stroke="white" stroke-width="1.5" d="M0,-3.0v7 M-2.5,-0.5L0,-3.0L2.5,-0.5"/>
                </g>
                <g id="arrowRight" xlink:href="#dirArrow" transform="rotate(90) translate(36 -43)" onmousedown="handlePan(1,0)">
                  <use xlink:href="#rim" fill="#404040">
                        <set attributeName="fill" to="#808080" begin="arrowRight.mouseover" end="arrowRight.mouseout"/>
                  </use>
                  <path fill="none" stroke="white" stroke-width="1.5" d="M0,-3.0v7 M-2.5,-0.5L0,-3.0L2.5,-0.5"/>
                </g>
                <g id="arrowDown" xlink:href="#dirArrow" transform="rotate(180) translate(-30 -48)" onmousedown="handlePan(0,1)">
                  <use xlink:href="#rim" fill="#404040">
                        <set attributeName="fill" to="#808080" begin="arrowDown.mouseover" end="arrowDown.mouseout"/>
                  </use>
                  <path fill="none" stroke="white" stroke-width="1.5" d="M0,-3.0v7 M-2.5,-0.5L0,-3.0L2.5,-0.5"/>
                </g>
                <g id="arrowLeft" xlink:href="#dirArrow" transform="rotate(270) translate(-36 17)" onmousedown="handlePan(-1,0)">
                  <use xlink:href="#rim" fill="#404040">
                        <set attributeName="fill" to="#808080" begin="arrowLeft.mouseover" end="arrowLeft.mouseout"/>
                  </use>
                  <path fill="none" stroke="white" stroke-width="1.5" d="M0,-3.0v7 M-2.5,-0.5L0,-3.0L2.5,-0.5"/>
                </g>
        </g>
        <svg viewBox="0 0 15 15" width="100%" height="30px" preserveAspectRatio="xMaxYMin meet">
         <g id="arrow_out" transform="scale(0.3 0.3)">
          <a xlink:href="classGUIAnalyzePointWindow_aa84ea9958e8b41423f01316d01ba5151_cgraph_org.svg" target="_base">
           <rect id="button" ry="5" rx="5" y="6" x="6" height="38" width="38"
                fill="#f2f5e9" fill-opacity="0.5" stroke="#606060" stroke-width="1.0"/>
           <path id="arrow"
             d="M 11.500037,31.436501 C 11.940474,20.09759 22.043105,11.32322 32.158766,21.979434 L 37.068811,17.246167 C 37.068811,17.246167 37.088388,32 37.088388,32 L 22.160133,31.978069 C 22.160133,31.978069 26.997745,27.140456 26.997745,27.140456 C 18.528582,18.264221 13.291696,25.230495 11.500037,31.436501 z"
             style="fill:#404040;"/>
          </a>
         </g>
        </svg>
</svg>
