<?xml version="1.0" encoding="UTF-8" standalone="no"?>
<!DOCTYPE svg PUBLIC "-//W3C//DTD SVG 1.1//EN"
 "http://www.w3.org/Graphics/SVG/1.1/DTD/svg11.dtd">
<!-- Generated by graphviz version 2.26.3 (20100126.1600)
 -->
<!-- Title: tetgenmesh::repairencfacs Pages: 1 -->
<svg width="1132pt" height="134pt"
 viewBox="0.00 0.00 1132.00 134.00" xmlns="http://www.w3.org/2000/svg" xmlns:xlink="http://www.w3.org/1999/xlink">
<g id="graph1" class="graph" transform="scale(1 1) rotate(0) translate(4 130)">
<title>tetgenmesh::repairencfacs</title>
<!-- Node1 -->
<g id="node1" class="node"><title>Node1</title>
<polygon fill="#bfbfbf" stroke="black" points="0,-46.5 0,-67.5 132,-67.5 132,-46.5 0,-46.5"/>
<text text-anchor="middle" x="66" y="-54.5" font-family="Helvetica,sans-Serif" font-size="10.00">tetgenmesh::repairencfacs</text>
</g>
<!-- Node2 -->
<g id="node3" class="node"><title>Node2</title>
<a xlink:href="classtetgenmesh.xhtml#aa752155eb1d18550a212dd40297f122e" target="_top" xlink:title="tetgenmesh::splittetrahedron">
<polygon fill="none" stroke="black" points="168,-66.5 168,-87.5 308,-87.5 308,-66.5 168,-66.5"/>
<text text-anchor="middle" x="238" y="-74.5" font-family="Helvetica,sans-Serif" font-size="10.00">tetgenmesh::splittetrahedron</text>
</a>
</g>
<!-- Node1&#45;&gt;Node2 -->
<g id="edge2" class="edge"><title>Node1&#45;&gt;Node2</title>
<path fill="none" stroke="midnightblue" d="M142.024,-65.84C150.626,-66.8403 159.364,-67.8563 167.886,-68.8472"/>
<polygon fill="midnightblue" stroke="midnightblue" points="142.345,-62.3538 132.008,-64.6753 141.537,-69.307 142.345,-62.3538"/>
</g>
<!-- Node4 -->
<g id="node7" class="node"><title>Node4</title>
<a xlink:href="classtetgenmesh.xhtml#a477bbfde72103de66546d4ea3343b4a1" target="_top" xlink:title="tetgenmesh::delaunayrefinement">
<polygon fill="none" stroke="black" points="510,-46.5 510,-67.5 668,-67.5 668,-46.5 510,-46.5"/>
<text text-anchor="middle" x="589" y="-54.5" font-family="Helvetica,sans-Serif" font-size="10.00">tetgenmesh::delaunayrefinement</text>
</a>
</g>
<!-- Node1&#45;&gt;Node4 -->
<g id="edge22" class="edge"><title>Node1&#45;&gt;Node4</title>
<path fill="none" stroke="midnightblue" d="M142.384,-57C240.53,-57 410.085,-57 509.647,-57"/>
<polygon fill="midnightblue" stroke="midnightblue" points="142.238,-53.5001 132.238,-57 142.238,-60.5001 142.238,-53.5001"/>
</g>
<!-- Node3 -->
<g id="node5" class="node"><title>Node3</title>
<a xlink:href="classtetgenmesh.xhtml#a7c46c82d83099214115fa9719aefbd78" target="_top" xlink:title="tetgenmesh::repairbadtets">
<polygon fill="none" stroke="black" points="344,-66.5 344,-87.5 474,-87.5 474,-66.5 344,-66.5"/>
<text text-anchor="middle" x="409" y="-74.5" font-family="Helvetica,sans-Serif" font-size="10.00">tetgenmesh::repairbadtets</text>
</a>
</g>
<!-- Node2&#45;&gt;Node3 -->
<g id="edge4" class="edge"><title>Node2&#45;&gt;Node3</title>
<path fill="none" stroke="midnightblue" d="M318.083,-77C326.679,-77 335.349,-77 343.742,-77"/>
<polygon fill="midnightblue" stroke="midnightblue" points="318.046,-73.5001 308.046,-77 318.046,-80.5001 318.046,-73.5001"/>
</g>
<!-- Node3&#45;&gt;Node4 -->
<g id="edge6" class="edge"><title>Node3&#45;&gt;Node4</title>
<path fill="none" stroke="midnightblue" d="M484.4,-68.6222C492.819,-67.6868 501.412,-66.7319 509.876,-65.7916"/>
<polygon fill="midnightblue" stroke="midnightblue" points="483.791,-65.1683 474.239,-69.7513 484.564,-72.1255 483.791,-65.1683"/>
</g>
<!-- Node5 -->
<g id="node9" class="node"><title>Node5</title>
<a xlink:href="tetgen_8h.xhtml#ad3637eb4ffe7fda90667e67b7771d964" target="_top" xlink:title="tetrahedralize">
<polygon fill="none" stroke="black" points="704.5,-46.5 704.5,-67.5 779.5,-67.5 779.5,-46.5 704.5,-46.5"/>
<text text-anchor="middle" x="742" y="-54.5" font-family="Helvetica,sans-Serif" font-size="10.00">tetrahedralize</text>
</a>
</g>
<!-- Node4&#45;&gt;Node5 -->
<g id="edge8" class="edge"><title>Node4&#45;&gt;Node5</title>
<path fill="none" stroke="midnightblue" d="M678.428,-57C687.428,-57 696.183,-57 704.174,-57"/>
<polygon fill="midnightblue" stroke="midnightblue" points="678.189,-53.5001 668.189,-57 678.189,-60.5001 678.189,-53.5001"/>
</g>
<!-- Node6 -->
<g id="node11" class="node"><title>Node6</title>
<a xlink:href="classGUICutRenderWindow.xhtml#a9eedb7088ad31f4680a77ed3a06fa60c" target="_top" xlink:title="Berechnet die 2D&#45;Temperaturverteilung als Grafik. ">
<polygon fill="none" stroke="black" points="818.5,-89 818.5,-123 935.5,-123 935.5,-89 818.5,-89"/>
<text text-anchor="start" x="826.5" y="-110" font-family="Helvetica,sans-Serif" font-size="10.00">GUICutRenderWindow</text>
<text text-anchor="middle" x="877" y="-97" font-family="Helvetica,sans-Serif" font-size="10.00">::renderImage</text>
</a>
</g>
<!-- Node5&#45;&gt;Node6 -->
<g id="edge10" class="edge"><title>Node5&#45;&gt;Node6</title>
<path fill="none" stroke="midnightblue" d="M780.675,-71.0375C796.063,-76.6228 813.912,-83.1014 830.034,-88.953"/>
<polygon fill="midnightblue" stroke="midnightblue" points="781.555,-67.6336 770.961,-67.5117 779.167,-74.2136 781.555,-67.6336"/>
</g>
<!-- Node8 -->
<g id="node15" class="node"><title>Node8</title>
<a xlink:href="classObjectData.xhtml#af3a850833d08eb9b45357449f455e24d" target="_top" xlink:title="Zerlegt das Objekt in Tetraeder (Schnittstelle zur Tetgen&#45;Bibliothek) und Berechnet die Temperaturver...">
<polygon fill="none" stroke="black" points="816,-46.5 816,-67.5 938,-67.5 938,-46.5 816,-46.5"/>
<text text-anchor="middle" x="877" y="-54.5" font-family="Helvetica,sans-Serif" font-size="10.00">ObjectData::calculateIO</text>
</a>
</g>
<!-- Node5&#45;&gt;Node8 -->
<g id="edge14" class="edge"><title>Node5&#45;&gt;Node8</title>
<path fill="none" stroke="midnightblue" d="M789.654,-57C798.112,-57 807.025,-57 815.795,-57"/>
<polygon fill="midnightblue" stroke="midnightblue" points="789.605,-53.5001 779.605,-57 789.605,-60.5001 789.605,-53.5001"/>
</g>
<!-- Node11 -->
<g id="node21" class="node"><title>Node11</title>
<a xlink:href="tetgen_8cxx.xhtml#a0ddf1224851353fc92bfbff6f499fa97" target="_top" xlink:title="main">
<polygon fill="none" stroke="black" points="858,-6.5 858,-27.5 896,-27.5 896,-6.5 858,-6.5"/>
<text text-anchor="middle" x="877" y="-14.5" font-family="Helvetica,sans-Serif" font-size="10.00">main</text>
</a>
</g>
<!-- Node5&#45;&gt;Node11 -->
<g id="edge20" class="edge"><title>Node5&#45;&gt;Node11</title>
<path fill="none" stroke="midnightblue" d="M787.154,-43.6209C811.267,-36.4764 839.668,-28.0613 857.984,-22.6343"/>
<polygon fill="midnightblue" stroke="midnightblue" points="786.063,-40.2937 777.47,-46.4905 788.052,-47.0053 786.063,-40.2937"/>
</g>
<!-- Node7 -->
<g id="node13" class="node"><title>Node7</title>
<a xlink:href="classGUICutRenderWindow.xhtml#a7cd1bfbec53756a1cbbe1616b4d46c7a" target="_top" xlink:title="Behandelt das Drücken des Buttons zur Berechnung der zweidimensionalen Temperaturverteilung. ">
<polygon fill="none" stroke="black" points="990.5,-92 990.5,-126 1107.5,-126 1107.5,-92 990.5,-92"/>
<text text-anchor="start" x="998.5" y="-113" font-family="Helvetica,sans-Serif" font-size="10.00">GUICutRenderWindow</text>
<text text-anchor="middle" x="1049" y="-100" font-family="Helvetica,sans-Serif" font-size="10.00">::renderCutBtClick</text>
</a>
</g>
<!-- Node6&#45;&gt;Node7 -->
<g id="edge12" class="edge"><title>Node6&#45;&gt;Node7</title>
<path fill="none" stroke="midnightblue" d="M945.777,-107.2C960.511,-107.457 975.948,-107.726 990.261,-107.975"/>
<polygon fill="midnightblue" stroke="midnightblue" points="945.771,-103.699 935.712,-107.024 945.649,-110.698 945.771,-103.699"/>
</g>
<!-- Node9 -->
<g id="node17" class="node"><title>Node9</title>
<a xlink:href="classGUIMainWindow.xhtml#a0c2de30274c7f52ff74ec1217e47a9e5" target="_top" xlink:title="Berechnet die 3D&#45;Temperaturverteilung neu. ">
<polygon fill="none" stroke="black" points="974,-40 974,-74 1124,-74 1124,-40 974,-40"/>
<text text-anchor="start" x="982" y="-61" font-family="Helvetica,sans-Serif" font-size="10.00">GUIMainWindow::OnRecalcBt</text>
<text text-anchor="middle" x="1049" y="-48" font-family="Helvetica,sans-Serif" font-size="10.00">Click</text>
</a>
</g>
<!-- Node8&#45;&gt;Node9 -->
<g id="edge16" class="edge"><title>Node8&#45;&gt;Node9</title>
<path fill="none" stroke="midnightblue" d="M948.316,-57C956.768,-57 965.415,-57 973.918,-57"/>
<polygon fill="midnightblue" stroke="midnightblue" points="948.125,-53.5001 938.125,-57 948.125,-60.5001 948.125,-53.5001"/>
</g>
<!-- Node10 -->
<g id="node19" class="node"><title>Node10</title>
<a xlink:href="classGUITimeline.xhtml#a099f3654aa6e7ea04df861851a0e9ec8" target="_top" xlink:title="Sucht den Zeitpunkt zwischen zwei markierten Stellen auf der Sensordaten&#45;Zeitleiste, für den der Wäremeenergiegehalt maximal wird. ">
<polygon fill="none" stroke="black" points="980.5,-0.5 980.5,-21.5 1117.5,-21.5 1117.5,-0.5 980.5,-0.5"/>
<text text-anchor="middle" x="1049" y="-8.5" font-family="Helvetica,sans-Serif" font-size="10.00">GUITimeline::findMaxValue</text>
</a>
</g>
<!-- Node8&#45;&gt;Node10 -->
<g id="edge18" class="edge"><title>Node8&#45;&gt;Node10</title>
<path fill="none" stroke="midnightblue" d="M925.997,-43.8537C941.363,-39.7343 958.387,-35.1741 974,-31 985.456,-27.9371 997.899,-24.6167 1009.3,-21.5777"/>
<polygon fill="midnightblue" stroke="midnightblue" points="924.923,-40.5181 916.17,-46.4885 926.735,-47.2793 924.923,-40.5181"/>
</g>
</g>
</svg>
