<?xml version="1.0" encoding="UTF-8" standalone="no"?>
<!DOCTYPE svg PUBLIC "-//W3C//DTD SVG 1.1//EN"
 "http://www.w3.org/Graphics/SVG/1.1/DTD/svg11.dtd">
<!-- Generated by graphviz version 2.26.3 (20100126.1600)
 -->
<!-- Title: GUIAnalyzePointWindow::analyzePoint Pages: 1 -->
<svg width="1134pt" height="1002pt"
 viewBox="0.00 0.00 1134.00 1002.00" xmlns="http://www.w3.org/2000/svg" xmlns:xlink="http://www.w3.org/1999/xlink">
<g id="graph1" class="graph" transform="scale(1 1) rotate(0) translate(4 998)">
<title>GUIAnalyzePointWindow::analyzePoint</title>
<!-- Node1 -->
<g id="node1" class="node"><title>Node1</title>
<polygon fill="#bfbfbf" stroke="black" points="0,-297 0,-331 128,-331 128,-297 0,-297"/>
<text text-anchor="start" x="8" y="-318" font-family="Helvetica,sans-Serif" font-size="10.00">GUIAnalyzePointWindow</text>
<text text-anchor="middle" x="64" y="-305" font-family="Helvetica,sans-Serif" font-size="10.00">::analyzePoint</text>
</g>
<!-- Node2 -->
<g id="node3" class="node"><title>Node2</title>
<a xlink:href="classInterpolator.xhtml#a2f9927fc580de7d2f94d85e6ca3ee3e3" target="_top" xlink:title="Interpolator::setMode">
<polygon fill="none" stroke="black" points="168.5,-972.5 168.5,-993.5 277.5,-993.5 277.5,-972.5 168.5,-972.5"/>
<text text-anchor="middle" x="223" y="-980.5" font-family="Helvetica,sans-Serif" font-size="10.00">Interpolator::setMode</text>
</a>
</g>
<!-- Node1&#45;&gt;Node2 -->
<g id="edge2" class="edge"><title>Node1&#45;&gt;Node2</title>
<path fill="none" stroke="midnightblue" d="M64.463,-331.168C67.2582,-423.022 84.5365,-856.04 164,-958 166.807,-961.602 170.231,-964.691 174.001,-967.34"/>
<polygon fill="midnightblue" stroke="midnightblue" points="172.311,-970.406 182.704,-972.463 175.862,-964.374 172.311,-970.406"/>
</g>
<!-- Node3 -->
<g id="node5" class="node"><title>Node3</title>
<a xlink:href="classAnalyzer.xhtml#a8f73ee0aa71ae395a74b43dc76b35458" target="_top" xlink:title="Analyzer::analyzePoint">
<polygon fill="none" stroke="black" points="164.5,-550.5 164.5,-571.5 281.5,-571.5 281.5,-550.5 164.5,-550.5"/>
<text text-anchor="middle" x="223" y="-558.5" font-family="Helvetica,sans-Serif" font-size="10.00">Analyzer::analyzePoint</text>
</a>
</g>
<!-- Node1&#45;&gt;Node3 -->
<g id="edge4" class="edge"><title>Node1&#45;&gt;Node3</title>
<path fill="none" stroke="midnightblue" d="M75.1806,-331.369C104.014,-376.16 180.726,-495.328 210.728,-541.936"/>
<polygon fill="midnightblue" stroke="midnightblue" points="207.877,-543.974 216.233,-550.488 213.763,-540.185 207.877,-543.974"/>
</g>
<!-- Node9 -->
<g id="node17" class="node"><title>Node9</title>
<a xlink:href="classVector3D.xhtml#aa9eaf29045bf32b95c5c7bcb2b8b68d7" target="_top" xlink:title="Vector3D::getX">
<polygon fill="none" stroke="black" points="1030,-728.5 1030,-749.5 1114,-749.5 1114,-728.5 1030,-728.5"/>
<text text-anchor="middle" x="1072" y="-736.5" font-family="Helvetica,sans-Serif" font-size="10.00">Vector3D::getX</text>
</a>
</g>
<!-- Node1&#45;&gt;Node9 -->
<g id="edge126" class="edge"><title>Node1&#45;&gt;Node9</title>
<path fill="none" stroke="midnightblue" d="M64.7045,-331.178C69.835,-432.148 109.903,-944 395,-944 395,-944 395,-944 747,-944 858.067,-944 892.727,-925.077 982,-859 1018.94,-831.662 1047.71,-784.997 1062.03,-758.638"/>
<polygon fill="midnightblue" stroke="midnightblue" points="1065.22,-760.09 1066.8,-749.613 1059.03,-756.821 1065.22,-760.09"/>
</g>
<!-- Node10 -->
<g id="node19" class="node"><title>Node10</title>
<a xlink:href="classVector3D.xhtml#aa3ffff17b886274a58417dfe4bb4c4a2" target="_top" xlink:title="Vector3D::getY">
<polygon fill="none" stroke="black" points="1030,-628.5 1030,-649.5 1114,-649.5 1114,-628.5 1030,-628.5"/>
<text text-anchor="middle" x="1072" y="-636.5" font-family="Helvetica,sans-Serif" font-size="10.00">Vector3D::getY</text>
</a>
</g>
<!-- Node1&#45;&gt;Node10 -->
<g id="edge128" class="edge"><title>Node1&#45;&gt;Node10</title>
<path fill="none" stroke="midnightblue" d="M65.3831,-296.792C70.0151,-251.681 89.2221,-129.648 164,-74 246.806,-12.3774 291.781,-50 395,-50 395,-50 395,-50 747,-50 851.988,-50 905.706,-1.87721 982,-74 1022.62,-112.397 1061.39,-520.063 1070.16,-617.955"/>
<polygon fill="midnightblue" stroke="midnightblue" points="1066.69,-618.432 1071.06,-628.084 1073.66,-617.813 1066.69,-618.432"/>
</g>
<!-- Node11 -->
<g id="node21" class="node"><title>Node11</title>
<a xlink:href="classVector3D.xhtml#ab0dcbf253ff78856eccb5ea74d080fc7" target="_top" xlink:title="Vector3D::getZ">
<polygon fill="none" stroke="black" points="1030.5,-668.5 1030.5,-689.5 1113.5,-689.5 1113.5,-668.5 1030.5,-668.5"/>
<text text-anchor="middle" x="1072" y="-676.5" font-family="Helvetica,sans-Serif" font-size="10.00">Vector3D::getZ</text>
</a>
</g>
<!-- Node1&#45;&gt;Node11 -->
<g id="edge130" class="edge"><title>Node1&#45;&gt;Node11</title>
<path fill="none" stroke="midnightblue" d="M76.6155,-296.641C116.681,-243.721 247.137,-88 395,-88 395,-88 395,-88 747,-88 935.068,-88 953.271,-371.157 982,-459 1010.08,-544.843 960.017,-589.753 1018,-659 1019.17,-660.396 1020.45,-661.695 1021.81,-662.904"/>
<polygon fill="midnightblue" stroke="midnightblue" points="1020.19,-666.044 1030.4,-668.88 1024.19,-660.297 1020.19,-666.044"/>
</g>
<!-- Node34 -->
<g id="node96" class="node"><title>Node34</title>
<a xlink:href="namespaceUtils.xhtml#a233ff9a0b34b10195a434f1ff66323b8" target="_top" xlink:title="Utils::floattowxstr">
<polygon fill="none" stroke="black" points="176,-0.5 176,-21.5 270,-21.5 270,-0.5 176,-0.5"/>
<text text-anchor="middle" x="223" y="-8.5" font-family="Helvetica,sans-Serif" font-size="10.00">Utils::floattowxstr</text>
</a>
</g>
<!-- Node1&#45;&gt;Node34 -->
<g id="edge124" class="edge"><title>Node1&#45;&gt;Node34</title>
<path fill="none" stroke="midnightblue" d="M65.4601,-296.863C70.3939,-249.237 90.5071,-113.689 164,-36 167.541,-32.2572 171.731,-29.0505 176.22,-26.3083"/>
<polygon fill="midnightblue" stroke="midnightblue" points="177.932,-29.3627 185.13,-21.5887 174.655,-23.177 177.932,-29.3627"/>
</g>
<!-- Node4 -->
<g id="node7" class="node"><title>Node4</title>
<a xlink:href="classObjectData.xhtml#a72ac93213382f67b4d5b40c011eb1656" target="_top" xlink:title="ObjectData::getSensorDataList">
<polygon fill="none" stroke="black" points="318.5,-550.5 318.5,-571.5 471.5,-571.5 471.5,-550.5 318.5,-550.5"/>
<text text-anchor="middle" x="395" y="-558.5" font-family="Helvetica,sans-Serif" font-size="10.00">ObjectData::getSensorDataList</text>
</a>
</g>
<!-- Node3&#45;&gt;Node4 -->
<g id="edge6" class="edge"><title>Node3&#45;&gt;Node4</title>
<path fill="none" stroke="midnightblue" d="M281.712,-561C290.267,-561 299.225,-561 308.194,-561"/>
<polygon fill="midnightblue" stroke="midnightblue" points="308.305,-564.5 318.305,-561 308.305,-557.5 308.305,-564.5"/>
</g>
<!-- Node5 -->
<g id="node9" class="node"><title>Node5</title>
<a xlink:href="classObjectData.xhtml#a503d63160a3afe2ea517449f78f8ac42" target="_top" xlink:title="ObjectData::getCurrentSensor\lIndex">
<polygon fill="none" stroke="black" points="320.5,-630 320.5,-664 469.5,-664 469.5,-630 320.5,-630"/>
<text text-anchor="start" x="328.5" y="-651" font-family="Helvetica,sans-Serif" font-size="10.00">ObjectData::getCurrentSensor</text>
<text text-anchor="middle" x="395" y="-638" font-family="Helvetica,sans-Serif" font-size="10.00">Index</text>
</a>
</g>
<!-- Node3&#45;&gt;Node5 -->
<g id="edge8" class="edge"><title>Node3&#45;&gt;Node5</title>
<path fill="none" stroke="midnightblue" d="M237.504,-571.708C255.614,-584.704 287.884,-606.657 318,-621 321.798,-622.809 325.755,-624.549 329.784,-626.212"/>
<polygon fill="midnightblue" stroke="midnightblue" points="328.684,-629.54 339.271,-629.947 331.248,-623.027 328.684,-629.54"/>
</g>
<!-- Node6 -->
<g id="node11" class="node"><title>Node6</title>
<a xlink:href="namespaceUtils.xhtml#a6a0ae18a42e2d206bc1b43da27820fe2" target="_top" xlink:title="Utils::getPointValue">
<polygon fill="none" stroke="black" points="343,-510.5 343,-531.5 447,-531.5 447,-510.5 343,-510.5"/>
<text text-anchor="middle" x="395" y="-518.5" font-family="Helvetica,sans-Serif" font-size="10.00">Utils::getPointValue</text>
</a>
</g>
<!-- Node3&#45;&gt;Node6 -->
<g id="edge10" class="edge"><title>Node3&#45;&gt;Node6</title>
<path fill="none" stroke="midnightblue" d="M268.191,-550.49C290.127,-545.389 316.673,-539.215 339.798,-533.838"/>
<polygon fill="midnightblue" stroke="midnightblue" points="340.865,-537.183 349.813,-531.509 339.28,-530.365 340.865,-537.183"/>
</g>
<!-- Node33 -->
<g id="node94" class="node"><title>Node33</title>
<a xlink:href="classVector3D.xhtml#a89aeff2092d6a954cd449aca97c59197" target="_top" xlink:title="Vector3D::getXYZ">
<polygon fill="none" stroke="black" points="346.5,-590.5 346.5,-611.5 443.5,-611.5 443.5,-590.5 346.5,-590.5"/>
<text text-anchor="middle" x="395" y="-598.5" font-family="Helvetica,sans-Serif" font-size="10.00">Vector3D::getXYZ</text>
</a>
</g>
<!-- Node3&#45;&gt;Node33 -->
<g id="edge122" class="edge"><title>Node3&#45;&gt;Node33</title>
<path fill="none" stroke="midnightblue" d="M268.191,-571.51C290.127,-576.611 316.673,-582.785 339.798,-588.162"/>
<polygon fill="midnightblue" stroke="midnightblue" points="339.28,-591.635 349.813,-590.491 340.865,-584.817 339.28,-591.635"/>
</g>
<!-- Node7 -->
<g id="node13" class="node"><title>Node7</title>
<a xlink:href="namespaceUtils.xhtml#a9b995a1220a78be108b19bda4b776332" target="_top" xlink:title="Utils::pointInsideTetrahedron">
<polygon fill="none" stroke="black" points="676,-666.5 676,-687.5 818,-687.5 818,-666.5 676,-666.5"/>
<text text-anchor="middle" x="747" y="-674.5" font-family="Helvetica,sans-Serif" font-size="10.00">Utils::pointInsideTetrahedron</text>
</a>
</g>
<!-- Node6&#45;&gt;Node7 -->
<g id="edge12" class="edge"><title>Node6&#45;&gt;Node7</title>
<path fill="none" stroke="midnightblue" d="M447.221,-523.094C510.158,-526.623 611.078,-535.81 640,-559 674.256,-586.467 644.613,-620.295 676,-651 680.495,-655.398 685.794,-659.06 691.439,-662.108"/>
<polygon fill="midnightblue" stroke="midnightblue" points="689.992,-665.295 700.528,-666.41 692.987,-658.968 689.992,-665.295"/>
</g>
<!-- Node16 -->
<g id="node37" class="node"><title>Node16</title>
<a xlink:href="namespaceUtils.xhtml#af4ba26e928c7cef5269c51bfac49d547" target="_top" xlink:title="Utils::nextCombination">
<polygon fill="none" stroke="black" points="516,-568.5 516,-589.5 632,-589.5 632,-568.5 516,-568.5"/>
<text text-anchor="middle" x="574" y="-576.5" font-family="Helvetica,sans-Serif" font-size="10.00">Utils::nextCombination</text>
</a>
</g>
<!-- Node6&#45;&gt;Node16 -->
<g id="edge42" class="edge"><title>Node6&#45;&gt;Node16</title>
<path fill="none" stroke="midnightblue" d="M438.794,-531.545C449.704,-534.399 461.33,-537.637 472,-541 478.521,-543.056 510.269,-554.932 536.636,-564.868"/>
<polygon fill="midnightblue" stroke="midnightblue" points="535.458,-568.165 546.05,-568.419 537.929,-561.615 535.458,-568.165"/>
</g>
<!-- Node17 -->
<g id="node40" class="node"><title>Node17</title>
<a xlink:href="classInterpolator.xhtml#a30e714ca6dff9b5745d029f95af1420a" target="_top" xlink:title="Interpolator::interpolateTet">
<polygon fill="none" stroke="black" points="508.5,-490.5 508.5,-511.5 639.5,-511.5 639.5,-490.5 508.5,-490.5"/>
<text text-anchor="middle" x="574" y="-498.5" font-family="Helvetica,sans-Serif" font-size="10.00">Interpolator::interpolateTet</text>
</a>
</g>
<!-- Node6&#45;&gt;Node17 -->
<g id="edge46" class="edge"><title>Node6&#45;&gt;Node17</title>
<path fill="none" stroke="midnightblue" d="M447.255,-515.161C463.214,-513.378 481.095,-511.38 498.282,-509.46"/>
<polygon fill="midnightblue" stroke="midnightblue" points="498.751,-512.93 508.301,-508.341 497.974,-505.973 498.751,-512.93"/>
</g>
<!-- Node8 -->
<g id="node15" class="node"><title>Node8</title>
<a xlink:href="classVector3D.xhtml#a02364a41693ac080f5adadd776df74b4" target="_top" xlink:title="Vector3D::sub">
<polygon fill="none" stroke="black" points="878,-668.5 878,-689.5 958,-689.5 958,-668.5 878,-668.5"/>
<text text-anchor="middle" x="918" y="-676.5" font-family="Helvetica,sans-Serif" font-size="10.00">Vector3D::sub</text>
</a>
</g>
<!-- Node7&#45;&gt;Node8 -->
<g id="edge14" class="edge"><title>Node7&#45;&gt;Node8</title>
<path fill="none" stroke="midnightblue" d="M818.034,-677.831C834.585,-678.024 851.882,-678.227 867.344,-678.408"/>
<polygon fill="midnightblue" stroke="midnightblue" points="867.684,-681.912 877.724,-678.529 867.766,-674.912 867.684,-681.912"/>
</g>
<!-- Node12 -->
<g id="node23" class="node"><title>Node12</title>
<a xlink:href="classVector3D.xhtml#a482cd77ce44ea7dd71fd7a43cb7b1cf5" target="_top" xlink:title="Vector3D::crossProduct">
<polygon fill="none" stroke="black" points="857,-628.5 857,-649.5 979,-649.5 979,-628.5 857,-628.5"/>
<text text-anchor="middle" x="918" y="-636.5" font-family="Helvetica,sans-Serif" font-size="10.00">Vector3D::crossProduct</text>
</a>
</g>
<!-- Node7&#45;&gt;Node12 -->
<g id="edge22" class="edge"><title>Node7&#45;&gt;Node12</title>
<path fill="none" stroke="midnightblue" d="M794.633,-666.415C815.108,-661.865 839.214,-656.508 860.659,-651.743"/>
<polygon fill="midnightblue" stroke="midnightblue" points="861.62,-655.114 870.622,-649.528 860.101,-648.281 861.62,-655.114"/>
</g>
<!-- Node13 -->
<g id="node28" class="node"><title>Node13</title>
<a xlink:href="classVector3D.xhtml#a0808a8e6004a347d82f9214778b5968f" target="_top" xlink:title="Vector3D::dotProduct">
<polygon fill="none" stroke="black" points="862.5,-548.5 862.5,-569.5 973.5,-569.5 973.5,-548.5 862.5,-548.5"/>
<text text-anchor="middle" x="918" y="-556.5" font-family="Helvetica,sans-Serif" font-size="10.00">Vector3D::dotProduct</text>
</a>
</g>
<!-- Node7&#45;&gt;Node13 -->
<g id="edge30" class="edge"><title>Node7&#45;&gt;Node13</title>
<path fill="none" stroke="midnightblue" d="M761.139,-666.479C775.862,-655.292 799.337,-636.791 818,-619 835.312,-602.497 833.869,-591.915 854,-579 857.123,-576.996 860.461,-575.182 863.911,-573.54"/>
<polygon fill="midnightblue" stroke="midnightblue" points="865.396,-576.712 873.237,-569.586 862.664,-570.267 865.396,-576.712"/>
</g>
<!-- Node14 -->
<g id="node33" class="node"><title>Node14</title>
<a xlink:href="classVector3D.xhtml#a3dec11494c99de7370e3877054c3ef13" target="_top" xlink:title="Vector3D::mult">
<polygon fill="none" stroke="black" points="876.5,-708.5 876.5,-729.5 959.5,-729.5 959.5,-708.5 876.5,-708.5"/>
<text text-anchor="middle" x="918" y="-716.5" font-family="Helvetica,sans-Serif" font-size="10.00">Vector3D::mult</text>
</a>
</g>
<!-- Node7&#45;&gt;Node14 -->
<g id="edge38" class="edge"><title>Node7&#45;&gt;Node14</title>
<path fill="none" stroke="midnightblue" d="M790.151,-687.598C813.369,-693.301 842.161,-700.373 866.54,-706.361"/>
<polygon fill="midnightblue" stroke="midnightblue" points="865.793,-709.781 876.34,-708.768 867.463,-702.983 865.793,-709.781"/>
</g>
<!-- Node15 -->
<g id="node35" class="node"><title>Node15</title>
<a xlink:href="classVector3D.xhtml#a46dd0d9a849809a3857783102959e788" target="_top" xlink:title="Vector3D::copy">
<polygon fill="none" stroke="black" points="875.5,-588.5 875.5,-609.5 960.5,-609.5 960.5,-588.5 875.5,-588.5"/>
<text text-anchor="middle" x="918" y="-596.5" font-family="Helvetica,sans-Serif" font-size="10.00">Vector3D::copy</text>
</a>
</g>
<!-- Node7&#45;&gt;Node15 -->
<g id="edge40" class="edge"><title>Node7&#45;&gt;Node15</title>
<path fill="none" stroke="midnightblue" d="M763.911,-666.495C784.584,-653.971 820.912,-632.982 854,-619 859.16,-616.819 864.642,-614.752 870.143,-612.832"/>
<polygon fill="midnightblue" stroke="midnightblue" points="871.62,-616.029 879.997,-609.543 869.404,-609.389 871.62,-616.029"/>
</g>
<!-- Node8&#45;&gt;Node9 -->
<g id="edge16" class="edge"><title>Node8&#45;&gt;Node9</title>
<path fill="none" stroke="midnightblue" d="M954.464,-689.597C963.53,-692.45 973.177,-695.673 982,-699 1001.79,-706.463 1023.48,-716.055 1040.6,-723.975"/>
<polygon fill="midnightblue" stroke="midnightblue" points="1039.56,-727.354 1050.1,-728.416 1042.53,-721.012 1039.56,-727.354"/>
</g>
<!-- Node8&#45;&gt;Node10 -->
<g id="edge18" class="edge"><title>Node8&#45;&gt;Node10</title>
<path fill="none" stroke="midnightblue" d="M958.06,-668.595C977.436,-663.562 1000.9,-657.467 1021.49,-652.119"/>
<polygon fill="midnightblue" stroke="midnightblue" points="1022.54,-655.463 1031.34,-649.562 1020.78,-648.688 1022.54,-655.463"/>
</g>
<!-- Node8&#45;&gt;Node11 -->
<g id="edge20" class="edge"><title>Node8&#45;&gt;Node11</title>
<path fill="none" stroke="midnightblue" d="M958.06,-679C977.043,-679 999.953,-679 1020.24,-679"/>
<polygon fill="midnightblue" stroke="midnightblue" points="1020.26,-682.5 1030.26,-679 1020.26,-675.5 1020.26,-682.5"/>
</g>
<!-- Node12&#45;&gt;Node9 -->
<g id="edge28" class="edge"><title>Node12&#45;&gt;Node9</title>
<path fill="none" stroke="midnightblue" d="M962.763,-649.586C969.483,-652.126 976.121,-655.228 982,-659 1002.13,-671.915 1000.3,-682.912 1018,-699 1027.12,-707.291 1037.91,-715.552 1047.44,-722.395"/>
<polygon fill="midnightblue" stroke="midnightblue" points="1045.56,-725.351 1055.75,-728.242 1049.59,-719.626 1045.56,-725.351"/>
</g>
<!-- Node12&#45;&gt;Node10 -->
<g id="edge26" class="edge"><title>Node12&#45;&gt;Node10</title>
<path fill="none" stroke="midnightblue" d="M979.307,-639C992.677,-639 1006.71,-639 1019.69,-639"/>
<polygon fill="midnightblue" stroke="midnightblue" points="1019.84,-642.5 1029.84,-639 1019.84,-635.5 1019.84,-642.5"/>
</g>
<!-- Node12&#45;&gt;Node11 -->
<g id="edge24" class="edge"><title>Node12&#45;&gt;Node11</title>
<path fill="none" stroke="midnightblue" d="M958.462,-649.51C977.838,-654.542 1001.23,-660.619 1021.74,-665.945"/>
<polygon fill="midnightblue" stroke="midnightblue" points="1020.98,-669.365 1031.54,-668.491 1022.74,-662.59 1020.98,-669.365"/>
</g>
<!-- Node13&#45;&gt;Node9 -->
<g id="edge32" class="edge"><title>Node13&#45;&gt;Node9</title>
<path fill="none" stroke="midnightblue" d="M968.943,-569.607C973.757,-572.107 978.235,-575.192 982,-579 1021.15,-618.597 985.995,-653.436 1018,-699 1024.61,-708.405 1034.13,-716.495 1043.34,-722.89"/>
<polygon fill="midnightblue" stroke="midnightblue" points="1041.67,-725.983 1051.97,-728.488 1045.48,-720.11 1041.67,-725.983"/>
</g>
<!-- Node13&#45;&gt;Node10 -->
<g id="edge34" class="edge"><title>Node13&#45;&gt;Node10</title>
<path fill="none" stroke="midnightblue" d="M957.938,-569.547C966.065,-572.227 974.436,-575.389 982,-579 1006.82,-590.851 1032.7,-608.782 1050.3,-621.956"/>
<polygon fill="midnightblue" stroke="midnightblue" points="1048.63,-625.08 1058.7,-628.355 1052.87,-619.511 1048.63,-625.08"/>
</g>
<!-- Node13&#45;&gt;Node11 -->
<g id="edge36" class="edge"><title>Node13&#45;&gt;Node11</title>
<path fill="none" stroke="midnightblue" d="M967.169,-569.508C972.55,-572.022 977.645,-575.138 982,-579 1011.17,-604.868 989.507,-632.385 1018,-659 1019.66,-660.553 1021.46,-661.987 1023.34,-663.312"/>
<polygon fill="midnightblue" stroke="midnightblue" points="1021.72,-666.415 1032.11,-668.45 1025.25,-660.375 1021.72,-666.415"/>
</g>
<!-- Node16&#45;&gt;Node16 -->
<g id="edge44" class="edge"><title>Node16&#45;&gt;Node16</title>
<path fill="none" stroke="midnightblue" d="M546.671,-589.708C534.992,-598.653 544.102,-608 574,-608 593.621,-608 604.289,-603.975 606.004,-598.679"/>
<polygon fill="midnightblue" stroke="midnightblue" points="609.054,-596.959 601.329,-589.708 602.846,-600.194 609.054,-596.959"/>
</g>
<!-- Node17&#45;&gt;Node8 -->
<g id="edge68" class="edge"><title>Node17&#45;&gt;Node8</title>
<path fill="none" stroke="midnightblue" d="M590.919,-511.562C606.014,-521.857 627.591,-538.874 640,-559 673.266,-612.955 625.84,-658.247 676,-697 704.896,-719.325 805.622,-703.162 867.65,-690.398"/>
<polygon fill="midnightblue" stroke="midnightblue" points="868.561,-693.783 877.63,-688.305 867.125,-686.932 868.561,-693.783"/>
</g>
<!-- Node17&#45;&gt;Node12 -->
<g id="edge102" class="edge"><title>Node17&#45;&gt;Node12</title>
<path fill="none" stroke="midnightblue" d="M617.572,-511.547C625.78,-515.088 633.739,-519.785 640,-526 671.454,-557.227 640.501,-592.461 676,-619 727.228,-657.298 802.737,-657.225 855.751,-650.812"/>
<polygon fill="midnightblue" stroke="midnightblue" points="856.251,-654.276 865.709,-649.501 855.338,-647.336 856.251,-654.276"/>
</g>
<!-- Node17&#45;&gt;Node13 -->
<g id="edge86" class="edge"><title>Node17&#45;&gt;Node13</title>
<path fill="none" stroke="midnightblue" d="M576.224,-490.211C586.228,-442.837 628.636,-254.155 676,-221 727.703,-184.808 770.931,-178.959 818,-221 871.041,-268.375 808.713,-484.165 854,-539 854.973,-540.178 856.014,-541.288 857.115,-542.333"/>
<polygon fill="midnightblue" stroke="midnightblue" points="855.029,-545.144 865.13,-548.341 859.227,-539.543 855.029,-545.144"/>
</g>
<!-- Node17&#45;&gt;Node14 -->
<g id="edge88" class="edge"><title>Node17&#45;&gt;Node14</title>
<path fill="none" stroke="midnightblue" d="M591.354,-511.676C606.53,-521.932 627.97,-538.823 640,-559 676.66,-620.49 620.285,-671.047 676,-716 732.987,-761.979 824.531,-746.749 877.176,-732.338"/>
<polygon fill="midnightblue" stroke="midnightblue" points="878.194,-735.687 886.85,-729.578 876.274,-728.955 878.194,-735.687"/>
</g>
<!-- Node17&#45;&gt;Node15 -->
<g id="edge66" class="edge"><title>Node17&#45;&gt;Node15</title>
<path fill="none" stroke="midnightblue" d="M602.342,-511.503C614.035,-515.897 627.703,-521.111 640,-526 656.107,-532.404 659.52,-535.63 676,-541 740.178,-561.913 816.157,-578.903 865.629,-588.968"/>
<polygon fill="midnightblue" stroke="midnightblue" points="864.969,-592.406 875.463,-590.949 866.351,-585.544 864.969,-592.406"/>
</g>
<!-- Node18 -->
<g id="node42" class="node"><title>Node18</title>
<a xlink:href="classVector3D.xhtml#ac83e936757114f32bc9d868ea5fabbc2" target="_top" xlink:title="Vector3D::equals">
<polygon fill="none" stroke="black" points="872,-468.5 872,-489.5 964,-489.5 964,-468.5 872,-468.5"/>
<text text-anchor="middle" x="918" y="-476.5" font-family="Helvetica,sans-Serif" font-size="10.00">Vector3D::equals</text>
</a>
</g>
<!-- Node17&#45;&gt;Node18 -->
<g id="edge48" class="edge"><title>Node17&#45;&gt;Node18</title>
<path fill="none" stroke="midnightblue" d="M575.439,-490.324C582.903,-436.693 619.075,-197.566 676,-155 726.543,-117.206 767.218,-117.528 818,-155 868.599,-192.337 904.389,-393.005 914.848,-458.39"/>
<polygon fill="midnightblue" stroke="midnightblue" points="911.399,-458.985 916.407,-468.322 918.314,-457.9 911.399,-458.985"/>
</g>
<!-- Node19 -->
<g id="node47" class="node"><title>Node19</title>
<a xlink:href="classTetrahedron.xhtml#a88afe41ae5991168ad51ba4dbb2e1a6b" target="_top" xlink:title="Tetrahedron::getVert">
<polygon fill="none" stroke="black" points="694,-510.5 694,-531.5 800,-531.5 800,-510.5 694,-510.5"/>
<text text-anchor="middle" x="747" y="-518.5" font-family="Helvetica,sans-Serif" font-size="10.00">Tetrahedron::getVert</text>
</a>
</g>
<!-- Node17&#45;&gt;Node19 -->
<g id="edge56" class="edge"><title>Node17&#45;&gt;Node19</title>
<path fill="none" stroke="midnightblue" d="M639.897,-508.618C654.266,-510.279 669.44,-512.034 683.705,-513.683"/>
<polygon fill="midnightblue" stroke="midnightblue" points="683.571,-517.19 693.907,-514.862 684.375,-510.237 683.571,-517.19"/>
</g>
<!-- Node20 -->
<g id="node49" class="node"><title>Node20</title>
<a xlink:href="classTetrahedron.xhtml#add51e42ab17afbd023d47a436ce24b0d" target="_top" xlink:title="Tetrahedron::getV1">
<polygon fill="none" stroke="black" points="697,-470.5 697,-491.5 797,-491.5 797,-470.5 697,-470.5"/>
<text text-anchor="middle" x="747" y="-478.5" font-family="Helvetica,sans-Serif" font-size="10.00">Tetrahedron::getV1</text>
</a>
</g>
<!-- Node17&#45;&gt;Node20 -->
<g id="edge58" class="edge"><title>Node17&#45;&gt;Node20</title>
<path fill="none" stroke="midnightblue" d="M639.897,-493.382C655.259,-491.606 671.541,-489.724 686.648,-487.977"/>
<polygon fill="midnightblue" stroke="midnightblue" points="687.362,-491.418 696.894,-486.793 686.558,-484.464 687.362,-491.418"/>
</g>
<!-- Node21 -->
<g id="node51" class="node"><title>Node21</title>
<a xlink:href="classTetrahedron.xhtml#aa728c967f17e2b8408009b5f2b77a17a" target="_top" xlink:title="Tetrahedron::getV2">
<polygon fill="none" stroke="black" points="697,-430.5 697,-451.5 797,-451.5 797,-430.5 697,-430.5"/>
<text text-anchor="middle" x="747" y="-438.5" font-family="Helvetica,sans-Serif" font-size="10.00">Tetrahedron::getV2</text>
</a>
</g>
<!-- Node17&#45;&gt;Node21 -->
<g id="edge60" class="edge"><title>Node17&#45;&gt;Node21</title>
<path fill="none" stroke="midnightblue" d="M598.896,-490.437C619.393,-481.935 649.315,-469.966 676,-461 682.843,-458.701 690.116,-456.444 697.297,-454.323"/>
<polygon fill="midnightblue" stroke="midnightblue" points="698.348,-457.662 706.983,-451.523 696.404,-450.938 698.348,-457.662"/>
</g>
<!-- Node22 -->
<g id="node53" class="node"><title>Node22</title>
<a xlink:href="classTetrahedron.xhtml#aa539a97f133ea621520121acb2ef4a7e" target="_top" xlink:title="Tetrahedron::getV3">
<polygon fill="none" stroke="black" points="697,-390.5 697,-411.5 797,-411.5 797,-390.5 697,-390.5"/>
<text text-anchor="middle" x="747" y="-398.5" font-family="Helvetica,sans-Serif" font-size="10.00">Tetrahedron::getV3</text>
</a>
</g>
<!-- Node17&#45;&gt;Node22 -->
<g id="edge62" class="edge"><title>Node17&#45;&gt;Node22</title>
<path fill="none" stroke="midnightblue" d="M584.619,-490.302C602.141,-473.234 638.877,-439.85 676,-421 680.339,-418.797 684.954,-416.807 689.668,-415.016"/>
<polygon fill="midnightblue" stroke="midnightblue" points="691.136,-418.211 699.426,-411.613 688.831,-411.601 691.136,-418.211"/>
</g>
<!-- Node23 -->
<g id="node55" class="node"><title>Node23</title>
<a xlink:href="classTriangle.xhtml#a6de5f8560482f4130bdbb96b25aa1b58" target="_top" xlink:title="Triangle::getV2">
<polygon fill="none" stroke="black" points="705.5,-350.5 705.5,-371.5 788.5,-371.5 788.5,-350.5 705.5,-350.5"/>
<text text-anchor="middle" x="747" y="-358.5" font-family="Helvetica,sans-Serif" font-size="10.00">Triangle::getV2</text>
</a>
</g>
<!-- Node17&#45;&gt;Node23 -->
<g id="edge64" class="edge"><title>Node17&#45;&gt;Node23</title>
<path fill="none" stroke="midnightblue" d="M580.107,-490.172C593.971,-466.596 630.204,-410.382 676,-381 682.076,-377.101 688.92,-373.95 695.897,-371.406"/>
<polygon fill="midnightblue" stroke="midnightblue" points="697.012,-374.724 705.436,-368.3 694.844,-368.068 697.012,-374.724"/>
</g>
<!-- Node24 -->
<g id="node59" class="node"><title>Node24</title>
<a xlink:href="classTriangle.xhtml#ae054a0eae5dae026c5af69274c5f277e" target="_top" xlink:title="Triangle::getV1">
<polygon fill="none" stroke="black" points="705.5,-310.5 705.5,-331.5 788.5,-331.5 788.5,-310.5 705.5,-310.5"/>
<text text-anchor="middle" x="747" y="-318.5" font-family="Helvetica,sans-Serif" font-size="10.00">Triangle::getV1</text>
</a>
</g>
<!-- Node17&#45;&gt;Node24 -->
<g id="edge70" class="edge"><title>Node17&#45;&gt;Node24</title>
<path fill="none" stroke="midnightblue" d="M577.764,-490.128C588.355,-461.178 621.261,-381.664 676,-341 681.866,-336.642 688.645,-333.234 695.637,-330.567"/>
<polygon fill="midnightblue" stroke="midnightblue" points="696.857,-333.85 705.24,-327.372 694.647,-327.208 696.857,-333.85"/>
</g>
<!-- Node25 -->
<g id="node61" class="node"><title>Node25</title>
<a xlink:href="classTriangle.xhtml#a792a627dc42adad87c0b30e16a6b5824" target="_top" xlink:title="Triangle::getV3">
<polygon fill="none" stroke="black" points="705.5,-270.5 705.5,-291.5 788.5,-291.5 788.5,-270.5 705.5,-270.5"/>
<text text-anchor="middle" x="747" y="-278.5" font-family="Helvetica,sans-Serif" font-size="10.00">Triangle::getV3</text>
</a>
</g>
<!-- Node17&#45;&gt;Node25 -->
<g id="edge72" class="edge"><title>Node17&#45;&gt;Node25</title>
<path fill="none" stroke="midnightblue" d="M576.233,-490.423C583.822,-457.141 611.805,-353.646 676,-301 681.718,-296.31 688.47,-292.719 695.498,-289.968"/>
<polygon fill="midnightblue" stroke="midnightblue" points="696.816,-293.218 705.181,-286.715 694.587,-286.582 696.816,-293.218"/>
</g>
<!-- Node26 -->
<g id="node63" class="node"><title>Node26</title>
<a xlink:href="classTetrahedron.xhtml#a7308b7b73edeba7782dff551a03095bf" target="_top" xlink:title="Tetrahedron::getV4">
<polygon fill="none" stroke="black" points="697,-230.5 697,-251.5 797,-251.5 797,-230.5 697,-230.5"/>
<text text-anchor="middle" x="747" y="-238.5" font-family="Helvetica,sans-Serif" font-size="10.00">Tetrahedron::getV4</text>
</a>
</g>
<!-- Node17&#45;&gt;Node26 -->
<g id="edge74" class="edge"><title>Node17&#45;&gt;Node26</title>
<path fill="none" stroke="midnightblue" d="M575.281,-490.247C580.343,-452.636 602.423,-325.76 676,-261 679.446,-257.967 683.318,-255.392 687.431,-253.205"/>
<polygon fill="midnightblue" stroke="midnightblue" points="689.063,-256.308 696.744,-249.011 686.189,-249.925 689.063,-256.308"/>
</g>
<!-- Node27 -->
<g id="node65" class="node"><title>Node27</title>
<a xlink:href="classTriangle.xhtml#a3c72b19f316fa9ffb0a2f206e3558790" target="_top" xlink:title="Triangle::getNormal">
<polygon fill="none" stroke="black" points="696,-588.5 696,-609.5 798,-609.5 798,-588.5 696,-588.5"/>
<text text-anchor="middle" x="747" y="-596.5" font-family="Helvetica,sans-Serif" font-size="10.00">Triangle::getNormal</text>
</a>
</g>
<!-- Node17&#45;&gt;Node27 -->
<g id="edge76" class="edge"><title>Node17&#45;&gt;Node27</title>
<path fill="none" stroke="midnightblue" d="M612.893,-511.58C622.312,-515.227 631.969,-519.962 640,-526 661.314,-542.025 654.499,-558.227 676,-574 681.593,-578.103 687.919,-581.579 694.433,-584.512"/>
<polygon fill="midnightblue" stroke="midnightblue" points="693.467,-587.898 704.049,-588.431 696.109,-581.416 693.467,-587.898"/>
</g>
<!-- Node28 -->
<g id="node70" class="node"><title>Node28</title>
<a xlink:href="classVector3D.xhtml#abfb12ecb9c9beb88e095cc4a1a512d3c" target="_top" xlink:title="Vector3D::normalize">
<polygon fill="none" stroke="black" points="865,-508.5 865,-529.5 971,-529.5 971,-508.5 865,-508.5"/>
<text text-anchor="middle" x="918" y="-516.5" font-family="Helvetica,sans-Serif" font-size="10.00">Vector3D::normalize</text>
</a>
</g>
<!-- Node17&#45;&gt;Node28 -->
<g id="edge112" class="edge"><title>Node17&#45;&gt;Node28</title>
<path fill="none" stroke="midnightblue" d="M575.778,-490.342C584.431,-439.881 623.851,-225.854 676,-188 727.074,-150.926 770.878,-146.018 818,-188 869.947,-234.28 809.63,-445.412 854,-499 854.974,-500.177 856.017,-501.286 857.119,-502.33"/>
<polygon fill="midnightblue" stroke="midnightblue" points="855.036,-505.143 865.139,-508.333 859.231,-499.539 855.036,-505.143"/>
</g>
<!-- Node29 -->
<g id="node74" class="node"><title>Node29</title>
<a xlink:href="classVector3D.xhtml#a4bf1dcea68296f2f38f3574242933153" target="_top" xlink:title="Vector3D::getAngleTo">
<polygon fill="none" stroke="black" points="861.5,-828.5 861.5,-849.5 974.5,-849.5 974.5,-828.5 861.5,-828.5"/>
<text text-anchor="middle" x="918" y="-836.5" font-family="Helvetica,sans-Serif" font-size="10.00">Vector3D::getAngleTo</text>
</a>
</g>
<!-- Node17&#45;&gt;Node29 -->
<g id="edge90" class="edge"><title>Node17&#45;&gt;Node29</title>
<path fill="none" stroke="midnightblue" d="M592.057,-511.646C607.481,-521.769 628.884,-538.478 640,-559 693.466,-657.707 595.845,-730.407 676,-809 721.532,-853.645 797.262,-856.139 851.891,-850.628"/>
<polygon fill="midnightblue" stroke="midnightblue" points="852.286,-854.106 861.834,-849.515 851.507,-847.15 852.286,-854.106"/>
</g>
<!-- Node30 -->
<g id="node79" class="node"><title>Node30</title>
<a xlink:href="classVector3D.xhtml#a2e3aa1d244483abcb1a8e48e47e79512" target="_top" xlink:title="Vector3D::getLength">
<polygon fill="none" stroke="black" points="1018.5,-861.5 1018.5,-882.5 1125.5,-882.5 1125.5,-861.5 1018.5,-861.5"/>
<text text-anchor="middle" x="1072" y="-869.5" font-family="Helvetica,sans-Serif" font-size="10.00">Vector3D::getLength</text>
</a>
</g>
<!-- Node17&#45;&gt;Node30 -->
<g id="edge100" class="edge"><title>Node17&#45;&gt;Node30</title>
<path fill="none" stroke="midnightblue" d="M592.143,-511.599C607.624,-521.692 629.063,-538.383 640,-559 669.916,-615.393 629.932,-799.809 676,-844 771.015,-935.144 944.736,-905.853 1026.79,-885.116"/>
<polygon fill="midnightblue" stroke="midnightblue" points="1027.77,-888.478 1036.57,-882.575 1026.01,-881.703 1027.77,-888.478"/>
</g>
<!-- Node31 -->
<g id="node83" class="node"><title>Node31</title>
<a xlink:href="classVector3D.xhtml#a42deb992ec2f44abfb5824ea4917135c" target="_top" xlink:title="Vector3D::getDistanceTo">
<polygon fill="none" stroke="black" points="854,-788.5 854,-809.5 982,-809.5 982,-788.5 854,-788.5"/>
<text text-anchor="middle" x="918" y="-796.5" font-family="Helvetica,sans-Serif" font-size="10.00">Vector3D::getDistanceTo</text>
</a>
</g>
<!-- Node17&#45;&gt;Node31 -->
<g id="edge104" class="edge"><title>Node17&#45;&gt;Node31</title>
<path fill="none" stroke="midnightblue" d="M591.65,-511.506C607.025,-521.647 628.591,-538.465 640,-559 687.479,-644.459 604.507,-709.32 676,-776 725.393,-822.067 807.607,-819.525 862.302,-811.146"/>
<polygon fill="midnightblue" stroke="midnightblue" points="862.88,-814.599 872.181,-809.524 861.746,-807.691 862.88,-814.599"/>
</g>
<!-- Node32 -->
<g id="node89" class="node"><title>Node32</title>
<a xlink:href="classVector3D.xhtml#a0d14ff1f789254ff90adc22628eb8347" target="_top" xlink:title="Vector3D::add">
<polygon fill="none" stroke="black" points="878,-748.5 878,-769.5 958,-769.5 958,-748.5 878,-748.5"/>
<text text-anchor="middle" x="918" y="-756.5" font-family="Helvetica,sans-Serif" font-size="10.00">Vector3D::add</text>
</a>
</g>
<!-- Node17&#45;&gt;Node32 -->
<g id="edge114" class="edge"><title>Node17&#45;&gt;Node32</title>
<path fill="none" stroke="midnightblue" d="M591.52,-511.579C606.806,-521.771 628.317,-538.62 640,-559 681.875,-632.05 612.625,-689.562 676,-745 729.117,-791.465 816.485,-783.064 870.44,-771.738"/>
<polygon fill="midnightblue" stroke="midnightblue" points="871.43,-775.104 880.437,-769.526 869.917,-768.269 871.43,-775.104"/>
</g>
<!-- Node18&#45;&gt;Node9 -->
<g id="edge50" class="edge"><title>Node18&#45;&gt;Node9</title>
<path fill="none" stroke="midnightblue" d="M964.006,-486.586C970.808,-489.497 977.148,-493.501 982,-499 1041.76,-566.722 970.356,-622.271 1018,-699 1023.92,-708.539 1033.02,-716.559 1042.08,-722.854"/>
<polygon fill="midnightblue" stroke="midnightblue" points="1040.33,-725.893 1050.64,-728.354 1044.12,-720.004 1040.33,-725.893"/>
</g>
<!-- Node18&#45;&gt;Node10 -->
<g id="edge52" class="edge"><title>Node18&#45;&gt;Node10</title>
<path fill="none" stroke="midnightblue" d="M964.327,-489.176C970.622,-491.756 976.722,-494.978 982,-499 1023.94,-530.96 1051.82,-588.493 1064.37,-618.902"/>
<polygon fill="midnightblue" stroke="midnightblue" points="1061.22,-620.445 1068.17,-628.44 1067.72,-617.855 1061.22,-620.445"/>
</g>
<!-- Node18&#45;&gt;Node11 -->
<g id="edge54" class="edge"><title>Node18&#45;&gt;Node11</title>
<path fill="none" stroke="midnightblue" d="M964.13,-486.905C970.833,-489.783 977.109,-493.693 982,-499 1031.4,-552.599 970.009,-604.139 1018,-659 1019.18,-660.345 1020.45,-661.6 1021.81,-662.77"/>
<polygon fill="midnightblue" stroke="midnightblue" points="1020.07,-665.825 1030.3,-668.594 1024.03,-660.052 1020.07,-665.825"/>
</g>
<!-- Node27&#45;&gt;Node8 -->
<g id="edge80" class="edge"><title>Node27&#45;&gt;Node8</title>
<path fill="none" stroke="midnightblue" d="M763.494,-609.684C784.049,-622.656 820.556,-644.584 854,-659 859.078,-661.189 864.475,-663.254 869.897,-665.166"/>
<polygon fill="midnightblue" stroke="midnightblue" points="869.029,-668.566 879.623,-668.435 871.259,-661.931 869.029,-668.566"/>
</g>
<!-- Node27&#45;&gt;Node12 -->
<g id="edge82" class="edge"><title>Node27&#45;&gt;Node12</title>
<path fill="none" stroke="midnightblue" d="M791.928,-609.51C813.736,-614.611 840.129,-620.785 863.119,-626.162"/>
<polygon fill="midnightblue" stroke="midnightblue" points="862.541,-629.622 873.075,-628.491 864.135,-622.806 862.541,-629.622"/>
</g>
<!-- Node27&#45;&gt;Node15 -->
<g id="edge78" class="edge"><title>Node27&#45;&gt;Node15</title>
<path fill="none" stroke="midnightblue" d="M798.306,-599C819.441,-599 843.915,-599 865.203,-599"/>
<polygon fill="midnightblue" stroke="midnightblue" points="865.37,-602.5 875.37,-599 865.37,-595.5 865.37,-602.5"/>
</g>
<!-- Node27&#45;&gt;Node28 -->
<g id="edge84" class="edge"><title>Node27&#45;&gt;Node28</title>
<path fill="none" stroke="midnightblue" d="M763.494,-588.316C784.049,-575.344 820.556,-553.416 854,-539 859.078,-536.811 864.475,-534.746 869.897,-532.834"/>
<polygon fill="midnightblue" stroke="midnightblue" points="871.259,-536.069 879.623,-529.565 869.029,-529.434 871.259,-536.069"/>
</g>
<!-- Node29&#45;&gt;Node9 -->
<g id="edge92" class="edge"><title>Node29&#45;&gt;Node9</title>
<path fill="none" stroke="midnightblue" d="M960.719,-828.434C968.046,-825.848 975.414,-822.725 982,-819 1011.19,-802.488 1039.14,-775.253 1055.94,-757.22"/>
<polygon fill="midnightblue" stroke="midnightblue" points="1058.69,-759.401 1062.84,-749.654 1053.52,-754.685 1058.69,-759.401"/>
</g>
<!-- Node29&#45;&gt;Node10 -->
<g id="edge94" class="edge"><title>Node29&#45;&gt;Node10</title>
<path fill="none" stroke="midnightblue" d="M969.528,-828.487C974.17,-825.968 978.45,-822.852 982,-819 1031.4,-765.401 970.009,-713.861 1018,-659 1019.15,-657.681 1020.4,-656.449 1021.73,-655.297"/>
<polygon fill="midnightblue" stroke="midnightblue" points="1023.8,-658.12 1030.03,-649.552 1019.82,-652.363 1023.8,-658.12"/>
</g>
<!-- Node29&#45;&gt;Node11 -->
<g id="edge96" class="edge"><title>Node29&#45;&gt;Node11</title>
<path fill="none" stroke="midnightblue" d="M968.421,-828.344C973.392,-825.855 978.05,-822.785 982,-819 1016.11,-786.319 989.813,-756.905 1018,-719 1024.91,-709.706 1034.58,-701.605 1043.83,-695.169"/>
<polygon fill="midnightblue" stroke="midnightblue" points="1046.02,-697.925 1052.47,-689.525 1042.19,-692.065 1046.02,-697.925"/>
</g>
<!-- Node29&#45;&gt;Node30 -->
<g id="edge98" class="edge"><title>Node29&#45;&gt;Node30</title>
<path fill="none" stroke="midnightblue" d="M967.15,-849.532C981.736,-852.658 997.863,-856.114 1013.01,-859.358"/>
<polygon fill="midnightblue" stroke="midnightblue" points="1012.28,-862.782 1022.79,-861.455 1013.74,-855.937 1012.28,-862.782"/>
</g>
<!-- Node31&#45;&gt;Node9 -->
<g id="edge106" class="edge"><title>Node31&#45;&gt;Node9</title>
<path fill="none" stroke="midnightblue" d="M954.464,-788.403C963.53,-785.55 973.177,-782.327 982,-779 1001.79,-771.537 1023.48,-761.945 1040.6,-754.025"/>
<polygon fill="midnightblue" stroke="midnightblue" points="1042.53,-756.988 1050.1,-749.584 1039.56,-750.646 1042.53,-756.988"/>
</g>
<!-- Node31&#45;&gt;Node10 -->
<g id="edge108" class="edge"><title>Node31&#45;&gt;Node10</title>
<path fill="none" stroke="midnightblue" d="M968.943,-788.393C973.757,-785.893 978.235,-782.808 982,-779 1021.15,-739.403 979.892,-699.598 1018,-659 1019.22,-657.697 1020.54,-656.479 1021.93,-655.339"/>
<polygon fill="midnightblue" stroke="midnightblue" points="1024.14,-658.071 1030.56,-649.639 1020.28,-652.23 1024.14,-658.071"/>
</g>
<!-- Node31&#45;&gt;Node11 -->
<g id="edge110" class="edge"><title>Node31&#45;&gt;Node11</title>
<path fill="none" stroke="midnightblue" d="M965.759,-788.413C971.567,-785.908 977.151,-782.815 982,-779 1006.44,-759.771 997.104,-742.031 1018,-719 1026.1,-710.069 1036.47,-701.83 1045.94,-695.179"/>
<polygon fill="midnightblue" stroke="midnightblue" points="1047.97,-698.034 1054.31,-689.543 1044.06,-692.229 1047.97,-698.034"/>
</g>
<!-- Node32&#45;&gt;Node9 -->
<g id="edge116" class="edge"><title>Node32&#45;&gt;Node9</title>
<path fill="none" stroke="midnightblue" d="M958.06,-753.797C976.967,-751.342 999.769,-748.381 1019.99,-745.754"/>
<polygon fill="midnightblue" stroke="midnightblue" points="1020.52,-749.215 1029.99,-744.456 1019.62,-742.273 1020.52,-749.215"/>
</g>
<!-- Node32&#45;&gt;Node10 -->
<g id="edge118" class="edge"><title>Node32&#45;&gt;Node10</title>
<path fill="none" stroke="midnightblue" d="M958.276,-752.062C966.831,-749.126 975.293,-744.947 982,-739 1011.17,-713.132 989.507,-685.615 1018,-659 1019.66,-657.447 1021.46,-656.013 1023.34,-654.688"/>
<polygon fill="midnightblue" stroke="midnightblue" points="1025.25,-657.625 1032.11,-649.55 1021.72,-651.585 1025.25,-657.625"/>
</g>
<!-- Node32&#45;&gt;Node11 -->
<g id="edge120" class="edge"><title>Node32&#45;&gt;Node11</title>
<path fill="none" stroke="midnightblue" d="M957.938,-748.453C966.065,-745.773 974.436,-742.611 982,-739 1006.82,-727.149 1032.7,-709.218 1050.3,-696.044"/>
<polygon fill="midnightblue" stroke="midnightblue" points="1052.87,-698.489 1058.7,-689.645 1048.63,-692.92 1052.87,-698.489"/>
</g>
</g>
</svg>
