<?xml version="1.0" encoding="UTF-8" standalone="no"?>
<!DOCTYPE svg PUBLIC "-//W3C//DTD SVG 1.1//EN"
 "http://www.w3.org/Graphics/SVG/1.1/DTD/svg11.dtd">
<!-- Generated by graphviz version 2.26.3 (20100126.1600)
 -->
<!-- Title: tetgenmesh::recoverboundary Pages: 1 -->
<svg width="1090pt" height="2155pt"
 viewBox="0.00 0.00 1090.00 2154.73" xmlns="http://www.w3.org/2000/svg" xmlns:xlink="http://www.w3.org/1999/xlink">
<g id="graph1" class="graph" transform="scale(1 1) rotate(0) translate(4 2150.73)">
<title>tetgenmesh::recoverboundary</title>
<!-- Node1 -->
<g id="node1" class="node"><title>Node1</title>
<polygon fill="#bfbfbf" stroke="black" points="0,-1305.23 0,-1326.23 146,-1326.23 146,-1305.23 0,-1305.23"/>
<text text-anchor="middle" x="73" y="-1313.23" font-family="Helvetica,sans-Serif" font-size="10.00">tetgenmesh::recoverboundary</text>
</g>
<!-- Node2 -->
<g id="node3" class="node"><title>Node2</title>
<a xlink:href="classtetgenmesh_1_1memorypool.xhtml#a623b101e4e2f249d8b7e5dba65c3f7e2" target="_top" xlink:title="tetgenmesh::memorypool\l::traversalinit">
<polygon fill="none" stroke="black" points="199.5,-1442.73 199.5,-1476.73 326.5,-1476.73 326.5,-1442.73 199.5,-1442.73"/>
<text text-anchor="start" x="207.5" y="-1463.73" font-family="Helvetica,sans-Serif" font-size="10.00">tetgenmesh::memorypool</text>
<text text-anchor="middle" x="263" y="-1450.73" font-family="Helvetica,sans-Serif" font-size="10.00">::traversalinit</text>
</a>
</g>
<!-- Node1&#45;&gt;Node2 -->
<g id="edge2" class="edge"><title>Node1&#45;&gt;Node2</title>
<path fill="none" stroke="midnightblue" d="M79.846,-1326.23C95.2992,-1349.13 135.21,-1403.88 182,-1433.73 184.593,-1435.38 187.301,-1436.94 190.087,-1438.4"/>
<polygon fill="midnightblue" stroke="midnightblue" points="188.677,-1441.61 199.208,-1442.78 191.702,-1435.3 188.677,-1441.61"/>
</g>
<!-- Node3 -->
<g id="node5" class="node"><title>Node3</title>
<a xlink:href="classtetgenmesh.xhtml#a0ae35b219eb4a0d1e0c14f9759cd6563" target="_top" xlink:title="tetgenmesh::randomnation">
<polygon fill="none" stroke="black" points="197,-1403.23 197,-1424.23 329,-1424.23 329,-1403.23 197,-1403.23"/>
<text text-anchor="middle" x="263" y="-1411.23" font-family="Helvetica,sans-Serif" font-size="10.00">tetgenmesh::randomnation</text>
</a>
</g>
<!-- Node1&#45;&gt;Node3 -->
<g id="edge4" class="edge"><title>Node1&#45;&gt;Node3</title>
<path fill="none" stroke="midnightblue" d="M84.4791,-1326.24C103.388,-1343 142.899,-1375.72 182,-1393.73 187.226,-1396.13 192.78,-1398.28 198.434,-1400.18"/>
<polygon fill="midnightblue" stroke="midnightblue" points="197.417,-1403.53 208.005,-1403.15 199.495,-1396.84 197.417,-1403.53"/>
</g>
<!-- Node4 -->
<g id="node7" class="node"><title>Node4</title>
<a xlink:href="classtetgenmesh_1_1arraypool.xhtml#afb546c70f7728e3e0d58e2aada464437" target="_top" xlink:title="tetgenmesh::arraypool\l::newindex">
<polygon fill="none" stroke="black" points="816.5,-1026.73 816.5,-1060.73 929.5,-1060.73 929.5,-1026.73 816.5,-1026.73"/>
<text text-anchor="start" x="824.5" y="-1047.73" font-family="Helvetica,sans-Serif" font-size="10.00">tetgenmesh::arraypool</text>
<text text-anchor="middle" x="873" y="-1034.73" font-family="Helvetica,sans-Serif" font-size="10.00">::newindex</text>
</a>
</g>
<!-- Node1&#45;&gt;Node4 -->
<g id="edge6" class="edge"><title>Node1&#45;&gt;Node4</title>
<path fill="none" stroke="midnightblue" d="M131.447,-1305.16C251.056,-1283.02 514.979,-1231.38 544,-1201.73 596.2,-1148.4 521.85,-1084.5 580,-1037.73 647.219,-983.664 753.919,-1003.84 818.32,-1023.64"/>
<polygon fill="midnightblue" stroke="midnightblue" points="817.303,-1026.99 827.893,-1026.68 819.419,-1020.32 817.303,-1026.99"/>
</g>
<!-- Node5 -->
<g id="node9" class="node"><title>Node5</title>
<a xlink:href="classtetgenmesh.xhtml#ae50ecae1d69935b12a4fa7ca843011d7" target="_top" xlink:title="tetgenmesh::shellfacetraverse">
<polygon fill="none" stroke="black" points="189,-1363.23 189,-1384.23 337,-1384.23 337,-1363.23 189,-1363.23"/>
<text text-anchor="middle" x="263" y="-1371.23" font-family="Helvetica,sans-Serif" font-size="10.00">tetgenmesh::shellfacetraverse</text>
</a>
</g>
<!-- Node1&#45;&gt;Node5 -->
<g id="edge8" class="edge"><title>Node1&#45;&gt;Node5</title>
<path fill="none" stroke="midnightblue" d="M107.408,-1326.23C138.651,-1335.77 184.901,-1349.89 218.858,-1360.25"/>
<polygon fill="midnightblue" stroke="midnightblue" points="217.942,-1363.63 228.528,-1363.2 219.985,-1356.94 217.942,-1363.63"/>
</g>
<!-- Node7 -->
<g id="node13" class="node"><title>Node7</title>
<a xlink:href="classtetgenmesh.xhtml#a50e12e269b11573e6e1b91347ad19b37" target="_top" xlink:title="tetgenmesh::recoversegments">
<polygon fill="none" stroke="black" points="387.5,-1729.23 387.5,-1750.23 536.5,-1750.23 536.5,-1729.23 387.5,-1729.23"/>
<text text-anchor="middle" x="462" y="-1737.23" font-family="Helvetica,sans-Serif" font-size="10.00">tetgenmesh::recoversegments</text>
</a>
</g>
<!-- Node1&#45;&gt;Node7 -->
<g id="edge12" class="edge"><title>Node1&#45;&gt;Node7</title>
<path fill="none" stroke="midnightblue" d="M146.237,-1321.36C221.768,-1327.9 330.422,-1339.6 344,-1353.73 399.858,-1411.86 328.861,-1652.4 380,-1714.73 382.947,-1718.32 386.395,-1721.41 390.178,-1724.06"/>
<polygon fill="midnightblue" stroke="midnightblue" points="388.533,-1727.15 398.929,-1729.2 392.079,-1721.12 388.533,-1727.15"/>
</g>
<!-- Node31 -->
<g id="node75" class="node"><title>Node31</title>
<a xlink:href="classtetgenmesh_1_1arraypool.xhtml#a19030126ef81a9ff3c4aca35f0347cdc" target="_top" xlink:title="tetgenmesh::arraypool\l::restart">
<polygon fill="none" stroke="black" points="816.5,-241.728 816.5,-275.728 929.5,-275.728 929.5,-241.728 816.5,-241.728"/>
<text text-anchor="start" x="824.5" y="-262.728" font-family="Helvetica,sans-Serif" font-size="10.00">tetgenmesh::arraypool</text>
<text text-anchor="middle" x="873" y="-249.728" font-family="Helvetica,sans-Serif" font-size="10.00">::restart</text>
</a>
</g>
<!-- Node1&#45;&gt;Node31 -->
<g id="edge88" class="edge"><title>Node1&#45;&gt;Node31</title>
<path fill="none" stroke="midnightblue" d="M73.9917,-1304.89C84.2946,-1194.99 175.566,-282.749 380,-128.728 414.985,-102.37 751.281,-131.428 774,-143.728 797.45,-156.424 792.84,-171.316 810,-191.728 822.252,-206.302 836.76,-221.836 848.764,-234.274"/>
<polygon fill="midnightblue" stroke="midnightblue" points="846.39,-236.854 855.871,-241.582 851.408,-231.973 846.39,-236.854"/>
</g>
<!-- Node32 -->
<g id="node77" class="node"><title>Node32</title>
<a xlink:href="classtetgenmesh.xhtml#ad3277eea82fb5eb134c5eaa6abf5c18d" target="_top" xlink:title="tetgenmesh::removevertexbyflips">
<polygon fill="none" stroke="red" points="182.5,-828.228 182.5,-849.228 343.5,-849.228 343.5,-828.228 182.5,-828.228"/>
<text text-anchor="middle" x="263" y="-836.228" font-family="Helvetica,sans-Serif" font-size="10.00">tetgenmesh::removevertexbyflips</text>
</a>
</g>
<!-- Node1&#45;&gt;Node32 -->
<g id="edge90" class="edge"><title>Node1&#45;&gt;Node32</title>
<path fill="none" stroke="midnightblue" d="M77.3254,-1304.87C101.749,-1243.55 222.457,-940.512 254.939,-858.965"/>
<polygon fill="midnightblue" stroke="midnightblue" points="258.315,-859.948 258.764,-849.363 251.812,-857.358 258.315,-859.948"/>
</g>
<!-- Node50 -->
<g id="node166" class="node"><title>Node50</title>
<a xlink:href="classtetgenmesh.xhtml#ace09080e4f274e0a48cd1728475878c9" target="_top" xlink:title="tetgenmesh::recoversubfaces">
<polygon fill="none" stroke="red" points="389,-1287.23 389,-1308.23 535,-1308.23 535,-1287.23 389,-1287.23"/>
<text text-anchor="middle" x="462" y="-1295.23" font-family="Helvetica,sans-Serif" font-size="10.00">tetgenmesh::recoversubfaces</text>
</a>
</g>
<!-- Node1&#45;&gt;Node50 -->
<g id="edge232" class="edge"><title>Node1&#45;&gt;Node50</title>
<path fill="none" stroke="midnightblue" d="M146.168,-1312.34C212.214,-1309.29 309.339,-1304.79 378.421,-1301.6"/>
<polygon fill="midnightblue" stroke="midnightblue" points="379.003,-1305.07 388.83,-1301.11 378.679,-1298.08 379.003,-1305.07"/>
</g>
<!-- Node6 -->
<g id="node11" class="node"><title>Node6</title>
<a xlink:href="classtetgenmesh_1_1memorypool.xhtml#a151fe73459d0fa9a7262d0030fecf291" target="_top" xlink:title="tetgenmesh::memorypool\l::traverse">
<polygon fill="none" stroke="black" points="398.5,-2112.73 398.5,-2146.73 525.5,-2146.73 525.5,-2112.73 398.5,-2112.73"/>
<text text-anchor="start" x="406.5" y="-2133.73" font-family="Helvetica,sans-Serif" font-size="10.00">tetgenmesh::memorypool</text>
<text text-anchor="middle" x="462" y="-2120.73" font-family="Helvetica,sans-Serif" font-size="10.00">::traverse</text>
</a>
</g>
<!-- Node5&#45;&gt;Node6 -->
<g id="edge10" class="edge"><title>Node5&#45;&gt;Node6</title>
<path fill="none" stroke="midnightblue" d="M333.384,-1384.42C337.354,-1386.97 340.958,-1390.04 344,-1393.73 443.839,-1514.73 287.557,-1971.99 380,-2098.73 382.876,-2102.67 386.317,-2106.11 390.138,-2109.12"/>
<polygon fill="midnightblue" stroke="midnightblue" points="388.197,-2112.03 398.453,-2114.69 392.093,-2106.21 388.197,-2112.03"/>
</g>
<!-- Node7&#45;&gt;Node4 -->
<g id="edge86" class="edge"><title>Node7&#45;&gt;Node4</title>
<path fill="none" stroke="midnightblue" d="M464.185,-1728.99C473.914,-1681.05 514.126,-1481.84 544,-1317.73 552.558,-1270.71 546.3,-1139.61 580,-1105.73 641.734,-1043.67 688.662,-1091.22 774,-1071.73 784.599,-1069.31 795.754,-1066.45 806.603,-1063.51"/>
<polygon fill="midnightblue" stroke="midnightblue" points="807.745,-1066.83 816.454,-1060.79 805.883,-1060.08 807.745,-1066.83"/>
</g>
<!-- Node8 -->
<g id="node15" class="node"><title>Node8</title>
<a xlink:href="classtetgenmesh.xhtml#a08c6f7bbaecd0aa7733b5e797106be24" target="_top" xlink:title="tetgenmesh::sstpivot1">
<polygon fill="none" stroke="red" points="620.5,-1769.23 620.5,-1790.23 733.5,-1790.23 733.5,-1769.23 620.5,-1769.23"/>
<text text-anchor="middle" x="677" y="-1777.23" font-family="Helvetica,sans-Serif" font-size="10.00">tetgenmesh::sstpivot1</text>
</a>
</g>
<!-- Node7&#45;&gt;Node8 -->
<g id="edge14" class="edge"><title>Node7&#45;&gt;Node8</title>
<path fill="none" stroke="midnightblue" d="M518.489,-1750.24C546.646,-1755.48 580.882,-1761.85 610.321,-1767.32"/>
<polygon fill="midnightblue" stroke="midnightblue" points="610.044,-1770.83 620.516,-1769.22 611.325,-1763.95 610.044,-1770.83"/>
</g>
<!-- Node9 -->
<g id="node17" class="node"><title>Node9</title>
<a xlink:href="classtetgenmesh.xhtml#a55db9a054b722d91a17b82d442f88f4c" target="_top" xlink:title="tetgenmesh::sorg">
<polygon fill="none" stroke="black" points="827,-1611.23 827,-1632.23 919,-1632.23 919,-1611.23 827,-1611.23"/>
<text text-anchor="middle" x="873" y="-1619.23" font-family="Helvetica,sans-Serif" font-size="10.00">tetgenmesh::sorg</text>
</a>
</g>
<!-- Node7&#45;&gt;Node9 -->
<g id="edge16" class="edge"><title>Node7&#45;&gt;Node9</title>
<path fill="none" stroke="midnightblue" d="M467.567,-1750.6C481.894,-1777.23 522.953,-1845.34 580,-1870.73 658.771,-1905.79 708.468,-1926.76 774,-1870.73 852.304,-1803.77 742.869,-1719.88 810,-1641.73 812.352,-1638.99 815.077,-1636.62 818.048,-1634.58"/>
<polygon fill="midnightblue" stroke="midnightblue" points="819.926,-1637.54 826.966,-1629.62 816.525,-1631.42 819.926,-1637.54"/>
</g>
<!-- Node10 -->
<g id="node19" class="node"><title>Node10</title>
<a xlink:href="classtetgenmesh.xhtml#aa6017928ea3dc0b8ba39e7f24ea312b2" target="_top" xlink:title="tetgenmesh::sdest">
<polygon fill="none" stroke="black" points="824,-1498.23 824,-1519.23 922,-1519.23 922,-1498.23 824,-1498.23"/>
<text text-anchor="middle" x="873" y="-1506.23" font-family="Helvetica,sans-Serif" font-size="10.00">tetgenmesh::sdest</text>
</a>
</g>
<!-- Node7&#45;&gt;Node10 -->
<g id="edge18" class="edge"><title>Node7&#45;&gt;Node10</title>
<path fill="none" stroke="midnightblue" d="M470.998,-1750.53C489.077,-1771.29 532.189,-1816.15 580,-1832.73 661.465,-1860.97 708.506,-1888.81 774,-1832.73 813.463,-1798.94 790.971,-1650.07 810,-1601.73 821.172,-1573.35 842.209,-1544.93 856.886,-1527.12"/>
<polygon fill="midnightblue" stroke="midnightblue" points="859.734,-1529.17 863.51,-1519.27 854.385,-1524.65 859.734,-1529.17"/>
</g>
<!-- Node11 -->
<g id="node21" class="node"><title>Node11</title>
<a xlink:href="classtetgenmesh.xhtml#a46fa5fabd0e8e806f7f8beb069732e21" target="_top" xlink:title="tetgenmesh::pointmark">
<polygon fill="none" stroke="black" points="815,-1366.23 815,-1387.23 931,-1387.23 931,-1366.23 815,-1366.23"/>
<text text-anchor="middle" x="873" y="-1374.23" font-family="Helvetica,sans-Serif" font-size="10.00">tetgenmesh::pointmark</text>
</a>
</g>
<!-- Node7&#45;&gt;Node11 -->
<g id="edge20" class="edge"><title>Node7&#45;&gt;Node11</title>
<path fill="none" stroke="midnightblue" d="M477.056,-1750.24C526.651,-1783.49 686.695,-1879.58 774,-1799.73 840.346,-1739.04 753.727,-1466.85 810,-1396.73 810.965,-1395.53 812.002,-1394.39 813.102,-1393.33"/>
<polygon fill="midnightblue" stroke="midnightblue" points="815.292,-1396.06 821.149,-1387.23 811.065,-1390.48 815.292,-1396.06"/>
</g>
<!-- Node12 -->
<g id="node23" class="node"><title>Node12</title>
<a xlink:href="classtetgenmesh.xhtml#a558494ab92a7012fae3cfe96bb33f8e9" target="_top" xlink:title="tetgenmesh::recoveredgebyflips">
<polygon fill="none" stroke="red" points="599.5,-923.228 599.5,-944.228 754.5,-944.228 754.5,-923.228 599.5,-923.228"/>
<text text-anchor="middle" x="677" y="-931.228" font-family="Helvetica,sans-Serif" font-size="10.00">tetgenmesh::recoveredgebyflips</text>
</a>
</g>
<!-- Node7&#45;&gt;Node12 -->
<g id="edge22" class="edge"><title>Node7&#45;&gt;Node12</title>
<path fill="none" stroke="midnightblue" d="M464.273,-1729C474.379,-1681.13 515.959,-1482.16 544,-1317.73 562.501,-1209.24 539.424,-1175.03 580,-1072.73 599.007,-1024.8 637.428,-977.375 659.789,-952.208"/>
<polygon fill="midnightblue" stroke="midnightblue" points="662.596,-954.323 666.706,-944.557 657.403,-949.628 662.596,-954.323"/>
</g>
<!-- Node19 -->
<g id="node37" class="node"><title>Node19</title>
<a xlink:href="classtetgenmesh.xhtml#a473568d02dfc5c262325ed18b1f9af3a" target="_top" xlink:title="tetgenmesh::fnextself">
<polygon fill="none" stroke="black" points="817.5,-1651.23 817.5,-1672.23 928.5,-1672.23 928.5,-1651.23 817.5,-1651.23"/>
<text text-anchor="middle" x="873" y="-1659.23" font-family="Helvetica,sans-Serif" font-size="10.00">tetgenmesh::fnextself</text>
</a>
</g>
<!-- Node7&#45;&gt;Node19 -->
<g id="edge44" class="edge"><title>Node7&#45;&gt;Node19</title>
<path fill="none" stroke="midnightblue" d="M465.45,-1750.32C476.301,-1781.65 513.049,-1873.82 580,-1908.73 656.454,-1948.59 702.585,-1957.04 774,-1908.73 794.041,-1895.17 847.581,-1738.39 866.371,-1681.87"/>
<polygon fill="midnightblue" stroke="midnightblue" points="869.732,-1682.86 869.552,-1672.26 863.087,-1680.66 869.732,-1682.86"/>
</g>
<!-- Node21 -->
<g id="node41" class="node"><title>Node21</title>
<a xlink:href="classtetgenmesh.xhtml#a6a6f8f76c46a4548b4333fabbe4640ba" target="_top" xlink:title="tetgenmesh::sstbond1">
<polygon fill="none" stroke="red" points="620.5,-1729.23 620.5,-1750.23 733.5,-1750.23 733.5,-1729.23 620.5,-1729.23"/>
<text text-anchor="middle" x="677" y="-1737.23" font-family="Helvetica,sans-Serif" font-size="10.00">tetgenmesh::sstbond1</text>
</a>
</g>
<!-- Node7&#45;&gt;Node21 -->
<g id="edge40" class="edge"><title>Node7&#45;&gt;Node21</title>
<path fill="none" stroke="midnightblue" d="M536.593,-1739.73C560.47,-1739.73 586.744,-1739.73 610.041,-1739.73"/>
<polygon fill="midnightblue" stroke="midnightblue" points="610.171,-1743.23 620.171,-1739.73 610.171,-1736.23 610.171,-1743.23"/>
</g>
<!-- Node22 -->
<g id="node43" class="node"><title>Node22</title>
<a xlink:href="classtetgenmesh.xhtml#a6580d7cb0bf0caf9ebed36ff34c2d79a" target="_top" xlink:title="tetgenmesh::tssbond1">
<polygon fill="none" stroke="red" points="620.5,-1689.23 620.5,-1710.23 733.5,-1710.23 733.5,-1689.23 620.5,-1689.23"/>
<text text-anchor="middle" x="677" y="-1697.23" font-family="Helvetica,sans-Serif" font-size="10.00">tetgenmesh::tssbond1</text>
</a>
</g>
<!-- Node7&#45;&gt;Node22 -->
<g id="edge42" class="edge"><title>Node7&#45;&gt;Node22</title>
<path fill="none" stroke="midnightblue" d="M518.489,-1729.22C546.646,-1723.98 580.882,-1717.61 610.321,-1712.13"/>
<polygon fill="midnightblue" stroke="midnightblue" points="611.325,-1715.51 620.516,-1710.24 610.044,-1708.62 611.325,-1715.51"/>
</g>
<!-- Node23 -->
<g id="node46" class="node"><title>Node23</title>
<a xlink:href="classtetgenmesh.xhtml#a9d878a0e64588b0471a58e534affea8e" target="_top" xlink:title="tetgenmesh::addsteiner4recoversegment">
<polygon fill="none" stroke="red" points="580,-1345.23 580,-1366.23 774,-1366.23 774,-1345.23 580,-1345.23"/>
<text text-anchor="middle" x="677" y="-1353.23" font-family="Helvetica,sans-Serif" font-size="10.00">tetgenmesh::addsteiner4recoversegment</text>
</a>
</g>
<!-- Node7&#45;&gt;Node23 -->
<g id="edge46" class="edge"><title>Node7&#45;&gt;Node23</title>
<path fill="none" stroke="midnightblue" d="M467.975,-1729.06C497.387,-1676.53 626.936,-1445.14 665.886,-1375.58"/>
<polygon fill="midnightblue" stroke="midnightblue" points="669.121,-1376.96 670.952,-1366.53 663.013,-1373.54 669.121,-1376.96"/>
</g>
<!-- Node13 -->
<g id="node25" class="node"><title>Node13</title>
<a xlink:href="classtetgenmesh.xhtml#a08a487daca1979751e3d4e536182cbc3" target="_top" xlink:title="tetgenmesh::point2tetorg">
<polygon fill="none" stroke="red" points="810.5,-412.228 810.5,-433.228 935.5,-433.228 935.5,-412.228 810.5,-412.228"/>
<text text-anchor="middle" x="873" y="-420.228" font-family="Helvetica,sans-Serif" font-size="10.00">tetgenmesh::point2tetorg</text>
</a>
</g>
<!-- Node12&#45;&gt;Node13 -->
<g id="edge24" class="edge"><title>Node12&#45;&gt;Node13</title>
<path fill="none" stroke="midnightblue" d="M692.378,-923.101C714.769,-906.657 755.668,-872.732 774,-832.728 809.429,-755.415 760.808,-521.101 810,-451.728 813.931,-446.185 819.19,-441.676 825.002,-438.015"/>
<polygon fill="midnightblue" stroke="midnightblue" points="826.696,-441.078 833.82,-433.237 823.361,-434.924 826.696,-441.078"/>
</g>
<!-- Node14 -->
<g id="node27" class="node"><title>Node14</title>
<a xlink:href="classtetgenmesh.xhtml#ad56ef3448cd57e637acf373622bfb769" target="_top" xlink:title="tetgenmesh::dest">
<polygon fill="none" stroke="black" points="827,-721.228 827,-742.228 919,-742.228 919,-721.228 827,-721.228"/>
<text text-anchor="middle" x="873" y="-729.228" font-family="Helvetica,sans-Serif" font-size="10.00">tetgenmesh::dest</text>
</a>
</g>
<!-- Node12&#45;&gt;Node14 -->
<g id="edge26" class="edge"><title>Node12&#45;&gt;Node14</title>
<path fill="none" stroke="midnightblue" d="M746.479,-923.225C756.339,-919.694 765.873,-914.991 774,-908.728 775.766,-907.367 836.762,-797.266 862.117,-751.42"/>
<polygon fill="midnightblue" stroke="midnightblue" points="865.309,-752.879 867.085,-742.434 859.183,-749.492 865.309,-752.879"/>
</g>
<!-- Node15 -->
<g id="node29" class="node"><title>Node15</title>
<a xlink:href="classtetgenmesh.xhtml#a57b18059c68cacbe01720c387c19ee9e" target="_top" xlink:title="tetgenmesh::fsymself">
<polygon fill="none" stroke="black" points="817.5,-647.228 817.5,-668.228 928.5,-668.228 928.5,-647.228 817.5,-647.228"/>
<text text-anchor="middle" x="873" y="-655.228" font-family="Helvetica,sans-Serif" font-size="10.00">tetgenmesh::fsymself</text>
</a>
</g>
<!-- Node12&#45;&gt;Node15 -->
<g id="edge28" class="edge"><title>Node12&#45;&gt;Node15</title>
<path fill="none" stroke="midnightblue" d="M703.818,-923.181C726.029,-913.052 756.662,-895.603 774,-870.728 815.431,-811.287 772.598,-773.783 810,-711.728 819.063,-696.691 833.775,-683.733 846.704,-674.282"/>
<polygon fill="midnightblue" stroke="midnightblue" points="849.068,-676.901 855.278,-668.317 845.071,-671.154 849.068,-676.901"/>
</g>
<!-- Node16 -->
<g id="node31" class="node"><title>Node16</title>
<a xlink:href="classtetgenmesh.xhtml#ae2d4d27d7babd7b0e60956cc00bca89a" target="_top" xlink:title="tetgenmesh::org">
<polygon fill="none" stroke="black" points="829.5,-942.228 829.5,-963.228 916.5,-963.228 916.5,-942.228 829.5,-942.228"/>
<text text-anchor="middle" x="873" y="-950.228" font-family="Helvetica,sans-Serif" font-size="10.00">tetgenmesh::org</text>
</a>
</g>
<!-- Node12&#45;&gt;Node16 -->
<g id="edge30" class="edge"><title>Node12&#45;&gt;Node16</title>
<path fill="none" stroke="midnightblue" d="M754.746,-941.264C776.316,-943.355 799.255,-945.579 819.133,-947.506"/>
<polygon fill="midnightblue" stroke="midnightblue" points="818.934,-951.003 829.225,-948.484 819.609,-944.036 818.934,-951.003"/>
</g>
<!-- Node17 -->
<g id="node33" class="node"><title>Node17</title>
<a xlink:href="classtetgenmesh.xhtml#a9287d941f7f432ca846d5c004603af40" target="_top" xlink:title="tetgenmesh::apex">
<polygon fill="none" stroke="black" points="825.5,-372.228 825.5,-393.228 920.5,-393.228 920.5,-372.228 825.5,-372.228"/>
<text text-anchor="middle" x="873" y="-380.228" font-family="Helvetica,sans-Serif" font-size="10.00">tetgenmesh::apex</text>
</a>
</g>
<!-- Node12&#45;&gt;Node17 -->
<g id="edge32" class="edge"><title>Node12&#45;&gt;Node17</title>
<path fill="none" stroke="midnightblue" d="M687.873,-923.136C708.826,-901.953 754.451,-851.901 774,-799.728 805.082,-716.776 754.512,-471.78 810,-402.728 811.921,-400.338 814.127,-398.229 816.537,-396.368"/>
<polygon fill="midnightblue" stroke="midnightblue" points="818.696,-399.151 825.406,-390.952 815.048,-393.177 818.696,-399.151"/>
</g>
<!-- Node18 -->
<g id="node35" class="node"><title>Node18</title>
<a xlink:href="classtetgenmesh.xhtml#a2ff33d38976a7bc134380ef8f15c4519" target="_top" xlink:title="tetgenmesh::oppo">
<polygon fill="none" stroke="black" points="825.5,-1326.23 825.5,-1347.23 920.5,-1347.23 920.5,-1326.23 825.5,-1326.23"/>
<text text-anchor="middle" x="873" y="-1334.23" font-family="Helvetica,sans-Serif" font-size="10.00">tetgenmesh::oppo</text>
</a>
</g>
<!-- Node12&#45;&gt;Node18 -->
<g id="edge34" class="edge"><title>Node12&#45;&gt;Node18</title>
<path fill="none" stroke="midnightblue" d="M684.725,-944.37C703.263,-970.456 750.468,-1040.23 774,-1105.73 804.835,-1191.55 754.241,-1235.57 810,-1307.73 814.254,-1313.23 819.797,-1317.73 825.831,-1321.39"/>
<polygon fill="midnightblue" stroke="midnightblue" points="824.45,-1324.62 834.929,-1326.19 827.712,-1318.43 824.45,-1324.62"/>
</g>
<!-- Node12&#45;&gt;Node19 -->
<g id="edge36" class="edge"><title>Node12&#45;&gt;Node19</title>
<path fill="none" stroke="midnightblue" d="M685.481,-944.601C705.244,-970.644 754.179,-1039.37 774,-1105.73 808.169,-1220.11 736.314,-1547.8 810,-1641.73 810.837,-1642.79 811.73,-1643.81 812.674,-1644.76"/>
<polygon fill="midnightblue" stroke="midnightblue" points="810.74,-1647.69 820.767,-1651.12 815.062,-1642.19 810.74,-1647.69"/>
</g>
<!-- Node20 -->
<g id="node39" class="node"><title>Node20</title>
<a xlink:href="classtetgenmesh.xhtml#a1c65efaf2a8a72d023327c2592d89188" target="_top" xlink:title="tetgenmesh::enextself">
<polygon fill="none" stroke="black" points="816.5,-461.228 816.5,-482.228 929.5,-482.228 929.5,-461.228 816.5,-461.228"/>
<text text-anchor="middle" x="873" y="-469.228" font-family="Helvetica,sans-Serif" font-size="10.00">tetgenmesh::enextself</text>
</a>
</g>
<!-- Node12&#45;&gt;Node20 -->
<g id="edge38" class="edge"><title>Node12&#45;&gt;Node20</title>
<path fill="none" stroke="midnightblue" d="M691.568,-923.158C713.3,-906.538 753.808,-872.099 774,-832.728 814.218,-754.308 786.268,-722.604 810,-637.728 825.139,-583.585 850.683,-522.333 864.123,-491.583"/>
<polygon fill="midnightblue" stroke="midnightblue" points="867.349,-492.94 868.184,-482.378 860.945,-490.114 867.349,-492.94"/>
</g>
<!-- Node23&#45;&gt;Node4 -->
<g id="edge80" class="edge"><title>Node23&#45;&gt;Node4</title>
<path fill="none" stroke="midnightblue" d="M681.994,-1344.92C706.018,-1292.94 808.603,-1071.06 810,-1069.73 811.095,-1068.68 812.239,-1067.67 813.423,-1066.7"/>
<polygon fill="midnightblue" stroke="midnightblue" points="815.583,-1069.46 821.746,-1060.84 811.554,-1063.74 815.583,-1069.46"/>
</g>
<!-- Node23&#45;&gt;Node9 -->
<g id="edge48" class="edge"><title>Node23&#45;&gt;Node9</title>
<path fill="none" stroke="midnightblue" d="M684.926,-1366.48C714.788,-1407.01 820.747,-1550.81 859.053,-1602.8"/>
<polygon fill="midnightblue" stroke="midnightblue" points="856.44,-1605.15 865.19,-1611.13 862.076,-1601 856.44,-1605.15"/>
</g>
<!-- Node23&#45;&gt;Node10 -->
<g id="edge54" class="edge"><title>Node23&#45;&gt;Node10</title>
<path fill="none" stroke="midnightblue" d="M690.472,-1366.24C723.9,-1392.34 810.876,-1460.23 851.504,-1491.95"/>
<polygon fill="midnightblue" stroke="midnightblue" points="849.397,-1494.74 859.434,-1498.14 853.705,-1489.23 849.397,-1494.74"/>
</g>
<!-- Node23&#45;&gt;Node11 -->
<g id="edge74" class="edge"><title>Node23&#45;&gt;Node11</title>
<path fill="none" stroke="midnightblue" d="M774.139,-1366.14C784.498,-1367.25 794.87,-1368.36 804.792,-1369.42"/>
<polygon fill="midnightblue" stroke="midnightblue" points="804.633,-1372.92 814.949,-1370.51 805.379,-1365.96 804.633,-1372.92"/>
</g>
<!-- Node23&#45;&gt;Node13 -->
<g id="edge56" class="edge"><title>Node23&#45;&gt;Node13</title>
<path fill="none" stroke="midnightblue" d="M683.838,-1344.9C702.45,-1314.77 753.96,-1226.82 774,-1145.73 792.524,-1070.77 766.681,-515.647 810,-451.728 813.635,-446.364 818.526,-441.974 823.983,-438.385"/>
<polygon fill="midnightblue" stroke="midnightblue" points="825.91,-441.318 832.927,-433.38 822.492,-435.209 825.91,-441.318"/>
</g>
<!-- Node23&#45;&gt;Node14 -->
<g id="edge66" class="edge"><title>Node23&#45;&gt;Node14</title>
<path fill="none" stroke="midnightblue" d="M683.55,-1344.82C701.427,-1314.5 751.231,-1226.1 774,-1145.73 810.604,-1016.52 768.759,-973.528 810,-845.728 821.545,-809.951 844.665,-772.564 859.456,-750.746"/>
<polygon fill="midnightblue" stroke="midnightblue" points="862.419,-752.615 865.228,-742.399 856.662,-748.634 862.419,-752.615"/>
</g>
<!-- Node23&#45;&gt;Node16 -->
<g id="edge64" class="edge"><title>Node23&#45;&gt;Node16</title>
<path fill="none" stroke="midnightblue" d="M682.67,-1345.05C698.68,-1314.61 744.948,-1224.47 774,-1145.73 794.455,-1090.28 780.535,-1068.95 810,-1017.73 820.577,-999.339 837.515,-982.271 851.166,-970.243"/>
<polygon fill="midnightblue" stroke="midnightblue" points="853.811,-972.587 859.155,-963.439 849.272,-967.259 853.811,-972.587"/>
</g>
<!-- Node23&#45;&gt;Node17 -->
<g id="edge76" class="edge"><title>Node23&#45;&gt;Node17</title>
<path fill="none" stroke="midnightblue" d="M683.853,-1344.9C702.502,-1314.78 754.099,-1226.85 774,-1145.73 793.692,-1065.46 759.592,-468.229 810,-402.728 811.87,-400.298 814.036,-398.157 816.415,-396.272"/>
<polygon fill="midnightblue" stroke="midnightblue" points="818.57,-399.054 825.211,-390.798 814.871,-393.111 818.57,-399.054"/>
</g>
<!-- Node23&#45;&gt;Node18 -->
<g id="edge62" class="edge"><title>Node23&#45;&gt;Node18</title>
<path fill="none" stroke="midnightblue" d="M774.139,-1346.31C788.19,-1344.95 802.266,-1343.58 815.209,-1342.33"/>
<polygon fill="midnightblue" stroke="midnightblue" points="815.709,-1345.8 825.325,-1341.35 815.034,-1338.83 815.709,-1345.8"/>
</g>
<!-- Node23&#45;&gt;Node19 -->
<g id="edge78" class="edge"><title>Node23&#45;&gt;Node19</title>
<path fill="none" stroke="midnightblue" d="M678.784,-1366.38C686.336,-1408.13 719.546,-1562.16 810,-1641.73 811.75,-1643.27 813.619,-1644.69 815.577,-1646"/>
<polygon fill="midnightblue" stroke="midnightblue" points="814.205,-1649.24 824.64,-1651.08 817.628,-1643.14 814.205,-1649.24"/>
</g>
<!-- Node23&#45;&gt;Node20 -->
<g id="edge58" class="edge"><title>Node23&#45;&gt;Node20</title>
<path fill="none" stroke="midnightblue" d="M683.757,-1344.88C702.163,-1314.7 753.194,-1226.63 774,-1145.73 830.377,-926.517 761.326,-858.776 810,-637.728 822.09,-582.823 848.93,-521.895 863.366,-491.394"/>
<polygon fill="midnightblue" stroke="midnightblue" points="866.574,-492.799 867.747,-482.269 860.264,-489.769 866.574,-492.799"/>
</g>
<!-- Node24 -->
<g id="node49" class="node"><title>Node24</title>
<a xlink:href="classtetgenmesh.xhtml#a87204594ee11bb38e68e0381e6e04b6c" target="_top" xlink:title="tetgenmesh::pointtype">
<polygon fill="none" stroke="black" points="816.5,-1989.23 816.5,-2010.23 929.5,-2010.23 929.5,-1989.23 816.5,-1989.23"/>
<text text-anchor="middle" x="873" y="-1997.23" font-family="Helvetica,sans-Serif" font-size="10.00">tetgenmesh::pointtype</text>
</a>
</g>
<!-- Node23&#45;&gt;Node24 -->
<g id="edge50" class="edge"><title>Node23&#45;&gt;Node24</title>
<path fill="none" stroke="midnightblue" d="M680.761,-1366.5C694.812,-1407.09 744.904,-1554.77 774,-1679.73 795.873,-1773.66 776.797,-1803.18 810,-1893.73 822.005,-1926.47 844.24,-1960.46 858.826,-1980.86"/>
<polygon fill="midnightblue" stroke="midnightblue" points="856.021,-1982.95 864.74,-1988.97 861.678,-1978.83 856.021,-1982.95"/>
</g>
<!-- Node25 -->
<g id="node51" class="node"><title>Node25</title>
<a xlink:href="classtetgenmesh.xhtml#a867b8f5e8312c7a918eb96813a6f6de7" target="_top" xlink:title="tetgenmesh::sesymself">
<polygon fill="none" stroke="black" points="813.5,-1277.23 813.5,-1298.23 932.5,-1298.23 932.5,-1277.23 813.5,-1277.23"/>
<text text-anchor="middle" x="873" y="-1285.23" font-family="Helvetica,sans-Serif" font-size="10.00">tetgenmesh::sesymself</text>
</a>
</g>
<!-- Node23&#45;&gt;Node25 -->
<g id="edge52" class="edge"><title>Node23&#45;&gt;Node25</title>
<path fill="none" stroke="midnightblue" d="M724.312,-1345.12C740.257,-1341.13 758.047,-1336.21 774,-1330.73 786.85,-1326.31 816.911,-1313.1 840.559,-1302.48"/>
<polygon fill="midnightblue" stroke="midnightblue" points="842.23,-1305.56 849.907,-1298.26 839.352,-1299.18 842.23,-1305.56"/>
</g>
<!-- Node26 -->
<g id="node56" class="node"><title>Node26</title>
<a xlink:href="classtetgenmesh.xhtml#a9c4f9877ba70f7c0f399b7fcdd8fdddf" target="_top" xlink:title="tetgenmesh::esymself">
<polygon fill="none" stroke="black" points="816.5,-315.228 816.5,-336.228 929.5,-336.228 929.5,-315.228 816.5,-315.228"/>
<text text-anchor="middle" x="873" y="-323.228" font-family="Helvetica,sans-Serif" font-size="10.00">tetgenmesh::esymself</text>
</a>
</g>
<!-- Node23&#45;&gt;Node26 -->
<g id="edge60" class="edge"><title>Node23&#45;&gt;Node26</title>
<path fill="none" stroke="midnightblue" d="M683.863,-1344.91C702.539,-1314.79 754.199,-1226.88 774,-1145.73 794.645,-1061.12 765.01,-437.299 810,-362.728 815.512,-353.592 824.203,-346.465 833.39,-341.014"/>
<polygon fill="midnightblue" stroke="midnightblue" points="835.08,-344.079 842.262,-336.289 831.79,-337.9 835.08,-344.079"/>
</g>
<!-- Node27 -->
<g id="node61" class="node"><title>Node27</title>
<a xlink:href="classtetgenmesh.xhtml#adf5410985bba6ea50ce8f1efdfc97fde" target="_top" xlink:title="tetgenmesh::eprevself">
<polygon fill="none" stroke="black" points="816.5,-1863.23 816.5,-1884.23 929.5,-1884.23 929.5,-1863.23 816.5,-1863.23"/>
<text text-anchor="middle" x="873" y="-1871.23" font-family="Helvetica,sans-Serif" font-size="10.00">tetgenmesh::eprevself</text>
</a>
</g>
<!-- Node23&#45;&gt;Node27 -->
<g id="edge68" class="edge"><title>Node23&#45;&gt;Node27</title>
<path fill="none" stroke="midnightblue" d="M681.094,-1366.55C705.58,-1431.26 832.704,-1767.23 865.351,-1853.51"/>
<polygon fill="midnightblue" stroke="midnightblue" points="862.116,-1854.85 868.929,-1862.97 868.663,-1852.38 862.116,-1854.85"/>
</g>
<!-- Node28 -->
<g id="node63" class="node"><title>Node28</title>
<a xlink:href="classtetgenmesh.xhtml#a80ad866e8de2d4474369a6de3da57ced" target="_top" xlink:title="tetgenmesh::tsspivot1">
<polygon fill="none" stroke="black" points="816.5,-1406.23 816.5,-1427.23 929.5,-1427.23 929.5,-1406.23 816.5,-1406.23"/>
<text text-anchor="middle" x="873" y="-1414.23" font-family="Helvetica,sans-Serif" font-size="10.00">tetgenmesh::tsspivot1</text>
</a>
</g>
<!-- Node23&#45;&gt;Node28 -->
<g id="edge70" class="edge"><title>Node23&#45;&gt;Node28</title>
<path fill="none" stroke="midnightblue" d="M711.141,-1366.35C744.024,-1376.59 793.896,-1392.11 829.586,-1403.22"/>
<polygon fill="midnightblue" stroke="midnightblue" points="828.662,-1406.59 839.251,-1406.22 830.742,-1399.91 828.662,-1406.59"/>
</g>
<!-- Node30 -->
<g id="node71" class="node"><title>Node30</title>
<a xlink:href="classtetgenmesh.xhtml#a5066bdb73c8fc7d21ea6c9bc2974e059" target="_top" xlink:title="tetgenmesh::spivot">
<polygon fill="none" stroke="black" points="823,-1159.23 823,-1180.23 923,-1180.23 923,-1159.23 823,-1159.23"/>
<text text-anchor="middle" x="873" y="-1167.23" font-family="Helvetica,sans-Serif" font-size="10.00">tetgenmesh::spivot</text>
</a>
</g>
<!-- Node23&#45;&gt;Node30 -->
<g id="edge82" class="edge"><title>Node23&#45;&gt;Node30</title>
<path fill="none" stroke="midnightblue" d="M688.099,-1345.19C720.29,-1314.65 813.945,-1225.77 854.224,-1187.55"/>
<polygon fill="midnightblue" stroke="midnightblue" points="856.69,-1190.03 861.534,-1180.61 851.871,-1184.95 856.69,-1190.03"/>
</g>
<!-- Node29 -->
<g id="node65" class="node"><title>Node29</title>
<a xlink:href="classtetgenmesh.xhtml#ac5a50a5f6e277b5b95d58e40f3d58c2f" target="_top" xlink:title="tetgenmesh::sdecode">
<polygon fill="none" stroke="black" points="972,-1139.23 972,-1160.23 1082,-1160.23 1082,-1139.23 972,-1139.23"/>
<text text-anchor="middle" x="1027" y="-1147.23" font-family="Helvetica,sans-Serif" font-size="10.00">tetgenmesh::sdecode</text>
</a>
</g>
<!-- Node28&#45;&gt;Node29 -->
<g id="edge72" class="edge"><title>Node28&#45;&gt;Node29</title>
<path fill="none" stroke="midnightblue" d="M922.299,-1406.11C927.313,-1403.61 932.017,-1400.53 936,-1396.73 1002.24,-1333.44 1020.54,-1217.8 1025.36,-1170.62"/>
<polygon fill="midnightblue" stroke="midnightblue" points="1028.87,-1170.69 1026.3,-1160.41 1021.9,-1170.05 1028.87,-1170.69"/>
</g>
<!-- Node30&#45;&gt;Node29 -->
<g id="edge84" class="edge"><title>Node30&#45;&gt;Node29</title>
<path fill="none" stroke="midnightblue" d="M923.425,-1163.18C935.677,-1161.59 948.951,-1159.86 961.779,-1158.2"/>
<polygon fill="midnightblue" stroke="midnightblue" points="962.477,-1161.64 971.943,-1156.88 961.575,-1154.7 962.477,-1161.64"/>
</g>
<!-- Node32&#45;&gt;Node8 -->
<g id="edge160" class="edge"><title>Node32&#45;&gt;Node8</title>
<path fill="none" stroke="midnightblue" d="M265.087,-849.57C275.059,-901.684 318.432,-1131.71 344,-1321.73 354.545,-1400.09 328.758,-1615.51 380,-1675.73 428.906,-1733.2 479.665,-1680.28 544,-1719.73 564.39,-1732.23 559.252,-1747.83 580,-1759.73 589.365,-1765.1 599.97,-1769.04 610.644,-1771.92"/>
<polygon fill="midnightblue" stroke="midnightblue" points="609.89,-1775.34 620.433,-1774.29 611.535,-1768.54 609.89,-1775.34"/>
</g>
<!-- Node32&#45;&gt;Node9 -->
<g id="edge106" class="edge"><title>Node32&#45;&gt;Node9</title>
<path fill="none" stroke="midnightblue" d="M264.983,-849.562C274.832,-903.686 319.007,-1150.25 344,-1353.73 355.043,-1443.63 334.923,-1681.17 380,-1759.73 472.635,-1921.18 633.645,-2023.99 774,-1901.73 861.965,-1825.1 734.803,-1730.92 810,-1641.73 812.327,-1638.97 815.032,-1636.59 817.989,-1634.53"/>
<polygon fill="midnightblue" stroke="midnightblue" points="819.866,-1637.49 826.88,-1629.55 816.445,-1631.38 819.866,-1637.49"/>
</g>
<!-- Node32&#45;&gt;Node10 -->
<g id="edge98" class="edge"><title>Node32&#45;&gt;Node10</title>
<path fill="none" stroke="midnightblue" d="M264.762,-849.269C278.457,-931.077 367.691,-1461.7 380,-1472.73 506.085,-1585.7 730.594,-1545.94 826.97,-1521.75"/>
<polygon fill="midnightblue" stroke="midnightblue" points="827.896,-1525.13 836.711,-1519.25 826.155,-1518.35 827.896,-1525.13"/>
</g>
<!-- Node32&#45;&gt;Node11 -->
<g id="edge110" class="edge"><title>Node32&#45;&gt;Node11</title>
<path fill="none" stroke="midnightblue" d="M263.723,-849.596C268.582,-919.168 298.777,-1301.61 380,-1377.73 508.142,-1497.82 600.4,-1434.27 774,-1407.73 775.529,-1407.49 803.952,-1398.58 829.951,-1390.37"/>
<polygon fill="midnightblue" stroke="midnightblue" points="831.255,-1393.62 839.735,-1387.27 829.145,-1386.95 831.255,-1393.62"/>
</g>
<!-- Node32&#45;&gt;Node13 -->
<g id="edge158" class="edge"><title>Node32&#45;&gt;Node13</title>
<path fill="none" stroke="midnightblue" d="M263.674,-827.968C268.225,-759.097 296.83,-380.714 380,-309.728 446.627,-252.861 702.72,-246.814 774,-297.728 814.144,-326.402 774.719,-368.246 810,-402.728 811.477,-404.172 813.058,-405.511 814.721,-406.754"/>
<polygon fill="midnightblue" stroke="midnightblue" points="813.259,-409.963 823.615,-412.198 816.914,-403.993 813.259,-409.963"/>
</g>
<!-- Node32&#45;&gt;Node14 -->
<g id="edge166" class="edge"><title>Node32&#45;&gt;Node14</title>
<path fill="none" stroke="midnightblue" d="M263.929,-828.032C268.137,-786.954 289.356,-638.631 380,-578.728 453.05,-530.452 702.598,-524.047 774,-574.728 813.544,-602.797 782.65,-637.683 810,-677.728 820.034,-692.419 835.049,-705.503 847.903,-715.112"/>
<polygon fill="midnightblue" stroke="midnightblue" points="846.204,-718.2 856.37,-721.185 850.285,-712.512 846.204,-718.2"/>
</g>
<!-- Node32&#45;&gt;Node15 -->
<g id="edge184" class="edge"><title>Node32&#45;&gt;Node15</title>
<path fill="none" stroke="midnightblue" d="M265.697,-827.853C274.804,-793.778 307.964,-688.967 380,-648.728 528.601,-565.719 743.777,-617.087 832.462,-644.166"/>
<polygon fill="midnightblue" stroke="midnightblue" points="831.553,-647.548 842.141,-647.179 833.634,-640.865 831.553,-647.548"/>
</g>
<!-- Node32&#45;&gt;Node16 -->
<g id="edge162" class="edge"><title>Node32&#45;&gt;Node16</title>
<path fill="none" stroke="midnightblue" d="M274.628,-849.25C294.595,-866.691 337.379,-901.383 380,-918.728 529.741,-979.667 726.153,-969.316 819.397,-959.607"/>
<polygon fill="midnightblue" stroke="midnightblue" points="819.875,-963.076 829.441,-958.522 819.123,-956.117 819.875,-963.076"/>
</g>
<!-- Node32&#45;&gt;Node17 -->
<g id="edge168" class="edge"><title>Node32&#45;&gt;Node17</title>
<path fill="none" stroke="midnightblue" d="M263.443,-827.972C266.664,-755.667 288.983,-340.98 380,-264.728 413.56,-236.612 737.552,-235.472 774,-259.728 808.496,-282.684 782.737,-314.524 810,-345.728 817.668,-354.504 827.946,-361.746 837.974,-367.425"/>
<polygon fill="midnightblue" stroke="midnightblue" points="836.552,-370.632 847.03,-372.201 839.817,-364.44 836.552,-370.632"/>
</g>
<!-- Node32&#45;&gt;Node18 -->
<g id="edge178" class="edge"><title>Node32&#45;&gt;Node18</title>
<path fill="none" stroke="midnightblue" d="M264.172,-849.497C271.375,-913.771 311.594,-1246.34 380,-1317.73 502.457,-1445.53 602.194,-1418.28 774,-1375.73 791.561,-1371.38 793.312,-1363.71 810,-1356.73 815.16,-1354.57 820.64,-1352.5 826.13,-1350.58"/>
<polygon fill="midnightblue" stroke="midnightblue" points="827.594,-1353.78 835.957,-1347.28 825.363,-1347.15 827.594,-1353.78"/>
</g>
<!-- Node32&#45;&gt;Node19 -->
<g id="edge170" class="edge"><title>Node32&#45;&gt;Node19</title>
<path fill="none" stroke="midnightblue" d="M265.053,-849.554C275.234,-903.639 320.75,-1150.05 344,-1353.73 350.367,-1409.51 346.985,-1812.32 380,-1857.73 485.128,-2002.32 627.856,-2041.69 774,-1938.73 785.101,-1930.91 846.113,-1744.81 866.422,-1682.13"/>
<polygon fill="midnightblue" stroke="midnightblue" points="869.874,-1682.83 869.62,-1672.23 863.213,-1680.67 869.874,-1682.83"/>
</g>
<!-- Node32&#45;&gt;Node20 -->
<g id="edge174" class="edge"><title>Node32&#45;&gt;Node20</title>
<path fill="none" stroke="midnightblue" d="M264.974,-828.206C275.12,-775.346 323.123,-539.601 380,-496.728 445.334,-447.48 687.455,-457.787 806.31,-466.208"/>
<polygon fill="midnightblue" stroke="midnightblue" points="806.154,-469.706 816.381,-466.938 806.66,-462.724 806.154,-469.706"/>
</g>
<!-- Node32&#45;&gt;Node21 -->
<g id="edge216" class="edge"><title>Node32&#45;&gt;Node21</title>
<path fill="none" stroke="midnightblue" d="M264.973,-849.233C274.597,-900.701 317.225,-1131.45 344,-1321.73 353.848,-1391.71 334.634,-1583.53 380,-1637.73 428.83,-1696.06 477.837,-1649.18 544,-1686.73 562.878,-1697.44 560.674,-1709.85 580,-1719.73 589.397,-1724.53 599.865,-1728.18 610.349,-1730.96"/>
<polygon fill="midnightblue" stroke="midnightblue" points="609.832,-1734.43 620.372,-1733.36 611.462,-1727.62 609.832,-1734.43"/>
</g>
<!-- Node32&#45;&gt;Node22 -->
<g id="edge220" class="edge"><title>Node32&#45;&gt;Node22</title>
<path fill="none" stroke="midnightblue" d="M264.911,-849.242C274.244,-900.752 315.722,-1131.66 344,-1321.73 353.135,-1383.13 339.914,-1551.33 380,-1598.73 429.21,-1656.91 471.936,-1623.96 544,-1648.73 577.535,-1660.25 615.229,-1674.87 641.902,-1685.5"/>
<polygon fill="midnightblue" stroke="midnightblue" points="640.618,-1688.75 651.203,-1689.22 643.219,-1682.25 640.618,-1688.75"/>
</g>
<!-- Node32&#45;&gt;Node24 -->
<g id="edge92" class="edge"><title>Node32&#45;&gt;Node24</title>
<path fill="none" stroke="midnightblue" d="M265.115,-849.547C275.597,-903.599 322.326,-1149.87 344,-1353.73 351.577,-1424.99 330.96,-1945.47 380,-1997.73 500.947,-2126.62 747.571,-2048.87 838.408,-2013.98"/>
<polygon fill="midnightblue" stroke="midnightblue" points="839.912,-2017.15 847.952,-2010.26 837.364,-2010.63 839.912,-2017.15"/>
</g>
<!-- Node32&#45;&gt;Node25 -->
<g id="edge228" class="edge"><title>Node32&#45;&gt;Node25</title>
<path fill="none" stroke="midnightblue" d="M264.914,-849.385C274.947,-904.048 323.17,-1152.3 380,-1201.73 442.107,-1255.75 682.351,-1276.91 803.014,-1284.27"/>
<polygon fill="midnightblue" stroke="midnightblue" points="803.062,-1287.78 813.252,-1284.88 803.478,-1280.79 803.062,-1287.78"/>
</g>
<!-- Node32&#45;&gt;Node26 -->
<g id="edge164" class="edge"><title>Node32&#45;&gt;Node26</title>
<path fill="none" stroke="midnightblue" d="M263.328,-827.968C265.832,-753.785 284.502,-318.779 380,-239.728 447.446,-183.897 695.29,-200.378 774,-238.728 797.338,-250.099 790.861,-267.187 810,-284.728 820.4,-294.259 833.251,-303.052 844.627,-310.03"/>
<polygon fill="midnightblue" stroke="midnightblue" points="842.976,-313.119 853.361,-315.217 846.55,-307.101 842.976,-313.119"/>
</g>
<!-- Node32&#45;&gt;Node27 -->
<g id="edge180" class="edge"><title>Node32&#45;&gt;Node27</title>
<path fill="none" stroke="midnightblue" d="M265.091,-849.55C275.455,-903.614 321.711,-1149.94 344,-1353.73 351.032,-1418.02 338.169,-1885.4 380,-1934.73 494.021,-2069.19 612.46,-2051.34 774,-1980.73 814.919,-1962.84 846.464,-1918.77 862.117,-1893.12"/>
<polygon fill="midnightblue" stroke="midnightblue" points="865.264,-1894.67 867.325,-1884.28 859.233,-1891.12 865.264,-1894.67"/>
</g>
<!-- Node32&#45;&gt;Node28 -->
<g id="edge218" class="edge"><title>Node32&#45;&gt;Node28</title>
<path fill="none" stroke="midnightblue" d="M264.768,-849.56C277.63,-928.085 356.972,-1407.54 380,-1427.73 512.648,-1544.02 751.165,-1465.98 839.178,-1431.1"/>
<polygon fill="midnightblue" stroke="midnightblue" points="840.703,-1434.26 848.669,-1427.27 838.085,-1427.77 840.703,-1434.26"/>
</g>
<!-- Node32&#45;&gt;Node29 -->
<g id="edge94" class="edge"><title>Node32&#45;&gt;Node29</title>
<path fill="none" stroke="midnightblue" d="M265.449,-828.134C277.056,-778.932 328.123,-573.604 380,-537.728 452.014,-487.927 689.876,-511.45 774,-535.728 855.747,-559.32 888.495,-567.142 936,-637.728 991.84,-720.698 1019.19,-1043.54 1025.53,-1128.92"/>
<polygon fill="midnightblue" stroke="midnightblue" points="1022.05,-1129.22 1026.26,-1138.94 1029.03,-1128.71 1022.05,-1129.22"/>
</g>
<!-- Node32&#45;&gt;Node30 -->
<g id="edge192" class="edge"><title>Node32&#45;&gt;Node30</title>
<path fill="none" stroke="midnightblue" d="M264.956,-849.341C272.467,-887.058 302.983,-1015.94 380,-1082.73 450.406,-1143.79 488.544,-1127.81 580,-1145.73 659.379,-1161.28 752.769,-1166.77 812.4,-1168.7"/>
<polygon fill="midnightblue" stroke="midnightblue" points="812.665,-1172.21 822.765,-1169.01 812.875,-1165.22 812.665,-1172.21"/>
</g>
<!-- Node32&#45;&gt;Node31 -->
<g id="edge128" class="edge"><title>Node32&#45;&gt;Node31</title>
<path fill="none" stroke="midnightblue" d="M263.984,-828.211C271.84,-745.354 325.48,-199.725 380,-153.728 447.395,-96.8683 691.657,-169.19 774,-200.728 797.446,-209.708 821.803,-223.904 840.49,-236.004"/>
<polygon fill="midnightblue" stroke="midnightblue" points="838.642,-238.978 848.916,-241.566 842.498,-233.136 838.642,-238.978"/>
</g>
<!-- Node33 -->
<g id="node81" class="node"><title>Node33</title>
<a xlink:href="classtetgenmesh.xhtml#a71c1fce651aaffe6e7db6c1f64f7f67d" target="_top" xlink:title="tetgenmesh::point2sh">
<polygon fill="none" stroke="black" points="407,-163.228 407,-184.228 517,-184.228 517,-163.228 407,-163.228"/>
<text text-anchor="middle" x="462" y="-171.228" font-family="Helvetica,sans-Serif" font-size="10.00">tetgenmesh::point2sh</text>
</a>
</g>
<!-- Node32&#45;&gt;Node33 -->
<g id="edge96" class="edge"><title>Node32&#45;&gt;Node33</title>
<path fill="none" stroke="midnightblue" d="M263.473,-828.036C267.028,-752.351 291.895,-297.607 380,-198.728 384.901,-193.227 390.973,-188.92 397.579,-185.548"/>
<polygon fill="midnightblue" stroke="midnightblue" points="399.087,-188.709 406.859,-181.508 396.293,-182.291 399.087,-188.709"/>
</g>
<!-- Node34 -->
<g id="node84" class="node"><title>Node34</title>
<a xlink:href="classtetgenmesh.xhtml#a5e0c9efed1fb3a19ed5c2b0721086840" target="_top" xlink:title="tetgenmesh::senext">
<polygon fill="none" stroke="black" points="821.5,-1079.23 821.5,-1100.23 924.5,-1100.23 924.5,-1079.23 821.5,-1079.23"/>
<text text-anchor="middle" x="873" y="-1087.23" font-family="Helvetica,sans-Serif" font-size="10.00">tetgenmesh::senext</text>
</a>
</g>
<!-- Node32&#45;&gt;Node34 -->
<g id="edge100" class="edge"><title>Node32&#45;&gt;Node34</title>
<path fill="none" stroke="midnightblue" d="M267.243,-827.927C279.457,-798.542 317.854,-717.317 380,-686.728 458.556,-648.063 709.257,-627.785 774,-686.728 837.213,-744.278 756.343,-1003.18 810,-1069.73 810.99,-1070.96 812.056,-1072.11 813.186,-1073.19"/>
<polygon fill="midnightblue" stroke="midnightblue" points="811.359,-1076.2 821.464,-1079.38 815.551,-1070.59 811.359,-1076.2"/>
</g>
<!-- Node35 -->
<g id="node86" class="node"><title>Node35</title>
<a xlink:href="classtetgenmesh.xhtml#a088e275c2a89691864c08d3bfe2c0460" target="_top" xlink:title="tetgenmesh::spivotself">
<polygon fill="none" stroke="black" points="815,-1119.23 815,-1140.23 931,-1140.23 931,-1119.23 815,-1119.23"/>
<text text-anchor="middle" x="873" y="-1127.23" font-family="Helvetica,sans-Serif" font-size="10.00">tetgenmesh::spivotself</text>
</a>
</g>
<!-- Node32&#45;&gt;Node35 -->
<g id="edge102" class="edge"><title>Node32&#45;&gt;Node35</title>
<path fill="none" stroke="midnightblue" d="M272.039,-828.194C290.17,-807.875 333.261,-763.528 380,-743.728 460.769,-709.511 709.186,-660.621 774,-719.728 838.309,-778.374 755.427,-1041.93 810,-1109.73 810.967,-1110.93 812.006,-1112.06 813.107,-1113.12"/>
<polygon fill="midnightblue" stroke="midnightblue" points="811.074,-1115.97 821.161,-1119.21 815.296,-1110.39 811.074,-1115.97"/>
</g>
<!-- Node36 -->
<g id="node90" class="node"><title>Node36</title>
<a xlink:href="classtetgenmesh.xhtml#a9e2a0e8ac94c6273dd98c83b6c4bb0d9" target="_top" xlink:title="tetgenmesh::senext2">
<polygon fill="none" stroke="black" points="819,-855.228 819,-876.228 927,-876.228 927,-855.228 819,-855.228"/>
<text text-anchor="middle" x="873" y="-863.228" font-family="Helvetica,sans-Serif" font-size="10.00">tetgenmesh::senext2</text>
</a>
</g>
<!-- Node32&#45;&gt;Node36 -->
<g id="edge108" class="edge"><title>Node32&#45;&gt;Node36</title>
<path fill="none" stroke="midnightblue" d="M265.697,-827.853C274.804,-793.778 307.964,-688.967 380,-648.728 532.876,-563.331 631.204,-547.371 774,-648.728 813.544,-676.797 790.202,-707.46 810,-751.728 825.36,-786.072 847.365,-823.928 860.89,-846.223"/>
<polygon fill="midnightblue" stroke="midnightblue" points="858.081,-848.337 866.288,-855.037 864.05,-844.681 858.081,-848.337"/>
</g>
<!-- Node37 -->
<g id="node93" class="node"><title>Node37</title>
<a xlink:href="classtetgenmesh.xhtml#a9ba3540239e05588c5a2021b15d89a8e" target="_top" xlink:title="tetgenmesh::getvertexstar">
<polygon fill="none" stroke="red" points="611.5,-307.228 611.5,-328.228 742.5,-328.228 742.5,-307.228 611.5,-307.228"/>
<text text-anchor="middle" x="677" y="-315.228" font-family="Helvetica,sans-Serif" font-size="10.00">tetgenmesh::getvertexstar</text>
</a>
</g>
<!-- Node32&#45;&gt;Node37 -->
<g id="edge112" class="edge"><title>Node32&#45;&gt;Node37</title>
<path fill="none" stroke="midnightblue" d="M264.14,-828.227C271.154,-765.572 310.463,-441.564 380,-375.728 438.786,-320.071 534.407,-310.402 601.221,-311.524"/>
<polygon fill="midnightblue" stroke="midnightblue" points="601.19,-315.024 611.275,-311.777 601.366,-308.026 601.19,-315.024"/>
</g>
<!-- Node38 -->
<g id="node97" class="node"><title>Node38</title>
<a xlink:href="classtetgenmesh.xhtml#a523cfafc3be8e0ead97a13707b33e4b3" target="_top" xlink:title="tetgenmesh::esym">
<polygon fill="none" stroke="black" points="824,-39.2279 824,-60.2279 922,-60.2279 922,-39.2279 824,-39.2279"/>
<text text-anchor="middle" x="873" y="-47.2279" font-family="Helvetica,sans-Serif" font-size="10.00">tetgenmesh::esym</text>
</a>
</g>
<!-- Node32&#45;&gt;Node38 -->
<g id="edge172" class="edge"><title>Node32&#45;&gt;Node38</title>
<path fill="none" stroke="midnightblue" d="M263.813,-828.128C270.701,-739.604 320.51,-125.182 380,-71.7279 507.895,43.1907 738.243,-8.54801 831.812,-36.2706"/>
<polygon fill="midnightblue" stroke="midnightblue" points="830.899,-39.651 841.484,-39.1962 832.925,-32.9508 830.899,-39.651"/>
</g>
<!-- Node39 -->
<g id="node104" class="node"><title>Node39</title>
<a xlink:href="classtetgenmesh.xhtml#af61e64f6536238f25296f3f26b360935" target="_top" xlink:title="tetgenmesh::reduceedgesatvertex">
<polygon fill="none" stroke="red" points="380,-385.228 380,-406.228 544,-406.228 544,-385.228 380,-385.228"/>
<text text-anchor="middle" x="462" y="-393.228" font-family="Helvetica,sans-Serif" font-size="10.00">tetgenmesh::reduceedgesatvertex</text>
</a>
</g>
<!-- Node32&#45;&gt;Node39 -->
<g id="edge130" class="edge"><title>Node32&#45;&gt;Node39</title>
<path fill="none" stroke="midnightblue" d="M264.559,-828.206C273.456,-769.472 319.561,-482.574 380,-420.728 383.677,-416.966 387.901,-413.766 392.452,-411.045"/>
<polygon fill="midnightblue" stroke="midnightblue" points="394.247,-414.058 401.547,-406.38 391.052,-407.829 394.247,-414.058"/>
</g>
<!-- Node40 -->
<g id="node106" class="node"><title>Node40</title>
<a xlink:href="classtetgenmesh.xhtml#ae680a6f607f14655b0078e066a95bc34" target="_top" xlink:title="tetgenmesh::getedge">
<polygon fill="none" stroke="red" points="623,-385.228 623,-406.228 731,-406.228 731,-385.228 623,-385.228"/>
<text text-anchor="middle" x="677" y="-393.228" font-family="Helvetica,sans-Serif" font-size="10.00">tetgenmesh::getedge</text>
</a>
</g>
<!-- Node32&#45;&gt;Node40 -->
<g id="edge186" class="edge"><title>Node32&#45;&gt;Node40</title>
<path fill="none" stroke="midnightblue" d="M264.808,-827.99C274.489,-771.763 321.918,-511.822 380,-458.728 397.109,-443.088 530.945,-419.194 613.009,-405.775"/>
<polygon fill="midnightblue" stroke="midnightblue" points="613.686,-409.211 622.995,-404.152 612.563,-402.302 613.686,-409.211"/>
</g>
<!-- Node41 -->
<g id="node115" class="node"><title>Node41</title>
<a xlink:href="classtetgenmesh.xhtml#a1aec13642da07ff1a874fccf9b62eca5" target="_top" xlink:title="tetgenmesh::fnext">
<polygon fill="none" stroke="red" points="825.5,-161.228 825.5,-182.228 920.5,-182.228 920.5,-161.228 825.5,-161.228"/>
<text text-anchor="middle" x="873" y="-169.228" font-family="Helvetica,sans-Serif" font-size="10.00">tetgenmesh::fnext</text>
</a>
</g>
<!-- Node32&#45;&gt;Node41 -->
<g id="edge176" class="edge"><title>Node32&#45;&gt;Node41</title>
<path fill="none" stroke="midnightblue" d="M263.929,-828.099C271.456,-743.161 323.625,-176.573 380,-128.728 517.361,-12.1502 760.479,-115.409 843.931,-156.575"/>
<polygon fill="midnightblue" stroke="midnightblue" points="842.568,-159.807 853.076,-161.156 845.702,-153.548 842.568,-159.807"/>
</g>
<!-- Node42 -->
<g id="node133" class="node"><title>Node42</title>
<a xlink:href="classtetgenmesh.xhtml#a5f04514ee657caf3131156a233e713c8" target="_top" xlink:title="tetgenmesh::eprev">
<polygon fill="none" stroke="black" points="413,-1171.23 413,-1192.23 511,-1192.23 511,-1171.23 413,-1171.23"/>
<text text-anchor="middle" x="462" y="-1179.23" font-family="Helvetica,sans-Serif" font-size="10.00">tetgenmesh::eprev</text>
</a>
</g>
<!-- Node32&#45;&gt;Node42 -->
<g id="edge182" class="edge"><title>Node32&#45;&gt;Node42</title>
<path fill="none" stroke="midnightblue" d="M263.62,-849.319C266.801,-893.763 285.078,-1067.03 380,-1156.73 386.673,-1163.03 394.892,-1167.75 403.523,-1171.28"/>
<polygon fill="midnightblue" stroke="midnightblue" points="402.403,-1174.6 412.998,-1174.66 404.757,-1168.01 402.403,-1174.6"/>
</g>
<!-- Node43 -->
<g id="node137" class="node"><title>Node43</title>
<a xlink:href="classtetgenmesh.xhtml#a788e44391533938a8f0d89ed0996e5d7" target="_top" xlink:title="tetgenmesh::tssdissolve1">
<polygon fill="none" stroke="black" points="613,-729.228 613,-750.228 741,-750.228 741,-729.228 613,-729.228"/>
<text text-anchor="middle" x="677" y="-737.228" font-family="Helvetica,sans-Serif" font-size="10.00">tetgenmesh::tssdissolve1</text>
</a>
</g>
<!-- Node32&#45;&gt;Node43 -->
<g id="edge188" class="edge"><title>Node32&#45;&gt;Node43</title>
<path fill="none" stroke="midnightblue" d="M278.866,-828.115C300.656,-814.101 341.531,-789.793 380,-777.728 453.497,-754.676 541.415,-745.579 602.437,-742.005"/>
<polygon fill="midnightblue" stroke="midnightblue" points="602.956,-745.482 612.749,-741.438 602.572,-738.492 602.956,-745.482"/>
</g>
<!-- Node44 -->
<g id="node139" class="node"><title>Node44</title>
<a xlink:href="classtetgenmesh.xhtml#a0a9be30d686262c0ceddda63cb8ad477" target="_top" xlink:title="tetgenmesh::sstdissolve1">
<polygon fill="none" stroke="black" points="398,-1001.23 398,-1022.23 526,-1022.23 526,-1001.23 398,-1001.23"/>
<text text-anchor="middle" x="462" y="-1009.23" font-family="Helvetica,sans-Serif" font-size="10.00">tetgenmesh::sstdissolve1</text>
</a>
</g>
<!-- Node32&#45;&gt;Node44 -->
<g id="edge190" class="edge"><title>Node32&#45;&gt;Node44</title>
<path fill="none" stroke="midnightblue" d="M268.477,-849.502C282.877,-876.741 324.541,-948.877 380,-986.728 386.396,-991.093 393.58,-994.717 400.966,-997.72"/>
<polygon fill="midnightblue" stroke="midnightblue" points="399.794,-1001.02 410.387,-1001.2 402.22,-994.452 399.794,-1001.02"/>
</g>
<!-- Node45 -->
<g id="node142" class="node"><title>Node45</title>
<a xlink:href="classtetgenmesh.xhtml#a7fc2b1bb2e54a5e013edc3e23bd0523b" target="_top" xlink:title="tetgenmesh::sremovevertex">
<polygon fill="none" stroke="red" points="608,-1115.23 608,-1136.23 746,-1136.23 746,-1115.23 608,-1115.23"/>
<text text-anchor="middle" x="677" y="-1123.23" font-family="Helvetica,sans-Serif" font-size="10.00">tetgenmesh::sremovevertex</text>
</a>
</g>
<!-- Node32&#45;&gt;Node45 -->
<g id="edge194" class="edge"><title>Node32&#45;&gt;Node45</title>
<path fill="none" stroke="midnightblue" d="M266.393,-849.323C277.313,-881.724 314.692,-980.393 380,-1031.73 443.266,-1081.46 533.318,-1105.13 597.649,-1116.24"/>
<polygon fill="midnightblue" stroke="midnightblue" points="597.306,-1119.73 607.744,-1117.92 598.453,-1112.83 597.306,-1119.73"/>
</g>
<!-- Node46 -->
<g id="node157" class="node"><title>Node46</title>
<a xlink:href="classtetgenmesh.xhtml#a036752e66b8fcce81d7f983842fcf8d3" target="_top" xlink:title="tetgenmesh::setpointtype">
<polygon fill="none" stroke="black" points="398.5,-888.228 398.5,-909.228 525.5,-909.228 525.5,-888.228 398.5,-888.228"/>
<text text-anchor="middle" x="462" y="-896.228" font-family="Helvetica,sans-Serif" font-size="10.00">tetgenmesh::setpointtype</text>
</a>
</g>
<!-- Node32&#45;&gt;Node46 -->
<g id="edge222" class="edge"><title>Node32&#45;&gt;Node46</title>
<path fill="none" stroke="midnightblue" d="M291.618,-849.32C315.165,-857.839 349.505,-869.816 380,-878.728 388.189,-881.121 396.894,-883.46 405.457,-885.646"/>
<polygon fill="midnightblue" stroke="midnightblue" points="404.854,-889.103 415.404,-888.135 406.553,-882.312 404.854,-889.103"/>
</g>
<!-- Node47 -->
<g id="node159" class="node"><title>Node47</title>
<a xlink:href="classtetgenmesh.xhtml#a2d9e294c7e3eb0dc1e75d7972d6fd5cd" target="_top" xlink:title="tetgenmesh::stpivot">
<polygon fill="none" stroke="red" points="625.5,-769.228 625.5,-790.228 728.5,-790.228 728.5,-769.228 625.5,-769.228"/>
<text text-anchor="middle" x="677" y="-777.228" font-family="Helvetica,sans-Serif" font-size="10.00">tetgenmesh::stpivot</text>
</a>
</g>
<!-- Node32&#45;&gt;Node47 -->
<g id="edge224" class="edge"><title>Node32&#45;&gt;Node47</title>
<path fill="none" stroke="midnightblue" d="M287.577,-828.181C310.895,-818.693 347.157,-805.271 380,-798.728 460.234,-782.743 554.837,-779.263 615.339,-778.935"/>
<polygon fill="midnightblue" stroke="midnightblue" points="615.497,-782.434 625.488,-778.907 615.479,-775.434 615.497,-782.434"/>
</g>
<!-- Node48 -->
<g id="node161" class="node"><title>Node48</title>
<a xlink:href="classtetgenmesh.xhtml#a7bc17e79a3044819d9877b53d4153ac7" target="_top" xlink:title="tetgenmesh::tsdissolve">
<polygon fill="none" stroke="black" points="403,-848.228 403,-869.228 521,-869.228 521,-848.228 403,-848.228"/>
<text text-anchor="middle" x="462" y="-856.228" font-family="Helvetica,sans-Serif" font-size="10.00">tetgenmesh::tsdissolve</text>
</a>
</g>
<!-- Node32&#45;&gt;Node48 -->
<g id="edge226" class="edge"><title>Node32&#45;&gt;Node48</title>
<path fill="none" stroke="midnightblue" d="M343.654,-846.834C359.916,-848.468 376.875,-850.173 392.707,-851.764"/>
<polygon fill="midnightblue" stroke="midnightblue" points="392.629,-855.273 402.929,-852.791 393.329,-848.309 392.629,-855.273"/>
</g>
<!-- Node49 -->
<g id="node164" class="node"><title>Node49</title>
<a xlink:href="classtetgenmesh.xhtml#aa43f0d641fd3b1585ef25c68f719e54a" target="_top" xlink:title="tetgenmesh::stdissolve">
<polygon fill="none" stroke="black" points="403,-808.228 403,-829.228 521,-829.228 521,-808.228 403,-808.228"/>
<text text-anchor="middle" x="462" y="-816.228" font-family="Helvetica,sans-Serif" font-size="10.00">tetgenmesh::stdissolve</text>
</a>
</g>
<!-- Node32&#45;&gt;Node49 -->
<g id="edge230" class="edge"><title>Node32&#45;&gt;Node49</title>
<path fill="none" stroke="midnightblue" d="M343.654,-830.622C359.916,-828.988 376.875,-827.283 392.707,-825.692"/>
<polygon fill="midnightblue" stroke="midnightblue" points="393.329,-829.147 402.929,-824.665 392.629,-822.182 393.329,-829.147"/>
</g>
<!-- Node35&#45;&gt;Node29 -->
<g id="edge104" class="edge"><title>Node35&#45;&gt;Node29</title>
<path fill="none" stroke="midnightblue" d="M931.221,-1137.29C941.186,-1138.58 951.599,-1139.94 961.734,-1141.25"/>
<polygon fill="midnightblue" stroke="midnightblue" points="961.382,-1144.74 971.749,-1142.55 962.283,-1137.79 961.382,-1144.74"/>
</g>
<!-- Node37&#45;&gt;Node4 -->
<g id="edge116" class="edge"><title>Node37&#45;&gt;Node4</title>
<path fill="none" stroke="midnightblue" d="M710.388,-328.394C732.456,-337.324 759.836,-352.421 774,-375.728 843.022,-489.308 759.102,-849.952 810,-972.728 817.439,-990.671 831.382,-1007.14 844.264,-1019.69"/>
<polygon fill="midnightblue" stroke="midnightblue" points="841.973,-1022.34 851.669,-1026.61 846.752,-1017.23 841.973,-1022.34"/>
</g>
<!-- Node37&#45;&gt;Node13 -->
<g id="edge114" class="edge"><title>Node37&#45;&gt;Node13</title>
<path fill="none" stroke="midnightblue" d="M742.531,-327.17C753.735,-330.798 764.733,-335.809 774,-342.728 798.92,-361.332 785.603,-383.443 810,-402.728 812.279,-404.529 814.723,-406.17 817.277,-407.664"/>
<polygon fill="midnightblue" stroke="midnightblue" points="815.8,-410.839 826.307,-412.2 818.942,-404.583 815.8,-410.839"/>
</g>
<!-- Node37&#45;&gt;Node15 -->
<g id="edge120" class="edge"><title>Node37&#45;&gt;Node15</title>
<path fill="none" stroke="midnightblue" d="M705.975,-328.371C727.629,-337.727 756.413,-353.364 774,-375.728 807.369,-418.16 792.415,-440.691 810,-491.728 828.315,-544.881 852.51,-606.553 864.911,-637.627"/>
<polygon fill="midnightblue" stroke="midnightblue" points="861.672,-638.954 868.638,-646.936 868.17,-636.352 861.672,-638.954"/>
</g>
<!-- Node37&#45;&gt;Node17 -->
<g id="edge124" class="edge"><title>Node37&#45;&gt;Node17</title>
<path fill="none" stroke="midnightblue" d="M723.249,-328.327C739.436,-332.384 757.647,-337.343 774,-342.728 796.341,-350.085 820.856,-359.975 839.901,-368.08"/>
<polygon fill="midnightblue" stroke="midnightblue" points="838.753,-371.396 849.322,-372.133 841.519,-364.966 838.753,-371.396"/>
</g>
<!-- Node37&#45;&gt;Node20 -->
<g id="edge126" class="edge"><title>Node37&#45;&gt;Node20</title>
<path fill="none" stroke="midnightblue" d="M702.663,-328.378C723.863,-338.19 753.671,-354.445 774,-375.728 797.349,-400.173 785.372,-419.573 810,-442.728 815.921,-448.295 823.1,-452.942 830.461,-456.768"/>
<polygon fill="midnightblue" stroke="midnightblue" points="829.266,-460.074 839.803,-461.182 832.256,-453.745 829.266,-460.074"/>
</g>
<!-- Node37&#45;&gt;Node26 -->
<g id="edge122" class="edge"><title>Node37&#45;&gt;Node26</title>
<path fill="none" stroke="midnightblue" d="M742.538,-320.403C763.006,-321.238 785.604,-322.161 806.161,-323"/>
<polygon fill="midnightblue" stroke="midnightblue" points="806.251,-326.506 816.385,-323.417 806.536,-319.512 806.251,-326.506"/>
</g>
<!-- Node37&#45;&gt;Node38 -->
<g id="edge118" class="edge"><title>Node37&#45;&gt;Node38</title>
<path fill="none" stroke="midnightblue" d="M684.683,-307.222C714.256,-266.786 820.975,-120.864 859.233,-68.5527"/>
<polygon fill="midnightblue" stroke="midnightblue" points="862.079,-70.5902 865.157,-60.4524 856.428,-66.458 862.079,-70.5902"/>
</g>
<!-- Node39&#45;&gt;Node13 -->
<g id="edge154" class="edge"><title>Node39&#45;&gt;Node13</title>
<path fill="none" stroke="midnightblue" d="M496.794,-385.157C555.615,-369.097 677.709,-343.631 774,-375.728 792.974,-382.052 792.218,-393.573 810,-402.728 814.24,-404.911 818.765,-406.912 823.369,-408.734"/>
<polygon fill="midnightblue" stroke="midnightblue" points="822.272,-412.059 832.866,-412.219 824.684,-405.488 822.272,-412.059"/>
</g>
<!-- Node39&#45;&gt;Node14 -->
<g id="edge156" class="edge"><title>Node39&#45;&gt;Node14</title>
<path fill="none" stroke="midnightblue" d="M522.635,-406.263C593.509,-421.804 709.314,-457.797 774,-534.728 816.179,-584.89 775.498,-622.006 810,-677.728 819.242,-692.655 833.963,-705.608 846.852,-715.084"/>
<polygon fill="midnightblue" stroke="midnightblue" points="845.194,-718.196 855.392,-721.07 849.212,-712.464 845.194,-718.196"/>
</g>
<!-- Node39&#45;&gt;Node40 -->
<g id="edge132" class="edge"><title>Node39&#45;&gt;Node40</title>
<path fill="none" stroke="midnightblue" d="M544.203,-395.728C566.922,-395.728 591.239,-395.728 612.775,-395.728"/>
<polygon fill="midnightblue" stroke="midnightblue" points="612.78,-399.228 622.78,-395.728 612.78,-392.228 612.78,-399.228"/>
</g>
<!-- Node40&#45;&gt;Node4 -->
<g id="edge150" class="edge"><title>Node40&#45;&gt;Node4</title>
<path fill="none" stroke="midnightblue" d="M682.288,-406.503C698.901,-440.874 750.34,-551.364 774,-648.728 808.213,-789.517 751.158,-840.328 810,-972.728 817.889,-990.478 831.868,-1006.93 844.658,-1019.52"/>
<polygon fill="midnightblue" stroke="midnightblue" points="842.327,-1022.14 851.995,-1026.47 847.14,-1017.06 842.327,-1022.14"/>
</g>
<!-- Node40&#45;&gt;Node11 -->
<g id="edge134" class="edge"><title>Node40&#45;&gt;Node11</title>
<path fill="none" stroke="midnightblue" d="M681.207,-406.413C696.842,-446.676 751.83,-593.362 774,-719.728 786.25,-789.552 766.54,-1300.72 810,-1356.73 810.831,-1357.8 811.719,-1358.81 812.658,-1359.77"/>
<polygon fill="midnightblue" stroke="midnightblue" points="810.709,-1362.7 820.725,-1366.15 815.049,-1357.2 810.709,-1362.7"/>
</g>
<!-- Node40&#45;&gt;Node13 -->
<g id="edge142" class="edge"><title>Node40&#45;&gt;Node13</title>
<path fill="none" stroke="midnightblue" d="M731.077,-403.177C752.495,-406.128 777.444,-409.564 800.396,-412.726"/>
<polygon fill="midnightblue" stroke="midnightblue" points="800.052,-416.212 810.436,-414.109 801.007,-409.277 800.052,-416.212"/>
</g>
<!-- Node40&#45;&gt;Node14 -->
<g id="edge138" class="edge"><title>Node40&#45;&gt;Node14</title>
<path fill="none" stroke="midnightblue" d="M731.037,-398.387C746.972,-401.854 763.055,-408.469 774,-420.728 850.817,-506.762 754.636,-576.547 810,-677.728 818.452,-693.174 833.194,-706.18 846.294,-715.556"/>
<polygon fill="midnightblue" stroke="midnightblue" points="844.342,-718.461 854.582,-721.181 848.274,-712.669 844.342,-718.461"/>
</g>
<!-- Node40&#45;&gt;Node16 -->
<g id="edge136" class="edge"><title>Node40&#45;&gt;Node16</title>
<path fill="none" stroke="midnightblue" d="M682.123,-406.545C698.247,-441.04 748.393,-551.857 774,-648.728 801.228,-751.731 763.4,-789.918 810,-885.728 819.574,-905.412 836.961,-923.228 851.048,-935.532"/>
<polygon fill="midnightblue" stroke="midnightblue" points="848.969,-938.357 858.876,-942.112 853.473,-932.998 848.969,-938.357"/>
</g>
<!-- Node40&#45;&gt;Node17 -->
<g id="edge144" class="edge"><title>Node40&#45;&gt;Node17</title>
<path fill="none" stroke="midnightblue" d="M731.077,-392.141C757.185,-390.409 788.537,-388.33 815.126,-386.566"/>
<polygon fill="midnightblue" stroke="midnightblue" points="815.693,-390.037 825.44,-385.882 815.23,-383.052 815.693,-390.037"/>
</g>
<!-- Node40&#45;&gt;Node20 -->
<g id="edge146" class="edge"><title>Node40&#45;&gt;Node20</title>
<path fill="none" stroke="midnightblue" d="M729.537,-406.254C744.221,-409.999 759.987,-414.797 774,-420.728 791.268,-428.037 793.455,-433.903 810,-442.728 819.323,-447.7 829.656,-452.671 839.212,-457.057"/>
<polygon fill="midnightblue" stroke="midnightblue" points="837.889,-460.3 848.443,-461.227 840.771,-453.92 837.889,-460.3"/>
</g>
<!-- Node40&#45;&gt;Node26 -->
<g id="edge140" class="edge"><title>Node40&#45;&gt;Node26</title>
<path fill="none" stroke="midnightblue" d="M706.768,-385.096C740.782,-372.949 796.566,-353.026 834.021,-339.649"/>
<polygon fill="midnightblue" stroke="midnightblue" points="835.354,-342.89 843.594,-336.23 832.999,-336.297 835.354,-342.89"/>
</g>
<!-- Node40&#45;&gt;Node31 -->
<g id="edge152" class="edge"><title>Node40&#45;&gt;Node31</title>
<path fill="none" stroke="midnightblue" d="M697.011,-385.209C717.123,-374.308 748.684,-356.294 774,-337.728 791.263,-325.068 793.406,-319.252 810,-305.728 819.834,-297.713 830.834,-289.321 840.857,-281.883"/>
<polygon fill="midnightblue" stroke="midnightblue" points="843.021,-284.636 848.998,-275.888 838.87,-278.999 843.021,-284.636"/>
</g>
<!-- Node40&#45;&gt;Node41 -->
<g id="edge148" class="edge"><title>Node40&#45;&gt;Node41</title>
<path fill="none" stroke="midnightblue" d="M705.346,-385.132C726.949,-375.718 755.963,-359.983 774,-337.728 805.062,-299.402 783.548,-274.37 810,-232.728 820.816,-215.7 837.313,-199.958 850.712,-188.732"/>
<polygon fill="midnightblue" stroke="midnightblue" points="853.014,-191.371 858.577,-182.354 848.605,-185.934 853.014,-191.371"/>
</g>
<!-- Node45&#45;&gt;Node4 -->
<g id="edge210" class="edge"><title>Node45&#45;&gt;Node4</title>
<path fill="none" stroke="midnightblue" d="M735.801,-1115.18C748.803,-1111.6 762.209,-1106.89 774,-1100.73 792.713,-1090.95 792.012,-1080.79 810,-1069.73 812.457,-1068.22 815.017,-1066.76 817.639,-1065.36"/>
<polygon fill="midnightblue" stroke="midnightblue" points="819.352,-1068.41 826.728,-1060.81 816.219,-1062.15 819.352,-1068.41"/>
</g>
<!-- Node45&#45;&gt;Node9 -->
<g id="edge202" class="edge"><title>Node45&#45;&gt;Node9</title>
<path fill="none" stroke="midnightblue" d="M683.031,-1136.28C699.988,-1166.39 748.51,-1255.76 774,-1335.73 800.499,-1418.86 776.833,-1448.02 810,-1528.73 821.594,-1556.94 842.537,-1585.39 857.078,-1603.26"/>
<polygon fill="midnightblue" stroke="midnightblue" points="854.545,-1605.69 863.633,-1611.14 859.925,-1601.21 854.545,-1605.69"/>
</g>
<!-- Node45&#45;&gt;Node10 -->
<g id="edge200" class="edge"><title>Node45&#45;&gt;Node10</title>
<path fill="none" stroke="midnightblue" d="M682.401,-1136.51C697.7,-1167.23 742.279,-1258.02 774,-1335.73 792.01,-1379.85 785.884,-1395.63 810,-1436.73 821.945,-1457.09 840.042,-1477.03 853.78,-1490.74"/>
<polygon fill="midnightblue" stroke="midnightblue" points="851.68,-1493.58 861.285,-1498.06 856.565,-1488.57 851.68,-1493.58"/>
</g>
<!-- Node45&#45;&gt;Node11 -->
<g id="edge204" class="edge"><title>Node45&#45;&gt;Node11</title>
<path fill="none" stroke="midnightblue" d="M680.024,-1136.29C690.985,-1172.69 732.144,-1294.04 810,-1356.73 812.073,-1358.4 814.286,-1359.93 816.599,-1361.33"/>
<polygon fill="midnightblue" stroke="midnightblue" points="815.427,-1364.66 825.919,-1366.14 818.637,-1358.44 815.427,-1364.66"/>
</g>
<!-- Node45&#45;&gt;Node25 -->
<g id="edge212" class="edge"><title>Node45&#45;&gt;Node25</title>
<path fill="none" stroke="midnightblue" d="M689.86,-1136.36C723.016,-1163.76 811.635,-1237.01 852.202,-1270.54"/>
<polygon fill="midnightblue" stroke="midnightblue" points="850.155,-1273.39 860.093,-1277.06 854.614,-1267.99 850.155,-1273.39"/>
</g>
<!-- Node45&#45;&gt;Node30 -->
<g id="edge208" class="edge"><title>Node45&#45;&gt;Node30</title>
<path fill="none" stroke="midnightblue" d="M723.947,-1136.27C751.604,-1142.48 786.787,-1150.37 816.025,-1156.94"/>
<polygon fill="midnightblue" stroke="midnightblue" points="815.573,-1160.42 826.097,-1159.2 817.106,-1153.59 815.573,-1160.42"/>
</g>
<!-- Node45&#45;&gt;Node31 -->
<g id="edge214" class="edge"><title>Node45&#45;&gt;Node31</title>
<path fill="none" stroke="midnightblue" d="M685.533,-1114.87C705.406,-1088.86 754.563,-1020.19 774,-953.728 814.479,-815.303 741.786,-432.798 810,-305.728 815.038,-296.343 822.86,-288.312 831.301,-281.682"/>
<polygon fill="midnightblue" stroke="midnightblue" points="833.452,-284.445 839.513,-275.755 829.356,-278.769 833.452,-284.445"/>
</g>
<!-- Node45&#45;&gt;Node34 -->
<g id="edge206" class="edge"><title>Node45&#45;&gt;Node34</title>
<path fill="none" stroke="midnightblue" d="M734.218,-1115.22C758.45,-1110.77 786.73,-1105.57 811.416,-1101.04"/>
<polygon fill="midnightblue" stroke="midnightblue" points="812.192,-1104.46 821.395,-1099.21 810.927,-1097.57 812.192,-1104.46"/>
</g>
<!-- Node45&#45;&gt;Node35 -->
<g id="edge198" class="edge"><title>Node45&#45;&gt;Node35</title>
<path fill="none" stroke="midnightblue" d="M746.102,-1127.14C765.161,-1127.53 785.82,-1127.95 804.826,-1128.34"/>
<polygon fill="midnightblue" stroke="midnightblue" points="804.825,-1131.84 814.894,-1128.54 804.967,-1124.84 804.825,-1131.84"/>
</g>
<!-- Node45&#45;&gt;Node36 -->
<g id="edge196" class="edge"><title>Node45&#45;&gt;Node36</title>
<path fill="none" stroke="midnightblue" d="M683.668,-1114.86C702.266,-1084.84 756.844,-998.594 810,-932.728 823.951,-915.441 841.345,-897.156 854.32,-884.062"/>
<polygon fill="midnightblue" stroke="midnightblue" points="857.153,-886.179 861.757,-876.636 852.207,-881.225 857.153,-886.179"/>
</g>
<!-- Node50&#45;&gt;Node4 -->
<g id="edge262" class="edge"><title>Node50&#45;&gt;Node4</title>
<path fill="none" stroke="midnightblue" d="M523.808,-1287.2C531.426,-1283.66 538.464,-1278.96 544,-1272.73 603.993,-1205.21 513.65,-1134.01 580,-1072.73 611.785,-1043.37 729.659,-1040.16 805.864,-1041.35"/>
<polygon fill="midnightblue" stroke="midnightblue" points="806.264,-1044.86 816.327,-1041.55 806.395,-1037.86 806.264,-1044.86"/>
</g>
<!-- Node50&#45;&gt;Node8 -->
<g id="edge242" class="edge"><title>Node50&#45;&gt;Node8</title>
<path fill="none" stroke="midnightblue" d="M464.001,-1308.27C476.575,-1374.08 545.265,-1726.58 580,-1759.73 588.418,-1767.76 599.165,-1772.95 610.42,-1776.22"/>
<polygon fill="midnightblue" stroke="midnightblue" points="609.853,-1779.69 620.396,-1778.64 611.5,-1772.89 609.853,-1779.69"/>
</g>
<!-- Node50&#45;&gt;Node9 -->
<g id="edge238" class="edge"><title>Node50&#45;&gt;Node9</title>
<path fill="none" stroke="midnightblue" d="M467.963,-1308.36C483.514,-1335.36 527.751,-1407.72 580,-1453.73 661.749,-1525.7 779.127,-1581.68 837.389,-1606.98"/>
<polygon fill="midnightblue" stroke="midnightblue" points="836.319,-1610.33 846.889,-1611.06 839.082,-1603.9 836.319,-1610.33"/>
</g>
<!-- Node50&#45;&gt;Node10 -->
<g id="edge240" class="edge"><title>Node50&#45;&gt;Node10</title>
<path fill="none" stroke="midnightblue" d="M471.78,-1308.26C490.877,-1328.29 535.19,-1372.26 580,-1398.73 659.104,-1445.45 761.535,-1478.44 821.969,-1495.46"/>
<polygon fill="midnightblue" stroke="midnightblue" points="821.088,-1498.84 831.66,-1498.15 822.962,-1492.1 821.088,-1498.84"/>
</g>
<!-- Node50&#45;&gt;Node11 -->
<g id="edge236" class="edge"><title>Node50&#45;&gt;Node11</title>
<path fill="none" stroke="midnightblue" d="M473.2,-1308.48C492.886,-1326.56 535.81,-1362.36 580,-1375.73 654.333,-1398.21 744.212,-1394.24 804.658,-1387.36"/>
<polygon fill="midnightblue" stroke="midnightblue" points="805.331,-1390.81 814.844,-1386.14 804.5,-1383.86 805.331,-1390.81"/>
</g>
<!-- Node50&#45;&gt;Node12 -->
<g id="edge248" class="edge"><title>Node50&#45;&gt;Node12</title>
<path fill="none" stroke="midnightblue" d="M474.459,-1286.99C492.697,-1270.55 526.401,-1237.28 544,-1201.73 577.681,-1133.68 544.35,-1101.77 580,-1034.73 598.422,-1000.09 632.166,-968.983 654.593,-950.724"/>
<polygon fill="midnightblue" stroke="midnightblue" points="656.93,-953.337 662.578,-944.374 652.573,-947.858 656.93,-953.337"/>
</g>
<!-- Node50&#45;&gt;Node13 -->
<g id="edge244" class="edge"><title>Node50&#45;&gt;Node13</title>
<path fill="none" stroke="midnightblue" d="M475.308,-1286.97C494.293,-1270.75 528.56,-1238.04 544,-1201.73 576.242,-1125.91 523.854,-893.024 580,-832.728 639.603,-768.721 714.211,-863.561 774,-799.728 827.148,-742.985 764.748,-514.948 810,-451.728 813.955,-446.202 819.228,-441.703 825.046,-438.047"/>
<polygon fill="midnightblue" stroke="midnightblue" points="826.741,-441.11 833.87,-433.272 823.409,-434.953 826.741,-441.11"/>
</g>
<!-- Node50&#45;&gt;Node14 -->
<g id="edge246" class="edge"><title>Node50&#45;&gt;Node14</title>
<path fill="none" stroke="midnightblue" d="M474.866,-1287.18C493.623,-1270.98 527.981,-1238.02 544,-1201.73 570.042,-1142.72 536.581,-961.422 580,-913.728 639.453,-848.422 700.372,-919.496 774,-870.728 819.271,-840.742 850.464,-782.445 864.532,-751.745"/>
<polygon fill="midnightblue" stroke="midnightblue" points="867.79,-753.033 868.642,-742.472 861.39,-750.196 867.79,-753.033"/>
</g>
<!-- Node50&#45;&gt;Node15 -->
<g id="edge264" class="edge"><title>Node50&#45;&gt;Node15</title>
<path fill="none" stroke="midnightblue" d="M474.941,-1287.22C493.793,-1271.06 528.272,-1238.15 544,-1201.73 573.331,-1133.8 529.954,-925.224 580,-870.728 639.428,-806.015 708.971,-891.81 774,-832.728 815.527,-794.998 779.455,-758.792 810,-711.728 819.622,-696.903 834.491,-683.885 847.368,-674.347"/>
<polygon fill="midnightblue" stroke="midnightblue" points="849.738,-676.957 855.875,-668.32 845.692,-671.245 849.738,-676.957"/>
</g>
<!-- Node50&#45;&gt;Node19 -->
<g id="edge256" class="edge"><title>Node50&#45;&gt;Node19</title>
<path fill="none" stroke="midnightblue" d="M464.824,-1308.32C474.765,-1343.8 511.3,-1459.97 580,-1527.73 646.912,-1593.72 752.198,-1630.81 816.668,-1648.51"/>
<polygon fill="midnightblue" stroke="midnightblue" points="816.087,-1651.97 826.652,-1651.18 817.899,-1645.21 816.087,-1651.97"/>
</g>
<!-- Node50&#45;&gt;Node21 -->
<g id="edge252" class="edge"><title>Node50&#45;&gt;Node21</title>
<path fill="none" stroke="midnightblue" d="M464.325,-1308.56C477.951,-1371.65 547.946,-1689.82 580,-1719.73 588.46,-1727.62 599.174,-1732.75 610.373,-1736.01"/>
<polygon fill="midnightblue" stroke="midnightblue" points="609.751,-1739.46 620.295,-1738.43 611.407,-1732.66 609.751,-1739.46"/>
</g>
<!-- Node50&#45;&gt;Node22 -->
<g id="edge254" class="edge"><title>Node50&#45;&gt;Node22</title>
<path fill="none" stroke="midnightblue" d="M464.711,-1308.52C479.574,-1367.35 551.536,-1647.68 580,-1674.73 588.483,-1682.79 599.208,-1688.34 610.411,-1692.14"/>
<polygon fill="midnightblue" stroke="midnightblue" points="609.753,-1695.6 620.334,-1695.05 611.724,-1688.88 609.753,-1695.6"/>
</g>
<!-- Node50&#45;&gt;Node25 -->
<g id="edge266" class="edge"><title>Node50&#45;&gt;Node25</title>
<path fill="none" stroke="midnightblue" d="M535.144,-1297.27C598.384,-1296.7 692.243,-1295.45 774,-1292.73 783.447,-1292.41 793.396,-1292 803.199,-1291.55"/>
<polygon fill="midnightblue" stroke="midnightblue" points="803.51,-1295.04 813.333,-1291.07 803.179,-1288.05 803.51,-1295.04"/>
</g>
<!-- Node50&#45;&gt;Node30 -->
<g id="edge250" class="edge"><title>Node50&#45;&gt;Node30</title>
<path fill="none" stroke="midnightblue" d="M514.813,-1287.22C577.613,-1273.99 685.113,-1249.04 774,-1216.73 798.433,-1207.85 824.988,-1195.06 844.439,-1185.06"/>
<polygon fill="midnightblue" stroke="midnightblue" points="846.123,-1188.13 853.377,-1180.41 842.89,-1181.92 846.123,-1188.13"/>
</g>
<!-- Node50&#45;&gt;Node35 -->
<g id="edge258" class="edge"><title>Node50&#45;&gt;Node35</title>
<path fill="none" stroke="midnightblue" d="M516.231,-1287.12C526.079,-1283.6 535.81,-1278.92 544,-1272.73 567.596,-1254.88 556.339,-1234.49 580,-1216.73 616.728,-1189.15 737.759,-1159.09 812.287,-1142.51"/>
<polygon fill="midnightblue" stroke="midnightblue" points="813.47,-1145.83 822.481,-1140.26 811.962,-1139 813.47,-1145.83"/>
</g>
<!-- Node50&#45;&gt;Node43 -->
<g id="edge260" class="edge"><title>Node50&#45;&gt;Node43</title>
<path fill="none" stroke="midnightblue" d="M475.385,-1287C494.466,-1270.82 528.851,-1238.16 544,-1201.73 581.839,-1110.73 514.697,-833.532 580,-759.728 586.276,-752.635 594.341,-747.669 603.135,-744.242"/>
<polygon fill="midnightblue" stroke="midnightblue" points="604.464,-747.491 612.914,-741.1 602.323,-740.827 604.464,-747.491"/>
</g>
<!-- Node50&#45;&gt;Node47 -->
<g id="edge234" class="edge"><title>Node50&#45;&gt;Node47</title>
<path fill="none" stroke="midnightblue" d="M475.341,-1286.98C494.367,-1270.78 528.684,-1238.09 544,-1201.73 578.388,-1120.09 522.629,-872.224 580,-804.728 589.063,-794.065 602.013,-787.636 615.51,-783.832"/>
<polygon fill="midnightblue" stroke="midnightblue" points="616.457,-787.204 625.387,-781.503 614.851,-780.391 616.457,-787.204"/>
</g>
</g>
</svg>
