<?xml version="1.0" encoding="UTF-8" standalone="no"?>
<!DOCTYPE svg PUBLIC "-//W3C//DTD SVG 1.1//EN"
 "http://www.w3.org/Graphics/SVG/1.1/DTD/svg11.dtd">
<!-- Generated by graphviz version 2.26.3 (20100126.1600)
 -->
<!-- Title: ObjectData::loadFromFile Pages: 1 -->
<svg width="494pt" height="174pt"
 viewBox="0.00 0.00 494.00 174.00" xmlns="http://www.w3.org/2000/svg" xmlns:xlink="http://www.w3.org/1999/xlink">
<g id="graph1" class="graph" transform="scale(1 1) rotate(0) translate(4 170)">
<title>ObjectData::loadFromFile</title>
<!-- Node1 -->
<g id="node1" class="node"><title>Node1</title>
<polygon fill="#bfbfbf" stroke="black" points="0,-98.5 0,-119.5 128,-119.5 128,-98.5 0,-98.5"/>
<text text-anchor="middle" x="64" y="-106.5" font-family="Helvetica,sans-Serif" font-size="10.00">ObjectData::loadFromFile</text>
</g>
<!-- Node2 -->
<g id="node3" class="node"><title>Node2</title>
<a xlink:href="classImporter.xhtml#a5013417fb7556dce65dba1ed3aec4e50" target="_top" xlink:title="Importer::ImportObj">
<polygon fill="none" stroke="black" points="179.5,-141.5 179.5,-162.5 280.5,-162.5 280.5,-141.5 179.5,-141.5"/>
<text text-anchor="middle" x="230" y="-149.5" font-family="Helvetica,sans-Serif" font-size="10.00">Importer::ImportObj</text>
</a>
</g>
<!-- Node1&#45;&gt;Node2 -->
<g id="edge2" class="edge"><title>Node1&#45;&gt;Node2</title>
<path fill="none" stroke="midnightblue" d="M104.608,-119.519C127.117,-125.349 155.31,-132.653 179.26,-138.857"/>
<polygon fill="midnightblue" stroke="midnightblue" points="178.678,-142.321 189.236,-141.441 180.433,-135.545 178.678,-142.321"/>
</g>
<!-- Node4 -->
<g id="node7" class="node"><title>Node4</title>
<a xlink:href="classImporter.xhtml#a001bd26372d94f96de66f7bcb90cc790" target="_top" xlink:title="Importer::LoadSensorData">
<polygon fill="none" stroke="black" points="164.5,-58.5 164.5,-79.5 295.5,-79.5 295.5,-58.5 164.5,-58.5"/>
<text text-anchor="middle" x="230" y="-66.5" font-family="Helvetica,sans-Serif" font-size="10.00">Importer::LoadSensorData</text>
</a>
</g>
<!-- Node1&#45;&gt;Node4 -->
<g id="edge6" class="edge"><title>Node1&#45;&gt;Node4</title>
<path fill="none" stroke="midnightblue" d="M107.615,-98.4905C128.69,-93.412 154.176,-87.2708 176.423,-81.9102"/>
<polygon fill="midnightblue" stroke="midnightblue" points="177.487,-85.254 186.389,-79.5087 175.847,-78.4488 177.487,-85.254"/>
</g>
<!-- Node8 -->
<g id="node15" class="node"><title>Node8</title>
<a xlink:href="classImporter.xhtml#a196e66a161a0102194580ec4b10895e5" target="_top" xlink:title="Importer::LoadTimedData">
<polygon fill="none" stroke="black" points="166,-98.5 166,-119.5 294,-119.5 294,-98.5 166,-98.5"/>
<text text-anchor="middle" x="230" y="-106.5" font-family="Helvetica,sans-Serif" font-size="10.00">Importer::LoadTimedData</text>
</a>
</g>
<!-- Node1&#45;&gt;Node8 -->
<g id="edge14" class="edge"><title>Node1&#45;&gt;Node8</title>
<path fill="none" stroke="midnightblue" d="M128.18,-109C137.195,-109 146.523,-109 155.707,-109"/>
<polygon fill="midnightblue" stroke="midnightblue" points="155.991,-112.5 165.991,-109 155.991,-105.5 155.991,-112.5"/>
</g>
<!-- Node3 -->
<g id="node5" class="node"><title>Node3</title>
<a xlink:href="classObjectData.xhtml#afda67d7524b83780e431dd3a9c5ac23a" target="_top" xlink:title="ObjectData::getMaterials">
<polygon fill="none" stroke="black" points="346.5,-144.5 346.5,-165.5 471.5,-165.5 471.5,-144.5 346.5,-144.5"/>
<text text-anchor="middle" x="409" y="-152.5" font-family="Helvetica,sans-Serif" font-size="10.00">ObjectData::getMaterials</text>
</a>
</g>
<!-- Node2&#45;&gt;Node3 -->
<g id="edge4" class="edge"><title>Node2&#45;&gt;Node3</title>
<path fill="none" stroke="midnightblue" d="M280.815,-152.852C297.996,-153.14 317.531,-153.467 336.082,-153.778"/>
<polygon fill="midnightblue" stroke="midnightblue" points="336.208,-157.28 346.265,-153.949 336.325,-150.281 336.208,-157.28"/>
</g>
<!-- Node5 -->
<g id="node9" class="node"><title>Node5</title>
<a xlink:href="classObjectData.xhtml#a72ac93213382f67b4d5b40c011eb1656" target="_top" xlink:title="ObjectData::getSensorDataList">
<polygon fill="none" stroke="black" points="332.5,-104.5 332.5,-125.5 485.5,-125.5 485.5,-104.5 332.5,-104.5"/>
<text text-anchor="middle" x="409" y="-112.5" font-family="Helvetica,sans-Serif" font-size="10.00">ObjectData::getSensorDataList</text>
</a>
</g>
<!-- Node4&#45;&gt;Node5 -->
<g id="edge8" class="edge"><title>Node4&#45;&gt;Node5</title>
<path fill="none" stroke="midnightblue" d="M271.066,-79.5533C296.99,-86.2152 330.671,-94.8708 358.261,-101.961"/>
<polygon fill="midnightblue" stroke="midnightblue" points="357.568,-105.397 368.125,-104.496 359.311,-98.6169 357.568,-105.397"/>
</g>
<!-- Node6 -->
<g id="node11" class="node"><title>Node6</title>
<a xlink:href="classObjectData.xhtml#a503d63160a3afe2ea517449f78f8ac42" target="_top" xlink:title="ObjectData::getCurrentSensor\lIndex">
<polygon fill="none" stroke="black" points="334.5,-52 334.5,-86 483.5,-86 483.5,-52 334.5,-52"/>
<text text-anchor="start" x="342.5" y="-73" font-family="Helvetica,sans-Serif" font-size="10.00">ObjectData::getCurrentSensor</text>
<text text-anchor="middle" x="409" y="-60" font-family="Helvetica,sans-Serif" font-size="10.00">Index</text>
</a>
</g>
<!-- Node4&#45;&gt;Node6 -->
<g id="edge10" class="edge"><title>Node4&#45;&gt;Node6</title>
<path fill="none" stroke="midnightblue" d="M295.637,-69C304.869,-69 314.467,-69 323.997,-69"/>
<polygon fill="midnightblue" stroke="midnightblue" points="324.291,-72.5001 334.291,-69 324.291,-65.5001 324.291,-72.5001"/>
</g>
<!-- Node7 -->
<g id="node13" class="node"><title>Node7</title>
<a xlink:href="classObjectData.xhtml#a65bc706c460a62f98e6c24959df04c76" target="_top" xlink:title="ObjectData::setCurrentSensor\lIndex">
<polygon fill="none" stroke="black" points="334.5,-0 334.5,-34 483.5,-34 483.5,-0 334.5,-0"/>
<text text-anchor="start" x="342.5" y="-21" font-family="Helvetica,sans-Serif" font-size="10.00">ObjectData::setCurrentSensor</text>
<text text-anchor="middle" x="409" y="-8" font-family="Helvetica,sans-Serif" font-size="10.00">Index</text>
</a>
</g>
<!-- Node4&#45;&gt;Node7 -->
<g id="edge12" class="edge"><title>Node4&#45;&gt;Node7</title>
<path fill="none" stroke="midnightblue" d="M266.223,-58.477C287.507,-52.294 315.111,-44.2751 340.367,-36.9381"/>
<polygon fill="midnightblue" stroke="midnightblue" points="341.654,-40.2091 350.28,-34.0582 339.701,-33.487 341.654,-40.2091"/>
</g>
<!-- Node8&#45;&gt;Node5 -->
<g id="edge16" class="edge"><title>Node8&#45;&gt;Node5</title>
<path fill="none" stroke="midnightblue" d="M294.118,-111.149C303.253,-111.455 312.772,-111.774 322.251,-112.092"/>
<polygon fill="midnightblue" stroke="midnightblue" points="322.388,-115.599 332.5,-112.436 322.623,-108.603 322.388,-115.599"/>
</g>
<!-- Node8&#45;&gt;Node6 -->
<g id="edge18" class="edge"><title>Node8&#45;&gt;Node6</title>
<path fill="none" stroke="midnightblue" d="M277.03,-98.4905C291.527,-95.251 307.959,-91.579 324.185,-87.953"/>
<polygon fill="midnightblue" stroke="midnightblue" points="325.246,-91.3023 334.242,-85.7056 323.72,-84.4708 325.246,-91.3023"/>
</g>
<!-- Node8&#45;&gt;Node7 -->
<g id="edge20" class="edge"><title>Node8&#45;&gt;Node7</title>
<path fill="none" stroke="midnightblue" d="M277.778,-98.3894C284.198,-95.8766 290.468,-92.7885 296,-89 317.419,-74.3307 310.814,-58.0038 332,-43 334.065,-41.5373 336.219,-40.1519 338.44,-38.8402"/>
<polygon fill="midnightblue" stroke="midnightblue" points="340.096,-41.9236 347.282,-34.1384 336.81,-35.743 340.096,-41.9236"/>
</g>
</g>
</svg>
