<?xml version="1.0" encoding="UTF-8" standalone="no"?>
<!DOCTYPE svg PUBLIC "-//W3C//DTD SVG 1.1//EN"
 "http://www.w3.org/Graphics/SVG/1.1/DTD/svg11.dtd">
<!-- Generated by graphviz version 2.26.3 (20100126.1600)
 -->
<!-- Title: tetgenmesh::makeindex2pointmap Pages: 1 -->
<svg width="812pt" height="134pt"
 viewBox="0.00 0.00 812.00 134.00" xmlns="http://www.w3.org/2000/svg" xmlns:xlink="http://www.w3.org/1999/xlink">
<g id="graph1" class="graph" transform="scale(1 1) rotate(0) translate(4 130)">
<title>tetgenmesh::makeindex2pointmap</title>
<!-- Node1 -->
<g id="node1" class="node"><title>Node1</title>
<polygon fill="#bfbfbf" stroke="black" points="0,-46.5 0,-67.5 166,-67.5 166,-46.5 0,-46.5"/>
<text text-anchor="middle" x="83" y="-54.5" font-family="Helvetica,sans-Serif" font-size="10.00">tetgenmesh::makeindex2pointmap</text>
</g>
<!-- Node2 -->
<g id="node3" class="node"><title>Node2</title>
<a xlink:href="classtetgenmesh.xhtml#a0c51cd3511d2b0ef9d0d45fe8b546b2e" target="_top" xlink:title="tetgenmesh::meshsurface">
<polygon fill="none" stroke="black" points="210,-66.5 210,-87.5 340,-87.5 340,-66.5 210,-66.5"/>
<text text-anchor="middle" x="275" y="-74.5" font-family="Helvetica,sans-Serif" font-size="10.00">tetgenmesh::meshsurface</text>
</a>
</g>
<!-- Node1&#45;&gt;Node2 -->
<g id="edge2" class="edge"><title>Node1&#45;&gt;Node2</title>
<path fill="none" stroke="midnightblue" d="M176.063,-66.6941C187.438,-67.8789 198.868,-69.0695 209.713,-70.1993"/>
<polygon fill="midnightblue" stroke="midnightblue" points="176.406,-63.211 166.097,-65.656 175.681,-70.1733 176.406,-63.211"/>
</g>
<!-- Node10 -->
<g id="node19" class="node"><title>Node10</title>
<a xlink:href="classtetgenmesh.xhtml#ad44b2ea3720da385a0cbcf306884e126" target="_top" xlink:title="tetgenmesh::reconstructmesh">
<polygon fill="none" stroke="black" points="202,-26.5 202,-47.5 348,-47.5 348,-26.5 202,-26.5"/>
<text text-anchor="middle" x="275" y="-34.5" font-family="Helvetica,sans-Serif" font-size="10.00">tetgenmesh::reconstructmesh</text>
</a>
</g>
<!-- Node1&#45;&gt;Node10 -->
<g id="edge18" class="edge"><title>Node1&#45;&gt;Node10</title>
<path fill="none" stroke="midnightblue" d="M176.149,-47.297C184.738,-46.4023 193.357,-45.5045 201.731,-44.6321"/>
<polygon fill="midnightblue" stroke="midnightblue" points="175.681,-43.8267 166.097,-48.344 176.406,-50.789 175.681,-43.8267"/>
</g>
<!-- Node3 -->
<g id="node5" class="node"><title>Node3</title>
<a xlink:href="tetgen_8h.xhtml#ad3637eb4ffe7fda90667e67b7771d964" target="_top" xlink:title="tetrahedralize">
<polygon fill="none" stroke="black" points="384.5,-46.5 384.5,-67.5 459.5,-67.5 459.5,-46.5 384.5,-46.5"/>
<text text-anchor="middle" x="422" y="-54.5" font-family="Helvetica,sans-Serif" font-size="10.00">tetrahedralize</text>
</a>
</g>
<!-- Node2&#45;&gt;Node3 -->
<g id="edge4" class="edge"><title>Node2&#45;&gt;Node3</title>
<path fill="none" stroke="midnightblue" d="M350.589,-66.7158C362.273,-65.1261 373.887,-63.546 384.248,-62.1363"/>
<polygon fill="midnightblue" stroke="midnightblue" points="349.769,-63.295 340.332,-68.1112 350.713,-70.2311 349.769,-63.295"/>
</g>
<!-- Node4 -->
<g id="node7" class="node"><title>Node4</title>
<a xlink:href="classGUICutRenderWindow.xhtml#a9eedb7088ad31f4680a77ed3a06fa60c" target="_top" xlink:title="Berechnet die 2D&#45;Temperaturverteilung als Grafik. ">
<polygon fill="none" stroke="black" points="498.5,-89 498.5,-123 615.5,-123 615.5,-89 498.5,-89"/>
<text text-anchor="start" x="506.5" y="-110" font-family="Helvetica,sans-Serif" font-size="10.00">GUICutRenderWindow</text>
<text text-anchor="middle" x="557" y="-97" font-family="Helvetica,sans-Serif" font-size="10.00">::renderImage</text>
</a>
</g>
<!-- Node3&#45;&gt;Node4 -->
<g id="edge6" class="edge"><title>Node3&#45;&gt;Node4</title>
<path fill="none" stroke="midnightblue" d="M460.675,-71.0375C476.063,-76.6228 493.912,-83.1014 510.034,-88.953"/>
<polygon fill="midnightblue" stroke="midnightblue" points="461.555,-67.6336 450.961,-67.5117 459.167,-74.2136 461.555,-67.6336"/>
</g>
<!-- Node6 -->
<g id="node11" class="node"><title>Node6</title>
<a xlink:href="classObjectData.xhtml#af3a850833d08eb9b45357449f455e24d" target="_top" xlink:title="Zerlegt das Objekt in Tetraeder (Schnittstelle zur Tetgen&#45;Bibliothek) und Berechnet die Temperaturver...">
<polygon fill="none" stroke="black" points="496,-46.5 496,-67.5 618,-67.5 618,-46.5 496,-46.5"/>
<text text-anchor="middle" x="557" y="-54.5" font-family="Helvetica,sans-Serif" font-size="10.00">ObjectData::calculateIO</text>
</a>
</g>
<!-- Node3&#45;&gt;Node6 -->
<g id="edge10" class="edge"><title>Node3&#45;&gt;Node6</title>
<path fill="none" stroke="midnightblue" d="M469.654,-57C478.112,-57 487.025,-57 495.795,-57"/>
<polygon fill="midnightblue" stroke="midnightblue" points="469.605,-53.5001 459.605,-57 469.605,-60.5001 469.605,-53.5001"/>
</g>
<!-- Node9 -->
<g id="node17" class="node"><title>Node9</title>
<a xlink:href="tetgen_8cxx.xhtml#a0ddf1224851353fc92bfbff6f499fa97" target="_top" xlink:title="main">
<polygon fill="none" stroke="black" points="538,-6.5 538,-27.5 576,-27.5 576,-6.5 538,-6.5"/>
<text text-anchor="middle" x="557" y="-14.5" font-family="Helvetica,sans-Serif" font-size="10.00">main</text>
</a>
</g>
<!-- Node3&#45;&gt;Node9 -->
<g id="edge16" class="edge"><title>Node3&#45;&gt;Node9</title>
<path fill="none" stroke="midnightblue" d="M467.154,-43.6209C491.267,-36.4764 519.668,-28.0613 537.984,-22.6343"/>
<polygon fill="midnightblue" stroke="midnightblue" points="466.063,-40.2937 457.47,-46.4905 468.052,-47.0053 466.063,-40.2937"/>
</g>
<!-- Node5 -->
<g id="node9" class="node"><title>Node5</title>
<a xlink:href="classGUICutRenderWindow.xhtml#a7cd1bfbec53756a1cbbe1616b4d46c7a" target="_top" xlink:title="Behandelt das Drücken des Buttons zur Berechnung der zweidimensionalen Temperaturverteilung. ">
<polygon fill="none" stroke="black" points="670.5,-92 670.5,-126 787.5,-126 787.5,-92 670.5,-92"/>
<text text-anchor="start" x="678.5" y="-113" font-family="Helvetica,sans-Serif" font-size="10.00">GUICutRenderWindow</text>
<text text-anchor="middle" x="729" y="-100" font-family="Helvetica,sans-Serif" font-size="10.00">::renderCutBtClick</text>
</a>
</g>
<!-- Node4&#45;&gt;Node5 -->
<g id="edge8" class="edge"><title>Node4&#45;&gt;Node5</title>
<path fill="none" stroke="midnightblue" d="M625.777,-107.2C640.511,-107.457 655.948,-107.726 670.261,-107.975"/>
<polygon fill="midnightblue" stroke="midnightblue" points="625.771,-103.699 615.712,-107.024 625.649,-110.698 625.771,-103.699"/>
</g>
<!-- Node7 -->
<g id="node13" class="node"><title>Node7</title>
<a xlink:href="classGUIMainWindow.xhtml#a0c2de30274c7f52ff74ec1217e47a9e5" target="_top" xlink:title="Berechnet die 3D&#45;Temperaturverteilung neu. ">
<polygon fill="none" stroke="black" points="654,-40 654,-74 804,-74 804,-40 654,-40"/>
<text text-anchor="start" x="662" y="-61" font-family="Helvetica,sans-Serif" font-size="10.00">GUIMainWindow::OnRecalcBt</text>
<text text-anchor="middle" x="729" y="-48" font-family="Helvetica,sans-Serif" font-size="10.00">Click</text>
</a>
</g>
<!-- Node6&#45;&gt;Node7 -->
<g id="edge12" class="edge"><title>Node6&#45;&gt;Node7</title>
<path fill="none" stroke="midnightblue" d="M628.316,-57C636.768,-57 645.415,-57 653.918,-57"/>
<polygon fill="midnightblue" stroke="midnightblue" points="628.125,-53.5001 618.125,-57 628.125,-60.5001 628.125,-53.5001"/>
</g>
<!-- Node8 -->
<g id="node15" class="node"><title>Node8</title>
<a xlink:href="classGUITimeline.xhtml#a099f3654aa6e7ea04df861851a0e9ec8" target="_top" xlink:title="Sucht den Zeitpunkt zwischen zwei markierten Stellen auf der Sensordaten&#45;Zeitleiste, für den der Wäremeenergiegehalt maximal wird. ">
<polygon fill="none" stroke="black" points="660.5,-0.5 660.5,-21.5 797.5,-21.5 797.5,-0.5 660.5,-0.5"/>
<text text-anchor="middle" x="729" y="-8.5" font-family="Helvetica,sans-Serif" font-size="10.00">GUITimeline::findMaxValue</text>
</a>
</g>
<!-- Node6&#45;&gt;Node8 -->
<g id="edge14" class="edge"><title>Node6&#45;&gt;Node8</title>
<path fill="none" stroke="midnightblue" d="M605.997,-43.8537C621.363,-39.7343 638.387,-35.1741 654,-31 665.456,-27.9371 677.899,-24.6167 689.296,-21.5777"/>
<polygon fill="midnightblue" stroke="midnightblue" points="604.923,-40.5181 596.17,-46.4885 606.735,-47.2793 604.923,-40.5181"/>
</g>
<!-- Node10&#45;&gt;Node3 -->
<g id="edge20" class="edge"><title>Node10&#45;&gt;Node3</title>
<path fill="none" stroke="midnightblue" d="M358.037,-48.2975C367.175,-49.5408 376.113,-50.7569 384.274,-51.8672"/>
<polygon fill="midnightblue" stroke="midnightblue" points="358.45,-44.8216 348.069,-46.9414 357.506,-51.7577 358.45,-44.8216"/>
</g>
</g>
</svg>
