<?xml version="1.0" encoding="UTF-8" standalone="no"?>
<!DOCTYPE svg PUBLIC "-//W3C//DTD SVG 1.1//EN"
 "http://www.w3.org/Graphics/SVG/1.1/DTD/svg11.dtd">
<!-- Generated by graphviz version 2.26.3 (20100126.1600)
 -->
<!-- Title: tetgenmesh::orthosphere Pages: 1 -->
<svg width="410pt" height="70pt"
 viewBox="0.00 0.00 410.00 70.00" xmlns="http://www.w3.org/2000/svg" xmlns:xlink="http://www.w3.org/1999/xlink">
<g id="graph1" class="graph" transform="scale(1 1) rotate(0) translate(4 66)">
<title>tetgenmesh::orthosphere</title>
<!-- Node1 -->
<g id="node1" class="node"><title>Node1</title>
<polygon fill="#bfbfbf" stroke="black" points="0.5,-20.5 0.5,-41.5 125.5,-41.5 125.5,-20.5 0.5,-20.5"/>
<text text-anchor="middle" x="63" y="-28.5" font-family="Helvetica,sans-Serif" font-size="10.00">tetgenmesh::orthosphere</text>
</g>
<!-- Node2 -->
<g id="node3" class="node"><title>Node2</title>
<a xlink:href="classtetgenmesh.xhtml#abc03dce4c75ad6ba7086269b1a71fd8b" target="_top" xlink:title="tetgenmesh::lu_decmp">
<polygon fill="none" stroke="black" points="162,-40.5 162,-61.5 278,-61.5 278,-40.5 162,-40.5"/>
<text text-anchor="middle" x="220" y="-48.5" font-family="Helvetica,sans-Serif" font-size="10.00">tetgenmesh::lu_decmp</text>
</a>
</g>
<!-- Node1&#45;&gt;Node2 -->
<g id="edge2" class="edge"><title>Node1&#45;&gt;Node2</title>
<path fill="none" stroke="midnightblue" d="M125.502,-38.962C134.106,-40.0581 142.979,-41.1884 151.682,-42.297"/>
<polygon fill="midnightblue" stroke="midnightblue" points="151.431,-45.7933 161.793,-43.5852 152.316,-38.8495 151.431,-45.7933"/>
</g>
<!-- Node3 -->
<g id="node5" class="node"><title>Node3</title>
<a xlink:href="classtetgenmesh.xhtml#a6a19601c86a49eed0d2273f1d3b69826" target="_top" xlink:title="tetgenmesh::lu_solve">
<polygon fill="none" stroke="black" points="165,-0.5 165,-21.5 275,-21.5 275,-0.5 165,-0.5"/>
<text text-anchor="middle" x="220" y="-8.5" font-family="Helvetica,sans-Serif" font-size="10.00">tetgenmesh::lu_solve</text>
</a>
</g>
<!-- Node1&#45;&gt;Node3 -->
<g id="edge4" class="edge"><title>Node1&#45;&gt;Node3</title>
<path fill="none" stroke="midnightblue" d="M125.502,-23.038C135.149,-21.8091 145.132,-20.5373 154.835,-19.3012"/>
<polygon fill="midnightblue" stroke="midnightblue" points="155.343,-22.765 164.82,-18.0293 154.458,-15.8211 155.343,-22.765"/>
</g>
<!-- Node4 -->
<g id="node7" class="node"><title>Node4</title>
<a xlink:href="classtetgenmesh.xhtml#afa0906703b590597155547336c360004" target="_top" xlink:title="tetgenmesh::dot">
<polygon fill="none" stroke="black" points="314.5,-0.5 314.5,-21.5 401.5,-21.5 401.5,-0.5 314.5,-0.5"/>
<text text-anchor="middle" x="358" y="-8.5" font-family="Helvetica,sans-Serif" font-size="10.00">tetgenmesh::dot</text>
</a>
</g>
<!-- Node3&#45;&gt;Node4 -->
<g id="edge6" class="edge"><title>Node3&#45;&gt;Node4</title>
<path fill="none" stroke="midnightblue" d="M275.335,-11C284.806,-11 294.636,-11 304.07,-11"/>
<polygon fill="midnightblue" stroke="midnightblue" points="304.117,-14.5001 314.117,-11 304.117,-7.5001 304.117,-14.5001"/>
</g>
</g>
</svg>
