<?xml version="1.0" encoding="UTF-8" standalone="no"?>
<!DOCTYPE svg PUBLIC "-//W3C//DTD SVG 1.1//EN"
 "http://www.w3.org/Graphics/SVG/1.1/DTD/svg11.dtd">
<!-- Generated by graphviz version 2.26.3 (20100126.1600)
 -->
<!-- Title: tetgenmesh::splitsegment Pages: 1 -->
<svg width="1630pt" height="148pt"
 viewBox="0.00 0.00 1630.00 148.00" xmlns="http://www.w3.org/2000/svg" xmlns:xlink="http://www.w3.org/1999/xlink">
<g id="graph1" class="graph" transform="scale(1 1) rotate(0) translate(4 144)">
<title>tetgenmesh::splitsegment</title>
<!-- Node1 -->
<g id="node1" class="node"><title>Node1</title>
<polygon fill="#bfbfbf" stroke="black" points="0.5,-77.5 0.5,-98.5 129.5,-98.5 129.5,-77.5 0.5,-77.5"/>
<text text-anchor="middle" x="65" y="-85.5" font-family="Helvetica,sans-Serif" font-size="10.00">tetgenmesh::splitsegment</text>
</g>
<!-- Node2 -->
<g id="node3" class="node"><title>Node2</title>
<a xlink:href="classtetgenmesh.xhtml#a7af360f1ae413f9e0d7803ccae55b6d6" target="_top" xlink:title="tetgenmesh::repairencsegs">
<polygon fill="none" stroke="black" points="166,-77.5 166,-98.5 300,-98.5 300,-77.5 166,-77.5"/>
<text text-anchor="middle" x="233" y="-85.5" font-family="Helvetica,sans-Serif" font-size="10.00">tetgenmesh::repairencsegs</text>
</a>
</g>
<!-- Node1&#45;&gt;Node2 -->
<g id="edge2" class="edge"><title>Node1&#45;&gt;Node2</title>
<path fill="none" stroke="midnightblue" d="M140.029,-88C148.681,-88 157.462,-88 165.998,-88"/>
<polygon fill="midnightblue" stroke="midnightblue" points="139.953,-84.5001 129.953,-88 139.953,-91.5001 139.953,-84.5001"/>
</g>
<!-- Node3 -->
<g id="node5" class="node"><title>Node3</title>
<a xlink:href="classtetgenmesh.xhtml#a3a8404870ab3c2e8ce4312d48c2b29f4" target="_top" xlink:title="tetgenmesh::splitsubface">
<polygon fill="none" stroke="black" points="336,-38.5 336,-59.5 462,-59.5 462,-38.5 336,-38.5"/>
<text text-anchor="middle" x="399" y="-46.5" font-family="Helvetica,sans-Serif" font-size="10.00">tetgenmesh::splitsubface</text>
</a>
</g>
<!-- Node1&#45;&gt;Node3 -->
<g id="edge36" class="edge"><title>Node1&#45;&gt;Node3</title>
<path fill="none" stroke="midnightblue" d="M122.456,-75.4435C136.637,-72.6708 151.825,-69.9749 166,-68 223.281,-60.0196 288.987,-55.0365 335.99,-52.1866"/>
<polygon fill="midnightblue" stroke="midnightblue" points="121.457,-72.074 112.337,-77.4669 122.83,-78.9381 121.457,-72.074"/>
</g>
<!-- Node5 -->
<g id="node9" class="node"><title>Node5</title>
<a xlink:href="classtetgenmesh.xhtml#aa752155eb1d18550a212dd40297f122e" target="_top" xlink:title="tetgenmesh::splittetrahedron">
<polygon fill="none" stroke="black" points="666,-66.5 666,-87.5 806,-87.5 806,-66.5 666,-66.5"/>
<text text-anchor="middle" x="736" y="-74.5" font-family="Helvetica,sans-Serif" font-size="10.00">tetgenmesh::splittetrahedron</text>
</a>
</g>
<!-- Node1&#45;&gt;Node5 -->
<g id="edge38" class="edge"><title>Node1&#45;&gt;Node5</title>
<path fill="none" stroke="midnightblue" d="M118.294,-100.575C133.605,-103.637 150.385,-106.469 166,-108 271.511,-118.346 587.336,-98.3113 630,-94 645.669,-92.4166 662.543,-90.0263 678.119,-87.5343"/>
<polygon fill="midnightblue" stroke="midnightblue" points="118.973,-97.1418 108.471,-98.5419 117.554,-103.996 118.973,-97.1418"/>
</g>
<!-- Node2&#45;&gt;Node3 -->
<g id="edge4" class="edge"><title>Node2&#45;&gt;Node3</title>
<path fill="none" stroke="midnightblue" d="M287.878,-75.107C309.34,-70.0648 333.646,-64.3542 354.042,-59.5624"/>
<polygon fill="midnightblue" stroke="midnightblue" points="286.856,-71.7516 277.922,-77.446 288.457,-78.5661 286.856,-71.7516"/>
</g>
<!-- Node2&#45;&gt;Node5 -->
<g id="edge32" class="edge"><title>Node2&#45;&gt;Node5</title>
<path fill="none" stroke="midnightblue" d="M310.087,-86.3142C407.049,-84.1938 572.154,-80.5831 665.768,-78.5359"/>
<polygon fill="midnightblue" stroke="midnightblue" points="309.976,-82.8157 300.055,-86.5336 310.129,-89.814 309.976,-82.8157"/>
</g>
<!-- Node7 -->
<g id="node13" class="node"><title>Node7</title>
<a xlink:href="classtetgenmesh.xhtml#a477bbfde72103de66546d4ea3343b4a1" target="_top" xlink:title="tetgenmesh::delaunayrefinement">
<polygon fill="none" stroke="black" points="1008,-66.5 1008,-87.5 1166,-87.5 1166,-66.5 1008,-66.5"/>
<text text-anchor="middle" x="1087" y="-74.5" font-family="Helvetica,sans-Serif" font-size="10.00">tetgenmesh::delaunayrefinement</text>
</a>
</g>
<!-- Node2&#45;&gt;Node7 -->
<g id="edge34" class="edge"><title>Node2&#45;&gt;Node7</title>
<path fill="none" stroke="midnightblue" d="M299.835,-100.215C366.508,-111.326 471.982,-126 564,-126 564,-126 564,-126 736,-126 846.444,-126 974.574,-101.91 1041.29,-87.5117"/>
<polygon fill="midnightblue" stroke="midnightblue" points="300.324,-96.7482 289.881,-98.5347 299.159,-103.651 300.324,-96.7482"/>
</g>
<!-- Node4 -->
<g id="node7" class="node"><title>Node4</title>
<a xlink:href="classtetgenmesh.xhtml#a701d4f317ed66df6a2e2b7b237e2386a" target="_top" xlink:title="tetgenmesh::repairencfacs">
<polygon fill="none" stroke="black" points="498,-0.5 498,-21.5 630,-21.5 630,-0.5 498,-0.5"/>
<text text-anchor="middle" x="564" y="-8.5" font-family="Helvetica,sans-Serif" font-size="10.00">tetgenmesh::repairencfacs</text>
</a>
</g>
<!-- Node3&#45;&gt;Node4 -->
<g id="edge6" class="edge"><title>Node3&#45;&gt;Node4</title>
<path fill="none" stroke="midnightblue" d="M454.869,-36.1332C475.512,-31.379 498.647,-26.051 518.285,-21.5284"/>
<polygon fill="midnightblue" stroke="midnightblue" points="453.921,-32.7598 444.962,-38.4149 455.492,-39.5812 453.921,-32.7598"/>
</g>
<!-- Node3&#45;&gt;Node5 -->
<g id="edge30" class="edge"><title>Node3&#45;&gt;Node5</title>
<path fill="none" stroke="midnightblue" d="M472.492,-55.1062C529.963,-59.8812 609.338,-66.4761 665.918,-71.1771"/>
<polygon fill="midnightblue" stroke="midnightblue" points="472.643,-51.6067 462.387,-54.2666 472.063,-58.5827 472.643,-51.6067"/>
</g>
<!-- Node4&#45;&gt;Node5 -->
<g id="edge8" class="edge"><title>Node4&#45;&gt;Node5</title>
<path fill="none" stroke="midnightblue" d="M601.4,-25.1147C610.745,-28.6559 620.743,-32.4564 630,-36 656.904,-46.2985 687.598,-58.1858 709.008,-66.5"/>
<polygon fill="midnightblue" stroke="midnightblue" points="602.547,-21.8066 591.956,-21.5399 600.069,-28.3534 602.547,-21.8066"/>
</g>
<!-- Node4&#45;&gt;Node7 -->
<g id="edge28" class="edge"><title>Node4&#45;&gt;Node7</title>
<path fill="none" stroke="midnightblue" d="M640.222,-18.2162C722.313,-26.3093 856.678,-40.4861 972,-57 991.057,-59.729 1011.81,-63.1867 1030.37,-66.4566"/>
<polygon fill="midnightblue" stroke="midnightblue" points="640.522,-14.7289 630.228,-17.2355 639.839,-21.6954 640.522,-14.7289"/>
</g>
<!-- Node6 -->
<g id="node11" class="node"><title>Node6</title>
<a xlink:href="classtetgenmesh.xhtml#a7c46c82d83099214115fa9719aefbd78" target="_top" xlink:title="tetgenmesh::repairbadtets">
<polygon fill="none" stroke="black" points="842,-66.5 842,-87.5 972,-87.5 972,-66.5 842,-66.5"/>
<text text-anchor="middle" x="907" y="-74.5" font-family="Helvetica,sans-Serif" font-size="10.00">tetgenmesh::repairbadtets</text>
</a>
</g>
<!-- Node5&#45;&gt;Node6 -->
<g id="edge10" class="edge"><title>Node5&#45;&gt;Node6</title>
<path fill="none" stroke="midnightblue" d="M816.083,-77C824.679,-77 833.349,-77 841.742,-77"/>
<polygon fill="midnightblue" stroke="midnightblue" points="816.046,-73.5001 806.046,-77 816.046,-80.5001 816.046,-73.5001"/>
</g>
<!-- Node6&#45;&gt;Node7 -->
<g id="edge12" class="edge"><title>Node6&#45;&gt;Node7</title>
<path fill="none" stroke="midnightblue" d="M982.4,-77C990.819,-77 999.412,-77 1007.88,-77"/>
<polygon fill="midnightblue" stroke="midnightblue" points="982.239,-73.5001 972.239,-77 982.239,-80.5001 982.239,-73.5001"/>
</g>
<!-- Node8 -->
<g id="node15" class="node"><title>Node8</title>
<a xlink:href="tetgen_8h.xhtml#ad3637eb4ffe7fda90667e67b7771d964" target="_top" xlink:title="tetrahedralize">
<polygon fill="none" stroke="black" points="1202.5,-66.5 1202.5,-87.5 1277.5,-87.5 1277.5,-66.5 1202.5,-66.5"/>
<text text-anchor="middle" x="1240" y="-74.5" font-family="Helvetica,sans-Serif" font-size="10.00">tetrahedralize</text>
</a>
</g>
<!-- Node7&#45;&gt;Node8 -->
<g id="edge14" class="edge"><title>Node7&#45;&gt;Node8</title>
<path fill="none" stroke="midnightblue" d="M1176.43,-77C1185.43,-77 1194.18,-77 1202.17,-77"/>
<polygon fill="midnightblue" stroke="midnightblue" points="1176.19,-73.5001 1166.19,-77 1176.19,-80.5001 1176.19,-73.5001"/>
</g>
<!-- Node9 -->
<g id="node17" class="node"><title>Node9</title>
<a xlink:href="classGUICutRenderWindow.xhtml#a9eedb7088ad31f4680a77ed3a06fa60c" target="_top" xlink:title="Berechnet die 2D&#45;Temperaturverteilung als Grafik. ">
<polygon fill="none" stroke="black" points="1316.5,-106 1316.5,-140 1433.5,-140 1433.5,-106 1316.5,-106"/>
<text text-anchor="start" x="1324.5" y="-127" font-family="Helvetica,sans-Serif" font-size="10.00">GUICutRenderWindow</text>
<text text-anchor="middle" x="1375" y="-114" font-family="Helvetica,sans-Serif" font-size="10.00">::renderImage</text>
</a>
</g>
<!-- Node8&#45;&gt;Node9 -->
<g id="edge16" class="edge"><title>Node8&#45;&gt;Node9</title>
<path fill="none" stroke="midnightblue" d="M1280.73,-90.877C1294.62,-95.6107 1310.32,-100.96 1324.86,-105.915"/>
<polygon fill="midnightblue" stroke="midnightblue" points="1281.57,-87.4657 1270.97,-87.5533 1279.31,-94.0917 1281.57,-87.4657"/>
</g>
<!-- Node11 -->
<g id="node21" class="node"><title>Node11</title>
<a xlink:href="classObjectData.xhtml#af3a850833d08eb9b45357449f455e24d" target="_top" xlink:title="Zerlegt das Objekt in Tetraeder (Schnittstelle zur Tetgen&#45;Bibliothek) und Berechnet die Temperaturver...">
<polygon fill="none" stroke="black" points="1314,-66.5 1314,-87.5 1436,-87.5 1436,-66.5 1314,-66.5"/>
<text text-anchor="middle" x="1375" y="-74.5" font-family="Helvetica,sans-Serif" font-size="10.00">ObjectData::calculateIO</text>
</a>
</g>
<!-- Node8&#45;&gt;Node11 -->
<g id="edge20" class="edge"><title>Node8&#45;&gt;Node11</title>
<path fill="none" stroke="midnightblue" d="M1287.65,-77C1296.11,-77 1305.02,-77 1313.8,-77"/>
<polygon fill="midnightblue" stroke="midnightblue" points="1287.61,-73.5001 1277.61,-77 1287.6,-80.5001 1287.61,-73.5001"/>
</g>
<!-- Node14 -->
<g id="node27" class="node"><title>Node14</title>
<a xlink:href="tetgen_8cxx.xhtml#a0ddf1224851353fc92bfbff6f499fa97" target="_top" xlink:title="main">
<polygon fill="none" stroke="black" points="1356,-26.5 1356,-47.5 1394,-47.5 1394,-26.5 1356,-26.5"/>
<text text-anchor="middle" x="1375" y="-34.5" font-family="Helvetica,sans-Serif" font-size="10.00">main</text>
</a>
</g>
<!-- Node8&#45;&gt;Node14 -->
<g id="edge26" class="edge"><title>Node8&#45;&gt;Node14</title>
<path fill="none" stroke="midnightblue" d="M1285.15,-63.6209C1309.27,-56.4764 1337.67,-48.0613 1355.98,-42.6343"/>
<polygon fill="midnightblue" stroke="midnightblue" points="1284.06,-60.2937 1275.47,-66.4905 1286.05,-67.0053 1284.06,-60.2937"/>
</g>
<!-- Node10 -->
<g id="node19" class="node"><title>Node10</title>
<a xlink:href="classGUICutRenderWindow.xhtml#a7cd1bfbec53756a1cbbe1616b4d46c7a" target="_top" xlink:title="Behandelt das Drücken des Buttons zur Berechnung der zweidimensionalen Temperaturverteilung. ">
<polygon fill="none" stroke="black" points="1488.5,-106 1488.5,-140 1605.5,-140 1605.5,-106 1488.5,-106"/>
<text text-anchor="start" x="1496.5" y="-127" font-family="Helvetica,sans-Serif" font-size="10.00">GUICutRenderWindow</text>
<text text-anchor="middle" x="1547" y="-114" font-family="Helvetica,sans-Serif" font-size="10.00">::renderCutBtClick</text>
</a>
</g>
<!-- Node9&#45;&gt;Node10 -->
<g id="edge18" class="edge"><title>Node9&#45;&gt;Node10</title>
<path fill="none" stroke="midnightblue" d="M1443.78,-123C1458.51,-123 1473.95,-123 1488.26,-123"/>
<polygon fill="midnightblue" stroke="midnightblue" points="1443.71,-119.5 1433.71,-123 1443.71,-126.5 1443.71,-119.5"/>
</g>
<!-- Node12 -->
<g id="node23" class="node"><title>Node12</title>
<a xlink:href="classGUIMainWindow.xhtml#a0c2de30274c7f52ff74ec1217e47a9e5" target="_top" xlink:title="Berechnet die 3D&#45;Temperaturverteilung neu. ">
<polygon fill="none" stroke="black" points="1472,-14 1472,-48 1622,-48 1622,-14 1472,-14"/>
<text text-anchor="start" x="1480" y="-35" font-family="Helvetica,sans-Serif" font-size="10.00">GUIMainWindow::OnRecalcBt</text>
<text text-anchor="middle" x="1547" y="-22" font-family="Helvetica,sans-Serif" font-size="10.00">Click</text>
</a>
</g>
<!-- Node11&#45;&gt;Node12 -->
<g id="edge22" class="edge"><title>Node11&#45;&gt;Node12</title>
<path fill="none" stroke="midnightblue" d="M1424.33,-63.8079C1442.64,-58.9096 1463.69,-53.2809 1483.12,-48.0845"/>
<polygon fill="midnightblue" stroke="midnightblue" points="1423.22,-60.4818 1414.46,-66.4467 1425.03,-67.2442 1423.22,-60.4818"/>
</g>
<!-- Node13 -->
<g id="node25" class="node"><title>Node13</title>
<a xlink:href="classGUITimeline.xhtml#a099f3654aa6e7ea04df861851a0e9ec8" target="_top" xlink:title="Sucht den Zeitpunkt zwischen zwei markierten Stellen auf der Sensordaten&#45;Zeitleiste, für den der Wäremeenergiegehalt maximal wird. ">
<polygon fill="none" stroke="black" points="1478.5,-66.5 1478.5,-87.5 1615.5,-87.5 1615.5,-66.5 1478.5,-66.5"/>
<text text-anchor="middle" x="1547" y="-74.5" font-family="Helvetica,sans-Serif" font-size="10.00">GUITimeline::findMaxValue</text>
</a>
</g>
<!-- Node11&#45;&gt;Node13 -->
<g id="edge24" class="edge"><title>Node11&#45;&gt;Node13</title>
<path fill="none" stroke="midnightblue" d="M1446.23,-77C1456.89,-77 1467.86,-77 1478.46,-77"/>
<polygon fill="midnightblue" stroke="midnightblue" points="1446.13,-73.5001 1436.13,-77 1446.13,-80.5001 1446.13,-73.5001"/>
</g>
</g>
</svg>
