<?xml version="1.0" encoding="UTF-8" standalone="no"?>
<!DOCTYPE svg PUBLIC "-//W3C//DTD SVG 1.1//EN"
 "http://www.w3.org/Graphics/SVG/1.1/DTD/svg11.dtd">
<!-- Generated by graphviz version 2.36.0 (20140111.2315)
 -->
<!-- Title: ObjectData::addTimedData Pages: 1 -->
<svg width="498pt" height="164pt"
 viewBox="0.00 0.00 498.00 164.00" xmlns="http://www.w3.org/2000/svg" xmlns:xlink="http://www.w3.org/1999/xlink">
<g id="graph0" class="graph" transform="scale(1 1) rotate(0) translate(4 160)">
<title>ObjectData::addTimedData</title>
<!-- Node1 -->
<g id="node1" class="node"><title>Node1</title>
<polygon fill="#bfbfbf" stroke="black" points="0,-76.5 0,-95.5 136,-95.5 136,-76.5 0,-76.5"/>
<text text-anchor="middle" x="68" y="-83.5" font-family="Helvetica,sans-Serif" font-size="10.00">ObjectData::addTimedData</text>
</g>
<!-- Node2 -->
<g id="node2" class="node"><title>Node2</title>
<g id="a_node2"><a xlink:href="classImporter.xhtml#ad8dec9ce375155ca130453632530eb52" target="_top" xlink:title="Lädt zeitgesteuerte Sensordaten und Verknüpft diese mit dem Objekt. ">
<polygon fill="none" stroke="black" points="172,-76.5 172,-95.5 300,-95.5 300,-76.5 172,-76.5"/>
<text text-anchor="middle" x="236" y="-83.5" font-family="Helvetica,sans-Serif" font-size="10.00">Importer::LoadTimedData</text>
</a>
</g>
</g>
<!-- Node1&#45;&gt;Node2 -->
<g id="edge1" class="edge"><title>Node1&#45;&gt;Node2</title>
<path fill="none" stroke="midnightblue" d="M136.04,-86C144.42,-86 153.026,-86 161.498,-86"/>
<polygon fill="midnightblue" stroke="midnightblue" points="161.742,-89.5001 171.742,-86 161.742,-82.5001 161.742,-89.5001"/>
</g>
<!-- Node3 -->
<g id="node3" class="node"><title>Node3</title>
<g id="a_node3"><a xlink:href="classObjectData.xhtml#a72ac93213382f67b4d5b40c011eb1656" target="_top" xlink:title="Gibt eine Referenz auf die Sensordaten des Objekts zurück. ">
<polygon fill="none" stroke="black" points="336.5,-136.5 336.5,-155.5 489.5,-155.5 489.5,-136.5 336.5,-136.5"/>
<text text-anchor="middle" x="413" y="-143.5" font-family="Helvetica,sans-Serif" font-size="10.00">ObjectData::getSensorDataList</text>
</a>
</g>
</g>
<!-- Node2&#45;&gt;Node3 -->
<g id="edge2" class="edge"><title>Node2&#45;&gt;Node3</title>
<path fill="none" stroke="midnightblue" d="M257.522,-95.5452C277.313,-104.499 308.265,-117.846 336,-127 343.446,-129.458 351.394,-131.772 359.239,-133.883"/>
<polygon fill="midnightblue" stroke="midnightblue" points="358.516,-137.312 369.075,-136.444 360.279,-130.538 358.516,-137.312"/>
</g>
<!-- Node4 -->
<g id="node4" class="node"><title>Node4</title>
<g id="a_node4"><a xlink:href="namespaceUtils.xhtml#ab5711927eff2cdd7123d98d343f0dfad" target="_top" xlink:title="Gibt den n&#45;ten durch Leerzeichen oder Tabulator abgetrennten Block aus einem String zurück...">
<polygon fill="none" stroke="black" points="362.5,-98.5 362.5,-117.5 463.5,-117.5 463.5,-98.5 362.5,-98.5"/>
<text text-anchor="middle" x="413" y="-105.5" font-family="Helvetica,sans-Serif" font-size="10.00">Utils::getTextBlock</text>
</a>
</g>
</g>
<!-- Node2&#45;&gt;Node4 -->
<g id="edge3" class="edge"><title>Node2&#45;&gt;Node4</title>
<path fill="none" stroke="midnightblue" d="M300.179,-93.9425C317.124,-96.0727 335.391,-98.3691 352.15,-100.476"/>
<polygon fill="midnightblue" stroke="midnightblue" points="352.005,-103.985 362.364,-101.76 352.879,-97.04 352.005,-103.985"/>
</g>
<!-- Node5 -->
<g id="node5" class="node"><title>Node5</title>
<g id="a_node5"><a xlink:href="classObjectData.xhtml#a503d63160a3afe2ea517449f78f8ac42" target="_top" xlink:title="Gibt den Index des aktuell verwendeten Sensordatensatzes zurück. ">
<polygon fill="none" stroke="black" points="338.5,-49 338.5,-79 487.5,-79 487.5,-49 338.5,-49"/>
<text text-anchor="start" x="346.5" y="-67" font-family="Helvetica,sans-Serif" font-size="10.00">ObjectData::getCurrentSensor</text>
<text text-anchor="middle" x="413" y="-56" font-family="Helvetica,sans-Serif" font-size="10.00">Index</text>
</a>
</g>
</g>
<!-- Node2&#45;&gt;Node5 -->
<g id="edge4" class="edge"><title>Node2&#45;&gt;Node5</title>
<path fill="none" stroke="midnightblue" d="M300.179,-78.0575C309.31,-76.9096 318.825,-75.7134 328.281,-74.5247"/>
<polygon fill="midnightblue" stroke="midnightblue" points="329.012,-77.9604 338.497,-73.2403 328.139,-71.0151 329.012,-77.9604"/>
</g>
<!-- Node6 -->
<g id="node6" class="node"><title>Node6</title>
<g id="a_node6"><a xlink:href="classObjectData.xhtml#a65bc706c460a62f98e6c24959df04c76" target="_top" xlink:title="Setzt den Index des aktuell verwendeten Sensordatensatzes. ">
<polygon fill="none" stroke="black" points="338.5,-0 338.5,-30 487.5,-30 487.5,-0 338.5,-0"/>
<text text-anchor="start" x="346.5" y="-18" font-family="Helvetica,sans-Serif" font-size="10.00">ObjectData::setCurrentSensor</text>
<text text-anchor="middle" x="413" y="-7" font-family="Helvetica,sans-Serif" font-size="10.00">Index</text>
</a>
</g>
</g>
<!-- Node2&#45;&gt;Node6 -->
<g id="edge5" class="edge"><title>Node2&#45;&gt;Node6</title>
<path fill="none" stroke="midnightblue" d="M256.058,-76.3309C275.782,-66.518 307.623,-51.2154 336,-40 341.765,-37.7217 347.829,-35.4781 353.913,-33.3262"/>
<polygon fill="midnightblue" stroke="midnightblue" points="355.143,-36.6043 363.45,-30.0285 352.855,-29.9886 355.143,-36.6043"/>
</g>
</g>
</svg>
