<?xml version="1.0" encoding="UTF-8" standalone="no"?>
<!DOCTYPE svg PUBLIC "-//W3C//DTD SVG 1.1//EN"
 "http://www.w3.org/Graphics/SVG/1.1/DTD/svg11.dtd">
<!-- Generated by graphviz version 2.26.3 (20100126.1600)
 -->
<!-- Title: GUIGLCanvas Pages: 1 -->
<svg width="1004pt" height="691pt"
 viewBox="0.00 0.00 1004.00 691.00" xmlns="http://www.w3.org/2000/svg" xmlns:xlink="http://www.w3.org/1999/xlink">
<g id="graph1" class="graph" transform="scale(1 1) rotate(0) translate(4 687)">
<title>GUIGLCanvas</title>
<!-- Node1 -->
<g id="node1" class="node"><title>Node1</title>
<polygon fill="#bfbfbf" stroke="black" points="914.5,-467.5 914.5,-488.5 995.5,-488.5 995.5,-467.5 914.5,-467.5"/>
<text text-anchor="middle" x="955" y="-475.5" font-family="Helvetica,sans-Serif" font-size="10.00">GUIGLCanvas</text>
</g>
<!-- Node2 -->
<g id="node2" class="node"><title>Node2</title>
<a xlink:href="classwxGLCanvas.xhtml" target="_top" xlink:title="wxGLCanvas">
<polygon fill="none" stroke="black" points="762,-524.5 762,-545.5 838,-545.5 838,-524.5 762,-524.5"/>
<text text-anchor="middle" x="800" y="-532.5" font-family="Helvetica,sans-Serif" font-size="10.00">wxGLCanvas</text>
</a>
</g>
<!-- Node2&#45;&gt;Node1 -->
<g id="edge2" class="edge"><title>Node2&#45;&gt;Node1</title>
<path fill="none" stroke="midnightblue" d="M848.016,-524.919C863.58,-521.013 880.756,-516.016 896,-510 910.741,-504.183 926.471,-495.515 937.979,-488.667"/>
<polygon fill="midnightblue" stroke="midnightblue" points="846.954,-521.575 838.057,-527.327 848.599,-528.378 846.954,-521.575"/>
</g>
<!-- Node3 -->
<g id="node4" class="node"><title>Node3</title>
<a xlink:href="classRenderer.xhtml" target="_top" xlink:title="Renderer">
<polygon fill="none" stroke="black" points="772,-444.5 772,-465.5 828,-465.5 828,-444.5 772,-444.5"/>
<text text-anchor="middle" x="800" y="-452.5" font-family="Helvetica,sans-Serif" font-size="10.00">Renderer</text>
</a>
</g>
<!-- Node3&#45;&gt;Node1 -->
<g id="edge4" class="edge"><title>Node3&#45;&gt;Node1</title>
<path fill="none" stroke="#9a32cd" stroke-dasharray="5,2" d="M838.072,-460.494C855.701,-463.052 876.922,-466.154 896,-469 901.944,-469.887 908.223,-470.834 914.38,-471.768"/>
<polygon fill="#9a32cd" stroke="#9a32cd" points="838.55,-457.026 828.152,-459.056 837.546,-463.954 838.55,-457.026"/>
<text text-anchor="middle" x="876" y="-473" font-family="Helvetica,sans-Serif" font-size="10.00"> renderer</text>
</g>
<!-- Node4 -->
<g id="node6" class="node"><title>Node4</title>
<a xlink:href="classObjectData.xhtml" target="_top" xlink:title="ObjectData">
<polygon fill="none" stroke="black" points="539,-572.5 539,-593.5 605,-593.5 605,-572.5 539,-572.5"/>
<text text-anchor="middle" x="572" y="-580.5" font-family="Helvetica,sans-Serif" font-size="10.00">ObjectData</text>
</a>
</g>
<!-- Node4&#45;&gt;Node3 -->
<g id="edge6" class="edge"><title>Node4&#45;&gt;Node3</title>
<path fill="none" stroke="#9a32cd" stroke-dasharray="5,2" d="M615.238,-575.904C652.059,-568.256 705.034,-553.32 744,-526 767.266,-509.687 785.627,-480.949 794.388,-465.511"/>
<polygon fill="#9a32cd" stroke="#9a32cd" points="614.435,-572.495 605.306,-577.872 615.795,-579.361 614.435,-572.495"/>
<text text-anchor="middle" x="695" y="-572" font-family="Helvetica,sans-Serif" font-size="10.00"> object</text>
</g>
<!-- Node5 -->
<g id="node8" class="node"><title>Node5</title>
<polygon fill="none" stroke="#bfbfbf" points="0.5,-569.5 0.5,-590.5 45.5,-590.5 45.5,-569.5 0.5,-569.5"/>
<text text-anchor="middle" x="23" y="-577.5" font-family="Helvetica,sans-Serif" font-size="10.00">double</text>
</g>
<!-- Node5&#45;&gt;Node4 -->
<g id="edge8" class="edge"><title>Node5&#45;&gt;Node4</title>
<path fill="none" stroke="#9a32cd" stroke-dasharray="5,2" d="M54.934,-594.463C100.291,-614.134 186.485,-648.322 264,-661 366.795,-677.813 402.73,-690.108 498,-648 525.996,-635.626 551.02,-608.777 563.541,-593.746"/>
<polygon fill="#9a32cd" stroke="#9a32cd" points="56.1928,-591.194 45.629,-590.382 53.3811,-597.604 56.1928,-591.194"/>
<text text-anchor="middle" x="219" y="-674" font-family="Helvetica,sans-Serif" font-size="10.00"> maxvolume</text>
<text text-anchor="middle" x="219" y="-661" font-family="Helvetica,sans-Serif" font-size="10.00">quality</text>
</g>
<!-- Node12 -->
<g id="node22" class="node"><title>Node12</title>
<a xlink:href="classVector3D.xhtml" target="_top" xlink:title="Vector3D">
<polygon fill="none" stroke="black" points="116,-298.5 116,-319.5 174,-319.5 174,-298.5 116,-298.5"/>
<text text-anchor="middle" x="145" y="-306.5" font-family="Helvetica,sans-Serif" font-size="10.00">Vector3D</text>
</a>
</g>
<!-- Node5&#45;&gt;Node12 -->
<g id="edge24" class="edge"><title>Node5&#45;&gt;Node12</title>
<path fill="none" stroke="#9a32cd" stroke-dasharray="5,2" d="M31.8972,-560.237C56.0007,-506.695 121.973,-360.149 140.251,-319.55"/>
<polygon fill="#9a32cd" stroke="#9a32cd" points="28.6961,-558.821 27.7825,-569.376 35.0792,-561.695 28.6961,-558.821"/>
<text text-anchor="middle" x="81" y="-488" font-family="Helvetica,sans-Serif" font-size="10.00"> coords</text>
</g>
<!-- Node6 -->
<g id="node10" class="node"><title>Node6</title>
<polygon fill="none" stroke="#bfbfbf" points="302.5,-630.5 302.5,-651.5 343.5,-651.5 343.5,-630.5 302.5,-630.5"/>
<text text-anchor="middle" x="323" y="-638.5" font-family="Helvetica,sans-Serif" font-size="10.00">string</text>
</g>
<!-- Node6&#45;&gt;Node4 -->
<g id="edge10" class="edge"><title>Node6&#45;&gt;Node4</title>
<path fill="none" stroke="#9a32cd" stroke-dasharray="5,2" d="M353.64,-637.89C388.909,-633.86 448.358,-625.678 498,-612 515.427,-607.198 534.396,-599.717 548.765,-593.556"/>
<polygon fill="#9a32cd" stroke="#9a32cd" points="353.064,-634.432 343.509,-639.009 353.833,-641.39 353.064,-634.432"/>
<text text-anchor="middle" x="449" y="-635" font-family="Helvetica,sans-Serif" font-size="10.00"> name</text>
</g>
<!-- Node7 -->
<g id="node12" class="node"><title>Node7</title>
<polygon fill="none" stroke="#bfbfbf" points="266.5,-590.5 266.5,-611.5 379.5,-611.5 379.5,-590.5 266.5,-590.5"/>
<text text-anchor="middle" x="323" y="-598.5" font-family="Helvetica,sans-Serif" font-size="10.00">vector&lt; SensorData &gt;</text>
</g>
<!-- Node7&#45;&gt;Node4 -->
<g id="edge12" class="edge"><title>Node7&#45;&gt;Node4</title>
<path fill="none" stroke="#9a32cd" stroke-dasharray="5,2" d="M389.533,-596.19C437.666,-592.711 500.68,-588.156 538.657,-585.41"/>
<polygon fill="#9a32cd" stroke="#9a32cd" points="389.224,-592.704 379.502,-596.916 389.728,-599.685 389.224,-592.704"/>
<text text-anchor="middle" x="449" y="-599" font-family="Helvetica,sans-Serif" font-size="10.00"> sensordatalist</text>
</g>
<!-- Node8 -->
<g id="node14" class="node"><title>Node8</title>
<polygon fill="none" stroke="#bfbfbf" points="308.5,-460.5 308.5,-481.5 337.5,-481.5 337.5,-460.5 308.5,-460.5"/>
<text text-anchor="middle" x="323" y="-468.5" font-family="Helvetica,sans-Serif" font-size="10.00">int</text>
</g>
<!-- Node8&#45;&gt;Node1 -->
<g id="edge46" class="edge"><title>Node8&#45;&gt;Node1</title>
<path fill="none" stroke="#9a32cd" stroke-dasharray="5,2" d="M347.782,-474.584C362.846,-476.591 382.489,-478.904 400,-480 431.637,-481.98 557.415,-481.561 856,-482 873.778,-482.026 878.232,-482.602 896,-482 901.951,-481.798 908.234,-481.483 914.393,-481.115"/>
<polygon fill="#9a32cd" stroke="#9a32cd" points="348.103,-471.095 337.719,-473.198 347.148,-478.03 348.103,-471.095"/>
<text text-anchor="middle" x="695" y="-498" font-family="Helvetica,sans-Serif" font-size="10.00"> prev_mouse_x</text>
<text text-anchor="middle" x="695" y="-485" font-family="Helvetica,sans-Serif" font-size="10.00">prev_mouse_y</text>
</g>
<!-- Node8&#45;&gt;Node3 -->
<g id="edge34" class="edge"><title>Node8&#45;&gt;Node3</title>
<path fill="none" stroke="#9a32cd" stroke-dasharray="5,2" d="M347.772,-470.169C428.854,-467.449 686.015,-458.823 771.822,-455.945"/>
<polygon fill="#9a32cd" stroke="#9a32cd" points="347.413,-466.679 337.536,-470.512 347.648,-473.675 347.413,-466.679"/>
<text text-anchor="middle" x="572" y="-468" font-family="Helvetica,sans-Serif" font-size="10.00"> displayList</text>
</g>
<!-- Node8&#45;&gt;Node4 -->
<g id="edge14" class="edge"><title>Node8&#45;&gt;Node4</title>
<path fill="none" stroke="#9a32cd" stroke-dasharray="5,2" d="M346.806,-482.57C361.938,-489.815 381.999,-499.218 400,-507 443.029,-525.602 455.219,-526.834 498,-546 516.614,-554.339 537.346,-564.811 552.12,-572.484"/>
<polygon fill="#9a32cd" stroke="#9a32cd" points="348.174,-479.344 337.645,-478.16 345.137,-485.651 348.174,-479.344"/>
<text text-anchor="middle" x="449" y="-550" font-family="Helvetica,sans-Serif" font-size="10.00"> current_sensor_index</text>
</g>
<!-- Node10 -->
<g id="node18" class="node"><title>Node10</title>
<a xlink:href="structViewport__info.xhtml" target="_top" xlink:title="Viewport_info">
<polygon fill="none" stroke="black" points="534,-286.5 534,-307.5 610,-307.5 610,-286.5 534,-286.5"/>
<text text-anchor="middle" x="572" y="-294.5" font-family="Helvetica,sans-Serif" font-size="10.00">Viewport_info</text>
</a>
</g>
<!-- Node8&#45;&gt;Node10 -->
<g id="edge28" class="edge"><title>Node8&#45;&gt;Node10</title>
<path fill="none" stroke="#9a32cd" stroke-dasharray="5,2" d="M336.149,-452.311C349.959,-434.114 373.347,-407.062 400,-392 438.95,-369.989 458.762,-390.493 498,-369 526.612,-353.328 551.943,-323.548 564.197,-307.642"/>
<polygon fill="#9a32cd" stroke="#9a32cd" points="333.274,-450.312 330.166,-460.441 338.912,-454.461 333.274,-450.312"/>
<text text-anchor="middle" x="449" y="-448" font-family="Helvetica,sans-Serif" font-size="10.00"> width</text>
<text text-anchor="middle" x="449" y="-435" font-family="Helvetica,sans-Serif" font-size="10.00">showpoints</text>
<text text-anchor="middle" x="449" y="-422" font-family="Helvetica,sans-Serif" font-size="10.00">showfaces</text>
<text text-anchor="middle" x="449" y="-409" font-family="Helvetica,sans-Serif" font-size="10.00">height</text>
<text text-anchor="middle" x="449" y="-396" font-family="Helvetica,sans-Serif" font-size="10.00">showedges</text>
</g>
<!-- Node15 -->
<g id="node32" class="node"><title>Node15</title>
<a xlink:href="structUtils_1_1CutRender__info.xhtml" target="_top" xlink:title="Utils::CutRender_info">
<polygon fill="none" stroke="black" points="516.5,-234.5 516.5,-255.5 627.5,-255.5 627.5,-234.5 516.5,-234.5"/>
<text text-anchor="middle" x="572" y="-242.5" font-family="Helvetica,sans-Serif" font-size="10.00">Utils::CutRender_info</text>
</a>
</g>
<!-- Node8&#45;&gt;Node15 -->
<g id="edge42" class="edge"><title>Node8&#45;&gt;Node15</title>
<path fill="none" stroke="#9a32cd" stroke-dasharray="5,2" d="M330.116,-450.44C340.986,-421.82 364.299,-370.006 400,-339 435.519,-308.153 460.162,-326.954 498,-299 508.161,-291.493 506.355,-285.159 516,-277 526.003,-268.539 538.559,-261.128 549.246,-255.574"/>
<polygon fill="#9a32cd" stroke="#9a32cd" points="326.702,-449.588 326.56,-460.181 333.277,-451.988 326.702,-449.588"/>
<text text-anchor="middle" x="449" y="-356" font-family="Helvetica,sans-Serif" font-size="10.00"> img_height</text>
<text text-anchor="middle" x="449" y="-343" font-family="Helvetica,sans-Serif" font-size="10.00">img_width</text>
</g>
<!-- Node9 -->
<g id="node16" class="node"><title>Node9</title>
<polygon fill="none" stroke="#bfbfbf" points="264.5,-550.5 264.5,-571.5 381.5,-571.5 381.5,-550.5 264.5,-550.5"/>
<text text-anchor="middle" x="323" y="-558.5" font-family="Helvetica,sans-Serif" font-size="10.00">vector&lt; MaterialData &gt;</text>
</g>
<!-- Node9&#45;&gt;Node4 -->
<g id="edge16" class="edge"><title>Node9&#45;&gt;Node4</title>
<path fill="none" stroke="#9a32cd" stroke-dasharray="5,2" d="M392.083,-563.295C424.33,-564.789 463.196,-567.194 498,-571 511.455,-572.471 526.191,-574.728 538.946,-576.888"/>
<polygon fill="#9a32cd" stroke="#9a32cd" points="392.004,-559.788 381.859,-562.841 391.694,-566.781 392.004,-559.788"/>
<text text-anchor="middle" x="449" y="-575" font-family="Helvetica,sans-Serif" font-size="10.00"> materials</text>
</g>
<!-- Node10&#45;&gt;Node3 -->
<g id="edge18" class="edge"><title>Node10&#45;&gt;Node3</title>
<path fill="none" stroke="#9a32cd" stroke-dasharray="5,2" d="M595.628,-313.374C642.44,-345.814 745.806,-417.444 784.753,-444.434"/>
<polygon fill="#9a32cd" stroke="#9a32cd" points="597.527,-310.431 587.314,-307.612 593.54,-316.185 597.527,-310.431"/>
<text text-anchor="middle" x="695" y="-417" font-family="Helvetica,sans-Serif" font-size="10.00"> viewport</text>
</g>
<!-- Node11 -->
<g id="node20" class="node"><title>Node11</title>
<a xlink:href="classTriangle.xhtml" target="_top" xlink:title="Triangle">
<polygon fill="none" stroke="black" points="297.5,-251.5 297.5,-272.5 348.5,-272.5 348.5,-251.5 297.5,-251.5"/>
<text text-anchor="middle" x="323" y="-259.5" font-family="Helvetica,sans-Serif" font-size="10.00">Triangle</text>
</a>
</g>
<!-- Node11&#45;&gt;Node10 -->
<g id="edge20" class="edge"><title>Node11&#45;&gt;Node10</title>
<path fill="none" stroke="#9a32cd" stroke-dasharray="5,2" d="M358.922,-265.192C394.384,-268.558 450.098,-274.422 498,-282 509.653,-283.843 522.258,-286.245 533.706,-288.584"/>
<polygon fill="#9a32cd" stroke="#9a32cd" points="358.879,-261.673 348.597,-264.228 358.229,-268.643 358.879,-261.673"/>
<text text-anchor="middle" x="449" y="-286" font-family="Helvetica,sans-Serif" font-size="10.00"> cut</text>
</g>
<!-- Node11&#45;&gt;Node15 -->
<g id="edge38" class="edge"><title>Node11&#45;&gt;Node15</title>
<path fill="none" stroke="#9a32cd" stroke-dasharray="5,2" d="M358.724,-253.034C371.641,-250.203 386.393,-247.439 400,-246 438.753,-241.902 482.693,-241.723 516.46,-242.531"/>
<polygon fill="#9a32cd" stroke="#9a32cd" points="357.786,-249.658 348.815,-255.295 359.343,-256.483 357.786,-249.658"/>
<text text-anchor="middle" x="449" y="-250" font-family="Helvetica,sans-Serif" font-size="10.00"> tri</text>
</g>
<!-- Node12&#45;&gt;Node10 -->
<g id="edge32" class="edge"><title>Node12&#45;&gt;Node10</title>
<path fill="none" stroke="#9a32cd" stroke-dasharray="5,2" d="M184.369,-307.894C266.127,-305.596 453.392,-300.333 533.978,-298.069"/>
<polygon fill="#9a32cd" stroke="#9a32cd" points="183.911,-304.405 174.014,-308.185 184.108,-311.402 183.911,-304.405"/>
<text text-anchor="middle" x="323" y="-310" font-family="Helvetica,sans-Serif" font-size="10.00"> cameraPosition</text>
</g>
<!-- Node12&#45;&gt;Node11 -->
<g id="edge22" class="edge"><title>Node12&#45;&gt;Node11</title>
<path fill="none" stroke="#9a32cd" stroke-dasharray="5,2" d="M168.573,-293.192C175.823,-288.963 184.006,-284.796 192,-282 227.181,-269.695 270.295,-264.954 297.214,-263.132"/>
<polygon fill="#9a32cd" stroke="#9a32cd" points="166.656,-290.262 159.973,-298.483 170.324,-296.224 166.656,-290.262"/>
<text text-anchor="middle" x="219" y="-286" font-family="Helvetica,sans-Serif" font-size="10.00"> verts</text>
</g>
<!-- Node13 -->
<g id="node25" class="node"><title>Node13</title>
<polygon fill="none" stroke="#bfbfbf" points="305.5,-141.5 305.5,-162.5 340.5,-162.5 340.5,-141.5 305.5,-141.5"/>
<text text-anchor="middle" x="323" y="-149.5" font-family="Helvetica,sans-Serif" font-size="10.00">float</text>
</g>
<!-- Node13&#45;&gt;Node10 -->
<g id="edge26" class="edge"><title>Node13&#45;&gt;Node10</title>
<path fill="none" stroke="#9a32cd" stroke-dasharray="5,2" d="M350.662,-149.077C389.095,-146.662 458.38,-148.528 498,-187 523.524,-211.785 494.775,-236.447 516,-265 522.947,-274.346 533.492,-281.38 543.565,-286.437"/>
<polygon fill="#9a32cd" stroke="#9a32cd" points="350.392,-145.588 340.69,-149.845 350.929,-152.567 350.392,-145.588"/>
<text text-anchor="middle" x="449" y="-230" font-family="Helvetica,sans-Serif" font-size="10.00"> rotationX</text>
<text text-anchor="middle" x="449" y="-217" font-family="Helvetica,sans-Serif" font-size="10.00">rotationY</text>
<text text-anchor="middle" x="449" y="-204" font-family="Helvetica,sans-Serif" font-size="10.00">scale</text>
<text text-anchor="middle" x="449" y="-191" font-family="Helvetica,sans-Serif" font-size="10.00">zoom</text>
</g>
<!-- Node13&#45;&gt;Node15 -->
<g id="edge40" class="edge"><title>Node13&#45;&gt;Node15</title>
<path fill="none" stroke="#9a32cd" stroke-dasharray="5,2" d="M350.003,-140.545C386.016,-127.154 450.715,-109.821 498,-135 538.428,-156.528 560.719,-211.056 568.641,-234.27"/>
<polygon fill="#9a32cd" stroke="#9a32cd" points="348.699,-137.297 340.644,-144.179 351.233,-143.822 348.699,-137.297"/>
<text text-anchor="middle" x="449" y="-139" font-family="Helvetica,sans-Serif" font-size="10.00"> mmperpixel</text>
</g>
<!-- Node14 -->
<g id="node28" class="node"><title>Node14</title>
<polygon fill="none" stroke="#bfbfbf" points="305.5,-50.5 305.5,-71.5 340.5,-71.5 340.5,-50.5 305.5,-50.5"/>
<text text-anchor="middle" x="323" y="-58.5" font-family="Helvetica,sans-Serif" font-size="10.00">bool</text>
</g>
<!-- Node14&#45;&gt;Node1 -->
<g id="edge48" class="edge"><title>Node14&#45;&gt;Node1</title>
<path fill="none" stroke="#9a32cd" stroke-dasharray="5,2" d="M350.76,-54.6956C386.019,-47.9513 448.259,-40.3122 498,-57 731.694,-135.403 912.298,-409.253 948.402,-467.184"/>
<polygon fill="#9a32cd" stroke="#9a32cd" points="349.831,-51.3127 340.727,-56.732 351.223,-58.1728 349.831,-51.3127"/>
<text text-anchor="middle" x="695" y="-230" font-family="Helvetica,sans-Serif" font-size="10.00"> do_refresh</text>
<text text-anchor="middle" x="695" y="-217" font-family="Helvetica,sans-Serif" font-size="10.00">is_initialized</text>
</g>
<!-- Node14&#45;&gt;Node10 -->
<g id="edge30" class="edge"><title>Node14&#45;&gt;Node10</title>
<path fill="none" stroke="#9a32cd" stroke-dasharray="5,2" d="M350.836,-59.9468C394.968,-58.9214 478.049,-59.8251 498,-80 527.044,-109.37 493.56,-230.322 516,-265 522.144,-274.495 532.157,-281.479 542.029,-286.455"/>
<polygon fill="#9a32cd" stroke="#9a32cd" points="350.669,-56.4501 340.772,-60.2301 350.866,-63.4473 350.669,-56.4501"/>
<text text-anchor="middle" x="449" y="-110" font-family="Helvetica,sans-Serif" font-size="10.00"> invertcut</text>
<text text-anchor="middle" x="449" y="-97" font-family="Helvetica,sans-Serif" font-size="10.00">show_extrapolated</text>
<text text-anchor="middle" x="449" y="-84" font-family="Helvetica,sans-Serif" font-size="10.00">show_sensordata</text>
</g>
<!-- Node15&#45;&gt;Node3 -->
<g id="edge36" class="edge"><title>Node15&#45;&gt;Node3</title>
<path fill="none" stroke="#9a32cd" stroke-dasharray="5,2" d="M615.571,-259.096C653.634,-273.306 708.246,-298.533 744,-336 775.211,-368.707 791.642,-422.007 797.485,-444.479"/>
<polygon fill="#9a32cd" stroke="#9a32cd" points="616.383,-255.667 605.789,-255.549 613.997,-262.248 616.383,-255.667"/>
<text text-anchor="middle" x="695" y="-340" font-family="Helvetica,sans-Serif" font-size="10.00"> cut_visualisation_info</text>
</g>
<!-- Node16 -->
<g id="node37" class="node"><title>Node16</title>
<polygon fill="none" stroke="#bfbfbf" points="283,-0.5 283,-21.5 363,-21.5 363,-0.5 283,-0.5"/>
<text text-anchor="middle" x="323" y="-8.5" font-family="Helvetica,sans-Serif" font-size="10.00">PIM_algorithm</text>
</g>
<!-- Node16&#45;&gt;Node15 -->
<g id="edge44" class="edge"><title>Node16&#45;&gt;Node15</title>
<path fill="none" stroke="#9a32cd" stroke-dasharray="5,2" d="M373.504,-5.47937C411.788,-4.10558 463.521,-8.6452 498,-37 530.268,-63.5365 561.241,-195.711 569.726,-234.366"/>
<polygon fill="#9a32cd" stroke="#9a32cd" points="372.897,-2.00559 363.088,-6.00879 373.253,-8.99656 372.897,-2.00559"/>
<text text-anchor="middle" x="449" y="-41" font-family="Helvetica,sans-Serif" font-size="10.00"> in_volume_algorithm</text>
</g>
</g>
</svg>
