<?xml version="1.0" encoding="UTF-8" standalone="no"?>
<!DOCTYPE svg PUBLIC "-//W3C//DTD SVG 1.1//EN"
 "http://www.w3.org/Graphics/SVG/1.1/DTD/svg11.dtd">
<!-- Generated by graphviz version 2.26.3 (20100126.1600)
 -->
<!-- Title: tetgenmesh::insertpoint Pages: 1 -->
<svg width="1998pt" height="641pt"
 viewBox="0.00 0.00 1998.00 640.80" xmlns="http://www.w3.org/2000/svg" xmlns:xlink="http://www.w3.org/1999/xlink">
<g id="graph1" class="graph" transform="scale(1 1) rotate(0) translate(4 636.801)">
<title>tetgenmesh::insertpoint</title>
<!-- Node1 -->
<g id="node1" class="node"><title>Node1</title>
<polygon fill="#bfbfbf" stroke="black" points="0.5,-352.5 0.5,-373.5 119.5,-373.5 119.5,-352.5 0.5,-352.5"/>
<text text-anchor="middle" x="60" y="-360.5" font-family="Helvetica,sans-Serif" font-size="10.00">tetgenmesh::insertpoint</text>
</g>
<!-- Node2 -->
<g id="node3" class="node"><title>Node2</title>
<a xlink:href="classtetgenmesh.xhtml#a5a5a0513d0bea7aa457eb0bc5fad1b02" target="_top" xlink:title="tetgenmesh::incrementaldelaunay">
<polygon fill="none" stroke="black" points="1176.5,-558.5 1176.5,-579.5 1339.5,-579.5 1339.5,-558.5 1176.5,-558.5"/>
<text text-anchor="middle" x="1258" y="-566.5" font-family="Helvetica,sans-Serif" font-size="10.00">tetgenmesh::incrementaldelaunay</text>
</a>
</g>
<!-- Node1&#45;&gt;Node2 -->
<g id="edge2" class="edge"><title>Node1&#45;&gt;Node2</title>
<path fill="none" stroke="midnightblue" d="M61.8804,-383.834C67.2427,-429.685 87.0108,-539.206 156,-589 267.003,-669.118 326.104,-614 463,-614 463,-614 463,-614 861,-614 982.736,-614 1124.14,-592.851 1201.03,-579.551"/>
<polygon fill="midnightblue" stroke="midnightblue" points="65.3334,-383.202 60.8063,-373.623 58.3718,-383.935 65.3334,-383.202"/>
</g>
<!-- Node10 -->
<g id="node19" class="node"><title>Node10</title>
<a xlink:href="classtetgenmesh.xhtml#a8dee14a42e35e4fe65944518eed4f7d3" target="_top" xlink:title="tetgenmesh::delaunizesegments">
<polygon fill="none" stroke="black" points="782,-555.5 782,-576.5 940,-576.5 940,-555.5 782,-555.5"/>
<text text-anchor="middle" x="861" y="-563.5" font-family="Helvetica,sans-Serif" font-size="10.00">tetgenmesh::delaunizesegments</text>
</a>
</g>
<!-- Node1&#45;&gt;Node10 -->
<g id="edge18" class="edge"><title>Node1&#45;&gt;Node10</title>
<path fill="none" stroke="midnightblue" d="M63.1797,-384.073C70.7227,-425.723 93.9579,-517.928 156,-557 257.959,-621.211 620.052,-591.983 781.87,-575.057"/>
<polygon fill="midnightblue" stroke="midnightblue" points="66.5912,-383.253 61.4829,-373.971 59.6879,-384.413 66.5912,-383.253"/>
</g>
<!-- Node12 -->
<g id="node24" class="node"><title>Node12</title>
<a xlink:href="classtetgenmesh.xhtml#ab1a82368937a13996efae911b8b1fded" target="_top" xlink:title="tetgenmesh::delaunizecavity">
<polygon fill="none" stroke="black" points="172.5,-526.5 172.5,-547.5 313.5,-547.5 313.5,-526.5 172.5,-526.5"/>
<text text-anchor="middle" x="243" y="-534.5" font-family="Helvetica,sans-Serif" font-size="10.00">tetgenmesh::delaunizecavity</text>
</a>
</g>
<!-- Node1&#45;&gt;Node12 -->
<g id="edge24" class="edge"><title>Node1&#45;&gt;Node12</title>
<path fill="none" stroke="midnightblue" d="M67.4966,-383.149C80.4959,-415.298 110.289,-478.028 156,-512 164.325,-518.187 174.14,-522.845 184.123,-526.352"/>
<polygon fill="midnightblue" stroke="midnightblue" points="70.6289,-381.548 63.7332,-373.504 64.1077,-384.092 70.6289,-381.548"/>
</g>
<!-- Node13 -->
<g id="node26" class="node"><title>Node13</title>
<a xlink:href="classtetgenmesh.xhtml#a9c967ef25cfd6e06d6b9301302be3f70" target="_top" xlink:title="tetgenmesh::insertpoint_cdt">
<polygon fill="none" stroke="black" points="394.5,-487.5 394.5,-508.5 531.5,-508.5 531.5,-487.5 394.5,-487.5"/>
<text text-anchor="middle" x="463" y="-495.5" font-family="Helvetica,sans-Serif" font-size="10.00">tetgenmesh::insertpoint_cdt</text>
</a>
</g>
<!-- Node1&#45;&gt;Node13 -->
<g id="edge36" class="edge"><title>Node1&#45;&gt;Node13</title>
<path fill="none" stroke="midnightblue" d="M69.7247,-382.811C84.2734,-409.994 114.499,-457.886 156,-479 231.438,-517.38 331.146,-515.518 396.154,-508.533"/>
<polygon fill="midnightblue" stroke="midnightblue" points="72.7804,-381.1 65.0821,-373.821 66.5608,-384.312 72.7804,-381.1"/>
</g>
<!-- Node16 -->
<g id="node35" class="node"><title>Node16</title>
<a xlink:href="classtetgenmesh.xhtml#acb5fc751eaa4a4ddffbebedfa7b7382a" target="_top" xlink:title="tetgenmesh::add_steinerpt\l_in_schoenhardtpoly">
<polygon fill="none" stroke="black" points="177,-346 177,-380 309,-380 309,-346 177,-346"/>
<text text-anchor="start" x="185" y="-367" font-family="Helvetica,sans-Serif" font-size="10.00">tetgenmesh::add_steinerpt</text>
<text text-anchor="middle" x="243" y="-354" font-family="Helvetica,sans-Serif" font-size="10.00">_in_schoenhardtpoly</text>
</a>
</g>
<!-- Node1&#45;&gt;Node16 -->
<g id="edge38" class="edge"><title>Node1&#45;&gt;Node16</title>
<path fill="none" stroke="midnightblue" d="M129.674,-363C145.125,-363 161.458,-363 176.767,-363"/>
<polygon fill="midnightblue" stroke="midnightblue" points="129.668,-359.5 119.668,-363 129.668,-366.5 129.668,-359.5"/>
</g>
<!-- Node17 -->
<g id="node37" class="node"><title>Node17</title>
<a xlink:href="classtetgenmesh.xhtml#a9d878a0e64588b0471a58e534affea8e" target="_top" xlink:title="tetgenmesh::addsteiner4recoversegment">
<polygon fill="none" stroke="black" points="366,-394.5 366,-415.5 560,-415.5 560,-394.5 366,-394.5"/>
<text text-anchor="middle" x="463" y="-402.5" font-family="Helvetica,sans-Serif" font-size="10.00">tetgenmesh::addsteiner4recoversegment</text>
</a>
</g>
<!-- Node1&#45;&gt;Node17 -->
<g id="edge52" class="edge"><title>Node1&#45;&gt;Node17</title>
<path fill="none" stroke="midnightblue" d="M102.03,-376.46C118.666,-381.239 138.067,-386.138 156,-389 225.569,-400.104 305.017,-404.011 365.66,-405.191"/>
<polygon fill="midnightblue" stroke="midnightblue" points="102.648,-372.993 92.0664,-373.519 100.667,-379.707 102.648,-372.993"/>
</g>
<!-- Node20 -->
<g id="node44" class="node"><title>Node20</title>
<a xlink:href="classtetgenmesh.xhtml#a3de6e9d82e74671af7f038043b5e9bcc" target="_top" xlink:title="tetgenmesh::add_steinerpt\l_in_segment">
<polygon fill="none" stroke="black" points="177,-436 177,-470 309,-470 309,-436 177,-436"/>
<text text-anchor="start" x="185" y="-457" font-family="Helvetica,sans-Serif" font-size="10.00">tetgenmesh::add_steinerpt</text>
<text text-anchor="middle" x="243" y="-444" font-family="Helvetica,sans-Serif" font-size="10.00">_in_segment</text>
</a>
</g>
<!-- Node1&#45;&gt;Node20 -->
<g id="edge48" class="edge"><title>Node1&#45;&gt;Node20</title>
<path fill="none" stroke="midnightblue" d="M83.3793,-379.287C102.352,-392.026 130.107,-409.598 156,-422 166.557,-427.056 178.167,-431.75 189.372,-435.876"/>
<polygon fill="midnightblue" stroke="midnightblue" points="85.3062,-376.364 75.0682,-373.638 81.3712,-382.154 85.3062,-376.364"/>
</g>
<!-- Node21 -->
<g id="node48" class="node"><title>Node21</title>
<a xlink:href="classtetgenmesh.xhtml#ace09080e4f274e0a48cd1728475878c9" target="_top" xlink:title="tetgenmesh::recoversubfaces">
<polygon fill="none" stroke="black" points="598,-346.5 598,-367.5 744,-367.5 744,-346.5 598,-346.5"/>
<text text-anchor="middle" x="671" y="-354.5" font-family="Helvetica,sans-Serif" font-size="10.00">tetgenmesh::recoversubfaces</text>
</a>
</g>
<!-- Node1&#45;&gt;Node21 -->
<g id="edge54" class="edge"><title>Node1&#45;&gt;Node21</title>
<path fill="none" stroke="midnightblue" d="M100.308,-349.536C117.291,-344.533 137.399,-339.474 156,-337 239.152,-325.939 476.767,-341.809 597.974,-351.095"/>
<polygon fill="midnightblue" stroke="midnightblue" points="99.2538,-346.198 90.7041,-352.456 101.29,-352.896 99.2538,-346.198"/>
</g>
<!-- Node22 -->
<g id="node51" class="node"><title>Node22</title>
<a xlink:href="classtetgenmesh.xhtml#ac8205cae8e16f490b80d74975934ff74" target="_top" xlink:title="tetgenmesh::insertconstrainedpoints">
<polygon fill="none" stroke="black" points="156,-268.5 156,-289.5 330,-289.5 330,-268.5 156,-268.5"/>
<text text-anchor="middle" x="243" y="-276.5" font-family="Helvetica,sans-Serif" font-size="10.00">tetgenmesh::insertconstrainedpoints</text>
</a>
</g>
<!-- Node1&#45;&gt;Node22 -->
<g id="edge58" class="edge"><title>Node1&#45;&gt;Node22</title>
<path fill="none" stroke="midnightblue" d="M82.5127,-346.725C101.38,-333.696 129.423,-315.723 156,-304 169.085,-298.228 183.86,-293.401 197.471,-289.576"/>
<polygon fill="midnightblue" stroke="midnightblue" points="80.4583,-343.89 74.2812,-352.498 84.478,-349.621 80.4583,-343.89"/>
</g>
<!-- Node24 -->
<g id="node56" class="node"><title>Node24</title>
<a xlink:href="classtetgenmesh.xhtml#a6394d7b4d386e8d08077c39cd8983e0e" target="_top" xlink:title="tetgenmesh::splitsegment">
<polygon fill="none" stroke="black" points="178.5,-133.5 178.5,-154.5 307.5,-154.5 307.5,-133.5 178.5,-133.5"/>
<text text-anchor="middle" x="243" y="-141.5" font-family="Helvetica,sans-Serif" font-size="10.00">tetgenmesh::splitsegment</text>
</a>
</g>
<!-- Node1&#45;&gt;Node24 -->
<g id="edge64" class="edge"><title>Node1&#45;&gt;Node24</title>
<path fill="none" stroke="midnightblue" d="M66.7093,-342.387C79.1886,-306.827 109.044,-233.409 156,-188 171.696,-172.822 193.664,-161.768 211.598,-154.536"/>
<polygon fill="midnightblue" stroke="midnightblue" points="63.3006,-341.54 63.3946,-352.135 69.9279,-343.794 63.3006,-341.54"/>
</g>
<!-- Node26 -->
<g id="node60" class="node"><title>Node26</title>
<a xlink:href="classtetgenmesh.xhtml#a3a8404870ab3c2e8ce4312d48c2b29f4" target="_top" xlink:title="tetgenmesh::splitsubface">
<polygon fill="none" stroke="black" points="608,-154.5 608,-175.5 734,-175.5 734,-154.5 608,-154.5"/>
<text text-anchor="middle" x="671" y="-162.5" font-family="Helvetica,sans-Serif" font-size="10.00">tetgenmesh::splitsubface</text>
</a>
</g>
<!-- Node1&#45;&gt;Node26 -->
<g id="edge92" class="edge"><title>Node1&#45;&gt;Node26</title>
<path fill="none" stroke="midnightblue" d="M67.5867,-343.182C80.5469,-312.311 110.086,-253.444 156,-226 194.061,-203.25 478.516,-179.391 607.61,-169.602"/>
<polygon fill="midnightblue" stroke="midnightblue" points="64.3263,-341.908 63.8273,-352.492 70.8171,-344.53 64.3263,-341.908"/>
</g>
<!-- Node28 -->
<g id="node64" class="node"><title>Node28</title>
<a xlink:href="classtetgenmesh.xhtml#aa752155eb1d18550a212dd40297f122e" target="_top" xlink:title="tetgenmesh::splittetrahedron">
<polygon fill="none" stroke="black" points="988,-153.5 988,-174.5 1128,-174.5 1128,-153.5 988,-153.5"/>
<text text-anchor="middle" x="1058" y="-161.5" font-family="Helvetica,sans-Serif" font-size="10.00">tetgenmesh::splittetrahedron</text>
</a>
</g>
<!-- Node1&#45;&gt;Node28 -->
<g id="edge94" class="edge"><title>Node1&#45;&gt;Node28</title>
<path fill="none" stroke="midnightblue" d="M71.1258,-343.669C86.5796,-318.93 117.086,-277.113 156,-259 314.117,-185.404 771.224,-266.954 940,-223 979.01,-212.841 1020.15,-188.764 1042.06,-174.708"/>
<polygon fill="midnightblue" stroke="midnightblue" points="68.1296,-341.86 65.9539,-352.229 74.121,-345.48 68.1296,-341.86"/>
</g>
<!-- Node31 -->
<g id="node79" class="node"><title>Node31</title>
<a xlink:href="classtetgenmesh.xhtml#aa9540f310c97db99c989a02b0978ceec" target="_top" xlink:title="tetgenmesh::splitsliver">
<polygon fill="none" stroke="black" points="405.5,-18.5 405.5,-39.5 520.5,-39.5 520.5,-18.5 405.5,-18.5"/>
<text text-anchor="middle" x="463" y="-26.5" font-family="Helvetica,sans-Serif" font-size="10.00">tetgenmesh::splitsliver</text>
</a>
</g>
<!-- Node1&#45;&gt;Node31 -->
<g id="edge96" class="edge"><title>Node1&#45;&gt;Node31</title>
<path fill="none" stroke="midnightblue" d="M62.3289,-342.399C68.6295,-296.395 90.226,-184.599 156,-124 225.549,-59.9223 337.585,-39.0506 405.357,-32.2616"/>
<polygon fill="midnightblue" stroke="midnightblue" points="58.8502,-342.01 61.0662,-352.371 65.7948,-342.89 58.8502,-342.01"/>
</g>
<!-- Node3 -->
<g id="node5" class="node"><title>Node3</title>
<a xlink:href="tetgen_8h.xhtml#ad3637eb4ffe7fda90667e67b7771d964" target="_top" xlink:title="tetrahedralize">
<polygon fill="none" stroke="black" points="1570.5,-326.5 1570.5,-347.5 1645.5,-347.5 1645.5,-326.5 1570.5,-326.5"/>
<text text-anchor="middle" x="1608" y="-334.5" font-family="Helvetica,sans-Serif" font-size="10.00">tetrahedralize</text>
</a>
</g>
<!-- Node2&#45;&gt;Node3 -->
<g id="edge4" class="edge"><title>Node2&#45;&gt;Node3</title>
<path fill="none" stroke="midnightblue" d="M1315.81,-555.939C1375.75,-540.053 1469.54,-508.38 1534,-454 1570.37,-423.313 1594.75,-370.105 1603.93,-347.57"/>
<polygon fill="midnightblue" stroke="midnightblue" points="1314.92,-552.552 1306.12,-558.447 1316.68,-559.329 1314.92,-552.552"/>
</g>
<!-- Node4 -->
<g id="node7" class="node"><title>Node4</title>
<a xlink:href="classGUICutRenderWindow.xhtml#a9eedb7088ad31f4680a77ed3a06fa60c" target="_top" xlink:title="Berechnet die 2D&#45;Temperaturverteilung als Grafik. ">
<polygon fill="none" stroke="black" points="1684.5,-366 1684.5,-400 1801.5,-400 1801.5,-366 1684.5,-366"/>
<text text-anchor="start" x="1692.5" y="-387" font-family="Helvetica,sans-Serif" font-size="10.00">GUICutRenderWindow</text>
<text text-anchor="middle" x="1743" y="-374" font-family="Helvetica,sans-Serif" font-size="10.00">::renderImage</text>
</a>
</g>
<!-- Node3&#45;&gt;Node4 -->
<g id="edge6" class="edge"><title>Node3&#45;&gt;Node4</title>
<path fill="none" stroke="midnightblue" d="M1648.73,-350.877C1662.62,-355.611 1678.32,-360.96 1692.86,-365.915"/>
<polygon fill="midnightblue" stroke="midnightblue" points="1649.57,-347.466 1638.97,-347.553 1647.31,-354.092 1649.57,-347.466"/>
</g>
<!-- Node6 -->
<g id="node11" class="node"><title>Node6</title>
<a xlink:href="classObjectData.xhtml#af3a850833d08eb9b45357449f455e24d" target="_top" xlink:title="Zerlegt das Objekt in Tetraeder (Schnittstelle zur Tetgen&#45;Bibliothek) und Berechnet die Temperaturver...">
<polygon fill="none" stroke="black" points="1682,-326.5 1682,-347.5 1804,-347.5 1804,-326.5 1682,-326.5"/>
<text text-anchor="middle" x="1743" y="-334.5" font-family="Helvetica,sans-Serif" font-size="10.00">ObjectData::calculateIO</text>
</a>
</g>
<!-- Node3&#45;&gt;Node6 -->
<g id="edge10" class="edge"><title>Node3&#45;&gt;Node6</title>
<path fill="none" stroke="midnightblue" d="M1655.65,-337C1664.11,-337 1673.02,-337 1681.8,-337"/>
<polygon fill="midnightblue" stroke="midnightblue" points="1655.61,-333.5 1645.61,-337 1655.6,-340.5 1655.61,-333.5"/>
</g>
<!-- Node9 -->
<g id="node17" class="node"><title>Node9</title>
<a xlink:href="tetgen_8cxx.xhtml#a0ddf1224851353fc92bfbff6f499fa97" target="_top" xlink:title="main">
<polygon fill="none" stroke="black" points="1724,-286.5 1724,-307.5 1762,-307.5 1762,-286.5 1724,-286.5"/>
<text text-anchor="middle" x="1743" y="-294.5" font-family="Helvetica,sans-Serif" font-size="10.00">main</text>
</a>
</g>
<!-- Node3&#45;&gt;Node9 -->
<g id="edge16" class="edge"><title>Node3&#45;&gt;Node9</title>
<path fill="none" stroke="midnightblue" d="M1653.15,-323.621C1677.27,-316.476 1705.67,-308.061 1723.98,-302.634"/>
<polygon fill="midnightblue" stroke="midnightblue" points="1652.06,-320.294 1643.47,-326.49 1654.05,-327.005 1652.06,-320.294"/>
</g>
<!-- Node5 -->
<g id="node9" class="node"><title>Node5</title>
<a xlink:href="classGUICutRenderWindow.xhtml#a7cd1bfbec53756a1cbbe1616b4d46c7a" target="_top" xlink:title="Behandelt das Drücken des Buttons zur Berechnung der zweidimensionalen Temperaturverteilung. ">
<polygon fill="none" stroke="black" points="1856.5,-366 1856.5,-400 1973.5,-400 1973.5,-366 1856.5,-366"/>
<text text-anchor="start" x="1864.5" y="-387" font-family="Helvetica,sans-Serif" font-size="10.00">GUICutRenderWindow</text>
<text text-anchor="middle" x="1915" y="-374" font-family="Helvetica,sans-Serif" font-size="10.00">::renderCutBtClick</text>
</a>
</g>
<!-- Node4&#45;&gt;Node5 -->
<g id="edge8" class="edge"><title>Node4&#45;&gt;Node5</title>
<path fill="none" stroke="midnightblue" d="M1811.78,-383C1826.51,-383 1841.95,-383 1856.26,-383"/>
<polygon fill="midnightblue" stroke="midnightblue" points="1811.71,-379.5 1801.71,-383 1811.71,-386.5 1811.71,-379.5"/>
</g>
<!-- Node7 -->
<g id="node13" class="node"><title>Node7</title>
<a xlink:href="classGUIMainWindow.xhtml#a0c2de30274c7f52ff74ec1217e47a9e5" target="_top" xlink:title="Berechnet die 3D&#45;Temperaturverteilung neu. ">
<polygon fill="none" stroke="black" points="1840,-274 1840,-308 1990,-308 1990,-274 1840,-274"/>
<text text-anchor="start" x="1848" y="-295" font-family="Helvetica,sans-Serif" font-size="10.00">GUIMainWindow::OnRecalcBt</text>
<text text-anchor="middle" x="1915" y="-282" font-family="Helvetica,sans-Serif" font-size="10.00">Click</text>
</a>
</g>
<!-- Node6&#45;&gt;Node7 -->
<g id="edge12" class="edge"><title>Node6&#45;&gt;Node7</title>
<path fill="none" stroke="midnightblue" d="M1792.33,-323.808C1810.64,-318.91 1831.69,-313.281 1851.12,-308.085"/>
<polygon fill="midnightblue" stroke="midnightblue" points="1791.22,-320.482 1782.46,-326.447 1793.03,-327.244 1791.22,-320.482"/>
</g>
<!-- Node8 -->
<g id="node15" class="node"><title>Node8</title>
<a xlink:href="classGUITimeline.xhtml#a099f3654aa6e7ea04df861851a0e9ec8" target="_top" xlink:title="Sucht den Zeitpunkt zwischen zwei markierten Stellen auf der Sensordaten&#45;Zeitleiste, für den der Wäremeenergiegehalt maximal wird. ">
<polygon fill="none" stroke="black" points="1846.5,-326.5 1846.5,-347.5 1983.5,-347.5 1983.5,-326.5 1846.5,-326.5"/>
<text text-anchor="middle" x="1915" y="-334.5" font-family="Helvetica,sans-Serif" font-size="10.00">GUITimeline::findMaxValue</text>
</a>
</g>
<!-- Node6&#45;&gt;Node8 -->
<g id="edge14" class="edge"><title>Node6&#45;&gt;Node8</title>
<path fill="none" stroke="midnightblue" d="M1814.23,-337C1824.89,-337 1835.86,-337 1846.46,-337"/>
<polygon fill="midnightblue" stroke="midnightblue" points="1814.13,-333.5 1804.13,-337 1814.13,-340.5 1814.13,-333.5"/>
</g>
<!-- Node11 -->
<g id="node21" class="node"><title>Node11</title>
<a xlink:href="classtetgenmesh.xhtml#aab64d62b3d2b048a38158fb2bf678624" target="_top" xlink:title="tetgenmesh::constraineddelaunay">
<polygon fill="none" stroke="black" points="976.5,-497.5 976.5,-518.5 1139.5,-518.5 1139.5,-497.5 976.5,-497.5"/>
<text text-anchor="middle" x="1058" y="-505.5" font-family="Helvetica,sans-Serif" font-size="10.00">tetgenmesh::constraineddelaunay</text>
</a>
</g>
<!-- Node10&#45;&gt;Node11 -->
<g id="edge20" class="edge"><title>Node10&#45;&gt;Node11</title>
<path fill="none" stroke="midnightblue" d="M906.696,-552.546C941.886,-542.186 989.842,-528.067 1022.26,-518.523"/>
<polygon fill="midnightblue" stroke="midnightblue" points="905.28,-549.315 896.675,-555.497 907.257,-556.03 905.28,-549.315"/>
</g>
<!-- Node11&#45;&gt;Node3 -->
<g id="edge22" class="edge"><title>Node11&#45;&gt;Node3</title>
<path fill="none" stroke="midnightblue" d="M1112.95,-495.049C1202.46,-473.316 1384.76,-426.402 1534,-371 1552.42,-364.16 1572.66,-354.724 1587.3,-347.528"/>
<polygon fill="midnightblue" stroke="midnightblue" points="1111.92,-491.697 1103.02,-497.448 1113.56,-498.501 1111.92,-491.697"/>
</g>
<!-- Node12&#45;&gt;Node13 -->
<g id="edge26" class="edge"><title>Node12&#45;&gt;Node13</title>
<path fill="none" stroke="midnightblue" d="M312.411,-524.695C341.727,-519.498 375.515,-513.509 403.649,-508.521"/>
<polygon fill="midnightblue" stroke="midnightblue" points="311.481,-521.306 302.245,-526.497 312.703,-528.198 311.481,-521.306"/>
</g>
<!-- Node15 -->
<g id="node30" class="node"><title>Node15</title>
<a xlink:href="classtetgenmesh.xhtml#a7579c3a44a54712623d9f9e5fc1dfbdc" target="_top" xlink:title="tetgenmesh::constrainedfacets">
<polygon fill="none" stroke="black" points="785.5,-497.5 785.5,-518.5 936.5,-518.5 936.5,-497.5 785.5,-497.5"/>
<text text-anchor="middle" x="861" y="-505.5" font-family="Helvetica,sans-Serif" font-size="10.00">tetgenmesh::constrainedfacets</text>
</a>
</g>
<!-- Node12&#45;&gt;Node15 -->
<g id="edge34" class="edge"><title>Node12&#45;&gt;Node15</title>
<path fill="none" stroke="midnightblue" d="M324.138,-535.158C423.614,-532.617 597.319,-527.267 746,-518 758.701,-517.208 772.177,-516.194 785.262,-515.117"/>
<polygon fill="midnightblue" stroke="midnightblue" points="323.769,-531.666 313.86,-535.417 323.945,-538.664 323.769,-531.666"/>
</g>
<!-- Node14 -->
<g id="node28" class="node"><title>Node14</title>
<a xlink:href="classtetgenmesh.xhtml#aa34a5188a4cee82197394560c388c348" target="_top" xlink:title="tetgenmesh::refineregion">
<polygon fill="none" stroke="black" points="609,-487.5 609,-508.5 733,-508.5 733,-487.5 609,-487.5"/>
<text text-anchor="middle" x="671" y="-495.5" font-family="Helvetica,sans-Serif" font-size="10.00">tetgenmesh::refineregion</text>
</a>
</g>
<!-- Node13&#45;&gt;Node14 -->
<g id="edge28" class="edge"><title>Node13&#45;&gt;Node14</title>
<path fill="none" stroke="midnightblue" d="M541.73,-498C563.881,-498 587.659,-498 608.705,-498"/>
<polygon fill="midnightblue" stroke="midnightblue" points="541.683,-494.5 531.683,-498 541.683,-501.5 541.683,-494.5"/>
</g>
<!-- Node14&#45;&gt;Node15 -->
<g id="edge30" class="edge"><title>Node14&#45;&gt;Node15</title>
<path fill="none" stroke="midnightblue" d="M743.539,-501.818C757.237,-502.539 771.597,-503.295 785.387,-504.02"/>
<polygon fill="midnightblue" stroke="midnightblue" points="743.383,-498.305 733.213,-501.274 743.015,-505.295 743.383,-498.305"/>
</g>
<!-- Node15&#45;&gt;Node11 -->
<g id="edge32" class="edge"><title>Node15&#45;&gt;Node11</title>
<path fill="none" stroke="midnightblue" d="M946.769,-508C956.6,-508 966.604,-508 976.379,-508"/>
<polygon fill="midnightblue" stroke="midnightblue" points="946.602,-504.5 936.602,-508 946.602,-511.5 946.602,-504.5"/>
</g>
<!-- Node16&#45;&gt;Node17 -->
<g id="edge40" class="edge"><title>Node16&#45;&gt;Node17</title>
<path fill="none" stroke="midnightblue" d="M319.156,-377.539C348.306,-383.104 380.969,-389.339 407.793,-394.46"/>
<polygon fill="midnightblue" stroke="midnightblue" points="319.486,-374.039 309.007,-375.601 318.174,-380.915 319.486,-374.039"/>
</g>
<!-- Node18 -->
<g id="node39" class="node"><title>Node18</title>
<a xlink:href="classtetgenmesh.xhtml#a50e12e269b11573e6e1b91347ad19b37" target="_top" xlink:title="tetgenmesh::recoversegments">
<polygon fill="none" stroke="black" points="596.5,-389.5 596.5,-410.5 745.5,-410.5 745.5,-389.5 596.5,-389.5"/>
<text text-anchor="middle" x="671" y="-397.5" font-family="Helvetica,sans-Serif" font-size="10.00">tetgenmesh::recoversegments</text>
</a>
</g>
<!-- Node17&#45;&gt;Node18 -->
<g id="edge42" class="edge"><title>Node17&#45;&gt;Node18</title>
<path fill="none" stroke="midnightblue" d="M570.574,-402.414C579.325,-402.204 588.042,-401.994 596.478,-401.791"/>
<polygon fill="midnightblue" stroke="midnightblue" points="570.214,-398.922 560.301,-402.661 570.382,-405.92 570.214,-398.922"/>
</g>
<!-- Node19 -->
<g id="node41" class="node"><title>Node19</title>
<a xlink:href="classtetgenmesh.xhtml#a1be7dce56688fbe7a97fc31f98b61c19" target="_top" xlink:title="tetgenmesh::recoverboundary">
<polygon fill="none" stroke="black" points="788,-346.5 788,-367.5 934,-367.5 934,-346.5 788,-346.5"/>
<text text-anchor="middle" x="861" y="-354.5" font-family="Helvetica,sans-Serif" font-size="10.00">tetgenmesh::recoverboundary</text>
</a>
</g>
<!-- Node18&#45;&gt;Node19 -->
<g id="edge44" class="edge"><title>Node18&#45;&gt;Node19</title>
<path fill="none" stroke="midnightblue" d="M727.423,-387.231C755.121,-380.962 788.089,-373.501 814.342,-367.559"/>
<polygon fill="midnightblue" stroke="midnightblue" points="726.46,-383.86 717.479,-389.481 728.005,-390.687 726.46,-383.86"/>
</g>
<!-- Node19&#45;&gt;Node3 -->
<g id="edge46" class="edge"><title>Node19&#45;&gt;Node3</title>
<path fill="none" stroke="midnightblue" d="M944.688,-354.759C1106.17,-350.436 1454.98,-341.097 1570.21,-338.012"/>
<polygon fill="midnightblue" stroke="midnightblue" points="944.23,-351.27 934.327,-355.037 944.417,-358.268 944.23,-351.27"/>
</g>
<!-- Node20&#45;&gt;Node17 -->
<g id="edge50" class="edge"><title>Node20&#45;&gt;Node17</title>
<path fill="none" stroke="midnightblue" d="M319.159,-436.383C350.925,-429.453 386.863,-421.612 414.871,-415.501"/>
<polygon fill="midnightblue" stroke="midnightblue" points="318.031,-433.047 309.007,-438.598 319.524,-439.886 318.031,-433.047"/>
</g>
<!-- Node21&#45;&gt;Node19 -->
<g id="edge56" class="edge"><title>Node21&#45;&gt;Node19</title>
<path fill="none" stroke="midnightblue" d="M754.354,-357C765.512,-357 776.886,-357 787.85,-357"/>
<polygon fill="midnightblue" stroke="midnightblue" points="754.187,-353.5 744.187,-357 754.187,-360.5 754.187,-353.5"/>
</g>
<!-- Node22&#45;&gt;Node3 -->
<g id="edge62" class="edge"><title>Node22&#45;&gt;Node3</title>
<path fill="none" stroke="midnightblue" d="M310.514,-291.211C328.496,-294.126 347.944,-296.975 366,-299 500.972,-314.14 535.182,-318 671,-318 671,-318 671,-318 1258,-318 1371.95,-318 1506.46,-328.165 1570.48,-333.625"/>
<polygon fill="midnightblue" stroke="midnightblue" points="310.843,-287.718 300.407,-289.542 309.703,-294.625 310.843,-287.718"/>
</g>
<!-- Node23 -->
<g id="node53" class="node"><title>Node23</title>
<a xlink:href="classtetgenmesh.xhtml#ab859365ca3dd3eafb77fac56d0ae3a03" target="_top" xlink:title="tetgenmesh::insertconstrainedpoints">
<polygon fill="none" stroke="black" points="376,-268.5 376,-289.5 550,-289.5 550,-268.5 376,-268.5"/>
<text text-anchor="middle" x="463" y="-276.5" font-family="Helvetica,sans-Serif" font-size="10.00">tetgenmesh::insertconstrainedpoints</text>
</a>
</g>
<!-- Node22&#45;&gt;Node23 -->
<g id="edge60" class="edge"><title>Node22&#45;&gt;Node23</title>
<path fill="none" stroke="midnightblue" d="M340.535,-279C352.293,-279 364.244,-279 375.84,-279"/>
<polygon fill="midnightblue" stroke="midnightblue" points="340.266,-275.5 330.266,-279 340.266,-282.5 340.266,-275.5"/>
</g>
<!-- Node25 -->
<g id="node58" class="node"><title>Node25</title>
<a xlink:href="classtetgenmesh.xhtml#a7af360f1ae413f9e0d7803ccae55b6d6" target="_top" xlink:title="tetgenmesh::repairencsegs">
<polygon fill="none" stroke="black" points="396,-76.5 396,-97.5 530,-97.5 530,-76.5 396,-76.5"/>
<text text-anchor="middle" x="463" y="-84.5" font-family="Helvetica,sans-Serif" font-size="10.00">tetgenmesh::repairencsegs</text>
</a>
</g>
<!-- Node24&#45;&gt;Node25 -->
<g id="edge66" class="edge"><title>Node24&#45;&gt;Node25</title>
<path fill="none" stroke="midnightblue" d="M293.342,-130.875C315.606,-125.078 342.105,-118.188 366,-112 384.351,-107.248 404.66,-102.011 421.932,-97.5624"/>
<polygon fill="midnightblue" stroke="midnightblue" points="292.23,-127.548 283.435,-133.456 293.994,-134.322 292.23,-127.548"/>
</g>
<!-- Node24&#45;&gt;Node26 -->
<g id="edge88" class="edge"><title>Node24&#45;&gt;Node26</title>
<path fill="none" stroke="midnightblue" d="M317.555,-147.658C399.682,-151.688 530.338,-158.098 607.683,-161.893"/>
<polygon fill="midnightblue" stroke="midnightblue" points="317.699,-144.161 307.539,-147.167 317.356,-151.153 317.699,-144.161"/>
</g>
<!-- Node24&#45;&gt;Node28 -->
<g id="edge90" class="edge"><title>Node24&#45;&gt;Node28</title>
<path fill="none" stroke="midnightblue" d="M317.865,-142.775C416.151,-141.483 594.049,-140.226 746,-145 829.123,-147.611 924.535,-153.905 987.734,-158.537"/>
<polygon fill="midnightblue" stroke="midnightblue" points="317.685,-139.277 307.734,-142.913 317.78,-146.277 317.685,-139.277"/>
</g>
<!-- Node25&#45;&gt;Node26 -->
<g id="edge68" class="edge"><title>Node25&#45;&gt;Node26</title>
<path fill="none" stroke="midnightblue" d="M500.66,-101.122C541.556,-116.458 605.944,-140.604 642.728,-154.398"/>
<polygon fill="midnightblue" stroke="midnightblue" points="501.644,-97.7536 491.052,-97.5194 499.186,-104.308 501.644,-97.7536"/>
</g>
<!-- Node25&#45;&gt;Node28 -->
<g id="edge84" class="edge"><title>Node25&#45;&gt;Node28</title>
<path fill="none" stroke="midnightblue" d="M540.184,-82.5775C635.529,-79.0367 802.037,-79.1551 940,-112 977.023,-120.814 1016.91,-140.853 1039.53,-153.322"/>
<polygon fill="midnightblue" stroke="midnightblue" points="539.904,-79.0858 530.05,-82.9777 540.18,-86.0803 539.904,-79.0858"/>
</g>
<!-- Node30 -->
<g id="node68" class="node"><title>Node30</title>
<a xlink:href="classtetgenmesh.xhtml#a477bbfde72103de66546d4ea3343b4a1" target="_top" xlink:title="tetgenmesh::delaunayrefinement">
<polygon fill="none" stroke="black" points="1376,-173.5 1376,-194.5 1534,-194.5 1534,-173.5 1376,-173.5"/>
<text text-anchor="middle" x="1455" y="-181.5" font-family="Helvetica,sans-Serif" font-size="10.00">tetgenmesh::delaunayrefinement</text>
</a>
</g>
<!-- Node25&#45;&gt;Node30 -->
<g id="edge86" class="edge"><title>Node25&#45;&gt;Node30</title>
<path fill="none" stroke="midnightblue" d="M540.07,-75.5664C620.102,-64.6979 749.032,-50 861,-50 861,-50 861,-50 1058,-50 1212.22,-50 1383.27,-141.896 1437.52,-173.485"/>
<polygon fill="midnightblue" stroke="midnightblue" points="539.506,-72.1109 530.075,-76.9385 540.458,-79.0459 539.506,-72.1109"/>
</g>
<!-- Node27 -->
<g id="node62" class="node"><title>Node27</title>
<a xlink:href="classtetgenmesh.xhtml#a701d4f317ed66df6a2e2b7b237e2386a" target="_top" xlink:title="tetgenmesh::repairencfacs">
<polygon fill="none" stroke="black" points="795,-192.5 795,-213.5 927,-213.5 927,-192.5 795,-192.5"/>
<text text-anchor="middle" x="861" y="-200.5" font-family="Helvetica,sans-Serif" font-size="10.00">tetgenmesh::repairencfacs</text>
</a>
</g>
<!-- Node26&#45;&gt;Node27 -->
<g id="edge70" class="edge"><title>Node26&#45;&gt;Node27</title>
<path fill="none" stroke="midnightblue" d="M733.792,-177.558C757.901,-182.38 785.149,-187.83 808.224,-192.445"/>
<polygon fill="midnightblue" stroke="midnightblue" points="734.166,-174.064 723.673,-175.535 732.793,-180.928 734.166,-174.064"/>
</g>
<!-- Node26&#45;&gt;Node28 -->
<g id="edge82" class="edge"><title>Node26&#45;&gt;Node28</title>
<path fill="none" stroke="midnightblue" d="M744.098,-164.811C814.041,-164.63 918.811,-164.36 987.779,-164.181"/>
<polygon fill="midnightblue" stroke="midnightblue" points="744.03,-161.311 734.04,-164.837 744.049,-168.311 744.03,-161.311"/>
</g>
<!-- Node27&#45;&gt;Node28 -->
<g id="edge72" class="edge"><title>Node27&#45;&gt;Node28</title>
<path fill="none" stroke="midnightblue" d="M924.188,-190.491C950.197,-185.342 979.991,-179.443 1004.85,-174.521"/>
<polygon fill="midnightblue" stroke="midnightblue" points="923.181,-187.122 914.052,-192.497 924.541,-193.989 923.181,-187.122"/>
</g>
<!-- Node27&#45;&gt;Node30 -->
<g id="edge80" class="edge"><title>Node27&#45;&gt;Node30</title>
<path fill="none" stroke="midnightblue" d="M937.418,-200.556C1050.45,-196.94 1261.14,-190.201 1375.77,-186.534"/>
<polygon fill="midnightblue" stroke="midnightblue" points="937.007,-197.067 927.124,-200.885 937.231,-204.063 937.007,-197.067"/>
</g>
<!-- Node29 -->
<g id="node66" class="node"><title>Node29</title>
<a xlink:href="classtetgenmesh.xhtml#a7c46c82d83099214115fa9719aefbd78" target="_top" xlink:title="tetgenmesh::repairbadtets">
<polygon fill="none" stroke="black" points="1193,-153.5 1193,-174.5 1323,-174.5 1323,-153.5 1193,-153.5"/>
<text text-anchor="middle" x="1258" y="-161.5" font-family="Helvetica,sans-Serif" font-size="10.00">tetgenmesh::repairbadtets</text>
</a>
</g>
<!-- Node28&#45;&gt;Node29 -->
<g id="edge74" class="edge"><title>Node28&#45;&gt;Node29</title>
<path fill="none" stroke="midnightblue" d="M1138.48,-164C1156.58,-164 1175.58,-164 1192.96,-164"/>
<polygon fill="midnightblue" stroke="midnightblue" points="1138.23,-160.5 1128.23,-164 1138.23,-167.5 1138.23,-160.5"/>
</g>
<!-- Node29&#45;&gt;Node30 -->
<g id="edge76" class="edge"><title>Node29&#45;&gt;Node30</title>
<path fill="none" stroke="midnightblue" d="M1333.12,-171.626C1347.14,-173.049 1361.82,-174.54 1375.95,-175.975"/>
<polygon fill="midnightblue" stroke="midnightblue" points="1333.35,-168.132 1323.05,-170.604 1332.65,-175.096 1333.35,-168.132"/>
</g>
<!-- Node30&#45;&gt;Node3 -->
<g id="edge78" class="edge"><title>Node30&#45;&gt;Node3</title>
<path fill="none" stroke="midnightblue" d="M1472.9,-201.9C1505.04,-234.036 1571.57,-300.566 1597.41,-326.41"/>
<polygon fill="midnightblue" stroke="midnightblue" points="1475.06,-199.113 1465.52,-194.516 1470.11,-204.062 1475.06,-199.113"/>
</g>
<!-- Node32 -->
<g id="node81" class="node"><title>Node32</title>
<a xlink:href="classtetgenmesh.xhtml#ad5c46c2f6c9adeed23fc8c64b682778d" target="_top" xlink:title="tetgenmesh::removeslivers">
<polygon fill="none" stroke="black" points="991,-0.5 991,-21.5 1125,-21.5 1125,-0.5 991,-0.5"/>
<text text-anchor="middle" x="1058" y="-8.5" font-family="Helvetica,sans-Serif" font-size="10.00">tetgenmesh::removeslivers</text>
</a>
</g>
<!-- Node31&#45;&gt;Node32 -->
<g id="edge98" class="edge"><title>Node31&#45;&gt;Node32</title>
<path fill="none" stroke="midnightblue" d="M530.651,-26.9534C645.336,-23.484 876.576,-16.4885 990.892,-13.0302"/>
<polygon fill="midnightblue" stroke="midnightblue" points="530.481,-23.4569 520.592,-27.2577 530.693,-30.4536 530.481,-23.4569"/>
</g>
<!-- Node33 -->
<g id="node83" class="node"><title>Node33</title>
<a xlink:href="classtetgenmesh.xhtml#a8bb5c6ad8ccfa57f2a84e5a78295b263" target="_top" xlink:title="tetgenmesh::optimizemesh">
<polygon fill="none" stroke="black" points="1388,-67.5 1388,-88.5 1522,-88.5 1522,-67.5 1388,-67.5"/>
<text text-anchor="middle" x="1455" y="-75.5" font-family="Helvetica,sans-Serif" font-size="10.00">tetgenmesh::optimizemesh</text>
</a>
</g>
<!-- Node32&#45;&gt;Node33 -->
<g id="edge100" class="edge"><title>Node32&#45;&gt;Node33</title>
<path fill="none" stroke="midnightblue" d="M1135.18,-12.4144C1192.33,-14.7678 1271.78,-20.7945 1340,-36 1372.78,-43.3057 1408.9,-57.5921 1431.76,-67.4595"/>
<polygon fill="midnightblue" stroke="midnightblue" points="1135.26,-8.91505 1125.13,-12.029 1134.99,-15.9099 1135.26,-8.91505"/>
</g>
<!-- Node33&#45;&gt;Node3 -->
<g id="edge102" class="edge"><title>Node33&#45;&gt;Node3</title>
<path fill="none" stroke="midnightblue" d="M1474.44,-95.4742C1491.79,-111.86 1517.02,-137.714 1534,-164 1570.52,-220.524 1596.18,-298.101 1604.81,-326.248"/>
<polygon fill="midnightblue" stroke="midnightblue" points="1476.79,-92.8801 1467.08,-88.6442 1472.03,-98.0116 1476.79,-92.8801"/>
</g>
</g>
</svg>
