<?xml version="1.0" encoding="UTF-8" standalone="no"?>
<!DOCTYPE svg PUBLIC "-//W3C//DTD SVG 1.1//EN"
 "http://www.w3.org/Graphics/SVG/1.1/DTD/svg11.dtd">
<!-- Generated by graphviz version 2.26.3 (20100126.1600)
 -->
<!-- Title: PropertiesBox Pages: 1 -->
<svg width="295pt" height="174pt"
 viewBox="0.00 0.00 295.00 174.00" xmlns="http://www.w3.org/2000/svg" xmlns:xlink="http://www.w3.org/1999/xlink">
<g id="graph1" class="graph" transform="scale(1 1) rotate(0) translate(4 170)">
<title>PropertiesBox</title>
<!-- Node1 -->
<g id="node1" class="node"><title>Node1</title>
<polygon fill="#bfbfbf" stroke="black" points="27,-0.5 27,-21.5 105,-21.5 105,-0.5 27,-0.5"/>
<text text-anchor="middle" x="66" y="-8.5" font-family="Helvetica,sans-Serif" font-size="10.00">PropertiesBox</text>
</g>
<!-- Node2 -->
<g id="node2" class="node"><title>Node2</title>
<polygon fill="none" stroke="#bfbfbf" points="0,-72.5 0,-93.5 72,-93.5 72,-72.5 0,-72.5"/>
<text text-anchor="middle" x="36" y="-80.5" font-family="Helvetica,sans-Serif" font-size="10.00">wxStaticBox</text>
</g>
<!-- Node2&#45;&gt;Node1 -->
<g id="edge2" class="edge"><title>Node2&#45;&gt;Node1</title>
<path fill="none" stroke="midnightblue" d="M44.3222,-63.0266C49.9011,-49.6374 57.0284,-32.5318 61.5552,-21.6674"/>
<polygon fill="midnightblue" stroke="midnightblue" points="41.042,-61.7992 40.4266,-72.3762 47.5036,-64.4916 41.042,-61.7992"/>
</g>
<!-- Node3 -->
<g id="node4" class="node"><title>Node3</title>
<a xlink:href="classGUITimeline.xhtml" target="_top" xlink:title="Eine Zeitleistenkomponente. ">
<polygon fill="none" stroke="black" points="89.5,-72.5 89.5,-93.5 160.5,-93.5 160.5,-72.5 89.5,-72.5"/>
<text text-anchor="middle" x="125" y="-80.5" font-family="Helvetica,sans-Serif" font-size="10.00">GUITimeline</text>
</a>
</g>
<!-- Node3&#45;&gt;Node1 -->
<g id="edge4" class="edge"><title>Node3&#45;&gt;Node1</title>
<path fill="none" stroke="#9a32cd" stroke-dasharray="5,2" d="M109.909,-64.5841C98.7684,-50.9886 83.9933,-32.9579 74.7414,-21.6674"/>
<polygon fill="#9a32cd" stroke="#9a32cd" points="107.249,-66.8597 116.294,-72.3762 112.663,-62.423 107.249,-66.8597"/>
<text text-anchor="middle" x="126.5" y="-44.5" font-family="Helvetica,sans-Serif" font-size="10.00"> sdTimeline</text>
</g>
<!-- Node4 -->
<g id="node6" class="node"><title>Node4</title>
<polygon fill="none" stroke="#bfbfbf" points="1,-144.5 1,-165.5 55,-165.5 55,-144.5 1,-144.5"/>
<text text-anchor="middle" x="28" y="-152.5" font-family="Helvetica,sans-Serif" font-size="10.00">wxPanel</text>
</g>
<!-- Node4&#45;&gt;Node3 -->
<g id="edge6" class="edge"><title>Node4&#45;&gt;Node3</title>
<path fill="none" stroke="midnightblue" d="M50.5111,-138.291C69.0476,-124.532 94.7721,-105.437 110.629,-93.6674"/>
<polygon fill="midnightblue" stroke="midnightblue" points="48.2563,-135.606 42.3127,-144.376 52.4285,-141.226 48.2563,-135.606"/>
</g>
<!-- Node5 -->
<g id="node8" class="node"><title>Node5</title>
<a xlink:href="classstd_1_1vector.xhtml" target="_top" xlink:title="std::vector\&lt; string \&gt;">
<polygon fill="none" stroke="black" points="72.5,-144.5 72.5,-165.5 177.5,-165.5 177.5,-144.5 72.5,-144.5"/>
<text text-anchor="middle" x="125" y="-152.5" font-family="Helvetica,sans-Serif" font-size="10.00">std::vector&lt; string &gt;</text>
</a>
</g>
<!-- Node5&#45;&gt;Node3 -->
<g id="edge8" class="edge"><title>Node5&#45;&gt;Node3</title>
<path fill="none" stroke="#9a32cd" stroke-dasharray="5,2" d="M125,-134.235C125,-120.969 125,-104.319 125,-93.6674"/>
<polygon fill="#9a32cd" stroke="#9a32cd" points="121.5,-134.376 125,-144.376 128.5,-134.376 121.5,-134.376"/>
<text text-anchor="middle" x="141.5" y="-116.5" font-family="Helvetica,sans-Serif" font-size="10.00"> names</text>
</g>
<!-- Node6 -->
<g id="node10" class="node"><title>Node6</title>
<a xlink:href="classstd_1_1vector.xhtml" target="_top" xlink:title="std::vector\&lt; int \&gt;">
<polygon fill="none" stroke="black" points="195,-144.5 195,-165.5 287,-165.5 287,-144.5 195,-144.5"/>
<text text-anchor="middle" x="241" y="-152.5" font-family="Helvetica,sans-Serif" font-size="10.00">std::vector&lt; int &gt;</text>
</a>
</g>
<!-- Node6&#45;&gt;Node3 -->
<g id="edge10" class="edge"><title>Node6&#45;&gt;Node3</title>
<path fill="none" stroke="#9a32cd" stroke-dasharray="5,2" d="M215.275,-139.033C193.03,-125.225 161.492,-105.65 142.186,-93.6674"/>
<polygon fill="#9a32cd" stroke="#9a32cd" points="213.542,-142.076 223.884,-144.376 217.233,-136.129 213.542,-142.076"/>
<text text-anchor="middle" x="212.5" y="-116.5" font-family="Helvetica,sans-Serif" font-size="10.00"> markers</text>
</g>
</g>
</svg>
