<?xml version="1.0" encoding="UTF-8" standalone="no"?>
<!DOCTYPE svg PUBLIC "-//W3C//DTD SVG 1.1//EN"
 "http://www.w3.org/Graphics/SVG/1.1/DTD/svg11.dtd">
<!-- Generated by graphviz version 2.26.3 (20100126.1600)
 -->
<!-- Title: Vector3D::sub Pages: 1 -->
<svg width="208pt" height="110pt"
 viewBox="0.00 0.00 208.00 110.00" xmlns="http://www.w3.org/2000/svg" xmlns:xlink="http://www.w3.org/1999/xlink">
<g id="graph1" class="graph" transform="scale(1 1) rotate(0) translate(4 106)">
<title>Vector3D::sub</title>
<!-- Node1 -->
<g id="node1" class="node"><title>Node1</title>
<polygon fill="#bfbfbf" stroke="black" points="0,-40.5 0,-61.5 80,-61.5 80,-40.5 0,-40.5"/>
<text text-anchor="middle" x="40" y="-48.5" font-family="Helvetica,sans-Serif" font-size="10.00">Vector3D::sub</text>
</g>
<!-- Node2 -->
<g id="node3" class="node"><title>Node2</title>
<a xlink:href="classVector3D.xhtml#aa9eaf29045bf32b95c5c7bcb2b8b68d7" target="_top" xlink:title="Vector3D::getX">
<polygon fill="none" stroke="black" points="116,-80.5 116,-101.5 200,-101.5 200,-80.5 116,-80.5"/>
<text text-anchor="middle" x="158" y="-88.5" font-family="Helvetica,sans-Serif" font-size="10.00">Vector3D::getX</text>
</a>
</g>
<!-- Node1&#45;&gt;Node2 -->
<g id="edge2" class="edge"><title>Node1&#45;&gt;Node2</title>
<path fill="none" stroke="midnightblue" d="M71.0031,-61.5095C85.1187,-66.2945 102.018,-72.0229 117.151,-77.1529"/>
<polygon fill="midnightblue" stroke="midnightblue" points="116.2,-80.5261 126.794,-80.4218 118.447,-73.8966 116.2,-80.5261"/>
</g>
<!-- Node3 -->
<g id="node5" class="node"><title>Node3</title>
<a xlink:href="classVector3D.xhtml#aa3ffff17b886274a58417dfe4bb4c4a2" target="_top" xlink:title="Vector3D::getY">
<polygon fill="none" stroke="black" points="116,-40.5 116,-61.5 200,-61.5 200,-40.5 116,-40.5"/>
<text text-anchor="middle" x="158" y="-48.5" font-family="Helvetica,sans-Serif" font-size="10.00">Vector3D::getY</text>
</a>
</g>
<!-- Node1&#45;&gt;Node3 -->
<g id="edge4" class="edge"><title>Node1&#45;&gt;Node3</title>
<path fill="none" stroke="midnightblue" d="M80.2789,-51C88.443,-51 97.1406,-51 105.651,-51"/>
<polygon fill="midnightblue" stroke="midnightblue" points="105.891,-54.5001 115.891,-51 105.891,-47.5001 105.891,-54.5001"/>
</g>
<!-- Node4 -->
<g id="node7" class="node"><title>Node4</title>
<a xlink:href="classVector3D.xhtml#ab0dcbf253ff78856eccb5ea74d080fc7" target="_top" xlink:title="Vector3D::getZ">
<polygon fill="none" stroke="black" points="116.5,-0.5 116.5,-21.5 199.5,-21.5 199.5,-0.5 116.5,-0.5"/>
<text text-anchor="middle" x="158" y="-8.5" font-family="Helvetica,sans-Serif" font-size="10.00">Vector3D::getZ</text>
</a>
</g>
<!-- Node1&#45;&gt;Node4 -->
<g id="edge6" class="edge"><title>Node1&#45;&gt;Node4</title>
<path fill="none" stroke="midnightblue" d="M71.0031,-40.4905C85.1187,-35.7055 102.018,-29.9771 117.151,-24.8471"/>
<polygon fill="midnightblue" stroke="midnightblue" points="118.447,-28.1034 126.794,-21.5782 116.2,-21.4739 118.447,-28.1034"/>
</g>
</g>
</svg>
