<?xml version="1.0" encoding="UTF-8" standalone="no"?>
<!DOCTYPE svg PUBLIC "-//W3C//DTD SVG 1.1//EN"
 "http://www.w3.org/Graphics/SVG/1.1/DTD/svg11.dtd">
<!-- Generated by graphviz version 2.26.3 (20100126.1600)
 -->
<!-- Title: GUIAnalyzeOutputWindow::GUIAnalyzeOutputWindow Pages: 1 -->
<svg width="854pt" height="327pt"
 viewBox="0.00 0.00 854.00 327.00" xmlns="http://www.w3.org/2000/svg" xmlns:xlink="http://www.w3.org/1999/xlink">
<g id="graph1" class="graph" transform="scale(1 1) rotate(0) translate(4 323)">
<title>GUIAnalyzeOutputWindow::GUIAnalyzeOutputWindow</title>
<!-- Node1 -->
<g id="node1" class="node"><title>Node1</title>
<polygon fill="#bfbfbf" stroke="black" points="0,-137 0,-171 140,-171 140,-137 0,-137"/>
<text text-anchor="start" x="8" y="-158" font-family="Helvetica,sans-Serif" font-size="10.00">GUIAnalyzeOutputWindow</text>
<text text-anchor="middle" x="70" y="-145" font-family="Helvetica,sans-Serif" font-size="10.00">::GUIAnalyzeOutputWindow</text>
</g>
<!-- Node2 -->
<g id="node3" class="node"><title>Node2</title>
<a xlink:href="classGUIAnalyzeOutputWindow.xhtml#a9ea5a7cf46d6189f368315903508cecc" target="_top" xlink:title="GUIAnalyzeOutputWindow\l::Update">
<polygon fill="none" stroke="black" points="176,-137 176,-171 310,-171 310,-137 176,-137"/>
<text text-anchor="start" x="184" y="-158" font-family="Helvetica,sans-Serif" font-size="10.00">GUIAnalyzeOutputWindow</text>
<text text-anchor="middle" x="243" y="-145" font-family="Helvetica,sans-Serif" font-size="10.00">::Update</text>
</a>
</g>
<!-- Node1&#45;&gt;Node2 -->
<g id="edge2" class="edge"><title>Node1&#45;&gt;Node2</title>
<path fill="none" stroke="midnightblue" d="M140.366,-154C148.679,-154 157.198,-154 165.602,-154"/>
<polygon fill="midnightblue" stroke="midnightblue" points="165.773,-157.5 175.773,-154 165.773,-150.5 165.773,-157.5"/>
</g>
<!-- Node3 -->
<g id="node5" class="node"><title>Node3</title>
<a xlink:href="classAnalyzer.xhtml#a2a7b5f169f664ccd9f206e508cba78ef" target="_top" xlink:title="Analyzer::analyzeObject">
<polygon fill="none" stroke="black" points="346.5,-143.5 346.5,-164.5 469.5,-164.5 469.5,-143.5 346.5,-143.5"/>
<text text-anchor="middle" x="408" y="-151.5" font-family="Helvetica,sans-Serif" font-size="10.00">Analyzer::analyzeObject</text>
</a>
</g>
<!-- Node2&#45;&gt;Node3 -->
<g id="edge4" class="edge"><title>Node2&#45;&gt;Node3</title>
<path fill="none" stroke="midnightblue" d="M310.112,-154C318.705,-154 327.529,-154 336.193,-154"/>
<polygon fill="midnightblue" stroke="midnightblue" points="336.267,-157.5 346.267,-154 336.267,-150.5 336.267,-157.5"/>
</g>
<!-- Node4 -->
<g id="node7" class="node"><title>Node4</title>
<a xlink:href="classObjectData.xhtml#a503d63160a3afe2ea517449f78f8ac42" target="_top" xlink:title="ObjectData::getCurrentSensor\lIndex">
<polygon fill="none" stroke="black" points="696.5,-285 696.5,-319 845.5,-319 845.5,-285 696.5,-285"/>
<text text-anchor="start" x="704.5" y="-306" font-family="Helvetica,sans-Serif" font-size="10.00">ObjectData::getCurrentSensor</text>
<text text-anchor="middle" x="771" y="-293" font-family="Helvetica,sans-Serif" font-size="10.00">Index</text>
</a>
</g>
<!-- Node3&#45;&gt;Node4 -->
<g id="edge6" class="edge"><title>Node3&#45;&gt;Node4</title>
<path fill="none" stroke="midnightblue" d="M412.406,-164.802C423.59,-190.627 455.795,-255.81 506,-283 560.887,-312.725 631.797,-316.333 686.452,-313.13"/>
<polygon fill="midnightblue" stroke="midnightblue" points="686.718,-316.62 696.461,-312.457 686.249,-309.635 686.718,-316.62"/>
</g>
<!-- Node5 -->
<g id="node9" class="node"><title>Node5</title>
<a xlink:href="classObjectData.xhtml#a72ac93213382f67b4d5b40c011eb1656" target="_top" xlink:title="ObjectData::getSensorDataList">
<polygon fill="none" stroke="black" points="506.5,-212.5 506.5,-233.5 659.5,-233.5 659.5,-212.5 506.5,-212.5"/>
<text text-anchor="middle" x="583" y="-220.5" font-family="Helvetica,sans-Serif" font-size="10.00">ObjectData::getSensorDataList</text>
</a>
</g>
<!-- Node3&#45;&gt;Node5 -->
<g id="edge8" class="edge"><title>Node3&#45;&gt;Node5</title>
<path fill="none" stroke="midnightblue" d="M426.265,-164.59C445.567,-175.429 477.148,-192.177 506,-203 512.429,-205.412 519.266,-207.641 526.109,-209.668"/>
<polygon fill="midnightblue" stroke="midnightblue" points="525.517,-213.138 536.092,-212.491 527.421,-206.402 525.517,-213.138"/>
</g>
<!-- Node6 -->
<g id="node11" class="node"><title>Node6</title>
<a xlink:href="classObjectData.xhtml#a65bc706c460a62f98e6c24959df04c76" target="_top" xlink:title="ObjectData::setCurrentSensor\lIndex">
<polygon fill="none" stroke="black" points="508.5,-160 508.5,-194 657.5,-194 657.5,-160 508.5,-160"/>
<text text-anchor="start" x="516.5" y="-181" font-family="Helvetica,sans-Serif" font-size="10.00">ObjectData::setCurrentSensor</text>
<text text-anchor="middle" x="583" y="-168" font-family="Helvetica,sans-Serif" font-size="10.00">Index</text>
</a>
</g>
<!-- Node3&#45;&gt;Node6 -->
<g id="edge10" class="edge"><title>Node3&#45;&gt;Node6</title>
<path fill="none" stroke="midnightblue" d="M469.698,-162.109C478.974,-163.328 488.674,-164.603 498.329,-165.872"/>
<polygon fill="midnightblue" stroke="midnightblue" points="497.982,-169.356 508.353,-167.189 498.894,-162.416 497.982,-169.356"/>
</g>
<!-- Node7 -->
<g id="node13" class="node"><title>Node7</title>
<a xlink:href="classMeshProcessor.xhtml#a060c3815db33f8e52ac620ed2239ccc9" target="_top" xlink:title="MeshProcessor::process">
<polygon fill="none" stroke="black" points="520.5,-252.5 520.5,-273.5 645.5,-273.5 645.5,-252.5 520.5,-252.5"/>
<text text-anchor="middle" x="583" y="-260.5" font-family="Helvetica,sans-Serif" font-size="10.00">MeshProcessor::process</text>
</a>
</g>
<!-- Node3&#45;&gt;Node7 -->
<g id="edge12" class="edge"><title>Node3&#45;&gt;Node7</title>
<path fill="none" stroke="midnightblue" d="M416.523,-164.555C432.212,-183.265 467.589,-222.229 506,-243 510.184,-245.262 514.635,-247.278 519.207,-249.072"/>
<polygon fill="midnightblue" stroke="midnightblue" points="518.117,-252.4 528.712,-252.453 520.463,-245.804 518.117,-252.4"/>
</g>
<!-- Node9 -->
<g id="node18" class="node"><title>Node9</title>
<a xlink:href="classObjectData.xhtml#afda67d7524b83780e431dd3a9c5ac23a" target="_top" xlink:title="ObjectData::getMaterials">
<polygon fill="none" stroke="black" points="520.5,-120.5 520.5,-141.5 645.5,-141.5 645.5,-120.5 520.5,-120.5"/>
<text text-anchor="middle" x="583" y="-128.5" font-family="Helvetica,sans-Serif" font-size="10.00">ObjectData::getMaterials</text>
</a>
</g>
<!-- Node3&#45;&gt;Node9 -->
<g id="edge18" class="edge"><title>Node3&#45;&gt;Node9</title>
<path fill="none" stroke="midnightblue" d="M469.698,-145.891C482.794,-144.17 496.736,-142.337 510.201,-140.568"/>
<polygon fill="midnightblue" stroke="midnightblue" points="510.923,-144.003 520.382,-139.23 510.011,-137.063 510.923,-144.003"/>
</g>
<!-- Node10 -->
<g id="node20" class="node"><title>Node10</title>
<a xlink:href="classVector3D.xhtml#a02364a41693ac080f5adadd776df74b4" target="_top" xlink:title="Vector3D::sub">
<polygon fill="none" stroke="black" points="543,-80.5 543,-101.5 623,-101.5 623,-80.5 543,-80.5"/>
<text text-anchor="middle" x="583" y="-88.5" font-family="Helvetica,sans-Serif" font-size="10.00">Vector3D::sub</text>
</a>
</g>
<!-- Node3&#45;&gt;Node10 -->
<g id="edge20" class="edge"><title>Node3&#45;&gt;Node10</title>
<path fill="none" stroke="midnightblue" d="M429.401,-143.425C448.994,-134.031 478.967,-120.375 506,-111 514.625,-108.009 523.929,-105.229 532.986,-102.751"/>
<polygon fill="midnightblue" stroke="midnightblue" points="533.903,-106.129 542.674,-100.185 532.111,-99.3625 533.903,-106.129"/>
</g>
<!-- Node14 -->
<g id="node28" class="node"><title>Node14</title>
<a xlink:href="classVector3D.xhtml#a482cd77ce44ea7dd71fd7a43cb7b1cf5" target="_top" xlink:title="Vector3D::crossProduct">
<polygon fill="none" stroke="black" points="522,-40.5 522,-61.5 644,-61.5 644,-40.5 522,-40.5"/>
<text text-anchor="middle" x="583" y="-48.5" font-family="Helvetica,sans-Serif" font-size="10.00">Vector3D::crossProduct</text>
</a>
</g>
<!-- Node3&#45;&gt;Node14 -->
<g id="edge28" class="edge"><title>Node3&#45;&gt;Node14</title>
<path fill="none" stroke="midnightblue" d="M417.454,-143.345C433.757,-125.635 468.988,-90.1947 506,-71 510.483,-68.6752 515.256,-66.6064 520.145,-64.7681"/>
<polygon fill="midnightblue" stroke="midnightblue" points="521.32,-68.0652 529.643,-61.51 519.049,-61.4439 521.32,-68.0652"/>
</g>
<!-- Node15 -->
<g id="node33" class="node"><title>Node15</title>
<a xlink:href="classVector3D.xhtml#a0808a8e6004a347d82f9214778b5968f" target="_top" xlink:title="Vector3D::dotProduct">
<polygon fill="none" stroke="black" points="527.5,-0.5 527.5,-21.5 638.5,-21.5 638.5,-0.5 527.5,-0.5"/>
<text text-anchor="middle" x="583" y="-8.5" font-family="Helvetica,sans-Serif" font-size="10.00">Vector3D::dotProduct</text>
</a>
</g>
<!-- Node3&#45;&gt;Node15 -->
<g id="edge36" class="edge"><title>Node3&#45;&gt;Node15</title>
<path fill="none" stroke="midnightblue" d="M413.443,-143.188C426.151,-119.087 460.207,-60.7466 506,-31 509.75,-28.5642 513.783,-26.4246 517.967,-24.5452"/>
<polygon fill="midnightblue" stroke="midnightblue" points="519.315,-27.7757 527.318,-20.8328 516.732,-21.2697 519.315,-27.7757"/>
</g>
<!-- Node7&#45;&gt;Node4 -->
<g id="edge16" class="edge"><title>Node7&#45;&gt;Node4</title>
<path fill="none" stroke="midnightblue" d="M633.876,-273.554C650.116,-276.923 668.549,-280.747 686.513,-284.473"/>
<polygon fill="midnightblue" stroke="midnightblue" points="685.926,-287.926 696.428,-286.53 687.348,-281.072 685.926,-287.926"/>
</g>
<!-- Node8 -->
<g id="node15" class="node"><title>Node8</title>
<a xlink:href="classInterpolator.xhtml#a2f9927fc580de7d2f94d85e6ca3ee3e3" target="_top" xlink:title="Interpolator::setMode">
<polygon fill="none" stroke="black" points="716.5,-245.5 716.5,-266.5 825.5,-266.5 825.5,-245.5 716.5,-245.5"/>
<text text-anchor="middle" x="771" y="-253.5" font-family="Helvetica,sans-Serif" font-size="10.00">Interpolator::setMode</text>
</a>
</g>
<!-- Node7&#45;&gt;Node8 -->
<g id="edge14" class="edge"><title>Node7&#45;&gt;Node8</title>
<path fill="none" stroke="midnightblue" d="M645.601,-260.669C665.067,-259.944 686.562,-259.144 706.175,-258.414"/>
<polygon fill="midnightblue" stroke="midnightblue" points="706.377,-261.909 716.24,-258.039 706.116,-254.914 706.377,-261.909"/>
</g>
<!-- Node11 -->
<g id="node22" class="node"><title>Node11</title>
<a xlink:href="classVector3D.xhtml#aa9eaf29045bf32b95c5c7bcb2b8b68d7" target="_top" xlink:title="Vector3D::getX">
<polygon fill="none" stroke="black" points="729,-80.5 729,-101.5 813,-101.5 813,-80.5 729,-80.5"/>
<text text-anchor="middle" x="771" y="-88.5" font-family="Helvetica,sans-Serif" font-size="10.00">Vector3D::getX</text>
</a>
</g>
<!-- Node10&#45;&gt;Node11 -->
<g id="edge22" class="edge"><title>Node10&#45;&gt;Node11</title>
<path fill="none" stroke="midnightblue" d="M623.331,-91C651.126,-91 688.337,-91 718.451,-91"/>
<polygon fill="midnightblue" stroke="midnightblue" points="718.78,-94.5001 728.78,-91 718.78,-87.5001 718.78,-94.5001"/>
</g>
<!-- Node12 -->
<g id="node24" class="node"><title>Node12</title>
<a xlink:href="classVector3D.xhtml#aa3ffff17b886274a58417dfe4bb4c4a2" target="_top" xlink:title="Vector3D::getY">
<polygon fill="none" stroke="black" points="729,-40.5 729,-61.5 813,-61.5 813,-40.5 729,-40.5"/>
<text text-anchor="middle" x="771" y="-48.5" font-family="Helvetica,sans-Serif" font-size="10.00">Vector3D::getY</text>
</a>
</g>
<!-- Node10&#45;&gt;Node12 -->
<g id="edge24" class="edge"><title>Node10&#45;&gt;Node12</title>
<path fill="none" stroke="midnightblue" d="M623.331,-82.419C651.248,-76.4792 688.663,-68.5186 718.845,-62.0967"/>
<polygon fill="midnightblue" stroke="midnightblue" points="719.727,-65.4875 728.78,-59.983 718.27,-58.6408 719.727,-65.4875"/>
</g>
<!-- Node13 -->
<g id="node26" class="node"><title>Node13</title>
<a xlink:href="classVector3D.xhtml#ab0dcbf253ff78856eccb5ea74d080fc7" target="_top" xlink:title="Vector3D::getZ">
<polygon fill="none" stroke="black" points="729.5,-0.5 729.5,-21.5 812.5,-21.5 812.5,-0.5 729.5,-0.5"/>
<text text-anchor="middle" x="771" y="-8.5" font-family="Helvetica,sans-Serif" font-size="10.00">Vector3D::getZ</text>
</a>
</g>
<!-- Node10&#45;&gt;Node13 -->
<g id="edge26" class="edge"><title>Node10&#45;&gt;Node13</title>
<path fill="none" stroke="midnightblue" d="M623.15,-85.2092C635.576,-82.2297 648.905,-77.7423 660,-71 680.439,-58.5792 675.601,-43.487 696,-31 703.187,-26.6006 711.338,-23.1571 719.553,-20.4651"/>
<polygon fill="midnightblue" stroke="midnightblue" points="720.565,-23.8158 729.172,-17.6378 718.591,-17.0999 720.565,-23.8158"/>
</g>
<!-- Node14&#45;&gt;Node11 -->
<g id="edge34" class="edge"><title>Node14&#45;&gt;Node11</title>
<path fill="none" stroke="midnightblue" d="M632.395,-61.5095C659.02,-67.1744 691.86,-74.1617 718.891,-79.9129"/>
<polygon fill="midnightblue" stroke="midnightblue" points="718.431,-83.3935 728.941,-82.0512 719.888,-76.5467 718.431,-83.3935"/>
</g>
<!-- Node14&#45;&gt;Node12 -->
<g id="edge32" class="edge"><title>Node14&#45;&gt;Node12</title>
<path fill="none" stroke="midnightblue" d="M644.038,-51C668.228,-51 695.751,-51 718.974,-51"/>
<polygon fill="midnightblue" stroke="midnightblue" points="718.976,-54.5001 728.976,-51 718.976,-47.5001 718.976,-54.5001"/>
</g>
<!-- Node14&#45;&gt;Node13 -->
<g id="edge30" class="edge"><title>Node14&#45;&gt;Node13</title>
<path fill="none" stroke="midnightblue" d="M632.395,-40.4905C659.116,-34.8051 692.098,-27.7876 719.184,-22.0246"/>
<polygon fill="midnightblue" stroke="midnightblue" points="720.199,-25.3873 729.251,-19.8827 718.742,-18.5405 720.199,-25.3873"/>
</g>
<!-- Node15&#45;&gt;Node11 -->
<g id="edge38" class="edge"><title>Node15&#45;&gt;Node11</title>
<path fill="none" stroke="midnightblue" d="M638.859,-21.3314C646.252,-23.882 653.508,-27.0551 660,-31 680.439,-43.4208 675.601,-58.513 696,-71 703.027,-75.3016 710.976,-78.6892 719.005,-81.3542"/>
<polygon fill="midnightblue" stroke="midnightblue" points="718.199,-84.766 728.782,-84.2593 720.193,-78.0559 718.199,-84.766"/>
</g>
<!-- Node15&#45;&gt;Node12 -->
<g id="edge40" class="edge"><title>Node15&#45;&gt;Node12</title>
<path fill="none" stroke="midnightblue" d="M632.395,-21.5095C659.02,-27.1744 691.86,-34.1617 718.891,-39.9129"/>
<polygon fill="midnightblue" stroke="midnightblue" points="718.431,-43.3935 728.941,-42.0512 719.888,-36.5467 718.431,-43.3935"/>
</g>
<!-- Node15&#45;&gt;Node13 -->
<g id="edge42" class="edge"><title>Node15&#45;&gt;Node13</title>
<path fill="none" stroke="midnightblue" d="M638.643,-11C664.147,-11 694.198,-11 719.214,-11"/>
<polygon fill="midnightblue" stroke="midnightblue" points="719.242,-14.5001 729.242,-11 719.242,-7.5001 719.242,-14.5001"/>
</g>
</g>
</svg>
