<?xml version="1.0" encoding="UTF-8" standalone="no"?>
<!DOCTYPE svg PUBLIC "-//W3C//DTD SVG 1.1//EN"
 "http://www.w3.org/Graphics/SVG/1.1/DTD/svg11.dtd">
<!-- Generated by graphviz version 2.26.3 (20100126.1600)
 -->
<!-- Title: tetgenmesh::checkfac4encroach Pages: 1 -->
<svg width="626pt" height="283pt"
 viewBox="0.00 0.00 626.00 282.93" xmlns="http://www.w3.org/2000/svg" xmlns:xlink="http://www.w3.org/1999/xlink">
<g id="graph1" class="graph" transform="scale(1 1) rotate(0) translate(4 278.929)">
<title>tetgenmesh::checkfac4encroach</title>
<!-- Node1 -->
<g id="node1" class="node"><title>Node1</title>
<polygon fill="#bfbfbf" stroke="black" points="0,-78.5 0,-99.5 158,-99.5 158,-78.5 0,-78.5"/>
<text text-anchor="middle" x="79" y="-86.5" font-family="Helvetica,sans-Serif" font-size="10.00">tetgenmesh::checkfac4encroach</text>
</g>
<!-- Node2 -->
<g id="node3" class="node"><title>Node2</title>
<a xlink:href="classtetgenmesh.xhtml#aa7ba47e0a0433aa33adc5310c9cf1b84" target="_top" xlink:title="tetgenmesh::circumsphere">
<polygon fill="none" stroke="black" points="194,-194.5 194,-215.5 326,-215.5 326,-194.5 194,-194.5"/>
<text text-anchor="middle" x="260" y="-202.5" font-family="Helvetica,sans-Serif" font-size="10.00">tetgenmesh::circumsphere</text>
</a>
</g>
<!-- Node1&#45;&gt;Node2 -->
<g id="edge2" class="edge"><title>Node1&#45;&gt;Node2</title>
<path fill="none" stroke="midnightblue" d="M95.7036,-99.7051C127.572,-120.129 197.215,-164.762 234.781,-188.838"/>
<polygon fill="midnightblue" stroke="midnightblue" points="233.29,-192.039 243.598,-194.488 237.067,-186.146 233.29,-192.039"/>
</g>
<!-- Node4 -->
<g id="node7" class="node"><title>Node4</title>
<a xlink:href="classtetgenmesh.xhtml#afa0906703b590597155547336c360004" target="_top" xlink:title="tetgenmesh::dot">
<polygon fill="none" stroke="black" points="525.5,-116.5 525.5,-137.5 612.5,-137.5 612.5,-116.5 525.5,-116.5"/>
<text text-anchor="middle" x="569" y="-124.5" font-family="Helvetica,sans-Serif" font-size="10.00">tetgenmesh::dot</text>
</a>
</g>
<!-- Node1&#45;&gt;Node4 -->
<g id="edge28" class="edge"><title>Node1&#45;&gt;Node4</title>
<path fill="none" stroke="midnightblue" d="M128.569,-78.456C148.762,-74.6644 172.397,-70.8645 194,-69 322.717,-57.8906 359.595,-54.1465 484,-89 503.647,-94.5044 524.585,-103.819 540.763,-111.849"/>
<polygon fill="midnightblue" stroke="midnightblue" points="539.193,-114.977 549.694,-116.389 542.366,-108.737 539.193,-114.977"/>
</g>
<!-- Node7 -->
<g id="node14" class="node"><title>Node7</title>
<a xlink:href="classtetgenmesh.xhtml#a4f2849235299c81ad7d585dc0b657d80" target="_top" xlink:title="tetgenmesh::distance">
<polygon fill="none" stroke="black" points="205,-0.5 205,-21.5 315,-21.5 315,-0.5 205,-0.5"/>
<text text-anchor="middle" x="260" y="-8.5" font-family="Helvetica,sans-Serif" font-size="10.00">tetgenmesh::distance</text>
</a>
</g>
<!-- Node1&#45;&gt;Node7 -->
<g id="edge14" class="edge"><title>Node1&#45;&gt;Node7</title>
<path fill="none" stroke="midnightblue" d="M100.844,-78.3796C123.828,-67.3356 161.156,-49.7691 194,-36 202.796,-32.3123 212.346,-28.5558 221.377,-25.1132"/>
<polygon fill="midnightblue" stroke="midnightblue" points="222.79,-28.321 230.913,-21.5189 220.321,-21.7708 222.79,-28.321"/>
</g>
<!-- Node8 -->
<g id="node16" class="node"><title>Node8</title>
<a xlink:href="classtetgenmesh.xhtml#a298e94262eee21b087476e970d8324e9" target="_top" xlink:title="tetgenmesh::projpt2face">
<polygon fill="none" stroke="black" points="199,-78.5 199,-99.5 321,-99.5 321,-78.5 199,-78.5"/>
<text text-anchor="middle" x="260" y="-86.5" font-family="Helvetica,sans-Serif" font-size="10.00">tetgenmesh::projpt2face</text>
</a>
</g>
<!-- Node1&#45;&gt;Node8 -->
<g id="edge16" class="edge"><title>Node1&#45;&gt;Node8</title>
<path fill="none" stroke="midnightblue" d="M158.126,-89C168.292,-89 178.654,-89 188.685,-89"/>
<polygon fill="midnightblue" stroke="midnightblue" points="188.998,-92.5001 198.998,-89 188.998,-85.5001 188.998,-92.5001"/>
</g>
<!-- Node9 -->
<g id="node18" class="node"><title>Node9</title>
<a xlink:href="classtetgenmesh.xhtml#adef28f2839ea13688a3ac9a7184d1db8" target="_top" xlink:title="tetgenmesh::facenormal">
<polygon fill="none" stroke="black" points="362,-116.5 362,-137.5 484,-137.5 484,-116.5 362,-116.5"/>
<text text-anchor="middle" x="423" y="-124.5" font-family="Helvetica,sans-Serif" font-size="10.00">tetgenmesh::facenormal</text>
</a>
</g>
<!-- Node1&#45;&gt;Node9 -->
<g id="edge26" class="edge"><title>Node1&#45;&gt;Node9</title>
<path fill="none" stroke="midnightblue" d="M133.247,-99.5109C152.387,-102.933 174.095,-106.492 194,-109 246.602,-115.627 306.329,-120.225 351.594,-123.115"/>
<polygon fill="midnightblue" stroke="midnightblue" points="351.408,-126.61 361.607,-123.741 351.845,-119.623 351.408,-126.61"/>
</g>
<!-- Node3 -->
<g id="node5" class="node"><title>Node3</title>
<a xlink:href="classtetgenmesh.xhtml#a9b5ff4d3e2452044830fbd47d2f70cbd" target="_top" xlink:title="tetgenmesh::cross">
<polygon fill="none" stroke="black" points="520,-214.5 520,-235.5 618,-235.5 618,-214.5 520,-214.5"/>
<text text-anchor="middle" x="569" y="-222.5" font-family="Helvetica,sans-Serif" font-size="10.00">tetgenmesh::cross</text>
</a>
</g>
<!-- Node2&#45;&gt;Node3 -->
<g id="edge4" class="edge"><title>Node2&#45;&gt;Node3</title>
<path fill="none" stroke="midnightblue" d="M272.81,-215.64C291.185,-230.137 326.715,-255.392 362,-265 414.317,-279.246 431.084,-276.829 484,-265 505.022,-260.301 526.978,-249.803 543.308,-240.741"/>
<polygon fill="midnightblue" stroke="midnightblue" points="545.292,-243.638 552.224,-235.626 541.808,-237.567 545.292,-243.638"/>
</g>
<!-- Node2&#45;&gt;Node4 -->
<g id="edge6" class="edge"><title>Node2&#45;&gt;Node4</title>
<path fill="none" stroke="midnightblue" d="M301.673,-194.481C357.538,-180.379 456.676,-155.354 517.255,-140.062"/>
<polygon fill="midnightblue" stroke="midnightblue" points="518.161,-143.443 527,-137.602 516.448,-136.656 518.161,-143.443"/>
</g>
<!-- Node5 -->
<g id="node9" class="node"><title>Node5</title>
<a xlink:href="classtetgenmesh.xhtml#abc03dce4c75ad6ba7086269b1a71fd8b" target="_top" xlink:title="tetgenmesh::lu_decmp">
<polygon fill="none" stroke="black" points="365,-234.5 365,-255.5 481,-255.5 481,-234.5 365,-234.5"/>
<text text-anchor="middle" x="423" y="-242.5" font-family="Helvetica,sans-Serif" font-size="10.00">tetgenmesh::lu_decmp</text>
</a>
</g>
<!-- Node2&#45;&gt;Node5 -->
<g id="edge8" class="edge"><title>Node2&#45;&gt;Node5</title>
<path fill="none" stroke="midnightblue" d="M302.826,-215.51C323.521,-220.588 348.546,-226.729 370.391,-232.09"/>
<polygon fill="midnightblue" stroke="midnightblue" points="369.631,-235.507 380.177,-234.491 371.299,-228.709 369.631,-235.507"/>
</g>
<!-- Node6 -->
<g id="node11" class="node"><title>Node6</title>
<a xlink:href="classtetgenmesh.xhtml#a6a19601c86a49eed0d2273f1d3b69826" target="_top" xlink:title="tetgenmesh::lu_solve">
<polygon fill="none" stroke="black" points="368,-194.5 368,-215.5 478,-215.5 478,-194.5 368,-194.5"/>
<text text-anchor="middle" x="423" y="-202.5" font-family="Helvetica,sans-Serif" font-size="10.00">tetgenmesh::lu_solve</text>
</a>
</g>
<!-- Node2&#45;&gt;Node6 -->
<g id="edge10" class="edge"><title>Node2&#45;&gt;Node6</title>
<path fill="none" stroke="midnightblue" d="M326.298,-205C336.677,-205 347.396,-205 357.751,-205"/>
<polygon fill="midnightblue" stroke="midnightblue" points="357.958,-208.5 367.958,-205 357.958,-201.5 357.958,-208.5"/>
</g>
<!-- Node6&#45;&gt;Node4 -->
<g id="edge12" class="edge"><title>Node6&#45;&gt;Node4</title>
<path fill="none" stroke="midnightblue" d="M451.692,-194.398C462.046,-190.271 473.711,-185.269 484,-180 505.419,-169.032 528.518,-154.436 545.222,-143.339"/>
<polygon fill="midnightblue" stroke="midnightblue" points="547.445,-146.061 553.793,-137.579 543.541,-140.251 547.445,-146.061"/>
</g>
<!-- Node8&#45;&gt;Node4 -->
<g id="edge24" class="edge"><title>Node8&#45;&gt;Node4</title>
<path fill="none" stroke="midnightblue" d="M321.139,-91.4205C366.336,-93.8135 429.269,-98.4124 484,-107 495.699,-108.836 508.173,-111.413 519.86,-114.109"/>
<polygon fill="midnightblue" stroke="midnightblue" points="519.35,-117.585 529.888,-116.493 520.969,-110.775 519.35,-117.585"/>
</g>
<!-- Node8&#45;&gt;Node9 -->
<g id="edge18" class="edge"><title>Node8&#45;&gt;Node9</title>
<path fill="none" stroke="midnightblue" d="M305.405,-99.5851C324.833,-104.115 347.692,-109.443 368.064,-114.193"/>
<polygon fill="midnightblue" stroke="midnightblue" points="367.305,-117.61 377.839,-116.472 368.895,-110.793 367.305,-117.61"/>
</g>
<!-- Node9&#45;&gt;Node3 -->
<g id="edge22" class="edge"><title>Node9&#45;&gt;Node3</title>
<path fill="none" stroke="midnightblue" d="M438.902,-137.674C464.354,-154.758 514.424,-188.367 544.481,-208.542"/>
<polygon fill="midnightblue" stroke="midnightblue" points="542.863,-211.672 553.117,-214.339 546.765,-205.86 542.863,-211.672"/>
</g>
<!-- Node9&#45;&gt;Node4 -->
<g id="edge20" class="edge"><title>Node9&#45;&gt;Node4</title>
<path fill="none" stroke="midnightblue" d="M484.071,-127C494.503,-127 505.269,-127 515.485,-127"/>
<polygon fill="midnightblue" stroke="midnightblue" points="515.486,-130.5 525.486,-127 515.486,-123.5 515.486,-130.5"/>
</g>
</g>
</svg>
