<?xml version="1.0" encoding="UTF-8" standalone="no"?>
<!DOCTYPE svg PUBLIC "-//W3C//DTD SVG 1.1//EN"
 "http://www.w3.org/Graphics/SVG/1.1/DTD/svg11.dtd">
<!-- Generated by graphviz version 2.26.3 (20100126.1600)
 -->
<!-- Title: tetgenmesh::tri_edge_2d Pages: 1 -->
<svg width="592pt" height="195pt"
 viewBox="0.00 0.00 592.00 195.00" xmlns="http://www.w3.org/2000/svg" xmlns:xlink="http://www.w3.org/1999/xlink">
<g id="graph1" class="graph" transform="scale(1 1) rotate(0) translate(4 191)">
<title>tetgenmesh::tri_edge_2d</title>
<!-- Node1 -->
<g id="node1" class="node"><title>Node1</title>
<polygon fill="#bfbfbf" stroke="black" points="0,-106.5 0,-127.5 124,-127.5 124,-106.5 0,-106.5"/>
<text text-anchor="middle" x="62" y="-114.5" font-family="Helvetica,sans-Serif" font-size="10.00">tetgenmesh::tri_edge_2d</text>
</g>
<!-- Node2 -->
<g id="node3" class="node"><title>Node2</title>
<a xlink:href="classtetgenmesh.xhtml#adef28f2839ea13688a3ac9a7184d1db8" target="_top" xlink:title="tetgenmesh::facenormal">
<polygon fill="none" stroke="black" points="160,-126.5 160,-147.5 282,-147.5 282,-126.5 160,-126.5"/>
<text text-anchor="middle" x="221" y="-134.5" font-family="Helvetica,sans-Serif" font-size="10.00">tetgenmesh::facenormal</text>
</a>
</g>
<!-- Node1&#45;&gt;Node2 -->
<g id="edge2" class="edge"><title>Node1&#45;&gt;Node2</title>
<path fill="none" stroke="midnightblue" d="M124.385,-124.847C132.673,-125.89 141.222,-126.965 149.647,-128.025"/>
<polygon fill="midnightblue" stroke="midnightblue" points="149.479,-131.531 159.837,-129.307 150.352,-124.586 149.479,-131.531"/>
</g>
<!-- Node3 -->
<g id="node5" class="node"><title>Node3</title>
<a xlink:href="classtetgenmesh.xhtml#afa0906703b590597155547336c360004" target="_top" xlink:title="tetgenmesh::dot">
<polygon fill="none" stroke="black" points="323.5,-165.5 323.5,-186.5 410.5,-186.5 410.5,-165.5 323.5,-165.5"/>
<text text-anchor="middle" x="367" y="-173.5" font-family="Helvetica,sans-Serif" font-size="10.00">tetgenmesh::dot</text>
</a>
</g>
<!-- Node1&#45;&gt;Node3 -->
<g id="edge8" class="edge"><title>Node1&#45;&gt;Node3</title>
<path fill="none" stroke="midnightblue" d="M82.8049,-127.61C102.24,-137.004 132.33,-150.242 160,-157 211.011,-169.458 270.906,-173.892 313.107,-175.399"/>
<polygon fill="midnightblue" stroke="midnightblue" points="313.065,-178.899 323.17,-175.715 313.285,-171.903 313.065,-178.899"/>
</g>
<!-- Node5 -->
<g id="node10" class="node"><title>Node5</title>
<a xlink:href="classtetgenmesh.xhtml#a4f2849235299c81ad7d585dc0b657d80" target="_top" xlink:title="tetgenmesh::distance">
<polygon fill="none" stroke="black" points="166,-86.5 166,-107.5 276,-107.5 276,-86.5 166,-86.5"/>
<text text-anchor="middle" x="221" y="-94.5" font-family="Helvetica,sans-Serif" font-size="10.00">tetgenmesh::distance</text>
</a>
</g>
<!-- Node1&#45;&gt;Node5 -->
<g id="edge10" class="edge"><title>Node1&#45;&gt;Node5</title>
<path fill="none" stroke="midnightblue" d="M124.385,-109.153C134.629,-107.864 145.272,-106.526 155.587,-105.228"/>
<polygon fill="midnightblue" stroke="midnightblue" points="156.282,-108.668 165.767,-103.948 155.408,-101.723 156.282,-108.668"/>
</g>
<!-- Node6 -->
<g id="node12" class="node"><title>Node6</title>
<a xlink:href="predicates_8cxx.xhtml#a701f35178b28c7bbb94644665c0b058a" target="_top" xlink:title="orient3d">
<polygon fill="none" stroke="black" points="195.5,-46.5 195.5,-67.5 246.5,-67.5 246.5,-46.5 195.5,-46.5"/>
<text text-anchor="middle" x="221" y="-54.5" font-family="Helvetica,sans-Serif" font-size="10.00">orient3d</text>
</a>
</g>
<!-- Node1&#45;&gt;Node6 -->
<g id="edge12" class="edge"><title>Node1&#45;&gt;Node6</title>
<path fill="none" stroke="midnightblue" d="M86.3799,-106.488C106.095,-98.124 134.644,-86.318 160,-77 168.271,-73.9606 177.251,-70.8909 185.714,-68.0996"/>
<polygon fill="midnightblue" stroke="midnightblue" points="186.91,-71.391 195.337,-64.9692 184.745,-64.7343 186.91,-71.391"/>
</g>
<!-- Node2&#45;&gt;Node3 -->
<g id="edge4" class="edge"><title>Node2&#45;&gt;Node3</title>
<path fill="none" stroke="midnightblue" d="M260.51,-147.554C278.12,-152.258 299.049,-157.849 317.673,-162.824"/>
<polygon fill="midnightblue" stroke="midnightblue" points="316.894,-166.238 327.459,-165.438 318.701,-159.475 316.894,-166.238"/>
</g>
<!-- Node4 -->
<g id="node7" class="node"><title>Node4</title>
<a xlink:href="classtetgenmesh.xhtml#a9b5ff4d3e2452044830fbd47d2f70cbd" target="_top" xlink:title="tetgenmesh::cross">
<polygon fill="none" stroke="black" points="318,-125.5 318,-146.5 416,-146.5 416,-125.5 318,-125.5"/>
<text text-anchor="middle" x="367" y="-133.5" font-family="Helvetica,sans-Serif" font-size="10.00">tetgenmesh::cross</text>
</a>
</g>
<!-- Node2&#45;&gt;Node4 -->
<g id="edge6" class="edge"><title>Node2&#45;&gt;Node4</title>
<path fill="none" stroke="midnightblue" d="M282.071,-136.582C290.515,-136.524 299.178,-136.465 307.591,-136.407"/>
<polygon fill="midnightblue" stroke="midnightblue" points="307.723,-139.906 317.698,-136.338 307.675,-132.906 307.723,-139.906"/>
</g>
<!-- Node7 -->
<g id="node14" class="node"><title>Node7</title>
<a xlink:href="predicates_8cxx.xhtml#ae16b246ccaad9f1d90f37590816c5fde" target="_top" xlink:title="orient3dadapt">
<polygon fill="none" stroke="black" points="329.5,-46.5 329.5,-67.5 404.5,-67.5 404.5,-46.5 329.5,-46.5"/>
<text text-anchor="middle" x="367" y="-54.5" font-family="Helvetica,sans-Serif" font-size="10.00">orient3dadapt</text>
</a>
</g>
<!-- Node6&#45;&gt;Node7 -->
<g id="edge14" class="edge"><title>Node6&#45;&gt;Node7</title>
<path fill="none" stroke="midnightblue" d="M246.766,-57C266.822,-57 295.215,-57 319.373,-57"/>
<polygon fill="midnightblue" stroke="midnightblue" points="319.431,-60.5001 329.431,-57 319.431,-53.5001 319.431,-60.5001"/>
</g>
<!-- Node8 -->
<g id="node16" class="node"><title>Node8</title>
<a xlink:href="predicates_8cxx.xhtml#abdcdaa8948d9a2937154d9d67f67da8d" target="_top" xlink:title="scale_expansion_zeroelim">
<polygon fill="none" stroke="black" points="452.5,-92.5 452.5,-113.5 583.5,-113.5 583.5,-92.5 452.5,-92.5"/>
<text text-anchor="middle" x="518" y="-100.5" font-family="Helvetica,sans-Serif" font-size="10.00">scale_expansion_zeroelim</text>
</a>
</g>
<!-- Node7&#45;&gt;Node8 -->
<g id="edge16" class="edge"><title>Node7&#45;&gt;Node8</title>
<path fill="none" stroke="midnightblue" d="M401.321,-67.5204C416.802,-72.2601 435.318,-77.9211 452,-83 458.93,-85.1097 466.27,-87.3393 473.44,-89.5143"/>
<polygon fill="midnightblue" stroke="midnightblue" points="472.472,-92.878 483.057,-92.4298 474.503,-86.1791 472.472,-92.878"/>
</g>
<!-- Node9 -->
<g id="node18" class="node"><title>Node9</title>
<a xlink:href="predicates_8cxx.xhtml#a37646a7e0014e10c612e946bc95aeeea" target="_top" xlink:title="fast_expansion_sum\l_zeroelim">
<polygon fill="none" stroke="black" points="464.5,-40 464.5,-74 571.5,-74 571.5,-40 464.5,-40"/>
<text text-anchor="start" x="472.5" y="-61" font-family="Helvetica,sans-Serif" font-size="10.00">fast_expansion_sum</text>
<text text-anchor="middle" x="518" y="-48" font-family="Helvetica,sans-Serif" font-size="10.00">_zeroelim</text>
</a>
</g>
<!-- Node7&#45;&gt;Node9 -->
<g id="edge18" class="edge"><title>Node7&#45;&gt;Node9</title>
<path fill="none" stroke="midnightblue" d="M404.714,-57C419.616,-57 437.164,-57 453.941,-57"/>
<polygon fill="midnightblue" stroke="midnightblue" points="454.256,-60.5001 464.256,-57 454.256,-53.5001 454.256,-60.5001"/>
</g>
<!-- Node10 -->
<g id="node20" class="node"><title>Node10</title>
<a xlink:href="predicates_8cxx.xhtml#a3487d9f90ea72da543d5d38b3dab1fbc" target="_top" xlink:title="estimate">
<polygon fill="none" stroke="black" points="491,-0.5 491,-21.5 545,-21.5 545,-0.5 491,-0.5"/>
<text text-anchor="middle" x="518" y="-8.5" font-family="Helvetica,sans-Serif" font-size="10.00">estimate</text>
</a>
</g>
<!-- Node7&#45;&gt;Node10 -->
<g id="edge20" class="edge"><title>Node7&#45;&gt;Node10</title>
<path fill="none" stroke="midnightblue" d="M401.321,-46.4796C416.802,-41.7399 435.318,-36.0789 452,-31 461.436,-28.1272 471.634,-25.0321 481.126,-22.1554"/>
<polygon fill="midnightblue" stroke="midnightblue" points="482.145,-25.5039 490.701,-19.2551 480.115,-18.8045 482.145,-25.5039"/>
</g>
</g>
</svg>
