<?xml version="1.0" encoding="UTF-8" standalone="no"?>
<!DOCTYPE svg PUBLIC "-//W3C//DTD SVG 1.1//EN"
 "http://www.w3.org/Graphics/SVG/1.1/DTD/svg11.dtd">
<!-- Generated by graphviz version 2.26.3 (20100126.1600)
 -->
<!-- Title: GUITimeline::setValue Pages: 1 -->
<svg width="298pt" height="70pt"
 viewBox="0.00 0.00 298.00 70.00" xmlns="http://www.w3.org/2000/svg" xmlns:xlink="http://www.w3.org/1999/xlink">
<g id="graph1" class="graph" transform="scale(1 1) rotate(0) translate(4 66)">
<title>GUITimeline::setValue</title>
<!-- Node1 -->
<g id="node1" class="node"><title>Node1</title>
<polygon fill="#bfbfbf" stroke="black" points="0,-20.5 0,-41.5 116,-41.5 116,-20.5 0,-20.5"/>
<text text-anchor="middle" x="58" y="-28.5" font-family="Helvetica,sans-Serif" font-size="10.00">GUITimeline::setValue</text>
</g>
<!-- Node2 -->
<g id="node3" class="node"><title>Node2</title>
<a xlink:href="classGUITimeline.xhtml#a099f3654aa6e7ea04df861851a0e9ec8" target="_top" xlink:title="Sucht den Zeitpunkt zwischen zwei markierten Stellen auf der Sensordaten&#45;Zeitleiste, für den der Wäremeenergiegehalt maximal wird. ">
<polygon fill="none" stroke="black" points="152.5,-40.5 152.5,-61.5 289.5,-61.5 289.5,-40.5 152.5,-40.5"/>
<text text-anchor="middle" x="221" y="-48.5" font-family="Helvetica,sans-Serif" font-size="10.00">GUITimeline::findMaxValue</text>
</a>
</g>
<!-- Node1&#45;&gt;Node2 -->
<g id="edge2" class="edge"><title>Node1&#45;&gt;Node2</title>
<path fill="none" stroke="midnightblue" d="M126.392,-39.3917C135.015,-40.4497 143.839,-41.5324 152.464,-42.5906"/>
<polygon fill="midnightblue" stroke="midnightblue" points="126.738,-35.908 116.386,-38.164 125.886,-42.8559 126.738,-35.908"/>
</g>
<!-- Node3 -->
<g id="node5" class="node"><title>Node3</title>
<a xlink:href="classPropertiesBox.xhtml#adce6c28da4adced9bb98937c5cb85de0" target="_top" xlink:title="Behandelt Größenänderungen und passt die Positionen der Komponenten an. ">
<polygon fill="none" stroke="black" points="166,-0.5 166,-21.5 276,-21.5 276,-0.5 166,-0.5"/>
<text text-anchor="middle" x="221" y="-8.5" font-family="Helvetica,sans-Serif" font-size="10.00">PropertiesBox::resize</text>
</a>
</g>
<!-- Node1&#45;&gt;Node3 -->
<g id="edge4" class="edge"><title>Node1&#45;&gt;Node3</title>
<path fill="none" stroke="midnightblue" d="M126.322,-22.6169C139.465,-21.0042 153.078,-19.3339 165.745,-17.7798"/>
<polygon fill="midnightblue" stroke="midnightblue" points="125.886,-19.1441 116.386,-23.836 126.738,-26.092 125.886,-19.1441"/>
</g>
</g>
</svg>
