<?xml version="1.0" encoding="UTF-8" standalone="no"?>
<!DOCTYPE svg PUBLIC "-//W3C//DTD SVG 1.1//EN"
 "http://www.w3.org/Graphics/SVG/1.1/DTD/svg11.dtd">
<!-- Generated by graphviz version 2.26.3 (20100126.1600)
 -->
<!-- Title: Importer::LoadSensorData Pages: 1 -->
<svg width="528pt" height="70pt"
 viewBox="0.00 0.00 528.00 70.00" xmlns="http://www.w3.org/2000/svg" xmlns:xlink="http://www.w3.org/1999/xlink">
<g id="graph1" class="graph" transform="scale(1 1) rotate(0) translate(4 66)">
<title>Importer::LoadSensorData</title>
<!-- Node1 -->
<g id="node1" class="node"><title>Node1</title>
<polygon fill="#bfbfbf" stroke="black" points="0.5,-20.5 0.5,-41.5 131.5,-41.5 131.5,-20.5 0.5,-20.5"/>
<text text-anchor="middle" x="66" y="-28.5" font-family="Helvetica,sans-Serif" font-size="10.00">Importer::LoadSensorData</text>
</g>
<!-- Node2 -->
<g id="node3" class="node"><title>Node2</title>
<a xlink:href="classObjectData.xhtml#ab2fabb02de2ac4b5ff09b73beb15223d" target="_top" xlink:title="ObjectData::loadFromFile">
<polygon fill="none" stroke="black" points="174,-40.5 174,-61.5 302,-61.5 302,-40.5 174,-40.5"/>
<text text-anchor="middle" x="238" y="-48.5" font-family="Helvetica,sans-Serif" font-size="10.00">ObjectData::loadFromFile</text>
</a>
</g>
<!-- Node1&#45;&gt;Node2 -->
<g id="edge2" class="edge"><title>Node1&#45;&gt;Node2</title>
<path fill="none" stroke="midnightblue" d="M141.698,-39.802C152.409,-41.0475 163.336,-42.3182 173.803,-43.5352"/>
<polygon fill="midnightblue" stroke="midnightblue" points="141.854,-36.2967 131.516,-38.6182 141.045,-43.2499 141.854,-36.2967"/>
</g>
<!-- Node4 -->
<g id="node7" class="node"><title>Node4</title>
<a xlink:href="classObjectData.xhtml#a351c17608005c849cb0f26e44beee2ec" target="_top" xlink:title="ObjectData::addSensorData">
<polygon fill="none" stroke="black" points="168,-0.5 168,-21.5 308,-21.5 308,-0.5 168,-0.5"/>
<text text-anchor="middle" x="238" y="-8.5" font-family="Helvetica,sans-Serif" font-size="10.00">ObjectData::addSensorData</text>
</a>
</g>
<!-- Node1&#45;&gt;Node4 -->
<g id="edge6" class="edge"><title>Node1&#45;&gt;Node4</title>
<path fill="none" stroke="midnightblue" d="M141.639,-22.2048C150.336,-21.1935 159.176,-20.1655 167.798,-19.163"/>
<polygon fill="midnightblue" stroke="midnightblue" points="141.045,-18.7501 131.516,-23.3818 141.854,-25.7033 141.045,-18.7501"/>
</g>
<!-- Node3 -->
<g id="node5" class="node"><title>Node3</title>
<a xlink:href="classGUIMainWindow.xhtml#a9fd9f2be8f45cb5433193f5d28c924bc" target="_top" xlink:title="GUIMainWindow::OnMenuImportObj">
<polygon fill="none" stroke="black" points="344,-40.5 344,-61.5 520,-61.5 520,-40.5 344,-40.5"/>
<text text-anchor="middle" x="432" y="-48.5" font-family="Helvetica,sans-Serif" font-size="10.00">GUIMainWindow::OnMenuImportObj</text>
</a>
</g>
<!-- Node2&#45;&gt;Node3 -->
<g id="edge4" class="edge"><title>Node2&#45;&gt;Node3</title>
<path fill="none" stroke="midnightblue" d="M312.235,-51C322.549,-51 333.228,-51 343.767,-51"/>
<polygon fill="midnightblue" stroke="midnightblue" points="312.061,-47.5001 302.061,-51 312.06,-54.5001 312.061,-47.5001"/>
</g>
<!-- Node5 -->
<g id="node9" class="node"><title>Node5</title>
<a xlink:href="classGUIMainWindow.xhtml#a405b99746fe6f35ec527c57604e53ce2" target="_top" xlink:title="GUIMainWindow::OnMenuImportSD">
<polygon fill="none" stroke="black" points="344,-0.5 344,-21.5 520,-21.5 520,-0.5 344,-0.5"/>
<text text-anchor="middle" x="432" y="-8.5" font-family="Helvetica,sans-Serif" font-size="10.00">GUIMainWindow::OnMenuImportSD</text>
</a>
</g>
<!-- Node4&#45;&gt;Node5 -->
<g id="edge8" class="edge"><title>Node4&#45;&gt;Node5</title>
<path fill="none" stroke="midnightblue" d="M318.232,-11C326.674,-11 335.291,-11 343.817,-11"/>
<polygon fill="midnightblue" stroke="midnightblue" points="318.038,-7.5001 308.038,-11 318.038,-14.5001 318.038,-7.5001"/>
</g>
</g>
</svg>
