<?xml version="1.0" encoding="UTF-8" standalone="no"?>
<!DOCTYPE svg PUBLIC "-//W3C//DTD SVG 1.1//EN"
 "http://www.w3.org/Graphics/SVG/1.1/DTD/svg11.dtd">
<!-- Generated by graphviz version 2.26.3 (20100126.1600)
 -->
<!-- Title: Interpolator::setMode Pages: 1 -->
<!--zoomable 134 -->
<svg id="main" version="1.1" xmlns="http://www.w3.org/2000/svg" xmlns:xlink="http://www.w3.org/1999/xlink" xml:space="preserve" onload="init(evt)">
<style type="text/css"><![CDATA[
.edge:hover path { stroke: red; }
.edge:hover polygon { stroke: red; fill: red; }
]]></style>
<script type="text/javascript"><![CDATA[
var edges = document.getElementsByTagName('g');
if (edges && edges.length) {
  for (var i=0;i<edges.length;i++) {
    if (edges[i].id.substr(0,4)=='edge') {
      edges[i].setAttribute('class','edge');
    }
  }
}
]]></script>
        <defs>
                <circle id="rim" cx="0" cy="0" r="7"/>
                <circle id="rim2" cx="0" cy="0" r="3.5"/>
                <g id="zoomPlus">
                        <use xlink:href="#rim" fill="#404040">
                                <set attributeName="fill" to="#808080" begin="zoomplus.mouseover" end="zoomplus.mouseout"/>
                        </use>
                        <path d="M-4,0h8M0,-4v8" fill="none" stroke="white" stroke-width="1.5" pointer-events="none"/>
                </g>
                <g id="zoomMin">
                        <use xlink:href="#rim" fill="#404040">
                                <set attributeName="fill" to="#808080" begin="zoomminus.mouseover" end="zoomminus.mouseout"/>
                        </use>
                        <path d="M-4,0h8" fill="none" stroke="white" stroke-width="1.5" pointer-events="none"/>
                </g>
                <g id="dirArrow">
                        <path fill="none" stroke="white" stroke-width="1.5" d="M0,-3.0v7 M-2.5,-0.5L0,-3.0L2.5,-0.5"/>
                </g>
               <g id="resetDef">
                       <use xlink:href="#rim2" fill="#404040">
                               <set attributeName="fill" to="#808080" begin="reset.mouseover" end="reset.mouseout"/>
                       </use>
               </g>
        </defs>

<script type="text/javascript">
var viewWidth = 804;
var viewHeight = 134;
var sectionId = 'dynsection-2';
</script>
<script xlink:href="svgpan.js"/>
<svg id="graph" class="graph">
<g id="viewport">
<title>Interpolator::setMode</title>
<!-- Node1 -->
<g id="node1" class="node"><title>Node1</title>
<polygon fill="#bfbfbf" stroke="black" points="0.5,-53.5 0.5,-74.5 109.5,-74.5 109.5,-53.5 0.5,-53.5"/>
<text text-anchor="middle" x="55" y="-61.5" font-family="Helvetica,sans-Serif" font-size="10.00">Interpolator::setMode</text>
</g>
<!-- Node2 -->
<g id="node3" class="node"><title>Node2</title>
<a xlink:href="classGUIAnalyzePointWindow.xhtml#aa84ea9958e8b41423f01316d01ba5151" target="_top" xlink:title="GUIAnalyzePointWindow\l::analyzePoint">
<polygon fill="none" stroke="black" points="146,-70 146,-104 274,-104 274,-70 146,-70"/>
<text text-anchor="start" x="154" y="-91" font-family="Helvetica,sans-Serif" font-size="10.00">GUIAnalyzePointWindow</text>
<text text-anchor="middle" x="210" y="-78" font-family="Helvetica,sans-Serif" font-size="10.00">::analyzePoint</text>
</a>
</g>
<!-- Node1&#45;&gt;Node2 -->
<g id="edge2" class="edge"><title>Node1&#45;&gt;Node2</title>
<path fill="none" stroke="midnightblue" d="M119.655,-73.594C128.289,-74.8752 137.142,-76.1888 145.768,-77.4689"/>
<polygon fill="midnightblue" stroke="midnightblue" points="120.053,-70.1147 109.647,-72.1089 119.025,-77.0389 120.053,-70.1147"/>
</g>
<!-- Node3 -->
<g id="node5" class="node"><title>Node3</title>
<a xlink:href="classMeshProcessor.xhtml#a060c3815db33f8e52ac620ed2239ccc9" target="_top" xlink:title="MeshProcessor::process">
<polygon fill="none" stroke="black" points="147.5,-30.5 147.5,-51.5 272.5,-51.5 272.5,-30.5 147.5,-30.5"/>
<text text-anchor="middle" x="210" y="-38.5" font-family="Helvetica,sans-Serif" font-size="10.00">MeshProcessor::process</text>
</a>
</g>
<!-- Node1&#45;&gt;Node3 -->
<g id="edge4" class="edge"><title>Node1&#45;&gt;Node3</title>
<path fill="none" stroke="midnightblue" d="M119.815,-54.3823C128.936,-53.0288 138.299,-51.6395 147.378,-50.2923"/>
<polygon fill="midnightblue" stroke="midnightblue" points="119.025,-50.9611 109.647,-55.8911 120.053,-57.8853 119.025,-50.9611"/>
</g>
<!-- Node4 -->
<g id="node7" class="node"><title>Node4</title>
<a xlink:href="classAnalyzer.xhtml#a2a7b5f169f664ccd9f206e508cba78ef" target="_top" xlink:title="Analyzer::analyzeObject">
<polygon fill="none" stroke="black" points="310.5,-52.5 310.5,-73.5 433.5,-73.5 433.5,-52.5 310.5,-52.5"/>
<text text-anchor="middle" x="372" y="-60.5" font-family="Helvetica,sans-Serif" font-size="10.00">Analyzer::analyzeObject</text>
</a>
</g>
<!-- Node3&#45;&gt;Node4 -->
<g id="edge6" class="edge"><title>Node3&#45;&gt;Node4</title>
<path fill="none" stroke="midnightblue" d="M282.6,-50.8593C291.86,-52.1168 301.268,-53.3945 310.333,-54.6255"/>
<polygon fill="midnightblue" stroke="midnightblue" points="283.013,-47.3834 272.633,-49.5058 282.071,-54.3197 283.013,-47.3834"/>
</g>
<!-- Node8 -->
<g id="node15" class="node"><title>Node8</title>
<a xlink:href="classObjectData.xhtml#af3a850833d08eb9b45357449f455e24d" target="_top" xlink:title="ObjectData::calculateIO">
<polygon fill="none" stroke="black" points="311,-9.5 311,-30.5 433,-30.5 433,-9.5 311,-9.5"/>
<text text-anchor="middle" x="372" y="-17.5" font-family="Helvetica,sans-Serif" font-size="10.00">ObjectData::calculateIO</text>
</a>
</g>
<!-- Node3&#45;&gt;Node8 -->
<g id="edge14" class="edge"><title>Node3&#45;&gt;Node8</title>
<path fill="none" stroke="midnightblue" d="M282.745,-31.5701C292.14,-30.3523 301.684,-29.115 310.866,-27.9248"/>
<polygon fill="midnightblue" stroke="midnightblue" points="282.1,-28.1243 272.633,-32.8809 283,-35.0662 282.1,-28.1243"/>
</g>
<!-- Node5 -->
<g id="node9" class="node"><title>Node5</title>
<a xlink:href="classGUIAnalyzeOutputWindow.xhtml#a9ea5a7cf46d6189f368315903508cecc" target="_top" xlink:title="GUIAnalyzeOutputWindow\l::Update">
<polygon fill="none" stroke="black" points="478,-92 478,-126 612,-126 612,-92 478,-92"/>
<text text-anchor="start" x="486" y="-113" font-family="Helvetica,sans-Serif" font-size="10.00">GUIAnalyzeOutputWindow</text>
<text text-anchor="middle" x="545" y="-100" font-family="Helvetica,sans-Serif" font-size="10.00">::Update</text>
</a>
</g>
<!-- Node4&#45;&gt;Node5 -->
<g id="edge8" class="edge"><title>Node4&#45;&gt;Node5</title>
<path fill="none" stroke="midnightblue" d="M421.358,-76.1241C439.84,-81.0383 461.114,-86.695 480.747,-91.9155"/>
<polygon fill="midnightblue" stroke="midnightblue" points="422.253,-72.7406 411.69,-73.5533 420.454,-79.5055 422.253,-72.7406"/>
</g>
<!-- Node7 -->
<g id="node13" class="node"><title>Node7</title>
<a xlink:href="classGUITimeline.xhtml#a099f3654aa6e7ea04df861851a0e9ec8" target="_top" xlink:title="GUITimeline::findMaxValue">
<polygon fill="none" stroke="black" points="476.5,-52.5 476.5,-73.5 613.5,-73.5 613.5,-52.5 476.5,-52.5"/>
<text text-anchor="middle" x="545" y="-60.5" font-family="Helvetica,sans-Serif" font-size="10.00">GUITimeline::findMaxValue</text>
</a>
</g>
<!-- Node4&#45;&gt;Node7 -->
<g id="edge12" class="edge"><title>Node4&#45;&gt;Node7</title>
<path fill="none" stroke="midnightblue" d="M444.108,-63C454.804,-63 465.801,-63 476.422,-63"/>
<polygon fill="midnightblue" stroke="midnightblue" points="443.968,-59.5001 433.968,-63 443.968,-66.5001 443.968,-59.5001"/>
</g>
<!-- Node6 -->
<g id="node11" class="node"><title>Node6</title>
<a xlink:href="classGUIAnalyzeOutputWindow.xhtml#af9407245a6b2a0478579c4d592a31e63" target="_top" xlink:title="GUIAnalyzeOutputWindow\l::GUIAnalyzeOutputWindow">
<polygon fill="none" stroke="black" points="656,-92 656,-126 796,-126 796,-92 656,-92"/>
<text text-anchor="start" x="664" y="-113" font-family="Helvetica,sans-Serif" font-size="10.00">GUIAnalyzeOutputWindow</text>
<text text-anchor="middle" x="726" y="-100" font-family="Helvetica,sans-Serif" font-size="10.00">::GUIAnalyzeOutputWindow</text>
</a>
</g>
<!-- Node5&#45;&gt;Node6 -->
<g id="edge10" class="edge"><title>Node5&#45;&gt;Node6</title>
<path fill="none" stroke="midnightblue" d="M622.303,-109C633.474,-109 644.92,-109 655.939,-109"/>
<polygon fill="midnightblue" stroke="midnightblue" points="622.141,-105.5 612.141,-109 622.14,-112.5 622.141,-105.5"/>
</g>
<!-- Node9 -->
<g id="node17" class="node"><title>Node9</title>
<a xlink:href="classGUIMainWindow.xhtml#a0c2de30274c7f52ff74ec1217e47a9e5" target="_top" xlink:title="GUIMainWindow::OnRecalcBt\lClick">
<polygon fill="none" stroke="black" points="470,-0 470,-34 620,-34 620,-0 470,-0"/>
<text text-anchor="start" x="478" y="-21" font-family="Helvetica,sans-Serif" font-size="10.00">GUIMainWindow::OnRecalcBt</text>
<text text-anchor="middle" x="545" y="-8" font-family="Helvetica,sans-Serif" font-size="10.00">Click</text>
</a>
</g>
<!-- Node8&#45;&gt;Node9 -->
<g id="edge16" class="edge"><title>Node8&#45;&gt;Node9</title>
<path fill="none" stroke="midnightblue" d="M443.534,-18.7595C452.197,-18.6093 461.067,-18.4555 469.782,-18.3044"/>
<polygon fill="midnightblue" stroke="midnightblue" points="443.418,-15.2609 433.48,-18.9339 443.54,-22.2599 443.418,-15.2609"/>
</g>
</g>
</svg>
        <g id="navigator" transform="translate(0 0)" fill="#404254">
                <rect fill="#f2f5e9" fill-opacity="0.5" stroke="#606060" stroke-width=".5" x="0" y="0" width="60" height="60"/>
                <use id="zoomplus" xlink:href="#zoomPlus" x="17" y="9" onmousedown="handleZoom(evt,'in')"/>
                <use id="zoomminus" xlink:href="#zoomMin" x="42" y="9" onmousedown="handleZoom(evt,'out')"/>
                <use id="reset" xlink:href="#resetDef" x="30" y="36" onmousedown="handleReset()"/>
                <g id="arrowUp" xlink:href="#dirArrow" transform="translate(30 24)" onmousedown="handlePan(0,-1)">
                  <use xlink:href="#rim" fill="#404040">
                        <set attributeName="fill" to="#808080" begin="arrowUp.mouseover" end="arrowUp.mouseout"/>
                  </use>
                  <path fill="none" stroke="white" stroke-width="1.5" d="M0,-3.0v7 M-2.5,-0.5L0,-3.0L2.5,-0.5"/>
                </g>
                <g id="arrowRight" xlink:href="#dirArrow" transform="rotate(90) translate(36 -43)" onmousedown="handlePan(1,0)">
                  <use xlink:href="#rim" fill="#404040">
                        <set attributeName="fill" to="#808080" begin="arrowRight.mouseover" end="arrowRight.mouseout"/>
                  </use>
                  <path fill="none" stroke="white" stroke-width="1.5" d="M0,-3.0v7 M-2.5,-0.5L0,-3.0L2.5,-0.5"/>
                </g>
                <g id="arrowDown" xlink:href="#dirArrow" transform="rotate(180) translate(-30 -48)" onmousedown="handlePan(0,1)">
                  <use xlink:href="#rim" fill="#404040">
                        <set attributeName="fill" to="#808080" begin="arrowDown.mouseover" end="arrowDown.mouseout"/>
                  </use>
                  <path fill="none" stroke="white" stroke-width="1.5" d="M0,-3.0v7 M-2.5,-0.5L0,-3.0L2.5,-0.5"/>
                </g>
                <g id="arrowLeft" xlink:href="#dirArrow" transform="rotate(270) translate(-36 17)" onmousedown="handlePan(-1,0)">
                  <use xlink:href="#rim" fill="#404040">
                        <set attributeName="fill" to="#808080" begin="arrowLeft.mouseover" end="arrowLeft.mouseout"/>
                  </use>
                  <path fill="none" stroke="white" stroke-width="1.5" d="M0,-3.0v7 M-2.5,-0.5L0,-3.0L2.5,-0.5"/>
                </g>
        </g>
        <svg viewBox="0 0 15 15" width="100%" height="30px" preserveAspectRatio="xMaxYMin meet">
         <g id="arrow_out" transform="scale(0.3 0.3)">
          <a xlink:href="classInterpolator_a2f9927fc580de7d2f94d85e6ca3ee3e3_icgraph_org.svg" target="_base">
           <rect id="button" ry="5" rx="5" y="6" x="6" height="38" width="38"
                fill="#f2f5e9" fill-opacity="0.5" stroke="#606060" stroke-width="1.0"/>
           <path id="arrow"
             d="M 11.500037,31.436501 C 11.940474,20.09759 22.043105,11.32322 32.158766,21.979434 L 37.068811,17.246167 C 37.068811,17.246167 37.088388,32 37.088388,32 L 22.160133,31.978069 C 22.160133,31.978069 26.997745,27.140456 26.997745,27.140456 C 18.528582,18.264221 13.291696,25.230495 11.500037,31.436501 z"
             style="fill:#404040;"/>
          </a>
         </g>
        </svg>
</svg>
