<?xml version="1.0" encoding="UTF-8" standalone="no"?>
<!DOCTYPE svg PUBLIC "-//W3C//DTD SVG 1.1//EN"
 "http://www.w3.org/Graphics/SVG/1.1/DTD/svg11.dtd">
<!-- Generated by graphviz version 2.26.3 (20100126.1600)
 -->
<!-- Title: SimpleAnalyzerApp Pages: 1 -->
<svg width="440pt" height="560pt"
 viewBox="0.00 0.00 440.00 560.00" xmlns="http://www.w3.org/2000/svg" xmlns:xlink="http://www.w3.org/1999/xlink">
<g id="graph1" class="graph" transform="scale(1 1) rotate(0) translate(4 556)">
<title>SimpleAnalyzerApp</title>
<!-- Node1 -->
<g id="node1" class="node"><title>Node1</title>
<polygon fill="#bfbfbf" stroke="black" points="133,-0.5 133,-21.5 235,-21.5 235,-0.5 133,-0.5"/>
<text text-anchor="middle" x="184" y="-8.5" font-family="Helvetica,sans-Serif" font-size="10.00">SimpleAnalyzerApp</text>
</g>
<!-- Node2 -->
<g id="node2" class="node"><title>Node2</title>
<polygon fill="none" stroke="#bfbfbf" points="60.5,-72.5 60.5,-93.5 107.5,-93.5 107.5,-72.5 60.5,-72.5"/>
<text text-anchor="middle" x="84" y="-80.5" font-family="Helvetica,sans-Serif" font-size="10.00">wxApp</text>
</g>
<!-- Node2&#45;&gt;Node1 -->
<g id="edge2" class="edge"><title>Node2&#45;&gt;Node1</title>
<path fill="none" stroke="midnightblue" d="M106.948,-66.4772C126.077,-52.7046 152.763,-33.4905 169.184,-21.6674"/>
<polygon fill="midnightblue" stroke="midnightblue" points="104.826,-63.6927 98.7553,-72.3762 108.916,-69.3734 104.826,-63.6927"/>
</g>
<!-- Node3 -->
<g id="node4" class="node"><title>Node3</title>
<a xlink:href="structUtils_1_1Visualization__info.xhtml" target="_top" xlink:title="Informationen über die Farbgebung bei der Visualisierung. ">
<polygon fill="none" stroke="black" points="124.5,-72.5 124.5,-93.5 243.5,-93.5 243.5,-72.5 124.5,-72.5"/>
<text text-anchor="middle" x="184" y="-80.5" font-family="Helvetica,sans-Serif" font-size="10.00">Utils::Visualization_info</text>
</a>
</g>
<!-- Node3&#45;&gt;Node1 -->
<g id="edge4" class="edge"><title>Node3&#45;&gt;Node1</title>
<path fill="none" stroke="#9a32cd" stroke-dasharray="5,2" d="M184,-62.2348C184,-48.969 184,-32.3188 184,-21.6674"/>
<polygon fill="#9a32cd" stroke="#9a32cd" points="180.5,-62.3761 184,-72.3762 187.5,-62.3762 180.5,-62.3761"/>
<text text-anchor="middle" x="223.5" y="-44.5" font-family="Helvetica,sans-Serif" font-size="10.00"> visualization_info</text>
</g>
<!-- Node4 -->
<g id="node6" class="node"><title>Node4</title>
<a xlink:href="classstd_1_1vector.xhtml" target="_top" xlink:title="std::vector\&lt; ObjectData * \&gt;">
<polygon fill="none" stroke="black" points="260.5,-72.5 260.5,-93.5 397.5,-93.5 397.5,-72.5 260.5,-72.5"/>
<text text-anchor="middle" x="329" y="-80.5" font-family="Helvetica,sans-Serif" font-size="10.00">std::vector&lt; ObjectData * &gt;</text>
</a>
</g>
<!-- Node4&#45;&gt;Node1 -->
<g id="edge6" class="edge"><title>Node4&#45;&gt;Node1</title>
<path fill="none" stroke="#9a32cd" stroke-dasharray="5,2" d="M307.73,-66.1049C296.161,-57.4807 281.323,-47.2983 267,-40 252.448,-32.5849 235.56,-26.3021 220.832,-21.5005"/>
<polygon fill="#9a32cd" stroke="#9a32cd" points="305.803,-69.0374 315.876,-72.3226 310.05,-63.4731 305.803,-69.0374"/>
<text text-anchor="middle" x="319.5" y="-44.5" font-family="Helvetica,sans-Serif" font-size="10.00"> data_objects</text>
</g>
<!-- Node5 -->
<g id="node8" class="node"><title>Node5</title>
<a xlink:href="classObjectData.xhtml" target="_top" xlink:title="Die Daten eines Versuchsobjekts. ">
<polygon fill="none" stroke="black" points="296,-144.5 296,-165.5 362,-165.5 362,-144.5 296,-144.5"/>
<text text-anchor="middle" x="329" y="-152.5" font-family="Helvetica,sans-Serif" font-size="10.00">ObjectData</text>
</a>
</g>
<!-- Node5&#45;&gt;Node4 -->
<g id="edge8" class="edge"><title>Node5&#45;&gt;Node4</title>
<path fill="none" stroke="#9a32cd" stroke-dasharray="5,2" d="M329,-134.235C329,-120.969 329,-104.319 329,-93.6674"/>
<polygon fill="#9a32cd" stroke="#9a32cd" points="325.5,-134.376 329,-144.376 332.5,-134.376 325.5,-134.376"/>
<text text-anchor="middle" x="348" y="-116.5" font-family="Helvetica,sans-Serif" font-size="10.00"> element</text>
</g>
<!-- Node6 -->
<g id="node10" class="node"><title>Node6</title>
<a xlink:href="classstd_1_1vector.xhtml" target="_top" xlink:title="std::vector\&lt; ObjectData\l::MaterialData \&gt;">
<polygon fill="none" stroke="black" points="160,-217 160,-251 282,-251 282,-217 160,-217"/>
<text text-anchor="start" x="168" y="-238" font-family="Helvetica,sans-Serif" font-size="10.00">std::vector&lt; ObjectData</text>
<text text-anchor="middle" x="221" y="-225" font-family="Helvetica,sans-Serif" font-size="10.00">::MaterialData &gt;</text>
</a>
</g>
<!-- Node6&#45;&gt;Node5 -->
<g id="edge10" class="edge"><title>Node6&#45;&gt;Node5</title>
<path fill="none" stroke="#9a32cd" stroke-dasharray="5,2" d="M252.565,-210.911C273.055,-195.923 298.786,-177.101 314.554,-165.567"/>
<polygon fill="#9a32cd" stroke="#9a32cd" points="250.439,-208.129 244.434,-216.858 254.572,-213.779 250.439,-208.129"/>
<text text-anchor="middle" x="308.5" y="-188.5" font-family="Helvetica,sans-Serif" font-size="10.00"> materials</text>
</g>
<!-- Node7 -->
<g id="node12" class="node"><title>Node7</title>
<a xlink:href="structObjectData_1_1MaterialData.xhtml" target="_top" xlink:title="Die Daten eines Materials. ">
<polygon fill="none" stroke="black" points="157,-302.5 157,-323.5 285,-323.5 285,-302.5 157,-302.5"/>
<text text-anchor="middle" x="221" y="-310.5" font-family="Helvetica,sans-Serif" font-size="10.00">ObjectData::MaterialData</text>
</a>
</g>
<!-- Node7&#45;&gt;Node6 -->
<g id="edge12" class="edge"><title>Node7&#45;&gt;Node6</title>
<path fill="none" stroke="#9a32cd" stroke-dasharray="5,2" d="M221,-292.162C221,-279.363 221,-263.171 221,-251.124"/>
<polygon fill="#9a32cd" stroke="#9a32cd" points="217.5,-292.346 221,-302.346 224.5,-292.346 217.5,-292.346"/>
<text text-anchor="middle" x="240" y="-274.5" font-family="Helvetica,sans-Serif" font-size="10.00"> element</text>
</g>
<!-- Node8 -->
<g id="node14" class="node"><title>Node8</title>
<a xlink:href="classtetgenio.xhtml" target="_top" xlink:title="tetgenio">
<polygon fill="none" stroke="black" points="195.5,-386.5 195.5,-407.5 246.5,-407.5 246.5,-386.5 195.5,-386.5"/>
<text text-anchor="middle" x="221" y="-394.5" font-family="Helvetica,sans-Serif" font-size="10.00">tetgenio</text>
</a>
</g>
<!-- Node8&#45;&gt;Node7 -->
<g id="edge14" class="edge"><title>Node8&#45;&gt;Node7</title>
<path fill="none" stroke="#9a32cd" stroke-dasharray="5,2" d="M221,-375.945C221,-359.257 221,-336.639 221,-323.552"/>
<polygon fill="#9a32cd" stroke="#9a32cd" points="217.5,-376.361 221,-386.361 224.5,-376.361 217.5,-376.361"/>
<text text-anchor="middle" x="250" y="-359" font-family="Helvetica,sans-Serif" font-size="10.00"> tetgenoutput</text>
<text text-anchor="middle" x="250" y="-346" font-family="Helvetica,sans-Serif" font-size="10.00">tetgeninput</text>
</g>
<!-- Node9 -->
<g id="node16" class="node"><title>Node9</title>
<a xlink:href="structtetgenio_1_1vorofacet.xhtml" target="_top" xlink:title="tetgenio::vorofacet">
<polygon fill="none" stroke="black" points="0,-458.5 0,-479.5 98,-479.5 98,-458.5 0,-458.5"/>
<text text-anchor="middle" x="49" y="-466.5" font-family="Helvetica,sans-Serif" font-size="10.00">tetgenio::vorofacet</text>
</a>
</g>
<!-- Node9&#45;&gt;Node8 -->
<g id="edge16" class="edge"><title>Node9&#45;&gt;Node8</title>
<path fill="none" stroke="#9a32cd" stroke-dasharray="5,2" d="M77.2448,-453.638C93.808,-444.944 115.29,-434.205 135,-426 154.929,-417.704 178.157,-409.982 195.446,-404.596"/>
<polygon fill="#9a32cd" stroke="#9a32cd" points="75.3037,-450.705 68.1116,-458.485 78.5855,-456.888 75.3037,-450.705"/>
<text text-anchor="middle" x="156.5" y="-430.5" font-family="Helvetica,sans-Serif" font-size="10.00"> vfacetlist</text>
</g>
<!-- Node10 -->
<g id="node18" class="node"><title>Node10</title>
<a xlink:href="structtetgenio_1_1facet.xhtml" target="_top" xlink:title="tetgenio::facet">
<polygon fill="none" stroke="black" points="115.5,-458.5 115.5,-479.5 194.5,-479.5 194.5,-458.5 115.5,-458.5"/>
<text text-anchor="middle" x="155" y="-466.5" font-family="Helvetica,sans-Serif" font-size="10.00">tetgenio::facet</text>
</a>
</g>
<!-- Node10&#45;&gt;Node8 -->
<g id="edge18" class="edge"><title>Node10&#45;&gt;Node8</title>
<path fill="none" stroke="#9a32cd" stroke-dasharray="5,2" d="M171.53,-450.968C184.031,-437.329 200.774,-419.064 211.222,-407.667"/>
<polygon fill="#9a32cd" stroke="#9a32cd" points="168.916,-448.64 164.739,-458.376 174.076,-453.37 168.916,-448.64"/>
<text text-anchor="middle" x="212" y="-430.5" font-family="Helvetica,sans-Serif" font-size="10.00"> facetlist</text>
</g>
<!-- Node11 -->
<g id="node20" class="node"><title>Node11</title>
<a xlink:href="structtetgenio_1_1polygon.xhtml" target="_top" xlink:title="tetgenio::polygon">
<polygon fill="none" stroke="black" points="109.5,-530.5 109.5,-551.5 200.5,-551.5 200.5,-530.5 109.5,-530.5"/>
<text text-anchor="middle" x="155" y="-538.5" font-family="Helvetica,sans-Serif" font-size="10.00">tetgenio::polygon</text>
</a>
</g>
<!-- Node11&#45;&gt;Node10 -->
<g id="edge20" class="edge"><title>Node11&#45;&gt;Node10</title>
<path fill="none" stroke="#9a32cd" stroke-dasharray="5,2" d="M155,-520.235C155,-506.969 155,-490.319 155,-479.667"/>
<polygon fill="#9a32cd" stroke="#9a32cd" points="151.5,-520.376 155,-530.376 158.5,-520.376 151.5,-520.376"/>
<text text-anchor="middle" x="180" y="-502.5" font-family="Helvetica,sans-Serif" font-size="10.00"> polygonlist</text>
</g>
<!-- Node12 -->
<g id="node22" class="node"><title>Node12</title>
<a xlink:href="structtetgenio_1_1pointparam.xhtml" target="_top" xlink:title="tetgenio::pointparam">
<polygon fill="none" stroke="black" points="211.5,-458.5 211.5,-479.5 316.5,-479.5 316.5,-458.5 211.5,-458.5"/>
<text text-anchor="middle" x="264" y="-466.5" font-family="Helvetica,sans-Serif" font-size="10.00">tetgenio::pointparam</text>
</a>
</g>
<!-- Node12&#45;&gt;Node8 -->
<g id="edge22" class="edge"><title>Node12&#45;&gt;Node8</title>
<path fill="none" stroke="#9a32cd" stroke-dasharray="5,2" d="M252.306,-449.419C244.276,-435.973 233.923,-418.638 227.371,-407.667"/>
<polygon fill="#9a32cd" stroke="#9a32cd" points="249.523,-451.585 257.655,-458.376 255.533,-447.996 249.523,-451.585"/>
<text text-anchor="middle" x="278" y="-430.5" font-family="Helvetica,sans-Serif" font-size="10.00"> pointparamlist</text>
</g>
<!-- Node13 -->
<g id="node24" class="node"><title>Node13</title>
<a xlink:href="structtetgenio_1_1voroedge.xhtml" target="_top" xlink:title="tetgenio::voroedge">
<polygon fill="none" stroke="black" points="333.5,-458.5 333.5,-479.5 430.5,-479.5 430.5,-458.5 333.5,-458.5"/>
<text text-anchor="middle" x="382" y="-466.5" font-family="Helvetica,sans-Serif" font-size="10.00">tetgenio::voroedge</text>
</a>
</g>
<!-- Node13&#45;&gt;Node8 -->
<g id="edge24" class="edge"><title>Node13&#45;&gt;Node8</title>
<path fill="none" stroke="#9a32cd" stroke-dasharray="5,2" d="M359.542,-452.697C346.681,-443.907 329.967,-433.382 314,-426 292.048,-415.851 265.602,-407.991 246.532,-403.03"/>
<polygon fill="#9a32cd" stroke="#9a32cd" points="357.572,-455.59 367.775,-458.445 361.579,-449.85 357.572,-455.59"/>
<text text-anchor="middle" x="360.5" y="-430.5" font-family="Helvetica,sans-Serif" font-size="10.00"> vedgelist</text>
</g>
<!-- Node14 -->
<g id="node26" class="node"><title>Node14</title>
<a xlink:href="classstd_1_1vector.xhtml" target="_top" xlink:title="std::vector\&lt; SensorData \&gt;">
<polygon fill="none" stroke="black" points="299.5,-223.5 299.5,-244.5 432.5,-244.5 432.5,-223.5 299.5,-223.5"/>
<text text-anchor="middle" x="366" y="-231.5" font-family="Helvetica,sans-Serif" font-size="10.00">std::vector&lt; SensorData &gt;</text>
</a>
</g>
<!-- Node14&#45;&gt;Node5 -->
<g id="edge26" class="edge"><title>Node14&#45;&gt;Node5</title>
<path fill="none" stroke="#9a32cd" stroke-dasharray="5,2" d="M356.711,-214.166C349.521,-198.815 339.839,-178.143 334.029,-165.738"/>
<polygon fill="#9a32cd" stroke="#9a32cd" points="353.599,-215.774 361.01,-223.346 359.938,-212.805 353.599,-215.774"/>
<text text-anchor="middle" x="383" y="-188.5" font-family="Helvetica,sans-Serif" font-size="10.00"> sensorDataList</text>
</g>
</g>
</svg>
