<?xml version="1.0" encoding="UTF-8" standalone="no"?>
<!DOCTYPE svg PUBLIC "-//W3C//DTD SVG 1.1//EN"
 "http://www.w3.org/Graphics/SVG/1.1/DTD/svg11.dtd">
<!-- Generated by graphviz version 2.26.3 (20100126.1600)
 -->
<!-- Title: tetgenmesh::insphere_s Pages: 1 -->
<!--zoomable 195 -->
<svg id="main" version="1.1" xmlns="http://www.w3.org/2000/svg" xmlns:xlink="http://www.w3.org/1999/xlink" xml:space="preserve" onload="init(evt)">
<style type="text/css"><![CDATA[
.edge:hover path { stroke: red; }
.edge:hover polygon { stroke: red; fill: red; }
]]></style>
<script type="text/javascript"><![CDATA[
var edges = document.getElementsByTagName('g');
if (edges && edges.length) {
  for (var i=0;i<edges.length;i++) {
    if (edges[i].id.substr(0,4)=='edge') {
      edges[i].setAttribute('class','edge');
    }
  }
}
]]></script>
        <defs>
                <circle id="rim" cx="0" cy="0" r="7"/>
                <circle id="rim2" cx="0" cy="0" r="3.5"/>
                <g id="zoomPlus">
                        <use xlink:href="#rim" fill="#404040">
                                <set attributeName="fill" to="#808080" begin="zoomplus.mouseover" end="zoomplus.mouseout"/>
                        </use>
                        <path d="M-4,0h8M0,-4v8" fill="none" stroke="white" stroke-width="1.5" pointer-events="none"/>
                </g>
                <g id="zoomMin">
                        <use xlink:href="#rim" fill="#404040">
                                <set attributeName="fill" to="#808080" begin="zoomminus.mouseover" end="zoomminus.mouseout"/>
                        </use>
                        <path d="M-4,0h8" fill="none" stroke="white" stroke-width="1.5" pointer-events="none"/>
                </g>
                <g id="dirArrow">
                        <path fill="none" stroke="white" stroke-width="1.5" d="M0,-3.0v7 M-2.5,-0.5L0,-3.0L2.5,-0.5"/>
                </g>
               <g id="resetDef">
                       <use xlink:href="#rim2" fill="#404040">
                               <set attributeName="fill" to="#808080" begin="reset.mouseover" end="reset.mouseout"/>
                       </use>
               </g>
        </defs>

<script type="text/javascript">
var viewWidth = 678;
var viewHeight = 195;
var sectionId = 'dynsection-190';
</script>
<script xlink:href="svgpan.js"/>
<svg id="graph" class="graph">
<g id="viewport">
<title>tetgenmesh::insphere_s</title>
<!-- Node1 -->
<g id="node1" class="node"><title>Node1</title>
<polygon fill="#bfbfbf" stroke="black" points="0.5,-40.5 0.5,-61.5 121.5,-61.5 121.5,-40.5 0.5,-40.5"/>
<text text-anchor="middle" x="61" y="-48.5" font-family="Helvetica,sans-Serif" font-size="10.00">tetgenmesh::insphere_s</text>
</g>
<!-- Node2 -->
<g id="node3" class="node"><title>Node2</title>
<a xlink:href="predicates_8cxx.xhtml#a6856d0058088615e8f10f983a6bdef08" target="_top" xlink:title="insphere">
<polygon fill="none" stroke="black" points="189.5,-99.5 189.5,-120.5 242.5,-120.5 242.5,-99.5 189.5,-99.5"/>
<text text-anchor="middle" x="216" y="-107.5" font-family="Helvetica,sans-Serif" font-size="10.00">insphere</text>
</a>
</g>
<!-- Node1&#45;&gt;Node2 -->
<g id="edge2" class="edge"><title>Node1&#45;&gt;Node2</title>
<path fill="none" stroke="midnightblue" d="M88.7109,-61.548C114.182,-71.2435 152.096,-85.6753 179.922,-96.267"/>
<polygon fill="midnightblue" stroke="midnightblue" points="178.715,-99.5527 189.306,-99.8392 181.206,-93.0106 178.715,-99.5527"/>
</g>
<!-- Node8 -->
<g id="node17" class="node"><title>Node8</title>
<a xlink:href="classtetgenmesh.xhtml#a46fa5fabd0e8e806f7f8beb069732e21" target="_top" xlink:title="tetgenmesh::pointmark">
<polygon fill="none" stroke="black" points="158,-0.5 158,-21.5 274,-21.5 274,-0.5 158,-0.5"/>
<text text-anchor="middle" x="216" y="-8.5" font-family="Helvetica,sans-Serif" font-size="10.00">tetgenmesh::pointmark</text>
</a>
</g>
<!-- Node1&#45;&gt;Node8 -->
<g id="edge18" class="edge"><title>Node1&#45;&gt;Node8</title>
<path fill="none" stroke="midnightblue" d="M101.724,-40.4905C121.226,-35.4578 144.772,-29.3814 165.411,-24.0552"/>
<polygon fill="midnightblue" stroke="midnightblue" points="166.471,-27.3965 175.279,-21.5087 164.721,-20.6186 166.471,-27.3965"/>
</g>
<!-- Node9 -->
<g id="node19" class="node"><title>Node9</title>
<a xlink:href="predicates_8cxx.xhtml#a701f35178b28c7bbb94644665c0b058a" target="_top" xlink:title="orient3d">
<polygon fill="none" stroke="black" points="190.5,-40.5 190.5,-61.5 241.5,-61.5 241.5,-40.5 190.5,-40.5"/>
<text text-anchor="middle" x="216" y="-48.5" font-family="Helvetica,sans-Serif" font-size="10.00">orient3d</text>
</a>
</g>
<!-- Node1&#45;&gt;Node9 -->
<g id="edge20" class="edge"><title>Node1&#45;&gt;Node9</title>
<path fill="none" stroke="midnightblue" d="M121.815,-51C141.481,-51 162.652,-51 179.931,-51"/>
<polygon fill="midnightblue" stroke="midnightblue" points="180.138,-54.5001 190.138,-51 180.138,-47.5001 180.138,-54.5001"/>
</g>
<!-- Node3 -->
<g id="node5" class="node"><title>Node3</title>
<a xlink:href="predicates_8cxx.xhtml#aff1beabe144889954e1a63692f0f4d00" target="_top" xlink:title="insphereadapt">
<polygon fill="none" stroke="black" points="310.5,-108.5 310.5,-129.5 387.5,-129.5 387.5,-108.5 310.5,-108.5"/>
<text text-anchor="middle" x="349" y="-116.5" font-family="Helvetica,sans-Serif" font-size="10.00">insphereadapt</text>
</a>
</g>
<!-- Node2&#45;&gt;Node3 -->
<g id="edge4" class="edge"><title>Node2&#45;&gt;Node3</title>
<path fill="none" stroke="midnightblue" d="M242.595,-111.8C259.045,-112.913 280.664,-114.376 300.117,-115.692"/>
<polygon fill="midnightblue" stroke="midnightblue" points="300.139,-119.202 310.352,-116.385 300.611,-112.217 300.139,-119.202"/>
</g>
<!-- Node4 -->
<g id="node7" class="node"><title>Node4</title>
<a xlink:href="predicates_8cxx.xhtml#abdcdaa8948d9a2937154d9d67f67da8d" target="_top" xlink:title="scale_expansion_zeroelim">
<polygon fill="none" stroke="black" points="538.5,-150.5 538.5,-171.5 669.5,-171.5 669.5,-150.5 538.5,-150.5"/>
<text text-anchor="middle" x="604" y="-158.5" font-family="Helvetica,sans-Serif" font-size="10.00">scale_expansion_zeroelim</text>
</a>
</g>
<!-- Node3&#45;&gt;Node4 -->
<g id="edge6" class="edge"><title>Node3&#45;&gt;Node4</title>
<path fill="none" stroke="midnightblue" d="M358.323,-129.89C371.33,-144.152 396.447,-168.461 424,-178 469.821,-193.863 525.884,-184.392 563.145,-174.385"/>
<polygon fill="midnightblue" stroke="midnightblue" points="564.457,-177.651 573.132,-171.569 562.557,-170.914 564.457,-177.651"/>
</g>
<!-- Node5 -->
<g id="node9" class="node"><title>Node5</title>
<a xlink:href="predicates_8cxx.xhtml#a37646a7e0014e10c612e946bc95aeeea" target="_top" xlink:title="fast_expansion_sum\l_zeroelim">
<polygon fill="none" stroke="black" points="550.5,-98 550.5,-132 657.5,-132 657.5,-98 550.5,-98"/>
<text text-anchor="start" x="558.5" y="-119" font-family="Helvetica,sans-Serif" font-size="10.00">fast_expansion_sum</text>
<text text-anchor="middle" x="604" y="-106" font-family="Helvetica,sans-Serif" font-size="10.00">_zeroelim</text>
</a>
</g>
<!-- Node3&#45;&gt;Node5 -->
<g id="edge8" class="edge"><title>Node3&#45;&gt;Node5</title>
<path fill="none" stroke="midnightblue" d="M387.729,-118.392C428.098,-117.759 492.036,-116.756 539.94,-116.005"/>
<polygon fill="midnightblue" stroke="midnightblue" points="540.267,-119.5 550.211,-115.844 540.157,-112.501 540.267,-119.5"/>
</g>
<!-- Node6 -->
<g id="node11" class="node"><title>Node6</title>
<a xlink:href="predicates_8cxx.xhtml#a3487d9f90ea72da543d5d38b3dab1fbc" target="_top" xlink:title="estimate">
<polygon fill="none" stroke="black" points="436,-69.5 436,-90.5 490,-90.5 490,-69.5 436,-69.5"/>
<text text-anchor="middle" x="463" y="-77.5" font-family="Helvetica,sans-Serif" font-size="10.00">estimate</text>
</a>
</g>
<!-- Node3&#45;&gt;Node6 -->
<g id="edge10" class="edge"><title>Node3&#45;&gt;Node6</title>
<path fill="none" stroke="midnightblue" d="M379.85,-108.446C394.13,-103.561 411.206,-97.7189 426.158,-92.6038"/>
<polygon fill="midnightblue" stroke="midnightblue" points="427.297,-95.9132 435.626,-89.3647 425.032,-89.2901 427.297,-95.9132"/>
</g>
<!-- Node7 -->
<g id="node13" class="node"><title>Node7</title>
<a xlink:href="predicates_8cxx.xhtml#a1b7f36a00bcca4ab972133f190d07b35" target="_top" xlink:title="insphereexact">
<polygon fill="none" stroke="black" points="424.5,-147.5 424.5,-168.5 501.5,-168.5 501.5,-147.5 424.5,-147.5"/>
<text text-anchor="middle" x="463" y="-155.5" font-family="Helvetica,sans-Serif" font-size="10.00">insphereexact</text>
</a>
</g>
<!-- Node3&#45;&gt;Node7 -->
<g id="edge12" class="edge"><title>Node3&#45;&gt;Node7</title>
<path fill="none" stroke="midnightblue" d="M379.85,-129.554C392.903,-134.02 408.292,-139.284 422.26,-144.063"/>
<polygon fill="midnightblue" stroke="midnightblue" points="421.531,-147.512 432.125,-147.438 423.797,-140.889 421.531,-147.512"/>
</g>
<!-- Node7&#45;&gt;Node4 -->
<g id="edge14" class="edge"><title>Node7&#45;&gt;Node4</title>
<path fill="none" stroke="midnightblue" d="M501.529,-158.82C509.912,-158.998 519.06,-159.193 528.328,-159.39"/>
<polygon fill="midnightblue" stroke="midnightblue" points="528.33,-162.891 538.402,-159.604 528.479,-155.892 528.33,-162.891"/>
</g>
<!-- Node7&#45;&gt;Node5 -->
<g id="edge16" class="edge"><title>Node7&#45;&gt;Node5</title>
<path fill="none" stroke="midnightblue" d="M497.492,-147.481C510.534,-143.504 525.823,-138.841 540.681,-134.31"/>
<polygon fill="midnightblue" stroke="midnightblue" points="541.811,-137.625 550.355,-131.36 539.769,-130.929 541.811,-137.625"/>
</g>
<!-- Node10 -->
<g id="node21" class="node"><title>Node10</title>
<a xlink:href="predicates_8cxx.xhtml#ae16b246ccaad9f1d90f37590816c5fde" target="_top" xlink:title="orient3dadapt">
<polygon fill="none" stroke="black" points="311.5,-35.5 311.5,-56.5 386.5,-56.5 386.5,-35.5 311.5,-35.5"/>
<text text-anchor="middle" x="349" y="-43.5" font-family="Helvetica,sans-Serif" font-size="10.00">orient3dadapt</text>
</a>
</g>
<!-- Node9&#45;&gt;Node10 -->
<g id="edge22" class="edge"><title>Node9&#45;&gt;Node10</title>
<path fill="none" stroke="midnightblue" d="M241.644,-50.0359C258.485,-49.4028 281.034,-48.5551 301.119,-47.8"/>
<polygon fill="midnightblue" stroke="midnightblue" points="301.493,-51.2886 311.354,-47.4153 301.23,-44.2935 301.493,-51.2886"/>
</g>
<!-- Node10&#45;&gt;Node4 -->
<g id="edge24" class="edge"><title>Node10&#45;&gt;Node4</title>
<path fill="none" stroke="midnightblue" d="M386.612,-39.4992C420.028,-35.8636 468.614,-36.0689 502,-60 534.019,-82.9513 508.471,-114.923 538,-141 539.75,-142.545 541.616,-143.971 543.571,-145.287"/>
<polygon fill="midnightblue" stroke="midnightblue" points="542.191,-148.527 552.622,-150.38 545.623,-142.426 542.191,-148.527"/>
</g>
<!-- Node10&#45;&gt;Node5 -->
<g id="edge26" class="edge"><title>Node10&#45;&gt;Node5</title>
<path fill="none" stroke="midnightblue" d="M375.31,-35.4469C406.503,-24.5667 459.6,-11.2374 502,-27 535.629,-39.5018 565.581,-68.6193 584.187,-89.9502"/>
<polygon fill="midnightblue" stroke="midnightblue" points="581.612,-92.3255 590.746,-97.6933 586.953,-87.8008 581.612,-92.3255"/>
</g>
<!-- Node10&#45;&gt;Node6 -->
<g id="edge28" class="edge"><title>Node10&#45;&gt;Node6</title>
<path fill="none" stroke="midnightblue" d="M384.445,-56.5714C397.675,-60.5171 412.721,-65.0046 426.08,-68.9888"/>
<polygon fill="midnightblue" stroke="midnightblue" points="425.326,-72.4161 435.909,-71.9202 427.327,-65.7081 425.326,-72.4161"/>
</g>
</g>
</svg>
        <g id="navigator" transform="translate(0 0)" fill="#404254">
                <rect fill="#f2f5e9" fill-opacity="0.5" stroke="#606060" stroke-width=".5" x="0" y="0" width="60" height="60"/>
                <use id="zoomplus" xlink:href="#zoomPlus" x="17" y="9" onmousedown="handleZoom(evt,'in')"/>
                <use id="zoomminus" xlink:href="#zoomMin" x="42" y="9" onmousedown="handleZoom(evt,'out')"/>
                <use id="reset" xlink:href="#resetDef" x="30" y="36" onmousedown="handleReset()"/>
                <g id="arrowUp" xlink:href="#dirArrow" transform="translate(30 24)" onmousedown="handlePan(0,-1)">
                  <use xlink:href="#rim" fill="#404040">
                        <set attributeName="fill" to="#808080" begin="arrowUp.mouseover" end="arrowUp.mouseout"/>
                  </use>
                  <path fill="none" stroke="white" stroke-width="1.5" d="M0,-3.0v7 M-2.5,-0.5L0,-3.0L2.5,-0.5"/>
                </g>
                <g id="arrowRight" xlink:href="#dirArrow" transform="rotate(90) translate(36 -43)" onmousedown="handlePan(1,0)">
                  <use xlink:href="#rim" fill="#404040">
                        <set attributeName="fill" to="#808080" begin="arrowRight.mouseover" end="arrowRight.mouseout"/>
                  </use>
                  <path fill="none" stroke="white" stroke-width="1.5" d="M0,-3.0v7 M-2.5,-0.5L0,-3.0L2.5,-0.5"/>
                </g>
                <g id="arrowDown" xlink:href="#dirArrow" transform="rotate(180) translate(-30 -48)" onmousedown="handlePan(0,1)">
                  <use xlink:href="#rim" fill="#404040">
                        <set attributeName="fill" to="#808080" begin="arrowDown.mouseover" end="arrowDown.mouseout"/>
                  </use>
                  <path fill="none" stroke="white" stroke-width="1.5" d="M0,-3.0v7 M-2.5,-0.5L0,-3.0L2.5,-0.5"/>
                </g>
                <g id="arrowLeft" xlink:href="#dirArrow" transform="rotate(270) translate(-36 17)" onmousedown="handlePan(-1,0)">
                  <use xlink:href="#rim" fill="#404040">
                        <set attributeName="fill" to="#808080" begin="arrowLeft.mouseover" end="arrowLeft.mouseout"/>
                  </use>
                  <path fill="none" stroke="white" stroke-width="1.5" d="M0,-3.0v7 M-2.5,-0.5L0,-3.0L2.5,-0.5"/>
                </g>
        </g>
        <svg viewBox="0 0 15 15" width="100%" height="30px" preserveAspectRatio="xMaxYMin meet">
         <g id="arrow_out" transform="scale(0.3 0.3)">
          <a xlink:href="classtetgenmesh_ae0d6ddfffb8154c7658b8dd17fc51412_cgraph_org.svg" target="_base">
           <rect id="button" ry="5" rx="5" y="6" x="6" height="38" width="38"
                fill="#f2f5e9" fill-opacity="0.5" stroke="#606060" stroke-width="1.0"/>
           <path id="arrow"
             d="M 11.500037,31.436501 C 11.940474,20.09759 22.043105,11.32322 32.158766,21.979434 L 37.068811,17.246167 C 37.068811,17.246167 37.088388,32 37.088388,32 L 22.160133,31.978069 C 22.160133,31.978069 26.997745,27.140456 26.997745,27.140456 C 18.528582,18.264221 13.291696,25.230495 11.500037,31.436501 z"
             style="fill:#404040;"/>
          </a>
         </g>
        </svg>
</svg>
