<?xml version="1.0" encoding="UTF-8" standalone="no"?>
<!DOCTYPE svg PUBLIC "-//W3C//DTD SVG 1.1//EN"
 "http://www.w3.org/Graphics/SVG/1.1/DTD/svg11.dtd">
<!-- Generated by graphviz version 2.26.3 (20100126.1600)
 -->
<!-- Title: tetgenmesh::checkfac4split Pages: 1 -->
<!--zoomable 588 -->
<svg id="main" version="1.1" xmlns="http://www.w3.org/2000/svg" xmlns:xlink="http://www.w3.org/1999/xlink" xml:space="preserve" onload="init(evt)">
<style type="text/css"><![CDATA[
.edge:hover path { stroke: red; }
.edge:hover polygon { stroke: red; fill: red; }
]]></style>
<script type="text/javascript"><![CDATA[
var edges = document.getElementsByTagName('g');
if (edges && edges.length) {
  for (var i=0;i<edges.length;i++) {
    if (edges[i].id.substr(0,4)=='edge') {
      edges[i].setAttribute('class','edge');
    }
  }
}
]]></script>
        <defs>
                <circle id="rim" cx="0" cy="0" r="7"/>
                <circle id="rim2" cx="0" cy="0" r="3.5"/>
                <g id="zoomPlus">
                        <use xlink:href="#rim" fill="#404040">
                                <set attributeName="fill" to="#808080" begin="zoomplus.mouseover" end="zoomplus.mouseout"/>
                        </use>
                        <path d="M-4,0h8M0,-4v8" fill="none" stroke="white" stroke-width="1.5" pointer-events="none"/>
                </g>
                <g id="zoomMin">
                        <use xlink:href="#rim" fill="#404040">
                                <set attributeName="fill" to="#808080" begin="zoomminus.mouseover" end="zoomminus.mouseout"/>
                        </use>
                        <path d="M-4,0h8" fill="none" stroke="white" stroke-width="1.5" pointer-events="none"/>
                </g>
                <g id="dirArrow">
                        <path fill="none" stroke="white" stroke-width="1.5" d="M0,-3.0v7 M-2.5,-0.5L0,-3.0L2.5,-0.5"/>
                </g>
               <g id="resetDef">
                       <use xlink:href="#rim2" fill="#404040">
                               <set attributeName="fill" to="#808080" begin="reset.mouseover" end="reset.mouseout"/>
                       </use>
               </g>
        </defs>

<script type="text/javascript">
var viewWidth = 456;
var viewHeight = 588;
var sectionId = 'dynsection-29';
</script>
<script xlink:href="svgpan.js"/>
<svg id="graph" class="graph">
<g id="viewport">
<title>tetgenmesh::checkfac4split</title>
<!-- Node1 -->
<g id="node1" class="node"><title>Node1</title>
<polygon fill="#bfbfbf" stroke="black" points="0.5,-280.5 0.5,-301.5 137.5,-301.5 137.5,-280.5 0.5,-280.5"/>
<text text-anchor="middle" x="69" y="-288.5" font-family="Helvetica,sans-Serif" font-size="10.00">tetgenmesh::checkfac4split</text>
</g>
<!-- Node2 -->
<g id="node3" class="node"><title>Node2</title>
<a xlink:href="classtetgenmesh.xhtml#a55db9a054b722d91a17b82d442f88f4c" target="_top" xlink:title="tetgenmesh::sorg">
<polygon fill="none" stroke="black" points="194,-558.5 194,-579.5 286,-579.5 286,-558.5 194,-558.5"/>
<text text-anchor="middle" x="240" y="-566.5" font-family="Helvetica,sans-Serif" font-size="10.00">tetgenmesh::sorg</text>
</a>
</g>
<!-- Node1&#45;&gt;Node2 -->
<g id="edge2" class="edge"><title>Node1&#45;&gt;Node2</title>
<path fill="none" stroke="midnightblue" d="M70.1043,-301.671C74.7307,-340.823 96.0962,-477.972 174,-549 177.185,-551.904 180.78,-554.387 184.605,-556.509"/>
<polygon fill="midnightblue" stroke="midnightblue" points="183.326,-559.775 193.868,-560.837 186.29,-553.433 183.326,-559.775"/>
</g>
<!-- Node3 -->
<g id="node5" class="node"><title>Node3</title>
<a xlink:href="classtetgenmesh.xhtml#aa6017928ea3dc0b8ba39e7f24ea312b2" target="_top" xlink:title="tetgenmesh::sdest">
<polygon fill="none" stroke="black" points="191,-518.5 191,-539.5 289,-539.5 289,-518.5 191,-518.5"/>
<text text-anchor="middle" x="240" y="-526.5" font-family="Helvetica,sans-Serif" font-size="10.00">tetgenmesh::sdest</text>
</a>
</g>
<!-- Node1&#45;&gt;Node3 -->
<g id="edge4" class="edge"><title>Node1&#45;&gt;Node3</title>
<path fill="none" stroke="midnightblue" d="M71.0372,-301.957C78.2201,-337.479 105.713,-450.532 174,-509 176.379,-511.037 178.961,-512.866 181.679,-514.509"/>
<polygon fill="midnightblue" stroke="midnightblue" points="180.248,-517.708 190.744,-519.148 183.437,-511.477 180.248,-517.708"/>
</g>
<!-- Node4 -->
<g id="node7" class="node"><title>Node4</title>
<a xlink:href="classtetgenmesh.xhtml#a273687e8175a97ef3d97e4d3a5d03d3c" target="_top" xlink:title="tetgenmesh::sapex">
<polygon fill="none" stroke="black" points="190,-478.5 190,-499.5 290,-499.5 290,-478.5 190,-478.5"/>
<text text-anchor="middle" x="240" y="-486.5" font-family="Helvetica,sans-Serif" font-size="10.00">tetgenmesh::sapex</text>
</a>
</g>
<!-- Node1&#45;&gt;Node4 -->
<g id="edge6" class="edge"><title>Node1&#45;&gt;Node4</title>
<path fill="none" stroke="midnightblue" d="M72.2139,-301.667C82.054,-332.491 114.758,-422.446 174,-469 176.295,-470.803 178.751,-472.444 181.317,-473.938"/>
<polygon fill="midnightblue" stroke="midnightblue" points="179.879,-477.132 190.389,-478.469 183.006,-470.869 179.879,-477.132"/>
</g>
<!-- Node5 -->
<g id="node9" class="node"><title>Node5</title>
<a xlink:href="classtetgenmesh.xhtml#a9b5ff4d3e2452044830fbd47d2f70cbd" target="_top" xlink:title="tetgenmesh::cross">
<polygon fill="none" stroke="black" points="191,-438.5 191,-459.5 289,-459.5 289,-438.5 191,-438.5"/>
<text text-anchor="middle" x="240" y="-446.5" font-family="Helvetica,sans-Serif" font-size="10.00">tetgenmesh::cross</text>
</a>
</g>
<!-- Node1&#45;&gt;Node5 -->
<g id="edge8" class="edge"><title>Node1&#45;&gt;Node5</title>
<path fill="none" stroke="midnightblue" d="M74.646,-301.569C88.4014,-326.375 126.063,-388.879 174,-424 179.512,-428.038 185.754,-431.503 192.147,-434.454"/>
<polygon fill="midnightblue" stroke="midnightblue" points="190.979,-437.759 201.554,-438.414 193.696,-431.308 190.979,-437.759"/>
</g>
<!-- Node6 -->
<g id="node11" class="node"><title>Node6</title>
<a xlink:href="classtetgenmesh.xhtml#afa0906703b590597155547336c360004" target="_top" xlink:title="tetgenmesh::dot">
<polygon fill="none" stroke="black" points="351.5,-359.5 351.5,-380.5 438.5,-380.5 438.5,-359.5 351.5,-359.5"/>
<text text-anchor="middle" x="395" y="-367.5" font-family="Helvetica,sans-Serif" font-size="10.00">tetgenmesh::dot</text>
</a>
</g>
<!-- Node1&#45;&gt;Node6 -->
<g id="edge10" class="edge"><title>Node1&#45;&gt;Node6</title>
<path fill="none" stroke="midnightblue" d="M75.8236,-301.552C90.5974,-323.293 127.955,-372.582 174,-391 234.881,-415.352 312.45,-398.061 357.637,-383.722"/>
<polygon fill="midnightblue" stroke="midnightblue" points="358.907,-386.989 367.312,-380.539 356.719,-380.34 358.907,-386.989"/>
</g>
<!-- Node7 -->
<g id="node13" class="node"><title>Node7</title>
<a xlink:href="classtetgenmesh.xhtml#abc03dce4c75ad6ba7086269b1a71fd8b" target="_top" xlink:title="tetgenmesh::lu_decmp">
<polygon fill="none" stroke="black" points="182,-360.5 182,-381.5 298,-381.5 298,-360.5 182,-360.5"/>
<text text-anchor="middle" x="240" y="-368.5" font-family="Helvetica,sans-Serif" font-size="10.00">tetgenmesh::lu_decmp</text>
</a>
</g>
<!-- Node1&#45;&gt;Node7 -->
<g id="edge12" class="edge"><title>Node1&#45;&gt;Node7</title>
<path fill="none" stroke="midnightblue" d="M84.7832,-301.527C104.836,-314.541 140.833,-336.715 174,-351 179.155,-353.22 184.634,-355.298 190.147,-357.211"/>
<polygon fill="midnightblue" stroke="midnightblue" points="189.45,-360.666 200.043,-360.471 191.641,-354.018 189.45,-360.666"/>
</g>
<!-- Node8 -->
<g id="node15" class="node"><title>Node8</title>
<a xlink:href="classtetgenmesh.xhtml#a6a19601c86a49eed0d2273f1d3b69826" target="_top" xlink:title="tetgenmesh::lu_solve">
<polygon fill="none" stroke="black" points="185,-320.5 185,-341.5 295,-341.5 295,-320.5 185,-320.5"/>
<text text-anchor="middle" x="240" y="-328.5" font-family="Helvetica,sans-Serif" font-size="10.00">tetgenmesh::lu_solve</text>
</a>
</g>
<!-- Node1&#45;&gt;Node8 -->
<g id="edge14" class="edge"><title>Node1&#45;&gt;Node8</title>
<path fill="none" stroke="midnightblue" d="M113.928,-301.51C135.736,-306.611 162.129,-312.785 185.119,-318.162"/>
<polygon fill="midnightblue" stroke="midnightblue" points="184.541,-321.622 195.075,-320.491 186.135,-314.806 184.541,-321.622"/>
</g>
<!-- Node9 -->
<g id="node18" class="node"><title>Node9</title>
<a xlink:href="classtetgenmesh.xhtml#a589cf429e209ed7575602ede3d158d93" target="_top" xlink:title="tetgenmesh::areabound">
<polygon fill="none" stroke="black" points="180.5,-280.5 180.5,-301.5 299.5,-301.5 299.5,-280.5 180.5,-280.5"/>
<text text-anchor="middle" x="240" y="-288.5" font-family="Helvetica,sans-Serif" font-size="10.00">tetgenmesh::areabound</text>
</a>
</g>
<!-- Node1&#45;&gt;Node9 -->
<g id="edge18" class="edge"><title>Node1&#45;&gt;Node9</title>
<path fill="none" stroke="midnightblue" d="M137.567,-291C148.27,-291 159.341,-291 170.074,-291"/>
<polygon fill="midnightblue" stroke="midnightblue" points="170.238,-294.5 180.238,-291 170.237,-287.5 170.238,-294.5"/>
</g>
<!-- Node10 -->
<g id="node20" class="node"><title>Node10</title>
<a xlink:href="classtetgenmesh.xhtml#a2d9e294c7e3eb0dc1e75d7972d6fd5cd" target="_top" xlink:title="tetgenmesh::stpivot">
<polygon fill="none" stroke="black" points="188.5,-240.5 188.5,-261.5 291.5,-261.5 291.5,-240.5 188.5,-240.5"/>
<text text-anchor="middle" x="240" y="-248.5" font-family="Helvetica,sans-Serif" font-size="10.00">tetgenmesh::stpivot</text>
</a>
</g>
<!-- Node1&#45;&gt;Node10 -->
<g id="edge20" class="edge"><title>Node1&#45;&gt;Node10</title>
<path fill="none" stroke="midnightblue" d="M113.928,-280.49C135.736,-275.389 162.129,-269.215 185.119,-263.838"/>
<polygon fill="midnightblue" stroke="midnightblue" points="186.135,-267.194 195.075,-261.509 184.541,-260.378 186.135,-267.194"/>
</g>
<!-- Node12 -->
<g id="node24" class="node"><title>Node12</title>
<a xlink:href="classtetgenmesh.xhtml#aa14f996a69b46afb1429ebf35a6e881c" target="_top" xlink:title="tetgenmesh::ishulltet">
<polygon fill="none" stroke="black" points="186.5,-200.5 186.5,-221.5 293.5,-221.5 293.5,-200.5 186.5,-200.5"/>
<text text-anchor="middle" x="240" y="-208.5" font-family="Helvetica,sans-Serif" font-size="10.00">tetgenmesh::ishulltet</text>
</a>
</g>
<!-- Node1&#45;&gt;Node12 -->
<g id="edge24" class="edge"><title>Node1&#45;&gt;Node12</title>
<path fill="none" stroke="midnightblue" d="M84.7832,-280.473C104.836,-267.459 140.833,-245.285 174,-231 179.155,-228.78 184.634,-226.702 190.147,-224.789"/>
<polygon fill="midnightblue" stroke="midnightblue" points="191.641,-227.982 200.043,-221.529 189.45,-221.334 191.641,-227.982"/>
</g>
<!-- Node13 -->
<g id="node26" class="node"><title>Node13</title>
<a xlink:href="classtetgenmesh.xhtml#acbf906f467a4da46e7f89812cef268d7" target="_top" xlink:title="tetgenmesh::volumebound">
<polygon fill="none" stroke="black" points="174.5,-160.5 174.5,-181.5 305.5,-181.5 305.5,-160.5 174.5,-160.5"/>
<text text-anchor="middle" x="240" y="-168.5" font-family="Helvetica,sans-Serif" font-size="10.00">tetgenmesh::volumebound</text>
</a>
</g>
<!-- Node1&#45;&gt;Node13 -->
<g id="edge26" class="edge"><title>Node1&#45;&gt;Node13</title>
<path fill="none" stroke="midnightblue" d="M77.3204,-280.257C93.6597,-259.877 132.022,-215.462 174,-191 177.608,-188.898 181.457,-186.997 185.416,-185.282"/>
<polygon fill="midnightblue" stroke="midnightblue" points="186.754,-188.517 194.788,-181.61 184.201,-181.999 186.754,-188.517"/>
</g>
<!-- Node14 -->
<g id="node28" class="node"><title>Node14</title>
<a xlink:href="classtetgenmesh.xhtml#a57b18059c68cacbe01720c387c19ee9e" target="_top" xlink:title="tetgenmesh::fsymself">
<polygon fill="none" stroke="black" points="184.5,-120.5 184.5,-141.5 295.5,-141.5 295.5,-120.5 184.5,-120.5"/>
<text text-anchor="middle" x="240" y="-128.5" font-family="Helvetica,sans-Serif" font-size="10.00">tetgenmesh::fsymself</text>
</a>
</g>
<!-- Node1&#45;&gt;Node14 -->
<g id="edge28" class="edge"><title>Node1&#45;&gt;Node14</title>
<path fill="none" stroke="midnightblue" d="M73.9521,-280.417C86.6971,-254.341 123.226,-186.545 174,-151 176.832,-149.017 179.865,-147.227 183.017,-145.612"/>
<polygon fill="midnightblue" stroke="midnightblue" points="184.464,-148.799 192.15,-141.507 181.594,-142.415 184.464,-148.799"/>
</g>
<!-- Node15 -->
<g id="node30" class="node"><title>Node15</title>
<a xlink:href="classtetgenmesh.xhtml#a4f2849235299c81ad7d585dc0b657d80" target="_top" xlink:title="tetgenmesh::distance">
<polygon fill="none" stroke="black" points="185,-80.5 185,-101.5 295,-101.5 295,-80.5 185,-80.5"/>
<text text-anchor="middle" x="240" y="-88.5" font-family="Helvetica,sans-Serif" font-size="10.00">tetgenmesh::distance</text>
</a>
</g>
<!-- Node1&#45;&gt;Node15 -->
<g id="edge30" class="edge"><title>Node1&#45;&gt;Node15</title>
<path fill="none" stroke="midnightblue" d="M72.1771,-280.214C81.9175,-249.047 114.378,-158.088 174,-111 176.29,-109.191 178.743,-107.546 181.306,-106.048"/>
<polygon fill="midnightblue" stroke="midnightblue" points="182.997,-109.116 190.371,-101.509 179.862,-102.857 182.997,-109.116"/>
</g>
<!-- Node16 -->
<g id="node32" class="node"><title>Node16</title>
<a xlink:href="classtetgenmesh.xhtml#a2ff33d38976a7bc134380ef8f15c4519" target="_top" xlink:title="tetgenmesh::oppo">
<polygon fill="none" stroke="black" points="192.5,-40.5 192.5,-61.5 287.5,-61.5 287.5,-40.5 192.5,-40.5"/>
<text text-anchor="middle" x="240" y="-48.5" font-family="Helvetica,sans-Serif" font-size="10.00">tetgenmesh::oppo</text>
</a>
</g>
<!-- Node1&#45;&gt;Node16 -->
<g id="edge32" class="edge"><title>Node1&#45;&gt;Node16</title>
<path fill="none" stroke="midnightblue" d="M70.9066,-280.442C77.834,-245.169 104.988,-130.302 174,-71 176.846,-68.5542 179.985,-66.4075 183.302,-64.5234"/>
<polygon fill="midnightblue" stroke="midnightblue" points="184.934,-67.622 192.419,-60.1239 181.892,-61.3176 184.934,-67.622"/>
</g>
<!-- Node17 -->
<g id="node34" class="node"><title>Node17</title>
<a xlink:href="classtetgenmesh.xhtml#a867b8f5e8312c7a918eb96813a6f6de7" target="_top" xlink:title="tetgenmesh::sesymself">
<polygon fill="none" stroke="black" points="180.5,-0.5 180.5,-21.5 299.5,-21.5 299.5,-0.5 180.5,-0.5"/>
<text text-anchor="middle" x="240" y="-8.5" font-family="Helvetica,sans-Serif" font-size="10.00">tetgenmesh::sesymself</text>
</a>
</g>
<!-- Node1&#45;&gt;Node17 -->
<g id="edge34" class="edge"><title>Node1&#45;&gt;Node17</title>
<path fill="none" stroke="midnightblue" d="M70.0764,-280.248C74.6053,-240.799 95.6741,-102.606 174,-31 175.687,-29.4575 177.49,-28.0338 179.382,-26.7199"/>
<polygon fill="midnightblue" stroke="midnightblue" points="181.264,-29.6745 188.162,-21.633 177.754,-23.6176 181.264,-29.6745"/>
</g>
<!-- Node8&#45;&gt;Node6 -->
<g id="edge16" class="edge"><title>Node8&#45;&gt;Node6</title>
<path fill="none" stroke="midnightblue" d="M281.945,-341.554C300.813,-346.301 323.27,-351.952 343.179,-356.961"/>
<polygon fill="midnightblue" stroke="midnightblue" points="342.469,-360.392 353.021,-359.438 344.178,-353.603 342.469,-360.392"/>
</g>
<!-- Node11 -->
<g id="node22" class="node"><title>Node11</title>
<a xlink:href="classtetgenmesh.xhtml#a809cfdec35ae9a52670e045823a302c0" target="_top" xlink:title="tetgenmesh::decode">
<polygon fill="none" stroke="black" points="342.5,-240.5 342.5,-261.5 447.5,-261.5 447.5,-240.5 342.5,-240.5"/>
<text text-anchor="middle" x="395" y="-248.5" font-family="Helvetica,sans-Serif" font-size="10.00">tetgenmesh::decode</text>
</a>
</g>
<!-- Node10&#45;&gt;Node11 -->
<g id="edge22" class="edge"><title>Node10&#45;&gt;Node11</title>
<path fill="none" stroke="midnightblue" d="M291.613,-251C304.596,-251 318.673,-251 332.139,-251"/>
<polygon fill="midnightblue" stroke="midnightblue" points="332.289,-254.5 342.289,-251 332.289,-247.5 332.289,-254.5"/>
</g>
</g>
</svg>
        <g id="navigator" transform="translate(0 0)" fill="#404254">
                <rect fill="#f2f5e9" fill-opacity="0.5" stroke="#606060" stroke-width=".5" x="0" y="0" width="60" height="60"/>
                <use id="zoomplus" xlink:href="#zoomPlus" x="17" y="9" onmousedown="handleZoom(evt,'in')"/>
                <use id="zoomminus" xlink:href="#zoomMin" x="42" y="9" onmousedown="handleZoom(evt,'out')"/>
                <use id="reset" xlink:href="#resetDef" x="30" y="36" onmousedown="handleReset()"/>
                <g id="arrowUp" xlink:href="#dirArrow" transform="translate(30 24)" onmousedown="handlePan(0,-1)">
                  <use xlink:href="#rim" fill="#404040">
                        <set attributeName="fill" to="#808080" begin="arrowUp.mouseover" end="arrowUp.mouseout"/>
                  </use>
                  <path fill="none" stroke="white" stroke-width="1.5" d="M0,-3.0v7 M-2.5,-0.5L0,-3.0L2.5,-0.5"/>
                </g>
                <g id="arrowRight" xlink:href="#dirArrow" transform="rotate(90) translate(36 -43)" onmousedown="handlePan(1,0)">
                  <use xlink:href="#rim" fill="#404040">
                        <set attributeName="fill" to="#808080" begin="arrowRight.mouseover" end="arrowRight.mouseout"/>
                  </use>
                  <path fill="none" stroke="white" stroke-width="1.5" d="M0,-3.0v7 M-2.5,-0.5L0,-3.0L2.5,-0.5"/>
                </g>
                <g id="arrowDown" xlink:href="#dirArrow" transform="rotate(180) translate(-30 -48)" onmousedown="handlePan(0,1)">
                  <use xlink:href="#rim" fill="#404040">
                        <set attributeName="fill" to="#808080" begin="arrowDown.mouseover" end="arrowDown.mouseout"/>
                  </use>
                  <path fill="none" stroke="white" stroke-width="1.5" d="M0,-3.0v7 M-2.5,-0.5L0,-3.0L2.5,-0.5"/>
                </g>
                <g id="arrowLeft" xlink:href="#dirArrow" transform="rotate(270) translate(-36 17)" onmousedown="handlePan(-1,0)">
                  <use xlink:href="#rim" fill="#404040">
                        <set attributeName="fill" to="#808080" begin="arrowLeft.mouseover" end="arrowLeft.mouseout"/>
                  </use>
                  <path fill="none" stroke="white" stroke-width="1.5" d="M0,-3.0v7 M-2.5,-0.5L0,-3.0L2.5,-0.5"/>
                </g>
        </g>
        <svg viewBox="0 0 15 15" width="100%" height="30px" preserveAspectRatio="xMaxYMin meet">
         <g id="arrow_out" transform="scale(0.3 0.3)">
          <a xlink:href="classtetgenmesh_aa70e994f2091786686a9336461e5d94d_cgraph_org.svg" target="_base">
           <rect id="button" ry="5" rx="5" y="6" x="6" height="38" width="38"
                fill="#f2f5e9" fill-opacity="0.5" stroke="#606060" stroke-width="1.0"/>
           <path id="arrow"
             d="M 11.500037,31.436501 C 11.940474,20.09759 22.043105,11.32322 32.158766,21.979434 L 37.068811,17.246167 C 37.068811,17.246167 37.088388,32 37.088388,32 L 22.160133,31.978069 C 22.160133,31.978069 26.997745,27.140456 26.997745,27.140456 C 18.528582,18.264221 13.291696,25.230495 11.500037,31.436501 z"
             style="fill:#404040;"/>
          </a>
         </g>
        </svg>
</svg>
