<?xml version="1.0" encoding="UTF-8" standalone="no"?>
<!DOCTYPE svg PUBLIC "-//W3C//DTD SVG 1.1//EN"
 "http://www.w3.org/Graphics/SVG/1.1/DTD/svg11.dtd">
<!-- Generated by graphviz version 2.26.3 (20100126.1600)
 -->
<!-- Title: tetgenmesh::orient4d_s Pages: 1 -->
<!--zoomable 195 -->
<svg id="main" version="1.1" xmlns="http://www.w3.org/2000/svg" xmlns:xlink="http://www.w3.org/1999/xlink" xml:space="preserve" onload="init(evt)">
<style type="text/css"><![CDATA[
.edge:hover path { stroke: red; }
.edge:hover polygon { stroke: red; fill: red; }
]]></style>
<script type="text/javascript"><![CDATA[
var edges = document.getElementsByTagName('g');
if (edges && edges.length) {
  for (var i=0;i<edges.length;i++) {
    if (edges[i].id.substr(0,4)=='edge') {
      edges[i].setAttribute('class','edge');
    }
  }
}
]]></script>
        <defs>
                <circle id="rim" cx="0" cy="0" r="7"/>
                <circle id="rim2" cx="0" cy="0" r="3.5"/>
                <g id="zoomPlus">
                        <use xlink:href="#rim" fill="#404040">
                                <set attributeName="fill" to="#808080" begin="zoomplus.mouseover" end="zoomplus.mouseout"/>
                        </use>
                        <path d="M-4,0h8M0,-4v8" fill="none" stroke="white" stroke-width="1.5" pointer-events="none"/>
                </g>
                <g id="zoomMin">
                        <use xlink:href="#rim" fill="#404040">
                                <set attributeName="fill" to="#808080" begin="zoomminus.mouseover" end="zoomminus.mouseout"/>
                        </use>
                        <path d="M-4,0h8" fill="none" stroke="white" stroke-width="1.5" pointer-events="none"/>
                </g>
                <g id="dirArrow">
                        <path fill="none" stroke="white" stroke-width="1.5" d="M0,-3.0v7 M-2.5,-0.5L0,-3.0L2.5,-0.5"/>
                </g>
               <g id="resetDef">
                       <use xlink:href="#rim2" fill="#404040">
                               <set attributeName="fill" to="#808080" begin="reset.mouseover" end="reset.mouseout"/>
                       </use>
               </g>
        </defs>

<script type="text/javascript">
var viewWidth = 672;
var viewHeight = 195;
var sectionId = 'dynsection-249';
</script>
<script xlink:href="svgpan.js"/>
<svg id="graph" class="graph">
<g id="viewport">
<title>tetgenmesh::orient4d_s</title>
<!-- Node1 -->
<g id="node1" class="node"><title>Node1</title>
<polygon fill="#bfbfbf" stroke="black" points="0.5,-40.5 0.5,-61.5 119.5,-61.5 119.5,-40.5 0.5,-40.5"/>
<text text-anchor="middle" x="60" y="-48.5" font-family="Helvetica,sans-Serif" font-size="10.00">tetgenmesh::orient4d_s</text>
</g>
<!-- Node2 -->
<g id="node3" class="node"><title>Node2</title>
<a xlink:href="predicates_8cxx.xhtml#ac18ea9102bdd2ef503dbf477748adfb5" target="_top" xlink:title="orient4d">
<polygon fill="none" stroke="black" points="188.5,-99.5 188.5,-120.5 239.5,-120.5 239.5,-99.5 188.5,-99.5"/>
<text text-anchor="middle" x="214" y="-107.5" font-family="Helvetica,sans-Serif" font-size="10.00">orient4d</text>
</a>
</g>
<!-- Node1&#45;&gt;Node2 -->
<g id="edge2" class="edge"><title>Node1&#45;&gt;Node2</title>
<path fill="none" stroke="midnightblue" d="M87.5321,-61.548C113.037,-71.3192 151.098,-85.901 178.801,-96.5145"/>
<polygon fill="midnightblue" stroke="midnightblue" points="177.905,-99.9196 188.496,-100.229 180.41,-93.3829 177.905,-99.9196"/>
</g>
<!-- Node8 -->
<g id="node17" class="node"><title>Node8</title>
<a xlink:href="classtetgenmesh.xhtml#a46fa5fabd0e8e806f7f8beb069732e21" target="_top" xlink:title="tetgenmesh::pointmark">
<polygon fill="none" stroke="black" points="156,-0.5 156,-21.5 272,-21.5 272,-0.5 156,-0.5"/>
<text text-anchor="middle" x="214" y="-8.5" font-family="Helvetica,sans-Serif" font-size="10.00">tetgenmesh::pointmark</text>
</a>
</g>
<!-- Node1&#45;&gt;Node8 -->
<g id="edge18" class="edge"><title>Node1&#45;&gt;Node8</title>
<path fill="none" stroke="midnightblue" d="M100.462,-40.4905C119.838,-35.4578 143.232,-29.3814 163.737,-24.0552"/>
<polygon fill="midnightblue" stroke="midnightblue" points="164.743,-27.4104 173.541,-21.5087 162.983,-20.6352 164.743,-27.4104"/>
</g>
<!-- Node9 -->
<g id="node19" class="node"><title>Node9</title>
<a xlink:href="predicates_8cxx.xhtml#a701f35178b28c7bbb94644665c0b058a" target="_top" xlink:title="orient3d">
<polygon fill="none" stroke="black" points="188.5,-40.5 188.5,-61.5 239.5,-61.5 239.5,-40.5 188.5,-40.5"/>
<text text-anchor="middle" x="214" y="-48.5" font-family="Helvetica,sans-Serif" font-size="10.00">orient3d</text>
</a>
</g>
<!-- Node1&#45;&gt;Node9 -->
<g id="edge20" class="edge"><title>Node1&#45;&gt;Node9</title>
<path fill="none" stroke="midnightblue" d="M119.54,-51C139.306,-51 160.693,-51 178.109,-51"/>
<polygon fill="midnightblue" stroke="midnightblue" points="178.39,-54.5001 188.39,-51 178.39,-47.5001 178.39,-54.5001"/>
</g>
<!-- Node3 -->
<g id="node5" class="node"><title>Node3</title>
<a xlink:href="predicates_8cxx.xhtml#a3dfeb25725cfe0223d6f12b2a42e1bee" target="_top" xlink:title="orient4dadapt">
<polygon fill="none" stroke="black" points="308.5,-108.5 308.5,-129.5 383.5,-129.5 383.5,-108.5 308.5,-108.5"/>
<text text-anchor="middle" x="346" y="-116.5" font-family="Helvetica,sans-Serif" font-size="10.00">orient4dadapt</text>
</a>
</g>
<!-- Node2&#45;&gt;Node3 -->
<g id="edge4" class="edge"><title>Node2&#45;&gt;Node3</title>
<path fill="none" stroke="midnightblue" d="M239.764,-111.757C256.376,-112.889 278.487,-114.397 298.234,-115.743"/>
<polygon fill="midnightblue" stroke="midnightblue" points="298.089,-119.241 308.304,-116.43 298.565,-112.258 298.089,-119.241"/>
</g>
<!-- Node4 -->
<g id="node7" class="node"><title>Node4</title>
<a xlink:href="predicates_8cxx.xhtml#abdcdaa8948d9a2937154d9d67f67da8d" target="_top" xlink:title="scale_expansion_zeroelim">
<polygon fill="none" stroke="black" points="532.5,-150.5 532.5,-171.5 663.5,-171.5 663.5,-150.5 532.5,-150.5"/>
<text text-anchor="middle" x="598" y="-158.5" font-family="Helvetica,sans-Serif" font-size="10.00">scale_expansion_zeroelim</text>
</a>
</g>
<!-- Node3&#45;&gt;Node4 -->
<g id="edge6" class="edge"><title>Node3&#45;&gt;Node4</title>
<path fill="none" stroke="midnightblue" d="M355.166,-129.886C367.963,-144.145 392.704,-168.45 420,-178 465.265,-193.836 520.715,-184.37 557.577,-174.372"/>
<polygon fill="midnightblue" stroke="midnightblue" points="558.798,-177.664 567.457,-171.558 556.881,-170.931 558.798,-177.664"/>
</g>
<!-- Node5 -->
<g id="node9" class="node"><title>Node5</title>
<a xlink:href="predicates_8cxx.xhtml#a37646a7e0014e10c612e946bc95aeeea" target="_top" xlink:title="fast_expansion_sum\l_zeroelim">
<polygon fill="none" stroke="black" points="544.5,-98 544.5,-132 651.5,-132 651.5,-98 544.5,-98"/>
<text text-anchor="start" x="552.5" y="-119" font-family="Helvetica,sans-Serif" font-size="10.00">fast_expansion_sum</text>
<text text-anchor="middle" x="598" y="-106" font-family="Helvetica,sans-Serif" font-size="10.00">_zeroelim</text>
</a>
</g>
<!-- Node3&#45;&gt;Node5 -->
<g id="edge8" class="edge"><title>Node3&#45;&gt;Node5</title>
<path fill="none" stroke="midnightblue" d="M383.727,-118.401C423.381,-117.772 486.478,-116.77 533.953,-116.017"/>
<polygon fill="midnightblue" stroke="midnightblue" points="534.192,-119.513 544.135,-115.855 534.081,-112.514 534.192,-119.513"/>
</g>
<!-- Node6 -->
<g id="node11" class="node"><title>Node6</title>
<a xlink:href="predicates_8cxx.xhtml#a3487d9f90ea72da543d5d38b3dab1fbc" target="_top" xlink:title="estimate">
<polygon fill="none" stroke="black" points="431,-69.5 431,-90.5 485,-90.5 485,-69.5 431,-69.5"/>
<text text-anchor="middle" x="458" y="-77.5" font-family="Helvetica,sans-Serif" font-size="10.00">estimate</text>
</a>
</g>
<!-- Node3&#45;&gt;Node6 -->
<g id="edge10" class="edge"><title>Node3&#45;&gt;Node6</title>
<path fill="none" stroke="midnightblue" d="M376.309,-108.446C390.1,-103.644 406.544,-97.9176 421.052,-92.8657"/>
<polygon fill="midnightblue" stroke="midnightblue" points="422.438,-96.0895 430.73,-89.4957 420.136,-89.4789 422.438,-96.0895"/>
</g>
<!-- Node7 -->
<g id="node13" class="node"><title>Node7</title>
<a xlink:href="predicates_8cxx.xhtml#a791d324c7c5cbf5c78da3488d54495a6" target="_top" xlink:title="orient4dexact">
<polygon fill="none" stroke="black" points="420.5,-147.5 420.5,-168.5 495.5,-168.5 495.5,-147.5 420.5,-147.5"/>
<text text-anchor="middle" x="458" y="-155.5" font-family="Helvetica,sans-Serif" font-size="10.00">orient4dexact</text>
</a>
</g>
<!-- Node3&#45;&gt;Node7 -->
<g id="edge12" class="edge"><title>Node3&#45;&gt;Node7</title>
<path fill="none" stroke="midnightblue" d="M376.309,-129.554C389.133,-134.02 404.252,-139.284 417.974,-144.063"/>
<polygon fill="midnightblue" stroke="midnightblue" points="417.072,-147.454 427.667,-147.438 419.374,-140.844 417.072,-147.454"/>
</g>
<!-- Node7&#45;&gt;Node4 -->
<g id="edge14" class="edge"><title>Node7&#45;&gt;Node4</title>
<path fill="none" stroke="midnightblue" d="M495.517,-158.804C503.845,-158.982 512.96,-159.178 522.211,-159.376"/>
<polygon fill="midnightblue" stroke="midnightblue" points="522.2,-162.876 532.272,-159.592 522.35,-155.878 522.2,-162.876"/>
</g>
<!-- Node7&#45;&gt;Node5 -->
<g id="edge16" class="edge"><title>Node7&#45;&gt;Node5</title>
<path fill="none" stroke="midnightblue" d="M492.248,-147.481C505.13,-143.524 520.221,-138.889 534.903,-134.38"/>
<polygon fill="midnightblue" stroke="midnightblue" points="535.933,-137.725 544.465,-131.443 533.878,-131.033 535.933,-137.725"/>
</g>
<!-- Node10 -->
<g id="node21" class="node"><title>Node10</title>
<a xlink:href="predicates_8cxx.xhtml#ae16b246ccaad9f1d90f37590816c5fde" target="_top" xlink:title="orient3dadapt">
<polygon fill="none" stroke="black" points="308.5,-35.5 308.5,-56.5 383.5,-56.5 383.5,-35.5 308.5,-35.5"/>
<text text-anchor="middle" x="346" y="-43.5" font-family="Helvetica,sans-Serif" font-size="10.00">orient3dadapt</text>
</a>
</g>
<!-- Node9&#45;&gt;Node10 -->
<g id="edge22" class="edge"><title>Node9&#45;&gt;Node10</title>
<path fill="none" stroke="midnightblue" d="M239.764,-50.0241C256.376,-49.3948 278.487,-48.5573 298.234,-47.8093"/>
<polygon fill="midnightblue" stroke="midnightblue" points="298.444,-51.304 308.304,-47.4279 298.179,-44.309 298.444,-51.304"/>
</g>
<!-- Node10&#45;&gt;Node4 -->
<g id="edge24" class="edge"><title>Node10&#45;&gt;Node4</title>
<path fill="none" stroke="midnightblue" d="M383.522,-39.639C416.266,-36.2155 463.497,-36.6571 496,-60 527.998,-82.9804 502.471,-114.923 532,-141 533.75,-142.545 535.616,-143.971 537.571,-145.287"/>
<polygon fill="midnightblue" stroke="midnightblue" points="536.191,-148.527 546.622,-150.38 539.623,-142.426 536.191,-148.527"/>
</g>
<!-- Node10&#45;&gt;Node5 -->
<g id="edge26" class="edge"><title>Node10&#45;&gt;Node5</title>
<path fill="none" stroke="midnightblue" d="M372.062,-35.4566C402.674,-24.6955 454.541,-11.5875 496,-27 529.629,-39.5018 559.581,-68.6193 578.187,-89.9502"/>
<polygon fill="midnightblue" stroke="midnightblue" points="575.612,-92.3255 584.746,-97.6933 580.953,-87.8008 575.612,-92.3255"/>
</g>
<!-- Node10&#45;&gt;Node6 -->
<g id="edge28" class="edge"><title>Node10&#45;&gt;Node6</title>
<path fill="none" stroke="midnightblue" d="M380.824,-56.5714C393.491,-60.4169 407.854,-64.777 420.725,-68.6843"/>
<polygon fill="midnightblue" stroke="midnightblue" points="420.081,-72.1466 430.667,-71.7024 422.115,-65.4484 420.081,-72.1466"/>
</g>
</g>
</svg>
        <g id="navigator" transform="translate(0 0)" fill="#404254">
                <rect fill="#f2f5e9" fill-opacity="0.5" stroke="#606060" stroke-width=".5" x="0" y="0" width="60" height="60"/>
                <use id="zoomplus" xlink:href="#zoomPlus" x="17" y="9" onmousedown="handleZoom(evt,'in')"/>
                <use id="zoomminus" xlink:href="#zoomMin" x="42" y="9" onmousedown="handleZoom(evt,'out')"/>
                <use id="reset" xlink:href="#resetDef" x="30" y="36" onmousedown="handleReset()"/>
                <g id="arrowUp" xlink:href="#dirArrow" transform="translate(30 24)" onmousedown="handlePan(0,-1)">
                  <use xlink:href="#rim" fill="#404040">
                        <set attributeName="fill" to="#808080" begin="arrowUp.mouseover" end="arrowUp.mouseout"/>
                  </use>
                  <path fill="none" stroke="white" stroke-width="1.5" d="M0,-3.0v7 M-2.5,-0.5L0,-3.0L2.5,-0.5"/>
                </g>
                <g id="arrowRight" xlink:href="#dirArrow" transform="rotate(90) translate(36 -43)" onmousedown="handlePan(1,0)">
                  <use xlink:href="#rim" fill="#404040">
                        <set attributeName="fill" to="#808080" begin="arrowRight.mouseover" end="arrowRight.mouseout"/>
                  </use>
                  <path fill="none" stroke="white" stroke-width="1.5" d="M0,-3.0v7 M-2.5,-0.5L0,-3.0L2.5,-0.5"/>
                </g>
                <g id="arrowDown" xlink:href="#dirArrow" transform="rotate(180) translate(-30 -48)" onmousedown="handlePan(0,1)">
                  <use xlink:href="#rim" fill="#404040">
                        <set attributeName="fill" to="#808080" begin="arrowDown.mouseover" end="arrowDown.mouseout"/>
                  </use>
                  <path fill="none" stroke="white" stroke-width="1.5" d="M0,-3.0v7 M-2.5,-0.5L0,-3.0L2.5,-0.5"/>
                </g>
                <g id="arrowLeft" xlink:href="#dirArrow" transform="rotate(270) translate(-36 17)" onmousedown="handlePan(-1,0)">
                  <use xlink:href="#rim" fill="#404040">
                        <set attributeName="fill" to="#808080" begin="arrowLeft.mouseover" end="arrowLeft.mouseout"/>
                  </use>
                  <path fill="none" stroke="white" stroke-width="1.5" d="M0,-3.0v7 M-2.5,-0.5L0,-3.0L2.5,-0.5"/>
                </g>
        </g>
        <svg viewBox="0 0 15 15" width="100%" height="30px" preserveAspectRatio="xMaxYMin meet">
         <g id="arrow_out" transform="scale(0.3 0.3)">
          <a xlink:href="classtetgenmesh_ac73e403159c27dbb3d6cbf99f01925dd_cgraph_org.svg" target="_base">
           <rect id="button" ry="5" rx="5" y="6" x="6" height="38" width="38"
                fill="#f2f5e9" fill-opacity="0.5" stroke="#606060" stroke-width="1.0"/>
           <path id="arrow"
             d="M 11.500037,31.436501 C 11.940474,20.09759 22.043105,11.32322 32.158766,21.979434 L 37.068811,17.246167 C 37.068811,17.246167 37.088388,32 37.088388,32 L 22.160133,31.978069 C 22.160133,31.978069 26.997745,27.140456 26.997745,27.140456 C 18.528582,18.264221 13.291696,25.230495 11.500037,31.436501 z"
             style="fill:#404040;"/>
          </a>
         </g>
        </svg>
</svg>
