<?xml version="1.0" encoding="UTF-8" standalone="no"?>
<!DOCTYPE svg PUBLIC "-//W3C//DTD SVG 1.1//EN"
 "http://www.w3.org/Graphics/SVG/1.1/DTD/svg11.dtd">
<!-- Generated by graphviz version 2.26.3 (20100126.1600)
 -->
<!-- Title: Renderer::renderTetrahedra Pages: 1 -->
<svg width="422pt" height="270pt"
 viewBox="0.00 0.00 422.00 270.00" xmlns="http://www.w3.org/2000/svg" xmlns:xlink="http://www.w3.org/1999/xlink">
<g id="graph1" class="graph" transform="scale(1 1) rotate(0) translate(4 266)">
<title>Renderer::renderTetrahedra</title>
<!-- Node1 -->
<g id="node1" class="node"><title>Node1</title>
<polygon fill="#bfbfbf" stroke="black" points="0,-120.5 0,-141.5 136,-141.5 136,-120.5 0,-120.5"/>
<text text-anchor="middle" x="68" y="-128.5" font-family="Helvetica,sans-Serif" font-size="10.00">Renderer::renderTetrahedra</text>
</g>
<!-- Node2 -->
<g id="node3" class="node"><title>Node2</title>
<a xlink:href="classVector3D.xhtml#a0d14ff1f789254ff90adc22628eb8347" target="_top" xlink:title="Vector3D::add">
<polygon fill="none" stroke="black" points="193,-120.5 193,-141.5 273,-141.5 273,-120.5 193,-120.5"/>
<text text-anchor="middle" x="233" y="-128.5" font-family="Helvetica,sans-Serif" font-size="10.00">Vector3D::add</text>
</a>
</g>
<!-- Node1&#45;&gt;Node2 -->
<g id="edge2" class="edge"><title>Node1&#45;&gt;Node2</title>
<path fill="none" stroke="midnightblue" d="M136.064,-131C151.637,-131 167.918,-131 182.593,-131"/>
<polygon fill="midnightblue" stroke="midnightblue" points="182.963,-134.5 192.963,-131 182.963,-127.5 182.963,-134.5"/>
</g>
<!-- Node6 -->
<g id="node11" class="node"><title>Node6</title>
<a xlink:href="classVector3D.xhtml#a3dec11494c99de7370e3877054c3ef13" target="_top" xlink:title="Vector3D::mult">
<polygon fill="none" stroke="black" points="191.5,-80.5 191.5,-101.5 274.5,-101.5 274.5,-80.5 191.5,-80.5"/>
<text text-anchor="middle" x="233" y="-88.5" font-family="Helvetica,sans-Serif" font-size="10.00">Vector3D::mult</text>
</a>
</g>
<!-- Node1&#45;&gt;Node6 -->
<g id="edge10" class="edge"><title>Node1&#45;&gt;Node6</title>
<path fill="none" stroke="midnightblue" d="M111.352,-120.49C132.894,-115.268 159.072,-108.922 181.617,-103.457"/>
<polygon fill="midnightblue" stroke="midnightblue" points="182.466,-106.852 191.36,-101.094 180.817,-100.049 182.466,-106.852"/>
</g>
<!-- Node7 -->
<g id="node13" class="node"><title>Node7</title>
<a xlink:href="classVector3D.xhtml#a02364a41693ac080f5adadd776df74b4" target="_top" xlink:title="Vector3D::sub">
<polygon fill="none" stroke="black" points="193,-240.5 193,-261.5 273,-261.5 273,-240.5 193,-240.5"/>
<text text-anchor="middle" x="233" y="-248.5" font-family="Helvetica,sans-Serif" font-size="10.00">Vector3D::sub</text>
</a>
</g>
<!-- Node1&#45;&gt;Node7 -->
<g id="edge12" class="edge"><title>Node1&#45;&gt;Node7</title>
<path fill="none" stroke="midnightblue" d="M76.2678,-141.662C92.4969,-161.903 130.568,-206.091 172,-231 175.6,-233.164 179.462,-235.125 183.431,-236.894"/>
<polygon fill="midnightblue" stroke="midnightblue" points="182.229,-240.184 192.812,-240.684 184.851,-233.693 182.229,-240.184"/>
</g>
<!-- Node8 -->
<g id="node18" class="node"><title>Node8</title>
<a xlink:href="classVector3D.xhtml#a482cd77ce44ea7dd71fd7a43cb7b1cf5" target="_top" xlink:title="Vector3D::crossProduct">
<polygon fill="none" stroke="black" points="172,-200.5 172,-221.5 294,-221.5 294,-200.5 172,-200.5"/>
<text text-anchor="middle" x="233" y="-208.5" font-family="Helvetica,sans-Serif" font-size="10.00">Vector3D::crossProduct</text>
</a>
</g>
<!-- Node1&#45;&gt;Node8 -->
<g id="edge20" class="edge"><title>Node1&#45;&gt;Node8</title>
<path fill="none" stroke="midnightblue" d="M84.0185,-141.644C103.984,-154.576 139.454,-176.464 172,-191 176.775,-193.133 181.849,-195.155 186.951,-197.037"/>
<polygon fill="midnightblue" stroke="midnightblue" points="186.134,-200.459 196.729,-200.473 188.455,-193.855 186.134,-200.459"/>
</g>
<!-- Node9 -->
<g id="node23" class="node"><title>Node9</title>
<a xlink:href="classVector3D.xhtml#a0808a8e6004a347d82f9214778b5968f" target="_top" xlink:title="Vector3D::dotProduct">
<polygon fill="none" stroke="black" points="177.5,-160.5 177.5,-181.5 288.5,-181.5 288.5,-160.5 177.5,-160.5"/>
<text text-anchor="middle" x="233" y="-168.5" font-family="Helvetica,sans-Serif" font-size="10.00">Vector3D::dotProduct</text>
</a>
</g>
<!-- Node1&#45;&gt;Node9 -->
<g id="edge28" class="edge"><title>Node1&#45;&gt;Node9</title>
<path fill="none" stroke="midnightblue" d="M111.352,-141.51C132.3,-146.588 157.633,-152.729 179.746,-158.09"/>
<polygon fill="midnightblue" stroke="midnightblue" points="179.108,-161.537 189.652,-160.491 180.758,-154.734 179.108,-161.537"/>
</g>
<!-- Node10 -->
<g id="node28" class="node"><title>Node10</title>
<a xlink:href="classVector3D.xhtml#a46dd0d9a849809a3857783102959e788" target="_top" xlink:title="Vector3D::copy">
<polygon fill="none" stroke="black" points="190.5,-40.5 190.5,-61.5 275.5,-61.5 275.5,-40.5 190.5,-40.5"/>
<text text-anchor="middle" x="233" y="-48.5" font-family="Helvetica,sans-Serif" font-size="10.00">Vector3D::copy</text>
</a>
</g>
<!-- Node1&#45;&gt;Node10 -->
<g id="edge36" class="edge"><title>Node1&#45;&gt;Node10</title>
<path fill="none" stroke="midnightblue" d="M84.0185,-120.356C103.984,-107.424 139.454,-85.5362 172,-71 176.775,-68.8674 181.849,-66.8447 186.951,-64.9632"/>
<polygon fill="midnightblue" stroke="midnightblue" points="188.455,-68.1448 196.729,-61.5273 186.134,-61.5406 188.455,-68.1448"/>
</g>
<!-- Node11 -->
<g id="node30" class="node"><title>Node11</title>
<a xlink:href="classVector3D.xhtml#abfb12ecb9c9beb88e095cc4a1a512d3c" target="_top" xlink:title="Vector3D::normalize">
<polygon fill="none" stroke="black" points="180,-0.5 180,-21.5 286,-21.5 286,-0.5 180,-0.5"/>
<text text-anchor="middle" x="233" y="-8.5" font-family="Helvetica,sans-Serif" font-size="10.00">Vector3D::normalize</text>
</a>
</g>
<!-- Node1&#45;&gt;Node11 -->
<g id="edge38" class="edge"><title>Node1&#45;&gt;Node11</title>
<path fill="none" stroke="midnightblue" d="M76.2678,-120.338C92.4969,-100.097 130.568,-55.9091 172,-31 175.395,-28.9587 179.024,-27.0987 182.755,-25.409"/>
<polygon fill="midnightblue" stroke="midnightblue" points="184.242,-28.5825 192.169,-21.5533 181.588,-22.1048 184.242,-28.5825"/>
</g>
<!-- Node3 -->
<g id="node5" class="node"><title>Node3</title>
<a xlink:href="classVector3D.xhtml#aa9eaf29045bf32b95c5c7bcb2b8b68d7" target="_top" xlink:title="Vector3D::getX">
<polygon fill="none" stroke="black" points="330,-220.5 330,-241.5 414,-241.5 414,-220.5 330,-220.5"/>
<text text-anchor="middle" x="372" y="-228.5" font-family="Helvetica,sans-Serif" font-size="10.00">Vector3D::getX</text>
</a>
</g>
<!-- Node2&#45;&gt;Node3 -->
<g id="edge4" class="edge"><title>Node2&#45;&gt;Node3</title>
<path fill="none" stroke="midnightblue" d="M273.155,-139.625C280.579,-142.433 287.903,-146.133 294,-151 318.306,-170.399 306.98,-190.091 330,-211 331.651,-212.5 333.436,-213.909 335.304,-215.23"/>
<polygon fill="midnightblue" stroke="midnightblue" points="333.531,-218.248 343.893,-220.458 337.171,-212.268 333.531,-218.248"/>
</g>
<!-- Node4 -->
<g id="node7" class="node"><title>Node4</title>
<a xlink:href="classVector3D.xhtml#aa3ffff17b886274a58417dfe4bb4c4a2" target="_top" xlink:title="Vector3D::getY">
<polygon fill="none" stroke="black" points="330,-180.5 330,-201.5 414,-201.5 414,-180.5 330,-180.5"/>
<text text-anchor="middle" x="372" y="-188.5" font-family="Helvetica,sans-Serif" font-size="10.00">Vector3D::getY</text>
</a>
</g>
<!-- Node2&#45;&gt;Node4 -->
<g id="edge6" class="edge"><title>Node2&#45;&gt;Node4</title>
<path fill="none" stroke="midnightblue" d="M268.909,-141.513C277.26,-144.303 286.034,-147.519 294,-151 310.772,-158.329 313.729,-162.617 330,-171 333.28,-172.69 336.727,-174.414 340.177,-176.105"/>
<polygon fill="midnightblue" stroke="midnightblue" points="338.676,-179.267 349.203,-180.463 341.719,-172.964 338.676,-179.267"/>
</g>
<!-- Node5 -->
<g id="node9" class="node"><title>Node5</title>
<a xlink:href="classVector3D.xhtml#ab0dcbf253ff78856eccb5ea74d080fc7" target="_top" xlink:title="Vector3D::getZ">
<polygon fill="none" stroke="black" points="330.5,-140.5 330.5,-161.5 413.5,-161.5 413.5,-140.5 330.5,-140.5"/>
<text text-anchor="middle" x="372" y="-148.5" font-family="Helvetica,sans-Serif" font-size="10.00">Vector3D::getZ</text>
</a>
</g>
<!-- Node2&#45;&gt;Node5 -->
<g id="edge8" class="edge"><title>Node2&#45;&gt;Node5</title>
<path fill="none" stroke="midnightblue" d="M273.205,-136.785C287.938,-138.905 304.82,-141.334 320.412,-143.577"/>
<polygon fill="midnightblue" stroke="midnightblue" points="320.04,-147.06 330.437,-145.02 321.037,-140.131 320.04,-147.06"/>
</g>
<!-- Node7&#45;&gt;Node3 -->
<g id="edge14" class="edge"><title>Node7&#45;&gt;Node3</title>
<path fill="none" stroke="midnightblue" d="M273.205,-245.215C287.806,-243.114 304.519,-240.709 319.994,-238.483"/>
<polygon fill="midnightblue" stroke="midnightblue" points="320.551,-241.939 329.951,-237.05 319.554,-235.01 320.551,-241.939"/>
</g>
<!-- Node7&#45;&gt;Node4 -->
<g id="edge16" class="edge"><title>Node7&#45;&gt;Node4</title>
<path fill="none" stroke="midnightblue" d="M268.909,-240.487C277.26,-237.697 286.034,-234.481 294,-231 310.772,-223.671 313.729,-219.383 330,-211 333.28,-209.31 336.727,-207.586 340.177,-205.895"/>
<polygon fill="midnightblue" stroke="midnightblue" points="341.719,-209.036 349.203,-201.537 338.676,-202.733 341.719,-209.036"/>
</g>
<!-- Node7&#45;&gt;Node5 -->
<g id="edge18" class="edge"><title>Node7&#45;&gt;Node5</title>
<path fill="none" stroke="midnightblue" d="M273.155,-242.375C280.579,-239.567 287.903,-235.867 294,-231 318.306,-211.601 306.98,-191.909 330,-171 331.651,-169.5 333.436,-168.091 335.304,-166.77"/>
<polygon fill="midnightblue" stroke="midnightblue" points="337.171,-169.732 343.893,-161.542 333.531,-163.752 337.171,-169.732"/>
</g>
<!-- Node8&#45;&gt;Node3 -->
<g id="edge26" class="edge"><title>Node8&#45;&gt;Node3</title>
<path fill="none" stroke="midnightblue" d="M294.372,-219.831C302.852,-221.051 311.495,-222.294 319.787,-223.487"/>
<polygon fill="midnightblue" stroke="midnightblue" points="319.297,-226.953 329.694,-224.913 320.294,-220.024 319.297,-226.953"/>
</g>
<!-- Node8&#45;&gt;Node4 -->
<g id="edge24" class="edge"><title>Node8&#45;&gt;Node4</title>
<path fill="none" stroke="midnightblue" d="M294.372,-202.169C302.852,-200.949 311.495,-199.706 319.787,-198.513"/>
<polygon fill="midnightblue" stroke="midnightblue" points="320.294,-201.976 329.694,-197.087 319.297,-195.047 320.294,-201.976"/>
</g>
<!-- Node8&#45;&gt;Node5 -->
<g id="edge22" class="edge"><title>Node8&#45;&gt;Node5</title>
<path fill="none" stroke="midnightblue" d="M268.909,-200.487C277.26,-197.697 286.034,-194.481 294,-191 310.772,-183.671 313.729,-179.383 330,-171 333.28,-169.31 336.727,-167.586 340.177,-165.895"/>
<polygon fill="midnightblue" stroke="midnightblue" points="341.719,-169.036 349.203,-161.537 338.676,-162.733 341.719,-169.036"/>
</g>
<!-- Node9&#45;&gt;Node3 -->
<g id="edge30" class="edge"><title>Node9&#45;&gt;Node3</title>
<path fill="none" stroke="midnightblue" d="M268.909,-181.513C277.26,-184.303 286.034,-187.519 294,-191 310.772,-198.329 313.729,-202.617 330,-211 333.28,-212.69 336.727,-214.414 340.177,-216.105"/>
<polygon fill="midnightblue" stroke="midnightblue" points="338.676,-219.267 349.203,-220.463 341.719,-212.964 338.676,-219.267"/>
</g>
<!-- Node9&#45;&gt;Node4 -->
<g id="edge32" class="edge"><title>Node9&#45;&gt;Node4</title>
<path fill="none" stroke="midnightblue" d="M288.736,-179.02C299.045,-180.503 309.776,-182.047 319.97,-183.514"/>
<polygon fill="midnightblue" stroke="midnightblue" points="319.554,-186.99 329.951,-184.95 320.551,-180.061 319.554,-186.99"/>
</g>
<!-- Node9&#45;&gt;Node5 -->
<g id="edge34" class="edge"><title>Node9&#45;&gt;Node5</title>
<path fill="none" stroke="midnightblue" d="M288.736,-162.98C299.159,-161.481 310.012,-159.919 320.306,-158.438"/>
<polygon fill="midnightblue" stroke="midnightblue" points="320.978,-161.877 330.378,-156.989 319.981,-154.949 320.978,-161.877"/>
</g>
</g>
</svg>
