<?xml version="1.0" encoding="UTF-8" standalone="no"?>
<!DOCTYPE svg PUBLIC "-//W3C//DTD SVG 1.1//EN"
 "http://www.w3.org/Graphics/SVG/1.1/DTD/svg11.dtd">
<!-- Generated by graphviz version 2.26.3 (20100126.1600)
 -->
<!-- Title: tetgenmesh::tssdissolve1 Pages: 1 -->
<svg width="2362pt" height="632pt"
 viewBox="0.00 0.00 2362.00 631.67" xmlns="http://www.w3.org/2000/svg" xmlns:xlink="http://www.w3.org/1999/xlink">
<g id="graph1" class="graph" transform="scale(1 1) rotate(0) translate(4 627.674)">
<title>tetgenmesh::tssdissolve1</title>
<!-- Node1 -->
<g id="node1" class="node"><title>Node1</title>
<polygon fill="#bfbfbf" stroke="black" points="0,-475.174 0,-496.174 128,-496.174 128,-475.174 0,-475.174"/>
<text text-anchor="middle" x="64" y="-483.174" font-family="Helvetica,sans-Serif" font-size="10.00">tetgenmesh::tssdissolve1</text>
</g>
<!-- Node2 -->
<g id="node3" class="node"><title>Node2</title>
<a xlink:href="classtetgenmesh.xhtml#a7bbebc8419ee43b912236c4ba7f69ba7" target="_top" xlink:title="tetgenmesh::fillcavity">
<polygon fill="none" stroke="black" points="190,-495.174 190,-516.174 300,-516.174 300,-495.174 190,-495.174"/>
<text text-anchor="middle" x="245" y="-503.174" font-family="Helvetica,sans-Serif" font-size="10.00">tetgenmesh::fillcavity</text>
</a>
</g>
<!-- Node1&#45;&gt;Node2 -->
<g id="edge2" class="edge"><title>Node1&#45;&gt;Node2</title>
<path fill="none" stroke="midnightblue" d="M138.114,-493.863C155.37,-495.77 173.448,-497.768 189.725,-499.566"/>
<polygon fill="midnightblue" stroke="midnightblue" points="138.392,-490.373 128.069,-492.753 137.624,-497.331 138.392,-490.373"/>
</g>
<!-- Node14 -->
<g id="node28" class="node"><title>Node14</title>
<a xlink:href="classtetgenmesh.xhtml#a114335d22e6317239085dcba0910a7e1" target="_top" xlink:title="tetgenmesh::restorecavity">
<polygon fill="none" stroke="black" points="388,-573.174 388,-594.174 518,-594.174 518,-573.174 388,-573.174"/>
<text text-anchor="middle" x="453" y="-581.174" font-family="Helvetica,sans-Serif" font-size="10.00">tetgenmesh::restorecavity</text>
</a>
</g>
<!-- Node1&#45;&gt;Node14 -->
<g id="edge28" class="edge"><title>Node1&#45;&gt;Node14</title>
<path fill="none" stroke="midnightblue" d="M96.2659,-500.325C115.601,-508.663 140.85,-518.784 164,-525.674 239.533,-548.155 328.773,-564.578 387.895,-574.095"/>
<polygon fill="midnightblue" stroke="midnightblue" points="97.5754,-497.078 87.0109,-496.277 94.7698,-503.491 97.5754,-497.078"/>
</g>
<!-- Node15 -->
<g id="node31" class="node"><title>Node15</title>
<a xlink:href="classtetgenmesh.xhtml#ad34c3db4b465048cf061a3e2ae2ba34e" target="_top" xlink:title="tetgenmesh::fillregion">
<polygon fill="none" stroke="black" points="190,-602.174 190,-623.174 300,-623.174 300,-602.174 190,-602.174"/>
<text text-anchor="middle" x="245" y="-610.174" font-family="Helvetica,sans-Serif" font-size="10.00">tetgenmesh::fillregion</text>
</a>
</g>
<!-- Node1&#45;&gt;Node15 -->
<g id="edge32" class="edge"><title>Node1&#45;&gt;Node15</title>
<path fill="none" stroke="midnightblue" d="M82.9844,-503.356C102.469,-521.03 134.085,-548.419 164,-568.674 182.95,-581.505 206.003,-593.73 222.663,-602.023"/>
<polygon fill="midnightblue" stroke="midnightblue" points="85.1553,-500.598 75.4167,-496.425 80.4275,-505.76 85.1553,-500.598"/>
</g>
<!-- Node16 -->
<g id="node34" class="node"><title>Node16</title>
<a xlink:href="classtetgenmesh.xhtml#ace09080e4f274e0a48cd1728475878c9" target="_top" xlink:title="tetgenmesh::recoversubfaces">
<polygon fill="none" stroke="black" points="172,-455.174 172,-476.174 318,-476.174 318,-455.174 172,-455.174"/>
<text text-anchor="middle" x="245" y="-463.174" font-family="Helvetica,sans-Serif" font-size="10.00">tetgenmesh::recoversubfaces</text>
</a>
</g>
<!-- Node1&#45;&gt;Node16 -->
<g id="edge36" class="edge"><title>Node1&#45;&gt;Node16</title>
<path fill="none" stroke="midnightblue" d="M138.143,-477.481C149.239,-476.255 160.674,-474.992 171.751,-473.768"/>
<polygon fill="midnightblue" stroke="midnightblue" points="137.624,-474.017 128.069,-478.595 138.392,-480.975 137.624,-474.017"/>
</g>
<!-- Node18 -->
<g id="node39" class="node"><title>Node18</title>
<a xlink:href="classtetgenmesh.xhtml#ad3277eea82fb5eb134c5eaa6abf5c18d" target="_top" xlink:title="tetgenmesh::removevertexbyflips">
<polygon fill="none" stroke="black" points="164.5,-359.174 164.5,-380.174 325.5,-380.174 325.5,-359.174 164.5,-359.174"/>
<text text-anchor="middle" x="245" y="-367.174" font-family="Helvetica,sans-Serif" font-size="10.00">tetgenmesh::removevertexbyflips</text>
</a>
</g>
<!-- Node1&#45;&gt;Node18 -->
<g id="edge42" class="edge"><title>Node1&#45;&gt;Node18</title>
<path fill="none" stroke="midnightblue" d="M89.577,-469.282C127.346,-445.077 196.97,-400.456 228.598,-380.186"/>
<polygon fill="midnightblue" stroke="midnightblue" points="87.2344,-466.626 80.7036,-474.969 91.0115,-472.52 87.2344,-466.626"/>
</g>
<!-- Node19 -->
<g id="node41" class="node"><title>Node19</title>
<a xlink:href="classtetgenmesh.xhtml#aae5530d808e30771e717c94cb8586f0b" target="_top" xlink:title="tetgenmesh::suppressbdrysteinerpoint">
<polygon fill="none" stroke="black" points="362,-185.174 362,-206.174 544,-206.174 544,-185.174 362,-185.174"/>
<text text-anchor="middle" x="453" y="-193.174" font-family="Helvetica,sans-Serif" font-size="10.00">tetgenmesh::suppressbdrysteinerpoint</text>
</a>
</g>
<!-- Node1&#45;&gt;Node19 -->
<g id="edge106" class="edge"><title>Node1&#45;&gt;Node19</title>
<path fill="none" stroke="midnightblue" d="M75.1253,-466.319C91.871,-438.307 125.701,-385.865 164,-349.674 240.338,-277.538 266.218,-263.767 362,-220.674 375.148,-214.759 390.01,-209.956 403.854,-206.2"/>
<polygon fill="midnightblue" stroke="midnightblue" points="71.9889,-464.748 69.9353,-475.141 78.0224,-468.297 71.9889,-464.748"/>
</g>
<!-- Node3 -->
<g id="node5" class="node"><title>Node3</title>
<a xlink:href="classtetgenmesh.xhtml#a9c967ef25cfd6e06d6b9301302be3f70" target="_top" xlink:title="tetgenmesh::insertpoint_cdt">
<polygon fill="none" stroke="black" points="384.5,-533.174 384.5,-554.174 521.5,-554.174 521.5,-533.174 384.5,-533.174"/>
<text text-anchor="middle" x="453" y="-541.174" font-family="Helvetica,sans-Serif" font-size="10.00">tetgenmesh::insertpoint_cdt</text>
</a>
</g>
<!-- Node2&#45;&gt;Node3 -->
<g id="edge4" class="edge"><title>Node2&#45;&gt;Node3</title>
<path fill="none" stroke="midnightblue" d="M310.054,-517.559C337.377,-522.551 368.892,-528.308 395.367,-533.145"/>
<polygon fill="midnightblue" stroke="midnightblue" points="310.66,-514.112 300.194,-515.758 309.402,-520.998 310.66,-514.112"/>
</g>
<!-- Node5 -->
<g id="node9" class="node"><title>Node5</title>
<a xlink:href="classtetgenmesh.xhtml#a7579c3a44a54712623d9f9e5fc1dfbdc" target="_top" xlink:title="tetgenmesh::constrainedfacets">
<polygon fill="none" stroke="black" points="801.5,-533.174 801.5,-554.174 952.5,-554.174 952.5,-533.174 801.5,-533.174"/>
<text text-anchor="middle" x="877" y="-541.174" font-family="Helvetica,sans-Serif" font-size="10.00">tetgenmesh::constrainedfacets</text>
</a>
</g>
<!-- Node2&#45;&gt;Node5 -->
<g id="edge26" class="edge"><title>Node2&#45;&gt;Node5</title>
<path fill="none" stroke="midnightblue" d="M310.377,-505.362C407.425,-505.491 595.231,-508.022 754,-523.674 776.176,-525.86 800.419,-529.525 821.475,-533.124"/>
<polygon fill="midnightblue" stroke="midnightblue" points="310.138,-501.862 300.136,-505.356 310.134,-508.862 310.138,-501.862"/>
</g>
<!-- Node4 -->
<g id="node7" class="node"><title>Node4</title>
<a xlink:href="classtetgenmesh.xhtml#aa34a5188a4cee82197394560c388c348" target="_top" xlink:title="tetgenmesh::refineregion">
<polygon fill="none" stroke="black" points="605,-533.174 605,-554.174 729,-554.174 729,-533.174 605,-533.174"/>
<text text-anchor="middle" x="667" y="-541.174" font-family="Helvetica,sans-Serif" font-size="10.00">tetgenmesh::refineregion</text>
</a>
</g>
<!-- Node3&#45;&gt;Node4 -->
<g id="edge6" class="edge"><title>Node3&#45;&gt;Node4</title>
<path fill="none" stroke="midnightblue" d="M531.792,-543.674C555.918,-543.674 582.104,-543.674 604.949,-543.674"/>
<polygon fill="midnightblue" stroke="midnightblue" points="531.594,-540.174 521.594,-543.674 531.594,-547.174 531.594,-540.174"/>
</g>
<!-- Node4&#45;&gt;Node5 -->
<g id="edge8" class="edge"><title>Node4&#45;&gt;Node5</title>
<path fill="none" stroke="midnightblue" d="M739.42,-543.674C759.389,-543.674 781.102,-543.674 801.253,-543.674"/>
<polygon fill="midnightblue" stroke="midnightblue" points="739.155,-540.174 729.155,-543.674 739.155,-547.174 739.155,-540.174"/>
</g>
<!-- Node6 -->
<g id="node11" class="node"><title>Node6</title>
<a xlink:href="classtetgenmesh.xhtml#aab64d62b3d2b048a38158fb2bf678624" target="_top" xlink:title="tetgenmesh::constraineddelaunay">
<polygon fill="none" stroke="black" points="1182.5,-504.174 1182.5,-525.174 1345.5,-525.174 1345.5,-504.174 1182.5,-504.174"/>
<text text-anchor="middle" x="1264" y="-512.174" font-family="Helvetica,sans-Serif" font-size="10.00">tetgenmesh::constraineddelaunay</text>
</a>
</g>
<!-- Node5&#45;&gt;Node6 -->
<g id="edge10" class="edge"><title>Node5&#45;&gt;Node6</title>
<path fill="none" stroke="midnightblue" d="M962.828,-537.243C1028.29,-532.337 1117.88,-525.623 1182.3,-520.796"/>
<polygon fill="midnightblue" stroke="midnightblue" points="962.247,-533.776 952.536,-538.014 962.77,-540.757 962.247,-533.776"/>
</g>
<!-- Node7 -->
<g id="node13" class="node"><title>Node7</title>
<a xlink:href="tetgen_8h.xhtml#ad3637eb4ffe7fda90667e67b7771d964" target="_top" xlink:title="tetrahedralize">
<polygon fill="none" stroke="black" points="1934.5,-349.174 1934.5,-370.174 2009.5,-370.174 2009.5,-349.174 1934.5,-349.174"/>
<text text-anchor="middle" x="1972" y="-357.174" font-family="Helvetica,sans-Serif" font-size="10.00">tetrahedralize</text>
</a>
</g>
<!-- Node6&#45;&gt;Node7 -->
<g id="edge12" class="edge"><title>Node6&#45;&gt;Node7</title>
<path fill="none" stroke="midnightblue" d="M1317.55,-527.346C1433.06,-551.557 1710.3,-592.612 1898,-480.674 1940.51,-455.323 1961.88,-395.188 1969.11,-370.519"/>
<polygon fill="midnightblue" stroke="midnightblue" points="1318.05,-523.874 1307.54,-525.205 1316.59,-530.719 1318.05,-523.874"/>
</g>
<!-- Node8 -->
<g id="node15" class="node"><title>Node8</title>
<a xlink:href="classGUICutRenderWindow.xhtml#a9eedb7088ad31f4680a77ed3a06fa60c" target="_top" xlink:title="Berechnet die 2D&#45;Temperaturverteilung als Grafik. ">
<polygon fill="none" stroke="black" points="2048.5,-391.674 2048.5,-425.674 2165.5,-425.674 2165.5,-391.674 2048.5,-391.674"/>
<text text-anchor="start" x="2056.5" y="-412.674" font-family="Helvetica,sans-Serif" font-size="10.00">GUICutRenderWindow</text>
<text text-anchor="middle" x="2107" y="-399.674" font-family="Helvetica,sans-Serif" font-size="10.00">::renderImage</text>
</a>
</g>
<!-- Node7&#45;&gt;Node8 -->
<g id="edge14" class="edge"><title>Node7&#45;&gt;Node8</title>
<path fill="none" stroke="midnightblue" d="M2010.67,-373.712C2026.06,-379.297 2043.91,-385.775 2060.03,-391.627"/>
<polygon fill="midnightblue" stroke="midnightblue" points="2011.56,-370.308 2000.96,-370.186 2009.17,-376.888 2011.56,-370.308"/>
</g>
<!-- Node10 -->
<g id="node19" class="node"><title>Node10</title>
<a xlink:href="classObjectData.xhtml#af3a850833d08eb9b45357449f455e24d" target="_top" xlink:title="Zerlegt das Objekt in Tetraeder (Schnittstelle zur Tetgen&#45;Bibliothek) und Berechnet die Temperaturver...">
<polygon fill="none" stroke="black" points="2046,-349.174 2046,-370.174 2168,-370.174 2168,-349.174 2046,-349.174"/>
<text text-anchor="middle" x="2107" y="-357.174" font-family="Helvetica,sans-Serif" font-size="10.00">ObjectData::calculateIO</text>
</a>
</g>
<!-- Node7&#45;&gt;Node10 -->
<g id="edge18" class="edge"><title>Node7&#45;&gt;Node10</title>
<path fill="none" stroke="midnightblue" d="M2019.65,-359.674C2028.11,-359.674 2037.02,-359.674 2045.8,-359.674"/>
<polygon fill="midnightblue" stroke="midnightblue" points="2019.61,-356.174 2009.61,-359.674 2019.6,-363.174 2019.61,-356.174"/>
</g>
<!-- Node13 -->
<g id="node25" class="node"><title>Node13</title>
<a xlink:href="tetgen_8cxx.xhtml#a0ddf1224851353fc92bfbff6f499fa97" target="_top" xlink:title="main">
<polygon fill="none" stroke="black" points="2088,-309.174 2088,-330.174 2126,-330.174 2126,-309.174 2088,-309.174"/>
<text text-anchor="middle" x="2107" y="-317.174" font-family="Helvetica,sans-Serif" font-size="10.00">main</text>
</a>
</g>
<!-- Node7&#45;&gt;Node13 -->
<g id="edge24" class="edge"><title>Node7&#45;&gt;Node13</title>
<path fill="none" stroke="midnightblue" d="M2017.15,-346.295C2041.27,-339.15 2069.67,-330.735 2087.98,-325.308"/>
<polygon fill="midnightblue" stroke="midnightblue" points="2016.06,-342.968 2007.47,-349.165 2018.05,-349.679 2016.06,-342.968"/>
</g>
<!-- Node9 -->
<g id="node17" class="node"><title>Node9</title>
<a xlink:href="classGUICutRenderWindow.xhtml#a7cd1bfbec53756a1cbbe1616b4d46c7a" target="_top" xlink:title="Behandelt das Drücken des Buttons zur Berechnung der zweidimensionalen Temperaturverteilung. ">
<polygon fill="none" stroke="black" points="2220.5,-394.674 2220.5,-428.674 2337.5,-428.674 2337.5,-394.674 2220.5,-394.674"/>
<text text-anchor="start" x="2228.5" y="-415.674" font-family="Helvetica,sans-Serif" font-size="10.00">GUICutRenderWindow</text>
<text text-anchor="middle" x="2279" y="-402.674" font-family="Helvetica,sans-Serif" font-size="10.00">::renderCutBtClick</text>
</a>
</g>
<!-- Node8&#45;&gt;Node9 -->
<g id="edge16" class="edge"><title>Node8&#45;&gt;Node9</title>
<path fill="none" stroke="midnightblue" d="M2175.78,-409.874C2190.51,-410.131 2205.95,-410.4 2220.26,-410.65"/>
<polygon fill="midnightblue" stroke="midnightblue" points="2175.77,-406.373 2165.71,-409.698 2175.65,-413.372 2175.77,-406.373"/>
</g>
<!-- Node11 -->
<g id="node21" class="node"><title>Node11</title>
<a xlink:href="classGUIMainWindow.xhtml#a0c2de30274c7f52ff74ec1217e47a9e5" target="_top" xlink:title="Berechnet die 3D&#45;Temperaturverteilung neu. ">
<polygon fill="none" stroke="black" points="2204,-342.674 2204,-376.674 2354,-376.674 2354,-342.674 2204,-342.674"/>
<text text-anchor="start" x="2212" y="-363.674" font-family="Helvetica,sans-Serif" font-size="10.00">GUIMainWindow::OnRecalcBt</text>
<text text-anchor="middle" x="2279" y="-350.674" font-family="Helvetica,sans-Serif" font-size="10.00">Click</text>
</a>
</g>
<!-- Node10&#45;&gt;Node11 -->
<g id="edge20" class="edge"><title>Node10&#45;&gt;Node11</title>
<path fill="none" stroke="midnightblue" d="M2178.32,-359.674C2186.77,-359.674 2195.42,-359.674 2203.92,-359.674"/>
<polygon fill="midnightblue" stroke="midnightblue" points="2178.13,-356.174 2168.13,-359.674 2178.13,-363.174 2178.13,-356.174"/>
</g>
<!-- Node12 -->
<g id="node23" class="node"><title>Node12</title>
<a xlink:href="classGUITimeline.xhtml#a099f3654aa6e7ea04df861851a0e9ec8" target="_top" xlink:title="Sucht den Zeitpunkt zwischen zwei markierten Stellen auf der Sensordaten&#45;Zeitleiste, für den der Wäremeenergiegehalt maximal wird. ">
<polygon fill="none" stroke="black" points="2210.5,-303.174 2210.5,-324.174 2347.5,-324.174 2347.5,-303.174 2210.5,-303.174"/>
<text text-anchor="middle" x="2279" y="-311.174" font-family="Helvetica,sans-Serif" font-size="10.00">GUITimeline::findMaxValue</text>
</a>
</g>
<!-- Node10&#45;&gt;Node12 -->
<g id="edge22" class="edge"><title>Node10&#45;&gt;Node12</title>
<path fill="none" stroke="midnightblue" d="M2156,-346.528C2171.36,-342.408 2188.39,-337.848 2204,-333.674 2215.46,-330.611 2227.9,-327.291 2239.3,-324.252"/>
<polygon fill="midnightblue" stroke="midnightblue" points="2154.92,-343.192 2146.17,-349.163 2156.74,-349.953 2154.92,-343.192"/>
</g>
<!-- Node14&#45;&gt;Node5 -->
<g id="edge30" class="edge"><title>Node14&#45;&gt;Node5</title>
<path fill="none" stroke="midnightblue" d="M528.347,-580.652C589.339,-577.728 677.39,-572.428 754,-563.674 775.387,-561.23 798.73,-557.665 819.278,-554.219"/>
<polygon fill="midnightblue" stroke="midnightblue" points="527.866,-577.17 518.041,-581.135 528.194,-584.162 527.866,-577.17"/>
</g>
<!-- Node15&#45;&gt;Node5 -->
<g id="edge34" class="edge"><title>Node15&#45;&gt;Node5</title>
<path fill="none" stroke="midnightblue" d="M310.333,-615.315C407.993,-617.868 597.329,-617.411 754,-584.674 788.372,-577.492 826.528,-563.838 851.092,-554.267"/>
<polygon fill="midnightblue" stroke="midnightblue" points="310.409,-611.816 300.315,-615.034 310.213,-618.813 310.409,-611.816"/>
</g>
<!-- Node17 -->
<g id="node36" class="node"><title>Node17</title>
<a xlink:href="classtetgenmesh.xhtml#a1be7dce56688fbe7a97fc31f98b61c19" target="_top" xlink:title="tetgenmesh::recoverboundary">
<polygon fill="none" stroke="black" points="380,-455.174 380,-476.174 526,-476.174 526,-455.174 380,-455.174"/>
<text text-anchor="middle" x="453" y="-463.174" font-family="Helvetica,sans-Serif" font-size="10.00">tetgenmesh::recoverboundary</text>
</a>
</g>
<!-- Node16&#45;&gt;Node17 -->
<g id="edge38" class="edge"><title>Node16&#45;&gt;Node17</title>
<path fill="none" stroke="midnightblue" d="M328.494,-465.674C345.467,-465.674 363.2,-465.674 379.784,-465.674"/>
<polygon fill="midnightblue" stroke="midnightblue" points="328.041,-462.174 318.041,-465.674 328.041,-469.174 328.041,-462.174"/>
</g>
<!-- Node17&#45;&gt;Node7 -->
<g id="edge40" class="edge"><title>Node17&#45;&gt;Node7</title>
<path fill="none" stroke="midnightblue" d="M536.322,-465.987C621.821,-466.28 758.694,-466.674 877,-466.674 877,-466.674 877,-466.674 1631,-466.674 1751.81,-466.674 1787.6,-464.746 1898,-415.674 1923.03,-404.549 1947.45,-383.505 1961.03,-370.621"/>
<polygon fill="midnightblue" stroke="midnightblue" points="536.166,-462.486 526.154,-465.951 536.142,-469.486 536.166,-462.486"/>
</g>
<!-- Node18&#45;&gt;Node17 -->
<g id="edge52" class="edge"><title>Node18&#45;&gt;Node17</title>
<path fill="none" stroke="midnightblue" d="M267.76,-386.12C290.617,-401.986 327.325,-425.736 362,-440.674 375.542,-446.508 390.81,-451.33 404.916,-455.13"/>
<polygon fill="midnightblue" stroke="midnightblue" points="269.62,-383.149 259.427,-380.257 265.592,-388.874 269.62,-383.149"/>
</g>
<!-- Node18&#45;&gt;Node19 -->
<g id="edge44" class="edge"><title>Node18&#45;&gt;Node19</title>
<path fill="none" stroke="midnightblue" d="M268.15,-352.888C285.724,-339.255 309.584,-318.73 326,-296.674 348.316,-266.692 333.372,-244.703 362,-220.674 369.404,-214.46 378.229,-209.782 387.426,-206.262"/>
<polygon fill="midnightblue" stroke="midnightblue" points="265.94,-350.172 260.088,-359.004 270.171,-355.749 265.94,-350.172"/>
</g>
<!-- Node20 -->
<g id="node43" class="node"><title>Node20</title>
<a xlink:href="classtetgenmesh.xhtml#affc448708b6df2b57048544d3efd6e3c" target="_top" xlink:title="tetgenmesh::suppresssteinerpoints">
<polygon fill="none" stroke="black" points="582.5,-31.1741 582.5,-52.1741 751.5,-52.1741 751.5,-31.1741 582.5,-31.1741"/>
<text text-anchor="middle" x="667" y="-39.1741" font-family="Helvetica,sans-Serif" font-size="10.00">tetgenmesh::suppresssteinerpoints</text>
</a>
</g>
<!-- Node18&#45;&gt;Node20 -->
<g id="edge50" class="edge"><title>Node18&#45;&gt;Node20</title>
<path fill="none" stroke="midnightblue" d="M270.913,-353.123C287.754,-341.613 309.554,-325.231 326,-307.674 345.719,-286.623 338.101,-269.825 362,-253.674 430.464,-207.404 484.878,-273.405 544,-215.674 594.29,-166.567 530.206,-111.285 580,-61.6741 583.733,-57.955 588.009,-54.8709 592.618,-52.3189"/>
<polygon fill="midnightblue" stroke="midnightblue" points="268.5,-350.526 262.132,-358.993 272.391,-356.345 268.5,-350.526"/>
</g>
<!-- Node21 -->
<g id="node48" class="node"><title>Node21</title>
<a xlink:href="classtetgenmesh.xhtml#a85e17b620820cbcb6cb47b565f822062" target="_top" xlink:title="tetgenmesh::meshcoarsening">
<polygon fill="none" stroke="black" points="1000.5,-417.174 1000.5,-438.174 1145.5,-438.174 1145.5,-417.174 1000.5,-417.174"/>
<text text-anchor="middle" x="1073" y="-425.174" font-family="Helvetica,sans-Serif" font-size="10.00">tetgenmesh::meshcoarsening</text>
</a>
</g>
<!-- Node18&#45;&gt;Node21 -->
<g id="edge54" class="edge"><title>Node18&#45;&gt;Node21</title>
<path fill="none" stroke="midnightblue" d="M335.95,-379.812C403.272,-387.03 497.265,-396.505 580,-402.674 729.133,-413.794 904.02,-421.37 1000.26,-425.067"/>
<polygon fill="midnightblue" stroke="midnightblue" points="336.115,-376.31 325.798,-378.72 335.366,-383.27 336.115,-376.31"/>
</g>
<!-- Node22 -->
<g id="node51" class="node"><title>Node22</title>
<a xlink:href="classtetgenmesh.xhtml#a6755cfa20d8ea6ce62d059750657a292" target="_top" xlink:title="tetgenmesh::lawsonflip3d">
<polygon fill="none" stroke="black" points="389,-263.174 389,-284.174 517,-284.174 517,-263.174 389,-263.174"/>
<text text-anchor="middle" x="453" y="-271.174" font-family="Helvetica,sans-Serif" font-size="10.00">tetgenmesh::lawsonflip3d</text>
</a>
</g>
<!-- Node18&#45;&gt;Node22 -->
<g id="edge58" class="edge"><title>Node18&#45;&gt;Node22</title>
<path fill="none" stroke="midnightblue" d="M277.371,-354.733C319.785,-335.158 393.108,-301.317 430.159,-284.216"/>
<polygon fill="midnightblue" stroke="midnightblue" points="275.667,-351.665 268.054,-359.034 278.601,-358.021 275.667,-351.665"/>
</g>
<!-- Node19&#45;&gt;Node20 -->
<g id="edge46" class="edge"><title>Node19&#45;&gt;Node20</title>
<path fill="none" stroke="midnightblue" d="M465.609,-176.383C485.975,-146.851 529.022,-90.8003 580,-61.6741 586.728,-57.8299 594.147,-54.7244 601.73,-52.2157"/>
<polygon fill="midnightblue" stroke="midnightblue" points="462.505,-174.725 459.812,-184.972 468.307,-178.641 462.505,-174.725"/>
</g>
<!-- Node20&#45;&gt;Node7 -->
<g id="edge48" class="edge"><title>Node20&#45;&gt;Node7</title>
<path fill="none" stroke="midnightblue" d="M748.679,-29.8355C830.525,-19.0107 960.212,-4.67409 1073,-4.67409 1073,-4.67409 1073,-4.67409 1631,-4.67409 1752.43,-4.67409 1810.84,21.883 1898,-62.6741 1940.72,-104.116 1965.34,-300.425 1970.82,-348.855"/>
<polygon fill="midnightblue" stroke="midnightblue" points="748.141,-26.3763 738.693,-31.1703 749.068,-33.3146 748.141,-26.3763"/>
</g>
<!-- Node21&#45;&gt;Node7 -->
<g id="edge56" class="edge"><title>Node21&#45;&gt;Node7</title>
<path fill="none" stroke="midnightblue" d="M1155.75,-427.674C1232.53,-427.674 1349.99,-427.674 1452,-427.674 1452,-427.674 1452,-427.674 1631,-427.674 1746.9,-427.674 1880.76,-389.424 1940.45,-370.299"/>
<polygon fill="midnightblue" stroke="midnightblue" points="1155.66,-424.174 1145.66,-427.674 1155.66,-431.174 1155.66,-424.174"/>
</g>
<!-- Node23 -->
<g id="node53" class="node"><title>Node23</title>
<a xlink:href="classtetgenmesh.xhtml#ad71017c71bd2cac0232c410a651ed085" target="_top" xlink:title="tetgenmesh::carveholes">
<polygon fill="none" stroke="black" points="1391.5,-378.174 1391.5,-399.174 1512.5,-399.174 1512.5,-378.174 1391.5,-378.174"/>
<text text-anchor="middle" x="1452" y="-386.174" font-family="Helvetica,sans-Serif" font-size="10.00">tetgenmesh::carveholes</text>
</a>
</g>
<!-- Node22&#45;&gt;Node23 -->
<g id="edge60" class="edge"><title>Node22&#45;&gt;Node23</title>
<path fill="none" stroke="midnightblue" d="M484.912,-288.59C554.5,-319.707 725.793,-388.674 877,-388.674 877,-388.674 877,-388.674 1073,-388.674 1185.35,-388.674 1316.44,-388.674 1391.28,-388.674"/>
<polygon fill="midnightblue" stroke="midnightblue" points="485.951,-285.219 475.397,-284.287 483.066,-291.597 485.951,-285.219"/>
</g>
<!-- Node24 -->
<g id="node56" class="node"><title>Node24</title>
<a xlink:href="classtetgenmesh.xhtml#ac8205cae8e16f490b80d74975934ff74" target="_top" xlink:title="tetgenmesh::insertconstrainedpoints">
<polygon fill="none" stroke="black" points="580,-71.1741 580,-92.1741 754,-92.1741 754,-71.1741 580,-71.1741"/>
<text text-anchor="middle" x="667" y="-79.1741" font-family="Helvetica,sans-Serif" font-size="10.00">tetgenmesh::insertconstrainedpoints</text>
</a>
</g>
<!-- Node22&#45;&gt;Node24 -->
<g id="edge64" class="edge"><title>Node22&#45;&gt;Node24</title>
<path fill="none" stroke="midnightblue" d="M526.917,-261.001C533.225,-257.751 539.068,-253.705 544,-248.674 589.58,-202.182 534.693,-153.432 580,-106.674 586.015,-100.467 593.461,-95.7725 601.445,-92.228"/>
<polygon fill="midnightblue" stroke="midnightblue" points="525.122,-257.968 517.394,-265.216 527.955,-264.369 525.122,-257.968"/>
</g>
<!-- Node26 -->
<g id="node61" class="node"><title>Node26</title>
<a xlink:href="classtetgenmesh.xhtml#a6394d7b4d386e8d08077c39cd8983e0e" target="_top" xlink:title="tetgenmesh::splitsegment">
<polygon fill="none" stroke="black" points="602.5,-243.174 602.5,-264.174 731.5,-264.174 731.5,-243.174 602.5,-243.174"/>
<text text-anchor="middle" x="667" y="-251.174" font-family="Helvetica,sans-Serif" font-size="10.00">tetgenmesh::splitsegment</text>
</a>
</g>
<!-- Node22&#45;&gt;Node26 -->
<g id="edge70" class="edge"><title>Node22&#45;&gt;Node26</title>
<path fill="none" stroke="midnightblue" d="M527.178,-266.742C551.687,-264.451 578.741,-261.923 602.469,-259.705"/>
<polygon fill="midnightblue" stroke="midnightblue" points="526.838,-263.258 517.207,-267.673 527.489,-270.228 526.838,-263.258"/>
</g>
<!-- Node28 -->
<g id="node65" class="node"><title>Node28</title>
<a xlink:href="classtetgenmesh.xhtml#a3a8404870ab3c2e8ce4312d48c2b29f4" target="_top" xlink:title="tetgenmesh::splitsubface">
<polygon fill="none" stroke="black" points="1010,-263.174 1010,-284.174 1136,-284.174 1136,-263.174 1010,-263.174"/>
<text text-anchor="middle" x="1073" y="-271.174" font-family="Helvetica,sans-Serif" font-size="10.00">tetgenmesh::splitsubface</text>
</a>
</g>
<!-- Node22&#45;&gt;Node28 -->
<g id="edge98" class="edge"><title>Node22&#45;&gt;Node28</title>
<path fill="none" stroke="midnightblue" d="M527.232,-282.6C626.811,-293.198 809.063,-307.771 964,-293.674 984.502,-291.809 1006.91,-288.009 1026.04,-284.217"/>
<polygon fill="midnightblue" stroke="midnightblue" points="527.588,-279.118 517.27,-281.523 526.836,-286.078 527.588,-279.118"/>
</g>
<!-- Node30 -->
<g id="node69" class="node"><title>Node30</title>
<a xlink:href="classtetgenmesh.xhtml#aa752155eb1d18550a212dd40297f122e" target="_top" xlink:title="tetgenmesh::splittetrahedron">
<polygon fill="none" stroke="black" points="1382,-243.174 1382,-264.174 1522,-264.174 1522,-243.174 1382,-243.174"/>
<text text-anchor="middle" x="1452" y="-251.174" font-family="Helvetica,sans-Serif" font-size="10.00">tetgenmesh::splittetrahedron</text>
</a>
</g>
<!-- Node22&#45;&gt;Node30 -->
<g id="edge100" class="edge"><title>Node22&#45;&gt;Node30</title>
<path fill="none" stroke="midnightblue" d="M505.844,-260.375C518.442,-256.87 531.776,-252.881 544,-248.674 560.39,-243.034 563.552,-239.144 580,-233.674 709.186,-190.709 740.856,-158.674 877,-158.674 877,-158.674 877,-158.674 1073,-158.674 1210.7,-158.674 1368.33,-218.41 1427.7,-243.144"/>
<polygon fill="midnightblue" stroke="midnightblue" points="504.66,-257.07 495.933,-263.077 506.502,-263.823 504.66,-257.07"/>
</g>
<!-- Node33 -->
<g id="node84" class="node"><title>Node33</title>
<a xlink:href="classtetgenmesh.xhtml#a4f6f365744005e9d9da43a7d8a1fbba8" target="_top" xlink:title="tetgenmesh::recoverdelaunay">
<polygon fill="none" stroke="black" points="1558.5,-157.174 1558.5,-178.174 1703.5,-178.174 1703.5,-157.174 1558.5,-157.174"/>
<text text-anchor="middle" x="1631" y="-165.174" font-family="Helvetica,sans-Serif" font-size="10.00">tetgenmesh::recoverdelaunay</text>
</a>
</g>
<!-- Node22&#45;&gt;Node33 -->
<g id="edge102" class="edge"><title>Node22&#45;&gt;Node33</title>
<path fill="none" stroke="midnightblue" d="M526.63,-259.753C532.891,-256.748 538.805,-253.1 544,-248.674 573.37,-223.65 549.362,-193.128 580,-169.674 686.231,-88.3519 743.216,-120.674 877,-120.674 877,-120.674 877,-120.674 1264,-120.674 1378.02,-120.674 1510.36,-143.269 1580.8,-157.126"/>
<polygon fill="midnightblue" stroke="midnightblue" points="525.103,-256.599 517.251,-263.713 527.825,-263.048 525.103,-256.599"/>
</g>
<!-- Node23&#45;&gt;Node7 -->
<g id="edge62" class="edge"><title>Node23&#45;&gt;Node7</title>
<path fill="none" stroke="midnightblue" d="M1522.83,-384.724C1634.63,-378.489 1848.12,-366.583 1934.42,-361.77"/>
<polygon fill="midnightblue" stroke="midnightblue" points="1522.46,-381.239 1512.67,-385.291 1522.85,-388.228 1522.46,-381.239"/>
</g>
<!-- Node24&#45;&gt;Node7 -->
<g id="edge68" class="edge"><title>Node24&#45;&gt;Node7</title>
<path fill="none" stroke="midnightblue" d="M734.791,-69.4779C752.697,-66.5784 772.039,-63.7327 790,-61.6741 915.241,-47.32 946.939,-42.6741 1073,-42.6741 1073,-42.6741 1073,-42.6741 1631,-42.6741 1773.37,-42.6741 1802.44,-114.135 1898,-219.674 1935.27,-260.84 1959.8,-324.208 1968.49,-349.109"/>
<polygon fill="midnightblue" stroke="midnightblue" points="734.02,-66.0577 724.723,-71.1376 735.159,-72.9644 734.02,-66.0577"/>
</g>
<!-- Node25 -->
<g id="node58" class="node"><title>Node25</title>
<a xlink:href="classtetgenmesh.xhtml#ab859365ca3dd3eafb77fac56d0ae3a03" target="_top" xlink:title="tetgenmesh::insertconstrainedpoints">
<polygon fill="none" stroke="black" points="790,-71.1741 790,-92.1741 964,-92.1741 964,-71.1741 790,-71.1741"/>
<text text-anchor="middle" x="877" y="-79.1741" font-family="Helvetica,sans-Serif" font-size="10.00">tetgenmesh::insertconstrainedpoints</text>
</a>
</g>
<!-- Node24&#45;&gt;Node25 -->
<g id="edge66" class="edge"><title>Node24&#45;&gt;Node25</title>
<path fill="none" stroke="midnightblue" d="M764.459,-81.6741C772.88,-81.6741 781.366,-81.6741 789.699,-81.6741"/>
<polygon fill="midnightblue" stroke="midnightblue" points="764.235,-78.1742 754.235,-81.6741 764.234,-85.1742 764.235,-78.1742"/>
</g>
<!-- Node27 -->
<g id="node63" class="node"><title>Node27</title>
<a xlink:href="classtetgenmesh.xhtml#a7af360f1ae413f9e0d7803ccae55b6d6" target="_top" xlink:title="tetgenmesh::repairencsegs">
<polygon fill="none" stroke="black" points="810,-263.174 810,-284.174 944,-284.174 944,-263.174 810,-263.174"/>
<text text-anchor="middle" x="877" y="-271.174" font-family="Helvetica,sans-Serif" font-size="10.00">tetgenmesh::repairencsegs</text>
</a>
</g>
<!-- Node26&#45;&gt;Node27 -->
<g id="edge72" class="edge"><title>Node26&#45;&gt;Node27</title>
<path fill="none" stroke="midnightblue" d="M741.783,-260.796C764.022,-262.914 788.239,-265.221 809.952,-267.289"/>
<polygon fill="midnightblue" stroke="midnightblue" points="742.007,-257.302 731.72,-259.838 741.344,-264.27 742.007,-257.302"/>
</g>
<!-- Node26&#45;&gt;Node28 -->
<g id="edge94" class="edge"><title>Node26&#45;&gt;Node28</title>
<path fill="none" stroke="midnightblue" d="M741.92,-249.928C802.074,-247.822 888.638,-246.817 964,-253.674 984.502,-255.539 1006.91,-259.339 1026.04,-263.131"/>
<polygon fill="midnightblue" stroke="midnightblue" points="741.616,-246.437 731.752,-250.304 741.874,-253.432 741.616,-246.437"/>
</g>
<!-- Node26&#45;&gt;Node30 -->
<g id="edge96" class="edge"><title>Node26&#45;&gt;Node30</title>
<path fill="none" stroke="midnightblue" d="M742.019,-247.37C757.853,-246.268 774.468,-245.281 790,-244.674 1036.92,-235.022 1099.22,-229.904 1346,-242.674 1357.64,-243.276 1369.97,-244.249 1381.95,-245.372"/>
<polygon fill="midnightblue" stroke="midnightblue" points="741.47,-243.9 731.746,-248.108 741.971,-250.882 741.47,-243.9"/>
</g>
<!-- Node27&#45;&gt;Node28 -->
<g id="edge74" class="edge"><title>Node27&#45;&gt;Node28</title>
<path fill="none" stroke="midnightblue" d="M954.292,-273.674C972.718,-273.674 992.168,-273.674 1009.87,-273.674"/>
<polygon fill="midnightblue" stroke="midnightblue" points="954.178,-270.174 944.178,-273.674 954.178,-277.174 954.178,-270.174"/>
</g>
<!-- Node27&#45;&gt;Node30 -->
<g id="edge90" class="edge"><title>Node27&#45;&gt;Node30</title>
<path fill="none" stroke="midnightblue" d="M940.158,-261.403C959.302,-258.225 980.441,-255.254 1000,-253.674 1134.73,-242.792 1292.79,-246.554 1381.78,-250.18"/>
<polygon fill="midnightblue" stroke="midnightblue" points="939.317,-257.995 930.049,-263.129 940.496,-264.895 939.317,-257.995"/>
</g>
<!-- Node32 -->
<g id="node73" class="node"><title>Node32</title>
<a xlink:href="classtetgenmesh.xhtml#a477bbfde72103de66546d4ea3343b4a1" target="_top" xlink:title="tetgenmesh::delaunayrefinement">
<polygon fill="none" stroke="black" points="1740,-320.174 1740,-341.174 1898,-341.174 1898,-320.174 1740,-320.174"/>
<text text-anchor="middle" x="1819" y="-328.174" font-family="Helvetica,sans-Serif" font-size="10.00">tetgenmesh::delaunayrefinement</text>
</a>
</g>
<!-- Node27&#45;&gt;Node32 -->
<g id="edge92" class="edge"><title>Node27&#45;&gt;Node32</title>
<path fill="none" stroke="midnightblue" d="M929.647,-286.634C990.114,-300.829 1092.51,-322.76 1182,-331.674 1348.3,-348.238 1390.88,-334.785 1558,-335.674 1622.89,-336.019 1639.13,-337.084 1704,-335.674 1715.59,-335.422 1727.83,-335.028 1739.83,-334.569"/>
<polygon fill="midnightblue" stroke="midnightblue" points="930.122,-283.15 919.585,-284.252 928.51,-289.962 930.122,-283.15"/>
</g>
<!-- Node29 -->
<g id="node67" class="node"><title>Node29</title>
<a xlink:href="classtetgenmesh.xhtml#a701d4f317ed66df6a2e2b7b237e2386a" target="_top" xlink:title="tetgenmesh::repairencfacs">
<polygon fill="none" stroke="black" points="1198,-301.174 1198,-322.174 1330,-322.174 1330,-301.174 1198,-301.174"/>
<text text-anchor="middle" x="1264" y="-309.174" font-family="Helvetica,sans-Serif" font-size="10.00">tetgenmesh::repairencfacs</text>
</a>
</g>
<!-- Node28&#45;&gt;Node29 -->
<g id="edge76" class="edge"><title>Node28&#45;&gt;Node29</title>
<path fill="none" stroke="midnightblue" d="M1135.8,-286.168C1160.11,-291.006 1187.65,-296.483 1210.95,-301.119"/>
<polygon fill="midnightblue" stroke="midnightblue" points="1136.44,-282.727 1125.95,-284.209 1135.08,-289.593 1136.44,-282.727"/>
</g>
<!-- Node28&#45;&gt;Node30 -->
<g id="edge88" class="edge"><title>Node28&#45;&gt;Node30</title>
<path fill="none" stroke="midnightblue" d="M1146.21,-269.811C1214.2,-266.223 1314.73,-260.918 1381.75,-257.381"/>
<polygon fill="midnightblue" stroke="midnightblue" points="1145.81,-266.327 1136.01,-270.349 1146.18,-273.317 1145.81,-266.327"/>
</g>
<!-- Node29&#45;&gt;Node30 -->
<g id="edge78" class="edge"><title>Node29&#45;&gt;Node30</title>
<path fill="none" stroke="midnightblue" d="M1308.63,-298.118C1320.76,-294.421 1333.89,-290.406 1346,-286.674 1370.13,-279.24 1397.32,-270.773 1418.12,-264.277"/>
<polygon fill="midnightblue" stroke="midnightblue" points="1307.27,-294.874 1298.73,-301.136 1309.31,-301.57 1307.27,-294.874"/>
</g>
<!-- Node29&#45;&gt;Node32 -->
<g id="edge86" class="edge"><title>Node29&#45;&gt;Node32</title>
<path fill="none" stroke="midnightblue" d="M1340.33,-314.287C1445.35,-317.883 1633.48,-324.323 1739.93,-327.967"/>
<polygon fill="midnightblue" stroke="midnightblue" points="1340.23,-310.782 1330.12,-313.938 1339.99,-317.778 1340.23,-310.782"/>
</g>
<!-- Node31 -->
<g id="node71" class="node"><title>Node31</title>
<a xlink:href="classtetgenmesh.xhtml#a7c46c82d83099214115fa9719aefbd78" target="_top" xlink:title="tetgenmesh::repairbadtets">
<polygon fill="none" stroke="black" points="1566,-253.174 1566,-274.174 1696,-274.174 1696,-253.174 1566,-253.174"/>
<text text-anchor="middle" x="1631" y="-261.174" font-family="Helvetica,sans-Serif" font-size="10.00">tetgenmesh::repairbadtets</text>
</a>
</g>
<!-- Node30&#45;&gt;Node31 -->
<g id="edge80" class="edge"><title>Node30&#45;&gt;Node31</title>
<path fill="none" stroke="midnightblue" d="M1532.45,-258.169C1543.66,-258.795 1555.06,-259.431 1565.93,-260.039"/>
<polygon fill="midnightblue" stroke="midnightblue" points="1532.41,-254.661 1522.23,-257.598 1532.02,-261.65 1532.41,-254.661"/>
</g>
<!-- Node31&#45;&gt;Node32 -->
<g id="edge82" class="edge"><title>Node31&#45;&gt;Node32</title>
<path fill="none" stroke="midnightblue" d="M1670.35,-277.696C1705.83,-290.341 1757.23,-308.66 1789.35,-320.107"/>
<polygon fill="midnightblue" stroke="midnightblue" points="1671.38,-274.351 1660.79,-274.29 1669.03,-280.944 1671.38,-274.351"/>
</g>
<!-- Node32&#45;&gt;Node7 -->
<g id="edge84" class="edge"><title>Node32&#45;&gt;Node7</title>
<path fill="none" stroke="midnightblue" d="M1884.56,-343.101C1901.55,-346.322 1919.28,-349.682 1934.3,-352.528"/>
<polygon fill="midnightblue" stroke="midnightblue" points="1885.15,-339.649 1874.67,-341.226 1883.84,-346.527 1885.15,-339.649"/>
</g>
<!-- Node33&#45;&gt;Node7 -->
<g id="edge104" class="edge"><title>Node33&#45;&gt;Node7</title>
<path fill="none" stroke="midnightblue" d="M1661.51,-182.841C1711.64,-208.024 1814.23,-260.655 1898,-310.674 1918.9,-323.155 1942.19,-338.895 1956.96,-349.117"/>
<polygon fill="midnightblue" stroke="midnightblue" points="1663,-179.673 1652.49,-178.323 1659.86,-185.931 1663,-179.673"/>
</g>
</g>
</svg>
