<?xml version="1.0" encoding="UTF-8" standalone="no"?>
<!DOCTYPE svg PUBLIC "-//W3C//DTD SVG 1.1//EN"
 "http://www.w3.org/Graphics/SVG/1.1/DTD/svg11.dtd">
<!-- Generated by graphviz version 2.26.3 (20100126.1600)
 -->
<!-- Title: tetgenmesh::makesegmentendpointsmap Pages: 1 -->
<svg width="860pt" height="134pt"
 viewBox="0.00 0.00 860.00 134.00" xmlns="http://www.w3.org/2000/svg" xmlns:xlink="http://www.w3.org/1999/xlink">
<g id="graph1" class="graph" transform="scale(1 1) rotate(0) translate(4 130)">
<title>tetgenmesh::makesegmentendpointsmap</title>
<!-- Node1 -->
<g id="node1" class="node"><title>Node1</title>
<polygon fill="#bfbfbf" stroke="black" points="0,-46.5 0,-67.5 196,-67.5 196,-46.5 0,-46.5"/>
<text text-anchor="middle" x="98" y="-54.5" font-family="Helvetica,sans-Serif" font-size="10.00">tetgenmesh::makesegmentendpointsmap</text>
</g>
<!-- Node2 -->
<g id="node3" class="node"><title>Node2</title>
<a xlink:href="classtetgenmesh.xhtml#aab64d62b3d2b048a38158fb2bf678624" target="_top" xlink:title="tetgenmesh::constraineddelaunay">
<polygon fill="none" stroke="black" points="232.5,-66.5 232.5,-87.5 395.5,-87.5 395.5,-66.5 232.5,-66.5"/>
<text text-anchor="middle" x="314" y="-74.5" font-family="Helvetica,sans-Serif" font-size="10.00">tetgenmesh::constraineddelaunay</text>
</a>
</g>
<!-- Node1&#45;&gt;Node2 -->
<g id="edge2" class="edge"><title>Node1&#45;&gt;Node2</title>
<path fill="none" stroke="midnightblue" d="M206.384,-67.0356C215.067,-67.8395 223.746,-68.6432 232.198,-69.4257"/>
<polygon fill="midnightblue" stroke="midnightblue" points="206.484,-63.5299 196.203,-66.0929 205.838,-70.5001 206.484,-63.5299"/>
</g>
<!-- Node10 -->
<g id="node19" class="node"><title>Node10</title>
<a xlink:href="classtetgenmesh.xhtml#a477bbfde72103de66546d4ea3343b4a1" target="_top" xlink:title="tetgenmesh::delaunayrefinement">
<polygon fill="none" stroke="black" points="235,-26.5 235,-47.5 393,-47.5 393,-26.5 235,-26.5"/>
<text text-anchor="middle" x="314" y="-34.5" font-family="Helvetica,sans-Serif" font-size="10.00">tetgenmesh::delaunayrefinement</text>
</a>
</g>
<!-- Node1&#45;&gt;Node10 -->
<g id="edge18" class="edge"><title>Node1&#45;&gt;Node10</title>
<path fill="none" stroke="midnightblue" d="M206.227,-46.979C215.857,-46.0873 225.484,-45.1959 234.803,-44.333"/>
<polygon fill="midnightblue" stroke="midnightblue" points="205.838,-43.4999 196.203,-47.9071 206.484,-50.4701 205.838,-43.4999"/>
</g>
<!-- Node3 -->
<g id="node5" class="node"><title>Node3</title>
<a xlink:href="tetgen_8h.xhtml#ad3637eb4ffe7fda90667e67b7771d964" target="_top" xlink:title="tetrahedralize">
<polygon fill="none" stroke="black" points="432.5,-46.5 432.5,-67.5 507.5,-67.5 507.5,-46.5 432.5,-46.5"/>
<text text-anchor="middle" x="470" y="-54.5" font-family="Helvetica,sans-Serif" font-size="10.00">tetrahedralize</text>
</a>
</g>
<!-- Node2&#45;&gt;Node3 -->
<g id="edge4" class="edge"><title>Node2&#45;&gt;Node3</title>
<path fill="none" stroke="midnightblue" d="M405.823,-65.2279C415.119,-64.036 424.145,-62.8789 432.349,-61.8271"/>
<polygon fill="midnightblue" stroke="midnightblue" points="405.129,-61.7881 395.655,-66.5314 406.019,-68.7313 405.129,-61.7881"/>
</g>
<!-- Node4 -->
<g id="node7" class="node"><title>Node4</title>
<a xlink:href="classGUICutRenderWindow.xhtml#a9eedb7088ad31f4680a77ed3a06fa60c" target="_top" xlink:title="Berechnet die 2D&#45;Temperaturverteilung als Grafik. ">
<polygon fill="none" stroke="black" points="546.5,-89 546.5,-123 663.5,-123 663.5,-89 546.5,-89"/>
<text text-anchor="start" x="554.5" y="-110" font-family="Helvetica,sans-Serif" font-size="10.00">GUICutRenderWindow</text>
<text text-anchor="middle" x="605" y="-97" font-family="Helvetica,sans-Serif" font-size="10.00">::renderImage</text>
</a>
</g>
<!-- Node3&#45;&gt;Node4 -->
<g id="edge6" class="edge"><title>Node3&#45;&gt;Node4</title>
<path fill="none" stroke="midnightblue" d="M508.675,-71.0375C524.063,-76.6228 541.912,-83.1014 558.034,-88.953"/>
<polygon fill="midnightblue" stroke="midnightblue" points="509.555,-67.6336 498.961,-67.5117 507.167,-74.2136 509.555,-67.6336"/>
</g>
<!-- Node6 -->
<g id="node11" class="node"><title>Node6</title>
<a xlink:href="classObjectData.xhtml#af3a850833d08eb9b45357449f455e24d" target="_top" xlink:title="Zerlegt das Objekt in Tetraeder (Schnittstelle zur Tetgen&#45;Bibliothek) und Berechnet die Temperaturver...">
<polygon fill="none" stroke="black" points="544,-46.5 544,-67.5 666,-67.5 666,-46.5 544,-46.5"/>
<text text-anchor="middle" x="605" y="-54.5" font-family="Helvetica,sans-Serif" font-size="10.00">ObjectData::calculateIO</text>
</a>
</g>
<!-- Node3&#45;&gt;Node6 -->
<g id="edge10" class="edge"><title>Node3&#45;&gt;Node6</title>
<path fill="none" stroke="midnightblue" d="M517.654,-57C526.112,-57 535.025,-57 543.795,-57"/>
<polygon fill="midnightblue" stroke="midnightblue" points="517.605,-53.5001 507.605,-57 517.605,-60.5001 517.605,-53.5001"/>
</g>
<!-- Node9 -->
<g id="node17" class="node"><title>Node9</title>
<a xlink:href="tetgen_8cxx.xhtml#a0ddf1224851353fc92bfbff6f499fa97" target="_top" xlink:title="main">
<polygon fill="none" stroke="black" points="586,-6.5 586,-27.5 624,-27.5 624,-6.5 586,-6.5"/>
<text text-anchor="middle" x="605" y="-14.5" font-family="Helvetica,sans-Serif" font-size="10.00">main</text>
</a>
</g>
<!-- Node3&#45;&gt;Node9 -->
<g id="edge16" class="edge"><title>Node3&#45;&gt;Node9</title>
<path fill="none" stroke="midnightblue" d="M515.154,-43.6209C539.267,-36.4764 567.668,-28.0613 585.984,-22.6343"/>
<polygon fill="midnightblue" stroke="midnightblue" points="514.063,-40.2937 505.47,-46.4905 516.052,-47.0053 514.063,-40.2937"/>
</g>
<!-- Node5 -->
<g id="node9" class="node"><title>Node5</title>
<a xlink:href="classGUICutRenderWindow.xhtml#a7cd1bfbec53756a1cbbe1616b4d46c7a" target="_top" xlink:title="Behandelt das Drücken des Buttons zur Berechnung der zweidimensionalen Temperaturverteilung. ">
<polygon fill="none" stroke="black" points="718.5,-92 718.5,-126 835.5,-126 835.5,-92 718.5,-92"/>
<text text-anchor="start" x="726.5" y="-113" font-family="Helvetica,sans-Serif" font-size="10.00">GUICutRenderWindow</text>
<text text-anchor="middle" x="777" y="-100" font-family="Helvetica,sans-Serif" font-size="10.00">::renderCutBtClick</text>
</a>
</g>
<!-- Node4&#45;&gt;Node5 -->
<g id="edge8" class="edge"><title>Node4&#45;&gt;Node5</title>
<path fill="none" stroke="midnightblue" d="M673.777,-107.2C688.511,-107.457 703.948,-107.726 718.261,-107.975"/>
<polygon fill="midnightblue" stroke="midnightblue" points="673.771,-103.699 663.712,-107.024 673.649,-110.698 673.771,-103.699"/>
</g>
<!-- Node7 -->
<g id="node13" class="node"><title>Node7</title>
<a xlink:href="classGUIMainWindow.xhtml#a0c2de30274c7f52ff74ec1217e47a9e5" target="_top" xlink:title="Berechnet die 3D&#45;Temperaturverteilung neu. ">
<polygon fill="none" stroke="black" points="702,-40 702,-74 852,-74 852,-40 702,-40"/>
<text text-anchor="start" x="710" y="-61" font-family="Helvetica,sans-Serif" font-size="10.00">GUIMainWindow::OnRecalcBt</text>
<text text-anchor="middle" x="777" y="-48" font-family="Helvetica,sans-Serif" font-size="10.00">Click</text>
</a>
</g>
<!-- Node6&#45;&gt;Node7 -->
<g id="edge12" class="edge"><title>Node6&#45;&gt;Node7</title>
<path fill="none" stroke="midnightblue" d="M676.316,-57C684.768,-57 693.415,-57 701.918,-57"/>
<polygon fill="midnightblue" stroke="midnightblue" points="676.125,-53.5001 666.125,-57 676.125,-60.5001 676.125,-53.5001"/>
</g>
<!-- Node8 -->
<g id="node15" class="node"><title>Node8</title>
<a xlink:href="classGUITimeline.xhtml#a099f3654aa6e7ea04df861851a0e9ec8" target="_top" xlink:title="Sucht den Zeitpunkt zwischen zwei markierten Stellen auf der Sensordaten&#45;Zeitleiste, für den der Wäremeenergiegehalt maximal wird. ">
<polygon fill="none" stroke="black" points="708.5,-0.5 708.5,-21.5 845.5,-21.5 845.5,-0.5 708.5,-0.5"/>
<text text-anchor="middle" x="777" y="-8.5" font-family="Helvetica,sans-Serif" font-size="10.00">GUITimeline::findMaxValue</text>
</a>
</g>
<!-- Node6&#45;&gt;Node8 -->
<g id="edge14" class="edge"><title>Node6&#45;&gt;Node8</title>
<path fill="none" stroke="midnightblue" d="M653.997,-43.8537C669.363,-39.7343 686.387,-35.1741 702,-31 713.456,-27.9371 725.899,-24.6167 737.296,-21.5777"/>
<polygon fill="midnightblue" stroke="midnightblue" points="652.923,-40.5181 644.17,-46.4885 654.735,-47.2793 652.923,-40.5181"/>
</g>
<!-- Node10&#45;&gt;Node3 -->
<g id="edge20" class="edge"><title>Node10&#45;&gt;Node3</title>
<path fill="none" stroke="midnightblue" d="M403.496,-48.4739C413.56,-49.7641 423.363,-51.0209 432.215,-52.1558"/>
<polygon fill="midnightblue" stroke="midnightblue" points="403.735,-44.9759 393.371,-47.1758 402.845,-51.9191 403.735,-44.9759"/>
</g>
</g>
</svg>
