<?xml version="1.0" encoding="UTF-8" standalone="no"?>
<!DOCTYPE svg PUBLIC "-//W3C//DTD SVG 1.1//EN"
 "http://www.w3.org/Graphics/SVG/1.1/DTD/svg11.dtd">
<!-- Generated by graphviz version 2.26.3 (20100126.1600)
 -->
<!-- Title: Importer::LoadTimedData Pages: 1 -->
<svg width="526pt" height="70pt"
 viewBox="0.00 0.00 526.00 70.00" xmlns="http://www.w3.org/2000/svg" xmlns:xlink="http://www.w3.org/1999/xlink">
<g id="graph1" class="graph" transform="scale(1 1) rotate(0) translate(4 66)">
<title>Importer::LoadTimedData</title>
<!-- Node1 -->
<g id="node1" class="node"><title>Node1</title>
<polygon fill="#bfbfbf" stroke="black" points="0,-20.5 0,-41.5 128,-41.5 128,-20.5 0,-20.5"/>
<text text-anchor="middle" x="64" y="-28.5" font-family="Helvetica,sans-Serif" font-size="10.00">Importer::LoadTimedData</text>
</g>
<!-- Node2 -->
<g id="node3" class="node"><title>Node2</title>
<a xlink:href="classObjectData.xhtml#ab2fabb02de2ac4b5ff09b73beb15223d" target="_top" xlink:title="Lädt ein Objekt und erste Sensordaten. ">
<polygon fill="none" stroke="black" points="168,-40.5 168,-61.5 296,-61.5 296,-40.5 168,-40.5"/>
<text text-anchor="middle" x="232" y="-48.5" font-family="Helvetica,sans-Serif" font-size="10.00">ObjectData::loadFromFile</text>
</a>
</g>
<!-- Node1&#45;&gt;Node2 -->
<g id="edge2" class="edge"><title>Node1&#45;&gt;Node2</title>
<path fill="none" stroke="midnightblue" d="M138.6,-39.881C148.401,-41.0477 158.374,-42.235 167.977,-43.3782"/>
<polygon fill="midnightblue" stroke="midnightblue" points="138.816,-36.3821 128.473,-38.6753 137.989,-43.333 138.816,-36.3821"/>
</g>
<!-- Node4 -->
<g id="node7" class="node"><title>Node4</title>
<a xlink:href="classObjectData.xhtml#ac8056d23b0882a826b6e572ff080688f" target="_top" xlink:title="Lädt zeitbezogene Sensordaten und verknüpft sie mit dem Objekt. ">
<polygon fill="none" stroke="black" points="164,-0.5 164,-21.5 300,-21.5 300,-0.5 164,-0.5"/>
<text text-anchor="middle" x="232" y="-8.5" font-family="Helvetica,sans-Serif" font-size="10.00">ObjectData::addTimedData</text>
</a>
</g>
<!-- Node1&#45;&gt;Node4 -->
<g id="edge6" class="edge"><title>Node1&#45;&gt;Node4</title>
<path fill="none" stroke="midnightblue" d="M138.611,-22.1177C146.993,-21.1198 155.502,-20.107 163.797,-19.1194"/>
<polygon fill="midnightblue" stroke="midnightblue" points="137.989,-18.667 128.473,-23.3247 138.816,-25.6179 137.989,-18.667"/>
</g>
<!-- Node3 -->
<g id="node5" class="node"><title>Node3</title>
<a xlink:href="classGUIMainWindow.xhtml#a9fd9f2be8f45cb5433193f5d28c924bc" target="_top" xlink:title="Event&#45;Tabellendeklaration für wxWidgets. ">
<polygon fill="none" stroke="black" points="339,-40.5 339,-61.5 515,-61.5 515,-40.5 339,-40.5"/>
<text text-anchor="middle" x="427" y="-48.5" font-family="Helvetica,sans-Serif" font-size="10.00">GUIMainWindow::OnMenuImportObj</text>
</a>
</g>
<!-- Node2&#45;&gt;Node3 -->
<g id="edge4" class="edge"><title>Node2&#45;&gt;Node3</title>
<path fill="none" stroke="midnightblue" d="M306.197,-51C316.853,-51 327.902,-51 338.796,-51"/>
<polygon fill="midnightblue" stroke="midnightblue" points="306.12,-47.5001 296.12,-51 306.12,-54.5001 306.12,-47.5001"/>
</g>
<!-- Node5 -->
<g id="node9" class="node"><title>Node5</title>
<a xlink:href="classGUIMainWindow.xhtml#ab6b1fb242c4b529764093a092349f560" target="_top" xlink:title="Öffnet den Dialog zum Importieren zeitbezogener Sensordaten. ">
<polygon fill="none" stroke="black" points="336,-0.5 336,-21.5 518,-21.5 518,-0.5 336,-0.5"/>
<text text-anchor="middle" x="427" y="-8.5" font-family="Helvetica,sans-Serif" font-size="10.00">GUIMainWindow::OnMenuImportTSD</text>
</a>
</g>
<!-- Node4&#45;&gt;Node5 -->
<g id="edge8" class="edge"><title>Node4&#45;&gt;Node5</title>
<path fill="none" stroke="midnightblue" d="M310.335,-11C318.738,-11 327.339,-11 335.874,-11"/>
<polygon fill="midnightblue" stroke="midnightblue" points="310.202,-7.5001 300.202,-11 310.202,-14.5001 310.202,-7.5001"/>
</g>
</g>
</svg>
