<?xml version="1.0" encoding="UTF-8" standalone="no"?>
<!DOCTYPE svg PUBLIC "-//W3C//DTD SVG 1.1//EN"
 "http://www.w3.org/Graphics/SVG/1.1/DTD/svg11.dtd">
<!-- Generated by graphviz version 2.26.3 (20100126.1600)
 -->
<!-- Title: GUITimeline Pages: 1 -->
<svg width="294pt" height="102pt"
 viewBox="0.00 0.00 294.00 102.00" xmlns="http://www.w3.org/2000/svg" xmlns:xlink="http://www.w3.org/1999/xlink">
<g id="graph1" class="graph" transform="scale(1 1) rotate(0) translate(4 98)">
<title>GUITimeline</title>
<!-- Node1 -->
<g id="node1" class="node"><title>Node1</title>
<polygon fill="#bfbfbf" stroke="black" points="88.5,-0.5 88.5,-21.5 159.5,-21.5 159.5,-0.5 88.5,-0.5"/>
<text text-anchor="middle" x="124" y="-8.5" font-family="Helvetica,sans-Serif" font-size="10.00">GUITimeline</text>
</g>
<!-- Node2 -->
<g id="node2" class="node"><title>Node2</title>
<polygon fill="none" stroke="#bfbfbf" points="0,-72.5 0,-93.5 54,-93.5 54,-72.5 0,-72.5"/>
<text text-anchor="middle" x="27" y="-80.5" font-family="Helvetica,sans-Serif" font-size="10.00">wxPanel</text>
</g>
<!-- Node2&#45;&gt;Node1 -->
<g id="edge2" class="edge"><title>Node2&#45;&gt;Node1</title>
<path fill="none" stroke="midnightblue" d="M49.5111,-66.2908C68.0476,-52.5316 93.7721,-33.4372 109.629,-21.6674"/>
<polygon fill="midnightblue" stroke="midnightblue" points="47.2563,-63.6055 41.3127,-72.3762 51.4285,-69.2263 47.2563,-63.6055"/>
</g>
<!-- Node3 -->
<g id="node4" class="node"><title>Node3</title>
<a xlink:href="classstd_1_1vector.xhtml" target="_top" xlink:title="std::vector\&lt; string \&gt;">
<polygon fill="none" stroke="black" points="71.5,-72.5 71.5,-93.5 176.5,-93.5 176.5,-72.5 71.5,-72.5"/>
<text text-anchor="middle" x="124" y="-80.5" font-family="Helvetica,sans-Serif" font-size="10.00">std::vector&lt; string &gt;</text>
</a>
</g>
<!-- Node3&#45;&gt;Node1 -->
<g id="edge4" class="edge"><title>Node3&#45;&gt;Node1</title>
<path fill="none" stroke="#9a32cd" stroke-dasharray="5,2" d="M124,-62.2348C124,-48.969 124,-32.3188 124,-21.6674"/>
<polygon fill="#9a32cd" stroke="#9a32cd" points="120.5,-62.3761 124,-72.3762 127.5,-62.3762 120.5,-62.3761"/>
<text text-anchor="middle" x="140.5" y="-44.5" font-family="Helvetica,sans-Serif" font-size="10.00"> names</text>
</g>
<!-- Node4 -->
<g id="node6" class="node"><title>Node4</title>
<a xlink:href="classstd_1_1vector.xhtml" target="_top" xlink:title="std::vector\&lt; int \&gt;">
<polygon fill="none" stroke="black" points="194,-72.5 194,-93.5 286,-93.5 286,-72.5 194,-72.5"/>
<text text-anchor="middle" x="240" y="-80.5" font-family="Helvetica,sans-Serif" font-size="10.00">std::vector&lt; int &gt;</text>
</a>
</g>
<!-- Node4&#45;&gt;Node1 -->
<g id="edge6" class="edge"><title>Node4&#45;&gt;Node1</title>
<path fill="none" stroke="#9a32cd" stroke-dasharray="5,2" d="M214.275,-67.0325C192.03,-53.2252 160.492,-33.6502 141.186,-21.6674"/>
<polygon fill="#9a32cd" stroke="#9a32cd" points="212.542,-70.0762 222.884,-72.3762 216.233,-64.1287 212.542,-70.0762"/>
<text text-anchor="middle" x="211.5" y="-44.5" font-family="Helvetica,sans-Serif" font-size="10.00"> markers</text>
</g>
</g>
</svg>
