<?xml version="1.0" encoding="UTF-8" standalone="no"?>
<!DOCTYPE svg PUBLIC "-//W3C//DTD SVG 1.1//EN"
 "http://www.w3.org/Graphics/SVG/1.1/DTD/svg11.dtd">
<!-- Generated by graphviz version 2.36.0 (20140111.2315)
 -->
<!-- Title: Renderer Pages: 1 -->
<svg width="504pt" height="244pt"
 viewBox="0.00 0.00 504.00 244.00" xmlns="http://www.w3.org/2000/svg" xmlns:xlink="http://www.w3.org/1999/xlink">
<g id="graph0" class="graph" transform="scale(1 1) rotate(0) translate(4 240)">
<title>Renderer</title>
<!-- Node1 -->
<g id="node1" class="node"><title>Node1</title>
<polygon fill="#bfbfbf" stroke="black" points="161,-0.5 161,-19.5 217,-19.5 217,-0.5 161,-0.5"/>
<text text-anchor="middle" x="189" y="-7.5" font-family="Helvetica,sans-Serif" font-size="10.00">Renderer</text>
</g>
<!-- Node2 -->
<g id="node2" class="node"><title>Node2</title>
<g id="a_node2"><a xlink:href="structRenderer_1_1Viewport__info.xhtml" target="_top" xlink:title="Informationen über die Ansicht des Modells (Virtuelle Kamera) und welche Elemente dargestellt werden...">
<polygon fill="none" stroke="black" points="0,-68.5 0,-87.5 122,-87.5 122,-68.5 0,-68.5"/>
<text text-anchor="middle" x="61" y="-75.5" font-family="Helvetica,sans-Serif" font-size="10.00">Renderer::Viewport_info</text>
</a>
</g>
</g>
<!-- Node2&#45;&gt;Node1 -->
<g id="edge1" class="edge"><title>Node2&#45;&gt;Node1</title>
<path fill="none" stroke="#9a32cd" stroke-dasharray="5,2" d="M86.8155,-63.6889C112.297,-50.5502 150.508,-30.8475 172.262,-19.6305"/>
<polygon fill="#9a32cd" stroke="#9a32cd" points="85.0178,-60.6779 77.7338,-68.3717 88.2258,-66.8995 85.0178,-60.6779"/>
<text text-anchor="middle" x="157" y="-41.5" font-family="Helvetica,sans-Serif" font-size="10.00"> viewport</text>
</g>
<!-- Node3 -->
<g id="node3" class="node"><title>Node3</title>
<g id="a_node3"><a xlink:href="classTriangle.xhtml" target="_top" xlink:title="Ein durch 3 Ortsvektoren beschriebenes Dreieck. ">
<polygon fill="none" stroke="black" points="150.5,-142.5 150.5,-161.5 201.5,-161.5 201.5,-142.5 150.5,-142.5"/>
<text text-anchor="middle" x="176" y="-149.5" font-family="Helvetica,sans-Serif" font-size="10.00">Triangle</text>
</a>
</g>
</g>
<!-- Node3&#45;&gt;Node2 -->
<g id="edge2" class="edge"><title>Node3&#45;&gt;Node2</title>
<path fill="none" stroke="#9a32cd" stroke-dasharray="5,2" d="M153.765,-137.079C130.327,-122.405 94.1549,-99.7578 74.6259,-87.531"/>
<polygon fill="#9a32cd" stroke="#9a32cd" points="152.023,-140.118 162.356,-142.458 155.738,-134.185 152.023,-140.118"/>
<text text-anchor="middle" x="130.5" y="-109.5" font-family="Helvetica,sans-Serif" font-size="10.00"> cut</text>
</g>
<!-- Node9 -->
<g id="node9" class="node"><title>Node9</title>
<g id="a_node9"><a xlink:href="structUtils_1_1CutRender__info.xhtml" target="_top" xlink:title="Daten zur Darstellung einer 2D&#45;Temperaturverteilungs&#45;Ebene. ">
<polygon fill="none" stroke="black" points="140.5,-68.5 140.5,-87.5 251.5,-87.5 251.5,-68.5 140.5,-68.5"/>
<text text-anchor="middle" x="196" y="-75.5" font-family="Helvetica,sans-Serif" font-size="10.00">Utils::CutRender_info</text>
</a>
</g>
</g>
<!-- Node3&#45;&gt;Node9 -->
<g id="edge10" class="edge"><title>Node3&#45;&gt;Node9</title>
<path fill="none" stroke="#9a32cd" stroke-dasharray="5,2" d="M181.116,-132.584C185.14,-118.094 190.565,-98.5676 193.63,-87.531"/>
<polygon fill="#9a32cd" stroke="#9a32cd" points="177.677,-131.886 178.373,-142.458 184.422,-133.76 177.677,-131.886"/>
<text text-anchor="middle" x="195" y="-109.5" font-family="Helvetica,sans-Serif" font-size="10.00"> tri</text>
</g>
<!-- Node4 -->
<g id="node4" class="node"><title>Node4</title>
<g id="a_node4"><a xlink:href="classVector3D.xhtml" target="_top" xlink:title="3D&#45;Vektorklasse mit nützlichen Operationen. ">
<polygon fill="none" stroke="black" points="88,-216.5 88,-235.5 146,-235.5 146,-216.5 88,-216.5"/>
<text text-anchor="middle" x="117" y="-223.5" font-family="Helvetica,sans-Serif" font-size="10.00">Vector3D</text>
</a>
</g>
</g>
<!-- Node4&#45;&gt;Node2 -->
<g id="edge4" class="edge"><title>Node4&#45;&gt;Node2</title>
<path fill="none" stroke="#9a32cd" stroke-dasharray="5,2" d="M99.6297,-209.28C89.16,-198.708 76.61,-183.848 70,-168 58.5214,-140.48 59.1982,-104.177 60.254,-87.7462"/>
<polygon fill="#9a32cd" stroke="#9a32cd" points="97.4674,-212.057 107.098,-216.474 102.324,-207.016 97.4674,-212.057"/>
<text text-anchor="middle" x="105.5" y="-149.5" font-family="Helvetica,sans-Serif" font-size="10.00"> cameraPosition</text>
</g>
<!-- Node4&#45;&gt;Node3 -->
<g id="edge3" class="edge"><title>Node4&#45;&gt;Node3</title>
<path fill="none" stroke="#9a32cd" stroke-dasharray="5,2" d="M130.376,-208.677C142.379,-194.029 159.522,-173.109 169.009,-161.531"/>
<polygon fill="#9a32cd" stroke="#9a32cd" points="127.631,-206.505 124,-216.458 133.045,-210.942 127.631,-206.505"/>
<text text-anchor="middle" x="161.5" y="-189.5" font-family="Helvetica,sans-Serif" font-size="10.00"> verts</text>
</g>
<!-- Node5 -->
<g id="node5" class="node"><title>Node5</title>
<g id="a_node5"><a xlink:href="classObjectData.xhtml" target="_top" xlink:title="Die Daten eines Versuchsobjekts. ">
<polygon fill="none" stroke="black" points="276,-68.5 276,-87.5 342,-87.5 342,-68.5 276,-68.5"/>
<text text-anchor="middle" x="309" y="-75.5" font-family="Helvetica,sans-Serif" font-size="10.00">ObjectData</text>
</a>
</g>
</g>
<!-- Node5&#45;&gt;Node1 -->
<g id="edge5" class="edge"><title>Node5&#45;&gt;Node1</title>
<path fill="none" stroke="#9a32cd" stroke-dasharray="5,2" d="M302.403,-58.8247C298.874,-51.4029 293.824,-43.329 287,-38 266.971,-22.3585 238.467,-15.7707 217.359,-13.0003"/>
<polygon fill="#9a32cd" stroke="#9a32cd" points="299.234,-60.3222 306.294,-68.2221 305.702,-57.6438 299.234,-60.3222"/>
<text text-anchor="middle" x="313" y="-41.5" font-family="Helvetica,sans-Serif" font-size="10.00"> object</text>
</g>
<!-- Node6 -->
<g id="node6" class="node"><title>Node6</title>
<g id="a_node6"><a xlink:href="classstd_1_1vector.xhtml" target="_top" xlink:title="std::vector\&lt; ObjectData\l::MaterialData \&gt;">
<polygon fill="none" stroke="black" points="223,-137 223,-167 345,-167 345,-137 223,-137"/>
<text text-anchor="start" x="231" y="-155" font-family="Helvetica,sans-Serif" font-size="10.00">std::vector&lt; ObjectData</text>
<text text-anchor="middle" x="284" y="-144" font-family="Helvetica,sans-Serif" font-size="10.00">::MaterialData &gt;</text>
</a>
</g>
</g>
<!-- Node6&#45;&gt;Node5 -->
<g id="edge6" class="edge"><title>Node6&#45;&gt;Node5</title>
<path fill="none" stroke="#9a32cd" stroke-dasharray="5,2" d="M292.303,-127.087C296.997,-113.568 302.585,-97.4757 305.959,-87.7589"/>
<polygon fill="#9a32cd" stroke="#9a32cd" points="288.913,-126.18 288.939,-136.775 295.526,-128.476 288.913,-126.18"/>
<text text-anchor="middle" x="321.5" y="-109.5" font-family="Helvetica,sans-Serif" font-size="10.00"> materials</text>
</g>
<!-- Node7 -->
<g id="node7" class="node"><title>Node7</title>
<g id="a_node7"><a xlink:href="structObjectData_1_1MaterialData.xhtml" target="_top" xlink:title="Die Daten eines Materials. ">
<polygon fill="none" stroke="black" points="220,-216.5 220,-235.5 348,-235.5 348,-216.5 220,-216.5"/>
<text text-anchor="middle" x="284" y="-223.5" font-family="Helvetica,sans-Serif" font-size="10.00">ObjectData::MaterialData</text>
</a>
</g>
</g>
<!-- Node7&#45;&gt;Node6 -->
<g id="edge7" class="edge"><title>Node7&#45;&gt;Node6</title>
<path fill="none" stroke="#9a32cd" stroke-dasharray="5,2" d="M284,-206.085C284,-193.915 284,-178.354 284,-167.232"/>
<polygon fill="#9a32cd" stroke="#9a32cd" points="280.5,-206.458 284,-216.458 287.5,-206.458 280.5,-206.458"/>
<text text-anchor="middle" x="303" y="-189.5" font-family="Helvetica,sans-Serif" font-size="10.00"> element</text>
</g>
<!-- Node8 -->
<g id="node8" class="node"><title>Node8</title>
<g id="a_node8"><a xlink:href="classstd_1_1vector.xhtml" target="_top" xlink:title="std::vector\&lt; SensorData \&gt;">
<polygon fill="none" stroke="black" points="363.5,-142.5 363.5,-161.5 496.5,-161.5 496.5,-142.5 363.5,-142.5"/>
<text text-anchor="middle" x="430" y="-149.5" font-family="Helvetica,sans-Serif" font-size="10.00">std::vector&lt; SensorData &gt;</text>
</a>
</g>
</g>
<!-- Node8&#45;&gt;Node5 -->
<g id="edge8" class="edge"><title>Node8&#45;&gt;Node5</title>
<path fill="none" stroke="#9a32cd" stroke-dasharray="5,2" d="M406.931,-137.273C382.281,-122.605 343.976,-99.8119 323.337,-87.531"/>
<polygon fill="#9a32cd" stroke="#9a32cd" points="405.261,-140.352 415.645,-142.458 408.841,-134.336 405.261,-140.352"/>
<text text-anchor="middle" x="409" y="-109.5" font-family="Helvetica,sans-Serif" font-size="10.00"> sensorDataList</text>
</g>
<!-- Node9&#45;&gt;Node1 -->
<g id="edge9" class="edge"><title>Node9&#45;&gt;Node1</title>
<path fill="none" stroke="#9a32cd" stroke-dasharray="5,2" d="M191.336,-58.1978C190.799,-55.4623 190.328,-52.669 190,-50 188.729,-39.6472 188.625,-27.6369 188.744,-19.7097"/>
<polygon fill="#9a32cd" stroke="#9a32cd" points="187.949,-59.0896 193.562,-68.0754 194.778,-57.5506 187.949,-59.0896"/>
<text text-anchor="middle" x="238.5" y="-41.5" font-family="Helvetica,sans-Serif" font-size="10.00"> cut_visualisation_info</text>
</g>
</g>
</svg>
