<?xml version="1.0" encoding="UTF-8" standalone="no"?>
<!DOCTYPE svg PUBLIC "-//W3C//DTD SVG 1.1//EN"
 "http://www.w3.org/Graphics/SVG/1.1/DTD/svg11.dtd">
<!-- Generated by graphviz version 2.26.3 (20100126.1600)
 -->
<!-- Title: Tetrahedron::getV2 Pages: 1 -->
<svg width="1080pt" height="186pt"
 viewBox="0.00 0.00 1080.00 186.00" xmlns="http://www.w3.org/2000/svg" xmlns:xlink="http://www.w3.org/1999/xlink">
<g id="graph1" class="graph" transform="scale(1 1) rotate(0) translate(4 182)">
<title>Tetrahedron::getV2</title>
<!-- Node1 -->
<g id="node1" class="node"><title>Node1</title>
<polygon fill="#bfbfbf" stroke="black" points="0,-98.5 0,-119.5 100,-119.5 100,-98.5 0,-98.5"/>
<text text-anchor="middle" x="50" y="-106.5" font-family="Helvetica,sans-Serif" font-size="10.00">Tetrahedron::getV2</text>
</g>
<!-- Node2 -->
<g id="node3" class="node"><title>Node2</title>
<a xlink:href="classInterpolator.xhtml#a30e714ca6dff9b5745d029f95af1420a" target="_top" xlink:title="Ermittelt den Wert für einen beliebigen Punkt im Raum. ">
<polygon fill="none" stroke="black" points="136.5,-98.5 136.5,-119.5 267.5,-119.5 267.5,-98.5 136.5,-98.5"/>
<text text-anchor="middle" x="202" y="-106.5" font-family="Helvetica,sans-Serif" font-size="10.00">Interpolator::interpolateTet</text>
</a>
</g>
<!-- Node1&#45;&gt;Node2 -->
<g id="edge2" class="edge"><title>Node1&#45;&gt;Node2</title>
<path fill="none" stroke="midnightblue" d="M110.437,-109C118.973,-109 127.782,-109 136.41,-109"/>
<polygon fill="midnightblue" stroke="midnightblue" points="110.192,-105.5 100.192,-109 110.192,-112.5 110.192,-105.5"/>
</g>
<!-- Node3 -->
<g id="node5" class="node"><title>Node3</title>
<a xlink:href="namespaceUtils.xhtml#a6a0ae18a42e2d206bc1b43da27820fe2" target="_top" xlink:title="Gibt den inter/extrapolierten Wert eines Punktes zurück. ">
<polygon fill="none" stroke="black" points="304,-98.5 304,-119.5 408,-119.5 408,-98.5 304,-98.5"/>
<text text-anchor="middle" x="356" y="-106.5" font-family="Helvetica,sans-Serif" font-size="10.00">Utils::getPointValue</text>
</a>
</g>
<!-- Node2&#45;&gt;Node3 -->
<g id="edge4" class="edge"><title>Node2&#45;&gt;Node3</title>
<path fill="none" stroke="midnightblue" d="M278.028,-109C286.807,-109 295.603,-109 303.96,-109"/>
<polygon fill="midnightblue" stroke="midnightblue" points="277.757,-105.5 267.757,-109 277.757,-112.5 277.757,-105.5"/>
</g>
<!-- Node4 -->
<g id="node7" class="node"><title>Node4</title>
<a xlink:href="GUICutRenderWindow_8cpp.xhtml#aeaaae4c8452680389d221d0e60a6fc33" target="_top" xlink:title="Funktion zum verteilten berechnen der 2D&#45;Temperaturverteilung. ">
<polygon fill="none" stroke="black" points="465,-144.5 465,-165.5 541,-165.5 541,-144.5 465,-144.5"/>
<text text-anchor="middle" x="503" y="-152.5" font-family="Helvetica,sans-Serif" font-size="10.00">render_thread</text>
</a>
</g>
<!-- Node3&#45;&gt;Node4 -->
<g id="edge6" class="edge"><title>Node3&#45;&gt;Node4</title>
<path fill="none" stroke="midnightblue" d="M399.335,-122.561C421.728,-129.568 448.641,-137.99 469.432,-144.496"/>
<polygon fill="midnightblue" stroke="midnightblue" points="400.314,-119.2 389.725,-119.553 398.223,-125.88 400.314,-119.2"/>
</g>
<!-- Node7 -->
<g id="node13" class="node"><title>Node7</title>
<a xlink:href="classAnalyzer.xhtml#a8f73ee0aa71ae395a74b43dc76b35458" target="_top" xlink:title="Ermittelt Daten für einen Punkt am aktuell ausgewählten Zeitpunkt. ">
<polygon fill="none" stroke="black" points="444.5,-98.5 444.5,-119.5 561.5,-119.5 561.5,-98.5 444.5,-98.5"/>
<text text-anchor="middle" x="503" y="-106.5" font-family="Helvetica,sans-Serif" font-size="10.00">Analyzer::analyzePoint</text>
</a>
</g>
<!-- Node3&#45;&gt;Node7 -->
<g id="edge12" class="edge"><title>Node3&#45;&gt;Node7</title>
<path fill="none" stroke="midnightblue" d="M418.285,-109C426.951,-109 435.829,-109 444.423,-109"/>
<polygon fill="midnightblue" stroke="midnightblue" points="418.241,-105.5 408.241,-109 418.241,-112.5 418.241,-105.5"/>
</g>
<!-- Node9 -->
<g id="node17" class="node"><title>Node9</title>
<a xlink:href="MeshProcessor_8cpp.xhtml#ad2670c4e8381f9a0a89c65f5559ed421" target="_top" xlink:title="interpolatePoint">
<polygon fill="none" stroke="black" points="461,-55.5 461,-76.5 545,-76.5 545,-55.5 461,-55.5"/>
<text text-anchor="middle" x="503" y="-63.5" font-family="Helvetica,sans-Serif" font-size="10.00">interpolatePoint</text>
</a>
</g>
<!-- Node3&#45;&gt;Node9 -->
<g id="edge16" class="edge"><title>Node3&#45;&gt;Node9</title>
<path fill="none" stroke="midnightblue" d="M401.639,-95.6499C422.644,-89.5054 447.213,-82.3185 466.902,-76.5594"/>
<polygon fill="midnightblue" stroke="midnightblue" points="400.575,-92.3142 391.96,-98.481 402.541,-99.0327 400.575,-92.3142"/>
</g>
<!-- Node5 -->
<g id="node9" class="node"><title>Node5</title>
<a xlink:href="classGUICutRenderWindow.xhtml#a9eedb7088ad31f4680a77ed3a06fa60c" target="_top" xlink:title="Berechnet die 2D&#45;Temperaturverteilung als Grafik. ">
<polygon fill="none" stroke="black" points="603.5,-144 603.5,-178 720.5,-178 720.5,-144 603.5,-144"/>
<text text-anchor="start" x="611.5" y="-165" font-family="Helvetica,sans-Serif" font-size="10.00">GUICutRenderWindow</text>
<text text-anchor="middle" x="662" y="-152" font-family="Helvetica,sans-Serif" font-size="10.00">::renderImage</text>
</a>
</g>
<!-- Node4&#45;&gt;Node5 -->
<g id="edge8" class="edge"><title>Node4&#45;&gt;Node5</title>
<path fill="none" stroke="midnightblue" d="M551.51,-156.831C567.887,-157.449 586.343,-158.145 603.414,-158.789"/>
<polygon fill="midnightblue" stroke="midnightblue" points="551.209,-153.317 541.084,-156.437 550.945,-160.312 551.209,-153.317"/>
</g>
<!-- Node6 -->
<g id="node11" class="node"><title>Node6</title>
<a xlink:href="classGUICutRenderWindow.xhtml#a7cd1bfbec53756a1cbbe1616b4d46c7a" target="_top" xlink:title="Behandelt das Drücken des Buttons zur Berechnung der zweidimensionalen Temperaturverteilung. ">
<polygon fill="none" stroke="black" points="765.5,-144 765.5,-178 882.5,-178 882.5,-144 765.5,-144"/>
<text text-anchor="start" x="773.5" y="-165" font-family="Helvetica,sans-Serif" font-size="10.00">GUICutRenderWindow</text>
<text text-anchor="middle" x="824" y="-152" font-family="Helvetica,sans-Serif" font-size="10.00">::renderCutBtClick</text>
</a>
</g>
<!-- Node5&#45;&gt;Node6 -->
<g id="edge10" class="edge"><title>Node5&#45;&gt;Node6</title>
<path fill="none" stroke="midnightblue" d="M731.263,-161C742.624,-161 754.3,-161 765.371,-161"/>
<polygon fill="midnightblue" stroke="midnightblue" points="730.944,-157.5 720.944,-161 730.944,-164.5 730.944,-157.5"/>
</g>
<!-- Node8 -->
<g id="node15" class="node"><title>Node8</title>
<a xlink:href="classGUIAnalyzePointWindow.xhtml#aa84ea9958e8b41423f01316d01ba5151" target="_top" xlink:title="Event&#45;Tabellendeklaration für wxWidgets. ">
<polygon fill="none" stroke="black" points="598,-92 598,-126 726,-126 726,-92 598,-92"/>
<text text-anchor="start" x="606" y="-113" font-family="Helvetica,sans-Serif" font-size="10.00">GUIAnalyzePointWindow</text>
<text text-anchor="middle" x="662" y="-100" font-family="Helvetica,sans-Serif" font-size="10.00">::analyzePoint</text>
</a>
</g>
<!-- Node7&#45;&gt;Node8 -->
<g id="edge14" class="edge"><title>Node7&#45;&gt;Node8</title>
<path fill="none" stroke="midnightblue" d="M571.811,-109C580.466,-109 589.294,-109 597.874,-109"/>
<polygon fill="midnightblue" stroke="midnightblue" points="571.754,-105.5 561.754,-109 571.754,-112.5 571.754,-105.5"/>
</g>
<!-- Node10 -->
<g id="node19" class="node"><title>Node10</title>
<a xlink:href="classMeshProcessor.xhtml#a060c3815db33f8e52ac620ed2239ccc9" target="_top" xlink:title="Berechnet die Temperaturverteilung für ein Objekt. ">
<polygon fill="none" stroke="black" points="599.5,-52.5 599.5,-73.5 724.5,-73.5 724.5,-52.5 599.5,-52.5"/>
<text text-anchor="middle" x="662" y="-60.5" font-family="Helvetica,sans-Serif" font-size="10.00">MeshProcessor::process</text>
</a>
</g>
<!-- Node9&#45;&gt;Node10 -->
<g id="edge18" class="edge"><title>Node9&#45;&gt;Node10</title>
<path fill="none" stroke="midnightblue" d="M555.595,-65.0076C569.564,-64.7441 584.789,-64.4568 599.241,-64.1841"/>
<polygon fill="midnightblue" stroke="midnightblue" points="555.124,-61.5158 545.192,-65.2039 555.256,-68.5146 555.124,-61.5158"/>
</g>
<!-- Node11 -->
<g id="node21" class="node"><title>Node11</title>
<a xlink:href="classAnalyzer.xhtml#a2a7b5f169f664ccd9f206e508cba78ef" target="_top" xlink:title="Ermittelt Daten für ein Objekt. ">
<polygon fill="none" stroke="black" points="762.5,-72.5 762.5,-93.5 885.5,-93.5 885.5,-72.5 762.5,-72.5"/>
<text text-anchor="middle" x="824" y="-80.5" font-family="Helvetica,sans-Serif" font-size="10.00">Analyzer::analyzeObject</text>
</a>
</g>
<!-- Node10&#45;&gt;Node11 -->
<g id="edge20" class="edge"><title>Node10&#45;&gt;Node11</title>
<path fill="none" stroke="midnightblue" d="M734.6,-71.963C743.86,-73.1062 753.268,-74.2677 762.333,-75.3868"/>
<polygon fill="midnightblue" stroke="midnightblue" points="734.987,-68.4842 724.633,-70.7325 734.129,-75.4315 734.987,-68.4842"/>
</g>
<!-- Node14 -->
<g id="node27" class="node"><title>Node14</title>
<a xlink:href="classObjectData.xhtml#af3a850833d08eb9b45357449f455e24d" target="_top" xlink:title="Zerlegt das Objekt in Tetraeder (Schnittstelle zur Tetgen&#45;Bibliothek) und Berechnet die Temperaturver...">
<polygon fill="none" stroke="black" points="763,-32.5 763,-53.5 885,-53.5 885,-32.5 763,-32.5"/>
<text text-anchor="middle" x="824" y="-40.5" font-family="Helvetica,sans-Serif" font-size="10.00">ObjectData::calculateIO</text>
</a>
</g>
<!-- Node10&#45;&gt;Node14 -->
<g id="edge26" class="edge"><title>Node10&#45;&gt;Node14</title>
<path fill="none" stroke="midnightblue" d="M734.745,-54.0192C744.14,-52.8593 753.684,-51.681 762.866,-50.5474"/>
<polygon fill="midnightblue" stroke="midnightblue" points="734.129,-50.5685 724.633,-55.2675 734.987,-57.5158 734.129,-50.5685"/>
</g>
<!-- Node12 -->
<g id="node23" class="node"><title>Node12</title>
<a xlink:href="classGUIAnalyzeOutputWindow.xhtml#a9ea5a7cf46d6189f368315903508cecc" target="_top" xlink:title="Methode zum aktualisieren des Fensters, alle Objekte werden erneut analysiert und die aktualisierten ...">
<polygon fill="none" stroke="black" points="930,-92 930,-126 1064,-126 1064,-92 930,-92"/>
<text text-anchor="start" x="938" y="-113" font-family="Helvetica,sans-Serif" font-size="10.00">GUIAnalyzeOutputWindow</text>
<text text-anchor="middle" x="997" y="-100" font-family="Helvetica,sans-Serif" font-size="10.00">::Update</text>
</a>
</g>
<!-- Node11&#45;&gt;Node12 -->
<g id="edge22" class="edge"><title>Node11&#45;&gt;Node12</title>
<path fill="none" stroke="midnightblue" d="M896.127,-93.8399C907.313,-95.5211 918.83,-97.2519 929.9,-98.9156"/>
<polygon fill="midnightblue" stroke="midnightblue" points="896.377,-90.3383 885.968,-92.3132 895.337,-97.2606 896.377,-90.3383"/>
</g>
<!-- Node13 -->
<g id="node25" class="node"><title>Node13</title>
<a xlink:href="classGUITimeline.xhtml#a099f3654aa6e7ea04df861851a0e9ec8" target="_top" xlink:title="Sucht den Zeitpunkt zwischen zwei markierten Stellen auf der Sensordaten&#45;Zeitleiste, für den der Wäremeenergiegehalt maximal wird. ">
<polygon fill="none" stroke="black" points="928.5,-52.5 928.5,-73.5 1065.5,-73.5 1065.5,-52.5 928.5,-52.5"/>
<text text-anchor="middle" x="997" y="-60.5" font-family="Helvetica,sans-Serif" font-size="10.00">GUITimeline::findMaxValue</text>
</a>
</g>
<!-- Node11&#45;&gt;Node13 -->
<g id="edge24" class="edge"><title>Node11&#45;&gt;Node13</title>
<path fill="none" stroke="midnightblue" d="M896.108,-74.6638C906.804,-73.4273 917.801,-72.1559 928.422,-70.9281"/>
<polygon fill="midnightblue" stroke="midnightblue" points="895.5,-71.2107 885.968,-75.836 896.304,-78.1644 895.5,-71.2107"/>
</g>
<!-- Node14&#45;&gt;Node13 -->
<g id="edge30" class="edge"><title>Node14&#45;&gt;Node13</title>
<path fill="none" stroke="midnightblue" d="M895.714,-51.2906C906.512,-52.539 917.628,-53.824 928.36,-55.0647"/>
<polygon fill="midnightblue" stroke="midnightblue" points="895.816,-47.7792 885.48,-50.1076 895.012,-54.7329 895.816,-47.7792"/>
</g>
<!-- Node15 -->
<g id="node29" class="node"><title>Node15</title>
<a xlink:href="classGUIMainWindow.xhtml#a0c2de30274c7f52ff74ec1217e47a9e5" target="_top" xlink:title="Berechnet die 3D&#45;Temperaturverteilung neu. ">
<polygon fill="none" stroke="black" points="922,-0 922,-34 1072,-34 1072,-0 922,-0"/>
<text text-anchor="start" x="930" y="-21" font-family="Helvetica,sans-Serif" font-size="10.00">GUIMainWindow::OnRecalcBt</text>
<text text-anchor="middle" x="997" y="-8" font-family="Helvetica,sans-Serif" font-size="10.00">Click</text>
</a>
</g>
<!-- Node14&#45;&gt;Node15 -->
<g id="edge28" class="edge"><title>Node14&#45;&gt;Node15</title>
<path fill="none" stroke="midnightblue" d="M895.534,-32.2492C904.197,-30.9472 913.067,-29.6141 921.782,-28.3044"/>
<polygon fill="midnightblue" stroke="midnightblue" points="894.849,-28.8128 885.48,-33.7602 895.89,-35.735 894.849,-28.8128"/>
</g>
</g>
</svg>
