<?xml version="1.0" encoding="UTF-8" standalone="no"?>
<!DOCTYPE svg PUBLIC "-//W3C//DTD SVG 1.1//EN"
 "http://www.w3.org/Graphics/SVG/1.1/DTD/svg11.dtd">
<!-- Generated by graphviz version 2.26.3 (20100126.1600)
 -->
<!-- Title: ObjectData Pages: 1 -->
<svg width="440pt" height="416pt"
 viewBox="0.00 0.00 440.00 416.00" xmlns="http://www.w3.org/2000/svg" xmlns:xlink="http://www.w3.org/1999/xlink">
<g id="graph1" class="graph" transform="scale(1 1) rotate(0) translate(4 412)">
<title>ObjectData</title>
<!-- Node1 -->
<g id="node1" class="node"><title>Node1</title>
<polygon fill="#bfbfbf" stroke="black" points="296,-0.5 296,-21.5 362,-21.5 362,-0.5 296,-0.5"/>
<text text-anchor="middle" x="329" y="-8.5" font-family="Helvetica,sans-Serif" font-size="10.00">ObjectData</text>
</g>
<!-- Node2 -->
<g id="node2" class="node"><title>Node2</title>
<a xlink:href="classstd_1_1vector.xhtml" target="_top" xlink:title="std::vector\&lt; ObjectData\l::MaterialData \&gt;">
<polygon fill="none" stroke="black" points="160,-73 160,-107 282,-107 282,-73 160,-73"/>
<text text-anchor="start" x="168" y="-94" font-family="Helvetica,sans-Serif" font-size="10.00">std::vector&lt; ObjectData</text>
<text text-anchor="middle" x="221" y="-81" font-family="Helvetica,sans-Serif" font-size="10.00">::MaterialData &gt;</text>
</a>
</g>
<!-- Node2&#45;&gt;Node1 -->
<g id="edge2" class="edge"><title>Node2&#45;&gt;Node1</title>
<path fill="none" stroke="#9a32cd" stroke-dasharray="5,2" d="M252.565,-66.9106C273.055,-51.9227 298.786,-33.1008 314.554,-21.5672"/>
<polygon fill="#9a32cd" stroke="#9a32cd" points="250.439,-64.1293 244.434,-72.8582 254.572,-69.7791 250.439,-64.1293"/>
<text text-anchor="middle" x="309.5" y="-44.5" font-family="Helvetica,sans-Serif" font-size="10.00"> materials</text>
</g>
<!-- Node3 -->
<g id="node4" class="node"><title>Node3</title>
<a xlink:href="structObjectData_1_1MaterialData.xhtml" target="_top" xlink:title="Die Daten eines Materials. ">
<polygon fill="none" stroke="black" points="157,-158.5 157,-179.5 285,-179.5 285,-158.5 157,-158.5"/>
<text text-anchor="middle" x="221" y="-166.5" font-family="Helvetica,sans-Serif" font-size="10.00">ObjectData::MaterialData</text>
</a>
</g>
<!-- Node3&#45;&gt;Node2 -->
<g id="edge4" class="edge"><title>Node3&#45;&gt;Node2</title>
<path fill="none" stroke="#9a32cd" stroke-dasharray="5,2" d="M221,-148.162C221,-135.363 221,-119.171 221,-107.124"/>
<polygon fill="#9a32cd" stroke="#9a32cd" points="217.5,-148.346 221,-158.346 224.5,-148.346 217.5,-148.346"/>
<text text-anchor="middle" x="240" y="-130.5" font-family="Helvetica,sans-Serif" font-size="10.00"> element</text>
</g>
<!-- Node4 -->
<g id="node6" class="node"><title>Node4</title>
<a xlink:href="classtetgenio.xhtml" target="_top" xlink:title="tetgenio">
<polygon fill="none" stroke="black" points="195.5,-242.5 195.5,-263.5 246.5,-263.5 246.5,-242.5 195.5,-242.5"/>
<text text-anchor="middle" x="221" y="-250.5" font-family="Helvetica,sans-Serif" font-size="10.00">tetgenio</text>
</a>
</g>
<!-- Node4&#45;&gt;Node3 -->
<g id="edge6" class="edge"><title>Node4&#45;&gt;Node3</title>
<path fill="none" stroke="#9a32cd" stroke-dasharray="5,2" d="M221,-231.945C221,-215.257 221,-192.639 221,-179.552"/>
<polygon fill="#9a32cd" stroke="#9a32cd" points="217.5,-232.361 221,-242.361 224.5,-232.361 217.5,-232.361"/>
<text text-anchor="middle" x="250" y="-215" font-family="Helvetica,sans-Serif" font-size="10.00"> tetgenoutput</text>
<text text-anchor="middle" x="250" y="-202" font-family="Helvetica,sans-Serif" font-size="10.00">tetgeninput</text>
</g>
<!-- Node5 -->
<g id="node8" class="node"><title>Node5</title>
<a xlink:href="structtetgenio_1_1vorofacet.xhtml" target="_top" xlink:title="tetgenio::vorofacet">
<polygon fill="none" stroke="black" points="0,-314.5 0,-335.5 98,-335.5 98,-314.5 0,-314.5"/>
<text text-anchor="middle" x="49" y="-322.5" font-family="Helvetica,sans-Serif" font-size="10.00">tetgenio::vorofacet</text>
</a>
</g>
<!-- Node5&#45;&gt;Node4 -->
<g id="edge8" class="edge"><title>Node5&#45;&gt;Node4</title>
<path fill="none" stroke="#9a32cd" stroke-dasharray="5,2" d="M77.9337,-309.517C94.6543,-300.87 116.232,-290.217 136,-282 155.581,-273.861 178.347,-266.185 195.387,-260.777"/>
<polygon fill="#9a32cd" stroke="#9a32cd" points="75.9417,-306.609 68.7004,-314.343 79.1842,-312.812 75.9417,-306.609"/>
<text text-anchor="middle" x="157.5" y="-286.5" font-family="Helvetica,sans-Serif" font-size="10.00"> vfacetlist</text>
</g>
<!-- Node6 -->
<g id="node10" class="node"><title>Node6</title>
<a xlink:href="structtetgenio_1_1facet.xhtml" target="_top" xlink:title="tetgenio::facet">
<polygon fill="none" stroke="black" points="115.5,-314.5 115.5,-335.5 194.5,-335.5 194.5,-314.5 115.5,-314.5"/>
<text text-anchor="middle" x="155" y="-322.5" font-family="Helvetica,sans-Serif" font-size="10.00">tetgenio::facet</text>
</a>
</g>
<!-- Node6&#45;&gt;Node4 -->
<g id="edge10" class="edge"><title>Node6&#45;&gt;Node4</title>
<path fill="none" stroke="#9a32cd" stroke-dasharray="5,2" d="M171.53,-306.968C184.031,-293.329 200.774,-275.064 211.222,-263.667"/>
<polygon fill="#9a32cd" stroke="#9a32cd" points="168.916,-304.64 164.739,-314.376 174.076,-309.37 168.916,-304.64"/>
<text text-anchor="middle" x="213" y="-286.5" font-family="Helvetica,sans-Serif" font-size="10.00"> facetlist</text>
</g>
<!-- Node7 -->
<g id="node12" class="node"><title>Node7</title>
<a xlink:href="structtetgenio_1_1polygon.xhtml" target="_top" xlink:title="tetgenio::polygon">
<polygon fill="none" stroke="black" points="109.5,-386.5 109.5,-407.5 200.5,-407.5 200.5,-386.5 109.5,-386.5"/>
<text text-anchor="middle" x="155" y="-394.5" font-family="Helvetica,sans-Serif" font-size="10.00">tetgenio::polygon</text>
</a>
</g>
<!-- Node7&#45;&gt;Node6 -->
<g id="edge12" class="edge"><title>Node7&#45;&gt;Node6</title>
<path fill="none" stroke="#9a32cd" stroke-dasharray="5,2" d="M155,-376.235C155,-362.969 155,-346.319 155,-335.667"/>
<polygon fill="#9a32cd" stroke="#9a32cd" points="151.5,-376.376 155,-386.376 158.5,-376.376 151.5,-376.376"/>
<text text-anchor="middle" x="180" y="-358.5" font-family="Helvetica,sans-Serif" font-size="10.00"> polygonlist</text>
</g>
<!-- Node8 -->
<g id="node14" class="node"><title>Node8</title>
<a xlink:href="structtetgenio_1_1pointparam.xhtml" target="_top" xlink:title="tetgenio::pointparam">
<polygon fill="none" stroke="black" points="211.5,-314.5 211.5,-335.5 316.5,-335.5 316.5,-314.5 211.5,-314.5"/>
<text text-anchor="middle" x="264" y="-322.5" font-family="Helvetica,sans-Serif" font-size="10.00">tetgenio::pointparam</text>
</a>
</g>
<!-- Node8&#45;&gt;Node4 -->
<g id="edge14" class="edge"><title>Node8&#45;&gt;Node4</title>
<path fill="none" stroke="#9a32cd" stroke-dasharray="5,2" d="M252.306,-305.419C244.276,-291.973 233.923,-274.638 227.371,-263.667"/>
<polygon fill="#9a32cd" stroke="#9a32cd" points="249.523,-307.585 257.655,-314.376 255.533,-303.996 249.523,-307.585"/>
<text text-anchor="middle" x="279" y="-286.5" font-family="Helvetica,sans-Serif" font-size="10.00"> pointparamlist</text>
</g>
<!-- Node9 -->
<g id="node16" class="node"><title>Node9</title>
<a xlink:href="structtetgenio_1_1voroedge.xhtml" target="_top" xlink:title="tetgenio::voroedge">
<polygon fill="none" stroke="black" points="333.5,-314.5 333.5,-335.5 430.5,-335.5 430.5,-314.5 333.5,-314.5"/>
<text text-anchor="middle" x="382" y="-322.5" font-family="Helvetica,sans-Serif" font-size="10.00">tetgenio::voroedge</text>
</a>
</g>
<!-- Node9&#45;&gt;Node4 -->
<g id="edge16" class="edge"><title>Node9&#45;&gt;Node4</title>
<path fill="none" stroke="#9a32cd" stroke-dasharray="5,2" d="M359.548,-308.405C346.938,-299.656 330.634,-289.263 315,-282 292.851,-271.71 266.116,-263.867 246.83,-258.948"/>
<polygon fill="#9a32cd" stroke="#9a32cd" points="357.835,-311.481 368.015,-314.417 361.888,-305.774 357.835,-311.481"/>
<text text-anchor="middle" x="361.5" y="-286.5" font-family="Helvetica,sans-Serif" font-size="10.00"> vedgelist</text>
</g>
<!-- Node10 -->
<g id="node18" class="node"><title>Node10</title>
<a xlink:href="classstd_1_1vector.xhtml" target="_top" xlink:title="std::vector\&lt; SensorData \&gt;">
<polygon fill="none" stroke="black" points="299.5,-79.5 299.5,-100.5 432.5,-100.5 432.5,-79.5 299.5,-79.5"/>
<text text-anchor="middle" x="366" y="-87.5" font-family="Helvetica,sans-Serif" font-size="10.00">std::vector&lt; SensorData &gt;</text>
</a>
</g>
<!-- Node10&#45;&gt;Node1 -->
<g id="edge18" class="edge"><title>Node10&#45;&gt;Node1</title>
<path fill="none" stroke="#9a32cd" stroke-dasharray="5,2" d="M356.711,-70.1664C349.521,-54.8152 339.839,-34.1434 334.029,-21.7378"/>
<polygon fill="#9a32cd" stroke="#9a32cd" points="353.599,-71.7742 361.01,-79.3457 359.938,-68.8052 353.599,-71.7742"/>
<text text-anchor="middle" x="384" y="-44.5" font-family="Helvetica,sans-Serif" font-size="10.00"> sensorDataList</text>
</g>
</g>
</svg>
