<?xml version="1.0" encoding="UTF-8" standalone="no"?>
<!DOCTYPE svg PUBLIC "-//W3C//DTD SVG 1.1//EN"
 "http://www.w3.org/Graphics/SVG/1.1/DTD/svg11.dtd">
<!-- Generated by graphviz version 2.26.3 (20100126.1600)
 -->
<!-- Title: tetgenmesh::insertpoint_abort Pages: 1 -->
<svg width="2154pt" height="641pt"
 viewBox="0.00 0.00 2154.00 640.80" xmlns="http://www.w3.org/2000/svg" xmlns:xlink="http://www.w3.org/1999/xlink">
<g id="graph1" class="graph" transform="scale(1 1) rotate(0) translate(4 636.801)">
<title>tetgenmesh::insertpoint_abort</title>
<!-- Node1 -->
<g id="node1" class="node"><title>Node1</title>
<polygon fill="#bfbfbf" stroke="black" points="0.5,-346 0.5,-380 119.5,-380 119.5,-346 0.5,-346"/>
<text text-anchor="start" x="8.5" y="-367" font-family="Helvetica,sans-Serif" font-size="10.00">tetgenmesh::insertpoint</text>
<text text-anchor="middle" x="60" y="-354" font-family="Helvetica,sans-Serif" font-size="10.00">_abort</text>
</g>
<!-- Node2 -->
<g id="node3" class="node"><title>Node2</title>
<a xlink:href="classtetgenmesh.xhtml#a5d85611ca91db181e357457beb13a633" target="_top" xlink:title="tetgenmesh::insertpoint">
<polygon fill="none" stroke="black" points="156.5,-352.5 156.5,-373.5 275.5,-373.5 275.5,-352.5 156.5,-352.5"/>
<text text-anchor="middle" x="216" y="-360.5" font-family="Helvetica,sans-Serif" font-size="10.00">tetgenmesh::insertpoint</text>
</a>
</g>
<!-- Node1&#45;&gt;Node2 -->
<g id="edge2" class="edge"><title>Node1&#45;&gt;Node2</title>
<path fill="none" stroke="midnightblue" d="M130.06,-363C138.819,-363 147.712,-363 156.293,-363"/>
<polygon fill="midnightblue" stroke="midnightblue" points="129.868,-359.5 119.868,-363 129.867,-366.5 129.868,-359.5"/>
</g>
<!-- Node3 -->
<g id="node5" class="node"><title>Node3</title>
<a xlink:href="classtetgenmesh.xhtml#a5a5a0513d0bea7aa457eb0bc5fad1b02" target="_top" xlink:title="tetgenmesh::incrementaldelaunay">
<polygon fill="none" stroke="black" points="1332.5,-558.5 1332.5,-579.5 1495.5,-579.5 1495.5,-558.5 1332.5,-558.5"/>
<text text-anchor="middle" x="1414" y="-566.5" font-family="Helvetica,sans-Serif" font-size="10.00">tetgenmesh::incrementaldelaunay</text>
</a>
</g>
<!-- Node2&#45;&gt;Node3 -->
<g id="edge4" class="edge"><title>Node2&#45;&gt;Node3</title>
<path fill="none" stroke="midnightblue" d="M217.88,-383.834C223.243,-429.685 243.011,-539.206 312,-589 423.003,-669.118 482.104,-614 619,-614 619,-614 619,-614 1017,-614 1138.74,-614 1280.14,-592.851 1357.03,-579.551"/>
<polygon fill="midnightblue" stroke="midnightblue" points="221.333,-383.202 216.806,-373.623 214.372,-383.935 221.333,-383.202"/>
</g>
<!-- Node11 -->
<g id="node21" class="node"><title>Node11</title>
<a xlink:href="classtetgenmesh.xhtml#a8dee14a42e35e4fe65944518eed4f7d3" target="_top" xlink:title="tetgenmesh::delaunizesegments">
<polygon fill="none" stroke="black" points="938,-555.5 938,-576.5 1096,-576.5 1096,-555.5 938,-555.5"/>
<text text-anchor="middle" x="1017" y="-563.5" font-family="Helvetica,sans-Serif" font-size="10.00">tetgenmesh::delaunizesegments</text>
</a>
</g>
<!-- Node2&#45;&gt;Node11 -->
<g id="edge20" class="edge"><title>Node2&#45;&gt;Node11</title>
<path fill="none" stroke="midnightblue" d="M219.18,-384.073C226.723,-425.723 249.958,-517.928 312,-557 413.959,-621.211 776.052,-591.983 937.87,-575.057"/>
<polygon fill="midnightblue" stroke="midnightblue" points="222.591,-383.253 217.483,-373.971 215.688,-384.413 222.591,-383.253"/>
</g>
<!-- Node13 -->
<g id="node26" class="node"><title>Node13</title>
<a xlink:href="classtetgenmesh.xhtml#ab1a82368937a13996efae911b8b1fded" target="_top" xlink:title="tetgenmesh::delaunizecavity">
<polygon fill="none" stroke="black" points="328.5,-526.5 328.5,-547.5 469.5,-547.5 469.5,-526.5 328.5,-526.5"/>
<text text-anchor="middle" x="399" y="-534.5" font-family="Helvetica,sans-Serif" font-size="10.00">tetgenmesh::delaunizecavity</text>
</a>
</g>
<!-- Node2&#45;&gt;Node13 -->
<g id="edge26" class="edge"><title>Node2&#45;&gt;Node13</title>
<path fill="none" stroke="midnightblue" d="M223.497,-383.149C236.496,-415.298 266.289,-478.028 312,-512 320.325,-518.187 330.14,-522.845 340.123,-526.352"/>
<polygon fill="midnightblue" stroke="midnightblue" points="226.629,-381.548 219.733,-373.504 220.108,-384.092 226.629,-381.548"/>
</g>
<!-- Node14 -->
<g id="node28" class="node"><title>Node14</title>
<a xlink:href="classtetgenmesh.xhtml#a9c967ef25cfd6e06d6b9301302be3f70" target="_top" xlink:title="tetgenmesh::insertpoint_cdt">
<polygon fill="none" stroke="black" points="550.5,-487.5 550.5,-508.5 687.5,-508.5 687.5,-487.5 550.5,-487.5"/>
<text text-anchor="middle" x="619" y="-495.5" font-family="Helvetica,sans-Serif" font-size="10.00">tetgenmesh::insertpoint_cdt</text>
</a>
</g>
<!-- Node2&#45;&gt;Node14 -->
<g id="edge38" class="edge"><title>Node2&#45;&gt;Node14</title>
<path fill="none" stroke="midnightblue" d="M225.725,-382.811C240.273,-409.994 270.499,-457.886 312,-479 387.438,-517.38 487.146,-515.518 552.154,-508.533"/>
<polygon fill="midnightblue" stroke="midnightblue" points="228.78,-381.1 221.082,-373.821 222.561,-384.312 228.78,-381.1"/>
</g>
<!-- Node17 -->
<g id="node37" class="node"><title>Node17</title>
<a xlink:href="classtetgenmesh.xhtml#acb5fc751eaa4a4ddffbebedfa7b7382a" target="_top" xlink:title="tetgenmesh::add_steinerpt\l_in_schoenhardtpoly">
<polygon fill="none" stroke="black" points="333,-346 333,-380 465,-380 465,-346 333,-346"/>
<text text-anchor="start" x="341" y="-367" font-family="Helvetica,sans-Serif" font-size="10.00">tetgenmesh::add_steinerpt</text>
<text text-anchor="middle" x="399" y="-354" font-family="Helvetica,sans-Serif" font-size="10.00">_in_schoenhardtpoly</text>
</a>
</g>
<!-- Node2&#45;&gt;Node17 -->
<g id="edge40" class="edge"><title>Node2&#45;&gt;Node17</title>
<path fill="none" stroke="midnightblue" d="M285.674,-363C301.125,-363 317.458,-363 332.767,-363"/>
<polygon fill="midnightblue" stroke="midnightblue" points="285.668,-359.5 275.668,-363 285.668,-366.5 285.668,-359.5"/>
</g>
<!-- Node18 -->
<g id="node39" class="node"><title>Node18</title>
<a xlink:href="classtetgenmesh.xhtml#a9d878a0e64588b0471a58e534affea8e" target="_top" xlink:title="tetgenmesh::addsteiner4recoversegment">
<polygon fill="none" stroke="black" points="522,-394.5 522,-415.5 716,-415.5 716,-394.5 522,-394.5"/>
<text text-anchor="middle" x="619" y="-402.5" font-family="Helvetica,sans-Serif" font-size="10.00">tetgenmesh::addsteiner4recoversegment</text>
</a>
</g>
<!-- Node2&#45;&gt;Node18 -->
<g id="edge54" class="edge"><title>Node2&#45;&gt;Node18</title>
<path fill="none" stroke="midnightblue" d="M258.03,-376.46C274.666,-381.239 294.067,-386.138 312,-389 381.569,-400.104 461.017,-404.011 521.66,-405.191"/>
<polygon fill="midnightblue" stroke="midnightblue" points="258.648,-372.993 248.066,-373.519 256.667,-379.707 258.648,-372.993"/>
</g>
<!-- Node21 -->
<g id="node46" class="node"><title>Node21</title>
<a xlink:href="classtetgenmesh.xhtml#a3de6e9d82e74671af7f038043b5e9bcc" target="_top" xlink:title="tetgenmesh::add_steinerpt\l_in_segment">
<polygon fill="none" stroke="black" points="333,-436 333,-470 465,-470 465,-436 333,-436"/>
<text text-anchor="start" x="341" y="-457" font-family="Helvetica,sans-Serif" font-size="10.00">tetgenmesh::add_steinerpt</text>
<text text-anchor="middle" x="399" y="-444" font-family="Helvetica,sans-Serif" font-size="10.00">_in_segment</text>
</a>
</g>
<!-- Node2&#45;&gt;Node21 -->
<g id="edge50" class="edge"><title>Node2&#45;&gt;Node21</title>
<path fill="none" stroke="midnightblue" d="M239.379,-379.287C258.352,-392.026 286.107,-409.598 312,-422 322.557,-427.056 334.167,-431.75 345.372,-435.876"/>
<polygon fill="midnightblue" stroke="midnightblue" points="241.306,-376.364 231.068,-373.638 237.371,-382.154 241.306,-376.364"/>
</g>
<!-- Node22 -->
<g id="node50" class="node"><title>Node22</title>
<a xlink:href="classtetgenmesh.xhtml#ace09080e4f274e0a48cd1728475878c9" target="_top" xlink:title="tetgenmesh::recoversubfaces">
<polygon fill="none" stroke="black" points="754,-346.5 754,-367.5 900,-367.5 900,-346.5 754,-346.5"/>
<text text-anchor="middle" x="827" y="-354.5" font-family="Helvetica,sans-Serif" font-size="10.00">tetgenmesh::recoversubfaces</text>
</a>
</g>
<!-- Node2&#45;&gt;Node22 -->
<g id="edge56" class="edge"><title>Node2&#45;&gt;Node22</title>
<path fill="none" stroke="midnightblue" d="M256.308,-349.536C273.291,-344.533 293.399,-339.474 312,-337 395.152,-325.939 632.767,-341.809 753.974,-351.095"/>
<polygon fill="midnightblue" stroke="midnightblue" points="255.254,-346.198 246.704,-352.456 257.29,-352.896 255.254,-346.198"/>
</g>
<!-- Node23 -->
<g id="node53" class="node"><title>Node23</title>
<a xlink:href="classtetgenmesh.xhtml#ac8205cae8e16f490b80d74975934ff74" target="_top" xlink:title="tetgenmesh::insertconstrainedpoints">
<polygon fill="none" stroke="black" points="312,-268.5 312,-289.5 486,-289.5 486,-268.5 312,-268.5"/>
<text text-anchor="middle" x="399" y="-276.5" font-family="Helvetica,sans-Serif" font-size="10.00">tetgenmesh::insertconstrainedpoints</text>
</a>
</g>
<!-- Node2&#45;&gt;Node23 -->
<g id="edge60" class="edge"><title>Node2&#45;&gt;Node23</title>
<path fill="none" stroke="midnightblue" d="M238.513,-346.725C257.38,-333.696 285.423,-315.723 312,-304 325.085,-298.228 339.86,-293.401 353.471,-289.576"/>
<polygon fill="midnightblue" stroke="midnightblue" points="236.458,-343.89 230.281,-352.498 240.478,-349.621 236.458,-343.89"/>
</g>
<!-- Node25 -->
<g id="node58" class="node"><title>Node25</title>
<a xlink:href="classtetgenmesh.xhtml#a6394d7b4d386e8d08077c39cd8983e0e" target="_top" xlink:title="tetgenmesh::splitsegment">
<polygon fill="none" stroke="black" points="334.5,-133.5 334.5,-154.5 463.5,-154.5 463.5,-133.5 334.5,-133.5"/>
<text text-anchor="middle" x="399" y="-141.5" font-family="Helvetica,sans-Serif" font-size="10.00">tetgenmesh::splitsegment</text>
</a>
</g>
<!-- Node2&#45;&gt;Node25 -->
<g id="edge66" class="edge"><title>Node2&#45;&gt;Node25</title>
<path fill="none" stroke="midnightblue" d="M222.709,-342.387C235.189,-306.827 265.044,-233.409 312,-188 327.696,-172.822 349.664,-161.768 367.598,-154.536"/>
<polygon fill="midnightblue" stroke="midnightblue" points="219.301,-341.54 219.395,-352.135 225.928,-343.794 219.301,-341.54"/>
</g>
<!-- Node27 -->
<g id="node62" class="node"><title>Node27</title>
<a xlink:href="classtetgenmesh.xhtml#a3a8404870ab3c2e8ce4312d48c2b29f4" target="_top" xlink:title="tetgenmesh::splitsubface">
<polygon fill="none" stroke="black" points="764,-154.5 764,-175.5 890,-175.5 890,-154.5 764,-154.5"/>
<text text-anchor="middle" x="827" y="-162.5" font-family="Helvetica,sans-Serif" font-size="10.00">tetgenmesh::splitsubface</text>
</a>
</g>
<!-- Node2&#45;&gt;Node27 -->
<g id="edge94" class="edge"><title>Node2&#45;&gt;Node27</title>
<path fill="none" stroke="midnightblue" d="M223.587,-343.182C236.547,-312.311 266.086,-253.444 312,-226 350.061,-203.25 634.516,-179.391 763.61,-169.602"/>
<polygon fill="midnightblue" stroke="midnightblue" points="220.326,-341.908 219.827,-352.492 226.817,-344.53 220.326,-341.908"/>
</g>
<!-- Node29 -->
<g id="node66" class="node"><title>Node29</title>
<a xlink:href="classtetgenmesh.xhtml#aa752155eb1d18550a212dd40297f122e" target="_top" xlink:title="tetgenmesh::splittetrahedron">
<polygon fill="none" stroke="black" points="1144,-153.5 1144,-174.5 1284,-174.5 1284,-153.5 1144,-153.5"/>
<text text-anchor="middle" x="1214" y="-161.5" font-family="Helvetica,sans-Serif" font-size="10.00">tetgenmesh::splittetrahedron</text>
</a>
</g>
<!-- Node2&#45;&gt;Node29 -->
<g id="edge96" class="edge"><title>Node2&#45;&gt;Node29</title>
<path fill="none" stroke="midnightblue" d="M227.126,-343.669C242.58,-318.93 273.086,-277.113 312,-259 470.117,-185.404 927.224,-266.954 1096,-223 1135.01,-212.841 1176.15,-188.764 1198.06,-174.708"/>
<polygon fill="midnightblue" stroke="midnightblue" points="224.13,-341.86 221.954,-352.229 230.121,-345.48 224.13,-341.86"/>
</g>
<!-- Node32 -->
<g id="node81" class="node"><title>Node32</title>
<a xlink:href="classtetgenmesh.xhtml#aa9540f310c97db99c989a02b0978ceec" target="_top" xlink:title="tetgenmesh::splitsliver">
<polygon fill="none" stroke="black" points="561.5,-18.5 561.5,-39.5 676.5,-39.5 676.5,-18.5 561.5,-18.5"/>
<text text-anchor="middle" x="619" y="-26.5" font-family="Helvetica,sans-Serif" font-size="10.00">tetgenmesh::splitsliver</text>
</a>
</g>
<!-- Node2&#45;&gt;Node32 -->
<g id="edge98" class="edge"><title>Node2&#45;&gt;Node32</title>
<path fill="none" stroke="midnightblue" d="M218.329,-342.399C224.629,-296.395 246.226,-184.599 312,-124 381.549,-59.9223 493.585,-39.0506 561.357,-32.2616"/>
<polygon fill="midnightblue" stroke="midnightblue" points="214.85,-342.01 217.066,-352.371 221.795,-342.89 214.85,-342.01"/>
</g>
<!-- Node4 -->
<g id="node7" class="node"><title>Node4</title>
<a xlink:href="tetgen_8h.xhtml#ad3637eb4ffe7fda90667e67b7771d964" target="_top" xlink:title="tetrahedralize">
<polygon fill="none" stroke="black" points="1726.5,-326.5 1726.5,-347.5 1801.5,-347.5 1801.5,-326.5 1726.5,-326.5"/>
<text text-anchor="middle" x="1764" y="-334.5" font-family="Helvetica,sans-Serif" font-size="10.00">tetrahedralize</text>
</a>
</g>
<!-- Node3&#45;&gt;Node4 -->
<g id="edge6" class="edge"><title>Node3&#45;&gt;Node4</title>
<path fill="none" stroke="midnightblue" d="M1471.81,-555.939C1531.75,-540.053 1625.54,-508.38 1690,-454 1726.37,-423.313 1750.75,-370.105 1759.93,-347.57"/>
<polygon fill="midnightblue" stroke="midnightblue" points="1470.92,-552.552 1462.12,-558.447 1472.68,-559.329 1470.92,-552.552"/>
</g>
<!-- Node5 -->
<g id="node9" class="node"><title>Node5</title>
<a xlink:href="classGUICutRenderWindow.xhtml#a9eedb7088ad31f4680a77ed3a06fa60c" target="_top" xlink:title="Berechnet die 2D&#45;Temperaturverteilung als Grafik. ">
<polygon fill="none" stroke="black" points="1840.5,-366 1840.5,-400 1957.5,-400 1957.5,-366 1840.5,-366"/>
<text text-anchor="start" x="1848.5" y="-387" font-family="Helvetica,sans-Serif" font-size="10.00">GUICutRenderWindow</text>
<text text-anchor="middle" x="1899" y="-374" font-family="Helvetica,sans-Serif" font-size="10.00">::renderImage</text>
</a>
</g>
<!-- Node4&#45;&gt;Node5 -->
<g id="edge8" class="edge"><title>Node4&#45;&gt;Node5</title>
<path fill="none" stroke="midnightblue" d="M1804.73,-350.877C1818.62,-355.611 1834.32,-360.96 1848.86,-365.915"/>
<polygon fill="midnightblue" stroke="midnightblue" points="1805.57,-347.466 1794.97,-347.553 1803.31,-354.092 1805.57,-347.466"/>
</g>
<!-- Node7 -->
<g id="node13" class="node"><title>Node7</title>
<a xlink:href="classObjectData.xhtml#af3a850833d08eb9b45357449f455e24d" target="_top" xlink:title="Zerlegt das Objekt in Tetraeder (Schnittstelle zur Tetgen&#45;Bibliothek) und Berechnet die Temperaturver...">
<polygon fill="none" stroke="black" points="1838,-326.5 1838,-347.5 1960,-347.5 1960,-326.5 1838,-326.5"/>
<text text-anchor="middle" x="1899" y="-334.5" font-family="Helvetica,sans-Serif" font-size="10.00">ObjectData::calculateIO</text>
</a>
</g>
<!-- Node4&#45;&gt;Node7 -->
<g id="edge12" class="edge"><title>Node4&#45;&gt;Node7</title>
<path fill="none" stroke="midnightblue" d="M1811.65,-337C1820.11,-337 1829.02,-337 1837.8,-337"/>
<polygon fill="midnightblue" stroke="midnightblue" points="1811.61,-333.5 1801.61,-337 1811.6,-340.5 1811.61,-333.5"/>
</g>
<!-- Node10 -->
<g id="node19" class="node"><title>Node10</title>
<a xlink:href="tetgen_8cxx.xhtml#a0ddf1224851353fc92bfbff6f499fa97" target="_top" xlink:title="main">
<polygon fill="none" stroke="black" points="1880,-286.5 1880,-307.5 1918,-307.5 1918,-286.5 1880,-286.5"/>
<text text-anchor="middle" x="1899" y="-294.5" font-family="Helvetica,sans-Serif" font-size="10.00">main</text>
</a>
</g>
<!-- Node4&#45;&gt;Node10 -->
<g id="edge18" class="edge"><title>Node4&#45;&gt;Node10</title>
<path fill="none" stroke="midnightblue" d="M1809.15,-323.621C1833.27,-316.476 1861.67,-308.061 1879.98,-302.634"/>
<polygon fill="midnightblue" stroke="midnightblue" points="1808.06,-320.294 1799.47,-326.49 1810.05,-327.005 1808.06,-320.294"/>
</g>
<!-- Node6 -->
<g id="node11" class="node"><title>Node6</title>
<a xlink:href="classGUICutRenderWindow.xhtml#a7cd1bfbec53756a1cbbe1616b4d46c7a" target="_top" xlink:title="Behandelt das Drücken des Buttons zur Berechnung der zweidimensionalen Temperaturverteilung. ">
<polygon fill="none" stroke="black" points="2012.5,-366 2012.5,-400 2129.5,-400 2129.5,-366 2012.5,-366"/>
<text text-anchor="start" x="2020.5" y="-387" font-family="Helvetica,sans-Serif" font-size="10.00">GUICutRenderWindow</text>
<text text-anchor="middle" x="2071" y="-374" font-family="Helvetica,sans-Serif" font-size="10.00">::renderCutBtClick</text>
</a>
</g>
<!-- Node5&#45;&gt;Node6 -->
<g id="edge10" class="edge"><title>Node5&#45;&gt;Node6</title>
<path fill="none" stroke="midnightblue" d="M1967.78,-383C1982.51,-383 1997.95,-383 2012.26,-383"/>
<polygon fill="midnightblue" stroke="midnightblue" points="1967.71,-379.5 1957.71,-383 1967.71,-386.5 1967.71,-379.5"/>
</g>
<!-- Node8 -->
<g id="node15" class="node"><title>Node8</title>
<a xlink:href="classGUIMainWindow.xhtml#a0c2de30274c7f52ff74ec1217e47a9e5" target="_top" xlink:title="Berechnet die 3D&#45;Temperaturverteilung neu. ">
<polygon fill="none" stroke="black" points="1996,-274 1996,-308 2146,-308 2146,-274 1996,-274"/>
<text text-anchor="start" x="2004" y="-295" font-family="Helvetica,sans-Serif" font-size="10.00">GUIMainWindow::OnRecalcBt</text>
<text text-anchor="middle" x="2071" y="-282" font-family="Helvetica,sans-Serif" font-size="10.00">Click</text>
</a>
</g>
<!-- Node7&#45;&gt;Node8 -->
<g id="edge14" class="edge"><title>Node7&#45;&gt;Node8</title>
<path fill="none" stroke="midnightblue" d="M1948.33,-323.808C1966.64,-318.91 1987.69,-313.281 2007.12,-308.085"/>
<polygon fill="midnightblue" stroke="midnightblue" points="1947.22,-320.482 1938.46,-326.447 1949.03,-327.244 1947.22,-320.482"/>
</g>
<!-- Node9 -->
<g id="node17" class="node"><title>Node9</title>
<a xlink:href="classGUITimeline.xhtml#a099f3654aa6e7ea04df861851a0e9ec8" target="_top" xlink:title="Sucht den Zeitpunkt zwischen zwei markierten Stellen auf der Sensordaten&#45;Zeitleiste, für den der Wäremeenergiegehalt maximal wird. ">
<polygon fill="none" stroke="black" points="2002.5,-326.5 2002.5,-347.5 2139.5,-347.5 2139.5,-326.5 2002.5,-326.5"/>
<text text-anchor="middle" x="2071" y="-334.5" font-family="Helvetica,sans-Serif" font-size="10.00">GUITimeline::findMaxValue</text>
</a>
</g>
<!-- Node7&#45;&gt;Node9 -->
<g id="edge16" class="edge"><title>Node7&#45;&gt;Node9</title>
<path fill="none" stroke="midnightblue" d="M1970.23,-337C1980.89,-337 1991.86,-337 2002.46,-337"/>
<polygon fill="midnightblue" stroke="midnightblue" points="1970.13,-333.5 1960.13,-337 1970.13,-340.5 1970.13,-333.5"/>
</g>
<!-- Node12 -->
<g id="node23" class="node"><title>Node12</title>
<a xlink:href="classtetgenmesh.xhtml#aab64d62b3d2b048a38158fb2bf678624" target="_top" xlink:title="tetgenmesh::constraineddelaunay">
<polygon fill="none" stroke="black" points="1132.5,-497.5 1132.5,-518.5 1295.5,-518.5 1295.5,-497.5 1132.5,-497.5"/>
<text text-anchor="middle" x="1214" y="-505.5" font-family="Helvetica,sans-Serif" font-size="10.00">tetgenmesh::constraineddelaunay</text>
</a>
</g>
<!-- Node11&#45;&gt;Node12 -->
<g id="edge22" class="edge"><title>Node11&#45;&gt;Node12</title>
<path fill="none" stroke="midnightblue" d="M1062.7,-552.546C1097.89,-542.186 1145.84,-528.067 1178.26,-518.523"/>
<polygon fill="midnightblue" stroke="midnightblue" points="1061.28,-549.315 1052.68,-555.497 1063.26,-556.03 1061.28,-549.315"/>
</g>
<!-- Node12&#45;&gt;Node4 -->
<g id="edge24" class="edge"><title>Node12&#45;&gt;Node4</title>
<path fill="none" stroke="midnightblue" d="M1268.95,-495.049C1358.46,-473.316 1540.76,-426.402 1690,-371 1708.42,-364.16 1728.66,-354.724 1743.3,-347.528"/>
<polygon fill="midnightblue" stroke="midnightblue" points="1267.92,-491.697 1259.02,-497.448 1269.56,-498.501 1267.92,-491.697"/>
</g>
<!-- Node13&#45;&gt;Node14 -->
<g id="edge28" class="edge"><title>Node13&#45;&gt;Node14</title>
<path fill="none" stroke="midnightblue" d="M468.411,-524.695C497.727,-519.498 531.515,-513.509 559.649,-508.521"/>
<polygon fill="midnightblue" stroke="midnightblue" points="467.481,-521.306 458.245,-526.497 468.703,-528.198 467.481,-521.306"/>
</g>
<!-- Node16 -->
<g id="node32" class="node"><title>Node16</title>
<a xlink:href="classtetgenmesh.xhtml#a7579c3a44a54712623d9f9e5fc1dfbdc" target="_top" xlink:title="tetgenmesh::constrainedfacets">
<polygon fill="none" stroke="black" points="941.5,-497.5 941.5,-518.5 1092.5,-518.5 1092.5,-497.5 941.5,-497.5"/>
<text text-anchor="middle" x="1017" y="-505.5" font-family="Helvetica,sans-Serif" font-size="10.00">tetgenmesh::constrainedfacets</text>
</a>
</g>
<!-- Node13&#45;&gt;Node16 -->
<g id="edge36" class="edge"><title>Node13&#45;&gt;Node16</title>
<path fill="none" stroke="midnightblue" d="M480.138,-535.158C579.614,-532.617 753.319,-527.267 902,-518 914.701,-517.208 928.177,-516.194 941.262,-515.117"/>
<polygon fill="midnightblue" stroke="midnightblue" points="479.769,-531.666 469.86,-535.417 479.945,-538.664 479.769,-531.666"/>
</g>
<!-- Node15 -->
<g id="node30" class="node"><title>Node15</title>
<a xlink:href="classtetgenmesh.xhtml#aa34a5188a4cee82197394560c388c348" target="_top" xlink:title="tetgenmesh::refineregion">
<polygon fill="none" stroke="black" points="765,-487.5 765,-508.5 889,-508.5 889,-487.5 765,-487.5"/>
<text text-anchor="middle" x="827" y="-495.5" font-family="Helvetica,sans-Serif" font-size="10.00">tetgenmesh::refineregion</text>
</a>
</g>
<!-- Node14&#45;&gt;Node15 -->
<g id="edge30" class="edge"><title>Node14&#45;&gt;Node15</title>
<path fill="none" stroke="midnightblue" d="M697.73,-498C719.881,-498 743.659,-498 764.705,-498"/>
<polygon fill="midnightblue" stroke="midnightblue" points="697.683,-494.5 687.683,-498 697.683,-501.5 697.683,-494.5"/>
</g>
<!-- Node15&#45;&gt;Node16 -->
<g id="edge32" class="edge"><title>Node15&#45;&gt;Node16</title>
<path fill="none" stroke="midnightblue" d="M899.539,-501.818C913.237,-502.539 927.597,-503.295 941.387,-504.02"/>
<polygon fill="midnightblue" stroke="midnightblue" points="899.383,-498.305 889.213,-501.274 899.015,-505.295 899.383,-498.305"/>
</g>
<!-- Node16&#45;&gt;Node12 -->
<g id="edge34" class="edge"><title>Node16&#45;&gt;Node12</title>
<path fill="none" stroke="midnightblue" d="M1102.77,-508C1112.6,-508 1122.6,-508 1132.38,-508"/>
<polygon fill="midnightblue" stroke="midnightblue" points="1102.6,-504.5 1092.6,-508 1102.6,-511.5 1102.6,-504.5"/>
</g>
<!-- Node17&#45;&gt;Node18 -->
<g id="edge42" class="edge"><title>Node17&#45;&gt;Node18</title>
<path fill="none" stroke="midnightblue" d="M475.156,-377.539C504.306,-383.104 536.969,-389.339 563.793,-394.46"/>
<polygon fill="midnightblue" stroke="midnightblue" points="475.486,-374.039 465.007,-375.601 474.174,-380.915 475.486,-374.039"/>
</g>
<!-- Node19 -->
<g id="node41" class="node"><title>Node19</title>
<a xlink:href="classtetgenmesh.xhtml#a50e12e269b11573e6e1b91347ad19b37" target="_top" xlink:title="tetgenmesh::recoversegments">
<polygon fill="none" stroke="black" points="752.5,-389.5 752.5,-410.5 901.5,-410.5 901.5,-389.5 752.5,-389.5"/>
<text text-anchor="middle" x="827" y="-397.5" font-family="Helvetica,sans-Serif" font-size="10.00">tetgenmesh::recoversegments</text>
</a>
</g>
<!-- Node18&#45;&gt;Node19 -->
<g id="edge44" class="edge"><title>Node18&#45;&gt;Node19</title>
<path fill="none" stroke="midnightblue" d="M726.574,-402.414C735.325,-402.204 744.042,-401.994 752.478,-401.791"/>
<polygon fill="midnightblue" stroke="midnightblue" points="726.214,-398.922 716.301,-402.661 726.382,-405.92 726.214,-398.922"/>
</g>
<!-- Node20 -->
<g id="node43" class="node"><title>Node20</title>
<a xlink:href="classtetgenmesh.xhtml#a1be7dce56688fbe7a97fc31f98b61c19" target="_top" xlink:title="tetgenmesh::recoverboundary">
<polygon fill="none" stroke="black" points="944,-346.5 944,-367.5 1090,-367.5 1090,-346.5 944,-346.5"/>
<text text-anchor="middle" x="1017" y="-354.5" font-family="Helvetica,sans-Serif" font-size="10.00">tetgenmesh::recoverboundary</text>
</a>
</g>
<!-- Node19&#45;&gt;Node20 -->
<g id="edge46" class="edge"><title>Node19&#45;&gt;Node20</title>
<path fill="none" stroke="midnightblue" d="M883.423,-387.231C911.121,-380.962 944.089,-373.501 970.342,-367.559"/>
<polygon fill="midnightblue" stroke="midnightblue" points="882.46,-383.86 873.479,-389.481 884.005,-390.687 882.46,-383.86"/>
</g>
<!-- Node20&#45;&gt;Node4 -->
<g id="edge48" class="edge"><title>Node20&#45;&gt;Node4</title>
<path fill="none" stroke="midnightblue" d="M1100.69,-354.759C1262.17,-350.436 1610.98,-341.097 1726.21,-338.012"/>
<polygon fill="midnightblue" stroke="midnightblue" points="1100.23,-351.27 1090.33,-355.037 1100.42,-358.268 1100.23,-351.27"/>
</g>
<!-- Node21&#45;&gt;Node18 -->
<g id="edge52" class="edge"><title>Node21&#45;&gt;Node18</title>
<path fill="none" stroke="midnightblue" d="M475.159,-436.383C506.925,-429.453 542.863,-421.612 570.871,-415.501"/>
<polygon fill="midnightblue" stroke="midnightblue" points="474.031,-433.047 465.007,-438.598 475.524,-439.886 474.031,-433.047"/>
</g>
<!-- Node22&#45;&gt;Node20 -->
<g id="edge58" class="edge"><title>Node22&#45;&gt;Node20</title>
<path fill="none" stroke="midnightblue" d="M910.354,-357C921.512,-357 932.886,-357 943.85,-357"/>
<polygon fill="midnightblue" stroke="midnightblue" points="910.187,-353.5 900.187,-357 910.187,-360.5 910.187,-353.5"/>
</g>
<!-- Node23&#45;&gt;Node4 -->
<g id="edge64" class="edge"><title>Node23&#45;&gt;Node4</title>
<path fill="none" stroke="midnightblue" d="M466.514,-291.211C484.496,-294.126 503.944,-296.975 522,-299 656.972,-314.14 691.182,-318 827,-318 827,-318 827,-318 1414,-318 1527.95,-318 1662.46,-328.165 1726.48,-333.625"/>
<polygon fill="midnightblue" stroke="midnightblue" points="466.843,-287.718 456.407,-289.542 465.703,-294.625 466.843,-287.718"/>
</g>
<!-- Node24 -->
<g id="node55" class="node"><title>Node24</title>
<a xlink:href="classtetgenmesh.xhtml#ab859365ca3dd3eafb77fac56d0ae3a03" target="_top" xlink:title="tetgenmesh::insertconstrainedpoints">
<polygon fill="none" stroke="black" points="532,-268.5 532,-289.5 706,-289.5 706,-268.5 532,-268.5"/>
<text text-anchor="middle" x="619" y="-276.5" font-family="Helvetica,sans-Serif" font-size="10.00">tetgenmesh::insertconstrainedpoints</text>
</a>
</g>
<!-- Node23&#45;&gt;Node24 -->
<g id="edge62" class="edge"><title>Node23&#45;&gt;Node24</title>
<path fill="none" stroke="midnightblue" d="M496.535,-279C508.293,-279 520.244,-279 531.84,-279"/>
<polygon fill="midnightblue" stroke="midnightblue" points="496.266,-275.5 486.266,-279 496.266,-282.5 496.266,-275.5"/>
</g>
<!-- Node26 -->
<g id="node60" class="node"><title>Node26</title>
<a xlink:href="classtetgenmesh.xhtml#a7af360f1ae413f9e0d7803ccae55b6d6" target="_top" xlink:title="tetgenmesh::repairencsegs">
<polygon fill="none" stroke="black" points="552,-76.5 552,-97.5 686,-97.5 686,-76.5 552,-76.5"/>
<text text-anchor="middle" x="619" y="-84.5" font-family="Helvetica,sans-Serif" font-size="10.00">tetgenmesh::repairencsegs</text>
</a>
</g>
<!-- Node25&#45;&gt;Node26 -->
<g id="edge68" class="edge"><title>Node25&#45;&gt;Node26</title>
<path fill="none" stroke="midnightblue" d="M449.342,-130.875C471.606,-125.078 498.105,-118.188 522,-112 540.351,-107.248 560.66,-102.011 577.932,-97.5624"/>
<polygon fill="midnightblue" stroke="midnightblue" points="448.23,-127.548 439.435,-133.456 449.994,-134.322 448.23,-127.548"/>
</g>
<!-- Node25&#45;&gt;Node27 -->
<g id="edge90" class="edge"><title>Node25&#45;&gt;Node27</title>
<path fill="none" stroke="midnightblue" d="M473.555,-147.658C555.682,-151.688 686.338,-158.098 763.683,-161.893"/>
<polygon fill="midnightblue" stroke="midnightblue" points="473.699,-144.161 463.539,-147.167 473.356,-151.153 473.699,-144.161"/>
</g>
<!-- Node25&#45;&gt;Node29 -->
<g id="edge92" class="edge"><title>Node25&#45;&gt;Node29</title>
<path fill="none" stroke="midnightblue" d="M473.865,-142.775C572.151,-141.483 750.049,-140.226 902,-145 985.123,-147.611 1080.53,-153.905 1143.73,-158.537"/>
<polygon fill="midnightblue" stroke="midnightblue" points="473.685,-139.277 463.734,-142.913 473.78,-146.277 473.685,-139.277"/>
</g>
<!-- Node26&#45;&gt;Node27 -->
<g id="edge70" class="edge"><title>Node26&#45;&gt;Node27</title>
<path fill="none" stroke="midnightblue" d="M656.66,-101.122C697.556,-116.458 761.944,-140.604 798.728,-154.398"/>
<polygon fill="midnightblue" stroke="midnightblue" points="657.644,-97.7536 647.052,-97.5194 655.186,-104.308 657.644,-97.7536"/>
</g>
<!-- Node26&#45;&gt;Node29 -->
<g id="edge86" class="edge"><title>Node26&#45;&gt;Node29</title>
<path fill="none" stroke="midnightblue" d="M696.184,-82.5775C791.529,-79.0367 958.037,-79.1551 1096,-112 1133.02,-120.814 1172.91,-140.853 1195.53,-153.322"/>
<polygon fill="midnightblue" stroke="midnightblue" points="695.904,-79.0858 686.05,-82.9777 696.18,-86.0803 695.904,-79.0858"/>
</g>
<!-- Node31 -->
<g id="node70" class="node"><title>Node31</title>
<a xlink:href="classtetgenmesh.xhtml#a477bbfde72103de66546d4ea3343b4a1" target="_top" xlink:title="tetgenmesh::delaunayrefinement">
<polygon fill="none" stroke="black" points="1532,-173.5 1532,-194.5 1690,-194.5 1690,-173.5 1532,-173.5"/>
<text text-anchor="middle" x="1611" y="-181.5" font-family="Helvetica,sans-Serif" font-size="10.00">tetgenmesh::delaunayrefinement</text>
</a>
</g>
<!-- Node26&#45;&gt;Node31 -->
<g id="edge88" class="edge"><title>Node26&#45;&gt;Node31</title>
<path fill="none" stroke="midnightblue" d="M696.07,-75.5664C776.102,-64.6979 905.032,-50 1017,-50 1017,-50 1017,-50 1214,-50 1368.22,-50 1539.27,-141.896 1593.52,-173.485"/>
<polygon fill="midnightblue" stroke="midnightblue" points="695.506,-72.1109 686.075,-76.9385 696.458,-79.0459 695.506,-72.1109"/>
</g>
<!-- Node28 -->
<g id="node64" class="node"><title>Node28</title>
<a xlink:href="classtetgenmesh.xhtml#a701d4f317ed66df6a2e2b7b237e2386a" target="_top" xlink:title="tetgenmesh::repairencfacs">
<polygon fill="none" stroke="black" points="951,-192.5 951,-213.5 1083,-213.5 1083,-192.5 951,-192.5"/>
<text text-anchor="middle" x="1017" y="-200.5" font-family="Helvetica,sans-Serif" font-size="10.00">tetgenmesh::repairencfacs</text>
</a>
</g>
<!-- Node27&#45;&gt;Node28 -->
<g id="edge72" class="edge"><title>Node27&#45;&gt;Node28</title>
<path fill="none" stroke="midnightblue" d="M889.792,-177.558C913.901,-182.38 941.149,-187.83 964.224,-192.445"/>
<polygon fill="midnightblue" stroke="midnightblue" points="890.166,-174.064 879.673,-175.535 888.793,-180.928 890.166,-174.064"/>
</g>
<!-- Node27&#45;&gt;Node29 -->
<g id="edge84" class="edge"><title>Node27&#45;&gt;Node29</title>
<path fill="none" stroke="midnightblue" d="M900.098,-164.811C970.041,-164.63 1074.81,-164.36 1143.78,-164.181"/>
<polygon fill="midnightblue" stroke="midnightblue" points="900.03,-161.311 890.04,-164.837 900.049,-168.311 900.03,-161.311"/>
</g>
<!-- Node28&#45;&gt;Node29 -->
<g id="edge74" class="edge"><title>Node28&#45;&gt;Node29</title>
<path fill="none" stroke="midnightblue" d="M1080.19,-190.491C1106.2,-185.342 1135.99,-179.443 1160.85,-174.521"/>
<polygon fill="midnightblue" stroke="midnightblue" points="1079.18,-187.122 1070.05,-192.497 1080.54,-193.989 1079.18,-187.122"/>
</g>
<!-- Node28&#45;&gt;Node31 -->
<g id="edge82" class="edge"><title>Node28&#45;&gt;Node31</title>
<path fill="none" stroke="midnightblue" d="M1093.42,-200.556C1206.45,-196.94 1417.14,-190.201 1531.77,-186.534"/>
<polygon fill="midnightblue" stroke="midnightblue" points="1093.01,-197.067 1083.12,-200.885 1093.23,-204.063 1093.01,-197.067"/>
</g>
<!-- Node30 -->
<g id="node68" class="node"><title>Node30</title>
<a xlink:href="classtetgenmesh.xhtml#a7c46c82d83099214115fa9719aefbd78" target="_top" xlink:title="tetgenmesh::repairbadtets">
<polygon fill="none" stroke="black" points="1349,-153.5 1349,-174.5 1479,-174.5 1479,-153.5 1349,-153.5"/>
<text text-anchor="middle" x="1414" y="-161.5" font-family="Helvetica,sans-Serif" font-size="10.00">tetgenmesh::repairbadtets</text>
</a>
</g>
<!-- Node29&#45;&gt;Node30 -->
<g id="edge76" class="edge"><title>Node29&#45;&gt;Node30</title>
<path fill="none" stroke="midnightblue" d="M1294.48,-164C1312.58,-164 1331.58,-164 1348.96,-164"/>
<polygon fill="midnightblue" stroke="midnightblue" points="1294.23,-160.5 1284.23,-164 1294.23,-167.5 1294.23,-160.5"/>
</g>
<!-- Node30&#45;&gt;Node31 -->
<g id="edge78" class="edge"><title>Node30&#45;&gt;Node31</title>
<path fill="none" stroke="midnightblue" d="M1489.12,-171.626C1503.14,-173.049 1517.82,-174.54 1531.95,-175.975"/>
<polygon fill="midnightblue" stroke="midnightblue" points="1489.35,-168.132 1479.05,-170.604 1488.65,-175.096 1489.35,-168.132"/>
</g>
<!-- Node31&#45;&gt;Node4 -->
<g id="edge80" class="edge"><title>Node31&#45;&gt;Node4</title>
<path fill="none" stroke="midnightblue" d="M1628.9,-201.9C1661.04,-234.036 1727.57,-300.566 1753.41,-326.41"/>
<polygon fill="midnightblue" stroke="midnightblue" points="1631.06,-199.113 1621.52,-194.516 1626.11,-204.062 1631.06,-199.113"/>
</g>
<!-- Node33 -->
<g id="node83" class="node"><title>Node33</title>
<a xlink:href="classtetgenmesh.xhtml#ad5c46c2f6c9adeed23fc8c64b682778d" target="_top" xlink:title="tetgenmesh::removeslivers">
<polygon fill="none" stroke="black" points="1147,-0.5 1147,-21.5 1281,-21.5 1281,-0.5 1147,-0.5"/>
<text text-anchor="middle" x="1214" y="-8.5" font-family="Helvetica,sans-Serif" font-size="10.00">tetgenmesh::removeslivers</text>
</a>
</g>
<!-- Node32&#45;&gt;Node33 -->
<g id="edge100" class="edge"><title>Node32&#45;&gt;Node33</title>
<path fill="none" stroke="midnightblue" d="M686.651,-26.9534C801.336,-23.484 1032.58,-16.4885 1146.89,-13.0302"/>
<polygon fill="midnightblue" stroke="midnightblue" points="686.481,-23.4569 676.592,-27.2577 686.693,-30.4536 686.481,-23.4569"/>
</g>
<!-- Node34 -->
<g id="node85" class="node"><title>Node34</title>
<a xlink:href="classtetgenmesh.xhtml#a8bb5c6ad8ccfa57f2a84e5a78295b263" target="_top" xlink:title="tetgenmesh::optimizemesh">
<polygon fill="none" stroke="black" points="1544,-67.5 1544,-88.5 1678,-88.5 1678,-67.5 1544,-67.5"/>
<text text-anchor="middle" x="1611" y="-75.5" font-family="Helvetica,sans-Serif" font-size="10.00">tetgenmesh::optimizemesh</text>
</a>
</g>
<!-- Node33&#45;&gt;Node34 -->
<g id="edge102" class="edge"><title>Node33&#45;&gt;Node34</title>
<path fill="none" stroke="midnightblue" d="M1291.18,-12.4144C1348.33,-14.7678 1427.78,-20.7945 1496,-36 1528.78,-43.3057 1564.9,-57.5921 1587.76,-67.4595"/>
<polygon fill="midnightblue" stroke="midnightblue" points="1291.26,-8.91505 1281.13,-12.029 1290.99,-15.9099 1291.26,-8.91505"/>
</g>
<!-- Node34&#45;&gt;Node4 -->
<g id="edge104" class="edge"><title>Node34&#45;&gt;Node4</title>
<path fill="none" stroke="midnightblue" d="M1630.44,-95.4742C1647.79,-111.86 1673.02,-137.714 1690,-164 1726.52,-220.524 1752.18,-298.101 1760.81,-326.248"/>
<polygon fill="midnightblue" stroke="midnightblue" points="1632.79,-92.8801 1623.08,-88.6442 1628.03,-98.0116 1632.79,-92.8801"/>
</g>
</g>
</svg>
