<?xml version="1.0" encoding="UTF-8" standalone="no"?>
<!DOCTYPE svg PUBLIC "-//W3C//DTD SVG 1.1//EN"
 "http://www.w3.org/Graphics/SVG/1.1/DTD/svg11.dtd">
<!-- Generated by graphviz version 2.26.3 (20100126.1600)
 -->
<!-- Title: tetgenio::load_poly Pages: 1 -->
<svg width="724pt" height="186pt"
 viewBox="0.00 0.00 724.00 186.00" xmlns="http://www.w3.org/2000/svg" xmlns:xlink="http://www.w3.org/1999/xlink">
<g id="graph1" class="graph" transform="scale(1 1) rotate(0) translate(4 182)">
<title>tetgenio::load_poly</title>
<!-- Node1 -->
<g id="node1" class="node"><title>Node1</title>
<polygon fill="#bfbfbf" stroke="black" points="0,-78.5 0,-99.5 98,-99.5 98,-78.5 0,-78.5"/>
<text text-anchor="middle" x="49" y="-86.5" font-family="Helvetica,sans-Serif" font-size="10.00">tetgenio::load_poly</text>
</g>
<!-- Node2 -->
<g id="node3" class="node"><title>Node2</title>
<a xlink:href="classtetgenio.xhtml#a5e59fa66b5f0f4a7b7aa72df554ac1c7" target="_top" xlink:title="tetgenio::readnumberline">
<polygon fill="none" stroke="black" points="430.5,-76.5 430.5,-97.5 553.5,-97.5 553.5,-76.5 430.5,-76.5"/>
<text text-anchor="middle" x="492" y="-84.5" font-family="Helvetica,sans-Serif" font-size="10.00">tetgenio::readnumberline</text>
</a>
</g>
<!-- Node1&#45;&gt;Node2 -->
<g id="edge2" class="edge"><title>Node1&#45;&gt;Node2</title>
<path fill="none" stroke="midnightblue" d="M85.4898,-78.4617C100.394,-74.6709 117.887,-70.8701 134,-69 232.891,-57.5225 347.988,-67.4188 420.419,-76.4577"/>
<polygon fill="midnightblue" stroke="midnightblue" points="419.988,-79.931 430.35,-77.7252 420.874,-72.9873 419.988,-79.931"/>
</g>
<!-- Node3 -->
<g id="node5" class="node"><title>Node3</title>
<a xlink:href="classtetgenio.xhtml#a9a30e99d63fb2288525cdbda2b887c38" target="_top" xlink:title="tetgenio::findnextnumber">
<polygon fill="none" stroke="black" points="430,-156.5 430,-177.5 554,-177.5 554,-156.5 430,-156.5"/>
<text text-anchor="middle" x="492" y="-164.5" font-family="Helvetica,sans-Serif" font-size="10.00">tetgenio::findnextnumber</text>
</a>
</g>
<!-- Node1&#45;&gt;Node3 -->
<g id="edge4" class="edge"><title>Node1&#45;&gt;Node3</title>
<path fill="none" stroke="midnightblue" d="M69.9863,-99.5432C86.9958,-107.865 111.715,-119.456 134,-128 193.984,-150.998 208.489,-161.334 272,-171 325.605,-179.158 339.789,-172.106 394,-171 402.321,-170.83 411.036,-170.58 419.693,-170.285"/>
<polygon fill="midnightblue" stroke="midnightblue" points="419.933,-173.779 429.8,-169.921 419.681,-166.783 419.933,-173.779"/>
</g>
<!-- Node4 -->
<g id="node7" class="node"><title>Node4</title>
<a xlink:href="classtetgenio.xhtml#a72c82390f2cf5cc8e82b7e78d3957d97" target="_top" xlink:title="tetgenio::load_node_call">
<polygon fill="none" stroke="black" points="272,-116.5 272,-137.5 394,-137.5 394,-116.5 272,-116.5"/>
<text text-anchor="middle" x="333" y="-124.5" font-family="Helvetica,sans-Serif" font-size="10.00">tetgenio::load_node_call</text>
</a>
</g>
<!-- Node1&#45;&gt;Node4 -->
<g id="edge6" class="edge"><title>Node1&#45;&gt;Node4</title>
<path fill="none" stroke="midnightblue" d="M88.552,-99.5275C102.792,-102.993 119.035,-106.575 134,-109 175.942,-115.797 223.304,-120.21 261.299,-122.965"/>
<polygon fill="midnightblue" stroke="midnightblue" points="261.534,-126.49 271.754,-123.698 262.024,-119.507 261.534,-126.49"/>
</g>
<!-- Node7 -->
<g id="node15" class="node"><title>Node7</title>
<a xlink:href="classtetgenio.xhtml#afeb93fe605c74f7523314fe21b726872" target="_top" xlink:title="tetgenio::load_node">
<polygon fill="none" stroke="black" points="134.5,-78.5 134.5,-99.5 235.5,-99.5 235.5,-78.5 134.5,-78.5"/>
<text text-anchor="middle" x="185" y="-86.5" font-family="Helvetica,sans-Serif" font-size="10.00">tetgenio::load_node</text>
</a>
</g>
<!-- Node1&#45;&gt;Node7 -->
<g id="edge16" class="edge"><title>Node1&#45;&gt;Node7</title>
<path fill="none" stroke="midnightblue" d="M98.0991,-89C106.521,-89 115.363,-89 124.049,-89"/>
<polygon fill="midnightblue" stroke="midnightblue" points="124.141,-92.5001 134.141,-89 124.141,-85.5001 124.141,-92.5001"/>
</g>
<!-- Node8 -->
<g id="node20" class="node"><title>Node8</title>
<a xlink:href="classtetgenio.xhtml#aca2fd0dcb29ee3cd313a74d55df2ff2c" target="_top" xlink:title="tetgenio::init">
<polygon fill="none" stroke="black" points="150,-0.5 150,-21.5 220,-21.5 220,-0.5 150,-0.5"/>
<text text-anchor="middle" x="185" y="-8.5" font-family="Helvetica,sans-Serif" font-size="10.00">tetgenio::init</text>
</a>
</g>
<!-- Node1&#45;&gt;Node8 -->
<g id="edge24" class="edge"><title>Node1&#45;&gt;Node8</title>
<path fill="none" stroke="midnightblue" d="M65.0009,-78.3399C81.8714,-67.2636 109.367,-49.671 134,-36 140.083,-32.6243 146.686,-29.2106 153.061,-26.0362"/>
<polygon fill="midnightblue" stroke="midnightblue" points="154.706,-29.1278 162.15,-21.5888 151.629,-22.8401 154.706,-29.1278"/>
</g>
<!-- Node4&#45;&gt;Node2 -->
<g id="edge12" class="edge"><title>Node4&#45;&gt;Node2</title>
<path fill="none" stroke="midnightblue" d="M374.775,-116.49C394.871,-111.435 419.154,-105.326 440.394,-99.9827"/>
<polygon fill="midnightblue" stroke="midnightblue" points="441.384,-103.343 450.228,-97.5087 439.676,-96.5543 441.384,-103.343"/>
</g>
<!-- Node4&#45;&gt;Node3 -->
<g id="edge14" class="edge"><title>Node4&#45;&gt;Node3</title>
<path fill="none" stroke="midnightblue" d="M374.775,-137.51C394.871,-142.565 419.154,-148.674 440.394,-154.017"/>
<polygon fill="midnightblue" stroke="midnightblue" points="439.676,-157.446 450.228,-156.491 441.384,-150.657 439.676,-157.446"/>
</g>
<!-- Node5 -->
<g id="node9" class="node"><title>Node5</title>
<a xlink:href="tetgen_8h.xhtml#a4012bf160c63ec4ff007f6645b993ca5" target="_top" xlink:title="terminatetetgen">
<polygon fill="none" stroke="black" points="450,-116.5 450,-137.5 534,-137.5 534,-116.5 450,-116.5"/>
<text text-anchor="middle" x="492" y="-124.5" font-family="Helvetica,sans-Serif" font-size="10.00">terminatetetgen</text>
</a>
</g>
<!-- Node4&#45;&gt;Node5 -->
<g id="edge8" class="edge"><title>Node4&#45;&gt;Node5</title>
<path fill="none" stroke="midnightblue" d="M394.019,-127C408.959,-127 424.82,-127 439.331,-127"/>
<polygon fill="midnightblue" stroke="midnightblue" points="439.626,-130.5 449.626,-127 439.626,-123.5 439.626,-130.5"/>
</g>
<!-- Node6 -->
<g id="node11" class="node"><title>Node6</title>
<a xlink:href="classtetgenmesh.xhtml#ade805f03ec7ca1b4623c8148fb915278" target="_top" xlink:title="tetgenmesh::freememory">
<polygon fill="none" stroke="black" points="590.5,-116.5 590.5,-137.5 715.5,-137.5 715.5,-116.5 590.5,-116.5"/>
<text text-anchor="middle" x="653" y="-124.5" font-family="Helvetica,sans-Serif" font-size="10.00">tetgenmesh::freememory</text>
</a>
</g>
<!-- Node5&#45;&gt;Node6 -->
<g id="edge10" class="edge"><title>Node5&#45;&gt;Node6</title>
<path fill="none" stroke="midnightblue" d="M534.301,-127C548.363,-127 564.45,-127 580.146,-127"/>
<polygon fill="midnightblue" stroke="midnightblue" points="580.379,-130.5 590.379,-127 580.379,-123.5 580.379,-130.5"/>
</g>
<!-- Node7&#45;&gt;Node2 -->
<g id="edge18" class="edge"><title>Node7&#45;&gt;Node2</title>
<path fill="none" stroke="midnightblue" d="M235.695,-88.6697C285.957,-88.3423 363.437,-87.8375 420.055,-87.4687"/>
<polygon fill="midnightblue" stroke="midnightblue" points="420.396,-90.9666 430.373,-87.4015 420.35,-83.9668 420.396,-90.9666"/>
</g>
<!-- Node7&#45;&gt;Node3 -->
<g id="edge20" class="edge"><title>Node7&#45;&gt;Node3</title>
<path fill="none" stroke="midnightblue" d="M196.621,-99.5694C212.388,-113.205 242.044,-136.426 272,-147 319.308,-163.699 375.711,-168.554 419.562,-169.31"/>
<polygon fill="midnightblue" stroke="midnightblue" points="419.534,-172.809 429.571,-169.415 419.608,-165.81 419.534,-172.809"/>
</g>
<!-- Node7&#45;&gt;Node4 -->
<g id="edge22" class="edge"><title>Node7&#45;&gt;Node4</title>
<path fill="none" stroke="midnightblue" d="M226.226,-99.5851C243.546,-104.032 263.868,-109.25 282.108,-113.933"/>
<polygon fill="midnightblue" stroke="midnightblue" points="281.439,-117.375 291.995,-116.472 283.179,-110.595 281.439,-117.375"/>
</g>
</g>
</svg>
