<?xml version="1.0" encoding="UTF-8" standalone="no"?>
<!DOCTYPE svg PUBLIC "-//W3C//DTD SVG 1.1//EN"
 "http://www.w3.org/Graphics/SVG/1.1/DTD/svg11.dtd">
<!-- Generated by graphviz version 2.26.3 (20100126.1600)
 -->
<!-- Title: Vector3D::getDistanceTo Pages: 1 -->
<svg width="256pt" height="150pt"
 viewBox="0.00 0.00 256.00 150.00" xmlns="http://www.w3.org/2000/svg" xmlns:xlink="http://www.w3.org/1999/xlink">
<g id="graph1" class="graph" transform="scale(1 1) rotate(0) translate(4 146)">
<title>Vector3D::getDistanceTo</title>
<!-- Node1 -->
<g id="node1" class="node"><title>Node1</title>
<polygon fill="#bfbfbf" stroke="black" points="0,-60.5 0,-81.5 128,-81.5 128,-60.5 0,-60.5"/>
<text text-anchor="middle" x="64" y="-68.5" font-family="Helvetica,sans-Serif" font-size="10.00">Vector3D::getDistanceTo</text>
</g>
<!-- Node2 -->
<g id="node3" class="node"><title>Node2</title>
<a xlink:href="GeometryClasses_8cpp.xhtml#a73527f20206c906e9f333e0f233de13e" target="_top" xlink:title="sqr">
<polygon fill="none" stroke="black" points="191,-120.5 191,-141.5 221,-141.5 221,-120.5 191,-120.5"/>
<text text-anchor="middle" x="206" y="-128.5" font-family="Helvetica,sans-Serif" font-size="10.00">sqr</text>
</a>
</g>
<!-- Node1&#45;&gt;Node2 -->
<g id="edge2" class="edge"><title>Node1&#45;&gt;Node2</title>
<path fill="none" stroke="midnightblue" d="M89.0599,-81.5887C115.067,-92.5776 155.486,-109.656 181.343,-120.582"/>
<polygon fill="midnightblue" stroke="midnightblue" points="180.229,-123.91 190.802,-124.579 182.953,-117.462 180.229,-123.91"/>
</g>
<!-- Node3 -->
<g id="node5" class="node"><title>Node3</title>
<a xlink:href="classVector3D.xhtml#aa9eaf29045bf32b95c5c7bcb2b8b68d7" target="_top" xlink:title="Gibt das X&#45;Element des Vektors zurück. ">
<polygon fill="none" stroke="black" points="164,-80.5 164,-101.5 248,-101.5 248,-80.5 164,-80.5"/>
<text text-anchor="middle" x="206" y="-88.5" font-family="Helvetica,sans-Serif" font-size="10.00">Vector3D::getX</text>
</a>
</g>
<!-- Node1&#45;&gt;Node3 -->
<g id="edge4" class="edge"><title>Node1&#45;&gt;Node3</title>
<path fill="none" stroke="midnightblue" d="M128.352,-80.0637C136.908,-81.2688 145.594,-82.4921 153.907,-83.6629"/>
<polygon fill="midnightblue" stroke="midnightblue" points="153.437,-87.1313 163.828,-85.0603 154.414,-80.1997 153.437,-87.1313"/>
</g>
<!-- Node4 -->
<g id="node7" class="node"><title>Node4</title>
<a xlink:href="classVector3D.xhtml#aa3ffff17b886274a58417dfe4bb4c4a2" target="_top" xlink:title="Gibt das Y&#45;Element des Vektors zurück. ">
<polygon fill="none" stroke="black" points="164,-40.5 164,-61.5 248,-61.5 248,-40.5 164,-40.5"/>
<text text-anchor="middle" x="206" y="-48.5" font-family="Helvetica,sans-Serif" font-size="10.00">Vector3D::getY</text>
</a>
</g>
<!-- Node1&#45;&gt;Node4 -->
<g id="edge6" class="edge"><title>Node1&#45;&gt;Node4</title>
<path fill="none" stroke="midnightblue" d="M128.352,-61.9363C136.908,-60.7312 145.594,-59.5079 153.907,-58.3371"/>
<polygon fill="midnightblue" stroke="midnightblue" points="154.414,-61.8003 163.828,-56.9397 153.437,-54.8687 154.414,-61.8003"/>
</g>
<!-- Node5 -->
<g id="node9" class="node"><title>Node5</title>
<a xlink:href="classVector3D.xhtml#ab0dcbf253ff78856eccb5ea74d080fc7" target="_top" xlink:title="Gibt das Z&#45;Element des Vektors zurück. ">
<polygon fill="none" stroke="black" points="164.5,-0.5 164.5,-21.5 247.5,-21.5 247.5,-0.5 164.5,-0.5"/>
<text text-anchor="middle" x="206" y="-8.5" font-family="Helvetica,sans-Serif" font-size="10.00">Vector3D::getZ</text>
</a>
</g>
<!-- Node1&#45;&gt;Node5 -->
<g id="edge8" class="edge"><title>Node1&#45;&gt;Node5</title>
<path fill="none" stroke="midnightblue" d="M89.0599,-60.4113C111.934,-50.746 145.958,-36.3698 171.416,-25.6128"/>
<polygon fill="midnightblue" stroke="midnightblue" points="172.864,-28.8009 180.713,-21.6846 170.139,-22.3529 172.864,-28.8009"/>
</g>
</g>
</svg>
