<?xml version="1.0" encoding="UTF-8" standalone="no"?>
<!DOCTYPE svg PUBLIC "-//W3C//DTD SVG 1.1//EN"
 "http://www.w3.org/Graphics/SVG/1.1/DTD/svg11.dtd">
<!-- Generated by graphviz version 2.26.3 (20100126.1600)
 -->
<!-- Title: tetgenmesh::locate Pages: 1 -->
<svg width="2296pt" height="714pt"
 viewBox="0.00 0.00 2296.00 713.90" xmlns="http://www.w3.org/2000/svg" xmlns:xlink="http://www.w3.org/1999/xlink">
<g id="graph1" class="graph" transform="scale(1 1) rotate(0) translate(4 709.902)">
<title>tetgenmesh::locate</title>
<!-- Node1 -->
<g id="node1" class="node"><title>Node1</title>
<polygon fill="#bfbfbf" stroke="black" points="0,-158.402 0,-179.402 100,-179.402 100,-158.402 0,-158.402"/>
<text text-anchor="middle" x="50" y="-166.402" font-family="Helvetica,sans-Serif" font-size="10.00">tetgenmesh::locate</text>
</g>
<!-- Node2 -->
<g id="node3" class="node"><title>Node2</title>
<a xlink:href="classtetgenmesh.xhtml#a5d85611ca91db181e357457beb13a633" target="_top" xlink:title="tetgenmesh::insertpoint">
<polygon fill="none" stroke="black" points="293.5,-313.402 293.5,-334.402 412.5,-334.402 412.5,-313.402 293.5,-313.402"/>
<text text-anchor="middle" x="353" y="-321.402" font-family="Helvetica,sans-Serif" font-size="10.00">tetgenmesh::insertpoint</text>
</a>
</g>
<!-- Node1&#45;&gt;Node2 -->
<g id="edge2" class="edge"><title>Node1&#45;&gt;Node2</title>
<path fill="none" stroke="midnightblue" d="M79.9928,-184.245C141.395,-215.655 280.038,-286.578 332.428,-313.379"/>
<polygon fill="midnightblue" stroke="midnightblue" points="81.3232,-180.994 70.8264,-179.556 78.1352,-187.226 81.3232,-180.994"/>
</g>
<!-- Node17 -->
<g id="node37" class="node"><title>Node17</title>
<a xlink:href="classtetgenmesh.xhtml#acb5fc751eaa4a4ddffbebedfa7b7382a" target="_top" xlink:title="tetgenmesh::add_steinerpt\l_in_schoenhardtpoly">
<polygon fill="none" stroke="black" points="471,-671.902 471,-705.902 603,-705.902 603,-671.902 471,-671.902"/>
<text text-anchor="start" x="479" y="-692.902" font-family="Helvetica,sans-Serif" font-size="10.00">tetgenmesh::add_steinerpt</text>
<text text-anchor="middle" x="537" y="-679.902" font-family="Helvetica,sans-Serif" font-size="10.00">_in_schoenhardtpoly</text>
</a>
</g>
<!-- Node1&#45;&gt;Node17 -->
<g id="edge106" class="edge"><title>Node1&#45;&gt;Node17</title>
<path fill="none" stroke="midnightblue" d="M60.224,-188.74C99.6247,-263.193 249.483,-528.564 450,-662.902 456.417,-667.201 463.565,-670.808 470.929,-673.828"/>
<polygon fill="midnightblue" stroke="midnightblue" points="63.1433,-186.77 55.4037,-179.534 56.9421,-190.017 63.1433,-186.77"/>
</g>
<!-- Node32 -->
<g id="node81" class="node"><title>Node32</title>
<a xlink:href="classtetgenmesh.xhtml#aa9540f310c97db99c989a02b0978ceec" target="_top" xlink:title="tetgenmesh::splitsliver">
<polygon fill="none" stroke="black" points="479.5,-82.4021 479.5,-103.402 594.5,-103.402 594.5,-82.4021 479.5,-82.4021"/>
<text text-anchor="middle" x="537" y="-90.4021" font-family="Helvetica,sans-Serif" font-size="10.00">tetgenmesh::splitsliver</text>
</a>
</g>
<!-- Node1&#45;&gt;Node32 -->
<g id="edge122" class="edge"><title>Node1&#45;&gt;Node32</title>
<path fill="none" stroke="midnightblue" d="M101.914,-156.038C113.117,-153.484 124.923,-150.959 136,-148.902 257.464,-126.344 401.149,-108.366 479.297,-99.3107"/>
<polygon fill="midnightblue" stroke="midnightblue" points="100.783,-152.707 91.8339,-158.379 102.366,-159.526 100.783,-152.707"/>
</g>
<!-- Node35 -->
<g id="node89" class="node"><title>Node35</title>
<a xlink:href="classtetgenmesh.xhtml#ad71017c71bd2cac0232c410a651ed085" target="_top" xlink:title="tetgenmesh::carveholes">
<polygon fill="none" stroke="black" points="292.5,-5.40206 292.5,-26.4021 413.5,-26.4021 413.5,-5.40206 292.5,-5.40206"/>
<text text-anchor="middle" x="353" y="-13.4021" font-family="Helvetica,sans-Serif" font-size="10.00">tetgenmesh::carveholes</text>
</a>
</g>
<!-- Node1&#45;&gt;Node35 -->
<g id="edge108" class="edge"><title>Node1&#45;&gt;Node35</title>
<path fill="none" stroke="midnightblue" d="M57.2012,-148.771C68.8162,-119.535 94.6581,-66.0758 136,-40.9021 182.966,-12.3037 246.346,-8.08148 292.478,-9.79666"/>
<polygon fill="midnightblue" stroke="midnightblue" points="53.8421,-147.758 53.5633,-158.349 60.386,-150.244 53.8421,-147.758"/>
</g>
<!-- Node36 -->
<g id="node92" class="node"><title>Node36</title>
<a xlink:href="classtetgenmesh.xhtml#a230d03da7e72e7092f5f51886806dd9b" target="_top" xlink:title="tetgenmesh::scoutpoint">
<polygon fill="none" stroke="black" points="136.5,-158.402 136.5,-179.402 255.5,-179.402 255.5,-158.402 136.5,-158.402"/>
<text text-anchor="middle" x="196" y="-166.402" font-family="Helvetica,sans-Serif" font-size="10.00">tetgenmesh::scoutpoint</text>
</a>
</g>
<!-- Node1&#45;&gt;Node36 -->
<g id="edge112" class="edge"><title>Node1&#45;&gt;Node36</title>
<path fill="none" stroke="midnightblue" d="M110.513,-168.902C119.053,-168.902 127.828,-168.902 136.351,-168.902"/>
<polygon fill="midnightblue" stroke="midnightblue" points="110.245,-165.402 100.245,-168.902 110.245,-172.402 110.245,-165.402"/>
</g>
<!-- Node3 -->
<g id="node5" class="node"><title>Node3</title>
<a xlink:href="classtetgenmesh.xhtml#a5a5a0513d0bea7aa457eb0bc5fad1b02" target="_top" xlink:title="tetgenmesh::incrementaldelaunay">
<polygon fill="none" stroke="black" points="1470.5,-169.402 1470.5,-190.402 1633.5,-190.402 1633.5,-169.402 1470.5,-169.402"/>
<text text-anchor="middle" x="1552" y="-177.402" font-family="Helvetica,sans-Serif" font-size="10.00">tetgenmesh::incrementaldelaunay</text>
</a>
</g>
<!-- Node2&#45;&gt;Node3 -->
<g id="edge4" class="edge"><title>Node2&#45;&gt;Node3</title>
<path fill="none" stroke="midnightblue" d="M367.147,-305.253C384.228,-284.311 415.053,-251.252 450,-235.902 575.443,-180.802 619.989,-207.902 757,-207.902 757,-207.902 757,-207.902 1155,-207.902 1264.34,-207.902 1390.21,-197.203 1470.38,-189.032"/>
<polygon fill="midnightblue" stroke="midnightblue" points="364.363,-303.13 360.894,-313.141 369.849,-307.479 364.363,-303.13"/>
</g>
<!-- Node11 -->
<g id="node21" class="node"><title>Node11</title>
<a xlink:href="classtetgenmesh.xhtml#a8dee14a42e35e4fe65944518eed4f7d3" target="_top" xlink:title="tetgenmesh::delaunizesegments">
<polygon fill="none" stroke="black" points="1076,-276.402 1076,-297.402 1234,-297.402 1234,-276.402 1076,-276.402"/>
<text text-anchor="middle" x="1155" y="-284.402" font-family="Helvetica,sans-Serif" font-size="10.00">tetgenmesh::delaunizesegments</text>
</a>
</g>
<!-- Node2&#45;&gt;Node11 -->
<g id="edge20" class="edge"><title>Node2&#45;&gt;Node11</title>
<path fill="none" stroke="midnightblue" d="M422.997,-320.673C571.889,-313.804 919.174,-297.782 1075.84,-290.554"/>
<polygon fill="midnightblue" stroke="midnightblue" points="422.453,-317.194 412.625,-321.151 422.776,-324.187 422.453,-317.194"/>
</g>
<!-- Node13 -->
<g id="node26" class="node"><title>Node13</title>
<a xlink:href="classtetgenmesh.xhtml#ab1a82368937a13996efae911b8b1fded" target="_top" xlink:title="tetgenmesh::delaunizecavity">
<polygon fill="none" stroke="black" points="466.5,-274.402 466.5,-295.402 607.5,-295.402 607.5,-274.402 466.5,-274.402"/>
<text text-anchor="middle" x="537" y="-282.402" font-family="Helvetica,sans-Serif" font-size="10.00">tetgenmesh::delaunizecavity</text>
</a>
</g>
<!-- Node2&#45;&gt;Node13 -->
<g id="edge26" class="edge"><title>Node2&#45;&gt;Node13</title>
<path fill="none" stroke="midnightblue" d="M412.861,-311.214C436.885,-306.122 464.253,-300.321 487.167,-295.464"/>
<polygon fill="midnightblue" stroke="midnightblue" points="411.85,-307.851 402.793,-313.348 413.301,-314.698 411.85,-307.851"/>
</g>
<!-- Node14 -->
<g id="node28" class="node"><title>Node14</title>
<a xlink:href="classtetgenmesh.xhtml#a9c967ef25cfd6e06d6b9301302be3f70" target="_top" xlink:title="tetgenmesh::insertpoint_cdt">
<polygon fill="none" stroke="black" points="688.5,-236.402 688.5,-257.402 825.5,-257.402 825.5,-236.402 688.5,-236.402"/>
<text text-anchor="middle" x="757" y="-244.402" font-family="Helvetica,sans-Serif" font-size="10.00">tetgenmesh::insertpoint_cdt</text>
</a>
</g>
<!-- Node2&#45;&gt;Node14 -->
<g id="edge38" class="edge"><title>Node2&#45;&gt;Node14</title>
<path fill="none" stroke="midnightblue" d="M373.882,-307.004C392.59,-292.938 421.412,-273.824 450,-264.902 528.997,-240.248 624.877,-238.85 688.237,-241.584"/>
<polygon fill="midnightblue" stroke="midnightblue" points="371.573,-304.365 365.796,-313.246 375.85,-309.906 371.573,-304.365"/>
</g>
<!-- Node2&#45;&gt;Node17 -->
<g id="edge40" class="edge"><title>Node2&#45;&gt;Node17</title>
<path fill="none" stroke="midnightblue" d="M360.164,-344.167C372.152,-378.452 396.664,-450.198 414,-511.902 432.661,-578.322 402.609,-612.762 450,-662.902 455.847,-669.089 463.099,-673.822 470.902,-677.44"/>
<polygon fill="midnightblue" stroke="midnightblue" points="363.354,-342.687 356.737,-334.412 356.75,-345.007 363.354,-342.687"/>
</g>
<!-- Node18 -->
<g id="node39" class="node"><title>Node18</title>
<a xlink:href="classtetgenmesh.xhtml#a9d878a0e64588b0471a58e534affea8e" target="_top" xlink:title="tetgenmesh::addsteiner4recoversegment">
<polygon fill="none" stroke="black" points="660,-616.402 660,-637.402 854,-637.402 854,-616.402 660,-616.402"/>
<text text-anchor="middle" x="757" y="-624.402" font-family="Helvetica,sans-Serif" font-size="10.00">tetgenmesh::addsteiner4recoversegment</text>
</a>
</g>
<!-- Node2&#45;&gt;Node18 -->
<g id="edge54" class="edge"><title>Node2&#45;&gt;Node18</title>
<path fill="none" stroke="midnightblue" d="M358.447,-344.513C372.93,-397.776 413.765,-537.926 450,-567.902 467.773,-582.605 597.322,-603.798 682.357,-616.378"/>
<polygon fill="midnightblue" stroke="midnightblue" points="361.741,-343.287 355.767,-334.537 354.981,-345.103 361.741,-343.287"/>
</g>
<!-- Node21 -->
<g id="node46" class="node"><title>Node21</title>
<a xlink:href="classtetgenmesh.xhtml#a3de6e9d82e74671af7f038043b5e9bcc" target="_top" xlink:title="tetgenmesh::add_steinerpt\l_in_segment">
<polygon fill="none" stroke="black" points="471,-619.902 471,-653.902 603,-653.902 603,-619.902 471,-619.902"/>
<text text-anchor="start" x="479" y="-640.902" font-family="Helvetica,sans-Serif" font-size="10.00">tetgenmesh::add_steinerpt</text>
<text text-anchor="middle" x="537" y="-627.902" font-family="Helvetica,sans-Serif" font-size="10.00">_in_segment</text>
</a>
</g>
<!-- Node2&#45;&gt;Node21 -->
<g id="edge50" class="edge"><title>Node2&#45;&gt;Node21</title>
<path fill="none" stroke="midnightblue" d="M359.423,-344.119C379.497,-407.09 440.299,-596.094 450,-605.902 455.976,-611.944 463.207,-616.813 470.916,-620.736"/>
<polygon fill="midnightblue" stroke="midnightblue" points="362.734,-342.982 356.366,-334.515 356.064,-345.105 362.734,-342.982"/>
</g>
<!-- Node22 -->
<g id="node50" class="node"><title>Node22</title>
<a xlink:href="classtetgenmesh.xhtml#ace09080e4f274e0a48cd1728475878c9" target="_top" xlink:title="tetgenmesh::recoversubfaces">
<polygon fill="none" stroke="black" points="892,-546.402 892,-567.402 1038,-567.402 1038,-546.402 892,-546.402"/>
<text text-anchor="middle" x="965" y="-554.402" font-family="Helvetica,sans-Serif" font-size="10.00">tetgenmesh::recoversubfaces</text>
</a>
</g>
<!-- Node2&#45;&gt;Node22 -->
<g id="edge56" class="edge"><title>Node2&#45;&gt;Node22</title>
<path fill="none" stroke="midnightblue" d="M355.743,-344.526C362.68,-387.533 385.239,-486.395 450,-529.902 520.138,-577.021 766.813,-569.336 891.574,-562.046"/>
<polygon fill="midnightblue" stroke="midnightblue" points="359.172,-343.79 354.238,-334.414 352.248,-344.82 359.172,-343.79"/>
</g>
<!-- Node23 -->
<g id="node53" class="node"><title>Node23</title>
<a xlink:href="classtetgenmesh.xhtml#ac8205cae8e16f490b80d74975934ff74" target="_top" xlink:title="tetgenmesh::insertconstrainedpoints">
<polygon fill="none" stroke="black" points="450,-158.402 450,-179.402 624,-179.402 624,-158.402 450,-158.402"/>
<text text-anchor="middle" x="537" y="-166.402" font-family="Helvetica,sans-Serif" font-size="10.00">tetgenmesh::insertconstrainedpoints</text>
</a>
</g>
<!-- Node2&#45;&gt;Node23 -->
<g id="edge60" class="edge"><title>Node2&#45;&gt;Node23</title>
<path fill="none" stroke="midnightblue" d="M362.376,-304.284C377.048,-275.691 408.142,-222.834 450,-193.902 459.049,-187.647 469.655,-182.944 480.289,-179.411"/>
<polygon fill="midnightblue" stroke="midnightblue" points="359.208,-302.795 357.881,-313.307 365.473,-305.917 359.208,-302.795"/>
</g>
<!-- Node25 -->
<g id="node58" class="node"><title>Node25</title>
<a xlink:href="classtetgenmesh.xhtml#a6394d7b4d386e8d08077c39cd8983e0e" target="_top" xlink:title="tetgenmesh::splitsegment">
<polygon fill="none" stroke="black" points="472.5,-409.402 472.5,-430.402 601.5,-430.402 601.5,-409.402 472.5,-409.402"/>
<text text-anchor="middle" x="537" y="-417.402" font-family="Helvetica,sans-Serif" font-size="10.00">tetgenmesh::splitsegment</text>
</a>
</g>
<!-- Node2&#45;&gt;Node25 -->
<g id="edge66" class="edge"><title>Node2&#45;&gt;Node25</title>
<path fill="none" stroke="midnightblue" d="M381.495,-339.408C400.772,-349.842 426.844,-363.842 450,-375.902 472.368,-387.552 498.17,-400.546 515.832,-409.373"/>
<polygon fill="midnightblue" stroke="midnightblue" points="383.079,-336.286 372.62,-334.597 379.743,-342.44 383.079,-336.286"/>
</g>
<!-- Node27 -->
<g id="node62" class="node"><title>Node27</title>
<a xlink:href="classtetgenmesh.xhtml#a3a8404870ab3c2e8ce4312d48c2b29f4" target="_top" xlink:title="tetgenmesh::splitsubface">
<polygon fill="none" stroke="black" points="902,-354.402 902,-375.402 1028,-375.402 1028,-354.402 902,-354.402"/>
<text text-anchor="middle" x="965" y="-362.402" font-family="Helvetica,sans-Serif" font-size="10.00">tetgenmesh::splitsubface</text>
</a>
</g>
<!-- Node2&#45;&gt;Node27 -->
<g id="edge94" class="edge"><title>Node2&#45;&gt;Node27</title>
<path fill="none" stroke="midnightblue" d="M422.578,-334.722C431.784,-335.925 441.109,-337.029 450,-337.902 612.392,-353.845 804.579,-360.772 901.834,-363.44"/>
<polygon fill="midnightblue" stroke="midnightblue" points="423.039,-331.253 412.661,-333.384 422.103,-338.19 423.039,-331.253"/>
</g>
<!-- Node29 -->
<g id="node66" class="node"><title>Node29</title>
<a xlink:href="classtetgenmesh.xhtml#aa752155eb1d18550a212dd40297f122e" target="_top" xlink:title="tetgenmesh::splittetrahedron">
<polygon fill="none" stroke="black" points="1282,-384.402 1282,-405.402 1422,-405.402 1422,-384.402 1282,-384.402"/>
<text text-anchor="middle" x="1352" y="-392.402" font-family="Helvetica,sans-Serif" font-size="10.00">tetgenmesh::splittetrahedron</text>
</a>
</g>
<!-- Node2&#45;&gt;Node29 -->
<g id="edge96" class="edge"><title>Node2&#45;&gt;Node29</title>
<path fill="none" stroke="midnightblue" d="M363.977,-343.303C379.674,-369.262 410.993,-414.916 450,-439.902 531.436,-492.066 564.138,-484.123 660,-496.902 914.032,-530.765 986.426,-508.131 1234,-441.902 1268.51,-432.67 1306.6,-416.301 1329.91,-405.525"/>
<polygon fill="midnightblue" stroke="midnightblue" points="366.829,-341.248 358.743,-334.403 360.795,-344.797 366.829,-341.248"/>
</g>
<!-- Node2&#45;&gt;Node32 -->
<g id="edge98" class="edge"><title>Node2&#45;&gt;Node32</title>
<path fill="none" stroke="midnightblue" d="M360.341,-303.788C373.808,-268.99 405.247,-196.701 450,-148.902 468.538,-129.102 495.476,-113.177 514.454,-103.444"/>
<polygon fill="midnightblue" stroke="midnightblue" points="357.002,-302.723 356.743,-313.315 363.55,-305.196 357.002,-302.723"/>
</g>
<!-- Node4 -->
<g id="node7" class="node"><title>Node4</title>
<a xlink:href="tetgen_8h.xhtml#ad3637eb4ffe7fda90667e67b7771d964" target="_top" xlink:title="tetrahedralize">
<polygon fill="none" stroke="black" points="1868.5,-145.402 1868.5,-166.402 1943.5,-166.402 1943.5,-145.402 1868.5,-145.402"/>
<text text-anchor="middle" x="1906" y="-153.402" font-family="Helvetica,sans-Serif" font-size="10.00">tetrahedralize</text>
</a>
</g>
<!-- Node3&#45;&gt;Node4 -->
<g id="edge6" class="edge"><title>Node3&#45;&gt;Node4</title>
<path fill="none" stroke="midnightblue" d="M1643.78,-173.68C1716.72,-168.735 1815.03,-162.07 1868.14,-158.469"/>
<polygon fill="midnightblue" stroke="midnightblue" points="1643.4,-170.197 1633.66,-174.366 1643.87,-177.181 1643.4,-170.197"/>
</g>
<!-- Node5 -->
<g id="node9" class="node"><title>Node5</title>
<a xlink:href="classGUICutRenderWindow.xhtml#a9eedb7088ad31f4680a77ed3a06fa60c" target="_top" xlink:title="Berechnet die 2D&#45;Temperaturverteilung als Grafik. ">
<polygon fill="none" stroke="black" points="1982.5,-184.902 1982.5,-218.902 2099.5,-218.902 2099.5,-184.902 1982.5,-184.902"/>
<text text-anchor="start" x="1990.5" y="-205.902" font-family="Helvetica,sans-Serif" font-size="10.00">GUICutRenderWindow</text>
<text text-anchor="middle" x="2041" y="-192.902" font-family="Helvetica,sans-Serif" font-size="10.00">::renderImage</text>
</a>
</g>
<!-- Node4&#45;&gt;Node5 -->
<g id="edge8" class="edge"><title>Node4&#45;&gt;Node5</title>
<path fill="none" stroke="midnightblue" d="M1946.73,-169.779C1960.62,-174.513 1976.32,-179.862 1990.86,-184.818"/>
<polygon fill="midnightblue" stroke="midnightblue" points="1947.57,-166.368 1936.97,-166.455 1945.31,-172.994 1947.57,-166.368"/>
</g>
<!-- Node7 -->
<g id="node13" class="node"><title>Node7</title>
<a xlink:href="classObjectData.xhtml#af3a850833d08eb9b45357449f455e24d" target="_top" xlink:title="Zerlegt das Objekt in Tetraeder (Schnittstelle zur Tetgen&#45;Bibliothek) und Berechnet die Temperaturver...">
<polygon fill="none" stroke="black" points="1980,-145.402 1980,-166.402 2102,-166.402 2102,-145.402 1980,-145.402"/>
<text text-anchor="middle" x="2041" y="-153.402" font-family="Helvetica,sans-Serif" font-size="10.00">ObjectData::calculateIO</text>
</a>
</g>
<!-- Node4&#45;&gt;Node7 -->
<g id="edge12" class="edge"><title>Node4&#45;&gt;Node7</title>
<path fill="none" stroke="midnightblue" d="M1953.65,-155.902C1962.11,-155.902 1971.02,-155.902 1979.8,-155.902"/>
<polygon fill="midnightblue" stroke="midnightblue" points="1953.61,-152.402 1943.61,-155.902 1953.6,-159.402 1953.61,-152.402"/>
</g>
<!-- Node10 -->
<g id="node19" class="node"><title>Node10</title>
<a xlink:href="tetgen_8cxx.xhtml#a0ddf1224851353fc92bfbff6f499fa97" target="_top" xlink:title="main">
<polygon fill="none" stroke="black" points="2022,-105.402 2022,-126.402 2060,-126.402 2060,-105.402 2022,-105.402"/>
<text text-anchor="middle" x="2041" y="-113.402" font-family="Helvetica,sans-Serif" font-size="10.00">main</text>
</a>
</g>
<!-- Node4&#45;&gt;Node10 -->
<g id="edge18" class="edge"><title>Node4&#45;&gt;Node10</title>
<path fill="none" stroke="midnightblue" d="M1951.15,-142.523C1975.27,-135.378 2003.67,-126.963 2021.98,-121.536"/>
<polygon fill="midnightblue" stroke="midnightblue" points="1950.06,-139.196 1941.47,-145.393 1952.05,-145.907 1950.06,-139.196"/>
</g>
<!-- Node6 -->
<g id="node11" class="node"><title>Node6</title>
<a xlink:href="classGUICutRenderWindow.xhtml#a7cd1bfbec53756a1cbbe1616b4d46c7a" target="_top" xlink:title="Behandelt das Drücken des Buttons zur Berechnung der zweidimensionalen Temperaturverteilung. ">
<polygon fill="none" stroke="black" points="2154.5,-184.902 2154.5,-218.902 2271.5,-218.902 2271.5,-184.902 2154.5,-184.902"/>
<text text-anchor="start" x="2162.5" y="-205.902" font-family="Helvetica,sans-Serif" font-size="10.00">GUICutRenderWindow</text>
<text text-anchor="middle" x="2213" y="-192.902" font-family="Helvetica,sans-Serif" font-size="10.00">::renderCutBtClick</text>
</a>
</g>
<!-- Node5&#45;&gt;Node6 -->
<g id="edge10" class="edge"><title>Node5&#45;&gt;Node6</title>
<path fill="none" stroke="midnightblue" d="M2109.78,-201.902C2124.51,-201.902 2139.95,-201.902 2154.26,-201.902"/>
<polygon fill="midnightblue" stroke="midnightblue" points="2109.71,-198.402 2099.71,-201.902 2109.71,-205.402 2109.71,-198.402"/>
</g>
<!-- Node8 -->
<g id="node15" class="node"><title>Node8</title>
<a xlink:href="classGUIMainWindow.xhtml#a0c2de30274c7f52ff74ec1217e47a9e5" target="_top" xlink:title="Berechnet die 3D&#45;Temperaturverteilung neu. ">
<polygon fill="none" stroke="black" points="2138,-92.9021 2138,-126.902 2288,-126.902 2288,-92.9021 2138,-92.9021"/>
<text text-anchor="start" x="2146" y="-113.902" font-family="Helvetica,sans-Serif" font-size="10.00">GUIMainWindow::OnRecalcBt</text>
<text text-anchor="middle" x="2213" y="-100.902" font-family="Helvetica,sans-Serif" font-size="10.00">Click</text>
</a>
</g>
<!-- Node7&#45;&gt;Node8 -->
<g id="edge14" class="edge"><title>Node7&#45;&gt;Node8</title>
<path fill="none" stroke="midnightblue" d="M2090.33,-142.71C2108.64,-137.812 2129.69,-132.183 2149.12,-126.987"/>
<polygon fill="midnightblue" stroke="midnightblue" points="2089.22,-139.384 2080.46,-145.349 2091.03,-146.146 2089.22,-139.384"/>
</g>
<!-- Node9 -->
<g id="node17" class="node"><title>Node9</title>
<a xlink:href="classGUITimeline.xhtml#a099f3654aa6e7ea04df861851a0e9ec8" target="_top" xlink:title="Sucht den Zeitpunkt zwischen zwei markierten Stellen auf der Sensordaten&#45;Zeitleiste, für den der Wäremeenergiegehalt maximal wird. ">
<polygon fill="none" stroke="black" points="2144.5,-145.402 2144.5,-166.402 2281.5,-166.402 2281.5,-145.402 2144.5,-145.402"/>
<text text-anchor="middle" x="2213" y="-153.402" font-family="Helvetica,sans-Serif" font-size="10.00">GUITimeline::findMaxValue</text>
</a>
</g>
<!-- Node7&#45;&gt;Node9 -->
<g id="edge16" class="edge"><title>Node7&#45;&gt;Node9</title>
<path fill="none" stroke="midnightblue" d="M2112.23,-155.902C2122.89,-155.902 2133.86,-155.902 2144.46,-155.902"/>
<polygon fill="midnightblue" stroke="midnightblue" points="2112.13,-152.402 2102.13,-155.902 2112.13,-159.402 2112.13,-152.402"/>
</g>
<!-- Node12 -->
<g id="node23" class="node"><title>Node12</title>
<a xlink:href="classtetgenmesh.xhtml#aab64d62b3d2b048a38158fb2bf678624" target="_top" xlink:title="tetgenmesh::constraineddelaunay">
<polygon fill="none" stroke="black" points="1270.5,-236.402 1270.5,-257.402 1433.5,-257.402 1433.5,-236.402 1270.5,-236.402"/>
<text text-anchor="middle" x="1352" y="-244.402" font-family="Helvetica,sans-Serif" font-size="10.00">tetgenmesh::constraineddelaunay</text>
</a>
</g>
<!-- Node11&#45;&gt;Node12 -->
<g id="edge22" class="edge"><title>Node11&#45;&gt;Node12</title>
<path fill="none" stroke="midnightblue" d="M1216.81,-274.352C1243.62,-268.907 1274.67,-262.603 1300.24,-257.411"/>
<polygon fill="midnightblue" stroke="midnightblue" points="1215.86,-270.973 1206.76,-276.393 1217.26,-277.833 1215.86,-270.973"/>
</g>
<!-- Node12&#45;&gt;Node4 -->
<g id="edge24" class="edge"><title>Node12&#45;&gt;Node4</title>
<path fill="none" stroke="midnightblue" d="M1444,-238.887C1541.26,-229.293 1698.75,-210.561 1832,-179.902 1847.27,-176.389 1863.89,-171.132 1877.51,-166.433"/>
<polygon fill="midnightblue" stroke="midnightblue" points="1443.51,-235.418 1433.9,-239.872 1444.19,-242.385 1443.51,-235.418"/>
</g>
<!-- Node13&#45;&gt;Node14 -->
<g id="edge28" class="edge"><title>Node13&#45;&gt;Node14</title>
<path fill="none" stroke="midnightblue" d="M608.215,-272.601C636.494,-267.717 668.695,-262.155 695.891,-257.457"/>
<polygon fill="midnightblue" stroke="midnightblue" points="607.248,-269.216 597.99,-274.367 608.44,-276.114 607.248,-269.216"/>
</g>
<!-- Node16 -->
<g id="node32" class="node"><title>Node16</title>
<a xlink:href="classtetgenmesh.xhtml#a7579c3a44a54712623d9f9e5fc1dfbdc" target="_top" xlink:title="tetgenmesh::constrainedfacets">
<polygon fill="none" stroke="black" points="1079.5,-236.402 1079.5,-257.402 1230.5,-257.402 1230.5,-236.402 1079.5,-236.402"/>
<text text-anchor="middle" x="1155" y="-244.402" font-family="Helvetica,sans-Serif" font-size="10.00">tetgenmesh::constrainedfacets</text>
</a>
</g>
<!-- Node13&#45;&gt;Node16 -->
<g id="edge36" class="edge"><title>Node13&#45;&gt;Node16</title>
<path fill="none" stroke="midnightblue" d="M617.891,-285.395C717.474,-285.223 891.636,-282.385 1040,-266.902 1060.86,-264.725 1083.65,-261.039 1103.4,-257.421"/>
<polygon fill="midnightblue" stroke="midnightblue" points="617.601,-281.895 607.604,-285.404 617.607,-288.895 617.601,-281.895"/>
</g>
<!-- Node15 -->
<g id="node30" class="node"><title>Node15</title>
<a xlink:href="classtetgenmesh.xhtml#aa34a5188a4cee82197394560c388c348" target="_top" xlink:title="tetgenmesh::refineregion">
<polygon fill="none" stroke="black" points="903,-236.402 903,-257.402 1027,-257.402 1027,-236.402 903,-236.402"/>
<text text-anchor="middle" x="965" y="-244.402" font-family="Helvetica,sans-Serif" font-size="10.00">tetgenmesh::refineregion</text>
</a>
</g>
<!-- Node14&#45;&gt;Node15 -->
<g id="edge30" class="edge"><title>Node14&#45;&gt;Node15</title>
<path fill="none" stroke="midnightblue" d="M835.73,-246.902C857.881,-246.902 881.659,-246.902 902.705,-246.902"/>
<polygon fill="midnightblue" stroke="midnightblue" points="835.683,-243.402 825.683,-246.902 835.683,-250.402 835.683,-243.402"/>
</g>
<!-- Node15&#45;&gt;Node16 -->
<g id="edge32" class="edge"><title>Node15&#45;&gt;Node16</title>
<path fill="none" stroke="midnightblue" d="M1037.54,-246.902C1051.24,-246.902 1065.6,-246.902 1079.39,-246.902"/>
<polygon fill="midnightblue" stroke="midnightblue" points="1037.21,-243.402 1027.21,-246.902 1037.21,-250.402 1037.21,-243.402"/>
</g>
<!-- Node16&#45;&gt;Node12 -->
<g id="edge34" class="edge"><title>Node16&#45;&gt;Node12</title>
<path fill="none" stroke="midnightblue" d="M1240.77,-246.902C1250.6,-246.902 1260.6,-246.902 1270.38,-246.902"/>
<polygon fill="midnightblue" stroke="midnightblue" points="1240.6,-243.402 1230.6,-246.902 1240.6,-250.402 1240.6,-243.402"/>
</g>
<!-- Node17&#45;&gt;Node18 -->
<g id="edge42" class="edge"><title>Node17&#45;&gt;Node18</title>
<path fill="none" stroke="midnightblue" d="M607.216,-669.114C644.487,-658.61 688.802,-646.121 719.515,-637.466"/>
<polygon fill="midnightblue" stroke="midnightblue" points="606.083,-665.797 597.407,-671.878 607.981,-672.534 606.083,-665.797"/>
</g>
<!-- Node19 -->
<g id="node41" class="node"><title>Node19</title>
<a xlink:href="classtetgenmesh.xhtml#a50e12e269b11573e6e1b91347ad19b37" target="_top" xlink:title="tetgenmesh::recoversegments">
<polygon fill="none" stroke="black" points="890.5,-606.402 890.5,-627.402 1039.5,-627.402 1039.5,-606.402 890.5,-606.402"/>
<text text-anchor="middle" x="965" y="-614.402" font-family="Helvetica,sans-Serif" font-size="10.00">tetgenmesh::recoversegments</text>
</a>
</g>
<!-- Node18&#45;&gt;Node19 -->
<g id="edge44" class="edge"><title>Node18&#45;&gt;Node19</title>
<path fill="none" stroke="midnightblue" d="M864.574,-621.73C873.325,-621.309 882.042,-620.89 890.478,-620.485"/>
<polygon fill="midnightblue" stroke="midnightblue" points="864.121,-618.248 854.301,-622.224 864.458,-625.24 864.121,-618.248"/>
</g>
<!-- Node20 -->
<g id="node43" class="node"><title>Node20</title>
<a xlink:href="classtetgenmesh.xhtml#a1be7dce56688fbe7a97fc31f98b61c19" target="_top" xlink:title="tetgenmesh::recoverboundary">
<polygon fill="none" stroke="black" points="1082,-546.402 1082,-567.402 1228,-567.402 1228,-546.402 1082,-546.402"/>
<text text-anchor="middle" x="1155" y="-554.402" font-family="Helvetica,sans-Serif" font-size="10.00">tetgenmesh::recoverboundary</text>
</a>
</g>
<!-- Node19&#45;&gt;Node20 -->
<g id="edge46" class="edge"><title>Node19&#45;&gt;Node20</title>
<path fill="none" stroke="midnightblue" d="M1008.3,-603.229C1042.65,-592.38 1089.98,-577.435 1121.49,-567.486"/>
<polygon fill="midnightblue" stroke="midnightblue" points="1007.01,-599.964 998.531,-606.313 1009.12,-606.64 1007.01,-599.964"/>
</g>
<!-- Node20&#45;&gt;Node4 -->
<g id="edge48" class="edge"><title>Node20&#45;&gt;Node4</title>
<path fill="none" stroke="midnightblue" d="M1238.42,-555.536C1335.73,-551.772 1500.32,-538.614 1634,-493.902 1729.88,-461.832 1767.94,-460.12 1832,-381.902 1887.98,-313.549 1902.08,-201.547 1905.2,-166.636"/>
<polygon fill="midnightblue" stroke="midnightblue" points="1238.22,-552.041 1228.35,-555.901 1238.47,-559.036 1238.22,-552.041"/>
</g>
<!-- Node21&#45;&gt;Node18 -->
<g id="edge52" class="edge"><title>Node21&#45;&gt;Node18</title>
<path fill="none" stroke="midnightblue" d="M613.225,-633.437C628.221,-632.756 644.144,-632.032 659.722,-631.324"/>
<polygon fill="midnightblue" stroke="midnightblue" points="612.838,-629.951 603.007,-633.902 613.156,-636.944 612.838,-629.951"/>
</g>
<!-- Node22&#45;&gt;Node20 -->
<g id="edge58" class="edge"><title>Node22&#45;&gt;Node20</title>
<path fill="none" stroke="midnightblue" d="M1048.35,-556.902C1059.51,-556.902 1070.89,-556.902 1081.85,-556.902"/>
<polygon fill="midnightblue" stroke="midnightblue" points="1048.19,-553.402 1038.19,-556.902 1048.19,-560.402 1048.19,-553.402"/>
</g>
<!-- Node23&#45;&gt;Node4 -->
<g id="edge64" class="edge"><title>Node23&#45;&gt;Node4</title>
<path fill="none" stroke="midnightblue" d="M602.08,-156.74C620.722,-153.686 641.11,-150.755 660,-148.902 879.079,-127.416 934.87,-131.902 1155,-131.902 1155,-131.902 1155,-131.902 1552,-131.902 1667.5,-131.902 1803.71,-144.777 1868.34,-151.667"/>
<polygon fill="midnightblue" stroke="midnightblue" points="601.501,-153.288 592.217,-158.393 602.658,-160.192 601.501,-153.288"/>
</g>
<!-- Node24 -->
<g id="node55" class="node"><title>Node24</title>
<a xlink:href="classtetgenmesh.xhtml#ab859365ca3dd3eafb77fac56d0ae3a03" target="_top" xlink:title="tetgenmesh::insertconstrainedpoints">
<polygon fill="none" stroke="black" points="670,-158.402 670,-179.402 844,-179.402 844,-158.402 670,-158.402"/>
<text text-anchor="middle" x="757" y="-166.402" font-family="Helvetica,sans-Serif" font-size="10.00">tetgenmesh::insertconstrainedpoints</text>
</a>
</g>
<!-- Node23&#45;&gt;Node24 -->
<g id="edge62" class="edge"><title>Node23&#45;&gt;Node24</title>
<path fill="none" stroke="midnightblue" d="M634.535,-168.902C646.293,-168.902 658.244,-168.902 669.84,-168.902"/>
<polygon fill="midnightblue" stroke="midnightblue" points="634.266,-165.402 624.266,-168.902 634.266,-172.402 634.266,-165.402"/>
</g>
<!-- Node26 -->
<g id="node60" class="node"><title>Node26</title>
<a xlink:href="classtetgenmesh.xhtml#a7af360f1ae413f9e0d7803ccae55b6d6" target="_top" xlink:title="tetgenmesh::repairencsegs">
<polygon fill="none" stroke="black" points="690,-466.402 690,-487.402 824,-487.402 824,-466.402 690,-466.402"/>
<text text-anchor="middle" x="757" y="-474.402" font-family="Helvetica,sans-Serif" font-size="10.00">tetgenmesh::repairencsegs</text>
</a>
</g>
<!-- Node25&#45;&gt;Node26 -->
<g id="edge68" class="edge"><title>Node25&#45;&gt;Node26</title>
<path fill="none" stroke="midnightblue" d="M587.342,-433.027C609.606,-438.824 636.105,-445.714 660,-451.902 678.351,-456.654 698.66,-461.891 715.932,-466.34"/>
<polygon fill="midnightblue" stroke="midnightblue" points="587.994,-429.58 577.435,-430.446 586.23,-436.354 587.994,-429.58"/>
</g>
<!-- Node25&#45;&gt;Node27 -->
<g id="edge90" class="edge"><title>Node25&#45;&gt;Node27</title>
<path fill="none" stroke="midnightblue" d="M611.555,-410.321C693.682,-399.768 824.338,-382.978 901.683,-373.039"/>
<polygon fill="midnightblue" stroke="midnightblue" points="611.012,-406.862 601.539,-411.608 611.904,-413.805 611.012,-406.862"/>
</g>
<!-- Node25&#45;&gt;Node29 -->
<g id="edge92" class="edge"><title>Node25&#45;&gt;Node29</title>
<path fill="none" stroke="midnightblue" d="M611.65,-417.612C768.279,-412.808 1129.32,-401.733 1281.9,-397.052"/>
<polygon fill="midnightblue" stroke="midnightblue" points="611.521,-414.114 601.633,-417.919 611.736,-421.111 611.521,-414.114"/>
</g>
<!-- Node26&#45;&gt;Node27 -->
<g id="edge70" class="edge"><title>Node26&#45;&gt;Node27</title>
<path fill="none" stroke="midnightblue" d="M785.634,-461.484C828.537,-438.382 908.399,-395.379 945.332,-375.492"/>
<polygon fill="midnightblue" stroke="midnightblue" points="783.713,-458.543 776.568,-466.365 787.032,-464.706 783.713,-458.543"/>
</g>
<!-- Node26&#45;&gt;Node29 -->
<g id="edge86" class="edge"><title>Node26&#45;&gt;Node29</title>
<path fill="none" stroke="midnightblue" d="M834.404,-468.999C928.958,-458.96 1093.66,-440.23 1234,-417.902 1256.47,-414.327 1281.19,-409.627 1302.18,-405.408"/>
<polygon fill="midnightblue" stroke="midnightblue" points="833.929,-465.53 824.353,-470.062 834.665,-472.491 833.929,-465.53"/>
</g>
<!-- Node31 -->
<g id="node70" class="node"><title>Node31</title>
<a xlink:href="classtetgenmesh.xhtml#a477bbfde72103de66546d4ea3343b4a1" target="_top" xlink:title="tetgenmesh::delaunayrefinement">
<polygon fill="none" stroke="black" points="1672,-351.402 1672,-372.402 1830,-372.402 1830,-351.402 1672,-351.402"/>
<text text-anchor="middle" x="1751" y="-359.402" font-family="Helvetica,sans-Serif" font-size="10.00">tetgenmesh::delaunayrefinement</text>
</a>
</g>
<!-- Node26&#45;&gt;Node31 -->
<g id="edge88" class="edge"><title>Node26&#45;&gt;Node31</title>
<path fill="none" stroke="midnightblue" d="M834.266,-477.829C914.455,-478.71 1043.51,-479.902 1155,-479.902 1155,-479.902 1155,-479.902 1352,-479.902 1481.58,-479.902 1517.83,-463.292 1634,-405.902 1652.17,-396.925 1651.56,-386.316 1670,-377.902 1674.56,-375.82 1679.39,-374.008 1684.33,-372.431"/>
<polygon fill="midnightblue" stroke="midnightblue" points="834.289,-474.329 824.25,-477.718 834.211,-481.329 834.289,-474.329"/>
</g>
<!-- Node28 -->
<g id="node64" class="node"><title>Node28</title>
<a xlink:href="classtetgenmesh.xhtml#a701d4f317ed66df6a2e2b7b237e2386a" target="_top" xlink:title="tetgenmesh::repairencfacs">
<polygon fill="none" stroke="black" points="1089,-316.402 1089,-337.402 1221,-337.402 1221,-316.402 1089,-316.402"/>
<text text-anchor="middle" x="1155" y="-324.402" font-family="Helvetica,sans-Serif" font-size="10.00">tetgenmesh::repairencfacs</text>
</a>
</g>
<!-- Node27&#45;&gt;Node28 -->
<g id="edge72" class="edge"><title>Node27&#45;&gt;Node28</title>
<path fill="none" stroke="midnightblue" d="M1027.79,-352.344C1051.9,-347.522 1079.15,-342.072 1102.22,-337.457"/>
<polygon fill="midnightblue" stroke="midnightblue" points="1026.79,-348.974 1017.67,-354.367 1028.17,-355.838 1026.79,-348.974"/>
</g>
<!-- Node27&#45;&gt;Node29 -->
<g id="edge84" class="edge"><title>Node27&#45;&gt;Node29</title>
<path fill="none" stroke="midnightblue" d="M1038.1,-370.569C1108.04,-375.99 1212.81,-384.112 1281.78,-389.459"/>
<polygon fill="midnightblue" stroke="midnightblue" points="1038.28,-367.072 1028.04,-369.789 1037.74,-374.051 1038.28,-367.072"/>
</g>
<!-- Node28&#45;&gt;Node29 -->
<g id="edge74" class="edge"><title>Node28&#45;&gt;Node29</title>
<path fill="none" stroke="midnightblue" d="M1199.09,-340.485C1210.49,-344.099 1222.73,-348.067 1234,-351.902 1264.96,-362.437 1300.15,-375.389 1323.99,-384.309"/>
<polygon fill="midnightblue" stroke="midnightblue" points="1199.91,-337.076 1189.32,-337.412 1197.81,-343.753 1199.91,-337.076"/>
</g>
<!-- Node28&#45;&gt;Node31 -->
<g id="edge82" class="edge"><title>Node28&#45;&gt;Node31</title>
<path fill="none" stroke="midnightblue" d="M1231.05,-331.368C1344.44,-338.027 1556.77,-350.496 1671.9,-357.257"/>
<polygon fill="midnightblue" stroke="midnightblue" points="1231.25,-327.874 1221.06,-330.781 1230.84,-334.862 1231.25,-327.874"/>
</g>
<!-- Node30 -->
<g id="node68" class="node"><title>Node30</title>
<a xlink:href="classtetgenmesh.xhtml#a7c46c82d83099214115fa9719aefbd78" target="_top" xlink:title="tetgenmesh::repairbadtets">
<polygon fill="none" stroke="black" points="1487,-375.402 1487,-396.402 1617,-396.402 1617,-375.402 1487,-375.402"/>
<text text-anchor="middle" x="1552" y="-383.402" font-family="Helvetica,sans-Serif" font-size="10.00">tetgenmesh::repairbadtets</text>
</a>
</g>
<!-- Node29&#45;&gt;Node30 -->
<g id="edge76" class="edge"><title>Node29&#45;&gt;Node30</title>
<path fill="none" stroke="midnightblue" d="M1432.22,-391.292C1450.41,-390.474 1469.5,-389.615 1486.96,-388.829"/>
<polygon fill="midnightblue" stroke="midnightblue" points="1432.06,-387.796 1422.23,-391.742 1432.38,-394.788 1432.06,-387.796"/>
</g>
<!-- Node30&#45;&gt;Node31 -->
<g id="edge78" class="edge"><title>Node30&#45;&gt;Node31</title>
<path fill="none" stroke="midnightblue" d="M1627.13,-376.841C1641.73,-375.08 1657.08,-373.229 1671.8,-371.453"/>
<polygon fill="midnightblue" stroke="midnightblue" points="1626.67,-373.371 1617.16,-378.044 1627.51,-380.321 1626.67,-373.371"/>
</g>
<!-- Node31&#45;&gt;Node4 -->
<g id="edge80" class="edge"><title>Node31&#45;&gt;Node4</title>
<path fill="none" stroke="midnightblue" d="M1765.19,-343.04C1796.98,-300.789 1873.07,-199.669 1897.97,-166.581"/>
<polygon fill="midnightblue" stroke="midnightblue" points="1762.33,-341.022 1759.12,-351.117 1767.92,-345.23 1762.33,-341.022"/>
</g>
<!-- Node33 -->
<g id="node83" class="node"><title>Node33</title>
<a xlink:href="classtetgenmesh.xhtml#ad5c46c2f6c9adeed23fc8c64b682778d" target="_top" xlink:title="tetgenmesh::removeslivers">
<polygon fill="none" stroke="black" points="898,-82.4021 898,-103.402 1032,-103.402 1032,-82.4021 898,-82.4021"/>
<text text-anchor="middle" x="965" y="-90.4021" font-family="Helvetica,sans-Serif" font-size="10.00">tetgenmesh::removeslivers</text>
</a>
</g>
<!-- Node32&#45;&gt;Node33 -->
<g id="edge100" class="edge"><title>Node32&#45;&gt;Node33</title>
<path fill="none" stroke="midnightblue" d="M605.204,-92.9021C685.433,-92.9021 817.783,-92.9021 897.643,-92.9021"/>
<polygon fill="midnightblue" stroke="midnightblue" points="604.722,-89.4022 594.722,-92.9021 604.722,-96.4022 604.722,-89.4022"/>
</g>
<!-- Node34 -->
<g id="node85" class="node"><title>Node34</title>
<a xlink:href="classtetgenmesh.xhtml#a8bb5c6ad8ccfa57f2a84e5a78295b263" target="_top" xlink:title="tetgenmesh::optimizemesh">
<polygon fill="none" stroke="black" points="1285,-82.4021 1285,-103.402 1419,-103.402 1419,-82.4021 1285,-82.4021"/>
<text text-anchor="middle" x="1352" y="-90.4021" font-family="Helvetica,sans-Serif" font-size="10.00">tetgenmesh::optimizemesh</text>
</a>
</g>
<!-- Node33&#45;&gt;Node34 -->
<g id="edge102" class="edge"><title>Node33&#45;&gt;Node34</title>
<path fill="none" stroke="midnightblue" d="M1042.62,-92.9021C1113.52,-92.9021 1217.26,-92.9021 1284.71,-92.9021"/>
<polygon fill="midnightblue" stroke="midnightblue" points="1042.41,-89.4022 1032.41,-92.9021 1042.41,-96.4022 1042.41,-89.4022"/>
</g>
<!-- Node34&#45;&gt;Node4 -->
<g id="edge104" class="edge"><title>Node34&#45;&gt;Node4</title>
<path fill="none" stroke="midnightblue" d="M1429.61,-87.0836C1525.83,-82.0968 1694.01,-80.7185 1832,-117.902 1853.47,-123.689 1875.89,-136.265 1890.35,-145.368"/>
<polygon fill="midnightblue" stroke="midnightblue" points="1429.17,-83.6019 1419.38,-87.6414 1429.55,-90.5915 1429.17,-83.6019"/>
</g>
<!-- Node35&#45;&gt;Node4 -->
<g id="edge110" class="edge"><title>Node35&#45;&gt;Node4</title>
<path fill="none" stroke="midnightblue" d="M423.611,-15.9021C504.248,-15.9021 640.132,-15.9021 757,-15.9021 757,-15.9021 757,-15.9021 1552,-15.9021 1676.73,-15.9021 1725.33,29.7427 1832,-34.9021 1874.33,-60.5537 1895.81,-120.517 1903.08,-145.099"/>
<polygon fill="midnightblue" stroke="midnightblue" points="423.573,-12.4022 413.573,-15.9021 423.573,-19.4022 423.573,-12.4022"/>
</g>
<!-- Node36&#45;&gt;Node2 -->
<g id="edge114" class="edge"><title>Node36&#45;&gt;Node2</title>
<path fill="none" stroke="midnightblue" d="M213.95,-186.624C246.764,-219.02 315.501,-286.88 342.133,-313.174"/>
<polygon fill="midnightblue" stroke="midnightblue" points="216.366,-184.091 206.791,-179.556 211.449,-189.072 216.366,-184.091"/>
</g>
<!-- Node36&#45;&gt;Node23 -->
<g id="edge120" class="edge"><title>Node36&#45;&gt;Node23</title>
<path fill="none" stroke="midnightblue" d="M265.811,-168.902C319.016,-168.902 392.605,-168.902 449.702,-168.902"/>
<polygon fill="midnightblue" stroke="midnightblue" points="265.788,-165.402 255.788,-168.902 265.788,-172.402 265.788,-165.402"/>
</g>
<!-- Node37 -->
<g id="node95" class="node"><title>Node37</title>
<a xlink:href="classtetgenmesh.xhtml#a78dbc1dcd69c15ee0f7f226be1078008" target="_top" xlink:title="tetgenmesh::interpolatemeshsize">
<polygon fill="none" stroke="black" points="1670.5,-44.4021 1670.5,-65.4021 1831.5,-65.4021 1831.5,-44.4021 1670.5,-44.4021"/>
<text text-anchor="middle" x="1751" y="-52.4021" font-family="Helvetica,sans-Serif" font-size="10.00">tetgenmesh::interpolatemeshsize</text>
</a>
</g>
<!-- Node36&#45;&gt;Node37 -->
<g id="edge116" class="edge"><title>Node36&#45;&gt;Node37</title>
<path fill="none" stroke="midnightblue" d="M226.695,-153.84C273.55,-131.653 366.307,-90.8792 450,-72.9021 583.657,-44.1927 620.294,-53.9021 757,-53.9021 757,-53.9021 757,-53.9021 1352,-53.9021 1462.31,-53.9021 1589.78,-54.289 1670.38,-54.5815"/>
<polygon fill="midnightblue" stroke="midnightblue" points="224.925,-150.806 217.413,-158.277 227.944,-157.121 224.925,-150.806"/>
</g>
<!-- Node37&#45;&gt;Node4 -->
<g id="edge118" class="edge"><title>Node37&#45;&gt;Node4</title>
<path fill="none" stroke="midnightblue" d="M1808.86,-68.8349C1816.92,-71.8846 1824.87,-75.541 1832,-79.9021 1860.75,-97.4898 1886.21,-128.769 1898.39,-145.177"/>
<polygon fill="midnightblue" stroke="midnightblue" points="1809.99,-65.5219 1799.4,-65.5275 1807.68,-72.1301 1809.99,-65.5219"/>
</g>
</g>
</svg>
