<?xml version="1.0" encoding="UTF-8" standalone="no"?>
<!DOCTYPE svg PUBLIC "-//W3C//DTD SVG 1.1//EN"
 "http://www.w3.org/Graphics/SVG/1.1/DTD/svg11.dtd">
<!-- Generated by graphviz version 2.26.3 (20100126.1600)
 -->
<!-- Title: tetgenmesh::makefacetverticesmap Pages: 1 -->
<!--zoomable 626 -->
<svg id="main" version="1.1" xmlns="http://www.w3.org/2000/svg" xmlns:xlink="http://www.w3.org/1999/xlink" xml:space="preserve" onload="init(evt)">
<style type="text/css"><![CDATA[
.edge:hover path { stroke: red; }
.edge:hover polygon { stroke: red; fill: red; }
]]></style>
<script type="text/javascript"><![CDATA[
var edges = document.getElementsByTagName('g');
if (edges && edges.length) {
  for (var i=0;i<edges.length;i++) {
    if (edges[i].id.substr(0,4)=='edge') {
      edges[i].setAttribute('class','edge');
    }
  }
}
]]></script>
        <defs>
                <circle id="rim" cx="0" cy="0" r="7"/>
                <circle id="rim2" cx="0" cy="0" r="3.5"/>
                <g id="zoomPlus">
                        <use xlink:href="#rim" fill="#404040">
                                <set attributeName="fill" to="#808080" begin="zoomplus.mouseover" end="zoomplus.mouseout"/>
                        </use>
                        <path d="M-4,0h8M0,-4v8" fill="none" stroke="white" stroke-width="1.5" pointer-events="none"/>
                </g>
                <g id="zoomMin">
                        <use xlink:href="#rim" fill="#404040">
                                <set attributeName="fill" to="#808080" begin="zoomminus.mouseover" end="zoomminus.mouseout"/>
                        </use>
                        <path d="M-4,0h8" fill="none" stroke="white" stroke-width="1.5" pointer-events="none"/>
                </g>
                <g id="dirArrow">
                        <path fill="none" stroke="white" stroke-width="1.5" d="M0,-3.0v7 M-2.5,-0.5L0,-3.0L2.5,-0.5"/>
                </g>
               <g id="resetDef">
                       <use xlink:href="#rim2" fill="#404040">
                               <set attributeName="fill" to="#808080" begin="reset.mouseover" end="reset.mouseout"/>
                       </use>
               </g>
        </defs>

<script type="text/javascript">
var viewWidth = 530;
var viewHeight = 626;
var sectionId = 'dynsection-213';
</script>
<script xlink:href="svgpan.js"/>
<svg id="graph" class="graph">
<g id="viewport">
<title>tetgenmesh::makefacetverticesmap</title>
<!-- Node1 -->
<g id="node1" class="node"><title>Node1</title>
<polygon fill="#bfbfbf" stroke="black" points="0.5,-292.5 0.5,-313.5 173.5,-313.5 173.5,-292.5 0.5,-292.5"/>
<text text-anchor="middle" x="87" y="-300.5" font-family="Helvetica,sans-Serif" font-size="10.00">tetgenmesh::makefacetverticesmap</text>
</g>
<!-- Node2 -->
<g id="node3" class="node"><title>Node2</title>
<a xlink:href="classtetgenmesh_1_1memorypool.xhtml#a623b101e4e2f249d8b7e5dba65c3f7e2" target="_top" xlink:title="tetgenmesh::memorypool\l::traversalinit">
<polygon fill="none" stroke="black" points="220.5,-584 220.5,-618 347.5,-618 347.5,-584 220.5,-584"/>
<text text-anchor="start" x="228.5" y="-605" font-family="Helvetica,sans-Serif" font-size="10.00">tetgenmesh::memorypool</text>
<text text-anchor="middle" x="284" y="-592" font-family="Helvetica,sans-Serif" font-size="10.00">::traversalinit</text>
</a>
</g>
<!-- Node1&#45;&gt;Node2 -->
<g id="edge2" class="edge"><title>Node1&#45;&gt;Node2</title>
<path fill="none" stroke="midnightblue" d="M88.7225,-313.597C95.8016,-353.773 126.337,-498.302 210,-575 211.277,-576.17 212.609,-577.289 213.989,-578.357"/>
<polygon fill="midnightblue" stroke="midnightblue" points="212.087,-581.296 222.344,-583.947 215.979,-575.478 212.087,-581.296"/>
</g>
<!-- Node3 -->
<g id="node5" class="node"><title>Node3</title>
<a xlink:href="classtetgenmesh.xhtml#ae50ecae1d69935b12a4fa7ca843011d7" target="_top" xlink:title="tetgenmesh::shellfacetraverse">
<polygon fill="none" stroke="black" points="210,-544.5 210,-565.5 358,-565.5 358,-544.5 210,-544.5"/>
<text text-anchor="middle" x="284" y="-552.5" font-family="Helvetica,sans-Serif" font-size="10.00">tetgenmesh::shellfacetraverse</text>
</a>
</g>
<!-- Node1&#45;&gt;Node3 -->
<g id="edge4" class="edge"><title>Node1&#45;&gt;Node3</title>
<path fill="none" stroke="midnightblue" d="M89.4336,-313.723C98.3843,-350.639 133.039,-473.571 210,-535 212.093,-536.671 214.315,-538.202 216.631,-539.607"/>
<polygon fill="midnightblue" stroke="midnightblue" points="215.475,-542.948 225.968,-544.415 218.68,-536.725 215.475,-542.948"/>
</g>
<!-- Node5 -->
<g id="node9" class="node"><title>Node5</title>
<a xlink:href="classtetgenmesh.xhtml#a5ffe02962a36a2c20231991c2c1a1996" target="_top" xlink:title="tetgenmesh::sinfected">
<polygon fill="none" stroke="black" points="227.5,-504.5 227.5,-525.5 340.5,-525.5 340.5,-504.5 227.5,-504.5"/>
<text text-anchor="middle" x="284" y="-512.5" font-family="Helvetica,sans-Serif" font-size="10.00">tetgenmesh::sinfected</text>
</a>
</g>
<!-- Node1&#45;&gt;Node5 -->
<g id="edge8" class="edge"><title>Node1&#45;&gt;Node5</title>
<path fill="none" stroke="midnightblue" d="M90.6528,-313.669C102.38,-346.274 142.311,-445.387 210,-495 212.548,-496.867 215.259,-498.56 218.082,-500.095"/>
<polygon fill="midnightblue" stroke="midnightblue" points="216.873,-503.394 227.412,-504.479 219.85,-497.059 216.873,-503.394"/>
</g>
<!-- Node6 -->
<g id="node11" class="node"><title>Node6</title>
<a xlink:href="classtetgenmesh.xhtml#a87204594ee11bb38e68e0381e6e04b6c" target="_top" xlink:title="tetgenmesh::pointtype">
<polygon fill="none" stroke="black" points="227.5,-464.5 227.5,-485.5 340.5,-485.5 340.5,-464.5 227.5,-464.5"/>
<text text-anchor="middle" x="284" y="-472.5" font-family="Helvetica,sans-Serif" font-size="10.00">tetgenmesh::pointtype</text>
</a>
</g>
<!-- Node1&#45;&gt;Node6 -->
<g id="edge10" class="edge"><title>Node1&#45;&gt;Node6</title>
<path fill="none" stroke="midnightblue" d="M92.5371,-313.763C107.464,-341.67 151.4,-416.84 210,-455 213.14,-457.045 216.484,-458.882 219.95,-460.532"/>
<polygon fill="midnightblue" stroke="midnightblue" points="218.776,-463.835 229.352,-464.477 221.485,-457.38 218.776,-463.835"/>
</g>
<!-- Node7 -->
<g id="node13" class="node"><title>Node7</title>
<a xlink:href="classtetgenmesh.xhtml#a3da09b1723336c0d9e82677f8f30c965" target="_top" xlink:title="tetgenmesh::pinfect">
<polygon fill="none" stroke="black" points="232.5,-424.5 232.5,-445.5 335.5,-445.5 335.5,-424.5 232.5,-424.5"/>
<text text-anchor="middle" x="284" y="-432.5" font-family="Helvetica,sans-Serif" font-size="10.00">tetgenmesh::pinfect</text>
</a>
</g>
<!-- Node1&#45;&gt;Node7 -->
<g id="edge12" class="edge"><title>Node1&#45;&gt;Node7</title>
<path fill="none" stroke="midnightblue" d="M95.6378,-313.748C114.164,-336.073 160.106,-387.659 210,-415 213.981,-417.181 218.215,-419.137 222.563,-420.887"/>
<polygon fill="midnightblue" stroke="midnightblue" points="221.619,-424.268 232.213,-424.401 224.014,-417.69 221.619,-424.268"/>
</g>
<!-- Node8 -->
<g id="node15" class="node"><title>Node8</title>
<a xlink:href="classtetgenmesh_1_1arraypool.xhtml#afb546c70f7728e3e0d58e2aada464437" target="_top" xlink:title="tetgenmesh::arraypool\l::newindex">
<polygon fill="none" stroke="black" points="227.5,-372 227.5,-406 340.5,-406 340.5,-372 227.5,-372"/>
<text text-anchor="start" x="235.5" y="-393" font-family="Helvetica,sans-Serif" font-size="10.00">tetgenmesh::arraypool</text>
<text text-anchor="middle" x="284" y="-380" font-family="Helvetica,sans-Serif" font-size="10.00">::newindex</text>
</a>
</g>
<!-- Node1&#45;&gt;Node8 -->
<g id="edge14" class="edge"><title>Node1&#45;&gt;Node8</title>
<path fill="none" stroke="midnightblue" d="M107.125,-313.714C131.215,-326.328 172.952,-347.517 210,-363 214.327,-364.808 218.829,-366.6 223.38,-368.348"/>
<polygon fill="midnightblue" stroke="midnightblue" points="222.16,-371.629 232.752,-371.864 224.619,-365.075 222.16,-371.629"/>
</g>
<!-- Node9 -->
<g id="node17" class="node"><title>Node9</title>
<a xlink:href="classtetgenmesh.xhtml#aa417a432076c7de138fed761c5322f4f" target="_top" xlink:title="tetgenmesh::sinfect">
<polygon fill="none" stroke="black" points="232.5,-332.5 232.5,-353.5 335.5,-353.5 335.5,-332.5 232.5,-332.5"/>
<text text-anchor="middle" x="284" y="-340.5" font-family="Helvetica,sans-Serif" font-size="10.00">tetgenmesh::sinfect</text>
</a>
</g>
<!-- Node1&#45;&gt;Node9 -->
<g id="edge16" class="edge"><title>Node1&#45;&gt;Node9</title>
<path fill="none" stroke="midnightblue" d="M138.759,-313.51C164.334,-318.702 195.381,-325.006 222.195,-330.451"/>
<polygon fill="midnightblue" stroke="midnightblue" points="221.748,-333.931 232.245,-332.491 223.141,-327.071 221.748,-333.931"/>
</g>
<!-- Node10 -->
<g id="node19" class="node"><title>Node10</title>
<a xlink:href="classtetgenmesh.xhtml#ada5d50fbd8ccc1c82389b0b3450ce98e" target="_top" xlink:title="tetgenmesh::setfacetindex">
<polygon fill="none" stroke="black" points="218,-292.5 218,-313.5 350,-313.5 350,-292.5 218,-292.5"/>
<text text-anchor="middle" x="284" y="-300.5" font-family="Helvetica,sans-Serif" font-size="10.00">tetgenmesh::setfacetindex</text>
</a>
</g>
<!-- Node1&#45;&gt;Node10 -->
<g id="edge18" class="edge"><title>Node1&#45;&gt;Node10</title>
<path fill="none" stroke="midnightblue" d="M173.694,-303C185.075,-303 196.669,-303 207.857,-303"/>
<polygon fill="midnightblue" stroke="midnightblue" points="208,-306.5 217.999,-303 207.999,-299.5 208,-306.5"/>
</g>
<!-- Node11 -->
<g id="node21" class="node"><title>Node11</title>
<a xlink:href="classtetgenmesh.xhtml#a5066bdb73c8fc7d21ea6c9bc2974e059" target="_top" xlink:title="tetgenmesh::spivot">
<polygon fill="none" stroke="black" points="234,-252.5 234,-273.5 334,-273.5 334,-252.5 234,-252.5"/>
<text text-anchor="middle" x="284" y="-260.5" font-family="Helvetica,sans-Serif" font-size="10.00">tetgenmesh::spivot</text>
</a>
</g>
<!-- Node1&#45;&gt;Node11 -->
<g id="edge20" class="edge"><title>Node1&#45;&gt;Node11</title>
<path fill="none" stroke="midnightblue" d="M138.759,-292.49C164.954,-287.172 196.891,-280.687 224.139,-275.155"/>
<polygon fill="midnightblue" stroke="midnightblue" points="224.843,-278.583 233.946,-273.163 223.45,-271.723 224.843,-278.583"/>
</g>
<!-- Node13 -->
<g id="node25" class="node"><title>Node13</title>
<a xlink:href="classtetgenmesh.xhtml#a273687e8175a97ef3d97e4d3a5d03d3c" target="_top" xlink:title="tetgenmesh::sapex">
<polygon fill="none" stroke="black" points="234,-212.5 234,-233.5 334,-233.5 334,-212.5 234,-212.5"/>
<text text-anchor="middle" x="284" y="-220.5" font-family="Helvetica,sans-Serif" font-size="10.00">tetgenmesh::sapex</text>
</a>
</g>
<!-- Node1&#45;&gt;Node13 -->
<g id="edge24" class="edge"><title>Node1&#45;&gt;Node13</title>
<path fill="none" stroke="midnightblue" d="M105.679,-292.496C129.366,-279.505 171.738,-257.354 210,-243 216.279,-240.645 222.953,-238.441 229.623,-236.422"/>
<polygon fill="midnightblue" stroke="midnightblue" points="230.72,-239.748 239.348,-233.598 228.768,-233.026 230.72,-239.748"/>
</g>
<!-- Node14 -->
<g id="node27" class="node"><title>Node14</title>
<a xlink:href="classtetgenmesh.xhtml#acc0db186d69dcdf785b49d6e709fed7b" target="_top" xlink:title="tetgenmesh::pinfected">
<polygon fill="none" stroke="black" points="227.5,-172.5 227.5,-193.5 340.5,-193.5 340.5,-172.5 227.5,-172.5"/>
<text text-anchor="middle" x="284" y="-180.5" font-family="Helvetica,sans-Serif" font-size="10.00">tetgenmesh::pinfected</text>
</a>
</g>
<!-- Node1&#45;&gt;Node14 -->
<g id="edge26" class="edge"><title>Node1&#45;&gt;Node14</title>
<path fill="none" stroke="midnightblue" d="M97.0915,-292.211C116.821,-271.754 162.723,-227.211 210,-203 214.475,-200.708 219.241,-198.657 224.115,-196.826"/>
<polygon fill="midnightblue" stroke="midnightblue" points="225.256,-200.135 233.572,-193.569 222.977,-193.516 225.256,-200.135"/>
</g>
<!-- Node15 -->
<g id="node29" class="node"><title>Node15</title>
<a xlink:href="classtetgenmesh.xhtml#aec1136555f9371102995738aabe1e552" target="_top" xlink:title="tetgenmesh::senextself">
<polygon fill="none" stroke="black" points="224.5,-132.5 224.5,-153.5 343.5,-153.5 343.5,-132.5 224.5,-132.5"/>
<text text-anchor="middle" x="284" y="-140.5" font-family="Helvetica,sans-Serif" font-size="10.00">tetgenmesh::senextself</text>
</a>
</g>
<!-- Node1&#45;&gt;Node15 -->
<g id="edge28" class="edge"><title>Node1&#45;&gt;Node15</title>
<path fill="none" stroke="midnightblue" d="M93.2282,-292.336C109.133,-266.075 153.973,-197.889 210,-163 213.336,-160.923 216.887,-159.058 220.559,-157.386"/>
<polygon fill="midnightblue" stroke="midnightblue" points="221.928,-160.608 229.883,-153.61 219.301,-154.119 221.928,-160.608"/>
</g>
<!-- Node16 -->
<g id="node31" class="node"><title>Node16</title>
<a xlink:href="classtetgenmesh.xhtml#a6220e341248cd83ab6ee1c0d71e4d160" target="_top" xlink:title="tetgenmesh::puninfect">
<polygon fill="none" stroke="black" points="227.5,-92.5 227.5,-113.5 340.5,-113.5 340.5,-92.5 227.5,-92.5"/>
<text text-anchor="middle" x="284" y="-100.5" font-family="Helvetica,sans-Serif" font-size="10.00">tetgenmesh::puninfect</text>
</a>
</g>
<!-- Node1&#45;&gt;Node16 -->
<g id="edge30" class="edge"><title>Node1&#45;&gt;Node16</title>
<path fill="none" stroke="midnightblue" d="M91.2104,-292.112C103.945,-260.667 145.202,-169.031 210,-123 212.712,-121.073 215.601,-119.332 218.605,-117.759"/>
<polygon fill="midnightblue" stroke="midnightblue" points="220.254,-120.853 227.904,-113.523 217.352,-114.483 220.254,-120.853"/>
</g>
<!-- Node17 -->
<g id="node33" class="node"><title>Node17</title>
<a xlink:href="classtetgenmesh_1_1arraypool.xhtml#a19030126ef81a9ff3c4aca35f0347cdc" target="_top" xlink:title="tetgenmesh::arraypool\l::restart">
<polygon fill="none" stroke="black" points="227.5,-40 227.5,-74 340.5,-74 340.5,-40 227.5,-40"/>
<text text-anchor="start" x="235.5" y="-61" font-family="Helvetica,sans-Serif" font-size="10.00">tetgenmesh::arraypool</text>
<text text-anchor="middle" x="284" y="-48" font-family="Helvetica,sans-Serif" font-size="10.00">::restart</text>
</a>
</g>
<!-- Node1&#45;&gt;Node17 -->
<g id="edge32" class="edge"><title>Node1&#45;&gt;Node17</title>
<path fill="none" stroke="midnightblue" d="M90.0596,-292.046C100.536,-256.516 138.344,-143.287 210,-83 212.686,-80.7399 215.582,-78.6713 218.618,-76.7786"/>
<polygon fill="midnightblue" stroke="midnightblue" points="220.414,-79.7854 227.487,-71.8972 217.038,-73.653 220.414,-79.7854"/>
</g>
<!-- Node18 -->
<g id="node35" class="node"><title>Node18</title>
<a xlink:href="classtetgenmesh.xhtml#a511f009f29bef3d614063e9c174bc677" target="_top" xlink:title="tetgenmesh::suninfect">
<polygon fill="none" stroke="black" points="227.5,-0.5 227.5,-21.5 340.5,-21.5 340.5,-0.5 227.5,-0.5"/>
<text text-anchor="middle" x="284" y="-8.5" font-family="Helvetica,sans-Serif" font-size="10.00">tetgenmesh::suninfect</text>
</a>
</g>
<!-- Node1&#45;&gt;Node18 -->
<g id="edge34" class="edge"><title>Node1&#45;&gt;Node18</title>
<path fill="none" stroke="midnightblue" d="M88.5046,-292.485C94.8688,-251.989 123.363,-104.722 210,-31 212.534,-28.8439 215.279,-26.9181 218.169,-25.1983"/>
<polygon fill="midnightblue" stroke="midnightblue" points="219.862,-28.2644 227.21,-20.6324 216.706,-22.016 219.862,-28.2644"/>
</g>
<!-- Node4 -->
<g id="node7" class="node"><title>Node4</title>
<a xlink:href="classtetgenmesh_1_1memorypool.xhtml#a151fe73459d0fa9a7262d0030fecf291" target="_top" xlink:title="tetgenmesh::memorypool\l::traverse">
<polygon fill="none" stroke="black" points="394.5,-538 394.5,-572 521.5,-572 521.5,-538 394.5,-538"/>
<text text-anchor="start" x="402.5" y="-559" font-family="Helvetica,sans-Serif" font-size="10.00">tetgenmesh::memorypool</text>
<text text-anchor="middle" x="458" y="-546" font-family="Helvetica,sans-Serif" font-size="10.00">::traverse</text>
</a>
</g>
<!-- Node3&#45;&gt;Node4 -->
<g id="edge6" class="edge"><title>Node3&#45;&gt;Node4</title>
<path fill="none" stroke="midnightblue" d="M358.044,-555C366.753,-555 375.639,-555 384.343,-555"/>
<polygon fill="midnightblue" stroke="midnightblue" points="384.455,-558.5 394.455,-555 384.455,-551.5 384.455,-558.5"/>
</g>
<!-- Node12 -->
<g id="node23" class="node"><title>Node12</title>
<a xlink:href="classtetgenmesh.xhtml#ac5a50a5f6e277b5b95d58e40f3d58c2f" target="_top" xlink:title="tetgenmesh::sdecode">
<polygon fill="none" stroke="black" points="403,-252.5 403,-273.5 513,-273.5 513,-252.5 403,-252.5"/>
<text text-anchor="middle" x="458" y="-260.5" font-family="Helvetica,sans-Serif" font-size="10.00">tetgenmesh::sdecode</text>
</a>
</g>
<!-- Node11&#45;&gt;Node12 -->
<g id="edge22" class="edge"><title>Node11&#45;&gt;Node12</title>
<path fill="none" stroke="midnightblue" d="M334.328,-263C352.535,-263 373.364,-263 392.673,-263"/>
<polygon fill="midnightblue" stroke="midnightblue" points="392.912,-266.5 402.912,-263 392.912,-259.5 392.912,-266.5"/>
</g>
</g>
</svg>
        <g id="navigator" transform="translate(0 0)" fill="#404254">
                <rect fill="#f2f5e9" fill-opacity="0.5" stroke="#606060" stroke-width=".5" x="0" y="0" width="60" height="60"/>
                <use id="zoomplus" xlink:href="#zoomPlus" x="17" y="9" onmousedown="handleZoom(evt,'in')"/>
                <use id="zoomminus" xlink:href="#zoomMin" x="42" y="9" onmousedown="handleZoom(evt,'out')"/>
                <use id="reset" xlink:href="#resetDef" x="30" y="36" onmousedown="handleReset()"/>
                <g id="arrowUp" xlink:href="#dirArrow" transform="translate(30 24)" onmousedown="handlePan(0,-1)">
                  <use xlink:href="#rim" fill="#404040">
                        <set attributeName="fill" to="#808080" begin="arrowUp.mouseover" end="arrowUp.mouseout"/>
                  </use>
                  <path fill="none" stroke="white" stroke-width="1.5" d="M0,-3.0v7 M-2.5,-0.5L0,-3.0L2.5,-0.5"/>
                </g>
                <g id="arrowRight" xlink:href="#dirArrow" transform="rotate(90) translate(36 -43)" onmousedown="handlePan(1,0)">
                  <use xlink:href="#rim" fill="#404040">
                        <set attributeName="fill" to="#808080" begin="arrowRight.mouseover" end="arrowRight.mouseout"/>
                  </use>
                  <path fill="none" stroke="white" stroke-width="1.5" d="M0,-3.0v7 M-2.5,-0.5L0,-3.0L2.5,-0.5"/>
                </g>
                <g id="arrowDown" xlink:href="#dirArrow" transform="rotate(180) translate(-30 -48)" onmousedown="handlePan(0,1)">
                  <use xlink:href="#rim" fill="#404040">
                        <set attributeName="fill" to="#808080" begin="arrowDown.mouseover" end="arrowDown.mouseout"/>
                  </use>
                  <path fill="none" stroke="white" stroke-width="1.5" d="M0,-3.0v7 M-2.5,-0.5L0,-3.0L2.5,-0.5"/>
                </g>
                <g id="arrowLeft" xlink:href="#dirArrow" transform="rotate(270) translate(-36 17)" onmousedown="handlePan(-1,0)">
                  <use xlink:href="#rim" fill="#404040">
                        <set attributeName="fill" to="#808080" begin="arrowLeft.mouseover" end="arrowLeft.mouseout"/>
                  </use>
                  <path fill="none" stroke="white" stroke-width="1.5" d="M0,-3.0v7 M-2.5,-0.5L0,-3.0L2.5,-0.5"/>
                </g>
        </g>
        <svg viewBox="0 0 15 15" width="100%" height="30px" preserveAspectRatio="xMaxYMin meet">
         <g id="arrow_out" transform="scale(0.3 0.3)">
          <a xlink:href="classtetgenmesh_afa650c7021f3c73cf786d3f7fa687ed7_cgraph_org.svg" target="_base">
           <rect id="button" ry="5" rx="5" y="6" x="6" height="38" width="38"
                fill="#f2f5e9" fill-opacity="0.5" stroke="#606060" stroke-width="1.0"/>
           <path id="arrow"
             d="M 11.500037,31.436501 C 11.940474,20.09759 22.043105,11.32322 32.158766,21.979434 L 37.068811,17.246167 C 37.068811,17.246167 37.088388,32 37.088388,32 L 22.160133,31.978069 C 22.160133,31.978069 26.997745,27.140456 26.997745,27.140456 C 18.528582,18.264221 13.291696,25.230495 11.500037,31.436501 z"
             style="fill:#404040;"/>
          </a>
         </g>
        </svg>
</svg>
