<?xml version="1.0" encoding="UTF-8" standalone="no"?>
<!DOCTYPE svg PUBLIC "-//W3C//DTD SVG 1.1//EN"
 "http://www.w3.org/Graphics/SVG/1.1/DTD/svg11.dtd">
<!-- Generated by graphviz version 2.26.3 (20100126.1600)
 -->
<!-- Title: tetgenmesh::flip31 Pages: 1 -->
<!--zoomable 542 -->
<svg id="main" version="1.1" xmlns="http://www.w3.org/2000/svg" xmlns:xlink="http://www.w3.org/1999/xlink" xml:space="preserve" onload="init(evt)">
<style type="text/css"><![CDATA[
.edge:hover path { stroke: red; }
.edge:hover polygon { stroke: red; fill: red; }
]]></style>
<script type="text/javascript"><![CDATA[
var edges = document.getElementsByTagName('g');
if (edges && edges.length) {
  for (var i=0;i<edges.length;i++) {
    if (edges[i].id.substr(0,4)=='edge') {
      edges[i].setAttribute('class','edge');
    }
  }
}
]]></script>
        <defs>
                <circle id="rim" cx="0" cy="0" r="7"/>
                <circle id="rim2" cx="0" cy="0" r="3.5"/>
                <g id="zoomPlus">
                        <use xlink:href="#rim" fill="#404040">
                                <set attributeName="fill" to="#808080" begin="zoomplus.mouseover" end="zoomplus.mouseout"/>
                        </use>
                        <path d="M-4,0h8M0,-4v8" fill="none" stroke="white" stroke-width="1.5" pointer-events="none"/>
                </g>
                <g id="zoomMin">
                        <use xlink:href="#rim" fill="#404040">
                                <set attributeName="fill" to="#808080" begin="zoomminus.mouseover" end="zoomminus.mouseout"/>
                        </use>
                        <path d="M-4,0h8" fill="none" stroke="white" stroke-width="1.5" pointer-events="none"/>
                </g>
                <g id="dirArrow">
                        <path fill="none" stroke="white" stroke-width="1.5" d="M0,-3.0v7 M-2.5,-0.5L0,-3.0L2.5,-0.5"/>
                </g>
               <g id="resetDef">
                       <use xlink:href="#rim2" fill="#404040">
                               <set attributeName="fill" to="#808080" begin="reset.mouseover" end="reset.mouseout"/>
                       </use>
               </g>
        </defs>

<script type="text/javascript">
var viewWidth = 2488;
var viewHeight = 542;
var sectionId = 'dynsection-115';
</script>
<script xlink:href="svgpan.js"/>
<svg id="graph" class="graph">
<g id="viewport">
<title>tetgenmesh::flip31</title>
<!-- Node1 -->
<g id="node1" class="node"><title>Node1</title>
<polygon fill="#bfbfbf" stroke="black" points="0.5,-367.838 0.5,-388.838 97.5,-388.838 97.5,-367.838 0.5,-367.838"/>
<text text-anchor="middle" x="49" y="-375.838" font-family="Helvetica,sans-Serif" font-size="10.00">tetgenmesh::flip31</text>
</g>
<!-- Node2 -->
<g id="node3" class="node"><title>Node2</title>
<a xlink:href="classtetgenmesh.xhtml#a061a1d2f047d12726215eac51c7bb5a1" target="_top" xlink:title="tetgenmesh::flip41">
<polygon fill="none" stroke="black" points="154.5,-347.838 154.5,-368.838 251.5,-368.838 251.5,-347.838 154.5,-347.838"/>
<text text-anchor="middle" x="203" y="-355.838" font-family="Helvetica,sans-Serif" font-size="10.00">tetgenmesh::flip41</text>
</a>
</g>
<!-- Node1&#45;&gt;Node2 -->
<g id="edge2" class="edge"><title>Node1&#45;&gt;Node2</title>
<path fill="none" stroke="midnightblue" d="M107.67,-370.719C123.071,-368.719 139.512,-366.583 154.326,-364.659"/>
<polygon fill="midnightblue" stroke="midnightblue" points="107.192,-367.251 97.7266,-372.01 108.094,-374.193 107.192,-367.251"/>
</g>
<!-- Node27 -->
<g id="node68" class="node"><title>Node27</title>
<a xlink:href="classtetgenmesh.xhtml#a7fc2b1bb2e54a5e013edc3e23bd0523b" target="_top" xlink:title="tetgenmesh::sremovevertex">
<polygon fill="none" stroke="black" points="134,-387.838 134,-408.838 272,-408.838 272,-387.838 134,-387.838"/>
<text text-anchor="middle" x="203" y="-395.838" font-family="Helvetica,sans-Serif" font-size="10.00">tetgenmesh::sremovevertex</text>
</a>
</g>
<!-- Node1&#45;&gt;Node27 -->
<g id="edge82" class="edge"><title>Node1&#45;&gt;Node27</title>
<path fill="none" stroke="midnightblue" d="M107.874,-385.984C116.344,-387.084 125.123,-388.224 133.771,-389.347"/>
<polygon fill="midnightblue" stroke="midnightblue" points="108.094,-382.483 97.7266,-384.666 107.192,-389.425 108.094,-382.483"/>
</g>
<!-- Node3 -->
<g id="node5" class="node"><title>Node3</title>
<a xlink:href="classtetgenmesh.xhtml#ad3277eea82fb5eb134c5eaa6abf5c18d" target="_top" xlink:title="tetgenmesh::removevertexbyflips">
<polygon fill="none" stroke="black" points="308.5,-347.838 308.5,-368.838 469.5,-368.838 469.5,-347.838 308.5,-347.838"/>
<text text-anchor="middle" x="389" y="-355.838" font-family="Helvetica,sans-Serif" font-size="10.00">tetgenmesh::removevertexbyflips</text>
</a>
</g>
<!-- Node2&#45;&gt;Node3 -->
<g id="edge4" class="edge"><title>Node2&#45;&gt;Node3</title>
<path fill="none" stroke="midnightblue" d="M261.875,-358.338C276.669,-358.338 292.801,-358.338 308.453,-358.338"/>
<polygon fill="midnightblue" stroke="midnightblue" points="261.869,-354.838 251.869,-358.338 261.869,-361.838 261.869,-354.838"/>
</g>
<!-- Node4 -->
<g id="node7" class="node"><title>Node4</title>
<a xlink:href="classtetgenmesh.xhtml#aae5530d808e30771e717c94cb8586f0b" target="_top" xlink:title="tetgenmesh::suppressbdrysteinerpoint">
<polygon fill="none" stroke="black" points="506,-416.838 506,-437.838 688,-437.838 688,-416.838 506,-416.838"/>
<text text-anchor="middle" x="597" y="-424.838" font-family="Helvetica,sans-Serif" font-size="10.00">tetgenmesh::suppressbdrysteinerpoint</text>
</a>
</g>
<!-- Node3&#45;&gt;Node4 -->
<g id="edge6" class="edge"><title>Node3&#45;&gt;Node4</title>
<path fill="none" stroke="midnightblue" d="M424.609,-372.7C447.639,-381.746 478.367,-393.367 506,-402.338 522.051,-407.549 539.917,-412.614 555.539,-416.806"/>
<polygon fill="midnightblue" stroke="midnightblue" points="425.829,-369.419 415.242,-368.996 423.255,-375.928 425.829,-369.419"/>
</g>
<!-- Node5 -->
<g id="node9" class="node"><title>Node5</title>
<a xlink:href="classtetgenmesh.xhtml#affc448708b6df2b57048544d3efd6e3c" target="_top" xlink:title="tetgenmesh::suppresssteinerpoints">
<polygon fill="none" stroke="black" points="726.5,-512.838 726.5,-533.838 895.5,-533.838 895.5,-512.838 726.5,-512.838"/>
<text text-anchor="middle" x="811" y="-520.838" font-family="Helvetica,sans-Serif" font-size="10.00">tetgenmesh::suppresssteinerpoints</text>
</a>
</g>
<!-- Node3&#45;&gt;Node5 -->
<g id="edge24" class="edge"><title>Node3&#45;&gt;Node5</title>
<path fill="none" stroke="midnightblue" d="M479.925,-368.668C561.838,-378.709 671.83,-394.309 688,-407.338 721.867,-434.628 691.792,-469.109 724,-498.338 730.866,-504.569 739.189,-509.256 747.931,-512.78"/>
<polygon fill="midnightblue" stroke="midnightblue" points="480.181,-365.173 469.831,-367.441 479.336,-372.122 480.181,-365.173"/>
</g>
<!-- Node13 -->
<g id="node26" class="node"><title>Node13</title>
<a xlink:href="classtetgenmesh.xhtml#a1be7dce56688fbe7a97fc31f98b61c19" target="_top" xlink:title="tetgenmesh::recoverboundary">
<polygon fill="none" stroke="black" points="1144,-117.838 1144,-138.838 1290,-138.838 1290,-117.838 1144,-117.838"/>
<text text-anchor="middle" x="1217" y="-125.838" font-family="Helvetica,sans-Serif" font-size="10.00">tetgenmesh::recoverboundary</text>
</a>
</g>
<!-- Node3&#45;&gt;Node13 -->
<g id="edge26" class="edge"><title>Node3&#45;&gt;Node13</title>
<path fill="none" stroke="midnightblue" d="M414.253,-342.405C468.578,-308.952 601.559,-231.433 724,-194.338 868.628,-150.522 1045.9,-135.769 1143.6,-130.82"/>
<polygon fill="midnightblue" stroke="midnightblue" points="412.285,-339.507 405.632,-347.752 415.974,-345.456 412.285,-339.507"/>
</g>
<!-- Node14 -->
<g id="node29" class="node"><title>Node14</title>
<a xlink:href="classtetgenmesh.xhtml#a85e17b620820cbcb6cb47b565f822062" target="_top" xlink:title="tetgenmesh::meshcoarsening">
<polygon fill="none" stroke="black" points="1326.5,-50.8382 1326.5,-71.8382 1471.5,-71.8382 1471.5,-50.8382 1326.5,-50.8382"/>
<text text-anchor="middle" x="1399" y="-58.8382" font-family="Helvetica,sans-Serif" font-size="10.00">tetgenmesh::meshcoarsening</text>
</a>
</g>
<!-- Node3&#45;&gt;Node14 -->
<g id="edge30" class="edge"><title>Node3&#45;&gt;Node14</title>
<path fill="none" stroke="midnightblue" d="M399.205,-338.959C416.986,-306.835 456.521,-242.243 506,-203.338 622.111,-112.041 663.294,-71.3382 811,-71.3382 811,-71.3382 811,-71.3382 1021,-71.3382 1127.19,-71.3382 1250.09,-67.3461 1326.2,-64.4065"/>
<polygon fill="midnightblue" stroke="midnightblue" points="396.089,-337.363 394.398,-347.822 402.242,-340.701 396.089,-337.363"/>
</g>
<!-- Node15 -->
<g id="node32" class="node"><title>Node15</title>
<a xlink:href="classtetgenmesh.xhtml#a6755cfa20d8ea6ce62d059750657a292" target="_top" xlink:title="tetgenmesh::lawsonflip3d">
<polygon fill="none" stroke="black" points="533,-338.838 533,-359.838 661,-359.838 661,-338.838 533,-338.838"/>
<text text-anchor="middle" x="597" y="-346.838" font-family="Helvetica,sans-Serif" font-size="10.00">tetgenmesh::lawsonflip3d</text>
</a>
</g>
<!-- Node3&#45;&gt;Node15 -->
<g id="edge34" class="edge"><title>Node3&#45;&gt;Node15</title>
<path fill="none" stroke="midnightblue" d="M480.092,-354.397C497.843,-353.629 516.102,-352.839 532.76,-352.118"/>
<polygon fill="midnightblue" stroke="midnightblue" points="479.555,-350.917 469.716,-354.846 479.858,-357.91 479.555,-350.917"/>
</g>
<!-- Node4&#45;&gt;Node5 -->
<g id="edge8" class="edge"><title>Node4&#45;&gt;Node5</title>
<path fill="none" stroke="midnightblue" d="M621.716,-443.416C646.701,-459.117 686.827,-482.85 724,-498.338 737.636,-504.02 752.988,-508.9 766.957,-512.801"/>
<polygon fill="midnightblue" stroke="midnightblue" points="623.547,-440.432 613.229,-438.024 619.793,-446.341 623.547,-440.432"/>
</g>
<!-- Node6 -->
<g id="node11" class="node"><title>Node6</title>
<a xlink:href="tetgen_8h.xhtml#ad3637eb4ffe7fda90667e67b7771d964" target="_top" xlink:title="tetrahedralize">
<polygon fill="none" stroke="black" points="2060.5,-395.838 2060.5,-416.838 2135.5,-416.838 2135.5,-395.838 2060.5,-395.838"/>
<text text-anchor="middle" x="2098" y="-403.838" font-family="Helvetica,sans-Serif" font-size="10.00">tetrahedralize</text>
</a>
</g>
<!-- Node5&#45;&gt;Node6 -->
<g id="edge10" class="edge"><title>Node5&#45;&gt;Node6</title>
<path fill="none" stroke="midnightblue" d="M905.842,-522.973C988.123,-522.687 1110.43,-522.338 1217,-522.338 1217,-522.338 1217,-522.338 1757,-522.338 1876.8,-522.338 1917.62,-540.435 2024,-485.338 2055.21,-469.176 2080.31,-434.473 2091.57,-416.94"/>
<polygon fill="midnightblue" stroke="midnightblue" points="905.746,-519.473 895.759,-523.008 905.771,-526.473 905.746,-519.473"/>
</g>
<!-- Node7 -->
<g id="node13" class="node"><title>Node7</title>
<a xlink:href="classGUICutRenderWindow.xhtml#a9eedb7088ad31f4680a77ed3a06fa60c" target="_top" xlink:title="Berechnet die 2D&#45;Temperaturverteilung als Grafik. ">
<polygon fill="none" stroke="black" points="2174.5,-435.338 2174.5,-469.338 2291.5,-469.338 2291.5,-435.338 2174.5,-435.338"/>
<text text-anchor="start" x="2182.5" y="-456.338" font-family="Helvetica,sans-Serif" font-size="10.00">GUICutRenderWindow</text>
<text text-anchor="middle" x="2233" y="-443.338" font-family="Helvetica,sans-Serif" font-size="10.00">::renderImage</text>
</a>
</g>
<!-- Node6&#45;&gt;Node7 -->
<g id="edge12" class="edge"><title>Node6&#45;&gt;Node7</title>
<path fill="none" stroke="midnightblue" d="M2138.73,-420.215C2152.62,-424.949 2168.32,-430.298 2182.86,-435.254"/>
<polygon fill="midnightblue" stroke="midnightblue" points="2139.57,-416.804 2128.97,-416.892 2137.31,-423.43 2139.57,-416.804"/>
</g>
<!-- Node9 -->
<g id="node17" class="node"><title>Node9</title>
<a xlink:href="classObjectData.xhtml#af3a850833d08eb9b45357449f455e24d" target="_top" xlink:title="Zerlegt das Objekt in Tetraeder (Schnittstelle zur Tetgen&#45;Bibliothek) und Berechnet die Temperaturver...">
<polygon fill="none" stroke="black" points="2172,-395.838 2172,-416.838 2294,-416.838 2294,-395.838 2172,-395.838"/>
<text text-anchor="middle" x="2233" y="-403.838" font-family="Helvetica,sans-Serif" font-size="10.00">ObjectData::calculateIO</text>
</a>
</g>
<!-- Node6&#45;&gt;Node9 -->
<g id="edge16" class="edge"><title>Node6&#45;&gt;Node9</title>
<path fill="none" stroke="midnightblue" d="M2145.65,-406.338C2154.11,-406.338 2163.02,-406.338 2171.8,-406.338"/>
<polygon fill="midnightblue" stroke="midnightblue" points="2145.61,-402.838 2135.61,-406.338 2145.6,-409.838 2145.61,-402.838"/>
</g>
<!-- Node12 -->
<g id="node23" class="node"><title>Node12</title>
<a xlink:href="tetgen_8cxx.xhtml#a0ddf1224851353fc92bfbff6f499fa97" target="_top" xlink:title="main">
<polygon fill="none" stroke="black" points="2214,-355.838 2214,-376.838 2252,-376.838 2252,-355.838 2214,-355.838"/>
<text text-anchor="middle" x="2233" y="-363.838" font-family="Helvetica,sans-Serif" font-size="10.00">main</text>
</a>
</g>
<!-- Node6&#45;&gt;Node12 -->
<g id="edge22" class="edge"><title>Node6&#45;&gt;Node12</title>
<path fill="none" stroke="midnightblue" d="M2143.15,-392.959C2167.27,-385.815 2195.67,-377.4 2213.98,-371.973"/>
<polygon fill="midnightblue" stroke="midnightblue" points="2142.06,-389.632 2133.47,-395.829 2144.05,-396.344 2142.06,-389.632"/>
</g>
<!-- Node8 -->
<g id="node15" class="node"><title>Node8</title>
<a xlink:href="classGUICutRenderWindow.xhtml#a7cd1bfbec53756a1cbbe1616b4d46c7a" target="_top" xlink:title="Behandelt das Drücken des Buttons zur Berechnung der zweidimensionalen Temperaturverteilung. ">
<polygon fill="none" stroke="black" points="2346.5,-435.338 2346.5,-469.338 2463.5,-469.338 2463.5,-435.338 2346.5,-435.338"/>
<text text-anchor="start" x="2354.5" y="-456.338" font-family="Helvetica,sans-Serif" font-size="10.00">GUICutRenderWindow</text>
<text text-anchor="middle" x="2405" y="-443.338" font-family="Helvetica,sans-Serif" font-size="10.00">::renderCutBtClick</text>
</a>
</g>
<!-- Node7&#45;&gt;Node8 -->
<g id="edge14" class="edge"><title>Node7&#45;&gt;Node8</title>
<path fill="none" stroke="midnightblue" d="M2301.78,-452.338C2316.51,-452.338 2331.95,-452.338 2346.26,-452.338"/>
<polygon fill="midnightblue" stroke="midnightblue" points="2301.71,-448.838 2291.71,-452.338 2301.71,-455.838 2301.71,-448.838"/>
</g>
<!-- Node10 -->
<g id="node19" class="node"><title>Node10</title>
<a xlink:href="classGUIMainWindow.xhtml#a0c2de30274c7f52ff74ec1217e47a9e5" target="_top" xlink:title="Berechnet die 3D&#45;Temperaturverteilung neu. ">
<polygon fill="none" stroke="black" points="2330,-343.338 2330,-377.338 2480,-377.338 2480,-343.338 2330,-343.338"/>
<text text-anchor="start" x="2338" y="-364.338" font-family="Helvetica,sans-Serif" font-size="10.00">GUIMainWindow::OnRecalcBt</text>
<text text-anchor="middle" x="2405" y="-351.338" font-family="Helvetica,sans-Serif" font-size="10.00">Click</text>
</a>
</g>
<!-- Node9&#45;&gt;Node10 -->
<g id="edge18" class="edge"><title>Node9&#45;&gt;Node10</title>
<path fill="none" stroke="midnightblue" d="M2282.33,-393.146C2300.64,-388.248 2321.69,-382.619 2341.12,-377.423"/>
<polygon fill="midnightblue" stroke="midnightblue" points="2281.22,-389.82 2272.46,-395.785 2283.03,-396.582 2281.22,-389.82"/>
</g>
<!-- Node11 -->
<g id="node21" class="node"><title>Node11</title>
<a xlink:href="classGUITimeline.xhtml#a099f3654aa6e7ea04df861851a0e9ec8" target="_top" xlink:title="Sucht den Zeitpunkt zwischen zwei markierten Stellen auf der Sensordaten&#45;Zeitleiste, für den der Wäremeenergiegehalt maximal wird. ">
<polygon fill="none" stroke="black" points="2336.5,-395.838 2336.5,-416.838 2473.5,-416.838 2473.5,-395.838 2336.5,-395.838"/>
<text text-anchor="middle" x="2405" y="-403.838" font-family="Helvetica,sans-Serif" font-size="10.00">GUITimeline::findMaxValue</text>
</a>
</g>
<!-- Node9&#45;&gt;Node11 -->
<g id="edge20" class="edge"><title>Node9&#45;&gt;Node11</title>
<path fill="none" stroke="midnightblue" d="M2304.23,-406.338C2314.89,-406.338 2325.86,-406.338 2336.46,-406.338"/>
<polygon fill="midnightblue" stroke="midnightblue" points="2304.13,-402.838 2294.13,-406.338 2304.13,-409.838 2304.13,-402.838"/>
</g>
<!-- Node13&#45;&gt;Node6 -->
<g id="edge28" class="edge"><title>Node13&#45;&gt;Node6</title>
<path fill="none" stroke="midnightblue" d="M1300.23,-118.207C1373.3,-110.191 1482.54,-100.338 1578,-100.338 1578,-100.338 1578,-100.338 1757,-100.338 1886.21,-100.338 1934.35,-122.298 2024,-215.338 2076.07,-269.37 2092.58,-364.087 2096.77,-395.716"/>
<polygon fill="midnightblue" stroke="midnightblue" points="1299.71,-114.742 1290.16,-119.325 1300.49,-121.7 1299.71,-114.742"/>
</g>
<!-- Node14&#45;&gt;Node6 -->
<g id="edge32" class="edge"><title>Node14&#45;&gt;Node6</title>
<path fill="none" stroke="midnightblue" d="M1440.61,-47.7612C1550.4,-14.7891 1851.26,56.7427 2024,-86.3382 2073.51,-127.35 2093.22,-344.403 2097.21,-395.54"/>
<polygon fill="midnightblue" stroke="midnightblue" points="1439.44,-44.4596 1430.9,-50.7288 1441.49,-51.1542 1439.44,-44.4596"/>
</g>
<!-- Node16 -->
<g id="node34" class="node"><title>Node16</title>
<a xlink:href="classtetgenmesh.xhtml#ad71017c71bd2cac0232c410a651ed085" target="_top" xlink:title="tetgenmesh::carveholes">
<polygon fill="none" stroke="black" points="1517.5,-434.838 1517.5,-455.838 1638.5,-455.838 1638.5,-434.838 1517.5,-434.838"/>
<text text-anchor="middle" x="1578" y="-442.838" font-family="Helvetica,sans-Serif" font-size="10.00">tetgenmesh::carveholes</text>
</a>
</g>
<!-- Node15&#45;&gt;Node16 -->
<g id="edge36" class="edge"><title>Node15&#45;&gt;Node16</title>
<path fill="none" stroke="midnightblue" d="M670.843,-362.626C676.716,-364.326 682.499,-366.224 688,-368.338 705.29,-374.984 706.657,-382.833 724,-389.338 849.848,-436.542 886.591,-446.338 1021,-446.338 1021,-446.338 1021,-446.338 1217,-446.338 1322.61,-446.338 1445.59,-445.905 1517.32,-445.609"/>
<polygon fill="midnightblue" stroke="midnightblue" points="671.475,-359.172 660.908,-359.949 669.653,-365.93 671.475,-359.172"/>
</g>
<!-- Node17 -->
<g id="node37" class="node"><title>Node17</title>
<a xlink:href="classtetgenmesh.xhtml#ac8205cae8e16f490b80d74975934ff74" target="_top" xlink:title="tetgenmesh::insertconstrainedpoints">
<polygon fill="none" stroke="black" points="724,-358.838 724,-379.838 898,-379.838 898,-358.838 724,-358.838"/>
<text text-anchor="middle" x="811" y="-366.838" font-family="Helvetica,sans-Serif" font-size="10.00">tetgenmesh::insertconstrainedpoints</text>
</a>
</g>
<!-- Node15&#45;&gt;Node17 -->
<g id="edge40" class="edge"><title>Node15&#45;&gt;Node17</title>
<path fill="none" stroke="midnightblue" d="M671.552,-356.306C688.442,-357.884 706.523,-359.574 723.881,-361.196"/>
<polygon fill="midnightblue" stroke="midnightblue" points="671.489,-352.785 661.207,-355.339 670.838,-359.754 671.489,-352.785"/>
</g>
<!-- Node19 -->
<g id="node42" class="node"><title>Node19</title>
<a xlink:href="classtetgenmesh.xhtml#a6394d7b4d386e8d08077c39cd8983e0e" target="_top" xlink:title="tetgenmesh::splitsegment">
<polygon fill="none" stroke="black" points="746.5,-261.838 746.5,-282.838 875.5,-282.838 875.5,-261.838 746.5,-261.838"/>
<text text-anchor="middle" x="811" y="-269.838" font-family="Helvetica,sans-Serif" font-size="10.00">tetgenmesh::splitsegment</text>
</a>
</g>
<!-- Node15&#45;&gt;Node19 -->
<g id="edge46" class="edge"><title>Node15&#45;&gt;Node19</title>
<path fill="none" stroke="midnightblue" d="M635.921,-335.334C677.928,-320.219 743.877,-296.49 781.704,-282.879"/>
<polygon fill="midnightblue" stroke="midnightblue" points="634.532,-332.114 626.307,-338.793 636.902,-338.701 634.532,-332.114"/>
</g>
<!-- Node21 -->
<g id="node46" class="node"><title>Node21</title>
<a xlink:href="classtetgenmesh.xhtml#a3a8404870ab3c2e8ce4312d48c2b29f4" target="_top" xlink:title="tetgenmesh::splitsubface">
<polygon fill="none" stroke="black" points="1154,-166.838 1154,-187.838 1280,-187.838 1280,-166.838 1154,-166.838"/>
<text text-anchor="middle" x="1217" y="-174.838" font-family="Helvetica,sans-Serif" font-size="10.00">tetgenmesh::splitsubface</text>
</a>
</g>
<!-- Node15&#45;&gt;Node21 -->
<g id="edge74" class="edge"><title>Node15&#45;&gt;Node21</title>
<path fill="none" stroke="midnightblue" d="M615.359,-331.652C638.776,-310.009 681.368,-273.624 724,-252.338 865.553,-181.663 1056.24,-173.673 1153.78,-174.886"/>
<polygon fill="midnightblue" stroke="midnightblue" points="612.805,-329.249 607.908,-338.644 617.595,-334.354 612.805,-329.249"/>
</g>
<!-- Node23 -->
<g id="node50" class="node"><title>Node23</title>
<a xlink:href="classtetgenmesh.xhtml#aa752155eb1d18550a212dd40297f122e" target="_top" xlink:title="tetgenmesh::splittetrahedron">
<polygon fill="none" stroke="black" points="1508,-244.838 1508,-265.838 1648,-265.838 1648,-244.838 1508,-244.838"/>
<text text-anchor="middle" x="1578" y="-252.838" font-family="Helvetica,sans-Serif" font-size="10.00">tetgenmesh::splittetrahedron</text>
</a>
</g>
<!-- Node15&#45;&gt;Node23 -->
<g id="edge76" class="edge"><title>Node15&#45;&gt;Node23</title>
<path fill="none" stroke="midnightblue" d="M671.276,-343.993C755.891,-338.374 898.327,-330.338 1021,-330.338 1021,-330.338 1021,-330.338 1217,-330.338 1342.14,-330.338 1486.68,-286.599 1548.01,-265.925"/>
<polygon fill="midnightblue" stroke="midnightblue" points="670.993,-340.504 661.249,-344.666 671.461,-347.489 670.993,-340.504"/>
</g>
<!-- Node26 -->
<g id="node65" class="node"><title>Node26</title>
<a xlink:href="classtetgenmesh.xhtml#a4f6f365744005e9d9da43a7d8a1fbba8" target="_top" xlink:title="tetgenmesh::recoverdelaunay">
<polygon fill="none" stroke="black" points="1684.5,-472.838 1684.5,-493.838 1829.5,-493.838 1829.5,-472.838 1684.5,-472.838"/>
<text text-anchor="middle" x="1757" y="-480.838" font-family="Helvetica,sans-Serif" font-size="10.00">tetgenmesh::recoverdelaunay</text>
</a>
</g>
<!-- Node15&#45;&gt;Node26 -->
<g id="edge78" class="edge"><title>Node15&#45;&gt;Node26</title>
<path fill="none" stroke="midnightblue" d="M671.079,-359.217C677.082,-361.656 682.821,-364.656 688,-368.338 713.345,-386.36 698.481,-410.565 724,-428.338 834.225,-505.11 886.674,-484.338 1021,-484.338 1021,-484.338 1021,-484.338 1399,-484.338 1497.82,-484.338 1611.99,-483.952 1684.32,-483.66"/>
<polygon fill="midnightblue" stroke="midnightblue" points="672.063,-355.853 661.469,-355.828 669.735,-362.455 672.063,-355.853"/>
</g>
<!-- Node16&#45;&gt;Node6 -->
<g id="edge38" class="edge"><title>Node16&#45;&gt;Node6</title>
<path fill="none" stroke="midnightblue" d="M1648.98,-444.223C1737.19,-442.18 1892.19,-436.43 2024,-420.338 2035.81,-418.896 2048.58,-416.71 2060.12,-414.492"/>
<polygon fill="midnightblue" stroke="midnightblue" points="1648.74,-440.728 1638.82,-444.449 1648.9,-447.726 1648.74,-440.728"/>
</g>
<!-- Node17&#45;&gt;Node6 -->
<g id="edge44" class="edge"><title>Node17&#45;&gt;Node6</title>
<path fill="none" stroke="midnightblue" d="M875.801,-381.553C894.515,-384.624 915.012,-387.552 934,-389.338 1219.06,-416.153 1291.68,-406.338 1578,-406.338 1578,-406.338 1578,-406.338 1757,-406.338 1867.26,-406.338 1997.58,-406.338 2060.41,-406.338"/>
<polygon fill="midnightblue" stroke="midnightblue" points="876.344,-378.095 865.902,-379.889 875.184,-384.999 876.344,-378.095"/>
</g>
<!-- Node18 -->
<g id="node39" class="node"><title>Node18</title>
<a xlink:href="classtetgenmesh.xhtml#ab859365ca3dd3eafb77fac56d0ae3a03" target="_top" xlink:title="tetgenmesh::insertconstrainedpoints">
<polygon fill="none" stroke="black" points="934,-358.838 934,-379.838 1108,-379.838 1108,-358.838 934,-358.838"/>
<text text-anchor="middle" x="1021" y="-366.838" font-family="Helvetica,sans-Serif" font-size="10.00">tetgenmesh::insertconstrainedpoints</text>
</a>
</g>
<!-- Node17&#45;&gt;Node18 -->
<g id="edge42" class="edge"><title>Node17&#45;&gt;Node18</title>
<path fill="none" stroke="midnightblue" d="M908.459,-369.338C916.88,-369.338 925.366,-369.338 933.699,-369.338"/>
<polygon fill="midnightblue" stroke="midnightblue" points="908.235,-365.838 898.235,-369.338 908.234,-372.838 908.235,-365.838"/>
</g>
<!-- Node20 -->
<g id="node44" class="node"><title>Node20</title>
<a xlink:href="classtetgenmesh.xhtml#a7af360f1ae413f9e0d7803ccae55b6d6" target="_top" xlink:title="tetgenmesh::repairencsegs">
<polygon fill="none" stroke="black" points="954,-242.838 954,-263.838 1088,-263.838 1088,-242.838 954,-242.838"/>
<text text-anchor="middle" x="1021" y="-250.838" font-family="Helvetica,sans-Serif" font-size="10.00">tetgenmesh::repairencsegs</text>
</a>
</g>
<!-- Node19&#45;&gt;Node20 -->
<g id="edge48" class="edge"><title>Node19&#45;&gt;Node20</title>
<path fill="none" stroke="midnightblue" d="M885.783,-265.572C908.022,-263.56 932.239,-261.369 953.952,-259.404"/>
<polygon fill="midnightblue" stroke="midnightblue" points="885.364,-262.096 875.72,-266.483 885.995,-269.067 885.364,-262.096"/>
</g>
<!-- Node19&#45;&gt;Node21 -->
<g id="edge70" class="edge"><title>Node19&#45;&gt;Node21</title>
<path fill="none" stroke="midnightblue" d="M850.835,-258.463C874.754,-250.445 905.9,-240.549 934,-233.338 1008.83,-214.135 1096.23,-197.742 1153.88,-187.745"/>
<polygon fill="midnightblue" stroke="midnightblue" points="849.407,-255.251 841.056,-261.772 851.651,-261.882 849.407,-255.251"/>
</g>
<!-- Node19&#45;&gt;Node23 -->
<g id="edge72" class="edge"><title>Node19&#45;&gt;Node23</title>
<path fill="none" stroke="midnightblue" d="M886.064,-273.046C901.895,-273.168 918.497,-273.275 934,-273.338 1173.12,-274.31 1233.49,-286.338 1472,-269.338 1483.66,-268.507 1496.01,-267.237 1507.99,-265.794"/>
<polygon fill="midnightblue" stroke="midnightblue" points="885.82,-269.544 875.792,-272.964 885.764,-276.543 885.82,-269.544"/>
</g>
<!-- Node20&#45;&gt;Node21 -->
<g id="edge50" class="edge"><title>Node20&#45;&gt;Node21</title>
<path fill="none" stroke="midnightblue" d="M1078.91,-239.742C1088.84,-236.558 1098.88,-232.771 1108,-228.338 1125.75,-219.706 1126.47,-211.412 1144,-202.338 1155.06,-196.61 1167.72,-191.745 1179.36,-187.871"/>
<polygon fill="midnightblue" stroke="midnightblue" points="1077.62,-236.477 1069.06,-242.726 1079.65,-243.176 1077.62,-236.477"/>
</g>
<!-- Node20&#45;&gt;Node23 -->
<g id="edge66" class="edge"><title>Node20&#45;&gt;Node23</title>
<path fill="none" stroke="midnightblue" d="M1098.43,-253.616C1207.13,-254.007 1403.37,-254.711 1507.95,-255.087"/>
<polygon fill="midnightblue" stroke="midnightblue" points="1098.2,-250.116 1088.19,-253.579 1098.17,-257.115 1098.2,-250.116"/>
</g>
<!-- Node25 -->
<g id="node54" class="node"><title>Node25</title>
<a xlink:href="classtetgenmesh.xhtml#a477bbfde72103de66546d4ea3343b4a1" target="_top" xlink:title="tetgenmesh::delaunayrefinement">
<polygon fill="none" stroke="black" points="1866,-224.838 1866,-245.838 2024,-245.838 2024,-224.838 1866,-224.838"/>
<text text-anchor="middle" x="1945" y="-232.838" font-family="Helvetica,sans-Serif" font-size="10.00">tetgenmesh::delaunayrefinement</text>
</a>
</g>
<!-- Node20&#45;&gt;Node25 -->
<g id="edge68" class="edge"><title>Node20&#45;&gt;Node25</title>
<path fill="none" stroke="midnightblue" d="M1097.72,-241.4C1173.93,-230.587 1294.25,-216.338 1399,-216.338 1399,-216.338 1399,-216.338 1578,-216.338 1677.37,-216.338 1791.67,-223.371 1865.95,-228.879"/>
<polygon fill="midnightblue" stroke="midnightblue" points="1097.12,-237.95 1087.72,-242.834 1098.12,-244.879 1097.12,-237.95"/>
</g>
<!-- Node22 -->
<g id="node48" class="node"><title>Node22</title>
<a xlink:href="classtetgenmesh.xhtml#a701d4f317ed66df6a2e2b7b237e2386a" target="_top" xlink:title="tetgenmesh::repairencfacs">
<polygon fill="none" stroke="black" points="1333,-128.838 1333,-149.838 1465,-149.838 1465,-128.838 1333,-128.838"/>
<text text-anchor="middle" x="1399" y="-136.838" font-family="Helvetica,sans-Serif" font-size="10.00">tetgenmesh::repairencfacs</text>
</a>
</g>
<!-- Node21&#45;&gt;Node22 -->
<g id="edge52" class="edge"><title>Node21&#45;&gt;Node22</title>
<path fill="none" stroke="midnightblue" d="M1277.7,-164.666C1300.7,-159.863 1326.62,-154.451 1348.57,-149.867"/>
<polygon fill="midnightblue" stroke="midnightblue" points="1276.77,-161.283 1267.7,-166.753 1278.2,-168.135 1276.77,-161.283"/>
</g>
<!-- Node21&#45;&gt;Node23 -->
<g id="edge64" class="edge"><title>Node21&#45;&gt;Node23</title>
<path fill="none" stroke="midnightblue" d="M1275.75,-190.032C1346.32,-205.281 1463.41,-230.58 1529.22,-244.799"/>
<polygon fill="midnightblue" stroke="midnightblue" points="1276.2,-186.549 1265.69,-187.858 1274.72,-193.391 1276.2,-186.549"/>
</g>
<!-- Node22&#45;&gt;Node23 -->
<g id="edge54" class="edge"><title>Node22&#45;&gt;Node23</title>
<path fill="none" stroke="midnightblue" d="M1448.33,-153.358C1456.47,-156.476 1464.65,-160.131 1472,-164.338 1511.79,-187.102 1550.6,-225.854 1568.19,-244.579"/>
<polygon fill="midnightblue" stroke="midnightblue" points="1449.43,-150.035 1438.83,-149.943 1447.06,-156.621 1449.43,-150.035"/>
</g>
<!-- Node22&#45;&gt;Node25 -->
<g id="edge62" class="edge"><title>Node22&#45;&gt;Node25</title>
<path fill="none" stroke="midnightblue" d="M1475.21,-147.343C1561.78,-157.159 1706.98,-175.823 1830,-202.338 1858.22,-208.422 1889.7,-217.628 1912.58,-224.772"/>
<polygon fill="midnightblue" stroke="midnightblue" points="1475.54,-143.857 1465.21,-146.218 1474.76,-150.814 1475.54,-143.857"/>
</g>
<!-- Node24 -->
<g id="node52" class="node"><title>Node24</title>
<a xlink:href="classtetgenmesh.xhtml#a7c46c82d83099214115fa9719aefbd78" target="_top" xlink:title="tetgenmesh::repairbadtets">
<polygon fill="none" stroke="black" points="1692,-244.838 1692,-265.838 1822,-265.838 1822,-244.838 1692,-244.838"/>
<text text-anchor="middle" x="1757" y="-252.838" font-family="Helvetica,sans-Serif" font-size="10.00">tetgenmesh::repairbadtets</text>
</a>
</g>
<!-- Node23&#45;&gt;Node24 -->
<g id="edge56" class="edge"><title>Node23&#45;&gt;Node24</title>
<path fill="none" stroke="midnightblue" d="M1658.45,-255.338C1669.66,-255.338 1681.06,-255.338 1691.93,-255.338"/>
<polygon fill="midnightblue" stroke="midnightblue" points="1658.23,-251.838 1648.23,-255.338 1658.23,-258.838 1658.23,-251.838"/>
</g>
<!-- Node24&#45;&gt;Node25 -->
<g id="edge58" class="edge"><title>Node24&#45;&gt;Node25</title>
<path fill="none" stroke="midnightblue" d="M1832.28,-247.329C1843.36,-246.151 1854.81,-244.933 1865.96,-243.747"/>
<polygon fill="midnightblue" stroke="midnightblue" points="1831.8,-243.861 1822.23,-248.399 1832.54,-250.822 1831.8,-243.861"/>
</g>
<!-- Node25&#45;&gt;Node6 -->
<g id="edge60" class="edge"><title>Node25&#45;&gt;Node6</title>
<path fill="none" stroke="midnightblue" d="M1961.5,-253.776C1993.48,-289.519 2063,-367.22 2088.43,-395.645"/>
<polygon fill="midnightblue" stroke="midnightblue" points="1963.85,-251.154 1954.57,-246.035 1958.63,-255.821 1963.85,-251.154"/>
</g>
<!-- Node26&#45;&gt;Node6 -->
<g id="edge80" class="edge"><title>Node26&#45;&gt;Node6</title>
<path fill="none" stroke="midnightblue" d="M1839.98,-486.424C1893.95,-485.832 1965,-480.071 2024,-458.338 2049.05,-449.111 2073.46,-429.208 2087.04,-416.877"/>
<polygon fill="midnightblue" stroke="midnightblue" points="1839.74,-482.925 1829.76,-486.477 1839.78,-489.925 1839.74,-482.925"/>
</g>
<!-- Node27&#45;&gt;Node3 -->
<g id="edge84" class="edge"><title>Node27&#45;&gt;Node3</title>
<path fill="none" stroke="midnightblue" d="M261.692,-385.716C286.933,-380.288 316.095,-374.017 340.134,-368.847"/>
<polygon fill="midnightblue" stroke="midnightblue" points="260.91,-382.304 251.869,-387.829 262.382,-389.148 260.91,-382.304"/>
</g>
<!-- Node27&#45;&gt;Node4 -->
<g id="edge86" class="edge"><title>Node27&#45;&gt;Node4</title>
<path fill="none" stroke="midnightblue" d="M282.21,-404.168C346.801,-408.923 438.088,-415.642 505.736,-420.621"/>
<polygon fill="midnightblue" stroke="midnightblue" points="282.31,-400.666 272.08,-403.423 281.796,-407.648 282.31,-400.666"/>
</g>
</g>
</svg>
        <g id="navigator" transform="translate(0 0)" fill="#404254">
                <rect fill="#f2f5e9" fill-opacity="0.5" stroke="#606060" stroke-width=".5" x="0" y="0" width="60" height="60"/>
                <use id="zoomplus" xlink:href="#zoomPlus" x="17" y="9" onmousedown="handleZoom(evt,'in')"/>
                <use id="zoomminus" xlink:href="#zoomMin" x="42" y="9" onmousedown="handleZoom(evt,'out')"/>
                <use id="reset" xlink:href="#resetDef" x="30" y="36" onmousedown="handleReset()"/>
                <g id="arrowUp" xlink:href="#dirArrow" transform="translate(30 24)" onmousedown="handlePan(0,-1)">
                  <use xlink:href="#rim" fill="#404040">
                        <set attributeName="fill" to="#808080" begin="arrowUp.mouseover" end="arrowUp.mouseout"/>
                  </use>
                  <path fill="none" stroke="white" stroke-width="1.5" d="M0,-3.0v7 M-2.5,-0.5L0,-3.0L2.5,-0.5"/>
                </g>
                <g id="arrowRight" xlink:href="#dirArrow" transform="rotate(90) translate(36 -43)" onmousedown="handlePan(1,0)">
                  <use xlink:href="#rim" fill="#404040">
                        <set attributeName="fill" to="#808080" begin="arrowRight.mouseover" end="arrowRight.mouseout"/>
                  </use>
                  <path fill="none" stroke="white" stroke-width="1.5" d="M0,-3.0v7 M-2.5,-0.5L0,-3.0L2.5,-0.5"/>
                </g>
                <g id="arrowDown" xlink:href="#dirArrow" transform="rotate(180) translate(-30 -48)" onmousedown="handlePan(0,1)">
                  <use xlink:href="#rim" fill="#404040">
                        <set attributeName="fill" to="#808080" begin="arrowDown.mouseover" end="arrowDown.mouseout"/>
                  </use>
                  <path fill="none" stroke="white" stroke-width="1.5" d="M0,-3.0v7 M-2.5,-0.5L0,-3.0L2.5,-0.5"/>
                </g>
                <g id="arrowLeft" xlink:href="#dirArrow" transform="rotate(270) translate(-36 17)" onmousedown="handlePan(-1,0)">
                  <use xlink:href="#rim" fill="#404040">
                        <set attributeName="fill" to="#808080" begin="arrowLeft.mouseover" end="arrowLeft.mouseout"/>
                  </use>
                  <path fill="none" stroke="white" stroke-width="1.5" d="M0,-3.0v7 M-2.5,-0.5L0,-3.0L2.5,-0.5"/>
                </g>
        </g>
        <svg viewBox="0 0 15 15" width="100%" height="30px" preserveAspectRatio="xMaxYMin meet">
         <g id="arrow_out" transform="scale(0.3 0.3)">
          <a xlink:href="classtetgenmesh_a3db30cb237ac5cbcda3ac70a1ea31666_icgraph_org.svg" target="_base">
           <rect id="button" ry="5" rx="5" y="6" x="6" height="38" width="38"
                fill="#f2f5e9" fill-opacity="0.5" stroke="#606060" stroke-width="1.0"/>
           <path id="arrow"
             d="M 11.500037,31.436501 C 11.940474,20.09759 22.043105,11.32322 32.158766,21.979434 L 37.068811,17.246167 C 37.068811,17.246167 37.088388,32 37.088388,32 L 22.160133,31.978069 C 22.160133,31.978069 26.997745,27.140456 26.997745,27.140456 C 18.528582,18.264221 13.291696,25.230495 11.500037,31.436501 z"
             style="fill:#404040;"/>
          </a>
         </g>
        </svg>
</svg>
