<?xml version="1.0" encoding="UTF-8" standalone="no"?>
<!DOCTYPE svg PUBLIC "-//W3C//DTD SVG 1.1//EN"
 "http://www.w3.org/Graphics/SVG/1.1/DTD/svg11.dtd">
<!-- Generated by graphviz version 2.26.3 (20100126.1600)
 -->
<!-- Title: tetgenmesh::pmarktest3 Pages: 1 -->
<svg width="1142pt" height="134pt"
 viewBox="0.00 0.00 1142.00 134.00" xmlns="http://www.w3.org/2000/svg" xmlns:xlink="http://www.w3.org/1999/xlink">
<g id="graph1" class="graph" transform="scale(1 1) rotate(0) translate(4 130)">
<title>tetgenmesh::pmarktest3</title>
<!-- Node1 -->
<g id="node1" class="node"><title>Node1</title>
<polygon fill="#bfbfbf" stroke="black" points="0,-46.5 0,-67.5 122,-67.5 122,-46.5 0,-46.5"/>
<text text-anchor="middle" x="61" y="-54.5" font-family="Helvetica,sans-Serif" font-size="10.00">tetgenmesh::pmarktest3</text>
</g>
<!-- Node2 -->
<g id="node3" class="node"><title>Node2</title>
<a xlink:href="classtetgenmesh.xhtml#a0085e0f5a6fd18e58fb2503e2aa7ba84" target="_top" xlink:title="tetgenmesh::flipinsertfacet">
<polygon fill="none" stroke="black" points="158,-46.5 158,-67.5 290,-67.5 290,-46.5 158,-46.5"/>
<text text-anchor="middle" x="224" y="-54.5" font-family="Helvetica,sans-Serif" font-size="10.00">tetgenmesh::flipinsertfacet</text>
</a>
</g>
<!-- Node1&#45;&gt;Node2 -->
<g id="edge2" class="edge"><title>Node1&#45;&gt;Node2</title>
<path fill="none" stroke="midnightblue" d="M132.388,-57C140.855,-57 149.469,-57 157.859,-57"/>
<polygon fill="midnightblue" stroke="midnightblue" points="132.159,-53.5001 122.159,-57 132.159,-60.5001 132.159,-53.5001"/>
</g>
<!-- Node3 -->
<g id="node5" class="node"><title>Node3</title>
<a xlink:href="classtetgenmesh.xhtml#a7579c3a44a54712623d9f9e5fc1dfbdc" target="_top" xlink:title="tetgenmesh::constrainedfacets">
<polygon fill="none" stroke="black" points="326.5,-46.5 326.5,-67.5 477.5,-67.5 477.5,-46.5 326.5,-46.5"/>
<text text-anchor="middle" x="402" y="-54.5" font-family="Helvetica,sans-Serif" font-size="10.00">tetgenmesh::constrainedfacets</text>
</a>
</g>
<!-- Node2&#45;&gt;Node3 -->
<g id="edge4" class="edge"><title>Node2&#45;&gt;Node3</title>
<path fill="none" stroke="midnightblue" d="M300.164,-57C308.881,-57 317.767,-57 326.476,-57"/>
<polygon fill="midnightblue" stroke="midnightblue" points="300.028,-53.5001 290.028,-57 300.028,-60.5001 300.028,-53.5001"/>
</g>
<!-- Node4 -->
<g id="node7" class="node"><title>Node4</title>
<a xlink:href="classtetgenmesh.xhtml#aab64d62b3d2b048a38158fb2bf678624" target="_top" xlink:title="tetgenmesh::constraineddelaunay">
<polygon fill="none" stroke="black" points="514.5,-46.5 514.5,-67.5 677.5,-67.5 677.5,-46.5 514.5,-46.5"/>
<text text-anchor="middle" x="596" y="-54.5" font-family="Helvetica,sans-Serif" font-size="10.00">tetgenmesh::constraineddelaunay</text>
</a>
</g>
<!-- Node3&#45;&gt;Node4 -->
<g id="edge6" class="edge"><title>Node3&#45;&gt;Node4</title>
<path fill="none" stroke="midnightblue" d="M487.797,-57C496.58,-57 505.487,-57 514.225,-57"/>
<polygon fill="midnightblue" stroke="midnightblue" points="487.561,-53.5001 477.561,-57 487.561,-60.5001 487.561,-53.5001"/>
</g>
<!-- Node5 -->
<g id="node9" class="node"><title>Node5</title>
<a xlink:href="tetgen_8h.xhtml#ad3637eb4ffe7fda90667e67b7771d964" target="_top" xlink:title="tetrahedralize">
<polygon fill="none" stroke="black" points="714.5,-46.5 714.5,-67.5 789.5,-67.5 789.5,-46.5 714.5,-46.5"/>
<text text-anchor="middle" x="752" y="-54.5" font-family="Helvetica,sans-Serif" font-size="10.00">tetrahedralize</text>
</a>
</g>
<!-- Node4&#45;&gt;Node5 -->
<g id="edge8" class="edge"><title>Node4&#45;&gt;Node5</title>
<path fill="none" stroke="midnightblue" d="M687.823,-57C697.119,-57 706.145,-57 714.349,-57"/>
<polygon fill="midnightblue" stroke="midnightblue" points="687.655,-53.5001 677.655,-57 687.655,-60.5001 687.655,-53.5001"/>
</g>
<!-- Node6 -->
<g id="node11" class="node"><title>Node6</title>
<a xlink:href="classGUICutRenderWindow.xhtml#a9eedb7088ad31f4680a77ed3a06fa60c" target="_top" xlink:title="Berechnet die 2D&#45;Temperaturverteilung als Grafik. ">
<polygon fill="none" stroke="black" points="828.5,-89 828.5,-123 945.5,-123 945.5,-89 828.5,-89"/>
<text text-anchor="start" x="836.5" y="-110" font-family="Helvetica,sans-Serif" font-size="10.00">GUICutRenderWindow</text>
<text text-anchor="middle" x="887" y="-97" font-family="Helvetica,sans-Serif" font-size="10.00">::renderImage</text>
</a>
</g>
<!-- Node5&#45;&gt;Node6 -->
<g id="edge10" class="edge"><title>Node5&#45;&gt;Node6</title>
<path fill="none" stroke="midnightblue" d="M790.675,-71.0375C806.063,-76.6228 823.912,-83.1014 840.034,-88.953"/>
<polygon fill="midnightblue" stroke="midnightblue" points="791.555,-67.6336 780.961,-67.5117 789.167,-74.2136 791.555,-67.6336"/>
</g>
<!-- Node8 -->
<g id="node15" class="node"><title>Node8</title>
<a xlink:href="classObjectData.xhtml#af3a850833d08eb9b45357449f455e24d" target="_top" xlink:title="Zerlegt das Objekt in Tetraeder (Schnittstelle zur Tetgen&#45;Bibliothek) und Berechnet die Temperaturver...">
<polygon fill="none" stroke="black" points="826,-46.5 826,-67.5 948,-67.5 948,-46.5 826,-46.5"/>
<text text-anchor="middle" x="887" y="-54.5" font-family="Helvetica,sans-Serif" font-size="10.00">ObjectData::calculateIO</text>
</a>
</g>
<!-- Node5&#45;&gt;Node8 -->
<g id="edge14" class="edge"><title>Node5&#45;&gt;Node8</title>
<path fill="none" stroke="midnightblue" d="M799.654,-57C808.112,-57 817.025,-57 825.795,-57"/>
<polygon fill="midnightblue" stroke="midnightblue" points="799.605,-53.5001 789.605,-57 799.605,-60.5001 799.605,-53.5001"/>
</g>
<!-- Node11 -->
<g id="node21" class="node"><title>Node11</title>
<a xlink:href="tetgen_8cxx.xhtml#a0ddf1224851353fc92bfbff6f499fa97" target="_top" xlink:title="main">
<polygon fill="none" stroke="black" points="868,-6.5 868,-27.5 906,-27.5 906,-6.5 868,-6.5"/>
<text text-anchor="middle" x="887" y="-14.5" font-family="Helvetica,sans-Serif" font-size="10.00">main</text>
</a>
</g>
<!-- Node5&#45;&gt;Node11 -->
<g id="edge20" class="edge"><title>Node5&#45;&gt;Node11</title>
<path fill="none" stroke="midnightblue" d="M797.154,-43.6209C821.267,-36.4764 849.668,-28.0613 867.984,-22.6343"/>
<polygon fill="midnightblue" stroke="midnightblue" points="796.063,-40.2937 787.47,-46.4905 798.052,-47.0053 796.063,-40.2937"/>
</g>
<!-- Node7 -->
<g id="node13" class="node"><title>Node7</title>
<a xlink:href="classGUICutRenderWindow.xhtml#a7cd1bfbec53756a1cbbe1616b4d46c7a" target="_top" xlink:title="Behandelt das Drücken des Buttons zur Berechnung der zweidimensionalen Temperaturverteilung. ">
<polygon fill="none" stroke="black" points="1000.5,-92 1000.5,-126 1117.5,-126 1117.5,-92 1000.5,-92"/>
<text text-anchor="start" x="1008.5" y="-113" font-family="Helvetica,sans-Serif" font-size="10.00">GUICutRenderWindow</text>
<text text-anchor="middle" x="1059" y="-100" font-family="Helvetica,sans-Serif" font-size="10.00">::renderCutBtClick</text>
</a>
</g>
<!-- Node6&#45;&gt;Node7 -->
<g id="edge12" class="edge"><title>Node6&#45;&gt;Node7</title>
<path fill="none" stroke="midnightblue" d="M955.777,-107.2C970.511,-107.457 985.948,-107.726 1000.26,-107.975"/>
<polygon fill="midnightblue" stroke="midnightblue" points="955.771,-103.699 945.712,-107.024 955.649,-110.698 955.771,-103.699"/>
</g>
<!-- Node9 -->
<g id="node17" class="node"><title>Node9</title>
<a xlink:href="classGUIMainWindow.xhtml#a0c2de30274c7f52ff74ec1217e47a9e5" target="_top" xlink:title="Berechnet die 3D&#45;Temperaturverteilung neu. ">
<polygon fill="none" stroke="black" points="984,-40 984,-74 1134,-74 1134,-40 984,-40"/>
<text text-anchor="start" x="992" y="-61" font-family="Helvetica,sans-Serif" font-size="10.00">GUIMainWindow::OnRecalcBt</text>
<text text-anchor="middle" x="1059" y="-48" font-family="Helvetica,sans-Serif" font-size="10.00">Click</text>
</a>
</g>
<!-- Node8&#45;&gt;Node9 -->
<g id="edge16" class="edge"><title>Node8&#45;&gt;Node9</title>
<path fill="none" stroke="midnightblue" d="M958.316,-57C966.768,-57 975.415,-57 983.918,-57"/>
<polygon fill="midnightblue" stroke="midnightblue" points="958.125,-53.5001 948.125,-57 958.125,-60.5001 958.125,-53.5001"/>
</g>
<!-- Node10 -->
<g id="node19" class="node"><title>Node10</title>
<a xlink:href="classGUITimeline.xhtml#a099f3654aa6e7ea04df861851a0e9ec8" target="_top" xlink:title="Sucht den Zeitpunkt zwischen zwei markierten Stellen auf der Sensordaten&#45;Zeitleiste, für den der Wäremeenergiegehalt maximal wird. ">
<polygon fill="none" stroke="black" points="990.5,-0.5 990.5,-21.5 1127.5,-21.5 1127.5,-0.5 990.5,-0.5"/>
<text text-anchor="middle" x="1059" y="-8.5" font-family="Helvetica,sans-Serif" font-size="10.00">GUITimeline::findMaxValue</text>
</a>
</g>
<!-- Node8&#45;&gt;Node10 -->
<g id="edge18" class="edge"><title>Node8&#45;&gt;Node10</title>
<path fill="none" stroke="midnightblue" d="M935.997,-43.8537C951.363,-39.7343 968.387,-35.1741 984,-31 995.456,-27.9371 1007.9,-24.6167 1019.3,-21.5777"/>
<polygon fill="midnightblue" stroke="midnightblue" points="934.923,-40.5181 926.17,-46.4885 936.735,-47.2793 934.923,-40.5181"/>
</g>
</g>
</svg>
