<?xml version="1.0" encoding="UTF-8" standalone="no"?>
<!DOCTYPE svg PUBLIC "-//W3C//DTD SVG 1.1//EN"
 "http://www.w3.org/Graphics/SVG/1.1/DTD/svg11.dtd">
<!-- Generated by graphviz version 2.26.3 (20100126.1600)
 -->
<!-- Title: tetgenmesh::brio_multiscale_sort Pages: 1 -->
<svg width="934pt" height="134pt"
 viewBox="0.00 0.00 934.00 134.00" xmlns="http://www.w3.org/2000/svg" xmlns:xlink="http://www.w3.org/1999/xlink">
<g id="graph1" class="graph" transform="scale(1 1) rotate(0) translate(4 130)">
<title>tetgenmesh::brio_multiscale_sort</title>
<!-- Node1 -->
<g id="node1" class="node"><title>Node1</title>
<polygon fill="#bfbfbf" stroke="black" points="0.5,-26.5 0.5,-47.5 161.5,-47.5 161.5,-26.5 0.5,-26.5"/>
<text text-anchor="middle" x="81" y="-34.5" font-family="Helvetica,sans-Serif" font-size="10.00">tetgenmesh::brio_multiscale_sort</text>
</g>
<!-- Node2 -->
<g id="node3" class="node"><title>Node2</title>
<a xlink:href="classtetgenmesh.xhtml#a5a5a0513d0bea7aa457eb0bc5fad1b02" target="_top" xlink:title="tetgenmesh::incrementaldelaunay">
<polygon fill="none" stroke="black" points="203.5,-46.5 203.5,-67.5 366.5,-67.5 366.5,-46.5 203.5,-46.5"/>
<text text-anchor="middle" x="285" y="-54.5" font-family="Helvetica,sans-Serif" font-size="10.00">tetgenmesh::incrementaldelaunay</text>
</a>
</g>
<!-- Node1&#45;&gt;Node2 -->
<g id="edge2" class="edge"><title>Node1&#45;&gt;Node2</title>
<path fill="none" stroke="midnightblue" d="M171.659,-45.8881C182.191,-46.9207 192.886,-47.9692 203.288,-48.989"/>
<polygon fill="midnightblue" stroke="midnightblue" points="171.92,-42.397 161.626,-44.9045 171.237,-49.3636 171.92,-42.397"/>
</g>
<!-- Node10 -->
<g id="node19" class="node"><title>Node10</title>
<a xlink:href="classtetgenmesh.xhtml#ac8205cae8e16f490b80d74975934ff74" target="_top" xlink:title="tetgenmesh::insertconstrainedpoints">
<polygon fill="none" stroke="black" points="198,-6.5 198,-27.5 372,-27.5 372,-6.5 198,-6.5"/>
<text text-anchor="middle" x="285" y="-14.5" font-family="Helvetica,sans-Serif" font-size="10.00">tetgenmesh::insertconstrainedpoints</text>
</a>
</g>
<!-- Node1&#45;&gt;Node10 -->
<g id="edge18" class="edge"><title>Node1&#45;&gt;Node10</title>
<path fill="none" stroke="midnightblue" d="M171.762,-28.1017C180.453,-27.2497 189.253,-26.3869 197.908,-25.5385"/>
<polygon fill="midnightblue" stroke="midnightblue" points="171.237,-24.6364 161.626,-29.0955 171.92,-31.603 171.237,-24.6364"/>
</g>
<!-- Node3 -->
<g id="node5" class="node"><title>Node3</title>
<a xlink:href="tetgen_8h.xhtml#ad3637eb4ffe7fda90667e67b7771d964" target="_top" xlink:title="tetrahedralize">
<polygon fill="none" stroke="black" points="457.5,-46.5 457.5,-67.5 532.5,-67.5 532.5,-46.5 457.5,-46.5"/>
<text text-anchor="middle" x="495" y="-54.5" font-family="Helvetica,sans-Serif" font-size="10.00">tetrahedralize</text>
</a>
</g>
<!-- Node2&#45;&gt;Node3 -->
<g id="edge4" class="edge"><title>Node2&#45;&gt;Node3</title>
<path fill="none" stroke="midnightblue" d="M377.121,-57C405.353,-57 434.845,-57 457.269,-57"/>
<polygon fill="midnightblue" stroke="midnightblue" points="376.793,-53.5001 366.793,-57 376.793,-60.5001 376.793,-53.5001"/>
</g>
<!-- Node4 -->
<g id="node7" class="node"><title>Node4</title>
<a xlink:href="classGUICutRenderWindow.xhtml#a9eedb7088ad31f4680a77ed3a06fa60c" target="_top" xlink:title="Berechnet die 2D&#45;Temperaturverteilung als Grafik. ">
<polygon fill="none" stroke="black" points="620.5,-89 620.5,-123 737.5,-123 737.5,-89 620.5,-89"/>
<text text-anchor="start" x="628.5" y="-110" font-family="Helvetica,sans-Serif" font-size="10.00">GUICutRenderWindow</text>
<text text-anchor="middle" x="679" y="-97" font-family="Helvetica,sans-Serif" font-size="10.00">::renderImage</text>
</a>
</g>
<!-- Node3&#45;&gt;Node4 -->
<g id="edge6" class="edge"><title>Node3&#45;&gt;Node4</title>
<path fill="none" stroke="midnightblue" d="M542.514,-69.6531C566.266,-75.9785 595.23,-83.6916 620.354,-90.3824"/>
<polygon fill="midnightblue" stroke="midnightblue" points="543.243,-66.2254 532.679,-67.0341 541.442,-72.9897 543.243,-66.2254"/>
</g>
<!-- Node6 -->
<g id="node11" class="node"><title>Node6</title>
<a xlink:href="classObjectData.xhtml#af3a850833d08eb9b45357449f455e24d" target="_top" xlink:title="Zerlegt das Objekt in Tetraeder (Schnittstelle zur Tetgen&#45;Bibliothek) und Berechnet die Temperaturver...">
<polygon fill="none" stroke="black" points="618,-46.5 618,-67.5 740,-67.5 740,-46.5 618,-46.5"/>
<text text-anchor="middle" x="679" y="-54.5" font-family="Helvetica,sans-Serif" font-size="10.00">ObjectData::calculateIO</text>
</a>
</g>
<!-- Node3&#45;&gt;Node6 -->
<g id="edge10" class="edge"><title>Node3&#45;&gt;Node6</title>
<path fill="none" stroke="midnightblue" d="M542.835,-57C565.734,-57 593.419,-57 617.83,-57"/>
<polygon fill="midnightblue" stroke="midnightblue" points="542.679,-53.5001 532.679,-57 542.679,-60.5001 542.679,-53.5001"/>
</g>
<!-- Node9 -->
<g id="node17" class="node"><title>Node9</title>
<a xlink:href="tetgen_8cxx.xhtml#a0ddf1224851353fc92bfbff6f499fa97" target="_top" xlink:title="main">
<polygon fill="none" stroke="black" points="660,-6.5 660,-27.5 698,-27.5 698,-6.5 660,-6.5"/>
<text text-anchor="middle" x="679" y="-14.5" font-family="Helvetica,sans-Serif" font-size="10.00">main</text>
</a>
</g>
<!-- Node3&#45;&gt;Node9 -->
<g id="edge16" class="edge"><title>Node3&#45;&gt;Node9</title>
<path fill="none" stroke="midnightblue" d="M542.577,-46.6571C580.802,-38.3475 632.488,-27.1112 659.97,-21.1371"/>
<polygon fill="midnightblue" stroke="midnightblue" points="541.707,-43.2644 532.679,-48.8089 543.194,-50.1046 541.707,-43.2644"/>
</g>
<!-- Node5 -->
<g id="node9" class="node"><title>Node5</title>
<a xlink:href="classGUICutRenderWindow.xhtml#a7cd1bfbec53756a1cbbe1616b4d46c7a" target="_top" xlink:title="Behandelt das Drücken des Buttons zur Berechnung der zweidimensionalen Temperaturverteilung. ">
<polygon fill="none" stroke="black" points="792.5,-92 792.5,-126 909.5,-126 909.5,-92 792.5,-92"/>
<text text-anchor="start" x="800.5" y="-113" font-family="Helvetica,sans-Serif" font-size="10.00">GUICutRenderWindow</text>
<text text-anchor="middle" x="851" y="-100" font-family="Helvetica,sans-Serif" font-size="10.00">::renderCutBtClick</text>
</a>
</g>
<!-- Node4&#45;&gt;Node5 -->
<g id="edge8" class="edge"><title>Node4&#45;&gt;Node5</title>
<path fill="none" stroke="midnightblue" d="M747.777,-107.2C762.511,-107.457 777.948,-107.726 792.261,-107.975"/>
<polygon fill="midnightblue" stroke="midnightblue" points="747.771,-103.699 737.712,-107.024 747.649,-110.698 747.771,-103.699"/>
</g>
<!-- Node7 -->
<g id="node13" class="node"><title>Node7</title>
<a xlink:href="classGUIMainWindow.xhtml#a0c2de30274c7f52ff74ec1217e47a9e5" target="_top" xlink:title="Berechnet die 3D&#45;Temperaturverteilung neu. ">
<polygon fill="none" stroke="black" points="776,-40 776,-74 926,-74 926,-40 776,-40"/>
<text text-anchor="start" x="784" y="-61" font-family="Helvetica,sans-Serif" font-size="10.00">GUIMainWindow::OnRecalcBt</text>
<text text-anchor="middle" x="851" y="-48" font-family="Helvetica,sans-Serif" font-size="10.00">Click</text>
</a>
</g>
<!-- Node6&#45;&gt;Node7 -->
<g id="edge12" class="edge"><title>Node6&#45;&gt;Node7</title>
<path fill="none" stroke="midnightblue" d="M750.316,-57C758.768,-57 767.415,-57 775.918,-57"/>
<polygon fill="midnightblue" stroke="midnightblue" points="750.125,-53.5001 740.125,-57 750.125,-60.5001 750.125,-53.5001"/>
</g>
<!-- Node8 -->
<g id="node15" class="node"><title>Node8</title>
<a xlink:href="classGUITimeline.xhtml#a099f3654aa6e7ea04df861851a0e9ec8" target="_top" xlink:title="Sucht den Zeitpunkt zwischen zwei markierten Stellen auf der Sensordaten&#45;Zeitleiste, für den der Wäremeenergiegehalt maximal wird. ">
<polygon fill="none" stroke="black" points="782.5,-0.5 782.5,-21.5 919.5,-21.5 919.5,-0.5 782.5,-0.5"/>
<text text-anchor="middle" x="851" y="-8.5" font-family="Helvetica,sans-Serif" font-size="10.00">GUITimeline::findMaxValue</text>
</a>
</g>
<!-- Node6&#45;&gt;Node8 -->
<g id="edge14" class="edge"><title>Node6&#45;&gt;Node8</title>
<path fill="none" stroke="midnightblue" d="M727.997,-43.8537C743.363,-39.7343 760.387,-35.1741 776,-31 787.456,-27.9371 799.899,-24.6167 811.296,-21.5777"/>
<polygon fill="midnightblue" stroke="midnightblue" points="726.923,-40.5181 718.17,-46.4885 728.735,-47.2793 726.923,-40.5181"/>
</g>
<!-- Node10&#45;&gt;Node3 -->
<g id="edge22" class="edge"><title>Node10&#45;&gt;Node3</title>
<path fill="none" stroke="midnightblue" d="M350.373,-29.452C385.559,-36.1542 427.704,-44.1817 457.396,-49.8373"/>
<polygon fill="midnightblue" stroke="midnightblue" points="350.653,-25.9425 340.175,-27.5095 349.343,-32.8189 350.653,-25.9425"/>
</g>
<!-- Node11 -->
<g id="node21" class="node"><title>Node11</title>
<a xlink:href="classtetgenmesh.xhtml#ab859365ca3dd3eafb77fac56d0ae3a03" target="_top" xlink:title="tetgenmesh::insertconstrainedpoints">
<polygon fill="none" stroke="black" points="408,-6.5 408,-27.5 582,-27.5 582,-6.5 408,-6.5"/>
<text text-anchor="middle" x="495" y="-14.5" font-family="Helvetica,sans-Serif" font-size="10.00">tetgenmesh::insertconstrainedpoints</text>
</a>
</g>
<!-- Node10&#45;&gt;Node11 -->
<g id="edge20" class="edge"><title>Node10&#45;&gt;Node11</title>
<path fill="none" stroke="midnightblue" d="M382.459,-17C390.88,-17 399.366,-17 407.699,-17"/>
<polygon fill="midnightblue" stroke="midnightblue" points="382.235,-13.5001 372.235,-17 382.234,-20.5001 382.235,-13.5001"/>
</g>
</g>
</svg>
