<?xml version="1.0" encoding="UTF-8" standalone="no"?>
<!DOCTYPE svg PUBLIC "-//W3C//DTD SVG 1.1//EN"
 "http://www.w3.org/Graphics/SVG/1.1/DTD/svg11.dtd">
<!-- Generated by graphviz version 2.26.3 (20100126.1600)
 -->
<!-- Title: tetgenio::load_var Pages: 1 -->
<svg width="262pt" height="70pt"
 viewBox="0.00 0.00 262.00 70.00" xmlns="http://www.w3.org/2000/svg" xmlns:xlink="http://www.w3.org/1999/xlink">
<g id="graph1" class="graph" transform="scale(1 1) rotate(0) translate(4 66)">
<title>tetgenio::load_var</title>
<!-- Node1 -->
<g id="node1" class="node"><title>Node1</title>
<polygon fill="#bfbfbf" stroke="black" points="0,-20.5 0,-41.5 94,-41.5 94,-20.5 0,-20.5"/>
<text text-anchor="middle" x="47" y="-28.5" font-family="Helvetica,sans-Serif" font-size="10.00">tetgenio::load_var</text>
</g>
<!-- Node2 -->
<g id="node3" class="node"><title>Node2</title>
<a xlink:href="classtetgenio.xhtml#a5e59fa66b5f0f4a7b7aa72df554ac1c7" target="_top" xlink:title="tetgenio::readnumberline">
<polygon fill="none" stroke="black" points="130.5,-40.5 130.5,-61.5 253.5,-61.5 253.5,-40.5 130.5,-40.5"/>
<text text-anchor="middle" x="192" y="-48.5" font-family="Helvetica,sans-Serif" font-size="10.00">tetgenio::readnumberline</text>
</a>
</g>
<!-- Node1&#45;&gt;Node2 -->
<g id="edge2" class="edge"><title>Node1&#45;&gt;Node2</title>
<path fill="none" stroke="midnightblue" d="M94.0773,-37.4934C102.489,-38.6536 111.423,-39.8859 120.34,-41.1159"/>
<polygon fill="midnightblue" stroke="midnightblue" points="119.988,-44.6003 130.372,-42.4996 120.944,-37.666 119.988,-44.6003"/>
</g>
<!-- Node3 -->
<g id="node5" class="node"><title>Node3</title>
<a xlink:href="classtetgenio.xhtml#a9a30e99d63fb2288525cdbda2b887c38" target="_top" xlink:title="tetgenio::findnextnumber">
<polygon fill="none" stroke="black" points="130,-0.5 130,-21.5 254,-21.5 254,-0.5 130,-0.5"/>
<text text-anchor="middle" x="192" y="-8.5" font-family="Helvetica,sans-Serif" font-size="10.00">tetgenio::findnextnumber</text>
</a>
</g>
<!-- Node1&#45;&gt;Node3 -->
<g id="edge4" class="edge"><title>Node1&#45;&gt;Node3</title>
<path fill="none" stroke="midnightblue" d="M94.0773,-24.5066C102.28,-23.3752 110.979,-22.1753 119.675,-20.9759"/>
<polygon fill="midnightblue" stroke="midnightblue" points="120.423,-24.4059 129.851,-19.5722 119.467,-17.4715 120.423,-24.4059"/>
</g>
</g>
</svg>
