<?xml version="1.0" encoding="UTF-8" standalone="no"?>
<!DOCTYPE svg PUBLIC "-//W3C//DTD SVG 1.1//EN"
 "http://www.w3.org/Graphics/SVG/1.1/DTD/svg11.dtd">
<!-- Generated by graphviz version 2.26.3 (20100126.1600)
 -->
<!-- Title: GUIMainWindow Pages: 1 -->
<!--zoomable 344 -->
<svg id="main" version="1.1" xmlns="http://www.w3.org/2000/svg" xmlns:xlink="http://www.w3.org/1999/xlink" xml:space="preserve" onload="init(evt)">
<style type="text/css"><![CDATA[
.edge:hover path { stroke: red; }
.edge:hover polygon { stroke: red; fill: red; }
]]></style>
<script type="text/javascript"><![CDATA[
var edges = document.getElementsByTagName('g');
if (edges && edges.length) {
  for (var i=0;i<edges.length;i++) {
    if (edges[i].id.substr(0,4)=='edge') {
      edges[i].setAttribute('class','edge');
    }
  }
}
]]></script>
        <defs>
                <circle id="rim" cx="0" cy="0" r="7"/>
                <circle id="rim2" cx="0" cy="0" r="3.5"/>
                <g id="zoomPlus">
                        <use xlink:href="#rim" fill="#404040">
                                <set attributeName="fill" to="#808080" begin="zoomplus.mouseover" end="zoomplus.mouseout"/>
                        </use>
                        <path d="M-4,0h8M0,-4v8" fill="none" stroke="white" stroke-width="1.5" pointer-events="none"/>
                </g>
                <g id="zoomMin">
                        <use xlink:href="#rim" fill="#404040">
                                <set attributeName="fill" to="#808080" begin="zoomminus.mouseover" end="zoomminus.mouseout"/>
                        </use>
                        <path d="M-4,0h8" fill="none" stroke="white" stroke-width="1.5" pointer-events="none"/>
                </g>
                <g id="dirArrow">
                        <path fill="none" stroke="white" stroke-width="1.5" d="M0,-3.0v7 M-2.5,-0.5L0,-3.0L2.5,-0.5"/>
                </g>
               <g id="resetDef">
                       <use xlink:href="#rim2" fill="#404040">
                               <set attributeName="fill" to="#808080" begin="reset.mouseover" end="reset.mouseout"/>
                       </use>
               </g>
        </defs>

<script type="text/javascript">
var viewWidth = 1250;
var viewHeight = 344;
var sectionId = 'dynsection-1';
</script>
<script xlink:href="svgpan.js"/>
<svg id="graph" class="graph">
<g id="viewport">
<title>GUIMainWindow</title>
<!-- Node1 -->
<g id="node1" class="node"><title>Node1</title>
<polygon fill="#bfbfbf" stroke="black" points="1150.5,-223.5 1150.5,-244.5 1241.5,-244.5 1241.5,-223.5 1150.5,-223.5"/>
<text text-anchor="middle" x="1196" y="-231.5" font-family="Helvetica,sans-Serif" font-size="10.00">GUIMainWindow</text>
</g>
<!-- Node2 -->
<g id="node2" class="node"><title>Node2</title>
<polygon fill="none" stroke="#bfbfbf" points="727.5,-300.5 727.5,-321.5 784.5,-321.5 784.5,-300.5 727.5,-300.5"/>
<text text-anchor="middle" x="756" y="-308.5" font-family="Helvetica,sans-Serif" font-size="10.00">wxFrame</text>
</g>
<!-- Node2&#45;&gt;Node1 -->
<g id="edge2" class="edge"><title>Node2&#45;&gt;Node1</title>
<path fill="none" stroke="midnightblue" d="M794.899,-320.037C866.349,-334.487 1021.3,-355.677 1132,-298 1156.8,-285.076 1178.06,-259.183 1188.7,-244.604"/>
<polygon fill="midnightblue" stroke="midnightblue" points="795.483,-316.584 784.978,-317.964 794.051,-323.436 795.483,-316.584"/>
</g>
<!-- Node20 -->
<g id="node40" class="node"><title>Node20</title>
<a xlink:href="classGUICutRenderWindow.xhtml" target="_top" xlink:title="Fenster zum erstellen zweidimensionaler Temperaturverteilungen. ">
<polygon fill="none" stroke="black" points="910.5,-244.5 910.5,-265.5 1027.5,-265.5 1027.5,-244.5 910.5,-244.5"/>
<text text-anchor="middle" x="969" y="-252.5" font-family="Helvetica,sans-Serif" font-size="10.00">GUICutRenderWindow</text>
</a>
</g>
<!-- Node2&#45;&gt;Node20 -->
<g id="edge44" class="edge"><title>Node2&#45;&gt;Node20</title>
<path fill="none" stroke="midnightblue" d="M794.882,-300.778C832.839,-290.798 890.338,-275.681 928.754,-265.581"/>
<polygon fill="midnightblue" stroke="midnightblue" points="793.507,-297.52 784.726,-303.448 795.287,-304.29 793.507,-297.52"/>
</g>
<!-- Node23 -->
<g id="node48" class="node"><title>Node23</title>
<a xlink:href="classGUIAnalyzeOutputWindow.xhtml" target="_top" xlink:title="Übersichtsfenster über die Analysedaten. ">
<polygon fill="none" stroke="black" points="902,-284.5 902,-305.5 1036,-305.5 1036,-284.5 902,-284.5"/>
<text text-anchor="middle" x="969" y="-292.5" font-family="Helvetica,sans-Serif" font-size="10.00">GUIAnalyzeOutputWindow</text>
</a>
</g>
<!-- Node2&#45;&gt;Node23 -->
<g id="edge54" class="edge"><title>Node2&#45;&gt;Node23</title>
<path fill="none" stroke="midnightblue" d="M794.743,-308.09C824.582,-305.848 866.556,-302.695 901.832,-300.046"/>
<polygon fill="midnightblue" stroke="midnightblue" points="794.436,-304.603 784.726,-308.842 794.96,-311.583 794.436,-304.603"/>
</g>
<!-- Node3 -->
<g id="node4" class="node"><title>Node3</title>
<a xlink:href="classPropertiesBox.xhtml" target="_top" xlink:title="Oberfläche zum Verändern/Anzeigen der Eigenschaften eines Objekts. ">
<polygon fill="none" stroke="black" points="930,-204.5 930,-225.5 1008,-225.5 1008,-204.5 930,-204.5"/>
<text text-anchor="middle" x="969" y="-212.5" font-family="Helvetica,sans-Serif" font-size="10.00">PropertiesBox</text>
</a>
</g>
<!-- Node3&#45;&gt;Node1 -->
<g id="edge4" class="edge"><title>Node3&#45;&gt;Node1</title>
<path fill="none" stroke="#9a32cd" stroke-dasharray="5,2" d="M1018.18,-213.019C1050.64,-212.42 1094.02,-212.97 1132,-218 1141.2,-219.218 1150.98,-221.267 1160.06,-223.5"/>
<polygon fill="#9a32cd" stroke="#9a32cd" points="1017.97,-209.523 1008.05,-213.25 1018.12,-216.521 1017.97,-209.523"/>
<text text-anchor="middle" x="1093" y="-222" font-family="Helvetica,sans-Serif" font-size="10.00"> propbox</text>
</g>
<!-- Node4 -->
<g id="node6" class="node"><title>Node4</title>
<polygon fill="none" stroke="#bfbfbf" points="720,-166.5 720,-187.5 792,-187.5 792,-166.5 720,-166.5"/>
<text text-anchor="middle" x="756" y="-174.5" font-family="Helvetica,sans-Serif" font-size="10.00">wxStaticBox</text>
</g>
<!-- Node4&#45;&gt;Node3 -->
<g id="edge6" class="edge"><title>Node4&#45;&gt;Node3</title>
<path fill="none" stroke="midnightblue" d="M802.444,-185.286C840.528,-192.08 893.834,-201.59 929.797,-208.006"/>
<polygon fill="midnightblue" stroke="midnightblue" points="802.592,-181.757 792.133,-183.446 801.362,-188.648 802.592,-181.757"/>
</g>
<!-- Node24 -->
<g id="node51" class="node"><title>Node24</title>
<a xlink:href="classViewpropBox.xhtml" target="_top" xlink:title="Oberfläche zum Verändern/Anzeigen der Visualisierungsoptionen. ">
<polygon fill="none" stroke="black" points="932,-158.5 932,-179.5 1006,-179.5 1006,-158.5 932,-158.5"/>
<text text-anchor="middle" x="969" y="-166.5" font-family="Helvetica,sans-Serif" font-size="10.00">ViewpropBox</text>
</a>
</g>
<!-- Node4&#45;&gt;Node24 -->
<g id="edge58" class="edge"><title>Node4&#45;&gt;Node24</title>
<path fill="none" stroke="midnightblue" d="M802.147,-175.267C841.025,-173.807 895.922,-171.745 931.974,-170.391"/>
<polygon fill="midnightblue" stroke="midnightblue" points="801.994,-171.77 792.133,-175.643 802.257,-178.765 801.994,-171.77"/>
</g>
<!-- Node5 -->
<g id="node8" class="node"><title>Node5</title>
<a xlink:href="classGUITimeline.xhtml" target="_top" xlink:title="Eine Zeitleistenkomponente. ">
<polygon fill="none" stroke="black" points="720.5,-209.5 720.5,-230.5 791.5,-230.5 791.5,-209.5 720.5,-209.5"/>
<text text-anchor="middle" x="756" y="-217.5" font-family="Helvetica,sans-Serif" font-size="10.00">GUITimeline</text>
</a>
</g>
<!-- Node5&#45;&gt;Node3 -->
<g id="edge8" class="edge"><title>Node5&#45;&gt;Node3</title>
<path fill="none" stroke="#9a32cd" stroke-dasharray="5,2" d="M801.98,-218.921C840.159,-218.024 893.87,-216.764 929.98,-215.916"/>
<polygon fill="#9a32cd" stroke="#9a32cd" points="801.566,-215.429 791.651,-219.163 801.731,-222.427 801.566,-215.429"/>
<text text-anchor="middle" x="858" y="-222" font-family="Helvetica,sans-Serif" font-size="10.00"> sdTimeline</text>
</g>
<!-- Node6 -->
<g id="node10" class="node"><title>Node6</title>
<polygon fill="none" stroke="#bfbfbf" points="476,-253.5 476,-274.5 530,-274.5 530,-253.5 476,-253.5"/>
<text text-anchor="middle" x="503" y="-261.5" font-family="Helvetica,sans-Serif" font-size="10.00">wxPanel</text>
</g>
<!-- Node6&#45;&gt;Node5 -->
<g id="edge10" class="edge"><title>Node6&#45;&gt;Node5</title>
<path fill="none" stroke="midnightblue" d="M540.119,-257.544C588.493,-249.132 672.517,-234.519 720.221,-226.222"/>
<polygon fill="midnightblue" stroke="midnightblue" points="539.328,-254.129 530.075,-259.291 540.527,-261.026 539.328,-254.129"/>
</g>
<!-- Node21 -->
<g id="node43" class="node"><title>Node21</title>
<a xlink:href="classGUIRenderCutCanvas.xhtml" target="_top" xlink:title="Zeichenfläche für die 2D&#45;Temperaturverteilung. ">
<polygon fill="none" stroke="black" points="698,-260.5 698,-281.5 814,-281.5 814,-260.5 698,-260.5"/>
<text text-anchor="middle" x="756" y="-268.5" font-family="Helvetica,sans-Serif" font-size="10.00">GUIRenderCutCanvas</text>
</a>
</g>
<!-- Node6&#45;&gt;Node21 -->
<g id="edge48" class="edge"><title>Node6&#45;&gt;Node21</title>
<path fill="none" stroke="midnightblue" d="M540.299,-265.032C581.837,-266.181 649.502,-268.053 697.972,-269.394"/>
<polygon fill="midnightblue" stroke="midnightblue" points="540.168,-261.527 530.075,-264.749 539.975,-268.524 540.168,-261.527"/>
</g>
<!-- Node7 -->
<g id="node12" class="node"><title>Node7</title>
<a xlink:href="classstd_1_1vector.xhtml" target="_top" xlink:title="std::vector\&lt; string \&gt;">
<polygon fill="none" stroke="black" points="450.5,-170.5 450.5,-191.5 555.5,-191.5 555.5,-170.5 450.5,-170.5"/>
<text text-anchor="middle" x="503" y="-178.5" font-family="Helvetica,sans-Serif" font-size="10.00">std::vector&lt; string &gt;</text>
</a>
</g>
<!-- Node7&#45;&gt;Node5 -->
<g id="edge12" class="edge"><title>Node7&#45;&gt;Node5</title>
<path fill="none" stroke="#9a32cd" stroke-dasharray="5,2" d="M565.755,-186.679C599.713,-190.195 642.307,-195.323 680,-202 693.218,-204.341 707.579,-207.564 720.221,-210.636"/>
<polygon fill="#9a32cd" stroke="#9a32cd" points="565.811,-183.167 555.509,-185.639 565.105,-190.131 565.811,-183.167"/>
<text text-anchor="middle" x="631" y="-206" font-family="Helvetica,sans-Serif" font-size="10.00"> names</text>
</g>
<!-- Node8 -->
<g id="node14" class="node"><title>Node8</title>
<a xlink:href="classstd_1_1vector.xhtml" target="_top" xlink:title="std::vector\&lt; int \&gt;">
<polygon fill="none" stroke="black" points="457,-210.5 457,-231.5 549,-231.5 549,-210.5 457,-210.5"/>
<text text-anchor="middle" x="503" y="-218.5" font-family="Helvetica,sans-Serif" font-size="10.00">std::vector&lt; int &gt;</text>
</a>
</g>
<!-- Node8&#45;&gt;Node5 -->
<g id="edge14" class="edge"><title>Node8&#45;&gt;Node5</title>
<path fill="none" stroke="#9a32cd" stroke-dasharray="5,2" d="M559.557,-220.197C567.103,-220.116 574.739,-220.046 582,-220 629.879,-219.697 685.171,-219.769 720.342,-219.868"/>
<polygon fill="#9a32cd" stroke="#9a32cd" points="559.326,-216.7 549.368,-220.315 559.407,-223.699 559.326,-216.7"/>
<text text-anchor="middle" x="631" y="-224" font-family="Helvetica,sans-Serif" font-size="10.00"> markers</text>
</g>
<!-- Node9 -->
<g id="node16" class="node"><title>Node9</title>
<a xlink:href="classGUIGLCanvas.xhtml" target="_top" xlink:title="Zeichenfläche für das 3D&#45;Fenster. ">
<polygon fill="none" stroke="black" points="928.5,-107.5 928.5,-128.5 1009.5,-128.5 1009.5,-107.5 928.5,-107.5"/>
<text text-anchor="middle" x="969" y="-115.5" font-family="Helvetica,sans-Serif" font-size="10.00">GUIGLCanvas</text>
</a>
</g>
<!-- Node9&#45;&gt;Node1 -->
<g id="edge16" class="edge"><title>Node9&#45;&gt;Node1</title>
<path fill="none" stroke="#9a32cd" stroke-dasharray="5,2" d="M1019.68,-122.645C1053.55,-127.617 1097.96,-137.875 1132,-159 1158.76,-175.607 1180.12,-207.087 1190.01,-223.48"/>
<polygon fill="#9a32cd" stroke="#9a32cd" points="1019.91,-119.144 1009.53,-121.266 1018.97,-126.081 1019.91,-119.144"/>
<text text-anchor="middle" x="1093" y="-163" font-family="Helvetica,sans-Serif" font-size="10.00"> gl_context</text>
</g>
<!-- Node10 -->
<g id="node18" class="node"><title>Node10</title>
<polygon fill="none" stroke="#bfbfbf" points="718,-67.5 718,-88.5 794,-88.5 794,-67.5 718,-67.5"/>
<text text-anchor="middle" x="756" y="-75.5" font-family="Helvetica,sans-Serif" font-size="10.00">wxGLCanvas</text>
</g>
<!-- Node10&#45;&gt;Node9 -->
<g id="edge18" class="edge"><title>Node10&#45;&gt;Node9</title>
<path fill="none" stroke="midnightblue" d="M804.246,-87.0603C841.681,-94.0903 892.986,-103.725 928.349,-110.366"/>
<polygon fill="midnightblue" stroke="midnightblue" points="804.554,-83.5571 794.08,-85.1512 803.262,-90.4368 804.554,-83.5571"/>
</g>
<!-- Node11 -->
<g id="node20" class="node"><title>Node11</title>
<a xlink:href="classRenderer.xhtml" target="_top" xlink:title="Zeichnet den Inhalt der 3D&#45;Fensters. ">
<polygon fill="none" stroke="black" points="728,-107.5 728,-128.5 784,-128.5 784,-107.5 728,-107.5"/>
<text text-anchor="middle" x="756" y="-115.5" font-family="Helvetica,sans-Serif" font-size="10.00">Renderer</text>
</a>
</g>
<!-- Node11&#45;&gt;Node9 -->
<g id="edge20" class="edge"><title>Node11&#45;&gt;Node9</title>
<path fill="none" stroke="#9a32cd" stroke-dasharray="5,2" d="M794.382,-118C832.147,-118 889.602,-118 928.185,-118"/>
<polygon fill="#9a32cd" stroke="#9a32cd" points="794.285,-114.5 784.285,-118 794.285,-121.5 794.285,-114.5"/>
<text text-anchor="middle" x="858" y="-122" font-family="Helvetica,sans-Serif" font-size="10.00"> renderer</text>
</g>
<!-- Node12 -->
<g id="node22" class="node"><title>Node12</title>
<a xlink:href="structRenderer_1_1Viewport__info.xhtml" target="_top" xlink:title="Informationen über die Ansicht des Modells (Virtuelle Kamera) und welche Elemente dargestellt werden...">
<polygon fill="none" stroke="black" points="442,-130.5 442,-151.5 564,-151.5 564,-130.5 442,-130.5"/>
<text text-anchor="middle" x="503" y="-138.5" font-family="Helvetica,sans-Serif" font-size="10.00">Renderer::Viewport_info</text>
</a>
</g>
<!-- Node12&#45;&gt;Node11 -->
<g id="edge22" class="edge"><title>Node12&#45;&gt;Node11</title>
<path fill="none" stroke="#9a32cd" stroke-dasharray="5,2" d="M574.231,-134.524C625.223,-129.889 691.13,-123.897 727.943,-120.551"/>
<polygon fill="#9a32cd" stroke="#9a32cd" points="573.886,-131.041 564.244,-135.432 574.52,-138.013 573.886,-131.041"/>
<text text-anchor="middle" x="631" y="-137" font-family="Helvetica,sans-Serif" font-size="10.00"> viewport</text>
</g>
<!-- Node13 -->
<g id="node24" class="node"><title>Node13</title>
<a xlink:href="classTriangle.xhtml" target="_top" xlink:title="Ein durch 3 Ortsvektoren beschriebenes Dreieck. ">
<polygon fill="none" stroke="black" points="243.5,-107.5 243.5,-128.5 294.5,-128.5 294.5,-107.5 243.5,-107.5"/>
<text text-anchor="middle" x="269" y="-115.5" font-family="Helvetica,sans-Serif" font-size="10.00">Triangle</text>
</a>
</g>
<!-- Node13&#45;&gt;Node12 -->
<g id="edge24" class="edge"><title>Node13&#45;&gt;Node12</title>
<path fill="none" stroke="#9a32cd" stroke-dasharray="5,2" d="M305.095,-121.548C341.534,-125.129 398.487,-130.727 441.958,-135"/>
<polygon fill="#9a32cd" stroke="#9a32cd" points="305.231,-118.044 294.936,-120.549 304.546,-125.011 305.231,-118.044"/>
<text text-anchor="middle" x="389" y="-136" font-family="Helvetica,sans-Serif" font-size="10.00"> cut</text>
</g>
<!-- Node19 -->
<g id="node37" class="node"><title>Node19</title>
<a xlink:href="structUtils_1_1CutRender__info.xhtml" target="_top" xlink:title="Daten zur Darstellung einer 2D&#45;Temperaturverteilungs&#45;Ebene. ">
<polygon fill="none" stroke="black" points="447.5,-90.5 447.5,-111.5 558.5,-111.5 558.5,-90.5 447.5,-90.5"/>
<text text-anchor="middle" x="503" y="-98.5" font-family="Helvetica,sans-Serif" font-size="10.00">Utils::CutRender_info</text>
</a>
</g>
<!-- Node13&#45;&gt;Node19 -->
<g id="edge40" class="edge"><title>Node13&#45;&gt;Node19</title>
<path fill="none" stroke="#9a32cd" stroke-dasharray="5,2" d="M304.83,-109.779C319.921,-106.702 337.727,-103.573 354,-102 384.77,-99.0251 419.28,-98.6096 447.334,-99.0124"/>
<polygon fill="#9a32cd" stroke="#9a32cd" points="303.93,-106.392 294.868,-111.881 305.375,-113.241 303.93,-106.392"/>
<text text-anchor="middle" x="389" y="-106" font-family="Helvetica,sans-Serif" font-size="10.00"> tri</text>
</g>
<!-- Node14 -->
<g id="node26" class="node"><title>Node14</title>
<a xlink:href="classVector3D.xhtml" target="_top" xlink:title="3D&#45;Vektorklasse mit nützlichen Operationen. ">
<polygon fill="none" stroke="black" points="35,-139.5 35,-160.5 93,-160.5 93,-139.5 35,-139.5"/>
<text text-anchor="middle" x="64" y="-147.5" font-family="Helvetica,sans-Serif" font-size="10.00">Vector3D</text>
</a>
</g>
<!-- Node14&#45;&gt;Node12 -->
<g id="edge28" class="edge"><title>Node14&#45;&gt;Node12</title>
<path fill="none" stroke="#9a32cd" stroke-dasharray="5,2" d="M103.599,-150.58C117.056,-150.752 132.182,-150.916 146,-151 269.556,-151.753 300.626,-155.746 424,-149 429.781,-148.684 435.792,-148.256 441.801,-147.762"/>
<polygon fill="#9a32cd" stroke="#9a32cd" points="103.267,-147.076 93.2215,-150.443 103.174,-154.075 103.267,-147.076"/>
<text text-anchor="middle" x="269" y="-156" font-family="Helvetica,sans-Serif" font-size="10.00"> cameraPosition</text>
</g>
<!-- Node14&#45;&gt;Node13 -->
<g id="edge26" class="edge"><title>Node14&#45;&gt;Node13</title>
<path fill="none" stroke="#9a32cd" stroke-dasharray="5,2" d="M103.333,-143.86C144.526,-137.43 208.028,-127.518 243.246,-122.02"/>
<polygon fill="#9a32cd" stroke="#9a32cd" points="102.712,-140.415 93.3715,-145.415 103.792,-147.331 102.712,-140.415"/>
<text text-anchor="middle" x="165" y="-140" font-family="Helvetica,sans-Serif" font-size="10.00"> verts</text>
</g>
<!-- Node15 -->
<g id="node29" class="node"><title>Node15</title>
<a xlink:href="classObjectData.xhtml" target="_top" xlink:title="Die Daten eines Versuchsobjekts. ">
<polygon fill="none" stroke="black" points="470,-50.5 470,-71.5 536,-71.5 536,-50.5 470,-50.5"/>
<text text-anchor="middle" x="503" y="-58.5" font-family="Helvetica,sans-Serif" font-size="10.00">ObjectData</text>
</a>
</g>
<!-- Node15&#45;&gt;Node11 -->
<g id="edge30" class="edge"><title>Node15&#45;&gt;Node11</title>
<path fill="none" stroke="#9a32cd" stroke-dasharray="5,2" d="M546.525,-59.681C583.493,-60.106 637.207,-64.4416 680,-83 689.554,-87.1433 688.929,-92.8854 698,-98 707.278,-103.231 718.158,-107.427 727.972,-110.599"/>
<polygon fill="#9a32cd" stroke="#9a32cd" points="546.101,-56.1803 536.093,-59.6596 546.086,-63.1802 546.101,-56.1803"/>
<text text-anchor="middle" x="631" y="-87" font-family="Helvetica,sans-Serif" font-size="10.00"> object</text>
</g>
<!-- Node16 -->
<g id="node31" class="node"><title>Node16</title>
<a xlink:href="classstd_1_1vector.xhtml" target="_top" xlink:title="std::vector\&lt; ObjectData\l::MaterialData \&gt;">
<polygon fill="none" stroke="black" points="208,-0 208,-34 330,-34 330,-0 208,-0"/>
<text text-anchor="start" x="216" y="-21" font-family="Helvetica,sans-Serif" font-size="10.00">std::vector&lt; ObjectData</text>
<text text-anchor="middle" x="269" y="-8" font-family="Helvetica,sans-Serif" font-size="10.00">::MaterialData &gt;</text>
</a>
</g>
<!-- Node16&#45;&gt;Node15 -->
<g id="edge32" class="edge"><title>Node16&#45;&gt;Node15</title>
<path fill="none" stroke="#9a32cd" stroke-dasharray="5,2" d="M340.12,-28.7823C366.506,-33.3132 396.659,-38.6791 424,-44 439.01,-46.9212 455.56,-50.4367 469.618,-53.5109"/>
<polygon fill="#9a32cd" stroke="#9a32cd" points="340.652,-25.3225 330.205,-27.0885 339.473,-32.2226 340.652,-25.3225"/>
<text text-anchor="middle" x="389" y="-48" font-family="Helvetica,sans-Serif" font-size="10.00"> materials</text>
</g>
<!-- Node17 -->
<g id="node33" class="node"><title>Node17</title>
<a xlink:href="structObjectData_1_1MaterialData.xhtml" target="_top" xlink:title="Die Daten eines Materials. ">
<polygon fill="none" stroke="black" points="0,-6.5 0,-27.5 128,-27.5 128,-6.5 0,-6.5"/>
<text text-anchor="middle" x="64" y="-14.5" font-family="Helvetica,sans-Serif" font-size="10.00">ObjectData::MaterialData</text>
</a>
</g>
<!-- Node17&#45;&gt;Node16 -->
<g id="edge34" class="edge"><title>Node17&#45;&gt;Node16</title>
<path fill="none" stroke="#9a32cd" stroke-dasharray="5,2" d="M138.047,-17C160.977,-17 185.969,-17 207.916,-17"/>
<polygon fill="#9a32cd" stroke="#9a32cd" points="138.02,-13.5001 128.02,-17 138.02,-20.5001 138.02,-13.5001"/>
<text text-anchor="middle" x="165" y="-21" font-family="Helvetica,sans-Serif" font-size="10.00"> element</text>
</g>
<!-- Node18 -->
<g id="node35" class="node"><title>Node18</title>
<a xlink:href="classstd_1_1vector.xhtml" target="_top" xlink:title="std::vector\&lt; SensorData \&gt;">
<polygon fill="none" stroke="black" points="202.5,-52.5 202.5,-73.5 335.5,-73.5 335.5,-52.5 202.5,-52.5"/>
<text text-anchor="middle" x="269" y="-60.5" font-family="Helvetica,sans-Serif" font-size="10.00">std::vector&lt; SensorData &gt;</text>
</a>
</g>
<!-- Node18&#45;&gt;Node15 -->
<g id="edge36" class="edge"><title>Node18&#45;&gt;Node15</title>
<path fill="none" stroke="#9a32cd" stroke-dasharray="5,2" d="M345.963,-62.3422C387.988,-61.983 437.85,-61.5568 469.933,-61.2826"/>
<polygon fill="#9a32cd" stroke="#9a32cd" points="345.712,-58.8441 335.742,-62.4296 345.771,-65.8439 345.712,-58.8441"/>
<text text-anchor="middle" x="389" y="-66" font-family="Helvetica,sans-Serif" font-size="10.00"> sensorDataList</text>
</g>
<!-- Node19&#45;&gt;Node11 -->
<g id="edge38" class="edge"><title>Node19&#45;&gt;Node11</title>
<path fill="none" stroke="#9a32cd" stroke-dasharray="5,2" d="M568.635,-100.193C602.046,-100.363 643.262,-101.462 680,-105 695.989,-106.54 713.688,-109.492 727.98,-112.195"/>
<polygon fill="#9a32cd" stroke="#9a32cd" points="568.539,-96.6932 558.531,-100.169 568.522,-103.693 568.539,-96.6932"/>
<text text-anchor="middle" x="631" y="-109" font-family="Helvetica,sans-Serif" font-size="10.00"> cut_visualisation_info</text>
</g>
<!-- Node20&#45;&gt;Node1 -->
<g id="edge42" class="edge"><title>Node20&#45;&gt;Node1</title>
<path fill="none" stroke="#9a32cd" stroke-dasharray="5,2" d="M1037.83,-248.632C1074.32,-245.257 1118.14,-241.203 1150.39,-238.22"/>
<polygon fill="#9a32cd" stroke="#9a32cd" points="1037.39,-245.158 1027.75,-249.565 1038.03,-252.129 1037.39,-245.158"/>
<text text-anchor="middle" x="1093" y="-250" font-family="Helvetica,sans-Serif" font-size="10.00"> rendercutwindow</text>
</g>
<!-- Node21&#45;&gt;Node20 -->
<g id="edge46" class="edge"><title>Node21&#45;&gt;Node20</title>
<path fill="none" stroke="#9a32cd" stroke-dasharray="5,2" d="M816.527,-258.91C821.745,-258.154 826.956,-257.498 832,-257 857.566,-254.477 885.944,-253.726 910.211,-253.702"/>
<polygon fill="#9a32cd" stroke="#9a32cd" points="815.864,-255.471 806.524,-260.473 816.945,-262.387 815.864,-255.471"/>
<text text-anchor="middle" x="858" y="-261" font-family="Helvetica,sans-Serif" font-size="10.00"> canvas</text>
</g>
<!-- Node22 -->
<g id="node46" class="node"><title>Node22</title>
<a xlink:href="classGUIColorScalePanel.xhtml" target="_top" xlink:title="Farbige Temperaturskala für zweidimensionale Temperaturverteilung. ">
<polygon fill="none" stroke="black" points="449.5,-294.5 449.5,-315.5 556.5,-315.5 556.5,-294.5 449.5,-294.5"/>
<text text-anchor="middle" x="503" y="-302.5" font-family="Helvetica,sans-Serif" font-size="10.00">GUIColorScalePanel</text>
</a>
</g>
<!-- Node22&#45;&gt;Node21 -->
<g id="edge50" class="edge"><title>Node22&#45;&gt;Node21</title>
<path fill="none" stroke="#9a32cd" stroke-dasharray="5,2" d="M566.618,-296.451C606.824,-291.047 658.398,-284.117 697.569,-278.852"/>
<polygon fill="#9a32cd" stroke="#9a32cd" points="566.1,-292.989 556.655,-297.789 567.032,-299.926 566.1,-292.989"/>
<text text-anchor="middle" x="631" y="-298" font-family="Helvetica,sans-Serif" font-size="10.00"> scalepanel</text>
</g>
<!-- Node23&#45;&gt;Node1 -->
<g id="edge52" class="edge"><title>Node23&#45;&gt;Node1</title>
<path fill="none" stroke="#9a32cd" stroke-dasharray="5,2" d="M1046.06,-283.653C1073.53,-278.62 1104.48,-271.805 1132,-263 1147.22,-258.13 1163.62,-250.651 1176.01,-244.507"/>
<polygon fill="#9a32cd" stroke="#9a32cd" points="1045.33,-280.227 1036.1,-285.427 1046.56,-287.118 1045.33,-280.227"/>
<text text-anchor="middle" x="1093" y="-285" font-family="Helvetica,sans-Serif" font-size="10.00"> analyzerframe</text>
</g>
<!-- Node24&#45;&gt;Node1 -->
<g id="edge56" class="edge"><title>Node24&#45;&gt;Node1</title>
<path fill="none" stroke="#9a32cd" stroke-dasharray="5,2" d="M1016.62,-171.708C1049.8,-174.76 1094.63,-181.243 1132,-195 1150.56,-201.832 1169.64,-214.3 1182.08,-223.303"/>
<polygon fill="#9a32cd" stroke="#9a32cd" points="1016.55,-168.189 1006.29,-170.833 1015.95,-175.164 1016.55,-168.189"/>
<text text-anchor="middle" x="1093" y="-199" font-family="Helvetica,sans-Serif" font-size="10.00"> viewbox</text>
</g>
</g>
</svg>
        <g id="navigator" transform="translate(0 0)" fill="#404254">
                <rect fill="#f2f5e9" fill-opacity="0.5" stroke="#606060" stroke-width=".5" x="0" y="0" width="60" height="60"/>
                <use id="zoomplus" xlink:href="#zoomPlus" x="17" y="9" onmousedown="handleZoom(evt,'in')"/>
                <use id="zoomminus" xlink:href="#zoomMin" x="42" y="9" onmousedown="handleZoom(evt,'out')"/>
                <use id="reset" xlink:href="#resetDef" x="30" y="36" onmousedown="handleReset()"/>
                <g id="arrowUp" xlink:href="#dirArrow" transform="translate(30 24)" onmousedown="handlePan(0,-1)">
                  <use xlink:href="#rim" fill="#404040">
                        <set attributeName="fill" to="#808080" begin="arrowUp.mouseover" end="arrowUp.mouseout"/>
                  </use>
                  <path fill="none" stroke="white" stroke-width="1.5" d="M0,-3.0v7 M-2.5,-0.5L0,-3.0L2.5,-0.5"/>
                </g>
                <g id="arrowRight" xlink:href="#dirArrow" transform="rotate(90) translate(36 -43)" onmousedown="handlePan(1,0)">
                  <use xlink:href="#rim" fill="#404040">
                        <set attributeName="fill" to="#808080" begin="arrowRight.mouseover" end="arrowRight.mouseout"/>
                  </use>
                  <path fill="none" stroke="white" stroke-width="1.5" d="M0,-3.0v7 M-2.5,-0.5L0,-3.0L2.5,-0.5"/>
                </g>
                <g id="arrowDown" xlink:href="#dirArrow" transform="rotate(180) translate(-30 -48)" onmousedown="handlePan(0,1)">
                  <use xlink:href="#rim" fill="#404040">
                        <set attributeName="fill" to="#808080" begin="arrowDown.mouseover" end="arrowDown.mouseout"/>
                  </use>
                  <path fill="none" stroke="white" stroke-width="1.5" d="M0,-3.0v7 M-2.5,-0.5L0,-3.0L2.5,-0.5"/>
                </g>
                <g id="arrowLeft" xlink:href="#dirArrow" transform="rotate(270) translate(-36 17)" onmousedown="handlePan(-1,0)">
                  <use xlink:href="#rim" fill="#404040">
                        <set attributeName="fill" to="#808080" begin="arrowLeft.mouseover" end="arrowLeft.mouseout"/>
                  </use>
                  <path fill="none" stroke="white" stroke-width="1.5" d="M0,-3.0v7 M-2.5,-0.5L0,-3.0L2.5,-0.5"/>
                </g>
        </g>
        <svg viewBox="0 0 15 15" width="100%" height="30px" preserveAspectRatio="xMaxYMin meet">
         <g id="arrow_out" transform="scale(0.3 0.3)">
          <a xlink:href="classGUIMainWindow__coll__graph_org.svg" target="_base">
           <rect id="button" ry="5" rx="5" y="6" x="6" height="38" width="38"
                fill="#f2f5e9" fill-opacity="0.5" stroke="#606060" stroke-width="1.0"/>
           <path id="arrow"
             d="M 11.500037,31.436501 C 11.940474,20.09759 22.043105,11.32322 32.158766,21.979434 L 37.068811,17.246167 C 37.068811,17.246167 37.088388,32 37.088388,32 L 22.160133,31.978069 C 22.160133,31.978069 26.997745,27.140456 26.997745,27.140456 C 18.528582,18.264221 13.291696,25.230495 11.500037,31.436501 z"
             style="fill:#404040;"/>
          </a>
         </g>
        </svg>
</svg>
