<?xml version="1.0" encoding="UTF-8" standalone="no"?>
<!DOCTYPE svg PUBLIC "-//W3C//DTD SVG 1.1//EN"
 "http://www.w3.org/Graphics/SVG/1.1/DTD/svg11.dtd">
<!-- Generated by graphviz version 2.36.0 (20140111.2315)
 -->
<!-- Title: ParticleSystem Pages: 1 -->
<svg width="146pt" height="176pt"
 viewBox="0.00 0.00 146.00 176.00" xmlns="http://www.w3.org/2000/svg" xmlns:xlink="http://www.w3.org/1999/xlink">
<g id="graph0" class="graph" transform="scale(1 1) rotate(0) translate(4 172)">
<title>ParticleSystem</title>
<!-- Node1 -->
<g id="node1" class="node"><title>Node1</title>
<polygon fill="#bfbfbf" stroke="black" points="27.5,-0.5 27.5,-19.5 110.5,-19.5 110.5,-0.5 27.5,-0.5"/>
<text text-anchor="middle" x="69" y="-7.5" font-family="Helvetica,sans-Serif" font-size="10.00">ParticleSystem</text>
</g>
<!-- Node2 -->
<g id="node2" class="node"><title>Node2</title>
<g id="a_node2"><a xlink:href="classstd_1_1vector.xhtml" target="_top" xlink:title="std::vector\&lt; ParticleSystem\l::GravObj \&gt;">
<polygon fill="none" stroke="black" points="-0.5,-69 -0.5,-99 138.5,-99 138.5,-69 -0.5,-69"/>
<text text-anchor="start" x="7.5" y="-87" font-family="Helvetica,sans-Serif" font-size="10.00">std::vector&lt; ParticleSystem</text>
<text text-anchor="middle" x="69" y="-76" font-family="Helvetica,sans-Serif" font-size="10.00">::GravObj &gt;</text>
</a>
</g>
</g>
<!-- Node2&#45;&gt;Node1 -->
<g id="edge1" class="edge"><title>Node2&#45;&gt;Node1</title>
<path fill="none" stroke="#9a32cd" stroke-dasharray="5,2" d="M69,-58.6883C69,-45.2526 69,-29.3805 69,-19.7589"/>
<polygon fill="#9a32cd" stroke="#9a32cd" points="65.5001,-58.7751 69,-68.7751 72.5001,-58.7752 65.5001,-58.7751"/>
<text text-anchor="middle" x="90.5" y="-41.5" font-family="Helvetica,sans-Serif" font-size="10.00"> grav_obs</text>
</g>
<!-- Node3 -->
<g id="node3" class="node"><title>Node3</title>
<g id="a_node3"><a xlink:href="structParticleSystem_1_1GravObj.xhtml" target="_top" xlink:title="ParticleSystem::GravObj">
<polygon fill="none" stroke="black" points="6.5,-148.5 6.5,-167.5 131.5,-167.5 131.5,-148.5 6.5,-148.5"/>
<text text-anchor="middle" x="69" y="-155.5" font-family="Helvetica,sans-Serif" font-size="10.00">ParticleSystem::GravObj</text>
</a>
</g>
</g>
<!-- Node3&#45;&gt;Node2 -->
<g id="edge2" class="edge"><title>Node3&#45;&gt;Node2</title>
<path fill="none" stroke="#9a32cd" stroke-dasharray="5,2" d="M69,-138.085C69,-125.915 69,-110.354 69,-99.2316"/>
<polygon fill="#9a32cd" stroke="#9a32cd" points="65.5001,-138.458 69,-148.458 72.5001,-138.458 65.5001,-138.458"/>
<text text-anchor="middle" x="88" y="-121.5" font-family="Helvetica,sans-Serif" font-size="10.00"> element</text>
</g>
</g>
</svg>
