<?xml version="1.0" encoding="UTF-8" standalone="no"?>
<!DOCTYPE svg PUBLIC "-//W3C//DTD SVG 1.1//EN"
 "http://www.w3.org/Graphics/SVG/1.1/DTD/svg11.dtd">
<!-- Generated by graphviz version 2.26.3 (20100126.1600)
 -->
<!-- Title: tetgenmesh::scoutcrossedge Pages: 1 -->
<svg width="996pt" height="134pt"
 viewBox="0.00 0.00 996.00 134.00" xmlns="http://www.w3.org/2000/svg" xmlns:xlink="http://www.w3.org/1999/xlink">
<g id="graph1" class="graph" transform="scale(1 1) rotate(0) translate(4 130)">
<title>tetgenmesh::scoutcrossedge</title>
<!-- Node1 -->
<g id="node1" class="node"><title>Node1</title>
<polygon fill="#bfbfbf" stroke="black" points="0.5,-46.5 0.5,-67.5 143.5,-67.5 143.5,-46.5 0.5,-46.5"/>
<text text-anchor="middle" x="72" y="-54.5" font-family="Helvetica,sans-Serif" font-size="10.00">tetgenmesh::scoutcrossedge</text>
</g>
<!-- Node2 -->
<g id="node3" class="node"><title>Node2</title>
<a xlink:href="classtetgenmesh.xhtml#a7579c3a44a54712623d9f9e5fc1dfbdc" target="_top" xlink:title="tetgenmesh::constrainedfacets">
<polygon fill="none" stroke="black" points="180.5,-46.5 180.5,-67.5 331.5,-67.5 331.5,-46.5 180.5,-46.5"/>
<text text-anchor="middle" x="256" y="-54.5" font-family="Helvetica,sans-Serif" font-size="10.00">tetgenmesh::constrainedfacets</text>
</a>
</g>
<!-- Node1&#45;&gt;Node2 -->
<g id="edge2" class="edge"><title>Node1&#45;&gt;Node2</title>
<path fill="none" stroke="midnightblue" d="M153.894,-57C162.671,-57 171.573,-57 180.274,-57"/>
<polygon fill="midnightblue" stroke="midnightblue" points="153.666,-53.5001 143.666,-57 153.666,-60.5001 153.666,-53.5001"/>
</g>
<!-- Node3 -->
<g id="node5" class="node"><title>Node3</title>
<a xlink:href="classtetgenmesh.xhtml#aab64d62b3d2b048a38158fb2bf678624" target="_top" xlink:title="tetgenmesh::constraineddelaunay">
<polygon fill="none" stroke="black" points="368.5,-46.5 368.5,-67.5 531.5,-67.5 531.5,-46.5 368.5,-46.5"/>
<text text-anchor="middle" x="450" y="-54.5" font-family="Helvetica,sans-Serif" font-size="10.00">tetgenmesh::constraineddelaunay</text>
</a>
</g>
<!-- Node2&#45;&gt;Node3 -->
<g id="edge4" class="edge"><title>Node2&#45;&gt;Node3</title>
<path fill="none" stroke="midnightblue" d="M341.797,-57C350.58,-57 359.487,-57 368.225,-57"/>
<polygon fill="midnightblue" stroke="midnightblue" points="341.561,-53.5001 331.561,-57 341.561,-60.5001 341.561,-53.5001"/>
</g>
<!-- Node4 -->
<g id="node7" class="node"><title>Node4</title>
<a xlink:href="tetgen_8h.xhtml#ad3637eb4ffe7fda90667e67b7771d964" target="_top" xlink:title="tetrahedralize">
<polygon fill="none" stroke="black" points="568.5,-46.5 568.5,-67.5 643.5,-67.5 643.5,-46.5 568.5,-46.5"/>
<text text-anchor="middle" x="606" y="-54.5" font-family="Helvetica,sans-Serif" font-size="10.00">tetrahedralize</text>
</a>
</g>
<!-- Node3&#45;&gt;Node4 -->
<g id="edge6" class="edge"><title>Node3&#45;&gt;Node4</title>
<path fill="none" stroke="midnightblue" d="M541.823,-57C551.119,-57 560.145,-57 568.349,-57"/>
<polygon fill="midnightblue" stroke="midnightblue" points="541.655,-53.5001 531.655,-57 541.655,-60.5001 541.655,-53.5001"/>
</g>
<!-- Node5 -->
<g id="node9" class="node"><title>Node5</title>
<a xlink:href="classGUICutRenderWindow.xhtml#a9eedb7088ad31f4680a77ed3a06fa60c" target="_top" xlink:title="Berechnet die 2D&#45;Temperaturverteilung als Grafik. ">
<polygon fill="none" stroke="black" points="682.5,-89 682.5,-123 799.5,-123 799.5,-89 682.5,-89"/>
<text text-anchor="start" x="690.5" y="-110" font-family="Helvetica,sans-Serif" font-size="10.00">GUICutRenderWindow</text>
<text text-anchor="middle" x="741" y="-97" font-family="Helvetica,sans-Serif" font-size="10.00">::renderImage</text>
</a>
</g>
<!-- Node4&#45;&gt;Node5 -->
<g id="edge8" class="edge"><title>Node4&#45;&gt;Node5</title>
<path fill="none" stroke="midnightblue" d="M644.675,-71.0375C660.063,-76.6228 677.912,-83.1014 694.034,-88.953"/>
<polygon fill="midnightblue" stroke="midnightblue" points="645.555,-67.6336 634.961,-67.5117 643.167,-74.2136 645.555,-67.6336"/>
</g>
<!-- Node7 -->
<g id="node13" class="node"><title>Node7</title>
<a xlink:href="classObjectData.xhtml#af3a850833d08eb9b45357449f455e24d" target="_top" xlink:title="Zerlegt das Objekt in Tetraeder (Schnittstelle zur Tetgen&#45;Bibliothek) und Berechnet die Temperaturver...">
<polygon fill="none" stroke="black" points="680,-46.5 680,-67.5 802,-67.5 802,-46.5 680,-46.5"/>
<text text-anchor="middle" x="741" y="-54.5" font-family="Helvetica,sans-Serif" font-size="10.00">ObjectData::calculateIO</text>
</a>
</g>
<!-- Node4&#45;&gt;Node7 -->
<g id="edge12" class="edge"><title>Node4&#45;&gt;Node7</title>
<path fill="none" stroke="midnightblue" d="M653.654,-57C662.112,-57 671.025,-57 679.795,-57"/>
<polygon fill="midnightblue" stroke="midnightblue" points="653.605,-53.5001 643.605,-57 653.605,-60.5001 653.605,-53.5001"/>
</g>
<!-- Node10 -->
<g id="node19" class="node"><title>Node10</title>
<a xlink:href="tetgen_8cxx.xhtml#a0ddf1224851353fc92bfbff6f499fa97" target="_top" xlink:title="main">
<polygon fill="none" stroke="black" points="722,-6.5 722,-27.5 760,-27.5 760,-6.5 722,-6.5"/>
<text text-anchor="middle" x="741" y="-14.5" font-family="Helvetica,sans-Serif" font-size="10.00">main</text>
</a>
</g>
<!-- Node4&#45;&gt;Node10 -->
<g id="edge18" class="edge"><title>Node4&#45;&gt;Node10</title>
<path fill="none" stroke="midnightblue" d="M651.154,-43.6209C675.267,-36.4764 703.668,-28.0613 721.984,-22.6343"/>
<polygon fill="midnightblue" stroke="midnightblue" points="650.063,-40.2937 641.47,-46.4905 652.052,-47.0053 650.063,-40.2937"/>
</g>
<!-- Node6 -->
<g id="node11" class="node"><title>Node6</title>
<a xlink:href="classGUICutRenderWindow.xhtml#a7cd1bfbec53756a1cbbe1616b4d46c7a" target="_top" xlink:title="Behandelt das Drücken des Buttons zur Berechnung der zweidimensionalen Temperaturverteilung. ">
<polygon fill="none" stroke="black" points="854.5,-92 854.5,-126 971.5,-126 971.5,-92 854.5,-92"/>
<text text-anchor="start" x="862.5" y="-113" font-family="Helvetica,sans-Serif" font-size="10.00">GUICutRenderWindow</text>
<text text-anchor="middle" x="913" y="-100" font-family="Helvetica,sans-Serif" font-size="10.00">::renderCutBtClick</text>
</a>
</g>
<!-- Node5&#45;&gt;Node6 -->
<g id="edge10" class="edge"><title>Node5&#45;&gt;Node6</title>
<path fill="none" stroke="midnightblue" d="M809.777,-107.2C824.511,-107.457 839.948,-107.726 854.261,-107.975"/>
<polygon fill="midnightblue" stroke="midnightblue" points="809.771,-103.699 799.712,-107.024 809.649,-110.698 809.771,-103.699"/>
</g>
<!-- Node8 -->
<g id="node15" class="node"><title>Node8</title>
<a xlink:href="classGUIMainWindow.xhtml#a0c2de30274c7f52ff74ec1217e47a9e5" target="_top" xlink:title="Berechnet die 3D&#45;Temperaturverteilung neu. ">
<polygon fill="none" stroke="black" points="838,-40 838,-74 988,-74 988,-40 838,-40"/>
<text text-anchor="start" x="846" y="-61" font-family="Helvetica,sans-Serif" font-size="10.00">GUIMainWindow::OnRecalcBt</text>
<text text-anchor="middle" x="913" y="-48" font-family="Helvetica,sans-Serif" font-size="10.00">Click</text>
</a>
</g>
<!-- Node7&#45;&gt;Node8 -->
<g id="edge14" class="edge"><title>Node7&#45;&gt;Node8</title>
<path fill="none" stroke="midnightblue" d="M812.316,-57C820.768,-57 829.415,-57 837.918,-57"/>
<polygon fill="midnightblue" stroke="midnightblue" points="812.125,-53.5001 802.125,-57 812.125,-60.5001 812.125,-53.5001"/>
</g>
<!-- Node9 -->
<g id="node17" class="node"><title>Node9</title>
<a xlink:href="classGUITimeline.xhtml#a099f3654aa6e7ea04df861851a0e9ec8" target="_top" xlink:title="Sucht den Zeitpunkt zwischen zwei markierten Stellen auf der Sensordaten&#45;Zeitleiste, für den der Wäremeenergiegehalt maximal wird. ">
<polygon fill="none" stroke="black" points="844.5,-0.5 844.5,-21.5 981.5,-21.5 981.5,-0.5 844.5,-0.5"/>
<text text-anchor="middle" x="913" y="-8.5" font-family="Helvetica,sans-Serif" font-size="10.00">GUITimeline::findMaxValue</text>
</a>
</g>
<!-- Node7&#45;&gt;Node9 -->
<g id="edge16" class="edge"><title>Node7&#45;&gt;Node9</title>
<path fill="none" stroke="midnightblue" d="M789.997,-43.8537C805.363,-39.7343 822.387,-35.1741 838,-31 849.456,-27.9371 861.899,-24.6167 873.296,-21.5777"/>
<polygon fill="midnightblue" stroke="midnightblue" points="788.923,-40.5181 780.17,-46.4885 790.735,-47.2793 788.923,-40.5181"/>
</g>
</g>
</svg>
