<?xml version="1.0" encoding="UTF-8" standalone="no"?>
<!DOCTYPE svg PUBLIC "-//W3C//DTD SVG 1.1//EN"
 "http://www.w3.org/Graphics/SVG/1.1/DTD/svg11.dtd">
<!-- Generated by graphviz version 2.26.3 (20100126.1600)
 -->
<!-- Title: tetgenmesh::sinsertvertex Pages: 1 -->
<!--zoomable 620 -->
<svg id="main" version="1.1" xmlns="http://www.w3.org/2000/svg" xmlns:xlink="http://www.w3.org/1999/xlink" xml:space="preserve" onload="init(evt)">
<style type="text/css"><![CDATA[
.edge:hover path { stroke: red; }
.edge:hover polygon { stroke: red; fill: red; }
]]></style>
<script type="text/javascript"><![CDATA[
var edges = document.getElementsByTagName('g');
if (edges && edges.length) {
  for (var i=0;i<edges.length;i++) {
    if (edges[i].id.substr(0,4)=='edge') {
      edges[i].setAttribute('class','edge');
    }
  }
}
]]></script>
        <defs>
                <circle id="rim" cx="0" cy="0" r="7"/>
                <circle id="rim2" cx="0" cy="0" r="3.5"/>
                <g id="zoomPlus">
                        <use xlink:href="#rim" fill="#404040">
                                <set attributeName="fill" to="#808080" begin="zoomplus.mouseover" end="zoomplus.mouseout"/>
                        </use>
                        <path d="M-4,0h8M0,-4v8" fill="none" stroke="white" stroke-width="1.5" pointer-events="none"/>
                </g>
                <g id="zoomMin">
                        <use xlink:href="#rim" fill="#404040">
                                <set attributeName="fill" to="#808080" begin="zoomminus.mouseover" end="zoomminus.mouseout"/>
                        </use>
                        <path d="M-4,0h8" fill="none" stroke="white" stroke-width="1.5" pointer-events="none"/>
                </g>
                <g id="dirArrow">
                        <path fill="none" stroke="white" stroke-width="1.5" d="M0,-3.0v7 M-2.5,-0.5L0,-3.0L2.5,-0.5"/>
                </g>
               <g id="resetDef">
                       <use xlink:href="#rim2" fill="#404040">
                               <set attributeName="fill" to="#808080" begin="reset.mouseover" end="reset.mouseout"/>
                       </use>
               </g>
        </defs>

<script type="text/javascript">
var viewWidth = 2198;
var viewHeight = 620;
var sectionId = 'dynsection-414';
</script>
<script xlink:href="svgpan.js"/>
<svg id="graph" class="graph">
<g id="viewport">
<title>tetgenmesh::sinsertvertex</title>
<!-- Node1 -->
<g id="node1" class="node"><title>Node1</title>
<polygon fill="#bfbfbf" stroke="black" points="0,-227.221 0,-248.221 130,-248.221 130,-227.221 0,-227.221"/>
<text text-anchor="middle" x="65" y="-235.221" font-family="Helvetica,sans-Serif" font-size="10.00">tetgenmesh::sinsertvertex</text>
</g>
<!-- Node2 -->
<g id="node3" class="node"><title>Node2</title>
<a xlink:href="classtetgenmesh.xhtml#a5d85611ca91db181e357457beb13a633" target="_top" xlink:title="tetgenmesh::insertpoint">
<polygon fill="none" stroke="black" points="183.5,-270.221 183.5,-291.221 302.5,-291.221 302.5,-270.221 183.5,-270.221"/>
<text text-anchor="middle" x="243" y="-278.221" font-family="Helvetica,sans-Serif" font-size="10.00">tetgenmesh::insertpoint</text>
</a>
</g>
<!-- Node1&#45;&gt;Node2 -->
<g id="edge2" class="edge"><title>Node1&#45;&gt;Node2</title>
<path fill="none" stroke="midnightblue" d="M118.543,-250.656C144.349,-256.89 174.91,-264.273 199.289,-270.162"/>
<polygon fill="midnightblue" stroke="midnightblue" points="119.086,-247.187 108.544,-248.24 117.442,-253.991 119.086,-247.187"/>
</g>
<!-- Node14 -->
<g id="node28" class="node"><title>Node14</title>
<a xlink:href="classtetgenmesh.xhtml#a9c967ef25cfd6e06d6b9301302be3f70" target="_top" xlink:title="tetgenmesh::insertpoint_cdt">
<polygon fill="none" stroke="black" points="594.5,-483.221 594.5,-504.221 731.5,-504.221 731.5,-483.221 594.5,-483.221"/>
<text text-anchor="middle" x="663" y="-491.221" font-family="Helvetica,sans-Serif" font-size="10.00">tetgenmesh::insertpoint_cdt</text>
</a>
</g>
<!-- Node1&#45;&gt;Node14 -->
<g id="edge112" class="edge"><title>Node1&#45;&gt;Node14</title>
<path fill="none" stroke="midnightblue" d="M77.5501,-256.681C113.418,-308.907 222.431,-454.443 356,-506.721 448.151,-542.789 567.948,-519.761 626.941,-504.342"/>
<polygon fill="midnightblue" stroke="midnightblue" points="80.396,-254.642 71.8911,-248.323 74.5997,-258.566 80.396,-254.642"/>
</g>
<!-- Node35 -->
<g id="node88" class="node"><title>Node35</title>
<a xlink:href="classtetgenmesh.xhtml#af62b4d5ed09b5a10704caf321e9c5b06" target="_top" xlink:title="tetgenmesh::triangulate">
<polygon fill="none" stroke="black" points="183.5,-56.2215 183.5,-77.2215 302.5,-77.2215 302.5,-56.2215 183.5,-56.2215"/>
<text text-anchor="middle" x="243" y="-64.2215" font-family="Helvetica,sans-Serif" font-size="10.00">tetgenmesh::triangulate</text>
</a>
</g>
<!-- Node1&#45;&gt;Node35 -->
<g id="edge106" class="edge"><title>Node1&#45;&gt;Node35</title>
<path fill="none" stroke="midnightblue" d="M83.7235,-219.734C120.716,-184.197 202.156,-105.96 231.87,-77.4142"/>
<polygon fill="midnightblue" stroke="midnightblue" points="80.9214,-217.573 76.1347,-227.025 85.7709,-222.621 80.9214,-217.573"/>
</g>
<!-- Node37 -->
<g id="node94" class="node"><title>Node37</title>
<a xlink:href="classtetgenmesh.xhtml#a38c7fc92a1ced3f4885006837a83c2e6" target="_top" xlink:title="tetgenmesh::recoverfacebyflips">
<polygon fill="none" stroke="black" points="166.5,-185.221 166.5,-206.221 319.5,-206.221 319.5,-185.221 166.5,-185.221"/>
<text text-anchor="middle" x="243" y="-193.221" font-family="Helvetica,sans-Serif" font-size="10.00">tetgenmesh::recoverfacebyflips</text>
</a>
</g>
<!-- Node1&#45;&gt;Node37 -->
<g id="edge114" class="edge"><title>Node1&#45;&gt;Node37</title>
<path fill="none" stroke="midnightblue" d="M119.716,-224.811C144.959,-218.855 174.545,-211.874 198.406,-206.244"/>
<polygon fill="midnightblue" stroke="midnightblue" points="118.846,-221.42 109.917,-227.123 120.453,-228.233 118.846,-221.42"/>
</g>
<!-- Node3 -->
<g id="node5" class="node"><title>Node3</title>
<a xlink:href="classtetgenmesh.xhtml#a5a5a0513d0bea7aa457eb0bc5fad1b02" target="_top" xlink:title="tetgenmesh::incrementaldelaunay">
<polygon fill="none" stroke="black" points="1376.5,-464.221 1376.5,-485.221 1539.5,-485.221 1539.5,-464.221 1376.5,-464.221"/>
<text text-anchor="middle" x="1458" y="-472.221" font-family="Helvetica,sans-Serif" font-size="10.00">tetgenmesh::incrementaldelaunay</text>
</a>
</g>
<!-- Node2&#45;&gt;Node3 -->
<g id="edge4" class="edge"><title>Node2&#45;&gt;Node3</title>
<path fill="none" stroke="midnightblue" d="M246.43,-301.359C255.258,-347.232 283.38,-457.484 356,-506.721 412.669,-545.144 594.534,-532.721 663,-532.721 663,-532.721 663,-532.721 1061,-532.721 1190.91,-532.721 1342.24,-501.939 1414.83,-485.225"/>
<polygon fill="midnightblue" stroke="midnightblue" points="249.852,-300.612 244.626,-291.396 242.964,-301.86 249.852,-300.612"/>
</g>
<!-- Node11 -->
<g id="node21" class="node"><title>Node11</title>
<a xlink:href="classtetgenmesh.xhtml#a8dee14a42e35e4fe65944518eed4f7d3" target="_top" xlink:title="tetgenmesh::delaunizesegments">
<polygon fill="none" stroke="black" points="982,-407.221 982,-428.221 1140,-428.221 1140,-407.221 982,-407.221"/>
<text text-anchor="middle" x="1061" y="-415.221" font-family="Helvetica,sans-Serif" font-size="10.00">tetgenmesh::delaunizesegments</text>
</a>
</g>
<!-- Node2&#45;&gt;Node11 -->
<g id="edge20" class="edge"><title>Node2&#45;&gt;Node11</title>
<path fill="none" stroke="midnightblue" d="M262.106,-298.244C283.364,-316.685 319.543,-345.033 356,-359.721 569.299,-445.659 847.749,-436.91 981.923,-426.013"/>
<polygon fill="midnightblue" stroke="midnightblue" points="264.271,-295.487 254.463,-291.479 259.631,-300.728 264.271,-295.487"/>
</g>
<!-- Node13 -->
<g id="node26" class="node"><title>Node13</title>
<a xlink:href="classtetgenmesh.xhtml#ab1a82368937a13996efae911b8b1fded" target="_top" xlink:title="tetgenmesh::delaunizecavity">
<polygon fill="none" stroke="black" points="372.5,-444.221 372.5,-465.221 513.5,-465.221 513.5,-444.221 372.5,-444.221"/>
<text text-anchor="middle" x="443" y="-452.221" font-family="Helvetica,sans-Serif" font-size="10.00">tetgenmesh::delaunizecavity</text>
</a>
</g>
<!-- Node2&#45;&gt;Node13 -->
<g id="edge26" class="edge"><title>Node2&#45;&gt;Node13</title>
<path fill="none" stroke="midnightblue" d="M252.585,-300.453C269.156,-332.474 306.223,-395.602 356,-429.721 365.074,-435.941 375.69,-440.628 386.327,-444.157"/>
<polygon fill="midnightblue" stroke="midnightblue" points="255.561,-298.581 247.935,-291.226 249.31,-301.731 255.561,-298.581"/>
</g>
<!-- Node2&#45;&gt;Node14 -->
<g id="edge38" class="edge"><title>Node2&#45;&gt;Node14</title>
<path fill="none" stroke="midnightblue" d="M248.078,-301.387C259.434,-342.651 291.131,-434.719 356,-474.721 434.861,-523.353 547.841,-514.793 612.47,-504.225"/>
<polygon fill="midnightblue" stroke="midnightblue" points="251.437,-300.398 245.512,-291.615 244.667,-302.176 251.437,-300.398"/>
</g>
<!-- Node17 -->
<g id="node37" class="node"><title>Node17</title>
<a xlink:href="classtetgenmesh.xhtml#acb5fc751eaa4a4ddffbebedfa7b7382a" target="_top" xlink:title="tetgenmesh::add_steinerpt\l_in_schoenhardtpoly">
<polygon fill="none" stroke="black" points="377,-70.7215 377,-104.721 509,-104.721 509,-70.7215 377,-70.7215"/>
<text text-anchor="start" x="385" y="-91.7215" font-family="Helvetica,sans-Serif" font-size="10.00">tetgenmesh::add_steinerpt</text>
<text text-anchor="middle" x="443" y="-78.7215" font-family="Helvetica,sans-Serif" font-size="10.00">_in_schoenhardtpoly</text>
</a>
</g>
<!-- Node2&#45;&gt;Node17 -->
<g id="edge40" class="edge"><title>Node2&#45;&gt;Node17</title>
<path fill="none" stroke="midnightblue" d="M269.039,-264.128C285.639,-252.379 306.493,-235.275 320,-215.721 347.323,-176.167 321.186,-146.874 356,-113.721 361.936,-108.068 369.051,-103.639 376.62,-100.17"/>
<polygon fill="midnightblue" stroke="midnightblue" points="266.606,-261.551 260.328,-270.085 270.558,-267.329 266.606,-261.551"/>
</g>
<!-- Node18 -->
<g id="node39" class="node"><title>Node18</title>
<a xlink:href="classtetgenmesh.xhtml#a9d878a0e64588b0471a58e534affea8e" target="_top" xlink:title="tetgenmesh::addsteiner4recoversegment">
<polygon fill="none" stroke="black" points="566,-97.2215 566,-118.221 760,-118.221 760,-97.2215 566,-97.2215"/>
<text text-anchor="middle" x="663" y="-105.221" font-family="Helvetica,sans-Serif" font-size="10.00">tetgenmesh::addsteiner4recoversegment</text>
</a>
</g>
<!-- Node2&#45;&gt;Node18 -->
<g id="edge54" class="edge"><title>Node2&#45;&gt;Node18</title>
<path fill="none" stroke="midnightblue" d="M264.699,-263.843C286.609,-247.559 321.985,-223.295 356,-208.721 429.222,-177.35 459.793,-203.36 530,-165.721 549.13,-155.466 546.922,-143.072 566,-132.721 577.388,-126.543 590.363,-121.843 603.036,-118.285"/>
<polygon fill="midnightblue" stroke="midnightblue" points="262.32,-261.254 256.448,-270.073 266.538,-266.84 262.32,-261.254"/>
</g>
<!-- Node21 -->
<g id="node46" class="node"><title>Node21</title>
<a xlink:href="classtetgenmesh.xhtml#a3de6e9d82e74671af7f038043b5e9bcc" target="_top" xlink:title="tetgenmesh::add_steinerpt\l_in_segment">
<polygon fill="none" stroke="black" points="377,-122.721 377,-156.721 509,-156.721 509,-122.721 377,-122.721"/>
<text text-anchor="start" x="385" y="-143.721" font-family="Helvetica,sans-Serif" font-size="10.00">tetgenmesh::add_steinerpt</text>
<text text-anchor="middle" x="443" y="-130.721" font-family="Helvetica,sans-Serif" font-size="10.00">_in_segment</text>
</a>
</g>
<!-- Node2&#45;&gt;Node21 -->
<g id="edge50" class="edge"><title>Node2&#45;&gt;Node21</title>
<path fill="none" stroke="midnightblue" d="M265.267,-263.828C281.207,-251.292 302.801,-233.38 320,-215.721 337.871,-197.374 335.142,-185.586 356,-170.721 363.704,-165.231 372.478,-160.625 381.42,-156.787"/>
<polygon fill="midnightblue" stroke="midnightblue" points="262.809,-261.306 257.057,-270.204 267.102,-266.835 262.809,-261.306"/>
</g>
<!-- Node22 -->
<g id="node50" class="node"><title>Node22</title>
<a xlink:href="classtetgenmesh.xhtml#ace09080e4f274e0a48cd1728475878c9" target="_top" xlink:title="tetgenmesh::recoversubfaces">
<polygon fill="none" stroke="black" points="370,-31.2215 370,-52.2215 516,-52.2215 516,-31.2215 370,-31.2215"/>
<text text-anchor="middle" x="443" y="-39.2215" font-family="Helvetica,sans-Serif" font-size="10.00">tetgenmesh::recoversubfaces</text>
</a>
</g>
<!-- Node2&#45;&gt;Node22 -->
<g id="edge56" class="edge"><title>Node2&#45;&gt;Node22</title>
<path fill="none" stroke="midnightblue" d="M269.927,-264.484C286.801,-252.935 307.626,-235.919 320,-215.721 356.72,-155.786 306.206,-111.332 356,-61.7215 360.062,-57.6742 364.768,-54.379 369.845,-51.7031"/>
<polygon fill="midnightblue" stroke="midnightblue" points="267.956,-261.591 261.528,-270.013 271.805,-267.438 267.956,-261.591"/>
</g>
<!-- Node23 -->
<g id="node53" class="node"><title>Node23</title>
<a xlink:href="classtetgenmesh.xhtml#ac8205cae8e16f490b80d74975934ff74" target="_top" xlink:title="tetgenmesh::insertconstrainedpoints">
<polygon fill="none" stroke="black" points="356,-329.221 356,-350.221 530,-350.221 530,-329.221 356,-329.221"/>
<text text-anchor="middle" x="443" y="-337.221" font-family="Helvetica,sans-Serif" font-size="10.00">tetgenmesh::insertconstrainedpoints</text>
</a>
</g>
<!-- Node2&#45;&gt;Node23 -->
<g id="edge60" class="edge"><title>Node2&#45;&gt;Node23</title>
<path fill="none" stroke="midnightblue" d="M287.423,-294.227C308.231,-300.517 333.367,-308.065 356,-314.721 372.283,-319.51 390.311,-324.708 405.714,-329.117"/>
<polygon fill="midnightblue" stroke="midnightblue" points="288.171,-290.797 277.586,-291.249 286.143,-297.496 288.171,-290.797"/>
</g>
<!-- Node25 -->
<g id="node58" class="node"><title>Node25</title>
<a xlink:href="classtetgenmesh.xhtml#a6394d7b4d386e8d08077c39cd8983e0e" target="_top" xlink:title="tetgenmesh::splitsegment">
<polygon fill="none" stroke="black" points="378.5,-251.221 378.5,-272.221 507.5,-272.221 507.5,-251.221 378.5,-251.221"/>
<text text-anchor="middle" x="443" y="-259.221" font-family="Helvetica,sans-Serif" font-size="10.00">tetgenmesh::splitsegment</text>
</a>
</g>
<!-- Node2&#45;&gt;Node25 -->
<g id="edge66" class="edge"><title>Node2&#45;&gt;Node25</title>
<path fill="none" stroke="midnightblue" d="M312.696,-274.1C334.019,-272.075 357.371,-269.856 378.344,-267.864"/>
<polygon fill="midnightblue" stroke="midnightblue" points="312.36,-270.616 302.736,-275.047 313.022,-277.585 312.36,-270.616"/>
</g>
<!-- Node27 -->
<g id="node62" class="node"><title>Node27</title>
<a xlink:href="classtetgenmesh.xhtml#a3a8404870ab3c2e8ce4312d48c2b29f4" target="_top" xlink:title="tetgenmesh::splitsubface">
<polygon fill="none" stroke="black" points="808,-289.221 808,-310.221 934,-310.221 934,-289.221 808,-289.221"/>
<text text-anchor="middle" x="871" y="-297.221" font-family="Helvetica,sans-Serif" font-size="10.00">tetgenmesh::splitsubface</text>
</a>
</g>
<!-- Node2&#45;&gt;Node27 -->
<g id="edge94" class="edge"><title>Node2&#45;&gt;Node27</title>
<path fill="none" stroke="midnightblue" d="M312.701,-282.83C435.652,-286.55 689.225,-294.222 807.571,-297.802"/>
<polygon fill="midnightblue" stroke="midnightblue" points="312.748,-279.33 302.647,-282.526 312.536,-286.327 312.748,-279.33"/>
</g>
<!-- Node29 -->
<g id="node66" class="node"><title>Node29</title>
<a xlink:href="classtetgenmesh.xhtml#aa752155eb1d18550a212dd40297f122e" target="_top" xlink:title="tetgenmesh::splittetrahedron">
<polygon fill="none" stroke="black" points="1188,-261.221 1188,-282.221 1328,-282.221 1328,-261.221 1188,-261.221"/>
<text text-anchor="middle" x="1258" y="-269.221" font-family="Helvetica,sans-Serif" font-size="10.00">tetgenmesh::splittetrahedron</text>
</a>
</g>
<!-- Node2&#45;&gt;Node29 -->
<g id="edge96" class="edge"><title>Node2&#45;&gt;Node29</title>
<path fill="none" stroke="midnightblue" d="M280.631,-266.666C302.465,-258.781 330.588,-249.08 356,-241.721 432.316,-219.622 461.126,-240.331 530,-200.721 550.167,-189.123 544.629,-171.914 566,-162.721 683.254,-112.287 1021.2,-137.053 1140,-183.721 1185.43,-201.568 1228.76,-241.77 1247.83,-261.034"/>
<polygon fill="midnightblue" stroke="midnightblue" points="279.273,-263.436 271.075,-270.147 281.669,-270.013 279.273,-263.436"/>
</g>
<!-- Node32 -->
<g id="node81" class="node"><title>Node32</title>
<a xlink:href="classtetgenmesh.xhtml#aa9540f310c97db99c989a02b0978ceec" target="_top" xlink:title="tetgenmesh::splitsliver">
<polygon fill="none" stroke="black" points="813.5,-561.221 813.5,-582.221 928.5,-582.221 928.5,-561.221 813.5,-561.221"/>
<text text-anchor="middle" x="871" y="-569.221" font-family="Helvetica,sans-Serif" font-size="10.00">tetgenmesh::splitsliver</text>
</a>
</g>
<!-- Node2&#45;&gt;Node32 -->
<g id="edge98" class="edge"><title>Node2&#45;&gt;Node32</title>
<path fill="none" stroke="midnightblue" d="M244.657,-301.537C250.019,-353.33 271.814,-488.033 356,-546.721 505.252,-650.769 742.138,-605.359 833.424,-582.228"/>
<polygon fill="midnightblue" stroke="midnightblue" points="248.114,-300.911 243.703,-291.278 241.144,-301.559 248.114,-300.911"/>
</g>
<!-- Node4 -->
<g id="node7" class="node"><title>Node4</title>
<a xlink:href="tetgen_8h.xhtml#ad3637eb4ffe7fda90667e67b7771d964" target="_top" xlink:title="tetrahedralize">
<polygon fill="none" stroke="black" points="1770.5,-368.221 1770.5,-389.221 1845.5,-389.221 1845.5,-368.221 1770.5,-368.221"/>
<text text-anchor="middle" x="1808" y="-376.221" font-family="Helvetica,sans-Serif" font-size="10.00">tetrahedralize</text>
</a>
</g>
<!-- Node3&#45;&gt;Node4 -->
<g id="edge6" class="edge"><title>Node3&#45;&gt;Node4</title>
<path fill="none" stroke="midnightblue" d="M1549.8,-470.511C1604.87,-465.47 1675.37,-454.5 1734,-430.721 1758.45,-420.807 1782.68,-401.511 1796.44,-389.416"/>
<polygon fill="midnightblue" stroke="midnightblue" points="1549.36,-467.036 1539.7,-471.386 1549.96,-474.01 1549.36,-467.036"/>
</g>
<!-- Node5 -->
<g id="node9" class="node"><title>Node5</title>
<a xlink:href="classGUICutRenderWindow.xhtml#a9eedb7088ad31f4680a77ed3a06fa60c" target="_top" xlink:title="Berechnet die 2D&#45;Temperaturverteilung als Grafik. ">
<polygon fill="none" stroke="black" points="1884.5,-407.721 1884.5,-441.721 2001.5,-441.721 2001.5,-407.721 1884.5,-407.721"/>
<text text-anchor="start" x="1892.5" y="-428.721" font-family="Helvetica,sans-Serif" font-size="10.00">GUICutRenderWindow</text>
<text text-anchor="middle" x="1943" y="-415.721" font-family="Helvetica,sans-Serif" font-size="10.00">::renderImage</text>
</a>
</g>
<!-- Node4&#45;&gt;Node5 -->
<g id="edge8" class="edge"><title>Node4&#45;&gt;Node5</title>
<path fill="none" stroke="midnightblue" d="M1848.73,-392.598C1862.62,-397.332 1878.32,-402.681 1892.86,-407.637"/>
<polygon fill="midnightblue" stroke="midnightblue" points="1849.57,-389.187 1838.97,-389.275 1847.31,-395.813 1849.57,-389.187"/>
</g>
<!-- Node7 -->
<g id="node13" class="node"><title>Node7</title>
<a xlink:href="classObjectData.xhtml#af3a850833d08eb9b45357449f455e24d" target="_top" xlink:title="Zerlegt das Objekt in Tetraeder (Schnittstelle zur Tetgen&#45;Bibliothek) und Berechnet die Temperaturver...">
<polygon fill="none" stroke="black" points="1882,-368.221 1882,-389.221 2004,-389.221 2004,-368.221 1882,-368.221"/>
<text text-anchor="middle" x="1943" y="-376.221" font-family="Helvetica,sans-Serif" font-size="10.00">ObjectData::calculateIO</text>
</a>
</g>
<!-- Node4&#45;&gt;Node7 -->
<g id="edge12" class="edge"><title>Node4&#45;&gt;Node7</title>
<path fill="none" stroke="midnightblue" d="M1855.65,-378.721C1864.11,-378.721 1873.02,-378.721 1881.8,-378.721"/>
<polygon fill="midnightblue" stroke="midnightblue" points="1855.61,-375.222 1845.61,-378.721 1855.6,-382.222 1855.61,-375.222"/>
</g>
<!-- Node10 -->
<g id="node19" class="node"><title>Node10</title>
<a xlink:href="tetgen_8cxx.xhtml#a0ddf1224851353fc92bfbff6f499fa97" target="_top" xlink:title="main">
<polygon fill="none" stroke="black" points="1924,-328.221 1924,-349.221 1962,-349.221 1962,-328.221 1924,-328.221"/>
<text text-anchor="middle" x="1943" y="-336.221" font-family="Helvetica,sans-Serif" font-size="10.00">main</text>
</a>
</g>
<!-- Node4&#45;&gt;Node10 -->
<g id="edge18" class="edge"><title>Node4&#45;&gt;Node10</title>
<path fill="none" stroke="midnightblue" d="M1853.15,-365.342C1877.27,-358.198 1905.67,-349.783 1923.98,-344.356"/>
<polygon fill="midnightblue" stroke="midnightblue" points="1852.06,-362.015 1843.47,-368.212 1854.05,-368.727 1852.06,-362.015"/>
</g>
<!-- Node6 -->
<g id="node11" class="node"><title>Node6</title>
<a xlink:href="classGUICutRenderWindow.xhtml#a7cd1bfbec53756a1cbbe1616b4d46c7a" target="_top" xlink:title="Behandelt das Drücken des Buttons zur Berechnung der zweidimensionalen Temperaturverteilung. ">
<polygon fill="none" stroke="black" points="2056.5,-407.721 2056.5,-441.721 2173.5,-441.721 2173.5,-407.721 2056.5,-407.721"/>
<text text-anchor="start" x="2064.5" y="-428.721" font-family="Helvetica,sans-Serif" font-size="10.00">GUICutRenderWindow</text>
<text text-anchor="middle" x="2115" y="-415.721" font-family="Helvetica,sans-Serif" font-size="10.00">::renderCutBtClick</text>
</a>
</g>
<!-- Node5&#45;&gt;Node6 -->
<g id="edge10" class="edge"><title>Node5&#45;&gt;Node6</title>
<path fill="none" stroke="midnightblue" d="M2011.78,-424.721C2026.51,-424.721 2041.95,-424.721 2056.26,-424.721"/>
<polygon fill="midnightblue" stroke="midnightblue" points="2011.71,-421.222 2001.71,-424.721 2011.71,-428.222 2011.71,-421.222"/>
</g>
<!-- Node8 -->
<g id="node15" class="node"><title>Node8</title>
<a xlink:href="classGUIMainWindow.xhtml#a0c2de30274c7f52ff74ec1217e47a9e5" target="_top" xlink:title="Berechnet die 3D&#45;Temperaturverteilung neu. ">
<polygon fill="none" stroke="black" points="2040,-315.721 2040,-349.721 2190,-349.721 2190,-315.721 2040,-315.721"/>
<text text-anchor="start" x="2048" y="-336.721" font-family="Helvetica,sans-Serif" font-size="10.00">GUIMainWindow::OnRecalcBt</text>
<text text-anchor="middle" x="2115" y="-323.721" font-family="Helvetica,sans-Serif" font-size="10.00">Click</text>
</a>
</g>
<!-- Node7&#45;&gt;Node8 -->
<g id="edge14" class="edge"><title>Node7&#45;&gt;Node8</title>
<path fill="none" stroke="midnightblue" d="M1992.33,-365.529C2010.64,-360.631 2031.69,-355.002 2051.12,-349.806"/>
<polygon fill="midnightblue" stroke="midnightblue" points="1991.22,-362.203 1982.46,-368.168 1993.03,-368.966 1991.22,-362.203"/>
</g>
<!-- Node9 -->
<g id="node17" class="node"><title>Node9</title>
<a xlink:href="classGUITimeline.xhtml#a099f3654aa6e7ea04df861851a0e9ec8" target="_top" xlink:title="Sucht den Zeitpunkt zwischen zwei markierten Stellen auf der Sensordaten&#45;Zeitleiste, für den der Wäremeenergiegehalt maximal wird. ">
<polygon fill="none" stroke="black" points="2046.5,-368.221 2046.5,-389.221 2183.5,-389.221 2183.5,-368.221 2046.5,-368.221"/>
<text text-anchor="middle" x="2115" y="-376.221" font-family="Helvetica,sans-Serif" font-size="10.00">GUITimeline::findMaxValue</text>
</a>
</g>
<!-- Node7&#45;&gt;Node9 -->
<g id="edge16" class="edge"><title>Node7&#45;&gt;Node9</title>
<path fill="none" stroke="midnightblue" d="M2014.23,-378.721C2024.89,-378.721 2035.86,-378.721 2046.46,-378.721"/>
<polygon fill="midnightblue" stroke="midnightblue" points="2014.13,-375.222 2004.13,-378.721 2014.13,-382.222 2014.13,-375.222"/>
</g>
<!-- Node12 -->
<g id="node23" class="node"><title>Node12</title>
<a xlink:href="classtetgenmesh.xhtml#aab64d62b3d2b048a38158fb2bf678624" target="_top" xlink:title="tetgenmesh::constraineddelaunay">
<polygon fill="none" stroke="black" points="1176.5,-407.221 1176.5,-428.221 1339.5,-428.221 1339.5,-407.221 1176.5,-407.221"/>
<text text-anchor="middle" x="1258" y="-415.221" font-family="Helvetica,sans-Serif" font-size="10.00">tetgenmesh::constraineddelaunay</text>
</a>
</g>
<!-- Node11&#45;&gt;Node12 -->
<g id="edge22" class="edge"><title>Node11&#45;&gt;Node12</title>
<path fill="none" stroke="midnightblue" d="M1150.37,-417.721C1159.01,-417.721 1167.75,-417.721 1176.32,-417.721"/>
<polygon fill="midnightblue" stroke="midnightblue" points="1150.28,-414.222 1140.28,-417.721 1150.28,-421.222 1150.28,-414.222"/>
</g>
<!-- Node12&#45;&gt;Node4 -->
<g id="edge24" class="edge"><title>Node12&#45;&gt;Node4</title>
<path fill="none" stroke="midnightblue" d="M1349.83,-416.556C1445.92,-414.481 1601.02,-408.719 1734,-392.721 1745.81,-391.3 1758.58,-389.121 1770.13,-386.901"/>
<polygon fill="midnightblue" stroke="midnightblue" points="1349.49,-413.062 1339.56,-416.768 1349.63,-420.06 1349.49,-413.062"/>
</g>
<!-- Node13&#45;&gt;Node14 -->
<g id="edge28" class="edge"><title>Node13&#45;&gt;Node14</title>
<path fill="none" stroke="midnightblue" d="M512.411,-467.026C541.727,-472.223 575.515,-478.213 603.649,-483.2"/>
<polygon fill="midnightblue" stroke="midnightblue" points="512.703,-463.523 502.245,-465.224 511.481,-470.416 512.703,-463.523"/>
</g>
<!-- Node16 -->
<g id="node32" class="node"><title>Node16</title>
<a xlink:href="classtetgenmesh.xhtml#a7579c3a44a54712623d9f9e5fc1dfbdc" target="_top" xlink:title="tetgenmesh::constrainedfacets">
<polygon fill="none" stroke="black" points="985.5,-447.221 985.5,-468.221 1136.5,-468.221 1136.5,-447.221 985.5,-447.221"/>
<text text-anchor="middle" x="1061" y="-455.221" font-family="Helvetica,sans-Serif" font-size="10.00">tetgenmesh::constrainedfacets</text>
</a>
</g>
<!-- Node13&#45;&gt;Node16 -->
<g id="edge36" class="edge"><title>Node13&#45;&gt;Node16</title>
<path fill="none" stroke="midnightblue" d="M523.822,-455.114C643.918,-455.697 867.88,-456.784 985.077,-457.353"/>
<polygon fill="midnightblue" stroke="midnightblue" points="523.608,-451.613 513.591,-455.064 523.574,-458.613 523.608,-451.613"/>
</g>
<!-- Node15 -->
<g id="node30" class="node"><title>Node15</title>
<a xlink:href="classtetgenmesh.xhtml#aa34a5188a4cee82197394560c388c348" target="_top" xlink:title="tetgenmesh::refineregion">
<polygon fill="none" stroke="black" points="809,-483.221 809,-504.221 933,-504.221 933,-483.221 809,-483.221"/>
<text text-anchor="middle" x="871" y="-491.221" font-family="Helvetica,sans-Serif" font-size="10.00">tetgenmesh::refineregion</text>
</a>
</g>
<!-- Node14&#45;&gt;Node15 -->
<g id="edge30" class="edge"><title>Node14&#45;&gt;Node15</title>
<path fill="none" stroke="midnightblue" d="M741.73,-493.721C763.881,-493.721 787.659,-493.721 808.705,-493.721"/>
<polygon fill="midnightblue" stroke="midnightblue" points="741.683,-490.222 731.683,-493.721 741.683,-497.222 741.683,-490.222"/>
</g>
<!-- Node15&#45;&gt;Node16 -->
<g id="edge32" class="edge"><title>Node15&#45;&gt;Node16</title>
<path fill="none" stroke="midnightblue" d="M936.586,-481.295C959.026,-477.043 983.896,-472.331 1005.46,-468.244"/>
<polygon fill="midnightblue" stroke="midnightblue" points="935.64,-477.911 926.467,-483.212 936.943,-484.789 935.64,-477.911"/>
</g>
<!-- Node16&#45;&gt;Node12 -->
<g id="edge34" class="edge"><title>Node16&#45;&gt;Node12</title>
<path fill="none" stroke="midnightblue" d="M1122.81,-445.171C1149.62,-439.727 1180.67,-433.423 1206.24,-428.23"/>
<polygon fill="midnightblue" stroke="midnightblue" points="1121.86,-441.792 1112.76,-447.212 1123.26,-448.652 1121.86,-441.792"/>
</g>
<!-- Node17&#45;&gt;Node18 -->
<g id="edge42" class="edge"><title>Node17&#45;&gt;Node18</title>
<path fill="none" stroke="midnightblue" d="M519.225,-94.651C534.221,-96.0143 550.144,-97.4618 565.722,-98.878"/>
<polygon fill="midnightblue" stroke="midnightblue" points="519.283,-91.142 509.007,-93.7221 518.649,-98.1132 519.283,-91.142"/>
</g>
<!-- Node19 -->
<g id="node41" class="node"><title>Node19</title>
<a xlink:href="classtetgenmesh.xhtml#a50e12e269b11573e6e1b91347ad19b37" target="_top" xlink:title="tetgenmesh::recoversegments">
<polygon fill="none" stroke="black" points="796.5,-97.2215 796.5,-118.221 945.5,-118.221 945.5,-97.2215 796.5,-97.2215"/>
<text text-anchor="middle" x="871" y="-105.221" font-family="Helvetica,sans-Serif" font-size="10.00">tetgenmesh::recoversegments</text>
</a>
</g>
<!-- Node18&#45;&gt;Node19 -->
<g id="edge44" class="edge"><title>Node18&#45;&gt;Node19</title>
<path fill="none" stroke="midnightblue" d="M770.574,-107.721C779.325,-107.721 788.042,-107.721 796.478,-107.721"/>
<polygon fill="midnightblue" stroke="midnightblue" points="770.301,-104.222 760.301,-107.721 770.301,-111.222 770.301,-104.222"/>
</g>
<!-- Node20 -->
<g id="node43" class="node"><title>Node20</title>
<a xlink:href="classtetgenmesh.xhtml#a1be7dce56688fbe7a97fc31f98b61c19" target="_top" xlink:title="tetgenmesh::recoverboundary">
<polygon fill="none" stroke="black" points="988,-97.2215 988,-118.221 1134,-118.221 1134,-97.2215 988,-97.2215"/>
<text text-anchor="middle" x="1061" y="-105.221" font-family="Helvetica,sans-Serif" font-size="10.00">tetgenmesh::recoverboundary</text>
</a>
</g>
<!-- Node19&#45;&gt;Node20 -->
<g id="edge46" class="edge"><title>Node19&#45;&gt;Node20</title>
<path fill="none" stroke="midnightblue" d="M955.76,-107.721C966.486,-107.721 977.389,-107.721 987.913,-107.721"/>
<polygon fill="midnightblue" stroke="midnightblue" points="955.548,-104.222 945.548,-107.721 955.548,-111.222 955.548,-104.222"/>
</g>
<!-- Node20&#45;&gt;Node4 -->
<g id="edge48" class="edge"><title>Node20&#45;&gt;Node4</title>
<path fill="none" stroke="midnightblue" d="M1144.44,-110.168C1280.69,-118.106 1553.78,-150.925 1734,-284.721 1765.85,-308.369 1791.37,-349.055 1802.27,-368.192"/>
<polygon fill="midnightblue" stroke="midnightblue" points="1144.25,-106.652 1134.08,-109.597 1143.87,-113.641 1144.25,-106.652"/>
</g>
<!-- Node21&#45;&gt;Node18 -->
<g id="edge52" class="edge"><title>Node21&#45;&gt;Node18</title>
<path fill="none" stroke="midnightblue" d="M519.119,-128.65C542.259,-125.284 567.615,-121.596 590.509,-118.266"/>
<polygon fill="midnightblue" stroke="midnightblue" points="518.399,-125.217 509.007,-130.12 519.407,-132.144 518.399,-125.217"/>
</g>
<!-- Node22&#45;&gt;Node20 -->
<g id="edge58" class="edge"><title>Node22&#45;&gt;Node20</title>
<path fill="none" stroke="midnightblue" d="M526.127,-47.2514C626.055,-54.377 798.711,-68.2114 946,-87.7215 965.587,-90.316 986.936,-93.8353 1005.86,-97.1986"/>
<polygon fill="midnightblue" stroke="midnightblue" points="526.315,-43.7561 516.093,-46.5411 525.821,-50.7386 526.315,-43.7561"/>
</g>
<!-- Node23&#45;&gt;Node4 -->
<g id="edge64" class="edge"><title>Node23&#45;&gt;Node4</title>
<path fill="none" stroke="midnightblue" d="M510.514,-351.933C528.496,-354.847 547.944,-357.696 566,-359.721 700.972,-374.861 735.182,-378.721 871,-378.721 871,-378.721 871,-378.721 1458,-378.721 1571.78,-378.721 1706.37,-378.721 1770.45,-378.721"/>
<polygon fill="midnightblue" stroke="midnightblue" points="510.843,-348.44 500.407,-350.264 509.703,-355.346 510.843,-348.44"/>
</g>
<!-- Node24 -->
<g id="node55" class="node"><title>Node24</title>
<a xlink:href="classtetgenmesh.xhtml#ab859365ca3dd3eafb77fac56d0ae3a03" target="_top" xlink:title="tetgenmesh::insertconstrainedpoints">
<polygon fill="none" stroke="black" points="576,-329.221 576,-350.221 750,-350.221 750,-329.221 576,-329.221"/>
<text text-anchor="middle" x="663" y="-337.221" font-family="Helvetica,sans-Serif" font-size="10.00">tetgenmesh::insertconstrainedpoints</text>
</a>
</g>
<!-- Node23&#45;&gt;Node24 -->
<g id="edge62" class="edge"><title>Node23&#45;&gt;Node24</title>
<path fill="none" stroke="midnightblue" d="M540.535,-339.721C552.293,-339.721 564.244,-339.721 575.84,-339.721"/>
<polygon fill="midnightblue" stroke="midnightblue" points="540.266,-336.222 530.266,-339.721 540.266,-343.222 540.266,-336.222"/>
</g>
<!-- Node26 -->
<g id="node60" class="node"><title>Node26</title>
<a xlink:href="classtetgenmesh.xhtml#a7af360f1ae413f9e0d7803ccae55b6d6" target="_top" xlink:title="tetgenmesh::repairencsegs">
<polygon fill="none" stroke="black" points="596,-213.221 596,-234.221 730,-234.221 730,-213.221 596,-213.221"/>
<text text-anchor="middle" x="663" y="-221.221" font-family="Helvetica,sans-Serif" font-size="10.00">tetgenmesh::repairencsegs</text>
</a>
</g>
<!-- Node25&#45;&gt;Node26 -->
<g id="edge68" class="edge"><title>Node25&#45;&gt;Node26</title>
<path fill="none" stroke="midnightblue" d="M514.215,-249.421C542.494,-244.536 574.695,-238.974 601.891,-234.277"/>
<polygon fill="midnightblue" stroke="midnightblue" points="513.248,-246.036 503.99,-251.187 514.44,-252.934 513.248,-246.036"/>
</g>
<!-- Node25&#45;&gt;Node27 -->
<g id="edge90" class="edge"><title>Node25&#45;&gt;Node27</title>
<path fill="none" stroke="midnightblue" d="M517.767,-266.815C582.048,-271.387 677.208,-278.612 760,-286.721 775.545,-288.244 792.289,-290.095 807.941,-291.916"/>
<polygon fill="midnightblue" stroke="midnightblue" points="517.944,-263.319 507.722,-266.105 517.45,-270.302 517.944,-263.319"/>
</g>
<!-- Node25&#45;&gt;Node29 -->
<g id="edge92" class="edge"><title>Node25&#45;&gt;Node29</title>
<path fill="none" stroke="midnightblue" d="M504.35,-247.99C513.23,-244.901 522.047,-241.179 530,-236.721 548.934,-226.109 545.771,-211.59 566,-203.721 810.7,-108.537 1139.11,-224.177 1232.36,-261.112"/>
<polygon fill="midnightblue" stroke="midnightblue" points="503.166,-244.695 494.727,-251.1 505.319,-251.356 503.166,-244.695"/>
</g>
<!-- Node26&#45;&gt;Node27 -->
<g id="edge70" class="edge"><title>Node26&#45;&gt;Node27</title>
<path fill="none" stroke="midnightblue" d="M728.469,-237.02C739.247,-240.215 750.117,-244.082 760,-248.721 777.866,-257.108 778.436,-265.719 796,-274.721 807.237,-280.481 820.084,-285.329 831.932,-289.178"/>
<polygon fill="midnightblue" stroke="midnightblue" points="729.201,-233.59 718.628,-234.272 727.318,-240.333 729.201,-233.59"/>
</g>
<!-- Node26&#45;&gt;Node29 -->
<g id="edge86" class="edge"><title>Node26&#45;&gt;Node29</title>
<path fill="none" stroke="midnightblue" d="M740.302,-231.565C758.559,-233.338 777.961,-235.157 796,-236.721 934.838,-248.764 1097.35,-260.537 1187.91,-266.89"/>
<polygon fill="midnightblue" stroke="midnightblue" points="740.586,-228.076 730.293,-230.587 739.905,-235.043 740.586,-228.076"/>
</g>
<!-- Node31 -->
<g id="node70" class="node"><title>Node31</title>
<a xlink:href="classtetgenmesh.xhtml#a477bbfde72103de66546d4ea3343b4a1" target="_top" xlink:title="tetgenmesh::delaunayrefinement">
<polygon fill="none" stroke="black" points="1576,-294.221 1576,-315.221 1734,-315.221 1734,-294.221 1576,-294.221"/>
<text text-anchor="middle" x="1655" y="-302.221" font-family="Helvetica,sans-Serif" font-size="10.00">tetgenmesh::delaunayrefinement</text>
</a>
</g>
<!-- Node26&#45;&gt;Node31 -->
<g id="edge88" class="edge"><title>Node26&#45;&gt;Node31</title>
<path fill="none" stroke="midnightblue" d="M740.267,-223.412C820.457,-223.119 949.512,-222.721 1061,-222.721 1061,-222.721 1061,-222.721 1258,-222.721 1384.47,-222.721 1417.46,-229.472 1540,-260.721 1572.94,-269.12 1609.32,-284.059 1632.17,-294.175"/>
<polygon fill="midnightblue" stroke="midnightblue" points="740.238,-219.912 730.251,-223.45 740.264,-226.912 740.238,-219.912"/>
</g>
<!-- Node28 -->
<g id="node64" class="node"><title>Node28</title>
<a xlink:href="classtetgenmesh.xhtml#a701d4f317ed66df6a2e2b7b237e2386a" target="_top" xlink:title="tetgenmesh::repairencfacs">
<polygon fill="none" stroke="black" points="995,-327.221 995,-348.221 1127,-348.221 1127,-327.221 995,-327.221"/>
<text text-anchor="middle" x="1061" y="-335.221" font-family="Helvetica,sans-Serif" font-size="10.00">tetgenmesh::repairencfacs</text>
</a>
</g>
<!-- Node27&#45;&gt;Node28 -->
<g id="edge72" class="edge"><title>Node27&#45;&gt;Node28</title>
<path fill="none" stroke="midnightblue" d="M933.792,-312.28C957.901,-317.102 985.149,-322.551 1008.22,-327.166"/>
<polygon fill="midnightblue" stroke="midnightblue" points="934.166,-308.785 923.673,-310.256 932.793,-315.649 934.166,-308.785"/>
</g>
<!-- Node27&#45;&gt;Node29 -->
<g id="edge84" class="edge"><title>Node27&#45;&gt;Node29</title>
<path fill="none" stroke="midnightblue" d="M944.098,-294.433C1014.04,-289.372 1118.81,-281.792 1187.78,-276.802"/>
<polygon fill="midnightblue" stroke="midnightblue" points="943.761,-290.948 934.04,-295.16 944.266,-297.93 943.761,-290.948"/>
</g>
<!-- Node28&#45;&gt;Node29 -->
<g id="edge74" class="edge"><title>Node28&#45;&gt;Node29</title>
<path fill="none" stroke="midnightblue" d="M1105.05,-324.022C1116.45,-320.41 1128.7,-316.472 1140,-312.721 1170.26,-302.679 1204.67,-290.651 1228.5,-282.229"/>
<polygon fill="midnightblue" stroke="midnightblue" points="1103.77,-320.755 1095.29,-327.1 1105.88,-327.43 1103.77,-320.755"/>
</g>
<!-- Node28&#45;&gt;Node31 -->
<g id="edge82" class="edge"><title>Node28&#45;&gt;Node31</title>
<path fill="none" stroke="midnightblue" d="M1137.42,-333.476C1250.45,-327.197 1461.14,-315.491 1575.77,-309.123"/>
<polygon fill="midnightblue" stroke="midnightblue" points="1136.91,-329.999 1127.12,-334.048 1137.3,-336.988 1136.91,-329.999"/>
</g>
<!-- Node30 -->
<g id="node68" class="node"><title>Node30</title>
<a xlink:href="classtetgenmesh.xhtml#a7c46c82d83099214115fa9719aefbd78" target="_top" xlink:title="tetgenmesh::repairbadtets">
<polygon fill="none" stroke="black" points="1393,-270.221 1393,-291.221 1523,-291.221 1523,-270.221 1393,-270.221"/>
<text text-anchor="middle" x="1458" y="-278.221" font-family="Helvetica,sans-Serif" font-size="10.00">tetgenmesh::repairbadtets</text>
</a>
</g>
<!-- Node29&#45;&gt;Node30 -->
<g id="edge76" class="edge"><title>Node29&#45;&gt;Node30</title>
<path fill="none" stroke="midnightblue" d="M1338.22,-275.332C1356.41,-276.15 1375.5,-277.009 1392.96,-277.795"/>
<polygon fill="midnightblue" stroke="midnightblue" points="1338.38,-271.835 1328.23,-274.882 1338.06,-278.828 1338.38,-271.835"/>
</g>
<!-- Node30&#45;&gt;Node31 -->
<g id="edge78" class="edge"><title>Node30&#45;&gt;Node31</title>
<path fill="none" stroke="midnightblue" d="M1533.12,-289.873C1547.14,-291.581 1561.82,-293.37 1575.95,-295.091"/>
<polygon fill="midnightblue" stroke="midnightblue" points="1533.4,-286.382 1523.05,-288.646 1532.55,-293.33 1533.4,-286.382"/>
</g>
<!-- Node31&#45;&gt;Node4 -->
<g id="edge80" class="edge"><title>Node31&#45;&gt;Node4</title>
<path fill="none" stroke="midnightblue" d="M1686.03,-319.729C1715.77,-334.112 1759.89,-355.454 1786.12,-368.139"/>
<polygon fill="midnightblue" stroke="midnightblue" points="1687.45,-316.527 1676.92,-315.324 1684.4,-322.829 1687.45,-316.527"/>
</g>
<!-- Node33 -->
<g id="node83" class="node"><title>Node33</title>
<a xlink:href="classtetgenmesh.xhtml#ad5c46c2f6c9adeed23fc8c64b682778d" target="_top" xlink:title="tetgenmesh::removeslivers">
<polygon fill="none" stroke="black" points="1191,-561.221 1191,-582.221 1325,-582.221 1325,-561.221 1191,-561.221"/>
<text text-anchor="middle" x="1258" y="-569.221" font-family="Helvetica,sans-Serif" font-size="10.00">tetgenmesh::removeslivers</text>
</a>
</g>
<!-- Node32&#45;&gt;Node33 -->
<g id="edge100" class="edge"><title>Node32&#45;&gt;Node33</title>
<path fill="none" stroke="midnightblue" d="M938.672,-571.721C1009.5,-571.721 1120.04,-571.721 1190.72,-571.721"/>
<polygon fill="midnightblue" stroke="midnightblue" points="938.52,-568.222 928.52,-571.721 938.52,-575.222 938.52,-568.222"/>
</g>
<!-- Node34 -->
<g id="node85" class="node"><title>Node34</title>
<a xlink:href="classtetgenmesh.xhtml#a8bb5c6ad8ccfa57f2a84e5a78295b263" target="_top" xlink:title="tetgenmesh::optimizemesh">
<polygon fill="none" stroke="black" points="1588,-517.221 1588,-538.221 1722,-538.221 1722,-517.221 1588,-517.221"/>
<text text-anchor="middle" x="1655" y="-525.221" font-family="Helvetica,sans-Serif" font-size="10.00">tetgenmesh::optimizemesh</text>
</a>
</g>
<!-- Node33&#45;&gt;Node34 -->
<g id="edge102" class="edge"><title>Node33&#45;&gt;Node34</title>
<path fill="none" stroke="midnightblue" d="M1335.47,-563.136C1408.93,-554.993 1518.18,-542.886 1587.99,-535.149"/>
<polygon fill="midnightblue" stroke="midnightblue" points="1334.9,-559.677 1325.35,-564.257 1335.67,-566.635 1334.9,-559.677"/>
</g>
<!-- Node34&#45;&gt;Node4 -->
<g id="edge104" class="edge"><title>Node34&#45;&gt;Node4</title>
<path fill="none" stroke="midnightblue" d="M1685.79,-512.233C1701.23,-503.606 1719.65,-491.943 1734,-478.721 1764.34,-450.771 1790.6,-408.862 1801.98,-389.382"/>
<polygon fill="midnightblue" stroke="midnightblue" points="1683.75,-509.358 1676.62,-517.199 1687.08,-515.513 1683.75,-509.358"/>
</g>
<!-- Node36 -->
<g id="node90" class="node"><title>Node36</title>
<a xlink:href="classtetgenmesh.xhtml#a0c51cd3511d2b0ef9d0d45fe8b546b2e" target="_top" xlink:title="tetgenmesh::meshsurface">
<polygon fill="none" stroke="black" points="1393,-45.2215 1393,-66.2215 1523,-66.2215 1523,-45.2215 1393,-45.2215"/>
<text text-anchor="middle" x="1458" y="-53.2215" font-family="Helvetica,sans-Serif" font-size="10.00">tetgenmesh::meshsurface</text>
</a>
</g>
<!-- Node35&#45;&gt;Node36 -->
<g id="edge108" class="edge"><title>Node35&#45;&gt;Node36</title>
<path fill="none" stroke="midnightblue" d="M272.866,-51.7954C295.178,-41.4031 326.742,-28.2762 356,-21.7215 489.399,8.16442 526.294,-2.72147 663,-2.72147 663,-2.72147 663,-2.72147 1061,-2.72147 1188.08,-2.72147 1336.03,-29.7306 1410.3,-45.187"/>
<polygon fill="midnightblue" stroke="midnightblue" points="271.133,-48.7435 263.606,-56.1992 274.14,-55.0651 271.133,-48.7435"/>
</g>
<!-- Node36&#45;&gt;Node4 -->
<g id="edge110" class="edge"><title>Node36&#45;&gt;Node4</title>
<path fill="none" stroke="midnightblue" d="M1533.19,-57.5136C1594.95,-62.9995 1680.66,-80.4419 1734,-132.721 1769.2,-167.216 1798.77,-325.486 1806.2,-368.118"/>
<polygon fill="midnightblue" stroke="midnightblue" points="1533.35,-54.0157 1523.1,-56.7046 1532.79,-60.9933 1533.35,-54.0157"/>
</g>
<!-- Node37&#45;&gt;Node22 -->
<g id="edge116" class="edge"><title>Node37&#45;&gt;Node22</title>
<path fill="none" stroke="midnightblue" d="M253.907,-176.026C271.4,-146.367 308.628,-90.641 356,-61.7215 362.217,-57.926 369.084,-54.8501 376.152,-52.3574"/>
<polygon fill="midnightblue" stroke="midnightblue" points="250.693,-174.594 248.745,-185.008 256.762,-178.082 250.693,-174.594"/>
</g>
</g>
</svg>
        <g id="navigator" transform="translate(0 0)" fill="#404254">
                <rect fill="#f2f5e9" fill-opacity="0.5" stroke="#606060" stroke-width=".5" x="0" y="0" width="60" height="60"/>
                <use id="zoomplus" xlink:href="#zoomPlus" x="17" y="9" onmousedown="handleZoom(evt,'in')"/>
                <use id="zoomminus" xlink:href="#zoomMin" x="42" y="9" onmousedown="handleZoom(evt,'out')"/>
                <use id="reset" xlink:href="#resetDef" x="30" y="36" onmousedown="handleReset()"/>
                <g id="arrowUp" xlink:href="#dirArrow" transform="translate(30 24)" onmousedown="handlePan(0,-1)">
                  <use xlink:href="#rim" fill="#404040">
                        <set attributeName="fill" to="#808080" begin="arrowUp.mouseover" end="arrowUp.mouseout"/>
                  </use>
                  <path fill="none" stroke="white" stroke-width="1.5" d="M0,-3.0v7 M-2.5,-0.5L0,-3.0L2.5,-0.5"/>
                </g>
                <g id="arrowRight" xlink:href="#dirArrow" transform="rotate(90) translate(36 -43)" onmousedown="handlePan(1,0)">
                  <use xlink:href="#rim" fill="#404040">
                        <set attributeName="fill" to="#808080" begin="arrowRight.mouseover" end="arrowRight.mouseout"/>
                  </use>
                  <path fill="none" stroke="white" stroke-width="1.5" d="M0,-3.0v7 M-2.5,-0.5L0,-3.0L2.5,-0.5"/>
                </g>
                <g id="arrowDown" xlink:href="#dirArrow" transform="rotate(180) translate(-30 -48)" onmousedown="handlePan(0,1)">
                  <use xlink:href="#rim" fill="#404040">
                        <set attributeName="fill" to="#808080" begin="arrowDown.mouseover" end="arrowDown.mouseout"/>
                  </use>
                  <path fill="none" stroke="white" stroke-width="1.5" d="M0,-3.0v7 M-2.5,-0.5L0,-3.0L2.5,-0.5"/>
                </g>
                <g id="arrowLeft" xlink:href="#dirArrow" transform="rotate(270) translate(-36 17)" onmousedown="handlePan(-1,0)">
                  <use xlink:href="#rim" fill="#404040">
                        <set attributeName="fill" to="#808080" begin="arrowLeft.mouseover" end="arrowLeft.mouseout"/>
                  </use>
                  <path fill="none" stroke="white" stroke-width="1.5" d="M0,-3.0v7 M-2.5,-0.5L0,-3.0L2.5,-0.5"/>
                </g>
        </g>
        <svg viewBox="0 0 15 15" width="100%" height="30px" preserveAspectRatio="xMaxYMin meet">
         <g id="arrow_out" transform="scale(0.3 0.3)">
          <a xlink:href="classtetgenmesh_ad48cec74c7fbcf66ebd312661da5d0bc_icgraph_org.svg" target="_base">
           <rect id="button" ry="5" rx="5" y="6" x="6" height="38" width="38"
                fill="#f2f5e9" fill-opacity="0.5" stroke="#606060" stroke-width="1.0"/>
           <path id="arrow"
             d="M 11.500037,31.436501 C 11.940474,20.09759 22.043105,11.32322 32.158766,21.979434 L 37.068811,17.246167 C 37.068811,17.246167 37.088388,32 37.088388,32 L 22.160133,31.978069 C 22.160133,31.978069 26.997745,27.140456 26.997745,27.140456 C 18.528582,18.264221 13.291696,25.230495 11.500037,31.436501 z"
             style="fill:#404040;"/>
          </a>
         </g>
        </svg>
</svg>
