<?xml version="1.0" encoding="UTF-8" standalone="no"?>
<!DOCTYPE svg PUBLIC "-//W3C//DTD SVG 1.1//EN"
 "http://www.w3.org/Graphics/SVG/1.1/DTD/svg11.dtd">
<!-- Generated by graphviz version 2.26.3 (20100126.1600)
 -->
<!-- Title: tetgenmesh::locate Pages: 1 -->
<svg width="562pt" height="510pt"
 viewBox="0.00 0.00 562.00 510.00" xmlns="http://www.w3.org/2000/svg" xmlns:xlink="http://www.w3.org/1999/xlink">
<g id="graph1" class="graph" transform="scale(1 1) rotate(0) translate(4 506)">
<title>tetgenmesh::locate</title>
<!-- Node1 -->
<g id="node1" class="node"><title>Node1</title>
<polygon fill="#bfbfbf" stroke="black" points="0,-240.5 0,-261.5 100,-261.5 100,-240.5 0,-240.5"/>
<text text-anchor="middle" x="50" y="-248.5" font-family="Helvetica,sans-Serif" font-size="10.00">tetgenmesh::locate</text>
</g>
<!-- Node2 -->
<g id="node3" class="node"><title>Node2</title>
<a xlink:href="classtetgenmesh.xhtml#aa14f996a69b46afb1429ebf35a6e881c" target="_top" xlink:title="tetgenmesh::ishulltet">
<polygon fill="none" stroke="black" points="151.5,-480.5 151.5,-501.5 258.5,-501.5 258.5,-480.5 151.5,-480.5"/>
<text text-anchor="middle" x="205" y="-488.5" font-family="Helvetica,sans-Serif" font-size="10.00">tetgenmesh::ishulltet</text>
</a>
</g>
<!-- Node1&#45;&gt;Node2 -->
<g id="edge2" class="edge"><title>Node1&#45;&gt;Node2</title>
<path fill="none" stroke="midnightblue" d="M50.9015,-261.546C54.488,-296.78 70.8979,-411.54 136,-471 137.974,-472.803 140.102,-474.445 142.343,-475.939"/>
<polygon fill="midnightblue" stroke="midnightblue" points="141.025,-479.21 151.467,-481.002 144.421,-473.089 141.025,-479.21"/>
</g>
<!-- Node3 -->
<g id="node5" class="node"><title>Node3</title>
<a xlink:href="classtetgenmesh.xhtml#a57b18059c68cacbe01720c387c19ee9e" target="_top" xlink:title="tetgenmesh::fsymself">
<polygon fill="none" stroke="black" points="149.5,-440.5 149.5,-461.5 260.5,-461.5 260.5,-440.5 149.5,-440.5"/>
<text text-anchor="middle" x="205" y="-448.5" font-family="Helvetica,sans-Serif" font-size="10.00">tetgenmesh::fsymself</text>
</a>
</g>
<!-- Node1&#45;&gt;Node3 -->
<g id="edge4" class="edge"><title>Node1&#45;&gt;Node3</title>
<path fill="none" stroke="midnightblue" d="M51.9605,-261.789C58.1993,-292.966 80.5419,-383.946 136,-431 137.956,-432.659 140.042,-434.181 142.226,-435.577"/>
<polygon fill="midnightblue" stroke="midnightblue" points="140.6,-438.676 151.061,-440.358 143.932,-432.52 140.6,-438.676"/>
</g>
<!-- Node4 -->
<g id="node7" class="node"><title>Node4</title>
<a xlink:href="classtetgenmesh.xhtml#ae2d4d27d7babd7b0e60956cc00bca89a" target="_top" xlink:title="tetgenmesh::org">
<polygon fill="none" stroke="black" points="161.5,-400.5 161.5,-421.5 248.5,-421.5 248.5,-400.5 161.5,-400.5"/>
<text text-anchor="middle" x="205" y="-408.5" font-family="Helvetica,sans-Serif" font-size="10.00">tetgenmesh::org</text>
</a>
</g>
<!-- Node1&#45;&gt;Node4 -->
<g id="edge6" class="edge"><title>Node1&#45;&gt;Node4</title>
<path fill="none" stroke="midnightblue" d="M53.4739,-261.617C62.5844,-287.773 89.7113,-355.736 136,-391 140.767,-394.632 146.175,-397.604 151.815,-400.038"/>
<polygon fill="midnightblue" stroke="midnightblue" points="150.863,-403.419 161.456,-403.645 153.317,-396.863 150.863,-403.419"/>
</g>
<!-- Node5 -->
<g id="node9" class="node"><title>Node5</title>
<a xlink:href="classtetgenmesh.xhtml#ad56ef3448cd57e637acf373622bfb769" target="_top" xlink:title="tetgenmesh::dest">
<polygon fill="none" stroke="black" points="159,-360.5 159,-381.5 251,-381.5 251,-360.5 159,-360.5"/>
<text text-anchor="middle" x="205" y="-368.5" font-family="Helvetica,sans-Serif" font-size="10.00">tetgenmesh::dest</text>
</a>
</g>
<!-- Node1&#45;&gt;Node5 -->
<g id="edge8" class="edge"><title>Node1&#45;&gt;Node5</title>
<path fill="none" stroke="midnightblue" d="M56.1142,-261.528C68.512,-281.937 98.6324,-326.979 136,-351 140.111,-353.643 144.581,-355.945 149.202,-357.95"/>
<polygon fill="midnightblue" stroke="midnightblue" points="148.247,-361.332 158.837,-361.658 150.762,-354.799 148.247,-361.332"/>
</g>
<!-- Node6 -->
<g id="node11" class="node"><title>Node6</title>
<a xlink:href="classtetgenmesh.xhtml#a9287d941f7f432ca846d5c004603af40" target="_top" xlink:title="tetgenmesh::apex">
<polygon fill="none" stroke="black" points="157.5,-320.5 157.5,-341.5 252.5,-341.5 252.5,-320.5 157.5,-320.5"/>
<text text-anchor="middle" x="205" y="-328.5" font-family="Helvetica,sans-Serif" font-size="10.00">tetgenmesh::apex</text>
</a>
</g>
<!-- Node1&#45;&gt;Node6 -->
<g id="edge10" class="edge"><title>Node1&#45;&gt;Node6</title>
<path fill="none" stroke="midnightblue" d="M62.2964,-261.55C78.2976,-274.796 107.581,-297.424 136,-311 140.663,-313.228 145.625,-315.258 150.666,-317.097"/>
<polygon fill="midnightblue" stroke="midnightblue" points="149.806,-320.501 160.401,-320.398 152.054,-313.872 149.806,-320.501"/>
</g>
<!-- Node7 -->
<g id="node13" class="node"><title>Node7</title>
<a xlink:href="predicates_8cxx.xhtml#a701f35178b28c7bbb94644665c0b058a" target="_top" xlink:title="orient3d">
<polygon fill="none" stroke="black" points="179.5,-280.5 179.5,-301.5 230.5,-301.5 230.5,-280.5 179.5,-280.5"/>
<text text-anchor="middle" x="205" y="-288.5" font-family="Helvetica,sans-Serif" font-size="10.00">orient3d</text>
</a>
</g>
<!-- Node1&#45;&gt;Node7 -->
<g id="edge12" class="edge"><title>Node1&#45;&gt;Node7</title>
<path fill="none" stroke="midnightblue" d="M90.7244,-261.51C115.102,-267.8 145.799,-275.722 169.237,-281.771"/>
<polygon fill="midnightblue" stroke="midnightblue" points="168.565,-285.212 179.122,-284.322 170.314,-278.434 168.565,-285.212"/>
</g>
<!-- Node12 -->
<g id="node23" class="node"><title>Node12</title>
<a xlink:href="classtetgenmesh.xhtml#a2ff33d38976a7bc134380ef8f15c4519" target="_top" xlink:title="tetgenmesh::oppo">
<polygon fill="none" stroke="black" points="157.5,-240.5 157.5,-261.5 252.5,-261.5 252.5,-240.5 157.5,-240.5"/>
<text text-anchor="middle" x="205" y="-248.5" font-family="Helvetica,sans-Serif" font-size="10.00">tetgenmesh::oppo</text>
</a>
</g>
<!-- Node1&#45;&gt;Node12 -->
<g id="edge22" class="edge"><title>Node1&#45;&gt;Node12</title>
<path fill="none" stroke="midnightblue" d="M100.324,-251C115.191,-251 131.586,-251 146.901,-251"/>
<polygon fill="midnightblue" stroke="midnightblue" points="147.299,-254.5 157.299,-251 147.299,-247.5 147.299,-254.5"/>
</g>
<!-- Node13 -->
<g id="node25" class="node"><title>Node13</title>
<a xlink:href="classtetgenmesh.xhtml#a9c4f9877ba70f7c0f399b7fcdd8fdddf" target="_top" xlink:title="tetgenmesh::esymself">
<polygon fill="none" stroke="black" points="148.5,-200.5 148.5,-221.5 261.5,-221.5 261.5,-200.5 148.5,-200.5"/>
<text text-anchor="middle" x="205" y="-208.5" font-family="Helvetica,sans-Serif" font-size="10.00">tetgenmesh::esymself</text>
</a>
</g>
<!-- Node1&#45;&gt;Node13 -->
<g id="edge24" class="edge"><title>Node1&#45;&gt;Node13</title>
<path fill="none" stroke="midnightblue" d="M90.7244,-240.49C110.226,-235.458 133.772,-229.381 154.411,-224.055"/>
<polygon fill="midnightblue" stroke="midnightblue" points="155.471,-227.397 164.279,-221.509 153.721,-220.619 155.471,-227.397"/>
</g>
<!-- Node14 -->
<g id="node27" class="node"><title>Node14</title>
<a xlink:href="classtetgenmesh.xhtml#adf5410985bba6ea50ce8f1efdfc97fde" target="_top" xlink:title="tetgenmesh::eprevself">
<polygon fill="none" stroke="black" points="148.5,-160.5 148.5,-181.5 261.5,-181.5 261.5,-160.5 148.5,-160.5"/>
<text text-anchor="middle" x="205" y="-168.5" font-family="Helvetica,sans-Serif" font-size="10.00">tetgenmesh::eprevself</text>
</a>
</g>
<!-- Node1&#45;&gt;Node14 -->
<g id="edge26" class="edge"><title>Node1&#45;&gt;Node14</title>
<path fill="none" stroke="midnightblue" d="M62.2964,-240.45C78.2976,-227.204 107.581,-204.576 136,-191 140.663,-188.772 145.625,-186.742 150.666,-184.903"/>
<polygon fill="midnightblue" stroke="midnightblue" points="152.054,-188.128 160.401,-181.602 149.806,-181.499 152.054,-188.128"/>
</g>
<!-- Node15 -->
<g id="node29" class="node"><title>Node15</title>
<a xlink:href="classtetgenmesh.xhtml#a0ae35b219eb4a0d1e0c14f9759cd6563" target="_top" xlink:title="tetgenmesh::randomnation">
<polygon fill="none" stroke="black" points="139,-120.5 139,-141.5 271,-141.5 271,-120.5 139,-120.5"/>
<text text-anchor="middle" x="205" y="-128.5" font-family="Helvetica,sans-Serif" font-size="10.00">tetgenmesh::randomnation</text>
</a>
</g>
<!-- Node1&#45;&gt;Node15 -->
<g id="edge28" class="edge"><title>Node1&#45;&gt;Node15</title>
<path fill="none" stroke="midnightblue" d="M56.1142,-240.472C68.512,-220.063 98.6324,-175.021 136,-151 139.121,-148.994 142.449,-147.183 145.893,-145.551"/>
<polygon fill="midnightblue" stroke="midnightblue" points="147.355,-148.733 155.219,-141.632 144.644,-142.279 147.355,-148.733"/>
</g>
<!-- Node16 -->
<g id="node31" class="node"><title>Node16</title>
<a xlink:href="classtetgenmesh.xhtml#a532ef2752219b80766e145980178443e" target="_top" xlink:title="tetgenmesh::enextesymself">
<polygon fill="none" stroke="black" points="136.5,-80.5 136.5,-101.5 273.5,-101.5 273.5,-80.5 136.5,-80.5"/>
<text text-anchor="middle" x="205" y="-88.5" font-family="Helvetica,sans-Serif" font-size="10.00">tetgenmesh::enextesymself</text>
</a>
</g>
<!-- Node1&#45;&gt;Node16 -->
<g id="edge30" class="edge"><title>Node1&#45;&gt;Node16</title>
<path fill="none" stroke="midnightblue" d="M53.4739,-240.383C62.5844,-214.227 89.7113,-146.264 136,-111 138.451,-109.133 141.071,-107.44 143.805,-105.905"/>
<polygon fill="midnightblue" stroke="midnightblue" points="145.384,-109.029 152.858,-101.519 142.333,-102.729 145.384,-109.029"/>
</g>
<!-- Node17 -->
<g id="node33" class="node"><title>Node17</title>
<a xlink:href="classtetgenmesh.xhtml#a1c65efaf2a8a72d023327c2592d89188" target="_top" xlink:title="tetgenmesh::enextself">
<polygon fill="none" stroke="black" points="148.5,-40.5 148.5,-61.5 261.5,-61.5 261.5,-40.5 148.5,-40.5"/>
<text text-anchor="middle" x="205" y="-48.5" font-family="Helvetica,sans-Serif" font-size="10.00">tetgenmesh::enextself</text>
</a>
</g>
<!-- Node1&#45;&gt;Node17 -->
<g id="edge32" class="edge"><title>Node1&#45;&gt;Node17</title>
<path fill="none" stroke="midnightblue" d="M51.9605,-240.211C58.1993,-209.034 80.5419,-118.054 136,-71 137.956,-69.3408 140.042,-67.8191 142.226,-66.4235"/>
<polygon fill="midnightblue" stroke="midnightblue" points="143.932,-69.4798 151.061,-61.6418 140.6,-63.3236 143.932,-69.4798"/>
</g>
<!-- Node18 -->
<g id="node35" class="node"><title>Node18</title>
<a xlink:href="classtetgenmesh.xhtml#a548dec05fd31790f2ae36cf3890ffb15" target="_top" xlink:title="tetgenmesh::eprevesymself">
<polygon fill="none" stroke="black" points="136.5,-0.5 136.5,-21.5 273.5,-21.5 273.5,-0.5 136.5,-0.5"/>
<text text-anchor="middle" x="205" y="-8.5" font-family="Helvetica,sans-Serif" font-size="10.00">tetgenmesh::eprevesymself</text>
</a>
</g>
<!-- Node1&#45;&gt;Node18 -->
<g id="edge34" class="edge"><title>Node1&#45;&gt;Node18</title>
<path fill="none" stroke="midnightblue" d="M50.9015,-240.454C54.488,-205.22 70.8979,-90.4605 136,-31 137.684,-29.4623 139.479,-28.0423 141.36,-26.7309"/>
<polygon fill="midnightblue" stroke="midnightblue" points="143.21,-29.7043 150.092,-21.6494 139.689,-23.6542 143.21,-29.7043"/>
</g>
<!-- Node8 -->
<g id="node15" class="node"><title>Node8</title>
<a xlink:href="predicates_8cxx.xhtml#ae16b246ccaad9f1d90f37590816c5fde" target="_top" xlink:title="orient3dadapt">
<polygon fill="none" stroke="black" points="310.5,-280.5 310.5,-301.5 385.5,-301.5 385.5,-280.5 310.5,-280.5"/>
<text text-anchor="middle" x="348" y="-288.5" font-family="Helvetica,sans-Serif" font-size="10.00">orient3dadapt</text>
</a>
</g>
<!-- Node7&#45;&gt;Node8 -->
<g id="edge14" class="edge"><title>Node7&#45;&gt;Node8</title>
<path fill="none" stroke="midnightblue" d="M230.566,-291C249.88,-291 276.95,-291 300.232,-291"/>
<polygon fill="midnightblue" stroke="midnightblue" points="300.282,-294.5 310.282,-291 300.282,-287.5 300.282,-294.5"/>
</g>
<!-- Node9 -->
<g id="node17" class="node"><title>Node9</title>
<a xlink:href="predicates_8cxx.xhtml#abdcdaa8948d9a2937154d9d67f67da8d" target="_top" xlink:title="scale_expansion_zeroelim">
<polygon fill="none" stroke="black" points="422.5,-326.5 422.5,-347.5 553.5,-347.5 553.5,-326.5 422.5,-326.5"/>
<text text-anchor="middle" x="488" y="-334.5" font-family="Helvetica,sans-Serif" font-size="10.00">scale_expansion_zeroelim</text>
</a>
</g>
<!-- Node8&#45;&gt;Node9 -->
<g id="edge16" class="edge"><title>Node8&#45;&gt;Node9</title>
<path fill="none" stroke="midnightblue" d="M377.072,-301.544C390.671,-306.392 407.116,-312.133 422,-317 428.575,-319.15 435.545,-321.349 442.396,-323.464"/>
<polygon fill="midnightblue" stroke="midnightblue" points="441.701,-326.912 452.288,-326.489 443.748,-320.218 441.701,-326.912"/>
</g>
<!-- Node10 -->
<g id="node19" class="node"><title>Node10</title>
<a xlink:href="predicates_8cxx.xhtml#a37646a7e0014e10c612e946bc95aeeea" target="_top" xlink:title="fast_expansion_sum\l_zeroelim">
<polygon fill="none" stroke="black" points="434.5,-274 434.5,-308 541.5,-308 541.5,-274 434.5,-274"/>
<text text-anchor="start" x="442.5" y="-295" font-family="Helvetica,sans-Serif" font-size="10.00">fast_expansion_sum</text>
<text text-anchor="middle" x="488" y="-282" font-family="Helvetica,sans-Serif" font-size="10.00">_zeroelim</text>
</a>
</g>
<!-- Node8&#45;&gt;Node10 -->
<g id="edge18" class="edge"><title>Node8&#45;&gt;Node10</title>
<path fill="none" stroke="midnightblue" d="M385.517,-291C397.458,-291 411.019,-291 424.277,-291"/>
<polygon fill="midnightblue" stroke="midnightblue" points="424.324,-294.5 434.324,-291 424.324,-287.5 424.324,-294.5"/>
</g>
<!-- Node11 -->
<g id="node21" class="node"><title>Node11</title>
<a xlink:href="predicates_8cxx.xhtml#a3487d9f90ea72da543d5d38b3dab1fbc" target="_top" xlink:title="estimate">
<polygon fill="none" stroke="black" points="461,-234.5 461,-255.5 515,-255.5 515,-234.5 461,-234.5"/>
<text text-anchor="middle" x="488" y="-242.5" font-family="Helvetica,sans-Serif" font-size="10.00">estimate</text>
</a>
</g>
<!-- Node8&#45;&gt;Node11 -->
<g id="edge20" class="edge"><title>Node8&#45;&gt;Node11</title>
<path fill="none" stroke="midnightblue" d="M377.072,-280.456C390.671,-275.608 407.116,-269.867 422,-265 431.459,-261.907 441.735,-258.713 451.298,-255.811"/>
<polygon fill="midnightblue" stroke="midnightblue" points="452.376,-259.142 460.943,-252.909 450.359,-252.439 452.376,-259.142"/>
</g>
</g>
</svg>
