<?xml version="1.0" encoding="UTF-8" standalone="no"?>
<!DOCTYPE svg PUBLIC "-//W3C//DTD SVG 1.1//EN"
 "http://www.w3.org/Graphics/SVG/1.1/DTD/svg11.dtd">
<!-- Generated by graphviz version 2.26.3 (20100126.1600)
 -->
<!-- Title: GUIMainWindow Pages: 1 -->
<svg width="1780pt" height="398pt"
 viewBox="0.00 0.00 1780.00 398.12" xmlns="http://www.w3.org/2000/svg" xmlns:xlink="http://www.w3.org/1999/xlink">
<g id="graph1" class="graph" transform="scale(1 1) rotate(0) translate(4 394.119)">
<title>GUIMainWindow</title>
<!-- Node1 -->
<g id="node1" class="node"><title>Node1</title>
<polygon fill="#bfbfbf" stroke="black" points="1680.5,-277.5 1680.5,-298.5 1771.5,-298.5 1771.5,-277.5 1680.5,-277.5"/>
<text text-anchor="middle" x="1726" y="-285.5" font-family="Helvetica,sans-Serif" font-size="10.00">GUIMainWindow</text>
</g>
<!-- Node2 -->
<g id="node2" class="node"><title>Node2</title>
<polygon fill="none" stroke="#bfbfbf" points="1257.5,-354.5 1257.5,-375.5 1314.5,-375.5 1314.5,-354.5 1257.5,-354.5"/>
<text text-anchor="middle" x="1286" y="-362.5" font-family="Helvetica,sans-Serif" font-size="10.00">wxFrame</text>
</g>
<!-- Node2&#45;&gt;Node1 -->
<g id="edge2" class="edge"><title>Node2&#45;&gt;Node1</title>
<path fill="none" stroke="midnightblue" d="M1324.9,-374.037C1396.35,-388.487 1551.3,-409.677 1662,-352 1686.8,-339.076 1708.06,-313.183 1718.7,-298.604"/>
<polygon fill="midnightblue" stroke="midnightblue" points="1325.48,-370.584 1314.98,-371.964 1324.05,-377.436 1325.48,-370.584"/>
</g>
<!-- Node26 -->
<g id="node52" class="node"><title>Node26</title>
<a xlink:href="classGUICutRenderWindow.xhtml" target="_top" xlink:title="Fenster zum erstellen zweidimensionaler Temperaturverteilungen. ">
<polygon fill="none" stroke="black" points="1440.5,-298.5 1440.5,-319.5 1557.5,-319.5 1557.5,-298.5 1440.5,-298.5"/>
<text text-anchor="middle" x="1499" y="-306.5" font-family="Helvetica,sans-Serif" font-size="10.00">GUICutRenderWindow</text>
</a>
</g>
<!-- Node2&#45;&gt;Node26 -->
<g id="edge56" class="edge"><title>Node2&#45;&gt;Node26</title>
<path fill="none" stroke="midnightblue" d="M1324.88,-354.778C1362.84,-344.798 1420.34,-329.681 1458.75,-319.581"/>
<polygon fill="midnightblue" stroke="midnightblue" points="1323.51,-351.52 1314.73,-357.448 1325.29,-358.29 1323.51,-351.52"/>
</g>
<!-- Node29 -->
<g id="node60" class="node"><title>Node29</title>
<a xlink:href="classGUIAnalyzeOutputWindow.xhtml" target="_top" xlink:title="Übersichtsfenster über die Analysedaten. ">
<polygon fill="none" stroke="black" points="1432,-338.5 1432,-359.5 1566,-359.5 1566,-338.5 1432,-338.5"/>
<text text-anchor="middle" x="1499" y="-346.5" font-family="Helvetica,sans-Serif" font-size="10.00">GUIAnalyzeOutputWindow</text>
</a>
</g>
<!-- Node2&#45;&gt;Node29 -->
<g id="edge66" class="edge"><title>Node2&#45;&gt;Node29</title>
<path fill="none" stroke="midnightblue" d="M1324.74,-362.09C1354.58,-359.848 1396.56,-356.695 1431.83,-354.046"/>
<polygon fill="midnightblue" stroke="midnightblue" points="1324.44,-358.603 1314.73,-362.842 1324.96,-365.583 1324.44,-358.603"/>
</g>
<!-- Node3 -->
<g id="node4" class="node"><title>Node3</title>
<a xlink:href="classPropertiesBox.xhtml" target="_top" xlink:title="Oberfläche zum Verändern/Anzeigen der Eigenschaften eines Objekts. ">
<polygon fill="none" stroke="black" points="1460,-258.5 1460,-279.5 1538,-279.5 1538,-258.5 1460,-258.5"/>
<text text-anchor="middle" x="1499" y="-266.5" font-family="Helvetica,sans-Serif" font-size="10.00">PropertiesBox</text>
</a>
</g>
<!-- Node3&#45;&gt;Node1 -->
<g id="edge4" class="edge"><title>Node3&#45;&gt;Node1</title>
<path fill="none" stroke="#9a32cd" stroke-dasharray="5,2" d="M1548.18,-267.019C1580.64,-266.42 1624.02,-266.97 1662,-272 1671.2,-273.218 1680.98,-275.267 1690.06,-277.5"/>
<polygon fill="#9a32cd" stroke="#9a32cd" points="1547.97,-263.523 1538.05,-267.25 1548.12,-270.521 1547.97,-263.523"/>
<text text-anchor="middle" x="1623" y="-276" font-family="Helvetica,sans-Serif" font-size="10.00"> propbox</text>
</g>
<!-- Node4 -->
<g id="node6" class="node"><title>Node4</title>
<polygon fill="none" stroke="#bfbfbf" points="1250,-220.5 1250,-241.5 1322,-241.5 1322,-220.5 1250,-220.5"/>
<text text-anchor="middle" x="1286" y="-228.5" font-family="Helvetica,sans-Serif" font-size="10.00">wxStaticBox</text>
</g>
<!-- Node4&#45;&gt;Node3 -->
<g id="edge6" class="edge"><title>Node4&#45;&gt;Node3</title>
<path fill="none" stroke="midnightblue" d="M1332.44,-239.286C1370.53,-246.08 1423.83,-255.59 1459.8,-262.006"/>
<polygon fill="midnightblue" stroke="midnightblue" points="1332.59,-235.757 1322.13,-237.446 1331.36,-242.648 1332.59,-235.757"/>
</g>
<!-- Node30 -->
<g id="node63" class="node"><title>Node30</title>
<a xlink:href="classViewpropBox.xhtml" target="_top" xlink:title="Oberfläche zum Verändern/Anzeigen der Visualisierungsoptionen. ">
<polygon fill="none" stroke="black" points="1462,-212.5 1462,-233.5 1536,-233.5 1536,-212.5 1462,-212.5"/>
<text text-anchor="middle" x="1499" y="-220.5" font-family="Helvetica,sans-Serif" font-size="10.00">ViewpropBox</text>
</a>
</g>
<!-- Node4&#45;&gt;Node30 -->
<g id="edge70" class="edge"><title>Node4&#45;&gt;Node30</title>
<path fill="none" stroke="midnightblue" d="M1332.15,-229.267C1371.03,-227.807 1425.92,-225.745 1461.97,-224.391"/>
<polygon fill="midnightblue" stroke="midnightblue" points="1331.99,-225.77 1322.13,-229.643 1332.26,-232.765 1331.99,-225.77"/>
</g>
<!-- Node5 -->
<g id="node8" class="node"><title>Node5</title>
<a xlink:href="classGUITimeline.xhtml" target="_top" xlink:title="Eine Zeitleistenkomponente. ">
<polygon fill="none" stroke="black" points="1250.5,-263.5 1250.5,-284.5 1321.5,-284.5 1321.5,-263.5 1250.5,-263.5"/>
<text text-anchor="middle" x="1286" y="-271.5" font-family="Helvetica,sans-Serif" font-size="10.00">GUITimeline</text>
</a>
</g>
<!-- Node5&#45;&gt;Node3 -->
<g id="edge8" class="edge"><title>Node5&#45;&gt;Node3</title>
<path fill="none" stroke="#9a32cd" stroke-dasharray="5,2" d="M1331.98,-272.921C1370.16,-272.024 1423.87,-270.764 1459.98,-269.916"/>
<polygon fill="#9a32cd" stroke="#9a32cd" points="1331.57,-269.429 1321.65,-273.163 1331.73,-276.427 1331.57,-269.429"/>
<text text-anchor="middle" x="1388" y="-276" font-family="Helvetica,sans-Serif" font-size="10.00"> sdTimeline</text>
</g>
<!-- Node6 -->
<g id="node10" class="node"><title>Node6</title>
<polygon fill="none" stroke="#bfbfbf" points="1006,-307.5 1006,-328.5 1060,-328.5 1060,-307.5 1006,-307.5"/>
<text text-anchor="middle" x="1033" y="-315.5" font-family="Helvetica,sans-Serif" font-size="10.00">wxPanel</text>
</g>
<!-- Node6&#45;&gt;Node5 -->
<g id="edge10" class="edge"><title>Node6&#45;&gt;Node5</title>
<path fill="none" stroke="midnightblue" d="M1070.12,-311.544C1118.49,-303.132 1202.52,-288.519 1250.22,-280.222"/>
<polygon fill="midnightblue" stroke="midnightblue" points="1069.33,-308.129 1060.08,-313.291 1070.53,-315.026 1069.33,-308.129"/>
</g>
<!-- Node27 -->
<g id="node55" class="node"><title>Node27</title>
<a xlink:href="classGUIRenderCutCanvas.xhtml" target="_top" xlink:title="Zeichenfläche für die 2D&#45;Temperaturverteilung. ">
<polygon fill="none" stroke="black" points="1228,-314.5 1228,-335.5 1344,-335.5 1344,-314.5 1228,-314.5"/>
<text text-anchor="middle" x="1286" y="-322.5" font-family="Helvetica,sans-Serif" font-size="10.00">GUIRenderCutCanvas</text>
</a>
</g>
<!-- Node6&#45;&gt;Node27 -->
<g id="edge60" class="edge"><title>Node6&#45;&gt;Node27</title>
<path fill="none" stroke="midnightblue" d="M1070.3,-319.032C1111.84,-320.181 1179.5,-322.053 1227.97,-323.394"/>
<polygon fill="midnightblue" stroke="midnightblue" points="1070.17,-315.527 1060.08,-318.749 1069.97,-322.524 1070.17,-315.527"/>
</g>
<!-- Node7 -->
<g id="node12" class="node"><title>Node7</title>
<a xlink:href="classstd_1_1vector.xhtml" target="_top" xlink:title="std::vector\&lt; string \&gt;">
<polygon fill="none" stroke="black" points="980.5,-224.5 980.5,-245.5 1085.5,-245.5 1085.5,-224.5 980.5,-224.5"/>
<text text-anchor="middle" x="1033" y="-232.5" font-family="Helvetica,sans-Serif" font-size="10.00">std::vector&lt; string &gt;</text>
</a>
</g>
<!-- Node7&#45;&gt;Node5 -->
<g id="edge12" class="edge"><title>Node7&#45;&gt;Node5</title>
<path fill="none" stroke="#9a32cd" stroke-dasharray="5,2" d="M1095.76,-240.679C1129.71,-244.195 1172.31,-249.323 1210,-256 1223.22,-258.341 1237.58,-261.564 1250.22,-264.636"/>
<polygon fill="#9a32cd" stroke="#9a32cd" points="1095.81,-237.167 1085.51,-239.639 1095.1,-244.131 1095.81,-237.167"/>
<text text-anchor="middle" x="1161" y="-260" font-family="Helvetica,sans-Serif" font-size="10.00"> names</text>
</g>
<!-- Node8 -->
<g id="node14" class="node"><title>Node8</title>
<a xlink:href="classstd_1_1vector.xhtml" target="_top" xlink:title="std::vector\&lt; int \&gt;">
<polygon fill="none" stroke="black" points="987,-264.5 987,-285.5 1079,-285.5 1079,-264.5 987,-264.5"/>
<text text-anchor="middle" x="1033" y="-272.5" font-family="Helvetica,sans-Serif" font-size="10.00">std::vector&lt; int &gt;</text>
</a>
</g>
<!-- Node8&#45;&gt;Node5 -->
<g id="edge14" class="edge"><title>Node8&#45;&gt;Node5</title>
<path fill="none" stroke="#9a32cd" stroke-dasharray="5,2" d="M1089.56,-274.197C1097.1,-274.116 1104.74,-274.046 1112,-274 1159.88,-273.697 1215.17,-273.769 1250.34,-273.868"/>
<polygon fill="#9a32cd" stroke="#9a32cd" points="1089.33,-270.7 1079.37,-274.315 1089.41,-277.699 1089.33,-270.7"/>
<text text-anchor="middle" x="1161" y="-278" font-family="Helvetica,sans-Serif" font-size="10.00"> markers</text>
</g>
<!-- Node9 -->
<g id="node16" class="node"><title>Node9</title>
<a xlink:href="classGUIGLCanvas.xhtml" target="_top" xlink:title="Zeichenfläche für das 3D&#45;Fenster. ">
<polygon fill="none" stroke="black" points="1458.5,-161.5 1458.5,-182.5 1539.5,-182.5 1539.5,-161.5 1458.5,-161.5"/>
<text text-anchor="middle" x="1499" y="-169.5" font-family="Helvetica,sans-Serif" font-size="10.00">GUIGLCanvas</text>
</a>
</g>
<!-- Node9&#45;&gt;Node1 -->
<g id="edge16" class="edge"><title>Node9&#45;&gt;Node1</title>
<path fill="none" stroke="#9a32cd" stroke-dasharray="5,2" d="M1549.68,-176.645C1583.55,-181.617 1627.96,-191.875 1662,-213 1688.76,-229.607 1710.12,-261.087 1720.01,-277.48"/>
<polygon fill="#9a32cd" stroke="#9a32cd" points="1549.91,-173.144 1539.53,-175.266 1548.97,-180.081 1549.91,-173.144"/>
<text text-anchor="middle" x="1623" y="-217" font-family="Helvetica,sans-Serif" font-size="10.00"> gl_context</text>
</g>
<!-- Node10 -->
<g id="node18" class="node"><title>Node10</title>
<polygon fill="none" stroke="#bfbfbf" points="1248,-121.5 1248,-142.5 1324,-142.5 1324,-121.5 1248,-121.5"/>
<text text-anchor="middle" x="1286" y="-129.5" font-family="Helvetica,sans-Serif" font-size="10.00">wxGLCanvas</text>
</g>
<!-- Node10&#45;&gt;Node9 -->
<g id="edge18" class="edge"><title>Node10&#45;&gt;Node9</title>
<path fill="none" stroke="midnightblue" d="M1334.25,-141.06C1371.68,-148.09 1422.99,-157.725 1458.35,-164.366"/>
<polygon fill="midnightblue" stroke="midnightblue" points="1334.55,-137.557 1324.08,-139.151 1333.26,-144.437 1334.55,-137.557"/>
</g>
<!-- Node11 -->
<g id="node20" class="node"><title>Node11</title>
<a xlink:href="classRenderer.xhtml" target="_top" xlink:title="Zeichnet den Inhalt der 3D&#45;Fensters. ">
<polygon fill="none" stroke="black" points="1258,-161.5 1258,-182.5 1314,-182.5 1314,-161.5 1258,-161.5"/>
<text text-anchor="middle" x="1286" y="-169.5" font-family="Helvetica,sans-Serif" font-size="10.00">Renderer</text>
</a>
</g>
<!-- Node11&#45;&gt;Node9 -->
<g id="edge20" class="edge"><title>Node11&#45;&gt;Node9</title>
<path fill="none" stroke="#9a32cd" stroke-dasharray="5,2" d="M1324.38,-172C1362.15,-172 1419.6,-172 1458.19,-172"/>
<polygon fill="#9a32cd" stroke="#9a32cd" points="1324.28,-168.5 1314.28,-172 1324.28,-175.5 1324.28,-168.5"/>
<text text-anchor="middle" x="1388" y="-176" font-family="Helvetica,sans-Serif" font-size="10.00"> renderer</text>
</g>
<!-- Node12 -->
<g id="node22" class="node"><title>Node12</title>
<a xlink:href="structRenderer_1_1Viewport__info.xhtml" target="_top" xlink:title="Informationen über die Ansicht des Modells (Virtuelle Kamera) und welche Elemente dargestellt werden...">
<polygon fill="none" stroke="black" points="972,-184.5 972,-205.5 1094,-205.5 1094,-184.5 972,-184.5"/>
<text text-anchor="middle" x="1033" y="-192.5" font-family="Helvetica,sans-Serif" font-size="10.00">Renderer::Viewport_info</text>
</a>
</g>
<!-- Node12&#45;&gt;Node11 -->
<g id="edge22" class="edge"><title>Node12&#45;&gt;Node11</title>
<path fill="none" stroke="#9a32cd" stroke-dasharray="5,2" d="M1104.23,-188.524C1155.22,-183.889 1221.13,-177.897 1257.94,-174.551"/>
<polygon fill="#9a32cd" stroke="#9a32cd" points="1103.89,-185.041 1094.24,-189.432 1104.52,-192.013 1103.89,-185.041"/>
<text text-anchor="middle" x="1161" y="-191" font-family="Helvetica,sans-Serif" font-size="10.00"> viewport</text>
</g>
<!-- Node13 -->
<g id="node24" class="node"><title>Node13</title>
<a xlink:href="classTriangle.xhtml" target="_top" xlink:title="Ein durch 3 Ortsvektoren beschriebenes Dreieck. ">
<polygon fill="none" stroke="black" points="773.5,-161.5 773.5,-182.5 824.5,-182.5 824.5,-161.5 773.5,-161.5"/>
<text text-anchor="middle" x="799" y="-169.5" font-family="Helvetica,sans-Serif" font-size="10.00">Triangle</text>
</a>
</g>
<!-- Node13&#45;&gt;Node12 -->
<g id="edge24" class="edge"><title>Node13&#45;&gt;Node12</title>
<path fill="none" stroke="#9a32cd" stroke-dasharray="5,2" d="M835.095,-175.548C871.534,-179.129 928.487,-184.727 971.958,-189"/>
<polygon fill="#9a32cd" stroke="#9a32cd" points="835.231,-172.044 824.936,-174.549 834.546,-179.011 835.231,-172.044"/>
<text text-anchor="middle" x="919" y="-190" font-family="Helvetica,sans-Serif" font-size="10.00"> cut</text>
</g>
<!-- Node25 -->
<g id="node49" class="node"><title>Node25</title>
<a xlink:href="structUtils_1_1CutRender__info.xhtml" target="_top" xlink:title="Daten zur Darstellung einer 2D&#45;Temperaturverteilungs&#45;Ebene. ">
<polygon fill="none" stroke="black" points="977.5,-144.5 977.5,-165.5 1088.5,-165.5 1088.5,-144.5 977.5,-144.5"/>
<text text-anchor="middle" x="1033" y="-152.5" font-family="Helvetica,sans-Serif" font-size="10.00">Utils::CutRender_info</text>
</a>
</g>
<!-- Node13&#45;&gt;Node25 -->
<g id="edge52" class="edge"><title>Node13&#45;&gt;Node25</title>
<path fill="none" stroke="#9a32cd" stroke-dasharray="5,2" d="M834.83,-163.779C849.921,-160.702 867.727,-157.573 884,-156 914.77,-153.025 949.28,-152.61 977.334,-153.012"/>
<polygon fill="#9a32cd" stroke="#9a32cd" points="833.93,-160.392 824.868,-165.881 835.375,-167.241 833.93,-160.392"/>
<text text-anchor="middle" x="919" y="-160" font-family="Helvetica,sans-Serif" font-size="10.00"> tri</text>
</g>
<!-- Node14 -->
<g id="node26" class="node"><title>Node14</title>
<a xlink:href="classVector3D.xhtml" target="_top" xlink:title="3D&#45;Vektorklasse mit nützlichen Operationen. ">
<polygon fill="none" stroke="black" points="565,-193.5 565,-214.5 623,-214.5 623,-193.5 565,-193.5"/>
<text text-anchor="middle" x="594" y="-201.5" font-family="Helvetica,sans-Serif" font-size="10.00">Vector3D</text>
</a>
</g>
<!-- Node14&#45;&gt;Node12 -->
<g id="edge28" class="edge"><title>Node14&#45;&gt;Node12</title>
<path fill="none" stroke="#9a32cd" stroke-dasharray="5,2" d="M633.599,-204.58C647.056,-204.752 662.182,-204.916 676,-205 799.556,-205.753 830.626,-209.746 954,-203 959.781,-202.684 965.792,-202.256 971.801,-201.762"/>
<polygon fill="#9a32cd" stroke="#9a32cd" points="633.267,-201.076 623.221,-204.443 633.174,-208.075 633.267,-201.076"/>
<text text-anchor="middle" x="799" y="-210" font-family="Helvetica,sans-Serif" font-size="10.00"> cameraPosition</text>
</g>
<!-- Node14&#45;&gt;Node13 -->
<g id="edge26" class="edge"><title>Node14&#45;&gt;Node13</title>
<path fill="none" stroke="#9a32cd" stroke-dasharray="5,2" d="M633.333,-197.86C674.526,-191.43 738.028,-181.518 773.246,-176.02"/>
<polygon fill="#9a32cd" stroke="#9a32cd" points="632.712,-194.415 623.372,-199.415 633.792,-201.331 632.712,-194.415"/>
<text text-anchor="middle" x="695" y="-194" font-family="Helvetica,sans-Serif" font-size="10.00"> verts</text>
</g>
<!-- Node15 -->
<g id="node29" class="node"><title>Node15</title>
<a xlink:href="classObjectData.xhtml" target="_top" xlink:title="Die Daten eines Versuchsobjekts. ">
<polygon fill="none" stroke="black" points="1000,-104.5 1000,-125.5 1066,-125.5 1066,-104.5 1000,-104.5"/>
<text text-anchor="middle" x="1033" y="-112.5" font-family="Helvetica,sans-Serif" font-size="10.00">ObjectData</text>
</a>
</g>
<!-- Node15&#45;&gt;Node11 -->
<g id="edge30" class="edge"><title>Node15&#45;&gt;Node11</title>
<path fill="none" stroke="#9a32cd" stroke-dasharray="5,2" d="M1076.71,-114.358C1113.58,-115.275 1167.05,-120.087 1210,-138 1219.35,-141.901 1219.09,-147.172 1228,-152 1237.27,-157.023 1248.05,-161.153 1257.77,-164.328"/>
<polygon fill="#9a32cd" stroke="#9a32cd" points="1076.36,-110.853 1066.31,-114.192 1076.25,-117.852 1076.36,-110.853"/>
<text text-anchor="middle" x="1161" y="-142" font-family="Helvetica,sans-Serif" font-size="10.00"> object</text>
</g>
<!-- Node16 -->
<g id="node31" class="node"><title>Node16</title>
<a xlink:href="classstd_1_1vector.xhtml" target="_top" xlink:title="std::vector\&lt; ObjectData\l::MaterialData \&gt;">
<polygon fill="none" stroke="black" points="738,-54 738,-88 860,-88 860,-54 738,-54"/>
<text text-anchor="start" x="746" y="-75" font-family="Helvetica,sans-Serif" font-size="10.00">std::vector&lt; ObjectData</text>
<text text-anchor="middle" x="799" y="-62" font-family="Helvetica,sans-Serif" font-size="10.00">::MaterialData &gt;</text>
</a>
</g>
<!-- Node16&#45;&gt;Node15 -->
<g id="edge32" class="edge"><title>Node16&#45;&gt;Node15</title>
<path fill="none" stroke="#9a32cd" stroke-dasharray="5,2" d="M870.07,-83.5136C896.451,-88.2442 926.613,-93.7536 954,-99 969.118,-101.896 985.83,-105.258 999.975,-108.15"/>
<polygon fill="#9a32cd" stroke="#9a32cd" points="870.618,-80.0562 860.158,-81.7409 869.385,-86.9468 870.618,-80.0562"/>
<text text-anchor="middle" x="919" y="-103" font-family="Helvetica,sans-Serif" font-size="10.00"> materials</text>
</g>
<!-- Node17 -->
<g id="node33" class="node"><title>Node17</title>
<a xlink:href="structObjectData_1_1MaterialData.xhtml" target="_top" xlink:title="Die Daten eines Materials. ">
<polygon fill="none" stroke="black" points="530,-60.5 530,-81.5 658,-81.5 658,-60.5 530,-60.5"/>
<text text-anchor="middle" x="594" y="-68.5" font-family="Helvetica,sans-Serif" font-size="10.00">ObjectData::MaterialData</text>
</a>
</g>
<!-- Node17&#45;&gt;Node16 -->
<g id="edge34" class="edge"><title>Node17&#45;&gt;Node16</title>
<path fill="none" stroke="#9a32cd" stroke-dasharray="5,2" d="M668.047,-71C690.977,-71 715.969,-71 737.916,-71"/>
<polygon fill="#9a32cd" stroke="#9a32cd" points="668.02,-67.5001 658.02,-71 668.02,-74.5001 668.02,-67.5001"/>
<text text-anchor="middle" x="695" y="-75" font-family="Helvetica,sans-Serif" font-size="10.00"> element</text>
</g>
<!-- Node18 -->
<g id="node35" class="node"><title>Node18</title>
<a xlink:href="classtetgenio.xhtml" target="_top" xlink:title="tetgenio">
<polygon fill="none" stroke="black" points="384.5,-60.5 384.5,-81.5 435.5,-81.5 435.5,-60.5 384.5,-60.5"/>
<text text-anchor="middle" x="410" y="-68.5" font-family="Helvetica,sans-Serif" font-size="10.00">tetgenio</text>
</a>
</g>
<!-- Node18&#45;&gt;Node17 -->
<g id="edge36" class="edge"><title>Node18&#45;&gt;Node17</title>
<path fill="none" stroke="#9a32cd" stroke-dasharray="5,2" d="M445.599,-71C469.464,-71 501.575,-71 529.823,-71"/>
<polygon fill="#9a32cd" stroke="#9a32cd" points="445.584,-67.5001 435.584,-71 445.584,-74.5001 445.584,-67.5001"/>
<text text-anchor="middle" x="483" y="-88" font-family="Helvetica,sans-Serif" font-size="10.00"> tetgenoutput</text>
<text text-anchor="middle" x="483" y="-75" font-family="Helvetica,sans-Serif" font-size="10.00">tetgeninput</text>
</g>
<!-- Node19 -->
<g id="node37" class="node"><title>Node19</title>
<a xlink:href="structtetgenio_1_1vorofacet.xhtml" target="_top" xlink:title="tetgenio::vorofacet">
<polygon fill="none" stroke="black" points="182,-120.5 182,-141.5 280,-141.5 280,-120.5 182,-120.5"/>
<text text-anchor="middle" x="231" y="-128.5" font-family="Helvetica,sans-Serif" font-size="10.00">tetgenio::vorofacet</text>
</a>
</g>
<!-- Node19&#45;&gt;Node18 -->
<g id="edge38" class="edge"><title>Node19&#45;&gt;Node18</title>
<path fill="none" stroke="#9a32cd" stroke-dasharray="5,2" d="M290.207,-122.147C314.332,-117.336 342.108,-110.221 366,-100 376.935,-95.3222 388.111,-87.9169 396.463,-81.7606"/>
<polygon fill="#9a32cd" stroke="#9a32cd" points="289.282,-118.761 280.114,-124.07 290.592,-125.637 289.282,-118.761"/>
<text text-anchor="middle" x="334" y="-124" font-family="Helvetica,sans-Serif" font-size="10.00"> vfacetlist</text>
</g>
<!-- Node20 -->
<g id="node39" class="node"><title>Node20</title>
<a xlink:href="structtetgenio_1_1facet.xhtml" target="_top" xlink:title="tetgenio::facet">
<polygon fill="none" stroke="black" points="191.5,-80.5 191.5,-101.5 270.5,-101.5 270.5,-80.5 191.5,-80.5"/>
<text text-anchor="middle" x="231" y="-88.5" font-family="Helvetica,sans-Serif" font-size="10.00">tetgenio::facet</text>
</a>
</g>
<!-- Node20&#45;&gt;Node18 -->
<g id="edge40" class="edge"><title>Node20&#45;&gt;Node18</title>
<path fill="none" stroke="#9a32cd" stroke-dasharray="5,2" d="M280.846,-85.4306C314.517,-81.6684 357.574,-76.8576 384.476,-73.8519"/>
<polygon fill="#9a32cd" stroke="#9a32cd" points="280.275,-81.9725 270.726,-86.5614 281.053,-88.9292 280.275,-81.9725"/>
<text text-anchor="middle" x="334" y="-87" font-family="Helvetica,sans-Serif" font-size="10.00"> facetlist</text>
</g>
<!-- Node21 -->
<g id="node41" class="node"><title>Node21</title>
<a xlink:href="structtetgenio_1_1polygon.xhtml" target="_top" xlink:title="tetgenio::polygon">
<polygon fill="none" stroke="black" points="0.5,-80.5 0.5,-101.5 91.5,-101.5 91.5,-80.5 0.5,-80.5"/>
<text text-anchor="middle" x="46" y="-88.5" font-family="Helvetica,sans-Serif" font-size="10.00">tetgenio::polygon</text>
</a>
</g>
<!-- Node21&#45;&gt;Node20 -->
<g id="edge42" class="edge"><title>Node21&#45;&gt;Node20</title>
<path fill="none" stroke="#9a32cd" stroke-dasharray="5,2" d="M102.078,-91C130.927,-91 165.4,-91 191.437,-91"/>
<polygon fill="#9a32cd" stroke="#9a32cd" points="101.73,-87.5001 91.7303,-91 101.73,-94.5001 101.73,-87.5001"/>
<text text-anchor="middle" x="135" y="-95" font-family="Helvetica,sans-Serif" font-size="10.00"> polygonlist</text>
</g>
<!-- Node22 -->
<g id="node43" class="node"><title>Node22</title>
<a xlink:href="structtetgenio_1_1pointparam.xhtml" target="_top" xlink:title="tetgenio::pointparam">
<polygon fill="none" stroke="black" points="178.5,-40.5 178.5,-61.5 283.5,-61.5 283.5,-40.5 178.5,-40.5"/>
<text text-anchor="middle" x="231" y="-48.5" font-family="Helvetica,sans-Serif" font-size="10.00">tetgenio::pointparam</text>
</a>
</g>
<!-- Node22&#45;&gt;Node18 -->
<g id="edge44" class="edge"><title>Node22&#45;&gt;Node18</title>
<path fill="none" stroke="#9a32cd" stroke-dasharray="5,2" d="M294.041,-52.8703C316.814,-54.1595 342.657,-56.3341 366,-60 371.912,-60.9284 378.191,-62.2751 384.099,-63.7098"/>
<polygon fill="#9a32cd" stroke="#9a32cd" points="293.982,-49.3626 283.813,-52.3381 293.618,-56.3531 293.982,-49.3626"/>
<text text-anchor="middle" x="334" y="-64" font-family="Helvetica,sans-Serif" font-size="10.00"> pointparamlist</text>
</g>
<!-- Node23 -->
<g id="node45" class="node"><title>Node23</title>
<a xlink:href="structtetgenio_1_1voroedge.xhtml" target="_top" xlink:title="tetgenio::voroedge">
<polygon fill="none" stroke="black" points="182.5,-0.5 182.5,-21.5 279.5,-21.5 279.5,-0.5 182.5,-0.5"/>
<text text-anchor="middle" x="231" y="-8.5" font-family="Helvetica,sans-Serif" font-size="10.00">tetgenio::voroedge</text>
</a>
</g>
<!-- Node23&#45;&gt;Node18 -->
<g id="edge46" class="edge"><title>Node23&#45;&gt;Node18</title>
<path fill="none" stroke="#9a32cd" stroke-dasharray="5,2" d="M289.713,-16.2457C314.102,-19.9489 342.207,-26.258 366,-37 378.67,-42.7201 391.008,-52.7629 399.379,-60.4555"/>
<polygon fill="#9a32cd" stroke="#9a32cd" points="289.901,-12.7379 279.511,-14.8129 288.927,-19.6698 289.901,-12.7379"/>
<text text-anchor="middle" x="334" y="-41" font-family="Helvetica,sans-Serif" font-size="10.00"> vedgelist</text>
</g>
<!-- Node24 -->
<g id="node47" class="node"><title>Node24</title>
<a xlink:href="classstd_1_1vector.xhtml" target="_top" xlink:title="std::vector\&lt; SensorData \&gt;">
<polygon fill="none" stroke="black" points="732.5,-106.5 732.5,-127.5 865.5,-127.5 865.5,-106.5 732.5,-106.5"/>
<text text-anchor="middle" x="799" y="-114.5" font-family="Helvetica,sans-Serif" font-size="10.00">std::vector&lt; SensorData &gt;</text>
</a>
</g>
<!-- Node24&#45;&gt;Node15 -->
<g id="edge48" class="edge"><title>Node24&#45;&gt;Node15</title>
<path fill="none" stroke="#9a32cd" stroke-dasharray="5,2" d="M875.963,-116.342C917.988,-115.983 967.85,-115.557 999.933,-115.283"/>
<polygon fill="#9a32cd" stroke="#9a32cd" points="875.712,-112.844 865.742,-116.43 875.771,-119.844 875.712,-112.844"/>
<text text-anchor="middle" x="919" y="-121" font-family="Helvetica,sans-Serif" font-size="10.00"> sensorDataList</text>
</g>
<!-- Node25&#45;&gt;Node11 -->
<g id="edge50" class="edge"><title>Node25&#45;&gt;Node11</title>
<path fill="none" stroke="#9a32cd" stroke-dasharray="5,2" d="M1098.64,-154.193C1132.05,-154.363 1173.26,-155.462 1210,-159 1225.99,-160.54 1243.69,-163.492 1257.98,-166.195"/>
<polygon fill="#9a32cd" stroke="#9a32cd" points="1098.54,-150.693 1088.53,-154.169 1098.52,-157.693 1098.54,-150.693"/>
<text text-anchor="middle" x="1161" y="-163" font-family="Helvetica,sans-Serif" font-size="10.00"> cut_visualisation_info</text>
</g>
<!-- Node26&#45;&gt;Node1 -->
<g id="edge54" class="edge"><title>Node26&#45;&gt;Node1</title>
<path fill="none" stroke="#9a32cd" stroke-dasharray="5,2" d="M1567.83,-302.632C1604.32,-299.257 1648.14,-295.203 1680.39,-292.22"/>
<polygon fill="#9a32cd" stroke="#9a32cd" points="1567.39,-299.158 1557.75,-303.565 1568.03,-306.129 1567.39,-299.158"/>
<text text-anchor="middle" x="1623" y="-304" font-family="Helvetica,sans-Serif" font-size="10.00"> rendercutwindow</text>
</g>
<!-- Node27&#45;&gt;Node26 -->
<g id="edge58" class="edge"><title>Node27&#45;&gt;Node26</title>
<path fill="none" stroke="#9a32cd" stroke-dasharray="5,2" d="M1346.53,-312.91C1351.74,-312.154 1356.96,-311.498 1362,-311 1387.57,-308.477 1415.94,-307.726 1440.21,-307.702"/>
<polygon fill="#9a32cd" stroke="#9a32cd" points="1345.86,-309.471 1336.52,-314.473 1346.94,-316.387 1345.86,-309.471"/>
<text text-anchor="middle" x="1388" y="-315" font-family="Helvetica,sans-Serif" font-size="10.00"> canvas</text>
</g>
<!-- Node28 -->
<g id="node58" class="node"><title>Node28</title>
<a xlink:href="classGUIColorScalePanel.xhtml" target="_top" xlink:title="Farbige Temperaturskala für zweidimensionale Temperaturverteilung. ">
<polygon fill="none" stroke="black" points="979.5,-348.5 979.5,-369.5 1086.5,-369.5 1086.5,-348.5 979.5,-348.5"/>
<text text-anchor="middle" x="1033" y="-356.5" font-family="Helvetica,sans-Serif" font-size="10.00">GUIColorScalePanel</text>
</a>
</g>
<!-- Node28&#45;&gt;Node27 -->
<g id="edge62" class="edge"><title>Node28&#45;&gt;Node27</title>
<path fill="none" stroke="#9a32cd" stroke-dasharray="5,2" d="M1096.62,-350.451C1136.82,-345.047 1188.4,-338.117 1227.57,-332.852"/>
<polygon fill="#9a32cd" stroke="#9a32cd" points="1096.1,-346.989 1086.65,-351.789 1097.03,-353.926 1096.1,-346.989"/>
<text text-anchor="middle" x="1161" y="-352" font-family="Helvetica,sans-Serif" font-size="10.00"> scalepanel</text>
</g>
<!-- Node29&#45;&gt;Node1 -->
<g id="edge64" class="edge"><title>Node29&#45;&gt;Node1</title>
<path fill="none" stroke="#9a32cd" stroke-dasharray="5,2" d="M1576.06,-337.653C1603.53,-332.62 1634.48,-325.805 1662,-317 1677.22,-312.13 1693.62,-304.651 1706.01,-298.507"/>
<polygon fill="#9a32cd" stroke="#9a32cd" points="1575.33,-334.227 1566.1,-339.427 1576.56,-341.118 1575.33,-334.227"/>
<text text-anchor="middle" x="1623" y="-339" font-family="Helvetica,sans-Serif" font-size="10.00"> analyzerframe</text>
</g>
<!-- Node30&#45;&gt;Node1 -->
<g id="edge68" class="edge"><title>Node30&#45;&gt;Node1</title>
<path fill="none" stroke="#9a32cd" stroke-dasharray="5,2" d="M1546.62,-225.708C1579.8,-228.76 1624.63,-235.243 1662,-249 1680.56,-255.832 1699.64,-268.3 1712.08,-277.303"/>
<polygon fill="#9a32cd" stroke="#9a32cd" points="1546.55,-222.189 1536.29,-224.833 1545.95,-229.164 1546.55,-222.189"/>
<text text-anchor="middle" x="1623" y="-253" font-family="Helvetica,sans-Serif" font-size="10.00"> viewbox</text>
</g>
</g>
</svg>
