<?xml version="1.0" encoding="UTF-8" standalone="no"?>
<!DOCTYPE svg PUBLIC "-//W3C//DTD SVG 1.1//EN"
 "http://www.w3.org/Graphics/SVG/1.1/DTD/svg11.dtd">
<!-- Generated by graphviz version 2.26.3 (20100126.1600)
 -->
<!-- Title: tetgenmesh::projpt2face Pages: 1 -->
<svg width="422pt" height="70pt"
 viewBox="0.00 0.00 422.00 70.00" xmlns="http://www.w3.org/2000/svg" xmlns:xlink="http://www.w3.org/1999/xlink">
<g id="graph1" class="graph" transform="scale(1 1) rotate(0) translate(4 66)">
<title>tetgenmesh::projpt2face</title>
<!-- Node1 -->
<g id="node1" class="node"><title>Node1</title>
<polygon fill="#bfbfbf" stroke="black" points="0,-20.5 0,-41.5 122,-41.5 122,-20.5 0,-20.5"/>
<text text-anchor="middle" x="61" y="-28.5" font-family="Helvetica,sans-Serif" font-size="10.00">tetgenmesh::projpt2face</text>
</g>
<!-- Node2 -->
<g id="node3" class="node"><title>Node2</title>
<a xlink:href="classtetgenmesh.xhtml#adef28f2839ea13688a3ac9a7184d1db8" target="_top" xlink:title="tetgenmesh::facenormal">
<polygon fill="none" stroke="black" points="158,-1.5 158,-22.5 280,-22.5 280,-1.5 158,-1.5"/>
<text text-anchor="middle" x="219" y="-9.5" font-family="Helvetica,sans-Serif" font-size="10.00">tetgenmesh::facenormal</text>
</a>
</g>
<!-- Node1&#45;&gt;Node2 -->
<g id="edge2" class="edge"><title>Node1&#45;&gt;Node2</title>
<path fill="none" stroke="midnightblue" d="M122.087,-23.6541C130.513,-22.6408 139.226,-21.5931 147.815,-20.5603"/>
<polygon fill="midnightblue" stroke="midnightblue" points="148.304,-24.0267 157.815,-19.3577 147.469,-17.0767 148.304,-24.0267"/>
</g>
<!-- Node3 -->
<g id="node5" class="node"><title>Node3</title>
<a xlink:href="classtetgenmesh.xhtml#afa0906703b590597155547336c360004" target="_top" xlink:title="tetgenmesh::dot">
<polygon fill="none" stroke="black" points="321.5,-40.5 321.5,-61.5 408.5,-61.5 408.5,-40.5 321.5,-40.5"/>
<text text-anchor="middle" x="365" y="-48.5" font-family="Helvetica,sans-Serif" font-size="10.00">tetgenmesh::dot</text>
</a>
</g>
<!-- Node1&#45;&gt;Node3 -->
<g id="edge8" class="edge"><title>Node1&#45;&gt;Node3</title>
<path fill="none" stroke="midnightblue" d="M122.153,-35.0232C177.42,-38.6592 257.995,-43.9602 310.947,-47.4439"/>
<polygon fill="midnightblue" stroke="midnightblue" points="310.945,-50.9512 321.153,-48.1154 311.405,-43.9663 310.945,-50.9512"/>
</g>
<!-- Node2&#45;&gt;Node3 -->
<g id="edge4" class="edge"><title>Node2&#45;&gt;Node3</title>
<path fill="none" stroke="midnightblue" d="M258.51,-22.554C276.12,-27.258 297.049,-32.8487 315.673,-37.8237"/>
<polygon fill="midnightblue" stroke="midnightblue" points="314.894,-41.2382 325.459,-40.4376 316.701,-34.4753 314.894,-41.2382"/>
</g>
<!-- Node4 -->
<g id="node7" class="node"><title>Node4</title>
<a xlink:href="classtetgenmesh.xhtml#a9b5ff4d3e2452044830fbd47d2f70cbd" target="_top" xlink:title="tetgenmesh::cross">
<polygon fill="none" stroke="black" points="316,-0.5 316,-21.5 414,-21.5 414,-0.5 316,-0.5"/>
<text text-anchor="middle" x="365" y="-8.5" font-family="Helvetica,sans-Serif" font-size="10.00">tetgenmesh::cross</text>
</a>
</g>
<!-- Node2&#45;&gt;Node4 -->
<g id="edge6" class="edge"><title>Node2&#45;&gt;Node4</title>
<path fill="none" stroke="midnightblue" d="M280.071,-11.5817C288.515,-11.5239 297.178,-11.4645 305.591,-11.4069"/>
<polygon fill="midnightblue" stroke="midnightblue" points="305.723,-14.9062 315.698,-11.3377 305.675,-7.90635 305.723,-14.9062"/>
</g>
</g>
</svg>
