<?xml version="1.0" encoding="UTF-8" standalone="no"?>
<!DOCTYPE svg PUBLIC "-//W3C//DTD SVG 1.1//EN"
 "http://www.w3.org/Graphics/SVG/1.1/DTD/svg11.dtd">
<!-- Generated by graphviz version 2.26.3 (20100126.1600)
 -->
<!-- Title: Renderer Pages: 1 -->
<svg width="826pt" height="641pt"
 viewBox="0.00 0.00 826.00 641.00" xmlns="http://www.w3.org/2000/svg" xmlns:xlink="http://www.w3.org/1999/xlink">
<g id="graph1" class="graph" transform="scale(1 1) rotate(0) translate(4 637)">
<title>Renderer</title>
<!-- Node1 -->
<g id="node1" class="node"><title>Node1</title>
<polygon fill="#bfbfbf" stroke="black" points="762,-380.5 762,-401.5 818,-401.5 818,-380.5 762,-380.5"/>
<text text-anchor="middle" x="790" y="-388.5" font-family="Helvetica,sans-Serif" font-size="10.00">Renderer</text>
</g>
<!-- Node2 -->
<g id="node2" class="node"><title>Node2</title>
<a xlink:href="classObjectData.xhtml" target="_top" xlink:title="ObjectData">
<polygon fill="none" stroke="black" points="539,-522.5 539,-543.5 605,-543.5 605,-522.5 539,-522.5"/>
<text text-anchor="middle" x="572" y="-530.5" font-family="Helvetica,sans-Serif" font-size="10.00">ObjectData</text>
</a>
</g>
<!-- Node2&#45;&gt;Node1 -->
<g id="edge2" class="edge"><title>Node2&#45;&gt;Node1</title>
<path fill="none" stroke="#9a32cd" stroke-dasharray="5,2" d="M615.159,-522.266C652.384,-511.351 705.989,-491.505 744,-460 763.731,-443.646 778.262,-416.676 785.286,-401.759"/>
<polygon fill="#9a32cd" stroke="#9a32cd" points="613.788,-519.016 605.121,-525.11 615.697,-525.751 613.788,-519.016"/>
<text text-anchor="middle" x="695" y="-515" font-family="Helvetica,sans-Serif" font-size="10.00"> object</text>
</g>
<!-- Node3 -->
<g id="node4" class="node"><title>Node3</title>
<polygon fill="none" stroke="#bfbfbf" points="0.5,-525.5 0.5,-546.5 45.5,-546.5 45.5,-525.5 0.5,-525.5"/>
<text text-anchor="middle" x="23" y="-533.5" font-family="Helvetica,sans-Serif" font-size="10.00">double</text>
</g>
<!-- Node3&#45;&gt;Node2 -->
<g id="edge4" class="edge"><title>Node3&#45;&gt;Node2</title>
<path fill="none" stroke="#9a32cd" stroke-dasharray="5,2" d="M55.0529,-549.398C100.551,-567.618 186.912,-599.282 264,-611 315.849,-618.881 329.637,-613.925 382,-611 433.798,-608.107 450.55,-618.972 498,-598 525.996,-585.626 551.02,-558.777 563.541,-543.746"/>
<polygon fill="#9a32cd" stroke="#9a32cd" points="56.3001,-546.127 45.7175,-545.617 53.6727,-552.615 56.3001,-546.127"/>
<text text-anchor="middle" x="219" y="-624" font-family="Helvetica,sans-Serif" font-size="10.00"> maxvolume</text>
<text text-anchor="middle" x="219" y="-611" font-family="Helvetica,sans-Serif" font-size="10.00">quality</text>
</g>
<!-- Node10 -->
<g id="node18" class="node"><title>Node10</title>
<a xlink:href="classVector3D.xhtml" target="_top" xlink:title="Vector3D">
<polygon fill="none" stroke="black" points="116,-273.5 116,-294.5 174,-294.5 174,-273.5 116,-273.5"/>
<text text-anchor="middle" x="145" y="-281.5" font-family="Helvetica,sans-Serif" font-size="10.00">Vector3D</text>
</a>
</g>
<!-- Node3&#45;&gt;Node10 -->
<g id="edge20" class="edge"><title>Node3&#45;&gt;Node10</title>
<path fill="none" stroke="#9a32cd" stroke-dasharray="5,2" d="M32.5467,-516.281C57.0042,-465.762 121.292,-332.97 139.891,-294.552"/>
<polygon fill="#9a32cd" stroke="#9a32cd" points="29.2942,-514.967 28.0869,-525.493 35.5946,-518.017 29.2942,-514.967"/>
<text text-anchor="middle" x="81" y="-451" font-family="Helvetica,sans-Serif" font-size="10.00"> coords</text>
</g>
<!-- Node4 -->
<g id="node6" class="node"><title>Node4</title>
<polygon fill="none" stroke="#bfbfbf" points="302.5,-580.5 302.5,-601.5 343.5,-601.5 343.5,-580.5 302.5,-580.5"/>
<text text-anchor="middle" x="323" y="-588.5" font-family="Helvetica,sans-Serif" font-size="10.00">string</text>
</g>
<!-- Node4&#45;&gt;Node2 -->
<g id="edge6" class="edge"><title>Node4&#45;&gt;Node2</title>
<path fill="none" stroke="#9a32cd" stroke-dasharray="5,2" d="M353.64,-587.89C388.909,-583.86 448.358,-575.678 498,-562 515.427,-557.198 534.396,-549.717 548.765,-543.556"/>
<polygon fill="#9a32cd" stroke="#9a32cd" points="353.064,-584.432 343.509,-589.009 353.833,-591.39 353.064,-584.432"/>
<text text-anchor="middle" x="449" y="-585" font-family="Helvetica,sans-Serif" font-size="10.00"> name</text>
</g>
<!-- Node5 -->
<g id="node8" class="node"><title>Node5</title>
<polygon fill="none" stroke="#bfbfbf" points="266.5,-540.5 266.5,-561.5 379.5,-561.5 379.5,-540.5 266.5,-540.5"/>
<text text-anchor="middle" x="323" y="-548.5" font-family="Helvetica,sans-Serif" font-size="10.00">vector&lt; SensorData &gt;</text>
</g>
<!-- Node5&#45;&gt;Node2 -->
<g id="edge8" class="edge"><title>Node5&#45;&gt;Node2</title>
<path fill="none" stroke="#9a32cd" stroke-dasharray="5,2" d="M389.533,-546.19C437.666,-542.711 500.68,-538.156 538.657,-535.41"/>
<polygon fill="#9a32cd" stroke="#9a32cd" points="389.224,-542.704 379.502,-546.916 389.728,-549.685 389.224,-542.704"/>
<text text-anchor="middle" x="449" y="-549" font-family="Helvetica,sans-Serif" font-size="10.00"> sensordatalist</text>
</g>
<!-- Node6 -->
<g id="node10" class="node"><title>Node6</title>
<polygon fill="none" stroke="#bfbfbf" points="308.5,-395.5 308.5,-416.5 337.5,-416.5 337.5,-395.5 308.5,-395.5"/>
<text text-anchor="middle" x="323" y="-403.5" font-family="Helvetica,sans-Serif" font-size="10.00">int</text>
</g>
<!-- Node6&#45;&gt;Node1 -->
<g id="edge30" class="edge"><title>Node6&#45;&gt;Node1</title>
<path fill="none" stroke="#9a32cd" stroke-dasharray="5,2" d="M347.165,-416.425C362.082,-422.285 381.787,-429.008 400,-432 534.698,-454.128 697.633,-416.445 761.95,-399.066"/>
<polygon fill="#9a32cd" stroke="#9a32cd" points="348.262,-413.093 337.68,-412.563 345.622,-419.576 348.262,-413.093"/>
<text text-anchor="middle" x="572" y="-442" font-family="Helvetica,sans-Serif" font-size="10.00"> displayList</text>
</g>
<!-- Node6&#45;&gt;Node2 -->
<g id="edge10" class="edge"><title>Node6&#45;&gt;Node2</title>
<path fill="none" stroke="#9a32cd" stroke-dasharray="5,2" d="M345.072,-422.39C360.075,-433.08 380.64,-446.875 400,-457 441.54,-478.725 455.219,-476.834 498,-496 516.614,-504.339 537.346,-514.811 552.12,-522.484"/>
<polygon fill="#9a32cd" stroke="#9a32cd" points="347.088,-419.528 336.933,-416.506 342.987,-425.201 347.088,-419.528"/>
<text text-anchor="middle" x="449" y="-500" font-family="Helvetica,sans-Serif" font-size="10.00"> current_sensor_index</text>
</g>
<!-- Node8 -->
<g id="node14" class="node"><title>Node8</title>
<a xlink:href="structViewport__info.xhtml" target="_top" xlink:title="Viewport_info">
<polygon fill="none" stroke="black" points="534,-246.5 534,-267.5 610,-267.5 610,-246.5 534,-246.5"/>
<text text-anchor="middle" x="572" y="-254.5" font-family="Helvetica,sans-Serif" font-size="10.00">Viewport_info</text>
</a>
</g>
<!-- Node6&#45;&gt;Node8 -->
<g id="edge24" class="edge"><title>Node6&#45;&gt;Node8</title>
<path fill="none" stroke="#9a32cd" stroke-dasharray="5,2" d="M346.592,-392.197C361.504,-383.944 381.407,-373.78 400,-367 442.032,-351.673 459.818,-367.318 498,-344 529.984,-324.467 555.076,-286.356 566.019,-267.745"/>
<polygon fill="#9a32cd" stroke="#9a32cd" points="344.563,-389.323 337.577,-397.289 348.006,-395.418 344.563,-389.323"/>
<text text-anchor="middle" x="449" y="-423" font-family="Helvetica,sans-Serif" font-size="10.00"> width</text>
<text text-anchor="middle" x="449" y="-410" font-family="Helvetica,sans-Serif" font-size="10.00">showpoints</text>
<text text-anchor="middle" x="449" y="-397" font-family="Helvetica,sans-Serif" font-size="10.00">showfaces</text>
<text text-anchor="middle" x="449" y="-384" font-family="Helvetica,sans-Serif" font-size="10.00">height</text>
<text text-anchor="middle" x="449" y="-371" font-family="Helvetica,sans-Serif" font-size="10.00">showedges</text>
</g>
<!-- Node13 -->
<g id="node28" class="node"><title>Node13</title>
<a xlink:href="structUtils_1_1CutRender__info.xhtml" target="_top" xlink:title="Utils::CutRender_info">
<polygon fill="none" stroke="black" points="516.5,-72.5 516.5,-93.5 627.5,-93.5 627.5,-72.5 516.5,-72.5"/>
<text text-anchor="middle" x="572" y="-80.5" font-family="Helvetica,sans-Serif" font-size="10.00">Utils::CutRender_info</text>
</a>
</g>
<!-- Node6&#45;&gt;Node13 -->
<g id="edge38" class="edge"><title>Node6&#45;&gt;Node13</title>
<path fill="none" stroke="#9a32cd" stroke-dasharray="5,2" d="M334.808,-386.985C348.349,-366.535 372.285,-334.238 400,-314 437.993,-286.257 465.034,-307.561 498,-274 504.806,-267.071 553.902,-132.829 568.14,-93.6485"/>
<polygon fill="#9a32cd" stroke="#9a32cd" points="331.82,-385.161 329.342,-395.462 337.703,-388.954 331.82,-385.161"/>
<text text-anchor="middle" x="449" y="-331" font-family="Helvetica,sans-Serif" font-size="10.00"> img_height</text>
<text text-anchor="middle" x="449" y="-318" font-family="Helvetica,sans-Serif" font-size="10.00">img_width</text>
</g>
<!-- Node7 -->
<g id="node12" class="node"><title>Node7</title>
<polygon fill="none" stroke="#bfbfbf" points="264.5,-500.5 264.5,-521.5 381.5,-521.5 381.5,-500.5 264.5,-500.5"/>
<text text-anchor="middle" x="323" y="-508.5" font-family="Helvetica,sans-Serif" font-size="10.00">vector&lt; MaterialData &gt;</text>
</g>
<!-- Node7&#45;&gt;Node2 -->
<g id="edge12" class="edge"><title>Node7&#45;&gt;Node2</title>
<path fill="none" stroke="#9a32cd" stroke-dasharray="5,2" d="M392.083,-513.295C424.33,-514.789 463.196,-517.194 498,-521 511.455,-522.471 526.191,-524.728 538.946,-526.888"/>
<polygon fill="#9a32cd" stroke="#9a32cd" points="392.004,-509.788 381.859,-512.841 391.694,-516.781 392.004,-509.788"/>
<text text-anchor="middle" x="449" y="-525" font-family="Helvetica,sans-Serif" font-size="10.00"> materials</text>
</g>
<!-- Node8&#45;&gt;Node1 -->
<g id="edge14" class="edge"><title>Node8&#45;&gt;Node1</title>
<path fill="none" stroke="#9a32cd" stroke-dasharray="5,2" d="M597.699,-272.796C642.657,-300.431 734.432,-356.844 772.672,-380.349"/>
<polygon fill="#9a32cd" stroke="#9a32cd" points="599.458,-269.77 589.106,-267.515 595.793,-275.733 599.458,-269.77"/>
<text text-anchor="middle" x="695" y="-366" font-family="Helvetica,sans-Serif" font-size="10.00"> viewport</text>
</g>
<!-- Node9 -->
<g id="node16" class="node"><title>Node9</title>
<a xlink:href="classTriangle.xhtml" target="_top" xlink:title="Triangle">
<polygon fill="none" stroke="black" points="297.5,-104.5 297.5,-125.5 348.5,-125.5 348.5,-104.5 297.5,-104.5"/>
<text text-anchor="middle" x="323" y="-112.5" font-family="Helvetica,sans-Serif" font-size="10.00">Triangle</text>
</a>
</g>
<!-- Node9&#45;&gt;Node8 -->
<g id="edge16" class="edge"><title>Node9&#45;&gt;Node8</title>
<path fill="none" stroke="#9a32cd" stroke-dasharray="5,2" d="M358.774,-109.539C396.434,-105.706 455.977,-105.268 498,-132 540.983,-159.342 562.207,-221.363 569.249,-246.311"/>
<polygon fill="#9a32cd" stroke="#9a32cd" points="358.299,-106.07 348.764,-110.69 359.099,-113.024 358.299,-106.07"/>
<text text-anchor="middle" x="449" y="-136" font-family="Helvetica,sans-Serif" font-size="10.00"> cut</text>
</g>
<!-- Node9&#45;&gt;Node13 -->
<g id="edge34" class="edge"><title>Node9&#45;&gt;Node13</title>
<path fill="none" stroke="#9a32cd" stroke-dasharray="5,2" d="M337.491,-96.4321C351.479,-80.152 374.278,-57.6241 400,-48 440.794,-32.7367 455.503,-38.4568 498,-48 518.8,-52.6708 540.631,-63.8843 555.143,-72.3697"/>
<polygon fill="#9a32cd" stroke="#9a32cd" points="334.682,-94.3363 331.01,-104.275 340.078,-98.7952 334.682,-94.3363"/>
<text text-anchor="middle" x="449" y="-52" font-family="Helvetica,sans-Serif" font-size="10.00"> tri</text>
</g>
<!-- Node10&#45;&gt;Node8 -->
<g id="edge28" class="edge"><title>Node10&#45;&gt;Node8</title>
<path fill="none" stroke="#9a32cd" stroke-dasharray="5,2" d="M184.658,-284.158C250.109,-284.032 384.775,-282.135 498,-270 509.673,-268.749 522.284,-266.771 533.732,-264.731"/>
<polygon fill="#9a32cd" stroke="#9a32cd" points="184.383,-280.658 174.386,-284.165 184.388,-287.658 184.383,-280.658"/>
<text text-anchor="middle" x="323" y="-288" font-family="Helvetica,sans-Serif" font-size="10.00"> cameraPosition</text>
</g>
<!-- Node10&#45;&gt;Node9 -->
<g id="edge18" class="edge"><title>Node10&#45;&gt;Node9</title>
<path fill="none" stroke="#9a32cd" stroke-dasharray="5,2" d="M155.584,-264.493C173.709,-232.851 213.654,-170.327 264,-135 273.916,-128.042 286.448,-123.344 297.41,-120.261"/>
<polygon fill="#9a32cd" stroke="#9a32cd" points="152.508,-262.822 150.672,-273.257 158.615,-266.245 152.508,-262.822"/>
<text text-anchor="middle" x="219" y="-213" font-family="Helvetica,sans-Serif" font-size="10.00"> verts</text>
</g>
<!-- Node11 -->
<g id="node21" class="node"><title>Node11</title>
<polygon fill="none" stroke="#bfbfbf" points="305.5,-144.5 305.5,-165.5 340.5,-165.5 340.5,-144.5 305.5,-144.5"/>
<text text-anchor="middle" x="323" y="-152.5" font-family="Helvetica,sans-Serif" font-size="10.00">float</text>
</g>
<!-- Node11&#45;&gt;Node8 -->
<g id="edge22" class="edge"><title>Node11&#45;&gt;Node8</title>
<path fill="none" stroke="#9a32cd" stroke-dasharray="5,2" d="M350.851,-150.913C386.952,-146.973 450.855,-144.712 498,-169 531.893,-186.461 556.404,-226.853 566.666,-246.238"/>
<polygon fill="#9a32cd" stroke="#9a32cd" points="350.093,-147.479 340.59,-152.162 350.939,-154.428 350.093,-147.479"/>
<text text-anchor="middle" x="449" y="-212" font-family="Helvetica,sans-Serif" font-size="10.00"> rotationX</text>
<text text-anchor="middle" x="449" y="-199" font-family="Helvetica,sans-Serif" font-size="10.00">rotationY</text>
<text text-anchor="middle" x="449" y="-186" font-family="Helvetica,sans-Serif" font-size="10.00">scale</text>
<text text-anchor="middle" x="449" y="-173" font-family="Helvetica,sans-Serif" font-size="10.00">zoom</text>
</g>
<!-- Node11&#45;&gt;Node13 -->
<g id="edge36" class="edge"><title>Node11&#45;&gt;Node13</title>
<path fill="none" stroke="#9a32cd" stroke-dasharray="5,2" d="M350.685,-150.994C361.644,-148.151 373.603,-143.293 382,-135 399.102,-118.11 380.418,-97.9401 400,-84 440.14,-55.4252 499.989,-63.2697 537.466,-72.4573"/>
<polygon fill="#9a32cd" stroke="#9a32cd" points="349.678,-147.63 340.635,-153.149 351.146,-154.475 349.678,-147.63"/>
<text text-anchor="middle" x="449" y="-88" font-family="Helvetica,sans-Serif" font-size="10.00"> mmperpixel</text>
</g>
<!-- Node12 -->
<g id="node24" class="node"><title>Node12</title>
<polygon fill="none" stroke="#bfbfbf" points="305.5,-219.5 305.5,-240.5 340.5,-240.5 340.5,-219.5 305.5,-219.5"/>
<text text-anchor="middle" x="323" y="-227.5" font-family="Helvetica,sans-Serif" font-size="10.00">bool</text>
</g>
<!-- Node12&#45;&gt;Node8 -->
<g id="edge26" class="edge"><title>Node12&#45;&gt;Node8</title>
<path fill="none" stroke="#9a32cd" stroke-dasharray="5,2" d="M350.866,-227.341C385.608,-224.669 446.678,-222.095 498,-231 515.308,-234.003 533.962,-240.581 548.212,-246.37"/>
<polygon fill="#9a32cd" stroke="#9a32cd" points="350.232,-223.881 340.556,-228.197 350.812,-230.857 350.232,-223.881"/>
<text text-anchor="middle" x="449" y="-261" font-family="Helvetica,sans-Serif" font-size="10.00"> invertcut</text>
<text text-anchor="middle" x="449" y="-248" font-family="Helvetica,sans-Serif" font-size="10.00">show_extrapolated</text>
<text text-anchor="middle" x="449" y="-235" font-family="Helvetica,sans-Serif" font-size="10.00">show_sensordata</text>
</g>
<!-- Node13&#45;&gt;Node1 -->
<g id="edge32" class="edge"><title>Node13&#45;&gt;Node1</title>
<path fill="none" stroke="#9a32cd" stroke-dasharray="5,2" d="M590.229,-100.924C623.962,-134.826 696.959,-211.712 744,-287 763.981,-318.98 779.753,-361.132 786.474,-380.476"/>
<polygon fill="#9a32cd" stroke="#9a32cd" points="592.46,-98.2051 582.907,-93.6221 587.517,-103.162 592.46,-98.2051"/>
<text text-anchor="middle" x="695" y="-291" font-family="Helvetica,sans-Serif" font-size="10.00"> cut_visualisation_info</text>
</g>
<!-- Node14 -->
<g id="node33" class="node"><title>Node14</title>
<polygon fill="none" stroke="#bfbfbf" points="283,-0.5 283,-21.5 363,-21.5 363,-0.5 283,-0.5"/>
<text text-anchor="middle" x="323" y="-8.5" font-family="Helvetica,sans-Serif" font-size="10.00">PIM_algorithm</text>
</g>
<!-- Node14&#45;&gt;Node13 -->
<g id="edge40" class="edge"><title>Node14&#45;&gt;Node13</title>
<path fill="none" stroke="#9a32cd" stroke-dasharray="5,2" d="M373.339,-6.10796C409.308,-4.50872 458.185,-6.27766 498,-22 525.565,-32.8848 550.573,-58.124 563.254,-72.4936"/>
<polygon fill="#9a32cd" stroke="#9a32cd" points="372.878,-2.62782 363.085,-6.66983 373.262,-9.61734 372.878,-2.62782"/>
<text text-anchor="middle" x="449" y="-26" font-family="Helvetica,sans-Serif" font-size="10.00"> in_volume_algorithm</text>
</g>
</g>
</svg>
