<?xml version="1.0" encoding="UTF-8" standalone="no"?>
<!DOCTYPE svg PUBLIC "-//W3C//DTD SVG 1.1//EN"
 "http://www.w3.org/Graphics/SVG/1.1/DTD/svg11.dtd">
<!-- Generated by graphviz version 2.26.3 (20100126.1600)
 -->
<!-- Title: tetgenmesh::outmetrics Pages: 1 -->
<svg width="458pt" height="145pt"
 viewBox="0.00 0.00 458.00 145.00" xmlns="http://www.w3.org/2000/svg" xmlns:xlink="http://www.w3.org/1999/xlink">
<g id="graph1" class="graph" transform="scale(1 1) rotate(0) translate(4 141)">
<title>tetgenmesh::outmetrics</title>
<!-- Node1 -->
<g id="node1" class="node"><title>Node1</title>
<polygon fill="#bfbfbf" stroke="black" points="0.5,-69.5 0.5,-90.5 119.5,-90.5 119.5,-69.5 0.5,-69.5"/>
<text text-anchor="middle" x="60" y="-77.5" font-family="Helvetica,sans-Serif" font-size="10.00">tetgenmesh::outmetrics</text>
</g>
<!-- Node2 -->
<g id="node3" class="node"><title>Node2</title>
<a xlink:href="tetgen_8h.xhtml#a4012bf160c63ec4ff007f6645b993ca5" target="_top" xlink:title="terminatetetgen">
<polygon fill="none" stroke="black" points="179,-115.5 179,-136.5 263,-136.5 263,-115.5 179,-115.5"/>
<text text-anchor="middle" x="221" y="-123.5" font-family="Helvetica,sans-Serif" font-size="10.00">terminatetetgen</text>
</a>
</g>
<!-- Node1&#45;&gt;Node2 -->
<g id="edge2" class="edge"><title>Node1&#45;&gt;Node2</title>
<path fill="none" stroke="midnightblue" d="M96.9367,-90.5533C119.947,-97.1276 149.752,-105.643 174.381,-112.68"/>
<polygon fill="midnightblue" stroke="midnightblue" points="173.658,-116.114 184.235,-115.496 175.582,-109.383 173.658,-116.114"/>
</g>
<!-- Node4 -->
<g id="node7" class="node"><title>Node4</title>
<a xlink:href="classtetgenmesh_1_1memorypool.xhtml#a623b101e4e2f249d8b7e5dba65c3f7e2" target="_top" xlink:title="tetgenmesh::memorypool\l::traversalinit">
<polygon fill="none" stroke="black" points="157.5,-63 157.5,-97 284.5,-97 284.5,-63 157.5,-63"/>
<text text-anchor="start" x="165.5" y="-84" font-family="Helvetica,sans-Serif" font-size="10.00">tetgenmesh::memorypool</text>
<text text-anchor="middle" x="221" y="-71" font-family="Helvetica,sans-Serif" font-size="10.00">::traversalinit</text>
</a>
</g>
<!-- Node1&#45;&gt;Node4 -->
<g id="edge6" class="edge"><title>Node1&#45;&gt;Node4</title>
<path fill="none" stroke="midnightblue" d="M119.95,-80C128.85,-80 138.108,-80 147.249,-80"/>
<polygon fill="midnightblue" stroke="midnightblue" points="147.495,-83.5001 157.495,-80 147.495,-76.5001 147.495,-83.5001"/>
</g>
<!-- Node5 -->
<g id="node9" class="node"><title>Node5</title>
<a xlink:href="classtetgenmesh.xhtml#a2b088cf9fa743d47b4520d43d9964087" target="_top" xlink:title="tetgenmesh::pointtraverse">
<polygon fill="none" stroke="black" points="156,-23.5 156,-44.5 286,-44.5 286,-23.5 156,-23.5"/>
<text text-anchor="middle" x="221" y="-31.5" font-family="Helvetica,sans-Serif" font-size="10.00">tetgenmesh::pointtraverse</text>
</a>
</g>
<!-- Node1&#45;&gt;Node5 -->
<g id="edge8" class="edge"><title>Node1&#45;&gt;Node5</title>
<path fill="none" stroke="midnightblue" d="M96.9367,-69.4467C119.947,-62.8724 149.752,-54.3566 174.381,-47.3197"/>
<polygon fill="midnightblue" stroke="midnightblue" points="175.582,-50.6168 184.235,-44.5042 173.658,-43.8862 175.582,-50.6168"/>
</g>
<!-- Node3 -->
<g id="node5" class="node"><title>Node3</title>
<a xlink:href="classtetgenmesh.xhtml#ade805f03ec7ca1b4623c8148fb915278" target="_top" xlink:title="tetgenmesh::freememory">
<polygon fill="none" stroke="black" points="323.5,-115.5 323.5,-136.5 448.5,-136.5 448.5,-115.5 323.5,-115.5"/>
<text text-anchor="middle" x="386" y="-123.5" font-family="Helvetica,sans-Serif" font-size="10.00">tetgenmesh::freememory</text>
</a>
</g>
<!-- Node2&#45;&gt;Node3 -->
<g id="edge4" class="edge"><title>Node2&#45;&gt;Node3</title>
<path fill="none" stroke="midnightblue" d="M263.063,-126C278.388,-126 296.185,-126 313.399,-126"/>
<polygon fill="midnightblue" stroke="midnightblue" points="313.444,-129.5 323.444,-126 313.444,-122.5 313.444,-129.5"/>
</g>
<!-- Node6 -->
<g id="node11" class="node"><title>Node6</title>
<a xlink:href="classtetgenmesh_1_1memorypool.xhtml#a151fe73459d0fa9a7262d0030fecf291" target="_top" xlink:title="tetgenmesh::memorypool\l::traverse">
<polygon fill="none" stroke="black" points="322.5,-40 322.5,-74 449.5,-74 449.5,-40 322.5,-40"/>
<text text-anchor="start" x="330.5" y="-61" font-family="Helvetica,sans-Serif" font-size="10.00">tetgenmesh::memorypool</text>
<text text-anchor="middle" x="386" y="-48" font-family="Helvetica,sans-Serif" font-size="10.00">::traverse</text>
</a>
</g>
<!-- Node5&#45;&gt;Node6 -->
<g id="edge10" class="edge"><title>Node5&#45;&gt;Node6</title>
<path fill="none" stroke="midnightblue" d="M286.212,-43.0902C294.759,-44.2815 303.564,-45.5089 312.239,-46.7182"/>
<polygon fill="midnightblue" stroke="midnightblue" points="311.952,-50.2119 322.339,-48.1261 312.918,-43.2789 311.952,-50.2119"/>
</g>
<!-- Node7 -->
<g id="node13" class="node"><title>Node7</title>
<a xlink:href="classtetgenmesh.xhtml#a87204594ee11bb38e68e0381e6e04b6c" target="_top" xlink:title="tetgenmesh::pointtype">
<polygon fill="none" stroke="black" points="329.5,-0.5 329.5,-21.5 442.5,-21.5 442.5,-0.5 329.5,-0.5"/>
<text text-anchor="middle" x="386" y="-8.5" font-family="Helvetica,sans-Serif" font-size="10.00">tetgenmesh::pointtype</text>
</a>
</g>
<!-- Node5&#45;&gt;Node7 -->
<g id="edge12" class="edge"><title>Node5&#45;&gt;Node7</title>
<path fill="none" stroke="midnightblue" d="M286.212,-24.9098C297.109,-23.3909 308.427,-21.8132 319.359,-20.2893"/>
<polygon fill="midnightblue" stroke="midnightblue" points="319.846,-23.7554 329.267,-18.9083 318.879,-16.8224 319.846,-23.7554"/>
</g>
</g>
</svg>
