<?xml version="1.0" encoding="UTF-8" standalone="no"?>
<!DOCTYPE svg PUBLIC "-//W3C//DTD SVG 1.1//EN"
 "http://www.w3.org/Graphics/SVG/1.1/DTD/svg11.dtd">
<!-- Generated by graphviz version 2.26.3 (20100126.1600)
 -->
<!-- Title: Renderer::getViewport Pages: 1 -->
<svg width="316pt" height="70pt"
 viewBox="0.00 0.00 316.00 70.00" xmlns="http://www.w3.org/2000/svg" xmlns:xlink="http://www.w3.org/1999/xlink">
<g id="graph1" class="graph" transform="scale(1 1) rotate(0) translate(4 66)">
<title>Renderer::getViewport</title>
<!-- Node1 -->
<g id="node1" class="node"><title>Node1</title>
<polygon fill="#bfbfbf" stroke="black" points="0,-20.5 0,-41.5 114,-41.5 114,-20.5 0,-20.5"/>
<text text-anchor="middle" x="57" y="-28.5" font-family="Helvetica,sans-Serif" font-size="10.00">Renderer::getViewport</text>
</g>
<!-- Node2 -->
<g id="node3" class="node"><title>Node2</title>
<a xlink:href="classGUIGLCanvas.xhtml#a0ee8fe9339ebb330b8133a620bd67514" target="_top" xlink:title="GUIGLCanvas::OnMouseWheel">
<polygon fill="none" stroke="black" points="150.5,-40.5 150.5,-61.5 307.5,-61.5 307.5,-40.5 150.5,-40.5"/>
<text text-anchor="middle" x="229" y="-48.5" font-family="Helvetica,sans-Serif" font-size="10.00">GUIGLCanvas::OnMouseWheel</text>
</a>
</g>
<!-- Node1&#45;&gt;Node2 -->
<g id="edge2" class="edge"><title>Node1&#45;&gt;Node2</title>
<path fill="none" stroke="midnightblue" d="M124.445,-38.8425C132.906,-39.8262 141.618,-40.8393 150.232,-41.8409"/>
<polygon fill="midnightblue" stroke="midnightblue" points="124.611,-35.3382 114.274,-37.6597 123.802,-42.2914 124.611,-35.3382"/>
</g>
<!-- Node3 -->
<g id="node5" class="node"><title>Node3</title>
<a xlink:href="classGUIGLCanvas.xhtml#a9c089336b9485f1abcc60a1a7fb85bb7" target="_top" xlink:title="GUIGLCanvas::OnMouseMove">
<polygon fill="none" stroke="black" points="152.5,-0.5 152.5,-21.5 305.5,-21.5 305.5,-0.5 152.5,-0.5"/>
<text text-anchor="middle" x="229" y="-8.5" font-family="Helvetica,sans-Serif" font-size="10.00">GUIGLCanvas::OnMouseMove</text>
</a>
</g>
<!-- Node1&#45;&gt;Node3 -->
<g id="edge4" class="edge"><title>Node1&#45;&gt;Node3</title>
<path fill="none" stroke="midnightblue" d="M124.466,-23.1551C133.626,-22.09 143.08,-20.9906 152.386,-19.9086"/>
<polygon fill="midnightblue" stroke="midnightblue" points="123.802,-19.7086 114.274,-24.3403 124.611,-26.6618 123.802,-19.7086"/>
</g>
</g>
</svg>
