<?xml version="1.0" encoding="UTF-8" standalone="no"?>
<!DOCTYPE svg PUBLIC "-//W3C//DTD SVG 1.1//EN"
 "http://www.w3.org/Graphics/SVG/1.1/DTD/svg11.dtd">
<!-- Generated by graphviz version 2.26.3 (20100126.1600)
 -->
<!-- Title: tetgenmesh::tetaspectratio Pages: 1 -->
<!--zoomable 167 -->
<svg id="main" version="1.1" xmlns="http://www.w3.org/2000/svg" xmlns:xlink="http://www.w3.org/1999/xlink" xml:space="preserve" onload="init(evt)">
<style type="text/css"><![CDATA[
.edge:hover path { stroke: red; }
.edge:hover polygon { stroke: red; fill: red; }
]]></style>
<script type="text/javascript"><![CDATA[
var edges = document.getElementsByTagName('g');
if (edges && edges.length) {
  for (var i=0;i<edges.length;i++) {
    if (edges[i].id.substr(0,4)=='edge') {
      edges[i].setAttribute('class','edge');
    }
  }
}
]]></script>
        <defs>
                <circle id="rim" cx="0" cy="0" r="7"/>
                <circle id="rim2" cx="0" cy="0" r="3.5"/>
                <g id="zoomPlus">
                        <use xlink:href="#rim" fill="#404040">
                                <set attributeName="fill" to="#808080" begin="zoomplus.mouseover" end="zoomplus.mouseout"/>
                        </use>
                        <path d="M-4,0h8M0,-4v8" fill="none" stroke="white" stroke-width="1.5" pointer-events="none"/>
                </g>
                <g id="zoomMin">
                        <use xlink:href="#rim" fill="#404040">
                                <set attributeName="fill" to="#808080" begin="zoomminus.mouseover" end="zoomminus.mouseout"/>
                        </use>
                        <path d="M-4,0h8" fill="none" stroke="white" stroke-width="1.5" pointer-events="none"/>
                </g>
                <g id="dirArrow">
                        <path fill="none" stroke="white" stroke-width="1.5" d="M0,-3.0v7 M-2.5,-0.5L0,-3.0L2.5,-0.5"/>
                </g>
               <g id="resetDef">
                       <use xlink:href="#rim2" fill="#404040">
                               <set attributeName="fill" to="#808080" begin="reset.mouseover" end="reset.mouseout"/>
                       </use>
               </g>
        </defs>

<script type="text/javascript">
var viewWidth = 1552;
var viewHeight = 167;
var sectionId = 'dynsection-468';
</script>
<script xlink:href="svgpan.js"/>
<svg id="graph" class="graph">
<g id="viewport">
<title>tetgenmesh::tetaspectratio</title>
<!-- Node1 -->
<g id="node1" class="node"><title>Node1</title>
<polygon fill="#bfbfbf" stroke="black" points="0.5,-59.5 0.5,-80.5 133.5,-80.5 133.5,-59.5 0.5,-59.5"/>
<text text-anchor="middle" x="67" y="-67.5" font-family="Helvetica,sans-Serif" font-size="10.00">tetgenmesh::tetaspectratio</text>
</g>
<!-- Node2 -->
<g id="node3" class="node"><title>Node2</title>
<a xlink:href="classtetgenmesh.xhtml#a8edf1b91719a1e64acd4fe8617184905" target="_top" xlink:title="tetgenmesh::smoothpoint">
<polygon fill="none" stroke="black" points="170.5,-59.5 170.5,-80.5 297.5,-80.5 297.5,-59.5 170.5,-59.5"/>
<text text-anchor="middle" x="234" y="-67.5" font-family="Helvetica,sans-Serif" font-size="10.00">tetgenmesh::smoothpoint</text>
</a>
</g>
<!-- Node1&#45;&gt;Node2 -->
<g id="edge2" class="edge"><title>Node1&#45;&gt;Node2</title>
<path fill="none" stroke="midnightblue" d="M144.159,-70C152.9,-70 161.735,-70 170.276,-70"/>
<polygon fill="midnightblue" stroke="midnightblue" points="143.963,-66.5001 133.963,-70 143.963,-73.5001 143.963,-66.5001"/>
</g>
<!-- Node3 -->
<g id="node5" class="node"><title>Node3</title>
<a xlink:href="classtetgenmesh.xhtml#acb5fc751eaa4a4ddffbebedfa7b7382a" target="_top" xlink:title="tetgenmesh::add_steinerpt\l_in_schoenhardtpoly">
<polygon fill="none" stroke="black" points="334,-118 334,-152 466,-152 466,-118 334,-118"/>
<text text-anchor="start" x="342" y="-139" font-family="Helvetica,sans-Serif" font-size="10.00">tetgenmesh::add_steinerpt</text>
<text text-anchor="middle" x="400" y="-126" font-family="Helvetica,sans-Serif" font-size="10.00">_in_schoenhardtpoly</text>
</a>
</g>
<!-- Node2&#45;&gt;Node3 -->
<g id="edge4" class="edge"><title>Node2&#45;&gt;Node3</title>
<path fill="none" stroke="midnightblue" d="M270.637,-84.3457C295.95,-94.2577 329.735,-107.487 356.43,-117.94"/>
<polygon fill="midnightblue" stroke="midnightblue" points="271.628,-80.9751 261.04,-80.588 269.076,-87.4933 271.628,-80.9751"/>
</g>
<!-- Node14 -->
<g id="node27" class="node"><title>Node14</title>
<a xlink:href="classtetgenmesh.xhtml#affc448708b6df2b57048544d3efd6e3c" target="_top" xlink:title="tetgenmesh::suppresssteinerpoints">
<polygon fill="none" stroke="black" points="918.5,-79.5 918.5,-100.5 1087.5,-100.5 1087.5,-79.5 918.5,-79.5"/>
<text text-anchor="middle" x="1003" y="-87.5" font-family="Helvetica,sans-Serif" font-size="10.00">tetgenmesh::suppresssteinerpoints</text>
</a>
</g>
<!-- Node2&#45;&gt;Node14 -->
<g id="edge26" class="edge"><title>Node2&#45;&gt;Node14</title>
<path fill="none" stroke="midnightblue" d="M307.978,-73.928C316.747,-74.3258 325.572,-74.6949 334,-75 544.139,-82.6079 791.557,-86.9561 918.492,-88.851"/>
<polygon fill="midnightblue" stroke="midnightblue" points="307.889,-70.4202 297.737,-73.45 307.563,-77.4126 307.889,-70.4202"/>
</g>
<!-- Node15 -->
<g id="node30" class="node"><title>Node15</title>
<a xlink:href="classtetgenmesh.xhtml#a1d652618e67ac4ff3057373e15016181" target="_top" xlink:title="tetgenmesh::improvequalitybysmoothing">
<polygon fill="none" stroke="black" points="503,-40.5 503,-61.5 695,-61.5 695,-40.5 503,-40.5"/>
<text text-anchor="middle" x="599" y="-48.5" font-family="Helvetica,sans-Serif" font-size="10.00">tetgenmesh::improvequalitybysmoothing</text>
</a>
</g>
<!-- Node2&#45;&gt;Node15 -->
<g id="edge30" class="edge"><title>Node2&#45;&gt;Node15</title>
<path fill="none" stroke="midnightblue" d="M307.811,-66.1578C364.01,-63.2323 441.841,-59.1809 502.899,-56.0025"/>
<polygon fill="midnightblue" stroke="midnightblue" points="307.383,-62.6752 297.578,-66.6905 307.747,-69.6658 307.383,-62.6752"/>
</g>
<!-- Node17 -->
<g id="node35" class="node"><title>Node17</title>
<a xlink:href="classtetgenmesh.xhtml#aa9540f310c97db99c989a02b0978ceec" target="_top" xlink:title="tetgenmesh::splitsliver">
<polygon fill="none" stroke="black" points="342.5,-1.5 342.5,-22.5 457.5,-22.5 457.5,-1.5 342.5,-1.5"/>
<text text-anchor="middle" x="400" y="-9.5" font-family="Helvetica,sans-Serif" font-size="10.00">tetgenmesh::splitsliver</text>
</a>
</g>
<!-- Node2&#45;&gt;Node17 -->
<g id="edge36" class="edge"><title>Node2&#45;&gt;Node17</title>
<path fill="none" stroke="midnightblue" d="M273.656,-56.1443C303.196,-45.8229 342.919,-31.9439 369.882,-22.5231"/>
<polygon fill="midnightblue" stroke="midnightblue" points="272.347,-52.894 264.061,-59.4966 274.656,-59.5023 272.347,-52.894"/>
</g>
<!-- Node4 -->
<g id="node7" class="node"><title>Node4</title>
<a xlink:href="classtetgenmesh.xhtml#a9d878a0e64588b0471a58e534affea8e" target="_top" xlink:title="tetgenmesh::addsteiner4recoversegment">
<polygon fill="none" stroke="black" points="502,-123.5 502,-144.5 696,-144.5 696,-123.5 502,-123.5"/>
<text text-anchor="middle" x="599" y="-131.5" font-family="Helvetica,sans-Serif" font-size="10.00">tetgenmesh::addsteiner4recoversegment</text>
</a>
</g>
<!-- Node3&#45;&gt;Node4 -->
<g id="edge6" class="edge"><title>Node3&#45;&gt;Node4</title>
<path fill="none" stroke="midnightblue" d="M476.315,-134.617C484.663,-134.575 493.242,-134.531 501.798,-134.488"/>
<polygon fill="midnightblue" stroke="midnightblue" points="476.246,-131.117 466.264,-134.667 476.282,-138.117 476.246,-131.117"/>
</g>
<!-- Node5 -->
<g id="node9" class="node"><title>Node5</title>
<a xlink:href="classtetgenmesh.xhtml#a50e12e269b11573e6e1b91347ad19b37" target="_top" xlink:title="tetgenmesh::recoversegments">
<polygon fill="none" stroke="black" points="732.5,-122.5 732.5,-143.5 881.5,-143.5 881.5,-122.5 732.5,-122.5"/>
<text text-anchor="middle" x="807" y="-130.5" font-family="Helvetica,sans-Serif" font-size="10.00">tetgenmesh::recoversegments</text>
</a>
</g>
<!-- Node4&#45;&gt;Node5 -->
<g id="edge8" class="edge"><title>Node4&#45;&gt;Node5</title>
<path fill="none" stroke="midnightblue" d="M706.574,-133.483C715.325,-133.441 724.042,-133.399 732.478,-133.358"/>
<polygon fill="midnightblue" stroke="midnightblue" points="706.284,-129.984 696.301,-133.532 706.318,-136.984 706.284,-129.984"/>
</g>
<!-- Node6 -->
<g id="node11" class="node"><title>Node6</title>
<a xlink:href="classtetgenmesh.xhtml#a1be7dce56688fbe7a97fc31f98b61c19" target="_top" xlink:title="tetgenmesh::recoverboundary">
<polygon fill="none" stroke="black" points="930,-120.5 930,-141.5 1076,-141.5 1076,-120.5 930,-120.5"/>
<text text-anchor="middle" x="1003" y="-128.5" font-family="Helvetica,sans-Serif" font-size="10.00">tetgenmesh::recoverboundary</text>
</a>
</g>
<!-- Node5&#45;&gt;Node6 -->
<g id="edge10" class="edge"><title>Node5&#45;&gt;Node6</title>
<path fill="none" stroke="midnightblue" d="M891.751,-132.135C904.438,-132.006 917.426,-131.873 929.845,-131.746"/>
<polygon fill="midnightblue" stroke="midnightblue" points="891.622,-128.636 881.658,-132.238 891.694,-135.636 891.622,-128.636"/>
</g>
<!-- Node7 -->
<g id="node13" class="node"><title>Node7</title>
<a xlink:href="tetgen_8h.xhtml#ad3637eb4ffe7fda90667e67b7771d964" target="_top" xlink:title="tetrahedralize">
<polygon fill="none" stroke="black" points="1124.5,-79.5 1124.5,-100.5 1199.5,-100.5 1199.5,-79.5 1124.5,-79.5"/>
<text text-anchor="middle" x="1162" y="-87.5" font-family="Helvetica,sans-Serif" font-size="10.00">tetrahedralize</text>
</a>
</g>
<!-- Node6&#45;&gt;Node7 -->
<g id="edge12" class="edge"><title>Node6&#45;&gt;Node7</title>
<path fill="none" stroke="midnightblue" d="M1056.22,-118.039C1066.76,-115.419 1077.74,-112.654 1088,-110 1099.85,-106.934 1112.74,-103.489 1124.4,-100.333"/>
<polygon fill="midnightblue" stroke="midnightblue" points="1055.15,-114.698 1046.29,-120.498 1056.84,-121.493 1055.15,-114.698"/>
</g>
<!-- Node8 -->
<g id="node15" class="node"><title>Node8</title>
<a xlink:href="classGUICutRenderWindow.xhtml#a9eedb7088ad31f4680a77ed3a06fa60c" target="_top" xlink:title="Berechnet die 2D&#45;Temperaturverteilung als Grafik. ">
<polygon fill="none" stroke="black" points="1238.5,-122 1238.5,-156 1355.5,-156 1355.5,-122 1238.5,-122"/>
<text text-anchor="start" x="1246.5" y="-143" font-family="Helvetica,sans-Serif" font-size="10.00">GUICutRenderWindow</text>
<text text-anchor="middle" x="1297" y="-130" font-family="Helvetica,sans-Serif" font-size="10.00">::renderImage</text>
</a>
</g>
<!-- Node7&#45;&gt;Node8 -->
<g id="edge14" class="edge"><title>Node7&#45;&gt;Node8</title>
<path fill="none" stroke="midnightblue" d="M1200.67,-104.038C1216.06,-109.623 1233.91,-116.101 1250.03,-121.953"/>
<polygon fill="midnightblue" stroke="midnightblue" points="1201.56,-100.634 1190.96,-100.512 1199.17,-107.214 1201.56,-100.634"/>
</g>
<!-- Node10 -->
<g id="node19" class="node"><title>Node10</title>
<a xlink:href="classObjectData.xhtml#af3a850833d08eb9b45357449f455e24d" target="_top" xlink:title="Zerlegt das Objekt in Tetraeder (Schnittstelle zur Tetgen&#45;Bibliothek) und Berechnet die Temperaturver...">
<polygon fill="none" stroke="black" points="1236,-79.5 1236,-100.5 1358,-100.5 1358,-79.5 1236,-79.5"/>
<text text-anchor="middle" x="1297" y="-87.5" font-family="Helvetica,sans-Serif" font-size="10.00">ObjectData::calculateIO</text>
</a>
</g>
<!-- Node7&#45;&gt;Node10 -->
<g id="edge18" class="edge"><title>Node7&#45;&gt;Node10</title>
<path fill="none" stroke="midnightblue" d="M1209.65,-90C1218.11,-90 1227.02,-90 1235.8,-90"/>
<polygon fill="midnightblue" stroke="midnightblue" points="1209.61,-86.5001 1199.61,-90 1209.6,-93.5001 1209.61,-86.5001"/>
</g>
<!-- Node13 -->
<g id="node25" class="node"><title>Node13</title>
<a xlink:href="tetgen_8cxx.xhtml#a0ddf1224851353fc92bfbff6f499fa97" target="_top" xlink:title="main">
<polygon fill="none" stroke="black" points="1278,-39.5 1278,-60.5 1316,-60.5 1316,-39.5 1278,-39.5"/>
<text text-anchor="middle" x="1297" y="-47.5" font-family="Helvetica,sans-Serif" font-size="10.00">main</text>
</a>
</g>
<!-- Node7&#45;&gt;Node13 -->
<g id="edge24" class="edge"><title>Node7&#45;&gt;Node13</title>
<path fill="none" stroke="midnightblue" d="M1207.15,-76.6209C1231.27,-69.4764 1259.67,-61.0613 1277.98,-55.6343"/>
<polygon fill="midnightblue" stroke="midnightblue" points="1206.06,-73.2937 1197.47,-79.4905 1208.05,-80.0053 1206.06,-73.2937"/>
</g>
<!-- Node9 -->
<g id="node17" class="node"><title>Node9</title>
<a xlink:href="classGUICutRenderWindow.xhtml#a7cd1bfbec53756a1cbbe1616b4d46c7a" target="_top" xlink:title="Behandelt das Drücken des Buttons zur Berechnung der zweidimensionalen Temperaturverteilung. ">
<polygon fill="none" stroke="black" points="1410.5,-125 1410.5,-159 1527.5,-159 1527.5,-125 1410.5,-125"/>
<text text-anchor="start" x="1418.5" y="-146" font-family="Helvetica,sans-Serif" font-size="10.00">GUICutRenderWindow</text>
<text text-anchor="middle" x="1469" y="-133" font-family="Helvetica,sans-Serif" font-size="10.00">::renderCutBtClick</text>
</a>
</g>
<!-- Node8&#45;&gt;Node9 -->
<g id="edge16" class="edge"><title>Node8&#45;&gt;Node9</title>
<path fill="none" stroke="midnightblue" d="M1365.78,-140.2C1380.51,-140.457 1395.95,-140.726 1410.26,-140.975"/>
<polygon fill="midnightblue" stroke="midnightblue" points="1365.77,-136.699 1355.71,-140.024 1365.65,-143.698 1365.77,-136.699"/>
</g>
<!-- Node11 -->
<g id="node21" class="node"><title>Node11</title>
<a xlink:href="classGUIMainWindow.xhtml#a0c2de30274c7f52ff74ec1217e47a9e5" target="_top" xlink:title="Berechnet die 3D&#45;Temperaturverteilung neu. ">
<polygon fill="none" stroke="black" points="1394,-73 1394,-107 1544,-107 1544,-73 1394,-73"/>
<text text-anchor="start" x="1402" y="-94" font-family="Helvetica,sans-Serif" font-size="10.00">GUIMainWindow::OnRecalcBt</text>
<text text-anchor="middle" x="1469" y="-81" font-family="Helvetica,sans-Serif" font-size="10.00">Click</text>
</a>
</g>
<!-- Node10&#45;&gt;Node11 -->
<g id="edge20" class="edge"><title>Node10&#45;&gt;Node11</title>
<path fill="none" stroke="midnightblue" d="M1368.32,-90C1376.77,-90 1385.42,-90 1393.92,-90"/>
<polygon fill="midnightblue" stroke="midnightblue" points="1368.13,-86.5001 1358.13,-90 1368.13,-93.5001 1368.13,-86.5001"/>
</g>
<!-- Node12 -->
<g id="node23" class="node"><title>Node12</title>
<a xlink:href="classGUITimeline.xhtml#a099f3654aa6e7ea04df861851a0e9ec8" target="_top" xlink:title="Sucht den Zeitpunkt zwischen zwei markierten Stellen auf der Sensordaten&#45;Zeitleiste, für den der Wäremeenergiegehalt maximal wird. ">
<polygon fill="none" stroke="black" points="1400.5,-33.5 1400.5,-54.5 1537.5,-54.5 1537.5,-33.5 1400.5,-33.5"/>
<text text-anchor="middle" x="1469" y="-41.5" font-family="Helvetica,sans-Serif" font-size="10.00">GUITimeline::findMaxValue</text>
</a>
</g>
<!-- Node10&#45;&gt;Node12 -->
<g id="edge22" class="edge"><title>Node10&#45;&gt;Node12</title>
<path fill="none" stroke="midnightblue" d="M1346,-76.8537C1361.36,-72.7343 1378.39,-68.1741 1394,-64 1405.46,-60.9371 1417.9,-57.6167 1429.3,-54.5777"/>
<polygon fill="midnightblue" stroke="midnightblue" points="1344.92,-73.5181 1336.17,-79.4885 1346.74,-80.2793 1344.92,-73.5181"/>
</g>
<!-- Node14&#45;&gt;Node7 -->
<g id="edge28" class="edge"><title>Node14&#45;&gt;Node7</title>
<path fill="none" stroke="midnightblue" d="M1097.84,-90C1107.18,-90 1116.22,-90 1124.42,-90"/>
<polygon fill="midnightblue" stroke="midnightblue" points="1097.62,-86.5001 1087.62,-90 1097.62,-93.5001 1097.62,-86.5001"/>
</g>
<!-- Node16 -->
<g id="node32" class="node"><title>Node16</title>
<a xlink:href="classtetgenmesh.xhtml#a8bb5c6ad8ccfa57f2a84e5a78295b263" target="_top" xlink:title="tetgenmesh::optimizemesh">
<polygon fill="none" stroke="black" points="740,-40.5 740,-61.5 874,-61.5 874,-40.5 740,-40.5"/>
<text text-anchor="middle" x="807" y="-48.5" font-family="Helvetica,sans-Serif" font-size="10.00">tetgenmesh::optimizemesh</text>
</a>
</g>
<!-- Node15&#45;&gt;Node16 -->
<g id="edge32" class="edge"><title>Node15&#45;&gt;Node16</title>
<path fill="none" stroke="midnightblue" d="M705.378,-51C717.096,-51 728.774,-51 739.816,-51"/>
<polygon fill="midnightblue" stroke="midnightblue" points="705.085,-47.5001 695.085,-51 705.085,-54.5001 705.085,-47.5001"/>
</g>
<!-- Node16&#45;&gt;Node7 -->
<g id="edge34" class="edge"><title>Node16&#45;&gt;Node7</title>
<path fill="none" stroke="midnightblue" d="M884.466,-52.1543C941.167,-53.9879 1019.79,-58.5897 1088,-70 1101.39,-72.2395 1115.86,-75.8694 1128.42,-79.4263"/>
<polygon fill="midnightblue" stroke="midnightblue" points="884.242,-48.6461 874.141,-51.8432 884.031,-55.6429 884.242,-48.6461"/>
</g>
<!-- Node18 -->
<g id="node37" class="node"><title>Node18</title>
<a xlink:href="classtetgenmesh.xhtml#ad5c46c2f6c9adeed23fc8c64b682778d" target="_top" xlink:title="tetgenmesh::removeslivers">
<polygon fill="none" stroke="black" points="532,-0.5 532,-21.5 666,-21.5 666,-0.5 532,-0.5"/>
<text text-anchor="middle" x="599" y="-8.5" font-family="Helvetica,sans-Serif" font-size="10.00">tetgenmesh::removeslivers</text>
</a>
</g>
<!-- Node17&#45;&gt;Node18 -->
<g id="edge38" class="edge"><title>Node17&#45;&gt;Node18</title>
<path fill="none" stroke="midnightblue" d="M467.826,-11.6592C488.465,-11.5555 511.134,-11.4415 531.736,-11.338"/>
<polygon fill="midnightblue" stroke="midnightblue" points="467.541,-8.16046 457.559,-11.7108 467.577,-15.1604 467.541,-8.16046"/>
</g>
<!-- Node18&#45;&gt;Node16 -->
<g id="edge40" class="edge"><title>Node18&#45;&gt;Node16</title>
<path fill="none" stroke="midnightblue" d="M663.513,-23.4063C691.994,-28.8834 725.115,-35.2528 752.355,-40.4913"/>
<polygon fill="midnightblue" stroke="midnightblue" points="664.131,-19.9611 653.65,-21.5095 662.809,-26.8351 664.131,-19.9611"/>
</g>
</g>
</svg>
        <g id="navigator" transform="translate(0 0)" fill="#404254">
                <rect fill="#f2f5e9" fill-opacity="0.5" stroke="#606060" stroke-width=".5" x="0" y="0" width="60" height="60"/>
                <use id="zoomplus" xlink:href="#zoomPlus" x="17" y="9" onmousedown="handleZoom(evt,'in')"/>
                <use id="zoomminus" xlink:href="#zoomMin" x="42" y="9" onmousedown="handleZoom(evt,'out')"/>
                <use id="reset" xlink:href="#resetDef" x="30" y="36" onmousedown="handleReset()"/>
                <g id="arrowUp" xlink:href="#dirArrow" transform="translate(30 24)" onmousedown="handlePan(0,-1)">
                  <use xlink:href="#rim" fill="#404040">
                        <set attributeName="fill" to="#808080" begin="arrowUp.mouseover" end="arrowUp.mouseout"/>
                  </use>
                  <path fill="none" stroke="white" stroke-width="1.5" d="M0,-3.0v7 M-2.5,-0.5L0,-3.0L2.5,-0.5"/>
                </g>
                <g id="arrowRight" xlink:href="#dirArrow" transform="rotate(90) translate(36 -43)" onmousedown="handlePan(1,0)">
                  <use xlink:href="#rim" fill="#404040">
                        <set attributeName="fill" to="#808080" begin="arrowRight.mouseover" end="arrowRight.mouseout"/>
                  </use>
                  <path fill="none" stroke="white" stroke-width="1.5" d="M0,-3.0v7 M-2.5,-0.5L0,-3.0L2.5,-0.5"/>
                </g>
                <g id="arrowDown" xlink:href="#dirArrow" transform="rotate(180) translate(-30 -48)" onmousedown="handlePan(0,1)">
                  <use xlink:href="#rim" fill="#404040">
                        <set attributeName="fill" to="#808080" begin="arrowDown.mouseover" end="arrowDown.mouseout"/>
                  </use>
                  <path fill="none" stroke="white" stroke-width="1.5" d="M0,-3.0v7 M-2.5,-0.5L0,-3.0L2.5,-0.5"/>
                </g>
                <g id="arrowLeft" xlink:href="#dirArrow" transform="rotate(270) translate(-36 17)" onmousedown="handlePan(-1,0)">
                  <use xlink:href="#rim" fill="#404040">
                        <set attributeName="fill" to="#808080" begin="arrowLeft.mouseover" end="arrowLeft.mouseout"/>
                  </use>
                  <path fill="none" stroke="white" stroke-width="1.5" d="M0,-3.0v7 M-2.5,-0.5L0,-3.0L2.5,-0.5"/>
                </g>
        </g>
        <svg viewBox="0 0 15 15" width="100%" height="30px" preserveAspectRatio="xMaxYMin meet">
         <g id="arrow_out" transform="scale(0.3 0.3)">
          <a xlink:href="classtetgenmesh_a891ca3fde48f9e3378e14d5537216853_icgraph_org.svg" target="_base">
           <rect id="button" ry="5" rx="5" y="6" x="6" height="38" width="38"
                fill="#f2f5e9" fill-opacity="0.5" stroke="#606060" stroke-width="1.0"/>
           <path id="arrow"
             d="M 11.500037,31.436501 C 11.940474,20.09759 22.043105,11.32322 32.158766,21.979434 L 37.068811,17.246167 C 37.068811,17.246167 37.088388,32 37.088388,32 L 22.160133,31.978069 C 22.160133,31.978069 26.997745,27.140456 26.997745,27.140456 C 18.528582,18.264221 13.291696,25.230495 11.500037,31.436501 z"
             style="fill:#404040;"/>
          </a>
         </g>
        </svg>
</svg>
