<?xml version="1.0" encoding="UTF-8" standalone="no"?>
<!DOCTYPE svg PUBLIC "-//W3C//DTD SVG 1.1//EN"
 "http://www.w3.org/Graphics/SVG/1.1/DTD/svg11.dtd">
<!-- Generated by graphviz version 2.36.0 (20140111.2315)
 -->
<!-- Title: ParticleSystem::calc Pages: 1 -->
<svg width="474pt" height="66pt"
 viewBox="0.00 0.00 474.00 66.00" xmlns="http://www.w3.org/2000/svg" xmlns:xlink="http://www.w3.org/1999/xlink">
<g id="graph0" class="graph" transform="scale(1 1) rotate(0) translate(4 62)">
<title>ParticleSystem::calc</title>
<!-- Node1 -->
<g id="node1" class="node"><title>Node1</title>
<polygon fill="#bfbfbf" stroke="black" points="0.5,-19.5 0.5,-38.5 107.5,-38.5 107.5,-19.5 0.5,-19.5"/>
<text text-anchor="middle" x="54" y="-26.5" font-family="Helvetica,sans-Serif" font-size="10.00">ParticleSystem::calc</text>
</g>
<!-- Node2 -->
<g id="node2" class="node"><title>Node2</title>
<g id="a_node2"><a xlink:href="classRenderer.xhtml#a0580ba6864ba731290380740c0a470e3" target="_top" xlink:title="Renderer::render">
<polygon fill="none" stroke="black" points="144.5,-19.5 144.5,-38.5 233.5,-38.5 233.5,-19.5 144.5,-19.5"/>
<text text-anchor="middle" x="189" y="-26.5" font-family="Helvetica,sans-Serif" font-size="10.00">Renderer::render</text>
</a>
</g>
</g>
<!-- Node1&#45;&gt;Node2 -->
<g id="edge1" class="edge"><title>Node1&#45;&gt;Node2</title>
<path fill="none" stroke="midnightblue" d="M117.683,-29C126.711,-29 135.834,-29 144.382,-29"/>
<polygon fill="midnightblue" stroke="midnightblue" points="117.565,-25.5001 107.565,-29 117.565,-32.5001 117.565,-25.5001"/>
</g>
<!-- Node3 -->
<g id="node3" class="node"><title>Node3</title>
<g id="a_node3"><a xlink:href="classMain.xhtml#a2c54a5b5efdb5e02be834319c494620c" target="_top" xlink:title="Main::mainLoop">
<polygon fill="none" stroke="black" points="288,-38.5 288,-57.5 374,-57.5 374,-38.5 288,-38.5"/>
<text text-anchor="middle" x="331" y="-45.5" font-family="Helvetica,sans-Serif" font-size="10.00">Main::mainLoop</text>
</a>
</g>
</g>
<!-- Node2&#45;&gt;Node3 -->
<g id="edge2" class="edge"><title>Node2&#45;&gt;Node3</title>
<path fill="none" stroke="midnightblue" d="M243.516,-36.2628C258.227,-38.2594 273.969,-40.3958 287.936,-42.2913"/>
<polygon fill="midnightblue" stroke="midnightblue" points="243.909,-32.7843 233.529,-34.9076 242.968,-39.7207 243.909,-32.7843"/>
</g>
<!-- Node5 -->
<g id="node5" class="node"><title>Node5</title>
<g id="a_node5"><a xlink:href="classGUIGLCanvas.xhtml#a83f52d08591920a339150c2f45069c8f" target="_top" xlink:title="Event&#45;Tabellendeklaration für wxWidgets. ">
<polygon fill="none" stroke="black" points="270,-0.5 270,-19.5 392,-19.5 392,-0.5 270,-0.5"/>
<text text-anchor="middle" x="331" y="-7.5" font-family="Helvetica,sans-Serif" font-size="10.00">GUIGLCanvas::OnPaint</text>
</a>
</g>
</g>
<!-- Node2&#45;&gt;Node5 -->
<g id="edge4" class="edge"><title>Node2&#45;&gt;Node5</title>
<path fill="none" stroke="midnightblue" d="M243.445,-21.7468C252.059,-20.5777 261.028,-19.3605 269.788,-18.1716"/>
<polygon fill="midnightblue" stroke="midnightblue" points="242.968,-18.2793 233.529,-23.0924 243.909,-25.2157 242.968,-18.2793"/>
</g>
<!-- Node4 -->
<g id="node4" class="node"><title>Node4</title>
<g id="a_node4"><a xlink:href="CLGL__test_2Main_8h.xhtml#a0ddf1224851353fc92bfbff6f499fa97" target="_top" xlink:title="main">
<polygon fill="none" stroke="black" points="428,-38.5 428,-57.5 466,-57.5 466,-38.5 428,-38.5"/>
<text text-anchor="middle" x="447" y="-45.5" font-family="Helvetica,sans-Serif" font-size="10.00">main</text>
</a>
</g>
</g>
<!-- Node3&#45;&gt;Node4 -->
<g id="edge3" class="edge"><title>Node3&#45;&gt;Node4</title>
<path fill="none" stroke="midnightblue" d="M384.278,-48C399.907,-48 416.013,-48 427.852,-48"/>
<polygon fill="midnightblue" stroke="midnightblue" points="384.126,-44.5001 374.126,-48 384.125,-51.5001 384.126,-44.5001"/>
</g>
</g>
</svg>
