<?xml version="1.0" encoding="UTF-8" standalone="no"?>
<!DOCTYPE svg PUBLIC "-//W3C//DTD SVG 1.1//EN"
 "http://www.w3.org/Graphics/SVG/1.1/DTD/svg11.dtd">
<!-- Generated by graphviz version 2.26.3 (20100126.1600)
 -->
<!-- Title: simpleanalyzer&#45;gui/src/GUI/constants.h Pages: 1 -->
<svg width="862pt" height="116pt"
 viewBox="0.00 0.00 862.00 116.00" xmlns="http://www.w3.org/2000/svg" xmlns:xlink="http://www.w3.org/1999/xlink">
<g id="graph1" class="graph" transform="scale(1 1) rotate(0) translate(4 112)">
<title>simpleanalyzer&#45;gui/src/GUI/constants.h</title>
<!-- Node1 -->
<g id="node1" class="node"><title>Node1</title>
<polygon fill="#bfbfbf" stroke="black" points="419,-73 419,-107 527,-107 527,-73 419,-73"/>
<text text-anchor="start" x="427" y="-94" font-family="Helvetica,sans-Serif" font-size="10.00">simpleanalyzer&#45;gui</text>
<text text-anchor="middle" x="473" y="-81" font-family="Helvetica,sans-Serif" font-size="10.00">/src/GUI/constants.h</text>
</g>
<!-- Node2 -->
<g id="node3" class="node"><title>Node2</title>
<a xlink:href="GUIAnalyzePointWindow_8cpp_source.xhtml" target="_top" xlink:title="simpleanalyzer&#45;gui\l/src/GUI/GUIAnalyzePointWindow.cpp">
<polygon fill="none" stroke="black" points="-0.5,-1 -0.5,-35 186.5,-35 186.5,-1 -0.5,-1"/>
<text text-anchor="start" x="7.5" y="-22" font-family="Helvetica,sans-Serif" font-size="10.00">simpleanalyzer&#45;gui</text>
<text text-anchor="middle" x="93" y="-9" font-family="Helvetica,sans-Serif" font-size="10.00">/src/GUI/GUIAnalyzePointWindow.cpp</text>
</a>
</g>
<!-- Node1&#45;&gt;Node2 -->
<g id="edge2" class="edge"><title>Node1&#45;&gt;Node2</title>
<path fill="none" stroke="midnightblue" d="M408.911,-77.8569C346.877,-66.1029 252.274,-48.1782 182.758,-35.0067"/>
<polygon fill="midnightblue" stroke="midnightblue" points="408.482,-81.3377 418.959,-79.7606 409.785,-74.4601 408.482,-81.3377"/>
</g>
<!-- Node3 -->
<g id="node5" class="node"><title>Node3</title>
<a xlink:href="GUICutRenderWindow_8cpp_source.xhtml" target="_top" xlink:title="simpleanalyzer&#45;gui\l/src/GUI/GUICutRenderWindow.cpp">
<polygon fill="none" stroke="black" points="204,-1 204,-35 380,-35 380,-1 204,-1"/>
<text text-anchor="start" x="212" y="-22" font-family="Helvetica,sans-Serif" font-size="10.00">simpleanalyzer&#45;gui</text>
<text text-anchor="middle" x="292" y="-9" font-family="Helvetica,sans-Serif" font-size="10.00">/src/GUI/GUICutRenderWindow.cpp</text>
</a>
</g>
<!-- Node1&#45;&gt;Node3 -->
<g id="edge4" class="edge"><title>Node1&#45;&gt;Node3</title>
<path fill="none" stroke="midnightblue" d="M420.731,-69.2081C393.503,-58.3768 360.617,-45.2952 334.9,-35.0651"/>
<polygon fill="midnightblue" stroke="midnightblue" points="419.52,-72.4929 430.106,-72.937 422.107,-65.9886 419.52,-72.4929"/>
</g>
<!-- Node4 -->
<g id="node7" class="node"><title>Node4</title>
<a xlink:href="GUIMainWindow_8cpp_source.xhtml" target="_top" xlink:title="simpleanalyzer&#45;gui\l/src/GUI/GUIMainWindow.cpp">
<polygon fill="none" stroke="black" points="398,-1 398,-35 548,-35 548,-1 398,-1"/>
<text text-anchor="start" x="406" y="-22" font-family="Helvetica,sans-Serif" font-size="10.00">simpleanalyzer&#45;gui</text>
<text text-anchor="middle" x="473" y="-9" font-family="Helvetica,sans-Serif" font-size="10.00">/src/GUI/GUIMainWindow.cpp</text>
</a>
</g>
<!-- Node1&#45;&gt;Node4 -->
<g id="edge6" class="edge"><title>Node1&#45;&gt;Node4</title>
<path fill="none" stroke="midnightblue" d="M473,-62.7193C473,-53.572 473,-43.6255 473,-35.4407"/>
<polygon fill="midnightblue" stroke="midnightblue" points="469.5,-62.937 473,-72.937 476.5,-62.937 469.5,-62.937"/>
</g>
<!-- Node5 -->
<g id="node9" class="node"><title>Node5</title>
<a xlink:href="PropertiesBox_8cpp_source.xhtml" target="_top" xlink:title="simpleanalyzer&#45;gui\l/src/GUI/PropertiesBox.cpp">
<polygon fill="none" stroke="black" points="565.5,-1 565.5,-35 702.5,-35 702.5,-1 565.5,-1"/>
<text text-anchor="start" x="573.5" y="-22" font-family="Helvetica,sans-Serif" font-size="10.00">simpleanalyzer&#45;gui</text>
<text text-anchor="middle" x="634" y="-9" font-family="Helvetica,sans-Serif" font-size="10.00">/src/GUI/PropertiesBox.cpp</text>
</a>
</g>
<!-- Node1&#45;&gt;Node5 -->
<g id="edge8" class="edge"><title>Node1&#45;&gt;Node5</title>
<path fill="none" stroke="midnightblue" d="M520.447,-68.7812C544.478,-58.0346 573.265,-45.1612 595.84,-35.0651"/>
<polygon fill="midnightblue" stroke="midnightblue" points="518.855,-65.6595 511.155,-72.937 521.712,-72.0496 518.855,-65.6595"/>
</g>
<!-- Node6 -->
<g id="node11" class="node"><title>Node6</title>
<a xlink:href="ViewpropBox_8cpp_source.xhtml" target="_top" xlink:title="simpleanalyzer&#45;gui\l/src/GUI/ViewpropBox.cpp">
<polygon fill="none" stroke="black" points="720,-1 720,-35 854,-35 854,-1 720,-1"/>
<text text-anchor="start" x="728" y="-22" font-family="Helvetica,sans-Serif" font-size="10.00">simpleanalyzer&#45;gui</text>
<text text-anchor="middle" x="787" y="-9" font-family="Helvetica,sans-Serif" font-size="10.00">/src/GUI/ViewpropBox.cpp</text>
</a>
</g>
<!-- Node1&#45;&gt;Node6 -->
<g id="edge10" class="edge"><title>Node1&#45;&gt;Node6</title>
<path fill="none" stroke="midnightblue" d="M537.31,-75.5813C585.222,-64.7972 652.236,-49.6251 711,-36 713.906,-35.3262 716.874,-34.6353 719.871,-33.9352"/>
<polygon fill="midnightblue" stroke="midnightblue" points="536.374,-72.2044 527.386,-77.8138 537.91,-79.0337 536.374,-72.2044"/>
</g>
</g>
</svg>
