<?xml version="1.0" encoding="UTF-8" standalone="no"?>
<!DOCTYPE svg PUBLIC "-//W3C//DTD SVG 1.1//EN"
 "http://www.w3.org/Graphics/SVG/1.1/DTD/svg11.dtd">
<!-- Generated by graphviz version 2.26.3 (20100126.1600)
 -->
<!-- Title: /daten/Projekte/eclipse_workspace/csvtosd/main.cpp Pages: 1 -->
<svg width="396pt" height="102pt"
 viewBox="0.00 0.00 396.00 102.00" xmlns="http://www.w3.org/2000/svg" xmlns:xlink="http://www.w3.org/1999/xlink">
<g id="graph1" class="graph" transform="scale(1 1) rotate(0) translate(4 98)">
<title>/daten/Projekte/eclipse_workspace/csvtosd/main.cpp</title>
<!-- Node1 -->
<g id="node1" class="node"><title>Node1</title>
<polygon fill="#bfbfbf" stroke="black" points="118.5,-59 118.5,-93 267.5,-93 267.5,-59 118.5,-59"/>
<text text-anchor="start" x="126.5" y="-80" font-family="Helvetica,sans-Serif" font-size="10.00">/daten/Projekte/eclipse</text>
<text text-anchor="middle" x="193" y="-67" font-family="Helvetica,sans-Serif" font-size="10.00">_workspace/csvtosd/main.cpp</text>
</g>
<!-- Node2 -->
<g id="node3" class="node"><title>Node2</title>
<polygon fill="none" stroke="#bfbfbf" points="0,-0.5 0,-21.5 46,-21.5 46,-0.5 0,-0.5"/>
<text text-anchor="middle" x="23" y="-8.5" font-family="Helvetica,sans-Serif" font-size="10.00">stdio.h</text>
</g>
<!-- Node1&#45;&gt;Node2 -->
<g id="edge2" class="edge"><title>Node1&#45;&gt;Node2</title>
<path fill="none" stroke="midnightblue" d="M148.335,-58.922C119.374,-47.8488 82.2807,-33.6662 55.9818,-23.6107"/>
<polygon fill="midnightblue" stroke="midnightblue" points="57.061,-20.2762 46.4704,-19.974 54.5609,-26.8146 57.061,-20.2762"/>
</g>
<!-- Node3 -->
<g id="node5" class="node"><title>Node3</title>
<polygon fill="none" stroke="#bfbfbf" points="64,-0.5 64,-21.5 118,-21.5 118,-0.5 64,-0.5"/>
<text text-anchor="middle" x="91" y="-8.5" font-family="Helvetica,sans-Serif" font-size="10.00">iostream</text>
</g>
<!-- Node1&#45;&gt;Node3 -->
<g id="edge4" class="edge"><title>Node1&#45;&gt;Node3</title>
<path fill="none" stroke="midnightblue" d="M166.201,-58.922C150.852,-49.1412 131.697,-36.9344 116.561,-27.2887"/>
<polygon fill="midnightblue" stroke="midnightblue" points="118.04,-24.0809 107.725,-21.6584 114.278,-29.9841 118.04,-24.0809"/>
</g>
<!-- Node4 -->
<g id="node7" class="node"><title>Node4</title>
<polygon fill="none" stroke="#bfbfbf" points="136,-0.5 136,-21.5 186,-21.5 186,-0.5 136,-0.5"/>
<text text-anchor="middle" x="161" y="-8.5" font-family="Helvetica,sans-Serif" font-size="10.00">fstream</text>
</g>
<!-- Node1&#45;&gt;Node4 -->
<g id="edge6" class="edge"><title>Node1&#45;&gt;Node4</title>
<path fill="none" stroke="midnightblue" d="M184.592,-58.922C180.35,-50.3037 175.179,-39.8018 170.762,-30.8282"/>
<polygon fill="midnightblue" stroke="midnightblue" points="173.9,-29.2779 166.343,-21.8521 167.619,-32.3697 173.9,-29.2779"/>
</g>
<!-- Node5 -->
<g id="node9" class="node"><title>Node5</title>
<polygon fill="none" stroke="#bfbfbf" points="204,-0.5 204,-21.5 248,-21.5 248,-0.5 204,-0.5"/>
<text text-anchor="middle" x="226" y="-8.5" font-family="Helvetica,sans-Serif" font-size="10.00">vector</text>
</g>
<!-- Node1&#45;&gt;Node5 -->
<g id="edge8" class="edge"><title>Node1&#45;&gt;Node5</title>
<path fill="none" stroke="midnightblue" d="M201.67,-58.922C206.046,-50.3037 211.378,-39.8018 215.933,-30.8282"/>
<polygon fill="midnightblue" stroke="midnightblue" points="219.084,-32.3532 220.49,-21.8521 212.843,-29.1843 219.084,-32.3532"/>
</g>
<!-- Node6 -->
<g id="node11" class="node"><title>Node6</title>
<polygon fill="none" stroke="#bfbfbf" points="266,-0.5 266,-21.5 322,-21.5 322,-0.5 266,-0.5"/>
<text text-anchor="middle" x="294" y="-8.5" font-family="Helvetica,sans-Serif" font-size="10.00">algorithm</text>
</g>
<!-- Node1&#45;&gt;Node6 -->
<g id="edge10" class="edge"><title>Node1&#45;&gt;Node6</title>
<path fill="none" stroke="midnightblue" d="M219.537,-58.922C234.734,-49.1412 253.702,-36.9344 268.69,-27.2887"/>
<polygon fill="midnightblue" stroke="midnightblue" points="270.924,-30.0134 277.439,-21.6584 267.135,-24.127 270.924,-30.0134"/>
</g>
<!-- Node7 -->
<g id="node13" class="node"><title>Node7</title>
<polygon fill="none" stroke="#bfbfbf" points="339.5,-0.5 339.5,-21.5 388.5,-21.5 388.5,-0.5 339.5,-0.5"/>
<text text-anchor="middle" x="364" y="-8.5" font-family="Helvetica,sans-Serif" font-size="10.00">string.h</text>
</g>
<!-- Node1&#45;&gt;Node7 -->
<g id="edge12" class="edge"><title>Node1&#45;&gt;Node7</title>
<path fill="none" stroke="midnightblue" d="M237.928,-58.922C266.708,-47.9822 303.473,-34.0075 329.863,-23.9759"/>
<polygon fill="midnightblue" stroke="midnightblue" points="331.328,-27.1637 339.432,-20.3389 328.841,-20.6204 331.328,-27.1637"/>
</g>
</g>
</svg>
