<?xml version="1.0" encoding="UTF-8" standalone="no"?>
<!DOCTYPE svg PUBLIC "-//W3C//DTD SVG 1.1//EN"
 "http://www.w3.org/Graphics/SVG/1.1/DTD/svg11.dtd">
<!-- Generated by graphviz version 2.36.0 (20140111.2315)
 -->
<!-- Title: /daten/Projekte/eclipse_workspace/simpleanalyzer&#45;gui/src/DefaultValues.cpp Pages: 1 -->
<svg width="772pt" height="522pt"
 viewBox="0.00 0.00 772.00 522.00" xmlns="http://www.w3.org/2000/svg" xmlns:xlink="http://www.w3.org/1999/xlink">
<g id="graph0" class="graph" transform="scale(1 1) rotate(0) translate(4 518)">
<title>/daten/Projekte/eclipse_workspace/simpleanalyzer&#45;gui/src/DefaultValues.cpp</title>
<!-- Node1 -->
<g id="node1" class="node"><title>Node1</title>
<polygon fill="#bfbfbf" stroke="black" points="435.5,-472.5 435.5,-513.5 572.5,-513.5 572.5,-472.5 435.5,-472.5"/>
<text text-anchor="start" x="443.5" y="-501.5" font-family="Helvetica,sans-Serif" font-size="10.00">/daten/Projekte/eclipse</text>
<text text-anchor="start" x="443.5" y="-490.5" font-family="Helvetica,sans-Serif" font-size="10.00">_workspace/simpleanalyzer</text>
<text text-anchor="middle" x="504" y="-479.5" font-family="Helvetica,sans-Serif" font-size="10.00">&#45;gui/src/DefaultValues.cpp</text>
</g>
<!-- Node2 -->
<g id="node2" class="node"><title>Node2</title>
<g id="a_node2"><a xlink:href="DefaultValues_8h.xhtml" target="_top" xlink:title="DefaultValues.h">
<polygon fill="none" stroke="black" points="0,-360.5 0,-379.5 86,-379.5 86,-360.5 0,-360.5"/>
<text text-anchor="middle" x="43" y="-367.5" font-family="Helvetica,sans-Serif" font-size="10.00">DefaultValues.h</text>
</a>
</g>
</g>
<!-- Node1&#45;&gt;Node2 -->
<g id="edge1" class="edge"><title>Node1&#45;&gt;Node2</title>
<path fill="none" stroke="midnightblue" d="M435.481,-474.016C338.787,-448.636 165.193,-403.072 85.3222,-382.108"/>
<polygon fill="midnightblue" stroke="midnightblue" points="86.1627,-378.711 75.6017,-379.557 84.3855,-385.481 86.1627,-378.711"/>
</g>
<!-- Node12 -->
<g id="node12" class="node"><title>Node12</title>
<g id="a_node12"><a xlink:href="simpleanalyzer-gui_2src_2processing_2utils_8h.xhtml" target="_top" xlink:title="utils.h">
<polygon fill="none" stroke="black" points="420.5,-192.5 420.5,-211.5 463.5,-211.5 463.5,-192.5 420.5,-192.5"/>
<text text-anchor="middle" x="442" y="-199.5" font-family="Helvetica,sans-Serif" font-size="10.00">utils.h</text>
</a>
</g>
</g>
<!-- Node1&#45;&gt;Node12 -->
<g id="edge33" class="edge"><title>Node1&#45;&gt;Node12</title>
<path fill="none" stroke="midnightblue" d="M522.169,-472.277C541.09,-449.615 568,-410.449 568,-371 568,-371 568,-371 568,-313 568,-262.753 510.434,-230.176 473.122,-214.339"/>
<polygon fill="midnightblue" stroke="midnightblue" points="474.242,-211.016 463.66,-210.493 471.607,-217.501 474.242,-211.016"/>
</g>
<!-- Node17 -->
<g id="node17" class="node"><title>Node17</title>
<g id="a_node17"><a xlink:href="SimpleAnalyzerApp_8h.xhtml" target="_top" xlink:title="SimpleAnalyzerApp.h">
<polygon fill="none" stroke="black" points="353,-416.5 353,-435.5 463,-435.5 463,-416.5 353,-416.5"/>
<text text-anchor="middle" x="408" y="-423.5" font-family="Helvetica,sans-Serif" font-size="10.00">SimpleAnalyzerApp.h</text>
</a>
</g>
</g>
<!-- Node1&#45;&gt;Node17 -->
<g id="edge26" class="edge"><title>Node1&#45;&gt;Node17</title>
<path fill="none" stroke="midnightblue" d="M475.197,-472.498C460.478,-462.532 442.876,-450.614 429.38,-441.476"/>
<polygon fill="midnightblue" stroke="midnightblue" points="431.022,-438.361 420.779,-435.652 427.097,-444.157 431.022,-438.361"/>
</g>
<!-- Node18 -->
<g id="node18" class="node"><title>Node18</title>
<polygon fill="none" stroke="#bfbfbf" points="596,-416.5 596,-435.5 646,-435.5 646,-416.5 596,-416.5"/>
<text text-anchor="middle" x="621" y="-423.5" font-family="Helvetica,sans-Serif" font-size="10.00">fstream</text>
</g>
<!-- Node1&#45;&gt;Node18 -->
<g id="edge32" class="edge"><title>Node1&#45;&gt;Node18</title>
<path fill="none" stroke="midnightblue" d="M539.104,-472.498C557.56,-462.245 579.735,-449.925 596.353,-440.693"/>
<polygon fill="midnightblue" stroke="midnightblue" points="598.384,-443.569 605.426,-435.652 594.984,-437.449 598.384,-443.569"/>
</g>
<!-- Node3 -->
<g id="node3" class="node"><title>Node3</title>
<polygon fill="none" stroke="#bfbfbf" points="22.5,-304.5 22.5,-323.5 63.5,-323.5 63.5,-304.5 22.5,-304.5"/>
<text text-anchor="middle" x="43" y="-311.5" font-family="Helvetica,sans-Serif" font-size="10.00">string</text>
</g>
<!-- Node2&#45;&gt;Node3 -->
<g id="edge2" class="edge"><title>Node2&#45;&gt;Node3</title>
<path fill="none" stroke="midnightblue" d="M43,-360.083C43,-353.006 43,-342.861 43,-333.986"/>
<polygon fill="midnightblue" stroke="midnightblue" points="46.5001,-333.751 43,-323.751 39.5001,-333.751 46.5001,-333.751"/>
</g>
<!-- Node4 -->
<g id="node4" class="node"><title>Node4</title>
<g id="a_node4"><a xlink:href="simpleanalyzer-gui_2src_2GUI_2Renderer_8h.xhtml" target="_top" xlink:title="GUI/Renderer.h">
<polygon fill="none" stroke="black" points="152,-304.5 152,-323.5 238,-323.5 238,-304.5 152,-304.5"/>
<text text-anchor="middle" x="195" y="-311.5" font-family="Helvetica,sans-Serif" font-size="10.00">GUI/Renderer.h</text>
</a>
</g>
</g>
<!-- Node2&#45;&gt;Node4 -->
<g id="edge3" class="edge"><title>Node2&#45;&gt;Node4</title>
<path fill="none" stroke="midnightblue" d="M67.0849,-360.444C92.5447,-351.399 132.894,-337.064 161.459,-326.916"/>
<polygon fill="midnightblue" stroke="midnightblue" points="162.777,-330.162 171.028,-323.516 160.433,-323.566 162.777,-330.162"/>
</g>
<!-- Node5 -->
<g id="node5" class="node"><title>Node5</title>
<polygon fill="none" stroke="#bfbfbf" points="196.5,-125 196.5,-155 285.5,-155 285.5,-125 196.5,-125"/>
<text text-anchor="start" x="204.5" y="-143" font-family="Helvetica,sans-Serif" font-size="10.00">../libraries/tetgen</text>
<text text-anchor="middle" x="241" y="-132" font-family="Helvetica,sans-Serif" font-size="10.00">/tetgen.h</text>
</g>
<!-- Node4&#45;&gt;Node5 -->
<g id="edge4" class="edge"><title>Node4&#45;&gt;Node5</title>
<path fill="none" stroke="midnightblue" d="M197.344,-304.234C204.172,-278.704 224.215,-203.761 234.599,-164.934"/>
<polygon fill="midnightblue" stroke="midnightblue" points="238.05,-165.576 237.253,-155.012 231.288,-163.768 238.05,-165.576"/>
</g>
<!-- Node6 -->
<g id="node6" class="node"><title>Node6</title>
<polygon fill="none" stroke="#bfbfbf" points="135,-130.5 135,-149.5 179,-149.5 179,-130.5 135,-130.5"/>
<text text-anchor="middle" x="157" y="-137.5" font-family="Helvetica,sans-Serif" font-size="10.00">vector</text>
</g>
<!-- Node4&#45;&gt;Node6 -->
<g id="edge5" class="edge"><title>Node4&#45;&gt;Node6</title>
<path fill="none" stroke="midnightblue" d="M192.02,-304.456C188.96,-295.465 184.205,-280.861 181,-268 171.497,-229.86 163.762,-184.452 159.825,-159.58"/>
<polygon fill="midnightblue" stroke="midnightblue" points="163.283,-159.042 158.29,-149.698 156.366,-160.116 163.283,-159.042"/>
</g>
<!-- Node7 -->
<g id="node7" class="node"><title>Node7</title>
<g id="a_node7"><a xlink:href="GeometryClasses_8h.xhtml" target="_top" xlink:title="../libraries/interpolate\l/GeometryClasses.h">
<polygon fill="none" stroke="black" points="344.5,-57 344.5,-87 451.5,-87 451.5,-57 344.5,-57"/>
<text text-anchor="start" x="352.5" y="-75" font-family="Helvetica,sans-Serif" font-size="10.00">../libraries/interpolate</text>
<text text-anchor="middle" x="398" y="-64" font-family="Helvetica,sans-Serif" font-size="10.00">/GeometryClasses.h</text>
</a>
</g>
</g>
<!-- Node4&#45;&gt;Node7 -->
<g id="edge6" class="edge"><title>Node4&#45;&gt;Node7</title>
<path fill="none" stroke="midnightblue" d="M186.567,-304.456C159.305,-275.82 78.0377,-181.791 126,-124 151.918,-92.7702 262.085,-80.5485 334.018,-75.8477"/>
<polygon fill="midnightblue" stroke="midnightblue" points="334.574,-79.3199 344.338,-75.2073 334.141,-72.3334 334.574,-79.3199"/>
</g>
<!-- Node9 -->
<g id="node9" class="node"><title>Node9</title>
<g id="a_node9"><a xlink:href="ObjectData_8h.xhtml" target="_top" xlink:title="../processing/ObjectData.h">
<polygon fill="none" stroke="black" points="242,-248.5 242,-267.5 376,-267.5 376,-248.5 242,-248.5"/>
<text text-anchor="middle" x="309" y="-255.5" font-family="Helvetica,sans-Serif" font-size="10.00">../processing/ObjectData.h</text>
</a>
</g>
</g>
<!-- Node4&#45;&gt;Node9 -->
<g id="edge8" class="edge"><title>Node4&#45;&gt;Node9</title>
<path fill="none" stroke="midnightblue" d="M213.064,-304.444C231.575,-295.675 260.581,-281.935 281.855,-271.858"/>
<polygon fill="midnightblue" stroke="midnightblue" points="283.482,-274.96 291.021,-267.516 280.485,-268.634 283.482,-274.96"/>
</g>
<!-- Node4&#45;&gt;Node12 -->
<g id="edge24" class="edge"><title>Node4&#45;&gt;Node12</title>
<path fill="none" stroke="midnightblue" d="M238.195,-310.287C278.658,-306.081 339.544,-295.354 385,-268 404.622,-256.192 421.102,-235.37 431.215,-220.473"/>
<polygon fill="midnightblue" stroke="midnightblue" points="434.405,-221.988 436.911,-211.693 428.532,-218.178 434.405,-221.988"/>
</g>
<!-- Node16 -->
<g id="node16" class="node"><title>Node16</title>
<polygon fill="none" stroke="#bfbfbf" points="711.5,-130.5 711.5,-149.5 764.5,-149.5 764.5,-130.5 711.5,-130.5"/>
<text text-anchor="middle" x="738" y="-137.5" font-family="Helvetica,sans-Serif" font-size="10.00">wx/wx.h</text>
</g>
<!-- Node4&#45;&gt;Node16 -->
<g id="edge25" class="edge"><title>Node4&#45;&gt;Node16</title>
<path fill="none" stroke="midnightblue" d="M238.021,-309.396C282.817,-304.434 354.237,-293.074 411,-268 463.696,-244.722 463.4,-215.493 516,-192 584.93,-161.214 608.629,-173.772 682,-156 688.291,-154.476 694.956,-152.771 701.409,-151.073"/>
<polygon fill="midnightblue" stroke="midnightblue" points="702.532,-154.395 711.292,-148.435 700.727,-147.632 702.532,-154.395"/>
</g>
<!-- Node8 -->
<g id="node8" class="node"><title>Node8</title>
<polygon fill="none" stroke="#bfbfbf" points="534,-0.5 534,-19.5 588,-19.5 588,-0.5 534,-0.5"/>
<text text-anchor="middle" x="561" y="-7.5" font-family="Helvetica,sans-Serif" font-size="10.00">iostream</text>
</g>
<!-- Node7&#45;&gt;Node8 -->
<g id="edge7" class="edge"><title>Node7&#45;&gt;Node8</title>
<path fill="none" stroke="midnightblue" d="M436.216,-56.9327C464.085,-46.6744 501.465,-32.9148 528.028,-23.1369"/>
<polygon fill="midnightblue" stroke="midnightblue" points="529.461,-26.339 537.637,-19.6 527.043,-19.7699 529.461,-26.339"/>
</g>
<!-- Node9&#45;&gt;Node5 -->
<g id="edge9" class="edge"><title>Node9&#45;&gt;Node5</title>
<path fill="none" stroke="midnightblue" d="M303.889,-248.281C293.491,-230.543 269.577,-189.749 254.417,-163.888"/>
<polygon fill="midnightblue" stroke="midnightblue" points="257.346,-161.963 249.269,-155.106 251.307,-165.503 257.346,-161.963"/>
</g>
<!-- Node9&#45;&gt;Node6 -->
<g id="edge10" class="edge"><title>Node9&#45;&gt;Node6</title>
<path fill="none" stroke="midnightblue" d="M297.575,-248.281C271.701,-228.535 208.389,-180.218 176.307,-155.735"/>
<polygon fill="midnightblue" stroke="midnightblue" points="178.217,-152.789 168.144,-149.505 173.97,-158.354 178.217,-152.789"/>
</g>
<!-- Node10 -->
<g id="node10" class="node"><title>Node10</title>
<g id="a_node10"><a xlink:href="Interpolator_8h.xhtml" target="_top" xlink:title="../libraries/interpolate\l/Interpolator.h">
<polygon fill="none" stroke="black" points="303.5,-125 303.5,-155 410.5,-155 410.5,-125 303.5,-125"/>
<text text-anchor="start" x="311.5" y="-143" font-family="Helvetica,sans-Serif" font-size="10.00">../libraries/interpolate</text>
<text text-anchor="middle" x="357" y="-132" font-family="Helvetica,sans-Serif" font-size="10.00">/Interpolator.h</text>
</a>
</g>
</g>
<!-- Node9&#45;&gt;Node10 -->
<g id="edge11" class="edge"><title>Node9&#45;&gt;Node10</title>
<path fill="none" stroke="midnightblue" d="M310.847,-248.367C313.705,-235.705 319.745,-211.486 328,-192 332.026,-182.495 337.41,-172.523 342.445,-163.944"/>
<polygon fill="midnightblue" stroke="midnightblue" points="345.511,-165.637 347.69,-155.268 339.521,-162.014 345.511,-165.637"/>
</g>
<!-- Node11 -->
<g id="node11" class="node"><title>Node11</title>
<polygon fill="none" stroke="#bfbfbf" points="337.5,-192.5 337.5,-211.5 402.5,-211.5 402.5,-192.5 337.5,-192.5"/>
<text text-anchor="middle" x="370" y="-199.5" font-family="Helvetica,sans-Serif" font-size="10.00">wx/string.h</text>
</g>
<!-- Node9&#45;&gt;Node11 -->
<g id="edge13" class="edge"><title>Node9&#45;&gt;Node11</title>
<path fill="none" stroke="midnightblue" d="M318.801,-248.324C327.818,-240.341 341.406,-228.313 352.318,-218.653"/>
<polygon fill="midnightblue" stroke="midnightblue" points="354.853,-221.083 360.021,-211.834 350.213,-215.842 354.853,-221.083"/>
</g>
<!-- Node9&#45;&gt;Node12 -->
<g id="edge14" class="edge"><title>Node9&#45;&gt;Node12</title>
<path fill="none" stroke="midnightblue" d="M330.074,-248.444C352.06,-239.517 386.734,-225.439 411.664,-215.317"/>
<polygon fill="midnightblue" stroke="midnightblue" points="413.076,-218.521 421.024,-211.516 410.442,-212.035 413.076,-218.521"/>
</g>
<!-- Node10&#45;&gt;Node7 -->
<g id="edge12" class="edge"><title>Node10&#45;&gt;Node7</title>
<path fill="none" stroke="midnightblue" d="M365.896,-124.679C371.108,-116.29 377.811,-105.499 383.744,-95.9495"/>
<polygon fill="midnightblue" stroke="midnightblue" points="386.817,-97.6344 389.121,-87.2931 380.871,-93.9406 386.817,-97.6344"/>
</g>
<!-- Node12&#45;&gt;Node5 -->
<g id="edge21" class="edge"><title>Node12&#45;&gt;Node5</title>
<path fill="none" stroke="midnightblue" d="M420.489,-194.579C390.862,-185.735 336.493,-169.505 295.328,-157.217"/>
<polygon fill="midnightblue" stroke="midnightblue" points="296.285,-153.851 285.702,-154.344 294.283,-160.558 296.285,-153.851"/>
</g>
<!-- Node12&#45;&gt;Node6 -->
<g id="edge16" class="edge"><title>Node12&#45;&gt;Node6</title>
<path fill="none" stroke="midnightblue" d="M420.408,-194.363C417.268,-193.505 414.062,-192.688 411,-192 312.618,-169.901 282.98,-186.904 187,-156 185.088,-155.384 183.146,-154.662 181.218,-153.873"/>
<polygon fill="midnightblue" stroke="midnightblue" points="182.429,-150.577 171.883,-149.559 179.492,-156.932 182.429,-150.577"/>
</g>
<!-- Node12&#45;&gt;Node7 -->
<g id="edge22" class="edge"><title>Node12&#45;&gt;Node7</title>
<path fill="none" stroke="midnightblue" d="M439.725,-192.364C435.88,-178.025 427.665,-148.461 419,-124 415.783,-114.918 411.85,-105.096 408.262,-96.5188"/>
<polygon fill="midnightblue" stroke="midnightblue" points="411.407,-94.9718 404.271,-87.1411 404.966,-97.7131 411.407,-94.9718"/>
</g>
<!-- Node12&#45;&gt;Node8 -->
<g id="edge15" class="edge"><title>Node12&#45;&gt;Node8</title>
<path fill="none" stroke="midnightblue" d="M463.658,-195.389C468.375,-194.222 473.346,-193.034 478,-192 559.771,-173.836 609.726,-220.64 663,-156 700.58,-110.402 624.432,-51.6483 583.997,-25.1139"/>
<polygon fill="midnightblue" stroke="midnightblue" points="585.807,-22.1171 575.5,-19.666 582.029,-28.0099 585.807,-22.1171"/>
</g>
<!-- Node12&#45;&gt;Node10 -->
<g id="edge23" class="edge"><title>Node12&#45;&gt;Node10</title>
<path fill="none" stroke="midnightblue" d="M429.822,-192.403C418.31,-184.277 400.604,-171.779 385.534,-161.142"/>
<polygon fill="midnightblue" stroke="midnightblue" points="387.221,-158.048 377.033,-155.141 383.184,-163.767 387.221,-158.048"/>
</g>
<!-- Node13 -->
<g id="node13" class="node"><title>Node13</title>
<polygon fill="none" stroke="#bfbfbf" points="537,-130.5 537,-149.5 593,-149.5 593,-130.5 537,-130.5"/>
<text text-anchor="middle" x="565" y="-137.5" font-family="Helvetica,sans-Serif" font-size="10.00">algorithm</text>
</g>
<!-- Node12&#45;&gt;Node13 -->
<g id="edge17" class="edge"><title>Node12&#45;&gt;Node13</title>
<path fill="none" stroke="midnightblue" d="M459.623,-192.403C480.174,-182.379 514.364,-165.701 538.207,-154.07"/>
<polygon fill="midnightblue" stroke="midnightblue" points="539.957,-157.111 547.41,-149.581 536.888,-150.819 539.957,-157.111"/>
</g>
<!-- Node14 -->
<g id="node14" class="node"><title>Node14</title>
<polygon fill="none" stroke="#bfbfbf" points="611,-130.5 611,-149.5 655,-149.5 655,-130.5 611,-130.5"/>
<text text-anchor="middle" x="633" y="-137.5" font-family="Helvetica,sans-Serif" font-size="10.00">cmath</text>
</g>
<!-- Node12&#45;&gt;Node14 -->
<g id="edge18" class="edge"><title>Node12&#45;&gt;Node14</title>
<path fill="none" stroke="midnightblue" d="M463.753,-195.314C501.04,-185.488 575.599,-165.476 601,-156 602.854,-155.308 604.749,-154.553 606.644,-153.761"/>
<polygon fill="midnightblue" stroke="midnightblue" points="608.236,-156.883 615.948,-149.619 605.389,-150.489 608.236,-156.883"/>
</g>
<!-- Node15 -->
<g id="node15" class="node"><title>Node15</title>
<polygon fill="none" stroke="#bfbfbf" points="467,-130.5 467,-149.5 519,-149.5 519,-130.5 467,-130.5"/>
<text text-anchor="middle" x="493" y="-137.5" font-family="Helvetica,sans-Serif" font-size="10.00">sstream</text>
</g>
<!-- Node12&#45;&gt;Node15 -->
<g id="edge19" class="edge"><title>Node12&#45;&gt;Node15</title>
<path fill="none" stroke="midnightblue" d="M449.307,-192.403C457.033,-183.314 469.408,-168.756 479.018,-157.449"/>
<polygon fill="midnightblue" stroke="midnightblue" points="481.897,-159.467 485.706,-149.581 476.563,-154.933 481.897,-159.467"/>
</g>
<!-- Node12&#45;&gt;Node16 -->
<g id="edge20" class="edge"><title>Node12&#45;&gt;Node16</title>
<path fill="none" stroke="midnightblue" d="M463.636,-195.285C468.354,-194.125 473.331,-192.966 478,-192 574.595,-172.021 601.596,-181.056 697,-156 700.402,-155.107 703.918,-154.044 707.395,-152.903"/>
<polygon fill="midnightblue" stroke="midnightblue" points="708.679,-156.162 716.962,-149.556 706.367,-149.555 708.679,-156.162"/>
</g>
<!-- Node17&#45;&gt;Node2 -->
<g id="edge31" class="edge"><title>Node17&#45;&gt;Node2</title>
<path fill="none" stroke="midnightblue" d="M352.89,-417.144C291.242,-408.309 188.421,-393.439 100,-380 98.7464,-379.809 97.4775,-379.616 96.1978,-379.42"/>
<polygon fill="midnightblue" stroke="midnightblue" points="96.6691,-375.951 86.2518,-377.883 95.6,-382.869 96.6691,-375.951"/>
</g>
<!-- Node17&#45;&gt;Node6 -->
<g id="edge28" class="edge"><title>Node17&#45;&gt;Node6</title>
<path fill="none" stroke="midnightblue" d="M352.784,-421.611C289.984,-414.456 190.071,-392.315 143,-324 107.938,-273.114 134.034,-194.302 148.748,-159.079"/>
<polygon fill="midnightblue" stroke="midnightblue" points="152.081,-160.192 152.869,-149.627 145.664,-157.395 152.081,-160.192"/>
</g>
<!-- Node17&#45;&gt;Node9 -->
<g id="edge30" class="edge"><title>Node17&#45;&gt;Node9</title>
<path fill="none" stroke="midnightblue" d="M402.677,-416.075C386.891,-389.606 340.137,-311.209 319.264,-276.21"/>
<polygon fill="midnightblue" stroke="midnightblue" points="322.238,-274.364 314.11,-267.568 316.226,-277.949 322.238,-274.364"/>
</g>
<!-- Node17&#45;&gt;Node12 -->
<g id="edge29" class="edge"><title>Node17&#45;&gt;Node12</title>
<path fill="none" stroke="midnightblue" d="M409.333,-416.297C414.336,-383.633 432.066,-267.866 439.097,-221.957"/>
<polygon fill="midnightblue" stroke="midnightblue" points="442.585,-222.298 440.639,-211.884 435.666,-221.239 442.585,-222.298"/>
</g>
<!-- Node17&#45;&gt;Node16 -->
<g id="edge27" class="edge"><title>Node17&#45;&gt;Node16</title>
<path fill="none" stroke="midnightblue" d="M430.947,-416.485C466.288,-401.711 530,-367.76 530,-315 530,-315 530,-315 530,-257 530,-218.109 642.316,-173.737 701.881,-152.94"/>
<polygon fill="midnightblue" stroke="midnightblue" points="703.342,-156.139 711.657,-149.573 701.062,-149.52 703.342,-156.139"/>
</g>
</g>
</svg>
