<?xml version="1.0" encoding="UTF-8" standalone="no"?>
<!DOCTYPE svg PUBLIC "-//W3C//DTD SVG 1.1//EN"
 "http://www.w3.org/Graphics/SVG/1.1/DTD/svg11.dtd">
<!-- Generated by graphviz version 2.36.0 (20140111.2315)
 -->
<!-- Title: /daten/Projekte/eclipse_workspace/simpleanalyzer&#45;gui/src/DefaultValues.h Pages: 1 -->
<!--zoomable 410 -->
<svg id="main" version="1.1" xmlns="http://www.w3.org/2000/svg" xmlns:xlink="http://www.w3.org/1999/xlink" xml:space="preserve" onload="init(evt)">
<style type="text/css"><![CDATA[
.edge:hover path { stroke: red; }
.edge:hover polygon { stroke: red; fill: red; }
]]></style>
<script type="text/javascript"><![CDATA[
var edges = document.getElementsByTagName('g');
if (edges && edges.length) {
  for (var i=0;i<edges.length;i++) {
    if (edges[i].id.substr(0,4)=='edge') {
      edges[i].setAttribute('class','edge');
    }
  }
}
]]></script>
        <defs>
                <circle id="rim" cx="0" cy="0" r="7"/>
                <circle id="rim2" cx="0" cy="0" r="3.5"/>
                <g id="zoomPlus">
                        <use xlink:href="#rim" fill="#404040">
                                <set attributeName="fill" to="#808080" begin="zoomplus.mouseover" end="zoomplus.mouseout"/>
                        </use>
                        <path d="M-4,0h8M0,-4v8" fill="none" stroke="white" stroke-width="1.5" pointer-events="none"/>
                </g>
                <g id="zoomMin">
                        <use xlink:href="#rim" fill="#404040">
                                <set attributeName="fill" to="#808080" begin="zoomminus.mouseover" end="zoomminus.mouseout"/>
                        </use>
                        <path d="M-4,0h8" fill="none" stroke="white" stroke-width="1.5" pointer-events="none"/>
                </g>
                <g id="dirArrow">
                        <path fill="none" stroke="white" stroke-width="1.5" d="M0,-3.0v7 M-2.5,-0.5L0,-3.0L2.5,-0.5"/>
                </g>
               <g id="resetDef">
                       <use xlink:href="#rim2" fill="#404040">
                               <set attributeName="fill" to="#808080" begin="reset.mouseover" end="reset.mouseout"/>
                       </use>
               </g>
        </defs>

<script type="text/javascript">
var viewWidth = 651;
var viewHeight = 410;
var sectionId = 'dynsection-0';
</script>
<script xlink:href="svgpan.js"/>
<svg id="graph" class="graph">
<g id="viewport">
<title>/daten/Projekte/eclipse_workspace/simpleanalyzer&#45;gui/src/DefaultValues.h</title>
<!-- Node1 -->
<g id="node1" class="node"><title>Node1</title>
<polygon fill="#bfbfbf" stroke="black" points="177.5,-360.5 177.5,-401.5 314.5,-401.5 314.5,-360.5 177.5,-360.5"/>
<text text-anchor="start" x="185.5" y="-389.5" font-family="Helvetica,sans-Serif" font-size="10.00">/daten/Projekte/eclipse</text>
<text text-anchor="start" x="185.5" y="-378.5" font-family="Helvetica,sans-Serif" font-size="10.00">_workspace/simpleanalyzer</text>
<text text-anchor="middle" x="246" y="-367.5" font-family="Helvetica,sans-Serif" font-size="10.00">&#45;gui/src/DefaultValues.h</text>
</g>
<!-- Node2 -->
<g id="node2" class="node"><title>Node2</title>
<polygon fill="none" stroke="#bfbfbf" points="184.5,-304.5 184.5,-323.5 225.5,-323.5 225.5,-304.5 184.5,-304.5"/>
<text text-anchor="middle" x="205" y="-311.5" font-family="Helvetica,sans-Serif" font-size="10.00">string</text>
</g>
<!-- Node1&#45;&gt;Node2 -->
<g id="edge1" class="edge"><title>Node1&#45;&gt;Node2</title>
<path fill="none" stroke="midnightblue" d="M233.699,-360.498C228.017,-351.49 221.329,-340.888 215.84,-332.185"/>
<polygon fill="midnightblue" stroke="midnightblue" points="218.753,-330.243 210.458,-323.652 212.833,-333.978 218.753,-330.243"/>
</g>
<!-- Node3 -->
<g id="node3" class="node"><title>Node3</title>
<g id="a_node3"><a xlink:href="simpleanalyzer-gui_2src_2GUI_2Renderer_8h.xhtml" target="_top" xlink:title="GUI/Renderer.h">
<polygon fill="none" stroke="black" points="244,-304.5 244,-323.5 330,-323.5 330,-304.5 244,-304.5"/>
<text text-anchor="middle" x="287" y="-311.5" font-family="Helvetica,sans-Serif" font-size="10.00">GUI/Renderer.h</text>
</a>
</g>
</g>
<!-- Node1&#45;&gt;Node3 -->
<g id="edge2" class="edge"><title>Node1&#45;&gt;Node3</title>
<path fill="none" stroke="midnightblue" d="M258.301,-360.498C263.983,-351.49 270.671,-340.888 276.16,-332.185"/>
<polygon fill="midnightblue" stroke="midnightblue" points="279.167,-333.978 281.542,-323.652 273.247,-330.243 279.167,-333.978"/>
</g>
<!-- Node4 -->
<g id="node4" class="node"><title>Node4</title>
<polygon fill="none" stroke="#bfbfbf" points="-0.5,-125 -0.5,-155 88.5,-155 88.5,-125 -0.5,-125"/>
<text text-anchor="start" x="7.5" y="-143" font-family="Helvetica,sans-Serif" font-size="10.00">../libraries/tetgen</text>
<text text-anchor="middle" x="44" y="-132" font-family="Helvetica,sans-Serif" font-size="10.00">/tetgen.h</text>
</g>
<!-- Node3&#45;&gt;Node4 -->
<g id="edge3" class="edge"><title>Node3&#45;&gt;Node4</title>
<path fill="none" stroke="midnightblue" d="M251.673,-304.44C215.31,-295.184 161.562,-280.127 144,-268 104.165,-240.493 72.6094,-192.393 56.2623,-163.941"/>
<polygon fill="midnightblue" stroke="midnightblue" points="59.2525,-162.117 51.3116,-155.103 53.1455,-165.538 59.2525,-162.117"/>
</g>
<!-- Node5 -->
<g id="node5" class="node"><title>Node5</title>
<polygon fill="none" stroke="#bfbfbf" points="106,-130.5 106,-149.5 150,-149.5 150,-130.5 106,-130.5"/>
<text text-anchor="middle" x="128" y="-137.5" font-family="Helvetica,sans-Serif" font-size="10.00">vector</text>
</g>
<!-- Node3&#45;&gt;Node5 -->
<g id="edge4" class="edge"><title>Node3&#45;&gt;Node5</title>
<path fill="none" stroke="midnightblue" d="M252.117,-304.464C219.339,-295.772 173.504,-281.667 161,-268 133.282,-237.704 128.236,-187.11 127.677,-159.821"/>
<polygon fill="midnightblue" stroke="midnightblue" points="131.177,-159.673 127.66,-149.679 124.177,-159.685 131.177,-159.673"/>
</g>
<!-- Node6 -->
<g id="node6" class="node"><title>Node6</title>
<g id="a_node6"><a xlink:href="GeometryClasses_8h.xhtml" target="_top" xlink:title="../libraries/interpolate\l/GeometryClasses.h">
<polygon fill="none" stroke="black" points="330.5,-57 330.5,-87 437.5,-87 437.5,-57 330.5,-57"/>
<text text-anchor="start" x="338.5" y="-75" font-family="Helvetica,sans-Serif" font-size="10.00">../libraries/interpolate</text>
<text text-anchor="middle" x="384" y="-64" font-family="Helvetica,sans-Serif" font-size="10.00">/GeometryClasses.h</text>
</a>
</g>
</g>
<!-- Node3&#45;&gt;Node6 -->
<g id="edge5" class="edge"><title>Node3&#45;&gt;Node6</title>
<path fill="none" stroke="midnightblue" d="M330.167,-308.384C407.486,-297.526 567.961,-262.636 637,-156 644.729,-144.061 646.008,-135.005 637,-124 613.514,-95.3076 514.651,-82.3984 447.69,-76.857"/>
<polygon fill="midnightblue" stroke="midnightblue" points="447.89,-73.362 437.644,-76.0608 447.336,-80.3401 447.89,-73.362"/>
</g>
<!-- Node8 -->
<g id="node8" class="node"><title>Node8</title>
<g id="a_node8"><a xlink:href="ObjectData_8h.xhtml" target="_top" xlink:title="../processing/ObjectData.h">
<polygon fill="none" stroke="black" points="170,-248.5 170,-267.5 304,-267.5 304,-248.5 170,-248.5"/>
<text text-anchor="middle" x="237" y="-255.5" font-family="Helvetica,sans-Serif" font-size="10.00">../processing/ObjectData.h</text>
</a>
</g>
</g>
<!-- Node3&#45;&gt;Node8 -->
<g id="edge7" class="edge"><title>Node3&#45;&gt;Node8</title>
<path fill="none" stroke="midnightblue" d="M278.744,-304.083C271.535,-296.298 260.89,-284.801 252.154,-275.367"/>
<polygon fill="midnightblue" stroke="midnightblue" points="254.465,-272.711 245.103,-267.751 249.329,-277.467 254.465,-272.711"/>
</g>
<!-- Node11 -->
<g id="node11" class="node"><title>Node11</title>
<g id="a_node11"><a xlink:href="simpleanalyzer-gui_2src_2processing_2utils_8h.xhtml" target="_top" xlink:title="utils.h">
<polygon fill="none" stroke="black" points="322.5,-192.5 322.5,-211.5 365.5,-211.5 365.5,-192.5 322.5,-192.5"/>
<text text-anchor="middle" x="344" y="-199.5" font-family="Helvetica,sans-Serif" font-size="10.00">utils.h</text>
</a>
</g>
</g>
<!-- Node3&#45;&gt;Node11 -->
<g id="edge23" class="edge"><title>Node3&#45;&gt;Node11</title>
<path fill="none" stroke="midnightblue" d="M292.189,-304.486C297.589,-295.519 306.192,-280.935 313,-268 321.27,-252.286 329.906,-234.001 335.956,-220.834"/>
<polygon fill="midnightblue" stroke="midnightblue" points="339.238,-222.071 340.197,-211.519 332.868,-219.17 339.238,-222.071"/>
</g>
<!-- Node15 -->
<g id="node15" class="node"><title>Node15</title>
<polygon fill="none" stroke="#bfbfbf" points="575.5,-130.5 575.5,-149.5 628.5,-149.5 628.5,-130.5 575.5,-130.5"/>
<text text-anchor="middle" x="602" y="-137.5" font-family="Helvetica,sans-Serif" font-size="10.00">wx/wx.h</text>
</g>
<!-- Node3&#45;&gt;Node15 -->
<g id="edge24" class="edge"><title>Node3&#45;&gt;Node15</title>
<path fill="none" stroke="midnightblue" d="M302.621,-304.47C353.527,-276.674 514.927,-188.545 577.177,-154.554"/>
<polygon fill="midnightblue" stroke="midnightblue" points="579.185,-157.445 586.285,-149.581 575.831,-151.302 579.185,-157.445"/>
</g>
<!-- Node7 -->
<g id="node7" class="node"><title>Node7</title>
<polygon fill="none" stroke="#bfbfbf" points="438,-0.5 438,-19.5 492,-19.5 492,-0.5 438,-0.5"/>
<text text-anchor="middle" x="465" y="-7.5" font-family="Helvetica,sans-Serif" font-size="10.00">iostream</text>
</g>
<!-- Node6&#45;&gt;Node7 -->
<g id="edge6" class="edge"><title>Node6&#45;&gt;Node7</title>
<path fill="none" stroke="midnightblue" d="M403.196,-56.7808C415.816,-47.4329 432.293,-35.2273 445.061,-25.77"/>
<polygon fill="midnightblue" stroke="midnightblue" points="447.262,-28.4953 453.214,-19.7305 443.095,-22.8704 447.262,-28.4953"/>
</g>
<!-- Node8&#45;&gt;Node4 -->
<g id="edge8" class="edge"><title>Node8&#45;&gt;Node4</title>
<path fill="none" stroke="midnightblue" d="M222.808,-248.47C192.087,-230.006 118.769,-185.939 76.1684,-160.334"/>
<polygon fill="midnightblue" stroke="midnightblue" points="77.9446,-157.318 67.5705,-155.167 74.3385,-163.318 77.9446,-157.318"/>
</g>
<!-- Node8&#45;&gt;Node5 -->
<g id="edge9" class="edge"><title>Node8&#45;&gt;Node5</title>
<path fill="none" stroke="midnightblue" d="M227.646,-248.222C218.215,-239.286 203.329,-224.943 191,-212 173.708,-193.846 154.718,-172.193 142.156,-157.612"/>
<polygon fill="midnightblue" stroke="midnightblue" points="144.73,-155.237 135.564,-149.924 139.416,-159.794 144.73,-155.237"/>
</g>
<!-- Node9 -->
<g id="node9" class="node"><title>Node9</title>
<g id="a_node9"><a xlink:href="Interpolator_8h.xhtml" target="_top" xlink:title="../libraries/interpolate\l/Interpolator.h">
<polygon fill="none" stroke="black" points="167.5,-125 167.5,-155 274.5,-155 274.5,-125 167.5,-125"/>
<text text-anchor="start" x="175.5" y="-143" font-family="Helvetica,sans-Serif" font-size="10.00">../libraries/interpolate</text>
<text text-anchor="middle" x="221" y="-132" font-family="Helvetica,sans-Serif" font-size="10.00">/Interpolator.h</text>
</a>
</g>
</g>
<!-- Node8&#45;&gt;Node9 -->
<g id="edge10" class="edge"><title>Node8&#45;&gt;Node9</title>
<path fill="none" stroke="midnightblue" d="M247.732,-248.498C261.627,-236.385 283.05,-213.268 274,-192 268.961,-180.158 259.676,-169.736 250.268,-161.451"/>
<polygon fill="midnightblue" stroke="midnightblue" points="252.376,-158.653 242.427,-155.01 247.933,-164.062 252.376,-158.653"/>
</g>
<!-- Node10 -->
<g id="node10" class="node"><title>Node10</title>
<polygon fill="none" stroke="#bfbfbf" points="200.5,-192.5 200.5,-211.5 265.5,-211.5 265.5,-192.5 200.5,-192.5"/>
<text text-anchor="middle" x="233" y="-199.5" font-family="Helvetica,sans-Serif" font-size="10.00">wx/string.h</text>
</g>
<!-- Node8&#45;&gt;Node10 -->
<g id="edge12" class="edge"><title>Node8&#45;&gt;Node10</title>
<path fill="none" stroke="midnightblue" d="M236.339,-248.083C235.815,-241.006 235.064,-230.861 234.406,-221.986"/>
<polygon fill="midnightblue" stroke="midnightblue" points="237.877,-221.465 233.648,-211.751 230.897,-221.982 237.877,-221.465"/>
</g>
<!-- Node8&#45;&gt;Node11 -->
<g id="edge13" class="edge"><title>Node8&#45;&gt;Node11</title>
<path fill="none" stroke="midnightblue" d="M254.191,-248.324C271.351,-239.664 297.946,-226.242 317.747,-216.249"/>
<polygon fill="midnightblue" stroke="midnightblue" points="319.501,-219.285 326.851,-211.655 316.347,-213.035 319.501,-219.285"/>
</g>
<!-- Node9&#45;&gt;Node6 -->
<g id="edge11" class="edge"><title>Node9&#45;&gt;Node6</title>
<path fill="none" stroke="midnightblue" d="M255.968,-124.841C280.545,-114.89 313.613,-101.5 339.985,-90.8219"/>
<polygon fill="midnightblue" stroke="midnightblue" points="341.415,-94.0191 349.37,-87.0218 338.788,-87.5308 341.415,-94.0191"/>
</g>
<!-- Node11&#45;&gt;Node4 -->
<g id="edge20" class="edge"><title>Node11&#45;&gt;Node4</title>
<path fill="none" stroke="midnightblue" d="M322.382,-197.774C280.816,-191.421 186.713,-176.308 98.6202,-156.263"/>
<polygon fill="midnightblue" stroke="midnightblue" points="99.2719,-152.821 88.7415,-153.988 97.701,-159.643 99.2719,-152.821"/>
</g>
<!-- Node11&#45;&gt;Node5 -->
<g id="edge15" class="edge"><title>Node11&#45;&gt;Node5</title>
<path fill="none" stroke="midnightblue" d="M322.336,-197.406C287.155,-191.207 215.726,-177.105 158,-156 156.346,-155.395 154.663,-154.724 152.983,-154.01"/>
<polygon fill="midnightblue" stroke="midnightblue" points="154.127,-150.682 143.584,-149.628 151.168,-157.026 154.127,-150.682"/>
</g>
<!-- Node11&#45;&gt;Node6 -->
<g id="edge21" class="edge"><title>Node11&#45;&gt;Node6</title>
<path fill="none" stroke="midnightblue" d="M337.488,-192.122C327.574,-177.435 310.957,-147.383 322,-124 327.929,-111.446 338.63,-100.941 349.493,-92.7898"/>
<polygon fill="midnightblue" stroke="midnightblue" points="351.56,-95.6156 357.755,-87.0208 347.552,-89.8763 351.56,-95.6156"/>
</g>
<!-- Node11&#45;&gt;Node7 -->
<g id="edge14" class="edge"><title>Node11&#45;&gt;Node7</title>
<path fill="none" stroke="midnightblue" d="M365.512,-198.973C409.467,-194.339 507.118,-181.363 527,-156 559.113,-115.033 509.33,-54.9394 481.583,-26.7247"/>
<polygon fill="midnightblue" stroke="midnightblue" points="484,-24.1934 474.427,-19.6544 479.08,-29.1727 484,-24.1934"/>
</g>
<!-- Node11&#45;&gt;Node9 -->
<g id="edge22" class="edge"><title>Node11&#45;&gt;Node9</title>
<path fill="none" stroke="midnightblue" d="M326.377,-192.403C308.94,-183.898 281.684,-170.602 259.26,-159.663"/>
<polygon fill="midnightblue" stroke="midnightblue" points="260.511,-156.379 249.989,-155.141 257.442,-162.671 260.511,-156.379"/>
</g>
<!-- Node12 -->
<g id="node12" class="node"><title>Node12</title>
<polygon fill="none" stroke="#bfbfbf" points="401,-130.5 401,-149.5 457,-149.5 457,-130.5 401,-130.5"/>
<text text-anchor="middle" x="429" y="-137.5" font-family="Helvetica,sans-Serif" font-size="10.00">algorithm</text>
</g>
<!-- Node11&#45;&gt;Node12 -->
<g id="edge16" class="edge"><title>Node11&#45;&gt;Node12</title>
<path fill="none" stroke="midnightblue" d="M356.178,-192.403C369.812,-182.78 392.132,-167.024 408.474,-155.489"/>
<polygon fill="midnightblue" stroke="midnightblue" points="410.693,-158.207 416.844,-149.581 406.656,-152.488 410.693,-158.207"/>
</g>
<!-- Node13 -->
<g id="node13" class="node"><title>Node13</title>
<polygon fill="none" stroke="#bfbfbf" points="475,-130.5 475,-149.5 519,-149.5 519,-130.5 475,-130.5"/>
<text text-anchor="middle" x="497" y="-137.5" font-family="Helvetica,sans-Serif" font-size="10.00">cmath</text>
</g>
<!-- Node11&#45;&gt;Node13 -->
<g id="edge17" class="edge"><title>Node11&#45;&gt;Node13</title>
<path fill="none" stroke="midnightblue" d="M365.629,-193.562C390,-185.041 430.691,-170.392 465,-156 466.634,-155.315 468.306,-154.593 469.987,-153.852"/>
<polygon fill="midnightblue" stroke="midnightblue" points="471.861,-156.845 479.511,-149.515 468.96,-150.474 471.861,-156.845"/>
</g>
<!-- Node14 -->
<g id="node14" class="node"><title>Node14</title>
<polygon fill="none" stroke="#bfbfbf" points="331,-130.5 331,-149.5 383,-149.5 383,-130.5 331,-130.5"/>
<text text-anchor="middle" x="357" y="-137.5" font-family="Helvetica,sans-Serif" font-size="10.00">sstream</text>
</g>
<!-- Node11&#45;&gt;Node14 -->
<g id="edge18" class="edge"><title>Node11&#45;&gt;Node14</title>
<path fill="none" stroke="midnightblue" d="M345.863,-192.403C347.716,-183.849 350.619,-170.45 352.997,-159.476"/>
<polygon fill="midnightblue" stroke="midnightblue" points="356.444,-160.095 355.141,-149.581 349.603,-158.613 356.444,-160.095"/>
</g>
<!-- Node11&#45;&gt;Node15 -->
<g id="edge19" class="edge"><title>Node11&#45;&gt;Node15</title>
<path fill="none" stroke="midnightblue" d="M365.504,-197.615C404.767,-191.197 490.511,-176.087 561,-156 564.207,-155.086 567.523,-154.043 570.816,-152.943"/>
<polygon fill="midnightblue" stroke="midnightblue" points="572.219,-156.159 580.491,-149.54 569.896,-149.556 572.219,-156.159"/>
</g>
</g>
</svg>
        <g id="navigator" transform="translate(0 0)" fill="#404254">
                <rect fill="#f2f5e9" fill-opacity="0.5" stroke="#606060" stroke-width=".5" x="0" y="0" width="60" height="60"/>
                <use id="zoomplus" xlink:href="#zoomPlus" x="17" y="9" onmousedown="handleZoom(evt,'in')"/>
                <use id="zoomminus" xlink:href="#zoomMin" x="42" y="9" onmousedown="handleZoom(evt,'out')"/>
                <use id="reset" xlink:href="#resetDef" x="30" y="36" onmousedown="handleReset()"/>
                <g id="arrowUp" xlink:href="#dirArrow" transform="translate(30 24)" onmousedown="handlePan(0,-1)">
                  <use xlink:href="#rim" fill="#404040">
                        <set attributeName="fill" to="#808080" begin="arrowUp.mouseover" end="arrowUp.mouseout"/>
                  </use>
                  <path fill="none" stroke="white" stroke-width="1.5" d="M0,-3.0v7 M-2.5,-0.5L0,-3.0L2.5,-0.5"/>
                </g>
                <g id="arrowRight" xlink:href="#dirArrow" transform="rotate(90) translate(36 -43)" onmousedown="handlePan(1,0)">
                  <use xlink:href="#rim" fill="#404040">
                        <set attributeName="fill" to="#808080" begin="arrowRight.mouseover" end="arrowRight.mouseout"/>
                  </use>
                  <path fill="none" stroke="white" stroke-width="1.5" d="M0,-3.0v7 M-2.5,-0.5L0,-3.0L2.5,-0.5"/>
                </g>
                <g id="arrowDown" xlink:href="#dirArrow" transform="rotate(180) translate(-30 -48)" onmousedown="handlePan(0,1)">
                  <use xlink:href="#rim" fill="#404040">
                        <set attributeName="fill" to="#808080" begin="arrowDown.mouseover" end="arrowDown.mouseout"/>
                  </use>
                  <path fill="none" stroke="white" stroke-width="1.5" d="M0,-3.0v7 M-2.5,-0.5L0,-3.0L2.5,-0.5"/>
                </g>
                <g id="arrowLeft" xlink:href="#dirArrow" transform="rotate(270) translate(-36 17)" onmousedown="handlePan(-1,0)">
                  <use xlink:href="#rim" fill="#404040">
                        <set attributeName="fill" to="#808080" begin="arrowLeft.mouseover" end="arrowLeft.mouseout"/>
                  </use>
                  <path fill="none" stroke="white" stroke-width="1.5" d="M0,-3.0v7 M-2.5,-0.5L0,-3.0L2.5,-0.5"/>
                </g>
        </g>
        <svg viewBox="0 0 15 15" width="100%" height="30px" preserveAspectRatio="xMaxYMin meet">
         <g id="arrow_out" transform="scale(0.3 0.3)">
          <a xlink:href="DefaultValues_8h__incl_org.svg" target="_base">
           <rect id="button" ry="5" rx="5" y="6" x="6" height="38" width="38"
                fill="#f2f5e9" fill-opacity="0.5" stroke="#606060" stroke-width="1.0"/>
           <path id="arrow"
             d="M 11.500037,31.436501 C 11.940474,20.09759 22.043105,11.32322 32.158766,21.979434 L 37.068811,17.246167 C 37.068811,17.246167 37.088388,32 37.088388,32 L 22.160133,31.978069 C 22.160133,31.978069 26.997745,27.140456 26.997745,27.140456 C 18.528582,18.264221 13.291696,25.230495 11.500037,31.436501 z"
             style="fill:#404040;"/>
          </a>
         </g>
        </svg>
</svg>
