<?xml version="1.0" encoding="UTF-8" standalone="no"?>
<!DOCTYPE svg PUBLIC "-//W3C//DTD SVG 1.1//EN"
 "http://www.w3.org/Graphics/SVG/1.1/DTD/svg11.dtd">
<!-- Generated by graphviz version 2.26.3 (20100126.1600)
 -->
<!-- Title: simpleanalyzer&#45;gui/src/processing Pages: 1 -->
<svg width="134pt" height="153pt"
 viewBox="0.00 0.00 134.00 153.00" xmlns="http://www.w3.org/2000/svg" xmlns:xlink="http://www.w3.org/1999/xlink">
<g id="graph1" class="graph" transform="scale(1 1) rotate(0) translate(4 149)">
<title>simpleanalyzer&#45;gui/src/processing</title>
<g id="graph2" class="cluster"><title>clusterdir_fc69cc80a9959f5f4d9fc5f3e2f537ca</title>
<a xlink:href="dir_fc69cc80a9959f5f4d9fc5f3e2f537ca.xhtml" target="_top" xlink:title="src">
<polygon fill="#ddddee" stroke="black" points="23,-64 23,-137 103,-137 103,-64 23,-64"/>
<text text-anchor="middle" x="63" y="-124" font-family="Helvetica,sans-Serif" font-size="10.00">src</text>
</a>
</g>
<!-- dir_bee17b6d98f1147c834a49f1eb486f67 -->
<g id="node2" class="node"><title>dir_bee17b6d98f1147c834a49f1eb486f67</title>
<a xlink:href="dir_bee17b6d98f1147c834a49f1eb486f67.xhtml" target="_top" xlink:title="processing">
<polygon fill="#eeeeff" stroke="black" points="95,-108 31,-108 31,-72 95,-72 95,-108"/>
<text text-anchor="middle" x="63" y="-87.5" font-family="Helvetica,sans-Serif" font-size="10.00">processing</text>
</a>
</g>
<!-- dir_2349201c047e2c0ea730b171cb17a436 -->
<g id="node3" class="node"><title>dir_2349201c047e2c0ea730b171cb17a436</title>
<a xlink:href="dir_2349201c047e2c0ea730b171cb17a436.xhtml" target="_top" xlink:title="fileIO">
<polygon fill="none" stroke="black" points="54,-36 2.13163e-14,-36 0,-1.77636e-14 54,-3.55271e-15 54,-36"/>
<text text-anchor="middle" x="27" y="-15.5" font-family="Helvetica,sans-Serif" font-size="10.00">fileIO</text>
</a>
</g>
<!-- dir_bee17b6d98f1147c834a49f1eb486f67&#45;&gt;dir_2349201c047e2c0ea730b171cb17a436 -->
<g id="edge5" class="edge"><title>dir_bee17b6d98f1147c834a49f1eb486f67&#45;&gt;dir_2349201c047e2c0ea730b171cb17a436</title>
<path fill="none" stroke="black" d="M47.9633,-71.8314C43.2615,-63.9617 38.3524,-54.5712 34.3327,-45.8533"/>
<polygon fill="black" stroke="black" points="37.4261,-44.1899 30.2306,-36.4133 31.006,-46.9797 37.4261,-44.1899"/>
<a xlink:href="dir_000010_000006.xhtml" target="_top" xlink:title="1">
<text text-anchor="middle" x="41.4627" y="-43.8552" font-family="Helvetica,sans-Serif" font-size="10.00">1</text>
</a>
</g>
<!-- dir_3ae5ff8f903e04726d22262ee65ea878 -->
<g id="node4" class="node"><title>dir_3ae5ff8f903e04726d22262ee65ea878</title>
<a xlink:href="dir_3ae5ff8f903e04726d22262ee65ea878.xhtml" target="_top" xlink:title="libraries">
<polygon fill="none" stroke="red" points="126,-36 72,-36 72,-1.77636e-14 126,-3.55271e-15 126,-36"/>
<text text-anchor="middle" x="99" y="-15.5" font-family="Helvetica,sans-Serif" font-size="10.00">libraries</text>
</a>
</g>
<!-- dir_bee17b6d98f1147c834a49f1eb486f67&#45;&gt;dir_3ae5ff8f903e04726d22262ee65ea878 -->
<g id="edge7" class="edge"><title>dir_bee17b6d98f1147c834a49f1eb486f67&#45;&gt;dir_3ae5ff8f903e04726d22262ee65ea878</title>
<path fill="none" stroke="black" d="M72.0843,-71.8314C76.0615,-63.8771 80.8155,-54.369 85.2139,-45.5723"/>
<polygon fill="black" stroke="black" points="88.4517,-46.9228 89.7934,-36.4133 82.1907,-43.7923 88.4517,-46.9228"/>
<a xlink:href="dir_000010_000008.xhtml" target="_top" xlink:title="5">
<text text-anchor="middle" x="89.3837" y="-48.9077" font-family="Helvetica,sans-Serif" font-size="10.00">5</text>
</a>
</g>
<!-- dir_2349201c047e2c0ea730b171cb17a436&#45;&gt;dir_bee17b6d98f1147c834a49f1eb486f67 -->
<g id="edge3" class="edge"><title>dir_2349201c047e2c0ea730b171cb17a436&#45;&gt;dir_bee17b6d98f1147c834a49f1eb486f67</title>
<path fill="none" stroke="black" d="M42.1826,-36.4133C46.8886,-44.3141 51.7905,-53.7132 55.7918,-62.417"/>
<polygon fill="black" stroke="black" points="52.6828,-64.0454 59.8681,-71.8314 59.1065,-61.2639 52.6828,-64.0454"/>
<a xlink:href="dir_000006_000010.xhtml" target="_top" xlink:title="4">
<text text-anchor="middle" x="48.649" y="-59.3748" font-family="Helvetica,sans-Serif" font-size="10.00">4</text>
</a>
</g>
</g>
</svg>
