<?xml version="1.0" encoding="UTF-8" standalone="no"?>
<!DOCTYPE svg PUBLIC "-//W3C//DTD SVG 1.1//EN"
 "http://www.w3.org/Graphics/SVG/1.1/DTD/svg11.dtd">
<!-- Generated by graphviz version 2.36.0 (20140111.2315)
 -->
<!-- Title: /daten/Projekte/eclipse_workspace/simpleanalyzer&#45;gui/src Pages: 1 -->
<svg width="150pt" height="399pt"
 viewBox="0.00 0.00 150.00 399.00" xmlns="http://www.w3.org/2000/svg" xmlns:xlink="http://www.w3.org/1999/xlink">
<g id="graph0" class="graph" transform="scale(1 1) rotate(0) translate(4 395)">
<title>/daten/Projekte/eclipse_workspace/simpleanalyzer&#45;gui/src</title>
<g id="clust1" class="cluster"><title>clusterdir_c77ee61374efdb50c23b8fd1bc609a29</title>
<g id="a_clust1"><a xlink:href="dir_c77ee61374efdb50c23b8fd1bc609a29.xhtml" target="_top" xlink:title="simpleanalyzer&#45;gui">
<polygon fill="#ddddee" stroke="black" points="8,-8 8,-383 134,-383 134,-8 8,-8"/>
<text text-anchor="middle" x="71" y="-371" font-family="Helvetica,sans-Serif" font-size="10.00">simpleanalyzer&#45;gui</text>
</a>
</g>
</g>
<g id="clust2" class="cluster"><title>clusterdir_fc69cc80a9959f5f4d9fc5f3e2f537ca</title>
<g id="a_clust2"><a xlink:href="dir_fc69cc80a9959f5f4d9fc5f3e2f537ca.xhtml" target="_top">
<polygon fill="#eeeeff" stroke="black" points="16,-16 16,-356 126,-356 126,-16 16,-16"/>
</a>
</g>
</g>
<!-- dir_fc69cc80a9959f5f4d9fc5f3e2f537ca -->
<g id="node1" class="node"><title>dir_fc69cc80a9959f5f4d9fc5f3e2f537ca</title>
<text text-anchor="middle" x="91" y="-327.5" font-family="Helvetica,sans-Serif" font-size="10.00">src</text>
</g>
<!-- dir_6d3502ad7ea637015e23cd162a030a27 -->
<g id="node3" class="node"><title>dir_6d3502ad7ea637015e23cd162a030a27</title>
<g id="a_node3"><a xlink:href="dir_6d3502ad7ea637015e23cd162a030a27.xhtml" target="_top" xlink:title="GUI">
<polygon fill="white" stroke="black" points="118,-276 64,-276 64,-240 118,-240 118,-276"/>
<text text-anchor="middle" x="91" y="-255.5" font-family="Helvetica,sans-Serif" font-size="10.00">GUI</text>
</a>
</g>
</g>
<!-- dir_fc69cc80a9959f5f4d9fc5f3e2f537ca&#45;&gt;dir_6d3502ad7ea637015e23cd162a030a27 -->
<g id="edge7" class="edge"><title>dir_fc69cc80a9959f5f4d9fc5f3e2f537ca&#45;&gt;dir_6d3502ad7ea637015e23cd162a030a27</title>
<path fill="none" stroke="black" d="M91,-311.697C91,-303.983 91,-294.712 91,-286.112"/>
<polygon fill="black" stroke="black" points="94.5001,-286.104 91,-276.104 87.5001,-286.104 94.5001,-286.104"/>
<g id="a_edge7&#45;headlabel"><a xlink:href="dir_000003_000004.xhtml" target="_top" xlink:title="2">
<text text-anchor="middle" x="97.3393" y="-287.199" font-family="Helvetica,sans-Serif" font-size="10.00">2</text>
</a>
</g>
</g>
<!-- dir_2349201c047e2c0ea730b171cb17a436 -->
<g id="node2" class="node"><title>dir_2349201c047e2c0ea730b171cb17a436</title>
<g id="a_node2"><a xlink:href="dir_2349201c047e2c0ea730b171cb17a436.xhtml" target="_top" xlink:title="fileIO">
<polygon fill="white" stroke="black" points="78,-204 24,-204 24,-168 78,-168 78,-204"/>
<text text-anchor="middle" x="51" y="-183.5" font-family="Helvetica,sans-Serif" font-size="10.00">fileIO</text>
</a>
</g>
</g>
<!-- dir_bee17b6d98f1147c834a49f1eb486f67 -->
<g id="node5" class="node"><title>dir_bee17b6d98f1147c834a49f1eb486f67</title>
<g id="a_node5"><a xlink:href="dir_bee17b6d98f1147c834a49f1eb486f67.xhtml" target="_top" xlink:title="processing">
<polygon fill="white" stroke="black" points="93,-132 29,-132 29,-96 93,-96 93,-132"/>
<text text-anchor="middle" x="61" y="-111.5" font-family="Helvetica,sans-Serif" font-size="10.00">processing</text>
</a>
</g>
</g>
<!-- dir_2349201c047e2c0ea730b171cb17a436&#45;&gt;dir_bee17b6d98f1147c834a49f1eb486f67 -->
<g id="edge1" class="edge"><title>dir_2349201c047e2c0ea730b171cb17a436&#45;&gt;dir_bee17b6d98f1147c834a49f1eb486f67</title>
<path fill="none" stroke="black" d="M47.5562,-167.697C47.8625,-159.983 48.9603,-150.712 50.5315,-142.112"/>
<polygon fill="black" stroke="black" points="54.0031,-142.614 52.6615,-132.104 47.1564,-141.157 54.0031,-142.614"/>
<g id="a_edge1&#45;headlabel"><a xlink:href="dir_000011_000005.xhtml" target="_top" xlink:title="4">
<text text-anchor="middle" x="56.032" y="-144.221" font-family="Helvetica,sans-Serif" font-size="10.00">4</text>
</a>
</g>
</g>
<!-- dir_6d3502ad7ea637015e23cd162a030a27&#45;&gt;dir_2349201c047e2c0ea730b171cb17a436 -->
<g id="edge4" class="edge"><title>dir_6d3502ad7ea637015e23cd162a030a27&#45;&gt;dir_2349201c047e2c0ea730b171cb17a436</title>
<path fill="none" stroke="black" d="M81.1124,-239.697C76.5107,-231.644 70.9397,-221.894 65.8471,-212.982"/>
<polygon fill="black" stroke="black" points="68.7742,-211.05 60.7739,-204.104 62.6965,-214.523 68.7742,-211.05"/>
<g id="a_edge4&#45;headlabel"><a xlink:href="dir_000004_000011.xhtml" target="_top" xlink:title="3">
<text text-anchor="middle" x="73.0228" y="-210.263" font-family="Helvetica,sans-Serif" font-size="10.00">3</text>
</a>
</g>
</g>
<!-- dir_3ae5ff8f903e04726d22262ee65ea878 -->
<g id="node4" class="node"><title>dir_3ae5ff8f903e04726d22262ee65ea878</title>
<g id="a_node4"><a xlink:href="dir_3ae5ff8f903e04726d22262ee65ea878.xhtml" target="_top" xlink:title="libraries">
<polygon fill="white" stroke="red" points="103,-60 49,-60 49,-24 103,-24 103,-60"/>
<text text-anchor="middle" x="76" y="-39.5" font-family="Helvetica,sans-Serif" font-size="10.00">libraries</text>
</a>
</g>
</g>
<!-- dir_6d3502ad7ea637015e23cd162a030a27&#45;&gt;dir_3ae5ff8f903e04726d22262ee65ea878 -->
<g id="edge5" class="edge"><title>dir_6d3502ad7ea637015e23cd162a030a27&#45;&gt;dir_3ae5ff8f903e04726d22262ee65ea878</title>
<path fill="none" stroke="black" d="M95.4364,-239.816C102.393,-210.086 113.907,-147.308 102,-96 99.9017,-86.9586 96.0342,-77.6814 91.9119,-69.4668"/>
<polygon fill="black" stroke="black" points="94.8554,-67.5496 87.0462,-60.3894 88.6858,-70.8566 94.8554,-67.5496"/>
<g id="a_edge5&#45;headlabel"><a xlink:href="dir_000004_000012.xhtml" target="_top" xlink:title="4">
<text text-anchor="middle" x="99.056" y="-66.8764" font-family="Helvetica,sans-Serif" font-size="10.00">4</text>
</a>
</g>
</g>
<!-- dir_6d3502ad7ea637015e23cd162a030a27&#45;&gt;dir_bee17b6d98f1147c834a49f1eb486f67 -->
<g id="edge6" class="edge"><title>dir_6d3502ad7ea637015e23cd162a030a27&#45;&gt;dir_bee17b6d98f1147c834a49f1eb486f67</title>
<path fill="none" stroke="black" d="M92.2741,-239.967C93.1622,-221.827 93.2494,-192.424 87,-168 84.6992,-159.008 80.7725,-149.745 76.6582,-141.529"/>
<polygon fill="black" stroke="black" points="79.6126,-139.63 71.8283,-132.443 73.4316,-142.915 79.6126,-139.63"/>
<g id="a_edge6&#45;headlabel"><a xlink:href="dir_000004_000005.xhtml" target="_top" xlink:title="21">
<text text-anchor="middle" x="83.8068" y="-138.971" font-family="Helvetica,sans-Serif" font-size="10.00">21</text>
</a>
</g>
</g>
<!-- dir_bee17b6d98f1147c834a49f1eb486f67&#45;&gt;dir_2349201c047e2c0ea730b171cb17a436 -->
<g id="edge2" class="edge"><title>dir_bee17b6d98f1147c834a49f1eb486f67&#45;&gt;dir_2349201c047e2c0ea730b171cb17a436</title>
<path fill="none" stroke="black" d="M64.4516,-132.104C64.1589,-139.791 63.072,-149.054 61.509,-157.665"/>
<polygon fill="black" stroke="black" points="58.0324,-157.189 59.3876,-167.697 64.8809,-158.637 58.0324,-157.189"/>
<g id="a_edge2&#45;headlabel"><a xlink:href="dir_000005_000011.xhtml" target="_top" xlink:title="1">
<text text-anchor="middle" x="55.9982" y="-150.585" font-family="Helvetica,sans-Serif" font-size="10.00">1</text>
</a>
</g>
</g>
<!-- dir_bee17b6d98f1147c834a49f1eb486f67&#45;&gt;dir_3ae5ff8f903e04726d22262ee65ea878 -->
<g id="edge3" class="edge"><title>dir_bee17b6d98f1147c834a49f1eb486f67&#45;&gt;dir_3ae5ff8f903e04726d22262ee65ea878</title>
<path fill="none" stroke="black" d="M64.7079,-95.6966C66.3608,-87.9827 68.3473,-78.7125 70.1902,-70.1124"/>
<polygon fill="black" stroke="black" points="73.6617,-70.6157 72.3348,-60.1043 66.8171,-69.149 73.6617,-70.6157"/>
<g id="a_edge3&#45;headlabel"><a xlink:href="dir_000005_000012.xhtml" target="_top" xlink:title="5">
<text text-anchor="middle" x="75.6849" y="-72.2254" font-family="Helvetica,sans-Serif" font-size="10.00">5</text>
</a>
</g>
</g>
</g>
</svg>
