<?xml version="1.0" encoding="UTF-8" standalone="no"?>
<!DOCTYPE svg PUBLIC "-//W3C//DTD SVG 1.1//EN"
 "http://www.w3.org/Graphics/SVG/1.1/DTD/svg11.dtd">
<!-- Generated by graphviz version 2.26.3 (20100126.1600)
 -->
<!-- Title: simpleanalyzer&#45;gui/src/GUI Pages: 1 -->
<svg width="133pt" height="297pt"
 viewBox="0.00 0.00 133.00 297.00" xmlns="http://www.w3.org/2000/svg" xmlns:xlink="http://www.w3.org/1999/xlink">
<g id="graph1" class="graph" transform="scale(1 1) rotate(0) translate(4 293)">
<title>simpleanalyzer&#45;gui/src/GUI</title>
<g id="graph2" class="cluster"><title>clusterdir_fc69cc80a9959f5f4d9fc5f3e2f537ca</title>
<a xlink:href="dir_fc69cc80a9959f5f4d9fc5f3e2f537ca.xhtml" target="_top" xlink:title="src">
<polygon fill="#ddddee" stroke="black" points="47,-208 47,-281 117,-281 117,-208 47,-208"/>
<text text-anchor="middle" x="82" y="-268" font-family="Helvetica,sans-Serif" font-size="10.00">src</text>
</a>
</g>
<!-- dir_6d3502ad7ea637015e23cd162a030a27 -->
<g id="node2" class="node"><title>dir_6d3502ad7ea637015e23cd162a030a27</title>
<a xlink:href="dir_6d3502ad7ea637015e23cd162a030a27.xhtml" target="_top" xlink:title="GUI">
<polygon fill="#eeeeff" stroke="black" points="109,-252 55,-252 55,-216 109,-216 109,-252"/>
<text text-anchor="middle" x="82" y="-231.5" font-family="Helvetica,sans-Serif" font-size="10.00">GUI</text>
</a>
</g>
<!-- dir_2349201c047e2c0ea730b171cb17a436 -->
<g id="node3" class="node"><title>dir_2349201c047e2c0ea730b171cb17a436</title>
<a xlink:href="dir_2349201c047e2c0ea730b171cb17a436.xhtml" target="_top" xlink:title="fileIO">
<polygon fill="none" stroke="black" points="54,-180 2.13163e-14,-180 0,-144 54,-144 54,-180"/>
<text text-anchor="middle" x="27" y="-159.5" font-family="Helvetica,sans-Serif" font-size="10.00">fileIO</text>
</a>
</g>
<!-- dir_6d3502ad7ea637015e23cd162a030a27&#45;&gt;dir_2349201c047e2c0ea730b171cb17a436 -->
<g id="edge9" class="edge"><title>dir_6d3502ad7ea637015e23cd162a030a27&#45;&gt;dir_2349201c047e2c0ea730b171cb17a436</title>
<path fill="none" stroke="black" d="M68.1212,-215.831C61.7864,-207.539 54.1616,-197.557 47.2074,-188.453"/>
<polygon fill="black" stroke="black" points="49.9175,-186.235 41.0657,-180.413 44.3548,-190.485 49.9175,-186.235"/>
<a xlink:href="dir_000007_000006.xhtml" target="_top" xlink:title="3">
<text text-anchor="middle" x="54.3558" y="-184.868" font-family="Helvetica,sans-Serif" font-size="10.00">3</text>
</a>
</g>
<!-- dir_3ae5ff8f903e04726d22262ee65ea878 -->
<g id="node4" class="node"><title>dir_3ae5ff8f903e04726d22262ee65ea878</title>
<a xlink:href="dir_3ae5ff8f903e04726d22262ee65ea878.xhtml" target="_top" xlink:title="libraries">
<polygon fill="none" stroke="red" points="109,-36 55,-36 55,-1.77636e-14 109,-3.55271e-15 109,-36"/>
<text text-anchor="middle" x="82" y="-15.5" font-family="Helvetica,sans-Serif" font-size="10.00">libraries</text>
</a>
</g>
<!-- dir_6d3502ad7ea637015e23cd162a030a27&#45;&gt;dir_3ae5ff8f903e04726d22262ee65ea878 -->
<g id="edge11" class="edge"><title>dir_6d3502ad7ea637015e23cd162a030a27&#45;&gt;dir_3ae5ff8f903e04726d22262ee65ea878</title>
<path fill="none" stroke="black" d="M82.8975,-215.533C84.2342,-185.457 86.4439,-124.02 85,-72 84.7718,-63.7771 84.3484,-54.858 83.8902,-46.6823"/>
<polygon fill="black" stroke="black" points="87.3711,-46.2574 83.2812,-36.4838 80.3836,-46.6747 87.3711,-46.2574"/>
<a xlink:href="dir_000007_000008.xhtml" target="_top" xlink:title="4">
<text text-anchor="middle" x="90.4195" y="-47.1764" font-family="Helvetica,sans-Serif" font-size="10.00">4</text>
</a>
</g>
<!-- dir_bee17b6d98f1147c834a49f1eb486f67 -->
<g id="node5" class="node"><title>dir_bee17b6d98f1147c834a49f1eb486f67</title>
<a xlink:href="dir_bee17b6d98f1147c834a49f1eb486f67.xhtml" target="_top" xlink:title="processing">
<polygon fill="none" stroke="black" points="76,-108 12,-108 12,-72 76,-72 76,-108"/>
<text text-anchor="middle" x="44" y="-87.5" font-family="Helvetica,sans-Serif" font-size="10.00">processing</text>
</a>
</g>
<!-- dir_6d3502ad7ea637015e23cd162a030a27&#45;&gt;dir_bee17b6d98f1147c834a49f1eb486f67 -->
<g id="edge13" class="edge"><title>dir_6d3502ad7ea637015e23cd162a030a27&#45;&gt;dir_bee17b6d98f1147c834a49f1eb486f67</title>
<path fill="none" stroke="black" d="M78.8966,-215.903C75.5922,-197.609 69.8938,-168.603 63,-144 60.598,-135.428 57.5507,-126.243 54.6037,-117.923"/>
<polygon fill="black" stroke="black" points="57.8134,-116.508 51.1089,-108.304 51.2342,-118.899 57.8134,-116.508"/>
<a xlink:href="dir_000007_000010.xhtml" target="_top" xlink:title="20">
<text text-anchor="middle" x="61.7095" y="-116.417" font-family="Helvetica,sans-Serif" font-size="10.00">20</text>
</a>
</g>
<!-- dir_2349201c047e2c0ea730b171cb17a436&#45;&gt;dir_bee17b6d98f1147c834a49f1eb486f67 -->
<g id="edge3" class="edge"><title>dir_2349201c047e2c0ea730b171cb17a436&#45;&gt;dir_bee17b6d98f1147c834a49f1eb486f67</title>
<path fill="none" stroke="black" d="M25.3374,-143.831C26.4169,-136.046 28.389,-126.773 30.7524,-118.135"/>
<polygon fill="black" stroke="black" points="34.1476,-118.998 33.6764,-108.413 27.4443,-116.981 34.1476,-118.998"/>
<a xlink:href="dir_000006_000010.xhtml" target="_top" xlink:title="4">
<text text-anchor="middle" x="35.8313" y="-120.758" font-family="Helvetica,sans-Serif" font-size="10.00">4</text>
</a>
</g>
<!-- dir_bee17b6d98f1147c834a49f1eb486f67&#45;&gt;dir_2349201c047e2c0ea730b171cb17a436 -->
<g id="edge5" class="edge"><title>dir_bee17b6d98f1147c834a49f1eb486f67&#45;&gt;dir_2349201c047e2c0ea730b171cb17a436</title>
<path fill="none" stroke="black" d="M45.6284,-108.413C44.5304,-116.229 42.5449,-125.511 40.1734,-134.136"/>
<polygon fill="black" stroke="black" points="36.786,-133.246 37.2422,-143.831 43.4864,-135.272 36.786,-133.246"/>
<a xlink:href="dir_000010_000006.xhtml" target="_top" xlink:title="1">
<text text-anchor="middle" x="35.1084" y="-126.484" font-family="Helvetica,sans-Serif" font-size="10.00">1</text>
</a>
</g>
<!-- dir_bee17b6d98f1147c834a49f1eb486f67&#45;&gt;dir_3ae5ff8f903e04726d22262ee65ea878 -->
<g id="edge7" class="edge"><title>dir_bee17b6d98f1147c834a49f1eb486f67&#45;&gt;dir_3ae5ff8f903e04726d22262ee65ea878</title>
<path fill="none" stroke="black" d="M53.589,-71.8314C57.8317,-63.7925 62.9121,-54.1666 67.596,-45.2918"/>
<polygon fill="black" stroke="black" points="70.7096,-46.8908 72.2819,-36.4133 64.5189,-43.6235 70.7096,-46.8908"/>
<a xlink:href="dir_000010_000008.xhtml" target="_top" xlink:title="5">
<text text-anchor="middle" x="71.5428" y="-48.895" font-family="Helvetica,sans-Serif" font-size="10.00">5</text>
</a>
</g>
</g>
</svg>
