<?xml version="1.0" encoding="UTF-8" standalone="no"?>
<!DOCTYPE svg PUBLIC "-//W3C//DTD SVG 1.1//EN"
 "http://www.w3.org/Graphics/SVG/1.1/DTD/svg11.dtd">
<!-- Generated by graphviz version 2.26.3 (20100126.1600)
 -->
<!-- Title: /daten/Projekte/eclipse_workspace/simpleanalyzer&#45;gui/src/fileIO/Exporter.h Pages: 1 -->
<svg width="538pt" height="140pt"
 viewBox="0.00 0.00 538.00 140.00" xmlns="http://www.w3.org/2000/svg" xmlns:xlink="http://www.w3.org/1999/xlink">
<g id="graph1" class="graph" transform="scale(1 1) rotate(0) translate(4 136)">
<title>/daten/Projekte/eclipse_workspace/simpleanalyzer&#45;gui/src/fileIO/Exporter.h</title>
<!-- Node1 -->
<g id="node1" class="node"><title>Node1</title>
<polygon fill="#bfbfbf" stroke="black" points="181.5,-84.5 181.5,-131.5 318.5,-131.5 318.5,-84.5 181.5,-84.5"/>
<text text-anchor="start" x="189.5" y="-118.5" font-family="Helvetica,sans-Serif" font-size="10.00">/daten/Projekte/eclipse</text>
<text text-anchor="start" x="189.5" y="-105.5" font-family="Helvetica,sans-Serif" font-size="10.00">_workspace/simpleanalyzer</text>
<text text-anchor="middle" x="250" y="-92.5" font-family="Helvetica,sans-Serif" font-size="10.00">&#45;gui/src/fileIO/Exporter.h</text>
</g>
<!-- Node2 -->
<g id="node3" class="node"><title>Node2</title>
<a xlink:href="Exporter_8cpp.xhtml" target="_top" xlink:title="/daten/Projekte/eclipse\l_workspace/simpleanalyzer\l&#45;gui/src/fileIO/Exporter.cpp">
<polygon fill="none" stroke="black" points="-0.5,-0.5 -0.5,-47.5 136.5,-47.5 136.5,-0.5 -0.5,-0.5"/>
<text text-anchor="start" x="7.5" y="-34.5" font-family="Helvetica,sans-Serif" font-size="10.00">/daten/Projekte/eclipse</text>
<text text-anchor="start" x="7.5" y="-21.5" font-family="Helvetica,sans-Serif" font-size="10.00">_workspace/simpleanalyzer</text>
<text text-anchor="middle" x="68" y="-8.5" font-family="Helvetica,sans-Serif" font-size="10.00">&#45;gui/src/fileIO/Exporter.cpp</text>
</a>
</g>
<!-- Node1&#45;&gt;Node2 -->
<g id="edge2" class="edge"><title>Node1&#45;&gt;Node2</title>
<path fill="none" stroke="midnightblue" d="M189.566,-80.1072C166.737,-69.5709 141.005,-57.6945 119.112,-47.5903"/>
<polygon fill="midnightblue" stroke="midnightblue" points="188.272,-83.365 198.819,-84.3778 191.206,-77.0093 188.272,-83.365"/>
</g>
<!-- Node3 -->
<g id="node5" class="node"><title>Node3</title>
<a xlink:href="GUICutRenderWindow_8cpp.xhtml" target="_top" xlink:title="/daten/Projekte/eclipse\l_workspace/simpleanalyzer\l&#45;gui/src/GUI/GUICutRenderWindow.cpp">
<polygon fill="none" stroke="black" points="154,-0.5 154,-47.5 346,-47.5 346,-0.5 154,-0.5"/>
<text text-anchor="start" x="162" y="-34.5" font-family="Helvetica,sans-Serif" font-size="10.00">/daten/Projekte/eclipse</text>
<text text-anchor="start" x="162" y="-21.5" font-family="Helvetica,sans-Serif" font-size="10.00">_workspace/simpleanalyzer</text>
<text text-anchor="middle" x="250" y="-8.5" font-family="Helvetica,sans-Serif" font-size="10.00">&#45;gui/src/GUI/GUICutRenderWindow.cpp</text>
</a>
</g>
<!-- Node1&#45;&gt;Node3 -->
<g id="edge4" class="edge"><title>Node1&#45;&gt;Node3</title>
<path fill="none" stroke="midnightblue" d="M250,-74.0664C250,-65.1933 250,-55.821 250,-47.6152"/>
<polygon fill="midnightblue" stroke="midnightblue" points="246.5,-74.1536 250,-84.1537 253.5,-74.1537 246.5,-74.1536"/>
</g>
<!-- Node4 -->
<g id="node7" class="node"><title>Node4</title>
<a xlink:href="GUIMainWindow_8cpp.xhtml" target="_top" xlink:title="/daten/Projekte/eclipse\l_workspace/simpleanalyzer\l&#45;gui/src/GUI/GUIMainWindow.cpp">
<polygon fill="none" stroke="black" points="364,-0.5 364,-47.5 530,-47.5 530,-0.5 364,-0.5"/>
<text text-anchor="start" x="372" y="-34.5" font-family="Helvetica,sans-Serif" font-size="10.00">/daten/Projekte/eclipse</text>
<text text-anchor="start" x="372" y="-21.5" font-family="Helvetica,sans-Serif" font-size="10.00">_workspace/simpleanalyzer</text>
<text text-anchor="middle" x="447" y="-8.5" font-family="Helvetica,sans-Serif" font-size="10.00">&#45;gui/src/GUI/GUIMainWindow.cpp</text>
</a>
</g>
<!-- Node1&#45;&gt;Node4 -->
<g id="edge6" class="edge"><title>Node1&#45;&gt;Node4</title>
<path fill="none" stroke="midnightblue" d="M314.539,-80.481C339.535,-69.8228 367.855,-57.7469 391.876,-47.5047"/>
<polygon fill="midnightblue" stroke="midnightblue" points="312.963,-77.3477 305.137,-84.4896 315.709,-83.7868 312.963,-77.3477"/>
</g>
</g>
</svg>
