<?xml version="1.0" encoding="UTF-8" standalone="no"?>
<!DOCTYPE svg PUBLIC "-//W3C//DTD SVG 1.1//EN"
 "http://www.w3.org/Graphics/SVG/1.1/DTD/svg11.dtd">
<!-- Generated by graphviz version 2.36.0 (20140111.2315)
 -->
<!-- Title: sqr Pages: 1 -->
<svg width="1324pt" height="263pt"
 viewBox="0.00 0.00 1324.00 263.00" xmlns="http://www.w3.org/2000/svg" xmlns:xlink="http://www.w3.org/1999/xlink">
<g id="graph0" class="graph" transform="scale(1 1) rotate(0) translate(4 259)">
<title>sqr</title>
<!-- Node1 -->
<g id="node1" class="node"><title>Node1</title>
<polygon fill="#bfbfbf" stroke="black" points="0,-102.5 0,-121.5 30,-121.5 30,-102.5 0,-102.5"/>
<text text-anchor="middle" x="15" y="-109.5" font-family="Helvetica,sans-Serif" font-size="10.00">sqr</text>
</g>
<!-- Node2 -->
<g id="node2" class="node"><title>Node2</title>
<g id="a_node2"><a xlink:href="classVector3D.xhtml#a2e3aa1d244483abcb1a8e48e47e79512" target="_top" xlink:title="Gibt die Länge des Vektors zurück. ">
<polygon fill="none" stroke="black" points="76.5,-131.5 76.5,-150.5 183.5,-150.5 183.5,-131.5 76.5,-131.5"/>
<text text-anchor="middle" x="130" y="-138.5" font-family="Helvetica,sans-Serif" font-size="10.00">Vector3D::getLength</text>
</a>
</g>
</g>
<!-- Node1&#45;&gt;Node2 -->
<g id="edge1" class="edge"><title>Node1&#45;&gt;Node2</title>
<path fill="none" stroke="midnightblue" d="M40.2888,-118.233C55.2243,-122.066 74.6695,-127.057 91.5468,-131.388"/>
<polygon fill="midnightblue" stroke="midnightblue" points="40.8677,-114.769 30.3115,-115.673 39.1276,-121.549 40.8677,-114.769"/>
</g>
<!-- Node23 -->
<g id="node23" class="node"><title>Node23</title>
<g id="a_node23"><a xlink:href="classVector3D.xhtml#a42deb992ec2f44abfb5824ea4917135c" target="_top" xlink:title="Gibt den Abstand zu einem anderen Vektor zurück. ">
<polygon fill="none" stroke="black" points="66,-74.5 66,-93.5 194,-93.5 194,-74.5 66,-74.5"/>
<text text-anchor="middle" x="130" y="-81.5" font-family="Helvetica,sans-Serif" font-size="10.00">Vector3D::getDistanceTo</text>
</a>
</g>
</g>
<!-- Node1&#45;&gt;Node23 -->
<g id="edge25" class="edge"><title>Node1&#45;&gt;Node23</title>
<path fill="none" stroke="midnightblue" d="M40.1203,-106.023C54.7909,-102.388 73.858,-97.6635 90.5684,-93.5229"/>
<polygon fill="midnightblue" stroke="midnightblue" points="39.1762,-102.651 30.3115,-108.454 40.8598,-109.446 39.1762,-102.651"/>
</g>
<!-- Node3 -->
<g id="node3" class="node"><title>Node3</title>
<g id="a_node3"><a xlink:href="simpleanalyzer-gui_2src_2GUI_2Renderer_8cpp.xhtml#a4225af4db7b633515f133a4f40c72b33" target="_top" xlink:title="Zeichnet einen Vektor als Pfeil. ">
<polygon fill="none" stroke="black" points="254,-207.5 254,-226.5 320,-226.5 320,-207.5 254,-207.5"/>
<text text-anchor="middle" x="287" y="-214.5" font-family="Helvetica,sans-Serif" font-size="10.00">drawVector</text>
</a>
</g>
</g>
<!-- Node2&#45;&gt;Node3 -->
<g id="edge2" class="edge"><title>Node2&#45;&gt;Node3</title>
<path fill="none" stroke="midnightblue" d="M157.329,-155.554C177.114,-166.312 204.993,-181.097 230,-193 240.601,-198.046 252.537,-203.229 262.658,-207.48"/>
<polygon fill="midnightblue" stroke="midnightblue" points="158.768,-152.352 148.315,-150.626 155.411,-158.494 158.768,-152.352"/>
</g>
<!-- Node7 -->
<g id="node7" class="node"><title>Node7</title>
<g id="a_node7"><a xlink:href="classVector3D.xhtml#a4bf1dcea68296f2f38f3574242933153" target="_top" xlink:title="Gibt den Winkel zu einem anderen Vektor in RAD zurück. ">
<polygon fill="none" stroke="black" points="230.5,-131.5 230.5,-150.5 343.5,-150.5 343.5,-131.5 230.5,-131.5"/>
<text text-anchor="middle" x="287" y="-138.5" font-family="Helvetica,sans-Serif" font-size="10.00">Vector3D::getAngleTo</text>
</a>
</g>
</g>
<!-- Node2&#45;&gt;Node7 -->
<g id="edge6" class="edge"><title>Node2&#45;&gt;Node7</title>
<path fill="none" stroke="midnightblue" d="M193.92,-141C206.008,-141 218.586,-141 230.422,-141"/>
<polygon fill="midnightblue" stroke="midnightblue" points="193.909,-137.5 183.909,-141 193.909,-144.5 193.909,-137.5"/>
</g>
<!-- Node8 -->
<g id="node8" class="node"><title>Node8</title>
<g id="a_node8"><a xlink:href="classInterpolator.xhtml#ad59ac6ed3822e08a67ac7d1ee88a5bd2" target="_top" xlink:title="Ermittelt den Wert für einen beliebigen Punkt in einer Ebene. ">
<polygon fill="none" stroke="black" points="382,-140.5 382,-159.5 510,-159.5 510,-140.5 382,-140.5"/>
<text text-anchor="middle" x="446" y="-147.5" font-family="Helvetica,sans-Serif" font-size="10.00">Interpolator::interpolateTri</text>
</a>
</g>
</g>
<!-- Node2&#45;&gt;Node8 -->
<g id="edge23" class="edge"><title>Node2&#45;&gt;Node8</title>
<path fill="none" stroke="midnightblue" d="M181.161,-152.538C196.724,-155.601 213.993,-158.478 230,-160 280.963,-164.846 338.954,-161.641 381.855,-157.615"/>
<polygon fill="midnightblue" stroke="midnightblue" points="181.708,-149.078 171.211,-150.511 180.31,-155.937 181.708,-149.078"/>
</g>
<!-- Node9 -->
<g id="node9" class="node"><title>Node9</title>
<g id="a_node9"><a xlink:href="classInterpolator.xhtml#a30e714ca6dff9b5745d029f95af1420a" target="_top" xlink:title="Ermittelt den Wert für einen beliebigen Punkt im Raum. ">
<polygon fill="none" stroke="black" points="380.5,-93.5 380.5,-112.5 511.5,-112.5 511.5,-93.5 380.5,-93.5"/>
<text text-anchor="middle" x="446" y="-100.5" font-family="Helvetica,sans-Serif" font-size="10.00">Interpolator::interpolateTet</text>
</a>
</g>
</g>
<!-- Node2&#45;&gt;Node9 -->
<g id="edge24" class="edge"><title>Node2&#45;&gt;Node9</title>
<path fill="none" stroke="midnightblue" d="M185.879,-129.44C200.193,-126.707 215.634,-124.008 230,-122 280.286,-114.971 337.572,-110.06 380.361,-106.994"/>
<polygon fill="midnightblue" stroke="midnightblue" points="184.833,-126.078 175.687,-131.426 186.172,-132.949 184.833,-126.078"/>
</g>
<!-- Node4 -->
<g id="node4" class="node"><title>Node4</title>
<g id="a_node4"><a xlink:href="simpleanalyzer-gui_2src_2GUI_2Renderer_8cpp.xhtml#ac35d259852428046b123c635864e2197" target="_top" xlink:title="Zeichnet markante Linien zum leichteren Erfassen des Koordinatensystems. ">
<polygon fill="none" stroke="black" points="415,-235.5 415,-254.5 477,-254.5 477,-235.5 415,-235.5"/>
<text text-anchor="middle" x="446" y="-242.5" font-family="Helvetica,sans-Serif" font-size="10.00">renderGrid</text>
</a>
</g>
</g>
<!-- Node3&#45;&gt;Node4 -->
<g id="edge3" class="edge"><title>Node3&#45;&gt;Node4</title>
<path fill="none" stroke="midnightblue" d="M329.998,-224.49C356.712,-229.254 390.682,-235.313 414.757,-239.606"/>
<polygon fill="midnightblue" stroke="midnightblue" points="330.609,-221.044 320.15,-222.734 329.38,-227.935 330.609,-221.044"/>
</g>
<!-- Node5 -->
<g id="node5" class="node"><title>Node5</title>
<g id="a_node5"><a xlink:href="simpleanalyzer-gui_2src_2GUI_2Renderer_8cpp.xhtml#a608a02845726b8844beac12e5154c500" target="_top" xlink:title="Visualisiert Informationen über eine 2D&#45;Temperaturverteilung. ">
<polygon fill="none" stroke="black" points="395.5,-197.5 395.5,-216.5 496.5,-216.5 496.5,-197.5 395.5,-197.5"/>
<text text-anchor="middle" x="446" y="-204.5" font-family="Helvetica,sans-Serif" font-size="10.00">drawCutRenderInfo</text>
</a>
</g>
</g>
<!-- Node3&#45;&gt;Node5 -->
<g id="edge4" class="edge"><title>Node3&#45;&gt;Node5</title>
<path fill="none" stroke="midnightblue" d="M330.223,-214.311C350.263,-213.034 374.346,-211.5 395.266,-210.168"/>
<polygon fill="midnightblue" stroke="midnightblue" points="329.907,-210.824 320.15,-214.952 330.352,-217.809 329.907,-210.824"/>
</g>
<!-- Node6 -->
<g id="node6" class="node"><title>Node6</title>
<g id="a_node6"><a xlink:href="classRenderer.xhtml#af7e5f8f68742f198e315fb4683a605a4" target="_top" xlink:title="Zeichnet das Objekt (Attribut object). ">
<polygon fill="none" stroke="black" points="555.5,-197.5 555.5,-216.5 644.5,-216.5 644.5,-197.5 555.5,-197.5"/>
<text text-anchor="middle" x="600" y="-204.5" font-family="Helvetica,sans-Serif" font-size="10.00">Renderer::render</text>
</a>
</g>
</g>
<!-- Node5&#45;&gt;Node6 -->
<g id="edge5" class="edge"><title>Node5&#45;&gt;Node6</title>
<path fill="none" stroke="midnightblue" d="M507.151,-207C523.214,-207 540.264,-207 555.258,-207"/>
<polygon fill="midnightblue" stroke="midnightblue" points="506.771,-203.5 496.77,-207 506.77,-210.5 506.771,-203.5"/>
</g>
<!-- Node7&#45;&gt;Node8 -->
<g id="edge7" class="edge"><title>Node7&#45;&gt;Node8</title>
<path fill="none" stroke="midnightblue" d="M354.072,-144.788C363.288,-145.316 372.739,-145.858 381.898,-146.383"/>
<polygon fill="midnightblue" stroke="midnightblue" points="353.978,-141.277 343.794,-144.198 353.578,-148.265 353.978,-141.277"/>
</g>
<!-- Node7&#45;&gt;Node9 -->
<g id="edge8" class="edge"><title>Node7&#45;&gt;Node9</title>
<path fill="none" stroke="midnightblue" d="M337.447,-129.032C359.448,-123.707 384.994,-117.524 405.667,-112.52"/>
<polygon fill="midnightblue" stroke="midnightblue" points="336.514,-125.657 327.618,-131.411 338.16,-132.46 336.514,-125.657"/>
</g>
<!-- Node10 -->
<g id="node10" class="node"><title>Node10</title>
<g id="a_node10"><a xlink:href="namespaceUtils.xhtml#a6a0ae18a42e2d206bc1b43da27820fe2" target="_top" xlink:title="Gibt den inter/extrapolierten Wert eines Punktes zurück. ">
<polygon fill="none" stroke="black" points="548,-93.5 548,-112.5 652,-112.5 652,-93.5 548,-93.5"/>
<text text-anchor="middle" x="600" y="-100.5" font-family="Helvetica,sans-Serif" font-size="10.00">Utils::getPointValue</text>
</a>
</g>
</g>
<!-- Node9&#45;&gt;Node10 -->
<g id="edge9" class="edge"><title>Node9&#45;&gt;Node10</title>
<path fill="none" stroke="midnightblue" d="M522.04,-103C530.706,-103 539.388,-103 547.636,-103"/>
<polygon fill="midnightblue" stroke="midnightblue" points="521.903,-99.5001 511.903,-103 521.903,-106.5 521.903,-99.5001"/>
</g>
<!-- Node11 -->
<g id="node11" class="node"><title>Node11</title>
<g id="a_node11"><a xlink:href="GUICutRenderWindow_8cpp.xhtml#aeaaae4c8452680389d221d0e60a6fc33" target="_top" xlink:title="Funktion zum verteilten berechnen der 2D&#45;Temperaturverteilung. ">
<polygon fill="none" stroke="black" points="709,-136.5 709,-155.5 785,-155.5 785,-136.5 709,-136.5"/>
<text text-anchor="middle" x="747" y="-143.5" font-family="Helvetica,sans-Serif" font-size="10.00">render_thread</text>
</a>
</g>
</g>
<!-- Node10&#45;&gt;Node11 -->
<g id="edge10" class="edge"><title>Node10&#45;&gt;Node11</title>
<path fill="none" stroke="midnightblue" d="M642.867,-115.416C665.494,-122.126 692.997,-130.282 713.91,-136.484"/>
<polygon fill="midnightblue" stroke="midnightblue" points="643.763,-112.031 633.18,-112.543 641.772,-118.742 643.763,-112.031"/>
</g>
<!-- Node14 -->
<g id="node14" class="node"><title>Node14</title>
<g id="a_node14"><a xlink:href="classAnalyzer.xhtml#a8f73ee0aa71ae395a74b43dc76b35458" target="_top" xlink:title="Ermittelt Daten für einen Punkt am aktuell ausgewählten Zeitpunkt. ">
<polygon fill="none" stroke="black" points="688.5,-93.5 688.5,-112.5 805.5,-112.5 805.5,-93.5 688.5,-93.5"/>
<text text-anchor="middle" x="747" y="-100.5" font-family="Helvetica,sans-Serif" font-size="10.00">Analyzer::analyzePoint</text>
</a>
</g>
</g>
<!-- Node10&#45;&gt;Node14 -->
<g id="edge13" class="edge"><title>Node10&#45;&gt;Node14</title>
<path fill="none" stroke="midnightblue" d="M662.192,-103C670.884,-103 679.799,-103 688.419,-103"/>
<polygon fill="midnightblue" stroke="midnightblue" points="662.122,-99.5001 652.122,-103 662.122,-106.5 662.122,-99.5001"/>
</g>
<!-- Node16 -->
<g id="node16" class="node"><title>Node16</title>
<g id="a_node16"><a xlink:href="MeshProcessor_8cpp.xhtml#ad2670c4e8381f9a0a89c65f5559ed421" target="_top" xlink:title="interpolatePoint">
<polygon fill="none" stroke="black" points="705,-52.5 705,-71.5 789,-71.5 789,-52.5 705,-52.5"/>
<text text-anchor="middle" x="747" y="-59.5" font-family="Helvetica,sans-Serif" font-size="10.00">interpolatePoint</text>
</a>
</g>
</g>
<!-- Node10&#45;&gt;Node16 -->
<g id="edge15" class="edge"><title>Node10&#45;&gt;Node16</title>
<path fill="none" stroke="midnightblue" d="M644.299,-90.7569C666.065,-84.6024 692.047,-77.2557 712.301,-71.5286"/>
<polygon fill="midnightblue" stroke="midnightblue" points="643.301,-87.4018 634.63,-93.4907 645.205,-94.1377 643.301,-87.4018"/>
</g>
<!-- Node12 -->
<g id="node12" class="node"><title>Node12</title>
<g id="a_node12"><a xlink:href="classGUICutRenderWindow.xhtml#a9eedb7088ad31f4680a77ed3a06fa60c" target="_top" xlink:title="Berechnet die 2D&#45;Temperaturverteilung als Grafik. ">
<polygon fill="none" stroke="black" points="847.5,-137 847.5,-167 964.5,-167 964.5,-137 847.5,-137"/>
<text text-anchor="start" x="855.5" y="-155" font-family="Helvetica,sans-Serif" font-size="10.00">GUICutRenderWindow</text>
<text text-anchor="middle" x="906" y="-144" font-family="Helvetica,sans-Serif" font-size="10.00">::renderImage</text>
</a>
</g>
</g>
<!-- Node11&#45;&gt;Node12 -->
<g id="edge11" class="edge"><title>Node11&#45;&gt;Node12</title>
<path fill="none" stroke="midnightblue" d="M795.608,-147.819C811.96,-148.444 830.439,-149.151 847.491,-149.802"/>
<polygon fill="midnightblue" stroke="midnightblue" points="795.333,-144.306 785.207,-147.422 795.066,-151.301 795.333,-144.306"/>
</g>
<!-- Node13 -->
<g id="node13" class="node"><title>Node13</title>
<g id="a_node13"><a xlink:href="classGUICutRenderWindow.xhtml#a7cd1bfbec53756a1cbbe1616b4d46c7a" target="_top" xlink:title="Behandelt das Drücken des Buttons zur Berechnung der zweidimensionalen Temperaturverteilung. ">
<polygon fill="none" stroke="black" points="1009.5,-137 1009.5,-167 1126.5,-167 1126.5,-137 1009.5,-137"/>
<text text-anchor="start" x="1017.5" y="-155" font-family="Helvetica,sans-Serif" font-size="10.00">GUICutRenderWindow</text>
<text text-anchor="middle" x="1068" y="-144" font-family="Helvetica,sans-Serif" font-size="10.00">::renderCutBtClick</text>
</a>
</g>
</g>
<!-- Node12&#45;&gt;Node13 -->
<g id="edge12" class="edge"><title>Node12&#45;&gt;Node13</title>
<path fill="none" stroke="midnightblue" d="M975.107,-152C986.5,-152 998.222,-152 1009.32,-152"/>
<polygon fill="midnightblue" stroke="midnightblue" points="974.764,-148.5 964.764,-152 974.764,-155.5 974.764,-148.5"/>
</g>
<!-- Node15 -->
<g id="node15" class="node"><title>Node15</title>
<g id="a_node15"><a xlink:href="classGUIAnalyzePointWindow.xhtml#aa84ea9958e8b41423f01316d01ba5151" target="_top" xlink:title="Event&#45;Tabellendeklaration für wxWidgets. ">
<polygon fill="none" stroke="black" points="842,-88 842,-118 970,-118 970,-88 842,-88"/>
<text text-anchor="start" x="850" y="-106" font-family="Helvetica,sans-Serif" font-size="10.00">GUIAnalyzePointWindow</text>
<text text-anchor="middle" x="906" y="-95" font-family="Helvetica,sans-Serif" font-size="10.00">::analyzePoint</text>
</a>
</g>
</g>
<!-- Node14&#45;&gt;Node15 -->
<g id="edge14" class="edge"><title>Node14&#45;&gt;Node15</title>
<path fill="none" stroke="midnightblue" d="M815.674,-103C824.374,-103 833.255,-103 841.879,-103"/>
<polygon fill="midnightblue" stroke="midnightblue" points="815.57,-99.5001 805.57,-103 815.569,-106.5 815.57,-99.5001"/>
</g>
<!-- Node17 -->
<g id="node17" class="node"><title>Node17</title>
<g id="a_node17"><a xlink:href="classMeshProcessor.xhtml#a060c3815db33f8e52ac620ed2239ccc9" target="_top" xlink:title="Berechnet die Temperaturverteilung für ein Objekt. ">
<polygon fill="none" stroke="black" points="843.5,-49.5 843.5,-68.5 968.5,-68.5 968.5,-49.5 843.5,-49.5"/>
<text text-anchor="middle" x="906" y="-56.5" font-family="Helvetica,sans-Serif" font-size="10.00">MeshProcessor::process</text>
</a>
</g>
</g>
<!-- Node16&#45;&gt;Node17 -->
<g id="edge16" class="edge"><title>Node16&#45;&gt;Node17</title>
<path fill="none" stroke="midnightblue" d="M799.647,-61.0131C813.617,-60.7462 828.877,-60.4546 843.337,-60.1783"/>
<polygon fill="midnightblue" stroke="midnightblue" points="799.181,-57.5213 789.25,-61.2118 799.315,-64.52 799.181,-57.5213"/>
</g>
<!-- Node18 -->
<g id="node18" class="node"><title>Node18</title>
<g id="a_node18"><a xlink:href="classAnalyzer.xhtml#a2a7b5f169f664ccd9f206e508cba78ef" target="_top" xlink:title="Ermittelt Daten für ein Objekt. ">
<polygon fill="none" stroke="black" points="1006.5,-68.5 1006.5,-87.5 1129.5,-87.5 1129.5,-68.5 1006.5,-68.5"/>
<text text-anchor="middle" x="1068" y="-75.5" font-family="Helvetica,sans-Serif" font-size="10.00">Analyzer::analyzeObject</text>
</a>
</g>
</g>
<!-- Node17&#45;&gt;Node18 -->
<g id="edge17" class="edge"><title>Node17&#45;&gt;Node18</title>
<path fill="none" stroke="midnightblue" d="M979.069,-67.5582C988.187,-68.6409 997.443,-69.7401 1006.36,-70.7987"/>
<polygon fill="midnightblue" stroke="midnightblue" points="979.203,-64.0496 968.86,-66.3459 978.378,-71.0008 979.203,-64.0496"/>
</g>
<!-- Node21 -->
<g id="node21" class="node"><title>Node21</title>
<g id="a_node21"><a xlink:href="classObjectData.xhtml#af3a850833d08eb9b45357449f455e24d" target="_top" xlink:title="Zerlegt das Objekt in Tetraeder (Schnittstelle zur Tetgen&#45;Bibliothek) und Berechnet die Temperaturver...">
<polygon fill="none" stroke="black" points="1007,-30.5 1007,-49.5 1129,-49.5 1129,-30.5 1007,-30.5"/>
<text text-anchor="middle" x="1068" y="-37.5" font-family="Helvetica,sans-Serif" font-size="10.00">ObjectData::calculateIO</text>
</a>
</g>
</g>
<!-- Node17&#45;&gt;Node21 -->
<g id="edge20" class="edge"><title>Node17&#45;&gt;Node21</title>
<path fill="none" stroke="midnightblue" d="M978.918,-50.4597C988.264,-49.35 997.758,-48.2225 1006.88,-47.1389"/>
<polygon fill="midnightblue" stroke="midnightblue" points="978.378,-46.9992 968.86,-51.6541 979.203,-53.9504 978.378,-46.9992"/>
</g>
<!-- Node19 -->
<g id="node19" class="node"><title>Node19</title>
<g id="a_node19"><a xlink:href="classGUIAnalyzeOutputWindow.xhtml#a9ea5a7cf46d6189f368315903508cecc" target="_top" xlink:title="Methode zum aktualisieren des Fensters, alle Objekte werden erneut analysiert und die aktualisierten ...">
<polygon fill="none" stroke="black" points="1174,-88 1174,-118 1308,-118 1308,-88 1174,-88"/>
<text text-anchor="start" x="1182" y="-106" font-family="Helvetica,sans-Serif" font-size="10.00">GUIAnalyzeOutputWindow</text>
<text text-anchor="middle" x="1241" y="-95" font-family="Helvetica,sans-Serif" font-size="10.00">::Update</text>
</a>
</g>
</g>
<!-- Node18&#45;&gt;Node19 -->
<g id="edge18" class="edge"><title>Node18&#45;&gt;Node19</title>
<path fill="none" stroke="midnightblue" d="M1139.97,-88.3758C1151.21,-90.0187 1162.79,-91.7122 1173.91,-93.338"/>
<polygon fill="midnightblue" stroke="midnightblue" points="1140.17,-84.868 1129.77,-86.8845 1139.16,-91.7943 1140.17,-84.868"/>
</g>
<!-- Node20 -->
<g id="node20" class="node"><title>Node20</title>
<g id="a_node20"><a xlink:href="classGUITimeline.xhtml#a099f3654aa6e7ea04df861851a0e9ec8" target="_top" xlink:title="Sucht den Zeitpunkt zwischen zwei markierten Stellen auf der Sensordaten&#45;Zeitleiste, für den der Wäremeenergiegehalt maximal wird. ">
<polygon fill="none" stroke="black" points="1172.5,-49.5 1172.5,-68.5 1309.5,-68.5 1309.5,-49.5 1172.5,-49.5"/>
<text text-anchor="middle" x="1241" y="-56.5" font-family="Helvetica,sans-Serif" font-size="10.00">GUITimeline::findMaxValue</text>
</a>
</g>
</g>
<!-- Node18&#45;&gt;Node20 -->
<g id="edge19" class="edge"><title>Node18&#45;&gt;Node20</title>
<path fill="none" stroke="midnightblue" d="M1139.96,-70.116C1150.71,-68.9215 1161.77,-67.692 1172.45,-66.5059"/>
<polygon fill="midnightblue" stroke="midnightblue" points="1139.32,-66.6648 1129.77,-71.2478 1140.1,-73.622 1139.32,-66.6648"/>
</g>
<!-- Node21&#45;&gt;Node20 -->
<g id="edge22" class="edge"><title>Node21&#45;&gt;Node20</title>
<path fill="none" stroke="midnightblue" d="M1139.23,-47.8035C1150.19,-49.021 1161.49,-50.2768 1172.39,-51.4876"/>
<polygon fill="midnightblue" stroke="midnightblue" points="1139.61,-44.3245 1129.29,-46.6987 1138.84,-51.2817 1139.61,-44.3245"/>
</g>
<!-- Node22 -->
<g id="node22" class="node"><title>Node22</title>
<g id="a_node22"><a xlink:href="classGUIMainWindow.xhtml#a0c2de30274c7f52ff74ec1217e47a9e5" target="_top" xlink:title="Berechnet die 3D&#45;Temperaturverteilung neu. ">
<polygon fill="none" stroke="black" points="1166,-0 1166,-30 1316,-30 1316,-0 1166,-0"/>
<text text-anchor="start" x="1174" y="-18" font-family="Helvetica,sans-Serif" font-size="10.00">GUIMainWindow::OnRecalcBt</text>
<text text-anchor="middle" x="1241" y="-7" font-family="Helvetica,sans-Serif" font-size="10.00">Click</text>
</a>
</g>
</g>
<!-- Node21&#45;&gt;Node22 -->
<g id="edge21" class="edge"><title>Node21&#45;&gt;Node22</title>
<path fill="none" stroke="midnightblue" d="M1139.41,-29.7058C1148.14,-28.4297 1157.09,-27.1219 1165.87,-25.838"/>
<polygon fill="midnightblue" stroke="midnightblue" points="1138.68,-26.2761 1129.29,-31.1859 1139.69,-33.2024 1138.68,-26.2761"/>
</g>
<!-- Node23&#45;&gt;Node9 -->
<g id="edge26" class="edge"><title>Node23&#45;&gt;Node9</title>
<path fill="none" stroke="midnightblue" d="M204.218,-83.6568C245.356,-83.9809 297.605,-85.2523 344,-89 357.145,-90.0619 371.194,-91.6914 384.506,-93.4682"/>
<polygon fill="midnightblue" stroke="midnightblue" points="204.03,-80.1557 194.009,-83.5939 203.987,-87.1555 204.03,-80.1557"/>
</g>
</g>
</svg>
