<?xml version="1.0" encoding="UTF-8" standalone="no"?>
<!DOCTYPE svg PUBLIC "-//W3C//DTD SVG 1.1//EN"
 "http://www.w3.org/Graphics/SVG/1.1/DTD/svg11.dtd">
<!-- Generated by graphviz version 2.26.3 (20100126.1600)
 -->
<!-- Title: sqr Pages: 1 -->
<svg width="1362pt" height="258pt"
 viewBox="0.00 0.00 1362.00 258.00" xmlns="http://www.w3.org/2000/svg" xmlns:xlink="http://www.w3.org/1999/xlink">
<g id="graph1" class="graph" transform="scale(1 1) rotate(0) translate(4 254)">
<title>sqr</title>
<!-- Node1 -->
<g id="node1" class="node"><title>Node1</title>
<polygon fill="#bfbfbf" stroke="black" points="0,-90.5 0,-111.5 30,-111.5 30,-90.5 0,-90.5"/>
<text text-anchor="middle" x="15" y="-98.5" font-family="Helvetica,sans-Serif" font-size="10.00">sqr</text>
</g>
<!-- Node2 -->
<g id="node3" class="node"><title>Node2</title>
<a xlink:href="classVector3D.xhtml#a2e3aa1d244483abcb1a8e48e47e79512" target="_top" xlink:title="Gibt die Länge des Vektors zurück. ">
<polygon fill="none" stroke="black" points="86.5,-110.5 86.5,-131.5 193.5,-131.5 193.5,-110.5 86.5,-110.5"/>
<text text-anchor="middle" x="140" y="-118.5" font-family="Helvetica,sans-Serif" font-size="10.00">Vector3D::getLength</text>
</a>
</g>
<!-- Node1&#45;&gt;Node2 -->
<g id="edge2" class="edge"><title>Node1&#45;&gt;Node2</title>
<path fill="none" stroke="midnightblue" d="M40.5197,-105.083C53.7265,-107.196 70.3736,-109.86 86.252,-112.4"/>
<polygon fill="midnightblue" stroke="midnightblue" points="40.7549,-101.576 30.3275,-103.452 39.6489,-108.488 40.7549,-101.576"/>
</g>
<!-- Node9 -->
<g id="node18" class="node"><title>Node9</title>
<a xlink:href="classInterpolator.xhtml#ad59ac6ed3822e08a67ac7d1ee88a5bd2" target="_top" xlink:title="Ermittelt den Wert für einen beliebigen Punkt in einer Ebene. ">
<polygon fill="none" stroke="black" points="416,-130.5 416,-151.5 544,-151.5 544,-130.5 416,-130.5"/>
<text text-anchor="middle" x="480" y="-138.5" font-family="Helvetica,sans-Serif" font-size="10.00">Interpolator::interpolateTri</text>
</a>
</g>
<!-- Node1&#45;&gt;Node9 -->
<g id="edge58" class="edge"><title>Node1&#45;&gt;Node9</title>
<path fill="none" stroke="midnightblue" d="M31.9722,-118.886C41.1534,-127.281 53.2158,-136.429 66,-141 196.58,-187.694 239.349,-147.718 378,-145 390.226,-144.76 403.271,-144.359 415.806,-143.901"/>
<polygon fill="midnightblue" stroke="midnightblue" points="34.3162,-116.284 24.6999,-111.837 29.444,-121.31 34.3162,-116.284"/>
</g>
<!-- Node24 -->
<g id="node51" class="node"><title>Node24</title>
<a xlink:href="classVector3D.xhtml#a42deb992ec2f44abfb5824ea4917135c" target="_top" xlink:title="Gibt den Abstand zu einem anderen Vektor zurück. ">
<polygon fill="none" stroke="black" points="250,-13.5 250,-34.5 378,-34.5 378,-13.5 250,-13.5"/>
<text text-anchor="middle" x="314" y="-21.5" font-family="Helvetica,sans-Serif" font-size="10.00">Vector3D::getDistanceTo</text>
</a>
</g>
<!-- Node1&#45;&gt;Node24 -->
<g id="edge54" class="edge"><title>Node1&#45;&gt;Node24</title>
<path fill="none" stroke="midnightblue" d="M40.4033,-97.6716C78.5751,-92.33 152.78,-80.6219 214,-63 240.861,-55.268 270.577,-43.2074 290.58,-34.5453"/>
<polygon fill="midnightblue" stroke="midnightblue" points="39.6332,-94.2442 30.1997,-99.0668 40.5817,-101.18 39.6332,-94.2442"/>
</g>
<!-- Node25 -->
<g id="node55" class="node"><title>Node25</title>
<a xlink:href="structUtils_1_1SensorPointComparator.xhtml#a2b31195024a7ec123551b2bb87043a68" target="_top" xlink:title="Berechnet den Abstand zwischen zwei Punkten mithilfe des Satzes des Pythagoras. ">
<polygon fill="none" stroke="black" points="66.5,-20 66.5,-54 213.5,-54 213.5,-20 66.5,-20"/>
<text text-anchor="start" x="74.5" y="-41" font-family="Helvetica,sans-Serif" font-size="10.00">Utils::SensorPointComparator</text>
<text text-anchor="middle" x="140" y="-28" font-family="Helvetica,sans-Serif" font-size="10.00">::getDistance_d</text>
</a>
</g>
<!-- Node1&#45;&gt;Node25 -->
<g id="edge60" class="edge"><title>Node1&#45;&gt;Node25</title>
<path fill="none" stroke="midnightblue" d="M38.104,-84.8128C46.6661,-79.1481 56.5852,-72.9675 66,-68 75.3627,-63.06 85.6883,-58.3209 95.5798,-54.0989"/>
<polygon fill="midnightblue" stroke="midnightblue" points="36.0771,-81.9582 29.7507,-90.4568 39.9961,-87.7584 36.0771,-81.9582"/>
</g>
<!-- Node3 -->
<g id="node5" class="node"><title>Node3</title>
<a xlink:href="Renderer_8cpp.xhtml#a4225af4db7b633515f133a4f40c72b33" target="_top" xlink:title="Zeichnet einen Vektor als Pfeil. ">
<polygon fill="none" stroke="black" points="281,-207.5 281,-228.5 347,-228.5 347,-207.5 281,-207.5"/>
<text text-anchor="middle" x="314" y="-215.5" font-family="Helvetica,sans-Serif" font-size="10.00">drawVector</text>
</a>
</g>
<!-- Node2&#45;&gt;Node3 -->
<g id="edge4" class="edge"><title>Node2&#45;&gt;Node3</title>
<path fill="none" stroke="midnightblue" d="M167.871,-136.537C203.534,-156.419 264.362,-190.328 295.071,-207.448"/>
<polygon fill="midnightblue" stroke="midnightblue" points="169.391,-133.378 158.952,-131.565 165.983,-139.492 169.391,-133.378"/>
</g>
<!-- Node8 -->
<g id="node16" class="node"><title>Node8</title>
<a xlink:href="classVector3D.xhtml#a4bf1dcea68296f2f38f3574242933153" target="_top" xlink:title="Gibt den Winkel zu einem anderen Vektor in RAD zurück. ">
<polygon fill="none" stroke="black" points="257.5,-91.5 257.5,-112.5 370.5,-112.5 370.5,-91.5 257.5,-91.5"/>
<text text-anchor="middle" x="314" y="-99.5" font-family="Helvetica,sans-Serif" font-size="10.00">Vector3D::getAngleTo</text>
</a>
</g>
<!-- Node2&#45;&gt;Node8 -->
<g id="edge16" class="edge"><title>Node2&#45;&gt;Node8</title>
<path fill="none" stroke="midnightblue" d="M203.757,-114.038C221.272,-112.126 240.142,-110.065 257.235,-108.199"/>
<polygon fill="midnightblue" stroke="midnightblue" points="203.186,-110.579 193.626,-115.144 203.946,-117.538 203.186,-110.579"/>
</g>
<!-- Node2&#45;&gt;Node9 -->
<g id="edge50" class="edge"><title>Node2&#45;&gt;Node9</title>
<path fill="none" stroke="midnightblue" d="M204.089,-124.77C264.745,-128.338 355.301,-133.665 415.946,-137.232"/>
<polygon fill="midnightblue" stroke="midnightblue" points="204.062,-121.262 193.874,-124.169 203.651,-128.25 204.062,-121.262"/>
</g>
<!-- Node10 -->
<g id="node20" class="node"><title>Node10</title>
<a xlink:href="classInterpolator.xhtml#a30e714ca6dff9b5745d029f95af1420a" target="_top" xlink:title="Ermittelt den Wert für einen beliebigen Punkt im Raum. ">
<polygon fill="none" stroke="black" points="414.5,-52.5 414.5,-73.5 545.5,-73.5 545.5,-52.5 414.5,-52.5"/>
<text text-anchor="middle" x="480" y="-60.5" font-family="Helvetica,sans-Serif" font-size="10.00">Interpolator::interpolateTet</text>
</a>
</g>
<!-- Node2&#45;&gt;Node10 -->
<g id="edge52" class="edge"><title>Node2&#45;&gt;Node10</title>
<path fill="none" stroke="midnightblue" d="M181.956,-107.192C192.453,-103.637 203.665,-99.7533 214,-96 230.136,-90.1401 233.272,-85.8578 250,-82 304.463,-69.4397 367.866,-64.9263 414.294,-63.4196"/>
<polygon fill="midnightblue" stroke="midnightblue" points="180.526,-103.98 172.163,-110.485 182.757,-110.615 180.526,-103.98"/>
</g>
<!-- Node4 -->
<g id="node7" class="node"><title>Node4</title>
<a xlink:href="Renderer_8cpp.xhtml#ac35d259852428046b123c635864e2197" target="_top" xlink:title="Zeichnet markante Linien zum leichteren Erfassen des Koordinatensystems. ">
<polygon fill="none" stroke="black" points="449,-188.5 449,-209.5 511,-209.5 511,-188.5 449,-188.5"/>
<text text-anchor="middle" x="480" y="-196.5" font-family="Helvetica,sans-Serif" font-size="10.00">renderGrid</text>
</a>
</g>
<!-- Node3&#45;&gt;Node4 -->
<g id="edge6" class="edge"><title>Node3&#45;&gt;Node4</title>
<path fill="none" stroke="midnightblue" d="M357.357,-213.037C386.055,-209.753 423.017,-205.522 448.829,-202.568"/>
<polygon fill="midnightblue" stroke="midnightblue" points="356.731,-209.586 347.194,-214.201 357.527,-216.541 356.731,-209.586"/>
</g>
<!-- Node7 -->
<g id="node13" class="node"><title>Node7</title>
<a xlink:href="Renderer_8cpp.xhtml#a608a02845726b8844beac12e5154c500" target="_top" xlink:title="Visualisiert Informationen über eine 2D&#45;Temperaturverteilung. ">
<polygon fill="none" stroke="black" points="429.5,-228.5 429.5,-249.5 530.5,-249.5 530.5,-228.5 429.5,-228.5"/>
<text text-anchor="middle" x="480" y="-236.5" font-family="Helvetica,sans-Serif" font-size="10.00">drawCutRenderInfo</text>
</a>
</g>
<!-- Node3&#45;&gt;Node7 -->
<g id="edge12" class="edge"><title>Node3&#45;&gt;Node7</title>
<path fill="none" stroke="midnightblue" d="M357.255,-223.472C379.281,-226.258 406.194,-229.663 429.201,-232.574"/>
<polygon fill="midnightblue" stroke="midnightblue" points="357.554,-219.982 347.194,-222.199 356.675,-226.927 357.554,-219.982"/>
</g>
<!-- Node5 -->
<g id="node9" class="node"><title>Node5</title>
<a xlink:href="classRenderer.xhtml#af7e5f8f68742f198e315fb4683a605a4" target="_top" xlink:title="Zeichnet das Objekt (Attribut object). ">
<polygon fill="none" stroke="black" points="589.5,-208.5 589.5,-229.5 678.5,-229.5 678.5,-208.5 589.5,-208.5"/>
<text text-anchor="middle" x="634" y="-216.5" font-family="Helvetica,sans-Serif" font-size="10.00">Renderer::render</text>
</a>
</g>
<!-- Node4&#45;&gt;Node5 -->
<g id="edge8" class="edge"><title>Node4&#45;&gt;Node5</title>
<path fill="none" stroke="midnightblue" d="M521.105,-204.338C542.189,-207.077 567.9,-210.416 589.457,-213.215"/>
<polygon fill="midnightblue" stroke="midnightblue" points="521.532,-200.864 511.164,-203.047 520.63,-207.806 521.532,-200.864"/>
</g>
<!-- Node6 -->
<g id="node11" class="node"><title>Node6</title>
<a xlink:href="classGUIGLCanvas.xhtml#a83f52d08591920a339150c2f45069c8f" target="_top" xlink:title="Event&#45;Tabellendeklaration für wxWidgets. ">
<polygon fill="none" stroke="black" points="722,-208.5 722,-229.5 844,-229.5 844,-208.5 722,-208.5"/>
<text text-anchor="middle" x="783" y="-216.5" font-family="Helvetica,sans-Serif" font-size="10.00">GUIGLCanvas::OnPaint</text>
</a>
</g>
<!-- Node5&#45;&gt;Node6 -->
<g id="edge10" class="edge"><title>Node5&#45;&gt;Node6</title>
<path fill="none" stroke="midnightblue" d="M688.79,-219C699.531,-219 710.86,-219 721.795,-219"/>
<polygon fill="midnightblue" stroke="midnightblue" points="688.705,-215.5 678.705,-219 688.705,-222.5 688.705,-215.5"/>
</g>
<!-- Node7&#45;&gt;Node5 -->
<g id="edge14" class="edge"><title>Node7&#45;&gt;Node5</title>
<path fill="none" stroke="midnightblue" d="M540.794,-231.105C557.015,-228.998 574.24,-226.761 589.412,-224.791"/>
<polygon fill="midnightblue" stroke="midnightblue" points="540.318,-227.637 530.852,-232.396 541.22,-234.579 540.318,-227.637"/>
</g>
<!-- Node8&#45;&gt;Node9 -->
<g id="edge18" class="edge"><title>Node8&#45;&gt;Node9</title>
<path fill="none" stroke="midnightblue" d="M368.878,-114.893C390.34,-119.935 414.646,-125.646 435.042,-130.438"/>
<polygon fill="midnightblue" stroke="midnightblue" points="369.457,-111.434 358.922,-112.554 367.856,-118.248 369.457,-111.434"/>
</g>
<!-- Node8&#45;&gt;Node10 -->
<g id="edge20" class="edge"><title>Node8&#45;&gt;Node10</title>
<path fill="none" stroke="midnightblue" d="M368.878,-89.107C390.34,-84.0648 414.646,-78.3542 435.042,-73.5624"/>
<polygon fill="midnightblue" stroke="midnightblue" points="367.856,-85.7516 358.922,-91.446 369.457,-92.5661 367.856,-85.7516"/>
</g>
<!-- Node11 -->
<g id="node22" class="node"><title>Node11</title>
<a xlink:href="namespaceUtils.xhtml#a6a0ae18a42e2d206bc1b43da27820fe2" target="_top" xlink:title="Gibt den inter/extrapolierten Wert eines Punktes zurück. ">
<polygon fill="none" stroke="black" points="582,-52.5 582,-73.5 686,-73.5 686,-52.5 582,-52.5"/>
<text text-anchor="middle" x="634" y="-60.5" font-family="Helvetica,sans-Serif" font-size="10.00">Utils::getPointValue</text>
</a>
</g>
<!-- Node10&#45;&gt;Node11 -->
<g id="edge22" class="edge"><title>Node10&#45;&gt;Node11</title>
<path fill="none" stroke="midnightblue" d="M556.028,-63C564.807,-63 573.603,-63 581.96,-63"/>
<polygon fill="midnightblue" stroke="midnightblue" points="555.757,-59.5001 545.757,-63 555.757,-66.5001 555.757,-59.5001"/>
</g>
<!-- Node12 -->
<g id="node24" class="node"><title>Node12</title>
<a xlink:href="GUICutRenderWindow_8cpp.xhtml#aeaaae4c8452680389d221d0e60a6fc33" target="_top" xlink:title="Funktion zum verteilten berechnen der 2D&#45;Temperaturverteilung. ">
<polygon fill="none" stroke="black" points="745,-9.5 745,-30.5 821,-30.5 821,-9.5 745,-9.5"/>
<text text-anchor="middle" x="783" y="-17.5" font-family="Helvetica,sans-Serif" font-size="10.00">render_thread</text>
</a>
</g>
<!-- Node11&#45;&gt;Node12 -->
<g id="edge24" class="edge"><title>Node11&#45;&gt;Node12</title>
<path fill="none" stroke="midnightblue" d="M680.26,-49.6499C701.551,-43.5054 726.454,-36.3185 746.41,-30.5594"/>
<polygon fill="midnightblue" stroke="midnightblue" points="679.087,-46.3454 670.45,-52.481 681.028,-53.071 679.087,-46.3454"/>
</g>
<!-- Node15 -->
<g id="node30" class="node"><title>Node15</title>
<a xlink:href="classAnalyzer.xhtml#a8f73ee0aa71ae395a74b43dc76b35458" target="_top" xlink:title="Ermittelt Daten für einen Punkt am aktuell ausgewählten Zeitpunkt. ">
<polygon fill="none" stroke="black" points="724.5,-95.5 724.5,-116.5 841.5,-116.5 841.5,-95.5 724.5,-95.5"/>
<text text-anchor="middle" x="783" y="-103.5" font-family="Helvetica,sans-Serif" font-size="10.00">Analyzer::analyzePoint</text>
</a>
</g>
<!-- Node11&#45;&gt;Node15 -->
<g id="edge30" class="edge"><title>Node11&#45;&gt;Node15</title>
<path fill="none" stroke="midnightblue" d="M680.26,-76.3501C701.551,-82.4946 726.454,-89.6815 746.41,-95.4406"/>
<polygon fill="midnightblue" stroke="midnightblue" points="681.028,-72.929 670.45,-73.519 679.087,-79.6546 681.028,-72.929"/>
</g>
<!-- Node17 -->
<g id="node34" class="node"><title>Node17</title>
<a xlink:href="MeshProcessor_8cpp.xhtml#ad2670c4e8381f9a0a89c65f5559ed421" target="_top" xlink:title="interpolatePoint">
<polygon fill="none" stroke="black" points="741,-52.5 741,-73.5 825,-73.5 825,-52.5 741,-52.5"/>
<text text-anchor="middle" x="783" y="-60.5" font-family="Helvetica,sans-Serif" font-size="10.00">interpolatePoint</text>
</a>
</g>
<!-- Node11&#45;&gt;Node17 -->
<g id="edge34" class="edge"><title>Node11&#45;&gt;Node17</title>
<path fill="none" stroke="midnightblue" d="M696.385,-63C711.425,-63 727.141,-63 740.993,-63"/>
<polygon fill="midnightblue" stroke="midnightblue" points="696.113,-59.5001 686.113,-63 696.113,-66.5001 696.113,-59.5001"/>
</g>
<!-- Node13 -->
<g id="node26" class="node"><title>Node13</title>
<a xlink:href="classGUICutRenderWindow.xhtml#a9eedb7088ad31f4680a77ed3a06fa60c" target="_top" xlink:title="Berechnet die 2D&#45;Temperaturverteilung als Grafik. ">
<polygon fill="none" stroke="black" points="885.5,-0 885.5,-34 1002.5,-34 1002.5,-0 885.5,-0"/>
<text text-anchor="start" x="893.5" y="-21" font-family="Helvetica,sans-Serif" font-size="10.00">GUICutRenderWindow</text>
<text text-anchor="middle" x="944" y="-8" font-family="Helvetica,sans-Serif" font-size="10.00">::renderImage</text>
</a>
</g>
<!-- Node12&#45;&gt;Node13 -->
<g id="edge26" class="edge"><title>Node12&#45;&gt;Node13</title>
<path fill="none" stroke="midnightblue" d="M831.394,-19.0982C848.366,-18.782 867.616,-18.4233 885.338,-18.0931"/>
<polygon fill="midnightblue" stroke="midnightblue" points="831.088,-15.6033 821.155,-19.289 831.218,-22.602 831.088,-15.6033"/>
</g>
<!-- Node14 -->
<g id="node28" class="node"><title>Node14</title>
<a xlink:href="classGUICutRenderWindow.xhtml#a7cd1bfbec53756a1cbbe1616b4d46c7a" target="_top" xlink:title="Behandelt das Drücken des Buttons zur Berechnung der zweidimensionalen Temperaturverteilung. ">
<polygon fill="none" stroke="black" points="1047.5,-0 1047.5,-34 1164.5,-34 1164.5,-0 1047.5,-0"/>
<text text-anchor="start" x="1055.5" y="-21" font-family="Helvetica,sans-Serif" font-size="10.00">GUICutRenderWindow</text>
<text text-anchor="middle" x="1106" y="-8" font-family="Helvetica,sans-Serif" font-size="10.00">::renderCutBtClick</text>
</a>
</g>
<!-- Node13&#45;&gt;Node14 -->
<g id="edge28" class="edge"><title>Node13&#45;&gt;Node14</title>
<path fill="none" stroke="midnightblue" d="M1013.26,-17C1024.62,-17 1036.3,-17 1047.37,-17"/>
<polygon fill="midnightblue" stroke="midnightblue" points="1012.94,-13.5001 1002.94,-17 1012.94,-20.5001 1012.94,-13.5001"/>
</g>
<!-- Node16 -->
<g id="node32" class="node"><title>Node16</title>
<a xlink:href="classGUIAnalyzePointWindow.xhtml#aa84ea9958e8b41423f01316d01ba5151" target="_top" xlink:title="Event&#45;Tabellendeklaration für wxWidgets. ">
<polygon fill="none" stroke="black" points="880,-92 880,-126 1008,-126 1008,-92 880,-92"/>
<text text-anchor="start" x="888" y="-113" font-family="Helvetica,sans-Serif" font-size="10.00">GUIAnalyzePointWindow</text>
<text text-anchor="middle" x="944" y="-100" font-family="Helvetica,sans-Serif" font-size="10.00">::analyzePoint</text>
</a>
</g>
<!-- Node15&#45;&gt;Node16 -->
<g id="edge32" class="edge"><title>Node15&#45;&gt;Node16</title>
<path fill="none" stroke="midnightblue" d="M851.602,-107.278C860.94,-107.452 870.495,-107.63 879.752,-107.803"/>
<polygon fill="midnightblue" stroke="midnightblue" points="851.644,-103.779 841.58,-107.092 851.513,-110.777 851.644,-103.779"/>
</g>
<!-- Node18 -->
<g id="node36" class="node"><title>Node18</title>
<a xlink:href="classMeshProcessor.xhtml#a060c3815db33f8e52ac620ed2239ccc9" target="_top" xlink:title="Berechnet die Temperaturverteilung für ein Objekt. ">
<polygon fill="none" stroke="black" points="881.5,-52.5 881.5,-73.5 1006.5,-73.5 1006.5,-52.5 881.5,-52.5"/>
<text text-anchor="middle" x="944" y="-60.5" font-family="Helvetica,sans-Serif" font-size="10.00">MeshProcessor::process</text>
</a>
</g>
<!-- Node17&#45;&gt;Node18 -->
<g id="edge36" class="edge"><title>Node17&#45;&gt;Node18</title>
<path fill="none" stroke="midnightblue" d="M835.657,-63C850.263,-63 866.264,-63 881.379,-63"/>
<polygon fill="midnightblue" stroke="midnightblue" points="835.301,-59.5001 825.301,-63 835.301,-66.5001 835.301,-59.5001"/>
</g>
<!-- Node19 -->
<g id="node38" class="node"><title>Node19</title>
<a xlink:href="classAnalyzer.xhtml#a2a7b5f169f664ccd9f206e508cba78ef" target="_top" xlink:title="Ermittelt Daten für ein Objekt. ">
<polygon fill="none" stroke="black" points="1044.5,-92.5 1044.5,-113.5 1167.5,-113.5 1167.5,-92.5 1044.5,-92.5"/>
<text text-anchor="middle" x="1106" y="-100.5" font-family="Helvetica,sans-Serif" font-size="10.00">Analyzer::analyzeObject</text>
</a>
</g>
<!-- Node18&#45;&gt;Node19 -->
<g id="edge38" class="edge"><title>Node18&#45;&gt;Node19</title>
<path fill="none" stroke="midnightblue" d="M996.29,-75.911C1018,-81.2718 1042.87,-87.413 1063.44,-92.4913"/>
<polygon fill="midnightblue" stroke="midnightblue" points="997.111,-72.5088 986.564,-73.5095 995.433,-79.3047 997.111,-72.5088"/>
</g>
<!-- Node22 -->
<g id="node44" class="node"><title>Node22</title>
<a xlink:href="classObjectData.xhtml#af3a850833d08eb9b45357449f455e24d" target="_top" xlink:title="Zerlegt das Objekt in Tetraeder (Schnittstelle zur Tetgen&#45;Bibliothek) und Berechnet die Temperaturver...">
<polygon fill="none" stroke="black" points="1045,-52.5 1045,-73.5 1167,-73.5 1167,-52.5 1045,-52.5"/>
<text text-anchor="middle" x="1106" y="-60.5" font-family="Helvetica,sans-Serif" font-size="10.00">ObjectData::calculateIO</text>
</a>
</g>
<!-- Node18&#45;&gt;Node22 -->
<g id="edge44" class="edge"><title>Node18&#45;&gt;Node22</title>
<path fill="none" stroke="midnightblue" d="M1016.74,-63C1026.14,-63 1035.68,-63 1044.87,-63"/>
<polygon fill="midnightblue" stroke="midnightblue" points="1016.63,-59.5001 1006.63,-63 1016.63,-66.5001 1016.63,-59.5001"/>
</g>
<!-- Node20 -->
<g id="node40" class="node"><title>Node20</title>
<a xlink:href="classGUIAnalyzeOutputWindow.xhtml#a9ea5a7cf46d6189f368315903508cecc" target="_top" xlink:title="Methode zum aktualisieren des Fensters, alle Objekte werden erneut analysiert und die aktualisierten ...">
<polygon fill="none" stroke="black" points="1212,-112 1212,-146 1346,-146 1346,-112 1212,-112"/>
<text text-anchor="start" x="1220" y="-133" font-family="Helvetica,sans-Serif" font-size="10.00">GUIAnalyzeOutputWindow</text>
<text text-anchor="middle" x="1279" y="-120" font-family="Helvetica,sans-Serif" font-size="10.00">::Update</text>
</a>
</g>
<!-- Node19&#45;&gt;Node20 -->
<g id="edge40" class="edge"><title>Node19&#45;&gt;Node20</title>
<path fill="none" stroke="midnightblue" d="M1178.13,-113.84C1189.31,-115.521 1200.83,-117.252 1211.9,-118.916"/>
<polygon fill="midnightblue" stroke="midnightblue" points="1178.38,-110.338 1167.97,-112.313 1177.34,-117.261 1178.38,-110.338"/>
</g>
<!-- Node21 -->
<g id="node42" class="node"><title>Node21</title>
<a xlink:href="classGUITimeline.xhtml#a099f3654aa6e7ea04df861851a0e9ec8" target="_top" xlink:title="Sucht den Zeitpunkt zwischen zwei markierten Stellen auf der Sensordaten&#45;Zeitleiste, für den der Wäremeenergiegehalt maximal wird. ">
<polygon fill="none" stroke="black" points="1210.5,-72.5 1210.5,-93.5 1347.5,-93.5 1347.5,-72.5 1210.5,-72.5"/>
<text text-anchor="middle" x="1279" y="-80.5" font-family="Helvetica,sans-Serif" font-size="10.00">GUITimeline::findMaxValue</text>
</a>
</g>
<!-- Node19&#45;&gt;Node21 -->
<g id="edge42" class="edge"><title>Node19&#45;&gt;Node21</title>
<path fill="none" stroke="midnightblue" d="M1178.11,-94.6638C1188.8,-93.4273 1199.8,-92.1559 1210.42,-90.9281"/>
<polygon fill="midnightblue" stroke="midnightblue" points="1177.5,-91.2107 1167.97,-95.836 1178.3,-98.1644 1177.5,-91.2107"/>
</g>
<!-- Node22&#45;&gt;Node21 -->
<g id="edge48" class="edge"><title>Node22&#45;&gt;Node21</title>
<path fill="none" stroke="midnightblue" d="M1177.71,-71.2906C1188.51,-72.539 1199.63,-73.824 1210.36,-75.0647"/>
<polygon fill="midnightblue" stroke="midnightblue" points="1177.82,-67.7792 1167.48,-70.1076 1177.01,-74.7329 1177.82,-67.7792"/>
</g>
<!-- Node23 -->
<g id="node46" class="node"><title>Node23</title>
<a xlink:href="classGUIMainWindow.xhtml#a0c2de30274c7f52ff74ec1217e47a9e5" target="_top" xlink:title="Berechnet die 3D&#45;Temperaturverteilung neu. ">
<polygon fill="none" stroke="black" points="1204,-20 1204,-54 1354,-54 1354,-20 1204,-20"/>
<text text-anchor="start" x="1212" y="-41" font-family="Helvetica,sans-Serif" font-size="10.00">GUIMainWindow::OnRecalcBt</text>
<text text-anchor="middle" x="1279" y="-28" font-family="Helvetica,sans-Serif" font-size="10.00">Click</text>
</a>
</g>
<!-- Node22&#45;&gt;Node23 -->
<g id="edge46" class="edge"><title>Node22&#45;&gt;Node23</title>
<path fill="none" stroke="midnightblue" d="M1177.53,-52.2492C1186.2,-50.9472 1195.07,-49.6141 1203.78,-48.3044"/>
<polygon fill="midnightblue" stroke="midnightblue" points="1176.85,-48.8128 1167.48,-53.7602 1177.89,-55.735 1176.85,-48.8128"/>
</g>
<!-- Node24&#45;&gt;Node10 -->
<g id="edge56" class="edge"><title>Node24&#45;&gt;Node10</title>
<path fill="none" stroke="midnightblue" d="M368.878,-36.893C390.34,-41.9352 414.646,-47.6458 435.042,-52.4376"/>
<polygon fill="midnightblue" stroke="midnightblue" points="369.457,-33.4339 358.922,-34.554 367.856,-40.2484 369.457,-33.4339"/>
</g>
</g>
</svg>
