<?xml version="1.0" encoding="UTF-8" standalone="no"?>
<!DOCTYPE svg PUBLIC "-//W3C//DTD SVG 1.1//EN"
 "http://www.w3.org/Graphics/SVG/1.1/DTD/svg11.dtd">
<!-- Generated by graphviz version 2.36.0 (20140111.2315)
 -->
<!-- Title: sqr Pages: 1 -->
<!--zoomable 256 -->
<svg id="main" version="1.1" xmlns="http://www.w3.org/2000/svg" xmlns:xlink="http://www.w3.org/1999/xlink" xml:space="preserve" onload="init(evt)">
<style type="text/css"><![CDATA[
.edge:hover path { stroke: red; }
.edge:hover polygon { stroke: red; fill: red; }
]]></style>
<script type="text/javascript"><![CDATA[
var edges = document.getElementsByTagName('g');
if (edges && edges.length) {
  for (var i=0;i<edges.length;i++) {
    if (edges[i].id.substr(0,4)=='edge') {
      edges[i].setAttribute('class','edge');
    }
  }
}
]]></script>
        <defs>
                <circle id="rim" cx="0" cy="0" r="7"/>
                <circle id="rim2" cx="0" cy="0" r="3.5"/>
                <g id="zoomPlus">
                        <use xlink:href="#rim" fill="#404040">
                                <set attributeName="fill" to="#808080" begin="zoomplus.mouseover" end="zoomplus.mouseout"/>
                        </use>
                        <path d="M-4,0h8M0,-4v8" fill="none" stroke="white" stroke-width="1.5" pointer-events="none"/>
                </g>
                <g id="zoomMin">
                        <use xlink:href="#rim" fill="#404040">
                                <set attributeName="fill" to="#808080" begin="zoomminus.mouseover" end="zoomminus.mouseout"/>
                        </use>
                        <path d="M-4,0h8" fill="none" stroke="white" stroke-width="1.5" pointer-events="none"/>
                </g>
                <g id="dirArrow">
                        <path fill="none" stroke="white" stroke-width="1.5" d="M0,-3.0v7 M-2.5,-0.5L0,-3.0L2.5,-0.5"/>
                </g>
               <g id="resetDef">
                       <use xlink:href="#rim2" fill="#404040">
                               <set attributeName="fill" to="#808080" begin="reset.mouseover" end="reset.mouseout"/>
                       </use>
               </g>
        </defs>

<script type="text/javascript">
var viewWidth = 1328;
var viewHeight = 256;
var sectionId = 'dynsection-2';
</script>
<script xlink:href="svgpan.js"/>
<svg id="graph" class="graph">
<g id="viewport">
<title>sqr</title>
<!-- Node1 -->
<g id="node1" class="node"><title>Node1</title>
<polygon fill="#bfbfbf" stroke="black" points="0,-102.5 0,-121.5 30,-121.5 30,-102.5 0,-102.5"/>
<text text-anchor="middle" x="15" y="-109.5" font-family="Helvetica,sans-Serif" font-size="10.00">sqr</text>
</g>
<!-- Node2 -->
<g id="node2" class="node"><title>Node2</title>
<g id="a_node2"><a xlink:href="classVector3D.xhtml#a2e3aa1d244483abcb1a8e48e47e79512" target="_top" xlink:title="Gibt die Länge des Vektors zurück. ">
<polygon fill="none" stroke="black" points="76.5,-131.5 76.5,-150.5 183.5,-150.5 183.5,-131.5 76.5,-131.5"/>
<text text-anchor="middle" x="130" y="-138.5" font-family="Helvetica,sans-Serif" font-size="10.00">Vector3D::getLength</text>
</a>
</g>
</g>
<!-- Node1&#45;&gt;Node2 -->
<g id="edge1" class="edge"><title>Node1&#45;&gt;Node2</title>
<path fill="none" stroke="midnightblue" d="M40.2888,-118.233C55.2243,-122.066 74.6695,-127.057 91.5468,-131.388"/>
<polygon fill="midnightblue" stroke="midnightblue" points="40.8677,-114.769 30.3115,-115.673 39.1276,-121.549 40.8677,-114.769"/>
</g>
<!-- Node24 -->
<g id="node24" class="node"><title>Node24</title>
<g id="a_node24"><a xlink:href="classVector3D.xhtml#a42deb992ec2f44abfb5824ea4917135c" target="_top" xlink:title="Gibt den Abstand zu einem anderen Vektor zurück. ">
<polygon fill="none" stroke="black" points="66,-74.5 66,-93.5 194,-93.5 194,-74.5 66,-74.5"/>
<text text-anchor="middle" x="130" y="-81.5" font-family="Helvetica,sans-Serif" font-size="10.00">Vector3D::getDistanceTo</text>
</a>
</g>
</g>
<!-- Node1&#45;&gt;Node24 -->
<g id="edge27" class="edge"><title>Node1&#45;&gt;Node24</title>
<path fill="none" stroke="midnightblue" d="M40.1203,-106.023C54.7909,-102.388 73.858,-97.6635 90.5684,-93.5229"/>
<polygon fill="midnightblue" stroke="midnightblue" points="39.1762,-102.651 30.3115,-108.454 40.8598,-109.446 39.1762,-102.651"/>
</g>
<!-- Node3 -->
<g id="node3" class="node"><title>Node3</title>
<g id="a_node3"><a xlink:href="Renderer_8cpp.xhtml#a4225af4db7b633515f133a4f40c72b33" target="_top" xlink:title="Zeichnet einen Vektor als Pfeil. ">
<polygon fill="none" stroke="black" points="254,-207.5 254,-226.5 320,-226.5 320,-207.5 254,-207.5"/>
<text text-anchor="middle" x="287" y="-214.5" font-family="Helvetica,sans-Serif" font-size="10.00">drawVector</text>
</a>
</g>
</g>
<!-- Node2&#45;&gt;Node3 -->
<g id="edge2" class="edge"><title>Node2&#45;&gt;Node3</title>
<path fill="none" stroke="midnightblue" d="M157.329,-155.554C177.114,-166.312 204.993,-181.097 230,-193 240.601,-198.046 252.537,-203.229 262.658,-207.48"/>
<polygon fill="midnightblue" stroke="midnightblue" points="158.768,-152.352 148.315,-150.626 155.411,-158.494 158.768,-152.352"/>
</g>
<!-- Node8 -->
<g id="node8" class="node"><title>Node8</title>
<g id="a_node8"><a xlink:href="classVector3D.xhtml#a4bf1dcea68296f2f38f3574242933153" target="_top" xlink:title="Gibt den Winkel zu einem anderen Vektor in RAD zurück. ">
<polygon fill="none" stroke="black" points="230.5,-131.5 230.5,-150.5 343.5,-150.5 343.5,-131.5 230.5,-131.5"/>
<text text-anchor="middle" x="287" y="-138.5" font-family="Helvetica,sans-Serif" font-size="10.00">Vector3D::getAngleTo</text>
</a>
</g>
</g>
<!-- Node2&#45;&gt;Node8 -->
<g id="edge8" class="edge"><title>Node2&#45;&gt;Node8</title>
<path fill="none" stroke="midnightblue" d="M193.92,-141C206.008,-141 218.586,-141 230.422,-141"/>
<polygon fill="midnightblue" stroke="midnightblue" points="193.909,-137.5 183.909,-141 193.909,-144.5 193.909,-137.5"/>
</g>
<!-- Node9 -->
<g id="node9" class="node"><title>Node9</title>
<g id="a_node9"><a xlink:href="classInterpolator.xhtml#ad59ac6ed3822e08a67ac7d1ee88a5bd2" target="_top" xlink:title="Ermittelt den Wert für einen beliebigen Punkt in einer Ebene. ">
<polygon fill="none" stroke="black" points="382,-131.5 382,-150.5 510,-150.5 510,-131.5 382,-131.5"/>
<text text-anchor="middle" x="446" y="-138.5" font-family="Helvetica,sans-Serif" font-size="10.00">Interpolator::interpolateTri</text>
</a>
</g>
</g>
<!-- Node2&#45;&gt;Node9 -->
<g id="edge25" class="edge"><title>Node2&#45;&gt;Node9</title>
<path fill="none" stroke="midnightblue" d="M181.161,-152.538C196.724,-155.601 213.993,-158.478 230,-160 280.439,-164.796 293.552,-164.704 344,-160 363.897,-158.145 385.716,-154.276 403.967,-150.511"/>
<polygon fill="midnightblue" stroke="midnightblue" points="181.708,-149.078 171.211,-150.511 180.31,-155.937 181.708,-149.078"/>
</g>
<!-- Node10 -->
<g id="node10" class="node"><title>Node10</title>
<g id="a_node10"><a xlink:href="classInterpolator.xhtml#a30e714ca6dff9b5745d029f95af1420a" target="_top" xlink:title="Ermittelt den Wert für einen beliebigen Punkt im Raum. ">
<polygon fill="none" stroke="black" points="380.5,-93.5 380.5,-112.5 511.5,-112.5 511.5,-93.5 380.5,-93.5"/>
<text text-anchor="middle" x="446" y="-100.5" font-family="Helvetica,sans-Serif" font-size="10.00">Interpolator::interpolateTet</text>
</a>
</g>
</g>
<!-- Node2&#45;&gt;Node10 -->
<g id="edge26" class="edge"><title>Node2&#45;&gt;Node10</title>
<path fill="none" stroke="midnightblue" d="M185.879,-129.44C200.193,-126.707 215.634,-124.008 230,-122 280.286,-114.971 337.572,-110.06 380.361,-106.994"/>
<polygon fill="midnightblue" stroke="midnightblue" points="184.833,-126.078 175.687,-131.426 186.172,-132.949 184.833,-126.078"/>
</g>
<!-- Node4 -->
<g id="node4" class="node"><title>Node4</title>
<g id="a_node4"><a xlink:href="Renderer_8cpp.xhtml#ac35d259852428046b123c635864e2197" target="_top" xlink:title="Zeichnet markante Linien zum leichteren Erfassen des Koordinatensystems. ">
<polygon fill="none" stroke="black" points="415,-228.5 415,-247.5 477,-247.5 477,-228.5 415,-228.5"/>
<text text-anchor="middle" x="446" y="-235.5" font-family="Helvetica,sans-Serif" font-size="10.00">renderGrid</text>
</a>
</g>
</g>
<!-- Node3&#45;&gt;Node4 -->
<g id="edge3" class="edge"><title>Node3&#45;&gt;Node4</title>
<path fill="none" stroke="midnightblue" d="M330.351,-222.665C357.011,-226.231 390.788,-230.749 414.757,-233.955"/>
<polygon fill="midnightblue" stroke="midnightblue" points="330.526,-219.157 320.15,-221.3 329.598,-226.095 330.526,-219.157"/>
</g>
<!-- Node7 -->
<g id="node7" class="node"><title>Node7</title>
<g id="a_node7"><a xlink:href="Renderer_8cpp.xhtml#a608a02845726b8844beac12e5154c500" target="_top" xlink:title="Visualisiert Informationen über eine 2D&#45;Temperaturverteilung. ">
<polygon fill="none" stroke="black" points="395.5,-190.5 395.5,-209.5 496.5,-209.5 496.5,-190.5 395.5,-190.5"/>
<text text-anchor="middle" x="446" y="-197.5" font-family="Helvetica,sans-Serif" font-size="10.00">drawCutRenderInfo</text>
</a>
</g>
</g>
<!-- Node3&#45;&gt;Node7 -->
<g id="edge6" class="edge"><title>Node3&#45;&gt;Node7</title>
<path fill="none" stroke="midnightblue" d="M330.223,-212.428C350.263,-210.258 374.346,-207.65 395.266,-205.385"/>
<polygon fill="midnightblue" stroke="midnightblue" points="329.715,-208.963 320.15,-213.519 330.469,-215.922 329.715,-208.963"/>
</g>
<!-- Node5 -->
<g id="node5" class="node"><title>Node5</title>
<g id="a_node5"><a xlink:href="classRenderer.xhtml#af7e5f8f68742f198e315fb4683a605a4" target="_top" xlink:title="Zeichnet das Objekt (Attribut object). ">
<polygon fill="none" stroke="black" points="555.5,-190.5 555.5,-209.5 644.5,-209.5 644.5,-190.5 555.5,-190.5"/>
<text text-anchor="middle" x="600" y="-197.5" font-family="Helvetica,sans-Serif" font-size="10.00">Renderer::render</text>
</a>
</g>
</g>
<!-- Node4&#45;&gt;Node5 -->
<g id="edge4" class="edge"><title>Node4&#45;&gt;Node5</title>
<path fill="none" stroke="midnightblue" d="M486.784,-228.054C509.688,-222.328 538.32,-215.17 560.929,-209.518"/>
<polygon fill="midnightblue" stroke="midnightblue" points="485.883,-224.671 477.03,-230.492 487.581,-231.462 485.883,-224.671"/>
</g>
<!-- Node6 -->
<g id="node6" class="node"><title>Node6</title>
<g id="a_node6"><a xlink:href="classGUIGLCanvas.xhtml#a83f52d08591920a339150c2f45069c8f" target="_top" xlink:title="Event&#45;Tabellendeklaration für wxWidgets. ">
<polygon fill="none" stroke="black" points="688,-190.5 688,-209.5 810,-209.5 810,-190.5 688,-190.5"/>
<text text-anchor="middle" x="749" y="-197.5" font-family="Helvetica,sans-Serif" font-size="10.00">GUIGLCanvas::OnPaint</text>
</a>
</g>
</g>
<!-- Node5&#45;&gt;Node6 -->
<g id="edge5" class="edge"><title>Node5&#45;&gt;Node6</title>
<path fill="none" stroke="midnightblue" d="M654.798,-200C665.552,-200 676.913,-200 687.865,-200"/>
<polygon fill="midnightblue" stroke="midnightblue" points="654.707,-196.5 644.707,-200 654.707,-203.5 654.707,-196.5"/>
</g>
<!-- Node7&#45;&gt;Node5 -->
<g id="edge7" class="edge"><title>Node7&#45;&gt;Node5</title>
<path fill="none" stroke="midnightblue" d="M507.151,-200C523.214,-200 540.264,-200 555.258,-200"/>
<polygon fill="midnightblue" stroke="midnightblue" points="506.771,-196.5 496.77,-200 506.77,-203.5 506.771,-196.5"/>
</g>
<!-- Node8&#45;&gt;Node9 -->
<g id="edge9" class="edge"><title>Node8&#45;&gt;Node9</title>
<path fill="none" stroke="midnightblue" d="M354.072,-141C363.288,-141 372.739,-141 381.898,-141"/>
<polygon fill="midnightblue" stroke="midnightblue" points="353.794,-137.5 343.794,-141 353.794,-144.5 353.794,-137.5"/>
</g>
<!-- Node8&#45;&gt;Node10 -->
<g id="edge10" class="edge"><title>Node8&#45;&gt;Node10</title>
<path fill="none" stroke="midnightblue" d="M337.447,-129.032C359.448,-123.707 384.994,-117.524 405.667,-112.52"/>
<polygon fill="midnightblue" stroke="midnightblue" points="336.514,-125.657 327.618,-131.411 338.16,-132.46 336.514,-125.657"/>
</g>
<!-- Node11 -->
<g id="node11" class="node"><title>Node11</title>
<g id="a_node11"><a xlink:href="namespaceUtils.xhtml#a6a0ae18a42e2d206bc1b43da27820fe2" target="_top" xlink:title="Gibt den inter/extrapolierten Wert eines Punktes zurück. ">
<polygon fill="none" stroke="black" points="548,-93.5 548,-112.5 652,-112.5 652,-93.5 548,-93.5"/>
<text text-anchor="middle" x="600" y="-100.5" font-family="Helvetica,sans-Serif" font-size="10.00">Utils::getPointValue</text>
</a>
</g>
</g>
<!-- Node10&#45;&gt;Node11 -->
<g id="edge11" class="edge"><title>Node10&#45;&gt;Node11</title>
<path fill="none" stroke="midnightblue" d="M522.04,-103C530.706,-103 539.388,-103 547.636,-103"/>
<polygon fill="midnightblue" stroke="midnightblue" points="521.903,-99.5001 511.903,-103 521.903,-106.5 521.903,-99.5001"/>
</g>
<!-- Node12 -->
<g id="node12" class="node"><title>Node12</title>
<g id="a_node12"><a xlink:href="GUICutRenderWindow_8cpp.xhtml#aeaaae4c8452680389d221d0e60a6fc33" target="_top" xlink:title="Funktion zum verteilten berechnen der 2D&#45;Temperaturverteilung. ">
<polygon fill="none" stroke="black" points="711,-136.5 711,-155.5 787,-155.5 787,-136.5 711,-136.5"/>
<text text-anchor="middle" x="749" y="-143.5" font-family="Helvetica,sans-Serif" font-size="10.00">render_thread</text>
</a>
</g>
</g>
<!-- Node11&#45;&gt;Node12 -->
<g id="edge12" class="edge"><title>Node11&#45;&gt;Node12</title>
<path fill="none" stroke="midnightblue" d="M643.445,-115.416C666.383,-122.126 694.266,-130.282 715.467,-136.484"/>
<polygon fill="midnightblue" stroke="midnightblue" points="644.205,-111.991 633.624,-112.543 642.239,-118.71 644.205,-111.991"/>
</g>
<!-- Node15 -->
<g id="node15" class="node"><title>Node15</title>
<g id="a_node15"><a xlink:href="classAnalyzer.xhtml#a8f73ee0aa71ae395a74b43dc76b35458" target="_top" xlink:title="Ermittelt Daten für einen Punkt am aktuell ausgewählten Zeitpunkt. ">
<polygon fill="none" stroke="black" points="690.5,-93.5 690.5,-112.5 807.5,-112.5 807.5,-93.5 690.5,-93.5"/>
<text text-anchor="middle" x="749" y="-100.5" font-family="Helvetica,sans-Serif" font-size="10.00">Analyzer::analyzePoint</text>
</a>
</g>
</g>
<!-- Node11&#45;&gt;Node15 -->
<g id="edge15" class="edge"><title>Node11&#45;&gt;Node15</title>
<path fill="none" stroke="midnightblue" d="M662.016,-103C671.373,-103 681.009,-103 690.291,-103"/>
<polygon fill="midnightblue" stroke="midnightblue" points="662.001,-99.5001 652.001,-103 662.001,-106.5 662.001,-99.5001"/>
</g>
<!-- Node17 -->
<g id="node17" class="node"><title>Node17</title>
<g id="a_node17"><a xlink:href="MeshProcessor_8cpp.xhtml#ad2670c4e8381f9a0a89c65f5559ed421" target="_top" xlink:title="interpolatePoint">
<polygon fill="none" stroke="black" points="707,-52.5 707,-71.5 791,-71.5 791,-52.5 707,-52.5"/>
<text text-anchor="middle" x="749" y="-59.5" font-family="Helvetica,sans-Serif" font-size="10.00">interpolatePoint</text>
</a>
</g>
</g>
<!-- Node11&#45;&gt;Node17 -->
<g id="edge17" class="edge"><title>Node11&#45;&gt;Node17</title>
<path fill="none" stroke="midnightblue" d="M644.896,-90.7569C666.962,-84.6024 693.303,-77.2557 713.836,-71.5286"/>
<polygon fill="midnightblue" stroke="midnightblue" points="643.786,-87.4327 635.094,-93.4907 645.667,-94.1754 643.786,-87.4327"/>
</g>
<!-- Node13 -->
<g id="node13" class="node"><title>Node13</title>
<g id="a_node13"><a xlink:href="classGUICutRenderWindow.xhtml#a9eedb7088ad31f4680a77ed3a06fa60c" target="_top" xlink:title="Berechnet die 2D&#45;Temperaturverteilung als Grafik. ">
<polygon fill="none" stroke="black" points="851.5,-137 851.5,-167 968.5,-167 968.5,-137 851.5,-137"/>
<text text-anchor="start" x="859.5" y="-155" font-family="Helvetica,sans-Serif" font-size="10.00">GUICutRenderWindow</text>
<text text-anchor="middle" x="910" y="-144" font-family="Helvetica,sans-Serif" font-size="10.00">::renderImage</text>
</a>
</g>
</g>
<!-- Node12&#45;&gt;Node13 -->
<g id="edge13" class="edge"><title>Node12&#45;&gt;Node13</title>
<path fill="none" stroke="midnightblue" d="M797.493,-147.792C814.439,-148.432 833.713,-149.159 851.415,-149.827"/>
<polygon fill="midnightblue" stroke="midnightblue" points="797.403,-144.286 787.278,-147.407 797.139,-151.281 797.403,-144.286"/>
</g>
<!-- Node14 -->
<g id="node14" class="node"><title>Node14</title>
<g id="a_node14"><a xlink:href="classGUICutRenderWindow.xhtml#a7cd1bfbec53756a1cbbe1616b4d46c7a" target="_top" xlink:title="Behandelt das Drücken des Buttons zur Berechnung der zweidimensionalen Temperaturverteilung. ">
<polygon fill="none" stroke="black" points="1013.5,-137 1013.5,-167 1130.5,-167 1130.5,-137 1013.5,-137"/>
<text text-anchor="start" x="1021.5" y="-155" font-family="Helvetica,sans-Serif" font-size="10.00">GUICutRenderWindow</text>
<text text-anchor="middle" x="1072" y="-144" font-family="Helvetica,sans-Serif" font-size="10.00">::renderCutBtClick</text>
</a>
</g>
</g>
<!-- Node13&#45;&gt;Node14 -->
<g id="edge14" class="edge"><title>Node13&#45;&gt;Node14</title>
<path fill="none" stroke="midnightblue" d="M979.107,-152C990.5,-152 1002.22,-152 1013.32,-152"/>
<polygon fill="midnightblue" stroke="midnightblue" points="978.764,-148.5 968.764,-152 978.764,-155.5 978.764,-148.5"/>
</g>
<!-- Node16 -->
<g id="node16" class="node"><title>Node16</title>
<g id="a_node16"><a xlink:href="classGUIAnalyzePointWindow.xhtml#aa84ea9958e8b41423f01316d01ba5151" target="_top" xlink:title="Event&#45;Tabellendeklaration für wxWidgets. ">
<polygon fill="none" stroke="black" points="846,-88 846,-118 974,-118 974,-88 846,-88"/>
<text text-anchor="start" x="854" y="-106" font-family="Helvetica,sans-Serif" font-size="10.00">GUIAnalyzePointWindow</text>
<text text-anchor="middle" x="910" y="-95" font-family="Helvetica,sans-Serif" font-size="10.00">::analyzePoint</text>
</a>
</g>
</g>
<!-- Node15&#45;&gt;Node16 -->
<g id="edge16" class="edge"><title>Node15&#45;&gt;Node16</title>
<path fill="none" stroke="midnightblue" d="M818.119,-103C827.314,-103 836.717,-103 845.821,-103"/>
<polygon fill="midnightblue" stroke="midnightblue" points="817.852,-99.5001 807.852,-103 817.852,-106.5 817.852,-99.5001"/>
</g>
<!-- Node18 -->
<g id="node18" class="node"><title>Node18</title>
<g id="a_node18"><a xlink:href="classMeshProcessor.xhtml#a060c3815db33f8e52ac620ed2239ccc9" target="_top" xlink:title="Berechnet die Temperaturverteilung für ein Objekt. ">
<polygon fill="none" stroke="black" points="847.5,-49.5 847.5,-68.5 972.5,-68.5 972.5,-49.5 847.5,-49.5"/>
<text text-anchor="middle" x="910" y="-56.5" font-family="Helvetica,sans-Serif" font-size="10.00">MeshProcessor::process</text>
</a>
</g>
</g>
<!-- Node17&#45;&gt;Node18 -->
<g id="edge18" class="edge"><title>Node17&#45;&gt;Node18</title>
<path fill="none" stroke="midnightblue" d="M801.708,-61.0244C816.314,-60.7488 832.35,-60.4462 847.471,-60.1609"/>
<polygon fill="midnightblue" stroke="midnightblue" points="801.292,-57.5315 791.36,-61.2196 801.425,-64.5303 801.292,-57.5315"/>
</g>
<!-- Node19 -->
<g id="node19" class="node"><title>Node19</title>
<g id="a_node19"><a xlink:href="classAnalyzer.xhtml#a2a7b5f169f664ccd9f206e508cba78ef" target="_top" xlink:title="Ermittelt Daten für ein Objekt. ">
<polygon fill="none" stroke="black" points="1010.5,-68.5 1010.5,-87.5 1133.5,-87.5 1133.5,-68.5 1010.5,-68.5"/>
<text text-anchor="middle" x="1072" y="-75.5" font-family="Helvetica,sans-Serif" font-size="10.00">Analyzer::analyzeObject</text>
</a>
</g>
</g>
<!-- Node18&#45;&gt;Node19 -->
<g id="edge19" class="edge"><title>Node18&#45;&gt;Node19</title>
<path fill="none" stroke="midnightblue" d="M983.069,-67.5582C992.187,-68.6409 1001.44,-69.7401 1010.36,-70.7987"/>
<polygon fill="midnightblue" stroke="midnightblue" points="983.203,-64.0496 972.86,-66.3459 982.378,-71.0008 983.203,-64.0496"/>
</g>
<!-- Node22 -->
<g id="node22" class="node"><title>Node22</title>
<g id="a_node22"><a xlink:href="classObjectData.xhtml#af3a850833d08eb9b45357449f455e24d" target="_top" xlink:title="Zerlegt das Objekt in Tetraeder (Schnittstelle zur Tetgen&#45;Bibliothek) und Berechnet die Temperaturver...">
<polygon fill="none" stroke="black" points="1011,-30.5 1011,-49.5 1133,-49.5 1133,-30.5 1011,-30.5"/>
<text text-anchor="middle" x="1072" y="-37.5" font-family="Helvetica,sans-Serif" font-size="10.00">ObjectData::calculateIO</text>
</a>
</g>
</g>
<!-- Node18&#45;&gt;Node22 -->
<g id="edge22" class="edge"><title>Node18&#45;&gt;Node22</title>
<path fill="none" stroke="midnightblue" d="M982.918,-50.4597C992.264,-49.35 1001.76,-48.2225 1010.88,-47.1389"/>
<polygon fill="midnightblue" stroke="midnightblue" points="982.378,-46.9992 972.86,-51.6541 983.203,-53.9504 982.378,-46.9992"/>
</g>
<!-- Node20 -->
<g id="node20" class="node"><title>Node20</title>
<g id="a_node20"><a xlink:href="classGUIAnalyzeOutputWindow.xhtml#a9ea5a7cf46d6189f368315903508cecc" target="_top" xlink:title="Methode zum aktualisieren des Fensters, alle Objekte werden erneut analysiert und die aktualisierten ...">
<polygon fill="none" stroke="black" points="1178,-88 1178,-118 1312,-118 1312,-88 1178,-88"/>
<text text-anchor="start" x="1186" y="-106" font-family="Helvetica,sans-Serif" font-size="10.00">GUIAnalyzeOutputWindow</text>
<text text-anchor="middle" x="1245" y="-95" font-family="Helvetica,sans-Serif" font-size="10.00">::Update</text>
</a>
</g>
</g>
<!-- Node19&#45;&gt;Node20 -->
<g id="edge20" class="edge"><title>Node19&#45;&gt;Node20</title>
<path fill="none" stroke="midnightblue" d="M1143.97,-88.3758C1155.21,-90.0187 1166.79,-91.7122 1177.91,-93.338"/>
<polygon fill="midnightblue" stroke="midnightblue" points="1144.17,-84.868 1133.77,-86.8845 1143.16,-91.7943 1144.17,-84.868"/>
</g>
<!-- Node21 -->
<g id="node21" class="node"><title>Node21</title>
<g id="a_node21"><a xlink:href="classGUITimeline.xhtml#a099f3654aa6e7ea04df861851a0e9ec8" target="_top" xlink:title="Sucht den Zeitpunkt zwischen zwei markierten Stellen auf der Sensordaten&#45;Zeitleiste, für den der Wäremeenergiegehalt maximal wird. ">
<polygon fill="none" stroke="black" points="1176.5,-49.5 1176.5,-68.5 1313.5,-68.5 1313.5,-49.5 1176.5,-49.5"/>
<text text-anchor="middle" x="1245" y="-56.5" font-family="Helvetica,sans-Serif" font-size="10.00">GUITimeline::findMaxValue</text>
</a>
</g>
</g>
<!-- Node19&#45;&gt;Node21 -->
<g id="edge21" class="edge"><title>Node19&#45;&gt;Node21</title>
<path fill="none" stroke="midnightblue" d="M1143.96,-70.116C1154.71,-68.9215 1165.77,-67.692 1176.45,-66.5059"/>
<polygon fill="midnightblue" stroke="midnightblue" points="1143.32,-66.6648 1133.77,-71.2478 1144.1,-73.622 1143.32,-66.6648"/>
</g>
<!-- Node22&#45;&gt;Node21 -->
<g id="edge24" class="edge"><title>Node22&#45;&gt;Node21</title>
<path fill="none" stroke="midnightblue" d="M1143.23,-47.8035C1154.19,-49.021 1165.49,-50.2768 1176.39,-51.4876"/>
<polygon fill="midnightblue" stroke="midnightblue" points="1143.61,-44.3245 1133.29,-46.6987 1142.84,-51.2817 1143.61,-44.3245"/>
</g>
<!-- Node23 -->
<g id="node23" class="node"><title>Node23</title>
<g id="a_node23"><a xlink:href="classGUIMainWindow.xhtml#a0c2de30274c7f52ff74ec1217e47a9e5" target="_top" xlink:title="Berechnet die 3D&#45;Temperaturverteilung neu. ">
<polygon fill="none" stroke="black" points="1170,-0 1170,-30 1320,-30 1320,-0 1170,-0"/>
<text text-anchor="start" x="1178" y="-18" font-family="Helvetica,sans-Serif" font-size="10.00">GUIMainWindow::OnRecalcBt</text>
<text text-anchor="middle" x="1245" y="-7" font-family="Helvetica,sans-Serif" font-size="10.00">Click</text>
</a>
</g>
</g>
<!-- Node22&#45;&gt;Node23 -->
<g id="edge23" class="edge"><title>Node22&#45;&gt;Node23</title>
<path fill="none" stroke="midnightblue" d="M1143.41,-29.7058C1152.14,-28.4297 1161.09,-27.1219 1169.87,-25.838"/>
<polygon fill="midnightblue" stroke="midnightblue" points="1142.68,-26.2761 1133.29,-31.1859 1143.69,-33.2024 1142.68,-26.2761"/>
</g>
<!-- Node24&#45;&gt;Node10 -->
<g id="edge28" class="edge"><title>Node24&#45;&gt;Node10</title>
<path fill="none" stroke="midnightblue" d="M204.218,-83.6568C245.356,-83.9809 297.605,-85.2523 344,-89 357.145,-90.0619 371.194,-91.6914 384.506,-93.4682"/>
<polygon fill="midnightblue" stroke="midnightblue" points="204.03,-80.1557 194.009,-83.5939 203.987,-87.1555 204.03,-80.1557"/>
</g>
</g>
</svg>
        <g id="navigator" transform="translate(0 0)" fill="#404254">
                <rect fill="#f2f5e9" fill-opacity="0.5" stroke="#606060" stroke-width=".5" x="0" y="0" width="60" height="60"/>
                <use id="zoomplus" xlink:href="#zoomPlus" x="17" y="9" onmousedown="handleZoom(evt,'in')"/>
                <use id="zoomminus" xlink:href="#zoomMin" x="42" y="9" onmousedown="handleZoom(evt,'out')"/>
                <use id="reset" xlink:href="#resetDef" x="30" y="36" onmousedown="handleReset()"/>
                <g id="arrowUp" xlink:href="#dirArrow" transform="translate(30 24)" onmousedown="handlePan(0,-1)">
                  <use xlink:href="#rim" fill="#404040">
                        <set attributeName="fill" to="#808080" begin="arrowUp.mouseover" end="arrowUp.mouseout"/>
                  </use>
                  <path fill="none" stroke="white" stroke-width="1.5" d="M0,-3.0v7 M-2.5,-0.5L0,-3.0L2.5,-0.5"/>
                </g>
                <g id="arrowRight" xlink:href="#dirArrow" transform="rotate(90) translate(36 -43)" onmousedown="handlePan(1,0)">
                  <use xlink:href="#rim" fill="#404040">
                        <set attributeName="fill" to="#808080" begin="arrowRight.mouseover" end="arrowRight.mouseout"/>
                  </use>
                  <path fill="none" stroke="white" stroke-width="1.5" d="M0,-3.0v7 M-2.5,-0.5L0,-3.0L2.5,-0.5"/>
                </g>
                <g id="arrowDown" xlink:href="#dirArrow" transform="rotate(180) translate(-30 -48)" onmousedown="handlePan(0,1)">
                  <use xlink:href="#rim" fill="#404040">
                        <set attributeName="fill" to="#808080" begin="arrowDown.mouseover" end="arrowDown.mouseout"/>
                  </use>
                  <path fill="none" stroke="white" stroke-width="1.5" d="M0,-3.0v7 M-2.5,-0.5L0,-3.0L2.5,-0.5"/>
                </g>
                <g id="arrowLeft" xlink:href="#dirArrow" transform="rotate(270) translate(-36 17)" onmousedown="handlePan(-1,0)">
                  <use xlink:href="#rim" fill="#404040">
                        <set attributeName="fill" to="#808080" begin="arrowLeft.mouseover" end="arrowLeft.mouseout"/>
                  </use>
                  <path fill="none" stroke="white" stroke-width="1.5" d="M0,-3.0v7 M-2.5,-0.5L0,-3.0L2.5,-0.5"/>
                </g>
        </g>
        <svg viewBox="0 0 15 15" width="100%" height="30px" preserveAspectRatio="xMaxYMin meet">
         <g id="arrow_out" transform="scale(0.3 0.3)">
          <a xlink:href="GeometryClasses_8cpp_a73527f20206c906e9f333e0f233de13e_icgraph_org.svg" target="_base">
           <rect id="button" ry="5" rx="5" y="6" x="6" height="38" width="38"
                fill="#f2f5e9" fill-opacity="0.5" stroke="#606060" stroke-width="1.0"/>
           <path id="arrow"
             d="M 11.500037,31.436501 C 11.940474,20.09759 22.043105,11.32322 32.158766,21.979434 L 37.068811,17.246167 C 37.068811,17.246167 37.088388,32 37.088388,32 L 22.160133,31.978069 C 22.160133,31.978069 26.997745,27.140456 26.997745,27.140456 C 18.528582,18.264221 13.291696,25.230495 11.500037,31.436501 z"
             style="fill:#404040;"/>
          </a>
         </g>
        </svg>
</svg>
