<?xml version="1.0" encoding="UTF-8" standalone="no"?>
<!DOCTYPE svg PUBLIC "-//W3C//DTD SVG 1.1//EN"
 "http://www.w3.org/Graphics/SVG/1.1/DTD/svg11.dtd">
<!-- Generated by graphviz version 2.26.3 (20100126.1600)
 -->
<!-- Title: sqr Pages: 1 -->
<!--zoomable 229 -->
<svg id="main" version="1.1" xmlns="http://www.w3.org/2000/svg" xmlns:xlink="http://www.w3.org/1999/xlink" xml:space="preserve" onload="init(evt)">
<style type="text/css"><![CDATA[
.edge:hover path { stroke: red; }
.edge:hover polygon { stroke: red; fill: red; }
]]></style>
<script type="text/javascript"><![CDATA[
var edges = document.getElementsByTagName('g');
if (edges && edges.length) {
  for (var i=0;i<edges.length;i++) {
    if (edges[i].id.substr(0,4)=='edge') {
      edges[i].setAttribute('class','edge');
    }
  }
}
]]></script>
        <defs>
                <circle id="rim" cx="0" cy="0" r="7"/>
                <circle id="rim2" cx="0" cy="0" r="3.5"/>
                <g id="zoomPlus">
                        <use xlink:href="#rim" fill="#404040">
                                <set attributeName="fill" to="#808080" begin="zoomplus.mouseover" end="zoomplus.mouseout"/>
                        </use>
                        <path d="M-4,0h8M0,-4v8" fill="none" stroke="white" stroke-width="1.5" pointer-events="none"/>
                </g>
                <g id="zoomMin">
                        <use xlink:href="#rim" fill="#404040">
                                <set attributeName="fill" to="#808080" begin="zoomminus.mouseover" end="zoomminus.mouseout"/>
                        </use>
                        <path d="M-4,0h8" fill="none" stroke="white" stroke-width="1.5" pointer-events="none"/>
                </g>
                <g id="dirArrow">
                        <path fill="none" stroke="white" stroke-width="1.5" d="M0,-3.0v7 M-2.5,-0.5L0,-3.0L2.5,-0.5"/>
                </g>
               <g id="resetDef">
                       <use xlink:href="#rim2" fill="#404040">
                               <set attributeName="fill" to="#808080" begin="reset.mouseover" end="reset.mouseout"/>
                       </use>
               </g>
        </defs>

<script type="text/javascript">
var viewWidth = 1552;
var viewHeight = 229;
var sectionId = 'dynsection-2';
</script>
<script xlink:href="svgpan.js"/>
<svg id="graph" class="graph">
<g id="viewport">
<title>sqr</title>
<!-- Node1 -->
<g id="node1" class="node"><title>Node1</title>
<polygon fill="#bfbfbf" stroke="black" points="0,-121.5 0,-142.5 30,-142.5 30,-121.5 0,-121.5"/>
<text text-anchor="middle" x="15" y="-129.5" font-family="Helvetica,sans-Serif" font-size="10.00">sqr</text>
</g>
<!-- Node2 -->
<g id="node3" class="node"><title>Node2</title>
<a xlink:href="classVector3D.xhtml#a2e3aa1d244483abcb1a8e48e47e79512" target="_top" xlink:title="Gibt die Länge des Vektors zurück. ">
<polygon fill="none" stroke="black" points="86.5,-141.5 86.5,-162.5 193.5,-162.5 193.5,-141.5 86.5,-141.5"/>
<text text-anchor="middle" x="140" y="-149.5" font-family="Helvetica,sans-Serif" font-size="10.00">Vector3D::getLength</text>
</a>
</g>
<!-- Node1&#45;&gt;Node2 -->
<g id="edge2" class="edge"><title>Node1&#45;&gt;Node2</title>
<path fill="none" stroke="midnightblue" d="M40.5197,-136.083C53.7265,-138.196 70.3736,-140.86 86.252,-143.4"/>
<polygon fill="midnightblue" stroke="midnightblue" points="40.7549,-132.576 30.3275,-134.452 39.6489,-139.488 40.7549,-132.576"/>
</g>
<!-- Node7 -->
<g id="node13" class="node"><title>Node7</title>
<a xlink:href="classInterpolator.xhtml#ad59ac6ed3822e08a67ac7d1ee88a5bd2" target="_top" xlink:title="Ermittelt den Wert für einen beliebigen Punkt in einer Ebene. ">
<polygon fill="none" stroke="black" points="416,-199.5 416,-220.5 544,-220.5 544,-199.5 416,-199.5"/>
<text text-anchor="middle" x="480" y="-207.5" font-family="Helvetica,sans-Serif" font-size="10.00">Interpolator::interpolateTri</text>
</a>
</g>
<!-- Node1&#45;&gt;Node7 -->
<g id="edge52" class="edge"><title>Node1&#45;&gt;Node7</title>
<path fill="none" stroke="midnightblue" d="M33.3889,-149.744C42.5342,-157.655 54.1497,-166.427 66,-172 192.511,-231.494 238.205,-213.37 378,-212 390.221,-211.88 403.263,-211.68 415.798,-211.451"/>
<polygon fill="midnightblue" stroke="midnightblue" points="35.5141,-146.947 25.7488,-142.837 30.8198,-152.14 35.5141,-146.947"/>
</g>
<!-- Node23 -->
<g id="node47" class="node"><title>Node23</title>
<a xlink:href="classVector3D.xhtml#a42deb992ec2f44abfb5824ea4917135c" target="_top" xlink:title="Gibt den Abstand zu einem anderen Vektor zurück. ">
<polygon fill="none" stroke="black" points="250,-42.5 250,-63.5 378,-63.5 378,-42.5 250,-42.5"/>
<text text-anchor="middle" x="314" y="-50.5" font-family="Helvetica,sans-Serif" font-size="10.00">Vector3D::getDistanceTo</text>
</a>
</g>
<!-- Node1&#45;&gt;Node23 -->
<g id="edge48" class="edge"><title>Node1&#45;&gt;Node23</title>
<path fill="none" stroke="midnightblue" d="M40.5132,-129.912C79.1124,-126.142 154.192,-116.401 214,-94 231.346,-87.5028 233.053,-80.4765 250,-73 257.988,-69.476 266.789,-66.3003 275.24,-63.5711"/>
<polygon fill="midnightblue" stroke="midnightblue" points="39.8362,-126.46 30.1987,-130.861 40.4772,-133.43 39.8362,-126.46"/>
</g>
<!-- Node24 -->
<g id="node51" class="node"><title>Node24</title>
<a xlink:href="structUtils_1_1SensorPointComparator.xhtml#a2b31195024a7ec123551b2bb87043a68" target="_top" xlink:title="Berechnet den Abstand zwischen zwei Punkten mithilfe des Satzes des Pythagoras. ">
<polygon fill="none" stroke="black" points="66.5,-51 66.5,-85 213.5,-85 213.5,-51 66.5,-51"/>
<text text-anchor="start" x="74.5" y="-72" font-family="Helvetica,sans-Serif" font-size="10.00">Utils::SensorPointComparator</text>
<text text-anchor="middle" x="140" y="-59" font-family="Helvetica,sans-Serif" font-size="10.00">::getDistance_d</text>
</a>
</g>
<!-- Node1&#45;&gt;Node24 -->
<g id="edge54" class="edge"><title>Node1&#45;&gt;Node24</title>
<path fill="none" stroke="midnightblue" d="M38.104,-115.813C46.6661,-110.148 56.5852,-103.968 66,-99 75.3627,-94.06 85.6883,-89.3209 95.5798,-85.0989"/>
<polygon fill="midnightblue" stroke="midnightblue" points="36.0771,-112.958 29.7507,-121.457 39.9961,-118.758 36.0771,-112.958"/>
</g>
<!-- Node3 -->
<g id="node5" class="node"><title>Node3</title>
<a xlink:href="Renderer_8cpp.xhtml#a4225af4db7b633515f133a4f40c72b33" target="_top" xlink:title="drawVector">
<polygon fill="none" stroke="black" points="281,-82.5 281,-103.5 347,-103.5 347,-82.5 281,-82.5"/>
<text text-anchor="middle" x="314" y="-90.5" font-family="Helvetica,sans-Serif" font-size="10.00">drawVector</text>
</a>
</g>
<!-- Node2&#45;&gt;Node3 -->
<g id="edge4" class="edge"><title>Node2&#45;&gt;Node3</title>
<path fill="none" stroke="midnightblue" d="M180.928,-138.189C191.688,-134.553 203.282,-130.632 214,-127 237.098,-119.172 263.187,-110.3 282.925,-103.583"/>
<polygon fill="midnightblue" stroke="midnightblue" points="179.685,-134.914 171.33,-141.43 181.925,-141.546 179.685,-134.914"/>
</g>
<!-- Node6 -->
<g id="node11" class="node"><title>Node6</title>
<a xlink:href="classVector3D.xhtml#a4bf1dcea68296f2f38f3574242933153" target="_top" xlink:title="Gibt den Winkel zu einem anderen Vektor in RAD zurück. ">
<polygon fill="none" stroke="black" points="257.5,-160.5 257.5,-181.5 370.5,-181.5 370.5,-160.5 257.5,-160.5"/>
<text text-anchor="middle" x="314" y="-168.5" font-family="Helvetica,sans-Serif" font-size="10.00">Vector3D::getAngleTo</text>
</a>
</g>
<!-- Node2&#45;&gt;Node6 -->
<g id="edge10" class="edge"><title>Node2&#45;&gt;Node6</title>
<path fill="none" stroke="midnightblue" d="M203.757,-158.962C221.272,-160.874 240.142,-162.935 257.235,-164.801"/>
<polygon fill="midnightblue" stroke="midnightblue" points="203.946,-155.462 193.626,-157.856 203.186,-162.421 203.946,-155.462"/>
</g>
<!-- Node2&#45;&gt;Node7 -->
<g id="edge44" class="edge"><title>Node2&#45;&gt;Node7</title>
<path fill="none" stroke="midnightblue" d="M173.268,-166.333C194.756,-174.951 223.544,-185.318 250,-191 305.234,-202.863 369.397,-207.422 415.898,-209.124"/>
<polygon fill="midnightblue" stroke="midnightblue" points="174.524,-163.065 163.943,-162.52 171.874,-169.544 174.524,-163.065"/>
</g>
<!-- Node8 -->
<g id="node15" class="node"><title>Node8</title>
<a xlink:href="classInterpolator.xhtml#a30e714ca6dff9b5745d029f95af1420a" target="_top" xlink:title="Ermittelt den Wert für einen beliebigen Punkt im Raum. ">
<polygon fill="none" stroke="black" points="414.5,-121.5 414.5,-142.5 545.5,-142.5 545.5,-121.5 414.5,-121.5"/>
<text text-anchor="middle" x="480" y="-129.5" font-family="Helvetica,sans-Serif" font-size="10.00">Interpolator::interpolateTet</text>
</a>
</g>
<!-- Node2&#45;&gt;Node8 -->
<g id="edge46" class="edge"><title>Node2&#45;&gt;Node8</title>
<path fill="none" stroke="midnightblue" d="M204.008,-148.235C264.166,-144.696 353.788,-139.424 414.445,-135.856"/>
<polygon fill="midnightblue" stroke="midnightblue" points="203.651,-144.75 193.874,-148.831 204.062,-151.738 203.651,-144.75"/>
</g>
<!-- Node4 -->
<g id="node7" class="node"><title>Node4</title>
<a xlink:href="classRenderer.xhtml#af7e5f8f68742f198e315fb4683a605a4" target="_top" xlink:title="Zeichnet das Objekt (Attribut object). ">
<polygon fill="none" stroke="black" points="435.5,-81.5 435.5,-102.5 524.5,-102.5 524.5,-81.5 435.5,-81.5"/>
<text text-anchor="middle" x="480" y="-89.5" font-family="Helvetica,sans-Serif" font-size="10.00">Renderer::render</text>
</a>
</g>
<!-- Node3&#45;&gt;Node4 -->
<g id="edge6" class="edge"><title>Node3&#45;&gt;Node4</title>
<path fill="none" stroke="midnightblue" d="M357.413,-92.7385C381.366,-92.5942 411.063,-92.4153 435.228,-92.2697"/>
<polygon fill="midnightblue" stroke="midnightblue" points="357.172,-89.2398 347.194,-92.8 357.215,-96.2396 357.172,-89.2398"/>
</g>
<!-- Node5 -->
<g id="node9" class="node"><title>Node5</title>
<a xlink:href="classGUIGLCanvas.xhtml#a83f52d08591920a339150c2f45069c8f" target="_top" xlink:title="Event&#45;Tabellendeklaration für wxWidgets. ">
<polygon fill="none" stroke="black" points="582,-81.5 582,-102.5 704,-102.5 704,-81.5 582,-81.5"/>
<text text-anchor="middle" x="643" y="-89.5" font-family="Helvetica,sans-Serif" font-size="10.00">GUIGLCanvas::OnPaint</text>
</a>
</g>
<!-- Node4&#45;&gt;Node5 -->
<g id="edge8" class="edge"><title>Node4&#45;&gt;Node5</title>
<path fill="none" stroke="midnightblue" d="M534.735,-92C549.82,-92 566.281,-92 581.711,-92"/>
<polygon fill="midnightblue" stroke="midnightblue" points="534.541,-88.5001 524.54,-92 534.54,-95.5001 534.541,-88.5001"/>
</g>
<!-- Node6&#45;&gt;Node7 -->
<g id="edge12" class="edge"><title>Node6&#45;&gt;Node7</title>
<path fill="none" stroke="midnightblue" d="M368.878,-183.893C390.34,-188.935 414.646,-194.646 435.042,-199.438"/>
<polygon fill="midnightblue" stroke="midnightblue" points="369.457,-180.434 358.922,-181.554 367.856,-187.248 369.457,-180.434"/>
</g>
<!-- Node6&#45;&gt;Node8 -->
<g id="edge14" class="edge"><title>Node6&#45;&gt;Node8</title>
<path fill="none" stroke="midnightblue" d="M368.878,-158.107C390.34,-153.065 414.646,-147.354 435.042,-142.562"/>
<polygon fill="midnightblue" stroke="midnightblue" points="367.856,-154.752 358.922,-160.446 369.457,-161.566 367.856,-154.752"/>
</g>
<!-- Node9 -->
<g id="node17" class="node"><title>Node9</title>
<a xlink:href="namespaceUtils.xhtml#a6a0ae18a42e2d206bc1b43da27820fe2" target="_top" xlink:title="Gibt den inter/extrapolierten Wert eines Punktes zurück. ">
<polygon fill="none" stroke="black" points="591,-121.5 591,-142.5 695,-142.5 695,-121.5 591,-121.5"/>
<text text-anchor="middle" x="643" y="-129.5" font-family="Helvetica,sans-Serif" font-size="10.00">Utils::getPointValue</text>
</a>
</g>
<!-- Node8&#45;&gt;Node9 -->
<g id="edge16" class="edge"><title>Node8&#45;&gt;Node9</title>
<path fill="none" stroke="midnightblue" d="M556.127,-132C567.917,-132 579.859,-132 590.958,-132"/>
<polygon fill="midnightblue" stroke="midnightblue" points="555.829,-128.5 545.828,-132 555.828,-135.5 555.829,-128.5"/>
</g>
<!-- Node10 -->
<g id="node19" class="node"><title>Node10</title>
<a xlink:href="GUICutRenderWindow_8cpp.xhtml#aeaaae4c8452680389d221d0e60a6fc33" target="_top" xlink:title="render_thread">
<polygon fill="none" stroke="black" points="761,-167.5 761,-188.5 837,-188.5 837,-167.5 761,-167.5"/>
<text text-anchor="middle" x="799" y="-175.5" font-family="Helvetica,sans-Serif" font-size="10.00">render_thread</text>
</a>
</g>
<!-- Node9&#45;&gt;Node10 -->
<g id="edge18" class="edge"><title>Node9&#45;&gt;Node10</title>
<path fill="none" stroke="midnightblue" d="M688.668,-145.466C712.496,-152.492 741.214,-160.96 763.377,-167.496"/>
<polygon fill="midnightblue" stroke="midnightblue" points="689.371,-142.025 678.79,-142.553 687.391,-148.739 689.371,-142.025"/>
</g>
<!-- Node13 -->
<g id="node25" class="node"><title>Node13</title>
<a xlink:href="classAnalyzer.xhtml#a8f73ee0aa71ae395a74b43dc76b35458" target="_top" xlink:title="Ermittelt Daten für einen Punkt am aktuell ausgewählten Zeitpunkt. ">
<polygon fill="none" stroke="black" points="740.5,-121.5 740.5,-142.5 857.5,-142.5 857.5,-121.5 740.5,-121.5"/>
<text text-anchor="middle" x="799" y="-129.5" font-family="Helvetica,sans-Serif" font-size="10.00">Analyzer::analyzePoint</text>
</a>
</g>
<!-- Node9&#45;&gt;Node13 -->
<g id="edge24" class="edge"><title>Node9&#45;&gt;Node13</title>
<path fill="none" stroke="midnightblue" d="M705.712,-132C717.133,-132 729.01,-132 740.31,-132"/>
<polygon fill="midnightblue" stroke="midnightblue" points="705.38,-128.5 695.38,-132 705.38,-135.5 705.38,-128.5"/>
</g>
<!-- Node15 -->
<g id="node29" class="node"><title>Node15</title>
<a xlink:href="MeshProcessor_8cpp.xhtml#ad2670c4e8381f9a0a89c65f5559ed421" target="_top" xlink:title="interpolatePoint">
<polygon fill="none" stroke="black" points="757,-78.5 757,-99.5 841,-99.5 841,-78.5 757,-78.5"/>
<text text-anchor="middle" x="799" y="-86.5" font-family="Helvetica,sans-Serif" font-size="10.00">interpolatePoint</text>
</a>
</g>
<!-- Node9&#45;&gt;Node15 -->
<g id="edge28" class="edge"><title>Node9&#45;&gt;Node15</title>
<path fill="none" stroke="midnightblue" d="M690.829,-118.816C713.252,-112.636 739.609,-105.371 760.691,-99.5594"/>
<polygon fill="midnightblue" stroke="midnightblue" points="689.872,-115.449 681.162,-121.481 691.732,-122.198 689.872,-115.449"/>
</g>
<!-- Node11 -->
<g id="node21" class="node"><title>Node11</title>
<a xlink:href="classGUICutRenderWindow.xhtml#a9eedb7088ad31f4680a77ed3a06fa60c" target="_top" xlink:title="Berechnet die 2D&#45;Temperaturverteilung als Grafik. ">
<polygon fill="none" stroke="black" points="899.5,-167 899.5,-201 1016.5,-201 1016.5,-167 899.5,-167"/>
<text text-anchor="start" x="907.5" y="-188" font-family="Helvetica,sans-Serif" font-size="10.00">GUICutRenderWindow</text>
<text text-anchor="middle" x="958" y="-175" font-family="Helvetica,sans-Serif" font-size="10.00">::renderImage</text>
</a>
</g>
<!-- Node10&#45;&gt;Node11 -->
<g id="edge20" class="edge"><title>Node10&#45;&gt;Node11</title>
<path fill="none" stroke="midnightblue" d="M847.51,-179.831C863.887,-180.449 882.343,-181.145 899.414,-181.789"/>
<polygon fill="midnightblue" stroke="midnightblue" points="847.209,-176.317 837.084,-179.437 846.945,-183.312 847.209,-176.317"/>
</g>
<!-- Node12 -->
<g id="node23" class="node"><title>Node12</title>
<a xlink:href="classGUICutRenderWindow.xhtml#a7cd1bfbec53756a1cbbe1616b4d46c7a" target="_top" xlink:title="Behandelt das Drücken des Buttons zur Berechnung der zweidimensionalen Temperaturverteilung. ">
<polygon fill="none" stroke="black" points="1061.5,-167 1061.5,-201 1178.5,-201 1178.5,-167 1061.5,-167"/>
<text text-anchor="start" x="1069.5" y="-188" font-family="Helvetica,sans-Serif" font-size="10.00">GUICutRenderWindow</text>
<text text-anchor="middle" x="1120" y="-175" font-family="Helvetica,sans-Serif" font-size="10.00">::renderCutBtClick</text>
</a>
</g>
<!-- Node11&#45;&gt;Node12 -->
<g id="edge22" class="edge"><title>Node11&#45;&gt;Node12</title>
<path fill="none" stroke="midnightblue" d="M1027.26,-184C1038.62,-184 1050.3,-184 1061.37,-184"/>
<polygon fill="midnightblue" stroke="midnightblue" points="1026.94,-180.5 1016.94,-184 1026.94,-187.5 1026.94,-180.5"/>
</g>
<!-- Node14 -->
<g id="node27" class="node"><title>Node14</title>
<a xlink:href="classGUIAnalyzePointWindow.xhtml#aa84ea9958e8b41423f01316d01ba5151" target="_top" xlink:title="Event&#45;Tabellendeklaration für wxWidgets. ">
<polygon fill="none" stroke="black" points="894,-115 894,-149 1022,-149 1022,-115 894,-115"/>
<text text-anchor="start" x="902" y="-136" font-family="Helvetica,sans-Serif" font-size="10.00">GUIAnalyzePointWindow</text>
<text text-anchor="middle" x="958" y="-123" font-family="Helvetica,sans-Serif" font-size="10.00">::analyzePoint</text>
</a>
</g>
<!-- Node13&#45;&gt;Node14 -->
<g id="edge26" class="edge"><title>Node13&#45;&gt;Node14</title>
<path fill="none" stroke="midnightblue" d="M867.811,-132C876.466,-132 885.294,-132 893.874,-132"/>
<polygon fill="midnightblue" stroke="midnightblue" points="867.754,-128.5 857.754,-132 867.754,-135.5 867.754,-128.5"/>
</g>
<!-- Node16 -->
<g id="node31" class="node"><title>Node16</title>
<a xlink:href="classMeshProcessor.xhtml#a060c3815db33f8e52ac620ed2239ccc9" target="_top" xlink:title="Berechnet die Temperaturverteilung für ein Objekt. ">
<polygon fill="none" stroke="black" points="895.5,-75.5 895.5,-96.5 1020.5,-96.5 1020.5,-75.5 895.5,-75.5"/>
<text text-anchor="middle" x="958" y="-83.5" font-family="Helvetica,sans-Serif" font-size="10.00">MeshProcessor::process</text>
</a>
</g>
<!-- Node15&#45;&gt;Node16 -->
<g id="edge30" class="edge"><title>Node15&#45;&gt;Node16</title>
<path fill="none" stroke="midnightblue" d="M851.595,-88.0076C865.564,-87.7441 880.789,-87.4568 895.241,-87.1841"/>
<polygon fill="midnightblue" stroke="midnightblue" points="851.124,-84.5158 841.192,-88.2039 851.256,-91.5146 851.124,-84.5158"/>
</g>
<!-- Node17 -->
<g id="node33" class="node"><title>Node17</title>
<a xlink:href="classAnalyzer.xhtml#a2a7b5f169f664ccd9f206e508cba78ef" target="_top" xlink:title="Ermittelt Daten für ein Objekt. ">
<polygon fill="none" stroke="black" points="1058.5,-52.5 1058.5,-73.5 1181.5,-73.5 1181.5,-52.5 1058.5,-52.5"/>
<text text-anchor="middle" x="1120" y="-60.5" font-family="Helvetica,sans-Serif" font-size="10.00">Analyzer::analyzeObject</text>
</a>
</g>
<!-- Node16&#45;&gt;Node17 -->
<g id="edge32" class="edge"><title>Node16&#45;&gt;Node17</title>
<path fill="none" stroke="midnightblue" d="M1030.6,-75.6926C1039.86,-74.3779 1049.27,-73.0422 1058.33,-71.7552"/>
<polygon fill="midnightblue" stroke="midnightblue" points="1030.04,-72.2366 1020.63,-77.1076 1031.03,-79.1671 1030.04,-72.2366"/>
</g>
<!-- Node21 -->
<g id="node41" class="node"><title>Node21</title>
<a xlink:href="classObjectData.xhtml#af3a850833d08eb9b45357449f455e24d" target="_top" xlink:title="Zerlegt das Objekt in Tetraeder (Schnittstelle zur Tetgen&#45;Bibliothek) und Berechnet die Temperaturver...">
<polygon fill="none" stroke="black" points="1059,-95.5 1059,-116.5 1181,-116.5 1181,-95.5 1059,-95.5"/>
<text text-anchor="middle" x="1120" y="-103.5" font-family="Helvetica,sans-Serif" font-size="10.00">ObjectData::calculateIO</text>
</a>
</g>
<!-- Node16&#45;&gt;Node21 -->
<g id="edge40" class="edge"><title>Node16&#45;&gt;Node21</title>
<path fill="none" stroke="midnightblue" d="M1030.74,-94.9808C1040.14,-96.1407 1049.68,-97.319 1058.87,-98.4526"/>
<polygon fill="midnightblue" stroke="midnightblue" points="1030.99,-91.4842 1020.63,-93.7325 1030.13,-98.4315 1030.99,-91.4842"/>
</g>
<!-- Node18 -->
<g id="node35" class="node"><title>Node18</title>
<a xlink:href="classGUIAnalyzeOutputWindow.xhtml#a9ea5a7cf46d6189f368315903508cecc" target="_top" xlink:title="Methode zum aktualisieren des Fensters, alle Objekte werden erneut analysiert und die aktualisierten ...">
<polygon fill="none" stroke="black" points="1226,-0 1226,-34 1360,-34 1360,-0 1226,-0"/>
<text text-anchor="start" x="1234" y="-21" font-family="Helvetica,sans-Serif" font-size="10.00">GUIAnalyzeOutputWindow</text>
<text text-anchor="middle" x="1293" y="-8" font-family="Helvetica,sans-Serif" font-size="10.00">::Update</text>
</a>
</g>
<!-- Node17&#45;&gt;Node18 -->
<g id="edge34" class="edge"><title>Node17&#45;&gt;Node18</title>
<path fill="none" stroke="midnightblue" d="M1169.36,-49.8759C1187.84,-44.9617 1209.11,-39.305 1228.75,-34.0845"/>
<polygon fill="midnightblue" stroke="midnightblue" points="1168.45,-46.4945 1159.69,-52.4467 1170.25,-53.2594 1168.45,-46.4945"/>
</g>
<!-- Node20 -->
<g id="node39" class="node"><title>Node20</title>
<a xlink:href="classGUITimeline.xhtml#a099f3654aa6e7ea04df861851a0e9ec8" target="_top" xlink:title="Sucht den Zeitpunkt zwischen zwei markierten Stellen auf der Sensordaten&#45;Zeitleiste, für den der Wäremeenergiegehalt maximal wird. ">
<polygon fill="none" stroke="black" points="1224.5,-52.5 1224.5,-73.5 1361.5,-73.5 1361.5,-52.5 1224.5,-52.5"/>
<text text-anchor="middle" x="1293" y="-60.5" font-family="Helvetica,sans-Serif" font-size="10.00">GUITimeline::findMaxValue</text>
</a>
</g>
<!-- Node17&#45;&gt;Node20 -->
<g id="edge38" class="edge"><title>Node17&#45;&gt;Node20</title>
<path fill="none" stroke="midnightblue" d="M1192.11,-63C1202.8,-63 1213.8,-63 1224.42,-63"/>
<polygon fill="midnightblue" stroke="midnightblue" points="1191.97,-59.5001 1181.97,-63 1191.97,-66.5001 1191.97,-59.5001"/>
</g>
<!-- Node19 -->
<g id="node37" class="node"><title>Node19</title>
<a xlink:href="classGUIAnalyzeOutputWindow.xhtml#af9407245a6b2a0478579c4d592a31e63" target="_top" xlink:title="Der Konstruktor. ">
<polygon fill="none" stroke="black" points="1404,-0 1404,-34 1544,-34 1544,-0 1404,-0"/>
<text text-anchor="start" x="1412" y="-21" font-family="Helvetica,sans-Serif" font-size="10.00">GUIAnalyzeOutputWindow</text>
<text text-anchor="middle" x="1474" y="-8" font-family="Helvetica,sans-Serif" font-size="10.00">::GUIAnalyzeOutputWindow</text>
</a>
</g>
<!-- Node18&#45;&gt;Node19 -->
<g id="edge36" class="edge"><title>Node18&#45;&gt;Node19</title>
<path fill="none" stroke="midnightblue" d="M1370.3,-17C1381.47,-17 1392.92,-17 1403.94,-17"/>
<polygon fill="midnightblue" stroke="midnightblue" points="1370.14,-13.5001 1360.14,-17 1370.14,-20.5001 1370.14,-13.5001"/>
</g>
<!-- Node22 -->
<g id="node43" class="node"><title>Node22</title>
<a xlink:href="classGUIMainWindow.xhtml#a0c2de30274c7f52ff74ec1217e47a9e5" target="_top" xlink:title="Berechnet die 3D&#45;Temperaturverteilung neu. ">
<polygon fill="none" stroke="black" points="1218,-92 1218,-126 1368,-126 1368,-92 1218,-92"/>
<text text-anchor="start" x="1226" y="-113" font-family="Helvetica,sans-Serif" font-size="10.00">GUIMainWindow::OnRecalcBt</text>
<text text-anchor="middle" x="1293" y="-100" font-family="Helvetica,sans-Serif" font-size="10.00">Click</text>
</a>
</g>
<!-- Node21&#45;&gt;Node22 -->
<g id="edge42" class="edge"><title>Node21&#45;&gt;Node22</title>
<path fill="none" stroke="midnightblue" d="M1191.53,-107.24C1200.2,-107.391 1209.07,-107.545 1217.78,-107.696"/>
<polygon fill="midnightblue" stroke="midnightblue" points="1191.54,-103.74 1181.48,-107.066 1191.42,-110.739 1191.54,-103.74"/>
</g>
<!-- Node23&#45;&gt;Node8 -->
<g id="edge50" class="edge"><title>Node23&#45;&gt;Node8</title>
<path fill="none" stroke="midnightblue" d="M367.887,-67.5036C371.406,-69.1561 374.812,-70.983 378,-73 397.934,-85.6126 394.012,-99.4737 414,-112 420.087,-115.815 426.946,-118.94 433.882,-121.489"/>
<polygon fill="midnightblue" stroke="midnightblue" points="368.961,-64.1588 358.385,-63.5256 366.258,-70.6158 368.961,-64.1588"/>
</g>
</g>
</svg>
        <g id="navigator" transform="translate(0 0)" fill="#404254">
                <rect fill="#f2f5e9" fill-opacity="0.5" stroke="#606060" stroke-width=".5" x="0" y="0" width="60" height="60"/>
                <use id="zoomplus" xlink:href="#zoomPlus" x="17" y="9" onmousedown="handleZoom(evt,'in')"/>
                <use id="zoomminus" xlink:href="#zoomMin" x="42" y="9" onmousedown="handleZoom(evt,'out')"/>
                <use id="reset" xlink:href="#resetDef" x="30" y="36" onmousedown="handleReset()"/>
                <g id="arrowUp" xlink:href="#dirArrow" transform="translate(30 24)" onmousedown="handlePan(0,-1)">
                  <use xlink:href="#rim" fill="#404040">
                        <set attributeName="fill" to="#808080" begin="arrowUp.mouseover" end="arrowUp.mouseout"/>
                  </use>
                  <path fill="none" stroke="white" stroke-width="1.5" d="M0,-3.0v7 M-2.5,-0.5L0,-3.0L2.5,-0.5"/>
                </g>
                <g id="arrowRight" xlink:href="#dirArrow" transform="rotate(90) translate(36 -43)" onmousedown="handlePan(1,0)">
                  <use xlink:href="#rim" fill="#404040">
                        <set attributeName="fill" to="#808080" begin="arrowRight.mouseover" end="arrowRight.mouseout"/>
                  </use>
                  <path fill="none" stroke="white" stroke-width="1.5" d="M0,-3.0v7 M-2.5,-0.5L0,-3.0L2.5,-0.5"/>
                </g>
                <g id="arrowDown" xlink:href="#dirArrow" transform="rotate(180) translate(-30 -48)" onmousedown="handlePan(0,1)">
                  <use xlink:href="#rim" fill="#404040">
                        <set attributeName="fill" to="#808080" begin="arrowDown.mouseover" end="arrowDown.mouseout"/>
                  </use>
                  <path fill="none" stroke="white" stroke-width="1.5" d="M0,-3.0v7 M-2.5,-0.5L0,-3.0L2.5,-0.5"/>
                </g>
                <g id="arrowLeft" xlink:href="#dirArrow" transform="rotate(270) translate(-36 17)" onmousedown="handlePan(-1,0)">
                  <use xlink:href="#rim" fill="#404040">
                        <set attributeName="fill" to="#808080" begin="arrowLeft.mouseover" end="arrowLeft.mouseout"/>
                  </use>
                  <path fill="none" stroke="white" stroke-width="1.5" d="M0,-3.0v7 M-2.5,-0.5L0,-3.0L2.5,-0.5"/>
                </g>
        </g>
        <svg viewBox="0 0 15 15" width="100%" height="30px" preserveAspectRatio="xMaxYMin meet">
         <g id="arrow_out" transform="scale(0.3 0.3)">
          <a xlink:href="GeometryClasses_8cpp_a73527f20206c906e9f333e0f233de13e_icgraph_org.svg" target="_base">
           <rect id="button" ry="5" rx="5" y="6" x="6" height="38" width="38"
                fill="#f2f5e9" fill-opacity="0.5" stroke="#606060" stroke-width="1.0"/>
           <path id="arrow"
             d="M 11.500037,31.436501 C 11.940474,20.09759 22.043105,11.32322 32.158766,21.979434 L 37.068811,17.246167 C 37.068811,17.246167 37.088388,32 37.088388,32 L 22.160133,31.978069 C 22.160133,31.978069 26.997745,27.140456 26.997745,27.140456 C 18.528582,18.264221 13.291696,25.230495 11.500037,31.436501 z"
             style="fill:#404040;"/>
          </a>
         </g>
        </svg>
</svg>
