<?xml version="1.0" encoding="UTF-8" standalone="no"?>
<!DOCTYPE svg PUBLIC "-//W3C//DTD SVG 1.1//EN"
 "http://www.w3.org/Graphics/SVG/1.1/DTD/svg11.dtd">
<!-- Generated by graphviz version 2.26.3 (20100126.1600)
 -->
<!-- Title: simpleanalyzer&#45;gui/src/GUI/GUIAnalyzeOutputWindow.h Pages: 1 -->
<svg width="876pt" height="188pt"
 viewBox="0.00 0.00 876.00 188.00" xmlns="http://www.w3.org/2000/svg" xmlns:xlink="http://www.w3.org/1999/xlink">
<g id="graph1" class="graph" transform="scale(1 1) rotate(0) translate(4 184)">
<title>simpleanalyzer&#45;gui/src/GUI/GUIAnalyzeOutputWindow.h</title>
<!-- Node1 -->
<g id="node1" class="node"><title>Node1</title>
<polygon fill="#bfbfbf" stroke="black" points="183.5,-145 183.5,-179 366.5,-179 366.5,-145 183.5,-145"/>
<text text-anchor="start" x="191.5" y="-166" font-family="Helvetica,sans-Serif" font-size="10.00">simpleanalyzer&#45;gui</text>
<text text-anchor="middle" x="275" y="-153" font-family="Helvetica,sans-Serif" font-size="10.00">/src/GUI/GUIAnalyzeOutputWindow.h</text>
</g>
<!-- Node2 -->
<g id="node3" class="node"><title>Node2</title>
<a xlink:href="GUIMainWindow_8h.xhtml" target="_top" xlink:title="simpleanalyzer&#45;gui\l/src/GUI/GUIMainWindow.h">
<polygon fill="none" stroke="black" points="271,-73 271,-107 411,-107 411,-73 271,-73"/>
<text text-anchor="start" x="279" y="-94" font-family="Helvetica,sans-Serif" font-size="10.00">simpleanalyzer&#45;gui</text>
<text text-anchor="middle" x="341" y="-81" font-family="Helvetica,sans-Serif" font-size="10.00">/src/GUI/GUIMainWindow.h</text>
</a>
</g>
<!-- Node1&#45;&gt;Node2 -->
<g id="edge2" class="edge"><title>Node1&#45;&gt;Node2</title>
<path fill="none" stroke="midnightblue" d="M297.57,-137.379C306.593,-127.535 316.776,-116.426 325.013,-107.441"/>
<polygon fill="midnightblue" stroke="midnightblue" points="294.818,-135.2 290.641,-144.937 299.978,-139.93 294.818,-135.2"/>
</g>
<!-- Node4 -->
<g id="node7" class="node"><title>Node4</title>
<a xlink:href="GUIAnalyzeOutputWindow_8cpp.xhtml" target="_top" xlink:title="simpleanalyzer&#45;gui\l/src/GUI/GUIAnalyzeOutputWindow.cpp">
<polygon fill="none" stroke="black" points="0,-1 0,-35 194,-35 194,-1 0,-1"/>
<text text-anchor="start" x="8" y="-22" font-family="Helvetica,sans-Serif" font-size="10.00">simpleanalyzer&#45;gui</text>
<text text-anchor="middle" x="97" y="-9" font-family="Helvetica,sans-Serif" font-size="10.00">/src/GUI/GUIAnalyzeOutputWindow.cpp</text>
</a>
</g>
<!-- Node1&#45;&gt;Node4 -->
<g id="edge14" class="edge"><title>Node1&#45;&gt;Node4</title>
<path fill="none" stroke="midnightblue" d="M245.735,-138.325C209.818,-109.268 149.789,-60.7059 118.09,-35.0619"/>
<polygon fill="midnightblue" stroke="midnightblue" points="243.906,-141.347 253.882,-144.916 248.309,-135.905 243.906,-141.347"/>
</g>
<!-- Node3 -->
<g id="node5" class="node"><title>Node3</title>
<a xlink:href="Application_8cpp.xhtml" target="_top" xlink:title="simpleanalyzer&#45;gui\l/src/Application.cpp">
<polygon fill="none" stroke="black" points="211.5,-1 211.5,-35 314.5,-35 314.5,-1 211.5,-1"/>
<text text-anchor="start" x="219.5" y="-22" font-family="Helvetica,sans-Serif" font-size="10.00">simpleanalyzer&#45;gui</text>
<text text-anchor="middle" x="263" y="-9" font-family="Helvetica,sans-Serif" font-size="10.00">/src/Application.cpp</text>
</a>
</g>
<!-- Node2&#45;&gt;Node3 -->
<g id="edge4" class="edge"><title>Node2&#45;&gt;Node3</title>
<path fill="none" stroke="midnightblue" d="M314.901,-65.9083C303.997,-55.8438 291.578,-44.3799 281.623,-35.19"/>
<polygon fill="midnightblue" stroke="midnightblue" points="312.793,-68.726 322.515,-72.937 317.541,-63.5824 312.793,-68.726"/>
</g>
<!-- Node2&#45;&gt;Node4 -->
<g id="edge6" class="edge"><title>Node2&#45;&gt;Node4</title>
<path fill="none" stroke="midnightblue" d="M273.408,-70.0547C236.162,-59.0643 190.409,-45.5632 154.832,-35.0651"/>
<polygon fill="midnightblue" stroke="midnightblue" points="272.594,-73.4637 283.175,-72.937 274.575,-66.7499 272.594,-73.4637"/>
</g>
<!-- Node5 -->
<g id="node9" class="node"><title>Node5</title>
<a xlink:href="GUICutRenderWindow_8cpp.xhtml" target="_top" xlink:title="simpleanalyzer&#45;gui\l/src/GUI/GUICutRenderWindow.cpp">
<polygon fill="none" stroke="black" points="332,-1 332,-35 508,-35 508,-1 332,-1"/>
<text text-anchor="start" x="340" y="-22" font-family="Helvetica,sans-Serif" font-size="10.00">simpleanalyzer&#45;gui</text>
<text text-anchor="middle" x="420" y="-9" font-family="Helvetica,sans-Serif" font-size="10.00">/src/GUI/GUICutRenderWindow.cpp</text>
</a>
</g>
<!-- Node2&#45;&gt;Node5 -->
<g id="edge8" class="edge"><title>Node2&#45;&gt;Node5</title>
<path fill="none" stroke="midnightblue" d="M367.434,-65.9083C378.477,-55.8438 391.055,-44.3799 401.139,-35.19"/>
<polygon fill="midnightblue" stroke="midnightblue" points="364.755,-63.6141 359.722,-72.937 369.47,-68.7878 364.755,-63.6141"/>
</g>
<!-- Node6 -->
<g id="node11" class="node"><title>Node6</title>
<a xlink:href="GUIMainWindow_8cpp.xhtml" target="_top" xlink:title="simpleanalyzer&#45;gui\l/src/GUI/GUIMainWindow.cpp">
<polygon fill="none" stroke="black" points="526,-1 526,-35 676,-35 676,-1 526,-1"/>
<text text-anchor="start" x="534" y="-22" font-family="Helvetica,sans-Serif" font-size="10.00">simpleanalyzer&#45;gui</text>
<text text-anchor="middle" x="601" y="-9" font-family="Helvetica,sans-Serif" font-size="10.00">/src/GUI/GUIMainWindow.cpp</text>
</a>
</g>
<!-- Node2&#45;&gt;Node6 -->
<g id="edge10" class="edge"><title>Node2&#45;&gt;Node6</title>
<path fill="none" stroke="midnightblue" d="M412.266,-70.2649C452.09,-59.2368 501.224,-45.6303 539.376,-35.0651"/>
<polygon fill="midnightblue" stroke="midnightblue" points="411.32,-66.8951 402.616,-72.937 413.188,-73.6412 411.32,-66.8951"/>
</g>
<!-- Node7 -->
<g id="node13" class="node"><title>Node7</title>
<a xlink:href="GUIRenderCutCanvas_8cpp.xhtml" target="_top" xlink:title="simpleanalyzer&#45;gui\l/src/GUI/GUIRenderCutCanvas.cpp">
<polygon fill="none" stroke="black" points="693.5,-1 693.5,-35 868.5,-35 868.5,-1 693.5,-1"/>
<text text-anchor="start" x="701.5" y="-22" font-family="Helvetica,sans-Serif" font-size="10.00">simpleanalyzer&#45;gui</text>
<text text-anchor="middle" x="781" y="-9" font-family="Helvetica,sans-Serif" font-size="10.00">/src/GUI/GUIRenderCutCanvas.cpp</text>
</a>
</g>
<!-- Node2&#45;&gt;Node7 -->
<g id="edge12" class="edge"><title>Node2&#45;&gt;Node7</title>
<path fill="none" stroke="midnightblue" d="M421.31,-78.0816C491.098,-67.5605 594.855,-51.5229 685,-36 687.757,-35.5252 690.558,-35.0368 693.385,-34.5386"/>
<polygon fill="midnightblue" stroke="midnightblue" points="420.634,-74.644 411.266,-79.5932 421.675,-81.566 420.634,-74.644"/>
</g>
</g>
</svg>
