<?xml version="1.0" encoding="UTF-8" standalone="no"?>
<!DOCTYPE svg PUBLIC "-//W3C//DTD SVG 1.1//EN"
 "http://www.w3.org/Graphics/SVG/1.1/DTD/svg11.dtd">
<!-- Generated by graphviz version 2.26.3 (20100126.1600)
 -->
<!-- Title: simpleanalyzer&#45;gui/src/GUI/GUIAnalyzeOutputWindow.cpp Pages: 1 -->
<svg width="1247pt" height="638pt"
 viewBox="0.00 0.00 1247.42 638.00" xmlns="http://www.w3.org/2000/svg" xmlns:xlink="http://www.w3.org/1999/xlink">
<g id="graph1" class="graph" transform="scale(1 1) rotate(0) translate(4 634)">
<title>simpleanalyzer&#45;gui/src/GUI/GUIAnalyzeOutputWindow.cpp</title>
<!-- Node1 -->
<g id="node1" class="node"><title>Node1</title>
<polygon fill="#bfbfbf" stroke="black" points="612,-595 612,-629 806,-629 806,-595 612,-595"/>
<text text-anchor="start" x="620" y="-616" font-family="Helvetica,sans-Serif" font-size="10.00">simpleanalyzer&#45;gui</text>
<text text-anchor="middle" x="709" y="-603" font-family="Helvetica,sans-Serif" font-size="10.00">/src/GUI/GUIAnalyzeOutputWindow.cpp</text>
</g>
<!-- Node2 -->
<g id="node3" class="node"><title>Node2</title>
<a xlink:href="GUIAnalyzeOutputWindow_8h.xhtml" target="_top" xlink:title="GUIAnalyzeOutputWindow.h">
<polygon fill="none" stroke="black" points="65.5,-420.5 65.5,-441.5 208.5,-441.5 208.5,-420.5 65.5,-420.5"/>
<text text-anchor="middle" x="137" y="-428.5" font-family="Helvetica,sans-Serif" font-size="10.00">GUIAnalyzeOutputWindow.h</text>
</a>
</g>
<!-- Node1&#45;&gt;Node2 -->
<g id="edge2" class="edge"><title>Node1&#45;&gt;Node2</title>
<path fill="none" stroke="midnightblue" d="M611.838,-608.283C527.927,-602.931 404.264,-589.87 301,-558 246.302,-541.119 229.404,-537.322 186,-500 169.734,-486.013 156.082,-465.534 147.354,-450.519"/>
<polygon fill="midnightblue" stroke="midnightblue" points="150.285,-448.588 142.352,-441.565 144.173,-452.002 150.285,-448.588"/>
</g>
<!-- Node8 -->
<g id="node16" class="node"><title>Node8</title>
<a xlink:href="ObjectData_8h.xhtml" target="_top" xlink:title="../processing/ObjectData.h">
<polygon fill="none" stroke="black" points="878,-246.5 878,-267.5 1012,-267.5 1012,-246.5 878,-246.5"/>
<text text-anchor="middle" x="945" y="-254.5" font-family="Helvetica,sans-Serif" font-size="10.00">../processing/ObjectData.h</text>
</a>
</g>
<!-- Node1&#45;&gt;Node8 -->
<g id="edge124" class="edge"><title>Node1&#45;&gt;Node8</title>
<path fill="none" stroke="midnightblue" d="M806.346,-595.711C905.256,-576.325 1044,-540.036 1044,-489 1044,-489 1044,-489 1044,-373 1044,-341.192 1044.36,-329.242 1025,-304 1014.29,-290.027 998.135,-279.417 983.144,-271.846"/>
<polygon fill="midnightblue" stroke="midnightblue" points="984.554,-268.642 974.019,-267.522 981.557,-274.967 984.554,-268.642"/>
</g>
<!-- Node12 -->
<g id="node25" class="node"><title>Node12</title>
<polygon fill="none" stroke="#bfbfbf" points="593,-0.5 593,-21.5 647,-21.5 647,-0.5 593,-0.5"/>
<text text-anchor="middle" x="620" y="-8.5" font-family="Helvetica,sans-Serif" font-size="10.00">iostream</text>
</g>
<!-- Node1&#45;&gt;Node12 -->
<g id="edge120" class="edge"><title>Node1&#45;&gt;Node12</title>
<path fill="none" stroke="midnightblue" d="M611.903,-605.101C417.726,-589.997 0,-550.371 0,-489 0,-489 0,-489 0,-134 0,-74.2346 448.981,-27.1152 582.798,-14.3987"/>
<polygon fill="midnightblue" stroke="midnightblue" points="583.333,-17.8639 592.961,-13.4417 582.677,-10.8947 583.333,-17.8639"/>
</g>
<!-- Node17 -->
<g id="node37" class="node"><title>Node17</title>
<polygon fill="none" stroke="#bfbfbf" points="1113,-123.5 1113,-144.5 1165,-144.5 1165,-123.5 1113,-123.5"/>
<text text-anchor="middle" x="1139" y="-131.5" font-family="Helvetica,sans-Serif" font-size="10.00">sstream</text>
</g>
<!-- Node1&#45;&gt;Node17 -->
<g id="edge122" class="edge"><title>Node1&#45;&gt;Node17</title>
<path fill="none" stroke="midnightblue" d="M806.094,-608.381C954.819,-600.155 1222,-573.603 1222,-489 1222,-489 1222,-489 1222,-373 1222,-287.156 1173.63,-193.089 1150.74,-153.386"/>
<polygon fill="midnightblue" stroke="midnightblue" points="1153.6,-151.347 1145.51,-144.501 1147.57,-154.896 1153.6,-151.347"/>
</g>
<!-- Node19 -->
<g id="node46" class="node"><title>Node19</title>
<a xlink:href="GUIMainWindow_8h.xhtml" target="_top" xlink:title="GUIMainWindow.h">
<polygon fill="none" stroke="black" points="309.5,-536.5 309.5,-557.5 408.5,-557.5 408.5,-536.5 309.5,-536.5"/>
<text text-anchor="middle" x="359" y="-544.5" font-family="Helvetica,sans-Serif" font-size="10.00">GUIMainWindow.h</text>
</a>
</g>
<!-- Node1&#45;&gt;Node19 -->
<g id="edge54" class="edge"><title>Node1&#45;&gt;Node19</title>
<path fill="none" stroke="midnightblue" d="M617.042,-594.922C554.311,-583.272 473.049,-568.18 418.63,-558.074"/>
<polygon fill="midnightblue" stroke="midnightblue" points="419.263,-554.632 408.792,-556.247 417.985,-561.514 419.263,-554.632"/>
</g>
<!-- Node31 -->
<g id="node94" class="node"><title>Node31</title>
<a xlink:href="Analyzer_8h.xhtml" target="_top" xlink:title="../processing/Analyzer.h">
<polygon fill="none" stroke="black" points="1072,-304.5 1072,-325.5 1194,-325.5 1194,-304.5 1072,-304.5"/>
<text text-anchor="middle" x="1133" y="-312.5" font-family="Helvetica,sans-Serif" font-size="10.00">../processing/Analyzer.h</text>
</a>
</g>
<!-- Node1&#45;&gt;Node31 -->
<g id="edge126" class="edge"><title>Node1&#45;&gt;Node31</title>
<path fill="none" stroke="midnightblue" d="M806.366,-605.316C894.586,-597.77 1016.87,-583.14 1058,-558 1090.31,-538.25 1108,-526.872 1108,-489 1108,-489 1108,-489 1108,-431 1108,-396.853 1118.48,-358.296 1125.87,-335.354"/>
<polygon fill="midnightblue" stroke="midnightblue" points="1129.24,-336.302 1129.09,-325.709 1122.6,-334.083 1129.24,-336.302"/>
</g>
<!-- Node3 -->
<g id="node5" class="node"><title>Node3</title>
<a xlink:href="PropertiesBox_8h.xhtml" target="_top" xlink:title="PropertiesBox.h">
<polygon fill="none" stroke="black" points="264,-362.5 264,-383.5 350,-383.5 350,-362.5 264,-362.5"/>
<text text-anchor="middle" x="307" y="-370.5" font-family="Helvetica,sans-Serif" font-size="10.00">PropertiesBox.h</text>
</a>
</g>
<!-- Node2&#45;&gt;Node3 -->
<g id="edge4" class="edge"><title>Node2&#45;&gt;Node3</title>
<path fill="none" stroke="midnightblue" d="M167.786,-420.497C195.38,-411.082 236.058,-397.204 266.325,-386.877"/>
<polygon fill="midnightblue" stroke="midnightblue" points="267.822,-390.065 276.157,-383.523 265.562,-383.44 267.822,-390.065"/>
</g>
<!-- Node4 -->
<g id="node7" class="node"><title>Node4</title>
<polygon fill="none" stroke="#bfbfbf" points="412.5,-123.5 412.5,-144.5 465.5,-144.5 465.5,-123.5 412.5,-123.5"/>
<text text-anchor="middle" x="439" y="-131.5" font-family="Helvetica,sans-Serif" font-size="10.00">wx/wx.h</text>
</g>
<!-- Node2&#45;&gt;Node4 -->
<g id="edge52" class="edge"><title>Node2&#45;&gt;Node4</title>
<path fill="none" stroke="midnightblue" d="M146.908,-420.435C163.949,-401.111 197,-358.079 197,-315 197,-315 197,-315 197,-257 197,-224.383 197.771,-209.838 222,-188 248.347,-164.253 347.635,-146.895 402.317,-138.903"/>
<polygon fill="midnightblue" stroke="midnightblue" points="402.898,-142.356 412.302,-137.476 401.907,-135.426 402.898,-142.356"/>
</g>
<!-- Node18 -->
<g id="node43" class="node"><title>Node18</title>
<polygon fill="none" stroke="#bfbfbf" points="109,-362.5 109,-383.5 165,-383.5 165,-362.5 109,-362.5"/>
<text text-anchor="middle" x="137" y="-370.5" font-family="Helvetica,sans-Serif" font-size="10.00">wx/grid.h</text>
</g>
<!-- Node2&#45;&gt;Node18 -->
<g id="edge50" class="edge"><title>Node2&#45;&gt;Node18</title>
<path fill="none" stroke="midnightblue" d="M137,-420.362C137,-412.922 137,-402.743 137,-393.728"/>
<polygon fill="midnightblue" stroke="midnightblue" points="140.5,-393.571 137,-383.571 133.5,-393.571 140.5,-393.571"/>
</g>
<!-- Node3&#45;&gt;Node4 -->
<g id="edge6" class="edge"><title>Node3&#45;&gt;Node4</title>
<path fill="none" stroke="midnightblue" d="M307.915,-362.352C310.963,-332.255 323.026,-245.052 364,-188 375.501,-171.986 393.242,-158.903 408.582,-149.628"/>
<polygon fill="midnightblue" stroke="midnightblue" points="410.359,-152.643 417.271,-144.613 406.86,-146.581 410.359,-152.643"/>
</g>
<!-- Node5 -->
<g id="node9" class="node"><title>Node5</title>
<a xlink:href="GUITimeline_8h.xhtml" target="_top" xlink:title="GUITimeline.h">
<polygon fill="none" stroke="black" points="838,-304.5 838,-325.5 918,-325.5 918,-304.5 838,-304.5"/>
<text text-anchor="middle" x="878" y="-312.5" font-family="Helvetica,sans-Serif" font-size="10.00">GUITimeline.h</text>
</a>
</g>
<!-- Node3&#45;&gt;Node5 -->
<g id="edge8" class="edge"><title>Node3&#45;&gt;Node5</title>
<path fill="none" stroke="midnightblue" d="M350.102,-369.237C434.708,-361.756 628.442,-344.166 791,-326 802.819,-324.679 815.526,-323.14 827.479,-321.639"/>
<polygon fill="midnightblue" stroke="midnightblue" points="828.267,-325.067 837.747,-320.336 827.386,-318.123 828.267,-325.067"/>
</g>
<!-- Node5&#45;&gt;Node4 -->
<g id="edge10" class="edge"><title>Node5&#45;&gt;Node4</title>
<path fill="none" stroke="midnightblue" d="M852.542,-304.429C799.966,-282.606 675.55,-231.01 571,-188 538.166,-174.493 500.701,-159.175 474.094,-148.313"/>
<polygon fill="midnightblue" stroke="midnightblue" points="475.393,-145.063 464.811,-144.524 472.747,-151.544 475.393,-145.063"/>
</g>
<!-- Node6 -->
<g id="node12" class="node"><title>Node6</title>
<polygon fill="none" stroke="#bfbfbf" points="1070.5,-246.5 1070.5,-267.5 1111.5,-267.5 1111.5,-246.5 1070.5,-246.5"/>
<text text-anchor="middle" x="1091" y="-254.5" font-family="Helvetica,sans-Serif" font-size="10.00">string</text>
</g>
<!-- Node5&#45;&gt;Node6 -->
<g id="edge12" class="edge"><title>Node5&#45;&gt;Node6</title>
<path fill="none" stroke="midnightblue" d="M918.345,-305.095C954.741,-295.996 1009.67,-281.859 1057,-268 1058.07,-267.686 1059.16,-267.362 1060.26,-267.031"/>
<polygon fill="midnightblue" stroke="midnightblue" points="1061.69,-270.25 1070.2,-263.934 1059.61,-263.567 1061.69,-270.25"/>
</g>
<!-- Node7 -->
<g id="node14" class="node"><title>Node7</title>
<polygon fill="none" stroke="#bfbfbf" points="1021,-123.5 1021,-144.5 1065,-144.5 1065,-123.5 1021,-123.5"/>
<text text-anchor="middle" x="1043" y="-131.5" font-family="Helvetica,sans-Serif" font-size="10.00">vector</text>
</g>
<!-- Node5&#45;&gt;Node7 -->
<g id="edge14" class="edge"><title>Node5&#45;&gt;Node7</title>
<path fill="none" stroke="midnightblue" d="M917.067,-304.408C956.958,-293.243 1014.01,-276.164 1021,-268 1048.34,-236.062 1048.27,-183.597 1045.7,-154.701"/>
<polygon fill="midnightblue" stroke="midnightblue" points="1049.16,-154.11 1044.61,-144.542 1042.2,-154.86 1049.16,-154.11"/>
</g>
<!-- Node5&#45;&gt;Node8 -->
<g id="edge16" class="edge"><title>Node5&#45;&gt;Node8</title>
<path fill="none" stroke="midnightblue" d="M890.289,-304.362C900.017,-295.941 913.798,-284.011 925.095,-274.231"/>
<polygon fill="midnightblue" stroke="midnightblue" points="927.519,-276.762 932.789,-267.571 922.938,-271.469 927.519,-276.762"/>
</g>
<!-- Node8&#45;&gt;Node7 -->
<g id="edge20" class="edge"><title>Node8&#45;&gt;Node7</title>
<path fill="none" stroke="midnightblue" d="M954.675,-246.366C963.133,-236.964 975.646,-222.794 986,-210 1001.44,-190.924 1018.19,-168.348 1029.51,-152.785"/>
<polygon fill="midnightblue" stroke="midnightblue" points="1032.47,-154.665 1035.49,-144.511 1026.8,-150.561 1032.47,-154.665"/>
</g>
<!-- Node9 -->
<g id="node18" class="node"><title>Node9</title>
<polygon fill="none" stroke="#bfbfbf" points="914.5,-117 914.5,-151 1003.5,-151 1003.5,-117 914.5,-117"/>
<text text-anchor="start" x="922.5" y="-138" font-family="Helvetica,sans-Serif" font-size="10.00">../libraries/tetgen</text>
<text text-anchor="middle" x="959" y="-125" font-family="Helvetica,sans-Serif" font-size="10.00">/tetgen.h</text>
</g>
<!-- Node8&#45;&gt;Node9 -->
<g id="edge18" class="edge"><title>Node8&#45;&gt;Node9</title>
<path fill="none" stroke="midnightblue" d="M931.392,-246.498C916.171,-233.377 894.781,-209.972 904,-188 908.814,-176.528 917.385,-166.267 926.349,-157.85"/>
<polygon fill="midnightblue" stroke="midnightblue" points="928.689,-160.453 933.898,-151.227 924.073,-155.191 928.689,-160.453"/>
</g>
<!-- Node10 -->
<g id="node21" class="node"><title>Node10</title>
<a xlink:href="Interpolator_8h.xhtml" target="_top" xlink:title="../libraries/interpolate\l/Interpolator.h">
<polygon fill="none" stroke="black" points="790.5,-117 790.5,-151 897.5,-151 897.5,-117 790.5,-117"/>
<text text-anchor="start" x="798.5" y="-138" font-family="Helvetica,sans-Serif" font-size="10.00">../libraries/interpolate</text>
<text text-anchor="middle" x="844" y="-125" font-family="Helvetica,sans-Serif" font-size="10.00">/Interpolator.h</text>
</a>
</g>
<!-- Node8&#45;&gt;Node10 -->
<g id="edge22" class="edge"><title>Node8&#45;&gt;Node10</title>
<path fill="none" stroke="midnightblue" d="M932.94,-246.367C922.84,-237.194 908.303,-223.353 897,-210 883.534,-194.091 870.122,-174.818 860.159,-159.66"/>
<polygon fill="midnightblue" stroke="midnightblue" points="863.095,-157.754 854.717,-151.268 857.221,-161.563 863.095,-157.754"/>
</g>
<!-- Node13 -->
<g id="node27" class="node"><title>Node13</title>
<polygon fill="none" stroke="#bfbfbf" points="912.5,-188.5 912.5,-209.5 977.5,-209.5 977.5,-188.5 912.5,-188.5"/>
<text text-anchor="middle" x="945" y="-196.5" font-family="Helvetica,sans-Serif" font-size="10.00">wx/string.h</text>
</g>
<!-- Node8&#45;&gt;Node13 -->
<g id="edge28" class="edge"><title>Node8&#45;&gt;Node13</title>
<path fill="none" stroke="midnightblue" d="M945,-246.362C945,-238.922 945,-228.743 945,-219.728"/>
<polygon fill="midnightblue" stroke="midnightblue" points="948.5,-219.571 945,-209.571 941.5,-219.571 948.5,-219.571"/>
</g>
<!-- Node14 -->
<g id="node29" class="node"><title>Node14</title>
<a xlink:href="utils_8h.xhtml" target="_top" xlink:title="utils.h">
<polygon fill="none" stroke="black" points="700.5,-188.5 700.5,-209.5 743.5,-209.5 743.5,-188.5 700.5,-188.5"/>
<text text-anchor="middle" x="722" y="-196.5" font-family="Helvetica,sans-Serif" font-size="10.00">utils.h</text>
</a>
</g>
<!-- Node8&#45;&gt;Node14 -->
<g id="edge30" class="edge"><title>Node8&#45;&gt;Node14</title>
<path fill="none" stroke="midnightblue" d="M899.596,-246.45C861.394,-237.382 805.41,-223.646 757,-210 755.927,-209.698 754.837,-209.385 753.738,-209.065"/>
<polygon fill="midnightblue" stroke="midnightblue" points="754.369,-205.6 743.784,-206.067 752.35,-212.303 754.369,-205.6"/>
</g>
<!-- Node11 -->
<g id="node23" class="node"><title>Node11</title>
<a xlink:href="GeometryClasses_8h.xhtml" target="_top" xlink:title="GeometryClasses.h">
<polygon fill="none" stroke="black" points="637,-58.5 637,-79.5 741,-79.5 741,-58.5 637,-58.5"/>
<text text-anchor="middle" x="689" y="-66.5" font-family="Helvetica,sans-Serif" font-size="10.00">GeometryClasses.h</text>
</a>
</g>
<!-- Node10&#45;&gt;Node11 -->
<g id="edge24" class="edge"><title>Node10&#45;&gt;Node11</title>
<path fill="none" stroke="midnightblue" d="M803.276,-116.922C778.522,-106.541 747.252,-93.4282 723.682,-83.5443"/>
<polygon fill="midnightblue" stroke="midnightblue" points="724.992,-80.298 714.416,-79.6584 722.285,-86.7534 724.992,-80.298"/>
</g>
<!-- Node11&#45;&gt;Node12 -->
<g id="edge26" class="edge"><title>Node11&#45;&gt;Node12</title>
<path fill="none" stroke="midnightblue" d="M676.344,-58.3619C666.326,-49.9408 652.133,-38.0105 640.499,-28.2308"/>
<polygon fill="midnightblue" stroke="midnightblue" points="642.482,-25.326 632.575,-21.5707 637.978,-30.6844 642.482,-25.326"/>
</g>
<!-- Node14&#45;&gt;Node4 -->
<g id="edge42" class="edge"><title>Node14&#45;&gt;Node4</title>
<path fill="none" stroke="midnightblue" d="M700.263,-194.007C651.935,-182.907 535.14,-156.082 475.447,-142.371"/>
<polygon fill="midnightblue" stroke="midnightblue" points="476.214,-138.956 465.685,-140.129 474.647,-145.779 476.214,-138.956"/>
</g>
<!-- Node14&#45;&gt;Node7 -->
<g id="edge34" class="edge"><title>Node14&#45;&gt;Node7</title>
<path fill="none" stroke="midnightblue" d="M743.771,-198.167C792.975,-195.711 915.946,-186.342 1012,-152 1014.14,-151.234 1016.31,-150.32 1018.44,-149.315"/>
<polygon fill="midnightblue" stroke="midnightblue" points="1020.27,-152.303 1027.45,-144.511 1016.98,-146.125 1020.27,-152.303"/>
</g>
<!-- Node14&#45;&gt;Node9 -->
<g id="edge44" class="edge"><title>Node14&#45;&gt;Node9</title>
<path fill="none" stroke="midnightblue" d="M743.677,-194.037C776.547,-186.39 841.132,-170.887 904.512,-152.345"/>
<polygon fill="midnightblue" stroke="midnightblue" points="905.659,-155.656 914.258,-149.467 903.677,-148.943 905.659,-155.656"/>
</g>
<!-- Node14&#45;&gt;Node10 -->
<g id="edge48" class="edge"><title>Node14&#45;&gt;Node10</title>
<path fill="none" stroke="midnightblue" d="M741.873,-188.412C758.341,-179.638 782.296,-166.875 802.867,-155.915"/>
<polygon fill="midnightblue" stroke="midnightblue" points="804.562,-158.978 811.741,-151.187 801.27,-152.8 804.562,-158.978"/>
</g>
<!-- Node14&#45;&gt;Node11 -->
<g id="edge46" class="edge"><title>Node14&#45;&gt;Node11</title>
<path fill="none" stroke="midnightblue" d="M718.576,-188.229C715.611,-178.738 711.293,-164.515 708,-152 702.415,-130.774 696.917,-106.25 693.284,-89.393"/>
<polygon fill="midnightblue" stroke="midnightblue" points="696.691,-88.586 691.184,-79.5349 689.845,-90.0447 696.691,-88.586"/>
</g>
<!-- Node14&#45;&gt;Node12 -->
<g id="edge32" class="edge"><title>Node14&#45;&gt;Node12</title>
<path fill="none" stroke="midnightblue" d="M700.317,-197.088C673.42,-193.421 628.601,-182.777 608,-152 583.414,-115.27 599.311,-60.5292 610.933,-31.2317"/>
<polygon fill="midnightblue" stroke="midnightblue" points="614.303,-32.2453 614.939,-21.6696 607.847,-29.5407 614.303,-32.2453"/>
</g>
<!-- Node15 -->
<g id="node33" class="node"><title>Node15</title>
<polygon fill="none" stroke="#bfbfbf" points="717,-123.5 717,-144.5 773,-144.5 773,-123.5 717,-123.5"/>
<text text-anchor="middle" x="745" y="-131.5" font-family="Helvetica,sans-Serif" font-size="10.00">algorithm</text>
</g>
<!-- Node14&#45;&gt;Node15 -->
<g id="edge36" class="edge"><title>Node14&#45;&gt;Node15</title>
<path fill="none" stroke="midnightblue" d="M725.798,-188.267C729.08,-178.991 733.912,-165.336 737.907,-154.045"/>
<polygon fill="midnightblue" stroke="midnightblue" points="741.236,-155.128 741.273,-144.534 734.637,-152.793 741.236,-155.128"/>
</g>
<!-- Node16 -->
<g id="node35" class="node"><title>Node16</title>
<polygon fill="none" stroke="#bfbfbf" points="617,-123.5 617,-144.5 661,-144.5 661,-123.5 617,-123.5"/>
<text text-anchor="middle" x="639" y="-131.5" font-family="Helvetica,sans-Serif" font-size="10.00">cmath</text>
</g>
<!-- Node14&#45;&gt;Node16 -->
<g id="edge38" class="edge"><title>Node14&#45;&gt;Node16</title>
<path fill="none" stroke="midnightblue" d="M708.294,-188.267C695.362,-178.139 675.765,-162.792 660.707,-151"/>
<polygon fill="midnightblue" stroke="midnightblue" points="662.482,-147.944 652.451,-144.534 658.166,-153.455 662.482,-147.944"/>
</g>
<!-- Node14&#45;&gt;Node17 -->
<g id="edge40" class="edge"><title>Node14&#45;&gt;Node17</title>
<path fill="none" stroke="midnightblue" d="M743.6,-197.158C798.94,-192.215 950.166,-177.289 1074,-152 1083.52,-150.056 1093.7,-147.481 1103.11,-144.888"/>
<polygon fill="midnightblue" stroke="midnightblue" points="1104.28,-148.193 1112.95,-142.097 1102.37,-141.458 1104.28,-148.193"/>
</g>
<!-- Node19&#45;&gt;Node2 -->
<g id="edge86" class="edge"><title>Node19&#45;&gt;Node2</title>
<path fill="none" stroke="midnightblue" d="M316.012,-536.457C288.164,-528.629 251.69,-516.459 222,-500 196.571,-485.903 171.182,-464.017 154.865,-448.683"/>
<polygon fill="midnightblue" stroke="midnightblue" points="157.266,-446.136 147.623,-441.745 152.423,-451.19 157.266,-446.136"/>
</g>
<!-- Node19&#45;&gt;Node3 -->
<g id="edge78" class="edge"><title>Node19&#45;&gt;Node3</title>
<path fill="none" stroke="midnightblue" d="M342.927,-536.163C331.632,-527.67 317.138,-514.831 309,-500 290.621,-466.507 296.202,-420.181 301.731,-393.732"/>
<polygon fill="midnightblue" stroke="midnightblue" points="305.206,-394.238 304.027,-383.709 298.382,-392.675 305.206,-394.238"/>
</g>
<!-- Node19&#45;&gt;Node4 -->
<g id="edge116" class="edge"><title>Node19&#45;&gt;Node4</title>
<path fill="none" stroke="midnightblue" d="M332.915,-536.369C296.809,-519.719 236,-483.835 236,-431 236,-431 236,-431 236,-257 236,-180.03 344.069,-149.899 402.506,-139.232"/>
<polygon fill="midnightblue" stroke="midnightblue" points="403.202,-142.664 412.461,-137.516 402.012,-135.766 403.202,-142.664"/>
</g>
<!-- Node20 -->
<g id="node48" class="node"><title>Node20</title>
<a xlink:href="GUIGLCanvas_8h.xhtml" target="_top" xlink:title="GUIGLCanvas.h">
<polygon fill="none" stroke="black" points="777.5,-362.5 777.5,-383.5 866.5,-383.5 866.5,-362.5 777.5,-362.5"/>
<text text-anchor="middle" x="822" y="-370.5" font-family="Helvetica,sans-Serif" font-size="10.00">GUIGLCanvas.h</text>
</a>
</g>
<!-- Node19&#45;&gt;Node20 -->
<g id="edge56" class="edge"><title>Node19&#45;&gt;Node20</title>
<path fill="none" stroke="midnightblue" d="M408.533,-543.109C464.458,-537.676 557.608,-525.463 634,-500 687.555,-482.149 700.697,-474.292 747,-442 768.551,-426.97 790.336,-406.16 804.832,-391.332"/>
<polygon fill="midnightblue" stroke="midnightblue" points="807.681,-393.419 812.088,-383.785 802.634,-388.568 807.681,-393.419"/>
</g>
<!-- Node23 -->
<g id="node63" class="node"><title>Node23</title>
<a xlink:href="ViewpropBox_8h.xhtml" target="_top" xlink:title="ViewpropBox.h">
<polygon fill="none" stroke="black" points="317.5,-478.5 317.5,-499.5 400.5,-499.5 400.5,-478.5 317.5,-478.5"/>
<text text-anchor="middle" x="359" y="-486.5" font-family="Helvetica,sans-Serif" font-size="10.00">ViewpropBox.h</text>
</a>
</g>
<!-- Node19&#45;&gt;Node23 -->
<g id="edge80" class="edge"><title>Node19&#45;&gt;Node23</title>
<path fill="none" stroke="midnightblue" d="M359,-536.362C359,-528.922 359,-518.743 359,-509.728"/>
<polygon fill="midnightblue" stroke="midnightblue" points="362.5,-509.571 359,-499.571 355.5,-509.571 362.5,-509.571"/>
</g>
<!-- Node25 -->
<g id="node69" class="node"><title>Node25</title>
<a xlink:href="GUIAnalyzePointWindow_8h.xhtml" target="_top" xlink:title="GUIAnalyzePointWindow.h">
<polygon fill="none" stroke="black" points="31,-246.5 31,-267.5 167,-267.5 167,-246.5 31,-246.5"/>
<text text-anchor="middle" x="99" y="-254.5" font-family="Helvetica,sans-Serif" font-size="10.00">GUIAnalyzePointWindow.h</text>
</a>
</g>
<!-- Node19&#45;&gt;Node25 -->
<g id="edge88" class="edge"><title>Node19&#45;&gt;Node25</title>
<path fill="none" stroke="midnightblue" d="M309.196,-539.599C219.033,-524.789 38,-487.96 38,-431 38,-431 38,-431 38,-373 38,-334.834 64.1875,-296.883 82.2458,-275.249"/>
<polygon fill="midnightblue" stroke="midnightblue" points="85.0262,-277.385 88.9271,-267.535 79.7347,-272.802 85.0262,-277.385"/>
</g>
<!-- Node26 -->
<g id="node72" class="node"><title>Node26</title>
<a xlink:href="GUICutRenderWindow_8h.xhtml" target="_top" xlink:title="GUICutRenderWindow.h">
<polygon fill="none" stroke="black" points="500.5,-478.5 500.5,-499.5 625.5,-499.5 625.5,-478.5 500.5,-478.5"/>
<text text-anchor="middle" x="563" y="-486.5" font-family="Helvetica,sans-Serif" font-size="10.00">GUICutRenderWindow.h</text>
</a>
</g>
<!-- Node19&#45;&gt;Node26 -->
<g id="edge92" class="edge"><title>Node19&#45;&gt;Node26</title>
<path fill="none" stroke="midnightblue" d="M395.943,-536.497C429.632,-526.918 479.573,-512.72 516.074,-502.342"/>
<polygon fill="midnightblue" stroke="midnightblue" points="517.326,-505.624 525.988,-499.523 515.412,-498.891 517.326,-505.624"/>
</g>
<!-- Node30 -->
<g id="node89" class="node"><title>Node30</title>
<polygon fill="none" stroke="#bfbfbf" points="815.5,-478.5 815.5,-499.5 886.5,-499.5 886.5,-478.5 815.5,-478.5"/>
<text text-anchor="middle" x="851" y="-486.5" font-family="Helvetica,sans-Serif" font-size="10.00">wx/artprov.h</text>
</g>
<!-- Node19&#45;&gt;Node30 -->
<g id="edge118" class="edge"><title>Node19&#45;&gt;Node30</title>
<path fill="none" stroke="midnightblue" d="M408.746,-543.6C490.975,-537.56 660.249,-523.351 802,-500 803.097,-499.819 804.206,-499.629 805.323,-499.431"/>
<polygon fill="midnightblue" stroke="midnightblue" points="806.341,-502.8 815.5,-497.474 805.018,-495.926 806.341,-502.8"/>
</g>
<!-- Node20&#45;&gt;Node4 -->
<g id="edge72" class="edge"><title>Node20&#45;&gt;Node4</title>
<path fill="none" stroke="midnightblue" d="M795.898,-362.34C772.95,-352.92 738.677,-338.74 709,-326 650.49,-300.883 630.84,-303.528 578,-268 551.459,-250.155 487.251,-184.456 456.279,-152.162"/>
<polygon fill="midnightblue" stroke="midnightblue" points="458.604,-149.53 449.164,-144.721 453.545,-154.367 458.604,-149.53"/>
</g>
<!-- Node20&#45;&gt;Node8 -->
<g id="edge76" class="edge"><title>Node20&#45;&gt;Node8</title>
<path fill="none" stroke="midnightblue" d="M819.972,-362.462C817.78,-347.807 816.141,-321.146 829,-304 840.768,-288.308 858.659,-277.839 876.892,-270.86"/>
<polygon fill="midnightblue" stroke="midnightblue" points="878.147,-274.129 886.427,-267.52 875.833,-267.523 878.147,-274.129"/>
</g>
<!-- Node21 -->
<g id="node50" class="node"><title>Node21</title>
<a xlink:href="Renderer_8h.xhtml" target="_top" xlink:title="Renderer.h">
<polygon fill="none" stroke="black" points="717.5,-304.5 717.5,-325.5 782.5,-325.5 782.5,-304.5 717.5,-304.5"/>
<text text-anchor="middle" x="750" y="-312.5" font-family="Helvetica,sans-Serif" font-size="10.00">Renderer.h</text>
</a>
</g>
<!-- Node20&#45;&gt;Node21 -->
<g id="edge58" class="edge"><title>Node20&#45;&gt;Node21</title>
<path fill="none" stroke="midnightblue" d="M808.794,-362.362C798.239,-353.859 783.242,-341.779 771.037,-331.947"/>
<polygon fill="midnightblue" stroke="midnightblue" points="773.105,-329.118 763.122,-325.571 768.714,-334.57 773.105,-329.118"/>
</g>
<!-- Node22 -->
<g id="node59" class="node"><title>Node22</title>
<polygon fill="none" stroke="#bfbfbf" points="936,-304.5 936,-325.5 1016,-325.5 1016,-304.5 936,-304.5"/>
<text text-anchor="middle" x="976" y="-312.5" font-family="Helvetica,sans-Serif" font-size="10.00">wx/glcanvas.h</text>
</g>
<!-- Node20&#45;&gt;Node22 -->
<g id="edge74" class="edge"><title>Node20&#45;&gt;Node22</title>
<path fill="none" stroke="midnightblue" d="M849.888,-362.497C874.668,-353.164 911.095,-339.445 938.436,-329.147"/>
<polygon fill="midnightblue" stroke="midnightblue" points="939.935,-332.323 948.059,-325.523 937.468,-325.772 939.935,-332.323"/>
</g>
<!-- Node21&#45;&gt;Node4 -->
<g id="edge70" class="edge"><title>Node21&#45;&gt;Node4</title>
<path fill="none" stroke="midnightblue" d="M717.214,-311.263C684.683,-306.153 634.786,-294.391 600,-268 566.216,-242.369 579.679,-216.191 548,-188 526.836,-169.167 497.922,-155.243 475.192,-146.256"/>
<polygon fill="midnightblue" stroke="midnightblue" points="476.143,-142.873 465.552,-142.59 473.655,-149.416 476.143,-142.873"/>
</g>
<!-- Node21&#45;&gt;Node7 -->
<g id="edge62" class="edge"><title>Node21&#45;&gt;Node7</title>
<path fill="none" stroke="midnightblue" d="M772.796,-304.407C789.968,-295.859 813.615,-282.843 832,-268 869.219,-237.951 863.984,-214.209 904,-188 946.326,-160.278 965.882,-172.812 1012,-152 1013.79,-151.194 1015.6,-150.313 1017.42,-149.389"/>
<polygon fill="midnightblue" stroke="midnightblue" points="1019.18,-152.413 1026.28,-144.546 1015.82,-146.271 1019.18,-152.413"/>
</g>
<!-- Node21&#45;&gt;Node8 -->
<g id="edge66" class="edge"><title>Node21&#45;&gt;Node8</title>
<path fill="none" stroke="midnightblue" d="M782.639,-305.292C814.748,-295.742 864.035,-281.082 899.883,-270.419"/>
<polygon fill="midnightblue" stroke="midnightblue" points="901.026,-273.731 909.613,-267.525 899.03,-267.022 901.026,-273.731"/>
</g>
<!-- Node21&#45;&gt;Node9 -->
<g id="edge60" class="edge"><title>Node21&#45;&gt;Node9</title>
<path fill="none" stroke="midnightblue" d="M762.14,-304.486C794.85,-276.159 885.448,-197.698 931.444,-157.864"/>
<polygon fill="midnightblue" stroke="midnightblue" points="933.957,-160.318 939.225,-151.126 929.374,-155.027 933.957,-160.318"/>
</g>
<!-- Node21&#45;&gt;Node11 -->
<g id="edge64" class="edge"><title>Node21&#45;&gt;Node11</title>
<path fill="none" stroke="midnightblue" d="M735.449,-304.407C704.754,-281.041 634.062,-221.591 608,-152 602.389,-137.016 600.015,-129.865 608,-116 616.253,-101.669 630.736,-91.3061 645.195,-84.0207"/>
<polygon fill="midnightblue" stroke="midnightblue" points="647.015,-87.0356 654.627,-79.6667 644.081,-80.6801 647.015,-87.0356"/>
</g>
<!-- Node21&#45;&gt;Node14 -->
<g id="edge68" class="edge"><title>Node21&#45;&gt;Node14</title>
<path fill="none" stroke="midnightblue" d="M747.416,-304.295C742.77,-285.045 732.932,-244.289 726.95,-219.509"/>
<polygon fill="midnightblue" stroke="midnightblue" points="730.327,-218.579 724.578,-209.679 723.522,-220.221 730.327,-218.579"/>
</g>
<!-- Node23&#45;&gt;Node4 -->
<g id="edge82" class="edge"><title>Node23&#45;&gt;Node4</title>
<path fill="none" stroke="midnightblue" d="M349.604,-478.382C338.904,-464.95 323.784,-441.032 331,-420 337.578,-400.827 349.913,-402.119 359,-384 373.26,-355.567 378,-346.808 378,-315 378,-315 378,-315 378,-257 378,-216.419 404.979,-175.414 423.053,-152.497"/>
<polygon fill="midnightblue" stroke="midnightblue" points="425.856,-154.598 429.469,-144.638 420.433,-150.171 425.856,-154.598"/>
</g>
<!-- Node24 -->
<g id="node66" class="node"><title>Node24</title>
<polygon fill="none" stroke="#bfbfbf" points="340,-420.5 340,-441.5 412,-441.5 412,-420.5 340,-420.5"/>
<text text-anchor="middle" x="376" y="-428.5" font-family="Helvetica,sans-Serif" font-size="10.00">wx/spinctrl.h</text>
</g>
<!-- Node23&#45;&gt;Node24 -->
<g id="edge84" class="edge"><title>Node23&#45;&gt;Node24</title>
<path fill="none" stroke="midnightblue" d="M362.118,-478.362C364.323,-470.84 367.348,-460.519 370.012,-451.431"/>
<polygon fill="midnightblue" stroke="midnightblue" points="373.448,-452.151 372.902,-441.571 366.73,-450.182 373.448,-452.151"/>
</g>
<!-- Node25&#45;&gt;Node4 -->
<g id="edge90" class="edge"><title>Node25&#45;&gt;Node4</title>
<path fill="none" stroke="midnightblue" d="M108.718,-246.256C123.29,-230.846 152.379,-202.708 183,-188 255.78,-153.042 350.914,-140.596 402.27,-136.253"/>
<polygon fill="midnightblue" stroke="midnightblue" points="402.546,-139.742 412.239,-135.466 401.995,-132.764 402.546,-139.742"/>
</g>
<!-- Node26&#45;&gt;Node4 -->
<g id="edge94" class="edge"><title>Node26&#45;&gt;Node4</title>
<path fill="none" stroke="midnightblue" d="M519.699,-478.495C498.749,-471.379 474.782,-459.916 459,-442 419.971,-397.693 420,-374.046 420,-315 420,-315 420,-315 420,-257 420,-220.649 428.205,-178.956 433.832,-154.64"/>
<polygon fill="midnightblue" stroke="midnightblue" points="437.269,-155.313 436.196,-144.773 430.462,-153.682 437.269,-155.313"/>
</g>
<!-- Node26&#45;&gt;Node11 -->
<g id="edge106" class="edge"><title>Node26&#45;&gt;Node11</title>
<path fill="none" stroke="midnightblue" d="M625.566,-482.659C772.328,-466.362 1131.71,-417.718 1203,-326 1260.82,-251.608 1247.69,-174.717 1174,-116 1141.58,-90.1685 874.533,-76.3417 751.113,-71.2788"/>
<polygon fill="midnightblue" stroke="midnightblue" points="751.187,-67.779 741.053,-70.8725 750.904,-74.7733 751.187,-67.779"/>
</g>
<!-- Node26&#45;&gt;Node14 -->
<g id="edge108" class="edge"><title>Node26&#45;&gt;Node14</title>
<path fill="none" stroke="midnightblue" d="M606.667,-478.488C639.967,-469.549 681.939,-455.971 693,-442 731.325,-393.59 701.651,-365.305 709,-304 712.503,-274.782 716.712,-241.012 719.373,-219.83"/>
<polygon fill="midnightblue" stroke="midnightblue" points="722.868,-220.087 720.644,-209.729 715.923,-219.213 722.868,-220.087"/>
</g>
<!-- Node26&#45;&gt;Node21 -->
<g id="edge112" class="edge"><title>Node26&#45;&gt;Node21</title>
<path fill="none" stroke="midnightblue" d="M623.237,-478.452C663.655,-470.144 711.974,-457.41 726,-442 752.55,-412.83 753.955,-363.841 752.228,-336.003"/>
<polygon fill="midnightblue" stroke="midnightblue" points="755.698,-335.489 751.394,-325.808 748.721,-336.061 755.698,-335.489"/>
</g>
<!-- Node26&#45;&gt;Node24 -->
<g id="edge110" class="edge"><title>Node26&#45;&gt;Node24</title>
<path fill="none" stroke="midnightblue" d="M529.136,-478.497C498.518,-469 453.257,-454.962 419.876,-444.609"/>
<polygon fill="midnightblue" stroke="midnightblue" points="420.516,-441.143 409.928,-441.523 418.442,-447.828 420.516,-441.143"/>
</g>
<!-- Node27 -->
<g id="node75" class="node"><title>Node27</title>
<a xlink:href="GUIRenderCutCanvas_8h.xhtml" target="_top" xlink:title="GUIRenderCutCanvas.h">
<polygon fill="none" stroke="black" points="560,-420.5 560,-441.5 684,-441.5 684,-420.5 560,-420.5"/>
<text text-anchor="middle" x="622" y="-428.5" font-family="Helvetica,sans-Serif" font-size="10.00">GUIRenderCutCanvas.h</text>
</a>
</g>
<!-- Node26&#45;&gt;Node27 -->
<g id="edge96" class="edge"><title>Node26&#45;&gt;Node27</title>
<path fill="none" stroke="midnightblue" d="M573.822,-478.362C582.221,-470.104 594.054,-458.472 603.89,-448.803"/>
<polygon fill="midnightblue" stroke="midnightblue" points="606.569,-451.077 611.247,-441.571 601.662,-446.085 606.569,-451.077"/>
</g>
<!-- Node29 -->
<g id="node86" class="node"><title>Node29</title>
<polygon fill="none" stroke="#bfbfbf" points="468,-420.5 468,-441.5 542,-441.5 542,-420.5 468,-420.5"/>
<text text-anchor="middle" x="505" y="-428.5" font-family="Helvetica,sans-Serif" font-size="10.00">wx/colordlg.h</text>
</g>
<!-- Node26&#45;&gt;Node29 -->
<g id="edge114" class="edge"><title>Node26&#45;&gt;Node29</title>
<path fill="none" stroke="midnightblue" d="M552.362,-478.362C544.104,-470.104 532.472,-458.472 522.803,-448.803"/>
<polygon fill="midnightblue" stroke="midnightblue" points="525.117,-446.167 515.571,-441.571 520.167,-451.117 525.117,-446.167"/>
</g>
<!-- Node27&#45;&gt;Node4 -->
<g id="edge98" class="edge"><title>Node27&#45;&gt;Node4</title>
<path fill="none" stroke="midnightblue" d="M578.482,-420.465C529.896,-405.8 458,-374.113 458,-315 458,-315 458,-315 458,-257 458,-220.649 449.795,-178.956 444.168,-154.64"/>
<polygon fill="midnightblue" stroke="midnightblue" points="447.538,-153.682 441.804,-144.773 440.731,-155.313 447.538,-153.682"/>
</g>
<!-- Node28 -->
<g id="node78" class="node"><title>Node28</title>
<a xlink:href="GUIColorScalePanel_8h.xhtml" target="_top" xlink:title="GUIColorScalePanel.h">
<polygon fill="none" stroke="black" points="564,-362.5 564,-383.5 680,-383.5 680,-362.5 564,-362.5"/>
<text text-anchor="middle" x="622" y="-370.5" font-family="Helvetica,sans-Serif" font-size="10.00">GUIColorScalePanel.h</text>
</a>
</g>
<!-- Node27&#45;&gt;Node28 -->
<g id="edge100" class="edge"><title>Node27&#45;&gt;Node28</title>
<path fill="none" stroke="midnightblue" d="M622,-420.362C622,-412.922 622,-402.743 622,-393.728"/>
<polygon fill="midnightblue" stroke="midnightblue" points="625.5,-393.571 622,-383.571 618.5,-393.571 625.5,-393.571"/>
</g>
<!-- Node28&#45;&gt;Node4 -->
<g id="edge104" class="edge"><title>Node28&#45;&gt;Node4</title>
<path fill="none" stroke="midnightblue" d="M580.809,-362.417C560.095,-355.21 536.05,-343.688 520,-326 476.364,-277.909 499.756,-246.707 472,-188 466.319,-175.984 458.639,-163.267 452.117,-153.194"/>
<polygon fill="midnightblue" stroke="midnightblue" points="454.984,-151.185 446.543,-144.782 449.149,-155.051 454.984,-151.185"/>
</g>
<!-- Node28&#45;&gt;Node21 -->
<g id="edge102" class="edge"><title>Node28&#45;&gt;Node21</title>
<path fill="none" stroke="midnightblue" d="M645.18,-362.497C665.352,-353.356 694.81,-340.008 717.364,-329.788"/>
<polygon fill="midnightblue" stroke="midnightblue" points="718.896,-332.937 726.56,-325.621 716.007,-326.561 718.896,-332.937"/>
</g>
<!-- Node31&#45;&gt;Node6 -->
<g id="edge130" class="edge"><title>Node31&#45;&gt;Node6</title>
<path fill="none" stroke="midnightblue" d="M1125.3,-304.362C1119.55,-296.431 1111.56,-285.389 1104.73,-275.961"/>
<polygon fill="midnightblue" stroke="midnightblue" points="1107.35,-273.617 1098.65,-267.571 1101.68,-277.723 1107.35,-273.617"/>
</g>
<!-- Node31&#45;&gt;Node7 -->
<g id="edge128" class="edge"><title>Node31&#45;&gt;Node7</title>
<path fill="none" stroke="midnightblue" d="M1132.36,-304.325C1131.23,-290.422 1128.15,-265.583 1120,-246 1104.94,-209.81 1077.01,-173.429 1059.24,-152.342"/>
<polygon fill="midnightblue" stroke="midnightblue" points="1061.71,-149.844 1052.54,-144.538 1056.4,-154.405 1061.71,-149.844"/>
</g>
<!-- Node31&#45;&gt;Node8 -->
<g id="edge134" class="edge"><title>Node31&#45;&gt;Node8</title>
<path fill="none" stroke="midnightblue" d="M1098.95,-304.497C1068.04,-294.959 1022.28,-280.841 988.678,-270.475"/>
<polygon fill="midnightblue" stroke="midnightblue" points="989.697,-267.127 979.109,-267.523 987.633,-273.816 989.697,-267.127"/>
</g>
<!-- Node31&#45;&gt;Node12 -->
<g id="edge132" class="edge"><title>Node31&#45;&gt;Node12</title>
<path fill="none" stroke="midnightblue" d="M1140.44,-304.489C1162.28,-272.27 1221.7,-173.592 1174,-116 1107.76,-36.027 770.823,-16.4927 657.354,-12.1473"/>
<polygon fill="midnightblue" stroke="midnightblue" points="657.209,-8.63977 647.088,-11.7727 656.953,-15.6351 657.209,-8.63977"/>
</g>
</g>
</svg>
