<?xml version="1.0" encoding="UTF-8" standalone="no"?>
<!DOCTYPE svg PUBLIC "-//W3C//DTD SVG 1.1//EN"
 "http://www.w3.org/Graphics/SVG/1.1/DTD/svg11.dtd">
<!-- Generated by graphviz version 2.26.3 (20100126.1600)
 -->
<!-- Title: /daten/Projekte/eclipse_workspace/simpleanalyzer&#45;gui/src/GUI/GUICutRenderWindow.h Pages: 1 -->
<svg width="992pt" height="224pt"
 viewBox="0.00 0.00 992.00 224.00" xmlns="http://www.w3.org/2000/svg" xmlns:xlink="http://www.w3.org/1999/xlink">
<g id="graph1" class="graph" transform="scale(1 1) rotate(0) translate(4 220)">
<title>/daten/Projekte/eclipse_workspace/simpleanalyzer&#45;gui/src/GUI/GUICutRenderWindow.h</title>
<!-- Node1 -->
<g id="node1" class="node"><title>Node1</title>
<polygon fill="#bfbfbf" stroke="black" points="428,-168.5 428,-215.5 610,-215.5 610,-168.5 428,-168.5"/>
<text text-anchor="start" x="436" y="-202.5" font-family="Helvetica,sans-Serif" font-size="10.00">/daten/Projekte/eclipse</text>
<text text-anchor="start" x="436" y="-189.5" font-family="Helvetica,sans-Serif" font-size="10.00">_workspace/simpleanalyzer</text>
<text text-anchor="middle" x="519" y="-176.5" font-family="Helvetica,sans-Serif" font-size="10.00">&#45;gui/src/GUI/GUICutRenderWindow.h</text>
</g>
<!-- Node2 -->
<g id="node3" class="node"><title>Node2</title>
<a xlink:href="GUIMainWindow_8h.xhtml" target="_top" xlink:title="/daten/Projekte/eclipse\l_workspace/simpleanalyzer\l&#45;gui/src/GUI/GUIMainWindow.h">
<polygon fill="none" stroke="black" points="441.5,-84.5 441.5,-131.5 596.5,-131.5 596.5,-84.5 441.5,-84.5"/>
<text text-anchor="start" x="449.5" y="-118.5" font-family="Helvetica,sans-Serif" font-size="10.00">/daten/Projekte/eclipse</text>
<text text-anchor="start" x="449.5" y="-105.5" font-family="Helvetica,sans-Serif" font-size="10.00">_workspace/simpleanalyzer</text>
<text text-anchor="middle" x="519" y="-92.5" font-family="Helvetica,sans-Serif" font-size="10.00">&#45;gui/src/GUI/GUIMainWindow.h</text>
</a>
</g>
<!-- Node1&#45;&gt;Node2 -->
<g id="edge2" class="edge"><title>Node1&#45;&gt;Node2</title>
<path fill="none" stroke="midnightblue" d="M519,-158.066C519,-149.193 519,-139.821 519,-131.615"/>
<polygon fill="midnightblue" stroke="midnightblue" points="515.5,-158.154 519,-168.154 522.5,-158.154 515.5,-158.154"/>
</g>
<!-- Node4 -->
<g id="node7" class="node"><title>Node4</title>
<a xlink:href="GUICutRenderWindow_8cpp.xhtml" target="_top" xlink:title="/daten/Projekte/eclipse\l_workspace/simpleanalyzer\l&#45;gui/src/GUI/GUICutRenderWindow.cpp">
<polygon fill="none" stroke="black" points="0,-0.5 0,-47.5 192,-47.5 192,-0.5 0,-0.5"/>
<text text-anchor="start" x="8" y="-34.5" font-family="Helvetica,sans-Serif" font-size="10.00">/daten/Projekte/eclipse</text>
<text text-anchor="start" x="8" y="-21.5" font-family="Helvetica,sans-Serif" font-size="10.00">_workspace/simpleanalyzer</text>
<text text-anchor="middle" x="96" y="-8.5" font-family="Helvetica,sans-Serif" font-size="10.00">&#45;gui/src/GUI/GUICutRenderWindow.cpp</text>
</a>
</g>
<!-- Node1&#45;&gt;Node4 -->
<g id="edge14" class="edge"><title>Node1&#45;&gt;Node4</title>
<path fill="none" stroke="midnightblue" d="M450.013,-164.601C368.03,-132.04 232.627,-78.263 155.201,-47.5125"/>
<polygon fill="midnightblue" stroke="midnightblue" points="449.153,-168.025 459.738,-168.463 451.736,-161.519 449.153,-168.025"/>
</g>
<!-- Node6 -->
<g id="node11" class="node"><title>Node6</title>
<a xlink:href="GUIRenderCutCanvas_8cpp.xhtml" target="_top" xlink:title="/daten/Projekte/eclipse\l_workspace/simpleanalyzer\l&#45;gui/src/GUI/GUIRenderCutCanvas.cpp">
<polygon fill="none" stroke="black" points="793.5,-0.5 793.5,-47.5 984.5,-47.5 984.5,-0.5 793.5,-0.5"/>
<text text-anchor="start" x="801.5" y="-34.5" font-family="Helvetica,sans-Serif" font-size="10.00">/daten/Projekte/eclipse</text>
<text text-anchor="start" x="801.5" y="-21.5" font-family="Helvetica,sans-Serif" font-size="10.00">_workspace/simpleanalyzer</text>
<text text-anchor="middle" x="889" y="-8.5" font-family="Helvetica,sans-Serif" font-size="10.00">&#45;gui/src/GUI/GUIRenderCutCanvas.cpp</text>
</a>
</g>
<!-- Node1&#45;&gt;Node6 -->
<g id="edge16" class="edge"><title>Node1&#45;&gt;Node6</title>
<path fill="none" stroke="midnightblue" d="M580.22,-164.203C652.016,-131.603 769.767,-78.138 837.216,-47.5125"/>
<polygon fill="midnightblue" stroke="midnightblue" points="578.495,-161.142 570.837,-168.463 581.389,-167.516 578.495,-161.142"/>
</g>
<!-- Node3 -->
<g id="node5" class="node"><title>Node3</title>
<a xlink:href="GUIAnalyzeOutputWindow_8cpp.xhtml" target="_top" xlink:title="/daten/Projekte/eclipse\l_workspace/simpleanalyzer\l&#45;gui/src/GUI/GUIAnalyzeOutputWindow.cpp">
<polygon fill="none" stroke="black" points="209.5,-0.5 209.5,-47.5 418.5,-47.5 418.5,-0.5 209.5,-0.5"/>
<text text-anchor="start" x="217.5" y="-34.5" font-family="Helvetica,sans-Serif" font-size="10.00">/daten/Projekte/eclipse</text>
<text text-anchor="start" x="217.5" y="-21.5" font-family="Helvetica,sans-Serif" font-size="10.00">_workspace/simpleanalyzer</text>
<text text-anchor="middle" x="314" y="-8.5" font-family="Helvetica,sans-Serif" font-size="10.00">&#45;gui/src/GUI/GUIAnalyzeOutputWindow.cpp</text>
</a>
</g>
<!-- Node2&#45;&gt;Node3 -->
<g id="edge4" class="edge"><title>Node2&#45;&gt;Node3</title>
<path fill="none" stroke="midnightblue" d="M452.184,-80.6217C426.089,-69.9292 396.469,-57.792 371.363,-47.5047"/>
<polygon fill="midnightblue" stroke="midnightblue" points="451.043,-83.9366 461.623,-84.4896 453.697,-77.4593 451.043,-83.9366"/>
</g>
<!-- Node2&#45;&gt;Node4 -->
<g id="edge6" class="edge"><title>Node2&#45;&gt;Node4</title>
<path fill="none" stroke="midnightblue" d="M431.354,-92.3938C367.388,-80.7777 278.657,-64.195 201,-48 198.071,-47.3892 195.098,-46.761 192.098,-46.1199"/>
<polygon fill="midnightblue" stroke="midnightblue" points="430.938,-95.8753 441.402,-94.2146 432.186,-88.9875 430.938,-95.8753"/>
</g>
<!-- Node5 -->
<g id="node9" class="node"><title>Node5</title>
<a xlink:href="GUIMainWindow_8cpp.xhtml" target="_top" xlink:title="/daten/Projekte/eclipse\l_workspace/simpleanalyzer\l&#45;gui/src/GUI/GUIMainWindow.cpp">
<polygon fill="none" stroke="black" points="436,-0.5 436,-47.5 602,-47.5 602,-0.5 436,-0.5"/>
<text text-anchor="start" x="444" y="-34.5" font-family="Helvetica,sans-Serif" font-size="10.00">/daten/Projekte/eclipse</text>
<text text-anchor="start" x="444" y="-21.5" font-family="Helvetica,sans-Serif" font-size="10.00">_workspace/simpleanalyzer</text>
<text text-anchor="middle" x="519" y="-8.5" font-family="Helvetica,sans-Serif" font-size="10.00">&#45;gui/src/GUI/GUIMainWindow.cpp</text>
</a>
</g>
<!-- Node2&#45;&gt;Node5 -->
<g id="edge8" class="edge"><title>Node2&#45;&gt;Node5</title>
<path fill="none" stroke="midnightblue" d="M519,-74.0664C519,-65.1933 519,-55.821 519,-47.6152"/>
<polygon fill="midnightblue" stroke="midnightblue" points="515.5,-74.1536 519,-84.1537 522.5,-74.1537 515.5,-74.1536"/>
</g>
<!-- Node2&#45;&gt;Node6 -->
<g id="edge10" class="edge"><title>Node2&#45;&gt;Node6</title>
<path fill="none" stroke="midnightblue" d="M606.554,-88.3653C658.445,-76.6999 725.488,-61.5785 785,-48 787.71,-47.3817 790.459,-46.7535 793.234,-46.1186"/>
<polygon fill="midnightblue" stroke="midnightblue" points="605.705,-84.9687 596.716,-90.5764 607.24,-91.7983 605.705,-84.9687"/>
</g>
<!-- Node7 -->
<g id="node13" class="node"><title>Node7</title>
<a xlink:href="SimpleAnalyzerApp_8cpp.xhtml" target="_top" xlink:title="/daten/Projekte/eclipse\l_workspace/simpleanalyzer\l&#45;gui/src/SimpleAnalyzerApp.cpp">
<polygon fill="none" stroke="black" points="620,-0.5 620,-47.5 776,-47.5 776,-0.5 620,-0.5"/>
<text text-anchor="start" x="628" y="-34.5" font-family="Helvetica,sans-Serif" font-size="10.00">/daten/Projekte/eclipse</text>
<text text-anchor="start" x="628" y="-21.5" font-family="Helvetica,sans-Serif" font-size="10.00">_workspace/simpleanalyzer</text>
<text text-anchor="middle" x="698" y="-8.5" font-family="Helvetica,sans-Serif" font-size="10.00">&#45;gui/src/SimpleAnalyzerApp.cpp</text>
</a>
</g>
<!-- Node2&#45;&gt;Node7 -->
<g id="edge12" class="edge"><title>Node2&#45;&gt;Node7</title>
<path fill="none" stroke="midnightblue" d="M578.438,-80.1072C600.89,-69.5709 626.199,-57.6945 647.73,-47.5903"/>
<polygon fill="midnightblue" stroke="midnightblue" points="576.904,-76.961 569.338,-84.3778 579.878,-83.298 576.904,-76.961"/>
</g>
</g>
</svg>
