<?xml version="1.0" encoding="UTF-8" standalone="no"?>
<!DOCTYPE svg PUBLIC "-//W3C//DTD SVG 1.1//EN"
 "http://www.w3.org/Graphics/SVG/1.1/DTD/svg11.dtd">
<!-- Generated by graphviz version 2.26.3 (20100126.1600)
 -->
<!-- Title: simpleanalyzer&#45;gui/src/GUI/GUICutRenderWindow.h Pages: 1 -->
<!--zoomable 536 -->
<svg id="main" version="1.1" xmlns="http://www.w3.org/2000/svg" xmlns:xlink="http://www.w3.org/1999/xlink" xml:space="preserve" onload="init(evt)">
<style type="text/css"><![CDATA[
.edge:hover path { stroke: red; }
.edge:hover polygon { stroke: red; fill: red; }
]]></style>
<script type="text/javascript"><![CDATA[
var edges = document.getElementsByTagName('g');
if (edges && edges.length) {
  for (var i=0;i<edges.length;i++) {
    if (edges[i].id.substr(0,4)=='edge') {
      edges[i].setAttribute('class','edge');
    }
  }
}
]]></script>
        <defs>
                <circle id="rim" cx="0" cy="0" r="7"/>
                <circle id="rim2" cx="0" cy="0" r="3.5"/>
                <g id="zoomPlus">
                        <use xlink:href="#rim" fill="#404040">
                                <set attributeName="fill" to="#808080" begin="zoomplus.mouseover" end="zoomplus.mouseout"/>
                        </use>
                        <path d="M-4,0h8M0,-4v8" fill="none" stroke="white" stroke-width="1.5" pointer-events="none"/>
                </g>
                <g id="zoomMin">
                        <use xlink:href="#rim" fill="#404040">
                                <set attributeName="fill" to="#808080" begin="zoomminus.mouseover" end="zoomminus.mouseout"/>
                        </use>
                        <path d="M-4,0h8" fill="none" stroke="white" stroke-width="1.5" pointer-events="none"/>
                </g>
                <g id="dirArrow">
                        <path fill="none" stroke="white" stroke-width="1.5" d="M0,-3.0v7 M-2.5,-0.5L0,-3.0L2.5,-0.5"/>
                </g>
               <g id="resetDef">
                       <use xlink:href="#rim2" fill="#404040">
                               <set attributeName="fill" to="#808080" begin="reset.mouseover" end="reset.mouseout"/>
                       </use>
               </g>
        </defs>

<script type="text/javascript">
var viewWidth = 765;
var viewHeight = 536;
var sectionId = 'dynsection-0';
</script>
<script xlink:href="svgpan.js"/>
<svg id="graph" class="graph">
<g id="viewport">
<title>simpleanalyzer&#45;gui/src/GUI/GUICutRenderWindow.h</title>
<!-- Node1 -->
<g id="node1" class="node"><title>Node1</title>
<polygon fill="#bfbfbf" stroke="black" points="167,-493 167,-527 333,-527 333,-493 167,-493"/>
<text text-anchor="start" x="175" y="-514" font-family="Helvetica,sans-Serif" font-size="10.00">simpleanalyzer&#45;gui</text>
<text text-anchor="middle" x="250" y="-501" font-family="Helvetica,sans-Serif" font-size="10.00">/src/GUI/GUICutRenderWindow.h</text>
</g>
<!-- Node2 -->
<g id="node3" class="node"><title>Node2</title>
<polygon fill="none" stroke="#bfbfbf" points="87.5,-137.5 87.5,-158.5 140.5,-158.5 140.5,-137.5 87.5,-137.5"/>
<text text-anchor="middle" x="114" y="-145.5" font-family="Helvetica,sans-Serif" font-size="10.00">wx/wx.h</text>
</g>
<!-- Node1&#45;&gt;Node2 -->
<g id="edge2" class="edge"><title>Node1&#45;&gt;Node2</title>
<path fill="none" stroke="midnightblue" d="M166.82,-495.956C107.427,-480.609 38,-449.338 38,-387 38,-387 38,-387 38,-271 38,-228.337 71.499,-188.107 94.0164,-165.885"/>
<polygon fill="midnightblue" stroke="midnightblue" points="96.6253,-168.233 101.45,-158.801 91.7962,-163.166 96.6253,-168.233"/>
</g>
<!-- Node3 -->
<g id="node5" class="node"><title>Node3</title>
<a xlink:href="GUIRenderCutCanvas_8h.xhtml" target="_top" xlink:title="GUIRenderCutCanvas.h">
<polygon fill="none" stroke="black" points="98,-434.5 98,-455.5 222,-455.5 222,-434.5 98,-434.5"/>
<text text-anchor="middle" x="160" y="-442.5" font-family="Helvetica,sans-Serif" font-size="10.00">GUIRenderCutCanvas.h</text>
</a>
</g>
<!-- Node1&#45;&gt;Node3 -->
<g id="edge4" class="edge"><title>Node1&#45;&gt;Node3</title>
<path fill="none" stroke="midnightblue" d="M226.354,-492.922C212.939,-483.233 196.228,-471.165 182.932,-461.562"/>
<polygon fill="midnightblue" stroke="midnightblue" points="184.914,-458.676 174.758,-455.658 180.815,-464.351 184.914,-458.676"/>
</g>
<!-- Node5 -->
<g id="node10" class="node"><title>Node5</title>
<a xlink:href="Renderer_8h.xhtml" target="_top" xlink:title="Renderer.h">
<polygon fill="none" stroke="black" points="206.5,-318.5 206.5,-339.5 271.5,-339.5 271.5,-318.5 206.5,-318.5"/>
<text text-anchor="middle" x="239" y="-326.5" font-family="Helvetica,sans-Serif" font-size="10.00">Renderer.h</text>
</a>
</g>
<!-- Node1&#45;&gt;Node5 -->
<g id="edge64" class="edge"><title>Node1&#45;&gt;Node5</title>
<path fill="none" stroke="midnightblue" d="M248.965,-492.972C246.948,-459.779 242.495,-386.504 240.289,-350.216"/>
<polygon fill="midnightblue" stroke="midnightblue" points="243.759,-349.601 239.658,-339.832 236.771,-350.026 243.759,-349.601"/>
</g>
<!-- Node8 -->
<g id="node16" class="node"><title>Node8</title>
<a xlink:href="GeometryClasses_8h.xhtml" target="_top" xlink:title="../libraries/interpolate\l/GeometryClasses.h">
<polygon fill="none" stroke="black" points="262.5,-59 262.5,-93 369.5,-93 369.5,-59 262.5,-59"/>
<text text-anchor="start" x="270.5" y="-80" font-family="Helvetica,sans-Serif" font-size="10.00">../libraries/interpolate</text>
<text text-anchor="middle" x="316" y="-67" font-family="Helvetica,sans-Serif" font-size="10.00">/GeometryClasses.h</text>
</a>
</g>
<!-- Node1&#45;&gt;Node8 -->
<g id="edge58" class="edge"><title>Node1&#45;&gt;Node8</title>
<path fill="none" stroke="midnightblue" d="M166.839,-499.822C129.32,-492.22 85.9193,-478.988 52,-456 20.2123,-434.457 3.55271e-15,-425.4 0,-387 0,-387 0,-387 0,-213 3.55271e-15,-162.073 34.73,-155.174 79,-130 132.71,-99.4574 202.506,-86.1877 252.42,-80.4236"/>
<polygon fill="midnightblue" stroke="midnightblue" points="252.877,-83.8947 262.441,-79.336 252.122,-76.9355 252.877,-83.8947"/>
</g>
<!-- Node13 -->
<g id="node29" class="node"><title>Node13</title>
<a xlink:href="utils_8h.xhtml" target="_top" xlink:title="utils.h">
<polygon fill="none" stroke="black" points="413.5,-202.5 413.5,-223.5 456.5,-223.5 456.5,-202.5 413.5,-202.5"/>
<text text-anchor="middle" x="435" y="-210.5" font-family="Helvetica,sans-Serif" font-size="10.00">utils.h</text>
</a>
</g>
<!-- Node1&#45;&gt;Node13 -->
<g id="edge60" class="edge"><title>Node1&#45;&gt;Node13</title>
<path fill="none" stroke="midnightblue" d="M333.289,-502.121C403.973,-490.301 494,-460.768 494,-387 494,-387 494,-387 494,-329 494,-291.102 468.671,-253.067 451.205,-231.345"/>
<polygon fill="midnightblue" stroke="midnightblue" points="453.835,-229.034 444.743,-223.595 448.459,-233.517 453.835,-229.034"/>
</g>
<!-- Node17 -->
<g id="node48" class="node"><title>Node17</title>
<polygon fill="none" stroke="#bfbfbf" points="522,-434.5 522,-455.5 594,-455.5 594,-434.5 522,-434.5"/>
<text text-anchor="middle" x="558" y="-442.5" font-family="Helvetica,sans-Serif" font-size="10.00">wx/spinctrl.h</text>
</g>
<!-- Node1&#45;&gt;Node17 -->
<g id="edge62" class="edge"><title>Node1&#45;&gt;Node17</title>
<path fill="none" stroke="midnightblue" d="M332.542,-492.948C383.201,-482.426 449.386,-468.581 508,-456 509.271,-455.727 510.56,-455.45 511.861,-455.169"/>
<polygon fill="midnightblue" stroke="midnightblue" points="512.93,-458.518 521.96,-452.975 511.444,-451.678 512.93,-458.518"/>
</g>
<!-- Node18 -->
<g id="node51" class="node"><title>Node18</title>
<polygon fill="none" stroke="#bfbfbf" points="612,-434.5 612,-455.5 686,-455.5 686,-434.5 612,-434.5"/>
<text text-anchor="middle" x="649" y="-442.5" font-family="Helvetica,sans-Serif" font-size="10.00">wx/colordlg.h</text>
</g>
<!-- Node1&#45;&gt;Node18 -->
<g id="edge66" class="edge"><title>Node1&#45;&gt;Node18</title>
<path fill="none" stroke="midnightblue" d="M333.073,-499.273C402.438,-489.86 504.105,-475.007 601.846,-456.112"/>
<polygon fill="midnightblue" stroke="midnightblue" points="602.756,-459.5 611.901,-454.151 601.416,-452.63 602.756,-459.5"/>
</g>
<!-- Node3&#45;&gt;Node2 -->
<g id="edge6" class="edge"><title>Node3&#45;&gt;Node2</title>
<path fill="none" stroke="midnightblue" d="M138.595,-434.487C124.251,-426.392 106.037,-413.902 95,-398 76.8636,-371.869 76,-360.808 76,-329 76,-329 76,-329 76,-271 76,-233.061 92.708,-191.355 103.966,-167.558"/>
<polygon fill="midnightblue" stroke="midnightblue" points="107.138,-169.04 108.393,-158.519 100.851,-165.961 107.138,-169.04"/>
</g>
<!-- Node4 -->
<g id="node8" class="node"><title>Node4</title>
<a xlink:href="GUIColorScalePanel_8h.xhtml" target="_top" xlink:title="GUIColorScalePanel.h">
<polygon fill="none" stroke="black" points="104,-376.5 104,-397.5 220,-397.5 220,-376.5 104,-376.5"/>
<text text-anchor="middle" x="162" y="-384.5" font-family="Helvetica,sans-Serif" font-size="10.00">GUIColorScalePanel.h</text>
</a>
</g>
<!-- Node3&#45;&gt;Node4 -->
<g id="edge8" class="edge"><title>Node3&#45;&gt;Node4</title>
<path fill="none" stroke="midnightblue" d="M160.367,-434.362C160.623,-426.922 160.974,-416.743 161.285,-407.728"/>
<polygon fill="midnightblue" stroke="midnightblue" points="164.789,-407.685 161.635,-397.571 157.793,-407.444 164.789,-407.685"/>
</g>
<!-- Node4&#45;&gt;Node2 -->
<g id="edge56" class="edge"><title>Node4&#45;&gt;Node2</title>
<path fill="none" stroke="midnightblue" d="M159.686,-376.338C154.061,-350.337 139.308,-281.583 128,-224 124.339,-205.355 120.444,-184.08 117.694,-168.79"/>
<polygon fill="midnightblue" stroke="midnightblue" points="121.12,-168.066 115.914,-158.839 114.229,-169.299 121.12,-168.066"/>
</g>
<!-- Node4&#45;&gt;Node5 -->
<g id="edge10" class="edge"><title>Node4&#45;&gt;Node5</title>
<path fill="none" stroke="midnightblue" d="M176.123,-376.362C187.52,-367.777 203.758,-355.546 216.878,-345.664"/>
<polygon fill="midnightblue" stroke="midnightblue" points="219.085,-348.383 224.967,-339.571 214.873,-342.792 219.085,-348.383"/>
</g>
<!-- Node5&#45;&gt;Node2 -->
<g id="edge54" class="edge"><title>Node5&#45;&gt;Node2</title>
<path fill="none" stroke="midnightblue" d="M220.198,-318.47C206.511,-310.043 188.294,-297.154 176,-282 147.485,-246.853 128.811,-196.446 119.968,-168.548"/>
<polygon fill="midnightblue" stroke="midnightblue" points="123.233,-167.258 116.966,-158.716 116.539,-169.302 123.233,-167.258"/>
</g>
<!-- Node6 -->
<g id="node12" class="node"><title>Node6</title>
<polygon fill="none" stroke="#bfbfbf" points="668.5,-131 668.5,-165 757.5,-165 757.5,-131 668.5,-131"/>
<text text-anchor="start" x="676.5" y="-152" font-family="Helvetica,sans-Serif" font-size="10.00">../libraries/tetgen</text>
<text text-anchor="middle" x="713" y="-139" font-family="Helvetica,sans-Serif" font-size="10.00">/tetgen.h</text>
</g>
<!-- Node5&#45;&gt;Node6 -->
<g id="edge12" class="edge"><title>Node5&#45;&gt;Node6</title>
<path fill="none" stroke="midnightblue" d="M271.74,-322.384C308.584,-314.518 369.956,-300.141 421,-282 513.162,-249.246 616.072,-198.491 671.763,-169.764"/>
<polygon fill="midnightblue" stroke="midnightblue" points="673.674,-172.715 680.943,-165.007 670.454,-166.5 673.674,-172.715"/>
</g>
<!-- Node7 -->
<g id="node14" class="node"><title>Node7</title>
<polygon fill="none" stroke="#bfbfbf" points="201,-137.5 201,-158.5 245,-158.5 245,-137.5 201,-137.5"/>
<text text-anchor="middle" x="223" y="-145.5" font-family="Helvetica,sans-Serif" font-size="10.00">vector</text>
</g>
<!-- Node5&#45;&gt;Node7 -->
<g id="edge14" class="edge"><title>Node5&#45;&gt;Node7</title>
<path fill="none" stroke="midnightblue" d="M238.071,-318.486C235.497,-289.37 228.241,-207.292 224.824,-168.63"/>
<polygon fill="midnightblue" stroke="midnightblue" points="228.299,-168.196 223.932,-158.543 221.326,-168.812 228.299,-168.196"/>
</g>
<!-- Node5&#45;&gt;Node8 -->
<g id="edge16" class="edge"><title>Node5&#45;&gt;Node8</title>
<path fill="none" stroke="midnightblue" d="M231.035,-318.073C208.944,-286.318 151.143,-192.355 192,-130 205.681,-109.12 229.384,-96.2695 252.426,-88.3803"/>
<polygon fill="midnightblue" stroke="midnightblue" points="253.742,-91.6355 262.229,-85.294 251.64,-84.9585 253.742,-91.6355"/>
</g>
<!-- Node10 -->
<g id="node20" class="node"><title>Node10</title>
<a xlink:href="ObjectData_8h.xhtml" target="_top" xlink:title="../processing/ObjectData.h">
<polygon fill="none" stroke="black" points="256,-260.5 256,-281.5 390,-281.5 390,-260.5 256,-260.5"/>
<text text-anchor="middle" x="323" y="-268.5" font-family="Helvetica,sans-Serif" font-size="10.00">../processing/ObjectData.h</text>
</a>
</g>
<!-- Node5&#45;&gt;Node10 -->
<g id="edge20" class="edge"><title>Node5&#45;&gt;Node10</title>
<path fill="none" stroke="midnightblue" d="M254.407,-318.362C266.958,-309.696 284.892,-297.313 299.275,-287.382"/>
<polygon fill="midnightblue" stroke="midnightblue" points="301.45,-290.133 307.691,-281.571 297.473,-284.372 301.45,-290.133"/>
</g>
<!-- Node5&#45;&gt;Node13 -->
<g id="edge52" class="edge"><title>Node5&#45;&gt;Node13</title>
<path fill="none" stroke="midnightblue" d="M271.741,-322.544C312.617,-313.957 379.539,-297.99 399,-282 414.268,-269.455 423.84,-248.724 429.242,-233.255"/>
<polygon fill="midnightblue" stroke="midnightblue" points="432.633,-234.141 432.334,-223.551 425.963,-232.016 432.633,-234.141"/>
</g>
<!-- Node9 -->
<g id="node18" class="node"><title>Node9</title>
<polygon fill="none" stroke="#bfbfbf" points="451,-0.5 451,-21.5 505,-21.5 505,-0.5 451,-0.5"/>
<text text-anchor="middle" x="478" y="-8.5" font-family="Helvetica,sans-Serif" font-size="10.00">iostream</text>
</g>
<!-- Node8&#45;&gt;Node9 -->
<g id="edge18" class="edge"><title>Node8&#45;&gt;Node9</title>
<path fill="none" stroke="midnightblue" d="M358.564,-58.922C384.55,-48.4953 417.408,-35.3116 442.079,-25.4127"/>
<polygon fill="midnightblue" stroke="midnightblue" points="443.459,-28.6305 451.436,-21.6584 440.852,-22.1339 443.459,-28.6305"/>
</g>
<!-- Node10&#45;&gt;Node6 -->
<g id="edge22" class="edge"><title>Node10&#45;&gt;Node6</title>
<path fill="none" stroke="midnightblue" d="M360.048,-260.441C389.039,-251.772 430.144,-238.584 465,-224 484.804,-215.714 487.883,-209.493 508,-202 571.034,-178.523 590.183,-183.977 655,-166 656.229,-165.659 657.471,-165.31 658.722,-164.955"/>
<polygon fill="midnightblue" stroke="midnightblue" points="659.808,-168.285 668.432,-162.131 657.853,-161.563 659.808,-168.285"/>
</g>
<!-- Node10&#45;&gt;Node7 -->
<g id="edge24" class="edge"><title>Node10&#45;&gt;Node7</title>
<path fill="none" stroke="midnightblue" d="M314.126,-260.085C297.033,-239.061 259.368,-192.733 238.203,-166.7"/>
<polygon fill="midnightblue" stroke="midnightblue" points="240.736,-164.267 231.712,-158.715 235.304,-168.682 240.736,-164.267"/>
</g>
<!-- Node11 -->
<g id="node24" class="node"><title>Node11</title>
<a xlink:href="Interpolator_8h.xhtml" target="_top" xlink:title="../libraries/interpolate\l/Interpolator.h">
<polygon fill="none" stroke="black" points="262.5,-131 262.5,-165 369.5,-165 369.5,-131 262.5,-131"/>
<text text-anchor="start" x="270.5" y="-152" font-family="Helvetica,sans-Serif" font-size="10.00">../libraries/interpolate</text>
<text text-anchor="middle" x="316" y="-139" font-family="Helvetica,sans-Serif" font-size="10.00">/Interpolator.h</text>
</a>
</g>
<!-- Node10&#45;&gt;Node11 -->
<g id="edge26" class="edge"><title>Node10&#45;&gt;Node11</title>
<path fill="none" stroke="midnightblue" d="M322.379,-260.085C321.308,-241.275 319.085,-202.21 317.568,-175.547"/>
<polygon fill="midnightblue" stroke="midnightblue" points="321.048,-175.102 316.986,-165.317 314.059,-175.5 321.048,-175.102"/>
</g>
<!-- Node12 -->
<g id="node27" class="node"><title>Node12</title>
<polygon fill="none" stroke="#bfbfbf" points="331.5,-202.5 331.5,-223.5 396.5,-223.5 396.5,-202.5 331.5,-202.5"/>
<text text-anchor="middle" x="364" y="-210.5" font-family="Helvetica,sans-Serif" font-size="10.00">wx/string.h</text>
</g>
<!-- Node10&#45;&gt;Node12 -->
<g id="edge30" class="edge"><title>Node10&#45;&gt;Node12</title>
<path fill="none" stroke="midnightblue" d="M330.52,-260.362C336.126,-252.431 343.932,-241.389 350.597,-231.961"/>
<polygon fill="midnightblue" stroke="midnightblue" points="353.613,-233.757 356.528,-223.571 347.897,-229.716 353.613,-233.757"/>
</g>
<!-- Node10&#45;&gt;Node13 -->
<g id="edge32" class="edge"><title>Node10&#45;&gt;Node13</title>
<path fill="none" stroke="midnightblue" d="M343.282,-260.497C360.618,-251.519 385.79,-238.484 405.38,-228.339"/>
<polygon fill="midnightblue" stroke="midnightblue" points="407.22,-231.328 414.49,-223.621 404.001,-225.112 407.22,-231.328"/>
</g>
<!-- Node11&#45;&gt;Node8 -->
<g id="edge28" class="edge"><title>Node11&#45;&gt;Node8</title>
<path fill="none" stroke="midnightblue" d="M316,-130.937C316,-122.807 316,-112.876 316,-103.705"/>
<polygon fill="midnightblue" stroke="midnightblue" points="319.5,-103.441 316,-93.4407 312.5,-103.441 319.5,-103.441"/>
</g>
<!-- Node13&#45;&gt;Node2 -->
<g id="edge44" class="edge"><title>Node13&#45;&gt;Node2</title>
<path fill="none" stroke="midnightblue" d="M413.194,-204.477C410.459,-203.565 407.681,-202.712 405,-202 312.204,-177.37 286.15,-184.803 192,-166 178.45,-163.294 163.661,-159.975 150.637,-156.927"/>
<polygon fill="midnightblue" stroke="midnightblue" points="151.167,-153.456 140.629,-154.558 149.554,-160.268 151.167,-153.456"/>
</g>
<!-- Node13&#45;&gt;Node6 -->
<g id="edge46" class="edge"><title>Node13&#45;&gt;Node6</title>
<path fill="none" stroke="midnightblue" d="M456.736,-205.753C461.103,-204.415 465.678,-203.096 470,-202 551.195,-181.41 573.769,-186.444 655,-166 656.237,-165.689 657.486,-165.367 658.743,-165.036"/>
<polygon fill="midnightblue" stroke="midnightblue" points="659.78,-168.381 668.49,-162.349 657.92,-161.632 659.78,-168.381"/>
</g>
<!-- Node13&#45;&gt;Node7 -->
<g id="edge36" class="edge"><title>Node13&#45;&gt;Node7</title>
<path fill="none" stroke="midnightblue" d="M413.472,-204.763C410.64,-203.781 407.762,-202.832 405,-202 338.943,-182.09 318.069,-191.594 254,-166 252.136,-165.255 250.25,-164.413 248.377,-163.509"/>
<polygon fill="midnightblue" stroke="midnightblue" points="249.749,-160.273 239.28,-158.644 246.448,-166.446 249.749,-160.273"/>
</g>
<!-- Node13&#45;&gt;Node8 -->
<g id="edge48" class="edge"><title>Node13&#45;&gt;Node8</title>
<path fill="none" stroke="midnightblue" d="M428.931,-202.427C419.266,-186.032 399.285,-153.88 378,-130 368.388,-119.216 356.686,-108.519 346.049,-99.5261"/>
<polygon fill="midnightblue" stroke="midnightblue" points="348.11,-96.6883 338.175,-93.0077 343.646,-102.08 348.11,-96.6883"/>
</g>
<!-- Node13&#45;&gt;Node9 -->
<g id="edge34" class="edge"><title>Node13&#45;&gt;Node9</title>
<path fill="none" stroke="midnightblue" d="M456.739,-203.467C458.171,-202.943 459.6,-202.449 461,-202 530.825,-179.624 576.158,-223.225 622,-166 665.526,-111.667 565.667,-52.8239 510.881,-25.9317"/>
<polygon fill="midnightblue" stroke="midnightblue" points="512.391,-22.774 501.862,-21.5923 509.356,-29.0819 512.391,-22.774"/>
</g>
<!-- Node13&#45;&gt;Node11 -->
<g id="edge50" class="edge"><title>Node13&#45;&gt;Node11</title>
<path fill="none" stroke="midnightblue" d="M415.616,-202.412C399.624,-193.677 376.396,-180.99 356.392,-170.063"/>
<polygon fill="midnightblue" stroke="midnightblue" points="357.919,-166.909 347.465,-165.187 354.564,-173.052 357.919,-166.909"/>
</g>
<!-- Node14 -->
<g id="node33" class="node"><title>Node14</title>
<polygon fill="none" stroke="#bfbfbf" points="425,-137.5 425,-158.5 481,-158.5 481,-137.5 425,-137.5"/>
<text text-anchor="middle" x="453" y="-145.5" font-family="Helvetica,sans-Serif" font-size="10.00">algorithm</text>
</g>
<!-- Node13&#45;&gt;Node14 -->
<g id="edge38" class="edge"><title>Node13&#45;&gt;Node14</title>
<path fill="none" stroke="midnightblue" d="M437.972,-202.267C440.515,-193.085 444.245,-179.615 447.353,-168.392"/>
<polygon fill="midnightblue" stroke="midnightblue" points="450.787,-169.105 450.083,-158.534 444.041,-167.237 450.787,-169.105"/>
</g>
<!-- Node15 -->
<g id="node35" class="node"><title>Node15</title>
<polygon fill="none" stroke="#bfbfbf" points="499,-137.5 499,-158.5 543,-158.5 543,-137.5 499,-137.5"/>
<text text-anchor="middle" x="521" y="-145.5" font-family="Helvetica,sans-Serif" font-size="10.00">cmath</text>
</g>
<!-- Node13&#45;&gt;Node15 -->
<g id="edge40" class="edge"><title>Node13&#45;&gt;Node15</title>
<path fill="none" stroke="midnightblue" d="M449.201,-202.267C462.726,-192.044 483.287,-176.504 498.944,-164.67"/>
<polygon fill="midnightblue" stroke="midnightblue" points="501.196,-167.356 507.063,-158.534 496.975,-161.771 501.196,-167.356"/>
</g>
<!-- Node16 -->
<g id="node37" class="node"><title>Node16</title>
<polygon fill="none" stroke="#bfbfbf" points="561,-137.5 561,-158.5 613,-158.5 613,-137.5 561,-137.5"/>
<text text-anchor="middle" x="587" y="-145.5" font-family="Helvetica,sans-Serif" font-size="10.00">sstream</text>
</g>
<!-- Node13&#45;&gt;Node16 -->
<g id="edge42" class="edge"><title>Node13&#45;&gt;Node16</title>
<path fill="none" stroke="midnightblue" d="M456.819,-204.932C480.513,-196.01 519.346,-180.916 552,-166 554.02,-165.077 556.091,-164.099 558.168,-163.093"/>
<polygon fill="midnightblue" stroke="midnightblue" points="559.781,-166.2 567.168,-158.605 556.657,-159.936 559.781,-166.2"/>
</g>
</g>
</svg>
        <g id="navigator" transform="translate(0 0)" fill="#404254">
                <rect fill="#f2f5e9" fill-opacity="0.5" stroke="#606060" stroke-width=".5" x="0" y="0" width="60" height="60"/>
                <use id="zoomplus" xlink:href="#zoomPlus" x="17" y="9" onmousedown="handleZoom(evt,'in')"/>
                <use id="zoomminus" xlink:href="#zoomMin" x="42" y="9" onmousedown="handleZoom(evt,'out')"/>
                <use id="reset" xlink:href="#resetDef" x="30" y="36" onmousedown="handleReset()"/>
                <g id="arrowUp" xlink:href="#dirArrow" transform="translate(30 24)" onmousedown="handlePan(0,-1)">
                  <use xlink:href="#rim" fill="#404040">
                        <set attributeName="fill" to="#808080" begin="arrowUp.mouseover" end="arrowUp.mouseout"/>
                  </use>
                  <path fill="none" stroke="white" stroke-width="1.5" d="M0,-3.0v7 M-2.5,-0.5L0,-3.0L2.5,-0.5"/>
                </g>
                <g id="arrowRight" xlink:href="#dirArrow" transform="rotate(90) translate(36 -43)" onmousedown="handlePan(1,0)">
                  <use xlink:href="#rim" fill="#404040">
                        <set attributeName="fill" to="#808080" begin="arrowRight.mouseover" end="arrowRight.mouseout"/>
                  </use>
                  <path fill="none" stroke="white" stroke-width="1.5" d="M0,-3.0v7 M-2.5,-0.5L0,-3.0L2.5,-0.5"/>
                </g>
                <g id="arrowDown" xlink:href="#dirArrow" transform="rotate(180) translate(-30 -48)" onmousedown="handlePan(0,1)">
                  <use xlink:href="#rim" fill="#404040">
                        <set attributeName="fill" to="#808080" begin="arrowDown.mouseover" end="arrowDown.mouseout"/>
                  </use>
                  <path fill="none" stroke="white" stroke-width="1.5" d="M0,-3.0v7 M-2.5,-0.5L0,-3.0L2.5,-0.5"/>
                </g>
                <g id="arrowLeft" xlink:href="#dirArrow" transform="rotate(270) translate(-36 17)" onmousedown="handlePan(-1,0)">
                  <use xlink:href="#rim" fill="#404040">
                        <set attributeName="fill" to="#808080" begin="arrowLeft.mouseover" end="arrowLeft.mouseout"/>
                  </use>
                  <path fill="none" stroke="white" stroke-width="1.5" d="M0,-3.0v7 M-2.5,-0.5L0,-3.0L2.5,-0.5"/>
                </g>
        </g>
        <svg viewBox="0 0 15 15" width="100%" height="30px" preserveAspectRatio="xMaxYMin meet">
         <g id="arrow_out" transform="scale(0.3 0.3)">
          <a xlink:href="GUICutRenderWindow_8h__incl_org.svg" target="_base">
           <rect id="button" ry="5" rx="5" y="6" x="6" height="38" width="38"
                fill="#f2f5e9" fill-opacity="0.5" stroke="#606060" stroke-width="1.0"/>
           <path id="arrow"
             d="M 11.500037,31.436501 C 11.940474,20.09759 22.043105,11.32322 32.158766,21.979434 L 37.068811,17.246167 C 37.068811,17.246167 37.088388,32 37.088388,32 L 22.160133,31.978069 C 22.160133,31.978069 26.997745,27.140456 26.997745,27.140456 C 18.528582,18.264221 13.291696,25.230495 11.500037,31.436501 z"
             style="fill:#404040;"/>
          </a>
         </g>
        </svg>
</svg>
