<?xml version="1.0" encoding="UTF-8" standalone="no"?>
<!DOCTYPE svg PUBLIC "-//W3C//DTD SVG 1.1//EN"
 "http://www.w3.org/Graphics/SVG/1.1/DTD/svg11.dtd">
<!-- Generated by graphviz version 2.26.3 (20100126.1600)
 -->
<!-- Title: simpleanalyzer&#45;gui/src/GUI/GUIColorScalePanel.cpp Pages: 1 -->
<svg width="798pt" height="478pt"
 viewBox="0.00 0.00 798.00 478.00" xmlns="http://www.w3.org/2000/svg" xmlns:xlink="http://www.w3.org/1999/xlink">
<g id="graph1" class="graph" transform="scale(1 1) rotate(0) translate(4 474)">
<title>simpleanalyzer&#45;gui/src/GUI/GUIColorScalePanel.cpp</title>
<!-- Node1 -->
<g id="node1" class="node"><title>Node1</title>
<polygon fill="#bfbfbf" stroke="black" points="565.5,-435 565.5,-469 732.5,-469 732.5,-435 565.5,-435"/>
<text text-anchor="start" x="573.5" y="-456" font-family="Helvetica,sans-Serif" font-size="10.00">simpleanalyzer&#45;gui</text>
<text text-anchor="middle" x="649" y="-443" font-family="Helvetica,sans-Serif" font-size="10.00">/src/GUI/GUIColorScalePanel.cpp</text>
</g>
<!-- Node2 -->
<g id="node3" class="node"><title>Node2</title>
<a xlink:href="GUIColorScalePanel_8h.xhtml" target="_top" xlink:title="GUIColorScalePanel.h">
<polygon fill="none" stroke="black" points="548,-376.5 548,-397.5 664,-397.5 664,-376.5 548,-376.5"/>
<text text-anchor="middle" x="606" y="-384.5" font-family="Helvetica,sans-Serif" font-size="10.00">GUIColorScalePanel.h</text>
</a>
</g>
<!-- Node1&#45;&gt;Node2 -->
<g id="edge2" class="edge"><title>Node1&#45;&gt;Node2</title>
<path fill="none" stroke="midnightblue" d="M637.702,-434.922C631.88,-426.12 624.757,-415.354 618.74,-406.258"/>
<polygon fill="midnightblue" stroke="midnightblue" points="621.616,-404.261 613.179,-397.852 615.777,-408.123 621.616,-404.261"/>
</g>
<!-- Node7 -->
<g id="node13" class="node"><title>Node7</title>
<polygon fill="none" stroke="#bfbfbf" points="414,-0.5 414,-21.5 468,-21.5 468,-0.5 414,-0.5"/>
<text text-anchor="middle" x="441" y="-8.5" font-family="Helvetica,sans-Serif" font-size="10.00">iostream</text>
</g>
<!-- Node1&#45;&gt;Node7 -->
<g id="edge52" class="edge"><title>Node1&#45;&gt;Node7</title>
<path fill="none" stroke="midnightblue" d="M659.19,-434.74C671.906,-411.529 692,-368.588 692,-329 692,-329 692,-329 692,-148 692,-51.9056 548.504,-22.8039 478.508,-14.3246"/>
<polygon fill="midnightblue" stroke="midnightblue" points="478.669,-10.8205 468.339,-13.1755 477.883,-17.7763 478.669,-10.8205"/>
</g>
<!-- Node11 -->
<g id="node24" class="node"><title>Node11</title>
<a xlink:href="utils_8h.xhtml" target="_top" xlink:title="utils.h">
<polygon fill="none" stroke="black" points="308.5,-202.5 308.5,-223.5 351.5,-223.5 351.5,-202.5 308.5,-202.5"/>
<text text-anchor="middle" x="330" y="-210.5" font-family="Helvetica,sans-Serif" font-size="10.00">utils.h</text>
</a>
</g>
<!-- Node1&#45;&gt;Node11 -->
<g id="edge54" class="edge"><title>Node1&#45;&gt;Node11</title>
<path fill="none" stroke="midnightblue" d="M584.479,-434.981C512.905,-412.514 399.902,-365.661 342,-282 332.295,-267.978 329.622,-248.61 329.189,-233.963"/>
<polygon fill="midnightblue" stroke="midnightblue" points="332.689,-233.857 329.215,-223.848 325.689,-233.839 332.689,-233.857"/>
</g>
<!-- Node16 -->
<g id="node44" class="node"><title>Node16</title>
<polygon fill="none" stroke="#bfbfbf" points="719.5,-376.5 719.5,-397.5 790.5,-397.5 790.5,-376.5 719.5,-376.5"/>
<text text-anchor="middle" x="755" y="-384.5" font-family="Helvetica,sans-Serif" font-size="10.00">wx/artprov.h</text>
</g>
<!-- Node1&#45;&gt;Node16 -->
<g id="edge56" class="edge"><title>Node1&#45;&gt;Node16</title>
<path fill="none" stroke="midnightblue" d="M676.85,-434.922C692.951,-425.049 713.083,-412.704 728.881,-403.016"/>
<polygon fill="midnightblue" stroke="midnightblue" points="730.923,-405.87 737.619,-397.658 727.264,-399.902 730.923,-405.87"/>
</g>
<!-- Node3 -->
<g id="node5" class="node"><title>Node3</title>
<a xlink:href="Renderer_8h.xhtml" target="_top" xlink:title="Renderer.h">
<polygon fill="none" stroke="black" points="504.5,-318.5 504.5,-339.5 569.5,-339.5 569.5,-318.5 504.5,-318.5"/>
<text text-anchor="middle" x="537" y="-326.5" font-family="Helvetica,sans-Serif" font-size="10.00">Renderer.h</text>
</a>
</g>
<!-- Node2&#45;&gt;Node3 -->
<g id="edge4" class="edge"><title>Node2&#45;&gt;Node3</title>
<path fill="none" stroke="midnightblue" d="M593.344,-376.362C583.326,-367.941 569.133,-356.011 557.499,-346.231"/>
<polygon fill="midnightblue" stroke="midnightblue" points="559.482,-343.326 549.575,-339.571 554.978,-348.684 559.482,-343.326"/>
</g>
<!-- Node15 -->
<g id="node34" class="node"><title>Node15</title>
<polygon fill="none" stroke="#bfbfbf" points="611.5,-137.5 611.5,-158.5 664.5,-158.5 664.5,-137.5 611.5,-137.5"/>
<text text-anchor="middle" x="638" y="-145.5" font-family="Helvetica,sans-Serif" font-size="10.00">wx/wx.h</text>
</g>
<!-- Node2&#45;&gt;Node15 -->
<g id="edge50" class="edge"><title>Node2&#45;&gt;Node15</title>
<path fill="none" stroke="midnightblue" d="M608.681,-376.415C615.077,-350.585 631.13,-282.181 637,-224 638.858,-205.587 638.98,-184.538 638.711,-169.268"/>
<polygon fill="midnightblue" stroke="midnightblue" points="642.2,-168.767 638.451,-158.857 635.202,-168.942 642.2,-168.767"/>
</g>
<!-- Node4 -->
<g id="node7" class="node"><title>Node4</title>
<polygon fill="none" stroke="#bfbfbf" points="-0.5,-131 -0.5,-165 88.5,-165 88.5,-131 -0.5,-131"/>
<text text-anchor="start" x="7.5" y="-152" font-family="Helvetica,sans-Serif" font-size="10.00">../libraries/tetgen</text>
<text text-anchor="middle" x="44" y="-139" font-family="Helvetica,sans-Serif" font-size="10.00">/tetgen.h</text>
</g>
<!-- Node3&#45;&gt;Node4 -->
<g id="edge6" class="edge"><title>Node3&#45;&gt;Node4</title>
<path fill="none" stroke="midnightblue" d="M504.385,-323.071C465.228,-315.513 397.85,-301.102 342,-282 247.686,-249.743 142.446,-198.635 85.7138,-169.753"/>
<polygon fill="midnightblue" stroke="midnightblue" points="87.1971,-166.58 76.7002,-165.143 84.0096,-172.812 87.1971,-166.58"/>
</g>
<!-- Node5 -->
<g id="node9" class="node"><title>Node5</title>
<polygon fill="none" stroke="#bfbfbf" points="512,-137.5 512,-158.5 556,-158.5 556,-137.5 512,-137.5"/>
<text text-anchor="middle" x="534" y="-145.5" font-family="Helvetica,sans-Serif" font-size="10.00">vector</text>
</g>
<!-- Node3&#45;&gt;Node5 -->
<g id="edge8" class="edge"><title>Node3&#45;&gt;Node5</title>
<path fill="none" stroke="midnightblue" d="M536.826,-318.486C536.343,-289.37 534.983,-207.292 534.342,-168.63"/>
<polygon fill="midnightblue" stroke="midnightblue" points="537.84,-168.483 534.175,-158.543 530.841,-168.599 537.84,-168.483"/>
</g>
<!-- Node6 -->
<g id="node11" class="node"><title>Node6</title>
<a xlink:href="GeometryClasses_8h.xhtml" target="_top" xlink:title="../libraries/interpolate\l/GeometryClasses.h">
<polygon fill="none" stroke="black" points="387.5,-59 387.5,-93 494.5,-93 494.5,-59 387.5,-59"/>
<text text-anchor="start" x="395.5" y="-80" font-family="Helvetica,sans-Serif" font-size="10.00">../libraries/interpolate</text>
<text text-anchor="middle" x="441" y="-67" font-family="Helvetica,sans-Serif" font-size="10.00">/GeometryClasses.h</text>
</a>
</g>
<!-- Node3&#45;&gt;Node6 -->
<g id="edge10" class="edge"><title>Node3&#45;&gt;Node6</title>
<path fill="none" stroke="midnightblue" d="M543.031,-318.423C560.163,-286.835 605.346,-191.575 565,-130 551.319,-109.12 527.616,-96.2695 504.574,-88.3803"/>
<polygon fill="midnightblue" stroke="midnightblue" points="505.36,-84.9585 494.771,-85.294 503.258,-91.6355 505.36,-84.9585"/>
</g>
<!-- Node8 -->
<g id="node15" class="node"><title>Node8</title>
<a xlink:href="ObjectData_8h.xhtml" target="_top" xlink:title="../processing/ObjectData.h">
<polygon fill="none" stroke="black" points="371,-260.5 371,-281.5 505,-281.5 505,-260.5 371,-260.5"/>
<text text-anchor="middle" x="438" y="-268.5" font-family="Helvetica,sans-Serif" font-size="10.00">../processing/ObjectData.h</text>
</a>
</g>
<!-- Node3&#45;&gt;Node8 -->
<g id="edge14" class="edge"><title>Node3&#45;&gt;Node8</title>
<path fill="none" stroke="midnightblue" d="M518.842,-318.362C503.77,-309.532 482.113,-296.844 465.007,-286.822"/>
<polygon fill="midnightblue" stroke="midnightblue" points="466.441,-283.606 456.043,-281.571 462.902,-289.646 466.441,-283.606"/>
</g>
<!-- Node3&#45;&gt;Node11 -->
<g id="edge46" class="edge"><title>Node3&#45;&gt;Node11</title>
<path fill="none" stroke="midnightblue" d="M504.128,-323.589C459.661,-315.707 383.424,-300.025 362,-282 347.223,-269.567 338.886,-248.82 334.453,-233.316"/>
<polygon fill="midnightblue" stroke="midnightblue" points="337.836,-232.415 331.978,-223.587 331.052,-234.141 337.836,-232.415"/>
</g>
<!-- Node3&#45;&gt;Node15 -->
<g id="edge48" class="edge"><title>Node3&#45;&gt;Node15</title>
<path fill="none" stroke="midnightblue" d="M553.531,-318.471C565.699,-309.958 581.83,-296.956 592,-282 616.312,-246.247 628.925,-196.415 634.442,-168.695"/>
<polygon fill="midnightblue" stroke="midnightblue" points="637.934,-169.064 636.33,-158.591 631.053,-167.778 637.934,-169.064"/>
</g>
<!-- Node6&#45;&gt;Node7 -->
<g id="edge12" class="edge"><title>Node6&#45;&gt;Node7</title>
<path fill="none" stroke="midnightblue" d="M441,-58.922C441,-50.6704 441,-40.6922 441,-31.9818"/>
<polygon fill="midnightblue" stroke="midnightblue" points="444.5,-31.8521 441,-21.8521 437.5,-31.8521 444.5,-31.8521"/>
</g>
<!-- Node8&#45;&gt;Node4 -->
<g id="edge16" class="edge"><title>Node8&#45;&gt;Node4</title>
<path fill="none" stroke="midnightblue" d="M402.595,-260.495C374.402,-251.761 334.143,-238.459 300,-224 280.232,-215.629 277.187,-209.303 257,-202 191.403,-178.27 169.08,-185.075 98.5191,-166.254"/>
<polygon fill="midnightblue" stroke="midnightblue" points="99.285,-162.834 88.715,-163.558 97.4295,-169.584 99.285,-162.834"/>
</g>
<!-- Node8&#45;&gt;Node5 -->
<g id="edge18" class="edge"><title>Node8&#45;&gt;Node5</title>
<path fill="none" stroke="midnightblue" d="M446.519,-260.085C462.928,-239.061 499.086,-192.733 519.405,-166.7"/>
<polygon fill="midnightblue" stroke="midnightblue" points="522.243,-168.752 525.637,-158.715 516.725,-164.445 522.243,-168.752"/>
</g>
<!-- Node9 -->
<g id="node19" class="node"><title>Node9</title>
<a xlink:href="Interpolator_8h.xhtml" target="_top" xlink:title="../libraries/interpolate\l/Interpolator.h">
<polygon fill="none" stroke="black" points="387.5,-131 387.5,-165 494.5,-165 494.5,-131 387.5,-131"/>
<text text-anchor="start" x="395.5" y="-152" font-family="Helvetica,sans-Serif" font-size="10.00">../libraries/interpolate</text>
<text text-anchor="middle" x="441" y="-139" font-family="Helvetica,sans-Serif" font-size="10.00">/Interpolator.h</text>
</a>
</g>
<!-- Node8&#45;&gt;Node9 -->
<g id="edge20" class="edge"><title>Node8&#45;&gt;Node9</title>
<path fill="none" stroke="midnightblue" d="M439.183,-260.189C440.161,-250.674 441.472,-236.436 442,-224 442.683,-207.926 442.488,-189.925 442.097,-175.477"/>
<polygon fill="midnightblue" stroke="midnightblue" points="445.587,-175.097 441.771,-165.213 438.591,-175.319 445.587,-175.097"/>
</g>
<!-- Node10 -->
<g id="node22" class="node"><title>Node10</title>
<polygon fill="none" stroke="#bfbfbf" points="368.5,-202.5 368.5,-223.5 433.5,-223.5 433.5,-202.5 368.5,-202.5"/>
<text text-anchor="middle" x="401" y="-210.5" font-family="Helvetica,sans-Serif" font-size="10.00">wx/string.h</text>
</g>
<!-- Node8&#45;&gt;Node10 -->
<g id="edge24" class="edge"><title>Node8&#45;&gt;Node10</title>
<path fill="none" stroke="midnightblue" d="M431.214,-260.362C426.207,-252.513 419.255,-241.616 413.282,-232.253"/>
<polygon fill="midnightblue" stroke="midnightblue" points="416.072,-230.119 407.743,-223.571 410.171,-233.884 416.072,-230.119"/>
</g>
<!-- Node8&#45;&gt;Node11 -->
<g id="edge26" class="edge"><title>Node8&#45;&gt;Node11</title>
<path fill="none" stroke="midnightblue" d="M418.442,-260.497C401.802,-251.56 377.673,-238.602 358.82,-228.477"/>
<polygon fill="midnightblue" stroke="midnightblue" points="360.243,-225.269 349.777,-223.621 356.931,-231.436 360.243,-225.269"/>
</g>
<!-- Node9&#45;&gt;Node6 -->
<g id="edge22" class="edge"><title>Node9&#45;&gt;Node6</title>
<path fill="none" stroke="midnightblue" d="M441,-130.937C441,-122.807 441,-112.876 441,-103.705"/>
<polygon fill="midnightblue" stroke="midnightblue" points="444.5,-103.441 441,-93.4407 437.5,-103.441 444.5,-103.441"/>
</g>
<!-- Node11&#45;&gt;Node4 -->
<g id="edge40" class="edge"><title>Node11&#45;&gt;Node4</title>
<path fill="none" stroke="midnightblue" d="M308.274,-205.711C303.907,-204.376 299.328,-203.069 295,-202 211.22,-181.304 185.387,-187.924 98.4333,-166.184"/>
<polygon fill="midnightblue" stroke="midnightblue" points="99.2342,-162.776 88.679,-163.691 97.5014,-169.558 99.2342,-162.776"/>
</g>
<!-- Node11&#45;&gt;Node5 -->
<g id="edge30" class="edge"><title>Node11&#45;&gt;Node5</title>
<path fill="none" stroke="midnightblue" d="M351.538,-204.796C354.369,-203.808 357.243,-202.85 360,-202 422.63,-182.693 442.292,-190.695 503,-166 504.859,-165.244 506.742,-164.392 508.613,-163.482"/>
<polygon fill="midnightblue" stroke="midnightblue" points="510.547,-166.416 517.704,-158.603 507.237,-160.248 510.547,-166.416"/>
</g>
<!-- Node11&#45;&gt;Node6 -->
<g id="edge42" class="edge"><title>Node11&#45;&gt;Node6</title>
<path fill="none" stroke="midnightblue" d="M334.904,-202.345C342.793,-185.84 359.419,-153.543 379,-130 388.092,-119.068 399.495,-108.468 410.035,-99.5966"/>
<polygon fill="midnightblue" stroke="midnightblue" points="412.357,-102.218 417.873,-93.1725 407.92,-96.8042 412.357,-102.218"/>
</g>
<!-- Node11&#45;&gt;Node7 -->
<g id="edge28" class="edge"><title>Node11&#45;&gt;Node7</title>
<path fill="none" stroke="midnightblue" d="M308.193,-203.314C293.604,-195.532 275.565,-183.076 267,-166 259.826,-151.698 259.534,-144.151 267,-130 295.914,-75.1961 362.692,-40.8316 404.603,-23.8423"/>
<polygon fill="midnightblue" stroke="midnightblue" points="405.884,-27.0991 413.914,-20.187 403.327,-20.5832 405.884,-27.0991"/>
</g>
<!-- Node11&#45;&gt;Node9 -->
<g id="edge44" class="edge"><title>Node11&#45;&gt;Node9</title>
<path fill="none" stroke="midnightblue" d="M348.329,-202.267C363.146,-193.59 384.504,-181.083 402.983,-170.262"/>
<polygon fill="midnightblue" stroke="midnightblue" points="404.921,-173.183 411.782,-165.11 401.384,-167.143 404.921,-173.183"/>
</g>
<!-- Node12 -->
<g id="node28" class="node"><title>Node12</title>
<polygon fill="none" stroke="#bfbfbf" points="276,-137.5 276,-158.5 332,-158.5 332,-137.5 276,-137.5"/>
<text text-anchor="middle" x="304" y="-145.5" font-family="Helvetica,sans-Serif" font-size="10.00">algorithm</text>
</g>
<!-- Node11&#45;&gt;Node12 -->
<g id="edge32" class="edge"><title>Node11&#45;&gt;Node12</title>
<path fill="none" stroke="midnightblue" d="M325.707,-202.267C321.996,-192.991 316.535,-179.336 312.018,-168.045"/>
<polygon fill="midnightblue" stroke="midnightblue" points="315.177,-166.519 308.213,-158.534 308.678,-169.118 315.177,-166.519"/>
</g>
<!-- Node13 -->
<g id="node30" class="node"><title>Node13</title>
<polygon fill="none" stroke="#bfbfbf" points="106,-137.5 106,-158.5 150,-158.5 150,-137.5 106,-137.5"/>
<text text-anchor="middle" x="128" y="-145.5" font-family="Helvetica,sans-Serif" font-size="10.00">cmath</text>
</g>
<!-- Node11&#45;&gt;Node13 -->
<g id="edge34" class="edge"><title>Node11&#45;&gt;Node13</title>
<path fill="none" stroke="midnightblue" d="M308.202,-205.98C303.841,-204.623 299.283,-203.239 295,-202 234.937,-184.622 216.773,-189.912 159,-166 157.146,-165.232 155.266,-164.373 153.398,-163.456"/>
<polygon fill="midnightblue" stroke="midnightblue" points="154.777,-160.223 144.313,-158.563 151.457,-166.386 154.777,-160.223"/>
</g>
<!-- Node14 -->
<g id="node32" class="node"><title>Node14</title>
<polygon fill="none" stroke="#bfbfbf" points="168,-137.5 168,-158.5 220,-158.5 220,-137.5 168,-137.5"/>
<text text-anchor="middle" x="194" y="-145.5" font-family="Helvetica,sans-Serif" font-size="10.00">sstream</text>
</g>
<!-- Node11&#45;&gt;Node14 -->
<g id="edge36" class="edge"><title>Node11&#45;&gt;Node14</title>
<path fill="none" stroke="midnightblue" d="M308.45,-202.701C286.135,-192.035 251.036,-175.26 225.587,-163.097"/>
<polygon fill="midnightblue" stroke="midnightblue" points="226.885,-159.838 216.353,-158.683 223.866,-166.153 226.885,-159.838"/>
</g>
<!-- Node11&#45;&gt;Node15 -->
<g id="edge38" class="edge"><title>Node11&#45;&gt;Node15</title>
<path fill="none" stroke="midnightblue" d="M351.81,-204.494C354.545,-203.579 357.321,-202.72 360,-202 449.333,-177.983 474.485,-185.084 565,-166 576.953,-163.48 589.923,-160.397 601.568,-157.499"/>
<polygon fill="midnightblue" stroke="midnightblue" points="602.562,-160.858 611.402,-155.019 600.85,-154.071 602.562,-160.858"/>
</g>
</g>
</svg>
