<?xml version="1.0" encoding="UTF-8" standalone="no"?>
<!DOCTYPE svg PUBLIC "-//W3C//DTD SVG 1.1//EN"
 "http://www.w3.org/Graphics/SVG/1.1/DTD/svg11.dtd">
<!-- Generated by graphviz version 2.36.0 (20140111.2315)
 -->
<!-- Title: /daten/Projekte/eclipse_workspace/simpleanalyzer&#45;gui/src/GUI/GUIColorScalePanel.cpp Pages: 1 -->
<svg width="830pt" height="522pt"
 viewBox="0.00 0.00 830.00 522.00" xmlns="http://www.w3.org/2000/svg" xmlns:xlink="http://www.w3.org/1999/xlink">
<g id="graph0" class="graph" transform="scale(1 1) rotate(0) translate(4 518)">
<title>/daten/Projekte/eclipse_workspace/simpleanalyzer&#45;gui/src/GUI/GUIColorScalePanel.cpp</title>
<!-- Node1 -->
<g id="node1" class="node"><title>Node1</title>
<polygon fill="#bfbfbf" stroke="black" points="251,-472.5 251,-513.5 433,-513.5 433,-472.5 251,-472.5"/>
<text text-anchor="start" x="259" y="-501.5" font-family="Helvetica,sans-Serif" font-size="10.00">/daten/Projekte/eclipse</text>
<text text-anchor="start" x="259" y="-490.5" font-family="Helvetica,sans-Serif" font-size="10.00">_workspace/simpleanalyzer</text>
<text text-anchor="middle" x="342" y="-479.5" font-family="Helvetica,sans-Serif" font-size="10.00">&#45;gui/src/GUI/GUIColorScalePanel.cpp</text>
</g>
<!-- Node2 -->
<g id="node2" class="node"><title>Node2</title>
<g id="a_node2"><a xlink:href="GUIColorScalePanel_8h.xhtml" target="_top" xlink:title="GUIColorScalePanel.h">
<polygon fill="none" stroke="black" points="706,-360.5 706,-379.5 822,-379.5 822,-360.5 706,-360.5"/>
<text text-anchor="middle" x="764" y="-367.5" font-family="Helvetica,sans-Serif" font-size="10.00">GUIColorScalePanel.h</text>
</a>
</g>
</g>
<!-- Node1&#45;&gt;Node2 -->
<g id="edge1" class="edge"><title>Node1&#45;&gt;Node2</title>
<path fill="none" stroke="midnightblue" d="M363.113,-472.301C383.475,-454.515 415.987,-429.176 449,-416 460.347,-411.471 606.476,-391.707 695.661,-379.931"/>
<polygon fill="midnightblue" stroke="midnightblue" points="696.251,-383.383 705.707,-378.606 695.336,-376.443 696.251,-383.383"/>
</g>
<!-- Node7 -->
<g id="node7" class="node"><title>Node7</title>
<polygon fill="none" stroke="#bfbfbf" points="217,-0.5 217,-19.5 271,-19.5 271,-0.5 217,-0.5"/>
<text text-anchor="middle" x="244" y="-7.5" font-family="Helvetica,sans-Serif" font-size="10.00">iostream</text>
</g>
<!-- Node1&#45;&gt;Node7 -->
<g id="edge26" class="edge"><title>Node1&#45;&gt;Node7</title>
<path fill="none" stroke="midnightblue" d="M250.8,-478.094C149.487,-460.011 0,-424.298 0,-371 0,-371 0,-371 0,-139 0,-46.824 138.24,-20.8904 206.614,-13.7009"/>
<polygon fill="midnightblue" stroke="midnightblue" points="207.339,-17.1472 216.955,-12.7007 206.665,-10.1797 207.339,-17.1472"/>
</g>
<!-- Node11 -->
<g id="node11" class="node"><title>Node11</title>
<g id="a_node11"><a xlink:href="simpleanalyzer-gui_2src_2processing_2utils_8h.xhtml" target="_top" xlink:title="utils.h">
<polygon fill="none" stroke="black" points="242.5,-192.5 242.5,-211.5 285.5,-211.5 285.5,-192.5 242.5,-192.5"/>
<text text-anchor="middle" x="264" y="-199.5" font-family="Helvetica,sans-Serif" font-size="10.00">utils.h</text>
</a>
</g>
</g>
<!-- Node1&#45;&gt;Node11 -->
<g id="edge35" class="edge"><title>Node1&#45;&gt;Node11</title>
<path fill="none" stroke="midnightblue" d="M295.109,-472.385C256.818,-452.874 209,-418.917 209,-371 209,-371 209,-371 209,-313 209,-276.569 233.433,-239.836 249.729,-219.387"/>
<polygon fill="midnightblue" stroke="midnightblue" points="252.438,-221.603 256.12,-211.668 247.046,-217.139 252.438,-221.603"/>
</g>
<!-- Node16 -->
<g id="node16" class="node"><title>Node16</title>
<g id="a_node16"><a xlink:href="SimpleAnalyzerApp_8h.xhtml" target="_top" xlink:title="../SimpleAnalyzerApp.h">
<polygon fill="none" stroke="black" points="282.5,-416.5 282.5,-435.5 401.5,-435.5 401.5,-416.5 282.5,-416.5"/>
<text text-anchor="middle" x="342" y="-423.5" font-family="Helvetica,sans-Serif" font-size="10.00">../SimpleAnalyzerApp.h</text>
</a>
</g>
</g>
<!-- Node1&#45;&gt;Node16 -->
<g id="edge27" class="edge"><title>Node1&#45;&gt;Node16</title>
<path fill="none" stroke="midnightblue" d="M342,-472.498C342,-464.065 342,-454.235 342,-445.874"/>
<polygon fill="midnightblue" stroke="midnightblue" points="345.5,-445.652 342,-435.652 338.5,-445.653 345.5,-445.652"/>
</g>
<!-- Node19 -->
<g id="node19" class="node"><title>Node19</title>
<polygon fill="none" stroke="#bfbfbf" points="458.5,-416.5 458.5,-435.5 529.5,-435.5 529.5,-416.5 458.5,-416.5"/>
<text text-anchor="middle" x="494" y="-423.5" font-family="Helvetica,sans-Serif" font-size="10.00">wx/artprov.h</text>
</g>
<!-- Node1&#45;&gt;Node19 -->
<g id="edge36" class="edge"><title>Node1&#45;&gt;Node19</title>
<path fill="none" stroke="midnightblue" d="M387.605,-472.498C412.478,-461.861 442.551,-449.001 464.371,-439.67"/>
<polygon fill="midnightblue" stroke="midnightblue" points="465.948,-442.803 473.766,-435.652 463.196,-436.366 465.948,-442.803"/>
</g>
<!-- Node3 -->
<g id="node3" class="node"><title>Node3</title>
<g id="a_node3"><a xlink:href="simpleanalyzer-gui_2src_2GUI_2Renderer_8h.xhtml" target="_top" xlink:title="Renderer.h">
<polygon fill="none" stroke="black" points="536.5,-304.5 536.5,-323.5 601.5,-323.5 601.5,-304.5 536.5,-304.5"/>
<text text-anchor="middle" x="569" y="-311.5" font-family="Helvetica,sans-Serif" font-size="10.00">Renderer.h</text>
</a>
</g>
</g>
<!-- Node2&#45;&gt;Node3 -->
<g id="edge2" class="edge"><title>Node2&#45;&gt;Node3</title>
<path fill="none" stroke="midnightblue" d="M733.102,-360.444C699.726,-351.201 646.406,-336.436 609.651,-326.257"/>
<polygon fill="midnightblue" stroke="midnightblue" points="610.325,-322.812 599.754,-323.516 608.457,-329.558 610.325,-322.812"/>
</g>
<!-- Node15 -->
<g id="node15" class="node"><title>Node15</title>
<polygon fill="none" stroke="#bfbfbf" points="665.5,-130.5 665.5,-149.5 718.5,-149.5 718.5,-130.5 665.5,-130.5"/>
<text text-anchor="middle" x="692" y="-137.5" font-family="Helvetica,sans-Serif" font-size="10.00">wx/wx.h</text>
</g>
<!-- Node2&#45;&gt;Node15 -->
<g id="edge25" class="edge"><title>Node2&#45;&gt;Node15</title>
<path fill="none" stroke="midnightblue" d="M762.221,-360.36C756.758,-334.41 739.183,-255.054 716,-192 711.84,-180.684 706.125,-168.448 701.316,-158.798"/>
<polygon fill="midnightblue" stroke="midnightblue" points="704.399,-157.14 696.735,-149.825 698.164,-160.323 704.399,-157.14"/>
</g>
<!-- Node4 -->
<g id="node4" class="node"><title>Node4</title>
<polygon fill="none" stroke="#bfbfbf" points="496.5,-125 496.5,-155 585.5,-155 585.5,-125 496.5,-125"/>
<text text-anchor="start" x="504.5" y="-143" font-family="Helvetica,sans-Serif" font-size="10.00">../libraries/tetgen</text>
<text text-anchor="middle" x="541" y="-132" font-family="Helvetica,sans-Serif" font-size="10.00">/tetgen.h</text>
</g>
<!-- Node3&#45;&gt;Node4 -->
<g id="edge3" class="edge"><title>Node3&#45;&gt;Node4</title>
<path fill="none" stroke="midnightblue" d="M569.755,-304.339C571.266,-284.263 573.737,-233.123 564,-192 561.756,-182.523 557.742,-172.647 553.688,-164.137"/>
<polygon fill="midnightblue" stroke="midnightblue" points="556.812,-162.559 549.187,-155.204 550.561,-165.709 556.812,-162.559"/>
</g>
<!-- Node5 -->
<g id="node5" class="node"><title>Node5</title>
<polygon fill="none" stroke="#bfbfbf" points="435,-130.5 435,-149.5 479,-149.5 479,-130.5 435,-130.5"/>
<text text-anchor="middle" x="457" y="-137.5" font-family="Helvetica,sans-Serif" font-size="10.00">vector</text>
</g>
<!-- Node3&#45;&gt;Node5 -->
<g id="edge4" class="edge"><title>Node3&#45;&gt;Node5</title>
<path fill="none" stroke="midnightblue" d="M568.101,-304.222C565.549,-283.005 556.627,-228.034 530,-192 523.052,-182.597 498.832,-166.502 480.174,-154.906"/>
<polygon fill="midnightblue" stroke="midnightblue" points="481.917,-151.868 471.562,-149.623 478.256,-157.835 481.917,-151.868"/>
</g>
<!-- Node6 -->
<g id="node6" class="node"><title>Node6</title>
<g id="a_node6"><a xlink:href="GeometryClasses_8h.xhtml" target="_top" xlink:title="../libraries/interpolate\l/GeometryClasses.h">
<polygon fill="none" stroke="black" points="291.5,-57 291.5,-87 398.5,-87 398.5,-57 291.5,-57"/>
<text text-anchor="start" x="299.5" y="-75" font-family="Helvetica,sans-Serif" font-size="10.00">../libraries/interpolate</text>
<text text-anchor="middle" x="345" y="-64" font-family="Helvetica,sans-Serif" font-size="10.00">/GeometryClasses.h</text>
</a>
</g>
</g>
<!-- Node3&#45;&gt;Node6 -->
<g id="edge5" class="edge"><title>Node3&#45;&gt;Node6</title>
<path fill="none" stroke="midnightblue" d="M574.18,-304.252C590.777,-274.97 638.988,-179.136 594,-124 571.062,-95.8872 474.84,-82.8472 408.954,-77.116"/>
<polygon fill="midnightblue" stroke="midnightblue" points="408.912,-73.6005 398.656,-76.2578 408.331,-80.5763 408.912,-73.6005"/>
</g>
<!-- Node8 -->
<g id="node8" class="node"><title>Node8</title>
<g id="a_node8"><a xlink:href="ObjectData_8h.xhtml" target="_top" xlink:title="../processing/ObjectData.h">
<polygon fill="none" stroke="black" points="351,-248.5 351,-267.5 485,-267.5 485,-248.5 351,-248.5"/>
<text text-anchor="middle" x="418" y="-255.5" font-family="Helvetica,sans-Serif" font-size="10.00">../processing/ObjectData.h</text>
</a>
</g>
</g>
<!-- Node3&#45;&gt;Node8 -->
<g id="edge7" class="edge"><title>Node3&#45;&gt;Node8</title>
<path fill="none" stroke="midnightblue" d="M545.074,-304.444C519.781,-295.399 479.698,-281.064 451.32,-270.916"/>
<polygon fill="midnightblue" stroke="midnightblue" points="452.409,-267.588 441.814,-267.516 450.052,-274.179 452.409,-267.588"/>
</g>
<!-- Node3&#45;&gt;Node11 -->
<g id="edge23" class="edge"><title>Node3&#45;&gt;Node11</title>
<path fill="none" stroke="midnightblue" d="M536.337,-307.447C477.771,-297.355 359.36,-276.283 342,-268 317.033,-256.086 293.364,-234.352 278.784,-219.315"/>
<polygon fill="midnightblue" stroke="midnightblue" points="281.071,-216.638 271.669,-211.755 275.974,-221.436 281.071,-216.638"/>
</g>
<!-- Node3&#45;&gt;Node15 -->
<g id="edge24" class="edge"><title>Node3&#45;&gt;Node15</title>
<path fill="none" stroke="midnightblue" d="M589.162,-304.417C604.859,-296.842 626.225,-284.446 640,-268 667.442,-235.238 681.957,-186.036 688.188,-159.517"/>
<polygon fill="midnightblue" stroke="midnightblue" points="691.628,-160.174 690.365,-149.655 684.792,-158.665 691.628,-160.174"/>
</g>
<!-- Node6&#45;&gt;Node7 -->
<g id="edge6" class="edge"><title>Node6&#45;&gt;Node7</title>
<path fill="none" stroke="midnightblue" d="M321.32,-56.9327C305.041,-47.2619 283.523,-34.4793 267.322,-24.8546"/>
<polygon fill="midnightblue" stroke="midnightblue" points="268.862,-21.6983 258.477,-19.6 265.287,-27.7165 268.862,-21.6983"/>
</g>
<!-- Node8&#45;&gt;Node4 -->
<g id="edge8" class="edge"><title>Node8&#45;&gt;Node4</title>
<path fill="none" stroke="midnightblue" d="M419.927,-248.427C423.332,-234.966 431.557,-208.688 447,-192 459.65,-178.33 476.819,-167.543 493.024,-159.478"/>
<polygon fill="midnightblue" stroke="midnightblue" points="494.865,-162.479 502.412,-155.042 491.875,-156.149 494.865,-162.479"/>
</g>
<!-- Node8&#45;&gt;Node5 -->
<g id="edge9" class="edge"><title>Node8&#45;&gt;Node5</title>
<path fill="none" stroke="midnightblue" d="M415.305,-248.269C411.831,-235.485 407.017,-211.115 414,-192 418.967,-178.402 429.336,-165.924 438.646,-156.714"/>
<polygon fill="midnightblue" stroke="midnightblue" points="441.145,-159.171 446.077,-149.794 436.374,-154.048 441.145,-159.171"/>
</g>
<!-- Node9 -->
<g id="node9" class="node"><title>Node9</title>
<g id="a_node9"><a xlink:href="Interpolator_8h.xhtml" target="_top" xlink:title="../libraries/interpolate\l/Interpolator.h">
<polygon fill="none" stroke="black" points="310.5,-125 310.5,-155 417.5,-155 417.5,-125 310.5,-125"/>
<text text-anchor="start" x="318.5" y="-143" font-family="Helvetica,sans-Serif" font-size="10.00">../libraries/interpolate</text>
<text text-anchor="middle" x="364" y="-132" font-family="Helvetica,sans-Serif" font-size="10.00">/Interpolator.h</text>
</a>
</g>
</g>
<!-- Node8&#45;&gt;Node9 -->
<g id="edge10" class="edge"><title>Node8&#45;&gt;Node9</title>
<path fill="none" stroke="midnightblue" d="M413.941,-248.281C405.72,-230.621 386.86,-190.106 374.813,-164.229"/>
<polygon fill="midnightblue" stroke="midnightblue" points="377.96,-162.695 370.567,-155.106 371.614,-165.649 377.96,-162.695"/>
</g>
<!-- Node10 -->
<g id="node10" class="node"><title>Node10</title>
<polygon fill="none" stroke="#bfbfbf" points="456.5,-192.5 456.5,-211.5 521.5,-211.5 521.5,-192.5 456.5,-192.5"/>
<text text-anchor="middle" x="489" y="-199.5" font-family="Helvetica,sans-Serif" font-size="10.00">wx/string.h</text>
</g>
<!-- Node8&#45;&gt;Node10 -->
<g id="edge12" class="edge"><title>Node8&#45;&gt;Node10</title>
<path fill="none" stroke="midnightblue" d="M429.407,-248.324C440.109,-240.185 456.341,-227.839 469.163,-218.087"/>
<polygon fill="midnightblue" stroke="midnightblue" points="471.544,-220.673 477.385,-211.834 467.307,-215.102 471.544,-220.673"/>
</g>
<!-- Node8&#45;&gt;Node11 -->
<g id="edge13" class="edge"><title>Node8&#45;&gt;Node11</title>
<path fill="none" stroke="midnightblue" d="M393.598,-248.444C367.045,-239.133 324.506,-224.216 295.46,-214.032"/>
<polygon fill="midnightblue" stroke="midnightblue" points="296.392,-210.65 285.798,-210.643 294.076,-217.255 296.392,-210.65"/>
</g>
<!-- Node9&#45;&gt;Node6 -->
<g id="edge11" class="edge"><title>Node9&#45;&gt;Node6</title>
<path fill="none" stroke="midnightblue" d="M359.877,-124.679C357.562,-116.636 354.611,-106.385 351.949,-97.1369"/>
<polygon fill="midnightblue" stroke="midnightblue" points="355.245,-95.9345 349.115,-87.2931 348.518,-97.8711 355.245,-95.9345"/>
</g>
<!-- Node11&#45;&gt;Node4 -->
<g id="edge20" class="edge"><title>Node11&#45;&gt;Node4</title>
<path fill="none" stroke="midnightblue" d="M285.64,-197.168C323.972,-190.266 406.497,-174.897 486.083,-156.118"/>
<polygon fill="midnightblue" stroke="midnightblue" points="487.359,-159.412 496.275,-153.69 485.736,-152.603 487.359,-159.412"/>
</g>
<!-- Node11&#45;&gt;Node5 -->
<g id="edge15" class="edge"><title>Node11&#45;&gt;Node5</title>
<path fill="none" stroke="midnightblue" d="M285.578,-195.521C323.386,-185.836 400.055,-165.79 426,-156 427.846,-155.303 429.731,-154.537 431.615,-153.731"/>
<polygon fill="midnightblue" stroke="midnightblue" points="433.202,-156.853 440.831,-149.501 430.282,-150.491 433.202,-156.853"/>
</g>
<!-- Node11&#45;&gt;Node6 -->
<g id="edge21" class="edge"><title>Node11&#45;&gt;Node6</title>
<path fill="none" stroke="midnightblue" d="M267.396,-192.053C273.202,-177.268 285.885,-147.076 301,-124 307.672,-113.814 316.195,-103.477 323.961,-94.7969"/>
<polygon fill="midnightblue" stroke="midnightblue" points="326.619,-97.0763 330.804,-87.3429 321.463,-92.3423 326.619,-97.0763"/>
</g>
<!-- Node11&#45;&gt;Node7 -->
<g id="edge14" class="edge"><title>Node11&#45;&gt;Node7</title>
<path fill="none" stroke="midnightblue" d="M263.089,-192.342C260.05,-163.472 250.216,-70.0477 245.975,-29.7671"/>
<polygon fill="midnightblue" stroke="midnightblue" points="249.444,-29.2871 244.917,-19.7085 242.483,-30.02 249.444,-29.2871"/>
</g>
<!-- Node11&#45;&gt;Node9 -->
<g id="edge22" class="edge"><title>Node11&#45;&gt;Node9</title>
<path fill="none" stroke="midnightblue" d="M278.328,-192.403C292.124,-184.125 313.482,-171.311 331.421,-160.547"/>
<polygon fill="midnightblue" stroke="midnightblue" points="333.658,-163.287 340.432,-155.141 330.056,-157.285 333.658,-163.287"/>
</g>
<!-- Node12 -->
<g id="node12" class="node"><title>Node12</title>
<polygon fill="none" stroke="#bfbfbf" points="28,-130.5 28,-149.5 84,-149.5 84,-130.5 28,-130.5"/>
<text text-anchor="middle" x="56" y="-137.5" font-family="Helvetica,sans-Serif" font-size="10.00">algorithm</text>
</g>
<!-- Node11&#45;&gt;Node12 -->
<g id="edge16" class="edge"><title>Node11&#45;&gt;Node12</title>
<path fill="none" stroke="midnightblue" d="M242.415,-196.255C209.725,-188.859 145.867,-173.592 93,-156 90.4371,-155.147 87.7971,-154.206 85.1629,-153.224"/>
<polygon fill="midnightblue" stroke="midnightblue" points="86.3843,-149.944 75.7961,-149.569 83.8395,-156.465 86.3843,-149.944"/>
</g>
<!-- Node13 -->
<g id="node13" class="node"><title>Node13</title>
<polygon fill="none" stroke="#bfbfbf" points="102,-130.5 102,-149.5 146,-149.5 146,-130.5 102,-130.5"/>
<text text-anchor="middle" x="124" y="-137.5" font-family="Helvetica,sans-Serif" font-size="10.00">cmath</text>
</g>
<!-- Node11&#45;&gt;Node13 -->
<g id="edge17" class="edge"><title>Node11&#45;&gt;Node13</title>
<path fill="none" stroke="midnightblue" d="M242.124,-192.41C219.999,-183.62 184.895,-169.39 155,-156 153.602,-155.374 152.173,-154.723 150.733,-154.058"/>
<polygon fill="midnightblue" stroke="midnightblue" points="151.831,-150.705 141.295,-149.591 148.837,-157.032 151.831,-150.705"/>
</g>
<!-- Node14 -->
<g id="node14" class="node"><title>Node14</title>
<polygon fill="none" stroke="#bfbfbf" points="164,-130.5 164,-149.5 216,-149.5 216,-130.5 164,-130.5"/>
<text text-anchor="middle" x="190" y="-137.5" font-family="Helvetica,sans-Serif" font-size="10.00">sstream</text>
</g>
<!-- Node11&#45;&gt;Node14 -->
<g id="edge18" class="edge"><title>Node11&#45;&gt;Node14</title>
<path fill="none" stroke="midnightblue" d="M253.398,-192.403C241.748,-182.958 222.814,-167.606 208.665,-156.134"/>
<polygon fill="midnightblue" stroke="midnightblue" points="210.555,-153.16 200.583,-149.581 206.146,-158.597 210.555,-153.16"/>
</g>
<!-- Node11&#45;&gt;Node15 -->
<g id="edge19" class="edge"><title>Node11&#45;&gt;Node15</title>
<path fill="none" stroke="midnightblue" d="M285.639,-198.174C338.395,-191.256 477.831,-172.81 594,-156 614.315,-153.06 636.97,-149.604 655.377,-146.751"/>
<polygon fill="midnightblue" stroke="midnightblue" points="656.054,-150.188 665.397,-145.192 654.978,-143.271 656.054,-150.188"/>
</g>
<!-- Node16&#45;&gt;Node5 -->
<g id="edge29" class="edge"><title>Node16&#45;&gt;Node5</title>
<path fill="none" stroke="midnightblue" d="M339.695,-416.404C333.059,-389.917 315.99,-307.728 342,-248 360.391,-205.769 404.576,-172.685 432.511,-155.063"/>
<polygon fill="midnightblue" stroke="midnightblue" points="434.595,-157.891 441.301,-149.688 430.944,-151.919 434.595,-157.891"/>
</g>
<!-- Node16&#45;&gt;Node8 -->
<g id="edge31" class="edge"><title>Node16&#45;&gt;Node8</title>
<path fill="none" stroke="midnightblue" d="M346.086,-416.075C358.153,-389.719 393.791,-311.878 409.914,-276.661"/>
<polygon fill="midnightblue" stroke="midnightblue" points="413.097,-278.117 414.077,-267.568 406.732,-275.204 413.097,-278.117"/>
</g>
<!-- Node16&#45;&gt;Node11 -->
<g id="edge30" class="edge"><title>Node16&#45;&gt;Node11</title>
<path fill="none" stroke="midnightblue" d="M334.066,-416.351C326.571,-407.74 315.532,-393.844 309,-380 283.342,-325.62 271.004,-254.677 266.331,-221.552"/>
<polygon fill="midnightblue" stroke="midnightblue" points="269.782,-220.95 264.989,-211.501 262.844,-221.877 269.782,-220.95"/>
</g>
<!-- Node16&#45;&gt;Node15 -->
<g id="edge28" class="edge"><title>Node16&#45;&gt;Node15</title>
<path fill="none" stroke="midnightblue" d="M401.657,-417.196C440.368,-410.642 491.197,-399.176 533,-380 571.462,-362.356 578.48,-352.233 610,-324 655.184,-283.528 672.83,-270.732 688,-212 692.434,-194.833 693.152,-174.584 692.928,-160.112"/>
<polygon fill="midnightblue" stroke="midnightblue" points="696.42,-159.796 692.599,-149.914 689.423,-160.022 696.42,-159.796"/>
</g>
<!-- Node17 -->
<g id="node17" class="node"><title>Node17</title>
<g id="a_node17"><a xlink:href="DefaultValues_8h.xhtml" target="_top" xlink:title="DefaultValues.h">
<polygon fill="none" stroke="black" points="438,-360.5 438,-379.5 524,-379.5 524,-360.5 438,-360.5"/>
<text text-anchor="middle" x="481" y="-367.5" font-family="Helvetica,sans-Serif" font-size="10.00">DefaultValues.h</text>
</a>
</g>
</g>
<!-- Node16&#45;&gt;Node17 -->
<g id="edge32" class="edge"><title>Node16&#45;&gt;Node17</title>
<path fill="none" stroke="midnightblue" d="M364.025,-416.444C387.104,-407.478 423.562,-393.314 449.641,-383.183"/>
<polygon fill="midnightblue" stroke="midnightblue" points="451.024,-386.4 459.078,-379.516 448.489,-379.875 451.024,-386.4"/>
</g>
<!-- Node17&#45;&gt;Node3 -->
<g id="edge34" class="edge"><title>Node17&#45;&gt;Node3</title>
<path fill="none" stroke="midnightblue" d="M495.139,-360.324C508.866,-351.9 529.936,-338.971 546.064,-329.074"/>
<polygon fill="midnightblue" stroke="midnightblue" points="548.204,-331.868 554.896,-323.655 544.543,-325.902 548.204,-331.868"/>
</g>
<!-- Node18 -->
<g id="node18" class="node"><title>Node18</title>
<polygon fill="none" stroke="#bfbfbf" points="460.5,-304.5 460.5,-323.5 501.5,-323.5 501.5,-304.5 460.5,-304.5"/>
<text text-anchor="middle" x="481" y="-311.5" font-family="Helvetica,sans-Serif" font-size="10.00">string</text>
</g>
<!-- Node17&#45;&gt;Node18 -->
<g id="edge33" class="edge"><title>Node17&#45;&gt;Node18</title>
<path fill="none" stroke="midnightblue" d="M481,-360.083C481,-353.006 481,-342.861 481,-333.986"/>
<polygon fill="midnightblue" stroke="midnightblue" points="484.5,-333.751 481,-323.751 477.5,-333.751 484.5,-333.751"/>
</g>
</g>
</svg>
