<?xml version="1.0" encoding="UTF-8" standalone="no"?>
<!DOCTYPE svg PUBLIC "-//W3C//DTD SVG 1.1//EN"
 "http://www.w3.org/Graphics/SVG/1.1/DTD/svg11.dtd">
<!-- Generated by graphviz version 2.26.3 (20100126.1600)
 -->
<!-- Title: /daten/Projekte/eclipse_workspace/simpleanalyzer&#45;gui/src/GUI/GUIColorScalePanel.cpp Pages: 1 -->
<svg width="840pt" height="490pt"
 viewBox="0.00 0.00 840.22 490.00" xmlns="http://www.w3.org/2000/svg" xmlns:xlink="http://www.w3.org/1999/xlink">
<g id="graph1" class="graph" transform="scale(1 1) rotate(0) translate(4 486)">
<title>/daten/Projekte/eclipse_workspace/simpleanalyzer&#45;gui/src/GUI/GUIColorScalePanel.cpp</title>
<!-- Node1 -->
<g id="node1" class="node"><title>Node1</title>
<polygon fill="#bfbfbf" stroke="black" points="524.215,-434.5 524.215,-481.5 706.215,-481.5 706.215,-434.5 524.215,-434.5"/>
<text text-anchor="start" x="532.215" y="-468.5" font-family="Helvetica,sans-Serif" font-size="10.00">/daten/Projekte/eclipse</text>
<text text-anchor="start" x="532.215" y="-455.5" font-family="Helvetica,sans-Serif" font-size="10.00">_workspace/simpleanalyzer</text>
<text text-anchor="middle" x="615.215" y="-442.5" font-family="Helvetica,sans-Serif" font-size="10.00">&#45;gui/src/GUI/GUIColorScalePanel.cpp</text>
</g>
<!-- Node2 -->
<g id="node3" class="node"><title>Node2</title>
<a xlink:href="GUIColorScalePanel_8h.xhtml" target="_top" xlink:title="GUIColorScalePanel.h">
<polygon fill="none" stroke="black" points="557.215,-376.5 557.215,-397.5 673.215,-397.5 673.215,-376.5 557.215,-376.5"/>
<text text-anchor="middle" x="615.215" y="-384.5" font-family="Helvetica,sans-Serif" font-size="10.00">GUIColorScalePanel.h</text>
</a>
</g>
<!-- Node1&#45;&gt;Node2 -->
<g id="edge2" class="edge"><title>Node1&#45;&gt;Node2</title>
<path fill="none" stroke="midnightblue" d="M615.215,-434.358C615.215,-425.719 615.215,-416.022 615.215,-407.662"/>
<polygon fill="midnightblue" stroke="midnightblue" points="618.715,-407.646 615.215,-397.646 611.715,-407.646 618.715,-407.646"/>
</g>
<!-- Node7 -->
<g id="node13" class="node"><title>Node7</title>
<polygon fill="none" stroke="#bfbfbf" points="286.215,-0.5 286.215,-21.5 340.215,-21.5 340.215,-0.5 286.215,-0.5"/>
<text text-anchor="middle" x="313.215" y="-8.5" font-family="Helvetica,sans-Serif" font-size="10.00">iostream</text>
</g>
<!-- Node1&#45;&gt;Node7 -->
<g id="edge52" class="edge"><title>Node1&#45;&gt;Node7</title>
<path fill="none" stroke="midnightblue" d="M658.177,-434.359C692.263,-412.108 734.215,-375.314 734.215,-329 734.215,-329 734.215,-329 734.215,-148 734.215,-67.6515 453.423,-27.1667 350.473,-15.0235"/>
<polygon fill="midnightblue" stroke="midnightblue" points="350.85,-11.5438 340.514,-13.8722 350.046,-18.4975 350.85,-11.5438"/>
</g>
<!-- Node11 -->
<g id="node24" class="node"><title>Node11</title>
<a xlink:href="utils_8h.xhtml" target="_top" xlink:title="utils.h">
<polygon fill="none" stroke="black" points="201.715,-202.5 201.715,-223.5 244.715,-223.5 244.715,-202.5 201.715,-202.5"/>
<text text-anchor="middle" x="223.215" y="-210.5" font-family="Helvetica,sans-Serif" font-size="10.00">utils.h</text>
</a>
</g>
<!-- Node1&#45;&gt;Node11 -->
<g id="edge64" class="edge"><title>Node1&#45;&gt;Node11</title>
<path fill="none" stroke="midnightblue" d="M524.101,-439.002C438.221,-416.317 312.262,-369.87 240.215,-282 229.119,-268.467 225.1,-248.748 223.723,-233.852"/>
<polygon fill="midnightblue" stroke="midnightblue" points="227.199,-233.358 223.11,-223.584 220.212,-233.774 227.199,-233.358"/>
</g>
<!-- Node16 -->
<g id="node43" class="node"><title>Node16</title>
<a xlink:href="SimpleAnalyzerApp_8h.xhtml" target="_top" xlink:title="../SimpleAnalyzerApp.h">
<polygon fill="none" stroke="black" points="408.715,-318.5 408.715,-339.5 527.715,-339.5 527.715,-318.5 408.715,-318.5"/>
<text text-anchor="middle" x="468.215" y="-326.5" font-family="Helvetica,sans-Serif" font-size="10.00">../SimpleAnalyzerApp.h</text>
</a>
</g>
<!-- Node1&#45;&gt;Node16 -->
<g id="edge54" class="edge"><title>Node1&#45;&gt;Node16</title>
<path fill="none" stroke="midnightblue" d="M588.253,-434.339C559.234,-408.874 513.773,-368.979 487.925,-346.297"/>
<polygon fill="midnightblue" stroke="midnightblue" points="490.093,-343.542 480.268,-339.577 485.476,-348.804 490.093,-343.542"/>
</g>
<!-- Node17 -->
<g id="node50" class="node"><title>Node17</title>
<polygon fill="none" stroke="#bfbfbf" points="761.715,-376.5 761.715,-397.5 832.715,-397.5 832.715,-376.5 761.715,-376.5"/>
<text text-anchor="middle" x="797.215" y="-384.5" font-family="Helvetica,sans-Serif" font-size="10.00">wx/artprov.h</text>
</g>
<!-- Node1&#45;&gt;Node17 -->
<g id="edge66" class="edge"><title>Node1&#45;&gt;Node17</title>
<path fill="none" stroke="midnightblue" d="M675.566,-434.457C703.576,-423.529 735.974,-410.891 760.289,-401.405"/>
<polygon fill="midnightblue" stroke="midnightblue" points="761.802,-404.572 769.846,-397.677 759.258,-398.051 761.802,-404.572"/>
</g>
<!-- Node3 -->
<g id="node5" class="node"><title>Node3</title>
<a xlink:href="Renderer_8h.xhtml" target="_top" xlink:title="Renderer.h">
<polygon fill="none" stroke="black" points="549.715,-318.5 549.715,-339.5 614.715,-339.5 614.715,-318.5 549.715,-318.5"/>
<text text-anchor="middle" x="582.215" y="-326.5" font-family="Helvetica,sans-Serif" font-size="10.00">Renderer.h</text>
</a>
</g>
<!-- Node2&#45;&gt;Node3 -->
<g id="edge4" class="edge"><title>Node2&#45;&gt;Node3</title>
<path fill="none" stroke="midnightblue" d="M609.162,-376.362C604.743,-368.595 598.626,-357.843 593.336,-348.546"/>
<polygon fill="midnightblue" stroke="midnightblue" points="596.217,-346.531 588.229,-339.571 590.133,-349.993 596.217,-346.531"/>
</g>
<!-- Node15 -->
<g id="node34" class="node"><title>Node15</title>
<polygon fill="none" stroke="#bfbfbf" points="568.715,-137.5 568.715,-158.5 621.715,-158.5 621.715,-137.5 568.715,-137.5"/>
<text text-anchor="middle" x="595.215" y="-145.5" font-family="Helvetica,sans-Serif" font-size="10.00">wx/wx.h</text>
</g>
<!-- Node2&#45;&gt;Node15 -->
<g id="edge50" class="edge"><title>Node2&#45;&gt;Node15</title>
<path fill="none" stroke="midnightblue" d="M617.579,-376.239C619.534,-366.755 622.156,-352.536 623.215,-340 626.992,-295.301 619.031,-230.131 613.215,-202 610.839,-190.508 606.794,-178.058 603.14,-168.012"/>
<polygon fill="midnightblue" stroke="midnightblue" points="606.374,-166.667 599.56,-158.554 599.827,-169.145 606.374,-166.667"/>
</g>
<!-- Node4 -->
<g id="node7" class="node"><title>Node4</title>
<polygon fill="none" stroke="#bfbfbf" points="383.715,-131 383.715,-165 472.715,-165 472.715,-131 383.715,-131"/>
<text text-anchor="start" x="391.715" y="-152" font-family="Helvetica,sans-Serif" font-size="10.00">../libraries/tetgen</text>
<text text-anchor="middle" x="428.215" y="-139" font-family="Helvetica,sans-Serif" font-size="10.00">/tetgen.h</text>
</g>
<!-- Node3&#45;&gt;Node4 -->
<g id="edge6" class="edge"><title>Node3&#45;&gt;Node4</title>
<path fill="none" stroke="midnightblue" d="M573.27,-318.486C549.367,-290.393 483.514,-212.994 449.368,-172.862"/>
<polygon fill="midnightblue" stroke="midnightblue" points="451.932,-170.474 442.787,-165.126 446.601,-175.01 451.932,-170.474"/>
</g>
<!-- Node5 -->
<g id="node9" class="node"><title>Node5</title>
<polygon fill="none" stroke="#bfbfbf" points="490.215,-137.5 490.215,-158.5 534.215,-158.5 534.215,-137.5 490.215,-137.5"/>
<text text-anchor="middle" x="512.215" y="-145.5" font-family="Helvetica,sans-Serif" font-size="10.00">vector</text>
</g>
<!-- Node3&#45;&gt;Node5 -->
<g id="edge8" class="edge"><title>Node3&#45;&gt;Node5</title>
<path fill="none" stroke="midnightblue" d="M578.149,-318.486C566.84,-289.245 534.873,-206.586 520.002,-168.135"/>
<polygon fill="midnightblue" stroke="midnightblue" points="523.164,-166.607 516.292,-158.543 516.635,-169.132 523.164,-166.607"/>
</g>
<!-- Node6 -->
<g id="node11" class="node"><title>Node6</title>
<a xlink:href="GeometryClasses_8h.xhtml" target="_top" xlink:title="../libraries/interpolate\l/GeometryClasses.h">
<polygon fill="none" stroke="black" points="259.715,-59 259.715,-93 366.715,-93 366.715,-59 259.715,-59"/>
<text text-anchor="start" x="267.715" y="-80" font-family="Helvetica,sans-Serif" font-size="10.00">../libraries/interpolate</text>
<text text-anchor="middle" x="313.215" y="-67" font-family="Helvetica,sans-Serif" font-size="10.00">/GeometryClasses.h</text>
</a>
</g>
<!-- Node3&#45;&gt;Node6 -->
<g id="edge10" class="edge"><title>Node3&#45;&gt;Node6</title>
<path fill="none" stroke="midnightblue" d="M590.288,-318.487C614.002,-286.264 678.812,-187.576 630.215,-130 614.065,-110.866 464.878,-92.0311 377.042,-82.4721"/>
<polygon fill="midnightblue" stroke="midnightblue" points="377.226,-78.9718 366.909,-81.3808 376.477,-85.9316 377.226,-78.9718"/>
</g>
<!-- Node8 -->
<g id="node15" class="node"><title>Node8</title>
<a xlink:href="ObjectData_8h.xhtml" target="_top" xlink:title="../processing/ObjectData.h">
<polygon fill="none" stroke="black" points="306.215,-260.5 306.215,-281.5 440.215,-281.5 440.215,-260.5 306.215,-260.5"/>
<text text-anchor="middle" x="373.215" y="-268.5" font-family="Helvetica,sans-Serif" font-size="10.00">../processing/ObjectData.h</text>
</a>
</g>
<!-- Node3&#45;&gt;Node8 -->
<g id="edge14" class="edge"><title>Node3&#45;&gt;Node8</title>
<path fill="none" stroke="midnightblue" d="M549.559,-319.938C515.056,-310.362 460.3,-295.167 420.955,-284.248"/>
<polygon fill="midnightblue" stroke="midnightblue" points="421.878,-280.872 411.306,-281.571 420.006,-287.617 421.878,-280.872"/>
</g>
<!-- Node3&#45;&gt;Node11 -->
<g id="edge46" class="edge"><title>Node3&#45;&gt;Node11</title>
<path fill="none" stroke="midnightblue" d="M549.622,-320.843C545.131,-319.826 540.568,-318.847 536.215,-318 430.771,-297.49 393.943,-328.722 297.215,-282 273.059,-270.332 251.389,-248.03 237.835,-231.933"/>
<polygon fill="midnightblue" stroke="midnightblue" points="240.198,-229.291 231.176,-223.736 234.765,-233.705 240.198,-229.291"/>
</g>
<!-- Node3&#45;&gt;Node15 -->
<g id="edge48" class="edge"><title>Node3&#45;&gt;Node15</title>
<path fill="none" stroke="midnightblue" d="M586.345,-318.372C589.763,-308.974 594.348,-294.806 596.215,-282 602,-242.317 599.541,-195.321 597.317,-168.851"/>
<polygon fill="midnightblue" stroke="midnightblue" points="600.799,-168.485 596.403,-158.845 593.828,-169.122 600.799,-168.485"/>
</g>
<!-- Node6&#45;&gt;Node7 -->
<g id="edge12" class="edge"><title>Node6&#45;&gt;Node7</title>
<path fill="none" stroke="midnightblue" d="M313.215,-58.922C313.215,-50.6704 313.215,-40.6922 313.215,-31.9818"/>
<polygon fill="midnightblue" stroke="midnightblue" points="316.715,-31.8521 313.215,-21.8521 309.715,-31.8521 316.715,-31.8521"/>
</g>
<!-- Node8&#45;&gt;Node4 -->
<g id="edge16" class="edge"><title>Node8&#45;&gt;Node4</title>
<path fill="none" stroke="midnightblue" d="M358.083,-260.376C340.891,-246.938 316.741,-223.013 329.215,-202 335.14,-192.02 356.811,-179.701 378.373,-169.351"/>
<polygon fill="midnightblue" stroke="midnightblue" points="379.99,-172.459 387.561,-165.048 377.021,-166.12 379.99,-172.459"/>
</g>
<!-- Node8&#45;&gt;Node5 -->
<g id="edge18" class="edge"><title>Node8&#45;&gt;Node5</title>
<path fill="none" stroke="midnightblue" d="M385.55,-260.085C409.722,-238.695 463.493,-191.114 492.596,-165.36"/>
<polygon fill="midnightblue" stroke="midnightblue" points="494.936,-167.963 500.106,-158.715 490.298,-162.721 494.936,-167.963"/>
</g>
<!-- Node9 -->
<g id="node19" class="node"><title>Node9</title>
<a xlink:href="Interpolator_8h.xhtml" target="_top" xlink:title="../libraries/interpolate\l/Interpolator.h">
<polygon fill="none" stroke="black" points="259.715,-131 259.715,-165 366.715,-165 366.715,-131 259.715,-131"/>
<text text-anchor="start" x="267.715" y="-152" font-family="Helvetica,sans-Serif" font-size="10.00">../libraries/interpolate</text>
<text text-anchor="middle" x="313.215" y="-139" font-family="Helvetica,sans-Serif" font-size="10.00">/Interpolator.h</text>
</a>
</g>
<!-- Node8&#45;&gt;Node9 -->
<g id="edge20" class="edge"><title>Node8&#45;&gt;Node9</title>
<path fill="none" stroke="midnightblue" d="M355.87,-260.327C343.976,-251.999 328.991,-239.295 321.215,-224 313.667,-209.154 311.598,-190.594 311.449,-175.531"/>
<polygon fill="midnightblue" stroke="midnightblue" points="314.953,-175.345 311.63,-165.285 307.954,-175.221 314.953,-175.345"/>
</g>
<!-- Node10 -->
<g id="node22" class="node"><title>Node10</title>
<polygon fill="none" stroke="#bfbfbf" points="337.715,-202.5 337.715,-223.5 402.715,-223.5 402.715,-202.5 337.715,-202.5"/>
<text text-anchor="middle" x="370.215" y="-210.5" font-family="Helvetica,sans-Serif" font-size="10.00">wx/string.h</text>
</g>
<!-- Node8&#45;&gt;Node10 -->
<g id="edge24" class="edge"><title>Node8&#45;&gt;Node10</title>
<path fill="none" stroke="midnightblue" d="M372.665,-260.362C372.28,-252.922 371.754,-242.743 371.287,-233.728"/>
<polygon fill="midnightblue" stroke="midnightblue" points="374.774,-233.376 370.762,-223.571 367.783,-233.738 374.774,-233.376"/>
</g>
<!-- Node8&#45;&gt;Node11 -->
<g id="edge26" class="edge"><title>Node8&#45;&gt;Node11</title>
<path fill="none" stroke="midnightblue" d="M346.051,-260.497C320.185,-250.495 281.291,-235.456 254.223,-224.99"/>
<polygon fill="midnightblue" stroke="midnightblue" points="255.421,-221.7 244.831,-221.358 252.896,-228.229 255.421,-221.7"/>
</g>
<!-- Node9&#45;&gt;Node6 -->
<g id="edge22" class="edge"><title>Node9&#45;&gt;Node6</title>
<path fill="none" stroke="midnightblue" d="M313.215,-130.937C313.215,-122.807 313.215,-112.876 313.215,-103.705"/>
<polygon fill="midnightblue" stroke="midnightblue" points="316.715,-103.441 313.215,-93.4407 309.715,-103.441 316.715,-103.441"/>
</g>
<!-- Node11&#45;&gt;Node4 -->
<g id="edge40" class="edge"><title>Node11&#45;&gt;Node4</title>
<path fill="none" stroke="midnightblue" d="M244.921,-206.493C272.739,-198.111 322.671,-182.916 374.097,-166.326"/>
<polygon fill="midnightblue" stroke="midnightblue" points="375.276,-169.623 383.712,-163.213 373.12,-162.964 375.276,-169.623"/>
</g>
<!-- Node11&#45;&gt;Node5 -->
<g id="edge30" class="edge"><title>Node11&#45;&gt;Node5</title>
<path fill="none" stroke="midnightblue" d="M245.035,-210.014C299.004,-202.47 437.535,-182.1 481.215,-166 483.303,-165.231 485.412,-164.325 487.496,-163.336"/>
<polygon fill="midnightblue" stroke="midnightblue" points="489.144,-166.424 496.325,-158.634 485.854,-160.245 489.144,-166.424"/>
</g>
<!-- Node11&#45;&gt;Node6 -->
<g id="edge42" class="edge"><title>Node11&#45;&gt;Node6</title>
<path fill="none" stroke="midnightblue" d="M224.971,-202.244C228.079,-185.603 235.736,-153.128 251.215,-130 258.934,-118.467 269.731,-107.906 280.156,-99.242"/>
<polygon fill="midnightblue" stroke="midnightblue" points="282.353,-101.967 287.999,-93.0014 277.994,-96.4895 282.353,-101.967"/>
</g>
<!-- Node11&#45;&gt;Node7 -->
<g id="edge28" class="edge"><title>Node11&#45;&gt;Node7</title>
<path fill="none" stroke="midnightblue" d="M201.684,-211.637C151.961,-207.996 31.5358,-196.182 7.21515,-166 -2.82402,-153.541 -1.8185,-143.206 7.21515,-130 38.7975,-83.8314 201.817,-38.5085 276.17,-19.8719"/>
<polygon fill="midnightblue" stroke="midnightblue" points="277.187,-23.2259 286.051,-17.422 275.502,-16.4316 277.187,-23.2259"/>
</g>
<!-- Node11&#45;&gt;Node9 -->
<g id="edge44" class="edge"><title>Node11&#45;&gt;Node9</title>
<path fill="none" stroke="midnightblue" d="M238.077,-202.267C249.763,-193.827 266.467,-181.762 281.16,-171.151"/>
<polygon fill="midnightblue" stroke="midnightblue" points="283.467,-173.802 289.525,-165.11 279.369,-168.127 283.467,-173.802"/>
</g>
<!-- Node12 -->
<g id="node28" class="node"><title>Node12</title>
<polygon fill="none" stroke="#bfbfbf" points="16.2152,-137.5 16.2152,-158.5 72.2152,-158.5 72.2152,-137.5 16.2152,-137.5"/>
<text text-anchor="middle" x="44.2152" y="-145.5" font-family="Helvetica,sans-Serif" font-size="10.00">algorithm</text>
</g>
<!-- Node11&#45;&gt;Node12 -->
<g id="edge32" class="edge"><title>Node11&#45;&gt;Node12</title>
<path fill="none" stroke="midnightblue" d="M201.238,-206.718C173.049,-198.437 122.831,-182.922 81.2152,-166 78.8412,-165.035 76.406,-163.986 73.9733,-162.897"/>
<polygon fill="midnightblue" stroke="midnightblue" points="75.2799,-159.645 64.7382,-158.585 72.318,-165.987 75.2799,-159.645"/>
</g>
<!-- Node13 -->
<g id="node30" class="node"><title>Node13</title>
<polygon fill="none" stroke="#bfbfbf" points="90.2152,-137.5 90.2152,-158.5 134.215,-158.5 134.215,-137.5 90.2152,-137.5"/>
<text text-anchor="middle" x="112.215" y="-145.5" font-family="Helvetica,sans-Serif" font-size="10.00">cmath</text>
</g>
<!-- Node11&#45;&gt;Node13 -->
<g id="edge34" class="edge"><title>Node11&#45;&gt;Node13</title>
<path fill="none" stroke="midnightblue" d="M204.886,-202.267C186.944,-191.76 159.41,-175.637 139.013,-163.692"/>
<polygon fill="midnightblue" stroke="midnightblue" points="140.601,-160.567 130.203,-158.534 137.064,-166.607 140.601,-160.567"/>
</g>
<!-- Node14 -->
<g id="node32" class="node"><title>Node14</title>
<polygon fill="none" stroke="#bfbfbf" points="152.215,-137.5 152.215,-158.5 204.215,-158.5 204.215,-137.5 152.215,-137.5"/>
<text text-anchor="middle" x="178.215" y="-145.5" font-family="Helvetica,sans-Serif" font-size="10.00">sstream</text>
</g>
<!-- Node11&#45;&gt;Node14 -->
<g id="edge36" class="edge"><title>Node11&#45;&gt;Node14</title>
<path fill="none" stroke="midnightblue" d="M215.784,-202.267C209.166,-192.707 199.328,-178.496 191.38,-167.015"/>
<polygon fill="midnightblue" stroke="midnightblue" points="194.078,-164.763 185.508,-158.534 188.322,-168.748 194.078,-164.763"/>
</g>
<!-- Node11&#45;&gt;Node15 -->
<g id="edge38" class="edge"><title>Node11&#45;&gt;Node15</title>
<path fill="none" stroke="midnightblue" d="M244.95,-210.348C307.3,-202.654 485.939,-179.988 543.215,-166 548.305,-164.757 553.601,-163.22 558.78,-161.573"/>
<polygon fill="midnightblue" stroke="midnightblue" points="560.14,-164.809 568.513,-158.317 557.919,-158.17 560.14,-164.809"/>
</g>
<!-- Node16&#45;&gt;Node5 -->
<g id="edge58" class="edge"><title>Node16&#45;&gt;Node5</title>
<path fill="none" stroke="midnightblue" d="M470.771,-318.486C477.849,-289.37 497.802,-207.292 507.2,-168.63"/>
<polygon fill="midnightblue" stroke="midnightblue" points="510.691,-169.086 509.652,-158.543 503.889,-167.433 510.691,-169.086"/>
</g>
<!-- Node16&#45;&gt;Node8 -->
<g id="edge62" class="edge"><title>Node16&#45;&gt;Node8</title>
<path fill="none" stroke="midnightblue" d="M450.791,-318.362C436.328,-309.532 415.546,-296.844 399.131,-286.822"/>
<polygon fill="midnightblue" stroke="midnightblue" points="400.888,-283.794 390.529,-281.571 397.24,-289.769 400.888,-283.794"/>
</g>
<!-- Node16&#45;&gt;Node11 -->
<g id="edge60" class="edge"><title>Node16&#45;&gt;Node11</title>
<path fill="none" stroke="midnightblue" d="M408.634,-320.58C356.952,-312.334 286.966,-298.607 264.215,-282 247.597,-269.869 236.509,-248.777 230.1,-233.097"/>
<polygon fill="midnightblue" stroke="midnightblue" points="233.366,-231.838 226.554,-223.723 226.819,-234.315 233.366,-231.838"/>
</g>
<!-- Node16&#45;&gt;Node15 -->
<g id="edge56" class="edge"><title>Node16&#45;&gt;Node15</title>
<path fill="none" stroke="midnightblue" d="M475.592,-318.486C496.285,-288.995 555.102,-205.17 581.772,-167.158"/>
<polygon fill="midnightblue" stroke="midnightblue" points="584.939,-168.739 587.818,-158.543 579.209,-164.718 584.939,-168.739"/>
</g>
</g>
</svg>
