<?xml version="1.0" encoding="UTF-8" standalone="no"?>
<!DOCTYPE svg PUBLIC "-//W3C//DTD SVG 1.1//EN"
 "http://www.w3.org/Graphics/SVG/1.1/DTD/svg11.dtd">
<!-- Generated by graphviz version 2.26.3 (20100126.1600)
 -->
<!-- Title: simpleanalyzer&#45;gui/src/GUI/GUIMainWindow.cpp Pages: 1 -->
<!--zoomable 652 -->
<svg id="main" version="1.1" xmlns="http://www.w3.org/2000/svg" xmlns:xlink="http://www.w3.org/1999/xlink" xml:space="preserve" onload="init(evt)">
<style type="text/css"><![CDATA[
.edge:hover path { stroke: red; }
.edge:hover polygon { stroke: red; fill: red; }
]]></style>
<script type="text/javascript"><![CDATA[
var edges = document.getElementsByTagName('g');
if (edges && edges.length) {
  for (var i=0;i<edges.length;i++) {
    if (edges[i].id.substr(0,4)=='edge') {
      edges[i].setAttribute('class','edge');
    }
  }
}
]]></script>
        <defs>
                <circle id="rim" cx="0" cy="0" r="7"/>
                <circle id="rim2" cx="0" cy="0" r="3.5"/>
                <g id="zoomPlus">
                        <use xlink:href="#rim" fill="#404040">
                                <set attributeName="fill" to="#808080" begin="zoomplus.mouseover" end="zoomplus.mouseout"/>
                        </use>
                        <path d="M-4,0h8M0,-4v8" fill="none" stroke="white" stroke-width="1.5" pointer-events="none"/>
                </g>
                <g id="zoomMin">
                        <use xlink:href="#rim" fill="#404040">
                                <set attributeName="fill" to="#808080" begin="zoomminus.mouseover" end="zoomminus.mouseout"/>
                        </use>
                        <path d="M-4,0h8" fill="none" stroke="white" stroke-width="1.5" pointer-events="none"/>
                </g>
                <g id="dirArrow">
                        <path fill="none" stroke="white" stroke-width="1.5" d="M0,-3.0v7 M-2.5,-0.5L0,-3.0L2.5,-0.5"/>
                </g>
               <g id="resetDef">
                       <use xlink:href="#rim2" fill="#404040">
                               <set attributeName="fill" to="#808080" begin="reset.mouseover" end="reset.mouseout"/>
                       </use>
               </g>
        </defs>

<script type="text/javascript">
var viewWidth = 1637;
var viewHeight = 652;
var sectionId = 'dynsection-0';
</script>
<script xlink:href="svgpan.js"/>
<svg id="graph" class="graph">
<g id="viewport">
<title>simpleanalyzer&#45;gui/src/GUI/GUIMainWindow.cpp</title>
<!-- Node1 -->
<g id="node1" class="node"><title>Node1</title>
<polygon fill="#bfbfbf" stroke="black" points="428,-609 428,-643 578,-643 578,-609 428,-609"/>
<text text-anchor="start" x="436" y="-630" font-family="Helvetica,sans-Serif" font-size="10.00">simpleanalyzer&#45;gui</text>
<text text-anchor="middle" x="503" y="-617" font-family="Helvetica,sans-Serif" font-size="10.00">/src/GUI/GUIMainWindow.cpp</text>
</g>
<!-- Node2 -->
<g id="node3" class="node"><title>Node2</title>
<a xlink:href="GUIMainWindow_8h.xhtml" target="_top" xlink:title="GUIMainWindow.h">
<polygon fill="none" stroke="black" points="783.5,-550.5 783.5,-571.5 882.5,-571.5 882.5,-550.5 783.5,-550.5"/>
<text text-anchor="middle" x="833" y="-558.5" font-family="Helvetica,sans-Serif" font-size="10.00">GUIMainWindow.h</text>
</a>
</g>
<!-- Node1&#45;&gt;Node2 -->
<g id="edge2" class="edge"><title>Node1&#45;&gt;Node2</title>
<path fill="none" stroke="midnightblue" d="M578.295,-611.169C637.392,-599.529 718.546,-583.544 773.233,-572.772"/>
<polygon fill="midnightblue" stroke="midnightblue" points="773.99,-576.191 783.125,-570.824 772.637,-569.322 773.99,-576.191"/>
</g>
<!-- Node5 -->
<g id="node9" class="node"><title>Node5</title>
<polygon fill="none" stroke="#bfbfbf" points="107.5,-131 107.5,-165 196.5,-165 196.5,-131 107.5,-131"/>
<text text-anchor="start" x="115.5" y="-152" font-family="Helvetica,sans-Serif" font-size="10.00">../libraries/tetgen</text>
<text text-anchor="middle" x="152" y="-139" font-family="Helvetica,sans-Serif" font-size="10.00">/tetgen.h</text>
</g>
<!-- Node1&#45;&gt;Node5 -->
<g id="edge126" class="edge"><title>Node1&#45;&gt;Node5</title>
<path fill="none" stroke="midnightblue" d="M427.968,-623.153C287.747,-615.776 0,-590.034 0,-503 0,-503 0,-503 0,-271 0,-219.133 54.1437,-185.364 97.8017,-166.566"/>
<polygon fill="midnightblue" stroke="midnightblue" points="99.3161,-169.727 107.217,-162.668 96.6388,-163.259 99.3161,-169.727"/>
</g>
<!-- Node8 -->
<g id="node15" class="node"><title>Node8</title>
<polygon fill="none" stroke="#bfbfbf" points="558,-0.5 558,-21.5 612,-21.5 612,-0.5 558,-0.5"/>
<text text-anchor="middle" x="585" y="-8.5" font-family="Helvetica,sans-Serif" font-size="10.00">iostream</text>
</g>
<!-- Node1&#45;&gt;Node8 -->
<g id="edge118" class="edge"><title>Node1&#45;&gt;Node8</title>
<path fill="none" stroke="midnightblue" d="M578.099,-624.165C802.897,-617.683 1455,-591.273 1455,-503 1455,-503 1455,-503 1455,-148 1455,-62.4373 789.885,-21.7627 622.751,-12.8925"/>
<polygon fill="midnightblue" stroke="midnightblue" points="622.644,-9.38222 612.474,-12.3541 622.277,-16.3726 622.644,-9.38222"/>
</g>
<!-- Node9 -->
<g id="node17" class="node"><title>Node9</title>
<a xlink:href="ObjectData_8h.xhtml" target="_top" xlink:title="../processing/ObjectData.h">
<polygon fill="none" stroke="black" points="347,-260.5 347,-281.5 481,-281.5 481,-260.5 347,-260.5"/>
<text text-anchor="middle" x="414" y="-268.5" font-family="Helvetica,sans-Serif" font-size="10.00">../processing/ObjectData.h</text>
</a>
</g>
<!-- Node1&#45;&gt;Node9 -->
<g id="edge144" class="edge"><title>Node1&#45;&gt;Node9</title>
<path fill="none" stroke="midnightblue" d="M434.055,-608.994C382.905,-591.772 322,-559.419 322,-503 322,-503 322,-503 322,-387 322,-355.192 322.165,-343.632 341,-318 350.885,-304.549 365.878,-293.94 379.71,-286.232"/>
<polygon fill="midnightblue" stroke="midnightblue" points="381.338,-289.33 388.567,-281.584 378.086,-283.132 381.338,-289.33"/>
</g>
<!-- Node15 -->
<g id="node34" class="node"><title>Node15</title>
<polygon fill="none" stroke="#bfbfbf" points="550,-137.5 550,-158.5 602,-158.5 602,-137.5 550,-137.5"/>
<text text-anchor="middle" x="576" y="-145.5" font-family="Helvetica,sans-Serif" font-size="10.00">sstream</text>
</g>
<!-- Node1&#45;&gt;Node15 -->
<g id="edge120" class="edge"><title>Node1&#45;&gt;Node15</title>
<path fill="none" stroke="midnightblue" d="M492.573,-608.771C479.561,-585.594 459,-542.689 459,-503 459,-503 459,-503 459,-445 459,-333.01 531.903,-212.761 562.614,-167.074"/>
<polygon fill="midnightblue" stroke="midnightblue" points="565.571,-168.951 568.323,-158.72 559.791,-165.001 565.571,-168.951"/>
</g>
<!-- Node20 -->
<g id="node53" class="node"><title>Node20</title>
<polygon fill="none" stroke="#bfbfbf" points="911.5,-260.5 911.5,-281.5 952.5,-281.5 952.5,-260.5 911.5,-260.5"/>
<text text-anchor="middle" x="932" y="-268.5" font-family="Helvetica,sans-Serif" font-size="10.00">string</text>
</g>
<!-- Node1&#45;&gt;Node20 -->
<g id="edge124" class="edge"><title>Node1&#45;&gt;Node20</title>
<path fill="none" stroke="midnightblue" d="M510.756,-608.735C532.624,-562.256 599.656,-434.087 698,-376 785.198,-324.497 852.434,-412.639 923,-340 935.193,-327.449 936.469,-307.012 935.279,-291.631"/>
<polygon fill="midnightblue" stroke="midnightblue" points="938.734,-291.036 934.098,-281.509 931.781,-291.848 938.734,-291.036"/>
</g>
<!-- Node31 -->
<g id="node92" class="node"><title>Node31</title>
<polygon fill="none" stroke="#bfbfbf" points="1483,-550.5 1483,-571.5 1533,-571.5 1533,-550.5 1483,-550.5"/>
<text text-anchor="middle" x="1508" y="-558.5" font-family="Helvetica,sans-Serif" font-size="10.00">fstream</text>
</g>
<!-- Node1&#45;&gt;Node31 -->
<g id="edge122" class="edge"><title>Node1&#45;&gt;Node31</title>
<path fill="none" stroke="midnightblue" d="M578.196,-623.926C774.3,-618.177 1297.94,-600.551 1469,-572 1470.25,-571.792 1471.52,-571.558 1472.79,-571.304"/>
<polygon fill="midnightblue" stroke="midnightblue" points="1473.64,-574.7 1482.59,-569.03 1472.06,-567.881 1473.64,-574.7"/>
</g>
<!-- Node32 -->
<g id="node96" class="node"><title>Node32</title>
<a xlink:href="MeshProcessor_8h.xhtml" target="_top" xlink:title="../processing/MeshProcessor.h">
<polygon fill="none" stroke="black" points="142,-318.5 142,-339.5 294,-339.5 294,-318.5 142,-318.5"/>
<text text-anchor="middle" x="218" y="-326.5" font-family="Helvetica,sans-Serif" font-size="10.00">../processing/MeshProcessor.h</text>
</a>
</g>
<!-- Node1&#45;&gt;Node32 -->
<g id="edge128" class="edge"><title>Node1&#45;&gt;Node32</title>
<path fill="none" stroke="midnightblue" d="M427.735,-616.174C389.555,-608.563 343.812,-595.22 308,-572 274.625,-550.359 251,-542.777 251,-503 251,-503 251,-503 251,-445 251,-410.138 237.041,-371.555 227.28,-348.838"/>
<polygon fill="midnightblue" stroke="midnightblue" points="230.425,-347.296 223.156,-339.587 224.031,-350.146 230.425,-347.296"/>
</g>
<!-- Node33 -->
<g id="node101" class="node"><title>Node33</title>
<a xlink:href="Importer_8h.xhtml" target="_top" xlink:title="../fileIO/Importer.h">
<polygon fill="none" stroke="black" points="350,-318.5 350,-339.5 446,-339.5 446,-318.5 350,-318.5"/>
<text text-anchor="middle" x="398" y="-326.5" font-family="Helvetica,sans-Serif" font-size="10.00">../fileIO/Importer.h</text>
</a>
</g>
<!-- Node1&#45;&gt;Node33 -->
<g id="edge136" class="edge"><title>Node1&#45;&gt;Node33</title>
<path fill="none" stroke="midnightblue" d="M477.81,-608.776C449.966,-587.476 409,-548.421 409,-503 409,-503 409,-503 409,-445 409,-411.448 404.383,-372.68 401.131,-349.538"/>
<polygon fill="midnightblue" stroke="midnightblue" points="404.577,-348.915 399.671,-339.524 397.65,-349.925 404.577,-348.915"/>
</g>
<!-- Node34 -->
<g id="node107" class="node"><title>Node34</title>
<a xlink:href="constants_8h.xhtml" target="_top" xlink:title="constants.h">
<polygon fill="none" stroke="black" points="1302,-202.5 1302,-223.5 1370,-223.5 1370,-202.5 1302,-202.5"/>
<text text-anchor="middle" x="1336" y="-210.5" font-family="Helvetica,sans-Serif" font-size="10.00">constants.h</text>
</a>
</g>
<!-- Node1&#45;&gt;Node34 -->
<g id="edge146" class="edge"><title>Node1&#45;&gt;Node34</title>
<path fill="none" stroke="midnightblue" d="M578.199,-623.375C791.491,-614.938 1385,-584.169 1385,-503 1385,-503 1385,-503 1385,-387 1385,-329.472 1378.82,-314.363 1360,-260 1356.77,-250.666 1352,-240.857 1347.57,-232.63"/>
<polygon fill="midnightblue" stroke="midnightblue" points="1350.57,-230.83 1342.62,-223.821 1344.47,-234.255 1350.57,-230.83"/>
</g>
<!-- Node35 -->
<g id="node110" class="node"><title>Node35</title>
<a xlink:href="Exporter_8h.xhtml" target="_top" xlink:title="../fileIO/Exporter.h">
<polygon fill="none" stroke="black" points="27.5,-318.5 27.5,-339.5 124.5,-339.5 124.5,-318.5 27.5,-318.5"/>
<text text-anchor="middle" x="76" y="-326.5" font-family="Helvetica,sans-Serif" font-size="10.00">../fileIO/Exporter.h</text>
</a>
</g>
<!-- Node1&#45;&gt;Node35 -->
<g id="edge150" class="edge"><title>Node1&#45;&gt;Node35</title>
<path fill="none" stroke="midnightblue" d="M427.947,-614.491C327.273,-596.897 161,-559.315 161,-503 161,-503 161,-503 161,-445 161,-403.054 124.39,-366.203 99.2231,-345.826"/>
<polygon fill="midnightblue" stroke="midnightblue" points="101.234,-342.955 91.1963,-339.563 96.9276,-348.474 101.234,-342.955"/>
</g>
<!-- Node36 -->
<g id="node115" class="node"><title>Node36</title>
<polygon fill="none" stroke="#bfbfbf" points="1551,-550.5 1551,-571.5 1629,-571.5 1629,-550.5 1551,-550.5"/>
<text text-anchor="middle" x="1590" y="-558.5" font-family="Helvetica,sans-Serif" font-size="10.00">wx/stdpaths.h</text>
</g>
<!-- Node1&#45;&gt;Node36 -->
<g id="edge158" class="edge"><title>Node1&#45;&gt;Node36</title>
<path fill="none" stroke="midnightblue" d="M578.146,-623.788C780.852,-617.556 1336.75,-598.642 1540.78,-571.923"/>
<polygon fill="midnightblue" stroke="midnightblue" points="1541.37,-575.375 1550.81,-570.563 1540.43,-568.439 1541.37,-575.375"/>
</g>
<!-- Node3 -->
<g id="node5" class="node"><title>Node3</title>
<a xlink:href="GUIGLCanvas_8h.xhtml" target="_top" xlink:title="GUIGLCanvas.h">
<polygon fill="none" stroke="black" points="524.5,-376.5 524.5,-397.5 613.5,-397.5 613.5,-376.5 524.5,-376.5"/>
<text text-anchor="middle" x="569" y="-384.5" font-family="Helvetica,sans-Serif" font-size="10.00">GUIGLCanvas.h</text>
</a>
</g>
<!-- Node2&#45;&gt;Node3 -->
<g id="edge4" class="edge"><title>Node2&#45;&gt;Node3</title>
<path fill="none" stroke="midnightblue" d="M784.312,-550.419C755.173,-542.846 718.081,-530.964 688,-514 640.236,-487.064 600.388,-434.492 581.237,-406.17"/>
<polygon fill="midnightblue" stroke="midnightblue" points="583.986,-403.982 575.554,-397.566 578.145,-407.84 583.986,-403.982"/>
</g>
<!-- Node16 -->
<g id="node36" class="node"><title>Node16</title>
<polygon fill="none" stroke="#bfbfbf" points="991.5,-137.5 991.5,-158.5 1044.5,-158.5 1044.5,-137.5 991.5,-137.5"/>
<text text-anchor="middle" x="1018" y="-145.5" font-family="Helvetica,sans-Serif" font-size="10.00">wx/wx.h</text>
</g>
<!-- Node2&#45;&gt;Node16 -->
<g id="edge114" class="edge"><title>Node2&#45;&gt;Node16</title>
<path fill="none" stroke="midnightblue" d="M882.71,-558.804C988.846,-553.647 1230.17,-539.256 1257,-514 1283.09,-489.439 1273.72,-469.196 1267,-434 1255.57,-374.167 1168.32,-240.358 1121,-202 1100.73,-185.572 1074.69,-171.971 1053.86,-162.528"/>
<polygon fill="midnightblue" stroke="midnightblue" points="1055.25,-159.319 1044.69,-158.487 1052.43,-165.724 1055.25,-159.319"/>
</g>
<!-- Node18 -->
<g id="node47" class="node"><title>Node18</title>
<a xlink:href="PropertiesBox_8h.xhtml" target="_top" xlink:title="PropertiesBox.h">
<polygon fill="none" stroke="black" points="819,-376.5 819,-397.5 905,-397.5 905,-376.5 819,-376.5"/>
<text text-anchor="middle" x="862" y="-384.5" font-family="Helvetica,sans-Serif" font-size="10.00">PropertiesBox.h</text>
</a>
</g>
<!-- Node2&#45;&gt;Node18 -->
<g id="edge58" class="edge"><title>Node2&#45;&gt;Node18</title>
<path fill="none" stroke="midnightblue" d="M834.359,-550.427C837.214,-528.6 844.217,-476.997 852,-434 853.57,-425.324 855.549,-415.801 857.33,-407.609"/>
<polygon fill="midnightblue" stroke="midnightblue" points="860.759,-408.311 859.508,-397.79 853.926,-406.795 860.759,-408.311"/>
</g>
<!-- Node21 -->
<g id="node57" class="node"><title>Node21</title>
<a xlink:href="ViewpropBox_8h.xhtml" target="_top" xlink:title="ViewpropBox.h">
<polygon fill="none" stroke="black" points="1165.5,-492.5 1165.5,-513.5 1248.5,-513.5 1248.5,-492.5 1165.5,-492.5"/>
<text text-anchor="middle" x="1207" y="-500.5" font-family="Helvetica,sans-Serif" font-size="10.00">ViewpropBox.h</text>
</a>
</g>
<!-- Node2&#45;&gt;Node21 -->
<g id="edge72" class="edge"><title>Node2&#45;&gt;Node21</title>
<path fill="none" stroke="midnightblue" d="M882.664,-553.298C953.59,-542.299 1083.26,-522.19 1155.29,-511.019"/>
<polygon fill="midnightblue" stroke="midnightblue" points="1156.14,-514.429 1165.49,-509.437 1155.07,-507.511 1156.14,-514.429"/>
</g>
<!-- Node23 -->
<g id="node62" class="node"><title>Node23</title>
<a xlink:href="GUIAnalyzeOutputWindow_8h.xhtml" target="_top" xlink:title="GUIAnalyzeOutputWindow.h">
<polygon fill="none" stroke="black" points="662.5,-434.5 662.5,-455.5 805.5,-455.5 805.5,-434.5 662.5,-434.5"/>
<text text-anchor="middle" x="734" y="-442.5" font-family="Helvetica,sans-Serif" font-size="10.00">GUIAnalyzeOutputWindow.h</text>
</a>
</g>
<!-- Node2&#45;&gt;Node23 -->
<g id="edge78" class="edge"><title>Node2&#45;&gt;Node23</title>
<path fill="none" stroke="midnightblue" d="M824.242,-550.136C813.161,-536.45 793.418,-512.27 776,-492 767.785,-482.44 758.46,-471.967 750.686,-463.339"/>
<polygon fill="midnightblue" stroke="midnightblue" points="753.1,-460.79 743.796,-455.722 747.908,-465.486 753.1,-460.79"/>
</g>
<!-- Node25 -->
<g id="node68" class="node"><title>Node25</title>
<a xlink:href="GUIAnalyzePointWindow_8h.xhtml" target="_top" xlink:title="GUIAnalyzePointWindow.h">
<polygon fill="none" stroke="black" points="1215,-260.5 1215,-281.5 1351,-281.5 1351,-260.5 1215,-260.5"/>
<text text-anchor="middle" x="1283" y="-268.5" font-family="Helvetica,sans-Serif" font-size="10.00">GUIAnalyzePointWindow.h</text>
</a>
</g>
<!-- Node2&#45;&gt;Node25 -->
<g id="edge86" class="edge"><title>Node2&#45;&gt;Node25</title>
<path fill="none" stroke="midnightblue" d="M882.925,-559.236C1000.77,-554.647 1288.89,-540.791 1323,-514 1348.53,-493.943 1347,-477.469 1347,-445 1347,-445 1347,-445 1347,-387 1347,-348.453 1319.57,-310.662 1300.63,-289.157"/>
<polygon fill="midnightblue" stroke="midnightblue" points="1303.19,-286.768 1293.86,-281.745 1298.02,-291.489 1303.19,-286.768"/>
</g>
<!-- Node26 -->
<g id="node71" class="node"><title>Node26</title>
<a xlink:href="GUICutRenderWindow_8h.xhtml" target="_top" xlink:title="GUICutRenderWindow.h">
<polygon fill="none" stroke="black" points="919.5,-492.5 919.5,-513.5 1044.5,-513.5 1044.5,-492.5 919.5,-492.5"/>
<text text-anchor="middle" x="982" y="-500.5" font-family="Helvetica,sans-Serif" font-size="10.00">GUICutRenderWindow.h</text>
</a>
</g>
<!-- Node2&#45;&gt;Node26 -->
<g id="edge90" class="edge"><title>Node2&#45;&gt;Node26</title>
<path fill="none" stroke="midnightblue" d="M859.983,-550.497C883.853,-541.205 918.894,-527.565 945.307,-517.283"/>
<polygon fill="midnightblue" stroke="midnightblue" points="946.917,-520.412 954.967,-513.523 944.378,-513.889 946.917,-520.412"/>
</g>
<!-- Node30 -->
<g id="node88" class="node"><title>Node30</title>
<polygon fill="none" stroke="#bfbfbf" points="696.5,-492.5 696.5,-513.5 767.5,-513.5 767.5,-492.5 696.5,-492.5"/>
<text text-anchor="middle" x="732" y="-500.5" font-family="Helvetica,sans-Serif" font-size="10.00">wx/artprov.h</text>
</g>
<!-- Node2&#45;&gt;Node30 -->
<g id="edge116" class="edge"><title>Node2&#45;&gt;Node30</title>
<path fill="none" stroke="midnightblue" d="M814.475,-550.362C799.099,-541.532 777.004,-528.844 759.553,-518.822"/>
<polygon fill="midnightblue" stroke="midnightblue" points="760.822,-515.515 750.408,-513.571 757.336,-521.586 760.822,-515.515"/>
</g>
<!-- Node4 -->
<g id="node7" class="node"><title>Node4</title>
<a xlink:href="Renderer_8h.xhtml" target="_top" xlink:title="Renderer.h">
<polygon fill="none" stroke="black" points="675.5,-318.5 675.5,-339.5 740.5,-339.5 740.5,-318.5 675.5,-318.5"/>
<text text-anchor="middle" x="708" y="-326.5" font-family="Helvetica,sans-Serif" font-size="10.00">Renderer.h</text>
</a>
</g>
<!-- Node3&#45;&gt;Node4 -->
<g id="edge6" class="edge"><title>Node3&#45;&gt;Node4</title>
<path fill="none" stroke="midnightblue" d="M594.172,-376.497C616.273,-367.275 648.639,-353.769 673.213,-343.515"/>
<polygon fill="midnightblue" stroke="midnightblue" points="674.665,-346.702 682.546,-339.621 671.969,-340.242 674.665,-346.702"/>
</g>
<!-- Node3&#45;&gt;Node9 -->
<g id="edge56" class="edge"><title>Node3&#45;&gt;Node9</title>
<path fill="none" stroke="midnightblue" d="M557.617,-376.413C542.312,-362.39 514.013,-337.195 488,-318 472.931,-306.881 455.252,-295.592 440.953,-286.866"/>
<polygon fill="midnightblue" stroke="midnightblue" points="442.477,-283.698 432.107,-281.529 438.861,-289.692 442.477,-283.698"/>
</g>
<!-- Node3&#45;&gt;Node16 -->
<g id="edge52" class="edge"><title>Node3&#45;&gt;Node16</title>
<path fill="none" stroke="midnightblue" d="M613.816,-377.669C663.845,-366.886 739.129,-349.421 749,-340 795.473,-295.646 745.067,-245.867 792,-202 819.19,-176.587 924.592,-159.754 981.336,-152.335"/>
<polygon fill="midnightblue" stroke="midnightblue" points="981.859,-155.797 991.335,-151.06 980.973,-148.854 981.859,-155.797"/>
</g>
<!-- Node17 -->
<g id="node44" class="node"><title>Node17</title>
<polygon fill="none" stroke="#bfbfbf" points="578,-318.5 578,-339.5 658,-339.5 658,-318.5 578,-318.5"/>
<text text-anchor="middle" x="618" y="-326.5" font-family="Helvetica,sans-Serif" font-size="10.00">wx/glcanvas.h</text>
</g>
<!-- Node3&#45;&gt;Node17 -->
<g id="edge54" class="edge"><title>Node3&#45;&gt;Node17</title>
<path fill="none" stroke="midnightblue" d="M577.987,-376.362C584.825,-368.268 594.402,-356.932 602.472,-347.38"/>
<polygon fill="midnightblue" stroke="midnightblue" points="605.29,-349.468 609.07,-339.571 599.942,-344.951 605.29,-349.468"/>
</g>
<!-- Node4&#45;&gt;Node5 -->
<g id="edge8" class="edge"><title>Node4&#45;&gt;Node5</title>
<path fill="none" stroke="midnightblue" d="M675.43,-319.779C672.591,-319.122 669.752,-318.517 667,-318 522.43,-290.862 475.318,-334.732 338,-282 272.991,-257.036 209.957,-203.598 176.567,-172.272"/>
<polygon fill="midnightblue" stroke="midnightblue" points="178.78,-169.547 169.123,-165.19 173.956,-174.618 178.78,-169.547"/>
</g>
<!-- Node6 -->
<g id="node11" class="node"><title>Node6</title>
<polygon fill="none" stroke="#bfbfbf" points="620,-137.5 620,-158.5 664,-158.5 664,-137.5 620,-137.5"/>
<text text-anchor="middle" x="642" y="-145.5" font-family="Helvetica,sans-Serif" font-size="10.00">vector</text>
</g>
<!-- Node4&#45;&gt;Node6 -->
<g id="edge10" class="edge"><title>Node4&#45;&gt;Node6</title>
<path fill="none" stroke="midnightblue" d="M699.842,-318.333C693.151,-309.139 683.858,-295.286 678,-282 661.163,-243.813 650.627,-195.941 645.575,-168.982"/>
<polygon fill="midnightblue" stroke="midnightblue" points="648.958,-168.02 643.743,-158.798 642.069,-169.259 648.958,-168.02"/>
</g>
<!-- Node7 -->
<g id="node13" class="node"><title>Node7</title>
<a xlink:href="GeometryClasses_8h.xhtml" target="_top" xlink:title="../libraries/interpolate\l/GeometryClasses.h">
<polygon fill="none" stroke="black" points="531.5,-59 531.5,-93 638.5,-93 638.5,-59 531.5,-59"/>
<text text-anchor="start" x="539.5" y="-80" font-family="Helvetica,sans-Serif" font-size="10.00">../libraries/interpolate</text>
<text text-anchor="middle" x="585" y="-67" font-family="Helvetica,sans-Serif" font-size="10.00">/GeometryClasses.h</text>
</a>
</g>
<!-- Node4&#45;&gt;Node7 -->
<g id="edge12" class="edge"><title>Node4&#45;&gt;Node7</title>
<path fill="none" stroke="midnightblue" d="M707.264,-318.237C704.575,-281.46 694.306,-161.327 673,-130 664.069,-116.869 650.781,-106.359 637.22,-98.2288"/>
<polygon fill="midnightblue" stroke="midnightblue" points="638.745,-95.0713 628.312,-93.2261 635.318,-101.175 638.745,-95.0713"/>
</g>
<!-- Node4&#45;&gt;Node9 -->
<g id="edge16" class="edge"><title>Node4&#45;&gt;Node9</title>
<path fill="none" stroke="midnightblue" d="M675.384,-320.002C672.555,-319.297 669.731,-318.619 667,-318 607.262,-304.459 538.94,-291.941 488.365,-283.234"/>
<polygon fill="midnightblue" stroke="midnightblue" points="488.942,-279.782 478.495,-281.544 487.761,-286.682 488.942,-279.782"/>
</g>
<!-- Node12 -->
<g id="node26" class="node"><title>Node12</title>
<a xlink:href="utils_8h.xhtml" target="_top" xlink:title="utils.h">
<polygon fill="none" stroke="black" points="329.5,-202.5 329.5,-223.5 372.5,-223.5 372.5,-202.5 329.5,-202.5"/>
<text text-anchor="middle" x="351" y="-210.5" font-family="Helvetica,sans-Serif" font-size="10.00">utils.h</text>
</a>
</g>
<!-- Node4&#45;&gt;Node12 -->
<g id="edge48" class="edge"><title>Node4&#45;&gt;Node12</title>
<path fill="none" stroke="midnightblue" d="M675.466,-318.739C607.746,-297.353 452.708,-248.232 382.34,-224.368"/>
<polygon fill="midnightblue" stroke="midnightblue" points="383.187,-220.959 372.593,-221.036 380.923,-227.583 383.187,-220.959"/>
</g>
<!-- Node4&#45;&gt;Node16 -->
<g id="edge50" class="edge"><title>Node4&#45;&gt;Node16</title>
<path fill="none" stroke="midnightblue" d="M708.518,-318.2C710.316,-293.532 718.332,-232.815 754,-202 787.618,-172.957 916.664,-157.285 981.037,-151.131"/>
<polygon fill="midnightblue" stroke="midnightblue" points="981.526,-154.6 991.16,-150.19 980.879,-147.63 981.526,-154.6"/>
</g>
<!-- Node7&#45;&gt;Node8 -->
<g id="edge14" class="edge"><title>Node7&#45;&gt;Node8</title>
<path fill="none" stroke="midnightblue" d="M585,-58.922C585,-50.6704 585,-40.6922 585,-31.9818"/>
<polygon fill="midnightblue" stroke="midnightblue" points="588.5,-31.8521 585,-21.8521 581.5,-31.8521 588.5,-31.8521"/>
</g>
<!-- Node9&#45;&gt;Node5 -->
<g id="edge18" class="edge"><title>Node9&#45;&gt;Node5</title>
<path fill="none" stroke="midnightblue" d="M392.932,-260.39C374.072,-250.883 345.672,-236.546 321,-224 301.865,-214.27 297.433,-211.122 278,-202 253.574,-190.534 226.069,-178.632 203.004,-168.929"/>
<polygon fill="midnightblue" stroke="midnightblue" points="204.319,-165.685 193.743,-165.051 201.615,-172.142 204.319,-165.685"/>
</g>
<!-- Node9&#45;&gt;Node6 -->
<g id="edge20" class="edge"><title>Node9&#45;&gt;Node6</title>
<path fill="none" stroke="midnightblue" d="M434.552,-260.36C470.528,-241.665 547.166,-201.529 611,-166 612.325,-165.262 613.68,-164.502 615.045,-163.73"/>
<polygon fill="midnightblue" stroke="midnightblue" points="617.095,-166.589 624.032,-158.581 613.615,-160.515 617.095,-166.589"/>
</g>
<!-- Node10 -->
<g id="node21" class="node"><title>Node10</title>
<a xlink:href="Interpolator_8h.xhtml" target="_top" xlink:title="../libraries/interpolate\l/Interpolator.h">
<polygon fill="none" stroke="black" points="425.5,-131 425.5,-165 532.5,-165 532.5,-131 425.5,-131"/>
<text text-anchor="start" x="433.5" y="-152" font-family="Helvetica,sans-Serif" font-size="10.00">../libraries/interpolate</text>
<text text-anchor="middle" x="479" y="-139" font-family="Helvetica,sans-Serif" font-size="10.00">/Interpolator.h</text>
</a>
</g>
<!-- Node9&#45;&gt;Node10 -->
<g id="edge22" class="edge"><title>Node9&#45;&gt;Node10</title>
<path fill="none" stroke="midnightblue" d="M429.199,-260.405C440.286,-251.856 454.76,-238.84 463,-224 471.269,-209.107 475.273,-190.404 477.208,-175.279"/>
<polygon fill="midnightblue" stroke="midnightblue" points="480.724,-175.313 478.283,-165.003 473.762,-174.585 480.724,-175.313"/>
</g>
<!-- Node11 -->
<g id="node24" class="node"><title>Node11</title>
<polygon fill="none" stroke="#bfbfbf" points="389.5,-202.5 389.5,-223.5 454.5,-223.5 454.5,-202.5 389.5,-202.5"/>
<text text-anchor="middle" x="422" y="-210.5" font-family="Helvetica,sans-Serif" font-size="10.00">wx/string.h</text>
</g>
<!-- Node9&#45;&gt;Node11 -->
<g id="edge26" class="edge"><title>Node9&#45;&gt;Node11</title>
<path fill="none" stroke="midnightblue" d="M415.467,-260.362C416.494,-252.922 417.898,-242.743 419.141,-233.728"/>
<polygon fill="midnightblue" stroke="midnightblue" points="422.643,-233.955 420.542,-223.571 415.708,-232.999 422.643,-233.955"/>
</g>
<!-- Node9&#45;&gt;Node12 -->
<g id="edge28" class="edge"><title>Node9&#45;&gt;Node12</title>
<path fill="none" stroke="midnightblue" d="M402.445,-260.362C393.387,-252.023 380.59,-240.242 370.026,-230.516"/>
<polygon fill="midnightblue" stroke="midnightblue" points="372.21,-227.769 362.482,-223.571 367.468,-232.919 372.21,-227.769"/>
</g>
<!-- Node10&#45;&gt;Node7 -->
<g id="edge24" class="edge"><title>Node10&#45;&gt;Node7</title>
<path fill="none" stroke="midnightblue" d="M504.121,-130.937C518.143,-121.412 535.806,-109.415 551.045,-99.0635"/>
<polygon fill="midnightblue" stroke="midnightblue" points="553.387,-101.704 559.692,-93.19 549.454,-95.9136 553.387,-101.704"/>
</g>
<!-- Node12&#45;&gt;Node5 -->
<g id="edge42" class="edge"><title>Node12&#45;&gt;Node5</title>
<path fill="none" stroke="midnightblue" d="M329.197,-206.101C302.359,-197.583 255.158,-182.518 206.033,-166.32"/>
<polygon fill="midnightblue" stroke="midnightblue" points="207.109,-162.99 196.516,-163.176 204.913,-169.637 207.109,-162.99"/>
</g>
<!-- Node12&#45;&gt;Node6 -->
<g id="edge32" class="edge"><title>Node12&#45;&gt;Node6</title>
<path fill="none" stroke="midnightblue" d="M372.798,-204.445C375.534,-203.539 378.315,-202.695 381,-202 481.164,-176.066 513.479,-200.57 611,-166 613.145,-165.24 615.309,-164.329 617.444,-163.328"/>
<polygon fill="midnightblue" stroke="midnightblue" points="619.276,-166.317 626.46,-158.529 615.988,-160.138 619.276,-166.317"/>
</g>
<!-- Node12&#45;&gt;Node7 -->
<g id="edge44" class="edge"><title>Node12&#45;&gt;Node7</title>
<path fill="none" stroke="midnightblue" d="M356.628,-202.429C366.519,-184.843 388.684,-149.581 417,-130 448.057,-108.524 488.15,-95.2104 521.38,-87.1776"/>
<polygon fill="midnightblue" stroke="midnightblue" points="522.499,-90.5114 531.455,-84.851 520.924,-83.6909 522.499,-90.5114"/>
</g>
<!-- Node12&#45;&gt;Node8 -->
<g id="edge30" class="edge"><title>Node12&#45;&gt;Node8</title>
<path fill="none" stroke="midnightblue" d="M340.494,-202.43C325.516,-186.039 301.468,-153.891 317,-130 368.698,-50.4787 487.099,-23.6754 547.728,-14.9754"/>
<polygon fill="midnightblue" stroke="midnightblue" points="548.552,-18.3963 557.997,-13.5966 547.62,-11.4586 548.552,-18.3963"/>
</g>
<!-- Node12&#45;&gt;Node10 -->
<g id="edge46" class="edge"><title>Node12&#45;&gt;Node10</title>
<path fill="none" stroke="midnightblue" d="M371.85,-202.412C389.206,-193.598 414.487,-180.761 436.134,-169.768"/>
<polygon fill="midnightblue" stroke="midnightblue" points="437.823,-172.835 445.155,-165.187 434.654,-166.594 437.823,-172.835"/>
</g>
<!-- Node13 -->
<g id="node30" class="node"><title>Node13</title>
<polygon fill="none" stroke="#bfbfbf" points="214,-137.5 214,-158.5 270,-158.5 270,-137.5 214,-137.5"/>
<text text-anchor="middle" x="242" y="-145.5" font-family="Helvetica,sans-Serif" font-size="10.00">algorithm</text>
</g>
<!-- Node12&#45;&gt;Node13 -->
<g id="edge34" class="edge"><title>Node12&#45;&gt;Node13</title>
<path fill="none" stroke="midnightblue" d="M333.001,-202.267C315.382,-191.76 288.345,-175.637 268.315,-163.692"/>
<polygon fill="midnightblue" stroke="midnightblue" points="270.046,-160.649 259.664,-158.534 266.46,-166.662 270.046,-160.649"/>
</g>
<!-- Node14 -->
<g id="node32" class="node"><title>Node14</title>
<polygon fill="none" stroke="#bfbfbf" points="326,-137.5 326,-158.5 370,-158.5 370,-137.5 326,-137.5"/>
<text text-anchor="middle" x="348" y="-145.5" font-family="Helvetica,sans-Serif" font-size="10.00">cmath</text>
</g>
<!-- Node12&#45;&gt;Node14 -->
<g id="edge36" class="edge"><title>Node12&#45;&gt;Node14</title>
<path fill="none" stroke="midnightblue" d="M350.505,-202.267C350.085,-193.18 349.472,-179.892 348.957,-168.74"/>
<polygon fill="midnightblue" stroke="midnightblue" points="352.444,-168.362 348.486,-158.534 345.451,-168.684 352.444,-168.362"/>
</g>
<!-- Node12&#45;&gt;Node15 -->
<g id="edge38" class="edge"><title>Node12&#45;&gt;Node15</title>
<path fill="none" stroke="midnightblue" d="M372.518,-204.73C375.352,-203.753 378.233,-202.815 381,-202 450.92,-181.41 472.484,-190.868 541,-166 543.417,-165.123 545.879,-164.115 548.321,-163.033"/>
<polygon fill="midnightblue" stroke="midnightblue" points="550.008,-166.106 557.503,-158.618 546.974,-159.797 550.008,-166.106"/>
</g>
<!-- Node12&#45;&gt;Node16 -->
<g id="edge40" class="edge"><title>Node12&#45;&gt;Node16</title>
<path fill="none" stroke="midnightblue" d="M372.753,-204.26C375.497,-203.385 378.292,-202.6 381,-202 496.719,-176.365 862.742,-155.917 980.861,-149.845"/>
<polygon fill="midnightblue" stroke="midnightblue" points="981.375,-153.323 991.183,-149.319 981.018,-146.332 981.375,-153.323"/>
</g>
<!-- Node18&#45;&gt;Node16 -->
<g id="edge60" class="edge"><title>Node18&#45;&gt;Node16</title>
<path fill="none" stroke="midnightblue" d="M898.512,-376.44C918.014,-369.096 941.019,-357.438 956,-340 978.673,-313.608 1003.49,-212.551 1013.48,-168.607"/>
<polygon fill="midnightblue" stroke="midnightblue" points="1016.91,-169.269 1015.68,-158.746 1010.08,-167.74 1016.91,-169.269"/>
</g>
<!-- Node19 -->
<g id="node50" class="node"><title>Node19</title>
<a xlink:href="GUITimeline_8h.xhtml" target="_top" xlink:title="GUITimeline.h">
<polygon fill="none" stroke="black" points="834,-318.5 834,-339.5 914,-339.5 914,-318.5 834,-318.5"/>
<text text-anchor="middle" x="874" y="-326.5" font-family="Helvetica,sans-Serif" font-size="10.00">GUITimeline.h</text>
</a>
</g>
<!-- Node18&#45;&gt;Node19 -->
<g id="edge62" class="edge"><title>Node18&#45;&gt;Node19</title>
<path fill="none" stroke="midnightblue" d="M864.201,-376.362C865.757,-368.84 867.893,-358.519 869.773,-349.431"/>
<polygon fill="midnightblue" stroke="midnightblue" points="873.214,-350.072 871.813,-339.571 866.359,-348.654 873.214,-350.072"/>
</g>
<!-- Node19&#45;&gt;Node6 -->
<g id="edge68" class="edge"><title>Node19&#45;&gt;Node6</title>
<path fill="none" stroke="midnightblue" d="M860.524,-318.486C821.922,-288.37 710.694,-201.593 663.54,-164.805"/>
<polygon fill="midnightblue" stroke="midnightblue" points="665.551,-161.934 655.513,-158.543 661.245,-167.453 665.551,-161.934"/>
</g>
<!-- Node19&#45;&gt;Node9 -->
<g id="edge70" class="edge"><title>Node19&#45;&gt;Node9</title>
<path fill="none" stroke="midnightblue" d="M833.983,-323.954C757.588,-314.322 589.795,-293.165 490.979,-280.706"/>
<polygon fill="midnightblue" stroke="midnightblue" points="491.408,-277.232 481.048,-279.454 490.532,-284.177 491.408,-277.232"/>
</g>
<!-- Node19&#45;&gt;Node16 -->
<g id="edge64" class="edge"><title>Node19&#45;&gt;Node16</title>
<path fill="none" stroke="midnightblue" d="M877.101,-318.048C881.445,-303.845 890.266,-278.683 903,-260 929.37,-221.309 970.659,-185.164 995.927,-164.887"/>
<polygon fill="midnightblue" stroke="midnightblue" points="998.16,-167.583 1003.84,-158.638 993.821,-162.09 998.16,-167.583"/>
</g>
<!-- Node19&#45;&gt;Node20 -->
<g id="edge66" class="edge"><title>Node19&#45;&gt;Node20</title>
<path fill="none" stroke="midnightblue" d="M884.638,-318.362C892.896,-310.104 904.528,-298.472 914.197,-288.803"/>
<polygon fill="midnightblue" stroke="midnightblue" points="916.833,-291.117 921.429,-281.571 911.883,-286.167 916.833,-291.117"/>
</g>
<!-- Node21&#45;&gt;Node16 -->
<g id="edge74" class="edge"><title>Node21&#45;&gt;Node16</title>
<path fill="none" stroke="midnightblue" d="M1222.27,-492.196C1232.83,-483.719 1246.02,-470.886 1252,-456 1255.64,-446.926 1254.82,-443.361 1252,-434 1234.13,-374.757 1141.59,-245.925 1098,-202 1083,-186.886 1063.18,-173.473 1047.03,-163.795"/>
<polygon fill="midnightblue" stroke="midnightblue" points="1048.4,-160.547 1038,-158.544 1044.88,-166.597 1048.4,-160.547"/>
</g>
<!-- Node22 -->
<g id="node60" class="node"><title>Node22</title>
<polygon fill="none" stroke="#bfbfbf" points="1171,-434.5 1171,-455.5 1243,-455.5 1243,-434.5 1171,-434.5"/>
<text text-anchor="middle" x="1207" y="-442.5" font-family="Helvetica,sans-Serif" font-size="10.00">wx/spinctrl.h</text>
</g>
<!-- Node21&#45;&gt;Node22 -->
<g id="edge76" class="edge"><title>Node21&#45;&gt;Node22</title>
<path fill="none" stroke="midnightblue" d="M1207,-492.362C1207,-484.922 1207,-474.743 1207,-465.728"/>
<polygon fill="midnightblue" stroke="midnightblue" points="1210.5,-465.571 1207,-455.571 1203.5,-465.571 1210.5,-465.571"/>
</g>
<!-- Node23&#45;&gt;Node16 -->
<g id="edge84" class="edge"><title>Node23&#45;&gt;Node16</title>
<path fill="none" stroke="midnightblue" d="M743.05,-434.401C750.943,-425.021 762.571,-410.864 772,-398 797.214,-363.6 798.998,-351.808 825,-318 867.033,-263.348 874.938,-246.023 928,-202 946.271,-186.841 969.257,-173.125 987.425,-163.31"/>
<polygon fill="midnightblue" stroke="midnightblue" points="989.231,-166.314 996.436,-158.546 985.96,-160.125 989.231,-166.314"/>
</g>
<!-- Node23&#45;&gt;Node18 -->
<g id="edge80" class="edge"><title>Node23&#45;&gt;Node18</title>
<path fill="none" stroke="midnightblue" d="M757.18,-434.497C777.352,-425.356 806.81,-412.008 829.364,-401.788"/>
<polygon fill="midnightblue" stroke="midnightblue" points="830.896,-404.937 838.56,-397.621 828.007,-398.561 830.896,-404.937"/>
</g>
<!-- Node24 -->
<g id="node65" class="node"><title>Node24</title>
<polygon fill="none" stroke="#bfbfbf" points="707,-376.5 707,-397.5 763,-397.5 763,-376.5 707,-376.5"/>
<text text-anchor="middle" x="735" y="-384.5" font-family="Helvetica,sans-Serif" font-size="10.00">wx/grid.h</text>
</g>
<!-- Node23&#45;&gt;Node24 -->
<g id="edge82" class="edge"><title>Node23&#45;&gt;Node24</title>
<path fill="none" stroke="midnightblue" d="M734.183,-434.362C734.312,-426.922 734.487,-416.743 734.643,-407.728"/>
<polygon fill="midnightblue" stroke="midnightblue" points="738.145,-407.63 734.818,-397.571 731.146,-407.509 738.145,-407.63"/>
</g>
<!-- Node25&#45;&gt;Node16 -->
<g id="edge88" class="edge"><title>Node25&#45;&gt;Node16</title>
<path fill="none" stroke="midnightblue" d="M1273.17,-260.308C1258.74,-245.22 1230.33,-217.768 1201,-202 1153.79,-176.625 1093.16,-161.756 1054.93,-154.248"/>
<polygon fill="midnightblue" stroke="midnightblue" points="1055.25,-150.745 1044.77,-152.323 1053.95,-157.623 1055.25,-150.745"/>
</g>
<!-- Node26&#45;&gt;Node4 -->
<g id="edge110" class="edge"><title>Node26&#45;&gt;Node4</title>
<path fill="none" stroke="midnightblue" d="M919.177,-498.386C828.824,-491.104 671.098,-475.723 654,-456 625.697,-423.352 664.07,-373.676 689.223,-347.166"/>
<polygon fill="midnightblue" stroke="midnightblue" points="692.014,-349.318 696.516,-339.727 687.016,-344.417 692.014,-349.318"/>
</g>
<!-- Node26&#45;&gt;Node7 -->
<g id="edge104" class="edge"><title>Node26&#45;&gt;Node7</title>
<path fill="none" stroke="midnightblue" d="M1016.65,-492.491C1042.3,-484.118 1077.71,-471.287 1107,-456 1253.63,-379.466 1482.58,-330.954 1379,-202 1333.16,-144.926 829.167,-96.7734 648.761,-81.2529"/>
<polygon fill="midnightblue" stroke="midnightblue" points="648.888,-77.7511 638.626,-80.3861 648.291,-84.7256 648.888,-77.7511"/>
</g>
<!-- Node26&#45;&gt;Node12 -->
<g id="edge106" class="edge"><title>Node26&#45;&gt;Node12</title>
<path fill="none" stroke="midnightblue" d="M919.348,-500.039C849.849,-495.464 734.987,-484.04 640,-456 581.647,-438.775 563.369,-436.182 516,-398 481.189,-369.94 491.676,-343.575 455,-318 410.373,-286.881 370.323,-325.764 338,-282 327.644,-267.978 332.914,-248.092 339.584,-233.267"/>
<polygon fill="midnightblue" stroke="midnightblue" points="342.903,-234.456 344.251,-223.947 336.644,-231.322 342.903,-234.456"/>
</g>
<!-- Node26&#45;&gt;Node16 -->
<g id="edge92" class="edge"><title>Node26&#45;&gt;Node16</title>
<path fill="none" stroke="midnightblue" d="M1026.31,-492.421C1047.13,-485.335 1070.68,-473.919 1086,-456 1106.67,-431.827 1105,-418.808 1105,-387 1105,-387 1105,-387 1105,-271 1105,-226.393 1066.39,-186.631 1040.61,-165.056"/>
<polygon fill="midnightblue" stroke="midnightblue" points="1042.74,-162.272 1032.76,-158.707 1038.33,-167.716 1042.74,-162.272"/>
</g>
<!-- Node26&#45;&gt;Node22 -->
<g id="edge108" class="edge"><title>Node26&#45;&gt;Node22</title>
<path fill="none" stroke="midnightblue" d="M1022.75,-492.497C1061.62,-482.475 1120.12,-467.396 1160.73,-456.927"/>
<polygon fill="midnightblue" stroke="midnightblue" points="1161.84,-460.256 1170.65,-454.371 1160.09,-453.478 1161.84,-460.256"/>
</g>
<!-- Node27 -->
<g id="node74" class="node"><title>Node27</title>
<a xlink:href="GUIRenderCutCanvas_8h.xhtml" target="_top" xlink:title="GUIRenderCutCanvas.h">
<polygon fill="none" stroke="black" points="861,-434.5 861,-455.5 985,-455.5 985,-434.5 861,-434.5"/>
<text text-anchor="middle" x="923" y="-442.5" font-family="Helvetica,sans-Serif" font-size="10.00">GUIRenderCutCanvas.h</text>
</a>
</g>
<!-- Node26&#45;&gt;Node27 -->
<g id="edge94" class="edge"><title>Node26&#45;&gt;Node27</title>
<path fill="none" stroke="midnightblue" d="M971.178,-492.362C962.779,-484.104 950.946,-472.472 941.11,-462.803"/>
<polygon fill="midnightblue" stroke="midnightblue" points="943.338,-460.085 933.753,-455.571 938.431,-465.077 943.338,-460.085"/>
</g>
<!-- Node29 -->
<g id="node85" class="node"><title>Node29</title>
<polygon fill="none" stroke="#bfbfbf" points="1003,-434.5 1003,-455.5 1077,-455.5 1077,-434.5 1003,-434.5"/>
<text text-anchor="middle" x="1040" y="-442.5" font-family="Helvetica,sans-Serif" font-size="10.00">wx/colordlg.h</text>
</g>
<!-- Node26&#45;&gt;Node29 -->
<g id="edge112" class="edge"><title>Node26&#45;&gt;Node29</title>
<path fill="none" stroke="midnightblue" d="M992.638,-492.362C1000.9,-484.104 1012.53,-472.472 1022.2,-462.803"/>
<polygon fill="midnightblue" stroke="midnightblue" points="1024.83,-465.117 1029.43,-455.571 1019.88,-460.167 1024.83,-465.117"/>
</g>
<!-- Node27&#45;&gt;Node16 -->
<g id="edge96" class="edge"><title>Node27&#45;&gt;Node16</title>
<path fill="none" stroke="midnightblue" d="M983.423,-434.484C1006.46,-427.642 1031.2,-416.407 1048,-398 1069.45,-374.509 1067,-360.808 1067,-329 1067,-329 1067,-329 1067,-271 1067,-232.009 1045.49,-190.686 1030.97,-167.241"/>
<polygon fill="midnightblue" stroke="midnightblue" points="1033.79,-165.15 1025.44,-158.621 1027.89,-168.928 1033.79,-165.15"/>
</g>
<!-- Node28 -->
<g id="node77" class="node"><title>Node28</title>
<a xlink:href="GUIColorScalePanel_8h.xhtml" target="_top" xlink:title="GUIColorScalePanel.h">
<polygon fill="none" stroke="black" points="923,-376.5 923,-397.5 1039,-397.5 1039,-376.5 923,-376.5"/>
<text text-anchor="middle" x="981" y="-384.5" font-family="Helvetica,sans-Serif" font-size="10.00">GUIColorScalePanel.h</text>
</a>
</g>
<!-- Node27&#45;&gt;Node28 -->
<g id="edge98" class="edge"><title>Node27&#45;&gt;Node28</title>
<path fill="none" stroke="midnightblue" d="M933.638,-434.362C941.896,-426.104 953.528,-414.472 963.197,-404.803"/>
<polygon fill="midnightblue" stroke="midnightblue" points="965.833,-407.117 970.429,-397.571 960.883,-402.167 965.833,-407.117"/>
</g>
<!-- Node28&#45;&gt;Node4 -->
<g id="edge100" class="edge"><title>Node28&#45;&gt;Node4</title>
<path fill="none" stroke="midnightblue" d="M931.562,-376.497C879.919,-365.525 799.743,-348.491 750.747,-338.082"/>
<polygon fill="midnightblue" stroke="midnightblue" points="751.295,-334.62 740.786,-335.966 749.84,-341.467 751.295,-334.62"/>
</g>
<!-- Node28&#45;&gt;Node16 -->
<g id="edge102" class="edge"><title>Node28&#45;&gt;Node16</title>
<path fill="none" stroke="midnightblue" d="M984.446,-376.28C987.369,-366.823 991.48,-352.619 994,-340 1006.29,-278.469 1013.42,-204.514 1016.38,-169.022"/>
<polygon fill="midnightblue" stroke="midnightblue" points="1019.88,-169.164 1017.2,-158.915 1012.9,-168.601 1019.88,-169.164"/>
</g>
<!-- Node32&#45;&gt;Node5 -->
<g id="edge130" class="edge"><title>Node32&#45;&gt;Node5</title>
<path fill="none" stroke="midnightblue" d="M184.451,-318.403C167.31,-311.091 148.002,-299.476 138,-282 118.981,-248.768 130.01,-203.244 140.435,-174.737"/>
<polygon fill="midnightblue" stroke="midnightblue" points="143.699,-176.001 144.047,-165.411 137.172,-173.472 143.699,-176.001"/>
</g>
<!-- Node32&#45;&gt;Node9 -->
<g id="edge132" class="edge"><title>Node32&#45;&gt;Node9</title>
<path fill="none" stroke="midnightblue" d="M253.494,-318.497C285.724,-308.959 333.434,-294.841 368.464,-284.475"/>
<polygon fill="midnightblue" stroke="midnightblue" points="369.844,-287.717 378.439,-281.523 367.857,-281.005 369.844,-287.717"/>
</g>
<!-- Node32&#45;&gt;Node12 -->
<g id="edge134" class="edge"><title>Node32&#45;&gt;Node12</title>
<path fill="none" stroke="midnightblue" d="M230.274,-318.295C253.335,-298.182 303.315,-254.59 331.193,-230.275"/>
<polygon fill="midnightblue" stroke="midnightblue" points="333.52,-232.89 338.756,-223.679 328.919,-227.615 333.52,-232.89"/>
</g>
<!-- Node33&#45;&gt;Node5 -->
<g id="edge138" class="edge"><title>Node33&#45;&gt;Node5</title>
<path fill="none" stroke="midnightblue" d="M349.908,-321.288C319.67,-314.654 281.029,-302.749 252,-282 212.151,-253.518 181.388,-204.365 165.046,-174.166"/>
<polygon fill="midnightblue" stroke="midnightblue" points="168.014,-172.29 160.253,-165.077 161.822,-175.555 168.014,-172.29"/>
</g>
<!-- Node33&#45;&gt;Node6 -->
<g id="edge142" class="edge"><title>Node33&#45;&gt;Node6</title>
<path fill="none" stroke="midnightblue" d="M422.762,-318.405C441.839,-309.765 468.498,-296.629 490,-282 542.945,-245.978 597.448,-193.432 624.524,-166.075"/>
<polygon fill="midnightblue" stroke="midnightblue" points="627.206,-168.338 631.713,-158.749 622.21,-163.435 627.206,-168.338"/>
</g>
<!-- Node33&#45;&gt;Node9 -->
<g id="edge140" class="edge"><title>Node33&#45;&gt;Node9</title>
<path fill="none" stroke="midnightblue" d="M400.935,-318.362C403.01,-310.84 405.857,-300.519 408.364,-291.431"/>
<polygon fill="midnightblue" stroke="midnightblue" points="411.799,-292.141 411.084,-281.571 405.051,-290.28 411.799,-292.141"/>
</g>
<!-- Node34&#45;&gt;Node16 -->
<g id="edge148" class="edge"><title>Node34&#45;&gt;Node16</title>
<path fill="none" stroke="midnightblue" d="M1301.97,-206.044C1241.84,-193.753 1117.29,-168.295 1055.06,-155.576"/>
<polygon fill="midnightblue" stroke="midnightblue" points="1055.41,-152.075 1044.92,-153.502 1054.01,-158.933 1055.41,-152.075"/>
</g>
<!-- Node35&#45;&gt;Node5 -->
<g id="edge152" class="edge"><title>Node35&#45;&gt;Node5</title>
<path fill="none" stroke="midnightblue" d="M79.729,-318.324C87.5041,-296.306 106.284,-244.371 125,-202 129.043,-192.847 133.826,-183.01 138.234,-174.273"/>
<polygon fill="midnightblue" stroke="midnightblue" points="141.381,-175.806 142.818,-165.309 135.149,-172.619 141.381,-175.806"/>
</g>
<!-- Node35&#45;&gt;Node9 -->
<g id="edge154" class="edge"><title>Node35&#45;&gt;Node9</title>
<path fill="none" stroke="midnightblue" d="M124.803,-319.499C127.575,-318.985 130.322,-318.482 133,-318 202.457,-305.491 281.781,-292.326 338.396,-283.122"/>
<polygon fill="midnightblue" stroke="midnightblue" points="339.032,-286.564 348.342,-281.507 337.91,-279.655 339.032,-286.564"/>
</g>
<!-- Node35&#45;&gt;Node12 -->
<g id="edge156" class="edge"><title>Node35&#45;&gt;Node12</title>
<path fill="none" stroke="midnightblue" d="M101.378,-318.295C151.929,-296.972 265.037,-249.261 319.931,-226.106"/>
<polygon fill="midnightblue" stroke="midnightblue" points="321.309,-229.323 329.163,-222.211 318.588,-222.873 321.309,-229.323"/>
</g>
</g>
</svg>
        <g id="navigator" transform="translate(0 0)" fill="#404254">
                <rect fill="#f2f5e9" fill-opacity="0.5" stroke="#606060" stroke-width=".5" x="0" y="0" width="60" height="60"/>
                <use id="zoomplus" xlink:href="#zoomPlus" x="17" y="9" onmousedown="handleZoom(evt,'in')"/>
                <use id="zoomminus" xlink:href="#zoomMin" x="42" y="9" onmousedown="handleZoom(evt,'out')"/>
                <use id="reset" xlink:href="#resetDef" x="30" y="36" onmousedown="handleReset()"/>
                <g id="arrowUp" xlink:href="#dirArrow" transform="translate(30 24)" onmousedown="handlePan(0,-1)">
                  <use xlink:href="#rim" fill="#404040">
                        <set attributeName="fill" to="#808080" begin="arrowUp.mouseover" end="arrowUp.mouseout"/>
                  </use>
                  <path fill="none" stroke="white" stroke-width="1.5" d="M0,-3.0v7 M-2.5,-0.5L0,-3.0L2.5,-0.5"/>
                </g>
                <g id="arrowRight" xlink:href="#dirArrow" transform="rotate(90) translate(36 -43)" onmousedown="handlePan(1,0)">
                  <use xlink:href="#rim" fill="#404040">
                        <set attributeName="fill" to="#808080" begin="arrowRight.mouseover" end="arrowRight.mouseout"/>
                  </use>
                  <path fill="none" stroke="white" stroke-width="1.5" d="M0,-3.0v7 M-2.5,-0.5L0,-3.0L2.5,-0.5"/>
                </g>
                <g id="arrowDown" xlink:href="#dirArrow" transform="rotate(180) translate(-30 -48)" onmousedown="handlePan(0,1)">
                  <use xlink:href="#rim" fill="#404040">
                        <set attributeName="fill" to="#808080" begin="arrowDown.mouseover" end="arrowDown.mouseout"/>
                  </use>
                  <path fill="none" stroke="white" stroke-width="1.5" d="M0,-3.0v7 M-2.5,-0.5L0,-3.0L2.5,-0.5"/>
                </g>
                <g id="arrowLeft" xlink:href="#dirArrow" transform="rotate(270) translate(-36 17)" onmousedown="handlePan(-1,0)">
                  <use xlink:href="#rim" fill="#404040">
                        <set attributeName="fill" to="#808080" begin="arrowLeft.mouseover" end="arrowLeft.mouseout"/>
                  </use>
                  <path fill="none" stroke="white" stroke-width="1.5" d="M0,-3.0v7 M-2.5,-0.5L0,-3.0L2.5,-0.5"/>
                </g>
        </g>
        <svg viewBox="0 0 15 15" width="100%" height="30px" preserveAspectRatio="xMaxYMin meet">
         <g id="arrow_out" transform="scale(0.3 0.3)">
          <a xlink:href="GUIMainWindow_8cpp__incl_org.svg" target="_base">
           <rect id="button" ry="5" rx="5" y="6" x="6" height="38" width="38"
                fill="#f2f5e9" fill-opacity="0.5" stroke="#606060" stroke-width="1.0"/>
           <path id="arrow"
             d="M 11.500037,31.436501 C 11.940474,20.09759 22.043105,11.32322 32.158766,21.979434 L 37.068811,17.246167 C 37.068811,17.246167 37.088388,32 37.088388,32 L 22.160133,31.978069 C 22.160133,31.978069 26.997745,27.140456 26.997745,27.140456 C 18.528582,18.264221 13.291696,25.230495 11.500037,31.436501 z"
             style="fill:#404040;"/>
          </a>
         </g>
        </svg>
</svg>
