<?xml version="1.0" encoding="UTF-8" standalone="no"?>
<!DOCTYPE svg PUBLIC "-//W3C//DTD SVG 1.1//EN"
 "http://www.w3.org/Graphics/SVG/1.1/DTD/svg11.dtd">
<!-- Generated by graphviz version 2.26.3 (20100126.1600)
 -->
<!-- Title: /daten/Projekte/eclipse_workspace/simpleanalyzer&#45;gui/src/GUI/GUIMainWindow.h Pages: 1 -->
<svg width="992pt" height="140pt"
 viewBox="0.00 0.00 992.00 140.00" xmlns="http://www.w3.org/2000/svg" xmlns:xlink="http://www.w3.org/1999/xlink">
<g id="graph1" class="graph" transform="scale(1 1) rotate(0) translate(4 136)">
<title>/daten/Projekte/eclipse_workspace/simpleanalyzer&#45;gui/src/GUI/GUIMainWindow.h</title>
<!-- Node1 -->
<g id="node1" class="node"><title>Node1</title>
<polygon fill="#bfbfbf" stroke="black" points="441.5,-84.5 441.5,-131.5 596.5,-131.5 596.5,-84.5 441.5,-84.5"/>
<text text-anchor="start" x="449.5" y="-118.5" font-family="Helvetica,sans-Serif" font-size="10.00">/daten/Projekte/eclipse</text>
<text text-anchor="start" x="449.5" y="-105.5" font-family="Helvetica,sans-Serif" font-size="10.00">_workspace/simpleanalyzer</text>
<text text-anchor="middle" x="519" y="-92.5" font-family="Helvetica,sans-Serif" font-size="10.00">&#45;gui/src/GUI/GUIMainWindow.h</text>
</g>
<!-- Node2 -->
<g id="node3" class="node"><title>Node2</title>
<a xlink:href="GUIAnalyzeOutputWindow_8cpp.xhtml" target="_top" xlink:title="/daten/Projekte/eclipse\l_workspace/simpleanalyzer\l&#45;gui/src/GUI/GUIAnalyzeOutputWindow.cpp">
<polygon fill="none" stroke="black" points="-0.5,-0.5 -0.5,-47.5 208.5,-47.5 208.5,-0.5 -0.5,-0.5"/>
<text text-anchor="start" x="7.5" y="-34.5" font-family="Helvetica,sans-Serif" font-size="10.00">/daten/Projekte/eclipse</text>
<text text-anchor="start" x="7.5" y="-21.5" font-family="Helvetica,sans-Serif" font-size="10.00">_workspace/simpleanalyzer</text>
<text text-anchor="middle" x="104" y="-8.5" font-family="Helvetica,sans-Serif" font-size="10.00">&#45;gui/src/GUI/GUIAnalyzeOutputWindow.cpp</text>
</a>
</g>
<!-- Node1&#45;&gt;Node2 -->
<g id="edge2" class="edge"><title>Node1&#45;&gt;Node2</title>
<path fill="none" stroke="midnightblue" d="M431.489,-90.9296C371.165,-79.085 289.168,-62.8321 217,-48 214.25,-47.4347 211.462,-46.8595 208.65,-46.2772"/>
<polygon fill="midnightblue" stroke="midnightblue" points="430.87,-94.3748 441.357,-92.8658 432.218,-87.5058 430.87,-94.3748"/>
</g>
<!-- Node3 -->
<g id="node5" class="node"><title>Node3</title>
<a xlink:href="GUICutRenderWindow_8cpp.xhtml" target="_top" xlink:title="/daten/Projekte/eclipse\l_workspace/simpleanalyzer\l&#45;gui/src/GUI/GUICutRenderWindow.cpp">
<polygon fill="none" stroke="black" points="226,-0.5 226,-47.5 418,-47.5 418,-0.5 226,-0.5"/>
<text text-anchor="start" x="234" y="-34.5" font-family="Helvetica,sans-Serif" font-size="10.00">/daten/Projekte/eclipse</text>
<text text-anchor="start" x="234" y="-21.5" font-family="Helvetica,sans-Serif" font-size="10.00">_workspace/simpleanalyzer</text>
<text text-anchor="middle" x="322" y="-8.5" font-family="Helvetica,sans-Serif" font-size="10.00">&#45;gui/src/GUI/GUICutRenderWindow.cpp</text>
</a>
</g>
<!-- Node1&#45;&gt;Node3 -->
<g id="edge4" class="edge"><title>Node1&#45;&gt;Node3</title>
<path fill="none" stroke="midnightblue" d="M454.461,-80.481C429.465,-69.8228 401.145,-57.7469 377.124,-47.5047"/>
<polygon fill="midnightblue" stroke="midnightblue" points="453.291,-83.7868 463.863,-84.4896 456.037,-77.3477 453.291,-83.7868"/>
</g>
<!-- Node4 -->
<g id="node7" class="node"><title>Node4</title>
<a xlink:href="GUIMainWindow_8cpp.xhtml" target="_top" xlink:title="/daten/Projekte/eclipse\l_workspace/simpleanalyzer\l&#45;gui/src/GUI/GUIMainWindow.cpp">
<polygon fill="none" stroke="black" points="436,-0.5 436,-47.5 602,-47.5 602,-0.5 436,-0.5"/>
<text text-anchor="start" x="444" y="-34.5" font-family="Helvetica,sans-Serif" font-size="10.00">/daten/Projekte/eclipse</text>
<text text-anchor="start" x="444" y="-21.5" font-family="Helvetica,sans-Serif" font-size="10.00">_workspace/simpleanalyzer</text>
<text text-anchor="middle" x="519" y="-8.5" font-family="Helvetica,sans-Serif" font-size="10.00">&#45;gui/src/GUI/GUIMainWindow.cpp</text>
</a>
</g>
<!-- Node1&#45;&gt;Node4 -->
<g id="edge6" class="edge"><title>Node1&#45;&gt;Node4</title>
<path fill="none" stroke="midnightblue" d="M519,-74.0664C519,-65.1933 519,-55.821 519,-47.6152"/>
<polygon fill="midnightblue" stroke="midnightblue" points="515.5,-74.1536 519,-84.1537 522.5,-74.1537 515.5,-74.1536"/>
</g>
<!-- Node5 -->
<g id="node9" class="node"><title>Node5</title>
<a xlink:href="GUIRenderCutCanvas_8cpp.xhtml" target="_top" xlink:title="/daten/Projekte/eclipse\l_workspace/simpleanalyzer\l&#45;gui/src/GUI/GUIRenderCutCanvas.cpp">
<polygon fill="none" stroke="black" points="619.5,-0.5 619.5,-47.5 810.5,-47.5 810.5,-0.5 619.5,-0.5"/>
<text text-anchor="start" x="627.5" y="-34.5" font-family="Helvetica,sans-Serif" font-size="10.00">/daten/Projekte/eclipse</text>
<text text-anchor="start" x="627.5" y="-21.5" font-family="Helvetica,sans-Serif" font-size="10.00">_workspace/simpleanalyzer</text>
<text text-anchor="middle" x="715" y="-8.5" font-family="Helvetica,sans-Serif" font-size="10.00">&#45;gui/src/GUI/GUIRenderCutCanvas.cpp</text>
</a>
</g>
<!-- Node1&#45;&gt;Node5 -->
<g id="edge8" class="edge"><title>Node1&#45;&gt;Node5</title>
<path fill="none" stroke="midnightblue" d="M583.211,-80.481C608.08,-69.8228 636.257,-57.7469 660.156,-47.5047"/>
<polygon fill="midnightblue" stroke="midnightblue" points="581.67,-77.3334 573.858,-84.4896 584.428,-83.7674 581.67,-77.3334"/>
</g>
<!-- Node6 -->
<g id="node11" class="node"><title>Node6</title>
<a xlink:href="SimpleAnalyzerApp_8cpp.xhtml" target="_top" xlink:title="/daten/Projekte/eclipse\l_workspace/simpleanalyzer\l&#45;gui/src/SimpleAnalyzerApp.cpp">
<polygon fill="none" stroke="black" points="828,-0.5 828,-47.5 984,-47.5 984,-0.5 828,-0.5"/>
<text text-anchor="start" x="836" y="-34.5" font-family="Helvetica,sans-Serif" font-size="10.00">/daten/Projekte/eclipse</text>
<text text-anchor="start" x="836" y="-21.5" font-family="Helvetica,sans-Serif" font-size="10.00">_workspace/simpleanalyzer</text>
<text text-anchor="middle" x="906" y="-8.5" font-family="Helvetica,sans-Serif" font-size="10.00">&#45;gui/src/SimpleAnalyzerApp.cpp</text>
</a>
</g>
<!-- Node1&#45;&gt;Node6 -->
<g id="edge10" class="edge"><title>Node1&#45;&gt;Node6</title>
<path fill="none" stroke="midnightblue" d="M606.911,-92.1387C666.902,-80.8941 748.045,-64.8594 819,-48 821.896,-47.3118 824.842,-46.5936 827.814,-45.8535"/>
<polygon fill="midnightblue" stroke="midnightblue" points="605.905,-88.7659 596.717,-94.0414 607.19,-95.647 605.905,-88.7659"/>
</g>
</g>
</svg>
