<?xml version="1.0" encoding="UTF-8" standalone="no"?>
<!DOCTYPE svg PUBLIC "-//W3C//DTD SVG 1.1//EN"
 "http://www.w3.org/Graphics/SVG/1.1/DTD/svg11.dtd">
<!-- Generated by graphviz version 2.26.3 (20100126.1600)
 -->
<!-- Title: /daten/Projekte/eclipse_workspace/simpleanalyzer&#45;gui/src/GUI/GUIRenderCutCanvas.h Pages: 1 -->
<!--zoomable 308 -->
<svg id="main" version="1.1" xmlns="http://www.w3.org/2000/svg" xmlns:xlink="http://www.w3.org/1999/xlink" xml:space="preserve" onload="init(evt)">
<style type="text/css"><![CDATA[
.edge:hover path { stroke: red; }
.edge:hover polygon { stroke: red; fill: red; }
]]></style>
<script type="text/javascript"><![CDATA[
var edges = document.getElementsByTagName('g');
if (edges && edges.length) {
  for (var i=0;i<edges.length;i++) {
    if (edges[i].id.substr(0,4)=='edge') {
      edges[i].setAttribute('class','edge');
    }
  }
}
]]></script>
        <defs>
                <circle id="rim" cx="0" cy="0" r="7"/>
                <circle id="rim2" cx="0" cy="0" r="3.5"/>
                <g id="zoomPlus">
                        <use xlink:href="#rim" fill="#404040">
                                <set attributeName="fill" to="#808080" begin="zoomplus.mouseover" end="zoomplus.mouseout"/>
                        </use>
                        <path d="M-4,0h8M0,-4v8" fill="none" stroke="white" stroke-width="1.5" pointer-events="none"/>
                </g>
                <g id="zoomMin">
                        <use xlink:href="#rim" fill="#404040">
                                <set attributeName="fill" to="#808080" begin="zoomminus.mouseover" end="zoomminus.mouseout"/>
                        </use>
                        <path d="M-4,0h8" fill="none" stroke="white" stroke-width="1.5" pointer-events="none"/>
                </g>
                <g id="dirArrow">
                        <path fill="none" stroke="white" stroke-width="1.5" d="M0,-3.0v7 M-2.5,-0.5L0,-3.0L2.5,-0.5"/>
                </g>
               <g id="resetDef">
                       <use xlink:href="#rim2" fill="#404040">
                               <set attributeName="fill" to="#808080" begin="reset.mouseover" end="reset.mouseout"/>
                       </use>
               </g>
        </defs>

<script type="text/javascript">
var viewWidth = 992;
var viewHeight = 308;
var sectionId = 'dynsection-1';
</script>
<script xlink:href="svgpan.js"/>
<svg id="graph" class="graph">
<g id="viewport">
<title>/daten/Projekte/eclipse_workspace/simpleanalyzer&#45;gui/src/GUI/GUIRenderCutCanvas.h</title>
<!-- Node1 -->
<g id="node1" class="node"><title>Node1</title>
<polygon fill="#bfbfbf" stroke="black" points="691,-252.5 691,-299.5 871,-299.5 871,-252.5 691,-252.5"/>
<text text-anchor="start" x="699" y="-286.5" font-family="Helvetica,sans-Serif" font-size="10.00">/daten/Projekte/eclipse</text>
<text text-anchor="start" x="699" y="-273.5" font-family="Helvetica,sans-Serif" font-size="10.00">_workspace/simpleanalyzer</text>
<text text-anchor="middle" x="781" y="-260.5" font-family="Helvetica,sans-Serif" font-size="10.00">&#45;gui/src/GUI/GUIRenderCutCanvas.h</text>
</g>
<!-- Node2 -->
<g id="node3" class="node"><title>Node2</title>
<a xlink:href="GUICutRenderWindow_8h.xhtml" target="_top" xlink:title="/daten/Projekte/eclipse\l_workspace/simpleanalyzer\l&#45;gui/src/GUI/GUICutRenderWindow.h">
<polygon fill="none" stroke="black" points="534,-168.5 534,-215.5 716,-215.5 716,-168.5 534,-168.5"/>
<text text-anchor="start" x="542" y="-202.5" font-family="Helvetica,sans-Serif" font-size="10.00">/daten/Projekte/eclipse</text>
<text text-anchor="start" x="542" y="-189.5" font-family="Helvetica,sans-Serif" font-size="10.00">_workspace/simpleanalyzer</text>
<text text-anchor="middle" x="625" y="-176.5" font-family="Helvetica,sans-Serif" font-size="10.00">&#45;gui/src/GUI/GUICutRenderWindow.h</text>
</a>
</g>
<!-- Node1&#45;&gt;Node2 -->
<g id="edge2" class="edge"><title>Node1&#45;&gt;Node2</title>
<path fill="none" stroke="midnightblue" d="M728.153,-247.544C708.849,-237.149 687.242,-225.515 668.811,-215.59"/>
<polygon fill="midnightblue" stroke="midnightblue" points="726.666,-250.718 737.13,-252.378 729.985,-244.555 726.666,-250.718"/>
</g>
<!-- Node7 -->
<g id="node13" class="node"><title>Node7</title>
<a xlink:href="GUIRenderCutCanvas_8cpp.xhtml" target="_top" xlink:title="/daten/Projekte/eclipse\l_workspace/simpleanalyzer\l&#45;gui/src/GUI/GUIRenderCutCanvas.cpp">
<polygon fill="none" stroke="black" points="793.5,-0.5 793.5,-47.5 984.5,-47.5 984.5,-0.5 793.5,-0.5"/>
<text text-anchor="start" x="801.5" y="-34.5" font-family="Helvetica,sans-Serif" font-size="10.00">/daten/Projekte/eclipse</text>
<text text-anchor="start" x="801.5" y="-21.5" font-family="Helvetica,sans-Serif" font-size="10.00">_workspace/simpleanalyzer</text>
<text text-anchor="middle" x="889" y="-8.5" font-family="Helvetica,sans-Serif" font-size="10.00">&#45;gui/src/GUI/GUIRenderCutCanvas.cpp</text>
</a>
</g>
<!-- Node1&#45;&gt;Node7 -->
<g id="edge20" class="edge"><title>Node1&#45;&gt;Node7</title>
<path fill="none" stroke="midnightblue" d="M795.172,-242.932C817.271,-191.369 859.41,-93.0438 878.788,-47.8281"/>
<polygon fill="midnightblue" stroke="midnightblue" points="791.883,-241.722 791.16,-252.292 798.317,-244.48 791.883,-241.722"/>
</g>
<!-- Node3 -->
<g id="node5" class="node"><title>Node3</title>
<a xlink:href="GUIMainWindow_8h.xhtml" target="_top" xlink:title="/daten/Projekte/eclipse\l_workspace/simpleanalyzer\l&#45;gui/src/GUI/GUIMainWindow.h">
<polygon fill="none" stroke="black" points="469.5,-84.5 469.5,-131.5 624.5,-131.5 624.5,-84.5 469.5,-84.5"/>
<text text-anchor="start" x="477.5" y="-118.5" font-family="Helvetica,sans-Serif" font-size="10.00">/daten/Projekte/eclipse</text>
<text text-anchor="start" x="477.5" y="-105.5" font-family="Helvetica,sans-Serif" font-size="10.00">_workspace/simpleanalyzer</text>
<text text-anchor="middle" x="547" y="-92.5" font-family="Helvetica,sans-Serif" font-size="10.00">&#45;gui/src/GUI/GUIMainWindow.h</text>
</a>
</g>
<!-- Node2&#45;&gt;Node3 -->
<g id="edge4" class="edge"><title>Node2&#45;&gt;Node3</title>
<path fill="none" stroke="midnightblue" d="M595.894,-160.655C586.964,-151.038 577.293,-140.624 568.928,-131.615"/>
<polygon fill="midnightblue" stroke="midnightblue" points="593.488,-163.207 602.857,-168.154 598.617,-158.444 593.488,-163.207"/>
</g>
<!-- Node5 -->
<g id="node9" class="node"><title>Node5</title>
<a xlink:href="GUICutRenderWindow_8cpp.xhtml" target="_top" xlink:title="/daten/Projekte/eclipse\l_workspace/simpleanalyzer\l&#45;gui/src/GUI/GUICutRenderWindow.cpp">
<polygon fill="none" stroke="black" points="0,-0.5 0,-47.5 192,-47.5 192,-0.5 0,-0.5"/>
<text text-anchor="start" x="8" y="-34.5" font-family="Helvetica,sans-Serif" font-size="10.00">/daten/Projekte/eclipse</text>
<text text-anchor="start" x="8" y="-21.5" font-family="Helvetica,sans-Serif" font-size="10.00">_workspace/simpleanalyzer</text>
<text text-anchor="middle" x="96" y="-8.5" font-family="Helvetica,sans-Serif" font-size="10.00">&#45;gui/src/GUI/GUICutRenderWindow.cpp</text>
</a>
</g>
<!-- Node2&#45;&gt;Node5 -->
<g id="edge16" class="edge"><title>Node2&#45;&gt;Node5</title>
<path fill="none" stroke="midnightblue" d="M541.212,-165.391C438.956,-132.916 267.651,-78.513 170.036,-47.5125"/>
<polygon fill="midnightblue" stroke="midnightblue" points="540.297,-168.772 550.888,-168.463 542.416,-162.101 540.297,-168.772"/>
</g>
<!-- Node2&#45;&gt;Node7 -->
<g id="edge18" class="edge"><title>Node2&#45;&gt;Node7</title>
<path fill="none" stroke="midnightblue" d="M670.565,-163.004C721.871,-130.355 804.265,-77.9222 851.839,-47.6481"/>
<polygon fill="midnightblue" stroke="midnightblue" points="668.544,-160.142 661.986,-168.463 672.302,-166.047 668.544,-160.142"/>
</g>
<!-- Node4 -->
<g id="node7" class="node"><title>Node4</title>
<a xlink:href="GUIAnalyzeOutputWindow_8cpp.xhtml" target="_top" xlink:title="/daten/Projekte/eclipse\l_workspace/simpleanalyzer\l&#45;gui/src/GUI/GUIAnalyzeOutputWindow.cpp">
<polygon fill="none" stroke="black" points="209.5,-0.5 209.5,-47.5 418.5,-47.5 418.5,-0.5 209.5,-0.5"/>
<text text-anchor="start" x="217.5" y="-34.5" font-family="Helvetica,sans-Serif" font-size="10.00">/daten/Projekte/eclipse</text>
<text text-anchor="start" x="217.5" y="-21.5" font-family="Helvetica,sans-Serif" font-size="10.00">_workspace/simpleanalyzer</text>
<text text-anchor="middle" x="314" y="-8.5" font-family="Helvetica,sans-Serif" font-size="10.00">&#45;gui/src/GUI/GUIAnalyzeOutputWindow.cpp</text>
</a>
</g>
<!-- Node3&#45;&gt;Node4 -->
<g id="edge6" class="edge"><title>Node3&#45;&gt;Node4</title>
<path fill="none" stroke="midnightblue" d="M472.227,-81.0431C442.286,-70.2489 408.108,-57.9274 379.198,-47.5047"/>
<polygon fill="midnightblue" stroke="midnightblue" points="471.192,-84.3906 481.787,-84.4896 473.566,-77.8055 471.192,-84.3906"/>
</g>
<!-- Node3&#45;&gt;Node5 -->
<g id="edge8" class="edge"><title>Node3&#45;&gt;Node5</title>
<path fill="none" stroke="midnightblue" d="M459.369,-94.1217C389.28,-82.7046 288.592,-65.5924 201,-48 198.067,-47.4109 195.09,-46.8016 192.086,-46.1771"/>
<polygon fill="midnightblue" stroke="midnightblue" points="459.051,-97.6159 469.483,-95.7643 460.173,-90.7064 459.051,-97.6159"/>
</g>
<!-- Node6 -->
<g id="node11" class="node"><title>Node6</title>
<a xlink:href="GUIMainWindow_8cpp.xhtml" target="_top" xlink:title="/daten/Projekte/eclipse\l_workspace/simpleanalyzer\l&#45;gui/src/GUI/GUIMainWindow.cpp">
<polygon fill="none" stroke="black" points="436,-0.5 436,-47.5 602,-47.5 602,-0.5 436,-0.5"/>
<text text-anchor="start" x="444" y="-34.5" font-family="Helvetica,sans-Serif" font-size="10.00">/daten/Projekte/eclipse</text>
<text text-anchor="start" x="444" y="-21.5" font-family="Helvetica,sans-Serif" font-size="10.00">_workspace/simpleanalyzer</text>
<text text-anchor="middle" x="519" y="-8.5" font-family="Helvetica,sans-Serif" font-size="10.00">&#45;gui/src/GUI/GUIMainWindow.cpp</text>
</a>
</g>
<!-- Node3&#45;&gt;Node6 -->
<g id="edge10" class="edge"><title>Node3&#45;&gt;Node6</title>
<path fill="none" stroke="midnightblue" d="M535.881,-74.6444C532.867,-65.6013 529.666,-55.9994 526.872,-47.6152"/>
<polygon fill="midnightblue" stroke="midnightblue" points="532.568,-75.7736 539.051,-84.1537 539.209,-73.56 532.568,-75.7736"/>
</g>
<!-- Node3&#45;&gt;Node7 -->
<g id="edge12" class="edge"><title>Node3&#45;&gt;Node7</title>
<path fill="none" stroke="midnightblue" d="M634.469,-86.5164C683.051,-74.584 743.557,-59.7228 793.386,-47.4842"/>
<polygon fill="midnightblue" stroke="midnightblue" points="633.482,-83.1548 624.605,-88.9391 635.151,-89.9528 633.482,-83.1548"/>
</g>
<!-- Node8 -->
<g id="node15" class="node"><title>Node8</title>
<a xlink:href="SimpleAnalyzerApp_8cpp.xhtml" target="_top" xlink:title="/daten/Projekte/eclipse\l_workspace/simpleanalyzer\l&#45;gui/src/SimpleAnalyzerApp.cpp">
<polygon fill="none" stroke="black" points="620,-0.5 620,-47.5 776,-47.5 776,-0.5 620,-0.5"/>
<text text-anchor="start" x="628" y="-34.5" font-family="Helvetica,sans-Serif" font-size="10.00">/daten/Projekte/eclipse</text>
<text text-anchor="start" x="628" y="-21.5" font-family="Helvetica,sans-Serif" font-size="10.00">_workspace/simpleanalyzer</text>
<text text-anchor="middle" x="698" y="-8.5" font-family="Helvetica,sans-Serif" font-size="10.00">&#45;gui/src/SimpleAnalyzerApp.cpp</text>
</a>
</g>
<!-- Node3&#45;&gt;Node8 -->
<g id="edge14" class="edge"><title>Node3&#45;&gt;Node8</title>
<path fill="none" stroke="midnightblue" d="M598.407,-79.4029C617.028,-69.044 637.834,-57.47 655.594,-47.5903"/>
<polygon fill="midnightblue" stroke="midnightblue" points="596.501,-76.4578 589.464,-84.3778 599.904,-82.575 596.501,-76.4578"/>
</g>
</g>
</svg>
        <g id="navigator" transform="translate(0 0)" fill="#404254">
                <rect fill="#f2f5e9" fill-opacity="0.5" stroke="#606060" stroke-width=".5" x="0" y="0" width="60" height="60"/>
                <use id="zoomplus" xlink:href="#zoomPlus" x="17" y="9" onmousedown="handleZoom(evt,'in')"/>
                <use id="zoomminus" xlink:href="#zoomMin" x="42" y="9" onmousedown="handleZoom(evt,'out')"/>
                <use id="reset" xlink:href="#resetDef" x="30" y="36" onmousedown="handleReset()"/>
                <g id="arrowUp" xlink:href="#dirArrow" transform="translate(30 24)" onmousedown="handlePan(0,-1)">
                  <use xlink:href="#rim" fill="#404040">
                        <set attributeName="fill" to="#808080" begin="arrowUp.mouseover" end="arrowUp.mouseout"/>
                  </use>
                  <path fill="none" stroke="white" stroke-width="1.5" d="M0,-3.0v7 M-2.5,-0.5L0,-3.0L2.5,-0.5"/>
                </g>
                <g id="arrowRight" xlink:href="#dirArrow" transform="rotate(90) translate(36 -43)" onmousedown="handlePan(1,0)">
                  <use xlink:href="#rim" fill="#404040">
                        <set attributeName="fill" to="#808080" begin="arrowRight.mouseover" end="arrowRight.mouseout"/>
                  </use>
                  <path fill="none" stroke="white" stroke-width="1.5" d="M0,-3.0v7 M-2.5,-0.5L0,-3.0L2.5,-0.5"/>
                </g>
                <g id="arrowDown" xlink:href="#dirArrow" transform="rotate(180) translate(-30 -48)" onmousedown="handlePan(0,1)">
                  <use xlink:href="#rim" fill="#404040">
                        <set attributeName="fill" to="#808080" begin="arrowDown.mouseover" end="arrowDown.mouseout"/>
                  </use>
                  <path fill="none" stroke="white" stroke-width="1.5" d="M0,-3.0v7 M-2.5,-0.5L0,-3.0L2.5,-0.5"/>
                </g>
                <g id="arrowLeft" xlink:href="#dirArrow" transform="rotate(270) translate(-36 17)" onmousedown="handlePan(-1,0)">
                  <use xlink:href="#rim" fill="#404040">
                        <set attributeName="fill" to="#808080" begin="arrowLeft.mouseover" end="arrowLeft.mouseout"/>
                  </use>
                  <path fill="none" stroke="white" stroke-width="1.5" d="M0,-3.0v7 M-2.5,-0.5L0,-3.0L2.5,-0.5"/>
                </g>
        </g>
        <svg viewBox="0 0 15 15" width="100%" height="30px" preserveAspectRatio="xMaxYMin meet">
         <g id="arrow_out" transform="scale(0.3 0.3)">
          <a xlink:href="GUIRenderCutCanvas_8h__dep__incl_org.svg" target="_base">
           <rect id="button" ry="5" rx="5" y="6" x="6" height="38" width="38"
                fill="#f2f5e9" fill-opacity="0.5" stroke="#606060" stroke-width="1.0"/>
           <path id="arrow"
             d="M 11.500037,31.436501 C 11.940474,20.09759 22.043105,11.32322 32.158766,21.979434 L 37.068811,17.246167 C 37.068811,17.246167 37.088388,32 37.088388,32 L 22.160133,31.978069 C 22.160133,31.978069 26.997745,27.140456 26.997745,27.140456 C 18.528582,18.264221 13.291696,25.230495 11.500037,31.436501 z"
             style="fill:#404040;"/>
          </a>
         </g>
        </svg>
</svg>
