<?xml version="1.0" encoding="UTF-8" standalone="no"?>
<!DOCTYPE svg PUBLIC "-//W3C//DTD SVG 1.1//EN"
 "http://www.w3.org/Graphics/SVG/1.1/DTD/svg11.dtd">
<!-- Generated by graphviz version 2.26.3 (20100126.1600)
 -->
<!-- Title: simpleanalyzer&#45;gui/src/GUI/GUIRenderCutCanvas.cpp Pages: 1 -->
<!--zoomable 652 -->
<svg id="main" version="1.1" xmlns="http://www.w3.org/2000/svg" xmlns:xlink="http://www.w3.org/1999/xlink" xml:space="preserve" onload="init(evt)">
<style type="text/css"><![CDATA[
.edge:hover path { stroke: red; }
.edge:hover polygon { stroke: red; fill: red; }
]]></style>
<script type="text/javascript"><![CDATA[
var edges = document.getElementsByTagName('g');
if (edges && edges.length) {
  for (var i=0;i<edges.length;i++) {
    if (edges[i].id.substr(0,4)=='edge') {
      edges[i].setAttribute('class','edge');
    }
  }
}
]]></script>
        <defs>
                <circle id="rim" cx="0" cy="0" r="7"/>
                <circle id="rim2" cx="0" cy="0" r="3.5"/>
                <g id="zoomPlus">
                        <use xlink:href="#rim" fill="#404040">
                                <set attributeName="fill" to="#808080" begin="zoomplus.mouseover" end="zoomplus.mouseout"/>
                        </use>
                        <path d="M-4,0h8M0,-4v8" fill="none" stroke="white" stroke-width="1.5" pointer-events="none"/>
                </g>
                <g id="zoomMin">
                        <use xlink:href="#rim" fill="#404040">
                                <set attributeName="fill" to="#808080" begin="zoomminus.mouseover" end="zoomminus.mouseout"/>
                        </use>
                        <path d="M-4,0h8" fill="none" stroke="white" stroke-width="1.5" pointer-events="none"/>
                </g>
                <g id="dirArrow">
                        <path fill="none" stroke="white" stroke-width="1.5" d="M0,-3.0v7 M-2.5,-0.5L0,-3.0L2.5,-0.5"/>
                </g>
               <g id="resetDef">
                       <use xlink:href="#rim2" fill="#404040">
                               <set attributeName="fill" to="#808080" begin="reset.mouseover" end="reset.mouseout"/>
                       </use>
               </g>
        </defs>

<script type="text/javascript">
var viewWidth = 1357;
var viewHeight = 652;
var sectionId = 'dynsection-0';
</script>
<script xlink:href="svgpan.js"/>
<svg id="graph" class="graph">
<g id="viewport">
<title>simpleanalyzer&#45;gui/src/GUI/GUIRenderCutCanvas.cpp</title>
<!-- Node1 -->
<g id="node1" class="node"><title>Node1</title>
<polygon fill="#bfbfbf" stroke="black" points="452.862,-609 452.862,-643 627.862,-643 627.862,-609 452.862,-609"/>
<text text-anchor="start" x="460.862" y="-630" font-family="Helvetica,sans-Serif" font-size="10.00">simpleanalyzer&#45;gui</text>
<text text-anchor="middle" x="540.362" y="-617" font-family="Helvetica,sans-Serif" font-size="10.00">/src/GUI/GUIRenderCutCanvas.cpp</text>
</g>
<!-- Node2 -->
<g id="node3" class="node"><title>Node2</title>
<a xlink:href="GUIRenderCutCanvas_8h.xhtml" target="_top" xlink:title="GUIRenderCutCanvas.h">
<polygon fill="none" stroke="black" points="600.362,-434.5 600.362,-455.5 724.362,-455.5 724.362,-434.5 600.362,-434.5"/>
<text text-anchor="middle" x="662.362" y="-442.5" font-family="Helvetica,sans-Serif" font-size="10.00">GUIRenderCutCanvas.h</text>
</a>
</g>
<!-- Node1&#45;&gt;Node2 -->
<g id="edge2" class="edge"><title>Node1&#45;&gt;Node2</title>
<path fill="none" stroke="midnightblue" d="M556.469,-608.606C565.672,-598.308 577.172,-584.808 586.362,-572 612.415,-535.693 638.145,-490.103 651.967,-464.6"/>
<polygon fill="midnightblue" stroke="midnightblue" points="655.167,-466.04 656.815,-455.574 649,-462.728 655.167,-466.04"/>
</g>
<!-- Node5 -->
<g id="node9" class="node"><title>Node5</title>
<a xlink:href="Renderer_8h.xhtml" target="_top" xlink:title="Renderer.h">
<polygon fill="none" stroke="black" points="412.862,-318.5 412.862,-339.5 477.862,-339.5 477.862,-318.5 412.862,-318.5"/>
<text text-anchor="middle" x="445.362" y="-326.5" font-family="Helvetica,sans-Serif" font-size="10.00">Renderer.h</text>
</a>
</g>
<!-- Node1&#45;&gt;Node5 -->
<g id="edge128" class="edge"><title>Node1&#45;&gt;Node5</title>
<path fill="none" stroke="midnightblue" d="M508.147,-608.952C476.806,-590.338 431.116,-557.311 411.362,-514 385.905,-458.184 395.719,-434.447 414.362,-376 417.591,-365.878 423.666,-355.88 429.588,-347.723"/>
<polygon fill="midnightblue" stroke="midnightblue" points="432.462,-349.729 435.813,-339.678 426.925,-345.445 432.462,-349.729"/>
</g>
<!-- Node7 -->
<g id="node13" class="node"><title>Node7</title>
<polygon fill="none" stroke="#bfbfbf" points="490.362,-137.5 490.362,-158.5 534.362,-158.5 534.362,-137.5 490.362,-137.5"/>
<text text-anchor="middle" x="512.362" y="-145.5" font-family="Helvetica,sans-Serif" font-size="10.00">vector</text>
</g>
<!-- Node1&#45;&gt;Node7 -->
<g id="edge72" class="edge"><title>Node1&#45;&gt;Node7</title>
<path fill="none" stroke="midnightblue" d="M547.784,-608.849C557.237,-585.408 572.362,-541.834 572.362,-503 572.362,-503 572.362,-503 572.362,-445 572.362,-339.098 535.257,-216.087 519.405,-168.368"/>
<polygon fill="midnightblue" stroke="midnightblue" points="522.632,-166.984 516.115,-158.631 516.001,-169.225 522.632,-166.984"/>
</g>
<!-- Node9 -->
<g id="node17" class="node"><title>Node9</title>
<polygon fill="none" stroke="#bfbfbf" points="261.362,-0.5 261.362,-21.5 315.362,-21.5 315.362,-0.5 261.362,-0.5"/>
<text text-anchor="middle" x="288.362" y="-8.5" font-family="Helvetica,sans-Serif" font-size="10.00">iostream</text>
</g>
<!-- Node1&#45;&gt;Node9 -->
<g id="edge130" class="edge"><title>Node1&#45;&gt;Node9</title>
<path fill="none" stroke="midnightblue" d="M628.093,-621.743C837.526,-610.411 1349.36,-575.32 1349.36,-503 1349.36,-503 1349.36,-503 1349.36,-148 1349.36,-42.4984 513.555,-16.3515 325.59,-11.8052"/>
<polygon fill="midnightblue" stroke="midnightblue" points="325.467,-8.30143 315.387,-11.5645 325.302,-15.2995 325.467,-8.30143"/>
</g>
<!-- Node10 -->
<g id="node19" class="node"><title>Node10</title>
<a xlink:href="ObjectData_8h.xhtml" target="_top" xlink:title="../processing/ObjectData.h">
<polygon fill="none" stroke="black" points="307.362,-260.5 307.362,-281.5 441.362,-281.5 441.362,-260.5 307.362,-260.5"/>
<text text-anchor="middle" x="374.362" y="-268.5" font-family="Helvetica,sans-Serif" font-size="10.00">../processing/ObjectData.h</text>
</a>
</g>
<!-- Node1&#45;&gt;Node10 -->
<g id="edge76" class="edge"><title>Node1&#45;&gt;Node10</title>
<path fill="none" stroke="midnightblue" d="M457.868,-608.918C369.365,-588.159 241.362,-550.009 241.362,-503 241.362,-503 241.362,-503 241.362,-387 241.362,-336.724 296.008,-303.24 335.244,-285.678"/>
<polygon fill="midnightblue" stroke="midnightblue" points="337.037,-288.717 344.845,-281.555 334.275,-282.285 337.037,-288.717"/>
</g>
<!-- Node13 -->
<g id="node28" class="node"><title>Node13</title>
<a xlink:href="utils_8h.xhtml" target="_top" xlink:title="utils.h">
<polygon fill="none" stroke="black" points="181.862,-202.5 181.862,-223.5 224.862,-223.5 224.862,-202.5 181.862,-202.5"/>
<text text-anchor="middle" x="203.362" y="-210.5" font-family="Helvetica,sans-Serif" font-size="10.00">utils.h</text>
</a>
</g>
<!-- Node1&#45;&gt;Node13 -->
<g id="edge74" class="edge"><title>Node1&#45;&gt;Node13</title>
<path fill="none" stroke="midnightblue" d="M452.775,-617.718C331.543,-603.788 127.362,-570.332 127.362,-503 127.362,-503 127.362,-503 127.362,-329 127.362,-288.51 160.16,-251.158 182.664,-230.295"/>
<polygon fill="midnightblue" stroke="midnightblue" points="185.002,-232.899 190.124,-223.625 180.336,-227.681 185.002,-232.899"/>
</g>
<!-- Node17 -->
<g id="node45" class="node"><title>Node17</title>
<a xlink:href="GUICutRenderWindow_8h.xhtml" target="_top" xlink:title="GUICutRenderWindow.h">
<polygon fill="none" stroke="black" points="419.862,-492.5 419.862,-513.5 544.862,-513.5 544.862,-492.5 419.862,-492.5"/>
<text text-anchor="middle" x="482.362" y="-500.5" font-family="Helvetica,sans-Serif" font-size="10.00">GUICutRenderWindow.h</text>
</a>
</g>
<!-- Node1&#45;&gt;Node17 -->
<g id="edge56" class="edge"><title>Node1&#45;&gt;Node17</title>
<path fill="none" stroke="midnightblue" d="M532.297,-608.897C521.676,-586.372 503.03,-546.83 491.775,-522.962"/>
<polygon fill="midnightblue" stroke="midnightblue" points="494.88,-521.34 487.449,-513.787 488.548,-524.325 494.88,-521.34"/>
</g>
<!-- Node20 -->
<g id="node59" class="node"><title>Node20</title>
<a xlink:href="GUIMainWindow_8h.xhtml" target="_top" xlink:title="GUIMainWindow.h">
<polygon fill="none" stroke="black" points="909.862,-550.5 909.862,-571.5 1008.86,-571.5 1008.86,-550.5 909.862,-550.5"/>
<text text-anchor="middle" x="959.362" y="-558.5" font-family="Helvetica,sans-Serif" font-size="10.00">GUIMainWindow.h</text>
</a>
</g>
<!-- Node1&#45;&gt;Node20 -->
<g id="edge78" class="edge"><title>Node1&#45;&gt;Node20</title>
<path fill="none" stroke="midnightblue" d="M627.943,-612.413C709.346,-599.785 828.412,-581.314 899.47,-570.291"/>
<polygon fill="midnightblue" stroke="midnightblue" points="900.25,-573.712 909.595,-568.72 899.177,-566.795 900.25,-573.712"/>
</g>
<!-- Node3 -->
<g id="node5" class="node"><title>Node3</title>
<polygon fill="none" stroke="#bfbfbf" points="833.862,-137.5 833.862,-158.5 886.862,-158.5 886.862,-137.5 833.862,-137.5"/>
<text text-anchor="middle" x="860.362" y="-145.5" font-family="Helvetica,sans-Serif" font-size="10.00">wx/wx.h</text>
</g>
<!-- Node2&#45;&gt;Node3 -->
<g id="edge4" class="edge"><title>Node2&#45;&gt;Node3</title>
<path fill="none" stroke="midnightblue" d="M684.89,-434.348C699.016,-426.409 716.225,-414.153 725.362,-398 742.954,-366.898 720.419,-351.306 733.362,-318 757.879,-254.911 812.619,-194.816 841.573,-165.913"/>
<polygon fill="midnightblue" stroke="midnightblue" points="844.326,-168.115 849.009,-158.611 839.421,-163.12 844.326,-168.115"/>
</g>
<!-- Node4 -->
<g id="node7" class="node"><title>Node4</title>
<a xlink:href="GUIColorScalePanel_8h.xhtml" target="_top" xlink:title="GUIColorScalePanel.h">
<polygon fill="none" stroke="black" points="600.362,-376.5 600.362,-397.5 716.362,-397.5 716.362,-376.5 600.362,-376.5"/>
<text text-anchor="middle" x="658.362" y="-384.5" font-family="Helvetica,sans-Serif" font-size="10.00">GUIColorScalePanel.h</text>
</a>
</g>
<!-- Node2&#45;&gt;Node4 -->
<g id="edge6" class="edge"><title>Node2&#45;&gt;Node4</title>
<path fill="none" stroke="midnightblue" d="M661.628,-434.362C661.115,-426.922 660.413,-416.743 659.792,-407.728"/>
<polygon fill="midnightblue" stroke="midnightblue" points="663.271,-407.306 659.091,-397.571 656.288,-407.788 663.271,-407.306"/>
</g>
<!-- Node4&#45;&gt;Node3 -->
<g id="edge54" class="edge"><title>Node4&#45;&gt;Node3</title>
<path fill="none" stroke="midnightblue" d="M657.454,-376.2C655.445,-344.94 654.019,-253.342 700.362,-202 717.058,-183.503 782.125,-165.762 823.966,-155.928"/>
<polygon fill="midnightblue" stroke="midnightblue" points="824.843,-159.317 833.801,-153.661 823.271,-152.496 824.843,-159.317"/>
</g>
<!-- Node4&#45;&gt;Node5 -->
<g id="edge8" class="edge"><title>Node4&#45;&gt;Node5</title>
<path fill="none" stroke="midnightblue" d="M619.789,-376.497C582.593,-366.368 526.422,-351.073 487.934,-340.592"/>
<polygon fill="midnightblue" stroke="midnightblue" points="488.634,-337.156 478.066,-337.905 486.795,-343.91 488.634,-337.156"/>
</g>
<!-- Node5&#45;&gt;Node3 -->
<g id="edge52" class="edge"><title>Node5&#45;&gt;Node3</title>
<path fill="none" stroke="midnightblue" d="M470.916,-318.436C490.235,-309.903 516.989,-296.894 538.362,-282 581.192,-252.154 578.231,-226.435 624.362,-202 689.244,-167.634 775.464,-155.025 823.693,-150.482"/>
<polygon fill="midnightblue" stroke="midnightblue" points="824.016,-153.967 833.672,-149.607 823.405,-146.994 824.016,-153.967"/>
</g>
<!-- Node6 -->
<g id="node11" class="node"><title>Node6</title>
<polygon fill="none" stroke="#bfbfbf" points="259.862,-131 259.862,-165 348.862,-165 348.862,-131 259.862,-131"/>
<text text-anchor="start" x="267.862" y="-152" font-family="Helvetica,sans-Serif" font-size="10.00">../libraries/tetgen</text>
<text text-anchor="middle" x="304.362" y="-139" font-family="Helvetica,sans-Serif" font-size="10.00">/tetgen.h</text>
</g>
<!-- Node5&#45;&gt;Node6 -->
<g id="edge10" class="edge"><title>Node5&#45;&gt;Node6</title>
<path fill="none" stroke="midnightblue" d="M412.657,-323.151C373.637,-315.429 311.95,-300.61 298.362,-282 275.637,-250.876 284.8,-203.995 294.12,-174.735"/>
<polygon fill="midnightblue" stroke="midnightblue" points="297.465,-175.77 297.371,-165.175 290.838,-173.516 297.465,-175.77"/>
</g>
<!-- Node5&#45;&gt;Node7 -->
<g id="edge12" class="edge"><title>Node5&#45;&gt;Node7</title>
<path fill="none" stroke="midnightblue" d="M449.254,-318.486C460.078,-289.245 490.675,-206.586 504.909,-168.135"/>
<polygon fill="midnightblue" stroke="midnightblue" points="508.27,-169.136 508.46,-158.543 501.706,-166.706 508.27,-169.136"/>
</g>
<!-- Node8 -->
<g id="node15" class="node"><title>Node8</title>
<a xlink:href="GeometryClasses_8h.xhtml" target="_top" xlink:title="../libraries/interpolate\l/GeometryClasses.h">
<polygon fill="none" stroke="black" points="234.862,-59 234.862,-93 341.862,-93 341.862,-59 234.862,-59"/>
<text text-anchor="start" x="242.862" y="-80" font-family="Helvetica,sans-Serif" font-size="10.00">../libraries/interpolate</text>
<text text-anchor="middle" x="288.362" y="-67" font-family="Helvetica,sans-Serif" font-size="10.00">/GeometryClasses.h</text>
</a>
</g>
<!-- Node5&#45;&gt;Node8 -->
<g id="edge14" class="edge"><title>Node5&#45;&gt;Node8</title>
<path fill="none" stroke="midnightblue" d="M458.386,-318.344C495.245,-286.935 594.402,-192.98 543.362,-130 519.717,-100.823 419.539,-86.7806 352.009,-80.5124"/>
<polygon fill="midnightblue" stroke="midnightblue" points="352.154,-77.0114 341.882,-79.6075 351.531,-83.9837 352.154,-77.0114"/>
</g>
<!-- Node5&#45;&gt;Node10 -->
<g id="edge18" class="edge"><title>Node5&#45;&gt;Node10</title>
<path fill="none" stroke="midnightblue" d="M432.34,-318.362C421.931,-309.859 407.143,-297.779 395.107,-287.947"/>
<polygon fill="midnightblue" stroke="midnightblue" points="397.261,-285.187 387.302,-281.571 392.832,-290.608 397.261,-285.187"/>
</g>
<!-- Node5&#45;&gt;Node13 -->
<g id="edge50" class="edge"><title>Node5&#45;&gt;Node13</title>
<path fill="none" stroke="midnightblue" d="M412.604,-326.163C374.741,-321.647 311.702,-310.227 265.362,-282 244.667,-269.394 226.88,-247.769 215.733,-232.083"/>
<polygon fill="midnightblue" stroke="midnightblue" points="218.498,-229.926 209.965,-223.646 212.719,-233.876 218.498,-229.926"/>
</g>
<!-- Node8&#45;&gt;Node9 -->
<g id="edge16" class="edge"><title>Node8&#45;&gt;Node9</title>
<path fill="none" stroke="midnightblue" d="M288.362,-58.922C288.362,-50.6704 288.362,-40.6922 288.362,-31.9818"/>
<polygon fill="midnightblue" stroke="midnightblue" points="291.862,-31.8521 288.362,-21.8521 284.862,-31.8521 291.862,-31.8521"/>
</g>
<!-- Node10&#45;&gt;Node6 -->
<g id="edge20" class="edge"><title>Node10&#45;&gt;Node6</title>
<path fill="none" stroke="midnightblue" d="M367.191,-260.331C360.944,-250.907 351.753,-236.723 344.362,-224 334.9,-207.713 325.036,-188.993 317.471,-174.208"/>
<polygon fill="midnightblue" stroke="midnightblue" points="320.507,-172.457 312.859,-165.125 314.266,-175.626 320.507,-172.457"/>
</g>
<!-- Node10&#45;&gt;Node7 -->
<g id="edge22" class="edge"><title>Node10&#45;&gt;Node7</title>
<path fill="none" stroke="midnightblue" d="M372.999,-260.343C371.719,-245.548 371.7,-218.721 385.362,-202 414.194,-166.713 440.181,-185.509 481.362,-166 482.947,-165.249 484.56,-164.445 486.173,-163.609"/>
<polygon fill="midnightblue" stroke="midnightblue" points="488.181,-166.499 495.258,-158.615 484.809,-160.365 488.181,-166.499"/>
</g>
<!-- Node11 -->
<g id="node23" class="node"><title>Node11</title>
<a xlink:href="Interpolator_8h.xhtml" target="_top" xlink:title="../libraries/interpolate\l/Interpolator.h">
<polygon fill="none" stroke="black" points="365.862,-131 365.862,-165 472.862,-165 472.862,-131 365.862,-131"/>
<text text-anchor="start" x="373.862" y="-152" font-family="Helvetica,sans-Serif" font-size="10.00">../libraries/interpolate</text>
<text text-anchor="middle" x="419.362" y="-139" font-family="Helvetica,sans-Serif" font-size="10.00">/Interpolator.h</text>
</a>
</g>
<!-- Node10&#45;&gt;Node11 -->
<g id="edge24" class="edge"><title>Node10&#45;&gt;Node11</title>
<path fill="none" stroke="midnightblue" d="M366.131,-260.372C356.477,-246.519 342.921,-221.736 352.362,-202 358.219,-189.757 368.356,-179.403 378.998,-171.139"/>
<polygon fill="midnightblue" stroke="midnightblue" points="381.118,-173.926 387.172,-165.231 377.017,-168.253 381.118,-173.926"/>
</g>
<!-- Node12 -->
<g id="node26" class="node"><title>Node12</title>
<polygon fill="none" stroke="#bfbfbf" points="393.862,-202.5 393.862,-223.5 458.862,-223.5 458.862,-202.5 393.862,-202.5"/>
<text text-anchor="middle" x="426.362" y="-210.5" font-family="Helvetica,sans-Serif" font-size="10.00">wx/string.h</text>
</g>
<!-- Node10&#45;&gt;Node12 -->
<g id="edge28" class="edge"><title>Node10&#45;&gt;Node12</title>
<path fill="none" stroke="midnightblue" d="M383.9,-260.362C391.23,-252.186 401.525,-240.702 410.143,-231.091"/>
<polygon fill="midnightblue" stroke="midnightblue" points="412.816,-233.353 416.885,-223.571 407.604,-228.68 412.816,-233.353"/>
</g>
<!-- Node10&#45;&gt;Node13 -->
<g id="edge30" class="edge"><title>Node10&#45;&gt;Node13</title>
<path fill="none" stroke="midnightblue" d="M343.395,-260.497C312.612,-250.055 265.642,-234.124 234.722,-223.637"/>
<polygon fill="midnightblue" stroke="midnightblue" points="235.492,-220.202 224.898,-220.304 233.243,-226.831 235.492,-220.202"/>
</g>
<!-- Node11&#45;&gt;Node8 -->
<g id="edge26" class="edge"><title>Node11&#45;&gt;Node8</title>
<path fill="none" stroke="midnightblue" d="M388.317,-130.937C370.42,-121.101 347.726,-108.627 328.487,-98.0531"/>
<polygon fill="midnightblue" stroke="midnightblue" points="330.088,-94.9395 319.638,-93.19 326.716,-101.074 330.088,-94.9395"/>
</g>
<!-- Node13&#45;&gt;Node3 -->
<g id="edge42" class="edge"><title>Node13&#45;&gt;Node3</title>
<path fill="none" stroke="midnightblue" d="M225.222,-210.837C320.752,-201.386 702.188,-163.649 823.274,-151.669"/>
<polygon fill="midnightblue" stroke="midnightblue" points="823.904,-155.124 833.511,-150.657 823.215,-148.158 823.904,-155.124"/>
</g>
<!-- Node13&#45;&gt;Node6 -->
<g id="edge44" class="edge"><title>Node13&#45;&gt;Node6</title>
<path fill="none" stroke="midnightblue" d="M220.04,-202.267C233.4,-193.669 252.603,-181.31 269.311,-170.558"/>
<polygon fill="midnightblue" stroke="midnightblue" points="271.261,-173.465 277.776,-165.11 267.473,-167.579 271.261,-173.465"/>
</g>
<!-- Node13&#45;&gt;Node7 -->
<g id="edge34" class="edge"><title>Node13&#45;&gt;Node7</title>
<path fill="none" stroke="midnightblue" d="M224.946,-211.971C272.582,-209.143 389.752,-199.106 481.362,-166 483.455,-165.244 485.567,-164.348 487.653,-163.366"/>
<polygon fill="midnightblue" stroke="midnightblue" points="489.296,-166.457 496.488,-158.677 486.014,-160.274 489.296,-166.457"/>
</g>
<!-- Node13&#45;&gt;Node8 -->
<g id="edge46" class="edge"><title>Node13&#45;&gt;Node8</title>
<path fill="none" stroke="midnightblue" d="M194.65,-202.317C182.29,-185.774 162.707,-153.427 177.362,-130 188.252,-112.593 206.538,-100.651 225.16,-92.5226"/>
<polygon fill="midnightblue" stroke="midnightblue" points="226.626,-95.7053 234.593,-88.7211 224.01,-89.2127 226.626,-95.7053"/>
</g>
<!-- Node13&#45;&gt;Node9 -->
<g id="edge32" class="edge"><title>Node13&#45;&gt;Node9</title>
<path fill="none" stroke="midnightblue" d="M181.655,-212.145C122.338,-208.962 -35.292,-194.385 7.36213,-130 62.2661,-47.1246 187.655,-21.8072 250.702,-14.1958"/>
<polygon fill="midnightblue" stroke="midnightblue" points="251.443,-17.6348 260.992,-13.0449 250.665,-10.6782 251.443,-17.6348"/>
</g>
<!-- Node13&#45;&gt;Node11 -->
<g id="edge48" class="edge"><title>Node13&#45;&gt;Node11</title>
<path fill="none" stroke="midnightblue" d="M224.863,-206.53C255.12,-197.425 311.519,-180.453 355.824,-167.12"/>
<polygon fill="midnightblue" stroke="midnightblue" points="357.085,-170.396 365.652,-164.163 355.068,-163.693 357.085,-170.396"/>
</g>
<!-- Node14 -->
<g id="node32" class="node"><title>Node14</title>
<polygon fill="none" stroke="#bfbfbf" points="186.362,-137.5 186.362,-158.5 242.362,-158.5 242.362,-137.5 186.362,-137.5"/>
<text text-anchor="middle" x="214.362" y="-145.5" font-family="Helvetica,sans-Serif" font-size="10.00">algorithm</text>
</g>
<!-- Node13&#45;&gt;Node14 -->
<g id="edge36" class="edge"><title>Node13&#45;&gt;Node14</title>
<path fill="none" stroke="midnightblue" d="M205.179,-202.267C206.716,-193.18 208.965,-179.892 210.852,-168.74"/>
<polygon fill="midnightblue" stroke="midnightblue" points="214.362,-168.978 212.58,-158.534 207.46,-167.809 214.362,-168.978"/>
</g>
<!-- Node15 -->
<g id="node34" class="node"><title>Node15</title>
<polygon fill="none" stroke="#bfbfbf" points="16.3621,-137.5 16.3621,-158.5 60.3621,-158.5 60.3621,-137.5 16.3621,-137.5"/>
<text text-anchor="middle" x="38.3621" y="-145.5" font-family="Helvetica,sans-Serif" font-size="10.00">cmath</text>
</g>
<!-- Node13&#45;&gt;Node15 -->
<g id="edge38" class="edge"><title>Node13&#45;&gt;Node15</title>
<path fill="none" stroke="midnightblue" d="M181.517,-206.73C154.577,-198.684 107.652,-183.639 69.3621,-166 67.7688,-165.266 66.1506,-164.475 64.5322,-163.65"/>
<polygon fill="midnightblue" stroke="midnightblue" points="65.8886,-160.403 55.4341,-158.683 62.5347,-166.547 65.8886,-160.403"/>
</g>
<!-- Node16 -->
<g id="node36" class="node"><title>Node16</title>
<polygon fill="none" stroke="#bfbfbf" points="78.3621,-137.5 78.3621,-158.5 130.362,-158.5 130.362,-137.5 78.3621,-137.5"/>
<text text-anchor="middle" x="104.362" y="-145.5" font-family="Helvetica,sans-Serif" font-size="10.00">sstream</text>
</g>
<!-- Node13&#45;&gt;Node16 -->
<g id="edge40" class="edge"><title>Node13&#45;&gt;Node16</title>
<path fill="none" stroke="midnightblue" d="M187.014,-202.267C171.3,-191.949 147.337,-176.216 129.252,-164.342"/>
<polygon fill="midnightblue" stroke="midnightblue" points="130.686,-161.096 120.406,-158.534 126.844,-166.948 130.686,-161.096"/>
</g>
<!-- Node17&#45;&gt;Node2 -->
<g id="edge60" class="edge"><title>Node17&#45;&gt;Node2</title>
<path fill="none" stroke="midnightblue" d="M514.959,-492.497C544.431,-483 587.997,-468.962 620.128,-458.609"/>
<polygon fill="midnightblue" stroke="midnightblue" points="621.26,-461.921 629.704,-455.523 619.113,-455.259 621.26,-461.921"/>
</g>
<!-- Node17&#45;&gt;Node3 -->
<g id="edge58" class="edge"><title>Node17&#45;&gt;Node3</title>
<path fill="none" stroke="midnightblue" d="M490.337,-492.418C497.264,-483.049 507.406,-468.898 515.362,-456 586.159,-341.218 571.935,-280.821 681.362,-202 724.215,-171.132 784.902,-157.689 823.443,-151.99"/>
<polygon fill="midnightblue" stroke="midnightblue" points="824.263,-155.41 833.693,-150.579 823.309,-148.475 824.263,-155.41"/>
</g>
<!-- Node17&#45;&gt;Node5 -->
<g id="edge68" class="edge"><title>Node17&#45;&gt;Node5</title>
<path fill="none" stroke="midnightblue" d="M461.017,-492.452C447.5,-484.487 431.151,-472.163 423.362,-456 406.468,-420.942 422.681,-374.904 434.816,-348.985"/>
<polygon fill="midnightblue" stroke="midnightblue" points="438.062,-350.317 439.346,-339.8 431.784,-347.22 438.062,-350.317"/>
</g>
<!-- Node17&#45;&gt;Node8 -->
<g id="edge62" class="edge"><title>Node17&#45;&gt;Node8</title>
<path fill="none" stroke="midnightblue" d="M449.952,-492.391C358.764,-460.525 100.582,-355.933 7.36213,-166 0.312572,-151.637 -2.82826,-142.335 7.36213,-130 34.3696,-97.3083 150.323,-84.2041 224.58,-79.1014"/>
<polygon fill="midnightblue" stroke="midnightblue" points="225.018,-82.5803 234.767,-78.4333 224.56,-75.5953 225.018,-82.5803"/>
</g>
<!-- Node17&#45;&gt;Node13 -->
<g id="edge64" class="edge"><title>Node17&#45;&gt;Node13</title>
<path fill="none" stroke="midnightblue" d="M464.747,-492.468C450.189,-483.464 429.246,-469.807 412.362,-456 327.213,-386.367 300.149,-371.612 236.362,-282 225.58,-266.853 216.721,-247.634 210.906,-233.329"/>
<polygon fill="midnightblue" stroke="midnightblue" points="214.125,-231.95 207.226,-223.909 207.605,-234.497 214.125,-231.95"/>
</g>
<!-- Node18 -->
<g id="node51" class="node"><title>Node18</title>
<polygon fill="none" stroke="#bfbfbf" points="770.362,-434.5 770.362,-455.5 842.362,-455.5 842.362,-434.5 770.362,-434.5"/>
<text text-anchor="middle" x="806.362" y="-442.5" font-family="Helvetica,sans-Serif" font-size="10.00">wx/spinctrl.h</text>
</g>
<!-- Node17&#45;&gt;Node18 -->
<g id="edge66" class="edge"><title>Node17&#45;&gt;Node18</title>
<path fill="none" stroke="midnightblue" d="M541.036,-492.497C603.999,-481.225 702.701,-463.557 760.308,-453.244"/>
<polygon fill="midnightblue" stroke="midnightblue" points="760.997,-456.677 770.224,-451.469 759.764,-449.786 760.997,-456.677"/>
</g>
<!-- Node19 -->
<g id="node54" class="node"><title>Node19</title>
<polygon fill="none" stroke="#bfbfbf" points="432.362,-434.5 432.362,-455.5 506.362,-455.5 506.362,-434.5 432.362,-434.5"/>
<text text-anchor="middle" x="469.362" y="-442.5" font-family="Helvetica,sans-Serif" font-size="10.00">wx/colordlg.h</text>
</g>
<!-- Node17&#45;&gt;Node19 -->
<g id="edge70" class="edge"><title>Node17&#45;&gt;Node19</title>
<path fill="none" stroke="midnightblue" d="M479.978,-492.362C478.292,-484.84 475.978,-474.519 473.941,-465.431"/>
<polygon fill="midnightblue" stroke="midnightblue" points="477.334,-464.563 471.731,-455.571 470.503,-466.094 477.334,-464.563"/>
</g>
<!-- Node20&#45;&gt;Node3 -->
<g id="edge124" class="edge"><title>Node20&#45;&gt;Node3</title>
<path fill="none" stroke="midnightblue" d="M992.347,-550.384C1032.8,-535.662 1100.64,-505.163 1138.36,-456 1157.73,-430.765 1157.36,-418.808 1157.36,-387 1157.36,-387 1157.36,-387 1157.36,-271 1157.36,-215.252 976.486,-171.606 897.042,-155.125"/>
<polygon fill="midnightblue" stroke="midnightblue" points="897.478,-151.642 886.98,-153.07 896.078,-158.5 897.478,-151.642"/>
</g>
<!-- Node20&#45;&gt;Node17 -->
<g id="edge122" class="edge"><title>Node20&#45;&gt;Node17</title>
<path fill="none" stroke="midnightblue" d="M909.665,-554.957C825.201,-544.687 653.288,-523.783 555.214,-511.858"/>
<polygon fill="midnightblue" stroke="midnightblue" points="555.435,-508.36 545.086,-510.627 554.59,-515.308 555.435,-508.36"/>
</g>
<!-- Node21 -->
<g id="node61" class="node"><title>Node21</title>
<a xlink:href="GUIGLCanvas_8h.xhtml" target="_top" xlink:title="GUIGLCanvas.h">
<polygon fill="none" stroke="black" points="771.862,-376.5 771.862,-397.5 860.862,-397.5 860.862,-376.5 771.862,-376.5"/>
<text text-anchor="middle" x="816.362" y="-384.5" font-family="Helvetica,sans-Serif" font-size="10.00">GUIGLCanvas.h</text>
</a>
</g>
<!-- Node20&#45;&gt;Node21 -->
<g id="edge80" class="edge"><title>Node20&#45;&gt;Node21</title>
<path fill="none" stroke="midnightblue" d="M950.632,-550.377C927.054,-521.688 861.85,-442.348 831.842,-405.835"/>
<polygon fill="midnightblue" stroke="midnightblue" points="834.396,-403.431 825.343,-397.928 828.988,-407.876 834.396,-403.431"/>
</g>
<!-- Node23 -->
<g id="node68" class="node"><title>Node23</title>
<a xlink:href="PropertiesBox_8h.xhtml" target="_top" xlink:title="PropertiesBox.h">
<polygon fill="none" stroke="black" points="926.362,-376.5 926.362,-397.5 1012.36,-397.5 1012.36,-376.5 926.362,-376.5"/>
<text text-anchor="middle" x="969.362" y="-384.5" font-family="Helvetica,sans-Serif" font-size="10.00">PropertiesBox.h</text>
</a>
</g>
<!-- Node20&#45;&gt;Node23 -->
<g id="edge90" class="edge"><title>Node20&#45;&gt;Node23</title>
<path fill="none" stroke="midnightblue" d="M959.973,-550.377C961.587,-522.293 965.99,-445.673 968.144,-408.203"/>
<polygon fill="midnightblue" stroke="midnightblue" points="971.654,-408.112 968.734,-397.928 964.666,-407.71 971.654,-408.112"/>
</g>
<!-- Node26 -->
<g id="node78" class="node"><title>Node26</title>
<a xlink:href="ViewpropBox_8h.xhtml" target="_top" xlink:title="ViewpropBox.h">
<polygon fill="none" stroke="black" points="810.862,-492.5 810.862,-513.5 893.862,-513.5 893.862,-492.5 810.862,-492.5"/>
<text text-anchor="middle" x="852.362" y="-500.5" font-family="Helvetica,sans-Serif" font-size="10.00">ViewpropBox.h</text>
</a>
</g>
<!-- Node20&#45;&gt;Node26 -->
<g id="edge104" class="edge"><title>Node20&#45;&gt;Node26</title>
<path fill="none" stroke="midnightblue" d="M939.737,-550.362C923.221,-541.409 899.388,-528.491 880.784,-518.406"/>
<polygon fill="midnightblue" stroke="midnightblue" points="882.323,-515.259 871.863,-513.571 878.987,-521.413 882.323,-515.259"/>
</g>
<!-- Node27 -->
<g id="node82" class="node"><title>Node27</title>
<a xlink:href="GUIAnalyzeOutputWindow_8h.xhtml" target="_top" xlink:title="GUIAnalyzeOutputWindow.h">
<polygon fill="none" stroke="black" points="986.862,-434.5 986.862,-455.5 1129.86,-455.5 1129.86,-434.5 986.862,-434.5"/>
<text text-anchor="middle" x="1058.36" y="-442.5" font-family="Helvetica,sans-Serif" font-size="10.00">GUIAnalyzeOutputWindow.h</text>
</a>
</g>
<!-- Node20&#45;&gt;Node27 -->
<g id="edge110" class="edge"><title>Node20&#45;&gt;Node27</title>
<path fill="none" stroke="midnightblue" d="M968.498,-550.295C985.369,-530.527 1021.6,-488.08 1042.54,-463.544"/>
<polygon fill="midnightblue" stroke="midnightblue" points="1045.42,-465.558 1049.25,-455.679 1040.09,-461.014 1045.42,-465.558"/>
</g>
<!-- Node29 -->
<g id="node88" class="node"><title>Node29</title>
<a xlink:href="GUIAnalyzePointWindow_8h.xhtml" target="_top" xlink:title="GUIAnalyzePointWindow.h">
<polygon fill="none" stroke="black" points="1185.36,-260.5 1185.36,-281.5 1321.36,-281.5 1321.36,-260.5 1185.36,-260.5"/>
<text text-anchor="middle" x="1253.36" y="-268.5" font-family="Helvetica,sans-Serif" font-size="10.00">GUIAnalyzePointWindow.h</text>
</a>
</g>
<!-- Node20&#45;&gt;Node29 -->
<g id="edge118" class="edge"><title>Node20&#45;&gt;Node29</title>
<path fill="none" stroke="midnightblue" d="M1009.09,-559.274C1082.45,-555.706 1214.77,-545.042 1249.36,-514 1273.04,-492.755 1268.36,-476.808 1268.36,-445 1268.36,-445 1268.36,-445 1268.36,-387 1268.36,-353.494 1262.13,-314.991 1257.7,-291.851"/>
<polygon fill="midnightblue" stroke="midnightblue" points="1261.09,-290.94 1255.71,-281.815 1254.22,-292.305 1261.09,-290.94"/>
</g>
<!-- Node30 -->
<g id="node93" class="node"><title>Node30</title>
<polygon fill="none" stroke="#bfbfbf" points="1169.86,-492.5 1169.86,-513.5 1240.86,-513.5 1240.86,-492.5 1169.86,-492.5"/>
<text text-anchor="middle" x="1205.36" y="-500.5" font-family="Helvetica,sans-Serif" font-size="10.00">wx/artprov.h</text>
</g>
<!-- Node20&#45;&gt;Node30 -->
<g id="edge126" class="edge"><title>Node20&#45;&gt;Node30</title>
<path fill="none" stroke="midnightblue" d="M1003.91,-550.497C1047.97,-540.109 1115.08,-524.286 1159.57,-513.797"/>
<polygon fill="midnightblue" stroke="midnightblue" points="1160.6,-517.15 1169.53,-511.448 1158.99,-510.337 1160.6,-517.15"/>
</g>
<!-- Node21&#45;&gt;Node3 -->
<g id="edge84" class="edge"><title>Node21&#45;&gt;Node3</title>
<path fill="none" stroke="midnightblue" d="M820.312,-376.309C823.668,-366.87 828.401,-352.678 831.362,-340 845.751,-278.386 854.629,-203.914 858.343,-168.557"/>
<polygon fill="midnightblue" stroke="midnightblue" points="861.834,-168.821 859.368,-158.517 854.87,-168.11 861.834,-168.821"/>
</g>
<!-- Node21&#45;&gt;Node5 -->
<g id="edge82" class="edge"><title>Node21&#45;&gt;Node5</title>
<path fill="none" stroke="midnightblue" d="M771.611,-380.004C699.513,-368.732 558.598,-346.703 487.922,-335.654"/>
<polygon fill="midnightblue" stroke="midnightblue" points="488.442,-332.192 478.021,-334.106 487.36,-339.108 488.442,-332.192"/>
</g>
<!-- Node21&#45;&gt;Node10 -->
<g id="edge88" class="edge"><title>Node21&#45;&gt;Node10</title>
<path fill="none" stroke="midnightblue" d="M775.966,-376.398C694.911,-355.126 512.662,-307.296 424.292,-284.104"/>
<polygon fill="midnightblue" stroke="midnightblue" points="425.066,-280.688 414.505,-281.535 423.289,-287.459 425.066,-280.688"/>
</g>
<!-- Node22 -->
<g id="node65" class="node"><title>Node22</title>
<polygon fill="none" stroke="#bfbfbf" points="742.362,-318.5 742.362,-339.5 822.362,-339.5 822.362,-318.5 742.362,-318.5"/>
<text text-anchor="middle" x="782.362" y="-326.5" font-family="Helvetica,sans-Serif" font-size="10.00">wx/glcanvas.h</text>
</g>
<!-- Node21&#45;&gt;Node22 -->
<g id="edge86" class="edge"><title>Node21&#45;&gt;Node22</title>
<path fill="none" stroke="midnightblue" d="M810.126,-376.362C805.525,-368.513 799.137,-357.616 793.648,-348.253"/>
<polygon fill="midnightblue" stroke="midnightblue" points="796.635,-346.428 788.559,-339.571 790.597,-349.968 796.635,-346.428"/>
</g>
<!-- Node23&#45;&gt;Node3 -->
<g id="edge92" class="edge"><title>Node23&#45;&gt;Node3</title>
<path fill="none" stroke="midnightblue" d="M980.922,-376.296C989.513,-367.501 1000.54,-354.212 1005.36,-340 1017.32,-304.721 996.529,-293.56 980.362,-260 967.677,-233.667 969.459,-223.223 949.362,-202 933.807,-185.573 912.184,-172.299 894.146,-163.023"/>
<polygon fill="midnightblue" stroke="midnightblue" points="895.607,-159.84 885.092,-158.541 892.501,-166.114 895.607,-159.84"/>
</g>
<!-- Node24 -->
<g id="node71" class="node"><title>Node24</title>
<a xlink:href="GUITimeline_8h.xhtml" target="_top" xlink:title="GUITimeline.h">
<polygon fill="none" stroke="black" points="916.362,-318.5 916.362,-339.5 996.362,-339.5 996.362,-318.5 916.362,-318.5"/>
<text text-anchor="middle" x="956.362" y="-326.5" font-family="Helvetica,sans-Serif" font-size="10.00">GUITimeline.h</text>
</a>
</g>
<!-- Node23&#45;&gt;Node24 -->
<g id="edge94" class="edge"><title>Node23&#45;&gt;Node24</title>
<path fill="none" stroke="midnightblue" d="M966.978,-376.362C965.292,-368.84 962.978,-358.519 960.941,-349.431"/>
<polygon fill="midnightblue" stroke="midnightblue" points="964.334,-348.563 958.731,-339.571 957.503,-350.094 964.334,-348.563"/>
</g>
<!-- Node24&#45;&gt;Node3 -->
<g id="edge96" class="edge"><title>Node24&#45;&gt;Node3</title>
<path fill="none" stroke="midnightblue" d="M960.92,-318.314C966.156,-304.399 973.092,-279.547 965.362,-260 949.159,-219.026 910.098,-184.267 884.456,-164.782"/>
<polygon fill="midnightblue" stroke="midnightblue" points="886.449,-161.903 876.328,-158.772 882.288,-167.531 886.449,-161.903"/>
</g>
<!-- Node24&#45;&gt;Node7 -->
<g id="edge100" class="edge"><title>Node24&#45;&gt;Node7</title>
<path fill="none" stroke="midnightblue" d="M930.572,-318.486C853.919,-287.238 627.625,-194.988 543.941,-160.873"/>
<polygon fill="midnightblue" stroke="midnightblue" points="545.043,-157.543 534.462,-157.009 542.401,-164.025 545.043,-157.543"/>
</g>
<!-- Node24&#45;&gt;Node10 -->
<g id="edge102" class="edge"><title>Node24&#45;&gt;Node10</title>
<path fill="none" stroke="midnightblue" d="M916.359,-325.013C820.688,-315.479 577.308,-291.225 451.81,-278.718"/>
<polygon fill="midnightblue" stroke="midnightblue" points="451.809,-275.201 441.511,-277.692 451.115,-282.166 451.809,-275.201"/>
</g>
<!-- Node25 -->
<g id="node74" class="node"><title>Node25</title>
<polygon fill="none" stroke="#bfbfbf" points="915.862,-260.5 915.862,-281.5 956.862,-281.5 956.862,-260.5 915.862,-260.5"/>
<text text-anchor="middle" x="936.362" y="-268.5" font-family="Helvetica,sans-Serif" font-size="10.00">string</text>
</g>
<!-- Node24&#45;&gt;Node25 -->
<g id="edge98" class="edge"><title>Node24&#45;&gt;Node25</title>
<path fill="none" stroke="midnightblue" d="M952.694,-318.362C950.072,-310.758 946.464,-300.294 943.305,-291.135"/>
<polygon fill="midnightblue" stroke="midnightblue" points="946.576,-289.883 940.007,-281.571 939.958,-292.165 946.576,-289.883"/>
</g>
<!-- Node26&#45;&gt;Node3 -->
<g id="edge106" class="edge"><title>Node26&#45;&gt;Node3</title>
<path fill="none" stroke="midnightblue" d="M856.215,-492.168C865.502,-465.057 888.362,-391.93 888.362,-329 888.362,-329 888.362,-329 888.362,-271 888.362,-233.99 876.161,-192.243 867.867,-168.141"/>
<polygon fill="midnightblue" stroke="midnightblue" points="871.147,-166.918 864.494,-158.673 864.553,-169.268 871.147,-166.918"/>
</g>
<!-- Node26&#45;&gt;Node18 -->
<g id="edge108" class="edge"><title>Node26&#45;&gt;Node18</title>
<path fill="none" stroke="midnightblue" d="M843.925,-492.362C837.57,-484.35 828.696,-473.161 821.169,-463.67"/>
<polygon fill="midnightblue" stroke="midnightblue" points="823.702,-461.231 814.746,-455.571 818.217,-465.581 823.702,-461.231"/>
</g>
<!-- Node27&#45;&gt;Node3 -->
<g id="edge116" class="edge"><title>Node27&#45;&gt;Node3</title>
<path fill="none" stroke="midnightblue" d="M1057.68,-434.284C1054.72,-396.77 1039.77,-269.964 970.362,-202 949.747,-181.813 920.101,-167.859 896.779,-159.2"/>
<polygon fill="midnightblue" stroke="midnightblue" points="897.811,-155.852 887.216,-155.81 895.472,-162.45 897.811,-155.852"/>
</g>
<!-- Node27&#45;&gt;Node23 -->
<g id="edge112" class="edge"><title>Node27&#45;&gt;Node23</title>
<path fill="none" stroke="midnightblue" d="M1042.04,-434.362C1028.61,-425.614 1009.38,-413.079 994.07,-403.101"/>
<polygon fill="midnightblue" stroke="midnightblue" points="995.872,-400.098 985.583,-397.571 992.05,-405.963 995.872,-400.098"/>
</g>
<!-- Node28 -->
<g id="node85" class="node"><title>Node28</title>
<polygon fill="none" stroke="#bfbfbf" points="1073.36,-376.5 1073.36,-397.5 1129.36,-397.5 1129.36,-376.5 1073.36,-376.5"/>
<text text-anchor="middle" x="1101.36" y="-384.5" font-family="Helvetica,sans-Serif" font-size="10.00">wx/grid.h</text>
</g>
<!-- Node27&#45;&gt;Node28 -->
<g id="edge114" class="edge"><title>Node27&#45;&gt;Node28</title>
<path fill="none" stroke="midnightblue" d="M1066.25,-434.362C1072.19,-426.35 1080.48,-415.161 1087.52,-405.67"/>
<polygon fill="midnightblue" stroke="midnightblue" points="1090.38,-407.688 1093.53,-397.571 1084.76,-403.519 1090.38,-407.688"/>
</g>
<!-- Node29&#45;&gt;Node3 -->
<g id="edge120" class="edge"><title>Node29&#45;&gt;Node3</title>
<path fill="none" stroke="midnightblue" d="M1244.23,-260.363C1230.24,-244.821 1201.89,-216.213 1171.36,-202 1123.04,-179.505 968.602,-160.019 897.203,-151.956"/>
<polygon fill="midnightblue" stroke="midnightblue" points="897.216,-148.436 886.889,-150.806 896.44,-155.392 897.216,-148.436"/>
</g>
</g>
</svg>
        <g id="navigator" transform="translate(0 0)" fill="#404254">
                <rect fill="#f2f5e9" fill-opacity="0.5" stroke="#606060" stroke-width=".5" x="0" y="0" width="60" height="60"/>
                <use id="zoomplus" xlink:href="#zoomPlus" x="17" y="9" onmousedown="handleZoom(evt,'in')"/>
                <use id="zoomminus" xlink:href="#zoomMin" x="42" y="9" onmousedown="handleZoom(evt,'out')"/>
                <use id="reset" xlink:href="#resetDef" x="30" y="36" onmousedown="handleReset()"/>
                <g id="arrowUp" xlink:href="#dirArrow" transform="translate(30 24)" onmousedown="handlePan(0,-1)">
                  <use xlink:href="#rim" fill="#404040">
                        <set attributeName="fill" to="#808080" begin="arrowUp.mouseover" end="arrowUp.mouseout"/>
                  </use>
                  <path fill="none" stroke="white" stroke-width="1.5" d="M0,-3.0v7 M-2.5,-0.5L0,-3.0L2.5,-0.5"/>
                </g>
                <g id="arrowRight" xlink:href="#dirArrow" transform="rotate(90) translate(36 -43)" onmousedown="handlePan(1,0)">
                  <use xlink:href="#rim" fill="#404040">
                        <set attributeName="fill" to="#808080" begin="arrowRight.mouseover" end="arrowRight.mouseout"/>
                  </use>
                  <path fill="none" stroke="white" stroke-width="1.5" d="M0,-3.0v7 M-2.5,-0.5L0,-3.0L2.5,-0.5"/>
                </g>
                <g id="arrowDown" xlink:href="#dirArrow" transform="rotate(180) translate(-30 -48)" onmousedown="handlePan(0,1)">
                  <use xlink:href="#rim" fill="#404040">
                        <set attributeName="fill" to="#808080" begin="arrowDown.mouseover" end="arrowDown.mouseout"/>
                  </use>
                  <path fill="none" stroke="white" stroke-width="1.5" d="M0,-3.0v7 M-2.5,-0.5L0,-3.0L2.5,-0.5"/>
                </g>
                <g id="arrowLeft" xlink:href="#dirArrow" transform="rotate(270) translate(-36 17)" onmousedown="handlePan(-1,0)">
                  <use xlink:href="#rim" fill="#404040">
                        <set attributeName="fill" to="#808080" begin="arrowLeft.mouseover" end="arrowLeft.mouseout"/>
                  </use>
                  <path fill="none" stroke="white" stroke-width="1.5" d="M0,-3.0v7 M-2.5,-0.5L0,-3.0L2.5,-0.5"/>
                </g>
        </g>
        <svg viewBox="0 0 15 15" width="100%" height="30px" preserveAspectRatio="xMaxYMin meet">
         <g id="arrow_out" transform="scale(0.3 0.3)">
          <a xlink:href="GUIRenderCutCanvas_8cpp__incl_org.svg" target="_base">
           <rect id="button" ry="5" rx="5" y="6" x="6" height="38" width="38"
                fill="#f2f5e9" fill-opacity="0.5" stroke="#606060" stroke-width="1.0"/>
           <path id="arrow"
             d="M 11.500037,31.436501 C 11.940474,20.09759 22.043105,11.32322 32.158766,21.979434 L 37.068811,17.246167 C 37.068811,17.246167 37.088388,32 37.088388,32 L 22.160133,31.978069 C 22.160133,31.978069 26.997745,27.140456 26.997745,27.140456 C 18.528582,18.264221 13.291696,25.230495 11.500037,31.436501 z"
             style="fill:#404040;"/>
          </a>
         </g>
        </svg>
</svg>
