<?xml version="1.0" encoding="UTF-8" standalone="no"?>
<!DOCTYPE svg PUBLIC "-//W3C//DTD SVG 1.1//EN"
 "http://www.w3.org/Graphics/SVG/1.1/DTD/svg11.dtd">
<!-- Generated by graphviz version 2.26.3 (20100126.1600)
 -->
<!-- Title: /daten/Projekte/eclipse_workspace/simpleanalyzer&#45;gui/src/fileIO/Importer.h Pages: 1 -->
<svg width="634pt" height="360pt"
 viewBox="0.00 0.00 634.00 360.00" xmlns="http://www.w3.org/2000/svg" xmlns:xlink="http://www.w3.org/1999/xlink">
<g id="graph1" class="graph" transform="scale(1 1) rotate(0) translate(4 356)">
<title>/daten/Projekte/eclipse_workspace/simpleanalyzer&#45;gui/src/fileIO/Importer.h</title>
<!-- Node1 -->
<g id="node1" class="node"><title>Node1</title>
<polygon fill="#bfbfbf" stroke="black" points="187.5,-304.5 187.5,-351.5 324.5,-351.5 324.5,-304.5 187.5,-304.5"/>
<text text-anchor="start" x="195.5" y="-338.5" font-family="Helvetica,sans-Serif" font-size="10.00">/daten/Projekte/eclipse</text>
<text text-anchor="start" x="195.5" y="-325.5" font-family="Helvetica,sans-Serif" font-size="10.00">_workspace/simpleanalyzer</text>
<text text-anchor="middle" x="256" y="-312.5" font-family="Helvetica,sans-Serif" font-size="10.00">&#45;gui/src/fileIO/Importer.h</text>
</g>
<!-- Node2 -->
<g id="node3" class="node"><title>Node2</title>
<polygon fill="none" stroke="#bfbfbf" points="537.5,-117 537.5,-151 626.5,-151 626.5,-117 537.5,-117"/>
<text text-anchor="start" x="545.5" y="-138" font-family="Helvetica,sans-Serif" font-size="10.00">../libraries/tetgen</text>
<text text-anchor="middle" x="582" y="-125" font-family="Helvetica,sans-Serif" font-size="10.00">/tetgen.h</text>
</g>
<!-- Node1&#45;&gt;Node2 -->
<g id="edge2" class="edge"><title>Node1&#45;&gt;Node2</title>
<path fill="none" stroke="midnightblue" d="M295.648,-304.406C359.047,-266.677 482.404,-193.269 544.451,-156.345"/>
<polygon fill="midnightblue" stroke="midnightblue" points="546.342,-159.293 553.146,-151.171 542.762,-153.277 546.342,-159.293"/>
</g>
<!-- Node3 -->
<g id="node5" class="node"><title>Node3</title>
<a xlink:href="ObjectData_8h.xhtml" target="_top" xlink:title="../processing/ObjectData.h">
<polygon fill="none" stroke="black" points="189,-246.5 189,-267.5 323,-267.5 323,-246.5 189,-246.5"/>
<text text-anchor="middle" x="256" y="-254.5" font-family="Helvetica,sans-Serif" font-size="10.00">../processing/ObjectData.h</text>
</a>
</g>
<!-- Node1&#45;&gt;Node3 -->
<g id="edge4" class="edge"><title>Node1&#45;&gt;Node3</title>
<path fill="none" stroke="midnightblue" d="M256,-304.358C256,-295.719 256,-286.022 256,-277.662"/>
<polygon fill="midnightblue" stroke="midnightblue" points="259.5,-277.646 256,-267.646 252.5,-277.646 259.5,-277.646"/>
</g>
<!-- Node4 -->
<g id="node8" class="node"><title>Node4</title>
<polygon fill="none" stroke="#bfbfbf" points="0,-123.5 0,-144.5 44,-144.5 44,-123.5 0,-123.5"/>
<text text-anchor="middle" x="22" y="-131.5" font-family="Helvetica,sans-Serif" font-size="10.00">vector</text>
</g>
<!-- Node1&#45;&gt;Node4 -->
<g id="edge38" class="edge"><title>Node1&#45;&gt;Node4</title>
<path fill="none" stroke="midnightblue" d="M225.48,-304.301C211.524,-293.363 194.831,-280.137 180,-268 129.624,-226.774 71.507,-176.865 41.7728,-151.155"/>
<polygon fill="midnightblue" stroke="midnightblue" points="44.0203,-148.472 34.1689,-144.573 39.4388,-153.764 44.0203,-148.472"/>
</g>
<!-- Node3&#45;&gt;Node2 -->
<g id="edge6" class="edge"><title>Node3&#45;&gt;Node2</title>
<path fill="none" stroke="midnightblue" d="M284.077,-246.407C338.212,-225.981 457.854,-180.84 527.94,-154.397"/>
<polygon fill="midnightblue" stroke="midnightblue" points="529.368,-157.599 537.488,-150.794 526.897,-151.05 529.368,-157.599"/>
</g>
<!-- Node3&#45;&gt;Node4 -->
<g id="edge8" class="edge"><title>Node3&#45;&gt;Node4</title>
<path fill="none" stroke="midnightblue" d="M234.78,-246.452C197.644,-227.897 118.576,-187.97 53,-152 51.67,-151.27 50.3122,-150.517 48.944,-149.75"/>
<polygon fill="midnightblue" stroke="midnightblue" points="50.3678,-146.533 39.9472,-144.619 46.9002,-152.613 50.3678,-146.533"/>
</g>
<!-- Node5 -->
<g id="node10" class="node"><title>Node5</title>
<a xlink:href="Interpolator_8h.xhtml" target="_top" xlink:title="../libraries/interpolate\l/Interpolator.h">
<polygon fill="none" stroke="black" points="61.5,-117 61.5,-151 168.5,-151 168.5,-117 61.5,-117"/>
<text text-anchor="start" x="69.5" y="-138" font-family="Helvetica,sans-Serif" font-size="10.00">../libraries/interpolate</text>
<text text-anchor="middle" x="115" y="-125" font-family="Helvetica,sans-Serif" font-size="10.00">/Interpolator.h</text>
</a>
</g>
<!-- Node3&#45;&gt;Node5 -->
<g id="edge10" class="edge"><title>Node3&#45;&gt;Node5</title>
<path fill="none" stroke="midnightblue" d="M243.487,-246.085C220.967,-226.439 173.117,-184.698 142.59,-158.068"/>
<polygon fill="midnightblue" stroke="midnightblue" points="144.688,-155.254 134.852,-151.317 140.086,-160.529 144.688,-155.254"/>
</g>
<!-- Node8 -->
<g id="node16" class="node"><title>Node8</title>
<polygon fill="none" stroke="#bfbfbf" points="294.5,-188.5 294.5,-209.5 359.5,-209.5 359.5,-188.5 294.5,-188.5"/>
<text text-anchor="middle" x="327" y="-196.5" font-family="Helvetica,sans-Serif" font-size="10.00">wx/string.h</text>
</g>
<!-- Node3&#45;&gt;Node8 -->
<g id="edge16" class="edge"><title>Node3&#45;&gt;Node8</title>
<path fill="none" stroke="midnightblue" d="M269.022,-246.362C279.431,-237.859 294.219,-225.779 306.255,-215.947"/>
<polygon fill="midnightblue" stroke="midnightblue" points="308.53,-218.608 314.06,-209.571 304.101,-213.187 308.53,-218.608"/>
</g>
<!-- Node9 -->
<g id="node18" class="node"><title>Node9</title>
<a xlink:href="utils_8h.xhtml" target="_top" xlink:title="utils.h">
<polygon fill="none" stroke="black" points="234.5,-188.5 234.5,-209.5 277.5,-209.5 277.5,-188.5 234.5,-188.5"/>
<text text-anchor="middle" x="256" y="-196.5" font-family="Helvetica,sans-Serif" font-size="10.00">utils.h</text>
</a>
</g>
<!-- Node3&#45;&gt;Node9 -->
<g id="edge18" class="edge"><title>Node3&#45;&gt;Node9</title>
<path fill="none" stroke="midnightblue" d="M256,-246.362C256,-238.922 256,-228.743 256,-219.728"/>
<polygon fill="midnightblue" stroke="midnightblue" points="259.5,-219.571 256,-209.571 252.5,-219.571 259.5,-219.571"/>
</g>
<!-- Node6 -->
<g id="node12" class="node"><title>Node6</title>
<a xlink:href="GeometryClasses_8h.xhtml" target="_top" xlink:title="GeometryClasses.h">
<polygon fill="none" stroke="black" points="102,-58.5 102,-79.5 206,-79.5 206,-58.5 102,-58.5"/>
<text text-anchor="middle" x="154" y="-66.5" font-family="Helvetica,sans-Serif" font-size="10.00">GeometryClasses.h</text>
</a>
</g>
<!-- Node5&#45;&gt;Node6 -->
<g id="edge12" class="edge"><title>Node5&#45;&gt;Node6</title>
<path fill="none" stroke="midnightblue" d="M125.247,-116.922C130.473,-108.212 136.853,-97.5782 142.275,-88.5423"/>
<polygon fill="midnightblue" stroke="midnightblue" points="145.345,-90.2278 147.489,-79.8521 139.343,-86.6263 145.345,-90.2278"/>
</g>
<!-- Node7 -->
<g id="node14" class="node"><title>Node7</title>
<polygon fill="none" stroke="#bfbfbf" points="167,-0.5 167,-21.5 221,-21.5 221,-0.5 167,-0.5"/>
<text text-anchor="middle" x="194" y="-8.5" font-family="Helvetica,sans-Serif" font-size="10.00">iostream</text>
</g>
<!-- Node6&#45;&gt;Node7 -->
<g id="edge14" class="edge"><title>Node6&#45;&gt;Node7</title>
<path fill="none" stroke="midnightblue" d="M161.337,-58.3619C166.806,-50.4313 174.422,-39.3885 180.924,-29.9606"/>
<polygon fill="midnightblue" stroke="midnightblue" points="183.914,-31.7899 186.71,-21.5707 178.151,-27.8157 183.914,-31.7899"/>
</g>
<!-- Node9&#45;&gt;Node2 -->
<g id="edge32" class="edge"><title>Node9&#45;&gt;Node2</title>
<path fill="none" stroke="midnightblue" d="M277.792,-190.424C280.53,-189.521 283.312,-188.684 286,-188 388.705,-161.856 420.994,-176.724 527.498,-152.134"/>
<polygon fill="midnightblue" stroke="midnightblue" points="528.425,-155.511 537.347,-149.797 526.81,-148.7 528.425,-155.511"/>
</g>
<!-- Node9&#45;&gt;Node4 -->
<g id="edge22" class="edge"><title>Node9&#45;&gt;Node4</title>
<path fill="none" stroke="midnightblue" d="M234.328,-196.153C196.5,-190.713 116.407,-177.09 53,-152 51.1337,-151.262 49.2457,-150.423 47.371,-149.523"/>
<polygon fill="midnightblue" stroke="midnightblue" points="48.7414,-146.287 38.2713,-144.665 45.4451,-152.462 48.7414,-146.287"/>
</g>
<!-- Node9&#45;&gt;Node5 -->
<g id="edge36" class="edge"><title>Node9&#45;&gt;Node5</title>
<path fill="none" stroke="midnightblue" d="M234.278,-188.986C214.893,-180.05 185.857,-166.665 161.287,-155.338"/>
<polygon fill="midnightblue" stroke="midnightblue" points="162.666,-152.12 152.119,-151.112 159.735,-158.477 162.666,-152.12"/>
</g>
<!-- Node9&#45;&gt;Node6 -->
<g id="edge34" class="edge"><title>Node9&#45;&gt;Node6</title>
<path fill="none" stroke="midnightblue" d="M247.653,-188.362C230.394,-166.365 190.582,-115.624 168.836,-87.909"/>
<polygon fill="midnightblue" stroke="midnightblue" points="171.389,-85.4923 162.462,-79.7854 165.882,-89.8134 171.389,-85.4923"/>
</g>
<!-- Node9&#45;&gt;Node7 -->
<g id="edge20" class="edge"><title>Node9&#45;&gt;Node7</title>
<path fill="none" stroke="midnightblue" d="M253.406,-188.226C247.555,-164.41 232.471,-105.628 215,-58 211.674,-48.933 207.414,-39.1461 203.601,-30.8626"/>
<polygon fill="midnightblue" stroke="midnightblue" points="206.692,-29.2098 199.265,-21.6536 200.359,-32.1919 206.692,-29.2098"/>
</g>
<!-- Node10 -->
<g id="node22" class="node"><title>Node10</title>
<polygon fill="none" stroke="#bfbfbf" points="262,-123.5 262,-144.5 318,-144.5 318,-123.5 262,-123.5"/>
<text text-anchor="middle" x="290" y="-131.5" font-family="Helvetica,sans-Serif" font-size="10.00">algorithm</text>
</g>
<!-- Node9&#45;&gt;Node10 -->
<g id="edge24" class="edge"><title>Node9&#45;&gt;Node10</title>
<path fill="none" stroke="midnightblue" d="M261.614,-188.267C266.516,-178.896 273.755,-165.057 279.695,-153.7"/>
<polygon fill="midnightblue" stroke="midnightblue" points="282.956,-155.017 284.49,-144.534 276.754,-151.772 282.956,-155.017"/>
</g>
<!-- Node11 -->
<g id="node24" class="node"><title>Node11</title>
<polygon fill="none" stroke="#bfbfbf" points="336,-123.5 336,-144.5 380,-144.5 380,-123.5 336,-123.5"/>
<text text-anchor="middle" x="358" y="-131.5" font-family="Helvetica,sans-Serif" font-size="10.00">cmath</text>
</g>
<!-- Node9&#45;&gt;Node11 -->
<g id="edge26" class="edge"><title>Node9&#45;&gt;Node11</title>
<path fill="none" stroke="midnightblue" d="M272.843,-188.267C289.182,-177.855 314.176,-161.927 332.867,-150.016"/>
<polygon fill="midnightblue" stroke="midnightblue" points="334.918,-152.859 341.47,-144.534 331.156,-146.956 334.918,-152.859"/>
</g>
<!-- Node12 -->
<g id="node26" class="node"><title>Node12</title>
<polygon fill="none" stroke="#bfbfbf" points="398,-123.5 398,-144.5 450,-144.5 450,-123.5 398,-123.5"/>
<text text-anchor="middle" x="424" y="-131.5" font-family="Helvetica,sans-Serif" font-size="10.00">sstream</text>
</g>
<!-- Node9&#45;&gt;Node12 -->
<g id="edge28" class="edge"><title>Node9&#45;&gt;Node12</title>
<path fill="none" stroke="midnightblue" d="M277.616,-191.03C280.434,-190.004 283.284,-188.972 286,-188 331.655,-171.652 344.442,-171.135 389,-152 391.091,-151.102 393.231,-150.133 395.372,-149.126"/>
<polygon fill="midnightblue" stroke="midnightblue" points="397.182,-152.136 404.608,-144.579 394.09,-145.856 397.182,-152.136"/>
</g>
<!-- Node13 -->
<g id="node28" class="node"><title>Node13</title>
<polygon fill="none" stroke="#bfbfbf" points="467.5,-123.5 467.5,-144.5 520.5,-144.5 520.5,-123.5 467.5,-123.5"/>
<text text-anchor="middle" x="494" y="-131.5" font-family="Helvetica,sans-Serif" font-size="10.00">wx/wx.h</text>
</g>
<!-- Node9&#45;&gt;Node13 -->
<g id="edge30" class="edge"><title>Node9&#45;&gt;Node13</title>
<path fill="none" stroke="midnightblue" d="M277.506,-190.687C280.342,-189.717 283.226,-188.792 286,-188 361.514,-166.424 384.962,-178.197 459,-152 461.424,-151.142 463.891,-150.148 466.337,-149.076"/>
<polygon fill="midnightblue" stroke="midnightblue" points="468.016,-152.152 475.525,-144.678 464.993,-145.838 468.016,-152.152"/>
</g>
</g>
</svg>
