<?xml version="1.0" encoding="UTF-8" standalone="no"?>
<!DOCTYPE svg PUBLIC "-//W3C//DTD SVG 1.1//EN"
 "http://www.w3.org/Graphics/SVG/1.1/DTD/svg11.dtd">
<!-- Generated by graphviz version 2.26.3 (20100126.1600)
 -->
<!-- Title: Grafische Darstellung der Klassenhierarchie Pages: 1 -->
<svg width="194pt" height="70pt"
 viewBox="0.00 0.00 194.00 70.00" xmlns="http://www.w3.org/2000/svg" xmlns:xlink="http://www.w3.org/1999/xlink">
<g id="graph1" class="graph" transform="scale(1 1) rotate(0) translate(4 66)">
<title>Grafische Darstellung der Klassenhierarchie</title>
<!-- Node1 -->
<g id="node1" class="node"><title>Node1</title>
<polygon fill="none" stroke="#bfbfbf" points="0,-20.5 0,-41.5 72,-41.5 72,-20.5 0,-20.5"/>
<text text-anchor="middle" x="36" y="-28.5" font-family="Helvetica,sans-Serif" font-size="10.00">wxStaticBox</text>
</g>
<!-- Node2 -->
<g id="node3" class="node"><title>Node2</title>
<a xlink:href="classPropertiesBox.xhtml" target="_top" xlink:title="Oberfl채che zum Ver채ndern/Anzeigen der Eigenschaften eines Objekts. ">
<polygon fill="none" stroke="black" points="108,-40.5 108,-61.5 186,-61.5 186,-40.5 108,-40.5"/>
<text text-anchor="middle" x="147" y="-48.5" font-family="Helvetica,sans-Serif" font-size="10.00">PropertiesBox</text>
</a>
</g>
<!-- Node1&#45;&gt;Node2 -->
<g id="edge2" class="edge"><title>Node1&#45;&gt;Node2</title>
<path fill="none" stroke="midnightblue" d="M81.8991,-39.2701C90.4655,-40.8136 99.3465,-42.4138 107.692,-43.9175"/>
<polygon fill="midnightblue" stroke="midnightblue" points="82.5007,-35.8222 72.0385,-37.4934 81.2594,-42.7113 82.5007,-35.8222"/>
</g>
<!-- Node3 -->
<g id="node5" class="node"><title>Node3</title>
<a xlink:href="classViewpropBox.xhtml" target="_top" xlink:title="Oberfl채che zum Ver채ndern/Anzeigen der Visualisierungsoptionen. ">
<polygon fill="none" stroke="black" points="110,-0.5 110,-21.5 184,-21.5 184,-0.5 110,-0.5"/>
<text text-anchor="middle" x="147" y="-8.5" font-family="Helvetica,sans-Serif" font-size="10.00">ViewpropBox</text>
</a>
</g>
<!-- Node1&#45;&gt;Node3 -->
<g id="edge4" class="edge"><title>Node1&#45;&gt;Node3</title>
<path fill="none" stroke="midnightblue" d="M82.1631,-22.6823C91.3104,-21.0342 100.806,-19.3232 109.618,-17.7356"/>
<polygon fill="midnightblue" stroke="midnightblue" points="81.2594,-19.2887 72.0385,-24.5066 82.5007,-26.1778 81.2594,-19.2887"/>
</g>
</g>
</svg>
