<?xml version="1.0" encoding="UTF-8" standalone="no"?>
<!DOCTYPE svg PUBLIC "-//W3C//DTD SVG 1.1//EN"
 "http://www.w3.org/Graphics/SVG/1.1/DTD/svg11.dtd">
<!-- Generated by graphviz version 2.36.0 (20140111.2315)
 -->
<!-- Title: Grafische Darstellung der Klassenhierarchie Pages: 1 -->
<svg width="194pt" height="66pt"
 viewBox="0.00 0.00 194.00 66.00" xmlns="http://www.w3.org/2000/svg" xmlns:xlink="http://www.w3.org/1999/xlink">
<g id="graph0" class="graph" transform="scale(1 1) rotate(0) translate(4 62)">
<title>Grafische Darstellung der Klassenhierarchie</title>
<!-- Node1 -->
<g id="node1" class="node"><title>Node1</title>
<polygon fill="none" stroke="#bfbfbf" points="0,-19.5 0,-38.5 72,-38.5 72,-19.5 0,-19.5"/>
<text text-anchor="middle" x="36" y="-26.5" font-family="Helvetica,sans-Serif" font-size="10.00">wxStaticBox</text>
</g>
<!-- Node2 -->
<g id="node2" class="node"><title>Node2</title>
<g id="a_node2"><a xlink:href="classPropertiesBox.xhtml" target="_top" xlink:title="Oberfl채che zum Ver채ndern/Anzeigen der Eigenschaften eines Objekts. ">
<polygon fill="none" stroke="black" points="108,-38.5 108,-57.5 186,-57.5 186,-38.5 108,-38.5"/>
<text text-anchor="middle" x="147" y="-45.5" font-family="Helvetica,sans-Serif" font-size="10.00">PropertiesBox</text>
</a>
</g>
</g>
<!-- Node1&#45;&gt;Node2 -->
<g id="edge1" class="edge"><title>Node1&#45;&gt;Node2</title>
<path fill="none" stroke="midnightblue" d="M82.0084,-36.8455C90.6328,-38.3488 99.5845,-39.9092 107.963,-41.3697"/>
<polygon fill="midnightblue" stroke="midnightblue" points="82.5408,-33.3856 72.0883,-35.1163 81.3387,-40.2816 82.5408,-33.3856"/>
</g>
<!-- Node3 -->
<g id="node3" class="node"><title>Node3</title>
<g id="a_node3"><a xlink:href="classViewpropBox.xhtml" target="_top" xlink:title="Oberfl채che zum Ver채ndern/Anzeigen der Visualisierungsoptionen. ">
<polygon fill="none" stroke="black" points="110,-0.5 110,-19.5 184,-19.5 184,-0.5 110,-0.5"/>
<text text-anchor="middle" x="147" y="-7.5" font-family="Helvetica,sans-Serif" font-size="10.00">ViewpropBox</text>
</a>
</g>
</g>
<!-- Node1&#45;&gt;Node3 -->
<g id="edge2" class="edge"><title>Node1&#45;&gt;Node3</title>
<path fill="none" stroke="midnightblue" d="M81.9656,-21.162C91.2553,-19.5427 100.926,-17.8569 109.854,-16.3007"/>
<polygon fill="midnightblue" stroke="midnightblue" points="81.3387,-17.7184 72.0883,-22.8837 82.5408,-24.6144 81.3387,-17.7184"/>
</g>
</g>
</svg>
