<?xml version="1.0" encoding="UTF-8" standalone="no"?>
<!DOCTYPE svg PUBLIC "-//W3C//DTD SVG 1.1//EN"
 "http://www.w3.org/Graphics/SVG/1.1/DTD/svg11.dtd">
<!-- Generated by graphviz version 2.26.3 (20100126.1600)
 -->
<!-- Title: Grafische Darstellung der Klassenhierarchie Pages: 1 -->
<svg width="214pt" height="70pt"
 viewBox="0.00 0.00 214.00 70.00" xmlns="http://www.w3.org/2000/svg" xmlns:xlink="http://www.w3.org/1999/xlink">
<g id="graph1" class="graph" transform="scale(1 1) rotate(0) translate(4 66)">
<title>Grafische Darstellung der Klassenhierarchie</title>
<!-- Node1 -->
<g id="node1" class="node"><title>Node1</title>
<polygon fill="none" stroke="#bfbfbf" points="0,-20.5 0,-41.5 54,-41.5 54,-20.5 0,-20.5"/>
<text text-anchor="middle" x="27" y="-28.5" font-family="Helvetica,sans-Serif" font-size="10.00">wxPanel</text>
</g>
<!-- Node2 -->
<g id="node3" class="node"><title>Node2</title>
<a xlink:href="classGUIRenderCutCanvas.xhtml" target="_top" xlink:title="Zeichenfläche für die 2D&#45;Temperaturverteilung. ">
<polygon fill="none" stroke="black" points="90,-40.5 90,-61.5 206,-61.5 206,-40.5 90,-40.5"/>
<text text-anchor="middle" x="148" y="-48.5" font-family="Helvetica,sans-Serif" font-size="10.00">GUIRenderCutCanvas</text>
</a>
</g>
<!-- Node1&#45;&gt;Node2 -->
<g id="edge2" class="edge"><title>Node1&#45;&gt;Node2</title>
<path fill="none" stroke="midnightblue" d="M64.0563,-37.125C72.2,-38.4711 81.0141,-39.928 89.765,-41.3744"/>
<polygon fill="midnightblue" stroke="midnightblue" points="64.5917,-33.6661 54.1548,-35.4884 63.4501,-40.5724 64.5917,-33.6661"/>
</g>
<!-- Node3 -->
<g id="node5" class="node"><title>Node3</title>
<a xlink:href="classGUITimeline.xhtml" target="_top" xlink:title="Eine Zeitleistenkomponente. ">
<polygon fill="none" stroke="black" points="112.5,-0.5 112.5,-21.5 183.5,-21.5 183.5,-0.5 112.5,-0.5"/>
<text text-anchor="middle" x="148" y="-8.5" font-family="Helvetica,sans-Serif" font-size="10.00">GUITimeline</text>
</a>
</g>
<!-- Node1&#45;&gt;Node3 -->
<g id="edge4" class="edge"><title>Node1&#45;&gt;Node3</title>
<path fill="none" stroke="midnightblue" d="M64.2851,-24.8372C79.5386,-22.3159 97.1128,-19.4111 112.209,-16.9159"/>
<polygon fill="midnightblue" stroke="midnightblue" points="63.4501,-21.4276 54.1548,-26.5116 64.5917,-28.3339 63.4501,-21.4276"/>
</g>
</g>
</svg>
