<?xml version="1.0" encoding="UTF-8" standalone="no"?>
<!DOCTYPE svg PUBLIC "-//W3C//DTD SVG 1.1//EN"
 "http://www.w3.org/Graphics/SVG/1.1/DTD/svg11.dtd">
<!-- Generated by graphviz version 2.26.3 (20100126.1600)
 -->
<!-- Title: simpleanalyzer&#45;gui/src/libraries/interpolate/Interpolator.cpp Pages: 1 -->
<svg width="212pt" height="230pt"
 viewBox="0.00 0.00 212.00 230.00" xmlns="http://www.w3.org/2000/svg" xmlns:xlink="http://www.w3.org/1999/xlink">
<g id="graph1" class="graph" transform="scale(1 1) rotate(0) translate(4 226)">
<title>simpleanalyzer&#45;gui/src/libraries/interpolate/Interpolator.cpp</title>
<!-- Node1 -->
<g id="node1" class="node"><title>Node1</title>
<polygon fill="#bfbfbf" stroke="black" points="73,-174.5 73,-221.5 191,-221.5 191,-174.5 73,-174.5"/>
<text text-anchor="start" x="81" y="-208.5" font-family="Helvetica,sans-Serif" font-size="10.00">simpleanalyzer&#45;gui</text>
<text text-anchor="start" x="81" y="-195.5" font-family="Helvetica,sans-Serif" font-size="10.00">/src/libraries/interpolate</text>
<text text-anchor="middle" x="132" y="-182.5" font-family="Helvetica,sans-Serif" font-size="10.00">/Interpolator.cpp</text>
</g>
<!-- Node2 -->
<g id="node3" class="node"><title>Node2</title>
<a xlink:href="Interpolator_8h.xhtml" target="_top" xlink:title="Interpolator.h">
<polygon fill="none" stroke="black" points="23,-116.5 23,-137.5 97,-137.5 97,-116.5 23,-116.5"/>
<text text-anchor="middle" x="60" y="-124.5" font-family="Helvetica,sans-Serif" font-size="10.00">Interpolator.h</text>
</a>
</g>
<!-- Node1&#45;&gt;Node2 -->
<g id="edge2" class="edge"><title>Node1&#45;&gt;Node2</title>
<path fill="none" stroke="midnightblue" d="M108.025,-174.358C98.28,-164.748 87.2068,-153.829 78.151,-144.899"/>
<polygon fill="midnightblue" stroke="midnightblue" points="80.374,-142.176 70.7962,-137.646 75.459,-147.16 80.374,-142.176"/>
</g>
<!-- Node4 -->
<g id="node7" class="node"><title>Node4</title>
<polygon fill="none" stroke="#bfbfbf" points="65,-0.5 65,-21.5 119,-21.5 119,-0.5 65,-0.5"/>
<text text-anchor="middle" x="92" y="-8.5" font-family="Helvetica,sans-Serif" font-size="10.00">iostream</text>
</g>
<!-- Node1&#45;&gt;Node4 -->
<g id="edge8" class="edge"><title>Node1&#45;&gt;Node4</title>
<path fill="none" stroke="midnightblue" d="M130.844,-174.296C129,-146.11 124.358,-97.8666 113,-58 110.389,-48.8341 106.309,-39.1488 102.437,-30.9674"/>
<polygon fill="midnightblue" stroke="midnightblue" points="105.506,-29.2769 97.9304,-21.8698 99.2331,-32.3842 105.506,-29.2769"/>
</g>
<!-- Node5 -->
<g id="node10" class="node"><title>Node5</title>
<polygon fill="none" stroke="#bfbfbf" points="160,-116.5 160,-137.5 204,-137.5 204,-116.5 160,-116.5"/>
<text text-anchor="middle" x="182" y="-124.5" font-family="Helvetica,sans-Serif" font-size="10.00">cmath</text>
</g>
<!-- Node1&#45;&gt;Node5 -->
<g id="edge10" class="edge"><title>Node1&#45;&gt;Node5</title>
<path fill="none" stroke="midnightblue" d="M148.649,-174.358C155.143,-165.137 162.486,-154.709 168.626,-145.991"/>
<polygon fill="midnightblue" stroke="midnightblue" points="171.606,-147.838 174.503,-137.646 165.883,-143.807 171.606,-147.838"/>
</g>
<!-- Node3 -->
<g id="node5" class="node"><title>Node3</title>
<a xlink:href="GeometryClasses_8h.xhtml" target="_top" xlink:title="GeometryClasses.h">
<polygon fill="none" stroke="black" points="0,-58.5 0,-79.5 104,-79.5 104,-58.5 0,-58.5"/>
<text text-anchor="middle" x="52" y="-66.5" font-family="Helvetica,sans-Serif" font-size="10.00">GeometryClasses.h</text>
</a>
</g>
<!-- Node2&#45;&gt;Node3 -->
<g id="edge4" class="edge"><title>Node2&#45;&gt;Node3</title>
<path fill="none" stroke="midnightblue" d="M58.5327,-116.362C57.5065,-108.922 56.1024,-98.7427 54.859,-89.7276"/>
<polygon fill="midnightblue" stroke="midnightblue" points="58.2917,-88.9986 53.458,-79.5707 51.3573,-89.9551 58.2917,-88.9986"/>
</g>
<!-- Node3&#45;&gt;Node4 -->
<g id="edge6" class="edge"><title>Node3&#45;&gt;Node4</title>
<path fill="none" stroke="midnightblue" d="M59.3366,-58.3619C64.806,-50.4313 72.4217,-39.3885 78.9237,-29.9606"/>
<polygon fill="midnightblue" stroke="midnightblue" points="81.9138,-31.7899 84.7099,-21.5707 76.1513,-27.8157 81.9138,-31.7899"/>
</g>
</g>
</svg>
