<?xml version="1.0" encoding="UTF-8" standalone="no"?>
<!DOCTYPE svg PUBLIC "-//W3C//DTD SVG 1.1//EN"
 "http://www.w3.org/Graphics/SVG/1.1/DTD/svg11.dtd">
<!-- Generated by graphviz version 2.26.3 (20100126.1600)
 -->
<!-- Title: /daten/Projekte/eclipse_workspace/simpleanalyzer&#45;gui/src/processing/MeshProcessor.h Pages: 1 -->
<svg width="744pt" height="140pt"
 viewBox="0.00 0.00 744.00 140.00" xmlns="http://www.w3.org/2000/svg" xmlns:xlink="http://www.w3.org/1999/xlink">
<g id="graph1" class="graph" transform="scale(1 1) rotate(0) translate(4 136)">
<title>/daten/Projekte/eclipse_workspace/simpleanalyzer&#45;gui/src/processing/MeshProcessor.h</title>
<!-- Node1 -->
<g id="node1" class="node"><title>Node1</title>
<polygon fill="#bfbfbf" stroke="black" points="268.5,-84.5 268.5,-131.5 447.5,-131.5 447.5,-84.5 268.5,-84.5"/>
<text text-anchor="start" x="276.5" y="-118.5" font-family="Helvetica,sans-Serif" font-size="10.00">/daten/Projekte/eclipse</text>
<text text-anchor="start" x="276.5" y="-105.5" font-family="Helvetica,sans-Serif" font-size="10.00">_workspace/simpleanalyzer</text>
<text text-anchor="middle" x="358" y="-92.5" font-family="Helvetica,sans-Serif" font-size="10.00">&#45;gui/src/processing/MeshProcessor.h</text>
</g>
<!-- Node2 -->
<g id="node3" class="node"><title>Node2</title>
<a xlink:href="GUIMainWindow_8cpp.xhtml" target="_top" xlink:title="/daten/Projekte/eclipse\l_workspace/simpleanalyzer\l&#45;gui/src/GUI/GUIMainWindow.cpp">
<polygon fill="none" stroke="black" points="0,-0.5 0,-47.5 166,-47.5 166,-0.5 0,-0.5"/>
<text text-anchor="start" x="8" y="-34.5" font-family="Helvetica,sans-Serif" font-size="10.00">/daten/Projekte/eclipse</text>
<text text-anchor="start" x="8" y="-21.5" font-family="Helvetica,sans-Serif" font-size="10.00">_workspace/simpleanalyzer</text>
<text text-anchor="middle" x="83" y="-8.5" font-family="Helvetica,sans-Serif" font-size="10.00">&#45;gui/src/GUI/GUIMainWindow.cpp</text>
</a>
</g>
<!-- Node1&#45;&gt;Node2 -->
<g id="edge2" class="edge"><title>Node1&#45;&gt;Node2</title>
<path fill="none" stroke="midnightblue" d="M271.122,-81.4628C235.459,-70.5693 194.515,-58.0627 159.95,-47.5047"/>
<polygon fill="midnightblue" stroke="midnightblue" points="270.445,-84.9156 281.031,-84.4896 272.49,-78.2209 270.445,-84.9156"/>
</g>
<!-- Node3 -->
<g id="node5" class="node"><title>Node3</title>
<a xlink:href="Analyzer_8cpp.xhtml" target="_top" xlink:title="/daten/Projekte/eclipse\l_workspace/simpleanalyzer\l&#45;gui/src/processing/Analyzer.cpp">
<polygon fill="none" stroke="black" points="183.5,-0.5 183.5,-47.5 342.5,-47.5 342.5,-0.5 183.5,-0.5"/>
<text text-anchor="start" x="191.5" y="-34.5" font-family="Helvetica,sans-Serif" font-size="10.00">/daten/Projekte/eclipse</text>
<text text-anchor="start" x="191.5" y="-21.5" font-family="Helvetica,sans-Serif" font-size="10.00">_workspace/simpleanalyzer</text>
<text text-anchor="middle" x="263" y="-8.5" font-family="Helvetica,sans-Serif" font-size="10.00">&#45;gui/src/processing/Analyzer.cpp</text>
</a>
</g>
<!-- Node1&#45;&gt;Node3 -->
<g id="edge4" class="edge"><title>Node1&#45;&gt;Node3</title>
<path fill="none" stroke="midnightblue" d="M323.762,-77.7264C312.602,-67.859 300.381,-57.0529 289.844,-47.736"/>
<polygon fill="midnightblue" stroke="midnightblue" points="321.474,-80.3757 331.284,-84.3778 326.111,-75.1317 321.474,-80.3757"/>
</g>
<!-- Node4 -->
<g id="node7" class="node"><title>Node4</title>
<a xlink:href="MeshProcessor_8cpp.xhtml" target="_top" xlink:title="/daten/Projekte/eclipse\l_workspace/simpleanalyzer\l&#45;gui/src/processing/MeshProcessor.cpp">
<polygon fill="none" stroke="black" points="359.5,-0.5 359.5,-47.5 548.5,-47.5 548.5,-0.5 359.5,-0.5"/>
<text text-anchor="start" x="367.5" y="-34.5" font-family="Helvetica,sans-Serif" font-size="10.00">/daten/Projekte/eclipse</text>
<text text-anchor="start" x="367.5" y="-21.5" font-family="Helvetica,sans-Serif" font-size="10.00">_workspace/simpleanalyzer</text>
<text text-anchor="middle" x="454" y="-8.5" font-family="Helvetica,sans-Serif" font-size="10.00">&#45;gui/src/processing/MeshProcessor.cpp</text>
</a>
</g>
<!-- Node1&#45;&gt;Node4 -->
<g id="edge6" class="edge"><title>Node1&#45;&gt;Node4</title>
<path fill="none" stroke="midnightblue" d="M392.598,-77.7264C403.875,-67.859 416.225,-57.0529 426.873,-47.736"/>
<polygon fill="midnightblue" stroke="midnightblue" points="390.218,-75.1587 384.997,-84.3778 394.827,-80.4267 390.218,-75.1587"/>
</g>
<!-- Node5 -->
<g id="node9" class="node"><title>Node5</title>
<a xlink:href="ObjectData_8cpp.xhtml" target="_top" xlink:title="/daten/Projekte/eclipse\l_workspace/simpleanalyzer\l&#45;gui/src/processing/ObjectData.cpp">
<polygon fill="none" stroke="black" points="566,-0.5 566,-47.5 736,-47.5 736,-0.5 566,-0.5"/>
<text text-anchor="start" x="574" y="-34.5" font-family="Helvetica,sans-Serif" font-size="10.00">/daten/Projekte/eclipse</text>
<text text-anchor="start" x="574" y="-21.5" font-family="Helvetica,sans-Serif" font-size="10.00">_workspace/simpleanalyzer</text>
<text text-anchor="middle" x="651" y="-8.5" font-family="Helvetica,sans-Serif" font-size="10.00">&#45;gui/src/processing/ObjectData.cpp</text>
</a>
</g>
<!-- Node1&#45;&gt;Node5 -->
<g id="edge8" class="edge"><title>Node1&#45;&gt;Node5</title>
<path fill="none" stroke="midnightblue" d="M450.077,-81.6024C488.189,-70.6762 532.029,-58.1079 569.013,-47.5047"/>
<polygon fill="midnightblue" stroke="midnightblue" points="448.655,-78.3692 440.006,-84.4896 450.584,-85.0981 448.655,-78.3692"/>
</g>
</g>
</svg>
