<?xml version="1.0" encoding="UTF-8" standalone="no"?>
<!DOCTYPE svg PUBLIC "-//W3C//DTD SVG 1.1//EN"
 "http://www.w3.org/Graphics/SVG/1.1/DTD/svg11.dtd">
<!-- Generated by graphviz version 2.26.3 (20100126.1600)
 -->
<!-- Title: simpleanalyzer&#45;gui/src/processing/MeshProcessor.h Pages: 1 -->
<svg width="680pt" height="116pt"
 viewBox="0.00 0.00 680.00 116.00" xmlns="http://www.w3.org/2000/svg" xmlns:xlink="http://www.w3.org/1999/xlink">
<g id="graph1" class="graph" transform="scale(1 1) rotate(0) translate(4 112)">
<title>simpleanalyzer&#45;gui/src/processing/MeshProcessor.h</title>
<!-- Node1 -->
<g id="node1" class="node"><title>Node1</title>
<polygon fill="#bfbfbf" stroke="black" points="244.5,-73 244.5,-107 407.5,-107 407.5,-73 244.5,-73"/>
<text text-anchor="start" x="252.5" y="-94" font-family="Helvetica,sans-Serif" font-size="10.00">simpleanalyzer&#45;gui</text>
<text text-anchor="middle" x="326" y="-81" font-family="Helvetica,sans-Serif" font-size="10.00">/src/processing/MeshProcessor.h</text>
</g>
<!-- Node2 -->
<g id="node3" class="node"><title>Node2</title>
<a xlink:href="GUIMainWindow_8cpp.xhtml" target="_top" xlink:title="simpleanalyzer&#45;gui\l/src/GUI/GUIMainWindow.cpp">
<polygon fill="none" stroke="black" points="0,-1 0,-35 150,-35 150,-1 0,-1"/>
<text text-anchor="start" x="8" y="-22" font-family="Helvetica,sans-Serif" font-size="10.00">simpleanalyzer&#45;gui</text>
<text text-anchor="middle" x="75" y="-9" font-family="Helvetica,sans-Serif" font-size="10.00">/src/GUI/GUIMainWindow.cpp</text>
</a>
</g>
<!-- Node1&#45;&gt;Node2 -->
<g id="edge2" class="edge"><title>Node1&#45;&gt;Node2</title>
<path fill="none" stroke="midnightblue" d="M256.469,-70.0547C218.155,-59.0643 171.089,-45.5632 134.491,-35.0651"/>
<polygon fill="midnightblue" stroke="midnightblue" points="255.939,-73.5439 266.517,-72.937 257.869,-66.8153 255.939,-73.5439"/>
</g>
<!-- Node3 -->
<g id="node5" class="node"><title>Node3</title>
<a xlink:href="Analyzer_8cpp.xhtml" target="_top" xlink:title="simpleanalyzer&#45;gui\l/src/processing/Analyzer.cpp">
<polygon fill="none" stroke="black" points="167.5,-1 167.5,-35 310.5,-35 310.5,-1 167.5,-1"/>
<text text-anchor="start" x="175.5" y="-22" font-family="Helvetica,sans-Serif" font-size="10.00">simpleanalyzer&#45;gui</text>
<text text-anchor="middle" x="239" y="-9" font-family="Helvetica,sans-Serif" font-size="10.00">/src/processing/Analyzer.cpp</text>
</a>
</g>
<!-- Node1&#45;&gt;Node3 -->
<g id="edge4" class="edge"><title>Node1&#45;&gt;Node3</title>
<path fill="none" stroke="midnightblue" d="M297.596,-66.493C285.267,-56.2899 271.091,-44.5583 259.771,-35.19"/>
<polygon fill="midnightblue" stroke="midnightblue" points="295.447,-69.2577 305.382,-72.937 299.91,-63.8649 295.447,-69.2577"/>
</g>
<!-- Node4 -->
<g id="node7" class="node"><title>Node4</title>
<a xlink:href="MeshProcessor_8cpp.xhtml" target="_top" xlink:title="simpleanalyzer&#45;gui\l/src/processing/MeshProcessor.cpp">
<polygon fill="none" stroke="black" points="327.5,-1 327.5,-35 500.5,-35 500.5,-1 327.5,-1"/>
<text text-anchor="start" x="335.5" y="-22" font-family="Helvetica,sans-Serif" font-size="10.00">simpleanalyzer&#45;gui</text>
<text text-anchor="middle" x="414" y="-9" font-family="Helvetica,sans-Serif" font-size="10.00">/src/processing/MeshProcessor.cpp</text>
</a>
</g>
<!-- Node1&#45;&gt;Node4 -->
<g id="edge6" class="edge"><title>Node1&#45;&gt;Node4</title>
<path fill="none" stroke="midnightblue" d="M354.731,-66.493C367.201,-56.2899 381.54,-44.5583 392.99,-35.19"/>
<polygon fill="midnightblue" stroke="midnightblue" points="352.378,-63.8957 346.855,-72.937 356.811,-69.3134 352.378,-63.8957"/>
</g>
<!-- Node5 -->
<g id="node9" class="node"><title>Node5</title>
<a xlink:href="ObjectData_8cpp.xhtml" target="_top" xlink:title="simpleanalyzer&#45;gui\l/src/processing/ObjectData.cpp">
<polygon fill="none" stroke="black" points="517.5,-1 517.5,-35 672.5,-35 672.5,-1 517.5,-1"/>
<text text-anchor="start" x="525.5" y="-22" font-family="Helvetica,sans-Serif" font-size="10.00">simpleanalyzer&#45;gui</text>
<text text-anchor="middle" x="595" y="-9" font-family="Helvetica,sans-Serif" font-size="10.00">/src/processing/ObjectData.cpp</text>
</a>
</g>
<!-- Node1&#45;&gt;Node5 -->
<g id="edge8" class="edge"><title>Node1&#45;&gt;Node5</title>
<path fill="none" stroke="midnightblue" d="M399.471,-70.3348C440.72,-59.2943 491.687,-45.6526 531.243,-35.0651"/>
<polygon fill="midnightblue" stroke="midnightblue" points="398.504,-66.9704 389.749,-72.937 400.314,-73.7324 398.504,-66.9704"/>
</g>
</g>
</svg>
