<?xml version="1.0" encoding="UTF-8" standalone="no"?>
<!DOCTYPE svg PUBLIC "-//W3C//DTD SVG 1.1//EN"
 "http://www.w3.org/Graphics/SVG/1.1/DTD/svg11.dtd">
<!-- Generated by graphviz version 2.36.0 (20140111.2315)
 -->
<!-- Title: Utils::hsvToRgb Pages: 1 -->
<!--zoomable 243 -->
<svg id="main" version="1.1" xmlns="http://www.w3.org/2000/svg" xmlns:xlink="http://www.w3.org/1999/xlink" xml:space="preserve" onload="init(evt)">
<style type="text/css"><![CDATA[
.edge:hover path { stroke: red; }
.edge:hover polygon { stroke: red; fill: red; }
]]></style>
<script type="text/javascript"><![CDATA[
var edges = document.getElementsByTagName('g');
if (edges && edges.length) {
  for (var i=0;i<edges.length;i++) {
    if (edges[i].id.substr(0,4)=='edge') {
      edges[i].setAttribute('class','edge');
    }
  }
}
]]></script>
        <defs>
                <circle id="rim" cx="0" cy="0" r="7"/>
                <circle id="rim2" cx="0" cy="0" r="3.5"/>
                <g id="zoomPlus">
                        <use xlink:href="#rim" fill="#404040">
                                <set attributeName="fill" to="#808080" begin="zoomplus.mouseover" end="zoomplus.mouseout"/>
                        </use>
                        <path d="M-4,0h8M0,-4v8" fill="none" stroke="white" stroke-width="1.5" pointer-events="none"/>
                </g>
                <g id="zoomMin">
                        <use xlink:href="#rim" fill="#404040">
                                <set attributeName="fill" to="#808080" begin="zoomminus.mouseover" end="zoomminus.mouseout"/>
                        </use>
                        <path d="M-4,0h8" fill="none" stroke="white" stroke-width="1.5" pointer-events="none"/>
                </g>
                <g id="dirArrow">
                        <path fill="none" stroke="white" stroke-width="1.5" d="M0,-3.0v7 M-2.5,-0.5L0,-3.0L2.5,-0.5"/>
                </g>
               <g id="resetDef">
                       <use xlink:href="#rim2" fill="#404040">
                               <set attributeName="fill" to="#808080" begin="reset.mouseover" end="reset.mouseout"/>
                       </use>
               </g>
        </defs>

<script type="text/javascript">
var viewWidth = 614;
var viewHeight = 243;
var sectionId = 'dynsection-7';
</script>
<script xlink:href="svgpan.js"/>
<svg id="graph" class="graph">
<g id="viewport">
<title>Utils::hsvToRgb</title>
<!-- Node1 -->
<g id="node1" class="node"><title>Node1</title>
<polygon fill="#bfbfbf" stroke="black" points="0,-139.5 0,-158.5 88,-158.5 88,-139.5 0,-139.5"/>
<text text-anchor="middle" x="44" y="-146.5" font-family="Helvetica,sans-Serif" font-size="10.00">Utils::hsvToRgb</text>
</g>
<!-- Node2 -->
<g id="node2" class="node"><title>Node2</title>
<g id="a_node2"><a xlink:href="classRenderer.xhtml#a927f376a6283de3181b86f65b927386c" target="_top" xlink:title="Zeichnet die Tetraeder eines Materials des Objekts. ">
<polygon fill="none" stroke="black" points="127,-215.5 127,-234.5 263,-234.5 263,-215.5 127,-215.5"/>
<text text-anchor="middle" x="195" y="-222.5" font-family="Helvetica,sans-Serif" font-size="10.00">Renderer::renderTetrahedra</text>
</a>
</g>
</g>
<!-- Node1&#45;&gt;Node2 -->
<g id="edge1" class="edge"><title>Node1&#45;&gt;Node2</title>
<path fill="none" stroke="midnightblue" d="M63.3611,-165.21C78.6397,-177.938 101.46,-195.25 124,-206 131.956,-209.795 140.795,-212.935 149.439,-215.494"/>
<polygon fill="midnightblue" stroke="midnightblue" points="65.5803,-162.503 55.6986,-158.682 61.0405,-167.831 65.5803,-162.503"/>
</g>
<!-- Node3 -->
<g id="node3" class="node"><title>Node3</title>
<g id="a_node3"><a xlink:href="classRenderer.xhtml#ad2eac0343aef1abd05ed95b1b364785f" target="_top" xlink:title="Zeichnet Sensordaten als Punkte. ">
<polygon fill="none" stroke="black" points="124.5,-177.5 124.5,-196.5 265.5,-196.5 265.5,-177.5 124.5,-177.5"/>
<text text-anchor="middle" x="195" y="-184.5" font-family="Helvetica,sans-Serif" font-size="10.00">Renderer::renderSensorData</text>
</a>
</g>
</g>
<!-- Node1&#45;&gt;Node3 -->
<g id="edge2" class="edge"><title>Node1&#45;&gt;Node3</title>
<path fill="none" stroke="midnightblue" d="M92.4922,-161.112C113.244,-166.404 137.228,-172.521 156.671,-177.48"/>
<polygon fill="midnightblue" stroke="midnightblue" points="93.1538,-157.669 82.599,-158.589 91.4239,-164.452 93.1538,-157.669"/>
</g>
<!-- Node4 -->
<g id="node4" class="node"><title>Node4</title>
<g id="a_node4"><a xlink:href="classRenderer.xhtml#acb6c468b92221cf8a121b87a70a3da0c" target="_top" xlink:title="Zeichnet die Elemente eines Materials des Objekts. ">
<polygon fill="none" stroke="black" points="133,-139.5 133,-158.5 257,-158.5 257,-139.5 133,-139.5"/>
<text text-anchor="middle" x="195" y="-146.5" font-family="Helvetica,sans-Serif" font-size="10.00">Renderer::renderMaterial</text>
</a>
</g>
</g>
<!-- Node1&#45;&gt;Node4 -->
<g id="edge3" class="edge"><title>Node1&#45;&gt;Node4</title>
<path fill="none" stroke="midnightblue" d="M98.2131,-149C109.482,-149 121.46,-149 132.991,-149"/>
<polygon fill="midnightblue" stroke="midnightblue" points="98.097,-145.5 88.097,-149 98.0969,-152.5 98.097,-145.5"/>
</g>
<!-- Node5 -->
<g id="node5" class="node"><title>Node5</title>
<g id="a_node5"><a xlink:href="classGUIColorScalePanel.xhtml#a73f647d4f5eeb6b653777bb4c55696fa" target="_top" xlink:title="Zeichnet die Temperaturskala neu. ">
<polygon fill="none" stroke="black" points="141.5,-50 141.5,-80 248.5,-80 248.5,-50 141.5,-50"/>
<text text-anchor="start" x="149.5" y="-68" font-family="Helvetica,sans-Serif" font-size="10.00">GUIColorScalePanel</text>
<text text-anchor="middle" x="195" y="-57" font-family="Helvetica,sans-Serif" font-size="10.00">::refresh</text>
</a>
</g>
</g>
<!-- Node1&#45;&gt;Node5 -->
<g id="edge4" class="edge"><title>Node1&#45;&gt;Node5</title>
<path fill="none" stroke="midnightblue" d="M64.2078,-132.98C79.6574,-120.642 102.295,-103.761 124,-92 132.131,-87.594 141.136,-83.5552 149.905,-80.0187"/>
<polygon fill="midnightblue" stroke="midnightblue" points="61.9734,-130.286 56.4157,-139.306 66.3854,-135.72 61.9734,-130.286"/>
</g>
<!-- Node11 -->
<g id="node11" class="node"><title>Node11</title>
<g id="a_node11"><a xlink:href="GUICutRenderWindow_8cpp.xhtml#aeaaae4c8452680389d221d0e60a6fc33" target="_top" xlink:title="Funktion zum verteilten berechnen der 2D&#45;Temperaturverteilung. ">
<polygon fill="none" stroke="black" points="157,-101.5 157,-120.5 233,-120.5 233,-101.5 157,-101.5"/>
<text text-anchor="middle" x="195" y="-108.5" font-family="Helvetica,sans-Serif" font-size="10.00">render_thread</text>
</a>
</g>
</g>
<!-- Node1&#45;&gt;Node11 -->
<g id="edge10" class="edge"><title>Node1&#45;&gt;Node11</title>
<path fill="none" stroke="midnightblue" d="M92.531,-136.878C113.365,-131.565 137.453,-125.421 156.929,-120.454"/>
<polygon fill="midnightblue" stroke="midnightblue" points="91.4239,-133.548 82.599,-139.411 93.1538,-140.331 91.4239,-133.548"/>
</g>
<!-- Node6 -->
<g id="node6" class="node"><title>Node6</title>
<g id="a_node6"><a xlink:href="classGUICutRenderWindow.xhtml#a9eedb7088ad31f4680a77ed3a06fa60c" target="_top" xlink:title="Berechnet die 2D&#45;Temperaturverteilung als Grafik. ">
<polygon fill="none" stroke="black" points="304.5,-98 304.5,-128 421.5,-128 421.5,-98 304.5,-98"/>
<text text-anchor="start" x="312.5" y="-116" font-family="Helvetica,sans-Serif" font-size="10.00">GUICutRenderWindow</text>
<text text-anchor="middle" x="363" y="-105" font-family="Helvetica,sans-Serif" font-size="10.00">::renderImage</text>
</a>
</g>
</g>
<!-- Node5&#45;&gt;Node6 -->
<g id="edge5" class="edge"><title>Node5&#45;&gt;Node6</title>
<path fill="none" stroke="midnightblue" d="M257.999,-82.9273C275.158,-87.889 293.599,-93.2213 310.117,-97.9976"/>
<polygon fill="midnightblue" stroke="midnightblue" points="258.647,-79.4714 248.068,-80.0558 256.702,-86.1959 258.647,-79.4714"/>
</g>
<!-- Node8 -->
<g id="node8" class="node"><title>Node8</title>
<g id="a_node8"><a xlink:href="classGUICutRenderWindow.xhtml#a0923a36cdf4e0094d78f623693ff8ac6" target="_top" xlink:title="Behandelt das Klicken auf den Button zur Wahl der Schriftfarbe auf der Skala. ">
<polygon fill="none" stroke="black" points="304.5,-49 304.5,-79 421.5,-79 421.5,-49 304.5,-49"/>
<text text-anchor="start" x="312.5" y="-67" font-family="Helvetica,sans-Serif" font-size="10.00">GUICutRenderWindow</text>
<text text-anchor="middle" x="363" y="-56" font-family="Helvetica,sans-Serif" font-size="10.00">::OnCSColorBtClick</text>
</a>
</g>
</g>
<!-- Node5&#45;&gt;Node8 -->
<g id="edge7" class="edge"><title>Node5&#45;&gt;Node8</title>
<path fill="none" stroke="midnightblue" d="M258.717,-64.6222C273.695,-64.532 289.612,-64.4361 304.349,-64.3473"/>
<polygon fill="midnightblue" stroke="midnightblue" points="258.502,-61.1233 248.523,-64.6836 258.544,-68.1232 258.502,-61.1233"/>
</g>
<!-- Node9 -->
<g id="node9" class="node"><title>Node9</title>
<g id="a_node9"><a xlink:href="classGUICutRenderWindow.xhtml#a25feed7d1598253a25fc9c3bfe4131ec" target="_top" xlink:title="Behandelt das Ändern von Parametern zur darstellung der Temperaturskala. ">
<polygon fill="none" stroke="black" points="302,-0 302,-30 424,-30 424,-0 302,-0"/>
<text text-anchor="start" x="310" y="-18" font-family="Helvetica,sans-Serif" font-size="10.00">GUICutRenderWindow</text>
<text text-anchor="middle" x="363" y="-7" font-family="Helvetica,sans-Serif" font-size="10.00">::OnColorScaleChanged</text>
</a>
</g>
</g>
<!-- Node5&#45;&gt;Node9 -->
<g id="edge8" class="edge"><title>Node5&#45;&gt;Node9</title>
<path fill="none" stroke="midnightblue" d="M255.575,-47.0558C274.041,-41.4937 294.192,-35.4242 311.943,-30.0774"/>
<polygon fill="midnightblue" stroke="midnightblue" points="254.371,-43.7629 245.805,-49.9984 256.39,-50.4655 254.371,-43.7629"/>
</g>
<!-- Node7 -->
<g id="node7" class="node"><title>Node7</title>
<g id="a_node7"><a xlink:href="classGUICutRenderWindow.xhtml#a7cd1bfbec53756a1cbbe1616b4d46c7a" target="_top" xlink:title="Behandelt das Drücken des Buttons zur Berechnung der zweidimensionalen Temperaturverteilung. ">
<polygon fill="none" stroke="black" points="474.5,-98 474.5,-128 591.5,-128 591.5,-98 474.5,-98"/>
<text text-anchor="start" x="482.5" y="-116" font-family="Helvetica,sans-Serif" font-size="10.00">GUICutRenderWindow</text>
<text text-anchor="middle" x="533" y="-105" font-family="Helvetica,sans-Serif" font-size="10.00">::renderCutBtClick</text>
</a>
</g>
</g>
<!-- Node6&#45;&gt;Node7 -->
<g id="edge6" class="edge"><title>Node6&#45;&gt;Node7</title>
<path fill="none" stroke="midnightblue" d="M431.929,-113C446.002,-113 460.7,-113 474.362,-113"/>
<polygon fill="midnightblue" stroke="midnightblue" points="431.816,-109.5 421.816,-113 431.816,-116.5 431.816,-109.5"/>
</g>
<!-- Node10 -->
<g id="node10" class="node"><title>Node10</title>
<g id="a_node10"><a xlink:href="classGUICutRenderWindow.xhtml#a3a2c47b00b30661632dae29eed266438" target="_top" xlink:title="Behandelt das Ändern von Parametern zur darstellung der Temperaturskala. ">
<polygon fill="none" stroke="black" points="460,-0 460,-30 606,-30 606,-0 460,-0"/>
<text text-anchor="start" x="468" y="-18" font-family="Helvetica,sans-Serif" font-size="10.00">GUICutRenderWindow</text>
<text text-anchor="middle" x="533" y="-7" font-family="Helvetica,sans-Serif" font-size="10.00">::OnColorScaleChanged_spin</text>
</a>
</g>
</g>
<!-- Node9&#45;&gt;Node10 -->
<g id="edge9" class="edge"><title>Node9&#45;&gt;Node10</title>
<path fill="none" stroke="midnightblue" d="M434.361,-15C442.807,-15 451.441,-15 459.91,-15"/>
<polygon fill="midnightblue" stroke="midnightblue" points="434.177,-11.5001 424.177,-15 434.177,-18.5001 434.177,-11.5001"/>
</g>
<!-- Node11&#45;&gt;Node6 -->
<g id="edge11" class="edge"><title>Node11&#45;&gt;Node6</title>
<path fill="none" stroke="midnightblue" d="M243.447,-111.572C262.421,-111.8 284.451,-112.066 304.335,-112.305"/>
<polygon fill="midnightblue" stroke="midnightblue" points="243.295,-108.07 233.254,-111.449 243.211,-115.069 243.295,-108.07"/>
</g>
</g>
</svg>
        <g id="navigator" transform="translate(0 0)" fill="#404254">
                <rect fill="#f2f5e9" fill-opacity="0.5" stroke="#606060" stroke-width=".5" x="0" y="0" width="60" height="60"/>
                <use id="zoomplus" xlink:href="#zoomPlus" x="17" y="9" onmousedown="handleZoom(evt,'in')"/>
                <use id="zoomminus" xlink:href="#zoomMin" x="42" y="9" onmousedown="handleZoom(evt,'out')"/>
                <use id="reset" xlink:href="#resetDef" x="30" y="36" onmousedown="handleReset()"/>
                <g id="arrowUp" xlink:href="#dirArrow" transform="translate(30 24)" onmousedown="handlePan(0,-1)">
                  <use xlink:href="#rim" fill="#404040">
                        <set attributeName="fill" to="#808080" begin="arrowUp.mouseover" end="arrowUp.mouseout"/>
                  </use>
                  <path fill="none" stroke="white" stroke-width="1.5" d="M0,-3.0v7 M-2.5,-0.5L0,-3.0L2.5,-0.5"/>
                </g>
                <g id="arrowRight" xlink:href="#dirArrow" transform="rotate(90) translate(36 -43)" onmousedown="handlePan(1,0)">
                  <use xlink:href="#rim" fill="#404040">
                        <set attributeName="fill" to="#808080" begin="arrowRight.mouseover" end="arrowRight.mouseout"/>
                  </use>
                  <path fill="none" stroke="white" stroke-width="1.5" d="M0,-3.0v7 M-2.5,-0.5L0,-3.0L2.5,-0.5"/>
                </g>
                <g id="arrowDown" xlink:href="#dirArrow" transform="rotate(180) translate(-30 -48)" onmousedown="handlePan(0,1)">
                  <use xlink:href="#rim" fill="#404040">
                        <set attributeName="fill" to="#808080" begin="arrowDown.mouseover" end="arrowDown.mouseout"/>
                  </use>
                  <path fill="none" stroke="white" stroke-width="1.5" d="M0,-3.0v7 M-2.5,-0.5L0,-3.0L2.5,-0.5"/>
                </g>
                <g id="arrowLeft" xlink:href="#dirArrow" transform="rotate(270) translate(-36 17)" onmousedown="handlePan(-1,0)">
                  <use xlink:href="#rim" fill="#404040">
                        <set attributeName="fill" to="#808080" begin="arrowLeft.mouseover" end="arrowLeft.mouseout"/>
                  </use>
                  <path fill="none" stroke="white" stroke-width="1.5" d="M0,-3.0v7 M-2.5,-0.5L0,-3.0L2.5,-0.5"/>
                </g>
        </g>
        <svg viewBox="0 0 15 15" width="100%" height="30px" preserveAspectRatio="xMaxYMin meet">
         <g id="arrow_out" transform="scale(0.3 0.3)">
          <a xlink:href="namespaceUtils_a5d6523eb946892eee52c9c74efd016de_icgraph_org.svg" target="_base">
           <rect id="button" ry="5" rx="5" y="6" x="6" height="38" width="38"
                fill="#f2f5e9" fill-opacity="0.5" stroke="#606060" stroke-width="1.0"/>
           <path id="arrow"
             d="M 11.500037,31.436501 C 11.940474,20.09759 22.043105,11.32322 32.158766,21.979434 L 37.068811,17.246167 C 37.068811,17.246167 37.088388,32 37.088388,32 L 22.160133,31.978069 C 22.160133,31.978069 26.997745,27.140456 26.997745,27.140456 C 18.528582,18.264221 13.291696,25.230495 11.500037,31.436501 z"
             style="fill:#404040;"/>
          </a>
         </g>
        </svg>
</svg>
