<?xml version="1.0" encoding="UTF-8" standalone="no"?>
<!DOCTYPE svg PUBLIC "-//W3C//DTD SVG 1.1//EN"
 "http://www.w3.org/Graphics/SVG/1.1/DTD/svg11.dtd">
<!-- Generated by graphviz version 2.26.3 (20100126.1600)
 -->
<!-- Title: Utils::nextCombination Pages: 1 -->
<svg width="1104pt" height="164pt"
 viewBox="0.00 0.00 1104.00 164.00" xmlns="http://www.w3.org/2000/svg" xmlns:xlink="http://www.w3.org/1999/xlink">
<g id="graph1" class="graph" transform="scale(1 1) rotate(0) translate(4 160)">
<title>Utils::nextCombination</title>
<!-- Node1 -->
<g id="node1" class="node"><title>Node1</title>
<polygon fill="#bfbfbf" stroke="black" points="0,-76.5 0,-97.5 116,-97.5 116,-76.5 0,-76.5"/>
<text text-anchor="middle" x="58" y="-84.5" font-family="Helvetica,sans-Serif" font-size="10.00">Utils::nextCombination</text>
</g>
<!-- Node2 -->
<g id="node3" class="node"><title>Node2</title>
<a xlink:href="namespaceUtils.xhtml#a6a0ae18a42e2d206bc1b43da27820fe2" target="_top" xlink:title="Gibt den inter/extrapolierten Wert eines Punktes zurück. ">
<polygon fill="none" stroke="black" points="152,-76.5 152,-97.5 256,-97.5 256,-76.5 152,-76.5"/>
<text text-anchor="middle" x="204" y="-84.5" font-family="Helvetica,sans-Serif" font-size="10.00">Utils::getPointValue</text>
</a>
</g>
<!-- Node1&#45;&gt;Node2 -->
<g id="edge2" class="edge"><title>Node1&#45;&gt;Node2</title>
<path fill="none" stroke="midnightblue" d="M126.152,-87C134.755,-87 143.448,-87 151.751,-87"/>
<polygon fill="midnightblue" stroke="midnightblue" points="126.123,-83.5001 116.123,-87 126.123,-90.5001 126.123,-83.5001"/>
</g>
<!-- Node3 -->
<g id="node5" class="node"><title>Node3</title>
<a xlink:href="GUICutRenderWindow_8cpp.xhtml#aeaaae4c8452680389d221d0e60a6fc33" target="_top" xlink:title="render_thread">
<polygon fill="none" stroke="black" points="313,-122.5 313,-143.5 389,-143.5 389,-122.5 313,-122.5"/>
<text text-anchor="middle" x="351" y="-130.5" font-family="Helvetica,sans-Serif" font-size="10.00">render_thread</text>
</a>
</g>
<!-- Node2&#45;&gt;Node3 -->
<g id="edge4" class="edge"><title>Node2&#45;&gt;Node3</title>
<path fill="none" stroke="midnightblue" d="M247.335,-100.561C269.728,-107.568 296.641,-115.99 317.432,-122.496"/>
<polygon fill="midnightblue" stroke="midnightblue" points="248.314,-97.1996 237.725,-97.5533 246.223,-103.88 248.314,-97.1996"/>
</g>
<!-- Node6 -->
<g id="node11" class="node"><title>Node6</title>
<a xlink:href="classAnalyzer.xhtml#a8f73ee0aa71ae395a74b43dc76b35458" target="_top" xlink:title="Ermittelt Daten für einen Punkt am aktuell ausgewählten Zeitpunkt. ">
<polygon fill="none" stroke="black" points="292.5,-76.5 292.5,-97.5 409.5,-97.5 409.5,-76.5 292.5,-76.5"/>
<text text-anchor="middle" x="351" y="-84.5" font-family="Helvetica,sans-Serif" font-size="10.00">Analyzer::analyzePoint</text>
</a>
</g>
<!-- Node2&#45;&gt;Node6 -->
<g id="edge10" class="edge"><title>Node2&#45;&gt;Node6</title>
<path fill="none" stroke="midnightblue" d="M266.285,-87C274.951,-87 283.829,-87 292.423,-87"/>
<polygon fill="midnightblue" stroke="midnightblue" points="266.241,-83.5001 256.241,-87 266.241,-90.5001 266.241,-83.5001"/>
</g>
<!-- Node8 -->
<g id="node15" class="node"><title>Node8</title>
<a xlink:href="MeshProcessor_8cpp.xhtml#ad2670c4e8381f9a0a89c65f5559ed421" target="_top" xlink:title="interpolatePoint">
<polygon fill="none" stroke="black" points="309,-33.5 309,-54.5 393,-54.5 393,-33.5 309,-33.5"/>
<text text-anchor="middle" x="351" y="-41.5" font-family="Helvetica,sans-Serif" font-size="10.00">interpolatePoint</text>
</a>
</g>
<!-- Node2&#45;&gt;Node8 -->
<g id="edge14" class="edge"><title>Node2&#45;&gt;Node8</title>
<path fill="none" stroke="midnightblue" d="M249.639,-73.6499C270.644,-67.5054 295.213,-60.3185 314.902,-54.5594"/>
<polygon fill="midnightblue" stroke="midnightblue" points="248.575,-70.3142 239.96,-76.481 250.541,-77.0327 248.575,-70.3142"/>
</g>
<!-- Node4 -->
<g id="node7" class="node"><title>Node4</title>
<a xlink:href="classGUICutRenderWindow.xhtml#a9eedb7088ad31f4680a77ed3a06fa60c" target="_top" xlink:title="Berechnet die 2D&#45;Temperaturverteilung als Grafik. ">
<polygon fill="none" stroke="black" points="451.5,-122 451.5,-156 568.5,-156 568.5,-122 451.5,-122"/>
<text text-anchor="start" x="459.5" y="-143" font-family="Helvetica,sans-Serif" font-size="10.00">GUICutRenderWindow</text>
<text text-anchor="middle" x="510" y="-130" font-family="Helvetica,sans-Serif" font-size="10.00">::renderImage</text>
</a>
</g>
<!-- Node3&#45;&gt;Node4 -->
<g id="edge6" class="edge"><title>Node3&#45;&gt;Node4</title>
<path fill="none" stroke="midnightblue" d="M399.51,-134.831C415.887,-135.449 434.343,-136.145 451.414,-136.789"/>
<polygon fill="midnightblue" stroke="midnightblue" points="399.209,-131.317 389.084,-134.437 398.945,-138.312 399.209,-131.317"/>
</g>
<!-- Node5 -->
<g id="node9" class="node"><title>Node5</title>
<a xlink:href="classGUICutRenderWindow.xhtml#a7cd1bfbec53756a1cbbe1616b4d46c7a" target="_top" xlink:title="Behandelt das Drücken des Buttons zur Berechnung der zweidimensionalen Temperaturverteilung. ">
<polygon fill="none" stroke="black" points="613.5,-122 613.5,-156 730.5,-156 730.5,-122 613.5,-122"/>
<text text-anchor="start" x="621.5" y="-143" font-family="Helvetica,sans-Serif" font-size="10.00">GUICutRenderWindow</text>
<text text-anchor="middle" x="672" y="-130" font-family="Helvetica,sans-Serif" font-size="10.00">::renderCutBtClick</text>
</a>
</g>
<!-- Node4&#45;&gt;Node5 -->
<g id="edge8" class="edge"><title>Node4&#45;&gt;Node5</title>
<path fill="none" stroke="midnightblue" d="M579.263,-139C590.624,-139 602.3,-139 613.371,-139"/>
<polygon fill="midnightblue" stroke="midnightblue" points="578.944,-135.5 568.944,-139 578.944,-142.5 578.944,-135.5"/>
</g>
<!-- Node7 -->
<g id="node13" class="node"><title>Node7</title>
<a xlink:href="classGUIAnalyzePointWindow.xhtml#aa84ea9958e8b41423f01316d01ba5151" target="_top" xlink:title="Event&#45;Tabellendeklaration für wxWidgets. ">
<polygon fill="none" stroke="black" points="446,-70 446,-104 574,-104 574,-70 446,-70"/>
<text text-anchor="start" x="454" y="-91" font-family="Helvetica,sans-Serif" font-size="10.00">GUIAnalyzePointWindow</text>
<text text-anchor="middle" x="510" y="-78" font-family="Helvetica,sans-Serif" font-size="10.00">::analyzePoint</text>
</a>
</g>
<!-- Node6&#45;&gt;Node7 -->
<g id="edge12" class="edge"><title>Node6&#45;&gt;Node7</title>
<path fill="none" stroke="midnightblue" d="M419.811,-87C428.466,-87 437.294,-87 445.874,-87"/>
<polygon fill="midnightblue" stroke="midnightblue" points="419.754,-83.5001 409.754,-87 419.754,-90.5001 419.754,-83.5001"/>
</g>
<!-- Node9 -->
<g id="node17" class="node"><title>Node9</title>
<a xlink:href="classMeshProcessor.xhtml#a060c3815db33f8e52ac620ed2239ccc9" target="_top" xlink:title="Berechnet die Temperaturverteilung für ein Objekt. ">
<polygon fill="none" stroke="black" points="447.5,-30.5 447.5,-51.5 572.5,-51.5 572.5,-30.5 447.5,-30.5"/>
<text text-anchor="middle" x="510" y="-38.5" font-family="Helvetica,sans-Serif" font-size="10.00">MeshProcessor::process</text>
</a>
</g>
<!-- Node8&#45;&gt;Node9 -->
<g id="edge16" class="edge"><title>Node8&#45;&gt;Node9</title>
<path fill="none" stroke="midnightblue" d="M403.595,-43.0076C417.564,-42.7441 432.789,-42.4568 447.241,-42.1841"/>
<polygon fill="midnightblue" stroke="midnightblue" points="403.124,-39.5158 393.192,-43.2039 403.256,-46.5146 403.124,-39.5158"/>
</g>
<!-- Node10 -->
<g id="node19" class="node"><title>Node10</title>
<a xlink:href="classAnalyzer.xhtml#a2a7b5f169f664ccd9f206e508cba78ef" target="_top" xlink:title="Ermittelt Daten für ein Objekt. ">
<polygon fill="none" stroke="black" points="610.5,-52.5 610.5,-73.5 733.5,-73.5 733.5,-52.5 610.5,-52.5"/>
<text text-anchor="middle" x="672" y="-60.5" font-family="Helvetica,sans-Serif" font-size="10.00">Analyzer::analyzeObject</text>
</a>
</g>
<!-- Node9&#45;&gt;Node10 -->
<g id="edge18" class="edge"><title>Node9&#45;&gt;Node10</title>
<path fill="none" stroke="midnightblue" d="M582.6,-50.8593C591.86,-52.1168 601.268,-53.3945 610.333,-54.6255"/>
<polygon fill="midnightblue" stroke="midnightblue" points="583.013,-47.3834 572.633,-49.5058 582.071,-54.3197 583.013,-47.3834"/>
</g>
<!-- Node14 -->
<g id="node27" class="node"><title>Node14</title>
<a xlink:href="classObjectData.xhtml#af3a850833d08eb9b45357449f455e24d" target="_top" xlink:title="Zerlegt das Objekt in Tetraeder (Schnittstelle zur Tetgen&#45;Bibliothek) und Berechnet die Temperaturver...">
<polygon fill="none" stroke="black" points="611,-9.5 611,-30.5 733,-30.5 733,-9.5 611,-9.5"/>
<text text-anchor="middle" x="672" y="-17.5" font-family="Helvetica,sans-Serif" font-size="10.00">ObjectData::calculateIO</text>
</a>
</g>
<!-- Node9&#45;&gt;Node14 -->
<g id="edge26" class="edge"><title>Node9&#45;&gt;Node14</title>
<path fill="none" stroke="midnightblue" d="M582.745,-31.5701C592.14,-30.3523 601.684,-29.115 610.866,-27.9248"/>
<polygon fill="midnightblue" stroke="midnightblue" points="582.1,-28.1243 572.633,-32.8809 583,-35.0662 582.1,-28.1243"/>
</g>
<!-- Node11 -->
<g id="node21" class="node"><title>Node11</title>
<a xlink:href="classGUIAnalyzeOutputWindow.xhtml#a9ea5a7cf46d6189f368315903508cecc" target="_top" xlink:title="Methode zum aktualisieren des Fensters, alle Objekte werden erneut analysiert und die aktualisierten ...">
<polygon fill="none" stroke="black" points="778,-92 778,-126 912,-126 912,-92 778,-92"/>
<text text-anchor="start" x="786" y="-113" font-family="Helvetica,sans-Serif" font-size="10.00">GUIAnalyzeOutputWindow</text>
<text text-anchor="middle" x="845" y="-100" font-family="Helvetica,sans-Serif" font-size="10.00">::Update</text>
</a>
</g>
<!-- Node10&#45;&gt;Node11 -->
<g id="edge20" class="edge"><title>Node10&#45;&gt;Node11</title>
<path fill="none" stroke="midnightblue" d="M721.358,-76.1241C739.84,-81.0383 761.114,-86.695 780.747,-91.9155"/>
<polygon fill="midnightblue" stroke="midnightblue" points="722.253,-72.7406 711.69,-73.5533 720.454,-79.5055 722.253,-72.7406"/>
</g>
<!-- Node13 -->
<g id="node25" class="node"><title>Node13</title>
<a xlink:href="classGUITimeline.xhtml#a099f3654aa6e7ea04df861851a0e9ec8" target="_top" xlink:title="Sucht den Zeitpunkt zwischen zwei markierten Stellen auf der Sensordaten&#45;Zeitleiste, für den der Wäremeenergiegehalt maximal wird. ">
<polygon fill="none" stroke="black" points="776.5,-52.5 776.5,-73.5 913.5,-73.5 913.5,-52.5 776.5,-52.5"/>
<text text-anchor="middle" x="845" y="-60.5" font-family="Helvetica,sans-Serif" font-size="10.00">GUITimeline::findMaxValue</text>
</a>
</g>
<!-- Node10&#45;&gt;Node13 -->
<g id="edge24" class="edge"><title>Node10&#45;&gt;Node13</title>
<path fill="none" stroke="midnightblue" d="M744.108,-63C754.804,-63 765.801,-63 776.422,-63"/>
<polygon fill="midnightblue" stroke="midnightblue" points="743.968,-59.5001 733.968,-63 743.968,-66.5001 743.968,-59.5001"/>
</g>
<!-- Node12 -->
<g id="node23" class="node"><title>Node12</title>
<a xlink:href="classGUIAnalyzeOutputWindow.xhtml#af9407245a6b2a0478579c4d592a31e63" target="_top" xlink:title="Der Konstruktor. ">
<polygon fill="none" stroke="black" points="956,-92 956,-126 1096,-126 1096,-92 956,-92"/>
<text text-anchor="start" x="964" y="-113" font-family="Helvetica,sans-Serif" font-size="10.00">GUIAnalyzeOutputWindow</text>
<text text-anchor="middle" x="1026" y="-100" font-family="Helvetica,sans-Serif" font-size="10.00">::GUIAnalyzeOutputWindow</text>
</a>
</g>
<!-- Node11&#45;&gt;Node12 -->
<g id="edge22" class="edge"><title>Node11&#45;&gt;Node12</title>
<path fill="none" stroke="midnightblue" d="M922.303,-109C933.474,-109 944.92,-109 955.939,-109"/>
<polygon fill="midnightblue" stroke="midnightblue" points="922.141,-105.5 912.141,-109 922.14,-112.5 922.141,-105.5"/>
</g>
<!-- Node15 -->
<g id="node29" class="node"><title>Node15</title>
<a xlink:href="classGUIMainWindow.xhtml#a0c2de30274c7f52ff74ec1217e47a9e5" target="_top" xlink:title="Berechnet die 3D&#45;Temperaturverteilung neu. ">
<polygon fill="none" stroke="black" points="770,-0 770,-34 920,-34 920,-0 770,-0"/>
<text text-anchor="start" x="778" y="-21" font-family="Helvetica,sans-Serif" font-size="10.00">GUIMainWindow::OnRecalcBt</text>
<text text-anchor="middle" x="845" y="-8" font-family="Helvetica,sans-Serif" font-size="10.00">Click</text>
</a>
</g>
<!-- Node14&#45;&gt;Node15 -->
<g id="edge28" class="edge"><title>Node14&#45;&gt;Node15</title>
<path fill="none" stroke="midnightblue" d="M743.534,-18.7595C752.197,-18.6093 761.067,-18.4555 769.782,-18.3044"/>
<polygon fill="midnightblue" stroke="midnightblue" points="743.418,-15.2609 733.48,-18.9339 743.54,-22.2599 743.418,-15.2609"/>
</g>
</g>
</svg>
