<?xml version="1.0" encoding="UTF-8" standalone="no"?>
<!DOCTYPE svg PUBLIC "-//W3C//DTD SVG 1.1//EN"
 "http://www.w3.org/Graphics/SVG/1.1/DTD/svg11.dtd">
<!-- Generated by graphviz version 2.26.3 (20100126.1600)
 -->
<!-- Title: Utils::copySensorPoint Pages: 1 -->
<svg width="434pt" height="42pt"
 viewBox="0.00 0.00 434.00 42.00" xmlns="http://www.w3.org/2000/svg" xmlns:xlink="http://www.w3.org/1999/xlink">
<g id="graph1" class="graph" transform="scale(1 1) rotate(0) translate(4 38)">
<title>Utils::copySensorPoint</title>
<!-- Node1 -->
<g id="node1" class="node"><title>Node1</title>
<polygon fill="#bfbfbf" stroke="black" points="0.5,-6.5 0.5,-27.5 117.5,-27.5 117.5,-6.5 0.5,-6.5"/>
<text text-anchor="middle" x="59" y="-14.5" font-family="Helvetica,sans-Serif" font-size="10.00">Utils::copySensorPoint</text>
</g>
<!-- Node2 -->
<g id="node3" class="node"><title>Node2</title>
<a xlink:href="classGUICutRenderWindow.xhtml#a9eedb7088ad31f4680a77ed3a06fa60c" target="_top" xlink:title="Berechnet die 2D&#45;Temperaturverteilung als Grafik. ">
<polygon fill="none" stroke="black" points="154.5,-0 154.5,-34 271.5,-34 271.5,-0 154.5,-0"/>
<text text-anchor="start" x="162.5" y="-21" font-family="Helvetica,sans-Serif" font-size="10.00">GUICutRenderWindow</text>
<text text-anchor="middle" x="213" y="-8" font-family="Helvetica,sans-Serif" font-size="10.00">::renderImage</text>
</a>
</g>
<!-- Node1&#45;&gt;Node2 -->
<g id="edge2" class="edge"><title>Node1&#45;&gt;Node2</title>
<path fill="none" stroke="midnightblue" d="M127.894,-17C136.691,-17 145.631,-17 154.248,-17"/>
<polygon fill="midnightblue" stroke="midnightblue" points="127.66,-13.5001 117.66,-17 127.66,-20.5001 127.66,-13.5001"/>
</g>
<!-- Node3 -->
<g id="node5" class="node"><title>Node3</title>
<a xlink:href="classGUICutRenderWindow.xhtml#a7cd1bfbec53756a1cbbe1616b4d46c7a" target="_top" xlink:title="Behandelt das Drücken des Buttons zur Berechnung der zweidimensionalen Temperaturverteilung. ">
<polygon fill="none" stroke="black" points="308.5,-0 308.5,-34 425.5,-34 425.5,-0 308.5,-0"/>
<text text-anchor="start" x="316.5" y="-21" font-family="Helvetica,sans-Serif" font-size="10.00">GUICutRenderWindow</text>
<text text-anchor="middle" x="367" y="-8" font-family="Helvetica,sans-Serif" font-size="10.00">::renderCutBtClick</text>
</a>
</g>
<!-- Node2&#45;&gt;Node3 -->
<g id="edge4" class="edge"><title>Node2&#45;&gt;Node3</title>
<path fill="none" stroke="midnightblue" d="M281.894,-17C290.691,-17 299.631,-17 308.248,-17"/>
<polygon fill="midnightblue" stroke="midnightblue" points="281.66,-13.5001 271.66,-17 281.66,-20.5001 281.66,-13.5001"/>
</g>
</g>
</svg>
