<?xml version="1.0" encoding="UTF-8" standalone="no"?>
<!DOCTYPE svg PUBLIC "-//W3C//DTD SVG 1.1//EN"
 "http://www.w3.org/Graphics/SVG/1.1/DTD/svg11.dtd">
<!-- Generated by graphviz version 2.26.3 (20100126.1600)
 -->
<!-- Title: Utils::getPointValue Pages: 1 -->
<svg width="430pt" height="42pt"
 viewBox="0.00 0.00 430.00 42.00" xmlns="http://www.w3.org/2000/svg" xmlns:xlink="http://www.w3.org/1999/xlink">
<g id="graph1" class="graph" transform="scale(1 1) rotate(0) translate(4 38)">
<title>Utils::getPointValue</title>
<!-- Node1 -->
<g id="node1" class="node"><title>Node1</title>
<polygon fill="#bfbfbf" stroke="black" points="0,-6.5 0,-27.5 104,-27.5 104,-6.5 0,-6.5"/>
<text text-anchor="middle" x="52" y="-14.5" font-family="Helvetica,sans-Serif" font-size="10.00">Utils::getPointValue</text>
</g>
<!-- Node2 -->
<g id="node3" class="node"><title>Node2</title>
<a xlink:href="classAnalyzer.xhtml#a8f73ee0aa71ae395a74b43dc76b35458" target="_top" xlink:title="Analyzer::analyzePoint">
<polygon fill="none" stroke="black" points="140.5,-6.5 140.5,-27.5 257.5,-27.5 257.5,-6.5 140.5,-6.5"/>
<text text-anchor="middle" x="199" y="-14.5" font-family="Helvetica,sans-Serif" font-size="10.00">Analyzer::analyzePoint</text>
</a>
</g>
<!-- Node1&#45;&gt;Node2 -->
<g id="edge2" class="edge"><title>Node1&#45;&gt;Node2</title>
<path fill="none" stroke="midnightblue" d="M114.285,-17C122.951,-17 131.829,-17 140.423,-17"/>
<polygon fill="midnightblue" stroke="midnightblue" points="114.241,-13.5001 104.241,-17 114.241,-20.5001 114.241,-13.5001"/>
</g>
<!-- Node3 -->
<g id="node5" class="node"><title>Node3</title>
<a xlink:href="classGUIAnalyzePointWindow.xhtml#aa84ea9958e8b41423f01316d01ba5151" target="_top" xlink:title="GUIAnalyzePointWindow\l::analyzePoint">
<polygon fill="none" stroke="black" points="294,-0 294,-34 422,-34 422,-0 294,-0"/>
<text text-anchor="start" x="302" y="-21" font-family="Helvetica,sans-Serif" font-size="10.00">GUIAnalyzePointWindow</text>
<text text-anchor="middle" x="358" y="-8" font-family="Helvetica,sans-Serif" font-size="10.00">::analyzePoint</text>
</a>
</g>
<!-- Node2&#45;&gt;Node3 -->
<g id="edge4" class="edge"><title>Node2&#45;&gt;Node3</title>
<path fill="none" stroke="midnightblue" d="M267.811,-17C276.466,-17 285.294,-17 293.874,-17"/>
<polygon fill="midnightblue" stroke="midnightblue" points="267.754,-13.5001 257.754,-17 267.754,-20.5001 267.754,-13.5001"/>
</g>
</g>
</svg>
