<?xml version="1.0" encoding="UTF-8" standalone="no"?>
<!DOCTYPE svg PUBLIC "-//W3C//DTD SVG 1.1//EN"
 "http://www.w3.org/Graphics/SVG/1.1/DTD/svg11.dtd">
<!-- Generated by graphviz version 2.26.3 (20100126.1600)
 -->
<!-- Title: Utils::clampHue Pages: 1 -->
<svg width="274pt" height="110pt"
 viewBox="0.00 0.00 274.00 110.00" xmlns="http://www.w3.org/2000/svg" xmlns:xlink="http://www.w3.org/1999/xlink">
<g id="graph1" class="graph" transform="scale(1 1) rotate(0) translate(4 106)">
<title>Utils::clampHue</title>
<!-- Node1 -->
<g id="node1" class="node"><title>Node1</title>
<polygon fill="#bfbfbf" stroke="black" points="0.5,-40.5 0.5,-61.5 87.5,-61.5 87.5,-40.5 0.5,-40.5"/>
<text text-anchor="middle" x="44" y="-48.5" font-family="Helvetica,sans-Serif" font-size="10.00">Utils::clampHue</text>
</g>
<!-- Node2 -->
<g id="node3" class="node"><title>Node2</title>
<a xlink:href="classRenderer.xhtml#a927f376a6283de3181b86f65b927386c" target="_top" xlink:title="Renderer::renderTetrahedra">
<polygon fill="none" stroke="black" points="127,-80.5 127,-101.5 263,-101.5 263,-80.5 127,-80.5"/>
<text text-anchor="middle" x="195" y="-88.5" font-family="Helvetica,sans-Serif" font-size="10.00">Renderer::renderTetrahedra</text>
</a>
</g>
<!-- Node1&#45;&gt;Node2 -->
<g id="edge2" class="edge"><title>Node1&#45;&gt;Node2</title>
<path fill="none" stroke="midnightblue" d="M93.5611,-64.1288C113.602,-69.4375 136.418,-75.4816 155.33,-80.4913"/>
<polygon fill="midnightblue" stroke="midnightblue" points="94.2363,-60.687 83.6735,-61.5095 92.4438,-67.4536 94.2363,-60.687"/>
</g>
<!-- Node3 -->
<g id="node5" class="node"><title>Node3</title>
<a xlink:href="classRenderer.xhtml#ad2eac0343aef1abd05ed95b1b364785f" target="_top" xlink:title="Renderer::renderSensorData">
<polygon fill="none" stroke="black" points="124.5,-40.5 124.5,-61.5 265.5,-61.5 265.5,-40.5 124.5,-40.5"/>
<text text-anchor="middle" x="195" y="-48.5" font-family="Helvetica,sans-Serif" font-size="10.00">Renderer::renderSensorData</text>
</a>
</g>
<!-- Node1&#45;&gt;Node3 -->
<g id="edge4" class="edge"><title>Node1&#45;&gt;Node3</title>
<path fill="none" stroke="midnightblue" d="M97.9145,-51C106.502,-51 115.495,-51 124.398,-51"/>
<polygon fill="midnightblue" stroke="midnightblue" points="97.6755,-47.5001 87.6755,-51 97.6754,-54.5001 97.6755,-47.5001"/>
</g>
<!-- Node4 -->
<g id="node7" class="node"><title>Node4</title>
<a xlink:href="classRenderer.xhtml#acb6c468b92221cf8a121b87a70a3da0c" target="_top" xlink:title="Renderer::renderMaterial">
<polygon fill="none" stroke="black" points="133,-0.5 133,-21.5 257,-21.5 257,-0.5 133,-0.5"/>
<text text-anchor="middle" x="195" y="-8.5" font-family="Helvetica,sans-Serif" font-size="10.00">Renderer::renderMaterial</text>
</a>
</g>
<!-- Node1&#45;&gt;Node4 -->
<g id="edge6" class="edge"><title>Node1&#45;&gt;Node4</title>
<path fill="none" stroke="midnightblue" d="M93.5611,-37.8712C113.602,-32.5625 136.418,-26.5184 155.33,-21.5087"/>
<polygon fill="midnightblue" stroke="midnightblue" points="92.4438,-34.5464 83.6735,-40.4905 94.2363,-41.313 92.4438,-34.5464"/>
</g>
</g>
</svg>
