<?xml version="1.0" encoding="UTF-8" standalone="no"?>
<!DOCTYPE svg PUBLIC "-//W3C//DTD SVG 1.1//EN"
 "http://www.w3.org/Graphics/SVG/1.1/DTD/svg11.dtd">
<!-- Generated by graphviz version 2.36.0 (20140111.2315)
 -->
<!-- Title: Utils::clampHue Pages: 1 -->
<svg width="582pt" height="147pt"
 viewBox="0.00 0.00 582.00 147.00" xmlns="http://www.w3.org/2000/svg" xmlns:xlink="http://www.w3.org/1999/xlink">
<g id="graph0" class="graph" transform="scale(1 1) rotate(0) translate(4 143)">
<title>Utils::clampHue</title>
<!-- Node1 -->
<g id="node1" class="node"><title>Node1</title>
<polygon fill="#bfbfbf" stroke="black" points="0.5,-62.5 0.5,-81.5 87.5,-81.5 87.5,-62.5 0.5,-62.5"/>
<text text-anchor="middle" x="44" y="-69.5" font-family="Helvetica,sans-Serif" font-size="10.00">Utils::clampHue</text>
</g>
<!-- Node2 -->
<g id="node2" class="node"><title>Node2</title>
<g id="a_node2"><a xlink:href="classRenderer.xhtml#a927f376a6283de3181b86f65b927386c" target="_top" xlink:title="Zeichnet die Tetraeder eines Materials des Objekts. ">
<polygon fill="none" stroke="black" points="127,-119.5 127,-138.5 263,-138.5 263,-119.5 127,-119.5"/>
<text text-anchor="middle" x="195" y="-126.5" font-family="Helvetica,sans-Serif" font-size="10.00">Renderer::renderTetrahedra</text>
</a>
</g>
</g>
<!-- Node1&#45;&gt;Node2 -->
<g id="edge1" class="edge"><title>Node1&#45;&gt;Node2</title>
<path fill="none" stroke="midnightblue" d="M71.7011,-86.3558C86.7638,-94.0666 106.101,-103.33 124,-110 133.558,-113.562 144.075,-116.771 153.988,-119.496"/>
<polygon fill="midnightblue" stroke="midnightblue" points="72.9645,-83.0677 62.4781,-81.5557 69.7329,-89.2771 72.9645,-83.0677"/>
</g>
<!-- Node3 -->
<g id="node3" class="node"><title>Node3</title>
<g id="a_node3"><a xlink:href="classRenderer.xhtml#ad2eac0343aef1abd05ed95b1b364785f" target="_top" xlink:title="Zeichnet Sensordaten als Punkte. ">
<polygon fill="none" stroke="black" points="124.5,-81.5 124.5,-100.5 265.5,-100.5 265.5,-81.5 124.5,-81.5"/>
<text text-anchor="middle" x="195" y="-88.5" font-family="Helvetica,sans-Serif" font-size="10.00">Renderer::renderSensorData</text>
</a>
</g>
</g>
<!-- Node1&#45;&gt;Node3 -->
<g id="edge2" class="edge"><title>Node1&#45;&gt;Node3</title>
<path fill="none" stroke="midnightblue" d="M97.8902,-78.7444C106.444,-79.8351 115.413,-80.9788 124.291,-82.111"/>
<polygon fill="midnightblue" stroke="midnightblue" points="98.0598,-75.2378 87.6974,-77.4446 97.1743,-82.1815 98.0598,-75.2378"/>
</g>
<!-- Node4 -->
<g id="node4" class="node"><title>Node4</title>
<g id="a_node4"><a xlink:href="classRenderer.xhtml#acb6c468b92221cf8a121b87a70a3da0c" target="_top" xlink:title="Zeichnet die Elemente eines Materials des Objekts. ">
<polygon fill="none" stroke="black" points="133,-43.5 133,-62.5 257,-62.5 257,-43.5 133,-43.5"/>
<text text-anchor="middle" x="195" y="-50.5" font-family="Helvetica,sans-Serif" font-size="10.00">Renderer::renderMaterial</text>
</a>
</g>
</g>
<!-- Node1&#45;&gt;Node4 -->
<g id="edge3" class="edge"><title>Node1&#45;&gt;Node4</title>
<path fill="none" stroke="midnightblue" d="M97.8881,-65.2559C109.246,-63.8075 121.338,-62.2656 132.976,-60.7816"/>
<polygon fill="midnightblue" stroke="midnightblue" points="97.1743,-61.8185 87.6974,-66.5554 98.0598,-68.7622 97.1743,-61.8185"/>
</g>
<!-- Node5 -->
<g id="node5" class="node"><title>Node5</title>
<g id="a_node5"><a xlink:href="GUICutRenderWindow_8cpp.xhtml#aeaaae4c8452680389d221d0e60a6fc33" target="_top" xlink:title="Funktion zum verteilten berechnen der 2D&#45;Temperaturverteilung. ">
<polygon fill="none" stroke="black" points="157,-5.5 157,-24.5 233,-24.5 233,-5.5 157,-5.5"/>
<text text-anchor="middle" x="195" y="-12.5" font-family="Helvetica,sans-Serif" font-size="10.00">render_thread</text>
</a>
</g>
</g>
<!-- Node1&#45;&gt;Node5 -->
<g id="edge4" class="edge"><title>Node1&#45;&gt;Node5</title>
<path fill="none" stroke="midnightblue" d="M71.7011,-57.6442C86.7638,-49.9334 106.101,-40.6698 124,-34 134.502,-30.0867 146.162,-26.5979 156.906,-23.7114"/>
<polygon fill="midnightblue" stroke="midnightblue" points="69.7329,-54.7229 62.4781,-62.4443 72.9645,-60.9323 69.7329,-54.7229"/>
</g>
<!-- Node6 -->
<g id="node6" class="node"><title>Node6</title>
<g id="a_node6"><a xlink:href="classGUICutRenderWindow.xhtml#a9eedb7088ad31f4680a77ed3a06fa60c" target="_top" xlink:title="Berechnet die 2D&#45;Temperaturverteilung als Grafik. ">
<polygon fill="none" stroke="black" points="302.5,-0 302.5,-30 419.5,-30 419.5,-0 302.5,-0"/>
<text text-anchor="start" x="310.5" y="-18" font-family="Helvetica,sans-Serif" font-size="10.00">GUICutRenderWindow</text>
<text text-anchor="middle" x="361" y="-7" font-family="Helvetica,sans-Serif" font-size="10.00">::renderImage</text>
</a>
</g>
</g>
<!-- Node5&#45;&gt;Node6 -->
<g id="edge5" class="edge"><title>Node5&#45;&gt;Node6</title>
<path fill="none" stroke="midnightblue" d="M243.4,-15C261.805,-15 283.059,-15 302.338,-15"/>
<polygon fill="midnightblue" stroke="midnightblue" points="243.214,-11.5001 233.214,-15 243.214,-18.5001 243.214,-11.5001"/>
</g>
<!-- Node7 -->
<g id="node7" class="node"><title>Node7</title>
<g id="a_node7"><a xlink:href="classGUICutRenderWindow.xhtml#a7cd1bfbec53756a1cbbe1616b4d46c7a" target="_top" xlink:title="Behandelt das Drücken des Buttons zur Berechnung der zweidimensionalen Temperaturverteilung. ">
<polygon fill="none" stroke="black" points="456.5,-0 456.5,-30 573.5,-30 573.5,-0 456.5,-0"/>
<text text-anchor="start" x="464.5" y="-18" font-family="Helvetica,sans-Serif" font-size="10.00">GUICutRenderWindow</text>
<text text-anchor="middle" x="515" y="-7" font-family="Helvetica,sans-Serif" font-size="10.00">::renderCutBtClick</text>
</a>
</g>
</g>
<!-- Node6&#45;&gt;Node7 -->
<g id="edge6" class="edge"><title>Node6&#45;&gt;Node7</title>
<path fill="none" stroke="midnightblue" d="M430.072,-15C438.817,-15 447.704,-15 456.263,-15"/>
<polygon fill="midnightblue" stroke="midnightblue" points="429.898,-11.5001 419.898,-15 429.898,-18.5001 429.898,-11.5001"/>
</g>
</g>
</svg>
