<?xml version="1.0" encoding="UTF-8" standalone="no"?>
<!DOCTYPE svg PUBLIC "-//W3C//DTD SVG 1.1//EN"
 "http://www.w3.org/Graphics/SVG/1.1/DTD/svg11.dtd">
<!-- Generated by graphviz version 2.26.3 (20100126.1600)
 -->
<!-- Title: Utils::pointInsideTetrahedron Pages: 1 -->
<svg width="1168pt" height="178pt"
 viewBox="0.00 0.00 1168.00 178.00" xmlns="http://www.w3.org/2000/svg" xmlns:xlink="http://www.w3.org/1999/xlink">
<g id="graph1" class="graph" transform="scale(1 1) rotate(0) translate(4 174)">
<title>Utils::pointInsideTetrahedron</title>
<!-- Node1 -->
<g id="node1" class="node"><title>Node1</title>
<polygon fill="#bfbfbf" stroke="black" points="0,-107.5 0,-128.5 142,-128.5 142,-107.5 0,-107.5"/>
<text text-anchor="middle" x="71" y="-115.5" font-family="Helvetica,sans-Serif" font-size="10.00">Utils::pointInsideTetrahedron</text>
</g>
<!-- Node2 -->
<g id="node3" class="node"><title>Node2</title>
<a xlink:href="namespaceUtils.xhtml#af8fc5d6dab27f759ab5d76757a53023f" target="_top" xlink:title="Testet, ob sich ein Punkt innerhalb eines Körpers befindet. ">
<polygon fill="none" stroke="black" points="192,-147.5 192,-168.5 306,-168.5 306,-147.5 192,-147.5"/>
<text text-anchor="middle" x="249" y="-155.5" font-family="Helvetica,sans-Serif" font-size="10.00">Utils::pointInsideMesh</text>
</a>
</g>
<!-- Node1&#45;&gt;Node2 -->
<g id="edge2" class="edge"><title>Node1&#45;&gt;Node2</title>
<path fill="none" stroke="midnightblue" d="M127.81,-130.766C151.817,-136.161 179.434,-142.367 202.236,-147.491"/>
<polygon fill="midnightblue" stroke="midnightblue" points="128.291,-127.287 117.767,-128.51 126.757,-134.117 128.291,-127.287"/>
</g>
<!-- Node6 -->
<g id="node11" class="node"><title>Node6</title>
<a xlink:href="namespaceUtils.xhtml#a40eaef4d22da849a5deb2f1153d88bbc" target="_top" xlink:title="Testet, ob sich ein Punkt innerhalb eines Tetraeders befindet. ">
<polygon fill="none" stroke="black" points="178,-107.5 178,-128.5 320,-128.5 320,-107.5 178,-107.5"/>
<text text-anchor="middle" x="249" y="-115.5" font-family="Helvetica,sans-Serif" font-size="10.00">Utils::pointInsideTetrahedron</text>
</a>
</g>
<!-- Node1&#45;&gt;Node6 -->
<g id="edge10" class="edge"><title>Node1&#45;&gt;Node6</title>
<path fill="none" stroke="midnightblue" d="M152.17,-118C160.789,-118 169.506,-118 177.995,-118"/>
<polygon fill="midnightblue" stroke="midnightblue" points="152.118,-114.5 142.118,-118 152.118,-121.5 152.118,-114.5"/>
</g>
<!-- Node7 -->
<g id="node13" class="node"><title>Node7</title>
<a xlink:href="namespaceUtils.xhtml#a6a0ae18a42e2d206bc1b43da27820fe2" target="_top" xlink:title="Gibt den inter/extrapolierten Wert eines Punktes zurück. ">
<polygon fill="none" stroke="black" points="197,-67.5 197,-88.5 301,-88.5 301,-67.5 197,-67.5"/>
<text text-anchor="middle" x="249" y="-75.5" font-family="Helvetica,sans-Serif" font-size="10.00">Utils::getPointValue</text>
</a>
</g>
<!-- Node1&#45;&gt;Node7 -->
<g id="edge12" class="edge"><title>Node1&#45;&gt;Node7</title>
<path fill="none" stroke="midnightblue" d="M127.81,-105.234C151.817,-99.839 179.434,-93.6328 202.236,-88.5087"/>
<polygon fill="midnightblue" stroke="midnightblue" points="126.757,-101.883 117.767,-107.49 128.291,-108.713 126.757,-101.883"/>
</g>
<!-- Node3 -->
<g id="node5" class="node"><title>Node3</title>
<a xlink:href="GUICutRenderWindow_8cpp.xhtml#aeaaae4c8452680389d221d0e60a6fc33" target="_top" xlink:title="render_thread">
<polygon fill="none" stroke="black" points="377,-142.5 377,-163.5 453,-163.5 453,-142.5 377,-142.5"/>
<text text-anchor="middle" x="415" y="-150.5" font-family="Helvetica,sans-Serif" font-size="10.00">render_thread</text>
</a>
</g>
<!-- Node2&#45;&gt;Node3 -->
<g id="edge4" class="edge"><title>Node2&#45;&gt;Node3</title>
<path fill="none" stroke="midnightblue" d="M316.136,-155.978C336.794,-155.356 358.815,-154.692 376.817,-154.15"/>
<polygon fill="midnightblue" stroke="midnightblue" points="316.018,-152.48 306.128,-156.279 316.229,-159.477 316.018,-152.48"/>
</g>
<!-- Node4 -->
<g id="node7" class="node"><title>Node4</title>
<a xlink:href="classGUICutRenderWindow.xhtml#a9eedb7088ad31f4680a77ed3a06fa60c" target="_top" xlink:title="Berechnet die 2D&#45;Temperaturverteilung als Grafik. ">
<polygon fill="none" stroke="black" points="515.5,-136 515.5,-170 632.5,-170 632.5,-136 515.5,-136"/>
<text text-anchor="start" x="523.5" y="-157" font-family="Helvetica,sans-Serif" font-size="10.00">GUICutRenderWindow</text>
<text text-anchor="middle" x="574" y="-144" font-family="Helvetica,sans-Serif" font-size="10.00">::renderImage</text>
</a>
</g>
<!-- Node3&#45;&gt;Node4 -->
<g id="edge6" class="edge"><title>Node3&#45;&gt;Node4</title>
<path fill="none" stroke="midnightblue" d="M463.51,-153C479.887,-153 498.343,-153 515.414,-153"/>
<polygon fill="midnightblue" stroke="midnightblue" points="463.084,-149.5 453.084,-153 463.084,-156.5 463.084,-149.5"/>
</g>
<!-- Node5 -->
<g id="node9" class="node"><title>Node5</title>
<a xlink:href="classGUICutRenderWindow.xhtml#a7cd1bfbec53756a1cbbe1616b4d46c7a" target="_top" xlink:title="Behandelt das Drücken des Buttons zur Berechnung der zweidimensionalen Temperaturverteilung. ">
<polygon fill="none" stroke="black" points="677.5,-136 677.5,-170 794.5,-170 794.5,-136 677.5,-136"/>
<text text-anchor="start" x="685.5" y="-157" font-family="Helvetica,sans-Serif" font-size="10.00">GUICutRenderWindow</text>
<text text-anchor="middle" x="736" y="-144" font-family="Helvetica,sans-Serif" font-size="10.00">::renderCutBtClick</text>
</a>
</g>
<!-- Node4&#45;&gt;Node5 -->
<g id="edge8" class="edge"><title>Node4&#45;&gt;Node5</title>
<path fill="none" stroke="midnightblue" d="M643.263,-153C654.624,-153 666.3,-153 677.371,-153"/>
<polygon fill="midnightblue" stroke="midnightblue" points="642.944,-149.5 632.944,-153 642.944,-156.5 642.944,-149.5"/>
</g>
<!-- Node7&#45;&gt;Node3 -->
<g id="edge14" class="edge"><title>Node7&#45;&gt;Node3</title>
<path fill="none" stroke="midnightblue" d="M302.944,-91.6516C308.773,-93.582 314.559,-95.7015 320,-98 349.494,-110.459 381.19,-130.252 399.496,-142.388"/>
<polygon fill="midnightblue" stroke="midnightblue" points="303.736,-88.2319 293.147,-88.5832 301.644,-94.912 303.736,-88.2319"/>
</g>
<!-- Node8 -->
<g id="node16" class="node"><title>Node8</title>
<a xlink:href="classAnalyzer.xhtml#a8f73ee0aa71ae395a74b43dc76b35458" target="_top" xlink:title="Ermittelt Daten für einen Punkt am aktuell ausgewählten Zeitpunkt. ">
<polygon fill="none" stroke="black" points="356.5,-73.5 356.5,-94.5 473.5,-94.5 473.5,-73.5 356.5,-73.5"/>
<text text-anchor="middle" x="415" y="-81.5" font-family="Helvetica,sans-Serif" font-size="10.00">Analyzer::analyzePoint</text>
</a>
</g>
<!-- Node7&#45;&gt;Node8 -->
<g id="edge16" class="edge"><title>Node7&#45;&gt;Node8</title>
<path fill="none" stroke="midnightblue" d="M311.165,-80.2469C326.006,-80.7834 341.797,-81.3541 356.468,-81.8844"/>
<polygon fill="midnightblue" stroke="midnightblue" points="311.188,-76.7456 301.068,-79.882 310.935,-83.741 311.188,-76.7456"/>
</g>
<!-- Node10 -->
<g id="node20" class="node"><title>Node10</title>
<a xlink:href="MeshProcessor_8cpp.xhtml#ad2670c4e8381f9a0a89c65f5559ed421" target="_top" xlink:title="interpolatePoint">
<polygon fill="none" stroke="black" points="373,-32.5 373,-53.5 457,-53.5 457,-32.5 373,-32.5"/>
<text text-anchor="middle" x="415" y="-40.5" font-family="Helvetica,sans-Serif" font-size="10.00">interpolatePoint</text>
</a>
</g>
<!-- Node7&#45;&gt;Node10 -->
<g id="edge20" class="edge"><title>Node7&#45;&gt;Node10</title>
<path fill="none" stroke="midnightblue" d="M308.696,-65.4135C329.915,-60.9395 353.346,-55.9993 372.798,-51.8981"/>
<polygon fill="midnightblue" stroke="midnightblue" points="307.868,-62.011 298.805,-67.4988 309.312,-68.8604 307.868,-62.011"/>
</g>
<!-- Node9 -->
<g id="node18" class="node"><title>Node9</title>
<a xlink:href="classGUIAnalyzePointWindow.xhtml#aa84ea9958e8b41423f01316d01ba5151" target="_top" xlink:title="Event&#45;Tabellendeklaration für wxWidgets. ">
<polygon fill="none" stroke="black" points="510,-70 510,-104 638,-104 638,-70 510,-70"/>
<text text-anchor="start" x="518" y="-91" font-family="Helvetica,sans-Serif" font-size="10.00">GUIAnalyzePointWindow</text>
<text text-anchor="middle" x="574" y="-78" font-family="Helvetica,sans-Serif" font-size="10.00">::analyzePoint</text>
</a>
</g>
<!-- Node8&#45;&gt;Node9 -->
<g id="edge18" class="edge"><title>Node8&#45;&gt;Node9</title>
<path fill="none" stroke="midnightblue" d="M483.811,-85.2983C492.466,-85.4616 501.294,-85.6282 509.874,-85.7901"/>
<polygon fill="midnightblue" stroke="midnightblue" points="483.818,-81.7979 473.754,-85.1086 483.686,-88.7967 483.818,-81.7979"/>
</g>
<!-- Node11 -->
<g id="node22" class="node"><title>Node11</title>
<a xlink:href="classMeshProcessor.xhtml#a060c3815db33f8e52ac620ed2239ccc9" target="_top" xlink:title="Berechnet die Temperaturverteilung für ein Objekt. ">
<polygon fill="none" stroke="black" points="511.5,-30.5 511.5,-51.5 636.5,-51.5 636.5,-30.5 511.5,-30.5"/>
<text text-anchor="middle" x="574" y="-38.5" font-family="Helvetica,sans-Serif" font-size="10.00">MeshProcessor::process</text>
</a>
</g>
<!-- Node10&#45;&gt;Node11 -->
<g id="edge22" class="edge"><title>Node10&#45;&gt;Node11</title>
<path fill="none" stroke="midnightblue" d="M467.595,-42.3384C481.564,-42.1627 496.789,-41.9712 511.241,-41.7894"/>
<polygon fill="midnightblue" stroke="midnightblue" points="467.147,-38.8437 457.192,-42.4693 467.235,-45.8431 467.147,-38.8437"/>
</g>
<!-- Node12 -->
<g id="node24" class="node"><title>Node12</title>
<a xlink:href="classAnalyzer.xhtml#a2a7b5f169f664ccd9f206e508cba78ef" target="_top" xlink:title="Ermittelt Daten für ein Objekt. ">
<polygon fill="none" stroke="black" points="674.5,-52.5 674.5,-73.5 797.5,-73.5 797.5,-52.5 674.5,-52.5"/>
<text text-anchor="middle" x="736" y="-60.5" font-family="Helvetica,sans-Serif" font-size="10.00">Analyzer::analyzeObject</text>
</a>
</g>
<!-- Node11&#45;&gt;Node12 -->
<g id="edge24" class="edge"><title>Node11&#45;&gt;Node12</title>
<path fill="none" stroke="midnightblue" d="M646.6,-50.8593C655.86,-52.1168 665.268,-53.3945 674.333,-54.6255"/>
<polygon fill="midnightblue" stroke="midnightblue" points="647.013,-47.3834 636.633,-49.5058 646.071,-54.3197 647.013,-47.3834"/>
</g>
<!-- Node16 -->
<g id="node32" class="node"><title>Node16</title>
<a xlink:href="classObjectData.xhtml#af3a850833d08eb9b45357449f455e24d" target="_top" xlink:title="Zerlegt das Objekt in Tetraeder (Schnittstelle zur Tetgen&#45;Bibliothek) und Berechnet die Temperaturver...">
<polygon fill="none" stroke="black" points="675,-9.5 675,-30.5 797,-30.5 797,-9.5 675,-9.5"/>
<text text-anchor="middle" x="736" y="-17.5" font-family="Helvetica,sans-Serif" font-size="10.00">ObjectData::calculateIO</text>
</a>
</g>
<!-- Node11&#45;&gt;Node16 -->
<g id="edge32" class="edge"><title>Node11&#45;&gt;Node16</title>
<path fill="none" stroke="midnightblue" d="M646.745,-31.5701C656.14,-30.3523 665.684,-29.115 674.866,-27.9248"/>
<polygon fill="midnightblue" stroke="midnightblue" points="646.1,-28.1243 636.633,-32.8809 647,-35.0662 646.1,-28.1243"/>
</g>
<!-- Node13 -->
<g id="node26" class="node"><title>Node13</title>
<a xlink:href="classGUIAnalyzeOutputWindow.xhtml#a9ea5a7cf46d6189f368315903508cecc" target="_top" xlink:title="Methode zum aktualisieren des Fensters, alle Objekte werden erneut analysiert und die aktualisierten ...">
<polygon fill="none" stroke="black" points="842,-92 842,-126 976,-126 976,-92 842,-92"/>
<text text-anchor="start" x="850" y="-113" font-family="Helvetica,sans-Serif" font-size="10.00">GUIAnalyzeOutputWindow</text>
<text text-anchor="middle" x="909" y="-100" font-family="Helvetica,sans-Serif" font-size="10.00">::Update</text>
</a>
</g>
<!-- Node12&#45;&gt;Node13 -->
<g id="edge26" class="edge"><title>Node12&#45;&gt;Node13</title>
<path fill="none" stroke="midnightblue" d="M785.358,-76.1241C803.84,-81.0383 825.114,-86.695 844.747,-91.9155"/>
<polygon fill="midnightblue" stroke="midnightblue" points="786.253,-72.7406 775.69,-73.5533 784.454,-79.5055 786.253,-72.7406"/>
</g>
<!-- Node15 -->
<g id="node30" class="node"><title>Node15</title>
<a xlink:href="classGUITimeline.xhtml#a099f3654aa6e7ea04df861851a0e9ec8" target="_top" xlink:title="Sucht den Zeitpunkt zwischen zwei markierten Stellen auf der Sensordaten&#45;Zeitleiste, für den der Wäremeenergiegehalt maximal wird. ">
<polygon fill="none" stroke="black" points="840.5,-52.5 840.5,-73.5 977.5,-73.5 977.5,-52.5 840.5,-52.5"/>
<text text-anchor="middle" x="909" y="-60.5" font-family="Helvetica,sans-Serif" font-size="10.00">GUITimeline::findMaxValue</text>
</a>
</g>
<!-- Node12&#45;&gt;Node15 -->
<g id="edge30" class="edge"><title>Node12&#45;&gt;Node15</title>
<path fill="none" stroke="midnightblue" d="M808.108,-63C818.804,-63 829.801,-63 840.422,-63"/>
<polygon fill="midnightblue" stroke="midnightblue" points="807.968,-59.5001 797.968,-63 807.968,-66.5001 807.968,-59.5001"/>
</g>
<!-- Node14 -->
<g id="node28" class="node"><title>Node14</title>
<a xlink:href="classGUIAnalyzeOutputWindow.xhtml#af9407245a6b2a0478579c4d592a31e63" target="_top" xlink:title="Der Konstruktor. ">
<polygon fill="none" stroke="black" points="1020,-92 1020,-126 1160,-126 1160,-92 1020,-92"/>
<text text-anchor="start" x="1028" y="-113" font-family="Helvetica,sans-Serif" font-size="10.00">GUIAnalyzeOutputWindow</text>
<text text-anchor="middle" x="1090" y="-100" font-family="Helvetica,sans-Serif" font-size="10.00">::GUIAnalyzeOutputWindow</text>
</a>
</g>
<!-- Node13&#45;&gt;Node14 -->
<g id="edge28" class="edge"><title>Node13&#45;&gt;Node14</title>
<path fill="none" stroke="midnightblue" d="M986.303,-109C997.474,-109 1008.92,-109 1019.94,-109"/>
<polygon fill="midnightblue" stroke="midnightblue" points="986.141,-105.5 976.141,-109 986.14,-112.5 986.141,-105.5"/>
</g>
<!-- Node17 -->
<g id="node34" class="node"><title>Node17</title>
<a xlink:href="classGUIMainWindow.xhtml#a0c2de30274c7f52ff74ec1217e47a9e5" target="_top" xlink:title="Berechnet die 3D&#45;Temperaturverteilung neu. ">
<polygon fill="none" stroke="black" points="834,-0 834,-34 984,-34 984,-0 834,-0"/>
<text text-anchor="start" x="842" y="-21" font-family="Helvetica,sans-Serif" font-size="10.00">GUIMainWindow::OnRecalcBt</text>
<text text-anchor="middle" x="909" y="-8" font-family="Helvetica,sans-Serif" font-size="10.00">Click</text>
</a>
</g>
<!-- Node16&#45;&gt;Node17 -->
<g id="edge34" class="edge"><title>Node16&#45;&gt;Node17</title>
<path fill="none" stroke="midnightblue" d="M807.534,-18.7595C816.197,-18.6093 825.067,-18.4555 833.782,-18.3044"/>
<polygon fill="midnightblue" stroke="midnightblue" points="807.418,-15.2609 797.48,-18.9339 807.54,-22.2599 807.418,-15.2609"/>
</g>
</g>
</svg>
