<?xml version="1.0" encoding="UTF-8" standalone="no"?>
<!DOCTYPE svg PUBLIC "-//W3C//DTD SVG 1.1//EN"
 "http://www.w3.org/Graphics/SVG/1.1/DTD/svg11.dtd">
<!-- Generated by graphviz version 2.36.0 (20140111.2315)
 -->
<!-- Title: Utils::getTextBlock Pages: 1 -->
<!--zoomable 317 -->
<svg id="main" version="1.1" xmlns="http://www.w3.org/2000/svg" xmlns:xlink="http://www.w3.org/1999/xlink" xml:space="preserve" onload="init(evt)">
<style type="text/css"><![CDATA[
.edge:hover path { stroke: red; }
.edge:hover polygon { stroke: red; fill: red; }
]]></style>
<script type="text/javascript"><![CDATA[
var edges = document.getElementsByTagName('g');
if (edges && edges.length) {
  for (var i=0;i<edges.length;i++) {
    if (edges[i].id.substr(0,4)=='edge') {
      edges[i].setAttribute('class','edge');
    }
  }
}
]]></script>
        <defs>
                <circle id="rim" cx="0" cy="0" r="7"/>
                <circle id="rim2" cx="0" cy="0" r="3.5"/>
                <g id="zoomPlus">
                        <use xlink:href="#rim" fill="#404040">
                                <set attributeName="fill" to="#808080" begin="zoomplus.mouseover" end="zoomplus.mouseout"/>
                        </use>
                        <path d="M-4,0h8M0,-4v8" fill="none" stroke="white" stroke-width="1.5" pointer-events="none"/>
                </g>
                <g id="zoomMin">
                        <use xlink:href="#rim" fill="#404040">
                                <set attributeName="fill" to="#808080" begin="zoomminus.mouseover" end="zoomminus.mouseout"/>
                        </use>
                        <path d="M-4,0h8" fill="none" stroke="white" stroke-width="1.5" pointer-events="none"/>
                </g>
                <g id="dirArrow">
                        <path fill="none" stroke="white" stroke-width="1.5" d="M0,-3.0v7 M-2.5,-0.5L0,-3.0L2.5,-0.5"/>
                </g>
               <g id="resetDef">
                       <use xlink:href="#rim2" fill="#404040">
                               <set attributeName="fill" to="#808080" begin="reset.mouseover" end="reset.mouseout"/>
                       </use>
               </g>
        </defs>

<script type="text/javascript">
var viewWidth = 724;
var viewHeight = 317;
var sectionId = 'dynsection-6';
</script>
<script xlink:href="svgpan.js"/>
<svg id="graph" class="graph">
<g id="viewport">
<title>Utils::getTextBlock</title>
<!-- Node1 -->
<g id="node1" class="node"><title>Node1</title>
<polygon fill="#bfbfbf" stroke="black" points="0.5,-133.5 0.5,-152.5 101.5,-152.5 101.5,-133.5 0.5,-133.5"/>
<text text-anchor="middle" x="51" y="-140.5" font-family="Helvetica,sans-Serif" font-size="10.00">Utils::getTextBlock</text>
</g>
<!-- Node2 -->
<g id="node2" class="node"><title>Node2</title>
<g id="a_node2"><a xlink:href="classCsvToSdConverter.xhtml#a6cfc076fd11f10d70767750a6aaf1f7c" target="_top" xlink:title="Liest und setzt die Programmkonfiguration aus der Konfigurationsdatei. ">
<polygon fill="none" stroke="black" points="138.5,-289.5 138.5,-308.5 321.5,-308.5 321.5,-289.5 138.5,-289.5"/>
<text text-anchor="middle" x="230" y="-296.5" font-family="Helvetica,sans-Serif" font-size="10.00">CsvToSdConverter::readConfiguration</text>
</a>
</g>
</g>
<!-- Node1&#45;&gt;Node2 -->
<g id="edge1" class="edge"><title>Node1&#45;&gt;Node2</title>
<path fill="none" stroke="midnightblue" d="M58.6934,-162.478C70.0508,-192.471 96.0383,-249.57 138,-279 144.092,-283.273 150.933,-286.655 158.057,-289.33"/>
<polygon fill="midnightblue" stroke="midnightblue" points="61.8675,-160.964 55.1685,-152.756 55.2867,-163.35 61.8675,-160.964"/>
</g>
<!-- Node3 -->
<g id="node3" class="node"><title>Node3</title>
<g id="a_node3"><a xlink:href="classOdisiToSdConverter.xhtml#a8c6bc01ae2c063d89dc64c0a7d68c033" target="_top" xlink:title="Liest und setzt die Programmkonfiguration aus der Konfigurationsdatei. ">
<polygon fill="none" stroke="black" points="177.5,-240 177.5,-270 282.5,-270 282.5,-240 177.5,-240"/>
<text text-anchor="start" x="185.5" y="-258" font-family="Helvetica,sans-Serif" font-size="10.00">OdisiToSdConverter</text>
<text text-anchor="middle" x="230" y="-247" font-family="Helvetica,sans-Serif" font-size="10.00">::readConfiguration</text>
</a>
</g>
</g>
<!-- Node1&#45;&gt;Node3 -->
<g id="edge2" class="edge"><title>Node1&#45;&gt;Node3</title>
<path fill="none" stroke="midnightblue" d="M64.9949,-160.915C80.2836,-180.706 107.484,-212.134 138,-230 149.877,-236.953 163.757,-242.035 177.047,-245.725"/>
<polygon fill="midnightblue" stroke="midnightblue" points="67.6475,-158.619 58.8393,-152.731 62.0532,-162.827 67.6475,-158.619"/>
</g>
<!-- Node4 -->
<g id="node4" class="node"><title>Node4</title>
<g id="a_node4"><a xlink:href="classOdisiToSdConverter.xhtml#a8db961a716d43b3d4de4f2e4e19b0706" target="_top" xlink:title="Liest die Daten aus der Sensordefinitionsdatei. ">
<polygon fill="none" stroke="black" points="170.5,-191 170.5,-221 289.5,-221 289.5,-191 170.5,-191"/>
<text text-anchor="start" x="178.5" y="-209" font-family="Helvetica,sans-Serif" font-size="10.00">OdisiToSdConverter</text>
<text text-anchor="middle" x="230" y="-198" font-family="Helvetica,sans-Serif" font-size="10.00">::readSensorDefinitions</text>
</a>
</g>
</g>
<!-- Node1&#45;&gt;Node4 -->
<g id="edge3" class="edge"><title>Node1&#45;&gt;Node4</title>
<path fill="none" stroke="midnightblue" d="M80.6029,-156.914C97.1319,-164.63 118.461,-174.042 138,-181 148.341,-184.682 159.503,-188.15 170.347,-191.262"/>
<polygon fill="midnightblue" stroke="midnightblue" points="82.0118,-153.709 71.4753,-152.598 79.0195,-160.037 82.0118,-153.709"/>
</g>
<!-- Node5 -->
<g id="node5" class="node"><title>Node5</title>
<g id="a_node5"><a xlink:href="classTsdMerger.xhtml#aed81153be336c48a43e2663e39fa341d" target="_top" xlink:title="Sammelt Daten aus einer .tsd&#45;Datei. ">
<polygon fill="none" stroke="black" points="175.5,-152.5 175.5,-171.5 284.5,-171.5 284.5,-152.5 175.5,-152.5"/>
<text text-anchor="middle" x="230" y="-159.5" font-family="Helvetica,sans-Serif" font-size="10.00">TsdMerger::parseFile</text>
</a>
</g>
</g>
<!-- Node1&#45;&gt;Node5 -->
<g id="edge4" class="edge"><title>Node1&#45;&gt;Node5</title>
<path fill="none" stroke="midnightblue" d="M111.952,-149.436C132.466,-151.638 155.272,-154.086 175.263,-156.232"/>
<polygon fill="midnightblue" stroke="midnightblue" points="112.092,-145.931 101.775,-148.343 111.345,-152.891 112.092,-145.931"/>
</g>
<!-- Node6 -->
<g id="node6" class="node"><title>Node6</title>
<g id="a_node6"><a xlink:href="classDefaultValues.xhtml#ad960d7716705d593d4f1e203c2f64c1d" target="_top" xlink:title="Lädt die Standardwerte für verschiedene Parameter. ">
<polygon fill="none" stroke="black" points="157,-114.5 157,-133.5 303,-133.5 303,-114.5 157,-114.5"/>
<text text-anchor="middle" x="230" y="-121.5" font-family="Helvetica,sans-Serif" font-size="10.00">DefaultValues::DefaultValues</text>
</a>
</g>
</g>
<!-- Node1&#45;&gt;Node6 -->
<g id="edge5" class="edge"><title>Node1&#45;&gt;Node6</title>
<path fill="none" stroke="midnightblue" d="M112.03,-136.556C126.42,-135.011 141.934,-133.346 156.811,-131.749"/>
<polygon fill="midnightblue" stroke="midnightblue" points="111.345,-133.109 101.775,-137.657 112.092,-140.069 111.345,-133.109"/>
</g>
<!-- Node7 -->
<g id="node7" class="node"><title>Node7</title>
<g id="a_node7"><a xlink:href="classImporter.xhtml#aaa567a75272f300157648ffaa9b101c2" target="_top" xlink:title="Lädt Objektdaten aus einer .obj&#45;Datei. ">
<polygon fill="none" stroke="black" points="179.5,-38.5 179.5,-57.5 280.5,-57.5 280.5,-38.5 179.5,-38.5"/>
<text text-anchor="middle" x="230" y="-45.5" font-family="Helvetica,sans-Serif" font-size="10.00">Importer::ImportObj</text>
</a>
</g>
</g>
<!-- Node1&#45;&gt;Node7 -->
<g id="edge6" class="edge"><title>Node1&#45;&gt;Node7</title>
<path fill="none" stroke="midnightblue" d="M66.7271,-125.494C82.5157,-107.916 109.223,-81.4295 138,-67 150.696,-60.6339 165.416,-56.3994 179.269,-53.5832"/>
<polygon fill="midnightblue" stroke="midnightblue" points="63.8367,-123.483 59.8922,-133.316 69.1078,-128.089 63.8367,-123.483"/>
</g>
<!-- Node10 -->
<g id="node10" class="node"><title>Node10</title>
<g id="a_node10"><a xlink:href="classImporter.xhtml#ae837d750c92450f8e83b2d93eb099f79" target="_top" xlink:title="Lädt von einfache Sensordaten (ohne Zeit) und Verknüpft diese mit dem Objekt. ">
<polygon fill="none" stroke="black" points="164.5,-76.5 164.5,-95.5 295.5,-95.5 295.5,-76.5 164.5,-76.5"/>
<text text-anchor="middle" x="230" y="-83.5" font-family="Helvetica,sans-Serif" font-size="10.00">Importer::LoadSensorData</text>
</a>
</g>
</g>
<!-- Node1&#45;&gt;Node10 -->
<g id="edge9" class="edge"><title>Node1&#45;&gt;Node10</title>
<path fill="none" stroke="midnightblue" d="M79.7973,-128.93C96.3616,-121.002 117.994,-111.429 138,-105 149.524,-101.296 162.106,-98.1322 174.138,-95.5091"/>
<polygon fill="midnightblue" stroke="midnightblue" points="78.1373,-125.846 70.6808,-133.372 81.2035,-132.138 78.1373,-125.846"/>
</g>
<!-- Node13 -->
<g id="node13" class="node"><title>Node13</title>
<g id="a_node13"><a xlink:href="classImporter.xhtml#ad8dec9ce375155ca130453632530eb52" target="_top" xlink:title="Lädt zeitgesteuerte Sensordaten und Verknüpft diese mit dem Objekt. ">
<polygon fill="none" stroke="black" points="166,-0.5 166,-19.5 294,-19.5 294,-0.5 166,-0.5"/>
<text text-anchor="middle" x="230" y="-7.5" font-family="Helvetica,sans-Serif" font-size="10.00">Importer::LoadTimedData</text>
</a>
</g>
</g>
<!-- Node1&#45;&gt;Node13 -->
<g id="edge13" class="edge"><title>Node1&#45;&gt;Node13</title>
<path fill="none" stroke="midnightblue" d="M60.8291,-124.04C73.8812,-98.2304 100.849,-52.56 138,-29 146.45,-23.641 156.145,-19.7634 165.986,-16.9639"/>
<polygon fill="midnightblue" stroke="midnightblue" points="57.614,-122.648 56.3757,-133.171 63.9055,-125.717 57.614,-122.648"/>
</g>
<!-- Node8 -->
<g id="node8" class="node"><title>Node8</title>
<g id="a_node8"><a xlink:href="classObjectData.xhtml#ab2fabb02de2ac4b5ff09b73beb15223d" target="_top" xlink:title="Lädt ein Objekt und erste Sensordaten. ">
<polygon fill="none" stroke="black" points="364,-38.5 364,-57.5 492,-57.5 492,-38.5 364,-38.5"/>
<text text-anchor="middle" x="428" y="-45.5" font-family="Helvetica,sans-Serif" font-size="10.00">ObjectData::loadFromFile</text>
</a>
</g>
</g>
<!-- Node7&#45;&gt;Node8 -->
<g id="edge7" class="edge"><title>Node7&#45;&gt;Node8</title>
<path fill="none" stroke="midnightblue" d="M290.757,-48C313.931,-48 340.489,-48 363.965,-48"/>
<polygon fill="midnightblue" stroke="midnightblue" points="290.712,-44.5001 280.712,-48 290.712,-51.5001 290.712,-44.5001"/>
</g>
<!-- Node9 -->
<g id="node9" class="node"><title>Node9</title>
<g id="a_node9"><a xlink:href="classGUIMainWindow.xhtml#a9fd9f2be8f45cb5433193f5d28c924bc" target="_top" xlink:title="Event&#45;Tabellendeklaration für wxWidgets. ">
<polygon fill="none" stroke="black" points="537,-38.5 537,-57.5 713,-57.5 713,-38.5 537,-38.5"/>
<text text-anchor="middle" x="625" y="-45.5" font-family="Helvetica,sans-Serif" font-size="10.00">GUIMainWindow::OnMenuImportObj</text>
</a>
</g>
</g>
<!-- Node8&#45;&gt;Node9 -->
<g id="edge8" class="edge"><title>Node8&#45;&gt;Node9</title>
<path fill="none" stroke="midnightblue" d="M502.223,-48C513.471,-48 525.179,-48 536.695,-48"/>
<polygon fill="midnightblue" stroke="midnightblue" points="502.042,-44.5001 492.042,-48 502.042,-51.5001 502.042,-44.5001"/>
</g>
<!-- Node10&#45;&gt;Node8 -->
<g id="edge10" class="edge"><title>Node10&#45;&gt;Node8</title>
<path fill="none" stroke="midnightblue" d="M290.261,-74.5106C318.227,-69.0886 351.209,-62.6942 377.774,-57.5439"/>
<polygon fill="midnightblue" stroke="midnightblue" points="289.357,-71.1206 280.206,-76.46 290.689,-77.9927 289.357,-71.1206"/>
</g>
<!-- Node11 -->
<g id="node11" class="node"><title>Node11</title>
<g id="a_node11"><a xlink:href="classObjectData.xhtml#a351c17608005c849cb0f26e44beee2ec" target="_top" xlink:title="Lädt einfache Sensordaten und verknüpft sie mit dem Objekt. ">
<polygon fill="none" stroke="black" points="358,-76.5 358,-95.5 498,-95.5 498,-76.5 358,-76.5"/>
<text text-anchor="middle" x="428" y="-83.5" font-family="Helvetica,sans-Serif" font-size="10.00">ObjectData::addSensorData</text>
</a>
</g>
</g>
<!-- Node10&#45;&gt;Node11 -->
<g id="edge11" class="edge"><title>Node10&#45;&gt;Node11</title>
<path fill="none" stroke="midnightblue" d="M306.178,-86C323.206,-86 341.208,-86 357.968,-86"/>
<polygon fill="midnightblue" stroke="midnightblue" points="305.721,-82.5001 295.721,-86 305.721,-89.5001 305.721,-82.5001"/>
</g>
<!-- Node12 -->
<g id="node12" class="node"><title>Node12</title>
<g id="a_node12"><a xlink:href="classGUIMainWindow.xhtml#a405b99746fe6f35ec527c57604e53ce2" target="_top" xlink:title="Öffnet den Dialog zum Importieren einfacher Sensordaten. ">
<polygon fill="none" stroke="black" points="537,-76.5 537,-95.5 713,-95.5 713,-76.5 537,-76.5"/>
<text text-anchor="middle" x="625" y="-83.5" font-family="Helvetica,sans-Serif" font-size="10.00">GUIMainWindow::OnMenuImportSD</text>
</a>
</g>
</g>
<!-- Node11&#45;&gt;Node12 -->
<g id="edge12" class="edge"><title>Node11&#45;&gt;Node12</title>
<path fill="none" stroke="midnightblue" d="M508.194,-86C517.669,-86 527.383,-86 536.961,-86"/>
<polygon fill="midnightblue" stroke="midnightblue" points="508.024,-82.5001 498.024,-86 508.024,-89.5001 508.024,-82.5001"/>
</g>
<!-- Node13&#45;&gt;Node8 -->
<g id="edge14" class="edge"><title>Node13&#45;&gt;Node8</title>
<path fill="none" stroke="midnightblue" d="M290.261,-21.4894C318.227,-26.9114 351.209,-33.3058 377.774,-38.4561"/>
<polygon fill="midnightblue" stroke="midnightblue" points="290.689,-18.0073 280.206,-19.54 289.357,-24.8794 290.689,-18.0073"/>
</g>
<!-- Node14 -->
<g id="node14" class="node"><title>Node14</title>
<g id="a_node14"><a xlink:href="classObjectData.xhtml#ac8056d23b0882a826b6e572ff080688f" target="_top" xlink:title="Lädt zeitbezogene Sensordaten und verknüpft sie mit dem Objekt. ">
<polygon fill="none" stroke="black" points="360,-0.5 360,-19.5 496,-19.5 496,-0.5 360,-0.5"/>
<text text-anchor="middle" x="428" y="-7.5" font-family="Helvetica,sans-Serif" font-size="10.00">ObjectData::addTimedData</text>
</a>
</g>
</g>
<!-- Node13&#45;&gt;Node14 -->
<g id="edge15" class="edge"><title>Node13&#45;&gt;Node14</title>
<path fill="none" stroke="midnightblue" d="M304.12,-10C322.426,-10 341.973,-10 359.968,-10"/>
<polygon fill="midnightblue" stroke="midnightblue" points="304.095,-6.5001 294.095,-10 304.094,-13.5001 304.095,-6.5001"/>
</g>
<!-- Node15 -->
<g id="node15" class="node"><title>Node15</title>
<g id="a_node15"><a xlink:href="classGUIMainWindow.xhtml#ab6b1fb242c4b529764093a092349f560" target="_top" xlink:title="Öffnet den Dialog zum Importieren zeitbezogener Sensordaten. ">
<polygon fill="none" stroke="black" points="534,-0.5 534,-19.5 716,-19.5 716,-0.5 534,-0.5"/>
<text text-anchor="middle" x="625" y="-7.5" font-family="Helvetica,sans-Serif" font-size="10.00">GUIMainWindow::OnMenuImportTSD</text>
</a>
</g>
</g>
<!-- Node14&#45;&gt;Node15 -->
<g id="edge16" class="edge"><title>Node14&#45;&gt;Node15</title>
<path fill="none" stroke="midnightblue" d="M506.188,-10C515.222,-10 524.501,-10 533.693,-10"/>
<polygon fill="midnightblue" stroke="midnightblue" points="506.108,-6.5001 496.108,-10 506.108,-13.5001 506.108,-6.5001"/>
</g>
</g>
</svg>
        <g id="navigator" transform="translate(0 0)" fill="#404254">
                <rect fill="#f2f5e9" fill-opacity="0.5" stroke="#606060" stroke-width=".5" x="0" y="0" width="60" height="60"/>
                <use id="zoomplus" xlink:href="#zoomPlus" x="17" y="9" onmousedown="handleZoom(evt,'in')"/>
                <use id="zoomminus" xlink:href="#zoomMin" x="42" y="9" onmousedown="handleZoom(evt,'out')"/>
                <use id="reset" xlink:href="#resetDef" x="30" y="36" onmousedown="handleReset()"/>
                <g id="arrowUp" xlink:href="#dirArrow" transform="translate(30 24)" onmousedown="handlePan(0,-1)">
                  <use xlink:href="#rim" fill="#404040">
                        <set attributeName="fill" to="#808080" begin="arrowUp.mouseover" end="arrowUp.mouseout"/>
                  </use>
                  <path fill="none" stroke="white" stroke-width="1.5" d="M0,-3.0v7 M-2.5,-0.5L0,-3.0L2.5,-0.5"/>
                </g>
                <g id="arrowRight" xlink:href="#dirArrow" transform="rotate(90) translate(36 -43)" onmousedown="handlePan(1,0)">
                  <use xlink:href="#rim" fill="#404040">
                        <set attributeName="fill" to="#808080" begin="arrowRight.mouseover" end="arrowRight.mouseout"/>
                  </use>
                  <path fill="none" stroke="white" stroke-width="1.5" d="M0,-3.0v7 M-2.5,-0.5L0,-3.0L2.5,-0.5"/>
                </g>
                <g id="arrowDown" xlink:href="#dirArrow" transform="rotate(180) translate(-30 -48)" onmousedown="handlePan(0,1)">
                  <use xlink:href="#rim" fill="#404040">
                        <set attributeName="fill" to="#808080" begin="arrowDown.mouseover" end="arrowDown.mouseout"/>
                  </use>
                  <path fill="none" stroke="white" stroke-width="1.5" d="M0,-3.0v7 M-2.5,-0.5L0,-3.0L2.5,-0.5"/>
                </g>
                <g id="arrowLeft" xlink:href="#dirArrow" transform="rotate(270) translate(-36 17)" onmousedown="handlePan(-1,0)">
                  <use xlink:href="#rim" fill="#404040">
                        <set attributeName="fill" to="#808080" begin="arrowLeft.mouseover" end="arrowLeft.mouseout"/>
                  </use>
                  <path fill="none" stroke="white" stroke-width="1.5" d="M0,-3.0v7 M-2.5,-0.5L0,-3.0L2.5,-0.5"/>
                </g>
        </g>
        <svg viewBox="0 0 15 15" width="100%" height="30px" preserveAspectRatio="xMaxYMin meet">
         <g id="arrow_out" transform="scale(0.3 0.3)">
          <a xlink:href="namespaceUtils_ab5711927eff2cdd7123d98d343f0dfad_icgraph_org.svg" target="_base">
           <rect id="button" ry="5" rx="5" y="6" x="6" height="38" width="38"
                fill="#f2f5e9" fill-opacity="0.5" stroke="#606060" stroke-width="1.0"/>
           <path id="arrow"
             d="M 11.500037,31.436501 C 11.940474,20.09759 22.043105,11.32322 32.158766,21.979434 L 37.068811,17.246167 C 37.068811,17.246167 37.088388,32 37.088388,32 L 22.160133,31.978069 C 22.160133,31.978069 26.997745,27.140456 26.997745,27.140456 C 18.528582,18.264221 13.291696,25.230495 11.500037,31.436501 z"
             style="fill:#404040;"/>
          </a>
         </g>
        </svg>
</svg>
