<?xml version="1.0" encoding="UTF-8" standalone="no"?>
<!DOCTYPE svg PUBLIC "-//W3C//DTD SVG 1.1//EN"
 "http://www.w3.org/Graphics/SVG/1.1/DTD/svg11.dtd">
<!-- Generated by graphviz version 2.26.3 (20100126.1600)
 -->
<!-- Title: Utils::getPointValue Pages: 1 -->
<svg width="742pt" height="790pt"
 viewBox="0.00 0.00 742.00 790.29" xmlns="http://www.w3.org/2000/svg" xmlns:xlink="http://www.w3.org/1999/xlink">
<g id="graph1" class="graph" transform="scale(1 1) rotate(0) translate(4 786.288)">
<title>Utils::getPointValue</title>
<!-- Node1 -->
<g id="node1" class="node"><title>Node1</title>
<polygon fill="#bfbfbf" stroke="black" points="0,-535.308 0,-556.308 104,-556.308 104,-535.308 0,-535.308"/>
<text text-anchor="middle" x="52" y="-543.308" font-family="Helvetica,sans-Serif" font-size="10.00">Utils::getPointValue</text>
</g>
<!-- Node2 -->
<g id="node3" class="node"><title>Node2</title>
<a xlink:href="namespaceUtils.xhtml#a9b995a1220a78be108b19bda4b776332" target="_top" xlink:title="Testet, ob sich ein Punkt innerhalb eines Tetraeders befindet. ">
<polygon fill="none" stroke="black" points="308,-689.308 308,-710.308 450,-710.308 450,-689.308 308,-689.308"/>
<text text-anchor="middle" x="379" y="-697.308" font-family="Helvetica,sans-Serif" font-size="10.00">Utils::pointInsideTetrahedron</text>
</a>
</g>
<!-- Node1&#45;&gt;Node2 -->
<g id="edge2" class="edge"><title>Node1&#45;&gt;Node2</title>
<path fill="none" stroke="midnightblue" d="M70.8709,-556.373C112.733,-579.575 216.882,-635.997 308,-674.808 317.102,-678.684 327.029,-682.455 336.498,-685.842"/>
<polygon fill="midnightblue" stroke="midnightblue" points="335.551,-689.219 346.146,-689.222 337.866,-682.613 335.551,-689.219"/>
</g>
<!-- Node11 -->
<g id="node27" class="node"><title>Node11</title>
<a xlink:href="namespaceUtils.xhtml#af4ba26e928c7cef5269c51bfac49d547" target="_top" xlink:title="Ermöglicht das generieren aller möglichen Verteilungen von 4 Elementen auf dataPointCount Plätze...">
<polygon fill="none" stroke="black" points="148,-535.308 148,-556.308 264,-556.308 264,-535.308 148,-535.308"/>
<text text-anchor="middle" x="206" y="-543.308" font-family="Helvetica,sans-Serif" font-size="10.00">Utils::nextCombination</text>
</a>
</g>
<!-- Node1&#45;&gt;Node11 -->
<g id="edge32" class="edge"><title>Node1&#45;&gt;Node11</title>
<path fill="none" stroke="midnightblue" d="M104.137,-545.808C114.893,-545.808 126.375,-545.808 137.608,-545.808"/>
<polygon fill="midnightblue" stroke="midnightblue" points="137.827,-549.308 147.827,-545.808 137.827,-542.308 137.827,-549.308"/>
</g>
<!-- Node12 -->
<g id="node29" class="node"><title>Node12</title>
<a xlink:href="classInterpolator.xhtml#a30e714ca6dff9b5745d029f95af1420a" target="_top" xlink:title="Ermittelt den Wert für einen beliebigen Punkt im Raum. ">
<polygon fill="none" stroke="black" points="140.5,-381.308 140.5,-402.308 271.5,-402.308 271.5,-381.308 140.5,-381.308"/>
<text text-anchor="middle" x="206" y="-389.308" font-family="Helvetica,sans-Serif" font-size="10.00">Interpolator::interpolateTet</text>
</a>
</g>
<!-- Node1&#45;&gt;Node12 -->
<g id="edge34" class="edge"><title>Node1&#45;&gt;Node12</title>
<path fill="none" stroke="midnightblue" d="M62.585,-535.223C88.5205,-509.287 155.479,-442.328 187.891,-409.917"/>
<polygon fill="midnightblue" stroke="midnightblue" points="190.745,-412.013 195.341,-402.467 185.795,-407.063 190.745,-412.013"/>
</g>
<!-- Node3 -->
<g id="node5" class="node"><title>Node3</title>
<a xlink:href="classVector3D.xhtml#a02364a41693ac080f5adadd776df74b4" target="_top" xlink:title="Subtrahiert einen Vektor von diesem Vektor. ">
<polygon fill="none" stroke="black" points="510,-609.308 510,-630.308 590,-630.308 590,-609.308 510,-609.308"/>
<text text-anchor="middle" x="550" y="-617.308" font-family="Helvetica,sans-Serif" font-size="10.00">Vector3D::sub</text>
</a>
</g>
<!-- Node2&#45;&gt;Node3 -->
<g id="edge4" class="edge"><title>Node2&#45;&gt;Node3</title>
<path fill="none" stroke="midnightblue" d="M395.494,-689.124C416.049,-676.152 452.556,-654.223 486,-639.808 491.078,-637.619 496.475,-635.554 501.897,-633.642"/>
<polygon fill="midnightblue" stroke="midnightblue" points="503.259,-636.877 511.623,-630.372 501.029,-630.242 503.259,-636.877"/>
</g>
<!-- Node7 -->
<g id="node13" class="node"><title>Node7</title>
<a xlink:href="classVector3D.xhtml#a482cd77ce44ea7dd71fd7a43cb7b1cf5" target="_top" xlink:title="Gibt das Kreuzprodukt mit einem anderen Vektor zurück. ">
<polygon fill="none" stroke="black" points="489,-569.308 489,-590.308 611,-590.308 611,-569.308 489,-569.308"/>
<text text-anchor="middle" x="550" y="-577.308" font-family="Helvetica,sans-Serif" font-size="10.00">Vector3D::crossProduct</text>
</a>
</g>
<!-- Node2&#45;&gt;Node7 -->
<g id="edge12" class="edge"><title>Node2&#45;&gt;Node7</title>
<path fill="none" stroke="midnightblue" d="M387.546,-689.106C404.311,-668.798 443.592,-624.499 486,-599.808 489.622,-597.699 493.49,-595.788 497.465,-594.061"/>
<polygon fill="midnightblue" stroke="midnightblue" points="498.844,-597.279 506.865,-590.357 496.278,-590.767 498.844,-597.279"/>
</g>
<!-- Node8 -->
<g id="node18" class="node"><title>Node8</title>
<a xlink:href="classVector3D.xhtml#a0808a8e6004a347d82f9214778b5968f" target="_top" xlink:title="Gibt das Skalarprodukt mit einem anderen Vektor. ">
<polygon fill="none" stroke="black" points="494.5,-689.308 494.5,-710.308 605.5,-710.308 605.5,-689.308 494.5,-689.308"/>
<text text-anchor="middle" x="550" y="-697.308" font-family="Helvetica,sans-Serif" font-size="10.00">Vector3D::dotProduct</text>
</a>
</g>
<!-- Node2&#45;&gt;Node8 -->
<g id="edge20" class="edge"><title>Node2&#45;&gt;Node8</title>
<path fill="none" stroke="midnightblue" d="M450.034,-699.808C461.345,-699.808 473.004,-699.808 484.188,-699.808"/>
<polygon fill="midnightblue" stroke="midnightblue" points="484.301,-703.308 494.301,-699.808 484.301,-696.308 484.301,-703.308"/>
</g>
<!-- Node9 -->
<g id="node23" class="node"><title>Node9</title>
<a xlink:href="classVector3D.xhtml#a3dec11494c99de7370e3877054c3ef13" target="_top" xlink:title="Multipliziert den Vektor mit einem Skalar. ">
<polygon fill="none" stroke="black" points="508.5,-747.308 508.5,-768.308 591.5,-768.308 591.5,-747.308 508.5,-747.308"/>
<text text-anchor="middle" x="550" y="-755.308" font-family="Helvetica,sans-Serif" font-size="10.00">Vector3D::mult</text>
</a>
</g>
<!-- Node2&#45;&gt;Node9 -->
<g id="edge28" class="edge"><title>Node2&#45;&gt;Node9</title>
<path fill="none" stroke="midnightblue" d="M409.967,-710.311C437.844,-719.767 478.997,-733.725 509.482,-744.065"/>
<polygon fill="midnightblue" stroke="midnightblue" points="508.381,-747.387 518.975,-747.285 510.629,-740.758 508.381,-747.387"/>
</g>
<!-- Node10 -->
<g id="node25" class="node"><title>Node10</title>
<a xlink:href="classVector3D.xhtml#a46dd0d9a849809a3857783102959e788" target="_top" xlink:title="Gibt eine Kopie des Vektors zurück. ">
<polygon fill="none" stroke="black" points="507.5,-649.308 507.5,-670.308 592.5,-670.308 592.5,-649.308 507.5,-649.308"/>
<text text-anchor="middle" x="550" y="-657.308" font-family="Helvetica,sans-Serif" font-size="10.00">Vector3D::copy</text>
</a>
</g>
<!-- Node2&#45;&gt;Node10 -->
<g id="edge30" class="edge"><title>Node2&#45;&gt;Node10</title>
<path fill="none" stroke="midnightblue" d="M423.928,-689.298C446.527,-684.012 474.048,-677.574 497.605,-672.064"/>
<polygon fill="midnightblue" stroke="midnightblue" points="498.492,-675.451 507.432,-669.765 496.897,-668.635 498.492,-675.451"/>
</g>
<!-- Node4 -->
<g id="node7" class="node"><title>Node4</title>
<a xlink:href="classVector3D.xhtml#aa9eaf29045bf32b95c5c7bcb2b8b68d7" target="_top" xlink:title="Gibt das X&#45;Element des Vektors zurück. ">
<polygon fill="none" stroke="black" points="650,-491.308 650,-512.308 734,-512.308 734,-491.308 650,-491.308"/>
<text text-anchor="middle" x="692" y="-499.308" font-family="Helvetica,sans-Serif" font-size="10.00">Vector3D::getX</text>
</a>
</g>
<!-- Node3&#45;&gt;Node4 -->
<g id="edge6" class="edge"><title>Node3&#45;&gt;Node4</title>
<path fill="none" stroke="midnightblue" d="M590.273,-611.238C598.548,-608.402 606.894,-604.677 614,-599.808 644.158,-579.144 668.345,-543.355 681.397,-521.219"/>
<polygon fill="midnightblue" stroke="midnightblue" points="684.524,-522.801 686.444,-512.382 678.445,-519.33 684.524,-522.801"/>
</g>
<!-- Node5 -->
<g id="node9" class="node"><title>Node5</title>
<a xlink:href="classVector3D.xhtml#aa3ffff17b886274a58417dfe4bb4c4a2" target="_top" xlink:title="Gibt das Y&#45;Element des Vektors zurück. ">
<polygon fill="none" stroke="black" points="650,-451.308 650,-472.308 734,-472.308 734,-451.308 650,-451.308"/>
<text text-anchor="middle" x="692" y="-459.308" font-family="Helvetica,sans-Serif" font-size="10.00">Vector3D::getY</text>
</a>
</g>
<!-- Node3&#45;&gt;Node5 -->
<g id="edge8" class="edge"><title>Node3&#45;&gt;Node5</title>
<path fill="none" stroke="midnightblue" d="M590.183,-613.703C598.944,-610.735 607.519,-606.333 614,-599.808 652.64,-560.905 614.208,-523.345 650,-481.808 651.124,-480.504 652.351,-479.278 653.658,-478.127"/>
<polygon fill="midnightblue" stroke="midnightblue" points="655.704,-480.967 661.829,-472.322 651.65,-475.261 655.704,-480.967"/>
</g>
<!-- Node6 -->
<g id="node11" class="node"><title>Node6</title>
<a xlink:href="classVector3D.xhtml#ab0dcbf253ff78856eccb5ea74d080fc7" target="_top" xlink:title="Gibt das Z&#45;Element des Vektors zurück. ">
<polygon fill="none" stroke="black" points="650.5,-411.308 650.5,-432.308 733.5,-432.308 733.5,-411.308 650.5,-411.308"/>
<text text-anchor="middle" x="692" y="-419.308" font-family="Helvetica,sans-Serif" font-size="10.00">Vector3D::getZ</text>
</a>
</g>
<!-- Node3&#45;&gt;Node6 -->
<g id="edge10" class="edge"><title>Node3&#45;&gt;Node6</title>
<path fill="none" stroke="midnightblue" d="M590.194,-614.145C599.059,-611.165 607.68,-606.647 614,-599.808 662.88,-546.913 604.982,-498.027 650,-441.808 650.947,-440.626 651.98,-439.51 653.082,-438.456"/>
<polygon fill="midnightblue" stroke="midnightblue" points="655.278,-441.183 661.166,-432.375 651.071,-435.589 655.278,-441.183"/>
</g>
<!-- Node7&#45;&gt;Node4 -->
<g id="edge18" class="edge"><title>Node7&#45;&gt;Node4</title>
<path fill="none" stroke="midnightblue" d="M591.101,-569.219C598.894,-566.587 606.843,-563.454 614,-559.808 635.695,-548.756 657.712,-531.739 672.796,-518.99"/>
<polygon fill="midnightblue" stroke="midnightblue" points="675.134,-521.596 680.417,-512.412 670.56,-516.297 675.134,-521.596"/>
</g>
<!-- Node7&#45;&gt;Node5 -->
<g id="edge16" class="edge"><title>Node7&#45;&gt;Node5</title>
<path fill="none" stroke="midnightblue" d="M599.134,-569.259C604.52,-566.752 609.627,-563.648 614,-559.808 642.689,-534.614 623.165,-508.967 650,-481.808 651.249,-480.544 652.593,-479.349 654.007,-478.222"/>
<polygon fill="midnightblue" stroke="midnightblue" points="656.282,-480.914 662.693,-472.478 652.421,-475.075 656.282,-480.914"/>
</g>
<!-- Node7&#45;&gt;Node6 -->
<g id="edge14" class="edge"><title>Node7&#45;&gt;Node6</title>
<path fill="none" stroke="midnightblue" d="M600.925,-569.183C605.742,-566.687 610.226,-563.607 614,-559.808 652.64,-520.905 614.208,-483.345 650,-441.808 651.124,-440.504 652.351,-439.278 653.658,-438.127"/>
<polygon fill="midnightblue" stroke="midnightblue" points="655.704,-440.967 661.829,-432.322 651.65,-435.261 655.704,-440.967"/>
</g>
<!-- Node8&#45;&gt;Node4 -->
<g id="edge22" class="edge"><title>Node8&#45;&gt;Node4</title>
<path fill="none" stroke="midnightblue" d="M599.529,-689.189C604.783,-686.694 609.751,-683.613 614,-679.808 661.834,-636.971 681.655,-559.452 688.677,-522.491"/>
<polygon fill="midnightblue" stroke="midnightblue" points="692.166,-522.862 690.462,-512.405 685.273,-521.642 692.166,-522.862"/>
</g>
<!-- Node8&#45;&gt;Node5 -->
<g id="edge24" class="edge"><title>Node8&#45;&gt;Node5</title>
<path fill="none" stroke="midnightblue" d="M601.999,-689.273C606.491,-686.755 610.608,-683.645 614,-679.808 673.238,-612.794 595.649,-552.843 650,-481.808 650.801,-480.761 651.67,-479.767 652.595,-478.823"/>
<polygon fill="midnightblue" stroke="midnightblue" points="654.91,-481.455 660.599,-472.517 650.578,-475.956 654.91,-481.455"/>
</g>
<!-- Node8&#45;&gt;Node6 -->
<g id="edge26" class="edge"><title>Node8&#45;&gt;Node6</title>
<path fill="none" stroke="midnightblue" d="M602.421,-689.201C606.771,-686.694 610.741,-683.607 614,-679.808 683.654,-598.609 586.262,-527.728 650,-441.808 650.785,-440.75 651.64,-439.745 652.554,-438.792"/>
<polygon fill="midnightblue" stroke="midnightblue" points="654.873,-441.419 660.499,-432.442 650.502,-435.951 654.873,-441.419"/>
</g>
<!-- Node12&#45;&gt;Node3 -->
<g id="edge56" class="edge"><title>Node12&#45;&gt;Node3</title>
<path fill="none" stroke="midnightblue" d="M211.397,-402.532C222.779,-425.201 250.008,-479.697 272,-525.808 288.436,-560.27 276.536,-582.18 308,-603.808 364.44,-642.603 446.855,-638.558 499.452,-630.451"/>
<polygon fill="midnightblue" stroke="midnightblue" points="500.259,-633.865 509.557,-628.787 499.121,-626.958 500.259,-633.865"/>
</g>
<!-- Node12&#45;&gt;Node7 -->
<g id="edge92" class="edge"><title>Node12&#45;&gt;Node7</title>
<path fill="none" stroke="midnightblue" d="M213.783,-402.493C229.418,-423.256 266.698,-469.326 308,-495.808 363.807,-531.589 436.673,-554.181 487.81,-566.811"/>
<polygon fill="midnightblue" stroke="midnightblue" points="487.195,-570.263 497.737,-569.206 488.836,-563.458 487.195,-570.263"/>
</g>
<!-- Node12&#45;&gt;Node8 -->
<g id="edge74" class="edge"><title>Node12&#45;&gt;Node8</title>
<path fill="none" stroke="midnightblue" d="M212.538,-402.49C225.804,-424.648 255.984,-477.569 272,-525.808 299.633,-609.034 240.571,-663.74 308,-719.808 368.474,-770.093 469.33,-736.464 519.593,-714.522"/>
<polygon fill="midnightblue" stroke="midnightblue" points="521.259,-717.611 528.944,-710.318 518.389,-711.227 521.259,-717.611"/>
</g>
<!-- Node12&#45;&gt;Node9 -->
<g id="edge76" class="edge"><title>Node12&#45;&gt;Node9</title>
<path fill="none" stroke="midnightblue" d="M212.625,-402.462C226.054,-424.566 256.515,-477.396 272,-525.808 287.159,-573.201 270.834,-713.723 308,-746.808 361.711,-794.621 451.627,-783.473 505.427,-770.795"/>
<polygon fill="midnightblue" stroke="midnightblue" points="506.491,-774.137 515.359,-768.34 504.812,-767.341 506.491,-774.137"/>
</g>
<!-- Node12&#45;&gt;Node10 -->
<g id="edge54" class="edge"><title>Node12&#45;&gt;Node10</title>
<path fill="none" stroke="midnightblue" d="M211.808,-402.349C223.97,-424.673 252.591,-478.551 272,-525.808 291.222,-572.61 268.595,-602.07 308,-633.808 361.176,-676.637 443.638,-675.758 497.23,-669.283"/>
<polygon fill="midnightblue" stroke="midnightblue" points="497.757,-672.744 507.216,-667.972 496.845,-665.804 497.757,-672.744"/>
</g>
<!-- Node13 -->
<g id="node31" class="node"><title>Node13</title>
<a xlink:href="classVector3D.xhtml#ac83e936757114f32bc9d868ea5fabbc2" target="_top" xlink:title="Testet, ob zwei Vektoren identisch sind. ">
<polygon fill="none" stroke="black" points="504,-451.308 504,-472.308 596,-472.308 596,-451.308 504,-451.308"/>
<text text-anchor="middle" x="550" y="-459.308" font-family="Helvetica,sans-Serif" font-size="10.00">Vector3D::equals</text>
</a>
</g>
<!-- Node12&#45;&gt;Node13 -->
<g id="edge36" class="edge"><title>Node12&#45;&gt;Node13</title>
<path fill="none" stroke="midnightblue" d="M229.833,-402.435C250.203,-411.089 280.494,-422.958 308,-429.808 370.581,-445.391 444.273,-453.755 493.753,-457.976"/>
<polygon fill="midnightblue" stroke="midnightblue" points="493.678,-461.482 503.931,-458.815 494.253,-454.505 493.678,-461.482"/>
</g>
<!-- Node14 -->
<g id="node36" class="node"><title>Node14</title>
<a xlink:href="classTetrahedron.xhtml#a88afe41ae5991168ad51ba4dbb2e1a6b" target="_top" xlink:title="Gibt eine Referenz auf den Ortsvektor zum index+1 Punkt des Tetraeders zurück. ">
<polygon fill="none" stroke="black" points="326,-381.308 326,-402.308 432,-402.308 432,-381.308 326,-381.308"/>
<text text-anchor="middle" x="379" y="-389.308" font-family="Helvetica,sans-Serif" font-size="10.00">Tetrahedron::getVert</text>
</a>
</g>
<!-- Node12&#45;&gt;Node14 -->
<g id="edge44" class="edge"><title>Node12&#45;&gt;Node14</title>
<path fill="none" stroke="midnightblue" d="M271.897,-391.808C286.266,-391.808 301.44,-391.808 315.705,-391.808"/>
<polygon fill="midnightblue" stroke="midnightblue" points="315.907,-395.308 325.907,-391.808 315.907,-388.308 315.907,-395.308"/>
</g>
<!-- Node15 -->
<g id="node38" class="node"><title>Node15</title>
<a xlink:href="classTetrahedron.xhtml#add51e42ab17afbd023d47a436ce24b0d" target="_top" xlink:title="Gibt eine Referenz auf den Ortsvektor zum 1. ">
<polygon fill="none" stroke="black" points="329,-341.308 329,-362.308 429,-362.308 429,-341.308 329,-341.308"/>
<text text-anchor="middle" x="379" y="-349.308" font-family="Helvetica,sans-Serif" font-size="10.00">Tetrahedron::getV1</text>
</a>
</g>
<!-- Node12&#45;&gt;Node15 -->
<g id="edge46" class="edge"><title>Node12&#45;&gt;Node15</title>
<path fill="none" stroke="midnightblue" d="M251.454,-381.298C273.616,-376.174 300.458,-369.968 323.789,-364.573"/>
<polygon fill="midnightblue" stroke="midnightblue" points="324.595,-367.979 333.55,-362.316 323.018,-361.159 324.595,-367.979"/>
</g>
<!-- Node16 -->
<g id="node40" class="node"><title>Node16</title>
<a xlink:href="classTetrahedron.xhtml#aa728c967f17e2b8408009b5f2b77a17a" target="_top" xlink:title="Gibt eine Referenz auf den Ortsvektor zum 2. ">
<polygon fill="none" stroke="black" points="329,-301.308 329,-322.308 429,-322.308 429,-301.308 329,-301.308"/>
<text text-anchor="middle" x="379" y="-309.308" font-family="Helvetica,sans-Serif" font-size="10.00">Tetrahedron::getV2</text>
</a>
</g>
<!-- Node12&#45;&gt;Node16 -->
<g id="edge48" class="edge"><title>Node12&#45;&gt;Node16</title>
<path fill="none" stroke="midnightblue" d="M221.24,-381.145C240.625,-367.991 275.496,-345.671 308,-331.808 313.433,-329.49 319.214,-327.359 325.039,-325.421"/>
<polygon fill="midnightblue" stroke="midnightblue" points="326.342,-328.681 334.834,-322.345 324.244,-322.003 326.342,-328.681"/>
</g>
<!-- Node17 -->
<g id="node42" class="node"><title>Node17</title>
<a xlink:href="classTetrahedron.xhtml#aa539a97f133ea621520121acb2ef4a7e" target="_top" xlink:title="Gibt eine Referenz auf den Ortsvektor zum 3. ">
<polygon fill="none" stroke="black" points="329,-261.308 329,-282.308 429,-282.308 429,-261.308 329,-261.308"/>
<text text-anchor="middle" x="379" y="-269.308" font-family="Helvetica,sans-Serif" font-size="10.00">Tetrahedron::getV3</text>
</a>
</g>
<!-- Node12&#45;&gt;Node17 -->
<g id="edge50" class="edge"><title>Node12&#45;&gt;Node17</title>
<path fill="none" stroke="midnightblue" d="M213.725,-381.296C229.259,-360.916 266.37,-315.923 308,-291.808 311.678,-289.677 315.595,-287.763 319.628,-286.045"/>
<polygon fill="midnightblue" stroke="midnightblue" points="321.104,-289.228 329.19,-282.382 318.6,-282.691 321.104,-289.228"/>
</g>
<!-- Node18 -->
<g id="node44" class="node"><title>Node18</title>
<a xlink:href="classTriangle.xhtml#a6de5f8560482f4130bdbb96b25aa1b58" target="_top" xlink:title="Gibt eine Referenz auf den Ortsvektor zum zweiten Punkt des Dreiecks zurück. ">
<polygon fill="none" stroke="black" points="337.5,-221.308 337.5,-242.308 420.5,-242.308 420.5,-221.308 337.5,-221.308"/>
<text text-anchor="middle" x="379" y="-229.308" font-family="Helvetica,sans-Serif" font-size="10.00">Triangle::getV2</text>
</a>
</g>
<!-- Node12&#45;&gt;Node18 -->
<g id="edge52" class="edge"><title>Node12&#45;&gt;Node18</title>
<path fill="none" stroke="midnightblue" d="M210.682,-381.162C222.771,-354.943 257.642,-286.844 308,-251.808 313.926,-247.685 320.685,-244.408 327.623,-241.804"/>
<polygon fill="midnightblue" stroke="midnightblue" points="328.741,-245.121 337.134,-238.654 326.54,-238.476 328.741,-245.121"/>
</g>
<!-- Node19 -->
<g id="node48" class="node"><title>Node19</title>
<a xlink:href="classTriangle.xhtml#ae054a0eae5dae026c5af69274c5f277e" target="_top" xlink:title="Gibt eine Referenz auf den Ortsvektor zum ersten Punkt des Dreiecks zurück. ">
<polygon fill="none" stroke="black" points="337.5,-181.308 337.5,-202.308 420.5,-202.308 420.5,-181.308 337.5,-181.308"/>
<text text-anchor="middle" x="379" y="-189.308" font-family="Helvetica,sans-Serif" font-size="10.00">Triangle::getV1</text>
</a>
</g>
<!-- Node12&#45;&gt;Node19 -->
<g id="edge58" class="edge"><title>Node12&#45;&gt;Node19</title>
<path fill="none" stroke="midnightblue" d="M208.947,-380.969C218.03,-349.657 248.639,-258.347 308,-211.808 313.82,-207.245 320.627,-203.723 327.68,-201.004"/>
<polygon fill="midnightblue" stroke="midnightblue" points="329,-204.254 337.381,-197.773 326.787,-197.613 329,-204.254"/>
</g>
<!-- Node20 -->
<g id="node50" class="node"><title>Node20</title>
<a xlink:href="classTriangle.xhtml#a792a627dc42adad87c0b30e16a6b5824" target="_top" xlink:title="Gibt eine Referenz auf den Ortsvektor zum dritten Punkt des Dreiecks zurück. ">
<polygon fill="none" stroke="black" points="337.5,-141.308 337.5,-162.308 420.5,-162.308 420.5,-141.308 337.5,-141.308"/>
<text text-anchor="middle" x="379" y="-149.308" font-family="Helvetica,sans-Serif" font-size="10.00">Triangle::getV3</text>
</a>
</g>
<!-- Node12&#45;&gt;Node20 -->
<g id="edge60" class="edge"><title>Node12&#45;&gt;Node20</title>
<path fill="none" stroke="midnightblue" d="M207.709,-381.203C213.986,-345.784 239.099,-230.507 308,-171.808 313.697,-166.955 320.492,-163.275 327.588,-160.486"/>
<polygon fill="midnightblue" stroke="midnightblue" points="329.004,-163.703 337.375,-157.208 326.781,-157.065 329.004,-163.703"/>
</g>
<!-- Node21 -->
<g id="node52" class="node"><title>Node21</title>
<a xlink:href="classTetrahedron.xhtml#a7308b7b73edeba7782dff551a03095bf" target="_top" xlink:title="Gibt eine Referenz auf den Ortsvektor zum 3. ">
<polygon fill="none" stroke="black" points="329,-101.308 329,-122.308 429,-122.308 429,-101.308 329,-101.308"/>
<text text-anchor="middle" x="379" y="-109.308" font-family="Helvetica,sans-Serif" font-size="10.00">Tetrahedron::getV4</text>
</a>
</g>
<!-- Node12&#45;&gt;Node21 -->
<g id="edge62" class="edge"><title>Node12&#45;&gt;Node21</title>
<path fill="none" stroke="midnightblue" d="M206.869,-381.282C210.684,-342.047 229.459,-202.914 308,-131.808 311.458,-128.677 315.369,-126.033 319.534,-123.799"/>
<polygon fill="midnightblue" stroke="midnightblue" points="321.305,-126.84 328.982,-119.537 318.427,-120.459 321.305,-126.84"/>
</g>
<!-- Node22 -->
<g id="node54" class="node"><title>Node22</title>
<a xlink:href="classTriangle.xhtml#a3c72b19f316fa9ffb0a2f206e3558790" target="_top" xlink:title="Gibt die Normale des Dreiecks zurück. ">
<polygon fill="none" stroke="black" points="328,-573.308 328,-594.308 430,-594.308 430,-573.308 328,-573.308"/>
<text text-anchor="middle" x="379" y="-581.308" font-family="Helvetica,sans-Serif" font-size="10.00">Triangle::getNormal</text>
</a>
</g>
<!-- Node12&#45;&gt;Node22 -->
<g id="edge64" class="edge"><title>Node12&#45;&gt;Node22</title>
<path fill="none" stroke="midnightblue" d="M209.62,-402.53C220.068,-431.888 253.077,-514.346 308,-558.808 312.999,-562.855 318.701,-566.27 324.649,-569.146"/>
<polygon fill="midnightblue" stroke="midnightblue" points="323.567,-572.491 334.136,-573.236 326.339,-566.063 323.567,-572.491"/>
</g>
<!-- Node23 -->
<g id="node59" class="node"><title>Node23</title>
<a xlink:href="classVector3D.xhtml#abfb12ecb9c9beb88e095cc4a1a512d3c" target="_top" xlink:title="Normalisiert den Vektor. ">
<polygon fill="none" stroke="black" points="497,-529.308 497,-550.308 603,-550.308 603,-529.308 497,-529.308"/>
<text text-anchor="middle" x="550" y="-537.308" font-family="Helvetica,sans-Serif" font-size="10.00">Vector3D::normalize</text>
</a>
</g>
<!-- Node12&#45;&gt;Node23 -->
<g id="edge104" class="edge"><title>Node12&#45;&gt;Node23</title>
<path fill="none" stroke="midnightblue" d="M220.967,-402.487C240.349,-415.975 275.507,-439.29 308,-454.808 373.036,-485.867 452.567,-511.628 502.269,-526.376"/>
<polygon fill="midnightblue" stroke="midnightblue" points="501.521,-529.804 512.102,-529.266 503.495,-523.088 501.521,-529.804"/>
</g>
<!-- Node24 -->
<g id="node63" class="node"><title>Node24</title>
<a xlink:href="classVector3D.xhtml#a4bf1dcea68296f2f38f3574242933153" target="_top" xlink:title="Gibt den Winkel zu einem anderen Vektor in RAD zurück. ">
<polygon fill="none" stroke="black" points="322.5,-61.3077 322.5,-82.3077 435.5,-82.3077 435.5,-61.3077 322.5,-61.3077"/>
<text text-anchor="middle" x="379" y="-69.3077" font-family="Helvetica,sans-Serif" font-size="10.00">Vector3D::getAngleTo</text>
</a>
</g>
<!-- Node12&#45;&gt;Node24 -->
<g id="edge78" class="edge"><title>Node12&#45;&gt;Node24</title>
<path fill="none" stroke="midnightblue" d="M208.218,-381.229C218.53,-332.978 263.191,-134.296 308,-91.8077 309.699,-90.1969 311.517,-88.7141 313.429,-87.3493"/>
<polygon fill="midnightblue" stroke="midnightblue" points="315.503,-90.1895 322.333,-82.09 311.942,-84.1625 315.503,-90.1895"/>
</g>
<!-- Node25 -->
<g id="node68" class="node"><title>Node25</title>
<a xlink:href="classVector3D.xhtml#a2e3aa1d244483abcb1a8e48e47e79512" target="_top" xlink:title="Gibt die Länge des Vektors zurück. ">
<polygon fill="none" stroke="black" points="496.5,-61.3077 496.5,-82.3077 603.5,-82.3077 603.5,-61.3077 496.5,-61.3077"/>
<text text-anchor="middle" x="550" y="-69.3077" font-family="Helvetica,sans-Serif" font-size="10.00">Vector3D::getLength</text>
</a>
</g>
<!-- Node12&#45;&gt;Node25 -->
<g id="edge90" class="edge"><title>Node12&#45;&gt;Node25</title>
<path fill="none" stroke="midnightblue" d="M208.15,-381.071C219.965,-322.567 277.584,-43.9897 308,-20.8077 374.43,29.8235 479.639,-25.9422 526.333,-55.6414"/>
<polygon fill="midnightblue" stroke="midnightblue" points="524.573,-58.6717 534.863,-61.1944 528.392,-52.8053 524.573,-58.6717"/>
</g>
<!-- Node27 -->
<g id="node74" class="node"><title>Node27</title>
<a xlink:href="classVector3D.xhtml#a42deb992ec2f44abfb5824ea4917135c" target="_top" xlink:title="Gibt den Abstand zu einem anderen Vektor zurück. ">
<polygon fill="none" stroke="black" points="486,-295.308 486,-316.308 614,-316.308 614,-295.308 486,-295.308"/>
<text text-anchor="middle" x="550" y="-303.308" font-family="Helvetica,sans-Serif" font-size="10.00">Vector3D::getDistanceTo</text>
</a>
</g>
<!-- Node12&#45;&gt;Node27 -->
<g id="edge94" class="edge"><title>Node12&#45;&gt;Node27</title>
<path fill="none" stroke="midnightblue" d="M207.521,-380.963C215.249,-327.565 252.006,-93.4689 308,-51.8077 358.634,-14.1348 397.836,-16.2837 450,-51.8077 490.762,-79.5672 531.341,-230.072 545.093,-285.393"/>
<polygon fill="midnightblue" stroke="midnightblue" points="541.698,-286.244 547.478,-295.124 548.497,-284.578 541.698,-286.244"/>
</g>
<!-- Node28 -->
<g id="node81" class="node"><title>Node28</title>
<a xlink:href="classVector3D.xhtml#a0d14ff1f789254ff90adc22628eb8347" target="_top" xlink:title="Addiert einen Vektor zu diesem Vektor. ">
<polygon fill="none" stroke="black" points="510,-411.308 510,-432.308 590,-432.308 590,-411.308 510,-411.308"/>
<text text-anchor="middle" x="550" y="-419.308" font-family="Helvetica,sans-Serif" font-size="10.00">Vector3D::add</text>
</a>
</g>
<!-- Node12&#45;&gt;Node28 -->
<g id="edge106" class="edge"><title>Node12&#45;&gt;Node28</title>
<path fill="none" stroke="midnightblue" d="M251.717,-402.314C269.229,-405.931 289.452,-409.619 308,-411.808 373.888,-419.583 450.483,-421.572 499.56,-421.955"/>
<polygon fill="midnightblue" stroke="midnightblue" points="499.581,-425.455 509.601,-422.013 499.622,-418.455 499.581,-425.455"/>
</g>
<!-- Node13&#45;&gt;Node4 -->
<g id="edge38" class="edge"><title>Node13&#45;&gt;Node4</title>
<path fill="none" stroke="midnightblue" d="M587.309,-472.317C604.862,-477.262 625.991,-483.214 644.657,-488.472"/>
<polygon fill="midnightblue" stroke="midnightblue" points="643.873,-491.887 654.447,-491.229 645.771,-485.149 643.873,-491.887"/>
</g>
<!-- Node13&#45;&gt;Node5 -->
<g id="edge40" class="edge"><title>Node13&#45;&gt;Node5</title>
<path fill="none" stroke="midnightblue" d="M596.103,-461.808C610.049,-461.808 625.461,-461.808 639.777,-461.808"/>
<polygon fill="midnightblue" stroke="midnightblue" points="639.97,-465.308 649.97,-461.808 639.97,-458.308 639.97,-465.308"/>
</g>
<!-- Node13&#45;&gt;Node6 -->
<g id="edge42" class="edge"><title>Node13&#45;&gt;Node6</title>
<path fill="none" stroke="midnightblue" d="M587.309,-451.298C604.862,-446.354 625.991,-440.402 644.657,-435.144"/>
<polygon fill="midnightblue" stroke="midnightblue" points="645.771,-438.466 654.447,-432.386 643.873,-431.728 645.771,-438.466"/>
</g>
<!-- Node22&#45;&gt;Node3 -->
<g id="edge68" class="edge"><title>Node22&#45;&gt;Node3</title>
<path fill="none" stroke="midnightblue" d="M428.92,-594.317C451.232,-599.014 477.479,-604.54 499.821,-609.244"/>
<polygon fill="midnightblue" stroke="midnightblue" points="499.277,-612.706 509.784,-611.341 500.72,-605.856 499.277,-612.706"/>
</g>
<!-- Node22&#45;&gt;Node7 -->
<g id="edge70" class="edge"><title>Node22&#45;&gt;Node7</title>
<path fill="none" stroke="midnightblue" d="M430.306,-582.608C445.54,-582.251 462.509,-581.854 478.769,-581.474"/>
<polygon fill="midnightblue" stroke="midnightblue" points="478.865,-584.973 488.78,-581.24 478.701,-577.975 478.865,-584.973"/>
</g>
<!-- Node22&#45;&gt;Node10 -->
<g id="edge66" class="edge"><title>Node22&#45;&gt;Node10</title>
<path fill="none" stroke="midnightblue" d="M396.701,-594.334C417.544,-606.427 453.455,-626.334 486,-639.808 491.374,-642.033 497.089,-644.151 502.807,-646.12"/>
<polygon fill="midnightblue" stroke="midnightblue" points="501.778,-649.466 512.372,-649.284 503.977,-642.82 501.778,-649.466"/>
</g>
<!-- Node22&#45;&gt;Node23 -->
<g id="edge72" class="edge"><title>Node22&#45;&gt;Node23</title>
<path fill="none" stroke="midnightblue" d="M419.959,-573.269C443.772,-567.141 473.98,-559.368 499.287,-552.857"/>
<polygon fill="midnightblue" stroke="midnightblue" points="500.267,-556.219 509.079,-550.337 498.523,-549.439 500.267,-556.219"/>
</g>
<!-- Node24&#45;&gt;Node4 -->
<g id="edge80" class="edge"><title>Node24&#45;&gt;Node4</title>
<path fill="none" stroke="midnightblue" d="M435.66,-80.6051C441.114,-83.4271 446.068,-87.0831 450,-91.8077 505.678,-158.704 424.603,-420.119 486,-481.808 525.437,-521.432 593.026,-520.28 639.983,-513.28"/>
<polygon fill="midnightblue" stroke="midnightblue" points="640.657,-516.716 649.966,-511.658 639.534,-509.807 640.657,-516.716"/>
</g>
<!-- Node24&#45;&gt;Node5 -->
<g id="edge82" class="edge"><title>Node24&#45;&gt;Node5</title>
<path fill="none" stroke="midnightblue" d="M435.814,-80.9404C441.168,-83.7088 446.057,-87.2605 450,-91.8077 529.314,-183.269 407.988,-269.232 486,-361.808 524.407,-407.385 563.835,-369.623 614,-401.808 634.131,-414.723 630.833,-427.501 650,-441.808 652.095,-443.372 654.332,-444.86 656.642,-446.267"/>
<polygon fill="midnightblue" stroke="midnightblue" points="655.311,-449.529 665.761,-451.275 658.681,-443.394 655.311,-449.529"/>
</g>
<!-- Node24&#45;&gt;Node6 -->
<g id="edge84" class="edge"><title>Node24&#45;&gt;Node6</title>
<path fill="none" stroke="midnightblue" d="M435.723,-81.0201C441.094,-83.7739 446.011,-87.3003 450,-91.8077 519.733,-170.607 418.239,-245.306 486,-325.808 524.647,-371.721 560.237,-342.14 614,-368.808 634.353,-378.903 655.559,-393.626 670.713,-404.994"/>
<polygon fill="midnightblue" stroke="midnightblue" points="668.814,-407.948 678.885,-411.24 673.065,-402.386 668.814,-407.948"/>
</g>
<!-- Node24&#45;&gt;Node25 -->
<g id="edge86" class="edge"><title>Node24&#45;&gt;Node25</title>
<path fill="none" stroke="midnightblue" d="M435.941,-71.8077C452.112,-71.8077 469.825,-71.8077 486.366,-71.8077"/>
<polygon fill="midnightblue" stroke="midnightblue" points="486.49,-75.3078 496.49,-71.8077 486.49,-68.3078 486.49,-75.3078"/>
</g>
<!-- Node26 -->
<g id="node70" class="node"><title>Node26</title>
<a xlink:href="GeometryClasses_8cpp.xhtml#a73527f20206c906e9f333e0f233de13e" target="_top" xlink:title="sqr">
<polygon fill="none" stroke="black" points="677,-178.308 677,-199.308 707,-199.308 707,-178.308 677,-178.308"/>
<text text-anchor="middle" x="692" y="-186.308" font-family="Helvetica,sans-Serif" font-size="10.00">sqr</text>
</a>
</g>
<!-- Node25&#45;&gt;Node26 -->
<g id="edge88" class="edge"><title>Node25&#45;&gt;Node26</title>
<path fill="none" stroke="midnightblue" d="M563.104,-82.6051C587.726,-102.892 641.088,-146.859 670.853,-171.384"/>
<polygon fill="midnightblue" stroke="midnightblue" points="668.984,-174.379 678.927,-178.036 673.435,-168.976 668.984,-174.379"/>
</g>
<!-- Node27&#45;&gt;Node4 -->
<g id="edge98" class="edge"><title>Node27&#45;&gt;Node4</title>
<path fill="none" stroke="midnightblue" d="M557.898,-316.383C570.625,-333.688 596.058,-369.384 614,-401.808 632.878,-435.922 622.729,-453.942 650,-481.808 651.243,-483.078 652.582,-484.277 653.992,-485.408"/>
<polygon fill="midnightblue" stroke="midnightblue" points="652.397,-488.55 662.663,-491.166 656.269,-482.719 652.397,-488.55"/>
</g>
<!-- Node27&#45;&gt;Node5 -->
<g id="edge100" class="edge"><title>Node27&#45;&gt;Node5</title>
<path fill="none" stroke="midnightblue" d="M563.054,-316.339C576.971,-328.056 599.025,-348.082 614,-368.808 635.187,-398.129 624.245,-416.404 650,-441.808 651.423,-443.211 652.964,-444.531 654.585,-445.768"/>
<polygon fill="midnightblue" stroke="midnightblue" points="652.899,-448.845 663.207,-451.296 656.677,-442.952 652.899,-448.845"/>
</g>
<!-- Node27&#45;&gt;Node6 -->
<g id="edge102" class="edge"><title>Node27&#45;&gt;Node6</title>
<path fill="none" stroke="midnightblue" d="M586.118,-316.384C595.667,-320.1 605.634,-324.87 614,-330.808 641.81,-350.548 665.982,-382.312 679.775,-402.612"/>
<polygon fill="midnightblue" stroke="midnightblue" points="676.921,-404.641 685.358,-411.048 682.758,-400.778 676.921,-404.641"/>
</g>
<!-- Node27&#45;&gt;Node26 -->
<g id="edge96" class="edge"><title>Node27&#45;&gt;Node26</title>
<path fill="none" stroke="midnightblue" d="M563.104,-295.01C587.726,-274.724 641.088,-230.757 670.853,-206.232"/>
<polygon fill="midnightblue" stroke="midnightblue" points="673.435,-208.639 678.927,-199.579 668.984,-203.237 673.435,-208.639"/>
</g>
<!-- Node28&#45;&gt;Node4 -->
<g id="edge108" class="edge"><title>Node28&#45;&gt;Node4</title>
<path fill="none" stroke="midnightblue" d="M590.055,-430.707C598.343,-433.522 606.75,-437.156 614,-441.808 634.131,-454.723 630.833,-467.501 650,-481.808 652.095,-483.372 654.332,-484.86 656.642,-486.267"/>
<polygon fill="midnightblue" stroke="midnightblue" points="655.311,-489.529 665.761,-491.275 658.681,-483.394 655.311,-489.529"/>
</g>
<!-- Node28&#45;&gt;Node5 -->
<g id="edge110" class="edge"><title>Node28&#45;&gt;Node5</title>
<path fill="none" stroke="midnightblue" d="M587.309,-432.317C604.862,-437.262 625.991,-443.214 644.657,-448.472"/>
<polygon fill="midnightblue" stroke="midnightblue" points="643.873,-451.887 654.447,-451.229 645.771,-445.149 643.873,-451.887"/>
</g>
<!-- Node28&#45;&gt;Node6 -->
<g id="edge112" class="edge"><title>Node28&#45;&gt;Node6</title>
<path fill="none" stroke="midnightblue" d="M590.312,-421.808C605.647,-421.808 623.348,-421.808 639.64,-421.808"/>
<polygon fill="midnightblue" stroke="midnightblue" points="640.104,-425.308 650.103,-421.808 640.103,-418.308 640.104,-425.308"/>
</g>
</g>
</svg>
