<?xml version="1.0" encoding="UTF-8" standalone="no"?>
<!DOCTYPE svg PUBLIC "-//W3C//DTD SVG 1.1//EN"
 "http://www.w3.org/Graphics/SVG/1.1/DTD/svg11.dtd">
<!-- Generated by graphviz version 2.26.3 (20100126.1600)
 -->
<!-- Title: Utils::hsvToRgb Pages: 1 -->
<!--zoomable 214 -->
<svg id="main" version="1.1" xmlns="http://www.w3.org/2000/svg" xmlns:xlink="http://www.w3.org/1999/xlink" xml:space="preserve" onload="init(evt)">
<style type="text/css"><![CDATA[
.edge:hover path { stroke: red; }
.edge:hover polygon { stroke: red; fill: red; }
]]></style>
<script type="text/javascript"><![CDATA[
var edges = document.getElementsByTagName('g');
if (edges && edges.length) {
  for (var i=0;i<edges.length;i++) {
    if (edges[i].id.substr(0,4)=='edge') {
      edges[i].setAttribute('class','edge');
    }
  }
}
]]></script>
        <defs>
                <circle id="rim" cx="0" cy="0" r="7"/>
                <circle id="rim2" cx="0" cy="0" r="3.5"/>
                <g id="zoomPlus">
                        <use xlink:href="#rim" fill="#404040">
                                <set attributeName="fill" to="#808080" begin="zoomplus.mouseover" end="zoomplus.mouseout"/>
                        </use>
                        <path d="M-4,0h8M0,-4v8" fill="none" stroke="white" stroke-width="1.5" pointer-events="none"/>
                </g>
                <g id="zoomMin">
                        <use xlink:href="#rim" fill="#404040">
                                <set attributeName="fill" to="#808080" begin="zoomminus.mouseover" end="zoomminus.mouseout"/>
                        </use>
                        <path d="M-4,0h8" fill="none" stroke="white" stroke-width="1.5" pointer-events="none"/>
                </g>
                <g id="dirArrow">
                        <path fill="none" stroke="white" stroke-width="1.5" d="M0,-3.0v7 M-2.5,-0.5L0,-3.0L2.5,-0.5"/>
                </g>
               <g id="resetDef">
                       <use xlink:href="#rim2" fill="#404040">
                               <set attributeName="fill" to="#808080" begin="reset.mouseover" end="reset.mouseout"/>
                       </use>
               </g>
        </defs>

<script type="text/javascript">
var viewWidth = 614;
var viewHeight = 214;
var sectionId = 'dynsection-7';
</script>
<script xlink:href="svgpan.js"/>
<svg id="graph" class="graph">
<g id="viewport">
<title>Utils::hsvToRgb</title>
<!-- Node1 -->
<g id="node1" class="node"><title>Node1</title>
<polygon fill="#bfbfbf" stroke="black" points="0,-60.5 0,-81.5 88,-81.5 88,-60.5 0,-60.5"/>
<text text-anchor="middle" x="44" y="-68.5" font-family="Helvetica,sans-Serif" font-size="10.00">Utils::hsvToRgb</text>
</g>
<!-- Node2 -->
<g id="node3" class="node"><title>Node2</title>
<a xlink:href="classGUIColorScalePanel.xhtml#a73f647d4f5eeb6b653777bb4c55696fa" target="_top" xlink:title="GUIColorScalePanel\l::refresh">
<polygon fill="none" stroke="black" points="141.5,-120 141.5,-154 248.5,-154 248.5,-120 141.5,-120"/>
<text text-anchor="start" x="149.5" y="-141" font-family="Helvetica,sans-Serif" font-size="10.00">GUIColorScalePanel</text>
<text text-anchor="middle" x="195" y="-128" font-family="Helvetica,sans-Serif" font-size="10.00">::refresh</text>
</a>
</g>
<!-- Node1&#45;&gt;Node2 -->
<g id="edge2" class="edge"><title>Node1&#45;&gt;Node2</title>
<path fill="none" stroke="midnightblue" d="M73.0398,-86.5089C88.0612,-94.277 106.807,-103.582 124,-111 131.111,-114.068 138.716,-117.103 146.209,-119.957"/>
<polygon fill="midnightblue" stroke="midnightblue" points="74.2444,-83.1894 63.7603,-81.6613 71.0032,-89.3938 74.2444,-83.1894"/>
</g>
<!-- Node8 -->
<g id="node15" class="node"><title>Node8</title>
<a xlink:href="classRenderer.xhtml#a927f376a6283de3181b86f65b927386c" target="_top" xlink:title="Renderer::renderTetrahedra">
<polygon fill="none" stroke="black" points="127,-80.5 127,-101.5 263,-101.5 263,-80.5 127,-80.5"/>
<text text-anchor="middle" x="195" y="-88.5" font-family="Helvetica,sans-Serif" font-size="10.00">Renderer::renderTetrahedra</text>
</a>
</g>
<!-- Node1&#45;&gt;Node8 -->
<g id="edge14" class="edge"><title>Node1&#45;&gt;Node8</title>
<path fill="none" stroke="midnightblue" d="M98.0436,-78.1581C107.427,-79.401 117.293,-80.7077 126.992,-81.9924"/>
<polygon fill="midnightblue" stroke="midnightblue" points="98.4544,-74.682 88.0814,-76.8386 97.5352,-81.6214 98.4544,-74.682"/>
</g>
<!-- Node9 -->
<g id="node17" class="node"><title>Node9</title>
<a xlink:href="classRenderer.xhtml#ad2eac0343aef1abd05ed95b1b364785f" target="_top" xlink:title="Renderer::renderSensorData">
<polygon fill="none" stroke="black" points="124.5,-40.5 124.5,-61.5 265.5,-61.5 265.5,-40.5 124.5,-40.5"/>
<text text-anchor="middle" x="195" y="-48.5" font-family="Helvetica,sans-Serif" font-size="10.00">Renderer::renderSensorData</text>
</a>
</g>
<!-- Node1&#45;&gt;Node9 -->
<g id="edge16" class="edge"><title>Node1&#45;&gt;Node9</title>
<path fill="none" stroke="midnightblue" d="M98.2298,-63.8173C106.736,-62.6906 115.634,-61.5121 124.442,-60.3455"/>
<polygon fill="midnightblue" stroke="midnightblue" points="97.5352,-60.3786 88.0814,-65.1614 98.4544,-67.318 97.5352,-60.3786"/>
</g>
<!-- Node10 -->
<g id="node19" class="node"><title>Node10</title>
<a xlink:href="classRenderer.xhtml#acb6c468b92221cf8a121b87a70a3da0c" target="_top" xlink:title="Renderer::renderMaterial">
<polygon fill="none" stroke="black" points="133,-0.5 133,-21.5 257,-21.5 257,-0.5 133,-0.5"/>
<text text-anchor="middle" x="195" y="-8.5" font-family="Helvetica,sans-Serif" font-size="10.00">Renderer::renderMaterial</text>
</a>
</g>
<!-- Node1&#45;&gt;Node10 -->
<g id="edge18" class="edge"><title>Node1&#45;&gt;Node10</title>
<path fill="none" stroke="midnightblue" d="M71.4706,-55.6464C86.6429,-47.5827 106.01,-37.9592 124,-31 133.077,-27.4886 143.022,-24.2994 152.52,-21.5506"/>
<polygon fill="midnightblue" stroke="midnightblue" points="69.7519,-52.5967 62.6157,-60.4278 73.0778,-58.7562 69.7519,-52.5967"/>
</g>
<!-- Node3 -->
<g id="node5" class="node"><title>Node3</title>
<a xlink:href="classGUICutRenderWindow.xhtml#a9eedb7088ad31f4680a77ed3a06fa60c" target="_top" xlink:title="GUICutRenderWindow\l::renderImage">
<polygon fill="none" stroke="black" points="304.5,-172 304.5,-206 421.5,-206 421.5,-172 304.5,-172"/>
<text text-anchor="start" x="312.5" y="-193" font-family="Helvetica,sans-Serif" font-size="10.00">GUICutRenderWindow</text>
<text text-anchor="middle" x="363" y="-180" font-family="Helvetica,sans-Serif" font-size="10.00">::renderImage</text>
</a>
</g>
<!-- Node2&#45;&gt;Node3 -->
<g id="edge4" class="edge"><title>Node2&#45;&gt;Node3</title>
<path fill="none" stroke="midnightblue" d="M258.56,-156.673C274.789,-161.697 292.102,-167.055 307.87,-171.936"/>
<polygon fill="midnightblue" stroke="midnightblue" points="259.206,-153.209 248.618,-153.596 257.136,-159.897 259.206,-153.209"/>
</g>
<!-- Node5 -->
<g id="node9" class="node"><title>Node5</title>
<a xlink:href="classGUICutRenderWindow.xhtml#a0923a36cdf4e0094d78f623693ff8ac6" target="_top" xlink:title="GUICutRenderWindow\l::OnCSColorBtClick">
<polygon fill="none" stroke="black" points="304.5,-120 304.5,-154 421.5,-154 421.5,-120 304.5,-120"/>
<text text-anchor="start" x="312.5" y="-141" font-family="Helvetica,sans-Serif" font-size="10.00">GUICutRenderWindow</text>
<text text-anchor="middle" x="363" y="-128" font-family="Helvetica,sans-Serif" font-size="10.00">::OnCSColorBtClick</text>
</a>
</g>
<!-- Node2&#45;&gt;Node5 -->
<g id="edge8" class="edge"><title>Node2&#45;&gt;Node5</title>
<path fill="none" stroke="midnightblue" d="M258.807,-137C273.77,-137 289.642,-137 304.366,-137"/>
<polygon fill="midnightblue" stroke="midnightblue" points="258.618,-133.5 248.618,-137 258.618,-140.5 258.618,-133.5"/>
</g>
<!-- Node6 -->
<g id="node11" class="node"><title>Node6</title>
<a xlink:href="classGUICutRenderWindow.xhtml#a25feed7d1598253a25fc9c3bfe4131ec" target="_top" xlink:title="GUICutRenderWindow\l::OnColorScaleChanged">
<polygon fill="none" stroke="black" points="302,-68 302,-102 424,-102 424,-68 302,-68"/>
<text text-anchor="start" x="310" y="-89" font-family="Helvetica,sans-Serif" font-size="10.00">GUICutRenderWindow</text>
<text text-anchor="middle" x="363" y="-76" font-family="Helvetica,sans-Serif" font-size="10.00">::OnColorScaleChanged</text>
</a>
</g>
<!-- Node2&#45;&gt;Node6 -->
<g id="edge10" class="edge"><title>Node2&#45;&gt;Node6</title>
<path fill="none" stroke="midnightblue" d="M258.56,-117.327C274.789,-112.303 292.102,-106.945 307.87,-102.064"/>
<polygon fill="midnightblue" stroke="midnightblue" points="257.136,-114.103 248.618,-120.404 259.206,-120.791 257.136,-114.103"/>
</g>
<!-- Node4 -->
<g id="node7" class="node"><title>Node4</title>
<a xlink:href="classGUICutRenderWindow.xhtml#a7cd1bfbec53756a1cbbe1616b4d46c7a" target="_top" xlink:title="GUICutRenderWindow\l::renderCutBtClick">
<polygon fill="none" stroke="black" points="474.5,-172 474.5,-206 591.5,-206 591.5,-172 474.5,-172"/>
<text text-anchor="start" x="482.5" y="-193" font-family="Helvetica,sans-Serif" font-size="10.00">GUICutRenderWindow</text>
<text text-anchor="middle" x="533" y="-180" font-family="Helvetica,sans-Serif" font-size="10.00">::renderCutBtClick</text>
</a>
</g>
<!-- Node3&#45;&gt;Node4 -->
<g id="edge6" class="edge"><title>Node3&#45;&gt;Node4</title>
<path fill="none" stroke="midnightblue" d="M431.68,-189C445.839,-189 460.626,-189 474.388,-189"/>
<polygon fill="midnightblue" stroke="midnightblue" points="431.504,-185.5 421.504,-189 431.504,-192.5 431.504,-185.5"/>
</g>
<!-- Node7 -->
<g id="node13" class="node"><title>Node7</title>
<a xlink:href="classGUICutRenderWindow.xhtml#a3a2c47b00b30661632dae29eed266438" target="_top" xlink:title="GUICutRenderWindow\l::OnColorScaleChanged_spin">
<polygon fill="none" stroke="black" points="460,-68 460,-102 606,-102 606,-68 460,-68"/>
<text text-anchor="start" x="468" y="-89" font-family="Helvetica,sans-Serif" font-size="10.00">GUICutRenderWindow</text>
<text text-anchor="middle" x="533" y="-76" font-family="Helvetica,sans-Serif" font-size="10.00">::OnColorScaleChanged_spin</text>
</a>
</g>
<!-- Node6&#45;&gt;Node7 -->
<g id="edge12" class="edge"><title>Node6&#45;&gt;Node7</title>
<path fill="none" stroke="midnightblue" d="M434.488,-85C442.872,-85 451.435,-85 459.841,-85"/>
<polygon fill="midnightblue" stroke="midnightblue" points="434.374,-81.5001 424.374,-85 434.374,-88.5001 434.374,-81.5001"/>
</g>
</g>
</svg>
        <g id="navigator" transform="translate(0 0)" fill="#404254">
                <rect fill="#f2f5e9" fill-opacity="0.5" stroke="#606060" stroke-width=".5" x="0" y="0" width="60" height="60"/>
                <use id="zoomplus" xlink:href="#zoomPlus" x="17" y="9" onmousedown="handleZoom(evt,'in')"/>
                <use id="zoomminus" xlink:href="#zoomMin" x="42" y="9" onmousedown="handleZoom(evt,'out')"/>
                <use id="reset" xlink:href="#resetDef" x="30" y="36" onmousedown="handleReset()"/>
                <g id="arrowUp" xlink:href="#dirArrow" transform="translate(30 24)" onmousedown="handlePan(0,-1)">
                  <use xlink:href="#rim" fill="#404040">
                        <set attributeName="fill" to="#808080" begin="arrowUp.mouseover" end="arrowUp.mouseout"/>
                  </use>
                  <path fill="none" stroke="white" stroke-width="1.5" d="M0,-3.0v7 M-2.5,-0.5L0,-3.0L2.5,-0.5"/>
                </g>
                <g id="arrowRight" xlink:href="#dirArrow" transform="rotate(90) translate(36 -43)" onmousedown="handlePan(1,0)">
                  <use xlink:href="#rim" fill="#404040">
                        <set attributeName="fill" to="#808080" begin="arrowRight.mouseover" end="arrowRight.mouseout"/>
                  </use>
                  <path fill="none" stroke="white" stroke-width="1.5" d="M0,-3.0v7 M-2.5,-0.5L0,-3.0L2.5,-0.5"/>
                </g>
                <g id="arrowDown" xlink:href="#dirArrow" transform="rotate(180) translate(-30 -48)" onmousedown="handlePan(0,1)">
                  <use xlink:href="#rim" fill="#404040">
                        <set attributeName="fill" to="#808080" begin="arrowDown.mouseover" end="arrowDown.mouseout"/>
                  </use>
                  <path fill="none" stroke="white" stroke-width="1.5" d="M0,-3.0v7 M-2.5,-0.5L0,-3.0L2.5,-0.5"/>
                </g>
                <g id="arrowLeft" xlink:href="#dirArrow" transform="rotate(270) translate(-36 17)" onmousedown="handlePan(-1,0)">
                  <use xlink:href="#rim" fill="#404040">
                        <set attributeName="fill" to="#808080" begin="arrowLeft.mouseover" end="arrowLeft.mouseout"/>
                  </use>
                  <path fill="none" stroke="white" stroke-width="1.5" d="M0,-3.0v7 M-2.5,-0.5L0,-3.0L2.5,-0.5"/>
                </g>
        </g>
        <svg viewBox="0 0 15 15" width="100%" height="30px" preserveAspectRatio="xMaxYMin meet">
         <g id="arrow_out" transform="scale(0.3 0.3)">
          <a xlink:href="namespaceUtils_a5d6523eb946892eee52c9c74efd016de_icgraph_org.svg" target="_base">
           <rect id="button" ry="5" rx="5" y="6" x="6" height="38" width="38"
                fill="#f2f5e9" fill-opacity="0.5" stroke="#606060" stroke-width="1.0"/>
           <path id="arrow"
             d="M 11.500037,31.436501 C 11.940474,20.09759 22.043105,11.32322 32.158766,21.979434 L 37.068811,17.246167 C 37.068811,17.246167 37.088388,32 37.088388,32 L 22.160133,31.978069 C 22.160133,31.978069 26.997745,27.140456 26.997745,27.140456 C 18.528582,18.264221 13.291696,25.230495 11.500037,31.436501 z"
             style="fill:#404040;"/>
          </a>
         </g>
        </svg>
</svg>
