<?xml version="1.0" encoding="UTF-8" standalone="no"?>
<!DOCTYPE svg PUBLIC "-//W3C//DTD SVG 1.1//EN"
 "http://www.w3.org/Graphics/SVG/1.1/DTD/svg11.dtd">
<!-- Generated by graphviz version 2.26.3 (20100126.1600)
 -->
<!-- Title: MergeTSD::merge Pages: 1 -->
<svg width="362pt" height="30pt"
 viewBox="0.00 0.00 362.00 30.00" xmlns="http://www.w3.org/2000/svg" xmlns:xlink="http://www.w3.org/1999/xlink">
<g id="graph1" class="graph" transform="scale(1 1) rotate(0) translate(4 26)">
<title>MergeTSD::merge</title>
<!-- Node1 -->
<g id="node1" class="node"><title>Node1</title>
<polygon fill="#bfbfbf" stroke="black" points="0.5,-0.5 0.5,-21.5 97.5,-21.5 97.5,-0.5 0.5,-0.5"/>
<text text-anchor="middle" x="49" y="-8.5" font-family="Helvetica,sans-Serif" font-size="10.00">MergeTSD::merge</text>
</g>
<!-- Node2 -->
<g id="node3" class="node"><title>Node2</title>
<a xlink:href="namespaceMergeTSD.xhtml#ad380b92e7e702006d21b99bf6ebbe5cf" target="_top" xlink:title="Sammelt Daten aus einer .tsd&#45;Datei. ">
<polygon fill="none" stroke="black" points="134,-0.5 134,-21.5 244,-21.5 244,-0.5 134,-0.5"/>
<text text-anchor="middle" x="189" y="-8.5" font-family="Helvetica,sans-Serif" font-size="10.00">MergeTSD::parseFile</text>
</a>
</g>
<!-- Node1&#45;&gt;Node2 -->
<g id="edge2" class="edge"><title>Node1&#45;&gt;Node2</title>
<path fill="none" stroke="midnightblue" d="M97.5723,-11C105.973,-11 114.83,-11 123.59,-11"/>
<polygon fill="midnightblue" stroke="midnightblue" points="123.797,-14.5001 133.797,-11 123.797,-7.5001 123.797,-14.5001"/>
</g>
<!-- Node3 -->
<g id="node5" class="node"><title>Node3</title>
<a xlink:href="Importer_8cpp.xhtml#a0dd0686c00e64af27b47b4c16399d747" target="_top" xlink:title="getTextBlock">
<polygon fill="none" stroke="black" points="280,-0.5 280,-21.5 354,-21.5 354,-0.5 280,-0.5"/>
<text text-anchor="middle" x="317" y="-8.5" font-family="Helvetica,sans-Serif" font-size="10.00">getTextBlock</text>
</a>
</g>
<!-- Node2&#45;&gt;Node3 -->
<g id="edge4" class="edge"><title>Node2&#45;&gt;Node3</title>
<path fill="none" stroke="midnightblue" d="M244.026,-11C252.507,-11 261.202,-11 269.499,-11"/>
<polygon fill="midnightblue" stroke="midnightblue" points="269.751,-14.5001 279.751,-11 269.751,-7.5001 269.751,-14.5001"/>
</g>
</g>
</svg>
