<?xml version="1.0" encoding="UTF-8" standalone="no"?>
<!DOCTYPE svg PUBLIC "-//W3C//DTD SVG 1.1//EN"
 "http://www.w3.org/Graphics/SVG/1.1/DTD/svg11.dtd">
<!-- Generated by graphviz version 2.26.3 (20100126.1600)
 -->
<!-- Title: Utils::getDistance_d Pages: 1 -->
<svg width="298pt" height="54pt"
 viewBox="0.00 0.00 298.00 54.00" xmlns="http://www.w3.org/2000/svg" xmlns:xlink="http://www.w3.org/1999/xlink">
<g id="graph1" class="graph" transform="scale(1 1) rotate(0) translate(4 50)">
<title>Utils::getDistance_d</title>
<!-- Node1 -->
<g id="node1" class="node"><title>Node1</title>
<polygon fill="#bfbfbf" stroke="black" points="0,-6.5 0,-27.5 106,-27.5 106,-6.5 0,-6.5"/>
<text text-anchor="middle" x="53" y="-14.5" font-family="Helvetica,sans-Serif" font-size="10.00">Utils::getDistance_d</text>
</g>
<!-- Node1&#45;&gt;Node1 -->
<g id="edge2" class="edge"><title>Node1&#45;&gt;Node1</title>
<path fill="none" stroke="midnightblue" d="M22.9868,-37.0551C24.9555,-42.164 34.9599,-46 53,-46 81.1602,-46 89.7402,-36.6531 78.7401,-27.7079"/>
<polygon fill="midnightblue" stroke="midnightblue" points="26.2853,-38.2578 27.2599,-27.7079 19.919,-35.3474 26.2853,-38.2578"/>
</g>
<!-- Node2 -->
<g id="node4" class="node"><title>Node2</title>
<a xlink:href="structUtils_1_1SensorPointComparator.xhtml#a92795eac49f9ea851c04a623c5a3d6b6" target="_top" xlink:title="Utils::SensorPointComparator\l::operator()">
<polygon fill="none" stroke="black" points="142.5,-0 142.5,-34 289.5,-34 289.5,-0 142.5,-0"/>
<text text-anchor="start" x="150.5" y="-21" font-family="Helvetica,sans-Serif" font-size="10.00">Utils::SensorPointComparator</text>
<text text-anchor="middle" x="216" y="-8" font-family="Helvetica,sans-Serif" font-size="10.00">::operator()</text>
</a>
</g>
<!-- Node1&#45;&gt;Node2 -->
<g id="edge4" class="edge"><title>Node1&#45;&gt;Node2</title>
<path fill="none" stroke="midnightblue" d="M116.544,-17C125.015,-17 133.759,-17 142.383,-17"/>
<polygon fill="midnightblue" stroke="midnightblue" points="116.372,-13.5001 106.372,-17 116.372,-20.5001 116.372,-13.5001"/>
</g>
</g>
</svg>
