<?xml version="1.0" encoding="UTF-8" standalone="no"?>
<!DOCTYPE svg PUBLIC "-//W3C//DTD SVG 1.1//EN"
 "http://www.w3.org/Graphics/SVG/1.1/DTD/svg11.dtd">
<!-- Generated by graphviz version 2.26.3 (20100126.1600)
 -->
<!-- Title: Utils::pointInsideTetrahedron Pages: 1 -->
<svg width="1168pt" height="200pt"
 viewBox="0.00 0.00 1168.00 200.00" xmlns="http://www.w3.org/2000/svg" xmlns:xlink="http://www.w3.org/1999/xlink">
<g id="graph1" class="graph" transform="scale(1 1) rotate(0) translate(4 196)">
<title>Utils::pointInsideTetrahedron</title>
<!-- Node1 -->
<g id="node1" class="node"><title>Node1</title>
<polygon fill="#bfbfbf" stroke="black" points="0,-129.5 0,-150.5 142,-150.5 142,-129.5 0,-129.5"/>
<text text-anchor="middle" x="71" y="-137.5" font-family="Helvetica,sans-Serif" font-size="10.00">Utils::pointInsideTetrahedron</text>
</g>
<!-- Node2 -->
<g id="node3" class="node"><title>Node2</title>
<a xlink:href="namespaceUtils.xhtml#af8fc5d6dab27f759ab5d76757a53023f" target="_top" xlink:title="Testet, ob sich ein Punkt innerhalb eines Körpers befindet. ">
<polygon fill="none" stroke="black" points="192,-169.5 192,-190.5 306,-190.5 306,-169.5 192,-169.5"/>
<text text-anchor="middle" x="249" y="-177.5" font-family="Helvetica,sans-Serif" font-size="10.00">Utils::pointInsideMesh</text>
</a>
</g>
<!-- Node1&#45;&gt;Node2 -->
<g id="edge2" class="edge"><title>Node1&#45;&gt;Node2</title>
<path fill="none" stroke="midnightblue" d="M127.81,-152.766C151.817,-158.161 179.434,-164.367 202.236,-169.491"/>
<polygon fill="midnightblue" stroke="midnightblue" points="128.291,-149.287 117.767,-150.51 126.757,-156.117 128.291,-149.287"/>
</g>
<!-- Node6 -->
<g id="node11" class="node"><title>Node6</title>
<a xlink:href="namespaceUtils.xhtml#a40eaef4d22da849a5deb2f1153d88bbc" target="_top" xlink:title="Testet, ob sich ein Punkt innerhalb eines Tetraeders befindet. ">
<polygon fill="none" stroke="black" points="178,-129.5 178,-150.5 320,-150.5 320,-129.5 178,-129.5"/>
<text text-anchor="middle" x="249" y="-137.5" font-family="Helvetica,sans-Serif" font-size="10.00">Utils::pointInsideTetrahedron</text>
</a>
</g>
<!-- Node1&#45;&gt;Node6 -->
<g id="edge10" class="edge"><title>Node1&#45;&gt;Node6</title>
<path fill="none" stroke="midnightblue" d="M152.17,-140C160.789,-140 169.506,-140 177.995,-140"/>
<polygon fill="midnightblue" stroke="midnightblue" points="152.118,-136.5 142.118,-140 152.118,-143.5 152.118,-136.5"/>
</g>
<!-- Node7 -->
<g id="node13" class="node"><title>Node7</title>
<a xlink:href="namespaceUtils.xhtml#a6a0ae18a42e2d206bc1b43da27820fe2" target="_top" xlink:title="Gibt den inter/extrapolierten Wert eines Punktes zurück. ">
<polygon fill="none" stroke="black" points="197,-89.5 197,-110.5 301,-110.5 301,-89.5 197,-89.5"/>
<text text-anchor="middle" x="249" y="-97.5" font-family="Helvetica,sans-Serif" font-size="10.00">Utils::getPointValue</text>
</a>
</g>
<!-- Node1&#45;&gt;Node7 -->
<g id="edge12" class="edge"><title>Node1&#45;&gt;Node7</title>
<path fill="none" stroke="midnightblue" d="M127.81,-127.234C151.817,-121.839 179.434,-115.633 202.236,-110.509"/>
<polygon fill="midnightblue" stroke="midnightblue" points="126.757,-123.883 117.767,-129.49 128.291,-130.713 126.757,-123.883"/>
</g>
<!-- Node3 -->
<g id="node5" class="node"><title>Node3</title>
<a xlink:href="GUICutRenderWindow_8cpp.xhtml#aeaaae4c8452680389d221d0e60a6fc33" target="_top" xlink:title="Funktion zum verteilten berechnen der 2D&#45;Temperaturverteilung. ">
<polygon fill="none" stroke="black" points="377,-164.5 377,-185.5 453,-185.5 453,-164.5 377,-164.5"/>
<text text-anchor="middle" x="415" y="-172.5" font-family="Helvetica,sans-Serif" font-size="10.00">render_thread</text>
</a>
</g>
<!-- Node2&#45;&gt;Node3 -->
<g id="edge4" class="edge"><title>Node2&#45;&gt;Node3</title>
<path fill="none" stroke="midnightblue" d="M316.136,-177.978C336.794,-177.356 358.815,-176.692 376.817,-176.15"/>
<polygon fill="midnightblue" stroke="midnightblue" points="316.018,-174.48 306.128,-178.279 316.229,-181.477 316.018,-174.48"/>
</g>
<!-- Node4 -->
<g id="node7" class="node"><title>Node4</title>
<a xlink:href="classGUICutRenderWindow.xhtml#a9eedb7088ad31f4680a77ed3a06fa60c" target="_top" xlink:title="Berechnet die 2D&#45;Temperaturverteilung als Grafik. ">
<polygon fill="none" stroke="black" points="515.5,-158 515.5,-192 632.5,-192 632.5,-158 515.5,-158"/>
<text text-anchor="start" x="523.5" y="-179" font-family="Helvetica,sans-Serif" font-size="10.00">GUICutRenderWindow</text>
<text text-anchor="middle" x="574" y="-166" font-family="Helvetica,sans-Serif" font-size="10.00">::renderImage</text>
</a>
</g>
<!-- Node3&#45;&gt;Node4 -->
<g id="edge6" class="edge"><title>Node3&#45;&gt;Node4</title>
<path fill="none" stroke="midnightblue" d="M463.51,-175C479.887,-175 498.343,-175 515.414,-175"/>
<polygon fill="midnightblue" stroke="midnightblue" points="463.084,-171.5 453.084,-175 463.084,-178.5 463.084,-171.5"/>
</g>
<!-- Node5 -->
<g id="node9" class="node"><title>Node5</title>
<a xlink:href="classGUICutRenderWindow.xhtml#a7cd1bfbec53756a1cbbe1616b4d46c7a" target="_top" xlink:title="Behandelt das Drücken des Buttons zur Berechnung der zweidimensionalen Temperaturverteilung. ">
<polygon fill="none" stroke="black" points="677.5,-158 677.5,-192 794.5,-192 794.5,-158 677.5,-158"/>
<text text-anchor="start" x="685.5" y="-179" font-family="Helvetica,sans-Serif" font-size="10.00">GUICutRenderWindow</text>
<text text-anchor="middle" x="736" y="-166" font-family="Helvetica,sans-Serif" font-size="10.00">::renderCutBtClick</text>
</a>
</g>
<!-- Node4&#45;&gt;Node5 -->
<g id="edge8" class="edge"><title>Node4&#45;&gt;Node5</title>
<path fill="none" stroke="midnightblue" d="M643.263,-175C654.624,-175 666.3,-175 677.371,-175"/>
<polygon fill="midnightblue" stroke="midnightblue" points="642.944,-171.5 632.944,-175 642.944,-178.5 642.944,-171.5"/>
</g>
<!-- Node7&#45;&gt;Node3 -->
<g id="edge14" class="edge"><title>Node7&#45;&gt;Node3</title>
<path fill="none" stroke="midnightblue" d="M302.944,-113.652C308.773,-115.582 314.559,-117.701 320,-120 349.494,-132.459 381.19,-152.252 399.496,-164.388"/>
<polygon fill="midnightblue" stroke="midnightblue" points="303.736,-110.232 293.147,-110.583 301.644,-116.912 303.736,-110.232"/>
</g>
<!-- Node8 -->
<g id="node16" class="node"><title>Node8</title>
<a xlink:href="classAnalyzer.xhtml#a8f73ee0aa71ae395a74b43dc76b35458" target="_top" xlink:title="Ermittelt Daten für einen Punkt am aktuell ausgewählten Zeitpunkt. ">
<polygon fill="none" stroke="black" points="356.5,-95.5 356.5,-116.5 473.5,-116.5 473.5,-95.5 356.5,-95.5"/>
<text text-anchor="middle" x="415" y="-103.5" font-family="Helvetica,sans-Serif" font-size="10.00">Analyzer::analyzePoint</text>
</a>
</g>
<!-- Node7&#45;&gt;Node8 -->
<g id="edge16" class="edge"><title>Node7&#45;&gt;Node8</title>
<path fill="none" stroke="midnightblue" d="M311.165,-102.247C326.006,-102.783 341.797,-103.354 356.468,-103.884"/>
<polygon fill="midnightblue" stroke="midnightblue" points="311.188,-98.7456 301.068,-101.882 310.935,-105.741 311.188,-98.7456"/>
</g>
<!-- Node10 -->
<g id="node20" class="node"><title>Node10</title>
<a xlink:href="MeshProcessor_8cpp.xhtml#ad2670c4e8381f9a0a89c65f5559ed421" target="_top" xlink:title="interpolatePoint">
<polygon fill="none" stroke="black" points="373,-54.5 373,-75.5 457,-75.5 457,-54.5 373,-54.5"/>
<text text-anchor="middle" x="415" y="-62.5" font-family="Helvetica,sans-Serif" font-size="10.00">interpolatePoint</text>
</a>
</g>
<!-- Node7&#45;&gt;Node10 -->
<g id="edge20" class="edge"><title>Node7&#45;&gt;Node10</title>
<path fill="none" stroke="midnightblue" d="M308.696,-87.4135C329.915,-82.9395 353.346,-77.9993 372.798,-73.8981"/>
<polygon fill="midnightblue" stroke="midnightblue" points="307.868,-84.011 298.805,-89.4988 309.312,-90.8604 307.868,-84.011"/>
</g>
<!-- Node9 -->
<g id="node18" class="node"><title>Node9</title>
<a xlink:href="classGUIAnalyzePointWindow.xhtml#aa84ea9958e8b41423f01316d01ba5151" target="_top" xlink:title="Event&#45;Tabellendeklaration für wxWidgets. ">
<polygon fill="none" stroke="black" points="510,-92 510,-126 638,-126 638,-92 510,-92"/>
<text text-anchor="start" x="518" y="-113" font-family="Helvetica,sans-Serif" font-size="10.00">GUIAnalyzePointWindow</text>
<text text-anchor="middle" x="574" y="-100" font-family="Helvetica,sans-Serif" font-size="10.00">::analyzePoint</text>
</a>
</g>
<!-- Node8&#45;&gt;Node9 -->
<g id="edge18" class="edge"><title>Node8&#45;&gt;Node9</title>
<path fill="none" stroke="midnightblue" d="M483.811,-107.298C492.466,-107.462 501.294,-107.628 509.874,-107.79"/>
<polygon fill="midnightblue" stroke="midnightblue" points="483.818,-103.798 473.754,-107.109 483.686,-110.797 483.818,-103.798"/>
</g>
<!-- Node11 -->
<g id="node22" class="node"><title>Node11</title>
<a xlink:href="classMeshProcessor.xhtml#a060c3815db33f8e52ac620ed2239ccc9" target="_top" xlink:title="Berechnet die Temperaturverteilung für ein Objekt. ">
<polygon fill="none" stroke="black" points="511.5,-52.5 511.5,-73.5 636.5,-73.5 636.5,-52.5 511.5,-52.5"/>
<text text-anchor="middle" x="574" y="-60.5" font-family="Helvetica,sans-Serif" font-size="10.00">MeshProcessor::process</text>
</a>
</g>
<!-- Node10&#45;&gt;Node11 -->
<g id="edge22" class="edge"><title>Node10&#45;&gt;Node11</title>
<path fill="none" stroke="midnightblue" d="M467.595,-64.3384C481.564,-64.1627 496.789,-63.9712 511.241,-63.7894"/>
<polygon fill="midnightblue" stroke="midnightblue" points="467.147,-60.8437 457.192,-64.4693 467.235,-67.8431 467.147,-60.8437"/>
</g>
<!-- Node12 -->
<g id="node24" class="node"><title>Node12</title>
<a xlink:href="classAnalyzer.xhtml#a2a7b5f169f664ccd9f206e508cba78ef" target="_top" xlink:title="Ermittelt Daten für ein Objekt. ">
<polygon fill="none" stroke="black" points="674.5,-72.5 674.5,-93.5 797.5,-93.5 797.5,-72.5 674.5,-72.5"/>
<text text-anchor="middle" x="736" y="-80.5" font-family="Helvetica,sans-Serif" font-size="10.00">Analyzer::analyzeObject</text>
</a>
</g>
<!-- Node11&#45;&gt;Node12 -->
<g id="edge24" class="edge"><title>Node11&#45;&gt;Node12</title>
<path fill="none" stroke="midnightblue" d="M646.6,-71.963C655.86,-73.1062 665.268,-74.2677 674.333,-75.3868"/>
<polygon fill="midnightblue" stroke="midnightblue" points="646.987,-68.4842 636.633,-70.7325 646.129,-75.4315 646.987,-68.4842"/>
</g>
<!-- Node16 -->
<g id="node32" class="node"><title>Node16</title>
<a xlink:href="classObjectData.xhtml#af3a850833d08eb9b45357449f455e24d" target="_top" xlink:title="Zerlegt das Objekt in Tetraeder (Schnittstelle zur Tetgen&#45;Bibliothek) und Berechnet die Temperaturver...">
<polygon fill="none" stroke="black" points="675,-32.5 675,-53.5 797,-53.5 797,-32.5 675,-32.5"/>
<text text-anchor="middle" x="736" y="-40.5" font-family="Helvetica,sans-Serif" font-size="10.00">ObjectData::calculateIO</text>
</a>
</g>
<!-- Node11&#45;&gt;Node16 -->
<g id="edge32" class="edge"><title>Node11&#45;&gt;Node16</title>
<path fill="none" stroke="midnightblue" d="M646.745,-54.0192C656.14,-52.8593 665.684,-51.681 674.866,-50.5474"/>
<polygon fill="midnightblue" stroke="midnightblue" points="646.129,-50.5685 636.633,-55.2675 646.987,-57.5158 646.129,-50.5685"/>
</g>
<!-- Node13 -->
<g id="node26" class="node"><title>Node13</title>
<a xlink:href="classGUIAnalyzeOutputWindow.xhtml#a9ea5a7cf46d6189f368315903508cecc" target="_top" xlink:title="Methode zum aktualisieren des Fensters, alle Objekte werden erneut analysiert und die aktualisierten ...">
<polygon fill="none" stroke="black" points="842,-92 842,-126 976,-126 976,-92 842,-92"/>
<text text-anchor="start" x="850" y="-113" font-family="Helvetica,sans-Serif" font-size="10.00">GUIAnalyzeOutputWindow</text>
<text text-anchor="middle" x="909" y="-100" font-family="Helvetica,sans-Serif" font-size="10.00">::Update</text>
</a>
</g>
<!-- Node12&#45;&gt;Node13 -->
<g id="edge26" class="edge"><title>Node12&#45;&gt;Node13</title>
<path fill="none" stroke="midnightblue" d="M808.127,-93.8399C819.313,-95.5211 830.83,-97.2519 841.9,-98.9156"/>
<polygon fill="midnightblue" stroke="midnightblue" points="808.377,-90.3383 797.968,-92.3132 807.337,-97.2606 808.377,-90.3383"/>
</g>
<!-- Node15 -->
<g id="node30" class="node"><title>Node15</title>
<a xlink:href="classGUITimeline.xhtml#a099f3654aa6e7ea04df861851a0e9ec8" target="_top" xlink:title="Sucht den Zeitpunkt zwischen zwei markierten Stellen auf der Sensordaten&#45;Zeitleiste, für den der Wäremeenergiegehalt maximal wird. ">
<polygon fill="none" stroke="black" points="840.5,-52.5 840.5,-73.5 977.5,-73.5 977.5,-52.5 840.5,-52.5"/>
<text text-anchor="middle" x="909" y="-60.5" font-family="Helvetica,sans-Serif" font-size="10.00">GUITimeline::findMaxValue</text>
</a>
</g>
<!-- Node12&#45;&gt;Node15 -->
<g id="edge30" class="edge"><title>Node12&#45;&gt;Node15</title>
<path fill="none" stroke="midnightblue" d="M808.108,-74.6638C818.804,-73.4273 829.801,-72.1559 840.422,-70.9281"/>
<polygon fill="midnightblue" stroke="midnightblue" points="807.5,-71.2107 797.968,-75.836 808.304,-78.1644 807.5,-71.2107"/>
</g>
<!-- Node14 -->
<g id="node28" class="node"><title>Node14</title>
<a xlink:href="classGUIAnalyzeOutputWindow.xhtml#af9407245a6b2a0478579c4d592a31e63" target="_top" xlink:title="Der Konstruktor. ">
<polygon fill="none" stroke="black" points="1020,-92 1020,-126 1160,-126 1160,-92 1020,-92"/>
<text text-anchor="start" x="1028" y="-113" font-family="Helvetica,sans-Serif" font-size="10.00">GUIAnalyzeOutputWindow</text>
<text text-anchor="middle" x="1090" y="-100" font-family="Helvetica,sans-Serif" font-size="10.00">::GUIAnalyzeOutputWindow</text>
</a>
</g>
<!-- Node13&#45;&gt;Node14 -->
<g id="edge28" class="edge"><title>Node13&#45;&gt;Node14</title>
<path fill="none" stroke="midnightblue" d="M986.303,-109C997.474,-109 1008.92,-109 1019.94,-109"/>
<polygon fill="midnightblue" stroke="midnightblue" points="986.141,-105.5 976.141,-109 986.14,-112.5 986.141,-105.5"/>
</g>
<!-- Node16&#45;&gt;Node15 -->
<g id="edge36" class="edge"><title>Node16&#45;&gt;Node15</title>
<path fill="none" stroke="midnightblue" d="M807.714,-51.2906C818.512,-52.539 829.628,-53.824 840.36,-55.0647"/>
<polygon fill="midnightblue" stroke="midnightblue" points="807.816,-47.7792 797.48,-50.1076 807.012,-54.7329 807.816,-47.7792"/>
</g>
<!-- Node17 -->
<g id="node34" class="node"><title>Node17</title>
<a xlink:href="classGUIMainWindow.xhtml#a0c2de30274c7f52ff74ec1217e47a9e5" target="_top" xlink:title="Berechnet die 3D&#45;Temperaturverteilung neu. ">
<polygon fill="none" stroke="black" points="834,-0 834,-34 984,-34 984,-0 834,-0"/>
<text text-anchor="start" x="842" y="-21" font-family="Helvetica,sans-Serif" font-size="10.00">GUIMainWindow::OnRecalcBt</text>
<text text-anchor="middle" x="909" y="-8" font-family="Helvetica,sans-Serif" font-size="10.00">Click</text>
</a>
</g>
<!-- Node16&#45;&gt;Node17 -->
<g id="edge34" class="edge"><title>Node16&#45;&gt;Node17</title>
<path fill="none" stroke="midnightblue" d="M807.534,-32.2492C816.197,-30.9472 825.067,-29.6141 833.782,-28.3044"/>
<polygon fill="midnightblue" stroke="midnightblue" points="806.849,-28.8128 797.48,-33.7602 807.89,-35.735 806.849,-28.8128"/>
</g>
</g>
</svg>
