<?xml version="1.0" encoding="UTF-8" standalone="no"?>
<!DOCTYPE svg PUBLIC "-//W3C//DTD SVG 1.1//EN"
 "http://www.w3.org/Graphics/SVG/1.1/DTD/svg11.dtd">
<!-- Generated by graphviz version 2.26.3 (20100126.1600)
 -->
<!-- Title: Utils::clampHue Pages: 1 -->
<svg width="582pt" height="156pt"
 viewBox="0.00 0.00 582.00 156.00" xmlns="http://www.w3.org/2000/svg" xmlns:xlink="http://www.w3.org/1999/xlink">
<g id="graph1" class="graph" transform="scale(1 1) rotate(0) translate(4 152)">
<title>Utils::clampHue</title>
<!-- Node1 -->
<g id="node1" class="node"><title>Node1</title>
<polygon fill="#bfbfbf" stroke="black" points="0.5,-60.5 0.5,-81.5 87.5,-81.5 87.5,-60.5 0.5,-60.5"/>
<text text-anchor="middle" x="44" y="-68.5" font-family="Helvetica,sans-Serif" font-size="10.00">Utils::clampHue</text>
</g>
<!-- Node2 -->
<g id="node3" class="node"><title>Node2</title>
<a xlink:href="GUICutRenderWindow_8cpp.xhtml#aeaaae4c8452680389d221d0e60a6fc33" target="_top" xlink:title="render_thread">
<polygon fill="none" stroke="black" points="157,-120.5 157,-141.5 233,-141.5 233,-120.5 157,-120.5"/>
<text text-anchor="middle" x="195" y="-128.5" font-family="Helvetica,sans-Serif" font-size="10.00">render_thread</text>
</a>
</g>
<!-- Node1&#45;&gt;Node2 -->
<g id="edge2" class="edge"><title>Node1&#45;&gt;Node2</title>
<path fill="none" stroke="midnightblue" d="M71.4706,-86.3536C86.6429,-94.4173 106.01,-104.041 124,-111 134.51,-115.066 146.184,-118.7 156.98,-121.718"/>
<polygon fill="midnightblue" stroke="midnightblue" points="73.0778,-83.2438 62.6157,-81.5722 69.7519,-89.4033 73.0778,-83.2438"/>
</g>
<!-- Node5 -->
<g id="node9" class="node"><title>Node5</title>
<a xlink:href="classRenderer.xhtml#a927f376a6283de3181b86f65b927386c" target="_top" xlink:title="Zeichnet die Tetraeder eines Materials des Objekts. ">
<polygon fill="none" stroke="black" points="127,-80.5 127,-101.5 263,-101.5 263,-80.5 127,-80.5"/>
<text text-anchor="middle" x="195" y="-88.5" font-family="Helvetica,sans-Serif" font-size="10.00">Renderer::renderTetrahedra</text>
</a>
</g>
<!-- Node1&#45;&gt;Node5 -->
<g id="edge8" class="edge"><title>Node1&#45;&gt;Node5</title>
<path fill="none" stroke="midnightblue" d="M97.7216,-78.1154C107.19,-79.3695 117.157,-80.6897 126.956,-81.9876"/>
<polygon fill="midnightblue" stroke="midnightblue" points="98.0485,-74.6283 87.6755,-76.7848 97.1293,-81.5676 98.0485,-74.6283"/>
</g>
<!-- Node6 -->
<g id="node11" class="node"><title>Node6</title>
<a xlink:href="classRenderer.xhtml#ad2eac0343aef1abd05ed95b1b364785f" target="_top" xlink:title="Zeichnet Sensordaten als Punkte. ">
<polygon fill="none" stroke="black" points="124.5,-40.5 124.5,-61.5 265.5,-61.5 265.5,-40.5 124.5,-40.5"/>
<text text-anchor="middle" x="195" y="-48.5" font-family="Helvetica,sans-Serif" font-size="10.00">Renderer::renderSensorData</text>
</a>
</g>
<!-- Node1&#45;&gt;Node6 -->
<g id="edge10" class="edge"><title>Node1&#45;&gt;Node6</title>
<path fill="none" stroke="midnightblue" d="M97.6316,-63.8965C106.304,-62.7478 115.397,-61.5434 124.398,-60.3513"/>
<polygon fill="midnightblue" stroke="midnightblue" points="97.1293,-60.4324 87.6755,-65.2152 98.0485,-67.3717 97.1293,-60.4324"/>
</g>
<!-- Node7 -->
<g id="node13" class="node"><title>Node7</title>
<a xlink:href="classRenderer.xhtml#acb6c468b92221cf8a121b87a70a3da0c" target="_top" xlink:title="Zeichnet die Elemente eines Materials des Objekts. ">
<polygon fill="none" stroke="black" points="133,-0.5 133,-21.5 257,-21.5 257,-0.5 133,-0.5"/>
<text text-anchor="middle" x="195" y="-8.5" font-family="Helvetica,sans-Serif" font-size="10.00">Renderer::renderMaterial</text>
</a>
</g>
<!-- Node1&#45;&gt;Node7 -->
<g id="edge12" class="edge"><title>Node1&#45;&gt;Node7</title>
<path fill="none" stroke="midnightblue" d="M71.4706,-55.6464C86.6429,-47.5827 106.01,-37.9592 124,-31 133.077,-27.4886 143.022,-24.2994 152.52,-21.5506"/>
<polygon fill="midnightblue" stroke="midnightblue" points="69.7519,-52.5967 62.6157,-60.4278 73.0778,-58.7562 69.7519,-52.5967"/>
</g>
<!-- Node3 -->
<g id="node5" class="node"><title>Node3</title>
<a xlink:href="classGUICutRenderWindow.xhtml#a9eedb7088ad31f4680a77ed3a06fa60c" target="_top" xlink:title="Berechnet die 2D&#45;Temperaturverteilung als Grafik. ">
<polygon fill="none" stroke="black" points="302.5,-114 302.5,-148 419.5,-148 419.5,-114 302.5,-114"/>
<text text-anchor="start" x="310.5" y="-135" font-family="Helvetica,sans-Serif" font-size="10.00">GUICutRenderWindow</text>
<text text-anchor="middle" x="361" y="-122" font-family="Helvetica,sans-Serif" font-size="10.00">::renderImage</text>
</a>
</g>
<!-- Node2&#45;&gt;Node3 -->
<g id="edge4" class="edge"><title>Node2&#45;&gt;Node3</title>
<path fill="none" stroke="midnightblue" d="M243.295,-131C261.733,-131 282.957,-131 302.261,-131"/>
<polygon fill="midnightblue" stroke="midnightblue" points="243.084,-127.5 233.084,-131 243.084,-134.5 243.084,-127.5"/>
</g>
<!-- Node4 -->
<g id="node7" class="node"><title>Node4</title>
<a xlink:href="classGUICutRenderWindow.xhtml#a7cd1bfbec53756a1cbbe1616b4d46c7a" target="_top" xlink:title="Behandelt das Drücken des Buttons zur Berechnung der zweidimensionalen Temperaturverteilung. ">
<polygon fill="none" stroke="black" points="456.5,-114 456.5,-148 573.5,-148 573.5,-114 456.5,-114"/>
<text text-anchor="start" x="464.5" y="-135" font-family="Helvetica,sans-Serif" font-size="10.00">GUICutRenderWindow</text>
<text text-anchor="middle" x="515" y="-122" font-family="Helvetica,sans-Serif" font-size="10.00">::renderCutBtClick</text>
</a>
</g>
<!-- Node3&#45;&gt;Node4 -->
<g id="edge6" class="edge"><title>Node3&#45;&gt;Node4</title>
<path fill="none" stroke="midnightblue" d="M429.894,-131C438.691,-131 447.631,-131 456.248,-131"/>
<polygon fill="midnightblue" stroke="midnightblue" points="429.66,-127.5 419.66,-131 429.66,-134.5 429.66,-127.5"/>
</g>
</g>
</svg>
