<?xml version="1.0" encoding="UTF-8" standalone="no"?>
<!DOCTYPE svg PUBLIC "-//W3C//DTD SVG 1.1//EN"
 "http://www.w3.org/Graphics/SVG/1.1/DTD/svg11.dtd">
<!-- Generated by graphviz version 2.26.3 (20100126.1600)
 -->
<!-- Title: simpleanalyzer&#45;gui/src/processing/ObjectData.h Pages: 1 -->
<!--zoomable 290 -->
<svg id="main" version="1.1" xmlns="http://www.w3.org/2000/svg" xmlns:xlink="http://www.w3.org/1999/xlink" xml:space="preserve" onload="init(evt)">
<style type="text/css"><![CDATA[
.edge:hover path { stroke: red; }
.edge:hover polygon { stroke: red; fill: red; }
]]></style>
<script type="text/javascript"><![CDATA[
var edges = document.getElementsByTagName('g');
if (edges && edges.length) {
  for (var i=0;i<edges.length;i++) {
    if (edges[i].id.substr(0,4)=='edge') {
      edges[i].setAttribute('class','edge');
    }
  }
}
]]></script>
        <defs>
                <circle id="rim" cx="0" cy="0" r="7"/>
                <circle id="rim2" cx="0" cy="0" r="3.5"/>
                <g id="zoomPlus">
                        <use xlink:href="#rim" fill="#404040">
                                <set attributeName="fill" to="#808080" begin="zoomplus.mouseover" end="zoomplus.mouseout"/>
                        </use>
                        <path d="M-4,0h8M0,-4v8" fill="none" stroke="white" stroke-width="1.5" pointer-events="none"/>
                </g>
                <g id="zoomMin">
                        <use xlink:href="#rim" fill="#404040">
                                <set attributeName="fill" to="#808080" begin="zoomminus.mouseover" end="zoomminus.mouseout"/>
                        </use>
                        <path d="M-4,0h8" fill="none" stroke="white" stroke-width="1.5" pointer-events="none"/>
                </g>
                <g id="dirArrow">
                        <path fill="none" stroke="white" stroke-width="1.5" d="M0,-3.0v7 M-2.5,-0.5L0,-3.0L2.5,-0.5"/>
                </g>
               <g id="resetDef">
                       <use xlink:href="#rim2" fill="#404040">
                               <set attributeName="fill" to="#808080" begin="reset.mouseover" end="reset.mouseout"/>
                       </use>
               </g>
        </defs>

<script type="text/javascript">
var viewWidth = 634;
var viewHeight = 290;
var sectionId = 'dynsection-0';
</script>
<script xlink:href="svgpan.js"/>
<svg id="graph" class="graph">
<g id="viewport">
<title>simpleanalyzer&#45;gui/src/processing/ObjectData.h</title>
<!-- Node1 -->
<g id="node1" class="node"><title>Node1</title>
<polygon fill="#bfbfbf" stroke="black" points="211,-247 211,-281 355,-281 355,-247 211,-247"/>
<text text-anchor="start" x="219" y="-268" font-family="Helvetica,sans-Serif" font-size="10.00">simpleanalyzer&#45;gui</text>
<text text-anchor="middle" x="283" y="-255" font-family="Helvetica,sans-Serif" font-size="10.00">/src/processing/ObjectData.h</text>
</g>
<!-- Node2 -->
<g id="node3" class="node"><title>Node2</title>
<polygon fill="none" stroke="#bfbfbf" points="-0.5,-117 -0.5,-151 88.5,-151 88.5,-117 -0.5,-117"/>
<text text-anchor="start" x="7.5" y="-138" font-family="Helvetica,sans-Serif" font-size="10.00">../libraries/tetgen</text>
<text text-anchor="middle" x="44" y="-125" font-family="Helvetica,sans-Serif" font-size="10.00">/tetgen.h</text>
</g>
<!-- Node1&#45;&gt;Node2 -->
<g id="edge2" class="edge"><title>Node1&#45;&gt;Node2</title>
<path fill="none" stroke="midnightblue" d="M251.263,-246.737C208.289,-223.362 131.567,-181.63 84.4894,-156.024"/>
<polygon fill="midnightblue" stroke="midnightblue" points="85.9449,-152.831 75.488,-151.127 82.6001,-158.98 85.9449,-152.831"/>
</g>
<!-- Node3 -->
<g id="node5" class="node"><title>Node3</title>
<polygon fill="none" stroke="#bfbfbf" points="106,-123.5 106,-144.5 150,-144.5 150,-123.5 106,-123.5"/>
<text text-anchor="middle" x="128" y="-131.5" font-family="Helvetica,sans-Serif" font-size="10.00">vector</text>
</g>
<!-- Node1&#45;&gt;Node3 -->
<g id="edge4" class="edge"><title>Node1&#45;&gt;Node3</title>
<path fill="none" stroke="midnightblue" d="M262.417,-246.737C232.737,-221.844 178.234,-176.131 148.564,-151.247"/>
<polygon fill="midnightblue" stroke="midnightblue" points="150.462,-148.271 140.551,-144.527 145.964,-153.634 150.462,-148.271"/>
</g>
<!-- Node4 -->
<g id="node7" class="node"><title>Node4</title>
<a xlink:href="Interpolator_8h.xhtml" target="_top" xlink:title="../libraries/interpolate\l/Interpolator.h">
<polygon fill="none" stroke="black" points="519.5,-117 519.5,-151 626.5,-151 626.5,-117 519.5,-117"/>
<text text-anchor="start" x="527.5" y="-138" font-family="Helvetica,sans-Serif" font-size="10.00">../libraries/interpolate</text>
<text text-anchor="middle" x="573" y="-125" font-family="Helvetica,sans-Serif" font-size="10.00">/Interpolator.h</text>
</a>
</g>
<!-- Node1&#45;&gt;Node4 -->
<g id="edge6" class="edge"><title>Node1&#45;&gt;Node4</title>
<path fill="none" stroke="midnightblue" d="M293.82,-246.747C305.7,-229.259 326.396,-202.74 351,-188 354.492,-185.908 444.852,-164.28 509.197,-149.04"/>
<polygon fill="midnightblue" stroke="midnightblue" points="510.359,-152.362 519.284,-146.653 508.747,-145.55 510.359,-152.362"/>
</g>
<!-- Node7 -->
<g id="node13" class="node"><title>Node7</title>
<polygon fill="none" stroke="#bfbfbf" points="359.5,-188.5 359.5,-209.5 424.5,-209.5 424.5,-188.5 359.5,-188.5"/>
<text text-anchor="middle" x="392" y="-196.5" font-family="Helvetica,sans-Serif" font-size="10.00">wx/string.h</text>
</g>
<!-- Node1&#45;&gt;Node7 -->
<g id="edge12" class="edge"><title>Node1&#45;&gt;Node7</title>
<path fill="none" stroke="midnightblue" d="M311.638,-246.922C328.195,-237.049 348.897,-224.704 365.142,-215.016"/>
<polygon fill="midnightblue" stroke="midnightblue" points="367.331,-217.786 374.127,-209.658 363.745,-211.774 367.331,-217.786"/>
</g>
<!-- Node8 -->
<g id="node15" class="node"><title>Node8</title>
<a xlink:href="utils_8h.xhtml" target="_top" xlink:title="utils.h">
<polygon fill="none" stroke="black" points="261.5,-188.5 261.5,-209.5 304.5,-209.5 304.5,-188.5 261.5,-188.5"/>
<text text-anchor="middle" x="283" y="-196.5" font-family="Helvetica,sans-Serif" font-size="10.00">utils.h</text>
</a>
</g>
<!-- Node1&#45;&gt;Node8 -->
<g id="edge14" class="edge"><title>Node1&#45;&gt;Node8</title>
<path fill="none" stroke="midnightblue" d="M283,-246.922C283,-238.67 283,-228.692 283,-219.982"/>
<polygon fill="midnightblue" stroke="midnightblue" points="286.5,-219.852 283,-209.852 279.5,-219.852 286.5,-219.852"/>
</g>
<!-- Node5 -->
<g id="node9" class="node"><title>Node5</title>
<a xlink:href="GeometryClasses_8h.xhtml" target="_top" xlink:title="GeometryClasses.h">
<polygon fill="none" stroke="black" points="440,-58.5 440,-79.5 544,-79.5 544,-58.5 440,-58.5"/>
<text text-anchor="middle" x="492" y="-66.5" font-family="Helvetica,sans-Serif" font-size="10.00">GeometryClasses.h</text>
</a>
</g>
<!-- Node4&#45;&gt;Node5 -->
<g id="edge8" class="edge"><title>Node4&#45;&gt;Node5</title>
<path fill="none" stroke="midnightblue" d="M551.718,-116.922C539.95,-107.479 525.364,-95.7736 513.553,-86.2957"/>
<polygon fill="midnightblue" stroke="midnightblue" points="515.513,-83.3811 505.523,-79.8521 511.132,-88.8406 515.513,-83.3811"/>
</g>
<!-- Node6 -->
<g id="node11" class="node"><title>Node6</title>
<polygon fill="none" stroke="#bfbfbf" points="374,-0.5 374,-21.5 428,-21.5 428,-0.5 374,-0.5"/>
<text text-anchor="middle" x="401" y="-8.5" font-family="Helvetica,sans-Serif" font-size="10.00">iostream</text>
</g>
<!-- Node5&#45;&gt;Node6 -->
<g id="edge10" class="edge"><title>Node5&#45;&gt;Node6</title>
<path fill="none" stroke="midnightblue" d="M475.309,-58.3619C461.584,-49.6138 441.916,-37.0786 426.263,-27.1015"/>
<polygon fill="midnightblue" stroke="midnightblue" points="427.899,-23.994 417.585,-21.5707 424.137,-29.8969 427.899,-23.994"/>
</g>
<!-- Node8&#45;&gt;Node2 -->
<g id="edge28" class="edge"><title>Node8&#45;&gt;Node2</title>
<path fill="none" stroke="midnightblue" d="M261.368,-194.126C228.23,-186.534 162.739,-171.034 98.6012,-152.373"/>
<polygon fill="midnightblue" stroke="midnightblue" points="99.3202,-148.936 88.7391,-149.475 97.3465,-155.652 99.3202,-148.936"/>
</g>
<!-- Node8&#45;&gt;Node3 -->
<g id="edge18" class="edge"><title>Node8&#45;&gt;Node3</title>
<path fill="none" stroke="midnightblue" d="M261.497,-192.049C236.413,-183.668 193.924,-168.621 159,-152 157.416,-151.246 155.805,-150.44 154.192,-149.602"/>
<polygon fill="midnightblue" stroke="midnightblue" points="155.558,-146.359 145.109,-144.603 152.182,-152.492 155.558,-146.359"/>
</g>
<!-- Node8&#45;&gt;Node4 -->
<g id="edge32" class="edge"><title>Node8&#45;&gt;Node4</title>
<path fill="none" stroke="midnightblue" d="M304.734,-191.743C309.101,-190.406 313.677,-189.089 318,-188 400.495,-167.212 423.086,-171.049 506,-152 507.086,-151.751 508.181,-151.496 509.282,-151.236"/>
<polygon fill="midnightblue" stroke="midnightblue" points="510.441,-154.556 519.33,-148.79 508.786,-147.755 510.441,-154.556"/>
</g>
<!-- Node8&#45;&gt;Node5 -->
<g id="edge30" class="edge"><title>Node8&#45;&gt;Node5</title>
<path fill="none" stroke="midnightblue" d="M304.768,-191.876C309.133,-190.528 313.699,-189.174 318,-188 386.229,-169.384 423.071,-202.088 473,-152 489.238,-135.711 492.756,-108.563 493.018,-89.7722"/>
<polygon fill="midnightblue" stroke="midnightblue" points="496.515,-89.5152 492.856,-79.572 489.515,-89.6262 496.515,-89.5152"/>
</g>
<!-- Node8&#45;&gt;Node6 -->
<g id="edge16" class="edge"><title>Node8&#45;&gt;Node6</title>
<path fill="none" stroke="midnightblue" d="M288.495,-188.334C296.819,-172.354 313.323,-141.366 329,-116 348.131,-85.0448 372.434,-50.4776 387.344,-29.7472"/>
<polygon fill="midnightblue" stroke="midnightblue" points="390.277,-31.6642 393.299,-21.5095 384.604,-27.5632 390.277,-31.6642"/>
</g>
<!-- Node9 -->
<g id="node19" class="node"><title>Node9</title>
<polygon fill="none" stroke="#bfbfbf" points="408,-123.5 408,-144.5 464,-144.5 464,-123.5 408,-123.5"/>
<text text-anchor="middle" x="436" y="-131.5" font-family="Helvetica,sans-Serif" font-size="10.00">algorithm</text>
</g>
<!-- Node8&#45;&gt;Node9 -->
<g id="edge20" class="edge"><title>Node8&#45;&gt;Node9</title>
<path fill="none" stroke="midnightblue" d="M304.563,-190.768C327.995,-181.706 366.445,-166.494 399,-152 401.202,-151.019 403.467,-149.985 405.74,-148.927"/>
<polygon fill="midnightblue" stroke="midnightblue" points="407.457,-151.986 414.984,-144.529 404.45,-145.664 407.457,-151.986"/>
</g>
<!-- Node10 -->
<g id="node21" class="node"><title>Node10</title>
<polygon fill="none" stroke="#bfbfbf" points="168,-123.5 168,-144.5 212,-144.5 212,-123.5 168,-123.5"/>
<text text-anchor="middle" x="190" y="-131.5" font-family="Helvetica,sans-Serif" font-size="10.00">cmath</text>
</g>
<!-- Node8&#45;&gt;Node10 -->
<g id="edge22" class="edge"><title>Node8&#45;&gt;Node10</title>
<path fill="none" stroke="midnightblue" d="M267.643,-188.267C252.881,-177.949 230.371,-162.216 213.382,-150.342"/>
<polygon fill="midnightblue" stroke="midnightblue" points="215.273,-147.394 205.071,-144.534 211.263,-153.131 215.273,-147.394"/>
</g>
<!-- Node11 -->
<g id="node23" class="node"><title>Node11</title>
<polygon fill="none" stroke="#bfbfbf" points="230,-123.5 230,-144.5 282,-144.5 282,-123.5 230,-123.5"/>
<text text-anchor="middle" x="256" y="-131.5" font-family="Helvetica,sans-Serif" font-size="10.00">sstream</text>
</g>
<!-- Node8&#45;&gt;Node11 -->
<g id="edge24" class="edge"><title>Node8&#45;&gt;Node11</title>
<path fill="none" stroke="midnightblue" d="M278.541,-188.267C274.688,-178.991 269.017,-165.336 264.327,-154.045"/>
<polygon fill="midnightblue" stroke="midnightblue" points="267.444,-152.426 260.376,-144.534 260.979,-155.111 267.444,-152.426"/>
</g>
<!-- Node12 -->
<g id="node25" class="node"><title>Node12</title>
<polygon fill="none" stroke="#bfbfbf" points="337.5,-123.5 337.5,-144.5 390.5,-144.5 390.5,-123.5 337.5,-123.5"/>
<text text-anchor="middle" x="364" y="-131.5" font-family="Helvetica,sans-Serif" font-size="10.00">wx/wx.h</text>
</g>
<!-- Node8&#45;&gt;Node12 -->
<g id="edge26" class="edge"><title>Node8&#45;&gt;Node12</title>
<path fill="none" stroke="midnightblue" d="M296.376,-188.267C308.996,-178.139 328.121,-162.792 342.816,-151"/>
<polygon fill="midnightblue" stroke="midnightblue" points="345.265,-153.522 350.873,-144.534 340.884,-148.063 345.265,-153.522"/>
</g>
</g>
</svg>
        <g id="navigator" transform="translate(0 0)" fill="#404254">
                <rect fill="#f2f5e9" fill-opacity="0.5" stroke="#606060" stroke-width=".5" x="0" y="0" width="60" height="60"/>
                <use id="zoomplus" xlink:href="#zoomPlus" x="17" y="9" onmousedown="handleZoom(evt,'in')"/>
                <use id="zoomminus" xlink:href="#zoomMin" x="42" y="9" onmousedown="handleZoom(evt,'out')"/>
                <use id="reset" xlink:href="#resetDef" x="30" y="36" onmousedown="handleReset()"/>
                <g id="arrowUp" xlink:href="#dirArrow" transform="translate(30 24)" onmousedown="handlePan(0,-1)">
                  <use xlink:href="#rim" fill="#404040">
                        <set attributeName="fill" to="#808080" begin="arrowUp.mouseover" end="arrowUp.mouseout"/>
                  </use>
                  <path fill="none" stroke="white" stroke-width="1.5" d="M0,-3.0v7 M-2.5,-0.5L0,-3.0L2.5,-0.5"/>
                </g>
                <g id="arrowRight" xlink:href="#dirArrow" transform="rotate(90) translate(36 -43)" onmousedown="handlePan(1,0)">
                  <use xlink:href="#rim" fill="#404040">
                        <set attributeName="fill" to="#808080" begin="arrowRight.mouseover" end="arrowRight.mouseout"/>
                  </use>
                  <path fill="none" stroke="white" stroke-width="1.5" d="M0,-3.0v7 M-2.5,-0.5L0,-3.0L2.5,-0.5"/>
                </g>
                <g id="arrowDown" xlink:href="#dirArrow" transform="rotate(180) translate(-30 -48)" onmousedown="handlePan(0,1)">
                  <use xlink:href="#rim" fill="#404040">
                        <set attributeName="fill" to="#808080" begin="arrowDown.mouseover" end="arrowDown.mouseout"/>
                  </use>
                  <path fill="none" stroke="white" stroke-width="1.5" d="M0,-3.0v7 M-2.5,-0.5L0,-3.0L2.5,-0.5"/>
                </g>
                <g id="arrowLeft" xlink:href="#dirArrow" transform="rotate(270) translate(-36 17)" onmousedown="handlePan(-1,0)">
                  <use xlink:href="#rim" fill="#404040">
                        <set attributeName="fill" to="#808080" begin="arrowLeft.mouseover" end="arrowLeft.mouseout"/>
                  </use>
                  <path fill="none" stroke="white" stroke-width="1.5" d="M0,-3.0v7 M-2.5,-0.5L0,-3.0L2.5,-0.5"/>
                </g>
        </g>
        <svg viewBox="0 0 15 15" width="100%" height="30px" preserveAspectRatio="xMaxYMin meet">
         <g id="arrow_out" transform="scale(0.3 0.3)">
          <a xlink:href="ObjectData_8h__incl_org.svg" target="_base">
           <rect id="button" ry="5" rx="5" y="6" x="6" height="38" width="38"
                fill="#f2f5e9" fill-opacity="0.5" stroke="#606060" stroke-width="1.0"/>
           <path id="arrow"
             d="M 11.500037,31.436501 C 11.940474,20.09759 22.043105,11.32322 32.158766,21.979434 L 37.068811,17.246167 C 37.068811,17.246167 37.088388,32 37.088388,32 L 22.160133,31.978069 C 22.160133,31.978069 26.997745,27.140456 26.997745,27.140456 C 18.528582,18.264221 13.291696,25.230495 11.500037,31.436501 z"
             style="fill:#404040;"/>
          </a>
         </g>
        </svg>
</svg>
