<?xml version="1.0" encoding="UTF-8" standalone="no"?>
<!DOCTYPE svg PUBLIC "-//W3C//DTD SVG 1.1//EN"
 "http://www.w3.org/Graphics/SVG/1.1/DTD/svg11.dtd">
<!-- Generated by graphviz version 2.26.3 (20100126.1600)
 -->
<!-- Title: simpleanalyzer&#45;gui/src/processing/ObjectData.cpp Pages: 1 -->
<svg width="640pt" height="406pt"
 viewBox="0.00 0.00 640.21 406.00" xmlns="http://www.w3.org/2000/svg" xmlns:xlink="http://www.w3.org/1999/xlink">
<g id="graph1" class="graph" transform="scale(1 1) rotate(0) translate(4 402)">
<title>simpleanalyzer&#45;gui/src/processing/ObjectData.cpp</title>
<!-- Node1 -->
<g id="node1" class="node"><title>Node1</title>
<polygon fill="#bfbfbf" stroke="black" points="431.71,-363 431.71,-397 586.71,-397 586.71,-363 431.71,-363"/>
<text text-anchor="start" x="439.71" y="-384" font-family="Helvetica,sans-Serif" font-size="10.00">simpleanalyzer&#45;gui</text>
<text text-anchor="middle" x="509.21" y="-371" font-family="Helvetica,sans-Serif" font-size="10.00">/src/processing/ObjectData.cpp</text>
</g>
<!-- Node2 -->
<g id="node3" class="node"><title>Node2</title>
<a xlink:href="ObjectData_8h.xhtml" target="_top" xlink:title="ObjectData.h">
<polygon fill="none" stroke="black" points="366.21,-246.5 366.21,-267.5 440.21,-267.5 440.21,-246.5 366.21,-246.5"/>
<text text-anchor="middle" x="403.21" y="-254.5" font-family="Helvetica,sans-Serif" font-size="10.00">ObjectData.h</text>
</a>
</g>
<!-- Node1&#45;&gt;Node2 -->
<g id="edge2" class="edge"><title>Node1&#45;&gt;Node2</title>
<path fill="none" stroke="midnightblue" d="M489.289,-362.882C477.899,-352.676 463.649,-339.176 452.21,-326 438.461,-310.164 424.811,-290.537 415.424,-276.269"/>
<polygon fill="midnightblue" stroke="midnightblue" points="418.287,-274.251 409.913,-267.761 412.412,-278.057 418.287,-274.251"/>
</g>
<!-- Node7 -->
<g id="node13" class="node"><title>Node7</title>
<polygon fill="none" stroke="#bfbfbf" points="245.21,-0.5 245.21,-21.5 299.21,-21.5 299.21,-0.5 245.21,-0.5"/>
<text text-anchor="middle" x="272.21" y="-8.5" font-family="Helvetica,sans-Serif" font-size="10.00">iostream</text>
</g>
<!-- Node1&#45;&gt;Node7 -->
<g id="edge52" class="edge"><title>Node1&#45;&gt;Node7</title>
<path fill="none" stroke="midnightblue" d="M545.449,-362.95C581.731,-343.077 632.21,-306.527 632.21,-257 632.21,-257 632.21,-257 632.21,-134 632.21,-66.2699 401.144,-28.1169 309.251,-15.6219"/>
<polygon fill="midnightblue" stroke="midnightblue" points="309.643,-12.1432 299.268,-14.2913 308.718,-19.0819 309.643,-12.1432"/>
</g>
<!-- Node12 -->
<g id="node25" class="node"><title>Node12</title>
<polygon fill="none" stroke="#bfbfbf" points="552.21,-123.5 552.21,-144.5 604.21,-144.5 604.21,-123.5 552.21,-123.5"/>
<text text-anchor="middle" x="578.21" y="-131.5" font-family="Helvetica,sans-Serif" font-size="10.00">sstream</text>
</g>
<!-- Node1&#45;&gt;Node12 -->
<g id="edge54" class="edge"><title>Node1&#45;&gt;Node12</title>
<path fill="none" stroke="midnightblue" d="M534.807,-362.782C546.539,-353.396 559.338,-340.694 566.21,-326 593.006,-268.697 586.72,-191.086 581.636,-154.585"/>
<polygon fill="midnightblue" stroke="midnightblue" points="585.089,-154.01 580.135,-144.645 578.167,-155.055 585.089,-154.01"/>
</g>
<!-- Node14 -->
<g id="node32" class="node"><title>Node14</title>
<a xlink:href="Importer_8h.xhtml" target="_top" xlink:title="../fileIO/Importer.h">
<polygon fill="none" stroke="black" points="461.21,-304.5 461.21,-325.5 557.21,-325.5 557.21,-304.5 461.21,-304.5"/>
<text text-anchor="middle" x="509.21" y="-312.5" font-family="Helvetica,sans-Serif" font-size="10.00">../fileIO/Importer.h</text>
</a>
</g>
<!-- Node1&#45;&gt;Node14 -->
<g id="edge36" class="edge"><title>Node1&#45;&gt;Node14</title>
<path fill="none" stroke="midnightblue" d="M509.21,-362.922C509.21,-354.67 509.21,-344.692 509.21,-335.982"/>
<polygon fill="midnightblue" stroke="midnightblue" points="512.71,-335.852 509.21,-325.852 505.71,-335.852 512.71,-335.852"/>
</g>
<!-- Node15 -->
<g id="node37" class="node"><title>Node15</title>
<a xlink:href="MeshProcessor_8h.xhtml" target="_top" xlink:title="../processing/MeshProcessor.h">
<polygon fill="none" stroke="black" points="213.21,-304.5 213.21,-325.5 365.21,-325.5 365.21,-304.5 213.21,-304.5"/>
<text text-anchor="middle" x="289.21" y="-312.5" font-family="Helvetica,sans-Serif" font-size="10.00">../processing/MeshProcessor.h</text>
</a>
</g>
<!-- Node1&#45;&gt;Node15 -->
<g id="edge44" class="edge"><title>Node1&#45;&gt;Node15</title>
<path fill="none" stroke="midnightblue" d="M451.407,-362.922C414.908,-352.138 368.427,-338.405 334.588,-328.407"/>
<polygon fill="midnightblue" stroke="midnightblue" points="335.54,-325.039 324.958,-325.562 333.556,-331.752 335.54,-325.039"/>
</g>
<!-- Node3 -->
<g id="node5" class="node"><title>Node3</title>
<polygon fill="none" stroke="#bfbfbf" points="383.71,-117 383.71,-151 472.71,-151 472.71,-117 383.71,-117"/>
<text text-anchor="start" x="391.71" y="-138" font-family="Helvetica,sans-Serif" font-size="10.00">../libraries/tetgen</text>
<text text-anchor="middle" x="428.21" y="-125" font-family="Helvetica,sans-Serif" font-size="10.00">/tetgen.h</text>
</g>
<!-- Node2&#45;&gt;Node3 -->
<g id="edge4" class="edge"><title>Node2&#45;&gt;Node3</title>
<path fill="none" stroke="midnightblue" d="M405.891,-246.205C408.215,-236.7 411.604,-222.469 414.21,-210 417.589,-193.831 420.956,-175.637 423.541,-161.104"/>
<polygon fill="midnightblue" stroke="midnightblue" points="426.989,-161.706 425.274,-151.251 420.095,-160.493 426.989,-161.706"/>
</g>
<!-- Node4 -->
<g id="node7" class="node"><title>Node4</title>
<polygon fill="none" stroke="#bfbfbf" points="490.21,-123.5 490.21,-144.5 534.21,-144.5 534.21,-123.5 490.21,-123.5"/>
<text text-anchor="middle" x="512.21" y="-131.5" font-family="Helvetica,sans-Serif" font-size="10.00">vector</text>
</g>
<!-- Node2&#45;&gt;Node4 -->
<g id="edge6" class="edge"><title>Node2&#45;&gt;Node4</title>
<path fill="none" stroke="midnightblue" d="M412.883,-246.085C431.594,-224.97 472.926,-178.33 495.938,-152.362"/>
<polygon fill="midnightblue" stroke="midnightblue" points="498.701,-154.521 502.714,-144.715 493.462,-149.878 498.701,-154.521"/>
</g>
<!-- Node5 -->
<g id="node9" class="node"><title>Node5</title>
<a xlink:href="Interpolator_8h.xhtml" target="_top" xlink:title="../libraries/interpolate\l/Interpolator.h">
<polygon fill="none" stroke="black" points="259.71,-117 259.71,-151 366.71,-151 366.71,-117 259.71,-117"/>
<text text-anchor="start" x="267.71" y="-138" font-family="Helvetica,sans-Serif" font-size="10.00">../libraries/interpolate</text>
<text text-anchor="middle" x="313.21" y="-125" font-family="Helvetica,sans-Serif" font-size="10.00">/Interpolator.h</text>
</a>
</g>
<!-- Node2&#45;&gt;Node5 -->
<g id="edge8" class="edge"><title>Node2&#45;&gt;Node5</title>
<path fill="none" stroke="midnightblue" d="M378.341,-246.346C362.846,-238.473 343.732,-226.294 332.21,-210 322.129,-195.745 317.381,-176.675 315.152,-161.204"/>
<polygon fill="midnightblue" stroke="midnightblue" points="318.616,-160.697 313.976,-151.172 311.664,-161.511 318.616,-160.697"/>
</g>
<!-- Node8 -->
<g id="node15" class="node"><title>Node8</title>
<polygon fill="none" stroke="#bfbfbf" points="340.71,-188.5 340.71,-209.5 405.71,-209.5 405.71,-188.5 340.71,-188.5"/>
<text text-anchor="middle" x="373.21" y="-196.5" font-family="Helvetica,sans-Serif" font-size="10.00">wx/string.h</text>
</g>
<!-- Node2&#45;&gt;Node8 -->
<g id="edge14" class="edge"><title>Node2&#45;&gt;Node8</title>
<path fill="none" stroke="midnightblue" d="M397.707,-246.362C393.69,-238.595 388.128,-227.843 383.32,-218.546"/>
<polygon fill="midnightblue" stroke="midnightblue" points="386.38,-216.845 378.677,-209.571 380.163,-220.061 386.38,-216.845"/>
</g>
<!-- Node9 -->
<g id="node17" class="node"><title>Node9</title>
<a xlink:href="utils_8h.xhtml" target="_top" xlink:title="utils.h">
<polygon fill="none" stroke="black" points="204.71,-188.5 204.71,-209.5 247.71,-209.5 247.71,-188.5 204.71,-188.5"/>
<text text-anchor="middle" x="226.21" y="-196.5" font-family="Helvetica,sans-Serif" font-size="10.00">utils.h</text>
</a>
</g>
<!-- Node2&#45;&gt;Node9 -->
<g id="edge16" class="edge"><title>Node2&#45;&gt;Node9</title>
<path fill="none" stroke="midnightblue" d="M371.156,-246.497C338.885,-235.922 289.426,-219.715 257.448,-209.236"/>
<polygon fill="midnightblue" stroke="midnightblue" points="258.316,-205.838 247.723,-206.05 256.136,-212.49 258.316,-205.838"/>
</g>
<!-- Node6 -->
<g id="node11" class="node"><title>Node6</title>
<a xlink:href="GeometryClasses_8h.xhtml" target="_top" xlink:title="GeometryClasses.h">
<polygon fill="none" stroke="black" points="220.21,-58.5 220.21,-79.5 324.21,-79.5 324.21,-58.5 220.21,-58.5"/>
<text text-anchor="middle" x="272.21" y="-66.5" font-family="Helvetica,sans-Serif" font-size="10.00">GeometryClasses.h</text>
</a>
</g>
<!-- Node5&#45;&gt;Node6 -->
<g id="edge10" class="edge"><title>Node5&#45;&gt;Node6</title>
<path fill="none" stroke="midnightblue" d="M302.438,-116.922C296.944,-108.212 290.236,-97.5782 284.536,-88.5423"/>
<polygon fill="midnightblue" stroke="midnightblue" points="287.35,-86.4428 279.055,-79.8521 281.43,-90.1774 287.35,-86.4428"/>
</g>
<!-- Node6&#45;&gt;Node7 -->
<g id="edge12" class="edge"><title>Node6&#45;&gt;Node7</title>
<path fill="none" stroke="midnightblue" d="M272.21,-58.3619C272.21,-50.9219 272.21,-40.7427 272.21,-31.7276"/>
<polygon fill="midnightblue" stroke="midnightblue" points="275.71,-31.5706 272.21,-21.5707 268.71,-31.5707 275.71,-31.5706"/>
</g>
<!-- Node9&#45;&gt;Node3 -->
<g id="edge30" class="edge"><title>Node9&#45;&gt;Node3</title>
<path fill="none" stroke="midnightblue" d="M247.769,-192.228C281.386,-181.665 344.847,-161.708 373.845,-152.389"/>
<polygon fill="midnightblue" stroke="midnightblue" points="375.267,-155.608 383.7,-149.195 373.108,-148.949 375.267,-155.608"/>
</g>
<!-- Node9&#45;&gt;Node4 -->
<g id="edge20" class="edge"><title>Node9&#45;&gt;Node4</title>
<path fill="none" stroke="midnightblue" d="M248.029,-197.508C292.941,-193.894 398.453,-182.6 481.21,-152 483.297,-151.228 485.405,-150.321 487.489,-149.332"/>
<polygon fill="midnightblue" stroke="midnightblue" points="489.138,-152.419 496.317,-144.627 485.846,-146.241 489.138,-152.419"/>
</g>
<!-- Node9&#45;&gt;Node5 -->
<g id="edge34" class="edge"><title>Node9&#45;&gt;Node5</title>
<path fill="none" stroke="midnightblue" d="M240.576,-188.267C251.873,-179.827 268.02,-167.762 282.223,-157.151"/>
<polygon fill="midnightblue" stroke="midnightblue" points="284.393,-159.899 290.309,-151.11 280.203,-154.291 284.393,-159.899"/>
</g>
<!-- Node9&#45;&gt;Node6 -->
<g id="edge32" class="edge"><title>Node9&#45;&gt;Node6</title>
<path fill="none" stroke="midnightblue" d="M228.943,-188.375C233.144,-172.449 241.707,-141.528 251.21,-116 254.579,-106.949 258.846,-97.1646 262.652,-88.8786"/>
<polygon fill="midnightblue" stroke="midnightblue" points="265.896,-90.2045 266.975,-79.6648 259.559,-87.2313 265.896,-90.2045"/>
</g>
<!-- Node9&#45;&gt;Node7 -->
<g id="edge18" class="edge"><title>Node9&#45;&gt;Node7</title>
<path fill="none" stroke="midnightblue" d="M204.383,-197.686C153.978,-194.15 31.8966,-182.547 7.20978,-152 -2.84712,-139.556 -1.78185,-129.234 7.20978,-116 58.8932,-39.9291 175.192,-18.9702 235.055,-13.1958"/>
<polygon fill="midnightblue" stroke="midnightblue" points="235.543,-16.6666 245.201,-12.3113 234.935,-9.69306 235.543,-16.6666"/>
</g>
<!-- Node10 -->
<g id="node21" class="node"><title>Node10</title>
<polygon fill="none" stroke="#bfbfbf" points="16.2098,-123.5 16.2098,-144.5 72.2098,-144.5 72.2098,-123.5 16.2098,-123.5"/>
<text text-anchor="middle" x="44.2098" y="-131.5" font-family="Helvetica,sans-Serif" font-size="10.00">algorithm</text>
</g>
<!-- Node9&#45;&gt;Node10 -->
<g id="edge22" class="edge"><title>Node9&#45;&gt;Node10</title>
<path fill="none" stroke="midnightblue" d="M204.255,-192.921C175.556,-184.74 123.917,-169.212 81.2098,-152 78.8329,-151.042 76.3955,-149.999 73.9614,-148.914"/>
<polygon fill="midnightblue" stroke="midnightblue" points="75.2659,-145.66 64.7234,-144.608 72.3087,-152.005 75.2659,-145.66"/>
</g>
<!-- Node11 -->
<g id="node23" class="node"><title>Node11</title>
<polygon fill="none" stroke="#bfbfbf" points="90.2098,-123.5 90.2098,-144.5 134.21,-144.5 134.21,-123.5 90.2098,-123.5"/>
<text text-anchor="middle" x="112.21" y="-131.5" font-family="Helvetica,sans-Serif" font-size="10.00">cmath</text>
</g>
<!-- Node9&#45;&gt;Node11 -->
<g id="edge24" class="edge"><title>Node9&#45;&gt;Node11</title>
<path fill="none" stroke="midnightblue" d="M207.387,-188.418C190.543,-178.93 165.189,-164.603 143.21,-152 141.894,-151.245 140.547,-150.471 139.188,-149.688"/>
<polygon fill="midnightblue" stroke="midnightblue" points="140.631,-146.48 130.222,-144.503 137.127,-152.539 140.631,-146.48"/>
</g>
<!-- Node9&#45;&gt;Node12 -->
<g id="edge26" class="edge"><title>Node9&#45;&gt;Node12</title>
<path fill="none" stroke="midnightblue" d="M247.85,-196.725C309.91,-190.053 487.596,-169.882 543.21,-152 545.954,-151.118 548.744,-150.037 551.491,-148.848"/>
<polygon fill="midnightblue" stroke="midnightblue" points="553.025,-151.994 560.531,-144.516 550,-145.681 553.025,-151.994"/>
</g>
<!-- Node13 -->
<g id="node27" class="node"><title>Node13</title>
<polygon fill="none" stroke="#bfbfbf" points="151.71,-123.5 151.71,-144.5 204.71,-144.5 204.71,-123.5 151.71,-123.5"/>
<text text-anchor="middle" x="178.21" y="-131.5" font-family="Helvetica,sans-Serif" font-size="10.00">wx/wx.h</text>
</g>
<!-- Node9&#45;&gt;Node13 -->
<g id="edge28" class="edge"><title>Node9&#45;&gt;Node13</title>
<path fill="none" stroke="midnightblue" d="M218.284,-188.267C211.154,-178.612 200.522,-164.215 192.001,-152.675"/>
<polygon fill="midnightblue" stroke="midnightblue" points="194.745,-150.499 185.989,-144.534 189.113,-154.657 194.745,-150.499"/>
</g>
<!-- Node14&#45;&gt;Node2 -->
<g id="edge40" class="edge"><title>Node14&#45;&gt;Node2</title>
<path fill="none" stroke="midnightblue" d="M489.768,-304.362C473.406,-295.409 449.796,-282.491 431.366,-272.406"/>
<polygon fill="midnightblue" stroke="midnightblue" points="432.981,-269.3 422.529,-267.571 429.621,-275.441 432.981,-269.3"/>
</g>
<!-- Node14&#45;&gt;Node3 -->
<g id="edge38" class="edge"><title>Node14&#45;&gt;Node3</title>
<path fill="none" stroke="midnightblue" d="M504.505,-304.486C492.09,-276.745 458.16,-200.925 440.018,-160.387"/>
<polygon fill="midnightblue" stroke="midnightblue" points="443.153,-158.824 435.874,-151.126 436.764,-161.684 443.153,-158.824"/>
</g>
<!-- Node14&#45;&gt;Node4 -->
<g id="edge42" class="edge"><title>Node14&#45;&gt;Node4</title>
<path fill="none" stroke="midnightblue" d="M513.34,-304.372C516.758,-294.974 521.343,-280.806 523.21,-268 528.339,-232.816 526.776,-223.376 523.21,-188 522.082,-176.815 519.672,-164.521 517.395,-154.493"/>
<polygon fill="midnightblue" stroke="midnightblue" points="520.773,-153.572 515.042,-144.66 513.965,-155.2 520.773,-153.572"/>
</g>
<!-- Node15&#45;&gt;Node2 -->
<g id="edge48" class="edge"><title>Node15&#45;&gt;Node2</title>
<path fill="none" stroke="midnightblue" d="M309.854,-304.497C327.579,-295.479 353.355,-282.365 373.333,-272.201"/>
<polygon fill="midnightblue" stroke="midnightblue" points="375.008,-275.275 382.334,-267.621 371.834,-269.036 375.008,-275.275"/>
</g>
<!-- Node15&#45;&gt;Node3 -->
<g id="edge46" class="edge"><title>Node15&#45;&gt;Node3</title>
<path fill="none" stroke="midnightblue" d="M290.257,-304.218C293.057,-280.619 302.636,-223.655 332.21,-188 343.435,-174.466 358.983,-163.688 374.298,-155.431"/>
<polygon fill="midnightblue" stroke="midnightblue" points="375.939,-158.523 383.255,-150.86 372.757,-152.289 375.939,-158.523"/>
</g>
<!-- Node15&#45;&gt;Node9 -->
<g id="edge50" class="edge"><title>Node15&#45;&gt;Node9</title>
<path fill="none" stroke="midnightblue" d="M282.549,-304.293C276.739,-294.844 268.174,-280.646 261.21,-268 252.242,-251.715 242.741,-232.87 235.904,-218.993"/>
<polygon fill="midnightblue" stroke="midnightblue" points="238.981,-217.319 231.442,-209.875 232.693,-220.396 238.981,-217.319"/>
</g>
</g>
</svg>
