<?xml version="1.0" encoding="UTF-8" standalone="no"?>
<!DOCTYPE svg PUBLIC "-//W3C//DTD SVG 1.1//EN"
 "http://www.w3.org/Graphics/SVG/1.1/DTD/svg11.dtd">
<!-- Generated by graphviz version 2.36.0 (20140111.2315)
 -->
<!-- Title: get_error_string Pages: 1 -->
<!--zoomable 96 -->
<svg id="main" version="1.1" xmlns="http://www.w3.org/2000/svg" xmlns:xlink="http://www.w3.org/1999/xlink" xml:space="preserve" onload="init(evt)">
<style type="text/css"><![CDATA[
.edge:hover path { stroke: red; }
.edge:hover polygon { stroke: red; fill: red; }
]]></style>
<script type="text/javascript"><![CDATA[
var edges = document.getElementsByTagName('g');
if (edges && edges.length) {
  for (var i=0;i<edges.length;i++) {
    if (edges[i].id.substr(0,4)=='edge') {
      edges[i].setAttribute('class','edge');
    }
  }
}
]]></script>
        <defs>
                <circle id="rim" cx="0" cy="0" r="7"/>
                <circle id="rim2" cx="0" cy="0" r="3.5"/>
                <g id="zoomPlus">
                        <use xlink:href="#rim" fill="#404040">
                                <set attributeName="fill" to="#808080" begin="zoomplus.mouseover" end="zoomplus.mouseout"/>
                        </use>
                        <path d="M-4,0h8M0,-4v8" fill="none" stroke="white" stroke-width="1.5" pointer-events="none"/>
                </g>
                <g id="zoomMin">
                        <use xlink:href="#rim" fill="#404040">
                                <set attributeName="fill" to="#808080" begin="zoomminus.mouseover" end="zoomminus.mouseout"/>
                        </use>
                        <path d="M-4,0h8" fill="none" stroke="white" stroke-width="1.5" pointer-events="none"/>
                </g>
                <g id="dirArrow">
                        <path fill="none" stroke="white" stroke-width="1.5" d="M0,-3.0v7 M-2.5,-0.5L0,-3.0L2.5,-0.5"/>
                </g>
               <g id="resetDef">
                       <use xlink:href="#rim2" fill="#404040">
                               <set attributeName="fill" to="#808080" begin="reset.mouseover" end="reset.mouseout"/>
                       </use>
               </g>
        </defs>

<script type="text/javascript">
var viewWidth = 608;
var viewHeight = 96;
var sectionId = 'dynsection-5';
</script>
<script xlink:href="svgpan.js"/>
<svg id="graph" class="graph">
<g id="viewport">
<title>get_error_string</title>
<!-- Node1 -->
<g id="node1" class="node"><title>Node1</title>
<polygon fill="#bfbfbf" stroke="black" points="0,-41.5 0,-60.5 84,-60.5 84,-41.5 0,-41.5"/>
<text text-anchor="middle" x="42" y="-48.5" font-family="Helvetica,sans-Serif" font-size="10.00">get_error_string</text>
</g>
<!-- Node2 -->
<g id="node2" class="node"><title>Node2</title>
<g id="a_node2"><a xlink:href="classParticleSystem.xhtml#aff6f56273d7a4332b015b20abbe68ecb" target="_top" xlink:title="ParticleSystem::Particle\lSystem">
<polygon fill="none" stroke="black" points="120,-58 120,-88 242,-88 242,-58 120,-58"/>
<text text-anchor="start" x="128" y="-76" font-family="Helvetica,sans-Serif" font-size="10.00">ParticleSystem::Particle</text>
<text text-anchor="middle" x="181" y="-65" font-family="Helvetica,sans-Serif" font-size="10.00">System</text>
</a>
</g>
</g>
<!-- Node1&#45;&gt;Node2 -->
<g id="edge1" class="edge"><title>Node1&#45;&gt;Node2</title>
<path fill="none" stroke="midnightblue" d="M94.1382,-59.212C102.546,-60.5622 111.328,-61.9724 119.93,-63.3537"/>
<polygon fill="midnightblue" stroke="midnightblue" points="94.533,-55.7306 84.1045,-57.6007 93.4231,-62.6421 94.533,-55.7306"/>
</g>
<!-- Node3 -->
<g id="node3" class="node"><title>Node3</title>
<g id="a_node3"><a xlink:href="classParticleSystem.xhtml#a6908575021b0f12f4bf4d7298acf4900" target="_top" xlink:title="ParticleSystem::calc">
<polygon fill="none" stroke="black" points="127.5,-19.5 127.5,-38.5 234.5,-38.5 234.5,-19.5 127.5,-19.5"/>
<text text-anchor="middle" x="181" y="-26.5" font-family="Helvetica,sans-Serif" font-size="10.00">ParticleSystem::calc</text>
</a>
</g>
</g>
<!-- Node1&#45;&gt;Node3 -->
<g id="edge2" class="edge"><title>Node1&#45;&gt;Node3</title>
<path fill="none" stroke="midnightblue" d="M94.2177,-42.7753C105.001,-41.0437 116.395,-39.2139 127.234,-37.4733"/>
<polygon fill="midnightblue" stroke="midnightblue" points="93.4231,-39.3579 84.1045,-44.3993 94.533,-46.2694 93.4231,-39.3579"/>
</g>
<!-- Node4 -->
<g id="node4" class="node"><title>Node4</title>
<g id="a_node4"><a xlink:href="classRenderer.xhtml#a0580ba6864ba731290380740c0a470e3" target="_top" xlink:title="Renderer::render">
<polygon fill="none" stroke="black" points="278.5,-19.5 278.5,-38.5 367.5,-38.5 367.5,-19.5 278.5,-19.5"/>
<text text-anchor="middle" x="323" y="-26.5" font-family="Helvetica,sans-Serif" font-size="10.00">Renderer::render</text>
</a>
</g>
</g>
<!-- Node3&#45;&gt;Node4 -->
<g id="edge3" class="edge"><title>Node3&#45;&gt;Node4</title>
<path fill="none" stroke="midnightblue" d="M244.816,-29C256.133,-29 267.703,-29 278.325,-29"/>
<polygon fill="midnightblue" stroke="midnightblue" points="244.529,-25.5001 234.529,-29 244.529,-32.5001 244.529,-25.5001"/>
</g>
<!-- Node5 -->
<g id="node5" class="node"><title>Node5</title>
<g id="a_node5"><a xlink:href="classMain.xhtml#a2c54a5b5efdb5e02be834319c494620c" target="_top" xlink:title="Main::mainLoop">
<polygon fill="none" stroke="black" points="422,-38.5 422,-57.5 508,-57.5 508,-38.5 422,-38.5"/>
<text text-anchor="middle" x="465" y="-45.5" font-family="Helvetica,sans-Serif" font-size="10.00">Main::mainLoop</text>
</a>
</g>
</g>
<!-- Node4&#45;&gt;Node5 -->
<g id="edge4" class="edge"><title>Node4&#45;&gt;Node5</title>
<path fill="none" stroke="midnightblue" d="M377.516,-36.2628C392.227,-38.2594 407.969,-40.3958 421.936,-42.2913"/>
<polygon fill="midnightblue" stroke="midnightblue" points="377.909,-32.7843 367.529,-34.9076 376.968,-39.7207 377.909,-32.7843"/>
</g>
<!-- Node7 -->
<g id="node7" class="node"><title>Node7</title>
<g id="a_node7"><a xlink:href="classGUIGLCanvas.xhtml#a83f52d08591920a339150c2f45069c8f" target="_top" xlink:title="Event&#45;Tabellendeklaration für wxWidgets. ">
<polygon fill="none" stroke="black" points="404,-0.5 404,-19.5 526,-19.5 526,-0.5 404,-0.5"/>
<text text-anchor="middle" x="465" y="-7.5" font-family="Helvetica,sans-Serif" font-size="10.00">GUIGLCanvas::OnPaint</text>
</a>
</g>
</g>
<!-- Node4&#45;&gt;Node7 -->
<g id="edge6" class="edge"><title>Node4&#45;&gt;Node7</title>
<path fill="none" stroke="midnightblue" d="M377.445,-21.7468C386.059,-20.5777 395.028,-19.3605 403.788,-18.1716"/>
<polygon fill="midnightblue" stroke="midnightblue" points="376.968,-18.2793 367.529,-23.0924 377.909,-25.2157 376.968,-18.2793"/>
</g>
<!-- Node6 -->
<g id="node6" class="node"><title>Node6</title>
<g id="a_node6"><a xlink:href="CLGL__test_2Main_8h.xhtml#a0ddf1224851353fc92bfbff6f499fa97" target="_top" xlink:title="main">
<polygon fill="none" stroke="black" points="562,-38.5 562,-57.5 600,-57.5 600,-38.5 562,-38.5"/>
<text text-anchor="middle" x="581" y="-45.5" font-family="Helvetica,sans-Serif" font-size="10.00">main</text>
</a>
</g>
</g>
<!-- Node5&#45;&gt;Node6 -->
<g id="edge5" class="edge"><title>Node5&#45;&gt;Node6</title>
<path fill="none" stroke="midnightblue" d="M518.278,-48C533.907,-48 550.013,-48 561.852,-48"/>
<polygon fill="midnightblue" stroke="midnightblue" points="518.126,-44.5001 508.126,-48 518.125,-51.5001 518.126,-44.5001"/>
</g>
</g>
</svg>
        <g id="navigator" transform="translate(0 0)" fill="#404254">
                <rect fill="#f2f5e9" fill-opacity="0.5" stroke="#606060" stroke-width=".5" x="0" y="0" width="60" height="60"/>
                <use id="zoomplus" xlink:href="#zoomPlus" x="17" y="9" onmousedown="handleZoom(evt,'in')"/>
                <use id="zoomminus" xlink:href="#zoomMin" x="42" y="9" onmousedown="handleZoom(evt,'out')"/>
                <use id="reset" xlink:href="#resetDef" x="30" y="36" onmousedown="handleReset()"/>
                <g id="arrowUp" xlink:href="#dirArrow" transform="translate(30 24)" onmousedown="handlePan(0,-1)">
                  <use xlink:href="#rim" fill="#404040">
                        <set attributeName="fill" to="#808080" begin="arrowUp.mouseover" end="arrowUp.mouseout"/>
                  </use>
                  <path fill="none" stroke="white" stroke-width="1.5" d="M0,-3.0v7 M-2.5,-0.5L0,-3.0L2.5,-0.5"/>
                </g>
                <g id="arrowRight" xlink:href="#dirArrow" transform="rotate(90) translate(36 -43)" onmousedown="handlePan(1,0)">
                  <use xlink:href="#rim" fill="#404040">
                        <set attributeName="fill" to="#808080" begin="arrowRight.mouseover" end="arrowRight.mouseout"/>
                  </use>
                  <path fill="none" stroke="white" stroke-width="1.5" d="M0,-3.0v7 M-2.5,-0.5L0,-3.0L2.5,-0.5"/>
                </g>
                <g id="arrowDown" xlink:href="#dirArrow" transform="rotate(180) translate(-30 -48)" onmousedown="handlePan(0,1)">
                  <use xlink:href="#rim" fill="#404040">
                        <set attributeName="fill" to="#808080" begin="arrowDown.mouseover" end="arrowDown.mouseout"/>
                  </use>
                  <path fill="none" stroke="white" stroke-width="1.5" d="M0,-3.0v7 M-2.5,-0.5L0,-3.0L2.5,-0.5"/>
                </g>
                <g id="arrowLeft" xlink:href="#dirArrow" transform="rotate(270) translate(-36 17)" onmousedown="handlePan(-1,0)">
                  <use xlink:href="#rim" fill="#404040">
                        <set attributeName="fill" to="#808080" begin="arrowLeft.mouseover" end="arrowLeft.mouseout"/>
                  </use>
                  <path fill="none" stroke="white" stroke-width="1.5" d="M0,-3.0v7 M-2.5,-0.5L0,-3.0L2.5,-0.5"/>
                </g>
        </g>
        <svg viewBox="0 0 15 15" width="100%" height="30px" preserveAspectRatio="xMaxYMin meet">
         <g id="arrow_out" transform="scale(0.3 0.3)">
          <a xlink:href="particle__sim_2utils_8h_a0ad38b3024e8b403c440e818c8e7ee5d_icgraph_org.svg" target="_base">
           <rect id="button" ry="5" rx="5" y="6" x="6" height="38" width="38"
                fill="#f2f5e9" fill-opacity="0.5" stroke="#606060" stroke-width="1.0"/>
           <path id="arrow"
             d="M 11.500037,31.436501 C 11.940474,20.09759 22.043105,11.32322 32.158766,21.979434 L 37.068811,17.246167 C 37.068811,17.246167 37.088388,32 37.088388,32 L 22.160133,31.978069 C 22.160133,31.978069 26.997745,27.140456 26.997745,27.140456 C 18.528582,18.264221 13.291696,25.230495 11.500037,31.436501 z"
             style="fill:#404040;"/>
          </a>
         </g>
        </svg>
</svg>
