<?xml version="1.0" encoding="UTF-8" standalone="no"?>
<!DOCTYPE svg PUBLIC "-//W3C//DTD SVG 1.1//EN"
 "http://www.w3.org/Graphics/SVG/1.1/DTD/svg11.dtd">
<!-- Generated by graphviz version 2.36.0 (20140111.2315)
 -->
<!-- Title: clPrintDevInfo Pages: 1 -->
<svg width="246pt" height="104pt"
 viewBox="0.00 0.00 246.00 104.00" xmlns="http://www.w3.org/2000/svg" xmlns:xlink="http://www.w3.org/1999/xlink">
<g id="graph0" class="graph" transform="scale(1 1) rotate(0) translate(4 100)">
<title>clPrintDevInfo</title>
<!-- Node1 -->
<g id="node1" class="node"><title>Node1</title>
<polygon fill="#bfbfbf" stroke="black" points="0.5,-38.5 0.5,-57.5 79.5,-57.5 79.5,-38.5 0.5,-38.5"/>
<text text-anchor="middle" x="40" y="-45.5" font-family="Helvetica,sans-Serif" font-size="10.00">clPrintDevInfo</text>
</g>
<!-- Node2 -->
<g id="node2" class="node"><title>Node2</title>
<g id="a_node2"><a xlink:href="classCLHandler.xhtml#a0755561464f255fe46df924bbe83b200" target="_top" xlink:title="CLHandler::CLHandler">
<polygon fill="none" stroke="black" points="119,-76.5 119,-95.5 235,-95.5 235,-76.5 119,-76.5"/>
<text text-anchor="middle" x="177" y="-83.5" font-family="Helvetica,sans-Serif" font-size="10.00">CLHandler::CLHandler</text>
</a>
</g>
</g>
<!-- Node1&#45;&gt;Node2 -->
<g id="edge1" class="edge"><title>Node1&#45;&gt;Node2</title>
<path fill="none" stroke="midnightblue" d="M75.0662,-57.589C92.4135,-62.4719 113.702,-68.4643 132.249,-73.685"/>
<polygon fill="midnightblue" stroke="midnightblue" points="131.37,-77.0735 141.945,-76.4141 133.267,-70.3354 131.37,-77.0735"/>
</g>
<!-- Node3 -->
<g id="node3" class="node"><title>Node3</title>
<g id="a_node3"><a xlink:href="classCLHandler.xhtml#aa43428623da161d648d5e7e127cb6839" target="_top" xlink:title="CLHandler::isValid">
<polygon fill="none" stroke="black" points="128,-38.5 128,-57.5 226,-57.5 226,-38.5 128,-38.5"/>
<text text-anchor="middle" x="177" y="-45.5" font-family="Helvetica,sans-Serif" font-size="10.00">CLHandler::isValid</text>
</a>
</g>
</g>
<!-- Node1&#45;&gt;Node3 -->
<g id="edge2" class="edge"><title>Node1&#45;&gt;Node3</title>
<path fill="none" stroke="midnightblue" d="M79.6856,-48C91.4896,-48 104.741,-48 117.55,-48"/>
<polygon fill="midnightblue" stroke="midnightblue" points="117.691,-51.5001 127.691,-48 117.691,-44.5001 117.691,-51.5001"/>
</g>
<!-- Node4 -->
<g id="node4" class="node"><title>Node4</title>
<g id="a_node4"><a xlink:href="classCLHandler.xhtml#af6e3d327900227be448249478f131024" target="_top" xlink:title="CLHandler::~CLHandler">
<polygon fill="none" stroke="black" points="116,-0.5 116,-19.5 238,-19.5 238,-0.5 116,-0.5"/>
<text text-anchor="middle" x="177" y="-7.5" font-family="Helvetica,sans-Serif" font-size="10.00">CLHandler::~CLHandler</text>
</a>
</g>
</g>
<!-- Node1&#45;&gt;Node4 -->
<g id="edge3" class="edge"><title>Node1&#45;&gt;Node4</title>
<path fill="none" stroke="midnightblue" d="M75.0662,-38.411C92.4135,-33.5281 113.702,-27.5357 132.249,-22.315"/>
<polygon fill="midnightblue" stroke="midnightblue" points="133.267,-25.6646 141.945,-19.5859 131.37,-18.9265 133.267,-25.6646"/>
</g>
</g>
</svg>
