<?xml version="1.0" encoding="UTF-8" standalone="no"?>
<!DOCTYPE svg PUBLIC "-//W3C//DTD SVG 1.1//EN"
 "http://www.w3.org/Graphics/SVG/1.1/DTD/svg11.dtd">
<!-- Generated by graphviz version 2.36.0 (20140111.2315)
 -->
<!-- Title: /daten/Projekte/eclipse_workspace/particle_sim/Renderer.h Pages: 1 -->
<svg width="535pt" height="218pt"
 viewBox="0.00 0.00 535.00 218.00" xmlns="http://www.w3.org/2000/svg" xmlns:xlink="http://www.w3.org/1999/xlink">
<g id="graph0" class="graph" transform="scale(1 1) rotate(0) translate(4 214)">
<title>/daten/Projekte/eclipse_workspace/particle_sim/Renderer.h</title>
<!-- Node1 -->
<g id="node1" class="node"><title>Node1</title>
<polygon fill="#bfbfbf" stroke="black" points="168.5,-168.5 168.5,-209.5 293.5,-209.5 293.5,-168.5 168.5,-168.5"/>
<text text-anchor="start" x="176.5" y="-197.5" font-family="Helvetica,sans-Serif" font-size="10.00">/daten/Projekte/eclipse</text>
<text text-anchor="start" x="176.5" y="-186.5" font-family="Helvetica,sans-Serif" font-size="10.00">_workspace/particle_sim</text>
<text text-anchor="middle" x="231" y="-175.5" font-family="Helvetica,sans-Serif" font-size="10.00">/Renderer.h</text>
</g>
<!-- Node2 -->
<g id="node2" class="node"><title>Node2</title>
<polygon fill="none" stroke="#bfbfbf" points="59,-56.5 59,-75.5 107,-75.5 107,-56.5 59,-56.5"/>
<text text-anchor="middle" x="83" y="-63.5" font-family="Helvetica,sans-Serif" font-size="10.00">GL/gl.h</text>
</g>
<!-- Node1&#45;&gt;Node2 -->
<g id="edge1" class="edge"><title>Node1&#45;&gt;Node2</title>
<path fill="none" stroke="midnightblue" d="M168.332,-173.082C144.652,-164.589 119.281,-151.592 102,-132 90.7085,-119.199 86.1134,-100.011 84.251,-85.7976"/>
<polygon fill="midnightblue" stroke="midnightblue" points="87.719,-85.2971 83.2676,-75.6827 80.7518,-85.9745 87.719,-85.2971"/>
</g>
<!-- Node3 -->
<g id="node3" class="node"><title>Node3</title>
<polygon fill="none" stroke="#bfbfbf" points="111,-112.5 111,-131.5 167,-131.5 167,-112.5 111,-112.5"/>
<text text-anchor="middle" x="139" y="-119.5" font-family="Helvetica,sans-Serif" font-size="10.00">GL/glut.h</text>
</g>
<!-- Node1&#45;&gt;Node3 -->
<g id="edge2" class="edge"><title>Node1&#45;&gt;Node3</title>
<path fill="none" stroke="midnightblue" d="M203.397,-168.498C189.292,-158.532 172.423,-146.614 159.49,-137.476"/>
<polygon fill="midnightblue" stroke="midnightblue" points="161.433,-134.564 151.247,-131.652 157.394,-140.281 161.433,-134.564"/>
</g>
<!-- Node4 -->
<g id="node4" class="node"><title>Node4</title>
<g id="a_node4"><a xlink:href="particle__sim_2ParticleSystem_8h.xhtml" target="_top" xlink:title="ParticleSystem.h">
<polygon fill="none" stroke="black" points="185,-112.5 185,-131.5 277,-131.5 277,-112.5 185,-112.5"/>
<text text-anchor="middle" x="231" y="-119.5" font-family="Helvetica,sans-Serif" font-size="10.00">ParticleSystem.h</text>
</a>
</g>
</g>
<!-- Node1&#45;&gt;Node4 -->
<g id="edge3" class="edge"><title>Node1&#45;&gt;Node4</title>
<path fill="none" stroke="midnightblue" d="M231,-168.498C231,-160.065 231,-150.235 231,-141.874"/>
<polygon fill="midnightblue" stroke="midnightblue" points="234.5,-141.652 231,-131.652 227.5,-141.653 234.5,-141.652"/>
</g>
<!-- Node12 -->
<g id="node12" class="node"><title>Node12</title>
<polygon fill="none" stroke="#bfbfbf" points="295,-112.5 295,-131.5 365,-131.5 365,-112.5 295,-112.5"/>
<text text-anchor="middle" x="330" y="-119.5" font-family="Helvetica,sans-Serif" font-size="10.00">glm/glm.hpp</text>
</g>
<!-- Node1&#45;&gt;Node12 -->
<g id="edge13" class="edge"><title>Node1&#45;&gt;Node12</title>
<path fill="none" stroke="midnightblue" d="M260.703,-168.498C276.028,-158.436 294.383,-146.385 308.352,-137.214"/>
<polygon fill="midnightblue" stroke="midnightblue" points="310.383,-140.067 316.822,-131.652 306.541,-134.215 310.383,-140.067"/>
</g>
<!-- Node13 -->
<g id="node13" class="node"><title>Node13</title>
<polygon fill="none" stroke="#bfbfbf" points="383,-112.5 383,-131.5 527,-131.5 527,-112.5 383,-112.5"/>
<text text-anchor="middle" x="455" y="-119.5" font-family="Helvetica,sans-Serif" font-size="10.00">glm/gtc/matrix_transform.hpp</text>
</g>
<!-- Node1&#45;&gt;Node13 -->
<g id="edge14" class="edge"><title>Node1&#45;&gt;Node13</title>
<path fill="none" stroke="midnightblue" d="M293.694,-169.807C332.753,-158.473 381.808,-144.239 415.505,-134.461"/>
<polygon fill="midnightblue" stroke="midnightblue" points="416.813,-137.725 425.442,-131.577 414.863,-131.003 416.813,-137.725"/>
</g>
<!-- Node4&#45;&gt;Node2 -->
<g id="edge9" class="edge"><title>Node4&#45;&gt;Node2</title>
<path fill="none" stroke="midnightblue" d="M207.549,-112.444C182.867,-103.438 143.815,-89.1891 116.023,-79.049"/>
<polygon fill="midnightblue" stroke="midnightblue" points="116.935,-75.6561 106.341,-75.5164 114.536,-82.2321 116.935,-75.6561"/>
</g>
<!-- Node5 -->
<g id="node5" class="node"><title>Node5</title>
<g id="a_node5"><a xlink:href="particle__sim_2CLHandler_8h.xhtml" target="_top" xlink:title="CLHandler.h">
<polygon fill="none" stroke="black" points="125.5,-56.5 125.5,-75.5 196.5,-75.5 196.5,-56.5 125.5,-56.5"/>
<text text-anchor="middle" x="161" y="-63.5" font-family="Helvetica,sans-Serif" font-size="10.00">CLHandler.h</text>
</a>
</g>
</g>
<!-- Node4&#45;&gt;Node5 -->
<g id="edge4" class="edge"><title>Node4&#45;&gt;Node5</title>
<path fill="none" stroke="midnightblue" d="M219.753,-112.324C209.203,-104.185 193.199,-91.8395 180.558,-82.0874"/>
<polygon fill="midnightblue" stroke="midnightblue" points="182.507,-79.1707 172.451,-75.8339 178.231,-84.7132 182.507,-79.1707"/>
</g>
<!-- Node8 -->
<g id="node8" class="node"><title>Node8</title>
<polygon fill="none" stroke="#bfbfbf" points="214.5,-0.5 214.5,-19.5 273.5,-19.5 273.5,-0.5 214.5,-0.5"/>
<text text-anchor="middle" x="244" y="-7.5" font-family="Helvetica,sans-Serif" font-size="10.00">CL/cl.hpp</text>
</g>
<!-- Node4&#45;&gt;Node8 -->
<g id="edge12" class="edge"><title>Node4&#45;&gt;Node8</title>
<path fill="none" stroke="midnightblue" d="M232.02,-112.368C234.118,-94.617 238.958,-53.6664 241.802,-29.5974"/>
<polygon fill="midnightblue" stroke="midnightblue" points="245.287,-29.9331 242.985,-19.5914 238.335,-29.1115 245.287,-29.9331"/>
</g>
<!-- Node9 -->
<g id="node9" class="node"><title>Node9</title>
<polygon fill="none" stroke="#bfbfbf" points="253,-56.5 253,-75.5 297,-75.5 297,-56.5 253,-56.5"/>
<text text-anchor="middle" x="275" y="-63.5" font-family="Helvetica,sans-Serif" font-size="10.00">vector</text>
</g>
<!-- Node4&#45;&gt;Node9 -->
<g id="edge8" class="edge"><title>Node4&#45;&gt;Node9</title>
<path fill="none" stroke="midnightblue" d="M238.266,-112.083C244.545,-104.377 253.788,-93.0333 261.431,-83.6531"/>
<polygon fill="midnightblue" stroke="midnightblue" points="264.266,-85.7143 267.869,-75.7511 258.839,-81.2926 264.266,-85.7143"/>
</g>
<!-- Node10 -->
<g id="node10" class="node"><title>Node10</title>
<polygon fill="none" stroke="#bfbfbf" points="315,-56.5 315,-75.5 377,-75.5 377,-56.5 315,-56.5"/>
<text text-anchor="middle" x="346" y="-63.5" font-family="Helvetica,sans-Serif" font-size="10.00">GL/glext.h</text>
</g>
<!-- Node4&#45;&gt;Node10 -->
<g id="edge10" class="edge"><title>Node4&#45;&gt;Node10</title>
<path fill="none" stroke="midnightblue" d="M249.222,-112.444C267.896,-103.675 297.156,-89.9355 318.617,-79.8579"/>
<polygon fill="midnightblue" stroke="midnightblue" points="320.299,-82.935 327.863,-75.5164 317.324,-76.5988 320.299,-82.935"/>
</g>
<!-- Node11 -->
<g id="node11" class="node"><title>Node11</title>
<polygon fill="none" stroke="#bfbfbf" points="395.5,-56.5 395.5,-75.5 448.5,-75.5 448.5,-56.5 395.5,-56.5"/>
<text text-anchor="middle" x="422" y="-63.5" font-family="Helvetica,sans-Serif" font-size="10.00">GL/glx.h</text>
</g>
<!-- Node4&#45;&gt;Node11 -->
<g id="edge11" class="edge"><title>Node4&#45;&gt;Node11</title>
<path fill="none" stroke="midnightblue" d="M261.265,-112.444C295.013,-102.902 349.581,-87.4744 385.625,-77.2841"/>
<polygon fill="midnightblue" stroke="midnightblue" points="386.597,-80.6466 395.267,-74.558 384.692,-73.9107 386.597,-80.6466"/>
</g>
<!-- Node6 -->
<g id="node6" class="node"><title>Node6</title>
<polygon fill="none" stroke="#bfbfbf" points="0,-0.5 0,-19.5 72,-19.5 72,-0.5 0,-0.5"/>
<text text-anchor="middle" x="36" y="-7.5" font-family="Helvetica,sans-Serif" font-size="10.00">SDL2/SDL.h</text>
</g>
<!-- Node5&#45;&gt;Node6 -->
<g id="edge5" class="edge"><title>Node5&#45;&gt;Node6</title>
<path fill="none" stroke="midnightblue" d="M141.193,-56.4435C120.713,-47.5961 88.5173,-33.6875 65.1353,-23.5865"/>
<polygon fill="midnightblue" stroke="midnightblue" points="66.282,-20.2692 55.714,-19.5164 63.5059,-26.6953 66.282,-20.2692"/>
</g>
<!-- Node7 -->
<g id="node7" class="node"><title>Node7</title>
<polygon fill="none" stroke="#bfbfbf" points="90,-0.5 90,-19.5 196,-19.5 196,-0.5 90,-0.5"/>
<text text-anchor="middle" x="143" y="-7.5" font-family="Helvetica,sans-Serif" font-size="10.00">SDL2/SDL_opengl.h</text>
</g>
<!-- Node5&#45;&gt;Node7 -->
<g id="edge6" class="edge"><title>Node5&#45;&gt;Node7</title>
<path fill="none" stroke="midnightblue" d="M158.028,-56.083C155.616,-48.8486 152.136,-38.4087 149.132,-29.3968"/>
<polygon fill="midnightblue" stroke="midnightblue" points="152.4,-28.1311 145.917,-19.7511 145.759,-30.3447 152.4,-28.1311"/>
</g>
<!-- Node5&#45;&gt;Node8 -->
<g id="edge7" class="edge"><title>Node5&#45;&gt;Node8</title>
<path fill="none" stroke="midnightblue" d="M174.335,-56.324C187.162,-47.979 206.785,-35.2122 221.94,-25.3524"/>
<polygon fill="midnightblue" stroke="midnightblue" points="224.224,-28.0417 230.698,-19.6545 220.407,-22.1742 224.224,-28.0417"/>
</g>
</g>
</svg>
