<?xml version="1.0" encoding="UTF-8" standalone="no"?>
<!DOCTYPE svg PUBLIC "-//W3C//DTD SVG 1.1//EN"
 "http://www.w3.org/Graphics/SVG/1.1/DTD/svg11.dtd">
<!-- Generated by graphviz version 2.36.0 (20140111.2315)
 -->
<!-- Title: /daten/Projekte/eclipse_workspace/particle_sim/utils.h Pages: 1 -->
<svg width="704pt" height="206pt"
 viewBox="0.00 0.00 704.00 206.00" xmlns="http://www.w3.org/2000/svg" xmlns:xlink="http://www.w3.org/1999/xlink">
<g id="graph0" class="graph" transform="scale(1 1) rotate(0) translate(4 202)">
<title>/daten/Projekte/eclipse_workspace/particle_sim/utils.h</title>
<!-- Node1 -->
<g id="node1" class="node"><title>Node1</title>
<polygon fill="#bfbfbf" stroke="black" points="285.5,-156.5 285.5,-197.5 410.5,-197.5 410.5,-156.5 285.5,-156.5"/>
<text text-anchor="start" x="293.5" y="-185.5" font-family="Helvetica,sans-Serif" font-size="10.00">/daten/Projekte/eclipse</text>
<text text-anchor="start" x="293.5" y="-174.5" font-family="Helvetica,sans-Serif" font-size="10.00">_workspace/particle_sim</text>
<text text-anchor="middle" x="348" y="-163.5" font-family="Helvetica,sans-Serif" font-size="10.00">/utils.h</text>
</g>
<!-- Node2 -->
<g id="node2" class="node"><title>Node2</title>
<g id="a_node2"><a xlink:href="particle__sim_2CLHandler_8cpp.xhtml" target="_top" xlink:title="/daten/Projekte/eclipse\l_workspace/particle_sim\l/CLHandler.cpp">
<polygon fill="none" stroke="black" points="-0.5,-78.5 -0.5,-119.5 124.5,-119.5 124.5,-78.5 -0.5,-78.5"/>
<text text-anchor="start" x="7.5" y="-107.5" font-family="Helvetica,sans-Serif" font-size="10.00">/daten/Projekte/eclipse</text>
<text text-anchor="start" x="7.5" y="-96.5" font-family="Helvetica,sans-Serif" font-size="10.00">_workspace/particle_sim</text>
<text text-anchor="middle" x="62" y="-85.5" font-family="Helvetica,sans-Serif" font-size="10.00">/CLHandler.cpp</text>
</a>
</g>
</g>
<!-- Node1&#45;&gt;Node2 -->
<g id="edge1" class="edge"><title>Node1&#45;&gt;Node2</title>
<path fill="none" stroke="midnightblue" d="M275.453,-157.304C233.985,-146.545 181.028,-132.684 134,-120 130.994,-119.189 127.919,-118.355 124.813,-117.508"/>
<polygon fill="midnightblue" stroke="midnightblue" points="274.637,-160.708 285.196,-159.83 276.394,-153.932 274.637,-160.708"/>
</g>
<!-- Node3 -->
<g id="node3" class="node"><title>Node3</title>
<g id="a_node3"><a xlink:href="particle__sim_2Main_8h.xhtml" target="_top" xlink:title="/daten/Projekte/eclipse\l_workspace/particle_sim\l/Main.h">
<polygon fill="none" stroke="black" points="142.5,-78.5 142.5,-119.5 267.5,-119.5 267.5,-78.5 142.5,-78.5"/>
<text text-anchor="start" x="150.5" y="-107.5" font-family="Helvetica,sans-Serif" font-size="10.00">/daten/Projekte/eclipse</text>
<text text-anchor="start" x="150.5" y="-96.5" font-family="Helvetica,sans-Serif" font-size="10.00">_workspace/particle_sim</text>
<text text-anchor="middle" x="205" y="-85.5" font-family="Helvetica,sans-Serif" font-size="10.00">/Main.h</text>
</a>
</g>
</g>
<!-- Node1&#45;&gt;Node3 -->
<g id="edge2" class="edge"><title>Node1&#45;&gt;Node3</title>
<path fill="none" stroke="midnightblue" d="M302.14,-151.627C282.599,-141.242 260.114,-129.292 241.701,-119.506"/>
<polygon fill="midnightblue" stroke="midnightblue" points="300.701,-154.826 311.174,-156.428 303.986,-148.644 300.701,-154.826"/>
</g>
<!-- Node5 -->
<g id="node5" class="node"><title>Node5</title>
<g id="a_node5"><a xlink:href="particle__sim_2ParticleSystem_8cpp.xhtml" target="_top" xlink:title="/daten/Projekte/eclipse\l_workspace/particle_sim\l/ParticleSystem.cpp">
<polygon fill="none" stroke="black" points="285.5,-78.5 285.5,-119.5 410.5,-119.5 410.5,-78.5 285.5,-78.5"/>
<text text-anchor="start" x="293.5" y="-107.5" font-family="Helvetica,sans-Serif" font-size="10.00">/daten/Projekte/eclipse</text>
<text text-anchor="start" x="293.5" y="-96.5" font-family="Helvetica,sans-Serif" font-size="10.00">_workspace/particle_sim</text>
<text text-anchor="middle" x="348" y="-85.5" font-family="Helvetica,sans-Serif" font-size="10.00">/ParticleSystem.cpp</text>
</a>
</g>
</g>
<!-- Node1&#45;&gt;Node5 -->
<g id="edge4" class="edge"><title>Node1&#45;&gt;Node5</title>
<path fill="none" stroke="midnightblue" d="M348,-146.297C348,-137.301 348,-127.653 348,-119.506"/>
<polygon fill="midnightblue" stroke="midnightblue" points="344.5,-146.428 348,-156.428 351.5,-146.428 344.5,-146.428"/>
</g>
<!-- Node6 -->
<g id="node6" class="node"><title>Node6</title>
<g id="a_node6"><a xlink:href="particle__sim_2Renderer_8cpp.xhtml" target="_top" xlink:title="/daten/Projekte/eclipse\l_workspace/particle_sim\l/Renderer.cpp">
<polygon fill="none" stroke="black" points="428.5,-78.5 428.5,-119.5 553.5,-119.5 553.5,-78.5 428.5,-78.5"/>
<text text-anchor="start" x="436.5" y="-107.5" font-family="Helvetica,sans-Serif" font-size="10.00">/daten/Projekte/eclipse</text>
<text text-anchor="start" x="436.5" y="-96.5" font-family="Helvetica,sans-Serif" font-size="10.00">_workspace/particle_sim</text>
<text text-anchor="middle" x="491" y="-85.5" font-family="Helvetica,sans-Serif" font-size="10.00">/Renderer.cpp</text>
</a>
</g>
</g>
<!-- Node1&#45;&gt;Node6 -->
<g id="edge5" class="edge"><title>Node1&#45;&gt;Node6</title>
<path fill="none" stroke="midnightblue" d="M393.86,-151.627C413.401,-141.242 435.886,-129.292 454.299,-119.506"/>
<polygon fill="midnightblue" stroke="midnightblue" points="392.014,-148.644 384.826,-156.428 395.299,-154.826 392.014,-148.644"/>
</g>
<!-- Node7 -->
<g id="node7" class="node"><title>Node7</title>
<g id="a_node7"><a xlink:href="particle__sim_2utils_8cpp.xhtml" target="_top" xlink:title="/daten/Projekte/eclipse\l_workspace/particle_sim\l/utils.cpp">
<polygon fill="none" stroke="black" points="571.5,-78.5 571.5,-119.5 696.5,-119.5 696.5,-78.5 571.5,-78.5"/>
<text text-anchor="start" x="579.5" y="-107.5" font-family="Helvetica,sans-Serif" font-size="10.00">/daten/Projekte/eclipse</text>
<text text-anchor="start" x="579.5" y="-96.5" font-family="Helvetica,sans-Serif" font-size="10.00">_workspace/particle_sim</text>
<text text-anchor="middle" x="634" y="-85.5" font-family="Helvetica,sans-Serif" font-size="10.00">/utils.cpp</text>
</a>
</g>
</g>
<!-- Node1&#45;&gt;Node7 -->
<g id="edge6" class="edge"><title>Node1&#45;&gt;Node7</title>
<path fill="none" stroke="midnightblue" d="M420.547,-157.304C462.015,-146.545 514.972,-132.684 562,-120 565.006,-119.189 568.081,-118.355 571.187,-117.508"/>
<polygon fill="midnightblue" stroke="midnightblue" points="419.606,-153.932 410.804,-159.83 421.363,-160.708 419.606,-153.932"/>
</g>
<!-- Node4 -->
<g id="node4" class="node"><title>Node4</title>
<g id="a_node4"><a xlink:href="particle__sim_2Main_8cpp.xhtml" target="_top" xlink:title="/daten/Projekte/eclipse\l_workspace/particle_sim\l/Main.cpp">
<polygon fill="none" stroke="black" points="142.5,-0.5 142.5,-41.5 267.5,-41.5 267.5,-0.5 142.5,-0.5"/>
<text text-anchor="start" x="150.5" y="-29.5" font-family="Helvetica,sans-Serif" font-size="10.00">/daten/Projekte/eclipse</text>
<text text-anchor="start" x="150.5" y="-18.5" font-family="Helvetica,sans-Serif" font-size="10.00">_workspace/particle_sim</text>
<text text-anchor="middle" x="205" y="-7.5" font-family="Helvetica,sans-Serif" font-size="10.00">/Main.cpp</text>
</a>
</g>
</g>
<!-- Node3&#45;&gt;Node4 -->
<g id="edge3" class="edge"><title>Node3&#45;&gt;Node4</title>
<path fill="none" stroke="midnightblue" d="M205,-68.2965C205,-59.3009 205,-49.6532 205,-41.5056"/>
<polygon fill="midnightblue" stroke="midnightblue" points="201.5,-68.4281 205,-78.4281 208.5,-68.4281 201.5,-68.4281"/>
</g>
</g>
</svg>
