<?xml version="1.0" encoding="UTF-8" standalone="no"?>
<!DOCTYPE svg PUBLIC "-//W3C//DTD SVG 1.1//EN"
 "http://www.w3.org/Graphics/SVG/1.1/DTD/svg11.dtd">
<!-- Generated by graphviz version 2.36.0 (20140111.2315)
 -->
<!-- Title: /daten/Projekte/eclipse_workspace/particle_sim/utils.cpp Pages: 1 -->
<svg width="355pt" height="162pt"
 viewBox="0.00 0.00 355.00 162.00" xmlns="http://www.w3.org/2000/svg" xmlns:xlink="http://www.w3.org/1999/xlink">
<g id="graph0" class="graph" transform="scale(1 1) rotate(0) translate(4 158)">
<title>/daten/Projekte/eclipse_workspace/particle_sim/utils.cpp</title>
<!-- Node1 -->
<g id="node1" class="node"><title>Node1</title>
<polygon fill="#bfbfbf" stroke="black" points="152.5,-112.5 152.5,-153.5 277.5,-153.5 277.5,-112.5 152.5,-112.5"/>
<text text-anchor="start" x="160.5" y="-141.5" font-family="Helvetica,sans-Serif" font-size="10.00">/daten/Projekte/eclipse</text>
<text text-anchor="start" x="160.5" y="-130.5" font-family="Helvetica,sans-Serif" font-size="10.00">_workspace/particle_sim</text>
<text text-anchor="middle" x="215" y="-119.5" font-family="Helvetica,sans-Serif" font-size="10.00">/utils.cpp</text>
</g>
<!-- Node2 -->
<g id="node2" class="node"><title>Node2</title>
<g id="a_node2"><a xlink:href="particle__sim_2utils_8h.xhtml" target="_top" xlink:title="utils.h">
<polygon fill="none" stroke="black" points="92.5,-56.5 92.5,-75.5 135.5,-75.5 135.5,-56.5 92.5,-56.5"/>
<text text-anchor="middle" x="114" y="-63.5" font-family="Helvetica,sans-Serif" font-size="10.00">utils.h</text>
</a>
</g>
</g>
<!-- Node1&#45;&gt;Node2 -->
<g id="edge1" class="edge"><title>Node1&#45;&gt;Node2</title>
<path fill="none" stroke="midnightblue" d="M184.697,-112.498C169.063,-102.436 150.336,-90.3849 136.086,-81.2136"/>
<polygon fill="midnightblue" stroke="midnightblue" points="137.748,-78.1211 127.445,-75.6525 133.96,-84.0075 137.748,-78.1211"/>
</g>
<!-- Node6 -->
<g id="node6" class="node"><title>Node6</title>
<polygon fill="none" stroke="#bfbfbf" points="153.5,-56.5 153.5,-75.5 206.5,-75.5 206.5,-56.5 153.5,-56.5"/>
<text text-anchor="middle" x="180" y="-63.5" font-family="Helvetica,sans-Serif" font-size="10.00">GL/glu.h</text>
</g>
<!-- Node1&#45;&gt;Node6 -->
<g id="edge5" class="edge"><title>Node1&#45;&gt;Node6</title>
<path fill="none" stroke="midnightblue" d="M204.499,-112.498C199.7,-103.586 194.061,-93.1135 189.403,-84.4636"/>
<polygon fill="midnightblue" stroke="midnightblue" points="192.482,-82.7978 184.659,-75.6525 186.318,-86.1166 192.482,-82.7978"/>
</g>
<!-- Node7 -->
<g id="node7" class="node"><title>Node7</title>
<polygon fill="none" stroke="#bfbfbf" points="225,-56.5 225,-75.5 275,-75.5 275,-56.5 225,-56.5"/>
<text text-anchor="middle" x="250" y="-63.5" font-family="Helvetica,sans-Serif" font-size="10.00">fstream</text>
</g>
<!-- Node1&#45;&gt;Node7 -->
<g id="edge6" class="edge"><title>Node1&#45;&gt;Node7</title>
<path fill="none" stroke="midnightblue" d="M225.501,-112.498C230.3,-103.586 235.939,-93.1135 240.597,-84.4636"/>
<polygon fill="midnightblue" stroke="midnightblue" points="243.682,-86.1166 245.341,-75.6525 237.518,-82.7978 243.682,-86.1166"/>
</g>
<!-- Node8 -->
<g id="node8" class="node"><title>Node8</title>
<polygon fill="none" stroke="#bfbfbf" points="293,-56.5 293,-75.5 347,-75.5 347,-56.5 293,-56.5"/>
<text text-anchor="middle" x="320" y="-63.5" font-family="Helvetica,sans-Serif" font-size="10.00">iostream</text>
</g>
<!-- Node1&#45;&gt;Node8 -->
<g id="edge7" class="edge"><title>Node1&#45;&gt;Node8</title>
<path fill="none" stroke="midnightblue" d="M246.503,-112.498C262.912,-102.34 282.596,-90.1551 297.462,-80.9523"/>
<polygon fill="midnightblue" stroke="midnightblue" points="299.362,-83.892 306.023,-75.6525 295.678,-77.9402 299.362,-83.892"/>
</g>
<!-- Node3 -->
<g id="node3" class="node"><title>Node3</title>
<polygon fill="none" stroke="#bfbfbf" points="0,-0.5 0,-19.5 72,-19.5 72,-0.5 0,-0.5"/>
<text text-anchor="middle" x="36" y="-7.5" font-family="Helvetica,sans-Serif" font-size="10.00">SDL2/SDL.h</text>
</g>
<!-- Node2&#45;&gt;Node3 -->
<g id="edge2" class="edge"><title>Node2&#45;&gt;Node3</title>
<path fill="none" stroke="midnightblue" d="M101.468,-56.324C89.4141,-47.979 70.9732,-35.2122 56.7313,-25.3524"/>
<polygon fill="midnightblue" stroke="midnightblue" points="58.7151,-22.469 48.5009,-19.6545 54.7306,-28.2243 58.7151,-22.469"/>
</g>
<!-- Node4 -->
<g id="node4" class="node"><title>Node4</title>
<polygon fill="none" stroke="#bfbfbf" points="90,-0.5 90,-19.5 138,-19.5 138,-0.5 90,-0.5"/>
<text text-anchor="middle" x="114" y="-7.5" font-family="Helvetica,sans-Serif" font-size="10.00">GL/gl.h</text>
</g>
<!-- Node2&#45;&gt;Node4 -->
<g id="edge3" class="edge"><title>Node2&#45;&gt;Node4</title>
<path fill="none" stroke="midnightblue" d="M114,-56.083C114,-49.0059 114,-38.8611 114,-29.9865"/>
<polygon fill="midnightblue" stroke="midnightblue" points="117.5,-29.751 114,-19.7511 110.5,-29.7511 117.5,-29.751"/>
</g>
<!-- Node5 -->
<g id="node5" class="node"><title>Node5</title>
<polygon fill="none" stroke="#bfbfbf" points="156.5,-0.5 156.5,-19.5 197.5,-19.5 197.5,-0.5 156.5,-0.5"/>
<text text-anchor="middle" x="177" y="-7.5" font-family="Helvetica,sans-Serif" font-size="10.00">string</text>
</g>
<!-- Node2&#45;&gt;Node5 -->
<g id="edge4" class="edge"><title>Node2&#45;&gt;Node5</title>
<path fill="none" stroke="midnightblue" d="M124.122,-56.324C133.526,-48.2631 147.744,-36.0765 159.069,-26.3695"/>
<polygon fill="midnightblue" stroke="midnightblue" points="161.379,-28.9993 166.694,-19.8339 156.823,-23.6844 161.379,-28.9993"/>
</g>
</g>
</svg>
