<?xml version="1.0" encoding="UTF-8" standalone="no"?>
<!DOCTYPE svg PUBLIC "-//W3C//DTD SVG 1.1//EN"
 "http://www.w3.org/Graphics/SVG/1.1/DTD/svg11.dtd">
<!-- Generated by graphviz version 2.36.0 (20140111.2315)
 -->
<!-- Title: /daten/Projekte/eclipse_workspace/particle_sim/ParticleSystem.h Pages: 1 -->
<svg width="531pt" height="162pt"
 viewBox="0.00 0.00 531.00 162.00" xmlns="http://www.w3.org/2000/svg" xmlns:xlink="http://www.w3.org/1999/xlink">
<g id="graph0" class="graph" transform="scale(1 1) rotate(0) translate(4 158)">
<title>/daten/Projekte/eclipse_workspace/particle_sim/ParticleSystem.h</title>
<!-- Node1 -->
<g id="node1" class="node"><title>Node1</title>
<polygon fill="#bfbfbf" stroke="black" points="253.5,-112.5 253.5,-153.5 378.5,-153.5 378.5,-112.5 253.5,-112.5"/>
<text text-anchor="start" x="261.5" y="-141.5" font-family="Helvetica,sans-Serif" font-size="10.00">/daten/Projekte/eclipse</text>
<text text-anchor="start" x="261.5" y="-130.5" font-family="Helvetica,sans-Serif" font-size="10.00">_workspace/particle_sim</text>
<text text-anchor="middle" x="316" y="-119.5" font-family="Helvetica,sans-Serif" font-size="10.00">/ParticleSystem.h</text>
</g>
<!-- Node2 -->
<g id="node2" class="node"><title>Node2</title>
<g id="a_node2"><a xlink:href="particle__sim_2CLHandler_8h.xhtml" target="_top" xlink:title="CLHandler.h">
<polygon fill="none" stroke="black" points="116.5,-56.5 116.5,-75.5 187.5,-75.5 187.5,-56.5 116.5,-56.5"/>
<text text-anchor="middle" x="152" y="-63.5" font-family="Helvetica,sans-Serif" font-size="10.00">CLHandler.h</text>
</a>
</g>
</g>
<!-- Node1&#45;&gt;Node2 -->
<g id="edge1" class="edge"><title>Node1&#45;&gt;Node2</title>
<path fill="none" stroke="midnightblue" d="M266.795,-112.498C239.716,-101.766 206.925,-88.7691 183.334,-79.4192"/>
<polygon fill="midnightblue" stroke="midnightblue" points="184.417,-76.0834 173.831,-75.6525 181.838,-82.5909 184.417,-76.0834"/>
</g>
<!-- Node5 -->
<g id="node5" class="node"><title>Node5</title>
<polygon fill="none" stroke="#bfbfbf" points="214.5,-0.5 214.5,-19.5 273.5,-19.5 273.5,-0.5 214.5,-0.5"/>
<text text-anchor="middle" x="244" y="-7.5" font-family="Helvetica,sans-Serif" font-size="10.00">CL/cl.hpp</text>
</g>
<!-- Node1&#45;&gt;Node5 -->
<g id="edge9" class="edge"><title>Node1&#45;&gt;Node5</title>
<path fill="none" stroke="midnightblue" d="M285.958,-112.498C273.75,-102.98 260.726,-90.4547 253,-76 245.364,-61.7141 243.434,-43.2456 243.227,-29.6478"/>
<polygon fill="midnightblue" stroke="midnightblue" points="246.728,-29.619 243.371,-19.57 239.729,-29.5189 246.728,-29.619"/>
</g>
<!-- Node6 -->
<g id="node6" class="node"><title>Node6</title>
<polygon fill="none" stroke="#bfbfbf" points="262,-56.5 262,-75.5 306,-75.5 306,-56.5 262,-56.5"/>
<text text-anchor="middle" x="284" y="-63.5" font-family="Helvetica,sans-Serif" font-size="10.00">vector</text>
</g>
<!-- Node1&#45;&gt;Node6 -->
<g id="edge5" class="edge"><title>Node1&#45;&gt;Node6</title>
<path fill="none" stroke="midnightblue" d="M306.399,-112.498C302.059,-103.682 296.967,-93.3385 292.735,-84.7432"/>
<polygon fill="midnightblue" stroke="midnightblue" points="295.817,-83.0783 288.26,-75.6525 289.536,-86.1701 295.817,-83.0783"/>
</g>
<!-- Node7 -->
<g id="node7" class="node"><title>Node7</title>
<polygon fill="none" stroke="#bfbfbf" points="324,-56.5 324,-75.5 372,-75.5 372,-56.5 324,-56.5"/>
<text text-anchor="middle" x="348" y="-63.5" font-family="Helvetica,sans-Serif" font-size="10.00">GL/gl.h</text>
</g>
<!-- Node1&#45;&gt;Node7 -->
<g id="edge6" class="edge"><title>Node1&#45;&gt;Node7</title>
<path fill="none" stroke="midnightblue" d="M325.601,-112.498C329.941,-103.682 335.033,-93.3385 339.265,-84.7432"/>
<polygon fill="midnightblue" stroke="midnightblue" points="342.464,-86.1701 343.74,-75.6525 336.183,-83.0783 342.464,-86.1701"/>
</g>
<!-- Node8 -->
<g id="node8" class="node"><title>Node8</title>
<polygon fill="none" stroke="#bfbfbf" points="390,-56.5 390,-75.5 452,-75.5 452,-56.5 390,-56.5"/>
<text text-anchor="middle" x="421" y="-63.5" font-family="Helvetica,sans-Serif" font-size="10.00">GL/glext.h</text>
</g>
<!-- Node1&#45;&gt;Node8 -->
<g id="edge7" class="edge"><title>Node1&#45;&gt;Node8</title>
<path fill="none" stroke="midnightblue" d="M347.503,-112.498C363.912,-102.34 383.596,-90.1551 398.462,-80.9523"/>
<polygon fill="midnightblue" stroke="midnightblue" points="400.362,-83.892 407.023,-75.6525 396.678,-77.9402 400.362,-83.892"/>
</g>
<!-- Node9 -->
<g id="node9" class="node"><title>Node9</title>
<polygon fill="none" stroke="#bfbfbf" points="470.5,-56.5 470.5,-75.5 523.5,-75.5 523.5,-56.5 470.5,-56.5"/>
<text text-anchor="middle" x="497" y="-63.5" font-family="Helvetica,sans-Serif" font-size="10.00">GL/glx.h</text>
</g>
<!-- Node1&#45;&gt;Node9 -->
<g id="edge8" class="edge"><title>Node1&#45;&gt;Node9</title>
<path fill="none" stroke="midnightblue" d="M370.306,-112.498C400.592,-101.622 437.352,-88.4206 463.458,-79.0455"/>
<polygon fill="midnightblue" stroke="midnightblue" points="464.678,-82.3264 472.906,-75.6525 462.312,-75.7384 464.678,-82.3264"/>
</g>
<!-- Node3 -->
<g id="node3" class="node"><title>Node3</title>
<polygon fill="none" stroke="#bfbfbf" points="0,-0.5 0,-19.5 72,-19.5 72,-0.5 0,-0.5"/>
<text text-anchor="middle" x="36" y="-7.5" font-family="Helvetica,sans-Serif" font-size="10.00">SDL2/SDL.h</text>
</g>
<!-- Node2&#45;&gt;Node3 -->
<g id="edge2" class="edge"><title>Node2&#45;&gt;Node3</title>
<path fill="none" stroke="midnightblue" d="M133.619,-56.4435C114.784,-47.6751 85.2688,-33.9355 63.6207,-23.8579"/>
<polygon fill="midnightblue" stroke="midnightblue" points="64.8375,-20.5637 54.2946,-19.5164 61.8833,-26.9098 64.8375,-20.5637"/>
</g>
<!-- Node4 -->
<g id="node4" class="node"><title>Node4</title>
<polygon fill="none" stroke="#bfbfbf" points="90,-0.5 90,-19.5 196,-19.5 196,-0.5 90,-0.5"/>
<text text-anchor="middle" x="143" y="-7.5" font-family="Helvetica,sans-Serif" font-size="10.00">SDL2/SDL_opengl.h</text>
</g>
<!-- Node2&#45;&gt;Node4 -->
<g id="edge3" class="edge"><title>Node2&#45;&gt;Node4</title>
<path fill="none" stroke="midnightblue" d="M150.514,-56.083C149.321,-48.9272 147.606,-38.6353 146.115,-29.6911"/>
<polygon fill="midnightblue" stroke="midnightblue" points="149.555,-29.0396 144.459,-19.7511 142.65,-30.1904 149.555,-29.0396"/>
</g>
<!-- Node2&#45;&gt;Node5 -->
<g id="edge4" class="edge"><title>Node2&#45;&gt;Node5</title>
<path fill="none" stroke="midnightblue" d="M166.781,-56.324C181.267,-47.8215 203.573,-34.7288 220.493,-24.7975"/>
<polygon fill="midnightblue" stroke="midnightblue" points="222.403,-27.735 229.255,-19.6545 218.859,-21.6981 222.403,-27.735"/>
</g>
</g>
</svg>
