<?xml version="1.0" encoding="UTF-8" standalone="no"?>
<!DOCTYPE svg PUBLIC "-//W3C//DTD SVG 1.1//EN"
 "http://www.w3.org/Graphics/SVG/1.1/DTD/svg11.dtd">
<!-- Generated by graphviz version 2.26.3 (20100126.1600)
 -->
<!-- Title: orient3dadapt Pages: 1 -->
<svg width="252pt" height="122pt"
 viewBox="0.00 0.00 252.00 122.00" xmlns="http://www.w3.org/2000/svg" xmlns:xlink="http://www.w3.org/1999/xlink">
<g id="graph1" class="graph" transform="scale(1 1) rotate(0) translate(4 118)">
<title>orient3dadapt</title>
<!-- Node1 -->
<g id="node1" class="node"><title>Node1</title>
<polygon fill="#bfbfbf" stroke="black" points="0.5,-46.5 0.5,-67.5 75.5,-67.5 75.5,-46.5 0.5,-46.5"/>
<text text-anchor="middle" x="38" y="-54.5" font-family="Helvetica,sans-Serif" font-size="10.00">orient3dadapt</text>
</g>
<!-- Node2 -->
<g id="node3" class="node"><title>Node2</title>
<a xlink:href="predicates_8cxx.xhtml#abdcdaa8948d9a2937154d9d67f67da8d" target="_top" xlink:title="scale_expansion_zeroelim">
<polygon fill="none" stroke="black" points="112.5,-92.5 112.5,-113.5 243.5,-113.5 243.5,-92.5 112.5,-92.5"/>
<text text-anchor="middle" x="178" y="-100.5" font-family="Helvetica,sans-Serif" font-size="10.00">scale_expansion_zeroelim</text>
</a>
</g>
<!-- Node1&#45;&gt;Node2 -->
<g id="edge2" class="edge"><title>Node1&#45;&gt;Node2</title>
<path fill="none" stroke="midnightblue" d="M67.0717,-67.544C80.6713,-72.3916 97.1159,-78.1326 112,-83 118.575,-85.1503 125.545,-87.3488 132.396,-89.4642"/>
<polygon fill="midnightblue" stroke="midnightblue" points="131.701,-92.9118 142.288,-92.4887 133.748,-86.2177 131.701,-92.9118"/>
</g>
<!-- Node3 -->
<g id="node5" class="node"><title>Node3</title>
<a xlink:href="predicates_8cxx.xhtml#a37646a7e0014e10c612e946bc95aeeea" target="_top" xlink:title="fast_expansion_sum\l_zeroelim">
<polygon fill="none" stroke="black" points="124.5,-40 124.5,-74 231.5,-74 231.5,-40 124.5,-40"/>
<text text-anchor="start" x="132.5" y="-61" font-family="Helvetica,sans-Serif" font-size="10.00">fast_expansion_sum</text>
<text text-anchor="middle" x="178" y="-48" font-family="Helvetica,sans-Serif" font-size="10.00">_zeroelim</text>
</a>
</g>
<!-- Node1&#45;&gt;Node3 -->
<g id="edge4" class="edge"><title>Node1&#45;&gt;Node3</title>
<path fill="none" stroke="midnightblue" d="M75.5174,-57C87.4579,-57 101.019,-57 114.277,-57"/>
<polygon fill="midnightblue" stroke="midnightblue" points="114.324,-60.5001 124.324,-57 114.324,-53.5001 114.324,-60.5001"/>
</g>
<!-- Node4 -->
<g id="node7" class="node"><title>Node4</title>
<a xlink:href="predicates_8cxx.xhtml#a3487d9f90ea72da543d5d38b3dab1fbc" target="_top" xlink:title="estimate">
<polygon fill="none" stroke="black" points="151,-0.5 151,-21.5 205,-21.5 205,-0.5 151,-0.5"/>
<text text-anchor="middle" x="178" y="-8.5" font-family="Helvetica,sans-Serif" font-size="10.00">estimate</text>
</a>
</g>
<!-- Node1&#45;&gt;Node4 -->
<g id="edge6" class="edge"><title>Node1&#45;&gt;Node4</title>
<path fill="none" stroke="midnightblue" d="M67.0717,-46.456C80.6713,-41.6084 97.1159,-35.8674 112,-31 121.459,-27.9066 131.735,-24.7134 141.298,-21.8113"/>
<polygon fill="midnightblue" stroke="midnightblue" points="142.376,-25.1422 150.943,-18.9089 140.359,-18.4391 142.376,-25.1422"/>
</g>
</g>
</svg>
