<?xml version="1.0" encoding="UTF-8" standalone="no"?>
<!DOCTYPE svg PUBLIC "-//W3C//DTD SVG 1.1//EN"
 "http://www.w3.org/Graphics/SVG/1.1/DTD/svg11.dtd">
<!-- Generated by graphviz version 2.26.3 (20100126.1600)
 -->
<!-- Title: incircleexact Pages: 1 -->
<svg width="248pt" height="82pt"
 viewBox="0.00 0.00 248.00 82.00" xmlns="http://www.w3.org/2000/svg" xmlns:xlink="http://www.w3.org/1999/xlink">
<g id="graph1" class="graph" transform="scale(1 1) rotate(0) translate(4 78)">
<title>incircleexact</title>
<!-- Node1 -->
<g id="node1" class="node"><title>Node1</title>
<polygon fill="#bfbfbf" stroke="black" points="0.5,-23.5 0.5,-44.5 71.5,-44.5 71.5,-23.5 0.5,-23.5"/>
<text text-anchor="middle" x="36" y="-31.5" font-family="Helvetica,sans-Serif" font-size="10.00">incircleexact</text>
</g>
<!-- Node2 -->
<g id="node3" class="node"><title>Node2</title>
<a xlink:href="predicates_8cxx.xhtml#a37646a7e0014e10c612e946bc95aeeea" target="_top" xlink:title="fast_expansion_sum\l_zeroelim">
<polygon fill="none" stroke="black" points="120.5,-40 120.5,-74 227.5,-74 227.5,-40 120.5,-40"/>
<text text-anchor="start" x="128.5" y="-61" font-family="Helvetica,sans-Serif" font-size="10.00">fast_expansion_sum</text>
<text text-anchor="middle" x="174" y="-48" font-family="Helvetica,sans-Serif" font-size="10.00">_zeroelim</text>
</a>
</g>
<!-- Node1&#45;&gt;Node2 -->
<g id="edge2" class="edge"><title>Node1&#45;&gt;Node2</title>
<path fill="none" stroke="midnightblue" d="M71.5384,-39.9231C83.3752,-41.8959 96.9455,-44.1576 110.254,-46.3756"/>
<polygon fill="midnightblue" stroke="midnightblue" points="109.907,-49.866 120.346,-48.0577 111.058,-42.9612 109.907,-49.866"/>
</g>
<!-- Node3 -->
<g id="node5" class="node"><title>Node3</title>
<a xlink:href="predicates_8cxx.xhtml#abdcdaa8948d9a2937154d9d67f67da8d" target="_top" xlink:title="scale_expansion_zeroelim">
<polygon fill="none" stroke="black" points="108.5,-0.5 108.5,-21.5 239.5,-21.5 239.5,-0.5 108.5,-0.5"/>
<text text-anchor="middle" x="174" y="-8.5" font-family="Helvetica,sans-Serif" font-size="10.00">scale_expansion_zeroelim</text>
</a>
</g>
<!-- Node1&#45;&gt;Node3 -->
<g id="edge4" class="edge"><title>Node1&#45;&gt;Node3</title>
<path fill="none" stroke="midnightblue" d="M71.5384,-28.0769C80.5227,-26.5795 90.5056,-24.9157 100.615,-23.2309"/>
<polygon fill="midnightblue" stroke="midnightblue" points="101.445,-26.6409 110.733,-21.5445 100.294,-19.7362 101.445,-26.6409"/>
</g>
</g>
</svg>
