<?xml version="1.0" encoding="UTF-8" standalone="no"?>
<!DOCTYPE svg PUBLIC "-//W3C//DTD SVG 1.1//EN"
 "http://www.w3.org/Graphics/SVG/1.1/DTD/svg11.dtd">
<!-- Generated by graphviz version 2.26.3 (20100126.1600)
 -->
<!-- Title: orient4dexact Pages: 1 -->
<svg width="252pt" height="82pt"
 viewBox="0.00 0.00 252.00 82.00" xmlns="http://www.w3.org/2000/svg" xmlns:xlink="http://www.w3.org/1999/xlink">
<g id="graph1" class="graph" transform="scale(1 1) rotate(0) translate(4 78)">
<title>orient4dexact</title>
<!-- Node1 -->
<g id="node1" class="node"><title>Node1</title>
<polygon fill="#bfbfbf" stroke="black" points="0.5,-29.5 0.5,-50.5 75.5,-50.5 75.5,-29.5 0.5,-29.5"/>
<text text-anchor="middle" x="38" y="-37.5" font-family="Helvetica,sans-Serif" font-size="10.00">orient4dexact</text>
</g>
<!-- Node2 -->
<g id="node3" class="node"><title>Node2</title>
<a xlink:href="predicates_8cxx.xhtml#abdcdaa8948d9a2937154d9d67f67da8d" target="_top" xlink:title="scale_expansion_zeroelim">
<polygon fill="none" stroke="black" points="112.5,-52.5 112.5,-73.5 243.5,-73.5 243.5,-52.5 112.5,-52.5"/>
<text text-anchor="middle" x="178" y="-60.5" font-family="Helvetica,sans-Serif" font-size="10.00">scale_expansion_zeroelim</text>
</a>
</g>
<!-- Node1&#45;&gt;Node2 -->
<g id="edge2" class="edge"><title>Node1&#45;&gt;Node2</title>
<path fill="none" stroke="midnightblue" d="M75.5174,-46.1636C84.3864,-47.6206 94.1493,-49.2245 104.018,-50.8458"/>
<polygon fill="midnightblue" stroke="midnightblue" points="103.458,-54.3006 113.893,-52.4681 104.593,-47.3932 103.458,-54.3006"/>
</g>
<!-- Node3 -->
<g id="node5" class="node"><title>Node3</title>
<a xlink:href="predicates_8cxx.xhtml#a37646a7e0014e10c612e946bc95aeeea" target="_top" xlink:title="fast_expansion_sum\l_zeroelim">
<polygon fill="none" stroke="black" points="124.5,-0 124.5,-34 231.5,-34 231.5,-0 124.5,-0"/>
<text text-anchor="start" x="132.5" y="-21" font-family="Helvetica,sans-Serif" font-size="10.00">fast_expansion_sum</text>
<text text-anchor="middle" x="178" y="-8" font-family="Helvetica,sans-Serif" font-size="10.00">_zeroelim</text>
</a>
</g>
<!-- Node1&#45;&gt;Node3 -->
<g id="edge4" class="edge"><title>Node1&#45;&gt;Node3</title>
<path fill="none" stroke="midnightblue" d="M75.5174,-33.8364C87.4579,-31.8748 101.019,-29.6469 114.277,-27.4688"/>
<polygon fill="midnightblue" stroke="midnightblue" points="115.024,-30.8931 124.324,-25.8181 113.889,-23.9857 115.024,-30.8931"/>
</g>
</g>
</svg>
