<?xml version="1.0" encoding="UTF-8" standalone="no"?>
<!DOCTYPE svg PUBLIC "-//W3C//DTD SVG 1.1//EN"
 "http://www.w3.org/Graphics/SVG/1.1/DTD/svg11.dtd">
<!-- Generated by graphviz version 2.26.3 (20100126.1600)
 -->
<!-- Title: /daten/Projekte/eclipse_workspace/tetgen1.5.0/predicates.cxx Pages: 1 -->
<svg width="448pt" height="172pt"
 viewBox="0.00 0.00 448.00 172.00" xmlns="http://www.w3.org/2000/svg" xmlns:xlink="http://www.w3.org/1999/xlink">
<g id="graph1" class="graph" transform="scale(1 1) rotate(0) translate(4 168)">
<title>/daten/Projekte/eclipse_workspace/tetgen1.5.0/predicates.cxx</title>
<!-- Node1 -->
<g id="node1" class="node"><title>Node1</title>
<polygon fill="#bfbfbf" stroke="black" points="54.5,-116.5 54.5,-163.5 175.5,-163.5 175.5,-116.5 54.5,-116.5"/>
<text text-anchor="start" x="62.5" y="-150.5" font-family="Helvetica,sans-Serif" font-size="10.00">/daten/Projekte/eclipse</text>
<text text-anchor="start" x="62.5" y="-137.5" font-family="Helvetica,sans-Serif" font-size="10.00">_workspace/tetgen1.5.0</text>
<text text-anchor="middle" x="115" y="-124.5" font-family="Helvetica,sans-Serif" font-size="10.00">/predicates.cxx</text>
</g>
<!-- Node2 -->
<g id="node3" class="node"><title>Node2</title>
<polygon fill="none" stroke="#bfbfbf" points="0,-0.5 0,-21.5 46,-21.5 46,-0.5 0,-0.5"/>
<text text-anchor="middle" x="23" y="-8.5" font-family="Helvetica,sans-Serif" font-size="10.00">stdio.h</text>
</g>
<!-- Node1&#45;&gt;Node2 -->
<g id="edge2" class="edge"><title>Node1&#45;&gt;Node2</title>
<path fill="none" stroke="midnightblue" d="M98.1258,-116.339C80.3572,-91.4248 52.7392,-52.6996 36.4031,-29.7935"/>
<polygon fill="midnightblue" stroke="midnightblue" points="39.1994,-27.6865 30.5434,-21.5772 33.5003,-31.751 39.1994,-27.6865"/>
</g>
<!-- Node3 -->
<g id="node5" class="node"><title>Node3</title>
<polygon fill="none" stroke="#bfbfbf" points="64,-0.5 64,-21.5 112,-21.5 112,-0.5 64,-0.5"/>
<text text-anchor="middle" x="88" y="-8.5" font-family="Helvetica,sans-Serif" font-size="10.00">stdlib.h</text>
</g>
<!-- Node1&#45;&gt;Node3 -->
<g id="edge4" class="edge"><title>Node1&#45;&gt;Node3</title>
<path fill="none" stroke="midnightblue" d="M110.048,-116.339C104.972,-92.0863 97.1561,-54.746 92.3223,-31.6508"/>
<polygon fill="midnightblue" stroke="midnightblue" points="95.6883,-30.648 90.2138,-21.5772 88.8368,-32.0821 95.6883,-30.648"/>
</g>
<!-- Node4 -->
<g id="node7" class="node"><title>Node4</title>
<polygon fill="none" stroke="#bfbfbf" points="129.5,-0.5 129.5,-21.5 176.5,-21.5 176.5,-0.5 129.5,-0.5"/>
<text text-anchor="middle" x="153" y="-8.5" font-family="Helvetica,sans-Serif" font-size="10.00">math.h</text>
</g>
<!-- Node1&#45;&gt;Node4 -->
<g id="edge6" class="edge"><title>Node1&#45;&gt;Node4</title>
<path fill="none" stroke="midnightblue" d="M121.97,-116.339C129.147,-91.976 140.214,-54.4063 147.009,-31.3367"/>
<polygon fill="midnightblue" stroke="midnightblue" points="150.416,-32.1586 149.884,-21.5772 143.701,-30.1806 150.416,-32.1586"/>
</g>
<!-- Node5 -->
<g id="node9" class="node"><title>Node5</title>
<a xlink:href="tetgen_8h.xhtml" target="_top" xlink:title="tetgen.h">
<polygon fill="none" stroke="black" points="185,-58.5 185,-79.5 237,-79.5 237,-58.5 185,-58.5"/>
<text text-anchor="middle" x="211" y="-66.5" font-family="Helvetica,sans-Serif" font-size="10.00">tetgen.h</text>
</a>
</g>
<!-- Node1&#45;&gt;Node5 -->
<g id="edge8" class="edge"><title>Node1&#45;&gt;Node5</title>
<path fill="none" stroke="midnightblue" d="M146.967,-116.358C160.485,-106.36 175.92,-94.9444 188.249,-85.8264"/>
<polygon fill="midnightblue" stroke="midnightblue" points="190.646,-88.4065 196.605,-79.6462 186.484,-82.7785 190.646,-88.4065"/>
</g>
<!-- Node5&#45;&gt;Node2 -->
<g id="edge10" class="edge"><title>Node5&#45;&gt;Node2</title>
<path fill="none" stroke="midnightblue" d="M184.959,-61.4869C155.729,-52.9816 106.68,-38.4942 55.5947,-22.1163"/>
<polygon fill="midnightblue" stroke="midnightblue" points="56.6282,-18.7721 46.0367,-19.0372 54.4817,-25.4349 56.6282,-18.7721"/>
</g>
<!-- Node5&#45;&gt;Node3 -->
<g id="edge12" class="edge"><title>Node5&#45;&gt;Node3</title>
<path fill="none" stroke="midnightblue" d="M188.726,-58.4966C169.428,-49.397 141.287,-36.1273 119.652,-25.9253"/>
<polygon fill="midnightblue" stroke="midnightblue" points="121.062,-22.7206 110.524,-21.6212 118.076,-29.052 121.062,-22.7206"/>
</g>
<!-- Node5&#45;&gt;Node4 -->
<g id="edge16" class="edge"><title>Node5&#45;&gt;Node4</title>
<path fill="none" stroke="midnightblue" d="M200.362,-58.3619C192.104,-50.1043 180.472,-38.4725 170.803,-28.8029"/>
<polygon fill="midnightblue" stroke="midnightblue" points="173.117,-26.1669 163.571,-21.5707 168.167,-31.1166 173.117,-26.1669"/>
</g>
<!-- Node6 -->
<g id="node13" class="node"><title>Node6</title>
<polygon fill="none" stroke="#bfbfbf" points="391.5,-0.5 391.5,-21.5 440.5,-21.5 440.5,-0.5 391.5,-0.5"/>
<text text-anchor="middle" x="416" y="-8.5" font-family="Helvetica,sans-Serif" font-size="10.00">string.h</text>
</g>
<!-- Node5&#45;&gt;Node6 -->
<g id="edge14" class="edge"><title>Node5&#45;&gt;Node6</title>
<path fill="none" stroke="midnightblue" d="M237.061,-62.3556C269.019,-54.1051 325.038,-39.3102 381.4,-22.3923"/>
<polygon fill="midnightblue" stroke="midnightblue" points="382.621,-25.6797 391.181,-19.4357 380.596,-18.9791 382.621,-25.6797"/>
</g>
<!-- Node7 -->
<g id="node16" class="node"><title>Node7</title>
<polygon fill="none" stroke="#bfbfbf" points="194,-0.5 194,-21.5 238,-21.5 238,-0.5 194,-0.5"/>
<text text-anchor="middle" x="216" y="-8.5" font-family="Helvetica,sans-Serif" font-size="10.00">time.h</text>
</g>
<!-- Node5&#45;&gt;Node7 -->
<g id="edge18" class="edge"><title>Node5&#45;&gt;Node7</title>
<path fill="none" stroke="midnightblue" d="M211.917,-58.3619C212.558,-50.9219 213.436,-40.7427 214.213,-31.7276"/>
<polygon fill="midnightblue" stroke="midnightblue" points="217.717,-31.8343 215.089,-21.5707 210.743,-31.2331 217.717,-31.8343"/>
</g>
<!-- Node8 -->
<g id="node18" class="node"><title>Node8</title>
<polygon fill="none" stroke="#bfbfbf" points="256,-0.5 256,-21.5 308,-21.5 308,-0.5 256,-0.5"/>
<text text-anchor="middle" x="282" y="-8.5" font-family="Helvetica,sans-Serif" font-size="10.00">assert.h</text>
</g>
<!-- Node5&#45;&gt;Node8 -->
<g id="edge20" class="edge"><title>Node5&#45;&gt;Node8</title>
<path fill="none" stroke="midnightblue" d="M224.022,-58.3619C234.431,-49.859 249.219,-37.7785 261.255,-27.9466"/>
<polygon fill="midnightblue" stroke="midnightblue" points="263.53,-30.6077 269.06,-21.5707 259.101,-25.1866 263.53,-30.6077"/>
</g>
<!-- Node9 -->
<g id="node20" class="node"><title>Node9</title>
<polygon fill="none" stroke="#bfbfbf" points="325.5,-0.5 325.5,-21.5 374.5,-21.5 374.5,-0.5 325.5,-0.5"/>
<text text-anchor="middle" x="350" y="-8.5" font-family="Helvetica,sans-Serif" font-size="10.00">stdint.h</text>
</g>
<!-- Node5&#45;&gt;Node9 -->
<g id="edge22" class="edge"><title>Node5&#45;&gt;Node9</title>
<path fill="none" stroke="midnightblue" d="M236.172,-58.4966C258.549,-49.1593 291.449,-35.4312 316.131,-25.1323"/>
<polygon fill="midnightblue" stroke="midnightblue" points="317.601,-28.3115 325.482,-21.2305 314.905,-21.8514 317.601,-28.3115"/>
</g>
</g>
</svg>
