<?xml version="1.0" encoding="UTF-8" standalone="no"?>
<!DOCTYPE svg PUBLIC "-//W3C//DTD SVG 1.1//EN"
 "http://www.w3.org/Graphics/SVG/1.1/DTD/svg11.dtd">
<!-- Generated by graphviz version 2.26.3 (20100126.1600)
 -->
<!-- Title: simpleanalyzer&#45;gui/src/GUI/PropertiesBox.cpp Pages: 1 -->
<!--zoomable 464 -->
<svg id="main" version="1.1" xmlns="http://www.w3.org/2000/svg" xmlns:xlink="http://www.w3.org/1999/xlink" xml:space="preserve" onload="init(evt)">
<style type="text/css"><![CDATA[
.edge:hover path { stroke: red; }
.edge:hover polygon { stroke: red; fill: red; }
]]></style>
<script type="text/javascript"><![CDATA[
var edges = document.getElementsByTagName('g');
if (edges && edges.length) {
  for (var i=0;i<edges.length;i++) {
    if (edges[i].id.substr(0,4)=='edge') {
      edges[i].setAttribute('class','edge');
    }
  }
}
]]></script>
        <defs>
                <circle id="rim" cx="0" cy="0" r="7"/>
                <circle id="rim2" cx="0" cy="0" r="3.5"/>
                <g id="zoomPlus">
                        <use xlink:href="#rim" fill="#404040">
                                <set attributeName="fill" to="#808080" begin="zoomplus.mouseover" end="zoomplus.mouseout"/>
                        </use>
                        <path d="M-4,0h8M0,-4v8" fill="none" stroke="white" stroke-width="1.5" pointer-events="none"/>
                </g>
                <g id="zoomMin">
                        <use xlink:href="#rim" fill="#404040">
                                <set attributeName="fill" to="#808080" begin="zoomminus.mouseover" end="zoomminus.mouseout"/>
                        </use>
                        <path d="M-4,0h8" fill="none" stroke="white" stroke-width="1.5" pointer-events="none"/>
                </g>
                <g id="dirArrow">
                        <path fill="none" stroke="white" stroke-width="1.5" d="M0,-3.0v7 M-2.5,-0.5L0,-3.0L2.5,-0.5"/>
                </g>
               <g id="resetDef">
                       <use xlink:href="#rim2" fill="#404040">
                               <set attributeName="fill" to="#808080" begin="reset.mouseover" end="reset.mouseout"/>
                       </use>
               </g>
        </defs>

<script type="text/javascript">
var viewWidth = 781;
var viewHeight = 464;
var sectionId = 'dynsection-0';
</script>
<script xlink:href="svgpan.js"/>
<svg id="graph" class="graph">
<g id="viewport">
<title>simpleanalyzer&#45;gui/src/GUI/PropertiesBox.cpp</title>
<!-- Node1 -->
<g id="node1" class="node"><title>Node1</title>
<polygon fill="#bfbfbf" stroke="black" points="283.5,-421 283.5,-455 420.5,-455 420.5,-421 283.5,-421"/>
<text text-anchor="start" x="291.5" y="-442" font-family="Helvetica,sans-Serif" font-size="10.00">simpleanalyzer&#45;gui</text>
<text text-anchor="middle" x="352" y="-429" font-family="Helvetica,sans-Serif" font-size="10.00">/src/GUI/PropertiesBox.cpp</text>
</g>
<!-- Node2 -->
<g id="node3" class="node"><title>Node2</title>
<a xlink:href="PropertiesBox_8h.xhtml" target="_top" xlink:title="PropertiesBox.h">
<polygon fill="none" stroke="black" points="163,-362.5 163,-383.5 249,-383.5 249,-362.5 163,-362.5"/>
<text text-anchor="middle" x="206" y="-370.5" font-family="Helvetica,sans-Serif" font-size="10.00">PropertiesBox.h</text>
</a>
</g>
<!-- Node1&#45;&gt;Node2 -->
<g id="edge2" class="edge"><title>Node1&#45;&gt;Node2</title>
<path fill="none" stroke="midnightblue" d="M313.64,-420.922C290.531,-410.634 261.393,-397.661 239.262,-387.809"/>
<polygon fill="midnightblue" stroke="midnightblue" points="240.499,-384.528 229.94,-383.658 237.652,-390.923 240.499,-384.528"/>
</g>
<!-- Node7 -->
<g id="node14" class="node"><title>Node7</title>
<a xlink:href="ObjectData_8h.xhtml" target="_top" xlink:title="../processing/ObjectData.h">
<polygon fill="none" stroke="black" points="285,-246.5 285,-267.5 419,-267.5 419,-246.5 285,-246.5"/>
<text text-anchor="middle" x="352" y="-254.5" font-family="Helvetica,sans-Serif" font-size="10.00">../processing/ObjectData.h</text>
</a>
</g>
<!-- Node1&#45;&gt;Node7 -->
<g id="edge56" class="edge"><title>Node1&#45;&gt;Node7</title>
<path fill="none" stroke="midnightblue" d="M352,-420.972C352,-387.779 352,-314.504 352,-278.216"/>
<polygon fill="midnightblue" stroke="midnightblue" points="355.5,-277.832 352,-267.832 348.5,-277.832 355.5,-277.832"/>
</g>
<!-- Node11 -->
<g id="node23" class="node"><title>Node11</title>
<polygon fill="none" stroke="#bfbfbf" points="572,-0.5 572,-21.5 626,-21.5 626,-0.5 572,-0.5"/>
<text text-anchor="middle" x="599" y="-8.5" font-family="Helvetica,sans-Serif" font-size="10.00">iostream</text>
</g>
<!-- Node1&#45;&gt;Node11 -->
<g id="edge52" class="edge"><title>Node1&#45;&gt;Node11</title>
<path fill="none" stroke="midnightblue" d="M420.578,-432.208C539.873,-420.225 773,-387.529 773,-315 773,-315 773,-315 773,-134 773,-67.4111 686.977,-33.6535 635.901,-19.4787"/>
<polygon fill="midnightblue" stroke="midnightblue" points="636.751,-16.0832 626.188,-16.901 634.955,-22.849 636.751,-16.0832"/>
</g>
<!-- Node13 -->
<g id="node27" class="node"><title>Node13</title>
<a xlink:href="utils_8h.xhtml" target="_top" xlink:title="utils.h">
<polygon fill="none" stroke="black" points="446.5,-188.5 446.5,-209.5 489.5,-209.5 489.5,-188.5 446.5,-188.5"/>
<text text-anchor="middle" x="468" y="-196.5" font-family="Helvetica,sans-Serif" font-size="10.00">utils.h</text>
</a>
</g>
<!-- Node1&#45;&gt;Node13 -->
<g id="edge54" class="edge"><title>Node1&#45;&gt;Node13</title>
<path fill="none" stroke="midnightblue" d="M360.342,-420.812C381.303,-377.626 436.086,-264.754 458.367,-218.848"/>
<polygon fill="midnightblue" stroke="midnightblue" points="461.618,-220.166 462.835,-209.641 455.32,-217.109 461.618,-220.166"/>
</g>
<!-- Node17 -->
<g id="node41" class="node"><title>Node17</title>
<a xlink:href="constants_8h.xhtml" target="_top" xlink:title="constants.h">
<polygon fill="none" stroke="black" points="0,-304.5 0,-325.5 68,-325.5 68,-304.5 0,-304.5"/>
<text text-anchor="middle" x="34" y="-312.5" font-family="Helvetica,sans-Serif" font-size="10.00">constants.h</text>
</a>
</g>
<!-- Node1&#45;&gt;Node17 -->
<g id="edge48" class="edge"><title>Node1&#45;&gt;Node17</title>
<path fill="none" stroke="midnightblue" d="M283.21,-423.81C244.453,-414.693 195.618,-401.304 154,-384 119.13,-369.502 81.8542,-346.804 58.2645,-331.436"/>
<polygon fill="midnightblue" stroke="midnightblue" points="59.9058,-328.326 49.6314,-325.739 56.0506,-334.168 59.9058,-328.326"/>
</g>
<!-- Node3 -->
<g id="node5" class="node"><title>Node3</title>
<polygon fill="none" stroke="#bfbfbf" points="88.5,-123.5 88.5,-144.5 141.5,-144.5 141.5,-123.5 88.5,-123.5"/>
<text text-anchor="middle" x="115" y="-131.5" font-family="Helvetica,sans-Serif" font-size="10.00">wx/wx.h</text>
</g>
<!-- Node2&#45;&gt;Node3 -->
<g id="edge4" class="edge"><title>Node2&#45;&gt;Node3</title>
<path fill="none" stroke="midnightblue" d="M191.709,-362.494C180.811,-353.807 166.162,-340.568 157,-326 122.594,-271.291 116.109,-192.435 115.063,-155.111"/>
<polygon fill="midnightblue" stroke="midnightblue" points="118.559,-154.873 114.888,-144.934 111.56,-154.993 118.559,-154.873"/>
</g>
<!-- Node4 -->
<g id="node7" class="node"><title>Node4</title>
<a xlink:href="GUITimeline_8h.xhtml" target="_top" xlink:title="GUITimeline.h">
<polygon fill="none" stroke="black" points="166,-304.5 166,-325.5 246,-325.5 246,-304.5 166,-304.5"/>
<text text-anchor="middle" x="206" y="-312.5" font-family="Helvetica,sans-Serif" font-size="10.00">GUITimeline.h</text>
</a>
</g>
<!-- Node2&#45;&gt;Node4 -->
<g id="edge6" class="edge"><title>Node2&#45;&gt;Node4</title>
<path fill="none" stroke="midnightblue" d="M206,-362.362C206,-354.922 206,-344.743 206,-335.728"/>
<polygon fill="midnightblue" stroke="midnightblue" points="209.5,-335.571 206,-325.571 202.5,-335.571 209.5,-335.571"/>
</g>
<!-- Node4&#45;&gt;Node3 -->
<g id="edge8" class="edge"><title>Node4&#45;&gt;Node3</title>
<path fill="none" stroke="midnightblue" d="M189.852,-304.495C178.012,-295.993 162.419,-282.997 153,-268 130.392,-232.005 120.915,-182.263 117.196,-154.624"/>
<polygon fill="midnightblue" stroke="midnightblue" points="120.652,-154.054 115.967,-144.552 113.704,-154.902 120.652,-154.054"/>
</g>
<!-- Node5 -->
<g id="node10" class="node"><title>Node5</title>
<polygon fill="none" stroke="#bfbfbf" points="161.5,-246.5 161.5,-267.5 202.5,-267.5 202.5,-246.5 161.5,-246.5"/>
<text text-anchor="middle" x="182" y="-254.5" font-family="Helvetica,sans-Serif" font-size="10.00">string</text>
</g>
<!-- Node4&#45;&gt;Node5 -->
<g id="edge10" class="edge"><title>Node4&#45;&gt;Node5</title>
<path fill="none" stroke="midnightblue" d="M201.598,-304.362C198.418,-296.677 194.028,-286.069 190.21,-276.84"/>
<polygon fill="midnightblue" stroke="midnightblue" points="193.432,-275.473 186.374,-267.571 186.964,-278.149 193.432,-275.473"/>
</g>
<!-- Node6 -->
<g id="node12" class="node"><title>Node6</title>
<polygon fill="none" stroke="#bfbfbf" points="189,-123.5 189,-144.5 233,-144.5 233,-123.5 189,-123.5"/>
<text text-anchor="middle" x="211" y="-131.5" font-family="Helvetica,sans-Serif" font-size="10.00">vector</text>
</g>
<!-- Node4&#45;&gt;Node6 -->
<g id="edge12" class="edge"><title>Node4&#45;&gt;Node6</title>
<path fill="none" stroke="midnightblue" d="M207.478,-304.199C208.701,-294.689 210.339,-280.455 211,-268 213.115,-228.134 212.394,-181.502 211.689,-155.089"/>
<polygon fill="midnightblue" stroke="midnightblue" points="215.179,-154.672 211.387,-144.779 208.182,-154.878 215.179,-154.672"/>
</g>
<!-- Node4&#45;&gt;Node7 -->
<g id="edge14" class="edge"><title>Node4&#45;&gt;Node7</title>
<path fill="none" stroke="midnightblue" d="M232.439,-304.497C255.756,-295.234 289.95,-281.65 315.804,-271.379"/>
<polygon fill="midnightblue" stroke="midnightblue" points="317.263,-274.566 325.264,-267.621 314.678,-268.06 317.263,-274.566"/>
</g>
<!-- Node7&#45;&gt;Node6 -->
<g id="edge18" class="edge"><title>Node7&#45;&gt;Node6</title>
<path fill="none" stroke="midnightblue" d="M333.039,-246.437C317.96,-237.62 296.698,-224.236 280,-210 259.404,-192.44 238.96,-168.967 225.737,-152.776"/>
<polygon fill="midnightblue" stroke="midnightblue" points="228.171,-150.218 219.179,-144.615 222.715,-154.602 228.171,-150.218"/>
</g>
<!-- Node8 -->
<g id="node16" class="node"><title>Node8</title>
<polygon fill="none" stroke="#bfbfbf" points="374.5,-117 374.5,-151 463.5,-151 463.5,-117 374.5,-117"/>
<text text-anchor="start" x="382.5" y="-138" font-family="Helvetica,sans-Serif" font-size="10.00">../libraries/tetgen</text>
<text text-anchor="middle" x="419" y="-125" font-family="Helvetica,sans-Serif" font-size="10.00">/tetgen.h</text>
</g>
<!-- Node7&#45;&gt;Node8 -->
<g id="edge16" class="edge"><title>Node7&#45;&gt;Node8</title>
<path fill="none" stroke="midnightblue" d="M357.946,-246.085C368.374,-226.941 390.231,-186.815 404.763,-160.136"/>
<polygon fill="midnightblue" stroke="midnightblue" points="407.857,-161.773 409.567,-151.317 401.71,-158.425 407.857,-161.773"/>
</g>
<!-- Node9 -->
<g id="node19" class="node"><title>Node9</title>
<a xlink:href="Interpolator_8h.xhtml" target="_top" xlink:title="../libraries/interpolate\l/Interpolator.h">
<polygon fill="none" stroke="black" points="250.5,-117 250.5,-151 357.5,-151 357.5,-117 250.5,-117"/>
<text text-anchor="start" x="258.5" y="-138" font-family="Helvetica,sans-Serif" font-size="10.00">../libraries/interpolate</text>
<text text-anchor="middle" x="304" y="-125" font-family="Helvetica,sans-Serif" font-size="10.00">/Interpolator.h</text>
</a>
</g>
<!-- Node7&#45;&gt;Node9 -->
<g id="edge20" class="edge"><title>Node7&#45;&gt;Node9</title>
<path fill="none" stroke="midnightblue" d="M357.008,-246.241C362.765,-232.248 370.406,-207.311 362,-188 356.938,-176.371 348,-166.114 338.635,-157.75"/>
<polygon fill="midnightblue" stroke="midnightblue" points="340.668,-154.889 330.743,-151.181 336.19,-160.269 340.668,-154.889"/>
</g>
<!-- Node12 -->
<g id="node25" class="node"><title>Node12</title>
<polygon fill="none" stroke="#bfbfbf" points="288.5,-188.5 288.5,-209.5 353.5,-209.5 353.5,-188.5 288.5,-188.5"/>
<text text-anchor="middle" x="321" y="-196.5" font-family="Helvetica,sans-Serif" font-size="10.00">wx/string.h</text>
</g>
<!-- Node7&#45;&gt;Node12 -->
<g id="edge26" class="edge"><title>Node7&#45;&gt;Node12</title>
<path fill="none" stroke="midnightblue" d="M346.314,-246.362C342.163,-238.595 336.416,-227.843 331.447,-218.546"/>
<polygon fill="midnightblue" stroke="midnightblue" points="334.45,-216.74 326.65,-209.571 328.277,-220.04 334.45,-216.74"/>
</g>
<!-- Node7&#45;&gt;Node13 -->
<g id="edge28" class="edge"><title>Node7&#45;&gt;Node13</title>
<path fill="none" stroke="midnightblue" d="M373.007,-246.497C391.043,-237.479 417.27,-224.365 437.599,-214.201"/>
<polygon fill="midnightblue" stroke="midnightblue" points="439.379,-217.224 446.758,-209.621 436.248,-210.963 439.379,-217.224"/>
</g>
<!-- Node10 -->
<g id="node21" class="node"><title>Node10</title>
<a xlink:href="GeometryClasses_8h.xhtml" target="_top" xlink:title="GeometryClasses.h">
<polygon fill="none" stroke="black" points="467,-58.5 467,-79.5 571,-79.5 571,-58.5 467,-58.5"/>
<text text-anchor="middle" x="519" y="-66.5" font-family="Helvetica,sans-Serif" font-size="10.00">GeometryClasses.h</text>
</a>
</g>
<!-- Node9&#45;&gt;Node10 -->
<g id="edge22" class="edge"><title>Node9&#45;&gt;Node10</title>
<path fill="none" stroke="midnightblue" d="M357.699,-117.765C393.698,-106.882 440.541,-92.72 474.465,-82.464"/>
<polygon fill="midnightblue" stroke="midnightblue" points="475.552,-85.7921 484.111,-79.5478 473.526,-79.0916 475.552,-85.7921"/>
</g>
<!-- Node10&#45;&gt;Node11 -->
<g id="edge24" class="edge"><title>Node10&#45;&gt;Node11</title>
<path fill="none" stroke="midnightblue" d="M533.673,-58.3619C545.514,-49.7773 562.385,-37.5459 576.016,-27.6636"/>
<polygon fill="midnightblue" stroke="midnightblue" points="578.378,-30.274 584.42,-21.5707 574.269,-24.6067 578.378,-30.274"/>
</g>
<!-- Node13&#45;&gt;Node3 -->
<g id="edge40" class="edge"><title>Node13&#45;&gt;Node3</title>
<path fill="none" stroke="midnightblue" d="M446.17,-196.26C397.88,-190.021 278.474,-173.604 180,-152 170.677,-149.955 160.7,-147.387 151.432,-144.837"/>
<polygon fill="midnightblue" stroke="midnightblue" points="152.292,-141.443 141.718,-142.102 150.395,-148.181 152.292,-141.443"/>
</g>
<!-- Node13&#45;&gt;Node6 -->
<g id="edge32" class="edge"><title>Node13&#45;&gt;Node6</title>
<path fill="none" stroke="midnightblue" d="M446.482,-196.849C405.531,-192.256 314.048,-179.577 242,-152 239.922,-151.205 237.82,-150.28 235.741,-149.279"/>
<polygon fill="midnightblue" stroke="midnightblue" points="237.388,-146.191 226.921,-144.552 234.082,-152.361 237.388,-146.191"/>
</g>
<!-- Node13&#45;&gt;Node8 -->
<g id="edge42" class="edge"><title>Node13&#45;&gt;Node8</title>
<path fill="none" stroke="midnightblue" d="M459.909,-188.267C453.963,-180.379 445.63,-169.325 438.035,-159.251"/>
<polygon fill="midnightblue" stroke="midnightblue" points="440.713,-156.988 431.898,-151.11 435.123,-161.202 440.713,-156.988"/>
</g>
<!-- Node13&#45;&gt;Node9 -->
<g id="edge46" class="edge"><title>Node13&#45;&gt;Node9</title>
<path fill="none" stroke="midnightblue" d="M446.222,-190.369C423.5,-181.363 387.029,-166.908 356.709,-154.891"/>
<polygon fill="midnightblue" stroke="midnightblue" points="357.693,-151.516 347.107,-151.085 355.113,-158.023 357.693,-151.516"/>
</g>
<!-- Node13&#45;&gt;Node10 -->
<g id="edge44" class="edge"><title>Node13&#45;&gt;Node10</title>
<path fill="none" stroke="midnightblue" d="M489.549,-191.931C507.175,-184.874 530.932,-172.141 542,-152 553.119,-131.766 542.458,-105.746 532.245,-88.28"/>
<polygon fill="midnightblue" stroke="midnightblue" points="535.043,-86.1533 526.759,-79.5481 529.115,-89.8775 535.043,-86.1533"/>
</g>
<!-- Node13&#45;&gt;Node11 -->
<g id="edge30" class="edge"><title>Node13&#45;&gt;Node11</title>
<path fill="none" stroke="midnightblue" d="M489.647,-193.03C510.094,-186.308 540.207,-173.426 558,-152 587.317,-116.698 595.677,-61.329 598.057,-31.5666"/>
<polygon fill="midnightblue" stroke="midnightblue" points="601.554,-31.714 598.707,-21.5089 594.569,-31.2621 601.554,-31.714"/>
</g>
<!-- Node14 -->
<g id="node31" class="node"><title>Node14</title>
<polygon fill="none" stroke="#bfbfbf" points="627,-123.5 627,-144.5 683,-144.5 683,-123.5 627,-123.5"/>
<text text-anchor="middle" x="655" y="-131.5" font-family="Helvetica,sans-Serif" font-size="10.00">algorithm</text>
</g>
<!-- Node13&#45;&gt;Node14 -->
<g id="edge34" class="edge"><title>Node13&#45;&gt;Node14</title>
<path fill="none" stroke="midnightblue" d="M489.832,-192.604C518.398,-184.081 569.893,-168.185 613,-152 615.878,-150.919 618.847,-149.754 621.813,-148.553"/>
<polygon fill="midnightblue" stroke="midnightblue" points="623.278,-151.735 631.166,-144.662 620.589,-145.272 623.278,-151.735"/>
</g>
<!-- Node15 -->
<g id="node33" class="node"><title>Node15</title>
<polygon fill="none" stroke="#bfbfbf" points="701,-123.5 701,-144.5 745,-144.5 745,-123.5 701,-123.5"/>
<text text-anchor="middle" x="723" y="-131.5" font-family="Helvetica,sans-Serif" font-size="10.00">cmath</text>
</g>
<!-- Node13&#45;&gt;Node15 -->
<g id="edge36" class="edge"><title>Node13&#45;&gt;Node15</title>
<path fill="none" stroke="midnightblue" d="M489.645,-196.782C530.386,-192.105 620.773,-179.335 692,-152 694.077,-151.203 696.179,-150.277 698.257,-149.275"/>
<polygon fill="midnightblue" stroke="midnightblue" points="699.917,-152.356 707.077,-144.546 696.61,-146.187 699.917,-152.356"/>
</g>
<!-- Node16 -->
<g id="node35" class="node"><title>Node16</title>
<polygon fill="none" stroke="#bfbfbf" points="481,-123.5 481,-144.5 533,-144.5 533,-123.5 481,-123.5"/>
<text text-anchor="middle" x="507" y="-131.5" font-family="Helvetica,sans-Serif" font-size="10.00">sstream</text>
</g>
<!-- Node13&#45;&gt;Node16 -->
<g id="edge38" class="edge"><title>Node13&#45;&gt;Node16</title>
<path fill="none" stroke="midnightblue" d="M474.44,-188.267C480.119,-178.801 488.534,-164.777 495.386,-153.357"/>
<polygon fill="midnightblue" stroke="midnightblue" points="498.536,-154.909 500.68,-144.534 492.534,-151.308 498.536,-154.909"/>
</g>
<!-- Node17&#45;&gt;Node3 -->
<g id="edge50" class="edge"><title>Node17&#45;&gt;Node3</title>
<path fill="none" stroke="midnightblue" d="M37.3287,-304.18C44.3473,-281.898 61.6993,-229.5 82,-188 87.8403,-176.061 95.5296,-163.348 102.016,-153.258"/>
<polygon fill="midnightblue" stroke="midnightblue" points="104.989,-155.107 107.548,-144.826 99.1361,-151.267 104.989,-155.107"/>
</g>
</g>
</svg>
        <g id="navigator" transform="translate(0 0)" fill="#404254">
                <rect fill="#f2f5e9" fill-opacity="0.5" stroke="#606060" stroke-width=".5" x="0" y="0" width="60" height="60"/>
                <use id="zoomplus" xlink:href="#zoomPlus" x="17" y="9" onmousedown="handleZoom(evt,'in')"/>
                <use id="zoomminus" xlink:href="#zoomMin" x="42" y="9" onmousedown="handleZoom(evt,'out')"/>
                <use id="reset" xlink:href="#resetDef" x="30" y="36" onmousedown="handleReset()"/>
                <g id="arrowUp" xlink:href="#dirArrow" transform="translate(30 24)" onmousedown="handlePan(0,-1)">
                  <use xlink:href="#rim" fill="#404040">
                        <set attributeName="fill" to="#808080" begin="arrowUp.mouseover" end="arrowUp.mouseout"/>
                  </use>
                  <path fill="none" stroke="white" stroke-width="1.5" d="M0,-3.0v7 M-2.5,-0.5L0,-3.0L2.5,-0.5"/>
                </g>
                <g id="arrowRight" xlink:href="#dirArrow" transform="rotate(90) translate(36 -43)" onmousedown="handlePan(1,0)">
                  <use xlink:href="#rim" fill="#404040">
                        <set attributeName="fill" to="#808080" begin="arrowRight.mouseover" end="arrowRight.mouseout"/>
                  </use>
                  <path fill="none" stroke="white" stroke-width="1.5" d="M0,-3.0v7 M-2.5,-0.5L0,-3.0L2.5,-0.5"/>
                </g>
                <g id="arrowDown" xlink:href="#dirArrow" transform="rotate(180) translate(-30 -48)" onmousedown="handlePan(0,1)">
                  <use xlink:href="#rim" fill="#404040">
                        <set attributeName="fill" to="#808080" begin="arrowDown.mouseover" end="arrowDown.mouseout"/>
                  </use>
                  <path fill="none" stroke="white" stroke-width="1.5" d="M0,-3.0v7 M-2.5,-0.5L0,-3.0L2.5,-0.5"/>
                </g>
                <g id="arrowLeft" xlink:href="#dirArrow" transform="rotate(270) translate(-36 17)" onmousedown="handlePan(-1,0)">
                  <use xlink:href="#rim" fill="#404040">
                        <set attributeName="fill" to="#808080" begin="arrowLeft.mouseover" end="arrowLeft.mouseout"/>
                  </use>
                  <path fill="none" stroke="white" stroke-width="1.5" d="M0,-3.0v7 M-2.5,-0.5L0,-3.0L2.5,-0.5"/>
                </g>
        </g>
        <svg viewBox="0 0 15 15" width="100%" height="30px" preserveAspectRatio="xMaxYMin meet">
         <g id="arrow_out" transform="scale(0.3 0.3)">
          <a xlink:href="PropertiesBox_8cpp__incl_org.svg" target="_base">
           <rect id="button" ry="5" rx="5" y="6" x="6" height="38" width="38"
                fill="#f2f5e9" fill-opacity="0.5" stroke="#606060" stroke-width="1.0"/>
           <path id="arrow"
             d="M 11.500037,31.436501 C 11.940474,20.09759 22.043105,11.32322 32.158766,21.979434 L 37.068811,17.246167 C 37.068811,17.246167 37.088388,32 37.088388,32 L 22.160133,31.978069 C 22.160133,31.978069 26.997745,27.140456 26.997745,27.140456 C 18.528582,18.264221 13.291696,25.230495 11.500037,31.436501 z"
             style="fill:#404040;"/>
          </a>
         </g>
        </svg>
</svg>
