<?xml version="1.0" encoding="UTF-8" standalone="no"?>
<!DOCTYPE svg PUBLIC "-//W3C//DTD SVG 1.1//EN"
 "http://www.w3.org/Graphics/SVG/1.1/DTD/svg11.dtd">
<!-- Generated by graphviz version 2.36.0 (20140111.2315)
 -->
<!-- Title: /daten/Projekte/eclipse_workspace/simpleanalyzer&#45;gui/src/GUI/PropertiesBox.h Pages: 1 -->
<svg width="637pt" height="398pt"
 viewBox="0.00 0.00 637.00 398.00" xmlns="http://www.w3.org/2000/svg" xmlns:xlink="http://www.w3.org/1999/xlink">
<g id="graph0" class="graph" transform="scale(1 1) rotate(0) translate(4 394)">
<title>/daten/Projekte/eclipse_workspace/simpleanalyzer&#45;gui/src/GUI/PropertiesBox.h</title>
<!-- Node1 -->
<g id="node1" class="node"><title>Node1</title>
<polygon fill="#bfbfbf" stroke="black" points="49.5,-348.5 49.5,-389.5 192.5,-389.5 192.5,-348.5 49.5,-348.5"/>
<text text-anchor="start" x="57.5" y="-377.5" font-family="Helvetica,sans-Serif" font-size="10.00">/daten/Projekte/eclipse</text>
<text text-anchor="start" x="57.5" y="-366.5" font-family="Helvetica,sans-Serif" font-size="10.00">_workspace/simpleanalyzer</text>
<text text-anchor="middle" x="121" y="-355.5" font-family="Helvetica,sans-Serif" font-size="10.00">&#45;gui/src/GUI/PropertiesBox.h</text>
</g>
<!-- Node2 -->
<g id="node2" class="node"><title>Node2</title>
<polygon fill="none" stroke="#bfbfbf" points="-0.5,-118.5 -0.5,-137.5 52.5,-137.5 52.5,-118.5 -0.5,-118.5"/>
<text text-anchor="middle" x="26" y="-125.5" font-family="Helvetica,sans-Serif" font-size="10.00">wx/wx.h</text>
</g>
<!-- Node1&#45;&gt;Node2 -->
<g id="edge1" class="edge"><title>Node1&#45;&gt;Node2</title>
<path fill="none" stroke="midnightblue" d="M113.226,-348.442C95.2128,-303.125 50.8229,-191.449 33.2917,-147.344"/>
<polygon fill="midnightblue" stroke="midnightblue" points="36.4792,-145.888 29.5329,-137.888 29.9743,-148.474 36.4792,-145.888"/>
</g>
<!-- Node3 -->
<g id="node3" class="node"><title>Node3</title>
<g id="a_node3"><a xlink:href="GUITimeline_8h.xhtml" target="_top" xlink:title="GUITimeline.h">
<polygon fill="none" stroke="black" points="158,-292.5 158,-311.5 238,-311.5 238,-292.5 158,-292.5"/>
<text text-anchor="middle" x="198" y="-299.5" font-family="Helvetica,sans-Serif" font-size="10.00">GUITimeline.h</text>
</a>
</g>
</g>
<!-- Node1&#45;&gt;Node3 -->
<g id="edge2" class="edge"><title>Node1&#45;&gt;Node3</title>
<path fill="none" stroke="midnightblue" d="M144.103,-348.498C155.568,-338.82 169.214,-327.3 179.906,-318.274"/>
<polygon fill="midnightblue" stroke="midnightblue" points="182.366,-320.778 187.75,-311.652 177.851,-315.429 182.366,-320.778"/>
</g>
<!-- Node3&#45;&gt;Node2 -->
<g id="edge3" class="edge"><title>Node3&#45;&gt;Node2</title>
<path fill="none" stroke="midnightblue" d="M189.234,-292.234C161.74,-264.74 76.9385,-179.939 41.654,-144.654"/>
<polygon fill="midnightblue" stroke="midnightblue" points="44.0902,-142.14 34.5442,-137.544 39.1404,-147.09 44.0902,-142.14"/>
</g>
<!-- Node4 -->
<g id="node4" class="node"><title>Node4</title>
<polygon fill="none" stroke="#bfbfbf" points="177.5,-236.5 177.5,-255.5 218.5,-255.5 218.5,-236.5 177.5,-236.5"/>
<text text-anchor="middle" x="198" y="-243.5" font-family="Helvetica,sans-Serif" font-size="10.00">string</text>
</g>
<!-- Node3&#45;&gt;Node4 -->
<g id="edge4" class="edge"><title>Node3&#45;&gt;Node4</title>
<path fill="none" stroke="midnightblue" d="M198,-292.083C198,-285.006 198,-274.861 198,-265.986"/>
<polygon fill="midnightblue" stroke="midnightblue" points="201.5,-265.751 198,-255.751 194.5,-265.751 201.5,-265.751"/>
</g>
<!-- Node5 -->
<g id="node5" class="node"><title>Node5</title>
<polygon fill="none" stroke="#bfbfbf" points="585,-118.5 585,-137.5 629,-137.5 629,-118.5 585,-118.5"/>
<text text-anchor="middle" x="607" y="-125.5" font-family="Helvetica,sans-Serif" font-size="10.00">vector</text>
</g>
<!-- Node3&#45;&gt;Node5 -->
<g id="edge5" class="edge"><title>Node3&#45;&gt;Node5</title>
<path fill="none" stroke="midnightblue" d="M238.134,-296.471C280.757,-290.708 349.502,-278.661 405,-256 477.874,-226.244 553.858,-170.69 588.184,-144.03"/>
<polygon fill="midnightblue" stroke="midnightblue" points="590.652,-146.543 596.357,-137.615 586.33,-141.037 590.652,-146.543"/>
</g>
<!-- Node6 -->
<g id="node6" class="node"><title>Node6</title>
<g id="a_node6"><a xlink:href="ObjectData_8h.xhtml" target="_top" xlink:title="../processing/ObjectData.h">
<polygon fill="none" stroke="black" points="262,-236.5 262,-255.5 396,-255.5 396,-236.5 262,-236.5"/>
<text text-anchor="middle" x="329" y="-243.5" font-family="Helvetica,sans-Serif" font-size="10.00">../processing/ObjectData.h</text>
</a>
</g>
</g>
<!-- Node3&#45;&gt;Node6 -->
<g id="edge6" class="edge"><title>Node3&#45;&gt;Node6</title>
<path fill="none" stroke="midnightblue" d="M218.757,-292.444C240.316,-283.557 274.263,-269.563 298.794,-259.451"/>
<polygon fill="midnightblue" stroke="midnightblue" points="300.428,-262.563 308.34,-255.516 297.761,-256.092 300.428,-262.563"/>
</g>
<!-- Node6&#45;&gt;Node5 -->
<g id="edge8" class="edge"><title>Node6&#45;&gt;Node5</title>
<path fill="none" stroke="midnightblue" d="M351.338,-236.407C394.905,-219.529 494.124,-180.506 576,-144 577.399,-143.376 578.829,-142.727 580.269,-142.063"/>
<polygon fill="midnightblue" stroke="midnightblue" points="582.164,-145.039 589.71,-137.602 579.173,-138.71 582.164,-145.039"/>
</g>
<!-- Node7 -->
<g id="node7" class="node"><title>Node7</title>
<polygon fill="none" stroke="#bfbfbf" points="70.5,-113 70.5,-143 159.5,-143 159.5,-113 70.5,-113"/>
<text text-anchor="start" x="78.5" y="-131" font-family="Helvetica,sans-Serif" font-size="10.00">../libraries/tetgen</text>
<text text-anchor="middle" x="115" y="-120" font-family="Helvetica,sans-Serif" font-size="10.00">/tetgen.h</text>
</g>
<!-- Node6&#45;&gt;Node7 -->
<g id="edge7" class="edge"><title>Node6&#45;&gt;Node7</title>
<path fill="none" stroke="midnightblue" d="M313.264,-236.47C279.058,-217.929 197.223,-173.57 150.077,-148.014"/>
<polygon fill="midnightblue" stroke="midnightblue" points="151.595,-144.855 141.135,-143.167 148.259,-151.009 151.595,-144.855"/>
</g>
<!-- Node8 -->
<g id="node8" class="node"><title>Node8</title>
<g id="a_node8"><a xlink:href="Interpolator_8h.xhtml" target="_top" xlink:title="../libraries/interpolate\l/Interpolator.h">
<polygon fill="none" stroke="black" points="460.5,-113 460.5,-143 567.5,-143 567.5,-113 460.5,-113"/>
<text text-anchor="start" x="468.5" y="-131" font-family="Helvetica,sans-Serif" font-size="10.00">../libraries/interpolate</text>
<text text-anchor="middle" x="514" y="-120" font-family="Helvetica,sans-Serif" font-size="10.00">/Interpolator.h</text>
</a>
</g>
</g>
<!-- Node6&#45;&gt;Node8 -->
<g id="edge9" class="edge"><title>Node6&#45;&gt;Node8</title>
<path fill="none" stroke="midnightblue" d="M342.603,-236.47C371.989,-218.045 442.037,-174.123 482.908,-148.495"/>
<polygon fill="midnightblue" stroke="midnightblue" points="484.794,-151.444 491.406,-143.167 481.075,-145.514 484.794,-151.444"/>
</g>
<!-- Node11 -->
<g id="node11" class="node"><title>Node11</title>
<polygon fill="none" stroke="#bfbfbf" points="321.5,-180.5 321.5,-199.5 386.5,-199.5 386.5,-180.5 321.5,-180.5"/>
<text text-anchor="middle" x="354" y="-187.5" font-family="Helvetica,sans-Serif" font-size="10.00">wx/string.h</text>
</g>
<!-- Node6&#45;&gt;Node11 -->
<g id="edge12" class="edge"><title>Node6&#45;&gt;Node11</title>
<path fill="none" stroke="midnightblue" d="M333.128,-236.083C336.514,-228.77 341.416,-218.181 345.619,-209.103"/>
<polygon fill="midnightblue" stroke="midnightblue" points="348.923,-210.296 349.949,-199.751 342.571,-207.355 348.923,-210.296"/>
</g>
<!-- Node12 -->
<g id="node12" class="node"><title>Node12</title>
<g id="a_node12"><a xlink:href="simpleanalyzer-gui_2src_2processing_2utils_8h.xhtml" target="_top" xlink:title="utils.h">
<polygon fill="none" stroke="black" points="260.5,-180.5 260.5,-199.5 303.5,-199.5 303.5,-180.5 260.5,-180.5"/>
<text text-anchor="middle" x="282" y="-187.5" font-family="Helvetica,sans-Serif" font-size="10.00">utils.h</text>
</a>
</g>
</g>
<!-- Node6&#45;&gt;Node12 -->
<g id="edge13" class="edge"><title>Node6&#45;&gt;Node12</title>
<path fill="none" stroke="midnightblue" d="M321.239,-236.083C314.463,-228.298 304.457,-216.801 296.245,-207.367"/>
<polygon fill="midnightblue" stroke="midnightblue" points="298.822,-204.996 289.617,-199.751 293.542,-209.592 298.822,-204.996"/>
</g>
<!-- Node9 -->
<g id="node9" class="node"><title>Node9</title>
<g id="a_node9"><a xlink:href="GeometryClasses_8h.xhtml" target="_top" xlink:title="GeometryClasses.h">
<polygon fill="none" stroke="black" points="216,-56.5 216,-75.5 320,-75.5 320,-56.5 216,-56.5"/>
<text text-anchor="middle" x="268" y="-63.5" font-family="Helvetica,sans-Serif" font-size="10.00">GeometryClasses.h</text>
</a>
</g>
</g>
<!-- Node8&#45;&gt;Node9 -->
<g id="edge10" class="edge"><title>Node8&#45;&gt;Node9</title>
<path fill="none" stroke="midnightblue" d="M460.318,-113.907C416.174,-103.14 354.343,-88.0593 312.818,-77.9311"/>
<polygon fill="midnightblue" stroke="midnightblue" points="313.526,-74.5014 302.981,-75.5321 311.867,-81.302 313.526,-74.5014"/>
</g>
<!-- Node10 -->
<g id="node10" class="node"><title>Node10</title>
<polygon fill="none" stroke="#bfbfbf" points="201,-0.5 201,-19.5 255,-19.5 255,-0.5 201,-0.5"/>
<text text-anchor="middle" x="228" y="-7.5" font-family="Helvetica,sans-Serif" font-size="10.00">iostream</text>
</g>
<!-- Node9&#45;&gt;Node10 -->
<g id="edge11" class="edge"><title>Node9&#45;&gt;Node10</title>
<path fill="none" stroke="midnightblue" d="M261.395,-56.083C255.745,-48.4554 247.455,-37.2645 240.549,-27.9408"/>
<polygon fill="midnightblue" stroke="midnightblue" points="243.247,-25.7034 234.482,-19.7511 237.622,-29.87 243.247,-25.7034"/>
</g>
<!-- Node12&#45;&gt;Node2 -->
<g id="edge19" class="edge"><title>Node12&#45;&gt;Node2</title>
<path fill="none" stroke="midnightblue" d="M260.298,-186.084C220.27,-180.377 132.383,-166.307 61,-144 58.4267,-143.196 55.7851,-142.267 53.1622,-141.274"/>
<polygon fill="midnightblue" stroke="midnightblue" points="54.4821,-138.033 43.9005,-137.503 51.8422,-144.516 54.4821,-138.033"/>
</g>
<!-- Node12&#45;&gt;Node5 -->
<g id="edge15" class="edge"><title>Node12&#45;&gt;Node5</title>
<path fill="none" stroke="midnightblue" d="M303.525,-182.104C306.358,-181.326 309.237,-180.599 312,-180 427.731,-154.91 462.631,-178.213 576,-144 578.139,-143.354 580.315,-142.578 582.47,-141.722"/>
<polygon fill="midnightblue" stroke="midnightblue" points="583.922,-144.907 591.617,-137.624 581.06,-138.518 583.922,-144.907"/>
</g>
<!-- Node12&#45;&gt;Node7 -->
<g id="edge20" class="edge"><title>Node12&#45;&gt;Node7</title>
<path fill="none" stroke="midnightblue" d="M260.168,-181.156C235.81,-172.405 195.634,-157.97 163.715,-146.503"/>
<polygon fill="midnightblue" stroke="midnightblue" points="164.696,-143.136 154.101,-143.048 162.329,-149.724 164.696,-143.136"/>
</g>
<!-- Node12&#45;&gt;Node8 -->
<g id="edge22" class="edge"><title>Node12&#45;&gt;Node8</title>
<path fill="none" stroke="midnightblue" d="M303.597,-182.397C306.418,-181.571 309.274,-180.753 312,-180 358.123,-167.266 410.519,-154.074 450.388,-144.297"/>
<polygon fill="midnightblue" stroke="midnightblue" points="451.36,-147.663 460.242,-141.888 449.697,-140.863 451.36,-147.663"/>
</g>
<!-- Node12&#45;&gt;Node9 -->
<g id="edge21" class="edge"><title>Node12&#45;&gt;Node9</title>
<path fill="none" stroke="midnightblue" d="M271.562,-180.245C262.576,-171.969 250.254,-158.663 245,-144 237.751,-123.77 247.552,-100.008 256.509,-84.2884"/>
<polygon fill="midnightblue" stroke="midnightblue" points="259.568,-85.9965 261.818,-75.6434 253.603,-82.3336 259.568,-85.9965"/>
</g>
<!-- Node12&#45;&gt;Node10 -->
<g id="edge14" class="edge"><title>Node12&#45;&gt;Node10</title>
<path fill="none" stroke="midnightblue" d="M272.166,-180.455C262.774,-171.921 248.658,-158.079 239,-144 220.105,-116.456 214.287,-108.597 207,-76 203.33,-59.5838 210.174,-41.4042 217.008,-28.4551"/>
<polygon fill="midnightblue" stroke="midnightblue" points="220.099,-30.1006 222.057,-19.6882 214.033,-26.607 220.099,-30.1006"/>
</g>
<!-- Node13 -->
<g id="node13" class="node"><title>Node13</title>
<polygon fill="none" stroke="#bfbfbf" points="254,-118.5 254,-137.5 310,-137.5 310,-118.5 254,-118.5"/>
<text text-anchor="middle" x="282" y="-125.5" font-family="Helvetica,sans-Serif" font-size="10.00">algorithm</text>
</g>
<!-- Node12&#45;&gt;Node13 -->
<g id="edge16" class="edge"><title>Node12&#45;&gt;Node13</title>
<path fill="none" stroke="midnightblue" d="M282,-180.403C282,-171.938 282,-158.728 282,-147.82"/>
<polygon fill="midnightblue" stroke="midnightblue" points="285.5,-147.581 282,-137.581 278.5,-147.581 285.5,-147.581"/>
</g>
<!-- Node14 -->
<g id="node14" class="node"><title>Node14</title>
<polygon fill="none" stroke="#bfbfbf" points="328,-118.5 328,-137.5 372,-137.5 372,-118.5 328,-118.5"/>
<text text-anchor="middle" x="350" y="-125.5" font-family="Helvetica,sans-Serif" font-size="10.00">cmath</text>
</g>
<!-- Node12&#45;&gt;Node14 -->
<g id="edge17" class="edge"><title>Node12&#45;&gt;Node14</title>
<path fill="none" stroke="midnightblue" d="M291.743,-180.403C302.347,-171.047 319.519,-155.895 332.479,-144.46"/>
<polygon fill="midnightblue" stroke="midnightblue" points="335.093,-146.821 340.275,-137.581 330.461,-141.572 335.093,-146.821"/>
</g>
<!-- Node15 -->
<g id="node15" class="node"><title>Node15</title>
<polygon fill="none" stroke="#bfbfbf" points="390,-118.5 390,-137.5 442,-137.5 442,-118.5 390,-118.5"/>
<text text-anchor="middle" x="416" y="-125.5" font-family="Helvetica,sans-Serif" font-size="10.00">sstream</text>
</g>
<!-- Node12&#45;&gt;Node15 -->
<g id="edge18" class="edge"><title>Node12&#45;&gt;Node15</title>
<path fill="none" stroke="midnightblue" d="M301.199,-180.403C323.787,-170.29 361.499,-153.404 387.501,-141.761"/>
<polygon fill="midnightblue" stroke="midnightblue" points="389.14,-144.862 396.837,-137.581 386.279,-138.473 389.14,-144.862"/>
</g>
</g>
</svg>
