<?xml version="1.0" encoding="UTF-8" standalone="no"?>
<!DOCTYPE svg PUBLIC "-//W3C//DTD SVG 1.1//EN"
 "http://www.w3.org/Graphics/SVG/1.1/DTD/svg11.dtd">
<!-- Generated by graphviz version 2.26.3 (20100126.1600)
 -->
<!-- Title: simpleanalyzer&#45;gui/src/GUI/Renderer.h Pages: 1 -->
<!--zoomable 404 -->
<svg id="main" version="1.1" xmlns="http://www.w3.org/2000/svg" xmlns:xlink="http://www.w3.org/1999/xlink" xml:space="preserve" onload="init(evt)">
<style type="text/css"><![CDATA[
.edge:hover path { stroke: red; }
.edge:hover polygon { stroke: red; fill: red; }
]]></style>
<script type="text/javascript"><![CDATA[
var edges = document.getElementsByTagName('g');
if (edges && edges.length) {
  for (var i=0;i<edges.length;i++) {
    if (edges[i].id.substr(0,4)=='edge') {
      edges[i].setAttribute('class','edge');
    }
  }
}
]]></script>
        <defs>
                <circle id="rim" cx="0" cy="0" r="7"/>
                <circle id="rim2" cx="0" cy="0" r="3.5"/>
                <g id="zoomPlus">
                        <use xlink:href="#rim" fill="#404040">
                                <set attributeName="fill" to="#808080" begin="zoomplus.mouseover" end="zoomplus.mouseout"/>
                        </use>
                        <path d="M-4,0h8M0,-4v8" fill="none" stroke="white" stroke-width="1.5" pointer-events="none"/>
                </g>
                <g id="zoomMin">
                        <use xlink:href="#rim" fill="#404040">
                                <set attributeName="fill" to="#808080" begin="zoomminus.mouseover" end="zoomminus.mouseout"/>
                        </use>
                        <path d="M-4,0h8" fill="none" stroke="white" stroke-width="1.5" pointer-events="none"/>
                </g>
                <g id="dirArrow">
                        <path fill="none" stroke="white" stroke-width="1.5" d="M0,-3.0v7 M-2.5,-0.5L0,-3.0L2.5,-0.5"/>
                </g>
               <g id="resetDef">
                       <use xlink:href="#rim2" fill="#404040">
                               <set attributeName="fill" to="#808080" begin="reset.mouseover" end="reset.mouseout"/>
                       </use>
               </g>
        </defs>

<script type="text/javascript">
var viewWidth = 1307;
var viewHeight = 404;
var sectionId = 'dynsection-1';
</script>
<script xlink:href="svgpan.js"/>
<svg id="graph" class="graph">
<g id="viewport">
<title>simpleanalyzer&#45;gui/src/GUI/Renderer.h</title>
<!-- Node1 -->
<g id="node1" class="node"><title>Node1</title>
<polygon fill="#bfbfbf" stroke="black" points="894.5,-361 894.5,-395 999.5,-395 999.5,-361 894.5,-361"/>
<text text-anchor="start" x="902.5" y="-382" font-family="Helvetica,sans-Serif" font-size="10.00">simpleanalyzer&#45;gui</text>
<text text-anchor="middle" x="947" y="-369" font-family="Helvetica,sans-Serif" font-size="10.00">/src/GUI/Renderer.h</text>
</g>
<!-- Node2 -->
<g id="node3" class="node"><title>Node2</title>
<a xlink:href="GUIGLCanvas_8h.xhtml" target="_top" xlink:title="simpleanalyzer&#45;gui\l/src/GUI/GUIGLCanvas.h">
<polygon fill="none" stroke="black" points="436,-289 436,-323 566,-323 566,-289 436,-289"/>
<text text-anchor="start" x="444" y="-310" font-family="Helvetica,sans-Serif" font-size="10.00">simpleanalyzer&#45;gui</text>
<text text-anchor="middle" x="501" y="-297" font-family="Helvetica,sans-Serif" font-size="10.00">/src/GUI/GUIGLCanvas.h</text>
</a>
</g>
<!-- Node1&#45;&gt;Node2 -->
<g id="edge2" class="edge"><title>Node1&#45;&gt;Node2</title>
<path fill="none" stroke="midnightblue" d="M884.067,-369.837C811.699,-360.167 689.432,-342.959 585,-324 578.837,-322.881 572.435,-321.645 566.038,-320.36"/>
<polygon fill="midnightblue" stroke="midnightblue" points="884,-373.359 894.374,-371.208 884.923,-366.42 884,-373.359"/>
</g>
<!-- Node8 -->
<g id="node15" class="node"><title>Node8</title>
<a xlink:href="GUIRenderCutCanvas_8cpp.xhtml" target="_top" xlink:title="simpleanalyzer&#45;gui\l/src/GUI/GUIRenderCutCanvas.cpp">
<polygon fill="none" stroke="black" points="693.5,-1 693.5,-35 868.5,-35 868.5,-1 693.5,-1"/>
<text text-anchor="start" x="701.5" y="-22" font-family="Helvetica,sans-Serif" font-size="10.00">simpleanalyzer&#45;gui</text>
<text text-anchor="middle" x="781" y="-9" font-family="Helvetica,sans-Serif" font-size="10.00">/src/GUI/GUIRenderCutCanvas.cpp</text>
</a>
</g>
<!-- Node1&#45;&gt;Node8 -->
<g id="edge36" class="edge"><title>Node1&#45;&gt;Node8</title>
<path fill="none" stroke="midnightblue" d="M964.292,-352.115C969.549,-343.441 974.99,-333.544 979,-324 995.036,-285.834 1003,-275.398 1003,-234 1003,-234 1003,-234 1003,-162 1003,-91.7122 923.703,-54.0045 859.894,-35.0398"/>
<polygon fill="midnightblue" stroke="midnightblue" points="961.291,-350.312 958.947,-360.645 967.223,-354.029 961.291,-350.312"/>
</g>
<!-- Node10 -->
<g id="node19" class="node"><title>Node10</title>
<a xlink:href="GUIColorScalePanel_8h.xhtml" target="_top" xlink:title="simpleanalyzer&#45;gui\l/src/GUI/GUIColorScalePanel.h">
<polygon fill="none" stroke="black" points="814,-289 814,-323 970,-323 970,-289 814,-289"/>
<text text-anchor="start" x="822" y="-310" font-family="Helvetica,sans-Serif" font-size="10.00">simpleanalyzer&#45;gui</text>
<text text-anchor="middle" x="892" y="-297" font-family="Helvetica,sans-Serif" font-size="10.00">/src/GUI/GUIColorScalePanel.h</text>
</a>
</g>
<!-- Node1&#45;&gt;Node10 -->
<g id="edge18" class="edge"><title>Node1&#45;&gt;Node10</title>
<path fill="none" stroke="midnightblue" d="M927.744,-352.792C920.337,-343.096 912.051,-332.248 905.323,-323.441"/>
<polygon fill="midnightblue" stroke="midnightblue" points="925.114,-355.115 933.966,-360.937 930.677,-350.866 925.114,-355.115"/>
</g>
<!-- Node12 -->
<g id="node23" class="node"><title>Node12</title>
<a xlink:href="GUICutRenderWindow_8h.xhtml" target="_top" xlink:title="simpleanalyzer&#45;gui\l/src/GUI/GUICutRenderWindow.h">
<polygon fill="none" stroke="black" points="516,-145 516,-179 682,-179 682,-145 516,-145"/>
<text text-anchor="start" x="524" y="-166" font-family="Helvetica,sans-Serif" font-size="10.00">simpleanalyzer&#45;gui</text>
<text text-anchor="middle" x="599" y="-153" font-family="Helvetica,sans-Serif" font-size="10.00">/src/GUI/GUICutRenderWindow.h</text>
</a>
</g>
<!-- Node1&#45;&gt;Node12 -->
<g id="edge34" class="edge"><title>Node1&#45;&gt;Node12</title>
<path fill="none" stroke="midnightblue" d="M884.026,-371.784C809.086,-360.907 685.625,-331.371 618,-252 600.497,-231.457 597.823,-198.815 598.027,-179.001"/>
<polygon fill="midnightblue" stroke="midnightblue" points="883.882,-375.297 894.267,-373.198 884.84,-368.363 883.882,-375.297"/>
</g>
<!-- Node14 -->
<g id="node33" class="node"><title>Node14</title>
<a xlink:href="Renderer_8cpp.xhtml" target="_top" xlink:title="simpleanalyzer&#45;gui\l/src/GUI/Renderer.cpp">
<polygon fill="none" stroke="black" points="1031,-289 1031,-323 1147,-323 1147,-289 1031,-289"/>
<text text-anchor="start" x="1039" y="-310" font-family="Helvetica,sans-Serif" font-size="10.00">simpleanalyzer&#45;gui</text>
<text text-anchor="middle" x="1089" y="-297" font-family="Helvetica,sans-Serif" font-size="10.00">/src/GUI/Renderer.cpp</text>
</a>
</g>
<!-- Node1&#45;&gt;Node14 -->
<g id="edge38" class="edge"><title>Node1&#45;&gt;Node14</title>
<path fill="none" stroke="midnightblue" d="M989.66,-356.369C1010.6,-345.751 1035.48,-333.138 1055.1,-323.19"/>
<polygon fill="midnightblue" stroke="midnightblue" points="987.988,-353.293 980.652,-360.937 991.154,-359.536 987.988,-353.293"/>
</g>
<!-- Node15 -->
<g id="node35" class="node"><title>Node15</title>
<a xlink:href="ViewpropBox_8cpp.xhtml" target="_top" xlink:title="simpleanalyzer&#45;gui\l/src/GUI/ViewpropBox.cpp">
<polygon fill="none" stroke="black" points="1165,-289 1165,-323 1299,-323 1299,-289 1165,-289"/>
<text text-anchor="start" x="1173" y="-310" font-family="Helvetica,sans-Serif" font-size="10.00">simpleanalyzer&#45;gui</text>
<text text-anchor="middle" x="1232" y="-297" font-family="Helvetica,sans-Serif" font-size="10.00">/src/GUI/ViewpropBox.cpp</text>
</a>
</g>
<!-- Node1&#45;&gt;Node15 -->
<g id="edge40" class="edge"><title>Node1&#45;&gt;Node15</title>
<path fill="none" stroke="midnightblue" d="M1009.45,-362.224C1055.41,-350.612 1117.83,-334.844 1164.86,-322.961"/>
<polygon fill="midnightblue" stroke="midnightblue" points="1008.44,-358.867 999.606,-364.71 1010.16,-365.654 1008.44,-358.867"/>
</g>
<!-- Node3 -->
<g id="node5" class="node"><title>Node3</title>
<a xlink:href="GUIMainWindow_8h.xhtml" target="_top" xlink:title="simpleanalyzer&#45;gui\l/src/GUI/GUIMainWindow.h">
<polygon fill="none" stroke="black" points="337,-73 337,-107 477,-107 477,-73 337,-73"/>
<text text-anchor="start" x="345" y="-94" font-family="Helvetica,sans-Serif" font-size="10.00">simpleanalyzer&#45;gui</text>
<text text-anchor="middle" x="407" y="-81" font-family="Helvetica,sans-Serif" font-size="10.00">/src/GUI/GUIMainWindow.h</text>
</a>
</g>
<!-- Node2&#45;&gt;Node3 -->
<g id="edge4" class="edge"><title>Node2&#45;&gt;Node3</title>
<path fill="none" stroke="midnightblue" d="M454.068,-283.637C441.646,-275.431 429.597,-264.914 422,-252 394.645,-205.501 399.759,-138.209 404.119,-107.035"/>
<polygon fill="midnightblue" stroke="midnightblue" points="452.328,-286.677 462.676,-288.95 456.005,-280.72 452.328,-286.677"/>
</g>
<!-- Node9 -->
<g id="node17" class="node"><title>Node9</title>
<a xlink:href="GUIGLCanvas_8cpp.xhtml" target="_top" xlink:title="simpleanalyzer&#45;gui\l/src/GUI/GUIGLCanvas.cpp">
<polygon fill="none" stroke="black" points="431,-217 431,-251 571,-251 571,-217 431,-217"/>
<text text-anchor="start" x="439" y="-238" font-family="Helvetica,sans-Serif" font-size="10.00">simpleanalyzer&#45;gui</text>
<text text-anchor="middle" x="501" y="-225" font-family="Helvetica,sans-Serif" font-size="10.00">/src/GUI/GUIGLCanvas.cpp</text>
</a>
</g>
<!-- Node2&#45;&gt;Node9 -->
<g id="edge16" class="edge"><title>Node2&#45;&gt;Node9</title>
<path fill="none" stroke="midnightblue" d="M501,-278.719C501,-269.572 501,-259.625 501,-251.441"/>
<polygon fill="midnightblue" stroke="midnightblue" points="497.5,-278.937 501,-288.937 504.5,-278.937 497.5,-278.937"/>
</g>
<!-- Node4 -->
<g id="node7" class="node"><title>Node4</title>
<a xlink:href="Application_8cpp.xhtml" target="_top" xlink:title="simpleanalyzer&#45;gui\l/src/Application.cpp">
<polygon fill="none" stroke="black" points="-0.5,-1 -0.5,-35 102.5,-35 102.5,-1 -0.5,-1"/>
<text text-anchor="start" x="7.5" y="-22" font-family="Helvetica,sans-Serif" font-size="10.00">simpleanalyzer&#45;gui</text>
<text text-anchor="middle" x="51" y="-9" font-family="Helvetica,sans-Serif" font-size="10.00">/src/Application.cpp</text>
</a>
</g>
<!-- Node3&#45;&gt;Node4 -->
<g id="edge6" class="edge"><title>Node3&#45;&gt;Node4</title>
<path fill="none" stroke="midnightblue" d="M326.728,-77.831C266.899,-68.1631 183.378,-53.402 111,-36 108.251,-35.339 105.441,-34.6266 102.612,-33.88"/>
<polygon fill="midnightblue" stroke="midnightblue" points="326.439,-81.3293 336.867,-79.4573 327.548,-74.4177 326.439,-81.3293"/>
</g>
<!-- Node5 -->
<g id="node9" class="node"><title>Node5</title>
<a xlink:href="GUIAnalyzeOutputWindow_8cpp.xhtml" target="_top" xlink:title="simpleanalyzer&#45;gui\l/src/GUI/GUIAnalyzeOutputWindow.cpp">
<polygon fill="none" stroke="black" points="120,-1 120,-35 314,-35 314,-1 120,-1"/>
<text text-anchor="start" x="128" y="-22" font-family="Helvetica,sans-Serif" font-size="10.00">simpleanalyzer&#45;gui</text>
<text text-anchor="middle" x="217" y="-9" font-family="Helvetica,sans-Serif" font-size="10.00">/src/GUI/GUIAnalyzeOutputWindow.cpp</text>
</a>
</g>
<!-- Node3&#45;&gt;Node5 -->
<g id="edge8" class="edge"><title>Node3&#45;&gt;Node5</title>
<path fill="none" stroke="midnightblue" d="M352.507,-69.3498C323.852,-58.4911 289.147,-45.3399 262.033,-35.0651"/>
<polygon fill="midnightblue" stroke="midnightblue" points="351.381,-72.6663 361.973,-72.937 353.862,-66.1205 351.381,-72.6663"/>
</g>
<!-- Node6 -->
<g id="node11" class="node"><title>Node6</title>
<a xlink:href="GUICutRenderWindow_8cpp.xhtml" target="_top" xlink:title="simpleanalyzer&#45;gui\l/src/GUI/GUICutRenderWindow.cpp">
<polygon fill="none" stroke="black" points="500,-1 500,-35 676,-35 676,-1 500,-1"/>
<text text-anchor="start" x="508" y="-22" font-family="Helvetica,sans-Serif" font-size="10.00">simpleanalyzer&#45;gui</text>
<text text-anchor="middle" x="588" y="-9" font-family="Helvetica,sans-Serif" font-size="10.00">/src/GUI/GUICutRenderWindow.cpp</text>
</a>
</g>
<!-- Node3&#45;&gt;Node6 -->
<g id="edge10" class="edge"><title>Node3&#45;&gt;Node6</title>
<path fill="none" stroke="midnightblue" d="M459.269,-69.2081C486.497,-58.3768 519.383,-45.2952 545.1,-35.0651"/>
<polygon fill="midnightblue" stroke="midnightblue" points="457.893,-65.9886 449.894,-72.937 460.48,-72.4929 457.893,-65.9886"/>
</g>
<!-- Node7 -->
<g id="node13" class="node"><title>Node7</title>
<a xlink:href="GUIMainWindow_8cpp.xhtml" target="_top" xlink:title="simpleanalyzer&#45;gui\l/src/GUI/GUIMainWindow.cpp">
<polygon fill="none" stroke="black" points="332,-1 332,-35 482,-35 482,-1 332,-1"/>
<text text-anchor="start" x="340" y="-22" font-family="Helvetica,sans-Serif" font-size="10.00">simpleanalyzer&#45;gui</text>
<text text-anchor="middle" x="407" y="-9" font-family="Helvetica,sans-Serif" font-size="10.00">/src/GUI/GUIMainWindow.cpp</text>
</a>
</g>
<!-- Node3&#45;&gt;Node7 -->
<g id="edge12" class="edge"><title>Node3&#45;&gt;Node7</title>
<path fill="none" stroke="midnightblue" d="M407,-62.7193C407,-53.572 407,-43.6255 407,-35.4407"/>
<polygon fill="midnightblue" stroke="midnightblue" points="403.5,-62.937 407,-72.937 410.5,-62.937 403.5,-62.937"/>
</g>
<!-- Node3&#45;&gt;Node8 -->
<g id="edge14" class="edge"><title>Node3&#45;&gt;Node8</title>
<path fill="none" stroke="midnightblue" d="M487.245,-74.5518C547.807,-62.8928 630.832,-46.9093 693.17,-34.9085"/>
<polygon fill="midnightblue" stroke="midnightblue" points="486.505,-71.13 477.347,-76.4574 487.828,-78.0037 486.505,-71.13"/>
</g>
<!-- Node11 -->
<g id="node21" class="node"><title>Node11</title>
<a xlink:href="GUIRenderCutCanvas_8h.xhtml" target="_top" xlink:title="simpleanalyzer&#45;gui\l/src/GUI/GUIRenderCutCanvas.h">
<polygon fill="none" stroke="black" points="627,-217 627,-251 791,-251 791,-217 627,-217"/>
<text text-anchor="start" x="635" y="-238" font-family="Helvetica,sans-Serif" font-size="10.00">simpleanalyzer&#45;gui</text>
<text text-anchor="middle" x="709" y="-225" font-family="Helvetica,sans-Serif" font-size="10.00">/src/GUI/GUIRenderCutCanvas.h</text>
</a>
</g>
<!-- Node10&#45;&gt;Node11 -->
<g id="edge20" class="edge"><title>Node10&#45;&gt;Node11</title>
<path fill="none" stroke="midnightblue" d="M839.154,-285.208C811.624,-274.377 778.375,-261.295 752.374,-251.065"/>
<polygon fill="midnightblue" stroke="midnightblue" points="838.044,-288.533 848.632,-288.937 840.607,-282.019 838.044,-288.533"/>
</g>
<!-- Node13 -->
<g id="node29" class="node"><title>Node13</title>
<a xlink:href="GUIColorScalePanel_8cpp.xhtml" target="_top" xlink:title="simpleanalyzer&#45;gui\l/src/GUI/GUIColorScalePanel.cpp">
<polygon fill="none" stroke="black" points="808.5,-217 808.5,-251 975.5,-251 975.5,-217 808.5,-217"/>
<text text-anchor="start" x="816.5" y="-238" font-family="Helvetica,sans-Serif" font-size="10.00">simpleanalyzer&#45;gui</text>
<text text-anchor="middle" x="892" y="-225" font-family="Helvetica,sans-Serif" font-size="10.00">/src/GUI/GUIColorScalePanel.cpp</text>
</a>
</g>
<!-- Node10&#45;&gt;Node13 -->
<g id="edge32" class="edge"><title>Node10&#45;&gt;Node13</title>
<path fill="none" stroke="midnightblue" d="M892,-278.719C892,-269.572 892,-259.625 892,-251.441"/>
<polygon fill="midnightblue" stroke="midnightblue" points="888.5,-278.937 892,-288.937 895.5,-278.937 888.5,-278.937"/>
</g>
<!-- Node11&#45;&gt;Node8 -->
<g id="edge30" class="edge"><title>Node11&#45;&gt;Node8</title>
<path fill="none" stroke="midnightblue" d="M717.999,-207.002C733.033,-161.902 762.831,-72.5075 775.302,-35.0937"/>
<polygon fill="midnightblue" stroke="midnightblue" points="714.612,-206.095 714.77,-216.689 721.253,-208.309 714.612,-206.095"/>
</g>
<!-- Node11&#45;&gt;Node12 -->
<g id="edge22" class="edge"><title>Node11&#45;&gt;Node12</title>
<path fill="none" stroke="midnightblue" d="M674.417,-211.364C658.526,-200.962 639.984,-188.826 625.263,-179.19"/>
<polygon fill="midnightblue" stroke="midnightblue" points="672.648,-214.389 682.932,-216.937 676.481,-208.532 672.648,-214.389"/>
</g>
<!-- Node12&#45;&gt;Node3 -->
<g id="edge24" class="edge"><title>Node12&#45;&gt;Node3</title>
<path fill="none" stroke="midnightblue" d="M543.933,-141.35C514.976,-130.491 479.906,-117.34 452.507,-107.065"/>
<polygon fill="midnightblue" stroke="midnightblue" points="542.906,-144.703 553.499,-144.937 545.364,-138.149 542.906,-144.703"/>
</g>
<!-- Node12&#45;&gt;Node6 -->
<g id="edge26" class="edge"><title>Node12&#45;&gt;Node6</title>
<path fill="none" stroke="midnightblue" d="M596.932,-134.933C594.693,-105.613 591.188,-59.732 589.303,-35.0619"/>
<polygon fill="midnightblue" stroke="midnightblue" points="593.443,-135.211 597.695,-144.916 600.423,-134.678 593.443,-135.211"/>
</g>
<!-- Node12&#45;&gt;Node8 -->
<g id="edge28" class="edge"><title>Node12&#45;&gt;Node8</title>
<path fill="none" stroke="midnightblue" d="M628.459,-138.692C665.129,-109.678 726.888,-60.8141 759.436,-35.0619"/>
<polygon fill="midnightblue" stroke="midnightblue" points="626.263,-135.966 620.592,-144.916 630.606,-141.456 626.263,-135.966"/>
</g>
</g>
</svg>
        <g id="navigator" transform="translate(0 0)" fill="#404254">
                <rect fill="#f2f5e9" fill-opacity="0.5" stroke="#606060" stroke-width=".5" x="0" y="0" width="60" height="60"/>
                <use id="zoomplus" xlink:href="#zoomPlus" x="17" y="9" onmousedown="handleZoom(evt,'in')"/>
                <use id="zoomminus" xlink:href="#zoomMin" x="42" y="9" onmousedown="handleZoom(evt,'out')"/>
                <use id="reset" xlink:href="#resetDef" x="30" y="36" onmousedown="handleReset()"/>
                <g id="arrowUp" xlink:href="#dirArrow" transform="translate(30 24)" onmousedown="handlePan(0,-1)">
                  <use xlink:href="#rim" fill="#404040">
                        <set attributeName="fill" to="#808080" begin="arrowUp.mouseover" end="arrowUp.mouseout"/>
                  </use>
                  <path fill="none" stroke="white" stroke-width="1.5" d="M0,-3.0v7 M-2.5,-0.5L0,-3.0L2.5,-0.5"/>
                </g>
                <g id="arrowRight" xlink:href="#dirArrow" transform="rotate(90) translate(36 -43)" onmousedown="handlePan(1,0)">
                  <use xlink:href="#rim" fill="#404040">
                        <set attributeName="fill" to="#808080" begin="arrowRight.mouseover" end="arrowRight.mouseout"/>
                  </use>
                  <path fill="none" stroke="white" stroke-width="1.5" d="M0,-3.0v7 M-2.5,-0.5L0,-3.0L2.5,-0.5"/>
                </g>
                <g id="arrowDown" xlink:href="#dirArrow" transform="rotate(180) translate(-30 -48)" onmousedown="handlePan(0,1)">
                  <use xlink:href="#rim" fill="#404040">
                        <set attributeName="fill" to="#808080" begin="arrowDown.mouseover" end="arrowDown.mouseout"/>
                  </use>
                  <path fill="none" stroke="white" stroke-width="1.5" d="M0,-3.0v7 M-2.5,-0.5L0,-3.0L2.5,-0.5"/>
                </g>
                <g id="arrowLeft" xlink:href="#dirArrow" transform="rotate(270) translate(-36 17)" onmousedown="handlePan(-1,0)">
                  <use xlink:href="#rim" fill="#404040">
                        <set attributeName="fill" to="#808080" begin="arrowLeft.mouseover" end="arrowLeft.mouseout"/>
                  </use>
                  <path fill="none" stroke="white" stroke-width="1.5" d="M0,-3.0v7 M-2.5,-0.5L0,-3.0L2.5,-0.5"/>
                </g>
        </g>
        <svg viewBox="0 0 15 15" width="100%" height="30px" preserveAspectRatio="xMaxYMin meet">
         <g id="arrow_out" transform="scale(0.3 0.3)">
          <a xlink:href="Renderer_8h__dep__incl_org.svg" target="_base">
           <rect id="button" ry="5" rx="5" y="6" x="6" height="38" width="38"
                fill="#f2f5e9" fill-opacity="0.5" stroke="#606060" stroke-width="1.0"/>
           <path id="arrow"
             d="M 11.500037,31.436501 C 11.940474,20.09759 22.043105,11.32322 32.158766,21.979434 L 37.068811,17.246167 C 37.068811,17.246167 37.088388,32 37.088388,32 L 22.160133,31.978069 C 22.160133,31.978069 26.997745,27.140456 26.997745,27.140456 C 18.528582,18.264221 13.291696,25.230495 11.500037,31.436501 z"
             style="fill:#404040;"/>
          </a>
         </g>
        </svg>
</svg>
