<?xml version="1.0" encoding="UTF-8" standalone="no"?>
<!DOCTYPE svg PUBLIC "-//W3C//DTD SVG 1.1//EN"
 "http://www.w3.org/Graphics/SVG/1.1/DTD/svg11.dtd">
<!-- Generated by graphviz version 2.26.3 (20100126.1600)
 -->
<!-- Title: simpleanalyzer&#45;gui/src/GUI/Renderer.cpp Pages: 1 -->
<svg width="843pt" height="420pt"
 viewBox="0.00 0.00 843.13 420.00" xmlns="http://www.w3.org/2000/svg" xmlns:xlink="http://www.w3.org/1999/xlink">
<g id="graph1" class="graph" transform="scale(1 1) rotate(0) translate(4 416)">
<title>simpleanalyzer&#45;gui/src/GUI/Renderer.cpp</title>
<!-- Node1 -->
<g id="node1" class="node"><title>Node1</title>
<polygon fill="#bfbfbf" stroke="black" points="621.134,-377 621.134,-411 737.134,-411 737.134,-377 621.134,-377"/>
<text text-anchor="start" x="629.134" y="-398" font-family="Helvetica,sans-Serif" font-size="10.00">simpleanalyzer&#45;gui</text>
<text text-anchor="middle" x="679.134" y="-385" font-family="Helvetica,sans-Serif" font-size="10.00">/src/GUI/Renderer.cpp</text>
</g>
<!-- Node2 -->
<g id="node3" class="node"><title>Node2</title>
<a xlink:href="Renderer_8h.xhtml" target="_top" xlink:title="Renderer.h">
<polygon fill="none" stroke="black" points="206.634,-318.5 206.634,-339.5 271.634,-339.5 271.634,-318.5 206.634,-318.5"/>
<text text-anchor="middle" x="239.134" y="-326.5" font-family="Helvetica,sans-Serif" font-size="10.00">Renderer.h</text>
</a>
</g>
<!-- Node1&#45;&gt;Node2 -->
<g id="edge2" class="edge"><title>Node1&#45;&gt;Node2</title>
<path fill="none" stroke="midnightblue" d="M620.706,-385.369C530.881,-372.099 360.969,-346.998 281.77,-335.298"/>
<polygon fill="midnightblue" stroke="midnightblue" points="282.071,-331.805 271.667,-333.806 281.048,-338.73 282.071,-331.805"/>
</g>
<!-- Node6 -->
<g id="node11" class="node"><title>Node6</title>
<polygon fill="none" stroke="#bfbfbf" points="482.134,-0.5 482.134,-21.5 536.134,-21.5 536.134,-0.5 482.134,-0.5"/>
<text text-anchor="middle" x="509.134" y="-8.5" font-family="Helvetica,sans-Serif" font-size="10.00">iostream</text>
</g>
<!-- Node1&#45;&gt;Node6 -->
<g id="edge48" class="edge"><title>Node1&#45;&gt;Node6</title>
<path fill="none" stroke="midnightblue" d="M679.134,-376.888C679.134,-353.127 679.134,-308.797 679.134,-271 679.134,-271 679.134,-271 679.134,-148 679.134,-80.1265 595.962,-40.176 545.97,-22.2932"/>
<polygon fill="midnightblue" stroke="midnightblue" points="547.043,-18.9611 536.448,-19.0092 544.76,-25.5785 547.043,-18.9611"/>
</g>
<!-- Node12 -->
<g id="node28" class="node"><title>Node12</title>
<polygon fill="none" stroke="#bfbfbf" points="607.134,-137.5 607.134,-158.5 651.134,-158.5 651.134,-137.5 607.134,-137.5"/>
<text text-anchor="middle" x="629.134" y="-145.5" font-family="Helvetica,sans-Serif" font-size="10.00">cmath</text>
</g>
<!-- Node1&#45;&gt;Node12 -->
<g id="edge50" class="edge"><title>Node1&#45;&gt;Node12</title>
<path fill="none" stroke="midnightblue" d="M674.291,-376.563C671.443,-366.021 667.876,-352.288 665.134,-340 651.341,-278.173 638.511,-204.355 632.581,-168.958"/>
<polygon fill="midnightblue" stroke="midnightblue" points="635.998,-168.17 630.906,-158.879 629.093,-169.318 635.998,-168.17"/>
</g>
<!-- Node15 -->
<g id="node41" class="node"><title>Node15</title>
<polygon fill="none" stroke="#bfbfbf" points="707.134,-318.5 707.134,-339.5 755.134,-339.5 755.134,-318.5 707.134,-318.5"/>
<text text-anchor="middle" x="731.134" y="-326.5" font-family="Helvetica,sans-Serif" font-size="10.00">GL/gl.h</text>
</g>
<!-- Node1&#45;&gt;Node15 -->
<g id="edge52" class="edge"><title>Node1&#45;&gt;Node15</title>
<path fill="none" stroke="midnightblue" d="M692.797,-376.922C699.985,-367.937 708.811,-356.905 716.181,-347.691"/>
<polygon fill="midnightblue" stroke="midnightblue" points="718.939,-349.847 722.453,-339.852 713.473,-345.474 718.939,-349.847"/>
</g>
<!-- Node16 -->
<g id="node43" class="node"><title>Node16</title>
<polygon fill="none" stroke="#bfbfbf" points="773.134,-318.5 773.134,-339.5 835.134,-339.5 835.134,-318.5 773.134,-318.5"/>
<text text-anchor="middle" x="804.134" y="-326.5" font-family="Helvetica,sans-Serif" font-size="10.00">GL/glext.h</text>
</g>
<!-- Node1&#45;&gt;Node16 -->
<g id="edge54" class="edge"><title>Node1&#45;&gt;Node16</title>
<path fill="none" stroke="midnightblue" d="M711.977,-376.922C731.407,-366.818 755.816,-354.126 774.631,-344.342"/>
<polygon fill="midnightblue" stroke="midnightblue" points="776.38,-347.377 783.638,-339.658 773.151,-341.167 776.38,-347.377"/>
</g>
<!-- Node3 -->
<g id="node5" class="node"><title>Node3</title>
<polygon fill="none" stroke="#bfbfbf" points="86.6344,-131 86.6344,-165 175.634,-165 175.634,-131 86.6344,-131"/>
<text text-anchor="start" x="94.6344" y="-152" font-family="Helvetica,sans-Serif" font-size="10.00">../libraries/tetgen</text>
<text text-anchor="middle" x="131.134" y="-139" font-family="Helvetica,sans-Serif" font-size="10.00">/tetgen.h</text>
</g>
<!-- Node2&#45;&gt;Node3 -->
<g id="edge4" class="edge"><title>Node2&#45;&gt;Node3</title>
<path fill="none" stroke="midnightblue" d="M213.461,-318.496C197.054,-310.618 176.437,-298.377 163.134,-282 138.397,-251.545 132.223,-205.098 130.979,-175.66"/>
<polygon fill="midnightblue" stroke="midnightblue" points="134.469,-175.187 130.716,-165.279 127.471,-175.364 134.469,-175.187"/>
</g>
<!-- Node4 -->
<g id="node7" class="node"><title>Node4</title>
<polygon fill="none" stroke="#bfbfbf" points="25.1344,-137.5 25.1344,-158.5 69.1344,-158.5 69.1344,-137.5 25.1344,-137.5"/>
<text text-anchor="middle" x="47.1344" y="-145.5" font-family="Helvetica,sans-Serif" font-size="10.00">vector</text>
</g>
<!-- Node2&#45;&gt;Node4 -->
<g id="edge6" class="edge"><title>Node2&#45;&gt;Node4</title>
<path fill="none" stroke="midnightblue" d="M209.806,-318.339C190.374,-310.326 165.071,-297.989 146.134,-282 106.399,-248.448 73.6437,-195.925 57.6649,-167.631"/>
<polygon fill="midnightblue" stroke="midnightblue" points="60.6307,-165.761 52.7287,-158.704 54.5049,-169.149 60.6307,-165.761"/>
</g>
<!-- Node5 -->
<g id="node9" class="node"><title>Node5</title>
<a xlink:href="GeometryClasses_8h.xhtml" target="_top" xlink:title="../libraries/interpolate\l/GeometryClasses.h">
<polygon fill="none" stroke="black" points="233.634,-59 233.634,-93 340.634,-93 340.634,-59 233.634,-59"/>
<text text-anchor="start" x="241.634" y="-80" font-family="Helvetica,sans-Serif" font-size="10.00">../libraries/interpolate</text>
<text text-anchor="middle" x="287.134" y="-67" font-family="Helvetica,sans-Serif" font-size="10.00">/GeometryClasses.h</text>
</a>
</g>
<!-- Node2&#45;&gt;Node5 -->
<g id="edge8" class="edge"><title>Node2&#45;&gt;Node5</title>
<path fill="none" stroke="midnightblue" d="M206.588,-320.609C181.476,-313.121 146.662,-300.462 120.134,-282 52.9494,-235.241 -35.7832,-193.284 16.1344,-130 41.837,-98.6705 151.638,-85.1742 223.345,-79.6179"/>
<polygon fill="midnightblue" stroke="midnightblue" points="223.921,-83.085 233.634,-78.8546 223.403,-76.1042 223.921,-83.085"/>
</g>
<!-- Node7 -->
<g id="node13" class="node"><title>Node7</title>
<a xlink:href="ObjectData_8h.xhtml" target="_top" xlink:title="../processing/ObjectData.h">
<polygon fill="none" stroke="black" points="172.134,-260.5 172.134,-281.5 306.134,-281.5 306.134,-260.5 172.134,-260.5"/>
<text text-anchor="middle" x="239.134" y="-268.5" font-family="Helvetica,sans-Serif" font-size="10.00">../processing/ObjectData.h</text>
</a>
</g>
<!-- Node2&#45;&gt;Node7 -->
<g id="edge12" class="edge"><title>Node2&#45;&gt;Node7</title>
<path fill="none" stroke="midnightblue" d="M239.134,-318.362C239.134,-310.922 239.134,-300.743 239.134,-291.728"/>
<polygon fill="midnightblue" stroke="midnightblue" points="242.635,-291.571 239.134,-281.571 235.635,-291.571 242.635,-291.571"/>
</g>
<!-- Node10 -->
<g id="node22" class="node"><title>Node10</title>
<a xlink:href="utils_8h.xhtml" target="_top" xlink:title="utils.h">
<polygon fill="none" stroke="black" points="312.634,-202.5 312.634,-223.5 355.634,-223.5 355.634,-202.5 312.634,-202.5"/>
<text text-anchor="middle" x="334.134" y="-210.5" font-family="Helvetica,sans-Serif" font-size="10.00">utils.h</text>
</a>
</g>
<!-- Node2&#45;&gt;Node10 -->
<g id="edge44" class="edge"><title>Node2&#45;&gt;Node10</title>
<path fill="none" stroke="midnightblue" d="M265.974,-318.488C282.434,-310.737 302.673,-298.639 315.134,-282 325.581,-268.052 330.284,-248.677 332.401,-234.008"/>
<polygon fill="midnightblue" stroke="midnightblue" points="335.901,-234.21 333.568,-223.875 328.947,-233.409 335.901,-234.21"/>
</g>
<!-- Node14 -->
<g id="node32" class="node"><title>Node14</title>
<polygon fill="none" stroke="#bfbfbf" points="536.634,-137.5 536.634,-158.5 589.634,-158.5 589.634,-137.5 536.634,-137.5"/>
<text text-anchor="middle" x="563.134" y="-145.5" font-family="Helvetica,sans-Serif" font-size="10.00">wx/wx.h</text>
</g>
<!-- Node2&#45;&gt;Node14 -->
<g id="edge46" class="edge"><title>Node2&#45;&gt;Node14</title>
<path fill="none" stroke="midnightblue" d="M261.626,-318.42C281.019,-309.168 309.676,-295.185 334.134,-282 409.149,-241.56 495.341,-189.586 537.376,-163.87"/>
<polygon fill="midnightblue" stroke="midnightblue" points="539.436,-166.712 546.132,-158.502 535.777,-160.745 539.436,-166.712"/>
</g>
<!-- Node5&#45;&gt;Node6 -->
<g id="edge10" class="edge"><title>Node5&#45;&gt;Node6</title>
<path fill="none" stroke="midnightblue" d="M340.874,-60.2653C381.402,-48.3991 435.954,-32.4268 471.807,-21.9291"/>
<polygon fill="midnightblue" stroke="midnightblue" points="473.233,-25.1586 481.847,-18.9896 471.266,-18.4407 473.233,-25.1586"/>
</g>
<!-- Node7&#45;&gt;Node3 -->
<g id="edge14" class="edge"><title>Node7&#45;&gt;Node3</title>
<path fill="none" stroke="midnightblue" d="M239.376,-260.106C239.162,-245.514 236.835,-219.441 224.134,-202 214.214,-188.376 199.727,-177.647 185.127,-169.464"/>
<polygon fill="midnightblue" stroke="midnightblue" points="186.542,-166.253 176.062,-164.694 183.282,-172.448 186.542,-166.253"/>
</g>
<!-- Node7&#45;&gt;Node4 -->
<g id="edge16" class="edge"><title>Node7&#45;&gt;Node4</title>
<path fill="none" stroke="midnightblue" d="M213.182,-260.322C193.152,-251.636 165.081,-238.481 142.134,-224 114.128,-206.325 84.7901,-181.791 66.2584,-165.43"/>
<polygon fill="midnightblue" stroke="midnightblue" points="68.5707,-162.803 58.7805,-158.753 63.9083,-168.024 68.5707,-162.803"/>
</g>
<!-- Node8 -->
<g id="node17" class="node"><title>Node8</title>
<a xlink:href="Interpolator_8h.xhtml" target="_top" xlink:title="../libraries/interpolate\l/Interpolator.h">
<polygon fill="none" stroke="black" points="192.634,-131 192.634,-165 299.634,-165 299.634,-131 192.634,-131"/>
<text text-anchor="start" x="200.634" y="-152" font-family="Helvetica,sans-Serif" font-size="10.00">../libraries/interpolate</text>
<text text-anchor="middle" x="246.134" y="-139" font-family="Helvetica,sans-Serif" font-size="10.00">/Interpolator.h</text>
</a>
</g>
<!-- Node7&#45;&gt;Node8 -->
<g id="edge18" class="edge"><title>Node7&#45;&gt;Node8</title>
<path fill="none" stroke="midnightblue" d="M244.437,-260.498C248.826,-251.18 254.719,-237.06 257.134,-224 260.119,-207.86 257.689,-189.666 254.362,-175.127"/>
<polygon fill="midnightblue" stroke="midnightblue" points="257.71,-174.091 251.845,-165.268 250.927,-175.823 257.71,-174.091"/>
</g>
<!-- Node9 -->
<g id="node20" class="node"><title>Node9</title>
<polygon fill="none" stroke="#bfbfbf" points="150.634,-202.5 150.634,-223.5 215.634,-223.5 215.634,-202.5 150.634,-202.5"/>
<text text-anchor="middle" x="183.134" y="-210.5" font-family="Helvetica,sans-Serif" font-size="10.00">wx/string.h</text>
</g>
<!-- Node7&#45;&gt;Node9 -->
<g id="edge22" class="edge"><title>Node7&#45;&gt;Node9</title>
<path fill="none" stroke="midnightblue" d="M228.863,-260.362C220.89,-252.104 209.66,-240.472 200.323,-230.803"/>
<polygon fill="midnightblue" stroke="midnightblue" points="202.804,-228.334 193.341,-223.571 197.769,-233.196 202.804,-228.334"/>
</g>
<!-- Node7&#45;&gt;Node10 -->
<g id="edge24" class="edge"><title>Node7&#45;&gt;Node10</title>
<path fill="none" stroke="midnightblue" d="M256.559,-260.362C271.022,-251.532 291.804,-238.844 308.218,-228.822"/>
<polygon fill="midnightblue" stroke="midnightblue" points="310.109,-231.769 316.82,-223.571 306.462,-225.794 310.109,-231.769"/>
</g>
<!-- Node8&#45;&gt;Node5 -->
<g id="edge20" class="edge"><title>Node8&#45;&gt;Node5</title>
<path fill="none" stroke="midnightblue" d="M255.851,-130.937C260.732,-122.365 266.753,-111.791 272.206,-102.217"/>
<polygon fill="midnightblue" stroke="midnightblue" points="275.296,-103.862 277.203,-93.4407 269.213,-100.399 275.296,-103.862"/>
</g>
<!-- Node10&#45;&gt;Node3 -->
<g id="edge38" class="edge"><title>Node10&#45;&gt;Node3</title>
<path fill="none" stroke="midnightblue" d="M312.472,-206.389C285.033,-197.978 236.065,-182.841 185.445,-166.396"/>
<polygon fill="midnightblue" stroke="midnightblue" points="186.234,-162.972 175.642,-163.201 184.065,-169.628 186.234,-162.972"/>
</g>
<!-- Node10&#45;&gt;Node4 -->
<g id="edge28" class="edge"><title>Node10&#45;&gt;Node4</title>
<path fill="none" stroke="midnightblue" d="M312.574,-211.549C267.682,-207.992 161.427,-196.765 78.1344,-166 76.0474,-165.229 73.9387,-164.323 71.8551,-163.333"/>
<polygon fill="midnightblue" stroke="midnightblue" points="73.4975,-160.242 63.0261,-158.63 70.2063,-166.421 73.4975,-160.242"/>
</g>
<!-- Node10&#45;&gt;Node5 -->
<g id="edge40" class="edge"><title>Node10&#45;&gt;Node5</title>
<path fill="none" stroke="midnightblue" d="M331.076,-202.444C326.43,-186.604 317.178,-155.792 308.134,-130 305.025,-121.131 301.387,-111.542 298.022,-102.941"/>
<polygon fill="midnightblue" stroke="midnightblue" points="301.18,-101.408 294.244,-93.3991 294.671,-103.985 301.18,-101.408"/>
</g>
<!-- Node10&#45;&gt;Node6 -->
<g id="edge26" class="edge"><title>Node10&#45;&gt;Node6</title>
<path fill="none" stroke="midnightblue" d="M355.833,-209.444C394.458,-202.654 472.731,-186.659 490.134,-166 522.321,-127.792 518.015,-64.2781 513.076,-31.6867"/>
<polygon fill="midnightblue" stroke="midnightblue" points="516.479,-30.8174 511.361,-21.5405 509.576,-31.984 516.479,-30.8174"/>
</g>
<!-- Node10&#45;&gt;Node8 -->
<g id="edge42" class="edge"><title>Node10&#45;&gt;Node8</title>
<path fill="none" stroke="midnightblue" d="M319.603,-202.267C308.177,-193.827 291.843,-181.762 277.478,-171.151"/>
<polygon fill="midnightblue" stroke="midnightblue" points="279.422,-168.236 269.299,-165.11 275.263,-173.867 279.422,-168.236"/>
</g>
<!-- Node11 -->
<g id="node26" class="node"><title>Node11</title>
<polygon fill="none" stroke="#bfbfbf" points="425.134,-137.5 425.134,-158.5 481.134,-158.5 481.134,-137.5 425.134,-137.5"/>
<text text-anchor="middle" x="453.134" y="-145.5" font-family="Helvetica,sans-Serif" font-size="10.00">algorithm</text>
</g>
<!-- Node10&#45;&gt;Node11 -->
<g id="edge30" class="edge"><title>Node10&#45;&gt;Node11</title>
<path fill="none" stroke="midnightblue" d="M353.519,-202.412C372.881,-191.836 402.853,-175.465 424.866,-163.441"/>
<polygon fill="midnightblue" stroke="midnightblue" points="426.66,-166.449 433.758,-158.584 423.304,-160.306 426.66,-166.449"/>
</g>
<!-- Node10&#45;&gt;Node12 -->
<g id="edge32" class="edge"><title>Node10&#45;&gt;Node12</title>
<path fill="none" stroke="midnightblue" d="M355.667,-211.713C401.547,-208.427 511.8,-197.625 598.134,-166 600.224,-165.235 602.334,-164.332 604.418,-163.346"/>
<polygon fill="midnightblue" stroke="midnightblue" points="606.065,-166.434 613.249,-158.648 602.777,-160.254 606.065,-166.434"/>
</g>
<!-- Node13 -->
<g id="node30" class="node"><title>Node13</title>
<polygon fill="none" stroke="#bfbfbf" points="355.134,-137.5 355.134,-158.5 407.134,-158.5 407.134,-137.5 355.134,-137.5"/>
<text text-anchor="middle" x="381.134" y="-145.5" font-family="Helvetica,sans-Serif" font-size="10.00">sstream</text>
</g>
<!-- Node10&#45;&gt;Node13 -->
<g id="edge34" class="edge"><title>Node10&#45;&gt;Node13</title>
<path fill="none" stroke="midnightblue" d="M341.896,-202.267C348.877,-192.612 359.287,-178.215 367.631,-166.675"/>
<polygon fill="midnightblue" stroke="midnightblue" points="370.494,-168.688 373.518,-158.534 364.822,-164.586 370.494,-168.688"/>
</g>
<!-- Node10&#45;&gt;Node14 -->
<g id="edge36" class="edge"><title>Node10&#45;&gt;Node14</title>
<path fill="none" stroke="midnightblue" d="M355.756,-208.938C391.254,-201.98 463.865,-186.52 523.134,-166 526.062,-164.986 529.07,-163.84 532.058,-162.629"/>
<polygon fill="midnightblue" stroke="midnightblue" points="533.599,-165.777 541.414,-158.624 530.844,-159.342 533.599,-165.777"/>
</g>
</g>
</svg>
