<?xml version="1.0" encoding="UTF-8" standalone="no"?>
<!DOCTYPE svg PUBLIC "-//W3C//DTD SVG 1.1//EN"
 "http://www.w3.org/Graphics/SVG/1.1/DTD/svg11.dtd">
<!-- Generated by graphviz version 2.26.3 (20100126.1600)
 -->
<!-- Title: drawCutRenderInfo Pages: 1 -->
<!--zoomable 449 -->
<svg id="main" version="1.1" xmlns="http://www.w3.org/2000/svg" xmlns:xlink="http://www.w3.org/1999/xlink" xml:space="preserve" onload="init(evt)">
<style type="text/css"><![CDATA[
.edge:hover path { stroke: red; }
.edge:hover polygon { stroke: red; fill: red; }
]]></style>
<script type="text/javascript"><![CDATA[
var edges = document.getElementsByTagName('g');
if (edges && edges.length) {
  for (var i=0;i<edges.length;i++) {
    if (edges[i].id.substr(0,4)=='edge') {
      edges[i].setAttribute('class','edge');
    }
  }
}
]]></script>
        <defs>
                <circle id="rim" cx="0" cy="0" r="7"/>
                <circle id="rim2" cx="0" cy="0" r="3.5"/>
                <g id="zoomPlus">
                        <use xlink:href="#rim" fill="#404040">
                                <set attributeName="fill" to="#808080" begin="zoomplus.mouseover" end="zoomplus.mouseout"/>
                        </use>
                        <path d="M-4,0h8M0,-4v8" fill="none" stroke="white" stroke-width="1.5" pointer-events="none"/>
                </g>
                <g id="zoomMin">
                        <use xlink:href="#rim" fill="#404040">
                                <set attributeName="fill" to="#808080" begin="zoomminus.mouseover" end="zoomminus.mouseout"/>
                        </use>
                        <path d="M-4,0h8" fill="none" stroke="white" stroke-width="1.5" pointer-events="none"/>
                </g>
                <g id="dirArrow">
                        <path fill="none" stroke="white" stroke-width="1.5" d="M0,-3.0v7 M-2.5,-0.5L0,-3.0L2.5,-0.5"/>
                </g>
               <g id="resetDef">
                       <use xlink:href="#rim2" fill="#404040">
                               <set attributeName="fill" to="#808080" begin="reset.mouseover" end="reset.mouseout"/>
                       </use>
               </g>
        </defs>

<script type="text/javascript">
var viewWidth = 526;
var viewHeight = 449;
var sectionId = 'dynsection-1';
</script>
<script xlink:href="svgpan.js"/>
<svg id="graph" class="graph">
<g id="viewport">
<title>drawCutRenderInfo</title>
<!-- Node1 -->
<g id="node1" class="node"><title>Node1</title>
<polygon fill="#bfbfbf" stroke="black" points="0.5,-215.5 0.5,-236.5 101.5,-236.5 101.5,-215.5 0.5,-215.5"/>
<text text-anchor="middle" x="51" y="-223.5" font-family="Helvetica,sans-Serif" font-size="10.00">drawCutRenderInfo</text>
</g>
<!-- Node2 -->
<g id="node3" class="node"><title>Node2</title>
<a xlink:href="classTriangle.xhtml#a3c72b19f316fa9ffb0a2f206e3558790" target="_top" xlink:title="Gibt die Normale des Dreiecks zurück. ">
<polygon fill="none" stroke="black" points="138,-350.5 138,-371.5 240,-371.5 240,-350.5 138,-350.5"/>
<text text-anchor="middle" x="189" y="-358.5" font-family="Helvetica,sans-Serif" font-size="10.00">Triangle::getNormal</text>
</a>
</g>
<!-- Node1&#45;&gt;Node2 -->
<g id="edge2" class="edge"><title>Node1&#45;&gt;Node2</title>
<path fill="none" stroke="midnightblue" d="M57.1699,-236.683C69.9088,-257.972 101.043,-306.193 138,-336 142.413,-339.559 147.417,-342.781 152.523,-345.637"/>
<polygon fill="midnightblue" stroke="midnightblue" points="151.228,-348.907 161.72,-350.377 154.435,-342.685 151.228,-348.907"/>
</g>
<!-- Node3 -->
<g id="node5" class="node"><title>Node3</title>
<a xlink:href="classVector3D.xhtml#a46dd0d9a849809a3857783102959e788" target="_top" xlink:title="Gibt eine Kopie des Vektors zurück. ">
<polygon fill="none" stroke="black" points="294.5,-419.5 294.5,-440.5 379.5,-440.5 379.5,-419.5 294.5,-419.5"/>
<text text-anchor="middle" x="337" y="-427.5" font-family="Helvetica,sans-Serif" font-size="10.00">Vector3D::copy</text>
</a>
</g>
<!-- Node1&#45;&gt;Node3 -->
<g id="edge32" class="edge"><title>Node1&#45;&gt;Node3</title>
<path fill="none" stroke="midnightblue" d="M52.656,-236.641C58.1767,-268.19 79.0603,-361.651 138,-404 180.306,-434.397 241.074,-438.157 284.309,-436.025"/>
<polygon fill="midnightblue" stroke="midnightblue" points="284.583,-439.515 294.35,-435.41 284.155,-432.528 284.583,-439.515"/>
</g>
<!-- Node4 -->
<g id="node7" class="node"><title>Node4</title>
<a xlink:href="classVector3D.xhtml#a02364a41693ac080f5adadd776df74b4" target="_top" xlink:title="Subtrahiert einen Vektor von diesem Vektor. ">
<polygon fill="none" stroke="black" points="297,-364.5 297,-385.5 377,-385.5 377,-364.5 297,-364.5"/>
<text text-anchor="middle" x="337" y="-372.5" font-family="Helvetica,sans-Serif" font-size="10.00">Vector3D::sub</text>
</a>
</g>
<!-- Node1&#45;&gt;Node4 -->
<g id="edge34" class="edge"><title>Node1&#45;&gt;Node4</title>
<path fill="none" stroke="midnightblue" d="M53.1867,-236.884C59.7946,-266.515 82.6086,-348.57 138,-381 186.325,-409.293 253.186,-399.372 295.767,-388.273"/>
<polygon fill="midnightblue" stroke="midnightblue" points="296.798,-391.62 305.517,-385.601 294.948,-384.869 296.798,-391.62"/>
</g>
<!-- Node8 -->
<g id="node15" class="node"><title>Node8</title>
<a xlink:href="classVector3D.xhtml#a482cd77ce44ea7dd71fd7a43cb7b1cf5" target="_top" xlink:title="Gibt das Kreuzprodukt mit einem anderen Vektor zurück. ">
<polygon fill="none" stroke="black" points="276,-284.5 276,-305.5 398,-305.5 398,-284.5 276,-284.5"/>
<text text-anchor="middle" x="337" y="-292.5" font-family="Helvetica,sans-Serif" font-size="10.00">Vector3D::crossProduct</text>
</a>
</g>
<!-- Node1&#45;&gt;Node8 -->
<g id="edge36" class="edge"><title>Node1&#45;&gt;Node8</title>
<path fill="none" stroke="midnightblue" d="M80.9609,-236.528C97.6269,-242.159 118.819,-248.953 138,-254 180.588,-265.205 228.965,-275.232 267.356,-282.566"/>
<polygon fill="midnightblue" stroke="midnightblue" points="266.922,-286.045 277.398,-284.466 268.223,-279.167 266.922,-286.045"/>
</g>
<!-- Node9 -->
<g id="node20" class="node"><title>Node9</title>
<a xlink:href="classVector3D.xhtml#abfb12ecb9c9beb88e095cc4a1a512d3c" target="_top" xlink:title="Normalisiert den Vektor. ">
<polygon fill="none" stroke="black" points="284,-324.5 284,-345.5 390,-345.5 390,-324.5 284,-324.5"/>
<text text-anchor="middle" x="337" y="-332.5" font-family="Helvetica,sans-Serif" font-size="10.00">Vector3D::normalize</text>
</a>
</g>
<!-- Node1&#45;&gt;Node9 -->
<g id="edge38" class="edge"><title>Node1&#45;&gt;Node9</title>
<path fill="none" stroke="midnightblue" d="M65.7174,-236.699C82.4928,-248.473 111.083,-267.277 138,-279 182.289,-298.288 235.015,-312.774 275.064,-322.176"/>
<polygon fill="midnightblue" stroke="midnightblue" points="274.429,-325.621 284.96,-324.456 276.001,-318.8 274.429,-325.621"/>
</g>
<!-- Node10 -->
<g id="node22" class="node"><title>Node10</title>
<a xlink:href="classVector3D.xhtml#a89aeff2092d6a954cd449aca97c59197" target="_top" xlink:title="Gibt eine Referenz auf die Vektorelemente zurück (Vor allem zur Übergabe an OpenGL verwendet)...">
<polygon fill="none" stroke="black" points="288.5,-124.5 288.5,-145.5 385.5,-145.5 385.5,-124.5 288.5,-124.5"/>
<text text-anchor="middle" x="337" y="-132.5" font-family="Helvetica,sans-Serif" font-size="10.00">Vector3D::getXYZ</text>
</a>
</g>
<!-- Node1&#45;&gt;Node10 -->
<g id="edge24" class="edge"><title>Node1&#45;&gt;Node10</title>
<path fill="none" stroke="midnightblue" d="M72.0499,-215.377C89.4253,-206.899 114.893,-195.135 138,-187 184.421,-170.657 238.536,-156.84 278.607,-147.565"/>
<polygon fill="midnightblue" stroke="midnightblue" points="279.511,-150.949 288.478,-145.306 277.949,-144.125 279.511,-150.949"/>
</g>
<!-- Node11 -->
<g id="node24" class="node"><title>Node11</title>
<a xlink:href="classTriangle.xhtml#ae054a0eae5dae026c5af69274c5f277e" target="_top" xlink:title="Gibt eine Referenz auf den Ortsvektor zum ersten Punkt des Dreiecks zurück. ">
<polygon fill="none" stroke="black" points="147.5,-80.5 147.5,-101.5 230.5,-101.5 230.5,-80.5 147.5,-80.5"/>
<text text-anchor="middle" x="189" y="-88.5" font-family="Helvetica,sans-Serif" font-size="10.00">Triangle::getV1</text>
</a>
</g>
<!-- Node1&#45;&gt;Node11 -->
<g id="edge26" class="edge"><title>Node1&#45;&gt;Node11</title>
<path fill="none" stroke="midnightblue" d="M57.1699,-215.317C69.9088,-194.028 101.043,-145.807 138,-116 142.413,-112.441 147.417,-109.219 152.523,-106.363"/>
<polygon fill="midnightblue" stroke="midnightblue" points="154.435,-109.315 161.72,-101.623 151.228,-103.093 154.435,-109.315"/>
</g>
<!-- Node12 -->
<g id="node26" class="node"><title>Node12</title>
<a xlink:href="classTriangle.xhtml#a6de5f8560482f4130bdbb96b25aa1b58" target="_top" xlink:title="Gibt eine Referenz auf den Ortsvektor zum zweiten Punkt des Dreiecks zurück. ">
<polygon fill="none" stroke="black" points="147.5,-40.5 147.5,-61.5 230.5,-61.5 230.5,-40.5 147.5,-40.5"/>
<text text-anchor="middle" x="189" y="-48.5" font-family="Helvetica,sans-Serif" font-size="10.00">Triangle::getV2</text>
</a>
</g>
<!-- Node1&#45;&gt;Node12 -->
<g id="edge28" class="edge"><title>Node1&#45;&gt;Node12</title>
<path fill="none" stroke="midnightblue" d="M54.174,-215.349C62.9402,-187.675 90.063,-112.75 138,-71 139.914,-69.333 141.983,-67.7962 144.154,-66.3806"/>
<polygon fill="midnightblue" stroke="midnightblue" points="145.885,-69.4228 152.922,-61.5022 142.482,-63.3059 145.885,-69.4228"/>
</g>
<!-- Node13 -->
<g id="node28" class="node"><title>Node13</title>
<a xlink:href="classTriangle.xhtml#a792a627dc42adad87c0b30e16a6b5824" target="_top" xlink:title="Gibt eine Referenz auf den Ortsvektor zum dritten Punkt des Dreiecks zurück. ">
<polygon fill="none" stroke="black" points="147.5,-0.5 147.5,-21.5 230.5,-21.5 230.5,-0.5 147.5,-0.5"/>
<text text-anchor="middle" x="189" y="-8.5" font-family="Helvetica,sans-Serif" font-size="10.00">Triangle::getV3</text>
</a>
</g>
<!-- Node1&#45;&gt;Node13 -->
<g id="edge30" class="edge"><title>Node1&#45;&gt;Node13</title>
<path fill="none" stroke="midnightblue" d="M52.8762,-215.05C59.0117,-182.464 81.4353,-85.0249 138,-31 139.621,-29.4522 141.375,-28.0199 143.225,-26.695"/>
<polygon fill="midnightblue" stroke="midnightblue" points="145.042,-29.6861 151.826,-21.548 141.448,-23.6793 145.042,-29.6861"/>
</g>
<!-- Node14 -->
<g id="node34" class="node"><title>Node14</title>
<a xlink:href="classVector3D.xhtml#a3dec11494c99de7370e3877054c3ef13" target="_top" xlink:title="Multipliziert den Vektor mit einem Skalar. ">
<polygon fill="none" stroke="black" points="295.5,-84.5 295.5,-105.5 378.5,-105.5 378.5,-84.5 295.5,-84.5"/>
<text text-anchor="middle" x="337" y="-92.5" font-family="Helvetica,sans-Serif" font-size="10.00">Vector3D::mult</text>
</a>
</g>
<!-- Node1&#45;&gt;Node14 -->
<g id="edge40" class="edge"><title>Node1&#45;&gt;Node14</title>
<path fill="none" stroke="midnightblue" d="M60.9632,-215.38C76.161,-199.774 106.686,-170.694 138,-154 185.002,-128.943 244.07,-113.152 285.601,-104.28"/>
<polygon fill="midnightblue" stroke="midnightblue" points="286.419,-107.685 295.499,-102.225 284.997,-100.831 286.419,-107.685"/>
</g>
<!-- Node15 -->
<g id="node36" class="node"><title>Node15</title>
<a xlink:href="Renderer_8cpp.xhtml#a4225af4db7b633515f133a4f40c72b33" target="_top" xlink:title="Zeichnet einen Vektor als Pfeil. ">
<polygon fill="none" stroke="black" points="156,-196.5 156,-217.5 222,-217.5 222,-196.5 156,-196.5"/>
<text text-anchor="middle" x="189" y="-204.5" font-family="Helvetica,sans-Serif" font-size="10.00">drawVector</text>
</a>
</g>
<!-- Node1&#45;&gt;Node15 -->
<g id="edge42" class="edge"><title>Node1&#45;&gt;Node15</title>
<path fill="none" stroke="midnightblue" d="M101.603,-219.033C115.946,-217.058 131.435,-214.926 145.331,-213.012"/>
<polygon fill="midnightblue" stroke="midnightblue" points="146.173,-216.43 155.602,-211.598 145.218,-209.495 146.173,-216.43"/>
</g>
<!-- Node19 -->
<g id="node50" class="node"><title>Node19</title>
<a xlink:href="classVector3D.xhtml#a0d14ff1f789254ff90adc22628eb8347" target="_top" xlink:title="Addiert einen Vektor zu diesem Vektor. ">
<polygon fill="none" stroke="black" points="297,-244.5 297,-265.5 377,-265.5 377,-244.5 297,-244.5"/>
<text text-anchor="middle" x="337" y="-252.5" font-family="Helvetica,sans-Serif" font-size="10.00">Vector3D::add</text>
</a>
</g>
<!-- Node1&#45;&gt;Node19 -->
<g id="edge72" class="edge"><title>Node1&#45;&gt;Node19</title>
<path fill="none" stroke="midnightblue" d="M101.802,-231.151C154.02,-236.446 234.832,-244.64 286.821,-249.912"/>
<polygon fill="midnightblue" stroke="midnightblue" points="286.516,-253.399 296.818,-250.926 287.222,-246.435 286.516,-253.399"/>
</g>
<!-- Node2&#45;&gt;Node3 -->
<g id="edge4" class="edge"><title>Node2&#45;&gt;Node3</title>
<path fill="none" stroke="midnightblue" d="M211.801,-371.63C236.752,-383.263 276.935,-401.997 305.028,-415.094"/>
<polygon fill="midnightblue" stroke="midnightblue" points="303.874,-418.418 314.416,-419.471 306.832,-412.073 303.874,-418.418"/>
</g>
<!-- Node2&#45;&gt;Node4 -->
<g id="edge6" class="edge"><title>Node2&#45;&gt;Node4</title>
<path fill="none" stroke="midnightblue" d="M240.348,-365.857C255.407,-367.282 271.851,-368.837 286.836,-370.255"/>
<polygon fill="midnightblue" stroke="midnightblue" points="286.656,-373.753 296.941,-371.211 287.316,-366.784 286.656,-373.753"/>
</g>
<!-- Node2&#45;&gt;Node8 -->
<g id="edge14" class="edge"><title>Node2&#45;&gt;Node8</title>
<path fill="none" stroke="midnightblue" d="M206.892,-350.387C224.182,-340.411 251.31,-325.485 276,-315 281.065,-312.849 286.445,-310.784 291.831,-308.851"/>
<polygon fill="midnightblue" stroke="midnightblue" points="293.153,-312.097 301.464,-305.526 290.869,-305.481 293.153,-312.097"/>
</g>
<!-- Node2&#45;&gt;Node9 -->
<g id="edge22" class="edge"><title>Node2&#45;&gt;Node9</title>
<path fill="none" stroke="midnightblue" d="M240.348,-351.979C251.15,-350.082 262.666,-348.059 273.844,-346.095"/>
<polygon fill="midnightblue" stroke="midnightblue" points="274.741,-349.491 283.984,-344.314 273.529,-342.597 274.741,-349.491"/>
</g>
<!-- Node5 -->
<g id="node9" class="node"><title>Node5</title>
<a xlink:href="classVector3D.xhtml#aa9eaf29045bf32b95c5c7bcb2b8b68d7" target="_top" xlink:title="Gibt das X&#45;Element des Vektors zurück. ">
<polygon fill="none" stroke="black" points="434,-304.5 434,-325.5 518,-325.5 518,-304.5 434,-304.5"/>
<text text-anchor="middle" x="476" y="-312.5" font-family="Helvetica,sans-Serif" font-size="10.00">Vector3D::getX</text>
</a>
</g>
<!-- Node4&#45;&gt;Node5 -->
<g id="edge8" class="edge"><title>Node4&#45;&gt;Node5</title>
<path fill="none" stroke="midnightblue" d="M372.505,-364.401C380.955,-361.593 389.875,-358.391 398,-355 415.166,-347.836 433.721,-338.395 448.425,-330.484"/>
<polygon fill="midnightblue" stroke="midnightblue" points="450.376,-333.407 457.479,-325.545 447.024,-327.262 450.376,-333.407"/>
</g>
<!-- Node6 -->
<g id="node11" class="node"><title>Node6</title>
<a xlink:href="classVector3D.xhtml#aa3ffff17b886274a58417dfe4bb4c4a2" target="_top" xlink:title="Gibt das Y&#45;Element des Vektors zurück. ">
<polygon fill="none" stroke="black" points="434,-264.5 434,-285.5 518,-285.5 518,-264.5 434,-264.5"/>
<text text-anchor="middle" x="476" y="-272.5" font-family="Helvetica,sans-Serif" font-size="10.00">Vector3D::getY</text>
</a>
</g>
<!-- Node4&#45;&gt;Node6 -->
<g id="edge10" class="edge"><title>Node4&#45;&gt;Node6</title>
<path fill="none" stroke="midnightblue" d="M377.155,-366.375C384.579,-363.567 391.903,-359.867 398,-355 422.306,-335.601 410.98,-315.909 434,-295 435.651,-293.5 437.436,-292.091 439.304,-290.77"/>
<polygon fill="midnightblue" stroke="midnightblue" points="441.171,-293.732 447.893,-285.542 437.531,-287.752 441.171,-293.732"/>
</g>
<!-- Node7 -->
<g id="node13" class="node"><title>Node7</title>
<a xlink:href="classVector3D.xhtml#ab0dcbf253ff78856eccb5ea74d080fc7" target="_top" xlink:title="Gibt das Z&#45;Element des Vektors zurück. ">
<polygon fill="none" stroke="black" points="434.5,-224.5 434.5,-245.5 517.5,-245.5 517.5,-224.5 434.5,-224.5"/>
<text text-anchor="middle" x="476" y="-232.5" font-family="Helvetica,sans-Serif" font-size="10.00">Vector3D::getZ</text>
</a>
</g>
<!-- Node4&#45;&gt;Node7 -->
<g id="edge12" class="edge"><title>Node4&#45;&gt;Node7</title>
<path fill="none" stroke="midnightblue" d="M377.003,-367.643C384.698,-364.732 392.165,-360.67 398,-355 431.878,-322.082 402.29,-290.011 434,-255 435.155,-253.724 436.41,-252.522 437.738,-251.391"/>
<polygon fill="midnightblue" stroke="midnightblue" points="439.775,-254.237 445.988,-245.655 435.78,-248.49 439.775,-254.237"/>
</g>
<!-- Node8&#45;&gt;Node5 -->
<g id="edge20" class="edge"><title>Node8&#45;&gt;Node5</title>
<path fill="none" stroke="midnightblue" d="M398.372,-303.831C406.852,-305.051 415.495,-306.294 423.787,-307.487"/>
<polygon fill="midnightblue" stroke="midnightblue" points="423.297,-310.953 433.694,-308.913 424.294,-304.024 423.297,-310.953"/>
</g>
<!-- Node8&#45;&gt;Node6 -->
<g id="edge18" class="edge"><title>Node8&#45;&gt;Node6</title>
<path fill="none" stroke="midnightblue" d="M398.372,-286.169C406.852,-284.949 415.495,-283.706 423.787,-282.513"/>
<polygon fill="midnightblue" stroke="midnightblue" points="424.294,-285.976 433.694,-281.087 423.297,-279.047 424.294,-285.976"/>
</g>
<!-- Node8&#45;&gt;Node7 -->
<g id="edge16" class="edge"><title>Node8&#45;&gt;Node7</title>
<path fill="none" stroke="midnightblue" d="M372.909,-284.487C381.26,-281.697 390.034,-278.481 398,-275 414.772,-267.671 417.729,-263.383 434,-255 437.28,-253.31 440.727,-251.586 444.177,-249.895"/>
<polygon fill="midnightblue" stroke="midnightblue" points="445.719,-253.036 453.203,-245.537 442.676,-246.733 445.719,-253.036"/>
</g>
<!-- Node15&#45;&gt;Node8 -->
<g id="edge60" class="edge"><title>Node15&#45;&gt;Node8</title>
<path fill="none" stroke="midnightblue" d="M199.923,-217.618C215.593,-232.336 245.894,-258.937 276,-275 279.979,-277.123 284.225,-279.075 288.553,-280.856"/>
<polygon fill="midnightblue" stroke="midnightblue" points="287.498,-284.199 298.089,-284.484 289.987,-277.657 287.498,-284.199"/>
</g>
<!-- Node15&#45;&gt;Node9 -->
<g id="edge44" class="edge"><title>Node15&#45;&gt;Node9</title>
<path fill="none" stroke="midnightblue" d="M194.699,-217.595C206.805,-239.116 237.179,-288.169 276,-315 278.836,-316.96 281.878,-318.739 285.034,-320.351"/>
<polygon fill="midnightblue" stroke="midnightblue" points="283.601,-323.544 294.156,-324.467 286.48,-317.164 283.601,-323.544"/>
</g>
<!-- Node15&#45;&gt;Node10 -->
<g id="edge54" class="edge"><title>Node15&#45;&gt;Node10</title>
<path fill="none" stroke="midnightblue" d="M212.852,-196.448C221.585,-192.29 231.423,-187.254 240,-182 257.054,-171.552 258.262,-164.238 276,-155 280.057,-152.887 284.382,-150.937 288.783,-149.153"/>
<polygon fill="midnightblue" stroke="midnightblue" points="290.34,-152.307 298.469,-145.512 287.877,-145.755 290.34,-152.307"/>
</g>
<!-- Node15&#45;&gt;Node14 -->
<g id="edge70" class="edge"><title>Node15&#45;&gt;Node14</title>
<path fill="none" stroke="midnightblue" d="M196.332,-196.268C209.888,-177.21 240.725,-137.366 276,-115 279.15,-113.003 282.519,-111.186 285.996,-109.536"/>
<polygon fill="midnightblue" stroke="midnightblue" points="287.54,-112.683 295.376,-105.552 284.803,-106.24 287.54,-112.683"/>
</g>
<!-- Node16 -->
<g id="node39" class="node"><title>Node16</title>
<a xlink:href="classVector3D.xhtml#ac83e936757114f32bc9d868ea5fabbc2" target="_top" xlink:title="Testet, ob zwei Vektoren identisch sind. ">
<polygon fill="none" stroke="black" points="291,-204.5 291,-225.5 383,-225.5 383,-204.5 291,-204.5"/>
<text text-anchor="middle" x="337" y="-212.5" font-family="Helvetica,sans-Serif" font-size="10.00">Vector3D::equals</text>
</a>
</g>
<!-- Node15&#45;&gt;Node16 -->
<g id="edge46" class="edge"><title>Node15&#45;&gt;Node16</title>
<path fill="none" stroke="midnightblue" d="M222.214,-208.795C239.487,-209.729 261.071,-210.896 280.847,-211.965"/>
<polygon fill="midnightblue" stroke="midnightblue" points="280.817,-215.468 290.991,-212.513 281.195,-208.478 280.817,-215.468"/>
</g>
<!-- Node17 -->
<g id="node45" class="node"><title>Node17</title>
<a xlink:href="classVector3D.xhtml#a2e3aa1d244483abcb1a8e48e47e79512" target="_top" xlink:title="Gibt die Länge des Vektors zurück. ">
<polygon fill="none" stroke="black" points="283.5,-164.5 283.5,-185.5 390.5,-185.5 390.5,-164.5 283.5,-164.5"/>
<text text-anchor="middle" x="337" y="-172.5" font-family="Helvetica,sans-Serif" font-size="10.00">Vector3D::getLength</text>
</a>
</g>
<!-- Node15&#45;&gt;Node17 -->
<g id="edge56" class="edge"><title>Node15&#45;&gt;Node17</title>
<path fill="none" stroke="midnightblue" d="M222.214,-199.819C238.761,-196.241 259.265,-191.808 278.345,-187.682"/>
<polygon fill="midnightblue" stroke="midnightblue" points="279.13,-191.093 288.164,-185.559 277.651,-184.252 279.13,-191.093"/>
</g>
<!-- Node15&#45;&gt;Node19 -->
<g id="edge62" class="edge"><title>Node15&#45;&gt;Node19</title>
<path fill="none" stroke="midnightblue" d="M221.479,-217.534C243.071,-224.537 271.635,-233.801 294.958,-241.365"/>
<polygon fill="midnightblue" stroke="midnightblue" points="294.005,-244.735 304.597,-244.491 296.164,-238.076 294.005,-244.735"/>
</g>
<!-- Node16&#45;&gt;Node5 -->
<g id="edge48" class="edge"><title>Node16&#45;&gt;Node5</title>
<path fill="none" stroke="midnightblue" d="M381.903,-225.556C387.661,-228.072 393.209,-231.176 398,-235 422.306,-254.399 410.98,-274.091 434,-295 435.651,-296.5 437.436,-297.909 439.304,-299.23"/>
<polygon fill="midnightblue" stroke="midnightblue" points="437.531,-302.248 447.893,-304.458 441.171,-296.268 437.531,-302.248"/>
</g>
<!-- Node16&#45;&gt;Node6 -->
<g id="edge50" class="edge"><title>Node16&#45;&gt;Node6</title>
<path fill="none" stroke="midnightblue" d="M372.909,-225.513C381.26,-228.303 390.034,-231.519 398,-235 414.772,-242.329 417.729,-246.617 434,-255 437.28,-256.69 440.727,-258.414 444.177,-260.105"/>
<polygon fill="midnightblue" stroke="midnightblue" points="442.676,-263.267 453.203,-264.463 445.719,-256.964 442.676,-263.267"/>
</g>
<!-- Node16&#45;&gt;Node7 -->
<g id="edge52" class="edge"><title>Node16&#45;&gt;Node7</title>
<path fill="none" stroke="midnightblue" d="M383.285,-221.66C396.375,-223.543 410.707,-225.605 424.104,-227.533"/>
<polygon fill="midnightblue" stroke="midnightblue" points="423.734,-231.016 434.13,-228.976 424.731,-224.087 423.734,-231.016"/>
</g>
<!-- Node18 -->
<g id="node47" class="node"><title>Node18</title>
<a xlink:href="GeometryClasses_8cpp.xhtml#a73527f20206c906e9f333e0f233de13e" target="_top" xlink:title="sqr">
<polygon fill="none" stroke="black" points="461,-164.5 461,-185.5 491,-185.5 491,-164.5 461,-164.5"/>
<text text-anchor="middle" x="476" y="-172.5" font-family="Helvetica,sans-Serif" font-size="10.00">sqr</text>
</a>
</g>
<!-- Node17&#45;&gt;Node18 -->
<g id="edge58" class="edge"><title>Node17&#45;&gt;Node18</title>
<path fill="none" stroke="midnightblue" d="M390.741,-175C411.422,-175 434.067,-175 450.819,-175"/>
<polygon fill="midnightblue" stroke="midnightblue" points="450.896,-178.5 460.896,-175 450.896,-171.5 450.896,-178.5"/>
</g>
<!-- Node19&#45;&gt;Node5 -->
<g id="edge64" class="edge"><title>Node19&#45;&gt;Node5</title>
<path fill="none" stroke="midnightblue" d="M372.909,-265.513C381.26,-268.303 390.034,-271.519 398,-275 414.772,-282.329 417.729,-286.617 434,-295 437.28,-296.69 440.727,-298.414 444.177,-300.105"/>
<polygon fill="midnightblue" stroke="midnightblue" points="442.676,-303.267 453.203,-304.463 445.719,-296.964 442.676,-303.267"/>
</g>
<!-- Node19&#45;&gt;Node6 -->
<g id="edge66" class="edge"><title>Node19&#45;&gt;Node6</title>
<path fill="none" stroke="midnightblue" d="M377.205,-260.785C391.806,-262.886 408.519,-265.291 423.994,-267.517"/>
<polygon fill="midnightblue" stroke="midnightblue" points="423.554,-270.99 433.951,-268.95 424.551,-264.061 423.554,-270.99"/>
</g>
<!-- Node19&#45;&gt;Node7 -->
<g id="edge68" class="edge"><title>Node19&#45;&gt;Node7</title>
<path fill="none" stroke="midnightblue" d="M377.205,-249.215C391.938,-247.095 408.82,-244.666 424.412,-242.423"/>
<polygon fill="midnightblue" stroke="midnightblue" points="425.037,-245.869 434.437,-240.98 424.04,-238.94 425.037,-245.869"/>
</g>
</g>
</svg>
        <g id="navigator" transform="translate(0 0)" fill="#404254">
                <rect fill="#f2f5e9" fill-opacity="0.5" stroke="#606060" stroke-width=".5" x="0" y="0" width="60" height="60"/>
                <use id="zoomplus" xlink:href="#zoomPlus" x="17" y="9" onmousedown="handleZoom(evt,'in')"/>
                <use id="zoomminus" xlink:href="#zoomMin" x="42" y="9" onmousedown="handleZoom(evt,'out')"/>
                <use id="reset" xlink:href="#resetDef" x="30" y="36" onmousedown="handleReset()"/>
                <g id="arrowUp" xlink:href="#dirArrow" transform="translate(30 24)" onmousedown="handlePan(0,-1)">
                  <use xlink:href="#rim" fill="#404040">
                        <set attributeName="fill" to="#808080" begin="arrowUp.mouseover" end="arrowUp.mouseout"/>
                  </use>
                  <path fill="none" stroke="white" stroke-width="1.5" d="M0,-3.0v7 M-2.5,-0.5L0,-3.0L2.5,-0.5"/>
                </g>
                <g id="arrowRight" xlink:href="#dirArrow" transform="rotate(90) translate(36 -43)" onmousedown="handlePan(1,0)">
                  <use xlink:href="#rim" fill="#404040">
                        <set attributeName="fill" to="#808080" begin="arrowRight.mouseover" end="arrowRight.mouseout"/>
                  </use>
                  <path fill="none" stroke="white" stroke-width="1.5" d="M0,-3.0v7 M-2.5,-0.5L0,-3.0L2.5,-0.5"/>
                </g>
                <g id="arrowDown" xlink:href="#dirArrow" transform="rotate(180) translate(-30 -48)" onmousedown="handlePan(0,1)">
                  <use xlink:href="#rim" fill="#404040">
                        <set attributeName="fill" to="#808080" begin="arrowDown.mouseover" end="arrowDown.mouseout"/>
                  </use>
                  <path fill="none" stroke="white" stroke-width="1.5" d="M0,-3.0v7 M-2.5,-0.5L0,-3.0L2.5,-0.5"/>
                </g>
                <g id="arrowLeft" xlink:href="#dirArrow" transform="rotate(270) translate(-36 17)" onmousedown="handlePan(-1,0)">
                  <use xlink:href="#rim" fill="#404040">
                        <set attributeName="fill" to="#808080" begin="arrowLeft.mouseover" end="arrowLeft.mouseout"/>
                  </use>
                  <path fill="none" stroke="white" stroke-width="1.5" d="M0,-3.0v7 M-2.5,-0.5L0,-3.0L2.5,-0.5"/>
                </g>
        </g>
        <svg viewBox="0 0 15 15" width="100%" height="30px" preserveAspectRatio="xMaxYMin meet">
         <g id="arrow_out" transform="scale(0.3 0.3)">
          <a xlink:href="Renderer_8cpp_a608a02845726b8844beac12e5154c500_cgraph_org.svg" target="_base">
           <rect id="button" ry="5" rx="5" y="6" x="6" height="38" width="38"
                fill="#f2f5e9" fill-opacity="0.5" stroke="#606060" stroke-width="1.0"/>
           <path id="arrow"
             d="M 11.500037,31.436501 C 11.940474,20.09759 22.043105,11.32322 32.158766,21.979434 L 37.068811,17.246167 C 37.068811,17.246167 37.088388,32 37.088388,32 L 22.160133,31.978069 C 22.160133,31.978069 26.997745,27.140456 26.997745,27.140456 C 18.528582,18.264221 13.291696,25.230495 11.500037,31.436501 z"
             style="fill:#404040;"/>
          </a>
         </g>
        </svg>
</svg>
