<?xml version="1.0" encoding="UTF-8" standalone="no"?>
<!DOCTYPE svg PUBLIC "-//W3C//DTD SVG 1.1//EN"
 "http://www.w3.org/Graphics/SVG/1.1/DTD/svg11.dtd">
<!-- Generated by graphviz version 2.26.3 (20100126.1600)
 -->
<!-- Title: /daten/Projekte/eclipse_workspace/simpleanalyzer&#45;gui/src/GUI/Renderer.h Pages: 1 -->
<svg width="650pt" height="374pt"
 viewBox="0.00 0.00 650.02 374.00" xmlns="http://www.w3.org/2000/svg" xmlns:xlink="http://www.w3.org/1999/xlink">
<g id="graph1" class="graph" transform="scale(1 1) rotate(0) translate(4 370)">
<title>/daten/Projekte/eclipse_workspace/simpleanalyzer&#45;gui/src/GUI/Renderer.h</title>
<!-- Node1 -->
<g id="node1" class="node"><title>Node1</title>
<polygon fill="#bfbfbf" stroke="black" points="218.5,-318.5 218.5,-365.5 355.5,-365.5 355.5,-318.5 218.5,-318.5"/>
<text text-anchor="start" x="226.5" y="-352.5" font-family="Helvetica,sans-Serif" font-size="10.00">/daten/Projekte/eclipse</text>
<text text-anchor="start" x="226.5" y="-339.5" font-family="Helvetica,sans-Serif" font-size="10.00">_workspace/simpleanalyzer</text>
<text text-anchor="middle" x="287" y="-326.5" font-family="Helvetica,sans-Serif" font-size="10.00">&#45;gui/src/GUI/Renderer.h</text>
</g>
<!-- Node2 -->
<g id="node3" class="node"><title>Node2</title>
<polygon fill="none" stroke="#bfbfbf" points="-0.5,-131 -0.5,-165 88.5,-165 88.5,-131 -0.5,-131"/>
<text text-anchor="start" x="7.5" y="-152" font-family="Helvetica,sans-Serif" font-size="10.00">../libraries/tetgen</text>
<text text-anchor="middle" x="44" y="-139" font-family="Helvetica,sans-Serif" font-size="10.00">/tetgen.h</text>
</g>
<!-- Node1&#45;&gt;Node2 -->
<g id="edge2" class="edge"><title>Node1&#45;&gt;Node2</title>
<path fill="none" stroke="midnightblue" d="M218.231,-321.624C193.264,-312.127 165.848,-299.078 144,-282 105.616,-251.996 74.5797,-203.737 57.7547,-174.056"/>
<polygon fill="midnightblue" stroke="midnightblue" points="60.7099,-172.168 52.8002,-165.119 54.5877,-175.562 60.7099,-172.168"/>
</g>
<!-- Node3 -->
<g id="node5" class="node"><title>Node3</title>
<polygon fill="none" stroke="#bfbfbf" points="106,-137.5 106,-158.5 150,-158.5 150,-137.5 106,-137.5"/>
<text text-anchor="middle" x="128" y="-145.5" font-family="Helvetica,sans-Serif" font-size="10.00">vector</text>
</g>
<!-- Node1&#45;&gt;Node3 -->
<g id="edge4" class="edge"><title>Node1&#45;&gt;Node3</title>
<path fill="none" stroke="midnightblue" d="M218.467,-322.708C196.978,-313.56 174.986,-300.459 160,-282 133.25,-249.05 128.209,-197.398 127.634,-168.801"/>
<polygon fill="midnightblue" stroke="midnightblue" points="131.134,-168.718 127.601,-158.729 124.134,-168.741 131.134,-168.718"/>
</g>
<!-- Node4 -->
<g id="node7" class="node"><title>Node4</title>
<a xlink:href="GeometryClasses_8h.xhtml" target="_top" xlink:title="../libraries/interpolate\l/GeometryClasses.h">
<polygon fill="none" stroke="black" points="329.5,-59 329.5,-93 436.5,-93 436.5,-59 329.5,-59"/>
<text text-anchor="start" x="337.5" y="-80" font-family="Helvetica,sans-Serif" font-size="10.00">../libraries/interpolate</text>
<text text-anchor="middle" x="383" y="-67" font-family="Helvetica,sans-Serif" font-size="10.00">/GeometryClasses.h</text>
</a>
</g>
<!-- Node1&#45;&gt;Node4 -->
<g id="edge6" class="edge"><title>Node1&#45;&gt;Node4</title>
<path fill="none" stroke="midnightblue" d="M355.837,-329.462C438.67,-310.284 574.183,-264.911 635,-166 643.38,-152.37 645.059,-142.443 635,-130 611.756,-101.248 513.499,-87.1135 446.769,-80.7063"/>
<polygon fill="midnightblue" stroke="midnightblue" points="447.036,-77.2161 436.756,-79.7797 446.391,-84.1863 447.036,-77.2161"/>
</g>
<!-- Node6 -->
<g id="node11" class="node"><title>Node6</title>
<a xlink:href="ObjectData_8h.xhtml" target="_top" xlink:title="../processing/ObjectData.h">
<polygon fill="none" stroke="black" points="169,-260.5 169,-281.5 303,-281.5 303,-260.5 169,-260.5"/>
<text text-anchor="middle" x="236" y="-268.5" font-family="Helvetica,sans-Serif" font-size="10.00">../processing/ObjectData.h</text>
</a>
</g>
<!-- Node1&#45;&gt;Node6 -->
<g id="edge10" class="edge"><title>Node1&#45;&gt;Node6</title>
<path fill="none" stroke="midnightblue" d="M270.018,-318.358C263.394,-309.137 255.904,-298.709 249.641,-289.991"/>
<polygon fill="midnightblue" stroke="midnightblue" points="252.324,-287.726 243.647,-281.646 246.639,-291.81 252.324,-287.726"/>
</g>
<!-- Node9 -->
<g id="node20" class="node"><title>Node9</title>
<a xlink:href="utils_8h.xhtml" target="_top" xlink:title="utils.h">
<polygon fill="none" stroke="black" points="320.5,-202.5 320.5,-223.5 363.5,-223.5 363.5,-202.5 320.5,-202.5"/>
<text text-anchor="middle" x="342" y="-210.5" font-family="Helvetica,sans-Serif" font-size="10.00">utils.h</text>
</a>
</g>
<!-- Node1&#45;&gt;Node9 -->
<g id="edge42" class="edge"><title>Node1&#45;&gt;Node9</title>
<path fill="none" stroke="midnightblue" d="M297.088,-318.339C307.522,-293.866 323.639,-256.066 333.462,-233.024"/>
<polygon fill="midnightblue" stroke="midnightblue" points="336.788,-234.149 337.49,-223.577 330.349,-231.403 336.788,-234.149"/>
</g>
<!-- Node13 -->
<g id="node30" class="node"><title>Node13</title>
<polygon fill="none" stroke="#bfbfbf" points="573.5,-137.5 573.5,-158.5 626.5,-158.5 626.5,-137.5 573.5,-137.5"/>
<text text-anchor="middle" x="600" y="-145.5" font-family="Helvetica,sans-Serif" font-size="10.00">wx/wx.h</text>
</g>
<!-- Node1&#45;&gt;Node13 -->
<g id="edge44" class="edge"><title>Node1&#45;&gt;Node13</title>
<path fill="none" stroke="midnightblue" d="M325.067,-318.406C389.597,-278.409 518.823,-198.314 574.028,-164.098"/>
<polygon fill="midnightblue" stroke="midnightblue" points="576.183,-166.88 582.839,-158.636 572.496,-160.93 576.183,-166.88"/>
</g>
<!-- Node5 -->
<g id="node9" class="node"><title>Node5</title>
<polygon fill="none" stroke="#bfbfbf" points="437,-0.5 437,-21.5 491,-21.5 491,-0.5 437,-0.5"/>
<text text-anchor="middle" x="464" y="-8.5" font-family="Helvetica,sans-Serif" font-size="10.00">iostream</text>
</g>
<!-- Node4&#45;&gt;Node5 -->
<g id="edge8" class="edge"><title>Node4&#45;&gt;Node5</title>
<path fill="none" stroke="midnightblue" d="M404.282,-58.922C416.05,-49.4785 430.636,-37.7736 442.447,-28.2957"/>
<polygon fill="midnightblue" stroke="midnightblue" points="444.868,-30.8406 450.477,-21.8521 440.487,-25.3811 444.868,-30.8406"/>
</g>
<!-- Node6&#45;&gt;Node2 -->
<g id="edge12" class="edge"><title>Node6&#45;&gt;Node2</title>
<path fill="none" stroke="midnightblue" d="M219.297,-260.3C188.208,-240.383 120.852,-197.234 79.2759,-170.599"/>
<polygon fill="midnightblue" stroke="midnightblue" points="81.1259,-167.627 70.8175,-165.18 77.3499,-173.521 81.1259,-167.627"/>
</g>
<!-- Node6&#45;&gt;Node3 -->
<g id="edge14" class="edge"><title>Node6&#45;&gt;Node3</title>
<path fill="none" stroke="midnightblue" d="M225.701,-260.322C216.678,-250.891 203.281,-236.704 192,-224 174.991,-204.847 156.18,-182.341 143.38,-166.817"/>
<polygon fill="midnightblue" stroke="midnightblue" points="145.991,-164.481 136.938,-158.976 140.582,-168.925 145.991,-164.481"/>
</g>
<!-- Node7 -->
<g id="node15" class="node"><title>Node7</title>
<a xlink:href="Interpolator_8h.xhtml" target="_top" xlink:title="../libraries/interpolate\l/Interpolator.h">
<polygon fill="none" stroke="black" points="167.5,-131 167.5,-165 274.5,-165 274.5,-131 167.5,-131"/>
<text text-anchor="start" x="175.5" y="-152" font-family="Helvetica,sans-Serif" font-size="10.00">../libraries/interpolate</text>
<text text-anchor="middle" x="221" y="-139" font-family="Helvetica,sans-Serif" font-size="10.00">/Interpolator.h</text>
</a>
</g>
<!-- Node6&#45;&gt;Node7 -->
<g id="edge16" class="edge"><title>Node6&#45;&gt;Node7</title>
<path fill="none" stroke="midnightblue" d="M248.962,-260.157C263.153,-246.886 282.796,-223.52 274,-202 269.387,-190.714 261.153,-180.514 252.529,-172.096"/>
<polygon fill="midnightblue" stroke="midnightblue" points="254.681,-169.321 244.931,-165.174 249.966,-174.496 254.681,-169.321"/>
</g>
<!-- Node8 -->
<g id="node18" class="node"><title>Node8</title>
<polygon fill="none" stroke="#bfbfbf" points="200.5,-202.5 200.5,-223.5 265.5,-223.5 265.5,-202.5 200.5,-202.5"/>
<text text-anchor="middle" x="233" y="-210.5" font-family="Helvetica,sans-Serif" font-size="10.00">wx/string.h</text>
</g>
<!-- Node6&#45;&gt;Node8 -->
<g id="edge20" class="edge"><title>Node6&#45;&gt;Node8</title>
<path fill="none" stroke="midnightblue" d="M235.45,-260.362C235.065,-252.922 234.538,-242.743 234.072,-233.728"/>
<polygon fill="midnightblue" stroke="midnightblue" points="237.559,-233.376 233.547,-223.571 230.568,-233.738 237.559,-233.376"/>
</g>
<!-- Node6&#45;&gt;Node9 -->
<g id="edge22" class="edge"><title>Node6&#45;&gt;Node9</title>
<path fill="none" stroke="midnightblue" d="M255.442,-260.362C271.804,-251.409 295.413,-238.491 313.843,-228.406"/>
<polygon fill="midnightblue" stroke="midnightblue" points="315.589,-231.441 322.681,-223.571 312.229,-225.3 315.589,-231.441"/>
</g>
<!-- Node7&#45;&gt;Node4 -->
<g id="edge18" class="edge"><title>Node7&#45;&gt;Node4</title>
<path fill="none" stroke="midnightblue" d="M259.392,-130.937C282.107,-120.841 311.072,-107.968 335.253,-97.221"/>
<polygon fill="midnightblue" stroke="midnightblue" points="336.887,-100.325 344.603,-93.0651 334.044,-93.9282 336.887,-100.325"/>
</g>
<!-- Node9&#45;&gt;Node2 -->
<g id="edge36" class="edge"><title>Node9&#45;&gt;Node2</title>
<path fill="none" stroke="midnightblue" d="M320.309,-209.235C271.68,-200.735 154.369,-179.88 98.3946,-166.139"/>
<polygon fill="midnightblue" stroke="midnightblue" points="99.2422,-162.743 88.6872,-163.66 97.5105,-169.525 99.2422,-162.743"/>
</g>
<!-- Node9&#45;&gt;Node3 -->
<g id="edge26" class="edge"><title>Node9&#45;&gt;Node3</title>
<path fill="none" stroke="midnightblue" d="M320.254,-209.417C285.336,-203.225 215.004,-188.938 159,-166 157.143,-165.239 155.261,-164.385 153.392,-163.472"/>
<polygon fill="midnightblue" stroke="midnightblue" points="154.768,-160.238 144.303,-158.587 151.454,-166.404 154.768,-160.238"/>
</g>
<!-- Node9&#45;&gt;Node4 -->
<g id="edge38" class="edge"><title>Node9&#45;&gt;Node4</title>
<path fill="none" stroke="midnightblue" d="M334.941,-202.376C325.135,-186.185 309.793,-154.622 321,-130 326.459,-118.006 336.044,-107.64 346.069,-99.2874"/>
<polygon fill="midnightblue" stroke="midnightblue" points="348.379,-101.925 354.133,-93.028 344.087,-96.3951 348.379,-101.925"/>
</g>
<!-- Node9&#45;&gt;Node5 -->
<g id="edge24" class="edge"><title>Node9&#45;&gt;Node5</title>
<path fill="none" stroke="midnightblue" d="M363.757,-210.767C408.21,-205.709 506.961,-191.766 527,-166 560.394,-123.061 511.221,-60.0015 482.408,-29.2349"/>
<polygon fill="midnightblue" stroke="midnightblue" points="484.703,-26.5723 475.245,-21.7978 479.661,-31.4283 484.703,-26.5723"/>
</g>
<!-- Node9&#45;&gt;Node7 -->
<g id="edge40" class="edge"><title>Node9&#45;&gt;Node7</title>
<path fill="none" stroke="midnightblue" d="M322.29,-202.412C306.03,-193.677 282.411,-180.99 262.071,-170.063"/>
<polygon fill="midnightblue" stroke="midnightblue" points="263.46,-166.836 252.994,-165.187 260.147,-173.003 263.46,-166.836"/>
</g>
<!-- Node10 -->
<g id="node24" class="node"><title>Node10</title>
<polygon fill="none" stroke="#bfbfbf" points="400,-137.5 400,-158.5 456,-158.5 456,-137.5 400,-137.5"/>
<text text-anchor="middle" x="428" y="-145.5" font-family="Helvetica,sans-Serif" font-size="10.00">algorithm</text>
</g>
<!-- Node9&#45;&gt;Node10 -->
<g id="edge28" class="edge"><title>Node9&#45;&gt;Node10</title>
<path fill="none" stroke="midnightblue" d="M356.201,-202.267C369.726,-192.044 390.287,-176.504 405.944,-164.67"/>
<polygon fill="midnightblue" stroke="midnightblue" points="408.196,-167.356 414.063,-158.534 403.975,-161.771 408.196,-167.356"/>
</g>
<!-- Node11 -->
<g id="node26" class="node"><title>Node11</title>
<polygon fill="none" stroke="#bfbfbf" points="474,-137.5 474,-158.5 518,-158.5 518,-137.5 474,-137.5"/>
<text text-anchor="middle" x="496" y="-145.5" font-family="Helvetica,sans-Serif" font-size="10.00">cmath</text>
</g>
<!-- Node9&#45;&gt;Node11 -->
<g id="edge30" class="edge"><title>Node9&#45;&gt;Node11</title>
<path fill="none" stroke="midnightblue" d="M363.771,-205.873C388.704,-197.44 430.55,-182.452 465,-166 466.583,-165.244 468.193,-164.436 469.805,-163.597"/>
<polygon fill="midnightblue" stroke="midnightblue" points="471.816,-166.486 478.886,-158.595 468.439,-160.354 471.816,-166.486"/>
</g>
<!-- Node12 -->
<g id="node28" class="node"><title>Node12</title>
<polygon fill="none" stroke="#bfbfbf" points="330,-137.5 330,-158.5 382,-158.5 382,-137.5 330,-137.5"/>
<text text-anchor="middle" x="356" y="-145.5" font-family="Helvetica,sans-Serif" font-size="10.00">sstream</text>
</g>
<!-- Node9&#45;&gt;Node12 -->
<g id="edge32" class="edge"><title>Node9&#45;&gt;Node12</title>
<path fill="none" stroke="midnightblue" d="M344.312,-202.267C346.289,-193.085 349.191,-179.615 351.608,-168.392"/>
<polygon fill="midnightblue" stroke="midnightblue" points="355.047,-169.046 353.731,-158.534 348.204,-167.573 355.047,-169.046"/>
</g>
<!-- Node9&#45;&gt;Node13 -->
<g id="edge34" class="edge"><title>Node9&#45;&gt;Node13</title>
<path fill="none" stroke="midnightblue" d="M363.75,-209.868C403.429,-203.812 489.933,-189.033 560,-166 563.111,-164.977 566.305,-163.79 569.467,-162.523"/>
<polygon fill="midnightblue" stroke="midnightblue" points="570.917,-165.71 578.74,-158.565 568.169,-159.272 570.917,-165.71"/>
</g>
</g>
</svg>
