<?xml version="1.0" encoding="UTF-8" standalone="no"?>
<!DOCTYPE svg PUBLIC "-//W3C//DTD SVG 1.1//EN"
 "http://www.w3.org/Graphics/SVG/1.1/DTD/svg11.dtd">
<!-- Generated by graphviz version 2.36.0 (20140111.2315)
 -->
<!-- Title: /daten/Projekte/eclipse_workspace/simpleanalyzer&#45;gui/src/SimpleAnalyzerApp.h Pages: 1 -->
<svg width="2050pt" height="128pt"
 viewBox="0.00 0.00 2050.00 128.00" xmlns="http://www.w3.org/2000/svg" xmlns:xlink="http://www.w3.org/1999/xlink">
<g id="graph0" class="graph" transform="scale(1 1) rotate(0) translate(4 124)">
<title>/daten/Projekte/eclipse_workspace/simpleanalyzer&#45;gui/src/SimpleAnalyzerApp.h</title>
<!-- Node1 -->
<g id="node1" class="node"><title>Node1</title>
<polygon fill="#bfbfbf" stroke="black" points="1018,-78.5 1018,-119.5 1164,-119.5 1164,-78.5 1018,-78.5"/>
<text text-anchor="start" x="1026" y="-107.5" font-family="Helvetica,sans-Serif" font-size="10.00">/daten/Projekte/eclipse</text>
<text text-anchor="start" x="1026" y="-96.5" font-family="Helvetica,sans-Serif" font-size="10.00">_workspace/simpleanalyzer</text>
<text text-anchor="middle" x="1091" y="-85.5" font-family="Helvetica,sans-Serif" font-size="10.00">&#45;gui/src/SimpleAnalyzerApp.h</text>
</g>
<!-- Node2 -->
<g id="node2" class="node"><title>Node2</title>
<g id="a_node2"><a xlink:href="DefaultValues_8cpp.xhtml" target="_top" xlink:title="/daten/Projekte/eclipse\l_workspace/simpleanalyzer\l&#45;gui/src/DefaultValues.cpp">
<polygon fill="none" stroke="black" points="-0.5,-0.5 -0.5,-41.5 136.5,-41.5 136.5,-0.5 -0.5,-0.5"/>
<text text-anchor="start" x="7.5" y="-29.5" font-family="Helvetica,sans-Serif" font-size="10.00">/daten/Projekte/eclipse</text>
<text text-anchor="start" x="7.5" y="-18.5" font-family="Helvetica,sans-Serif" font-size="10.00">_workspace/simpleanalyzer</text>
<text text-anchor="middle" x="68" y="-7.5" font-family="Helvetica,sans-Serif" font-size="10.00">&#45;gui/src/DefaultValues.cpp</text>
</a>
</g>
</g>
<!-- Node1&#45;&gt;Node2 -->
<g id="edge1" class="edge"><title>Node1&#45;&gt;Node2</title>
<path fill="none" stroke="midnightblue" d="M1007.68,-98.4988C842.181,-98.2957 460.767,-91.8659 145,-42 142.271,-41.5691 139.499,-41.0835 136.707,-40.5543"/>
<polygon fill="midnightblue" stroke="midnightblue" points="1007.78,-101.999 1017.78,-98.5037 1007.79,-94.9987 1007.78,-101.999"/>
</g>
<!-- Node3 -->
<g id="node3" class="node"><title>Node3</title>
<g id="a_node3"><a xlink:href="GUIAnalyzeOutputWindow_8cpp.xhtml" target="_top" xlink:title="/daten/Projekte/eclipse\l_workspace/simpleanalyzer\l&#45;gui/src/GUI/GUIAnalyzeOutputWindow.cpp">
<polygon fill="none" stroke="black" points="154.5,-0.5 154.5,-41.5 363.5,-41.5 363.5,-0.5 154.5,-0.5"/>
<text text-anchor="start" x="162.5" y="-29.5" font-family="Helvetica,sans-Serif" font-size="10.00">/daten/Projekte/eclipse</text>
<text text-anchor="start" x="162.5" y="-18.5" font-family="Helvetica,sans-Serif" font-size="10.00">_workspace/simpleanalyzer</text>
<text text-anchor="middle" x="259" y="-7.5" font-family="Helvetica,sans-Serif" font-size="10.00">&#45;gui/src/GUI/GUIAnalyzeOutputWindow.cpp</text>
</a>
</g>
</g>
<!-- Node1&#45;&gt;Node3 -->
<g id="edge2" class="edge"><title>Node1&#45;&gt;Node3</title>
<path fill="none" stroke="midnightblue" d="M1007.58,-94.1467C873.301,-87.351 601.089,-71.1244 372,-42 369.233,-41.6482 366.431,-41.2751 363.605,-40.8841"/>
<polygon fill="midnightblue" stroke="midnightblue" points="1007.62,-97.6534 1017.79,-94.6586 1007.97,-90.6621 1007.62,-97.6534"/>
</g>
<!-- Node4 -->
<g id="node4" class="node"><title>Node4</title>
<g id="a_node4"><a xlink:href="GUIAnalyzePointWindow_8cpp.xhtml" target="_top" xlink:title="/daten/Projekte/eclipse\l_workspace/simpleanalyzer\l&#45;gui/src/GUI/GUIAnalyzePointWindow.cpp">
<polygon fill="none" stroke="black" points="381.5,-0.5 381.5,-41.5 584.5,-41.5 584.5,-0.5 381.5,-0.5"/>
<text text-anchor="start" x="389.5" y="-29.5" font-family="Helvetica,sans-Serif" font-size="10.00">/daten/Projekte/eclipse</text>
<text text-anchor="start" x="389.5" y="-18.5" font-family="Helvetica,sans-Serif" font-size="10.00">_workspace/simpleanalyzer</text>
<text text-anchor="middle" x="483" y="-7.5" font-family="Helvetica,sans-Serif" font-size="10.00">&#45;gui/src/GUI/GUIAnalyzePointWindow.cpp</text>
</a>
</g>
</g>
<!-- Node1&#45;&gt;Node4 -->
<g id="edge3" class="edge"><title>Node1&#45;&gt;Node4</title>
<path fill="none" stroke="midnightblue" d="M1007.73,-90.3138C908.837,-80.7936 739.007,-63.2095 594,-42 590.9,-41.5466 587.754,-41.0717 584.58,-40.5798"/>
<polygon fill="midnightblue" stroke="midnightblue" points="1007.67,-93.824 1017.96,-91.294 1008.34,-86.8559 1007.67,-93.824"/>
</g>
<!-- Node5 -->
<g id="node5" class="node"><title>Node5</title>
<g id="a_node5"><a xlink:href="GUIColorScalePanel_8cpp.xhtml" target="_top" xlink:title="/daten/Projekte/eclipse\l_workspace/simpleanalyzer\l&#45;gui/src/GUI/GUIColorScalePanel.cpp">
<polygon fill="none" stroke="black" points="603,-0.5 603,-41.5 785,-41.5 785,-0.5 603,-0.5"/>
<text text-anchor="start" x="611" y="-29.5" font-family="Helvetica,sans-Serif" font-size="10.00">/daten/Projekte/eclipse</text>
<text text-anchor="start" x="611" y="-18.5" font-family="Helvetica,sans-Serif" font-size="10.00">_workspace/simpleanalyzer</text>
<text text-anchor="middle" x="694" y="-7.5" font-family="Helvetica,sans-Serif" font-size="10.00">&#45;gui/src/GUI/GUIColorScalePanel.cpp</text>
</a>
</g>
</g>
<!-- Node1&#45;&gt;Node5 -->
<g id="edge4" class="edge"><title>Node1&#45;&gt;Node5</title>
<path fill="none" stroke="midnightblue" d="M1007.62,-82.5328C948.065,-71.4231 866.063,-55.9997 794,-42 791.045,-41.426 788.042,-40.8401 785.01,-40.2463"/>
<polygon fill="midnightblue" stroke="midnightblue" points="1007.25,-86.0244 1017.72,-84.4165 1008.54,-79.143 1007.25,-86.0244"/>
</g>
<!-- Node6 -->
<g id="node6" class="node"><title>Node6</title>
<g id="a_node6"><a xlink:href="GUICutRenderWindow_8cpp.xhtml" target="_top" xlink:title="/daten/Projekte/eclipse\l_workspace/simpleanalyzer\l&#45;gui/src/GUI/GUICutRenderWindow.cpp">
<polygon fill="none" stroke="black" points="803,-0.5 803,-41.5 995,-41.5 995,-0.5 803,-0.5"/>
<text text-anchor="start" x="811" y="-29.5" font-family="Helvetica,sans-Serif" font-size="10.00">/daten/Projekte/eclipse</text>
<text text-anchor="start" x="811" y="-18.5" font-family="Helvetica,sans-Serif" font-size="10.00">_workspace/simpleanalyzer</text>
<text text-anchor="middle" x="899" y="-7.5" font-family="Helvetica,sans-Serif" font-size="10.00">&#45;gui/src/GUI/GUICutRenderWindow.cpp</text>
</a>
</g>
</g>
<!-- Node1&#45;&gt;Node6 -->
<g id="edge5" class="edge"><title>Node1&#45;&gt;Node6</title>
<path fill="none" stroke="midnightblue" d="M1031.91,-74.6086C1005.11,-64.0008 973.783,-51.6015 948.277,-41.5056"/>
<polygon fill="midnightblue" stroke="midnightblue" points="1030.97,-78.0019 1041.56,-78.4281 1033.55,-71.4932 1030.97,-78.0019"/>
</g>
<!-- Node7 -->
<g id="node7" class="node"><title>Node7</title>
<g id="a_node7"><a xlink:href="GUIGLCanvas_8cpp.xhtml" target="_top" xlink:title="/daten/Projekte/eclipse\l_workspace/simpleanalyzer\l&#45;gui/src/GUI/GUIGLCanvas.cpp">
<polygon fill="none" stroke="black" points="1013,-0.5 1013,-41.5 1169,-41.5 1169,-0.5 1013,-0.5"/>
<text text-anchor="start" x="1021" y="-29.5" font-family="Helvetica,sans-Serif" font-size="10.00">/daten/Projekte/eclipse</text>
<text text-anchor="start" x="1021" y="-18.5" font-family="Helvetica,sans-Serif" font-size="10.00">_workspace/simpleanalyzer</text>
<text text-anchor="middle" x="1091" y="-7.5" font-family="Helvetica,sans-Serif" font-size="10.00">&#45;gui/src/GUI/GUIGLCanvas.cpp</text>
</a>
</g>
</g>
<!-- Node1&#45;&gt;Node7 -->
<g id="edge6" class="edge"><title>Node1&#45;&gt;Node7</title>
<path fill="none" stroke="midnightblue" d="M1091,-68.2965C1091,-59.3009 1091,-49.6532 1091,-41.5056"/>
<polygon fill="midnightblue" stroke="midnightblue" points="1087.5,-68.4281 1091,-78.4281 1094.5,-68.4281 1087.5,-68.4281"/>
</g>
<!-- Node8 -->
<g id="node8" class="node"><title>Node8</title>
<g id="a_node8"><a xlink:href="GUIMainWindow_8cpp.xhtml" target="_top" xlink:title="/daten/Projekte/eclipse\l_workspace/simpleanalyzer\l&#45;gui/src/GUI/GUIMainWindow.cpp">
<polygon fill="none" stroke="black" points="1187,-0.5 1187,-41.5 1353,-41.5 1353,-0.5 1187,-0.5"/>
<text text-anchor="start" x="1195" y="-29.5" font-family="Helvetica,sans-Serif" font-size="10.00">/daten/Projekte/eclipse</text>
<text text-anchor="start" x="1195" y="-18.5" font-family="Helvetica,sans-Serif" font-size="10.00">_workspace/simpleanalyzer</text>
<text text-anchor="middle" x="1270" y="-7.5" font-family="Helvetica,sans-Serif" font-size="10.00">&#45;gui/src/GUI/GUIMainWindow.cpp</text>
</a>
</g>
</g>
<!-- Node1&#45;&gt;Node8 -->
<g id="edge7" class="edge"><title>Node1&#45;&gt;Node8</title>
<path fill="none" stroke="midnightblue" d="M1146.42,-74.4689C1171.33,-63.8921 1200.38,-51.5572 1224.06,-41.5056"/>
<polygon fill="midnightblue" stroke="midnightblue" points="1144.93,-71.2983 1137.1,-78.4281 1147.67,-77.7416 1144.93,-71.2983"/>
</g>
<!-- Node9 -->
<g id="node9" class="node"><title>Node9</title>
<g id="a_node9"><a xlink:href="PropertiesBox_8cpp.xhtml" target="_top" xlink:title="/daten/Projekte/eclipse\l_workspace/simpleanalyzer\l&#45;gui/src/GUI/PropertiesBox.cpp">
<polygon fill="none" stroke="black" points="1371.5,-0.5 1371.5,-41.5 1524.5,-41.5 1524.5,-0.5 1371.5,-0.5"/>
<text text-anchor="start" x="1379.5" y="-29.5" font-family="Helvetica,sans-Serif" font-size="10.00">/daten/Projekte/eclipse</text>
<text text-anchor="start" x="1379.5" y="-18.5" font-family="Helvetica,sans-Serif" font-size="10.00">_workspace/simpleanalyzer</text>
<text text-anchor="middle" x="1448" y="-7.5" font-family="Helvetica,sans-Serif" font-size="10.00">&#45;gui/src/GUI/PropertiesBox.cpp</text>
</a>
</g>
</g>
<!-- Node1&#45;&gt;Node9 -->
<g id="edge8" class="edge"><title>Node1&#45;&gt;Node9</title>
<path fill="none" stroke="midnightblue" d="M1173.96,-81.4105C1227.66,-70.5352 1299.05,-55.8216 1362,-42 1364.99,-41.3425 1368.05,-40.6657 1371.13,-39.9766"/>
<polygon fill="midnightblue" stroke="midnightblue" points="1173.25,-77.9826 1164.14,-83.3954 1174.64,-84.8437 1173.25,-77.9826"/>
</g>
<!-- Node10 -->
<g id="node10" class="node"><title>Node10</title>
<g id="a_node10"><a xlink:href="simpleanalyzer-gui_2src_2GUI_2Renderer_8cpp.xhtml" target="_top" xlink:title="/daten/Projekte/eclipse\l_workspace/simpleanalyzer\l&#45;gui/src/GUI/Renderer.cpp">
<polygon fill="none" stroke="black" points="1542.5,-0.5 1542.5,-41.5 1679.5,-41.5 1679.5,-0.5 1542.5,-0.5"/>
<text text-anchor="start" x="1550.5" y="-29.5" font-family="Helvetica,sans-Serif" font-size="10.00">/daten/Projekte/eclipse</text>
<text text-anchor="start" x="1550.5" y="-18.5" font-family="Helvetica,sans-Serif" font-size="10.00">_workspace/simpleanalyzer</text>
<text text-anchor="middle" x="1611" y="-7.5" font-family="Helvetica,sans-Serif" font-size="10.00">&#45;gui/src/GUI/Renderer.cpp</text>
</a>
</g>
</g>
<!-- Node1&#45;&gt;Node10 -->
<g id="edge9" class="edge"><title>Node1&#45;&gt;Node10</title>
<path fill="none" stroke="midnightblue" d="M1174.24,-90.5862C1263.45,-81.9115 1408.99,-65.6577 1533,-42 1536.02,-41.4236 1539.1,-40.7986 1542.2,-40.1376"/>
<polygon fill="midnightblue" stroke="midnightblue" points="1173.8,-87.1124 1164.18,-91.5553 1174.47,-94.0801 1173.8,-87.1124"/>
</g>
<!-- Node11 -->
<g id="node11" class="node"><title>Node11</title>
<g id="a_node11"><a xlink:href="ObjectData_8cpp.xhtml" target="_top" xlink:title="/daten/Projekte/eclipse\l_workspace/simpleanalyzer\l&#45;gui/src/processing/ObjectData.cpp">
<polygon fill="none" stroke="black" points="1698,-0.5 1698,-41.5 1868,-41.5 1868,-0.5 1698,-0.5"/>
<text text-anchor="start" x="1706" y="-29.5" font-family="Helvetica,sans-Serif" font-size="10.00">/daten/Projekte/eclipse</text>
<text text-anchor="start" x="1706" y="-18.5" font-family="Helvetica,sans-Serif" font-size="10.00">_workspace/simpleanalyzer</text>
<text text-anchor="middle" x="1783" y="-7.5" font-family="Helvetica,sans-Serif" font-size="10.00">&#45;gui/src/processing/ObjectData.cpp</text>
</a>
</g>
</g>
<!-- Node1&#45;&gt;Node11 -->
<g id="edge10" class="edge"><title>Node1&#45;&gt;Node11</title>
<path fill="none" stroke="midnightblue" d="M1174.6,-93.1748C1290.39,-85.8061 1505.92,-69.6146 1688,-42 1691.25,-41.5072 1694.56,-40.9734 1697.89,-40.4078"/>
<polygon fill="midnightblue" stroke="midnightblue" points="1174.15,-89.696 1164.39,-93.8179 1174.59,-96.6821 1174.15,-89.696"/>
</g>
<!-- Node12 -->
<g id="node12" class="node"><title>Node12</title>
<g id="a_node12"><a xlink:href="SimpleAnalyzerApp_8cpp.xhtml" target="_top" xlink:title="/daten/Projekte/eclipse\l_workspace/simpleanalyzer\l&#45;gui/src/SimpleAnalyzerApp.cpp">
<polygon fill="none" stroke="black" points="1886,-0.5 1886,-41.5 2042,-41.5 2042,-0.5 1886,-0.5"/>
<text text-anchor="start" x="1894" y="-29.5" font-family="Helvetica,sans-Serif" font-size="10.00">/daten/Projekte/eclipse</text>
<text text-anchor="start" x="1894" y="-18.5" font-family="Helvetica,sans-Serif" font-size="10.00">_workspace/simpleanalyzer</text>
<text text-anchor="middle" x="1964" y="-7.5" font-family="Helvetica,sans-Serif" font-size="10.00">&#45;gui/src/SimpleAnalyzerApp.cpp</text>
</a>
</g>
</g>
<!-- Node1&#45;&gt;Node12 -->
<g id="edge11" class="edge"><title>Node1&#45;&gt;Node12</title>
<path fill="none" stroke="midnightblue" d="M1174.1,-96.3018C1318.01,-92.421 1622.66,-80.0613 1877,-42 1879.91,-41.5642 1882.87,-41.0829 1885.85,-40.5653"/>
<polygon fill="midnightblue" stroke="midnightblue" points="1173.92,-92.8051 1164.02,-96.5668 1174.1,-99.8027 1173.92,-92.8051"/>
</g>
</g>
</svg>
