<?xml version="1.0" encoding="UTF-8" standalone="no"?>
<!DOCTYPE svg PUBLIC "-//W3C//DTD SVG 1.1//EN"
 "http://www.w3.org/Graphics/SVG/1.1/DTD/svg11.dtd">
<!-- Generated by graphviz version 2.36.0 (20140111.2315)
 -->
<!-- Title: /daten/Projekte/eclipse_workspace/simpleanalyzer&#45;gui/src/SimpleAnalyzerApp.cpp Pages: 1 -->
<svg width="1365pt" height="634pt"
 viewBox="0.00 0.00 1365.00 634.00" xmlns="http://www.w3.org/2000/svg" xmlns:xlink="http://www.w3.org/1999/xlink">
<g id="graph0" class="graph" transform="scale(1 1) rotate(0) translate(4 630)">
<title>/daten/Projekte/eclipse_workspace/simpleanalyzer&#45;gui/src/SimpleAnalyzerApp.cpp</title>
<!-- Node1 -->
<g id="node1" class="node"><title>Node1</title>
<polygon fill="#bfbfbf" stroke="black" points="193,-584.5 193,-625.5 349,-625.5 349,-584.5 193,-584.5"/>
<text text-anchor="start" x="201" y="-613.5" font-family="Helvetica,sans-Serif" font-size="10.00">/daten/Projekte/eclipse</text>
<text text-anchor="start" x="201" y="-602.5" font-family="Helvetica,sans-Serif" font-size="10.00">_workspace/simpleanalyzer</text>
<text text-anchor="middle" x="271" y="-591.5" font-family="Helvetica,sans-Serif" font-size="10.00">&#45;gui/src/SimpleAnalyzerApp.cpp</text>
</g>
<!-- Node2 -->
<g id="node2" class="node"><title>Node2</title>
<polygon fill="none" stroke="#bfbfbf" points="217,-0.5 217,-19.5 271,-19.5 271,-0.5 217,-0.5"/>
<text text-anchor="middle" x="244" y="-7.5" font-family="Helvetica,sans-Serif" font-size="10.00">iostream</text>
</g>
<!-- Node1&#45;&gt;Node2 -->
<g id="edge1" class="edge"><title>Node1&#45;&gt;Node2</title>
<path fill="none" stroke="midnightblue" d="M192.979,-601.264C112.92,-593.785 0,-568.146 0,-483 0,-483 0,-483 0,-139 0,-46.824 138.24,-20.8904 206.614,-13.7009"/>
<polygon fill="midnightblue" stroke="midnightblue" points="207.339,-17.1472 216.955,-12.7007 206.665,-10.1797 207.339,-17.1472"/>
</g>
<!-- Node3 -->
<g id="node3" class="node"><title>Node3</title>
<g id="a_node3"><a xlink:href="SimpleAnalyzerApp_8h.xhtml" target="_top" xlink:title="SimpleAnalyzerApp.h">
<polygon fill="none" stroke="black" points="297,-416.5 297,-435.5 407,-435.5 407,-416.5 297,-416.5"/>
<text text-anchor="middle" x="352" y="-423.5" font-family="Helvetica,sans-Serif" font-size="10.00">SimpleAnalyzerApp.h</text>
</a>
</g>
</g>
<!-- Node1&#45;&gt;Node3 -->
<g id="edge2" class="edge"><title>Node1&#45;&gt;Node3</title>
<path fill="none" stroke="midnightblue" d="M279.978,-584.382C295.811,-549.783 328.467,-478.425 343.76,-445.006"/>
<polygon fill="midnightblue" stroke="midnightblue" points="347.093,-446.133 348.072,-435.584 340.728,-443.22 347.093,-446.133"/>
</g>
<!-- Node5 -->
<g id="node5" class="node"><title>Node5</title>
<polygon fill="none" stroke="#bfbfbf" points="435,-130.5 435,-149.5 479,-149.5 479,-130.5 435,-130.5"/>
<text text-anchor="middle" x="457" y="-137.5" font-family="Helvetica,sans-Serif" font-size="10.00">vector</text>
</g>
<!-- Node1&#45;&gt;Node5 -->
<g id="edge71" class="edge"><title>Node1&#45;&gt;Node5</title>
<path fill="none" stroke="midnightblue" d="M260.07,-584.113C248.227,-560.665 231,-520.17 231,-483 231,-483 231,-483 231,-425 231,-296.072 375.371,-191.815 433.334,-155.152"/>
<polygon fill="midnightblue" stroke="midnightblue" points="435.522,-157.914 442.172,-149.665 431.83,-151.967 435.522,-157.914"/>
</g>
<!-- Node6 -->
<g id="node6" class="node"><title>Node6</title>
<g id="a_node6"><a xlink:href="simpleanalyzer-gui_2src_2processing_2utils_8h.xhtml" target="_top" xlink:title="processing/utils.h">
<polygon fill="none" stroke="black" points="171.5,-192.5 171.5,-211.5 264.5,-211.5 264.5,-192.5 171.5,-192.5"/>
<text text-anchor="middle" x="218" y="-199.5" font-family="Helvetica,sans-Serif" font-size="10.00">processing/utils.h</text>
</a>
</g>
</g>
<!-- Node1&#45;&gt;Node6 -->
<g id="edge70" class="edge"><title>Node1&#45;&gt;Node6</title>
<path fill="none" stroke="midnightblue" d="M232.696,-584.401C198.908,-564.071 155,-528.834 155,-483 155,-483 155,-483 155,-313 155,-275.475 182.948,-239.139 201.615,-219.055"/>
<polygon fill="midnightblue" stroke="midnightblue" points="204.272,-221.341 208.704,-211.718 199.238,-216.477 204.272,-221.341"/>
</g>
<!-- Node13 -->
<g id="node13" class="node"><title>Node13</title>
<g id="a_node13"><a xlink:href="ObjectData_8h.xhtml" target="_top" xlink:title="processing/ObjectData.h">
<polygon fill="none" stroke="black" points="383.5,-248.5 383.5,-267.5 508.5,-267.5 508.5,-248.5 383.5,-248.5"/>
<text text-anchor="middle" x="446" y="-255.5" font-family="Helvetica,sans-Serif" font-size="10.00">processing/ObjectData.h</text>
</a>
</g>
</g>
<!-- Node1&#45;&gt;Node13 -->
<g id="edge69" class="edge"><title>Node1&#45;&gt;Node13</title>
<path fill="none" stroke="midnightblue" d="M336.76,-584.419C382.386,-566.31 435,-534.305 435,-483 435,-483 435,-483 435,-369 435,-336.788 439.728,-299.532 442.985,-277.692"/>
<polygon fill="midnightblue" stroke="midnightblue" points="446.487,-277.947 444.562,-267.529 439.57,-276.874 446.487,-277.947"/>
</g>
<!-- Node18 -->
<g id="node18" class="node"><title>Node18</title>
<g id="a_node18"><a xlink:href="GUIMainWindow_8h.xhtml" target="_top" xlink:title="GUI/GUIMainWindow.h">
<polygon fill="none" stroke="black" points="748,-528.5 748,-547.5 868,-547.5 868,-528.5 748,-528.5"/>
<text text-anchor="middle" x="808" y="-535.5" font-family="Helvetica,sans-Serif" font-size="10.00">GUI/GUIMainWindow.h</text>
</a>
</g>
</g>
<!-- Node1&#45;&gt;Node18 -->
<g id="edge32" class="edge"><title>Node1&#45;&gt;Node18</title>
<path fill="none" stroke="midnightblue" d="M349.084,-594.548C453.562,-581.902 637.288,-559.663 737.666,-547.513"/>
<polygon fill="midnightblue" stroke="midnightblue" points="738.199,-550.975 747.706,-546.298 737.358,-544.025 738.199,-550.975"/>
</g>
<!-- Node4 -->
<g id="node4" class="node"><title>Node4</title>
<polygon fill="none" stroke="#bfbfbf" points="948.5,-130.5 948.5,-149.5 1001.5,-149.5 1001.5,-130.5 948.5,-130.5"/>
<text text-anchor="middle" x="975" y="-137.5" font-family="Helvetica,sans-Serif" font-size="10.00">wx/wx.h</text>
</g>
<!-- Node3&#45;&gt;Node4 -->
<g id="edge3" class="edge"><title>Node3&#45;&gt;Node4</title>
<path fill="none" stroke="midnightblue" d="M407.168,-416.583C452.692,-408.992 518.715,-396.49 575,-380 640.899,-360.693 663.303,-364.165 719,-324 754.586,-298.337 748.23,-276.01 782,-248 833.624,-205.181 904.898,-170.887 944.805,-153.483"/>
<polygon fill="midnightblue" stroke="midnightblue" points="946.203,-156.691 954.008,-149.527 943.439,-150.26 946.203,-156.691"/>
</g>
<!-- Node3&#45;&gt;Node5 -->
<g id="edge4" class="edge"><title>Node3&#45;&gt;Node5</title>
<path fill="none" stroke="midnightblue" d="M351.505,-416.488C350.298,-390.242 348.938,-308.675 374,-248 389.225,-211.141 420.715,-176.149 440.231,-156.734"/>
<polygon fill="midnightblue" stroke="midnightblue" points="442.808,-159.11 447.541,-149.631 437.93,-154.089 442.808,-159.11"/>
</g>
<!-- Node3&#45;&gt;Node6 -->
<g id="edge5" class="edge"><title>Node3&#45;&gt;Node6</title>
<path fill="none" stroke="midnightblue" d="M346.747,-416.297C326.822,-383.286 255.667,-265.404 228.576,-220.522"/>
<polygon fill="midnightblue" stroke="midnightblue" points="231.526,-218.636 223.362,-211.884 225.533,-222.254 231.526,-218.636"/>
</g>
<!-- Node3&#45;&gt;Node13 -->
<g id="edge17" class="edge"><title>Node3&#45;&gt;Node13</title>
<path fill="none" stroke="midnightblue" d="M357.054,-416.075C371.978,-389.719 416.057,-311.878 435.999,-276.661"/>
<polygon fill="midnightblue" stroke="midnightblue" points="439.266,-277.994 441.148,-267.568 433.175,-274.545 439.266,-277.994"/>
</g>
<!-- Node15 -->
<g id="node15" class="node"><title>Node15</title>
<g id="a_node15"><a xlink:href="DefaultValues_8h.xhtml" target="_top" xlink:title="DefaultValues.h">
<polygon fill="none" stroke="black" points="661,-360.5 661,-379.5 747,-379.5 747,-360.5 661,-360.5"/>
<text text-anchor="middle" x="704" y="-367.5" font-family="Helvetica,sans-Serif" font-size="10.00">DefaultValues.h</text>
</a>
</g>
</g>
<!-- Node3&#45;&gt;Node15 -->
<g id="edge23" class="edge"><title>Node3&#45;&gt;Node15</title>
<path fill="none" stroke="midnightblue" d="M407.387,-416.503C474.007,-406.283 585.05,-389.248 650.717,-379.174"/>
<polygon fill="midnightblue" stroke="midnightblue" points="651.499,-382.595 660.853,-377.619 650.438,-375.676 651.499,-382.595"/>
</g>
<!-- Node6&#45;&gt;Node2 -->
<g id="edge6" class="edge"><title>Node6&#45;&gt;Node2</title>
<path fill="none" stroke="midnightblue" d="M219.404,-192.382C220.863,-183.331 223.183,-168.679 225,-156 231.49,-110.699 238.26,-57.3061 241.699,-29.6746"/>
<polygon fill="midnightblue" stroke="midnightblue" points="245.202,-29.8628 242.958,-19.5084 238.255,-29.0024 245.202,-29.8628"/>
</g>
<!-- Node6&#45;&gt;Node4 -->
<g id="edge11" class="edge"><title>Node6&#45;&gt;Node4</title>
<path fill="none" stroke="midnightblue" d="M264.782,-197.292C403.852,-186.269 812.824,-153.854 938.101,-143.925"/>
<polygon fill="midnightblue" stroke="midnightblue" points="938.626,-147.394 948.318,-143.115 938.073,-140.416 938.626,-147.394"/>
</g>
<!-- Node6&#45;&gt;Node5 -->
<g id="edge7" class="edge"><title>Node6&#45;&gt;Node5</title>
<path fill="none" stroke="midnightblue" d="M264.713,-194.158C307.445,-187.138 372.032,-174.598 426,-156 427.908,-155.343 429.851,-154.598 431.788,-153.8"/>
<polygon fill="midnightblue" stroke="midnightblue" points="433.552,-156.844 441.218,-149.53 430.664,-150.467 433.552,-156.844"/>
</g>
<!-- Node7 -->
<g id="node7" class="node"><title>Node7</title>
<polygon fill="none" stroke="#bfbfbf" points="28,-130.5 28,-149.5 84,-149.5 84,-130.5 28,-130.5"/>
<text text-anchor="middle" x="56" y="-137.5" font-family="Helvetica,sans-Serif" font-size="10.00">algorithm</text>
</g>
<!-- Node6&#45;&gt;Node7 -->
<g id="edge8" class="edge"><title>Node6&#45;&gt;Node7</title>
<path fill="none" stroke="midnightblue" d="M193.463,-192.49C168.182,-183.645 127.683,-169.267 93,-156 90.7604,-155.143 88.4505,-154.244 86.1301,-153.33"/>
<polygon fill="midnightblue" stroke="midnightblue" points="87.2708,-150.017 76.686,-149.555 84.6723,-156.516 87.2708,-150.017"/>
</g>
<!-- Node8 -->
<g id="node8" class="node"><title>Node8</title>
<polygon fill="none" stroke="#bfbfbf" points="102,-130.5 102,-149.5 146,-149.5 146,-130.5 102,-130.5"/>
<text text-anchor="middle" x="124" y="-137.5" font-family="Helvetica,sans-Serif" font-size="10.00">cmath</text>
</g>
<!-- Node6&#45;&gt;Node8 -->
<g id="edge9" class="edge"><title>Node6&#45;&gt;Node8</title>
<path fill="none" stroke="midnightblue" d="M204.532,-192.403C189.315,-182.691 164.313,-166.732 146.199,-155.17"/>
<polygon fill="midnightblue" stroke="midnightblue" points="147.755,-152.011 137.443,-149.581 143.989,-157.911 147.755,-152.011"/>
</g>
<!-- Node9 -->
<g id="node9" class="node"><title>Node9</title>
<polygon fill="none" stroke="#bfbfbf" points="164,-130.5 164,-149.5 216,-149.5 216,-130.5 164,-130.5"/>
<text text-anchor="middle" x="190" y="-137.5" font-family="Helvetica,sans-Serif" font-size="10.00">sstream</text>
</g>
<!-- Node6&#45;&gt;Node9 -->
<g id="edge10" class="edge"><title>Node6&#45;&gt;Node9</title>
<path fill="none" stroke="midnightblue" d="M213.988,-192.403C209.913,-183.671 203.482,-169.889 198.304,-158.794"/>
<polygon fill="midnightblue" stroke="midnightblue" points="201.405,-157.162 194.004,-149.581 195.062,-160.123 201.405,-157.162"/>
</g>
<!-- Node10 -->
<g id="node10" class="node"><title>Node10</title>
<polygon fill="none" stroke="#bfbfbf" points="522.5,-125 522.5,-155 611.5,-155 611.5,-125 522.5,-125"/>
<text text-anchor="start" x="530.5" y="-143" font-family="Helvetica,sans-Serif" font-size="10.00">../libraries/tetgen</text>
<text text-anchor="middle" x="567" y="-132" font-family="Helvetica,sans-Serif" font-size="10.00">/tetgen.h</text>
</g>
<!-- Node6&#45;&gt;Node10 -->
<g id="edge12" class="edge"><title>Node6&#45;&gt;Node10</title>
<path fill="none" stroke="midnightblue" d="M264.7,-193.473C318.39,-184.752 409.14,-169.81 487,-156 495.2,-154.545 503.865,-152.966 512.346,-151.395"/>
<polygon fill="midnightblue" stroke="midnightblue" points="512.988,-154.836 522.178,-149.564 511.706,-147.954 512.988,-154.836"/>
</g>
<!-- Node11 -->
<g id="node11" class="node"><title>Node11</title>
<g id="a_node11"><a xlink:href="GeometryClasses_8h.xhtml" target="_top" xlink:title="../libraries/interpolate\l/GeometryClasses.h">
<polygon fill="none" stroke="black" points="310.5,-57 310.5,-87 417.5,-87 417.5,-57 310.5,-57"/>
<text text-anchor="start" x="318.5" y="-75" font-family="Helvetica,sans-Serif" font-size="10.00">../libraries/interpolate</text>
<text text-anchor="middle" x="364" y="-64" font-family="Helvetica,sans-Serif" font-size="10.00">/GeometryClasses.h</text>
</a>
</g>
</g>
<!-- Node6&#45;&gt;Node11 -->
<g id="edge13" class="edge"><title>Node6&#45;&gt;Node11</title>
<path fill="none" stroke="midnightblue" d="M227.027,-192.249C242.078,-177.744 273.375,-147.947 301,-124 312.893,-113.69 326.42,-102.653 337.883,-93.4933"/>
<polygon fill="midnightblue" stroke="midnightblue" points="340.161,-96.154 345.812,-87.1922 335.806,-90.6737 340.161,-96.154"/>
</g>
<!-- Node12 -->
<g id="node12" class="node"><title>Node12</title>
<g id="a_node12"><a xlink:href="Interpolator_8h.xhtml" target="_top" xlink:title="../libraries/interpolate\l/Interpolator.h">
<polygon fill="none" stroke="black" points="310.5,-125 310.5,-155 417.5,-155 417.5,-125 310.5,-125"/>
<text text-anchor="start" x="318.5" y="-143" font-family="Helvetica,sans-Serif" font-size="10.00">../libraries/interpolate</text>
<text text-anchor="middle" x="364" y="-132" font-family="Helvetica,sans-Serif" font-size="10.00">/Interpolator.h</text>
</a>
</g>
</g>
<!-- Node6&#45;&gt;Node12 -->
<g id="edge15" class="edge"><title>Node6&#45;&gt;Node12</title>
<path fill="none" stroke="midnightblue" d="M238.918,-192.403C260.056,-183.717 293.349,-170.035 320.274,-158.969"/>
<polygon fill="midnightblue" stroke="midnightblue" points="321.953,-162.064 329.872,-155.025 319.292,-155.589 321.953,-162.064"/>
</g>
<!-- Node11&#45;&gt;Node2 -->
<g id="edge14" class="edge"><title>Node11&#45;&gt;Node2</title>
<path fill="none" stroke="midnightblue" d="M335.865,-56.9327C316.072,-47.0359 289.761,-33.8803 270.37,-24.1852"/>
<polygon fill="midnightblue" stroke="midnightblue" points="271.71,-20.9417 261.2,-19.6 268.579,-27.2027 271.71,-20.9417"/>
</g>
<!-- Node12&#45;&gt;Node11 -->
<g id="edge16" class="edge"><title>Node12&#45;&gt;Node11</title>
<path fill="none" stroke="midnightblue" d="M364,-124.679C364,-116.722 364,-106.605 364,-97.4356"/>
<polygon fill="midnightblue" stroke="midnightblue" points="367.5,-97.293 364,-87.2931 360.5,-97.2931 367.5,-97.293"/>
</g>
<!-- Node13&#45;&gt;Node5 -->
<g id="edge19" class="edge"><title>Node13&#45;&gt;Node5</title>
<path fill="none" stroke="midnightblue" d="M439.983,-248.211C432.215,-235.757 420.332,-212.237 426,-192 429.473,-179.6 436.88,-167.22 443.583,-157.763"/>
<polygon fill="midnightblue" stroke="midnightblue" points="446.441,-159.785 449.642,-149.686 440.841,-155.585 446.441,-159.785"/>
</g>
<!-- Node13&#45;&gt;Node6 -->
<g id="edge22" class="edge"><title>Node13&#45;&gt;Node6</title>
<path fill="none" stroke="midnightblue" d="M409.873,-248.444C370.349,-239.083 306.903,-224.056 263.887,-213.868"/>
<polygon fill="midnightblue" stroke="midnightblue" points="264.496,-210.415 253.958,-211.516 262.882,-217.227 264.496,-210.415"/>
</g>
<!-- Node13&#45;&gt;Node10 -->
<g id="edge18" class="edge"><title>Node13&#45;&gt;Node10</title>
<path fill="none" stroke="midnightblue" d="M460.07,-248.49C473.396,-240.087 493.603,-226.431 509,-212 524.772,-197.217 540.133,-178.137 551.081,-163.479"/>
<polygon fill="midnightblue" stroke="midnightblue" points="554.204,-165.137 557.291,-155.002 548.558,-161 554.204,-165.137"/>
</g>
<!-- Node13&#45;&gt;Node12 -->
<g id="edge20" class="edge"><title>Node13&#45;&gt;Node12</title>
<path fill="none" stroke="midnightblue" d="M439.837,-248.281C427.243,-230.465 398.207,-189.39 379.939,-163.548"/>
<polygon fill="midnightblue" stroke="midnightblue" points="382.602,-161.252 373.972,-155.106 376.886,-165.292 382.602,-161.252"/>
</g>
<!-- Node14 -->
<g id="node14" class="node"><title>Node14</title>
<polygon fill="none" stroke="#bfbfbf" points="435.5,-192.5 435.5,-211.5 500.5,-211.5 500.5,-192.5 435.5,-192.5"/>
<text text-anchor="middle" x="468" y="-199.5" font-family="Helvetica,sans-Serif" font-size="10.00">wx/string.h</text>
</g>
<!-- Node13&#45;&gt;Node14 -->
<g id="edge21" class="edge"><title>Node13&#45;&gt;Node14</title>
<path fill="none" stroke="midnightblue" d="M449.633,-248.083C452.612,-240.77 456.926,-230.181 460.625,-221.103"/>
<polygon fill="midnightblue" stroke="midnightblue" points="463.903,-222.333 464.435,-211.751 457.42,-219.691 463.903,-222.333"/>
</g>
<!-- Node16 -->
<g id="node16" class="node"><title>Node16</title>
<polygon fill="none" stroke="#bfbfbf" points="791.5,-248.5 791.5,-267.5 832.5,-267.5 832.5,-248.5 791.5,-248.5"/>
<text text-anchor="middle" x="812" y="-255.5" font-family="Helvetica,sans-Serif" font-size="10.00">string</text>
</g>
<!-- Node15&#45;&gt;Node16 -->
<g id="edge24" class="edge"><title>Node15&#45;&gt;Node16</title>
<path fill="none" stroke="midnightblue" d="M723.621,-360.445C739.547,-352.734 761.779,-340.138 777,-324 789.754,-310.478 799.29,-291.415 805.161,-277.429"/>
<polygon fill="midnightblue" stroke="midnightblue" points="808.507,-278.486 808.929,-267.9 801.997,-275.913 808.507,-278.486"/>
</g>
<!-- Node17 -->
<g id="node17" class="node"><title>Node17</title>
<g id="a_node17"><a xlink:href="simpleanalyzer-gui_2src_2GUI_2Renderer_8h.xhtml" target="_top" xlink:title="GUI/Renderer.h">
<polygon fill="none" stroke="black" points="599,-304.5 599,-323.5 685,-323.5 685,-304.5 599,-304.5"/>
<text text-anchor="middle" x="642" y="-311.5" font-family="Helvetica,sans-Serif" font-size="10.00">GUI/Renderer.h</text>
</a>
</g>
</g>
<!-- Node15&#45;&gt;Node17 -->
<g id="edge25" class="edge"><title>Node15&#45;&gt;Node17</title>
<path fill="none" stroke="midnightblue" d="M694.039,-360.324C684.873,-352.341 671.063,-340.313 659.972,-330.653"/>
<polygon fill="midnightblue" stroke="midnightblue" points="661.982,-327.762 652.143,-323.834 657.385,-333.041 661.982,-327.762"/>
</g>
<!-- Node17&#45;&gt;Node4 -->
<g id="edge31" class="edge"><title>Node17&#45;&gt;Node4</title>
<path fill="none" stroke="midnightblue" d="M646.54,-304.304C658.781,-281.781 694.821,-221.262 743,-192 804.442,-154.682 889.778,-144.539 937.98,-141.865"/>
<polygon fill="midnightblue" stroke="midnightblue" points="938.43,-145.348 948.253,-141.379 938.098,-138.356 938.43,-145.348"/>
</g>
<!-- Node17&#45;&gt;Node5 -->
<g id="edge27" class="edge"><title>Node17&#45;&gt;Node5</title>
<path fill="none" stroke="midnightblue" d="M632.826,-304.47C603.544,-277.246 512.012,-192.146 473.908,-156.72"/>
<polygon fill="midnightblue" stroke="midnightblue" points="475.936,-153.827 466.23,-149.581 471.17,-158.953 475.936,-153.827"/>
</g>
<!-- Node17&#45;&gt;Node6 -->
<g id="edge30" class="edge"><title>Node17&#45;&gt;Node6</title>
<path fill="none" stroke="midnightblue" d="M598.873,-305.514C595.871,-305 592.89,-304.491 590,-304 494.05,-287.701 467.535,-294.893 374,-268 326.674,-254.393 274.35,-230.689 243.924,-215.976"/>
<polygon fill="midnightblue" stroke="midnightblue" points="245.37,-212.787 234.848,-211.54 242.295,-219.076 245.37,-212.787"/>
</g>
<!-- Node17&#45;&gt;Node10 -->
<g id="edge26" class="edge"><title>Node17&#45;&gt;Node10</title>
<path fill="none" stroke="midnightblue" d="M638.178,-304.234C626.998,-278.595 594.087,-203.119 577.22,-164.438"/>
<polygon fill="midnightblue" stroke="midnightblue" points="580.315,-162.779 573.11,-155.012 573.899,-165.577 580.315,-162.779"/>
</g>
<!-- Node17&#45;&gt;Node11 -->
<g id="edge28" class="edge"><title>Node17&#45;&gt;Node11</title>
<path fill="none" stroke="midnightblue" d="M644.1,-304.441C650.78,-274.942 668.377,-176.45 620,-124 594.575,-96.4336 495.026,-83.1945 427.822,-77.2792"/>
<polygon fill="midnightblue" stroke="midnightblue" points="428.003,-73.782 417.743,-76.4252 427.412,-80.757 428.003,-73.782"/>
</g>
<!-- Node17&#45;&gt;Node13 -->
<g id="edge29" class="edge"><title>Node17&#45;&gt;Node13</title>
<path fill="none" stroke="midnightblue" d="M610.943,-304.444C577.397,-295.201 523.803,-280.436 486.859,-270.257"/>
<polygon fill="midnightblue" stroke="midnightblue" points="487.482,-266.798 476.911,-267.516 485.623,-273.547 487.482,-266.798"/>
</g>
<!-- Node18&#45;&gt;Node4 -->
<g id="edge66" class="edge"><title>Node18&#45;&gt;Node4</title>
<path fill="none" stroke="midnightblue" d="M868.289,-531.857C935.989,-525.217 1040.86,-512.073 1075,-492 1106.89,-473.249 1127,-463.996 1127,-427 1127,-427 1127,-427 1127,-257 1127,-199.135 1056.52,-166.289 1011.55,-151.219"/>
<polygon fill="midnightblue" stroke="midnightblue" points="1012.42,-147.822 1001.82,-148.102 1010.28,-154.488 1012.42,-147.822"/>
</g>
<!-- Node19 -->
<g id="node19" class="node"><title>Node19</title>
<g id="a_node19"><a xlink:href="GUIGLCanvas_8h.xhtml" target="_top" xlink:title="GUIGLCanvas.h">
<polygon fill="none" stroke="black" points="477.5,-360.5 477.5,-379.5 566.5,-379.5 566.5,-360.5 477.5,-360.5"/>
<text text-anchor="middle" x="522" y="-367.5" font-family="Helvetica,sans-Serif" font-size="10.00">GUIGLCanvas.h</text>
</a>
</g>
</g>
<!-- Node18&#45;&gt;Node19 -->
<g id="edge33" class="edge"><title>Node18&#45;&gt;Node19</title>
<path fill="none" stroke="midnightblue" d="M747.975,-534.83C678.257,-530.995 569.177,-520.495 541,-492 514.181,-464.878 515.617,-416.358 518.879,-389.742"/>
<polygon fill="midnightblue" stroke="midnightblue" points="522.349,-390.2 520.312,-379.803 515.421,-389.201 522.349,-390.2"/>
</g>
<!-- Node21 -->
<g id="node21" class="node"><title>Node21</title>
<g id="a_node21"><a xlink:href="PropertiesBox_8h.xhtml" target="_top" xlink:title="PropertiesBox.h">
<polygon fill="none" stroke="black" points="899,-360.5 899,-379.5 985,-379.5 985,-360.5 899,-360.5"/>
<text text-anchor="middle" x="942" y="-367.5" font-family="Helvetica,sans-Serif" font-size="10.00">PropertiesBox.h</text>
</a>
</g>
</g>
<!-- Node18&#45;&gt;Node21 -->
<g id="edge38" class="edge"><title>Node18&#45;&gt;Node21</title>
<path fill="none" stroke="midnightblue" d="M794.316,-528.488C771.305,-513.262 725.646,-478.903 708,-436 704.619,-427.779 702.339,-422.853 708,-416 710.901,-412.487 820.668,-392.491 888.814,-380.367"/>
<polygon fill="midnightblue" stroke="midnightblue" points="889.726,-383.76 898.96,-378.565 888.502,-376.868 889.726,-383.76"/>
</g>
<!-- Node23 -->
<g id="node23" class="node"><title>Node23</title>
<g id="a_node23"><a xlink:href="ViewpropBox_8h.xhtml" target="_top" xlink:title="ViewpropBox.h">
<polygon fill="none" stroke="black" points="983.5,-472.5 983.5,-491.5 1066.5,-491.5 1066.5,-472.5 983.5,-472.5"/>
<text text-anchor="middle" x="1025" y="-479.5" font-family="Helvetica,sans-Serif" font-size="10.00">ViewpropBox.h</text>
</a>
</g>
</g>
<!-- Node18&#45;&gt;Node23 -->
<g id="edge45" class="edge"><title>Node18&#45;&gt;Node23</title>
<path fill="none" stroke="midnightblue" d="M842.384,-528.444C879.922,-519.102 940.131,-504.119 981.067,-493.933"/>
<polygon fill="midnightblue" stroke="midnightblue" points="981.918,-497.328 990.777,-491.516 980.227,-490.535 981.918,-497.328"/>
</g>
<!-- Node25 -->
<g id="node25" class="node"><title>Node25</title>
<g id="a_node25"><a xlink:href="GUIAnalyzeOutputWindow_8h.xhtml" target="_top" xlink:title="GUIAnalyzeOutputWindow.h">
<polygon fill="none" stroke="black" points="1155.5,-416.5 1155.5,-435.5 1298.5,-435.5 1298.5,-416.5 1155.5,-416.5"/>
<text text-anchor="middle" x="1227" y="-423.5" font-family="Helvetica,sans-Serif" font-size="10.00">GUIAnalyzeOutputWindow.h</text>
</a>
</g>
</g>
<!-- Node18&#45;&gt;Node25 -->
<g id="edge48" class="edge"><title>Node18&#45;&gt;Node25</title>
<path fill="none" stroke="midnightblue" d="M868.187,-532.549C950.354,-525.846 1092.93,-511.804 1141,-492 1168.41,-480.709 1194.82,-458.507 1210.98,-443.218"/>
<polygon fill="midnightblue" stroke="midnightblue" points="1213.72,-445.432 1218.45,-435.948 1208.84,-440.417 1213.72,-445.432"/>
</g>
<!-- Node27 -->
<g id="node27" class="node"><title>Node27</title>
<g id="a_node27"><a xlink:href="GUIAnalyzePointWindow_8h.xhtml" target="_top" xlink:title="GUIAnalyzePointWindow.h">
<polygon fill="none" stroke="black" points="1193,-248.5 1193,-267.5 1329,-267.5 1329,-248.5 1193,-248.5"/>
<text text-anchor="middle" x="1261" y="-255.5" font-family="Helvetica,sans-Serif" font-size="10.00">GUIAnalyzePointWindow.h</text>
</a>
</g>
</g>
<!-- Node18&#45;&gt;Node27 -->
<g id="edge52" class="edge"><title>Node18&#45;&gt;Node27</title>
<path fill="none" stroke="midnightblue" d="M868.057,-534.894C989.9,-529.13 1258.71,-508.311 1307,-436 1341.33,-384.593 1296.84,-309.002 1273.56,-275.746"/>
<polygon fill="midnightblue" stroke="midnightblue" points="1276.33,-273.604 1267.64,-267.544 1270.65,-277.701 1276.33,-273.604"/>
</g>
<!-- Node28 -->
<g id="node28" class="node"><title>Node28</title>
<g id="a_node28"><a xlink:href="GUICutRenderWindow_8h.xhtml" target="_top" xlink:title="GUICutRenderWindow.h">
<polygon fill="none" stroke="black" points="791.5,-472.5 791.5,-491.5 916.5,-491.5 916.5,-472.5 791.5,-472.5"/>
<text text-anchor="middle" x="854" y="-479.5" font-family="Helvetica,sans-Serif" font-size="10.00">GUICutRenderWindow.h</text>
</a>
</g>
</g>
<!-- Node18&#45;&gt;Node28 -->
<g id="edge54" class="edge"><title>Node18&#45;&gt;Node28</title>
<path fill="none" stroke="midnightblue" d="M815.596,-528.083C822.227,-520.298 832.021,-508.801 840.058,-499.367"/>
<polygon fill="midnightblue" stroke="midnightblue" points="842.725,-501.633 846.545,-491.751 837.396,-497.094 842.725,-501.633"/>
</g>
<!-- Node32 -->
<g id="node32" class="node"><title>Node32</title>
<polygon fill="none" stroke="#bfbfbf" points="550.5,-472.5 550.5,-491.5 621.5,-491.5 621.5,-472.5 550.5,-472.5"/>
<text text-anchor="middle" x="586" y="-479.5" font-family="Helvetica,sans-Serif" font-size="10.00">wx/artprov.h</text>
</g>
<!-- Node18&#45;&gt;Node32 -->
<g id="edge67" class="edge"><title>Node18&#45;&gt;Node32</title>
<path fill="none" stroke="midnightblue" d="M772.823,-528.444C734.421,-519.102 672.824,-504.119 630.945,-493.933"/>
<polygon fill="midnightblue" stroke="midnightblue" points="631.556,-490.479 621.012,-491.516 629.901,-497.281 631.556,-490.479"/>
</g>
<!-- Node33 -->
<g id="node33" class="node"><title>Node33</title>
<polygon fill="none" stroke="#bfbfbf" points="640,-472.5 640,-491.5 718,-491.5 718,-472.5 640,-472.5"/>
<text text-anchor="middle" x="679" y="-479.5" font-family="Helvetica,sans-Serif" font-size="10.00">wx/stdpaths.h</text>
</g>
<!-- Node18&#45;&gt;Node33 -->
<g id="edge68" class="edge"><title>Node18&#45;&gt;Node33</title>
<path fill="none" stroke="midnightblue" d="M787.56,-528.444C766.33,-519.557 732.901,-505.563 708.745,-495.451"/>
<polygon fill="midnightblue" stroke="midnightblue" points="709.921,-492.149 699.345,-491.516 707.218,-498.606 709.921,-492.149"/>
</g>
<!-- Node19&#45;&gt;Node4 -->
<g id="edge35" class="edge"><title>Node19&#45;&gt;Node4</title>
<path fill="none" stroke="midnightblue" d="M566.728,-361.068C610.592,-352.631 673.743,-338.522 694,-324 751.105,-283.062 723.919,-232.972 781,-192 828.337,-158.022 896.67,-146.673 938.331,-142.888"/>
<polygon fill="midnightblue" stroke="midnightblue" points="938.634,-146.375 948.319,-142.079 938.069,-139.398 938.634,-146.375"/>
</g>
<!-- Node19&#45;&gt;Node13 -->
<g id="edge37" class="edge"><title>Node19&#45;&gt;Node13</title>
<path fill="none" stroke="midnightblue" d="M516.036,-360.368C503.494,-342.215 474.19,-299.802 457.739,-275.99"/>
<polygon fill="midnightblue" stroke="midnightblue" points="460.5,-273.829 451.936,-267.591 454.741,-277.808 460.5,-273.829"/>
</g>
<!-- Node19&#45;&gt;Node17 -->
<g id="edge34" class="edge"><title>Node19&#45;&gt;Node17</title>
<path fill="none" stroke="midnightblue" d="M541.014,-360.444C560.588,-351.636 591.308,-337.812 613.729,-327.722"/>
<polygon fill="midnightblue" stroke="midnightblue" points="615.392,-330.812 623.075,-323.516 612.519,-324.428 615.392,-330.812"/>
</g>
<!-- Node20 -->
<g id="node20" class="node"><title>Node20</title>
<polygon fill="none" stroke="#bfbfbf" points="501,-304.5 501,-323.5 581,-323.5 581,-304.5 501,-304.5"/>
<text text-anchor="middle" x="541" y="-311.5" font-family="Helvetica,sans-Serif" font-size="10.00">wx/glcanvas.h</text>
</g>
<!-- Node19&#45;&gt;Node20 -->
<g id="edge36" class="edge"><title>Node19&#45;&gt;Node20</title>
<path fill="none" stroke="midnightblue" d="M525.137,-360.083C527.683,-352.849 531.356,-342.409 534.527,-333.397"/>
<polygon fill="midnightblue" stroke="midnightblue" points="537.903,-334.346 537.921,-323.751 531.3,-332.023 537.903,-334.346"/>
</g>
<!-- Node21&#45;&gt;Node4 -->
<g id="edge39" class="edge"><title>Node21&#45;&gt;Node4</title>
<path fill="none" stroke="midnightblue" d="M943.897,-360.405C945.849,-351.372 948.894,-336.734 951,-324 960.868,-264.331 969.231,-193.171 972.944,-159.9"/>
<polygon fill="midnightblue" stroke="midnightblue" points="976.442,-160.116 974.059,-149.792 969.484,-159.349 976.442,-160.116"/>
</g>
<!-- Node22 -->
<g id="node22" class="node"><title>Node22</title>
<g id="a_node22"><a xlink:href="GUITimeline_8h.xhtml" target="_top" xlink:title="GUITimeline.h">
<polygon fill="none" stroke="black" points="829,-304.5 829,-323.5 909,-323.5 909,-304.5 829,-304.5"/>
<text text-anchor="middle" x="869" y="-311.5" font-family="Helvetica,sans-Serif" font-size="10.00">GUITimeline.h</text>
</a>
</g>
</g>
<!-- Node21&#45;&gt;Node22 -->
<g id="edge40" class="edge"><title>Node21&#45;&gt;Node22</title>
<path fill="none" stroke="midnightblue" d="M930.271,-360.324C919.163,-352.107 902.258,-339.602 889.017,-329.807"/>
<polygon fill="midnightblue" stroke="midnightblue" points="891.063,-326.967 880.942,-323.834 886.9,-332.595 891.063,-326.967"/>
</g>
<!-- Node22&#45;&gt;Node4 -->
<g id="edge41" class="edge"><title>Node22&#45;&gt;Node4</title>
<path fill="none" stroke="midnightblue" d="M871.654,-304.213C878.19,-283.434 896.478,-230.156 923,-192 932.317,-178.596 945.461,-165.742 956.202,-156.291"/>
<polygon fill="midnightblue" stroke="midnightblue" points="958.506,-158.927 963.845,-149.775 953.964,-153.6 958.506,-158.927"/>
</g>
<!-- Node22&#45;&gt;Node5 -->
<g id="edge43" class="edge"><title>Node22&#45;&gt;Node5</title>
<path fill="none" stroke="midnightblue" d="M867.725,-304.45C865.195,-290.535 858.214,-263.034 841,-248 837.573,-245.007 580.416,-174.663 488.896,-149.693"/>
<polygon fill="midnightblue" stroke="midnightblue" points="489.645,-146.27 479.076,-147.015 487.803,-153.023 489.645,-146.27"/>
</g>
<!-- Node22&#45;&gt;Node13 -->
<g id="edge44" class="edge"><title>Node22&#45;&gt;Node13</title>
<path fill="none" stroke="midnightblue" d="M828.824,-307.871C757.635,-298.783 608.422,-279.735 518.754,-268.288"/>
<polygon fill="midnightblue" stroke="midnightblue" points="519.023,-264.794 508.66,-266.999 518.136,-271.737 519.023,-264.794"/>
</g>
<!-- Node22&#45;&gt;Node16 -->
<g id="edge42" class="edge"><title>Node22&#45;&gt;Node16</title>
<path fill="none" stroke="midnightblue" d="M859.842,-304.324C851.499,-296.42 838.968,-284.548 828.823,-274.938"/>
<polygon fill="midnightblue" stroke="midnightblue" points="830.991,-272.171 821.325,-267.834 826.177,-277.252 830.991,-272.171"/>
</g>
<!-- Node23&#45;&gt;Node4 -->
<g id="edge46" class="edge"><title>Node23&#45;&gt;Node4</title>
<path fill="none" stroke="midnightblue" d="M1036.61,-472.233C1046.8,-463.949 1061.33,-450.638 1070,-436 1085.34,-410.106 1089,-401.098 1089,-371 1089,-371 1089,-371 1089,-257 1089,-226.205 1084.94,-215.464 1065,-192 1050.24,-174.637 1028,-161.957 1009.33,-153.583"/>
<polygon fill="midnightblue" stroke="midnightblue" points="1010.51,-150.285 999.942,-149.595 1007.78,-156.728 1010.51,-150.285"/>
</g>
<!-- Node24 -->
<g id="node24" class="node"><title>Node24</title>
<polygon fill="none" stroke="#bfbfbf" points="989,-416.5 989,-435.5 1061,-435.5 1061,-416.5 989,-416.5"/>
<text text-anchor="middle" x="1025" y="-423.5" font-family="Helvetica,sans-Serif" font-size="10.00">wx/spinctrl.h</text>
</g>
<!-- Node23&#45;&gt;Node24 -->
<g id="edge47" class="edge"><title>Node23&#45;&gt;Node24</title>
<path fill="none" stroke="midnightblue" d="M1025,-472.083C1025,-465.006 1025,-454.861 1025,-445.986"/>
<polygon fill="midnightblue" stroke="midnightblue" points="1028.5,-445.751 1025,-435.751 1021.5,-445.751 1028.5,-445.751"/>
</g>
<!-- Node25&#45;&gt;Node4 -->
<g id="edge51" class="edge"><title>Node25&#45;&gt;Node4</title>
<path fill="none" stroke="midnightblue" d="M1217.85,-416.253C1200.61,-398.77 1165,-357.528 1165,-315 1165,-315 1165,-315 1165,-257 1165,-226.205 1163.37,-213.162 1141,-192 1105.71,-158.625 1049.1,-147.059 1011.98,-143.07"/>
<polygon fill="midnightblue" stroke="midnightblue" points="1011.88,-139.545 1001.59,-142.096 1011.22,-146.515 1011.88,-139.545"/>
</g>
<!-- Node25&#45;&gt;Node21 -->
<g id="edge49" class="edge"><title>Node25&#45;&gt;Node21</title>
<path fill="none" stroke="midnightblue" d="M1181.84,-416.444C1131.12,-406.833 1048.87,-391.249 995.107,-381.062"/>
<polygon fill="midnightblue" stroke="midnightblue" points="995.559,-377.586 985.082,-379.163 994.256,-384.463 995.559,-377.586"/>
</g>
<!-- Node26 -->
<g id="node26" class="node"><title>Node26</title>
<polygon fill="none" stroke="#bfbfbf" points="1199,-360.5 1199,-379.5 1255,-379.5 1255,-360.5 1199,-360.5"/>
<text text-anchor="middle" x="1227" y="-367.5" font-family="Helvetica,sans-Serif" font-size="10.00">wx/grid.h</text>
</g>
<!-- Node25&#45;&gt;Node26 -->
<g id="edge50" class="edge"><title>Node25&#45;&gt;Node26</title>
<path fill="none" stroke="midnightblue" d="M1227,-416.083C1227,-409.006 1227,-398.861 1227,-389.986"/>
<polygon fill="midnightblue" stroke="midnightblue" points="1230.5,-389.751 1227,-379.751 1223.5,-389.751 1230.5,-389.751"/>
</g>
<!-- Node27&#45;&gt;Node4 -->
<g id="edge53" class="edge"><title>Node27&#45;&gt;Node4</title>
<path fill="none" stroke="midnightblue" d="M1252.76,-248.427C1238.86,-234.477 1209.31,-206.929 1179,-192 1124.2,-165.013 1053.89,-151.516 1011.75,-145.404"/>
<polygon fill="midnightblue" stroke="midnightblue" points="1012.06,-141.914 1001.67,-144.006 1011.1,-148.847 1012.06,-141.914"/>
</g>
<!-- Node28&#45;&gt;Node4 -->
<g id="edge55" class="edge"><title>Node28&#45;&gt;Node4</title>
<path fill="none" stroke="midnightblue" d="M872.838,-472.404C890.811,-463.939 918.417,-450.24 941,-436 1002.48,-397.236 1051,-387.679 1051,-315 1051,-315 1051,-315 1051,-257 1051,-215.186 1016.02,-176.719 993.525,-156.301"/>
<polygon fill="midnightblue" stroke="midnightblue" points="995.72,-153.572 985.889,-149.623 991.112,-158.841 995.72,-153.572"/>
</g>
<!-- Node28&#45;&gt;Node6 -->
<g id="edge62" class="edge"><title>Node28&#45;&gt;Node6</title>
<path fill="none" stroke="midnightblue" d="M791.351,-476.478C645.046,-465.858 292.86,-439.923 288,-436 221.184,-382.063 216.345,-266.847 217.184,-221.698"/>
<polygon fill="midnightblue" stroke="midnightblue" points="220.685,-221.69 217.495,-211.587 213.689,-221.475 220.685,-221.69"/>
</g>
<!-- Node28&#45;&gt;Node11 -->
<g id="edge61" class="edge"><title>Node28&#45;&gt;Node11</title>
<path fill="none" stroke="midnightblue" d="M916.644,-475.613C1039.15,-464.966 1299.25,-441.759 1307,-436 1353.71,-401.298 1357,-373.188 1357,-315 1357,-315 1357,-315 1357,-201 1357,-106.945 647.19,-80.4346 427.811,-74.4872"/>
<polygon fill="midnightblue" stroke="midnightblue" points="427.83,-70.9865 417.74,-74.2193 427.643,-77.984 427.83,-70.9865"/>
</g>
<!-- Node28&#45;&gt;Node17 -->
<g id="edge64" class="edge"><title>Node28&#45;&gt;Node17</title>
<path fill="none" stroke="midnightblue" d="M806.202,-472.424C776.444,-465.638 738.217,-454.203 708,-436 677.85,-417.837 667.91,-411.397 652,-380 644.662,-365.519 642.39,-347.072 641.821,-333.532"/>
<polygon fill="midnightblue" stroke="midnightblue" points="645.32,-333.453 641.669,-323.507 638.321,-333.559 645.32,-333.453"/>
</g>
<!-- Node28&#45;&gt;Node24 -->
<g id="edge63" class="edge"><title>Node28&#45;&gt;Node24</title>
<path fill="none" stroke="midnightblue" d="M881.095,-472.444C909.988,-463.32 955.925,-448.813 988.105,-438.651"/>
<polygon fill="midnightblue" stroke="midnightblue" points="989.549,-441.865 998.031,-435.516 987.441,-435.19 989.549,-441.865"/>
</g>
<!-- Node29 -->
<g id="node29" class="node"><title>Node29</title>
<g id="a_node29"><a xlink:href="GUIRenderCutCanvas_8h.xhtml" target="_top" xlink:title="GUIRenderCutCanvas.h">
<polygon fill="none" stroke="black" points="809,-416.5 809,-435.5 933,-435.5 933,-416.5 809,-416.5"/>
<text text-anchor="middle" x="871" y="-423.5" font-family="Helvetica,sans-Serif" font-size="10.00">GUIRenderCutCanvas.h</text>
</a>
</g>
</g>
<!-- Node28&#45;&gt;Node29 -->
<g id="edge56" class="edge"><title>Node28&#45;&gt;Node29</title>
<path fill="none" stroke="midnightblue" d="M856.807,-472.083C859.085,-464.849 862.371,-454.409 865.208,-445.397"/>
<polygon fill="midnightblue" stroke="midnightblue" points="868.581,-446.341 868.245,-435.751 861.904,-444.239 868.581,-446.341"/>
</g>
<!-- Node31 -->
<g id="node31" class="node"><title>Node31</title>
<polygon fill="none" stroke="#bfbfbf" points="717,-416.5 717,-435.5 791,-435.5 791,-416.5 717,-416.5"/>
<text text-anchor="middle" x="754" y="-423.5" font-family="Helvetica,sans-Serif" font-size="10.00">wx/colordlg.h</text>
</g>
<!-- Node28&#45;&gt;Node31 -->
<g id="edge65" class="edge"><title>Node28&#45;&gt;Node31</title>
<path fill="none" stroke="midnightblue" d="M837.933,-472.324C822.042,-463.743 797.493,-450.486 779.042,-440.522"/>
<polygon fill="midnightblue" stroke="midnightblue" points="780.489,-437.326 770.027,-435.655 777.163,-443.486 780.489,-437.326"/>
</g>
<!-- Node29&#45;&gt;Node4 -->
<g id="edge57" class="edge"><title>Node29&#45;&gt;Node4</title>
<path fill="none" stroke="midnightblue" d="M925.577,-416.461C949.497,-410.113 976.133,-399.093 994,-380 1014.56,-358.024 1013,-345.098 1013,-315 1013,-315 1013,-315 1013,-257 1013,-220.613 995.905,-180.853 984.647,-158.614"/>
<polygon fill="midnightblue" stroke="midnightblue" points="987.716,-156.929 979.968,-149.703 981.519,-160.184 987.716,-156.929"/>
</g>
<!-- Node30 -->
<g id="node30" class="node"><title>Node30</title>
<g id="a_node30"><a xlink:href="GUIColorScalePanel_8h.xhtml" target="_top" xlink:title="GUIColorScalePanel.h">
<polygon fill="none" stroke="black" points="765,-360.5 765,-379.5 881,-379.5 881,-360.5 765,-360.5"/>
<text text-anchor="middle" x="823" y="-367.5" font-family="Helvetica,sans-Serif" font-size="10.00">GUIColorScalePanel.h</text>
</a>
</g>
</g>
<!-- Node29&#45;&gt;Node30 -->
<g id="edge58" class="edge"><title>Node29&#45;&gt;Node30</title>
<path fill="none" stroke="midnightblue" d="M863.074,-416.083C856.154,-408.298 845.935,-396.801 837.548,-387.367"/>
<polygon fill="midnightblue" stroke="midnightblue" points="840.038,-384.9 830.779,-379.751 834.806,-389.55 840.038,-384.9"/>
</g>
<!-- Node30&#45;&gt;Node4 -->
<g id="edge60" class="edge"><title>Node30&#45;&gt;Node4</title>
<path fill="none" stroke="midnightblue" d="M857.155,-360.355C877.439,-353.583 902.203,-342.187 918,-324 929.091,-311.231 958.515,-203.329 970.158,-159.448"/>
<polygon fill="midnightblue" stroke="midnightblue" points="973.603,-160.11 972.771,-149.548 966.835,-158.324 973.603,-160.11"/>
</g>
<!-- Node30&#45;&gt;Node17 -->
<g id="edge59" class="edge"><title>Node30&#45;&gt;Node17</title>
<path fill="none" stroke="midnightblue" d="M794.32,-360.444C763.473,-351.241 714.272,-336.562 680.171,-326.388"/>
<polygon fill="midnightblue" stroke="midnightblue" points="681.129,-323.021 670.546,-323.516 679.128,-329.729 681.129,-323.021"/>
</g>
</g>
</svg>
