<?xml version="1.0" encoding="UTF-8" standalone="no"?>
<!DOCTYPE svg PUBLIC "-//W3C//DTD SVG 1.1//EN"
 "http://www.w3.org/Graphics/SVG/1.1/DTD/svg11.dtd">
<!-- Generated by graphviz version 2.36.0 (20140111.2315)
 -->
<!-- Title: drawCutRenderInfo Pages: 1 -->
<!--zoomable 436 -->
<svg id="main" version="1.1" xmlns="http://www.w3.org/2000/svg" xmlns:xlink="http://www.w3.org/1999/xlink" xml:space="preserve" onload="init(evt)">
<style type="text/css"><![CDATA[
.edge:hover path { stroke: red; }
.edge:hover polygon { stroke: red; fill: red; }
]]></style>
<script type="text/javascript"><![CDATA[
var edges = document.getElementsByTagName('g');
if (edges && edges.length) {
  for (var i=0;i<edges.length;i++) {
    if (edges[i].id.substr(0,4)=='edge') {
      edges[i].setAttribute('class','edge');
    }
  }
}
]]></script>
        <defs>
                <circle id="rim" cx="0" cy="0" r="7"/>
                <circle id="rim2" cx="0" cy="0" r="3.5"/>
                <g id="zoomPlus">
                        <use xlink:href="#rim" fill="#404040">
                                <set attributeName="fill" to="#808080" begin="zoomplus.mouseover" end="zoomplus.mouseout"/>
                        </use>
                        <path d="M-4,0h8M0,-4v8" fill="none" stroke="white" stroke-width="1.5" pointer-events="none"/>
                </g>
                <g id="zoomMin">
                        <use xlink:href="#rim" fill="#404040">
                                <set attributeName="fill" to="#808080" begin="zoomminus.mouseover" end="zoomminus.mouseout"/>
                        </use>
                        <path d="M-4,0h8" fill="none" stroke="white" stroke-width="1.5" pointer-events="none"/>
                </g>
                <g id="dirArrow">
                        <path fill="none" stroke="white" stroke-width="1.5" d="M0,-3.0v7 M-2.5,-0.5L0,-3.0L2.5,-0.5"/>
                </g>
               <g id="resetDef">
                       <use xlink:href="#rim2" fill="#404040">
                               <set attributeName="fill" to="#808080" begin="reset.mouseover" end="reset.mouseout"/>
                       </use>
               </g>
        </defs>

<script type="text/javascript">
var viewWidth = 526;
var viewHeight = 436;
var sectionId = 'dynsection-1';
</script>
<script xlink:href="svgpan.js"/>
<svg id="graph" class="graph">
<g id="viewport">
<title>drawCutRenderInfo</title>
<!-- Node1 -->
<g id="node1" class="node"><title>Node1</title>
<polygon fill="#bfbfbf" stroke="black" points="0.5,-209.5 0.5,-228.5 101.5,-228.5 101.5,-209.5 0.5,-209.5"/>
<text text-anchor="middle" x="51" y="-216.5" font-family="Helvetica,sans-Serif" font-size="10.00">drawCutRenderInfo</text>
</g>
<!-- Node2 -->
<g id="node2" class="node"><title>Node2</title>
<g id="a_node2"><a xlink:href="classTriangle.xhtml#a3c72b19f316fa9ffb0a2f206e3558790" target="_top" xlink:title="Gibt die Normale des Dreiecks zurück. ">
<polygon fill="none" stroke="black" points="138,-342.5 138,-361.5 240,-361.5 240,-342.5 138,-342.5"/>
<text text-anchor="middle" x="189" y="-349.5" font-family="Helvetica,sans-Serif" font-size="10.00">Triangle::getNormal</text>
</a>
</g>
</g>
<!-- Node1&#45;&gt;Node2 -->
<g id="edge1" class="edge"><title>Node1&#45;&gt;Node2</title>
<path fill="none" stroke="midnightblue" d="M57.5059,-228.656C69.6728,-249.279 100.744,-298.17 138,-328 142.671,-331.74 148.02,-335.078 153.443,-337.989"/>
<polygon fill="midnightblue" stroke="midnightblue" points="152.017,-341.189 162.533,-342.482 155.119,-334.913 152.017,-341.189"/>
</g>
<!-- Node3 -->
<g id="node3" class="node"><title>Node3</title>
<g id="a_node3"><a xlink:href="classVector3D.xhtml#a46dd0d9a849809a3857783102959e788" target="_top" xlink:title="Gibt eine Kopie des Vektors zurück. ">
<polygon fill="none" stroke="black" points="294.5,-408.5 294.5,-427.5 379.5,-427.5 379.5,-408.5 294.5,-408.5"/>
<text text-anchor="middle" x="337" y="-415.5" font-family="Helvetica,sans-Serif" font-size="10.00">Vector3D::copy</text>
</a>
</g>
</g>
<!-- Node1&#45;&gt;Node3 -->
<g id="edge16" class="edge"><title>Node1&#45;&gt;Node3</title>
<path fill="none" stroke="midnightblue" d="M53.515,-228.555C58.8219,-258.56 79.5297,-351.374 138,-393 180.463,-423.23 241.395,-426.564 284.426,-424.173"/>
<polygon fill="midnightblue" stroke="midnightblue" points="284.67,-427.665 294.412,-423.499 284.198,-420.681 284.67,-427.665"/>
</g>
<!-- Node4 -->
<g id="node4" class="node"><title>Node4</title>
<g id="a_node4"><a xlink:href="classVector3D.xhtml#a02364a41693ac080f5adadd776df74b4" target="_top" xlink:title="Subtrahiert einen Vektor von diesem Vektor. ">
<polygon fill="none" stroke="black" points="297,-351.5 297,-370.5 377,-370.5 377,-351.5 297,-351.5"/>
<text text-anchor="middle" x="337" y="-358.5" font-family="Helvetica,sans-Serif" font-size="10.00">Vector3D::sub</text>
</a>
</g>
</g>
<!-- Node1&#45;&gt;Node4 -->
<g id="edge17" class="edge"><title>Node1&#45;&gt;Node4</title>
<path fill="none" stroke="midnightblue" d="M54.0047,-228.852C60.3631,-257.19 82.9979,-338.924 138,-371 188.403,-400.394 258.877,-386.473 300.737,-373.715"/>
<polygon fill="midnightblue" stroke="midnightblue" points="302.017,-376.98 310.481,-370.607 299.89,-370.311 302.017,-376.98"/>
</g>
<!-- Node8 -->
<g id="node8" class="node"><title>Node8</title>
<g id="a_node8"><a xlink:href="classVector3D.xhtml#a482cd77ce44ea7dd71fd7a43cb7b1cf5" target="_top" xlink:title="Gibt das Kreuzprodukt mit einem anderen Vektor zurück. ">
<polygon fill="none" stroke="black" points="276,-275.5 276,-294.5 398,-294.5 398,-275.5 276,-275.5"/>
<text text-anchor="middle" x="337" y="-282.5" font-family="Helvetica,sans-Serif" font-size="10.00">Vector3D::crossProduct</text>
</a>
</g>
</g>
<!-- Node1&#45;&gt;Node8 -->
<g id="edge18" class="edge"><title>Node1&#45;&gt;Node8</title>
<path fill="none" stroke="midnightblue" d="M79.6647,-228.535C96.4162,-234.096 118.285,-240.98 138,-246 181.166,-256.992 230.293,-266.685 268.812,-273.658"/>
<polygon fill="midnightblue" stroke="midnightblue" points="268.413,-277.142 278.873,-275.462 269.648,-270.252 268.413,-277.142"/>
</g>
<!-- Node9 -->
<g id="node9" class="node"><title>Node9</title>
<g id="a_node9"><a xlink:href="classVector3D.xhtml#abfb12ecb9c9beb88e095cc4a1a512d3c" target="_top" xlink:title="Normalisiert den Vektor. ">
<polygon fill="none" stroke="black" points="284,-313.5 284,-332.5 390,-332.5 390,-313.5 284,-313.5"/>
<text text-anchor="middle" x="337" y="-320.5" font-family="Helvetica,sans-Serif" font-size="10.00">Vector3D::normalize</text>
</a>
</g>
</g>
<!-- Node1&#45;&gt;Node9 -->
<g id="edge19" class="edge"><title>Node1&#45;&gt;Node9</title>
<path fill="none" stroke="midnightblue" d="M65.3872,-228.524C81.802,-239.818 110.802,-258.552 138,-270 182.598,-288.772 235.68,-302.555 275.652,-311.353"/>
<polygon fill="midnightblue" stroke="midnightblue" points="275.005,-314.794 285.518,-313.482 276.481,-307.951 275.005,-314.794"/>
</g>
<!-- Node10 -->
<g id="node10" class="node"><title>Node10</title>
<g id="a_node10"><a xlink:href="classVector3D.xhtml#a89aeff2092d6a954cd449aca97c59197" target="_top" xlink:title="Gibt eine Referenz auf die Vektorelemente zurück (Vor allem zur Übergabe an OpenGL verwendet)...">
<polygon fill="none" stroke="black" points="288.5,-123.5 288.5,-142.5 385.5,-142.5 385.5,-123.5 288.5,-123.5"/>
<text text-anchor="middle" x="337" y="-130.5" font-family="Helvetica,sans-Serif" font-size="10.00">Vector3D::getXYZ</text>
</a>
</g>
</g>
<!-- Node1&#45;&gt;Node10 -->
<g id="edge12" class="edge"><title>Node1&#45;&gt;Node10</title>
<path fill="none" stroke="midnightblue" d="M71.0764,-209.391C88.2494,-201.027 114.349,-189.021 138,-181 184.32,-165.292 238.371,-152.548 278.286,-144.15"/>
<polygon fill="midnightblue" stroke="midnightblue" points="279.036,-147.569 288.116,-142.109 277.613,-140.715 279.036,-147.569"/>
</g>
<!-- Node11 -->
<g id="node11" class="node"><title>Node11</title>
<g id="a_node11"><a xlink:href="classTriangle.xhtml#ae054a0eae5dae026c5af69274c5f277e" target="_top" xlink:title="Gibt eine Referenz auf den Ortsvektor zum ersten Punkt des Dreiecks zurück. ">
<polygon fill="none" stroke="black" points="147.5,-76.5 147.5,-95.5 230.5,-95.5 230.5,-76.5 147.5,-76.5"/>
<text text-anchor="middle" x="189" y="-83.5" font-family="Helvetica,sans-Serif" font-size="10.00">Triangle::getV1</text>
</a>
</g>
</g>
<!-- Node1&#45;&gt;Node11 -->
<g id="edge13" class="edge"><title>Node1&#45;&gt;Node11</title>
<path fill="none" stroke="midnightblue" d="M57.5059,-209.344C69.6728,-188.721 100.744,-139.83 138,-110 142.671,-106.26 148.02,-102.922 153.443,-100.011"/>
<polygon fill="midnightblue" stroke="midnightblue" points="155.119,-103.087 162.533,-95.5184 152.017,-96.8111 155.119,-103.087"/>
</g>
<!-- Node12 -->
<g id="node12" class="node"><title>Node12</title>
<g id="a_node12"><a xlink:href="classTriangle.xhtml#a6de5f8560482f4130bdbb96b25aa1b58" target="_top" xlink:title="Gibt eine Referenz auf den Ortsvektor zum zweiten Punkt des Dreiecks zurück. ">
<polygon fill="none" stroke="black" points="147.5,-38.5 147.5,-57.5 230.5,-57.5 230.5,-38.5 147.5,-38.5"/>
<text text-anchor="middle" x="189" y="-45.5" font-family="Helvetica,sans-Serif" font-size="10.00">Triangle::getV2</text>
</a>
</g>
</g>
<!-- Node1&#45;&gt;Node12 -->
<g id="edge14" class="edge"><title>Node1&#45;&gt;Node12</title>
<path fill="none" stroke="midnightblue" d="M54.8903,-209.306C63.2844,-182.751 90.1543,-108.086 138,-67 139.942,-65.3325 142.045,-63.8039 144.253,-62.4035"/>
<polygon fill="midnightblue" stroke="midnightblue" points="146.01,-65.4324 153.162,-57.6155 142.697,-59.2663 146.01,-65.4324"/>
</g>
<!-- Node13 -->
<g id="node13" class="node"><title>Node13</title>
<g id="a_node13"><a xlink:href="classTriangle.xhtml#a792a627dc42adad87c0b30e16a6b5824" target="_top" xlink:title="Gibt eine Referenz auf den Ortsvektor zum dritten Punkt des Dreiecks zurück. ">
<polygon fill="none" stroke="black" points="147.5,-0.5 147.5,-19.5 230.5,-19.5 230.5,-0.5 147.5,-0.5"/>
<text text-anchor="middle" x="189" y="-7.5" font-family="Helvetica,sans-Serif" font-size="10.00">Triangle::getV3</text>
</a>
</g>
</g>
<!-- Node1&#45;&gt;Node13 -->
<g id="edge15" class="edge"><title>Node1&#45;&gt;Node13</title>
<path fill="none" stroke="midnightblue" d="M53.7076,-209.19C59.5862,-178.277 81.8048,-81.8204 138,-29 139.677,-27.4239 141.497,-25.9749 143.418,-24.6432"/>
<polygon fill="midnightblue" stroke="midnightblue" points="145.413,-27.5342 152.348,-19.5248 141.932,-21.4611 145.413,-27.5342"/>
</g>
<!-- Node14 -->
<g id="node14" class="node"><title>Node14</title>
<g id="a_node14"><a xlink:href="classVector3D.xhtml#a3dec11494c99de7370e3877054c3ef13" target="_top" xlink:title="Multipliziert den Vektor mit einem Skalar. ">
<polygon fill="none" stroke="black" points="295.5,-85.5 295.5,-104.5 378.5,-104.5 378.5,-85.5 295.5,-85.5"/>
<text text-anchor="middle" x="337" y="-92.5" font-family="Helvetica,sans-Serif" font-size="10.00">Vector3D::mult</text>
</a>
</g>
</g>
<!-- Node1&#45;&gt;Node14 -->
<g id="edge20" class="edge"><title>Node1&#45;&gt;Node14</title>
<path fill="none" stroke="midnightblue" d="M61.0669,-209.183C75.7595,-193.858 106.333,-164.319 138,-148 184.949,-123.805 244.013,-109.85 285.364,-102.394"/>
<polygon fill="midnightblue" stroke="midnightblue" points="286.224,-105.797 295.477,-100.636 285.025,-98.9007 286.224,-105.797"/>
</g>
<!-- Node15 -->
<g id="node15" class="node"><title>Node15</title>
<g id="a_node15"><a xlink:href="simpleanalyzer-gui_2src_2GUI_2Renderer_8cpp.xhtml#a4225af4db7b633515f133a4f40c72b33" target="_top" xlink:title="Zeichnet einen Vektor als Pfeil. ">
<polygon fill="none" stroke="black" points="156,-190.5 156,-209.5 222,-209.5 222,-190.5 156,-190.5"/>
<text text-anchor="middle" x="189" y="-197.5" font-family="Helvetica,sans-Serif" font-size="10.00">drawVector</text>
</a>
</g>
</g>
<!-- Node1&#45;&gt;Node15 -->
<g id="edge21" class="edge"><title>Node1&#45;&gt;Node15</title>
<path fill="none" stroke="midnightblue" d="M101.869,-212.033C116.247,-210.024 131.791,-207.853 145.665,-205.914"/>
<polygon fill="midnightblue" stroke="midnightblue" points="146.482,-209.334 155.902,-204.484 145.514,-202.402 146.482,-209.334"/>
</g>
<!-- Node19 -->
<g id="node19" class="node"><title>Node19</title>
<g id="a_node19"><a xlink:href="classVector3D.xhtml#a0d14ff1f789254ff90adc22628eb8347" target="_top" xlink:title="Addiert einen Vektor zu diesem Vektor. ">
<polygon fill="none" stroke="black" points="297,-237.5 297,-256.5 377,-256.5 377,-237.5 297,-237.5"/>
<text text-anchor="middle" x="337" y="-244.5" font-family="Helvetica,sans-Serif" font-size="10.00">Vector3D::add</text>
</a>
</g>
</g>
<!-- Node1&#45;&gt;Node19 -->
<g id="edge36" class="edge"><title>Node1&#45;&gt;Node19</title>
<path fill="none" stroke="midnightblue" d="M101.794,-223.909C153.844,-229.041 235.013,-237.043 286.829,-242.152"/>
<polygon fill="midnightblue" stroke="midnightblue" points="286.488,-245.635 296.783,-243.134 287.175,-238.669 286.488,-245.635"/>
</g>
<!-- Node2&#45;&gt;Node3 -->
<g id="edge2" class="edge"><title>Node2&#45;&gt;Node3</title>
<path fill="none" stroke="midnightblue" d="M211.23,-361.597C235.991,-372.79 277.124,-391.385 305.348,-404.144"/>
<polygon fill="midnightblue" stroke="midnightblue" points="304.191,-407.461 314.745,-408.391 307.074,-401.083 304.191,-407.461"/>
</g>
<!-- Node2&#45;&gt;Node4 -->
<g id="edge3" class="edge"><title>Node2&#45;&gt;Node4</title>
<path fill="none" stroke="midnightblue" d="M240.245,-355.097C255.257,-356.023 271.696,-357.036 286.651,-357.958"/>
<polygon fill="midnightblue" stroke="midnightblue" points="286.534,-361.457 296.731,-358.579 286.965,-354.471 286.534,-361.457"/>
</g>
<!-- Node2&#45;&gt;Node8 -->
<g id="edge7" class="edge"><title>Node2&#45;&gt;Node8</title>
<path fill="none" stroke="midnightblue" d="M205.057,-342.359C221.862,-331.896 250.102,-315.191 276,-304 281.078,-301.806 286.494,-299.737 291.915,-297.828"/>
<polygon fill="midnightblue" stroke="midnightblue" points="293.242,-301.075 301.609,-294.576 291.015,-294.439 293.242,-301.075"/>
</g>
<!-- Node2&#45;&gt;Node9 -->
<g id="edge11" class="edge"><title>Node2&#45;&gt;Node9</title>
<path fill="none" stroke="midnightblue" d="M238.21,-342.424C250.919,-339.9 264.764,-337.15 277.932,-334.534"/>
<polygon fill="midnightblue" stroke="midnightblue" points="278.714,-337.947 287.84,-332.566 277.35,-331.081 278.714,-337.947"/>
</g>
<!-- Node5 -->
<g id="node5" class="node"><title>Node5</title>
<g id="a_node5"><a xlink:href="classVector3D.xhtml#aa9eaf29045bf32b95c5c7bcb2b8b68d7" target="_top" xlink:title="Gibt das X&#45;Element des Vektors zurück. ">
<polygon fill="none" stroke="black" points="434,-294.5 434,-313.5 518,-313.5 518,-294.5 434,-294.5"/>
<text text-anchor="middle" x="476" y="-301.5" font-family="Helvetica,sans-Serif" font-size="10.00">Vector3D::getX</text>
</a>
</g>
</g>
<!-- Node4&#45;&gt;Node5 -->
<g id="edge4" class="edge"><title>Node4&#45;&gt;Node5</title>
<path fill="none" stroke="midnightblue" d="M371.328,-351.434C380.098,-348.65 389.485,-345.426 398,-342 415.244,-335.061 433.957,-325.867 448.617,-318.261"/>
<polygon fill="midnightblue" stroke="midnightblue" points="450.388,-321.284 457.609,-313.531 447.129,-315.088 450.388,-321.284"/>
</g>
<!-- Node6 -->
<g id="node6" class="node"><title>Node6</title>
<g id="a_node6"><a xlink:href="classVector3D.xhtml#aa3ffff17b886274a58417dfe4bb4c4a2" target="_top" xlink:title="Gibt das Y&#45;Element des Vektors zurück. ">
<polygon fill="none" stroke="black" points="434,-256.5 434,-275.5 518,-275.5 518,-256.5 434,-256.5"/>
<text text-anchor="middle" x="476" y="-263.5" font-family="Helvetica,sans-Serif" font-size="10.00">Vector3D::getY</text>
</a>
</g>
</g>
<!-- Node4&#45;&gt;Node6 -->
<g id="edge5" class="edge"><title>Node4&#45;&gt;Node6</title>
<path fill="none" stroke="midnightblue" d="M377.091,-352.998C384.507,-350.31 391.858,-346.739 398,-342 421.724,-323.698 411.488,-304.773 434,-285 435.724,-283.486 437.589,-282.069 439.541,-280.748"/>
<polygon fill="midnightblue" stroke="midnightblue" points="441.59,-283.606 448.483,-275.56 438.077,-277.552 441.59,-283.606"/>
</g>
<!-- Node7 -->
<g id="node7" class="node"><title>Node7</title>
<g id="a_node7"><a xlink:href="classVector3D.xhtml#ab0dcbf253ff78856eccb5ea74d080fc7" target="_top" xlink:title="Gibt das Z&#45;Element des Vektors zurück. ">
<polygon fill="none" stroke="black" points="434.5,-218.5 434.5,-237.5 517.5,-237.5 517.5,-218.5 434.5,-218.5"/>
<text text-anchor="middle" x="476" y="-225.5" font-family="Helvetica,sans-Serif" font-size="10.00">Vector3D::getZ</text>
</a>
</g>
</g>
<!-- Node4&#45;&gt;Node7 -->
<g id="edge6" class="edge"><title>Node4&#45;&gt;Node7</title>
<path fill="none" stroke="midnightblue" d="M377.263,-354.157C384.837,-351.382 392.205,-347.481 398,-342 430.802,-310.972 403.238,-280.052 434,-247 435.213,-245.697 436.532,-244.476 437.931,-243.332"/>
<polygon fill="midnightblue" stroke="midnightblue" points="440.189,-246.035 446.6,-237.599 436.328,-240.196 440.189,-246.035"/>
</g>
<!-- Node8&#45;&gt;Node5 -->
<g id="edge10" class="edge"><title>Node8&#45;&gt;Node5</title>
<path fill="none" stroke="midnightblue" d="M398.09,-293.334C406.677,-294.525 415.443,-295.74 423.837,-296.904"/>
<polygon fill="midnightblue" stroke="midnightblue" points="423.469,-300.387 433.855,-298.294 424.43,-293.453 423.469,-300.387"/>
</g>
<!-- Node8&#45;&gt;Node6 -->
<g id="edge9" class="edge"><title>Node8&#45;&gt;Node6</title>
<path fill="none" stroke="midnightblue" d="M398.09,-276.666C406.677,-275.475 415.443,-274.26 423.837,-273.096"/>
<polygon fill="midnightblue" stroke="midnightblue" points="424.43,-276.547 433.855,-271.706 423.469,-269.613 424.43,-276.547"/>
</g>
<!-- Node8&#45;&gt;Node7 -->
<g id="edge8" class="edge"><title>Node8&#45;&gt;Node7</title>
<path fill="none" stroke="midnightblue" d="M371.706,-275.491C380.385,-272.727 389.633,-269.499 398,-266 414.691,-259.019 417.787,-255.028 434,-247 437.361,-245.335 440.897,-243.63 444.426,-241.957"/>
<polygon fill="midnightblue" stroke="midnightblue" points="446.047,-245.062 453.621,-237.654 443.08,-238.722 446.047,-245.062"/>
</g>
<!-- Node15&#45;&gt;Node8 -->
<g id="edge30" class="edge"><title>Node15&#45;&gt;Node8</title>
<path fill="none" stroke="midnightblue" d="M200.041,-209.62C215.31,-223.779 245.794,-250.251 276,-266 280.199,-268.19 284.697,-270.182 289.271,-271.982"/>
<polygon fill="midnightblue" stroke="midnightblue" points="288.102,-275.282 298.696,-275.407 290.493,-268.702 288.102,-275.282"/>
</g>
<!-- Node15&#45;&gt;Node9 -->
<g id="edge22" class="edge"><title>Node15&#45;&gt;Node9</title>
<path fill="none" stroke="midnightblue" d="M195.32,-209.602C207.126,-230.035 237.537,-278.065 276,-304 278.943,-305.984 282.105,-307.771 285.383,-309.378"/>
<polygon fill="midnightblue" stroke="midnightblue" points="284.275,-312.712 294.845,-313.448 287.041,-306.281 284.275,-312.712"/>
</g>
<!-- Node15&#45;&gt;Node10 -->
<g id="edge27" class="edge"><title>Node15&#45;&gt;Node10</title>
<path fill="none" stroke="midnightblue" d="M211.751,-190.371C220.653,-186.223 230.964,-181.147 240,-176 256.709,-166.483 258.663,-160.318 276,-152 280.622,-149.782 285.566,-147.739 290.558,-145.881"/>
<polygon fill="midnightblue" stroke="midnightblue" points="291.854,-149.136 300.145,-142.539 289.55,-142.526 291.854,-149.136"/>
</g>
<!-- Node15&#45;&gt;Node14 -->
<g id="edge35" class="edge"><title>Node15&#45;&gt;Node14</title>
<path fill="none" stroke="midnightblue" d="M197.152,-190.233C210.626,-172.508 241.535,-134.943 276,-114 279.421,-111.921 283.092,-110.048 286.872,-108.364"/>
<polygon fill="midnightblue" stroke="midnightblue" points="288.417,-111.516 296.408,-104.56 285.823,-105.014 288.417,-111.516"/>
</g>
<!-- Node16 -->
<g id="node16" class="node"><title>Node16</title>
<g id="a_node16"><a xlink:href="classVector3D.xhtml#ac83e936757114f32bc9d868ea5fabbc2" target="_top" xlink:title="Testet, ob zwei Vektoren identisch sind. ">
<polygon fill="none" stroke="black" points="291,-199.5 291,-218.5 383,-218.5 383,-199.5 291,-199.5"/>
<text text-anchor="middle" x="337" y="-206.5" font-family="Helvetica,sans-Serif" font-size="10.00">Vector3D::equals</text>
</a>
</g>
</g>
<!-- Node15&#45;&gt;Node16 -->
<g id="edge23" class="edge"><title>Node15&#45;&gt;Node16</title>
<path fill="none" stroke="midnightblue" d="M222.04,-201.975C239.196,-203.033 260.813,-204.365 280.597,-205.585"/>
<polygon fill="midnightblue" stroke="midnightblue" points="280.546,-209.088 290.742,-206.21 280.977,-202.101 280.546,-209.088"/>
</g>
<!-- Node17 -->
<g id="node17" class="node"><title>Node17</title>
<g id="a_node17"><a xlink:href="classVector3D.xhtml#a2e3aa1d244483abcb1a8e48e47e79512" target="_top" xlink:title="Gibt die Länge des Vektors zurück. ">
<polygon fill="none" stroke="black" points="283.5,-161.5 283.5,-180.5 390.5,-180.5 390.5,-161.5 283.5,-161.5"/>
<text text-anchor="middle" x="337" y="-168.5" font-family="Helvetica,sans-Serif" font-size="10.00">Vector3D::getLength</text>
</a>
</g>
</g>
<!-- Node15&#45;&gt;Node17 -->
<g id="edge28" class="edge"><title>Node15&#45;&gt;Node17</title>
<path fill="none" stroke="midnightblue" d="M222.04,-193.636C238.481,-190.37 259.019,-186.291 278.115,-182.498"/>
<polygon fill="midnightblue" stroke="midnightblue" points="278.813,-185.927 287.94,-180.546 277.449,-179.062 278.813,-185.927"/>
</g>
<!-- Node15&#45;&gt;Node19 -->
<g id="edge31" class="edge"><title>Node15&#45;&gt;Node19</title>
<path fill="none" stroke="midnightblue" d="M219.041,-209.52C235.7,-214.964 257.013,-221.903 276,-228 282.5,-230.087 289.402,-232.288 296.122,-234.422"/>
<polygon fill="midnightblue" stroke="midnightblue" points="295.179,-237.794 305.769,-237.479 297.294,-231.121 295.179,-237.794"/>
</g>
<!-- Node16&#45;&gt;Node5 -->
<g id="edge24" class="edge"><title>Node16&#45;&gt;Node5</title>
<path fill="none" stroke="midnightblue" d="M381.151,-218.569C387.158,-221.037 392.982,-224.129 398,-228 421.724,-246.302 411.488,-265.227 434,-285 435.724,-286.514 437.589,-287.931 439.541,-289.252"/>
<polygon fill="midnightblue" stroke="midnightblue" points="438.077,-292.448 448.483,-294.44 441.59,-286.394 438.077,-292.448"/>
</g>
<!-- Node16&#45;&gt;Node6 -->
<g id="edge25" class="edge"><title>Node16&#45;&gt;Node6</title>
<path fill="none" stroke="midnightblue" d="M371.706,-218.509C380.385,-221.273 389.633,-224.501 398,-228 414.691,-234.981 417.787,-238.972 434,-247 437.361,-248.665 440.897,-250.37 444.426,-252.043"/>
<polygon fill="midnightblue" stroke="midnightblue" points="443.08,-255.278 453.621,-256.346 446.047,-248.938 443.08,-255.278"/>
</g>
<!-- Node16&#45;&gt;Node7 -->
<g id="edge26" class="edge"><title>Node16&#45;&gt;Node7</title>
<path fill="none" stroke="midnightblue" d="M383.239,-215.274C396.406,-217.1 410.874,-219.107 424.351,-220.976"/>
<polygon fill="midnightblue" stroke="midnightblue" points="424.039,-224.466 434.426,-222.373 425.001,-217.532 424.039,-224.466"/>
</g>
<!-- Node18 -->
<g id="node18" class="node"><title>Node18</title>
<g id="a_node18"><a xlink:href="GeometryClasses_8cpp.xhtml#a73527f20206c906e9f333e0f233de13e" target="_top" xlink:title="sqr">
<polygon fill="none" stroke="black" points="461,-161.5 461,-180.5 491,-180.5 491,-161.5 461,-161.5"/>
<text text-anchor="middle" x="476" y="-168.5" font-family="Helvetica,sans-Serif" font-size="10.00">sqr</text>
</a>
</g>
</g>
<!-- Node17&#45;&gt;Node18 -->
<g id="edge29" class="edge"><title>Node17&#45;&gt;Node18</title>
<path fill="none" stroke="midnightblue" d="M390.576,-171C411.176,-171 433.81,-171 450.453,-171"/>
<polygon fill="midnightblue" stroke="midnightblue" points="450.919,-174.5 460.919,-171 450.919,-167.5 450.919,-174.5"/>
</g>
<!-- Node19&#45;&gt;Node5 -->
<g id="edge32" class="edge"><title>Node19&#45;&gt;Node5</title>
<path fill="none" stroke="midnightblue" d="M371.706,-256.509C380.385,-259.273 389.633,-262.501 398,-266 414.691,-272.981 417.787,-276.972 434,-285 437.361,-286.665 440.897,-288.37 444.426,-290.043"/>
<polygon fill="midnightblue" stroke="midnightblue" points="443.08,-293.278 453.621,-294.346 446.047,-286.938 443.08,-293.278"/>
</g>
<!-- Node19&#45;&gt;Node6 -->
<g id="edge33" class="edge"><title>Node19&#45;&gt;Node6</title>
<path fill="none" stroke="midnightblue" d="M377.259,-252.445C391.788,-254.46 408.477,-256.774 423.905,-258.914"/>
<polygon fill="midnightblue" stroke="midnightblue" points="423.44,-262.383 433.826,-260.29 424.401,-255.449 423.44,-262.383"/>
</g>
<!-- Node19&#45;&gt;Node7 -->
<g id="edge34" class="edge"><title>Node19&#45;&gt;Node7</title>
<path fill="none" stroke="midnightblue" d="M377.259,-241.555C391.917,-239.522 408.775,-237.184 424.318,-235.029"/>
<polygon fill="midnightblue" stroke="midnightblue" points="424.881,-238.484 434.305,-233.644 423.919,-231.551 424.881,-238.484"/>
</g>
</g>
</svg>
        <g id="navigator" transform="translate(0 0)" fill="#404254">
                <rect fill="#f2f5e9" fill-opacity="0.5" stroke="#606060" stroke-width=".5" x="0" y="0" width="60" height="60"/>
                <use id="zoomplus" xlink:href="#zoomPlus" x="17" y="9" onmousedown="handleZoom(evt,'in')"/>
                <use id="zoomminus" xlink:href="#zoomMin" x="42" y="9" onmousedown="handleZoom(evt,'out')"/>
                <use id="reset" xlink:href="#resetDef" x="30" y="36" onmousedown="handleReset()"/>
                <g id="arrowUp" xlink:href="#dirArrow" transform="translate(30 24)" onmousedown="handlePan(0,-1)">
                  <use xlink:href="#rim" fill="#404040">
                        <set attributeName="fill" to="#808080" begin="arrowUp.mouseover" end="arrowUp.mouseout"/>
                  </use>
                  <path fill="none" stroke="white" stroke-width="1.5" d="M0,-3.0v7 M-2.5,-0.5L0,-3.0L2.5,-0.5"/>
                </g>
                <g id="arrowRight" xlink:href="#dirArrow" transform="rotate(90) translate(36 -43)" onmousedown="handlePan(1,0)">
                  <use xlink:href="#rim" fill="#404040">
                        <set attributeName="fill" to="#808080" begin="arrowRight.mouseover" end="arrowRight.mouseout"/>
                  </use>
                  <path fill="none" stroke="white" stroke-width="1.5" d="M0,-3.0v7 M-2.5,-0.5L0,-3.0L2.5,-0.5"/>
                </g>
                <g id="arrowDown" xlink:href="#dirArrow" transform="rotate(180) translate(-30 -48)" onmousedown="handlePan(0,1)">
                  <use xlink:href="#rim" fill="#404040">
                        <set attributeName="fill" to="#808080" begin="arrowDown.mouseover" end="arrowDown.mouseout"/>
                  </use>
                  <path fill="none" stroke="white" stroke-width="1.5" d="M0,-3.0v7 M-2.5,-0.5L0,-3.0L2.5,-0.5"/>
                </g>
                <g id="arrowLeft" xlink:href="#dirArrow" transform="rotate(270) translate(-36 17)" onmousedown="handlePan(-1,0)">
                  <use xlink:href="#rim" fill="#404040">
                        <set attributeName="fill" to="#808080" begin="arrowLeft.mouseover" end="arrowLeft.mouseout"/>
                  </use>
                  <path fill="none" stroke="white" stroke-width="1.5" d="M0,-3.0v7 M-2.5,-0.5L0,-3.0L2.5,-0.5"/>
                </g>
        </g>
        <svg viewBox="0 0 15 15" width="100%" height="30px" preserveAspectRatio="xMaxYMin meet">
         <g id="arrow_out" transform="scale(0.3 0.3)">
          <a xlink:href="simpleanalyzer-gui_2src_2GUI_2Renderer_8cpp_a608a02845726b8844beac12e5154c500_cgraph_org.svg" target="_base">
           <rect id="button" ry="5" rx="5" y="6" x="6" height="38" width="38"
                fill="#f2f5e9" fill-opacity="0.5" stroke="#606060" stroke-width="1.0"/>
           <path id="arrow"
             d="M 11.500037,31.436501 C 11.940474,20.09759 22.043105,11.32322 32.158766,21.979434 L 37.068811,17.246167 C 37.068811,17.246167 37.088388,32 37.088388,32 L 22.160133,31.978069 C 22.160133,31.978069 26.997745,27.140456 26.997745,27.140456 C 18.528582,18.264221 13.291696,25.230495 11.500037,31.436501 z"
             style="fill:#404040;"/>
          </a>
         </g>
        </svg>
</svg>
