<?xml version="1.0" encoding="UTF-8" standalone="no"?>
<!DOCTYPE svg PUBLIC "-//W3C//DTD SVG 1.1//EN"
 "http://www.w3.org/Graphics/SVG/1.1/DTD/svg11.dtd">
<!-- Generated by graphviz version 2.36.0 (20140111.2315)
 -->
<!-- Title: /daten/Projekte/eclipse_workspace/simpleanalyzer&#45;gui/src/processing/utils.h Pages: 1 -->
<!--zoomable 242 -->
<svg id="main" version="1.1" xmlns="http://www.w3.org/2000/svg" xmlns:xlink="http://www.w3.org/1999/xlink" xml:space="preserve" onload="init(evt)">
<style type="text/css"><![CDATA[
.edge:hover path { stroke: red; }
.edge:hover polygon { stroke: red; fill: red; }
]]></style>
<script type="text/javascript"><![CDATA[
var edges = document.getElementsByTagName('g');
if (edges && edges.length) {
  for (var i=0;i<edges.length;i++) {
    if (edges[i].id.substr(0,4)=='edge') {
      edges[i].setAttribute('class','edge');
    }
  }
}
]]></script>
        <defs>
                <circle id="rim" cx="0" cy="0" r="7"/>
                <circle id="rim2" cx="0" cy="0" r="3.5"/>
                <g id="zoomPlus">
                        <use xlink:href="#rim" fill="#404040">
                                <set attributeName="fill" to="#808080" begin="zoomplus.mouseover" end="zoomplus.mouseout"/>
                        </use>
                        <path d="M-4,0h8M0,-4v8" fill="none" stroke="white" stroke-width="1.5" pointer-events="none"/>
                </g>
                <g id="zoomMin">
                        <use xlink:href="#rim" fill="#404040">
                                <set attributeName="fill" to="#808080" begin="zoomminus.mouseover" end="zoomminus.mouseout"/>
                        </use>
                        <path d="M-4,0h8" fill="none" stroke="white" stroke-width="1.5" pointer-events="none"/>
                </g>
                <g id="dirArrow">
                        <path fill="none" stroke="white" stroke-width="1.5" d="M0,-3.0v7 M-2.5,-0.5L0,-3.0L2.5,-0.5"/>
                </g>
               <g id="resetDef">
                       <use xlink:href="#rim2" fill="#404040">
                               <set attributeName="fill" to="#808080" begin="reset.mouseover" end="reset.mouseout"/>
                       </use>
               </g>
        </defs>

<script type="text/javascript">
var viewWidth = 621;
var viewHeight = 242;
var sectionId = 'dynsection-0';
</script>
<script xlink:href="svgpan.js"/>
<svg id="graph" class="graph">
<g id="viewport">
<title>/daten/Projekte/eclipse_workspace/simpleanalyzer&#45;gui/src/processing/utils.h</title>
<!-- Node1 -->
<g id="node1" class="node"><title>Node1</title>
<polygon fill="#bfbfbf" stroke="black" points="176.354,-192.5 176.354,-233.5 313.354,-233.5 313.354,-192.5 176.354,-192.5"/>
<text text-anchor="start" x="184.354" y="-221.5" font-family="Helvetica,sans-Serif" font-size="10.00">/daten/Projekte/eclipse</text>
<text text-anchor="start" x="184.354" y="-210.5" font-family="Helvetica,sans-Serif" font-size="10.00">_workspace/simpleanalyzer</text>
<text text-anchor="middle" x="244.854" y="-199.5" font-family="Helvetica,sans-Serif" font-size="10.00">&#45;gui/src/processing/utils.h</text>
</g>
<!-- Node2 -->
<g id="node2" class="node"><title>Node2</title>
<polygon fill="none" stroke="#bfbfbf" points="207.854,-0.5 207.854,-19.5 261.854,-19.5 261.854,-0.5 207.854,-0.5"/>
<text text-anchor="middle" x="234.854" y="-7.5" font-family="Helvetica,sans-Serif" font-size="10.00">iostream</text>
</g>
<!-- Node1&#45;&gt;Node2 -->
<g id="edge1" class="edge"><title>Node1&#45;&gt;Node2</title>
<path fill="none" stroke="midnightblue" d="M176.338,-204.861C115.124,-196.901 32.0693,-181.65 11.8538,-156 -44.9802,-83.8879 120.978,-36.3254 197.945,-18.6768"/>
<polygon fill="midnightblue" stroke="midnightblue" points="198.753,-22.0826 207.746,-16.481 197.223,-15.252 198.753,-22.0826"/>
</g>
<!-- Node3 -->
<g id="node3" class="node"><title>Node3</title>
<polygon fill="none" stroke="#bfbfbf" points="20.8538,-130.5 20.8538,-149.5 64.8538,-149.5 64.8538,-130.5 20.8538,-130.5"/>
<text text-anchor="middle" x="42.8538" y="-137.5" font-family="Helvetica,sans-Serif" font-size="10.00">vector</text>
</g>
<!-- Node1&#45;&gt;Node3 -->
<g id="edge2" class="edge"><title>Node1&#45;&gt;Node3</title>
<path fill="none" stroke="midnightblue" d="M178.336,-192.497C146.378,-182.551 107.747,-169.678 73.8538,-156 72.2147,-155.339 70.5408,-154.63 68.862,-153.894"/>
<polygon fill="midnightblue" stroke="midnightblue" points="69.946,-150.539 59.4009,-149.513 67.005,-156.891 69.946,-150.539"/>
</g>
<!-- Node4 -->
<g id="node4" class="node"><title>Node4</title>
<polygon fill="none" stroke="#bfbfbf" points="82.8538,-130.5 82.8538,-149.5 138.854,-149.5 138.854,-130.5 82.8538,-130.5"/>
<text text-anchor="middle" x="110.854" y="-137.5" font-family="Helvetica,sans-Serif" font-size="10.00">algorithm</text>
</g>
<!-- Node1&#45;&gt;Node4 -->
<g id="edge3" class="edge"><title>Node1&#45;&gt;Node4</title>
<path fill="none" stroke="midnightblue" d="M207.883,-192.411C185.011,-180.292 156.253,-165.055 136.003,-154.325"/>
<polygon fill="midnightblue" stroke="midnightblue" points="137.554,-151.186 127.079,-149.597 134.276,-157.372 137.554,-151.186"/>
</g>
<!-- Node5 -->
<g id="node5" class="node"><title>Node5</title>
<polygon fill="none" stroke="#bfbfbf" points="156.854,-130.5 156.854,-149.5 200.854,-149.5 200.854,-130.5 156.854,-130.5"/>
<text text-anchor="middle" x="178.854" y="-137.5" font-family="Helvetica,sans-Serif" font-size="10.00">cmath</text>
</g>
<!-- Node1&#45;&gt;Node5 -->
<g id="edge4" class="edge"><title>Node1&#45;&gt;Node5</title>
<path fill="none" stroke="midnightblue" d="M226.469,-192.223C216.236,-181.214 203.654,-167.679 193.994,-157.287"/>
<polygon fill="midnightblue" stroke="midnightblue" points="196.346,-154.676 186.974,-149.735 191.219,-159.442 196.346,-154.676"/>
</g>
<!-- Node6 -->
<g id="node6" class="node"><title>Node6</title>
<polygon fill="none" stroke="#bfbfbf" points="218.854,-130.5 218.854,-149.5 270.854,-149.5 270.854,-130.5 218.854,-130.5"/>
<text text-anchor="middle" x="244.854" y="-137.5" font-family="Helvetica,sans-Serif" font-size="10.00">sstream</text>
</g>
<!-- Node1&#45;&gt;Node6 -->
<g id="edge5" class="edge"><title>Node1&#45;&gt;Node6</title>
<path fill="none" stroke="midnightblue" d="M244.854,-192.223C244.854,-182.086 244.854,-169.807 244.854,-159.813"/>
<polygon fill="midnightblue" stroke="midnightblue" points="248.354,-159.735 244.854,-149.735 241.354,-159.735 248.354,-159.735"/>
</g>
<!-- Node7 -->
<g id="node7" class="node"><title>Node7</title>
<polygon fill="none" stroke="#bfbfbf" points="289.354,-130.5 289.354,-149.5 342.354,-149.5 342.354,-130.5 289.354,-130.5"/>
<text text-anchor="middle" x="315.854" y="-137.5" font-family="Helvetica,sans-Serif" font-size="10.00">wx/wx.h</text>
</g>
<!-- Node1&#45;&gt;Node7 -->
<g id="edge6" class="edge"><title>Node1&#45;&gt;Node7</title>
<path fill="none" stroke="midnightblue" d="M264.631,-192.223C275.748,-181.105 289.443,-167.411 299.875,-156.979"/>
<polygon fill="midnightblue" stroke="midnightblue" points="302.523,-159.281 307.119,-149.735 297.573,-154.331 302.523,-159.281"/>
</g>
<!-- Node8 -->
<g id="node8" class="node"><title>Node8</title>
<polygon fill="none" stroke="#bfbfbf" points="360.354,-125 360.354,-155 449.354,-155 449.354,-125 360.354,-125"/>
<text text-anchor="start" x="368.354" y="-143" font-family="Helvetica,sans-Serif" font-size="10.00">../libraries/tetgen</text>
<text text-anchor="middle" x="404.854" y="-132" font-family="Helvetica,sans-Serif" font-size="10.00">/tetgen.h</text>
</g>
<!-- Node1&#45;&gt;Node8 -->
<g id="edge7" class="edge"><title>Node1&#45;&gt;Node8</title>
<path fill="none" stroke="midnightblue" d="M288.998,-192.411C312.308,-182.067 340.738,-169.452 363.601,-159.306"/>
<polygon fill="midnightblue" stroke="midnightblue" points="365.307,-162.378 373.028,-155.123 362.468,-155.98 365.307,-162.378"/>
</g>
<!-- Node9 -->
<g id="node9" class="node"><title>Node9</title>
<g id="a_node9"><a xlink:href="GeometryClasses_8h.xhtml" target="_top" xlink:title="../libraries/interpolate\l/GeometryClasses.h">
<polygon fill="none" stroke="black" points="424.354,-57 424.354,-87 531.354,-87 531.354,-57 424.354,-57"/>
<text text-anchor="start" x="432.354" y="-75" font-family="Helvetica,sans-Serif" font-size="10.00">../libraries/interpolate</text>
<text text-anchor="middle" x="477.854" y="-64" font-family="Helvetica,sans-Serif" font-size="10.00">/GeometryClasses.h</text>
</a>
</g>
</g>
<!-- Node1&#45;&gt;Node9 -->
<g id="edge8" class="edge"><title>Node1&#45;&gt;Node9</title>
<path fill="none" stroke="midnightblue" d="M313.574,-201.732C367.875,-192.243 437.753,-176.52 457.854,-156 473.027,-140.51 477.39,-115.62 478.343,-97.1314"/>
<polygon fill="midnightblue" stroke="midnightblue" points="481.842,-97.18 478.566,-87.1046 474.844,-97.0244 481.842,-97.18"/>
</g>
<!-- Node10 -->
<g id="node10" class="node"><title>Node10</title>
<g id="a_node10"><a xlink:href="Interpolator_8h.xhtml" target="_top" xlink:title="../libraries/interpolate\l/Interpolator.h">
<polygon fill="none" stroke="black" points="506.354,-125 506.354,-155 613.354,-155 613.354,-125 506.354,-125"/>
<text text-anchor="start" x="514.354" y="-143" font-family="Helvetica,sans-Serif" font-size="10.00">../libraries/interpolate</text>
<text text-anchor="middle" x="559.854" y="-132" font-family="Helvetica,sans-Serif" font-size="10.00">/Interpolator.h</text>
</a>
</g>
</g>
<!-- Node1&#45;&gt;Node10 -->
<g id="edge10" class="edge"><title>Node1&#45;&gt;Node10</title>
<path fill="none" stroke="midnightblue" d="M313.593,-196.506C367.929,-184.259 443.191,-167.295 496.17,-155.354"/>
<polygon fill="midnightblue" stroke="midnightblue" points="497.139,-158.724 506.124,-153.11 495.6,-151.895 497.139,-158.724"/>
</g>
<!-- Node9&#45;&gt;Node2 -->
<g id="edge9" class="edge"><title>Node9&#45;&gt;Node2</title>
<path fill="none" stroke="midnightblue" d="M424.226,-57.7585C377.969,-46.3371 312.388,-30.1443 271.792,-20.1207"/>
<polygon fill="midnightblue" stroke="midnightblue" points="272.584,-16.7111 262.037,-17.7118 270.906,-23.507 272.584,-16.7111"/>
</g>
<!-- Node10&#45;&gt;Node9 -->
<g id="edge11" class="edge"><title>Node10&#45;&gt;Node9</title>
<path fill="none" stroke="midnightblue" d="M542.061,-124.679C530.701,-115.536 515.797,-103.54 503.208,-93.407"/>
<polygon fill="midnightblue" stroke="midnightblue" points="505.315,-90.6099 495.33,-87.0663 500.926,-96.063 505.315,-90.6099"/>
</g>
</g>
</svg>
        <g id="navigator" transform="translate(0 0)" fill="#404254">
                <rect fill="#f2f5e9" fill-opacity="0.5" stroke="#606060" stroke-width=".5" x="0" y="0" width="60" height="60"/>
                <use id="zoomplus" xlink:href="#zoomPlus" x="17" y="9" onmousedown="handleZoom(evt,'in')"/>
                <use id="zoomminus" xlink:href="#zoomMin" x="42" y="9" onmousedown="handleZoom(evt,'out')"/>
                <use id="reset" xlink:href="#resetDef" x="30" y="36" onmousedown="handleReset()"/>
                <g id="arrowUp" xlink:href="#dirArrow" transform="translate(30 24)" onmousedown="handlePan(0,-1)">
                  <use xlink:href="#rim" fill="#404040">
                        <set attributeName="fill" to="#808080" begin="arrowUp.mouseover" end="arrowUp.mouseout"/>
                  </use>
                  <path fill="none" stroke="white" stroke-width="1.5" d="M0,-3.0v7 M-2.5,-0.5L0,-3.0L2.5,-0.5"/>
                </g>
                <g id="arrowRight" xlink:href="#dirArrow" transform="rotate(90) translate(36 -43)" onmousedown="handlePan(1,0)">
                  <use xlink:href="#rim" fill="#404040">
                        <set attributeName="fill" to="#808080" begin="arrowRight.mouseover" end="arrowRight.mouseout"/>
                  </use>
                  <path fill="none" stroke="white" stroke-width="1.5" d="M0,-3.0v7 M-2.5,-0.5L0,-3.0L2.5,-0.5"/>
                </g>
                <g id="arrowDown" xlink:href="#dirArrow" transform="rotate(180) translate(-30 -48)" onmousedown="handlePan(0,1)">
                  <use xlink:href="#rim" fill="#404040">
                        <set attributeName="fill" to="#808080" begin="arrowDown.mouseover" end="arrowDown.mouseout"/>
                  </use>
                  <path fill="none" stroke="white" stroke-width="1.5" d="M0,-3.0v7 M-2.5,-0.5L0,-3.0L2.5,-0.5"/>
                </g>
                <g id="arrowLeft" xlink:href="#dirArrow" transform="rotate(270) translate(-36 17)" onmousedown="handlePan(-1,0)">
                  <use xlink:href="#rim" fill="#404040">
                        <set attributeName="fill" to="#808080" begin="arrowLeft.mouseover" end="arrowLeft.mouseout"/>
                  </use>
                  <path fill="none" stroke="white" stroke-width="1.5" d="M0,-3.0v7 M-2.5,-0.5L0,-3.0L2.5,-0.5"/>
                </g>
        </g>
        <svg viewBox="0 0 15 15" width="100%" height="30px" preserveAspectRatio="xMaxYMin meet">
         <g id="arrow_out" transform="scale(0.3 0.3)">
          <a xlink:href="simpleanalyzer-gui_2src_2processing_2utils_8h__incl_org.svg" target="_base">
           <rect id="button" ry="5" rx="5" y="6" x="6" height="38" width="38"
                fill="#f2f5e9" fill-opacity="0.5" stroke="#606060" stroke-width="1.0"/>
           <path id="arrow"
             d="M 11.500037,31.436501 C 11.940474,20.09759 22.043105,11.32322 32.158766,21.979434 L 37.068811,17.246167 C 37.068811,17.246167 37.088388,32 37.088388,32 L 22.160133,31.978069 C 22.160133,31.978069 26.997745,27.140456 26.997745,27.140456 C 18.528582,18.264221 13.291696,25.230495 11.500037,31.436501 z"
             style="fill:#404040;"/>
          </a>
         </g>
        </svg>
</svg>
