<?xml version="1.0" encoding="UTF-8" standalone="no"?>
<!DOCTYPE svg PUBLIC "-//W3C//DTD SVG 1.1//EN"
 "http://www.w3.org/Graphics/SVG/1.1/DTD/svg11.dtd">
<!-- Generated by graphviz version 2.26.3 (20100126.1600)
 -->
<!-- Title: /daten/Projekte/eclipse_workspace/simpleanalyzer&#45;gui/src/SimpleAnalyzerApp.h Pages: 1 -->
<svg width="634pt" height="374pt"
 viewBox="0.00 0.00 634.00 374.00" xmlns="http://www.w3.org/2000/svg" xmlns:xlink="http://www.w3.org/1999/xlink">
<g id="graph1" class="graph" transform="scale(1 1) rotate(0) translate(4 370)">
<title>/daten/Projekte/eclipse_workspace/simpleanalyzer&#45;gui/src/SimpleAnalyzerApp.h</title>
<!-- Node1 -->
<g id="node1" class="node"><title>Node1</title>
<polygon fill="#bfbfbf" stroke="black" points="313,-318.5 313,-365.5 459,-365.5 459,-318.5 313,-318.5"/>
<text text-anchor="start" x="321" y="-352.5" font-family="Helvetica,sans-Serif" font-size="10.00">/daten/Projekte/eclipse</text>
<text text-anchor="start" x="321" y="-339.5" font-family="Helvetica,sans-Serif" font-size="10.00">_workspace/simpleanalyzer</text>
<text text-anchor="middle" x="386" y="-326.5" font-family="Helvetica,sans-Serif" font-size="10.00">&#45;gui/src/SimpleAnalyzerApp.h</text>
</g>
<!-- Node2 -->
<g id="node3" class="node"><title>Node2</title>
<polygon fill="none" stroke="#bfbfbf" points="-0.5,-137.5 -0.5,-158.5 52.5,-158.5 52.5,-137.5 -0.5,-137.5"/>
<text text-anchor="middle" x="26" y="-145.5" font-family="Helvetica,sans-Serif" font-size="10.00">wx/wx.h</text>
</g>
<!-- Node1&#45;&gt;Node2 -->
<g id="edge2" class="edge"><title>Node1&#45;&gt;Node2</title>
<path fill="none" stroke="midnightblue" d="M342.217,-318.406C267.537,-278.161 117.521,-197.319 54.7009,-163.467"/>
<polygon fill="midnightblue" stroke="midnightblue" points="56.2012,-160.299 45.7377,-158.636 52.8805,-166.461 56.2012,-160.299"/>
</g>
<!-- Node3 -->
<g id="node5" class="node"><title>Node3</title>
<polygon fill="none" stroke="#bfbfbf" points="582,-137.5 582,-158.5 626,-158.5 626,-137.5 582,-137.5"/>
<text text-anchor="middle" x="604" y="-145.5" font-family="Helvetica,sans-Serif" font-size="10.00">vector</text>
</g>
<!-- Node1&#45;&gt;Node3 -->
<g id="edge4" class="edge"><title>Node1&#45;&gt;Node3</title>
<path fill="none" stroke="midnightblue" d="M443.756,-318.462C484.562,-298.961 537.412,-267.402 569,-224 581.622,-206.658 591.327,-184.037 597.281,-167.997"/>
<polygon fill="midnightblue" stroke="midnightblue" points="600.596,-169.123 600.646,-158.528 594,-166.779 600.596,-169.123"/>
</g>
<!-- Node4 -->
<g id="node7" class="node"><title>Node4</title>
<a xlink:href="utils_8h.xhtml" target="_top" xlink:title="processing/utils.h">
<polygon fill="none" stroke="black" points="277.5,-202.5 277.5,-223.5 370.5,-223.5 370.5,-202.5 277.5,-202.5"/>
<text text-anchor="middle" x="324" y="-210.5" font-family="Helvetica,sans-Serif" font-size="10.00">processing/utils.h</text>
</a>
</g>
<!-- Node1&#45;&gt;Node4 -->
<g id="edge6" class="edge"><title>Node1&#45;&gt;Node4</title>
<path fill="none" stroke="midnightblue" d="M374.628,-318.339C362.813,-293.756 344.535,-255.725 333.475,-232.714"/>
<polygon fill="midnightblue" stroke="midnightblue" points="336.57,-231.074 329.084,-223.577 330.261,-234.106 336.57,-231.074"/>
</g>
<!-- Node12 -->
<g id="node27" class="node"><title>Node12</title>
<a xlink:href="ObjectData_8h.xhtml" target="_top" xlink:title="processing/ObjectData.h">
<polygon fill="none" stroke="black" points="372.5,-260.5 372.5,-281.5 497.5,-281.5 497.5,-260.5 372.5,-260.5"/>
<text text-anchor="middle" x="435" y="-268.5" font-family="Helvetica,sans-Serif" font-size="10.00">processing/ObjectData.h</text>
</a>
</g>
<!-- Node1&#45;&gt;Node12 -->
<g id="edge30" class="edge"><title>Node1&#45;&gt;Node12</title>
<path fill="none" stroke="midnightblue" d="M402.316,-318.358C408.68,-309.137 415.877,-298.709 421.894,-289.991"/>
<polygon fill="midnightblue" stroke="midnightblue" points="424.853,-291.865 427.653,-281.646 419.092,-287.888 424.853,-291.865"/>
</g>
<!-- Node4&#45;&gt;Node2 -->
<g id="edge18" class="edge"><title>Node4&#45;&gt;Node2</title>
<path fill="none" stroke="midnightblue" d="M277.043,-207.921C224.701,-201.465 137.951,-188.377 66,-166 62.8005,-165.005 59.5192,-163.82 56.2787,-162.54"/>
<polygon fill="midnightblue" stroke="midnightblue" points="57.3745,-159.203 46.8023,-158.51 54.6349,-165.645 57.3745,-159.203"/>
</g>
<!-- Node4&#45;&gt;Node3 -->
<g id="edge10" class="edge"><title>Node4&#45;&gt;Node3</title>
<path fill="none" stroke="midnightblue" d="M370.698,-208.954C421.704,-203.452 505.178,-191.243 573,-166 575.085,-165.224 577.192,-164.314 579.275,-163.322"/>
<polygon fill="midnightblue" stroke="midnightblue" points="580.926,-166.408 588.102,-158.613 577.632,-160.231 580.926,-166.408"/>
</g>
<!-- Node5 -->
<g id="node9" class="node"><title>Node5</title>
<polygon fill="none" stroke="#bfbfbf" points="175,-0.5 175,-21.5 229,-21.5 229,-0.5 175,-0.5"/>
<text text-anchor="middle" x="202" y="-8.5" font-family="Helvetica,sans-Serif" font-size="10.00">iostream</text>
</g>
<!-- Node4&#45;&gt;Node5 -->
<g id="edge8" class="edge"><title>Node4&#45;&gt;Node5</title>
<path fill="none" stroke="midnightblue" d="M277.292,-210C218.078,-205.111 121.022,-193.097 99,-166 60.3816,-118.481 135.393,-56.3704 176.956,-27.316"/>
<polygon fill="midnightblue" stroke="midnightblue" points="178.985,-30.1685 185.265,-21.6351 175.034,-24.3901 178.985,-30.1685"/>
</g>
<!-- Node6 -->
<g id="node12" class="node"><title>Node6</title>
<polygon fill="none" stroke="#bfbfbf" points="240,-137.5 240,-158.5 296,-158.5 296,-137.5 240,-137.5"/>
<text text-anchor="middle" x="268" y="-145.5" font-family="Helvetica,sans-Serif" font-size="10.00">algorithm</text>
</g>
<!-- Node4&#45;&gt;Node6 -->
<g id="edge12" class="edge"><title>Node4&#45;&gt;Node6</title>
<path fill="none" stroke="midnightblue" d="M314.753,-202.267C306.353,-192.517 293.787,-177.932 283.798,-166.336"/>
<polygon fill="midnightblue" stroke="midnightblue" points="286.254,-163.825 277.075,-158.534 280.951,-168.394 286.254,-163.825"/>
</g>
<!-- Node7 -->
<g id="node14" class="node"><title>Node7</title>
<polygon fill="none" stroke="#bfbfbf" points="108,-137.5 108,-158.5 152,-158.5 152,-137.5 108,-137.5"/>
<text text-anchor="middle" x="130" y="-145.5" font-family="Helvetica,sans-Serif" font-size="10.00">cmath</text>
</g>
<!-- Node4&#45;&gt;Node7 -->
<g id="edge14" class="edge"><title>Node4&#45;&gt;Node7</title>
<path fill="none" stroke="midnightblue" d="M277.286,-202.765C244.116,-194.724 198.923,-182.185 161,-166 159.197,-165.23 157.368,-164.378 155.548,-163.474"/>
<polygon fill="midnightblue" stroke="midnightblue" points="157.128,-160.35 146.666,-158.679 153.803,-166.51 157.128,-160.35"/>
</g>
<!-- Node8 -->
<g id="node16" class="node"><title>Node8</title>
<polygon fill="none" stroke="#bfbfbf" points="170,-137.5 170,-158.5 222,-158.5 222,-137.5 170,-137.5"/>
<text text-anchor="middle" x="196" y="-145.5" font-family="Helvetica,sans-Serif" font-size="10.00">sstream</text>
</g>
<!-- Node4&#45;&gt;Node8 -->
<g id="edge16" class="edge"><title>Node4&#45;&gt;Node8</title>
<path fill="none" stroke="midnightblue" d="M302.925,-202.403C284.062,-192.904 255.659,-178.572 231,-166 229.265,-165.116 227.483,-164.205 225.685,-163.285"/>
<polygon fill="midnightblue" stroke="midnightblue" points="227.211,-160.134 216.716,-158.684 224.016,-166.363 227.211,-160.134"/>
</g>
<!-- Node9 -->
<g id="node19" class="node"><title>Node9</title>
<polygon fill="none" stroke="#bfbfbf" points="475.5,-131 475.5,-165 564.5,-165 564.5,-131 475.5,-131"/>
<text text-anchor="start" x="483.5" y="-152" font-family="Helvetica,sans-Serif" font-size="10.00">../libraries/tetgen</text>
<text text-anchor="middle" x="520" y="-139" font-family="Helvetica,sans-Serif" font-size="10.00">/tetgen.h</text>
</g>
<!-- Node4&#45;&gt;Node9 -->
<g id="edge20" class="edge"><title>Node4&#45;&gt;Node9</title>
<path fill="none" stroke="midnightblue" d="M356.402,-202.451C383.366,-193.65 423.009,-180.66 465.735,-166.41"/>
<polygon fill="midnightblue" stroke="midnightblue" points="467.101,-169.644 475.478,-163.156 464.884,-163.004 467.101,-169.644"/>
</g>
<!-- Node10 -->
<g id="node21" class="node"><title>Node10</title>
<a xlink:href="GeometryClasses_8h.xhtml" target="_top" xlink:title="../libraries/interpolate\l/GeometryClasses.h">
<polygon fill="none" stroke="black" points="270.5,-59 270.5,-93 377.5,-93 377.5,-59 270.5,-59"/>
<text text-anchor="start" x="278.5" y="-80" font-family="Helvetica,sans-Serif" font-size="10.00">../libraries/interpolate</text>
<text text-anchor="middle" x="324" y="-67" font-family="Helvetica,sans-Serif" font-size="10.00">/GeometryClasses.h</text>
</a>
</g>
<!-- Node4&#45;&gt;Node10 -->
<g id="edge22" class="edge"><title>Node4&#45;&gt;Node10</title>
<path fill="none" stroke="midnightblue" d="M324,-202.25C324,-181.239 324,-134.131 324,-103.776"/>
<polygon fill="midnightblue" stroke="midnightblue" points="327.5,-103.429 324,-93.4294 320.5,-103.429 327.5,-103.429"/>
</g>
<!-- Node11 -->
<g id="node24" class="node"><title>Node11</title>
<a xlink:href="Interpolator_8h.xhtml" target="_top" xlink:title="../libraries/interpolate\l/Interpolator.h">
<polygon fill="none" stroke="black" points="351.5,-131 351.5,-165 458.5,-165 458.5,-131 351.5,-131"/>
<text text-anchor="start" x="359.5" y="-152" font-family="Helvetica,sans-Serif" font-size="10.00">../libraries/interpolate</text>
<text text-anchor="middle" x="405" y="-139" font-family="Helvetica,sans-Serif" font-size="10.00">/Interpolator.h</text>
</a>
</g>
<!-- Node4&#45;&gt;Node11 -->
<g id="edge26" class="edge"><title>Node4&#45;&gt;Node11</title>
<path fill="none" stroke="midnightblue" d="M337.376,-202.267C347.795,-193.906 362.646,-181.988 375.779,-171.449"/>
<polygon fill="midnightblue" stroke="midnightblue" points="378.07,-174.098 383.678,-165.11 373.689,-168.639 378.07,-174.098"/>
</g>
<!-- Node10&#45;&gt;Node5 -->
<g id="edge24" class="edge"><title>Node10&#45;&gt;Node5</title>
<path fill="none" stroke="midnightblue" d="M291.946,-58.922C273.069,-48.8644 249.376,-36.2415 231.047,-26.476"/>
<polygon fill="midnightblue" stroke="midnightblue" points="232.476,-23.2716 222.005,-21.6584 229.185,-29.4495 232.476,-23.2716"/>
</g>
<!-- Node11&#45;&gt;Node10 -->
<g id="edge28" class="edge"><title>Node11&#45;&gt;Node10</title>
<path fill="none" stroke="midnightblue" d="M385.804,-130.937C375.389,-121.679 362.346,-110.086 350.93,-99.9379"/>
<polygon fill="midnightblue" stroke="midnightblue" points="353.138,-97.2178 343.339,-93.19 348.488,-102.45 353.138,-97.2178"/>
</g>
<!-- Node12&#45;&gt;Node3 -->
<g id="edge34" class="edge"><title>Node12&#45;&gt;Node3</title>
<path fill="none" stroke="midnightblue" d="M471.253,-260.436C493.689,-252.726 522.261,-240.692 544,-224 564.286,-208.424 581.652,-184.519 592.403,-167.686"/>
<polygon fill="midnightblue" stroke="midnightblue" points="595.67,-169.057 597.941,-158.709 589.712,-165.382 595.67,-169.057"/>
</g>
<!-- Node12&#45;&gt;Node4 -->
<g id="edge40" class="edge"><title>Node12&#45;&gt;Node4</title>
<path fill="none" stroke="midnightblue" d="M414.899,-260.497C397.718,-251.519 372.77,-238.484 353.355,-228.339"/>
<polygon fill="midnightblue" stroke="midnightblue" points="354.811,-225.15 344.327,-223.621 351.569,-231.354 354.811,-225.15"/>
</g>
<!-- Node12&#45;&gt;Node9 -->
<g id="edge32" class="edge"><title>Node12&#45;&gt;Node9</title>
<path fill="none" stroke="midnightblue" d="M437.533,-260.482C441.283,-246.315 449.272,-220.723 462,-202 469.568,-190.867 479.824,-180.356 489.607,-171.618"/>
<polygon fill="midnightblue" stroke="midnightblue" points="491.99,-174.185 497.291,-165.012 487.426,-168.877 491.99,-174.185"/>
</g>
<!-- Node12&#45;&gt;Node11 -->
<g id="edge36" class="edge"><title>Node12&#45;&gt;Node11</title>
<path fill="none" stroke="midnightblue" d="M432.338,-260.085C427.73,-241.191 418.137,-201.862 411.632,-175.192"/>
<polygon fill="midnightblue" stroke="midnightblue" points="414.994,-174.203 409.224,-165.317 408.193,-175.862 414.994,-174.203"/>
</g>
<!-- Node13 -->
<g id="node32" class="node"><title>Node13</title>
<polygon fill="none" stroke="#bfbfbf" points="470.5,-202.5 470.5,-223.5 535.5,-223.5 535.5,-202.5 470.5,-202.5"/>
<text text-anchor="middle" x="503" y="-210.5" font-family="Helvetica,sans-Serif" font-size="10.00">wx/string.h</text>
</g>
<!-- Node12&#45;&gt;Node13 -->
<g id="edge38" class="edge"><title>Node12&#45;&gt;Node13</title>
<path fill="none" stroke="midnightblue" d="M447.472,-260.362C457.345,-251.941 471.333,-240.011 482.798,-230.231"/>
<polygon fill="midnightblue" stroke="midnightblue" points="485.27,-232.723 490.607,-223.571 480.727,-227.397 485.27,-232.723"/>
</g>
</g>
</svg>
