<?xml version="1.0" encoding="UTF-8" standalone="no"?>
<!DOCTYPE svg PUBLIC "-//W3C//DTD SVG 1.1//EN"
 "http://www.w3.org/Graphics/SVG/1.1/DTD/svg11.dtd">
<!-- Generated by graphviz version 2.36.0 (20140111.2315)
 -->
<!-- Title: /daten/Projekte/eclipse_workspace/simpleanalyzer&#45;gui/src/processing/utils.cpp Pages: 1 -->
<svg width="638pt" height="298pt"
 viewBox="0.00 0.00 638.00 298.00" xmlns="http://www.w3.org/2000/svg" xmlns:xlink="http://www.w3.org/1999/xlink">
<g id="graph0" class="graph" transform="scale(1 1) rotate(0) translate(4 294)">
<title>/daten/Projekte/eclipse_workspace/simpleanalyzer&#45;gui/src/processing/utils.cpp</title>
<!-- Node1 -->
<g id="node1" class="node"><title>Node1</title>
<polygon fill="#bfbfbf" stroke="black" points="101.5,-248.5 101.5,-289.5 240.5,-289.5 240.5,-248.5 101.5,-248.5"/>
<text text-anchor="start" x="109.5" y="-277.5" font-family="Helvetica,sans-Serif" font-size="10.00">/daten/Projekte/eclipse</text>
<text text-anchor="start" x="109.5" y="-266.5" font-family="Helvetica,sans-Serif" font-size="10.00">_workspace/simpleanalyzer</text>
<text text-anchor="middle" x="171" y="-255.5" font-family="Helvetica,sans-Serif" font-size="10.00">&#45;gui/src/processing/utils.cpp</text>
</g>
<!-- Node2 -->
<g id="node2" class="node"><title>Node2</title>
<g id="a_node2"><a xlink:href="simpleanalyzer-gui_2src_2processing_2utils_8h.xhtml" target="_top" xlink:title="utils.h">
<polygon fill="none" stroke="black" points="204.5,-192.5 204.5,-211.5 247.5,-211.5 247.5,-192.5 204.5,-192.5"/>
<text text-anchor="middle" x="226" y="-199.5" font-family="Helvetica,sans-Serif" font-size="10.00">utils.h</text>
</a>
</g>
</g>
<!-- Node1&#45;&gt;Node2 -->
<g id="edge1" class="edge"><title>Node1&#45;&gt;Node2</title>
<path fill="none" stroke="midnightblue" d="M187.502,-248.498C195.367,-239.203 204.669,-228.21 212.159,-219.358"/>
<polygon fill="midnightblue" stroke="midnightblue" points="214.891,-221.547 218.679,-211.652 209.547,-217.026 214.891,-221.547"/>
</g>
<!-- Node6 -->
<g id="node6" class="node"><title>Node6</title>
<polygon fill="none" stroke="#bfbfbf" points="0,-130.5 0,-149.5 44,-149.5 44,-130.5 0,-130.5"/>
<text text-anchor="middle" x="22" y="-137.5" font-family="Helvetica,sans-Serif" font-size="10.00">cmath</text>
</g>
<!-- Node1&#45;&gt;Node6 -->
<g id="edge13" class="edge"><title>Node1&#45;&gt;Node6</title>
<path fill="none" stroke="midnightblue" d="M148.045,-248.435C118.287,-223.07 67.0057,-179.361 39.9367,-156.288"/>
<polygon fill="midnightblue" stroke="midnightblue" points="41.9378,-153.395 32.0568,-149.572 37.397,-158.722 41.9378,-153.395"/>
</g>
<!-- Node3 -->
<g id="node3" class="node"><title>Node3</title>
<polygon fill="none" stroke="#bfbfbf" points="256,-0.5 256,-19.5 310,-19.5 310,-0.5 256,-0.5"/>
<text text-anchor="middle" x="283" y="-7.5" font-family="Helvetica,sans-Serif" font-size="10.00">iostream</text>
</g>
<!-- Node2&#45;&gt;Node3 -->
<g id="edge2" class="edge"><title>Node2&#45;&gt;Node3</title>
<path fill="none" stroke="midnightblue" d="M204.245,-200.995C173.181,-199.667 117.002,-192.076 91,-156 82.6841,-144.462 83.9404,-136.346 91,-124 124.199,-65.9389 200.151,-34.7573 245.951,-20.6337"/>
<polygon fill="midnightblue" stroke="midnightblue" points="247.2,-23.9141 255.794,-17.7176 245.212,-17.2025 247.2,-23.9141"/>
</g>
<!-- Node4 -->
<g id="node4" class="node"><title>Node4</title>
<polygon fill="none" stroke="#bfbfbf" points="100,-130.5 100,-149.5 144,-149.5 144,-130.5 100,-130.5"/>
<text text-anchor="middle" x="122" y="-137.5" font-family="Helvetica,sans-Serif" font-size="10.00">vector</text>
</g>
<!-- Node2&#45;&gt;Node4 -->
<g id="edge3" class="edge"><title>Node2&#45;&gt;Node4</title>
<path fill="none" stroke="midnightblue" d="M211.099,-192.403C194.032,-182.557 165.839,-166.291 145.738,-154.695"/>
<polygon fill="midnightblue" stroke="midnightblue" points="147.284,-151.546 136.873,-149.581 143.786,-157.61 147.284,-151.546"/>
</g>
<!-- Node5 -->
<g id="node5" class="node"><title>Node5</title>
<polygon fill="none" stroke="#bfbfbf" points="162,-130.5 162,-149.5 218,-149.5 218,-130.5 162,-130.5"/>
<text text-anchor="middle" x="190" y="-137.5" font-family="Helvetica,sans-Serif" font-size="10.00">algorithm</text>
</g>
<!-- Node2&#45;&gt;Node5 -->
<g id="edge4" class="edge"><title>Node2&#45;&gt;Node5</title>
<path fill="none" stroke="midnightblue" d="M220.842,-192.403C215.549,-183.582 207.165,-169.608 200.473,-158.455"/>
<polygon fill="midnightblue" stroke="midnightblue" points="203.295,-156.355 195.148,-149.581 197.292,-159.956 203.295,-156.355"/>
</g>
<!-- Node2&#45;&gt;Node6 -->
<g id="edge5" class="edge"><title>Node2&#45;&gt;Node6</title>
<path fill="none" stroke="midnightblue" d="M204.244,-196.151C171.95,-188.735 109.592,-173.571 58,-156 55.5885,-155.179 53.1082,-154.275 50.6314,-153.33"/>
<polygon fill="midnightblue" stroke="midnightblue" points="51.834,-150.042 41.2494,-149.575 49.2329,-156.541 51.834,-150.042"/>
</g>
<!-- Node7 -->
<g id="node7" class="node"><title>Node7</title>
<polygon fill="none" stroke="#bfbfbf" points="236,-130.5 236,-149.5 288,-149.5 288,-130.5 236,-130.5"/>
<text text-anchor="middle" x="262" y="-137.5" font-family="Helvetica,sans-Serif" font-size="10.00">sstream</text>
</g>
<!-- Node2&#45;&gt;Node7 -->
<g id="edge6" class="edge"><title>Node2&#45;&gt;Node7</title>
<path fill="none" stroke="midnightblue" d="M231.158,-192.403C236.451,-183.582 244.835,-169.608 251.527,-158.455"/>
<polygon fill="midnightblue" stroke="midnightblue" points="254.708,-159.956 256.852,-149.581 248.705,-156.355 254.708,-159.956"/>
</g>
<!-- Node8 -->
<g id="node8" class="node"><title>Node8</title>
<polygon fill="none" stroke="#bfbfbf" points="306.5,-130.5 306.5,-149.5 359.5,-149.5 359.5,-130.5 306.5,-130.5"/>
<text text-anchor="middle" x="333" y="-137.5" font-family="Helvetica,sans-Serif" font-size="10.00">wx/wx.h</text>
</g>
<!-- Node2&#45;&gt;Node8 -->
<g id="edge7" class="edge"><title>Node2&#45;&gt;Node8</title>
<path fill="none" stroke="midnightblue" d="M241.33,-192.403C258.97,-182.512 288.16,-166.144 308.858,-154.538"/>
<polygon fill="midnightblue" stroke="midnightblue" points="310.688,-157.524 317.698,-149.581 307.264,-151.419 310.688,-157.524"/>
</g>
<!-- Node9 -->
<g id="node9" class="node"><title>Node9</title>
<polygon fill="none" stroke="#bfbfbf" points="377.5,-125 377.5,-155 466.5,-155 466.5,-125 377.5,-125"/>
<text text-anchor="start" x="385.5" y="-143" font-family="Helvetica,sans-Serif" font-size="10.00">../libraries/tetgen</text>
<text text-anchor="middle" x="422" y="-132" font-family="Helvetica,sans-Serif" font-size="10.00">/tetgen.h</text>
</g>
<!-- Node2&#45;&gt;Node9 -->
<g id="edge8" class="edge"><title>Node2&#45;&gt;Node9</title>
<path fill="none" stroke="midnightblue" d="M247.724,-194.35C276.392,-185.574 327.849,-169.822 367.444,-157.701"/>
<polygon fill="midnightblue" stroke="midnightblue" points="368.696,-160.978 377.233,-154.704 366.647,-154.285 368.696,-160.978"/>
</g>
<!-- Node10 -->
<g id="node10" class="node"><title>Node10</title>
<g id="a_node10"><a xlink:href="GeometryClasses_8h.xhtml" target="_top" xlink:title="../libraries/interpolate\l/GeometryClasses.h">
<polygon fill="none" stroke="black" points="441.5,-57 441.5,-87 548.5,-87 548.5,-57 441.5,-57"/>
<text text-anchor="start" x="449.5" y="-75" font-family="Helvetica,sans-Serif" font-size="10.00">../libraries/interpolate</text>
<text text-anchor="middle" x="495" y="-64" font-family="Helvetica,sans-Serif" font-size="10.00">/GeometryClasses.h</text>
</a>
</g>
</g>
<!-- Node2&#45;&gt;Node10 -->
<g id="edge9" class="edge"><title>Node2&#45;&gt;Node10</title>
<path fill="none" stroke="midnightblue" d="M247.811,-200.034C302.282,-197.171 442.256,-186.908 475,-156 490.858,-141.031 495.094,-115.854 495.829,-97.1457"/>
<polygon fill="midnightblue" stroke="midnightblue" points="499.33,-97.0349 495.919,-87.0043 492.331,-96.973 499.33,-97.0349"/>
</g>
<!-- Node11 -->
<g id="node11" class="node"><title>Node11</title>
<g id="a_node11"><a xlink:href="Interpolator_8h.xhtml" target="_top" xlink:title="../libraries/interpolate\l/Interpolator.h">
<polygon fill="none" stroke="black" points="523.5,-125 523.5,-155 630.5,-155 630.5,-125 523.5,-125"/>
<text text-anchor="start" x="531.5" y="-143" font-family="Helvetica,sans-Serif" font-size="10.00">../libraries/interpolate</text>
<text text-anchor="middle" x="577" y="-132" font-family="Helvetica,sans-Serif" font-size="10.00">/Interpolator.h</text>
</a>
</g>
</g>
<!-- Node2&#45;&gt;Node11 -->
<g id="edge11" class="edge"><title>Node2&#45;&gt;Node11</title>
<path fill="none" stroke="midnightblue" d="M247.734,-197.994C295.267,-191.32 411.977,-174.398 509,-156 510.448,-155.725 511.911,-155.443 513.387,-155.154"/>
<polygon fill="midnightblue" stroke="midnightblue" points="514.128,-158.575 523.239,-153.168 512.744,-151.713 514.128,-158.575"/>
</g>
<!-- Node10&#45;&gt;Node3 -->
<g id="edge10" class="edge"><title>Node10&#45;&gt;Node3</title>
<path fill="none" stroke="midnightblue" d="M445.295,-56.9327C406.866,-46.0565 354.53,-31.2444 319.8,-21.415"/>
<polygon fill="midnightblue" stroke="midnightblue" points="320.635,-18.0139 310.059,-18.6583 318.728,-24.7493 320.635,-18.0139"/>
</g>
<!-- Node11&#45;&gt;Node10 -->
<g id="edge12" class="edge"><title>Node11&#45;&gt;Node10</title>
<path fill="none" stroke="midnightblue" d="M559.207,-124.679C547.847,-115.536 532.943,-103.54 520.354,-93.407"/>
<polygon fill="midnightblue" stroke="midnightblue" points="522.461,-90.6099 512.476,-87.0663 518.072,-96.063 522.461,-90.6099"/>
</g>
</g>
</svg>
