<?xml version="1.0" encoding="UTF-8" standalone="no"?>
<!DOCTYPE svg PUBLIC "-//W3C//DTD SVG 1.1//EN"
 "http://www.w3.org/Graphics/SVG/1.1/DTD/svg11.dtd">
<!-- Generated by graphviz version 2.26.3 (20100126.1600)
 -->
<!-- Title: Renderer::Viewport_info Pages: 1 -->
<svg width="172pt" height="174pt"
 viewBox="0.00 0.00 172.00 174.00" xmlns="http://www.w3.org/2000/svg" xmlns:xlink="http://www.w3.org/1999/xlink">
<g id="graph1" class="graph" transform="scale(1 1) rotate(0) translate(4 170)">
<title>Renderer::Viewport_info</title>
<!-- Node1 -->
<g id="node1" class="node"><title>Node1</title>
<polygon fill="#bfbfbf" stroke="black" points="0,-0.5 0,-21.5 122,-21.5 122,-0.5 0,-0.5"/>
<text text-anchor="middle" x="61" y="-8.5" font-family="Helvetica,sans-Serif" font-size="10.00">Renderer::Viewport_info</text>
</g>
<!-- Node2 -->
<g id="node2" class="node"><title>Node2</title>
<a xlink:href="classTriangle.xhtml" target="_top" xlink:title="Ein durch 3 Ortsvektoren beschriebenes Dreieck. ">
<polygon fill="none" stroke="black" points="113.5,-72.5 113.5,-93.5 164.5,-93.5 164.5,-72.5 113.5,-72.5"/>
<text text-anchor="middle" x="139" y="-80.5" font-family="Helvetica,sans-Serif" font-size="10.00">Triangle</text>
</a>
</g>
<!-- Node2&#45;&gt;Node1 -->
<g id="edge2" class="edge"><title>Node2&#45;&gt;Node1</title>
<path fill="none" stroke="#9a32cd" stroke-dasharray="5,2" d="M119.878,-65.3488C105.061,-51.6714 85.0185,-33.1709 72.5564,-21.6674"/>
<polygon fill="#9a32cd" stroke="#9a32cd" points="117.769,-68.1651 127.491,-72.3762 122.517,-63.0215 117.769,-68.1651"/>
<text text-anchor="middle" x="114.5" y="-44.5" font-family="Helvetica,sans-Serif" font-size="10.00"> cut</text>
</g>
<!-- Node3 -->
<g id="node4" class="node"><title>Node3</title>
<a xlink:href="classVector3D.xhtml" target="_top" xlink:title="3D&#45;Vektorklasse mit nützlichen Operationen. ">
<polygon fill="none" stroke="black" points="32,-144.5 32,-165.5 90,-165.5 90,-144.5 32,-144.5"/>
<text text-anchor="middle" x="61" y="-152.5" font-family="Helvetica,sans-Serif" font-size="10.00">Vector3D</text>
</a>
</g>
<!-- Node3&#45;&gt;Node1 -->
<g id="edge6" class="edge"><title>Node3&#45;&gt;Node1</title>
<path fill="none" stroke="#9a32cd" stroke-dasharray="5,2" d="M49.8173,-135.412C43.8295,-123.783 37.0693,-108.518 34,-94 28.3582,-67.3145 43.9986,-37.1216 53.7823,-21.5464"/>
<polygon fill="#9a32cd" stroke="#9a32cd" points="46.7428,-137.084 54.5673,-144.228 52.9052,-133.764 46.7428,-137.084"/>
<text text-anchor="middle" x="69.5" y="-80.5" font-family="Helvetica,sans-Serif" font-size="10.00"> cameraPosition</text>
</g>
<!-- Node3&#45;&gt;Node2 -->
<g id="edge4" class="edge"><title>Node3&#45;&gt;Node2</title>
<path fill="none" stroke="#9a32cd" stroke-dasharray="5,2" d="M80.1221,-137.349C94.9393,-123.671 114.981,-105.171 127.444,-93.6674"/>
<polygon fill="#9a32cd" stroke="#9a32cd" points="77.4832,-135.021 72.5092,-144.376 82.2312,-140.165 77.4832,-135.021"/>
<text text-anchor="middle" x="118.5" y="-116.5" font-family="Helvetica,sans-Serif" font-size="10.00"> verts</text>
</g>
</g>
</svg>
