<?xml version="1.0" encoding="UTF-8" standalone="no"?>
<!DOCTYPE svg PUBLIC "-//W3C//DTD SVG 1.1//EN"
 "http://www.w3.org/Graphics/SVG/1.1/DTD/svg11.dtd">
<!-- Generated by graphviz version 2.26.3 (20100126.1600)
 -->
<!-- Title: Options Pages: 1 -->
<svg width="573pt" height="166pt"
 viewBox="0.00 0.00 573.00 166.00" xmlns="http://www.w3.org/2000/svg" xmlns:xlink="http://www.w3.org/1999/xlink">
<g id="graph1" class="graph" transform="scale(1 1) rotate(0) translate(4 162)">
<title>Options</title>
<!-- Node1 -->
<g id="node1" class="node"><title>Node1</title>
<polygon fill="#bfbfbf" stroke="black" points="221,-0.5 221,-21.5 271,-21.5 271,-0.5 221,-0.5"/>
<text text-anchor="middle" x="246" y="-8.5" font-family="Helvetica,sans-Serif" font-size="10.00">Options</text>
</g>
<!-- Node2 -->
<g id="node2" class="node"><title>Node2</title>
<polygon fill="none" stroke="#bfbfbf" points="-0.5,-136.5 -0.5,-157.5 44.5,-157.5 44.5,-136.5 -0.5,-136.5"/>
<text text-anchor="middle" x="22" y="-144.5" font-family="Helvetica,sans-Serif" font-size="10.00">double</text>
</g>
<!-- Node2&#45;&gt;Node1 -->
<g id="edge2" class="edge"><title>Node2&#45;&gt;Node1</title>
<path fill="none" stroke="#9a32cd" stroke-dasharray="5,2" d="M18.5202,-126.48C15.6993,-102.265 15.314,-62.4624 38,-40 50.8248,-27.3016 168.238,-16.8981 220.783,-12.8358"/>
<polygon fill="#9a32cd" stroke="#9a32cd" points="15.0554,-126.975 19.9136,-136.391 21.9872,-126.001 15.0554,-126.975"/>
<text text-anchor="middle" x="61" y="-83" font-family="Helvetica,sans-Serif" font-size="10.00"> max_time</text>
<text text-anchor="middle" x="61" y="-70" font-family="Helvetica,sans-Serif" font-size="10.00">min_time</text>
</g>
<!-- Node3 -->
<g id="node4" class="node"><title>Node3</title>
<polygon fill="none" stroke="#bfbfbf" points="73.5,-136.5 73.5,-157.5 108.5,-157.5 108.5,-136.5 73.5,-136.5"/>
<text text-anchor="middle" x="91" y="-144.5" font-family="Helvetica,sans-Serif" font-size="10.00">float</text>
</g>
<!-- Node3&#45;&gt;Node1 -->
<g id="edge4" class="edge"><title>Node3&#45;&gt;Node1</title>
<path fill="none" stroke="#9a32cd" stroke-dasharray="5,2" d="M88.1659,-126.005C86.1857,-101.943 87.0521,-62.8882 109,-40 124.144,-24.2071 185.723,-16.2858 220.95,-12.9744"/>
<polygon fill="#9a32cd" stroke="#9a32cd" points="84.7106,-126.612 89.2484,-136.186 91.6713,-125.872 84.7106,-126.612"/>
<text text-anchor="middle" x="141.5" y="-96" font-family="Helvetica,sans-Serif" font-size="10.00"> basetemp</text>
<text text-anchor="middle" x="141.5" y="-83" font-family="Helvetica,sans-Serif" font-size="10.00">height</text>
<text text-anchor="middle" x="141.5" y="-70" font-family="Helvetica,sans-Serif" font-size="10.00">objwidth</text>
<text text-anchor="middle" x="141.5" y="-57" font-family="Helvetica,sans-Serif" font-size="10.00">error_threshold</text>
</g>
<!-- Node4 -->
<g id="node6" class="node"><title>Node4</title>
<polygon fill="none" stroke="#bfbfbf" points="161.5,-136.5 161.5,-157.5 196.5,-157.5 196.5,-136.5 161.5,-136.5"/>
<text text-anchor="middle" x="179" y="-144.5" font-family="Helvetica,sans-Serif" font-size="10.00">char</text>
</g>
<!-- Node4&#45;&gt;Node1 -->
<g id="edge6" class="edge"><title>Node4&#45;&gt;Node1</title>
<path fill="none" stroke="#9a32cd" stroke-dasharray="5,2" d="M177.821,-126.14C177.554,-103.083 180.291,-65.7999 198,-40 203.62,-31.8123 212.382,-25.5453 220.889,-20.9683"/>
<polygon fill="#9a32cd" stroke="#9a32cd" points="174.325,-126.32 178.142,-136.204 181.322,-126.097 174.325,-126.32"/>
<text text-anchor="middle" x="220" y="-76.5" font-family="Helvetica,sans-Serif" font-size="10.00"> separator</text>
</g>
<!-- Node5 -->
<g id="node8" class="node"><title>Node5</title>
<polygon fill="none" stroke="#bfbfbf" points="224.5,-136.5 224.5,-157.5 267.5,-157.5 267.5,-136.5 224.5,-136.5"/>
<text text-anchor="middle" x="246" y="-144.5" font-family="Helvetica,sans-Serif" font-size="10.00">size_t</text>
</g>
<!-- Node5&#45;&gt;Node1 -->
<g id="edge8" class="edge"><title>Node5&#45;&gt;Node1</title>
<path fill="none" stroke="#9a32cd" stroke-dasharray="5,2" d="M246,-126.319C246,-96.9201 246,-44.1209 246,-21.6221"/>
<polygon fill="#9a32cd" stroke="#9a32cd" points="242.5,-126.328 246,-136.328 249.5,-126.328 242.5,-126.328"/>
<text text-anchor="middle" x="264.5" y="-96" font-family="Helvetica,sans-Serif" font-size="10.00"> timecol</text>
<text text-anchor="middle" x="264.5" y="-83" font-family="Helvetica,sans-Serif" font-size="10.00">namecol</text>
<text text-anchor="middle" x="264.5" y="-70" font-family="Helvetica,sans-Serif" font-size="10.00">startrow</text>
<text text-anchor="middle" x="264.5" y="-57" font-family="Helvetica,sans-Serif" font-size="10.00">startcol</text>
</g>
<!-- Node6 -->
<g id="node10" class="node"><title>Node6</title>
<polygon fill="none" stroke="#bfbfbf" points="291.5,-136.5 291.5,-157.5 320.5,-157.5 320.5,-136.5 291.5,-136.5"/>
<text text-anchor="middle" x="306" y="-144.5" font-family="Helvetica,sans-Serif" font-size="10.00">int</text>
</g>
<!-- Node6&#45;&gt;Node1 -->
<g id="edge10" class="edge"><title>Node6&#45;&gt;Node1</title>
<path fill="none" stroke="#9a32cd" stroke-dasharray="5,2" d="M305.948,-126.14C304.978,-103.336 300.655,-66.5152 284,-40 279.321,-32.5508 272.002,-26.2985 265.031,-21.5291"/>
<polygon fill="#9a32cd" stroke="#9a32cd" points="302.455,-126.468 306.196,-136.38 309.453,-126.299 302.455,-126.468"/>
<text text-anchor="middle" x="342.5" y="-109" font-family="Helvetica,sans-Serif" font-size="10.00"> offset</text>
<text text-anchor="middle" x="342.5" y="-96" font-family="Helvetica,sans-Serif" font-size="10.00">fiber_step_delta</text>
<text text-anchor="middle" x="342.5" y="-83" font-family="Helvetica,sans-Serif" font-size="10.00">maxfwcount</text>
<text text-anchor="middle" x="342.5" y="-70" font-family="Helvetica,sans-Serif" font-size="10.00">time_step_delta</text>
<text text-anchor="middle" x="342.5" y="-57" font-family="Helvetica,sans-Serif" font-size="10.00">max_dt</text>
<text text-anchor="middle" x="342.5" y="-44" font-family="Helvetica,sans-Serif" font-size="10.00">tab_space_count</text>
</g>
<!-- Node7 -->
<g id="node12" class="node"><title>Node7</title>
<polygon fill="none" stroke="#bfbfbf" points="386.5,-136.5 386.5,-157.5 421.5,-157.5 421.5,-136.5 386.5,-136.5"/>
<text text-anchor="middle" x="404" y="-144.5" font-family="Helvetica,sans-Serif" font-size="10.00">bool</text>
</g>
<!-- Node7&#45;&gt;Node1 -->
<g id="edge12" class="edge"><title>Node7&#45;&gt;Node1</title>
<path fill="none" stroke="#9a32cd" stroke-dasharray="5,2" d="M402.371,-125.964C399.792,-98.3233 393.802,-51.8885 382,-40 366.735,-24.623 306.013,-16.5522 271.086,-13.1018"/>
<polygon fill="#9a32cd" stroke="#9a32cd" points="398.906,-126.515 403.249,-136.179 405.88,-125.916 398.906,-126.515"/>
<text text-anchor="middle" x="447.5" y="-96" font-family="Helvetica,sans-Serif" font-size="10.00"> flipobj</text>
<text text-anchor="middle" x="447.5" y="-83" font-family="Helvetica,sans-Serif" font-size="10.00">auto_delta</text>
<text text-anchor="start" x="401" y="-70" font-family="Helvetica,sans-Serif" font-size="10.00">replace_comma_with</text>
<text text-anchor="middle" x="447.5" y="-57" font-family="Helvetica,sans-Serif" font-size="10.00">_point</text>
</g>
<!-- Node8 -->
<g id="node14" class="node"><title>Node8</title>
<polygon fill="none" stroke="#bfbfbf" points="502.5,-136.5 502.5,-157.5 537.5,-157.5 537.5,-136.5 502.5,-136.5"/>
<text text-anchor="middle" x="520" y="-144.5" font-family="Helvetica,sans-Serif" font-size="10.00">long</text>
</g>
<!-- Node8&#45;&gt;Node1 -->
<g id="edge14" class="edge"><title>Node8&#45;&gt;Node1</title>
<path fill="none" stroke="#9a32cd" stroke-dasharray="5,2" d="M522.272,-126.244C523.678,-101.797 521.776,-61.7662 498,-40 481.474,-24.8714 331.983,-15.4698 271.363,-12.2499"/>
<polygon fill="#9a32cd" stroke="#9a32cd" points="518.779,-126.008 521.459,-136.258 525.756,-126.574 518.779,-126.008"/>
<text text-anchor="middle" x="543.5" y="-89.5" font-family="Helvetica,sans-Serif" font-size="10.00"> delta</text>
<text text-anchor="middle" x="543.5" y="-76.5" font-family="Helvetica,sans-Serif" font-size="10.00">max_time</text>
<text text-anchor="middle" x="543.5" y="-63.5" font-family="Helvetica,sans-Serif" font-size="10.00">min_time</text>
</g>
</g>
</svg>
