<?xml version="1.0" encoding="UTF-8" standalone="no"?>
<!DOCTYPE svg PUBLIC "-//W3C//DTD SVG 1.1//EN"
 "http://www.w3.org/Graphics/SVG/1.1/DTD/svg11.dtd">
<!-- Generated by graphviz version 2.36.0 (20140111.2315)
 -->
<!-- Title: Analyzer::AnalyzerData_object Pages: 1 -->
<svg width="138pt" height="582pt"
 viewBox="0.00 0.00 138.00 582.00" xmlns="http://www.w3.org/2000/svg" xmlns:xlink="http://www.w3.org/1999/xlink">
<g id="graph0" class="graph" transform="scale(1 1) rotate(0) translate(4 578)">
<title>Analyzer::AnalyzerData_object</title>
<!-- Node1 -->
<g id="node1" class="node"><title>Node1</title>
<polygon fill="#bfbfbf" stroke="black" points="5,-1 5,-69 125,-69 125,-1 5,-1"/>
<text text-anchor="start" x="13" y="-57" font-family="Helvetica,sans-Serif" font-size="10.00">Analyzer::AnalyzerData</text>
<text text-anchor="middle" x="65" y="-46" font-family="Helvetica,sans-Serif" font-size="10.00">_object</text>
<polyline fill="none" stroke="black" points="5,-39 125,-39 "/>
<text text-anchor="start" x="13" y="-27" font-family="Helvetica,sans-Serif" font-size="10.00">+ volume</text>
<polyline fill="none" stroke="black" points="5,-20 125,-20 "/>
<text text-anchor="middle" x="65" y="-8" font-family="Helvetica,sans-Serif" font-size="10.00"> </text>
</g>
<!-- Node2 -->
<g id="node2" class="node"><title>Node2</title>
<g id="a_node2"><a xlink:href="classstd_1_1vector.xhtml" target="_top" xlink:title="{std::vector\&lt; Analyzer\l::AnalyzerData_dataset \&gt;\n||}">
<polygon fill="none" stroke="black" points="1,-119 1,-187 129,-187 129,-119 1,-119"/>
<text text-anchor="start" x="9" y="-175" font-family="Helvetica,sans-Serif" font-size="10.00">std::vector&lt; Analyzer</text>
<text text-anchor="middle" x="65" y="-164" font-family="Helvetica,sans-Serif" font-size="10.00">::AnalyzerData_dataset &gt;</text>
<polyline fill="none" stroke="black" points="1,-157 129,-157 "/>
<text text-anchor="middle" x="65" y="-145" font-family="Helvetica,sans-Serif" font-size="10.00"> </text>
<polyline fill="none" stroke="black" points="1,-138 129,-138 "/>
<text text-anchor="middle" x="65" y="-126" font-family="Helvetica,sans-Serif" font-size="10.00"> </text>
</a>
</g>
</g>
<!-- Node2&#45;&gt;Node1 -->
<g id="edge1" class="edge"><title>Node2&#45;&gt;Node1</title>
<path fill="none" stroke="#404040" d="M65,-118.759C65,-107.11 65,-93.8205 65,-81.3509"/>
<polygon fill="none" stroke="#404040" points="65.0001,-81.2458 61,-75.2458 65,-69.2458 69,-75.2458 65.0001,-81.2458"/>
<text text-anchor="middle" x="91" y="-91.5" font-family="Helvetica,sans-Serif" font-size="10.00"> +data_sets</text>
</g>
<!-- Node3 -->
<g id="node3" class="node"><title>Node3</title>
<g id="a_node3"><a xlink:href="structAnalyzer_1_1AnalyzerData__dataset.xhtml" target="_top" xlink:title="Analyseergebnisse für einen Sensordatensatz. ">
<polygon fill="none" stroke="black" points="5,-236.5 5,-315.5 125,-315.5 125,-236.5 5,-236.5"/>
<text text-anchor="start" x="13" y="-303.5" font-family="Helvetica,sans-Serif" font-size="10.00">Analyzer::AnalyzerData</text>
<text text-anchor="middle" x="65" y="-292.5" font-family="Helvetica,sans-Serif" font-size="10.00">_dataset</text>
<polyline fill="none" stroke="black" points="5,-285.5 125,-285.5 "/>
<text text-anchor="start" x="13" y="-273.5" font-family="Helvetica,sans-Serif" font-size="10.00">+ name</text>
<text text-anchor="start" x="13" y="-262.5" font-family="Helvetica,sans-Serif" font-size="10.00">+ heat_energy</text>
<polyline fill="none" stroke="black" points="5,-255.5 125,-255.5 "/>
<text text-anchor="middle" x="65" y="-243.5" font-family="Helvetica,sans-Serif" font-size="10.00"> </text>
</a>
</g>
</g>
<!-- Node3&#45;&gt;Node2 -->
<g id="edge2" class="edge"><title>Node3&#45;&gt;Node2</title>
<path fill="none" stroke="#404040" d="M65,-236.382C65,-224.678 65,-211.712 65,-199.596"/>
<polygon fill="none" stroke="#404040" points="65.0001,-199.367 61,-193.367 65,-187.367 69,-193.367 65.0001,-199.367"/>
<text text-anchor="middle" x="87" y="-209.5" font-family="Helvetica,sans-Serif" font-size="10.00"> +element</text>
</g>
<!-- Node4 -->
<g id="node4" class="node"><title>Node4</title>
<g id="a_node4"><a xlink:href="classstd_1_1vector.xhtml" target="_top" xlink:title="{std::vector\&lt; Analyzer\l::AnalyzerData_material \&gt;\n||}">
<polygon fill="none" stroke="black" points="-0.5,-365 -0.5,-433 130.5,-433 130.5,-365 -0.5,-365"/>
<text text-anchor="start" x="7.5" y="-421" font-family="Helvetica,sans-Serif" font-size="10.00">std::vector&lt; Analyzer</text>
<text text-anchor="middle" x="65" y="-410" font-family="Helvetica,sans-Serif" font-size="10.00">::AnalyzerData_material &gt;</text>
<polyline fill="none" stroke="black" points="-0.5,-403 130.5,-403 "/>
<text text-anchor="middle" x="65" y="-391" font-family="Helvetica,sans-Serif" font-size="10.00"> </text>
<polyline fill="none" stroke="black" points="-0.5,-384 130.5,-384 "/>
<text text-anchor="middle" x="65" y="-372" font-family="Helvetica,sans-Serif" font-size="10.00"> </text>
</a>
</g>
</g>
<!-- Node4&#45;&gt;Node3 -->
<g id="edge3" class="edge"><title>Node4&#45;&gt;Node3</title>
<path fill="none" stroke="#404040" d="M65,-364.936C65,-353.496 65,-340.395 65,-327.86"/>
<polygon fill="none" stroke="#404040" points="65.0001,-327.597 61,-321.597 65,-315.597 69,-321.597 65.0001,-327.597"/>
<text text-anchor="middle" x="90" y="-337.5" font-family="Helvetica,sans-Serif" font-size="10.00"> +mat_data</text>
</g>
<!-- Node5 -->
<g id="node5" class="node"><title>Node5</title>
<g id="a_node5"><a xlink:href="structAnalyzer_1_1AnalyzerData__material.xhtml" target="_top" xlink:title="Analyseergebnisse für ein Material. ">
<polygon fill="none" stroke="black" points="5,-483 5,-573 125,-573 125,-483 5,-483"/>
<text text-anchor="start" x="13" y="-561" font-family="Helvetica,sans-Serif" font-size="10.00">Analyzer::AnalyzerData</text>
<text text-anchor="middle" x="65" y="-550" font-family="Helvetica,sans-Serif" font-size="10.00">_material</text>
<polyline fill="none" stroke="black" points="5,-543 125,-543 "/>
<text text-anchor="start" x="13" y="-531" font-family="Helvetica,sans-Serif" font-size="10.00">+ name</text>
<text text-anchor="start" x="13" y="-520" font-family="Helvetica,sans-Serif" font-size="10.00">+ volume</text>
<text text-anchor="start" x="13" y="-509" font-family="Helvetica,sans-Serif" font-size="10.00">+ heat_energy</text>
<polyline fill="none" stroke="black" points="5,-502 125,-502 "/>
<text text-anchor="middle" x="65" y="-490" font-family="Helvetica,sans-Serif" font-size="10.00"> </text>
</a>
</g>
</g>
<!-- Node5&#45;&gt;Node4 -->
<g id="edge4" class="edge"><title>Node5&#45;&gt;Node4</title>
<path fill="none" stroke="#404040" d="M65,-482.938C65,-470.815 65,-457.646 65,-445.446"/>
<polygon fill="none" stroke="#404040" points="65.0001,-445.168 61,-439.168 65,-433.168 69,-439.168 65.0001,-445.168"/>
<text text-anchor="middle" x="87" y="-455.5" font-family="Helvetica,sans-Serif" font-size="10.00"> +element</text>
</g>
</g>
</svg>
