<?xml version="1.0" encoding="UTF-8" standalone="no"?>
<!DOCTYPE svg PUBLIC "-//W3C//DTD SVG 1.1//EN"
 "http://www.w3.org/Graphics/SVG/1.1/DTD/svg11.dtd">
<!-- Generated by graphviz version 2.26.3 (20100126.1600)
 -->
<!-- Title: Utils::CutRender_info Pages: 1 -->
<svg width="118pt" height="174pt"
 viewBox="0.00 0.00 118.00 174.00" xmlns="http://www.w3.org/2000/svg" xmlns:xlink="http://www.w3.org/1999/xlink">
<g id="graph1" class="graph" transform="scale(1 1) rotate(0) translate(4 170)">
<title>Utils::CutRender_info</title>
<!-- Node1 -->
<g id="node1" class="node"><title>Node1</title>
<polygon fill="#bfbfbf" stroke="black" points="-0.5,-0.5 -0.5,-21.5 110.5,-21.5 110.5,-0.5 -0.5,-0.5"/>
<text text-anchor="middle" x="55" y="-8.5" font-family="Helvetica,sans-Serif" font-size="10.00">Utils::CutRender_info</text>
</g>
<!-- Node2 -->
<g id="node2" class="node"><title>Node2</title>
<a xlink:href="classTriangle.xhtml" target="_top" xlink:title="Ein durch 3 Ortsvektoren beschriebenes Dreieck. ">
<polygon fill="none" stroke="black" points="29.5,-72.5 29.5,-93.5 80.5,-93.5 80.5,-72.5 29.5,-72.5"/>
<text text-anchor="middle" x="55" y="-80.5" font-family="Helvetica,sans-Serif" font-size="10.00">Triangle</text>
</a>
</g>
<!-- Node2&#45;&gt;Node1 -->
<g id="edge2" class="edge"><title>Node2&#45;&gt;Node1</title>
<path fill="none" stroke="#9a32cd" stroke-dasharray="5,2" d="M55,-62.2348C55,-48.969 55,-32.3188 55,-21.6674"/>
<polygon fill="#9a32cd" stroke="#9a32cd" points="51.5001,-62.3761 55,-72.3762 58.5001,-62.3762 51.5001,-62.3761"/>
<text text-anchor="middle" x="61" y="-44.5" font-family="Helvetica,sans-Serif" font-size="10.00"> tri</text>
</g>
<!-- Node3 -->
<g id="node4" class="node"><title>Node3</title>
<a xlink:href="classVector3D.xhtml" target="_top" xlink:title="3D&#45;Vektorklasse mit nützlichen Operationen. ">
<polygon fill="none" stroke="black" points="26,-144.5 26,-165.5 84,-165.5 84,-144.5 26,-144.5"/>
<text text-anchor="middle" x="55" y="-152.5" font-family="Helvetica,sans-Serif" font-size="10.00">Vector3D</text>
</a>
</g>
<!-- Node3&#45;&gt;Node2 -->
<g id="edge4" class="edge"><title>Node3&#45;&gt;Node2</title>
<path fill="none" stroke="#9a32cd" stroke-dasharray="5,2" d="M55,-134.235C55,-120.969 55,-104.319 55,-93.6674"/>
<polygon fill="#9a32cd" stroke="#9a32cd" points="51.5001,-134.376 55,-144.376 58.5001,-134.376 51.5001,-134.376"/>
<text text-anchor="middle" x="67.5" y="-116.5" font-family="Helvetica,sans-Serif" font-size="10.00"> verts</text>
</g>
</g>
</svg>
