<?xml version="1.0" encoding="UTF-8" standalone="no"?>
<!DOCTYPE svg PUBLIC "-//W3C//DTD SVG 1.1//EN"
 "http://www.w3.org/Graphics/SVG/1.1/DTD/svg11.dtd">
<!-- Generated by graphviz version 2.36.0 (20140111.2315)
 -->
<!-- Title: Renderer::Viewport_info Pages: 1 -->
<svg width="200pt" height="588pt"
 viewBox="0.00 0.00 200.00 588.00" xmlns="http://www.w3.org/2000/svg" xmlns:xlink="http://www.w3.org/1999/xlink">
<g id="graph0" class="graph" transform="scale(1 1) rotate(0) translate(4 584)">
<title>Renderer::Viewport_info</title>
<!-- Node1 -->
<g id="node1" class="node"><title>Node1</title>
<polygon fill="#bfbfbf" stroke="black" points="0,-1 0,-179 122,-179 122,-1 0,-1"/>
<text text-anchor="middle" x="61" y="-167" font-family="Helvetica,sans-Serif" font-size="10.00">Renderer::Viewport_info</text>
<polyline fill="none" stroke="black" points="0,-160 122,-160 "/>
<text text-anchor="start" x="8" y="-148" font-family="Helvetica,sans-Serif" font-size="10.00">+ zoom</text>
<text text-anchor="start" x="8" y="-137" font-family="Helvetica,sans-Serif" font-size="10.00">+ rotationY</text>
<text text-anchor="start" x="8" y="-126" font-family="Helvetica,sans-Serif" font-size="10.00">+ rotationX</text>
<text text-anchor="start" x="8" y="-115" font-family="Helvetica,sans-Serif" font-size="10.00">+ invertcut</text>
<text text-anchor="start" x="8" y="-104" font-family="Helvetica,sans-Serif" font-size="10.00">+ showPoints</text>
<text text-anchor="start" x="8" y="-93" font-family="Helvetica,sans-Serif" font-size="10.00">+ showEdges</text>
<text text-anchor="start" x="8" y="-82" font-family="Helvetica,sans-Serif" font-size="10.00">+ showFaces</text>
<text text-anchor="start" x="8" y="-71" font-family="Helvetica,sans-Serif" font-size="10.00">+ show_extrapolated</text>
<text text-anchor="start" x="8" y="-60" font-family="Helvetica,sans-Serif" font-size="10.00">+ show_sensordata</text>
<text text-anchor="start" x="8" y="-49" font-family="Helvetica,sans-Serif" font-size="10.00">+ width</text>
<text text-anchor="start" x="8" y="-38" font-family="Helvetica,sans-Serif" font-size="10.00">+ height</text>
<text text-anchor="start" x="8" y="-27" font-family="Helvetica,sans-Serif" font-size="10.00">+ scale</text>
<polyline fill="none" stroke="black" points="0,-20 122,-20 "/>
<text text-anchor="middle" x="61" y="-8" font-family="Helvetica,sans-Serif" font-size="10.00"> </text>
</g>
<!-- Node2 -->
<g id="node2" class="node"><title>Node2</title>
<g id="a_node2"><a xlink:href="classTriangle.xhtml" target="_top" xlink:title="Ein durch 3 Ortsvektoren beschriebenes Dreieck. ">
<polygon fill="none" stroke="black" points="115.5,-229 115.5,-363 192.5,-363 192.5,-229 115.5,-229"/>
<text text-anchor="middle" x="154" y="-351" font-family="Helvetica,sans-Serif" font-size="10.00">Triangle</text>
<polyline fill="none" stroke="black" points="115.5,-344 192.5,-344 "/>
<text text-anchor="middle" x="154" y="-332" font-family="Helvetica,sans-Serif" font-size="10.00"> </text>
<polyline fill="none" stroke="black" points="115.5,-325 192.5,-325 "/>
<text text-anchor="start" x="123.5" y="-313" font-family="Helvetica,sans-Serif" font-size="10.00">+ Triangle()</text>
<text text-anchor="start" x="123.5" y="-302" font-family="Helvetica,sans-Serif" font-size="10.00">+ getV1()</text>
<text text-anchor="start" x="123.5" y="-291" font-family="Helvetica,sans-Serif" font-size="10.00">+ getV2()</text>
<text text-anchor="start" x="123.5" y="-280" font-family="Helvetica,sans-Serif" font-size="10.00">+ getV3()</text>
<text text-anchor="start" x="123.5" y="-269" font-family="Helvetica,sans-Serif" font-size="10.00">+ getVert()</text>
<text text-anchor="start" x="123.5" y="-258" font-family="Helvetica,sans-Serif" font-size="10.00">+ print()</text>
<text text-anchor="start" x="123.5" y="-247" font-family="Helvetica,sans-Serif" font-size="10.00">+ getNormal()</text>
<text text-anchor="start" x="123.5" y="-236" font-family="Helvetica,sans-Serif" font-size="10.00">+ ~Triangle()</text>
</a>
</g>
</g>
<!-- Node2&#45;&gt;Node1 -->
<g id="edge1" class="edge"><title>Node2&#45;&gt;Node1</title>
<path fill="none" stroke="#404040" d="M123.806,-228.767C118.17,-216.406 112.169,-203.242 106.197,-190.141"/>
<polygon fill="none" stroke="#404040" points="106.173,-190.089 100.045,-186.289 101.195,-179.17 107.324,-182.971 106.173,-190.089"/>
<text text-anchor="middle" x="124.5" y="-201.5" font-family="Helvetica,sans-Serif" font-size="10.00"> +cut</text>
</g>
<!-- Node3 -->
<g id="node3" class="node"><title>Node3</title>
<g id="a_node3"><a xlink:href="classVector3D.xhtml" target="_top" xlink:title="3D&#45;Vektorklasse mit nützlichen Operationen. ">
<polygon fill="none" stroke="black" points="19.5,-412.5 19.5,-579.5 102.5,-579.5 102.5,-412.5 19.5,-412.5"/>
<text text-anchor="middle" x="61" y="-567.5" font-family="Helvetica,sans-Serif" font-size="10.00">Vector3D</text>
<polyline fill="none" stroke="black" points="19.5,-560.5 102.5,-560.5 "/>
<text text-anchor="start" x="27.5" y="-548.5" font-family="Helvetica,sans-Serif" font-size="10.00">&#45; coords</text>
<polyline fill="none" stroke="black" points="19.5,-541.5 102.5,-541.5 "/>
<text text-anchor="start" x="27.5" y="-529.5" font-family="Helvetica,sans-Serif" font-size="10.00">+ Vector3D()</text>
<text text-anchor="start" x="27.5" y="-518.5" font-family="Helvetica,sans-Serif" font-size="10.00">+ Vector3D()</text>
<text text-anchor="start" x="27.5" y="-507.5" font-family="Helvetica,sans-Serif" font-size="10.00">+ Vector3D()</text>
<text text-anchor="start" x="27.5" y="-496.5" font-family="Helvetica,sans-Serif" font-size="10.00">+ copy()</text>
<text text-anchor="start" x="27.5" y="-485.5" font-family="Helvetica,sans-Serif" font-size="10.00">+ getX()</text>
<text text-anchor="start" x="27.5" y="-474.5" font-family="Helvetica,sans-Serif" font-size="10.00">+ getY()</text>
<text text-anchor="start" x="27.5" y="-463.5" font-family="Helvetica,sans-Serif" font-size="10.00">+ getZ()</text>
<text text-anchor="start" x="27.5" y="-452.5" font-family="Helvetica,sans-Serif" font-size="10.00">+ getLength()</text>
<text text-anchor="start" x="27.5" y="-441.5" font-family="Helvetica,sans-Serif" font-size="10.00">+ getAngleTo()</text>
<text text-anchor="start" x="27.5" y="-430.5" font-family="Helvetica,sans-Serif" font-size="10.00">+ dotProduct()</text>
<text text-anchor="start" x="27.5" y="-419.5" font-family="Helvetica,sans-Serif" font-size="10.00">und 11 mehr ...</text>
</a>
</g>
</g>
<!-- Node3&#45;&gt;Node1 -->
<g id="edge3" class="edge"><title>Node3&#45;&gt;Node1</title>
<path fill="none" stroke="#404040" d="M38.3805,-412.358C34.8931,-396.428 31.8423,-379.785 30,-364 22.9931,-303.963 23.2885,-288.071 30,-228 31.344,-215.97 33.3323,-203.455 35.6644,-191.095"/>
<polygon fill="none" stroke="#404040" points="35.6664,-191.085 32.9073,-184.422 37.996,-179.313 40.7551,-185.975 35.6664,-191.085"/>
<text text-anchor="middle" x="68.5" y="-293.5" font-family="Helvetica,sans-Serif" font-size="10.00"> +cameraPosition</text>
</g>
<!-- Node3&#45;&gt;Node2 -->
<g id="edge2" class="edge"><title>Node3&#45;&gt;Node2</title>
<path fill="none" stroke="#404040" d="M99.7669,-412.464C105.742,-399.743 111.892,-386.649 117.808,-374.054"/>
<polygon fill="none" stroke="#404040" points="117.834,-373.998 116.765,-366.866 122.936,-363.136 124.006,-370.267 117.834,-373.998"/>
<text text-anchor="middle" x="127" y="-385.5" font-family="Helvetica,sans-Serif" font-size="10.00"> &#45;verts</text>
</g>
</g>
</svg>
