<?xml version="1.0" encoding="UTF-8" standalone="no"?>
<!DOCTYPE svg PUBLIC "-//W3C//DTD SVG 1.1//EN"
 "http://www.w3.org/Graphics/SVG/1.1/DTD/svg11.dtd">
<!-- Generated by graphviz version 2.36.0 (20140111.2315)
 -->
<!-- Title: Analyzer::AnalyzerData_object Pages: 1 -->
<svg width="138pt" height="360pt"
 viewBox="0.00 0.00 138.00 360.00" xmlns="http://www.w3.org/2000/svg" xmlns:xlink="http://www.w3.org/1999/xlink">
<g id="graph0" class="graph" transform="scale(1 1) rotate(0) translate(4 356)">
<title>Analyzer::AnalyzerData_object</title>
<!-- Node1 -->
<g id="node1" class="node"><title>Node1</title>
<polygon fill="#bfbfbf" stroke="black" points="5,-1 5,-31 125,-31 125,-1 5,-1"/>
<text text-anchor="start" x="13" y="-19" font-family="Helvetica,sans-Serif" font-size="10.00">Analyzer::AnalyzerData</text>
<text text-anchor="middle" x="65" y="-8" font-family="Helvetica,sans-Serif" font-size="10.00">_object</text>
</g>
<!-- Node2 -->
<g id="node2" class="node"><title>Node2</title>
<g id="a_node2"><a xlink:href="classstd_1_1vector.xhtml" target="_top" xlink:title="std::vector\&lt; Analyzer\l::AnalyzerData_dataset \&gt;">
<polygon fill="none" stroke="black" points="1,-81 1,-111 129,-111 129,-81 1,-81"/>
<text text-anchor="start" x="9" y="-99" font-family="Helvetica,sans-Serif" font-size="10.00">std::vector&lt; Analyzer</text>
<text text-anchor="middle" x="65" y="-88" font-family="Helvetica,sans-Serif" font-size="10.00">::AnalyzerData_dataset &gt;</text>
</a>
</g>
</g>
<!-- Node2&#45;&gt;Node1 -->
<g id="edge1" class="edge"><title>Node2&#45;&gt;Node1</title>
<path fill="none" stroke="#9a32cd" stroke-dasharray="5,2" d="M65,-70.5644C65,-57.6243 65,-42.1862 65,-31.2157"/>
<polygon fill="#9a32cd" stroke="#9a32cd" points="61.5001,-70.6936 65,-80.6936 68.5001,-70.6936 61.5001,-70.6936"/>
<text text-anchor="middle" x="88" y="-53.5" font-family="Helvetica,sans-Serif" font-size="10.00"> data_sets</text>
</g>
<!-- Node3 -->
<g id="node3" class="node"><title>Node3</title>
<g id="a_node3"><a xlink:href="structAnalyzer_1_1AnalyzerData__dataset.xhtml" target="_top" xlink:title="Analyseergebnisse für einen Sensordatensatz. ">
<polygon fill="none" stroke="black" points="5,-161 5,-191 125,-191 125,-161 5,-161"/>
<text text-anchor="start" x="13" y="-179" font-family="Helvetica,sans-Serif" font-size="10.00">Analyzer::AnalyzerData</text>
<text text-anchor="middle" x="65" y="-168" font-family="Helvetica,sans-Serif" font-size="10.00">_dataset</text>
</a>
</g>
</g>
<!-- Node3&#45;&gt;Node2 -->
<g id="edge2" class="edge"><title>Node3&#45;&gt;Node2</title>
<path fill="none" stroke="#9a32cd" stroke-dasharray="5,2" d="M65,-150.564C65,-137.624 65,-122.186 65,-111.216"/>
<polygon fill="#9a32cd" stroke="#9a32cd" points="61.5001,-150.694 65,-160.694 68.5001,-150.694 61.5001,-150.694"/>
<text text-anchor="middle" x="84" y="-133.5" font-family="Helvetica,sans-Serif" font-size="10.00"> element</text>
</g>
<!-- Node4 -->
<g id="node4" class="node"><title>Node4</title>
<g id="a_node4"><a xlink:href="classstd_1_1vector.xhtml" target="_top" xlink:title="std::vector\&lt; Analyzer\l::AnalyzerData_material \&gt;">
<polygon fill="none" stroke="black" points="-0.5,-241 -0.5,-271 130.5,-271 130.5,-241 -0.5,-241"/>
<text text-anchor="start" x="7.5" y="-259" font-family="Helvetica,sans-Serif" font-size="10.00">std::vector&lt; Analyzer</text>
<text text-anchor="middle" x="65" y="-248" font-family="Helvetica,sans-Serif" font-size="10.00">::AnalyzerData_material &gt;</text>
</a>
</g>
</g>
<!-- Node4&#45;&gt;Node3 -->
<g id="edge3" class="edge"><title>Node4&#45;&gt;Node3</title>
<path fill="none" stroke="#9a32cd" stroke-dasharray="5,2" d="M65,-230.564C65,-217.624 65,-202.186 65,-191.216"/>
<polygon fill="#9a32cd" stroke="#9a32cd" points="61.5001,-230.694 65,-240.694 68.5001,-230.694 61.5001,-230.694"/>
<text text-anchor="middle" x="87" y="-213.5" font-family="Helvetica,sans-Serif" font-size="10.00"> mat_data</text>
</g>
<!-- Node5 -->
<g id="node5" class="node"><title>Node5</title>
<g id="a_node5"><a xlink:href="structAnalyzer_1_1AnalyzerData__material.xhtml" target="_top" xlink:title="Analyseergebnisse für ein Material. ">
<polygon fill="none" stroke="black" points="5,-321 5,-351 125,-351 125,-321 5,-321"/>
<text text-anchor="start" x="13" y="-339" font-family="Helvetica,sans-Serif" font-size="10.00">Analyzer::AnalyzerData</text>
<text text-anchor="middle" x="65" y="-328" font-family="Helvetica,sans-Serif" font-size="10.00">_material</text>
</a>
</g>
</g>
<!-- Node5&#45;&gt;Node4 -->
<g id="edge4" class="edge"><title>Node5&#45;&gt;Node4</title>
<path fill="none" stroke="#9a32cd" stroke-dasharray="5,2" d="M65,-310.564C65,-297.624 65,-282.186 65,-271.216"/>
<polygon fill="#9a32cd" stroke="#9a32cd" points="61.5001,-310.694 65,-320.694 68.5001,-310.694 61.5001,-310.694"/>
<text text-anchor="middle" x="84" y="-293.5" font-family="Helvetica,sans-Serif" font-size="10.00"> element</text>
</g>
</g>
</svg>
