<?xml version="1.0" encoding="UTF-8" standalone="no"?>
<!DOCTYPE svg PUBLIC "-//W3C//DTD SVG 1.1//EN"
 "http://www.w3.org/Graphics/SVG/1.1/DTD/svg11.dtd">
<!-- Generated by graphviz version 2.26.3 (20100126.1600)
 -->
<!-- Title: AnalyzerData_object Pages: 1 -->
<svg width="182pt" height="116pt"
 viewBox="0.00 0.00 182.00 116.00" xmlns="http://www.w3.org/2000/svg" xmlns:xlink="http://www.w3.org/1999/xlink">
<g id="graph1" class="graph" transform="scale(1 1) rotate(0) translate(4 112)">
<title>AnalyzerData_object</title>
<!-- Node1 -->
<g id="node1" class="node"><title>Node1</title>
<polygon fill="#bfbfbf" stroke="black" points="16.5,-0.5 16.5,-21.5 123.5,-21.5 123.5,-0.5 16.5,-0.5"/>
<text text-anchor="middle" x="70" y="-8.5" font-family="Helvetica,sans-Serif" font-size="10.00">AnalyzerData_object</text>
</g>
<!-- Node2 -->
<g id="node2" class="node"><title>Node2</title>
<polygon fill="none" stroke="#bfbfbf" points="-0.5,-79.5 -0.5,-100.5 44.5,-100.5 44.5,-79.5 -0.5,-79.5"/>
<text text-anchor="middle" x="22" y="-87.5" font-family="Helvetica,sans-Serif" font-size="10.00">double</text>
</g>
<!-- Node2&#45;&gt;Node1 -->
<g id="edge2" class="edge"><title>Node2&#45;&gt;Node1</title>
<path fill="none" stroke="#9a32cd" stroke-dasharray="5,2" d="M33.7852,-70.6036C43.1384,-55.2097 55.8664,-34.2616 63.4758,-21.7378"/>
<polygon fill="#9a32cd" stroke="#9a32cd" points="30.675,-68.9821 28.4735,-79.3457 36.6573,-72.617 30.675,-68.9821"/>
<text text-anchor="middle" x="69.5" y="-44.5" font-family="Helvetica,sans-Serif" font-size="10.00"> volume</text>
</g>
<!-- Node3 -->
<g id="node4" class="node"><title>Node3</title>
<polygon fill="none" stroke="#bfbfbf" points="62,-73 62,-107 174,-107 174,-73 62,-73"/>
<text text-anchor="start" x="70" y="-94" font-family="Helvetica,sans-Serif" font-size="10.00">vector&lt; AnalyzerData</text>
<text text-anchor="middle" x="118" y="-81" font-family="Helvetica,sans-Serif" font-size="10.00">_dataset &gt;</text>
</g>
<!-- Node3&#45;&gt;Node1 -->
<g id="edge4" class="edge"><title>Node3&#45;&gt;Node1</title>
<path fill="none" stroke="#9a32cd" stroke-dasharray="5,2" d="M104.564,-63.5688C100.418,-55.8511 95.7012,-47.4829 91,-40 87.0318,-33.6837 82.1695,-26.9169 78.1233,-21.5097"/>
<polygon fill="#9a32cd" stroke="#9a32cd" points="101.542,-65.3407 109.299,-72.5568 107.735,-62.0781 101.542,-65.3407"/>
<text text-anchor="middle" x="121" y="-44.5" font-family="Helvetica,sans-Serif" font-size="10.00"> data_sets</text>
</g>
</g>
</svg>
