<?xml version="1.0" encoding="UTF-8" standalone="no"?>
<!DOCTYPE svg PUBLIC "-//W3C//DTD SVG 1.1//EN"
 "http://www.w3.org/Graphics/SVG/1.1/DTD/svg11.dtd">
<!-- Generated by graphviz version 2.26.3 (20100126.1600)
 -->
<!-- Title: Viewport_info Pages: 1 -->
<svg width="191pt" height="666pt"
 viewBox="0.00 0.00 191.00 666.00" xmlns="http://www.w3.org/2000/svg" xmlns:xlink="http://www.w3.org/1999/xlink">
<g id="graph1" class="graph" transform="scale(1 1) rotate(0) translate(4 662)">
<title>Viewport_info</title>
<!-- Node1 -->
<g id="node1" class="node"><title>Node1</title>
<polygon fill="#bfbfbf" stroke="black" points="-0.5,-1 -0.5,-207 106.5,-207 106.5,-1 -0.5,-1"/>
<text text-anchor="middle" x="53" y="-194" font-family="Helvetica,sans-Serif" font-size="10.00">Viewport_info</text>
<polyline fill="none" stroke="black" points="-0.5,-186 106.5,-186 "/>
<text text-anchor="start" x="7.5" y="-173" font-family="Helvetica,sans-Serif" font-size="10.00">+ zoom</text>
<text text-anchor="start" x="7.5" y="-160" font-family="Helvetica,sans-Serif" font-size="10.00">+ rotationY</text>
<text text-anchor="start" x="7.5" y="-147" font-family="Helvetica,sans-Serif" font-size="10.00">+ rotationX</text>
<text text-anchor="start" x="7.5" y="-134" font-family="Helvetica,sans-Serif" font-size="10.00">+ invertcut</text>
<text text-anchor="start" x="7.5" y="-121" font-family="Helvetica,sans-Serif" font-size="10.00">+ showpoints</text>
<text text-anchor="start" x="7.5" y="-108" font-family="Helvetica,sans-Serif" font-size="10.00">+ showedges</text>
<text text-anchor="start" x="7.5" y="-95" font-family="Helvetica,sans-Serif" font-size="10.00">+ showfaces</text>
<text text-anchor="start" x="7.5" y="-82" font-family="Helvetica,sans-Serif" font-size="10.00">+ show_extrapolated</text>
<text text-anchor="start" x="7.5" y="-69" font-family="Helvetica,sans-Serif" font-size="10.00">+ show_sensordata</text>
<text text-anchor="start" x="7.5" y="-56" font-family="Helvetica,sans-Serif" font-size="10.00">+ width</text>
<text text-anchor="start" x="7.5" y="-43" font-family="Helvetica,sans-Serif" font-size="10.00">+ height</text>
<text text-anchor="start" x="7.5" y="-30" font-family="Helvetica,sans-Serif" font-size="10.00">+ scale</text>
<polyline fill="none" stroke="black" points="-0.5,-22 106.5,-22 "/>
<text text-anchor="middle" x="53" y="-9" font-family="Helvetica,sans-Serif" font-size="10.00"> </text>
</g>
<!-- Node2 -->
<g id="node2" class="node"><title>Node2</title>
<a xlink:href="classTriangle.xhtml" target="_top" xlink:title="{Triangle\n||+ Triangle()\l+ ~Triangle()\l+ getV1()\l+ getV2()\l+ getV3()\l+ getVert()\l+ print()\l+ getNormal()\l}">
<polygon fill="none" stroke="black" points="106.5,-259 106.5,-413 183.5,-413 183.5,-259 106.5,-259"/>
<text text-anchor="middle" x="145" y="-400" font-family="Helvetica,sans-Serif" font-size="10.00">Triangle</text>
<polyline fill="none" stroke="black" points="106.5,-392 183.5,-392 "/>
<text text-anchor="middle" x="145" y="-379" font-family="Helvetica,sans-Serif" font-size="10.00"> </text>
<polyline fill="none" stroke="black" points="106.5,-371 183.5,-371 "/>
<text text-anchor="start" x="114.5" y="-358" font-family="Helvetica,sans-Serif" font-size="10.00">+ Triangle()</text>
<text text-anchor="start" x="114.5" y="-345" font-family="Helvetica,sans-Serif" font-size="10.00">+ ~Triangle()</text>
<text text-anchor="start" x="114.5" y="-332" font-family="Helvetica,sans-Serif" font-size="10.00">+ getV1()</text>
<text text-anchor="start" x="114.5" y="-319" font-family="Helvetica,sans-Serif" font-size="10.00">+ getV2()</text>
<text text-anchor="start" x="114.5" y="-306" font-family="Helvetica,sans-Serif" font-size="10.00">+ getV3()</text>
<text text-anchor="start" x="114.5" y="-293" font-family="Helvetica,sans-Serif" font-size="10.00">+ getVert()</text>
<text text-anchor="start" x="114.5" y="-280" font-family="Helvetica,sans-Serif" font-size="10.00">+ print()</text>
<text text-anchor="start" x="114.5" y="-267" font-family="Helvetica,sans-Serif" font-size="10.00">+ getNormal()</text>
</a>
</g>
<!-- Node2&#45;&gt;Node1 -->
<g id="edge2" class="edge"><title>Node2&#45;&gt;Node1</title>
<path fill="none" stroke="#404040" d="M114.365,-258.747C109.261,-245.875 103.871,-232.283 98.4904,-218.715"/>
<polygon fill="none" stroke="#404040" points="98.403,-218.494 92.4729,-214.391 93.9794,-207.339 99.9095,-211.442 98.403,-218.494"/>
<text text-anchor="middle" x="115.5" y="-230.5" font-family="Helvetica,sans-Serif" font-size="10.00"> +cut</text>
</g>
<!-- Node3 -->
<g id="node4" class="node"><title>Node3</title>
<a xlink:href="classVector3D.xhtml" target="_top" xlink:title="{Vector3D\n|&#45; coords\l|+ Vector3D()\l+ Vector3D()\l+ Vector3D()\l+ copy()\l+ getX()\l+ getY()\l+ getZ()\l+ getLength()\l+ getAngleTo()\l+ dotProduct()\lund 11 mehr ...\l}">
<polygon fill="none" stroke="black" points="11.5,-464.5 11.5,-657.5 94.5,-657.5 94.5,-464.5 11.5,-464.5"/>
<text text-anchor="middle" x="53" y="-644.5" font-family="Helvetica,sans-Serif" font-size="10.00">Vector3D</text>
<polyline fill="none" stroke="black" points="11.5,-636.5 94.5,-636.5 "/>
<text text-anchor="start" x="19.5" y="-623.5" font-family="Helvetica,sans-Serif" font-size="10.00">&#45; coords</text>
<polyline fill="none" stroke="black" points="11.5,-615.5 94.5,-615.5 "/>
<text text-anchor="start" x="19.5" y="-602.5" font-family="Helvetica,sans-Serif" font-size="10.00">+ Vector3D()</text>
<text text-anchor="start" x="19.5" y="-589.5" font-family="Helvetica,sans-Serif" font-size="10.00">+ Vector3D()</text>
<text text-anchor="start" x="19.5" y="-576.5" font-family="Helvetica,sans-Serif" font-size="10.00">+ Vector3D()</text>
<text text-anchor="start" x="19.5" y="-563.5" font-family="Helvetica,sans-Serif" font-size="10.00">+ copy()</text>
<text text-anchor="start" x="19.5" y="-550.5" font-family="Helvetica,sans-Serif" font-size="10.00">+ getX()</text>
<text text-anchor="start" x="19.5" y="-537.5" font-family="Helvetica,sans-Serif" font-size="10.00">+ getY()</text>
<text text-anchor="start" x="19.5" y="-524.5" font-family="Helvetica,sans-Serif" font-size="10.00">+ getZ()</text>
<text text-anchor="start" x="19.5" y="-511.5" font-family="Helvetica,sans-Serif" font-size="10.00">+ getLength()</text>
<text text-anchor="start" x="19.5" y="-498.5" font-family="Helvetica,sans-Serif" font-size="10.00">+ getAngleTo()</text>
<text text-anchor="start" x="19.5" y="-485.5" font-family="Helvetica,sans-Serif" font-size="10.00">+ dotProduct()</text>
<text text-anchor="start" x="19.5" y="-472.5" font-family="Helvetica,sans-Serif" font-size="10.00">und 11 mehr ...</text>
</a>
</g>
<!-- Node3&#45;&gt;Node1 -->
<g id="edge6" class="edge"><title>Node3&#45;&gt;Node1</title>
<path fill="none" stroke="#404040" d="M28.8613,-464.222C25.5919,-447.571 22.7601,-430.36 21,-414 13.5837,-345.064 13.91,-326.97 21,-258 22.3041,-245.314 24.1975,-232.13 26.4216,-219.054"/>
<polygon fill="none" stroke="#404040" points="26.4477,-218.907 23.5606,-212.299 28.5498,-207.093 31.4369,-213.701 26.4477,-218.907"/>
<text text-anchor="middle" x="59.5" y="-333.5" font-family="Helvetica,sans-Serif" font-size="10.00"> +cameraPosition</text>
</g>
<!-- Node3&#45;&gt;Node2 -->
<g id="edge4" class="edge"><title>Node3&#45;&gt;Node2</title>
<path fill="none" stroke="#404040" d="M92.5502,-464.274C97.9367,-451.101 103.443,-437.633 108.767,-424.613"/>
<polygon fill="none" stroke="#404040" points="108.849,-424.412 107.418,-417.344 113.391,-413.304 114.823,-420.372 108.849,-424.412"/>
<text text-anchor="middle" x="118" y="-436.5" font-family="Helvetica,sans-Serif" font-size="10.00"> &#45;verts</text>
</g>
</g>
</svg>
