<?xml version="1.0" encoding="UTF-8" standalone="no"?>
<!DOCTYPE svg PUBLIC "-//W3C//DTD SVG 1.1//EN"
 "http://www.w3.org/Graphics/SVG/1.1/DTD/svg11.dtd">
<!-- Generated by graphviz version 2.26.3 (20100126.1600)
 -->
<!-- Title: Analyzer::AnalyzerData_dataset Pages: 1 -->
<svg width="138pt" height="216pt"
 viewBox="0.00 0.00 138.00 216.00" xmlns="http://www.w3.org/2000/svg" xmlns:xlink="http://www.w3.org/1999/xlink">
<g id="graph1" class="graph" transform="scale(1 1) rotate(0) translate(4 212)">
<title>Analyzer::AnalyzerData_dataset</title>
<!-- Node1 -->
<g id="node1" class="node"><title>Node1</title>
<polygon fill="#bfbfbf" stroke="black" points="5,-1 5,-35 125,-35 125,-1 5,-1"/>
<text text-anchor="start" x="13" y="-22" font-family="Helvetica,sans-Serif" font-size="10.00">Analyzer::AnalyzerData</text>
<text text-anchor="middle" x="65" y="-9" font-family="Helvetica,sans-Serif" font-size="10.00">_dataset</text>
</g>
<!-- Node2 -->
<g id="node2" class="node"><title>Node2</title>
<a xlink:href="classstd_1_1vector.xhtml" target="_top" xlink:title="std::vector\&lt; Analyzer\l::AnalyzerData_material \&gt;">
<polygon fill="none" stroke="black" points="-0.5,-87 -0.5,-121 130.5,-121 130.5,-87 -0.5,-87"/>
<text text-anchor="start" x="7.5" y="-108" font-family="Helvetica,sans-Serif" font-size="10.00">std::vector&lt; Analyzer</text>
<text text-anchor="middle" x="65" y="-95" font-family="Helvetica,sans-Serif" font-size="10.00">::AnalyzerData_material &gt;</text>
</a>
</g>
<!-- Node2&#45;&gt;Node1 -->
<g id="edge2" class="edge"><title>Node2&#45;&gt;Node1</title>
<path fill="none" stroke="#9a32cd" stroke-dasharray="5,2" d="M65,-76.342C65,-62.7741 65,-46.8607 65,-35.084"/>
<polygon fill="#9a32cd" stroke="#9a32cd" points="61.5001,-76.5966 65,-86.5966 68.5001,-76.5967 61.5001,-76.5966"/>
<text text-anchor="middle" x="87" y="-58.5" font-family="Helvetica,sans-Serif" font-size="10.00"> mat_data</text>
</g>
<!-- Node3 -->
<g id="node4" class="node"><title>Node3</title>
<a xlink:href="structAnalyzer_1_1AnalyzerData__material.xhtml" target="_top" xlink:title="Analyseergebnisse für ein Material. ">
<polygon fill="none" stroke="black" points="5,-173 5,-207 125,-207 125,-173 5,-173"/>
<text text-anchor="start" x="13" y="-194" font-family="Helvetica,sans-Serif" font-size="10.00">Analyzer::AnalyzerData</text>
<text text-anchor="middle" x="65" y="-181" font-family="Helvetica,sans-Serif" font-size="10.00">_material</text>
</a>
</g>
<!-- Node3&#45;&gt;Node2 -->
<g id="edge4" class="edge"><title>Node3&#45;&gt;Node2</title>
<path fill="none" stroke="#9a32cd" stroke-dasharray="5,2" d="M65,-162.342C65,-148.774 65,-132.861 65,-121.084"/>
<polygon fill="#9a32cd" stroke="#9a32cd" points="61.5001,-162.597 65,-172.597 68.5001,-162.597 61.5001,-162.597"/>
<text text-anchor="middle" x="84" y="-144.5" font-family="Helvetica,sans-Serif" font-size="10.00"> element</text>
</g>
</g>
</svg>
