<?xml version="1.0" encoding="UTF-8" standalone="no"?>
<!DOCTYPE svg PUBLIC "-//W3C//DTD SVG 1.1//EN"
 "http://www.w3.org/Graphics/SVG/1.1/DTD/svg11.dtd">
<!-- Generated by graphviz version 2.26.3 (20100126.1600)
 -->
<!-- Title: tetgenio::voroedge Pages: 1 -->
<svg width="111pt" height="114pt"
 viewBox="0.00 0.00 111.00 114.00" xmlns="http://www.w3.org/2000/svg" xmlns:xlink="http://www.w3.org/1999/xlink">
<g id="graph1" class="graph" transform="scale(1 1) rotate(0) translate(4 110)">
<title>tetgenio::voroedge</title>
<!-- Node1 -->
<g id="node1" class="node"><title>Node1</title>
<polygon fill="#bfbfbf" stroke="black" points="-0.5,-0.5 -0.5,-21.5 96.5,-21.5 96.5,-0.5 -0.5,-0.5"/>
<text text-anchor="middle" x="48" y="-8.5" font-family="Helvetica,sans-Serif" font-size="10.00">tetgenio::voroedge</text>
</g>
<!-- Node2 -->
<g id="node2" class="node"><title>Node2</title>
<polygon fill="none" stroke="#bfbfbf" points="7.5,-84.5 7.5,-105.5 36.5,-105.5 36.5,-84.5 7.5,-84.5"/>
<text text-anchor="middle" x="22" y="-92.5" font-family="Helvetica,sans-Serif" font-size="10.00">int</text>
</g>
<!-- Node2&#45;&gt;Node1 -->
<g id="edge2" class="edge"><title>Node2&#45;&gt;Node1</title>
<path fill="none" stroke="#9a32cd" stroke-dasharray="5,2" d="M28.2729,-74.6858C31.4792,-64.3073 35.4448,-51.4787 39,-40 40.8715,-33.9573 42.9661,-27.2075 44.6633,-21.7413"/>
<polygon fill="#9a32cd" stroke="#9a32cd" points="24.8625,-73.8675 25.2554,-84.455 31.5508,-75.9333 24.8625,-73.8675"/>
<text text-anchor="middle" x="46" y="-57" font-family="Helvetica,sans-Serif" font-size="10.00"> v2</text>
<text text-anchor="middle" x="46" y="-44" font-family="Helvetica,sans-Serif" font-size="10.00">v1</text>
</g>
<!-- Node3 -->
<g id="node4" class="node"><title>Node3</title>
<polygon fill="none" stroke="#bfbfbf" points="53.5,-84.5 53.5,-105.5 96.5,-105.5 96.5,-84.5 53.5,-84.5"/>
<text text-anchor="middle" x="75" y="-92.5" font-family="Helvetica,sans-Serif" font-size="10.00">REAL</text>
</g>
<!-- Node3&#45;&gt;Node1 -->
<g id="edge4" class="edge"><title>Node3&#45;&gt;Node1</title>
<path fill="none" stroke="#9a32cd" stroke-dasharray="5,2" d="M68.3866,-74.4249C63.0084,-57.6927 55.6386,-34.7645 51.3918,-21.5523"/>
<polygon fill="#9a32cd" stroke="#9a32cd" points="65.1882,-75.9121 71.5804,-84.3613 71.8524,-73.77 65.1882,-75.9121"/>
<text text-anchor="middle" x="84" y="-50.5" font-family="Helvetica,sans-Serif" font-size="10.00"> vnormal</text>
</g>
</g>
</svg>
