<?xml version="1.0" encoding="UTF-8" standalone="no"?>
<!DOCTYPE svg PUBLIC "-//W3C//DTD SVG 1.1//EN"
 "http://www.w3.org/Graphics/SVG/1.1/DTD/svg11.dtd">
<!-- Generated by graphviz version 2.26.3 (20100126.1600)
 -->
<!-- Title: Utils::SensorData Pages: 1 -->
<svg width="316pt" height="131pt"
 viewBox="0.00 0.00 316.00 131.00" xmlns="http://www.w3.org/2000/svg" xmlns:xlink="http://www.w3.org/1999/xlink">
<g id="graph1" class="graph" transform="scale(1 1) rotate(0) translate(4 127)">
<title>Utils::SensorData</title>
<!-- Node1 -->
<g id="node1" class="node"><title>Node1</title>
<polygon fill="#bfbfbf" stroke="black" points="212.5,-52.5 212.5,-73.5 307.5,-73.5 307.5,-52.5 212.5,-52.5"/>
<text text-anchor="middle" x="260" y="-60.5" font-family="Helvetica,sans-Serif" font-size="10.00">Utils::SensorData</text>
</g>
<!-- Node2 -->
<g id="node2" class="node"><title>Node2</title>
<a xlink:href="classstd_1_1vector.xhtml" target="_top" xlink:title="std::vector\&lt; string \&gt;">
<polygon fill="none" stroke="black" points="9.5,-101.5 9.5,-122.5 114.5,-122.5 114.5,-101.5 9.5,-101.5"/>
<text text-anchor="middle" x="62" y="-109.5" font-family="Helvetica,sans-Serif" font-size="10.00">std::vector&lt; string &gt;</text>
</a>
</g>
<!-- Node2&#45;&gt;Node1 -->
<g id="edge2" class="edge"><title>Node2&#45;&gt;Node1</title>
<path fill="none" stroke="#9a32cd" stroke-dasharray="5,2" d="M124.596,-104.491C146.758,-101.067 171.712,-96.3302 194,-90 209.005,-85.7381 225.228,-79.1308 237.835,-73.5193"/>
<polygon fill="#9a32cd" stroke="#9a32cd" points="124.006,-101.04 114.63,-105.973 125.036,-107.964 124.006,-101.04"/>
<text text-anchor="middle" x="168" y="-105" font-family="Helvetica,sans-Serif" font-size="10.00"> subnames</text>
</g>
<!-- Node3 -->
<g id="node4" class="node"><title>Node3</title>
<a xlink:href="classstd_1_1vector.xhtml" target="_top" xlink:title="std::vector\&lt; int \&gt;">
<polygon fill="none" stroke="black" points="16,-52.5 16,-73.5 108,-73.5 108,-52.5 16,-52.5"/>
<text text-anchor="middle" x="62" y="-60.5" font-family="Helvetica,sans-Serif" font-size="10.00">std::vector&lt; int &gt;</text>
</a>
</g>
<!-- Node3&#45;&gt;Node1 -->
<g id="edge4" class="edge"><title>Node3&#45;&gt;Node1</title>
<path fill="none" stroke="#9a32cd" stroke-dasharray="5,2" d="M118.389,-63C148.083,-63 184.098,-63 212.376,-63"/>
<polygon fill="#9a32cd" stroke="#9a32cd" points="118.172,-59.5001 108.172,-63 118.172,-66.5001 118.172,-59.5001"/>
<text text-anchor="middle" x="168" y="-80" font-family="Helvetica,sans-Serif" font-size="10.00"> markers</text>
<text text-anchor="middle" x="168" y="-67" font-family="Helvetica,sans-Serif" font-size="10.00">timestamps</text>
</g>
<!-- Node4 -->
<g id="node6" class="node"><title>Node4</title>
<a xlink:href="classstd_1_1vector.xhtml" target="_top" xlink:title="std::vector\&lt; vector\l\&lt; Utils::SensorPoint \&gt; \&gt;">
<polygon fill="none" stroke="black" points="0.5,-0 0.5,-34 123.5,-34 123.5,-0 0.5,-0"/>
<text text-anchor="start" x="8.5" y="-21" font-family="Helvetica,sans-Serif" font-size="10.00">std::vector&lt; vector</text>
<text text-anchor="middle" x="62" y="-8" font-family="Helvetica,sans-Serif" font-size="10.00">&lt; Utils::SensorPoint &gt; &gt;</text>
</a>
</g>
<!-- Node4&#45;&gt;Node1 -->
<g id="edge6" class="edge"><title>Node4&#45;&gt;Node1</title>
<path fill="none" stroke="#9a32cd" stroke-dasharray="5,2" d="M133.37,-32.1901C153.048,-36.5114 174.378,-41.3191 194,-46 202.402,-48.0043 211.379,-50.2479 219.92,-52.4313"/>
<polygon fill="#9a32cd" stroke="#9a32cd" points="134.071,-28.7607 123.554,-30.0444 132.576,-35.5992 134.071,-28.7607"/>
<text text-anchor="middle" x="168" y="-50" font-family="Helvetica,sans-Serif" font-size="10.00"> data</text>
</g>
</g>
</svg>
