<?xml version="1.0" encoding="UTF-8" standalone="no"?>
<!DOCTYPE svg PUBLIC "-//W3C//DTD SVG 1.1//EN"
 "http://www.w3.org/Graphics/SVG/1.1/DTD/svg11.dtd">
<!-- Generated by graphviz version 2.26.3 (20100126.1600)
 -->
<!-- Title: /daten/Projekte/eclipse_workspace/tetgen1.5.0/tetgen.h Pages: 1 -->
<svg width="448pt" height="114pt"
 viewBox="0.00 0.00 448.00 114.00" xmlns="http://www.w3.org/2000/svg" xmlns:xlink="http://www.w3.org/1999/xlink">
<g id="graph1" class="graph" transform="scale(1 1) rotate(0) translate(4 110)">
<title>/daten/Projekte/eclipse_workspace/tetgen1.5.0/tetgen.h</title>
<!-- Node1 -->
<g id="node1" class="node"><title>Node1</title>
<polygon fill="#bfbfbf" stroke="black" points="158.5,-58.5 158.5,-105.5 279.5,-105.5 279.5,-58.5 158.5,-58.5"/>
<text text-anchor="start" x="166.5" y="-92.5" font-family="Helvetica,sans-Serif" font-size="10.00">/daten/Projekte/eclipse</text>
<text text-anchor="start" x="166.5" y="-79.5" font-family="Helvetica,sans-Serif" font-size="10.00">_workspace/tetgen1.5.0</text>
<text text-anchor="middle" x="219" y="-66.5" font-family="Helvetica,sans-Serif" font-size="10.00">/tetgen.h</text>
</g>
<!-- Node2 -->
<g id="node3" class="node"><title>Node2</title>
<polygon fill="none" stroke="#bfbfbf" points="0,-0.5 0,-21.5 46,-21.5 46,-0.5 0,-0.5"/>
<text text-anchor="middle" x="23" y="-8.5" font-family="Helvetica,sans-Serif" font-size="10.00">stdio.h</text>
</g>
<!-- Node1&#45;&gt;Node2 -->
<g id="edge2" class="edge"><title>Node1&#45;&gt;Node2</title>
<path fill="none" stroke="midnightblue" d="M158.327,-60.0214C124.482,-47.7614 83.6549,-32.9719 55.7555,-22.8655"/>
<polygon fill="midnightblue" stroke="midnightblue" points="56.6927,-19.4825 46.0985,-19.3673 54.3086,-26.064 56.6927,-19.4825"/>
</g>
<!-- Node3 -->
<g id="node5" class="node"><title>Node3</title>
<polygon fill="none" stroke="#bfbfbf" points="64,-0.5 64,-21.5 112,-21.5 112,-0.5 64,-0.5"/>
<text text-anchor="middle" x="88" y="-8.5" font-family="Helvetica,sans-Serif" font-size="10.00">stdlib.h</text>
</g>
<!-- Node1&#45;&gt;Node3 -->
<g id="edge4" class="edge"><title>Node1&#45;&gt;Node3</title>
<path fill="none" stroke="midnightblue" d="M175.379,-58.358C156.036,-47.8747 133.818,-35.8328 116.627,-26.5152"/>
<polygon fill="midnightblue" stroke="midnightblue" points="118.103,-23.3341 107.643,-21.6462 114.767,-29.4884 118.103,-23.3341"/>
</g>
<!-- Node4 -->
<g id="node7" class="node"><title>Node4</title>
<polygon fill="none" stroke="#bfbfbf" points="129.5,-0.5 129.5,-21.5 178.5,-21.5 178.5,-0.5 129.5,-0.5"/>
<text text-anchor="middle" x="154" y="-8.5" font-family="Helvetica,sans-Serif" font-size="10.00">string.h</text>
</g>
<!-- Node1&#45;&gt;Node4 -->
<g id="edge6" class="edge"><title>Node1&#45;&gt;Node4</title>
<path fill="none" stroke="midnightblue" d="M197.356,-58.358C188.647,-48.8454 178.764,-38.0494 170.635,-29.1701"/>
<polygon fill="midnightblue" stroke="midnightblue" points="173.081,-26.6587 163.747,-21.6462 167.918,-31.3855 173.081,-26.6587"/>
</g>
<!-- Node5 -->
<g id="node9" class="node"><title>Node5</title>
<polygon fill="none" stroke="#bfbfbf" points="195.5,-0.5 195.5,-21.5 242.5,-21.5 242.5,-0.5 195.5,-0.5"/>
<text text-anchor="middle" x="219" y="-8.5" font-family="Helvetica,sans-Serif" font-size="10.00">math.h</text>
</g>
<!-- Node1&#45;&gt;Node5 -->
<g id="edge8" class="edge"><title>Node1&#45;&gt;Node5</title>
<path fill="none" stroke="midnightblue" d="M219,-58.358C219,-49.719 219,-40.0215 219,-31.6624"/>
<polygon fill="midnightblue" stroke="midnightblue" points="222.5,-31.6462 219,-21.6462 215.5,-31.6463 222.5,-31.6462"/>
</g>
<!-- Node6 -->
<g id="node11" class="node"><title>Node6</title>
<polygon fill="none" stroke="#bfbfbf" points="260,-0.5 260,-21.5 304,-21.5 304,-0.5 260,-0.5"/>
<text text-anchor="middle" x="282" y="-8.5" font-family="Helvetica,sans-Serif" font-size="10.00">time.h</text>
</g>
<!-- Node1&#45;&gt;Node6 -->
<g id="edge10" class="edge"><title>Node1&#45;&gt;Node6</title>
<path fill="none" stroke="midnightblue" d="M239.978,-58.358C248.419,-48.8454 257.998,-38.0494 265.877,-29.1701"/>
<polygon fill="midnightblue" stroke="midnightblue" points="268.534,-31.4491 272.553,-21.6462 263.298,-26.8031 268.534,-31.4491"/>
</g>
<!-- Node7 -->
<g id="node13" class="node"><title>Node7</title>
<polygon fill="none" stroke="#bfbfbf" points="322,-0.5 322,-21.5 374,-21.5 374,-0.5 322,-0.5"/>
<text text-anchor="middle" x="348" y="-8.5" font-family="Helvetica,sans-Serif" font-size="10.00">assert.h</text>
</g>
<!-- Node1&#45;&gt;Node7 -->
<g id="edge12" class="edge"><title>Node1&#45;&gt;Node7</title>
<path fill="none" stroke="midnightblue" d="M261.955,-58.358C281.002,-47.8747 302.881,-35.8328 319.81,-26.5152"/>
<polygon fill="midnightblue" stroke="midnightblue" points="321.584,-29.5343 328.657,-21.6462 318.208,-23.4018 321.584,-29.5343"/>
</g>
<!-- Node8 -->
<g id="node15" class="node"><title>Node8</title>
<polygon fill="none" stroke="#bfbfbf" points="391.5,-0.5 391.5,-21.5 440.5,-21.5 440.5,-0.5 391.5,-0.5"/>
<text text-anchor="middle" x="416" y="-8.5" font-family="Helvetica,sans-Serif" font-size="10.00">stdint.h</text>
</g>
<!-- Node1&#45;&gt;Node8 -->
<g id="edge14" class="edge"><title>Node1&#45;&gt;Node8</title>
<path fill="none" stroke="midnightblue" d="M279.714,-60.1183C313.243,-48.0342 353.657,-33.4687 381.73,-23.3512"/>
<polygon fill="midnightblue" stroke="midnightblue" points="383.257,-26.5211 391.478,-19.8377 380.884,-19.9357 383.257,-26.5211"/>
</g>
</g>
</svg>
