<?xml version="1.0" encoding="UTF-8" standalone="no"?>
<!DOCTYPE svg PUBLIC "-//W3C//DTD SVG 1.1//EN"
 "http://www.w3.org/Graphics/SVG/1.1/DTD/svg11.dtd">
<!-- Generated by graphviz version 2.26.3 (20100126.1600)
 -->
<!-- Title: swapBytes Pages: 1 -->
<svg width="408pt" height="30pt"
 viewBox="0.00 0.00 408.00 30.00" xmlns="http://www.w3.org/2000/svg" xmlns:xlink="http://www.w3.org/1999/xlink">
<g id="graph1" class="graph" transform="scale(1 1) rotate(0) translate(4 26)">
<title>swapBytes</title>
<!-- Node1 -->
<g id="node1" class="node"><title>Node1</title>
<polygon fill="#bfbfbf" stroke="black" points="0.5,-0.5 0.5,-21.5 65.5,-21.5 65.5,-0.5 0.5,-0.5"/>
<text text-anchor="middle" x="33" y="-8.5" font-family="Helvetica,sans-Serif" font-size="10.00">swapBytes</text>
</g>
<!-- Node2 -->
<g id="node3" class="node"><title>Node2</title>
<a xlink:href="classtetgenio.xhtml#a566bcdee657ea1ca15a64bcb2acd4231" target="_top" xlink:title="tetgenio::load_vtk">
<polygon fill="none" stroke="black" points="102,-0.5 102,-21.5 196,-21.5 196,-0.5 102,-0.5"/>
<text text-anchor="middle" x="149" y="-8.5" font-family="Helvetica,sans-Serif" font-size="10.00">tetgenio::load_vtk</text>
</a>
</g>
<!-- Node1&#45;&gt;Node2 -->
<g id="edge2" class="edge"><title>Node1&#45;&gt;Node2</title>
<path fill="none" stroke="midnightblue" d="M75.7278,-11C84.2506,-11 93.2472,-11 101.907,-11"/>
<polygon fill="midnightblue" stroke="midnightblue" points="75.6212,-7.5001 65.6212,-11 75.6211,-14.5001 75.6212,-7.5001"/>
</g>
<!-- Node3 -->
<g id="node5" class="node"><title>Node3</title>
<a xlink:href="classtetgenio.xhtml#ac47582d8d9a09f1d8d32221527a0aa7b" target="_top" xlink:title="tetgenio::load_plc">
<polygon fill="none" stroke="black" points="232.5,-0.5 232.5,-21.5 325.5,-21.5 325.5,-0.5 232.5,-0.5"/>
<text text-anchor="middle" x="279" y="-8.5" font-family="Helvetica,sans-Serif" font-size="10.00">tetgenio::load_plc</text>
</a>
</g>
<!-- Node2&#45;&gt;Node3 -->
<g id="edge4" class="edge"><title>Node2&#45;&gt;Node3</title>
<path fill="none" stroke="midnightblue" d="M206.385,-11C215.079,-11 223.958,-11 232.387,-11"/>
<polygon fill="midnightblue" stroke="midnightblue" points="206.301,-7.5001 196.301,-11 206.301,-14.5001 206.301,-7.5001"/>
</g>
<!-- Node4 -->
<g id="node7" class="node"><title>Node4</title>
<a xlink:href="tetgen_8cxx.xhtml#a0ddf1224851353fc92bfbff6f499fa97" target="_top" xlink:title="main">
<polygon fill="none" stroke="black" points="362,-0.5 362,-21.5 400,-21.5 400,-0.5 362,-0.5"/>
<text text-anchor="middle" x="381" y="-8.5" font-family="Helvetica,sans-Serif" font-size="10.00">main</text>
</a>
</g>
<!-- Node3&#45;&gt;Node4 -->
<g id="edge6" class="edge"><title>Node3&#45;&gt;Node4</title>
<path fill="none" stroke="midnightblue" d="M335.758,-11C345.152,-11 354.281,-11 361.85,-11"/>
<polygon fill="midnightblue" stroke="midnightblue" points="335.523,-7.5001 325.523,-11 335.523,-14.5001 335.523,-7.5001"/>
</g>
</g>
</svg>
