<?xml version="1.0" encoding="UTF-8" standalone="no"?>
<!DOCTYPE svg PUBLIC "-//W3C//DTD SVG 1.1//EN"
 "http://www.w3.org/Graphics/SVG/1.1/DTD/svg11.dtd">
<!-- Generated by graphviz version 2.26.3 (20100126.1600)
 -->
<!-- Title: /daten/Projekte/eclipse_workspace/tetgen1.5.0/tetgen.h Pages: 1 -->
<svg width="266pt" height="140pt"
 viewBox="0.00 0.00 266.00 140.00" xmlns="http://www.w3.org/2000/svg" xmlns:xlink="http://www.w3.org/1999/xlink">
<g id="graph1" class="graph" transform="scale(1 1) rotate(0) translate(4 136)">
<title>/daten/Projekte/eclipse_workspace/tetgen1.5.0/tetgen.h</title>
<!-- Node1 -->
<g id="node1" class="node"><title>Node1</title>
<polygon fill="#bfbfbf" stroke="black" points="68.5,-84.5 68.5,-131.5 189.5,-131.5 189.5,-84.5 68.5,-84.5"/>
<text text-anchor="start" x="76.5" y="-118.5" font-family="Helvetica,sans-Serif" font-size="10.00">/daten/Projekte/eclipse</text>
<text text-anchor="start" x="76.5" y="-105.5" font-family="Helvetica,sans-Serif" font-size="10.00">_workspace/tetgen1.5.0</text>
<text text-anchor="middle" x="129" y="-92.5" font-family="Helvetica,sans-Serif" font-size="10.00">/tetgen.h</text>
</g>
<!-- Node2 -->
<g id="node3" class="node"><title>Node2</title>
<a xlink:href="predicates_8cxx.xhtml" target="_top" xlink:title="/daten/Projekte/eclipse\l_workspace/tetgen1.5.0\l/predicates.cxx">
<polygon fill="none" stroke="black" points="-0.5,-0.5 -0.5,-47.5 120.5,-47.5 120.5,-0.5 -0.5,-0.5"/>
<text text-anchor="start" x="7.5" y="-34.5" font-family="Helvetica,sans-Serif" font-size="10.00">/daten/Projekte/eclipse</text>
<text text-anchor="start" x="7.5" y="-21.5" font-family="Helvetica,sans-Serif" font-size="10.00">_workspace/tetgen1.5.0</text>
<text text-anchor="middle" x="60" y="-8.5" font-family="Helvetica,sans-Serif" font-size="10.00">/predicates.cxx</text>
</a>
</g>
<!-- Node1&#45;&gt;Node2 -->
<g id="edge2" class="edge"><title>Node1&#45;&gt;Node2</title>
<path fill="none" stroke="midnightblue" d="M103.017,-76.3687C95.1835,-66.8321 86.7248,-56.5345 79.3982,-47.6152"/>
<polygon fill="midnightblue" stroke="midnightblue" points="100.36,-78.648 109.412,-84.1537 105.769,-74.2048 100.36,-78.648"/>
</g>
<!-- Node3 -->
<g id="node5" class="node"><title>Node3</title>
<a xlink:href="tetgen_8cxx.xhtml" target="_top" xlink:title="/daten/Projekte/eclipse\l_workspace/tetgen1.5.0\l/tetgen.cxx">
<polygon fill="none" stroke="black" points="137.5,-0.5 137.5,-47.5 258.5,-47.5 258.5,-0.5 137.5,-0.5"/>
<text text-anchor="start" x="145.5" y="-34.5" font-family="Helvetica,sans-Serif" font-size="10.00">/daten/Projekte/eclipse</text>
<text text-anchor="start" x="145.5" y="-21.5" font-family="Helvetica,sans-Serif" font-size="10.00">_workspace/tetgen1.5.0</text>
<text text-anchor="middle" x="198" y="-8.5" font-family="Helvetica,sans-Serif" font-size="10.00">/tetgen.cxx</text>
</a>
</g>
<!-- Node1&#45;&gt;Node3 -->
<g id="edge4" class="edge"><title>Node1&#45;&gt;Node3</title>
<path fill="none" stroke="midnightblue" d="M154.983,-76.3687C162.817,-66.8321 171.275,-56.5345 178.602,-47.6152"/>
<polygon fill="midnightblue" stroke="midnightblue" points="152.231,-74.2048 148.588,-84.1537 157.64,-78.648 152.231,-74.2048"/>
</g>
</g>
</svg>
