<?xml version="1.0" encoding="UTF-8" standalone="no"?>
<!DOCTYPE svg PUBLIC "-//W3C//DTD SVG 1.1//EN"
 "http://www.w3.org/Graphics/SVG/1.1/DTD/svg11.dtd">
<!-- Generated by graphviz version 2.26.3 (20100126.1600)
 -->
<!-- Title: testIsBigEndian Pages: 1 -->
<svg width="428pt" height="30pt"
 viewBox="0.00 0.00 428.00 30.00" xmlns="http://www.w3.org/2000/svg" xmlns:xlink="http://www.w3.org/1999/xlink">
<g id="graph1" class="graph" transform="scale(1 1) rotate(0) translate(4 26)">
<title>testIsBigEndian</title>
<!-- Node1 -->
<g id="node1" class="node"><title>Node1</title>
<polygon fill="#bfbfbf" stroke="black" points="0,-0.5 0,-21.5 86,-21.5 86,-0.5 0,-0.5"/>
<text text-anchor="middle" x="43" y="-8.5" font-family="Helvetica,sans-Serif" font-size="10.00">testIsBigEndian</text>
</g>
<!-- Node2 -->
<g id="node3" class="node"><title>Node2</title>
<a xlink:href="classtetgenio.xhtml#a566bcdee657ea1ca15a64bcb2acd4231" target="_top" xlink:title="tetgenio::load_vtk">
<polygon fill="none" stroke="black" points="122,-0.5 122,-21.5 216,-21.5 216,-0.5 122,-0.5"/>
<text text-anchor="middle" x="169" y="-8.5" font-family="Helvetica,sans-Serif" font-size="10.00">tetgenio::load_vtk</text>
</a>
</g>
<!-- Node1&#45;&gt;Node2 -->
<g id="edge2" class="edge"><title>Node1&#45;&gt;Node2</title>
<path fill="none" stroke="midnightblue" d="M96.2324,-11C104.748,-11 113.507,-11 121.868,-11"/>
<polygon fill="midnightblue" stroke="midnightblue" points="96.0097,-7.5001 86.0096,-11 96.0096,-14.5001 96.0097,-7.5001"/>
</g>
<!-- Node3 -->
<g id="node5" class="node"><title>Node3</title>
<a xlink:href="classtetgenio.xhtml#ac47582d8d9a09f1d8d32221527a0aa7b" target="_top" xlink:title="tetgenio::load_plc">
<polygon fill="none" stroke="black" points="252.5,-0.5 252.5,-21.5 345.5,-21.5 345.5,-0.5 252.5,-0.5"/>
<text text-anchor="middle" x="299" y="-8.5" font-family="Helvetica,sans-Serif" font-size="10.00">tetgenio::load_plc</text>
</a>
</g>
<!-- Node2&#45;&gt;Node3 -->
<g id="edge4" class="edge"><title>Node2&#45;&gt;Node3</title>
<path fill="none" stroke="midnightblue" d="M226.385,-11C235.079,-11 243.958,-11 252.387,-11"/>
<polygon fill="midnightblue" stroke="midnightblue" points="226.301,-7.5001 216.301,-11 226.301,-14.5001 226.301,-7.5001"/>
</g>
<!-- Node4 -->
<g id="node7" class="node"><title>Node4</title>
<a xlink:href="tetgen_8cxx.xhtml#a0ddf1224851353fc92bfbff6f499fa97" target="_top" xlink:title="main">
<polygon fill="none" stroke="black" points="382,-0.5 382,-21.5 420,-21.5 420,-0.5 382,-0.5"/>
<text text-anchor="middle" x="401" y="-8.5" font-family="Helvetica,sans-Serif" font-size="10.00">main</text>
</a>
</g>
<!-- Node3&#45;&gt;Node4 -->
<g id="edge6" class="edge"><title>Node3&#45;&gt;Node4</title>
<path fill="none" stroke="midnightblue" d="M355.758,-11C365.152,-11 374.281,-11 381.85,-11"/>
<polygon fill="midnightblue" stroke="midnightblue" points="355.523,-7.5001 345.523,-11 355.523,-14.5001 355.523,-7.5001"/>
</g>
</g>
</svg>
