<?xml version="1.0" encoding="UTF-8" standalone="no"?>
<!DOCTYPE svg PUBLIC "-//W3C//DTD SVG 1.1//EN"
 "http://www.w3.org/Graphics/SVG/1.1/DTD/svg11.dtd">
<!-- Generated by graphviz version 2.26.3 (20100126.1600)
 -->
<!-- Title: orient3d Pages: 1 -->
<svg width="340pt" height="122pt"
 viewBox="0.00 0.00 340.00 122.00" xmlns="http://www.w3.org/2000/svg" xmlns:xlink="http://www.w3.org/1999/xlink">
<g id="graph1" class="graph" transform="scale(1 1) rotate(0) translate(4 118)">
<title>orient3d</title>
<!-- Node1 -->
<g id="node1" class="node"><title>Node1</title>
<polygon fill="#bfbfbf" stroke="black" points="0.5,-46.5 0.5,-67.5 51.5,-67.5 51.5,-46.5 0.5,-46.5"/>
<text text-anchor="middle" x="26" y="-54.5" font-family="Helvetica,sans-Serif" font-size="10.00">orient3d</text>
</g>
<!-- Node2 -->
<g id="node3" class="node"><title>Node2</title>
<a xlink:href="predicates_8cxx.xhtml#ae16b246ccaad9f1d90f37590816c5fde" target="_top" xlink:title="orient3dadapt">
<polygon fill="none" stroke="black" points="88.5,-46.5 88.5,-67.5 163.5,-67.5 163.5,-46.5 88.5,-46.5"/>
<text text-anchor="middle" x="126" y="-54.5" font-family="Helvetica,sans-Serif" font-size="10.00">orient3dadapt</text>
</a>
</g>
<!-- Node1&#45;&gt;Node2 -->
<g id="edge2" class="edge"><title>Node1&#45;&gt;Node2</title>
<path fill="none" stroke="midnightblue" d="M51.7525,-57C59.8253,-57 69.0108,-57 78.1034,-57"/>
<polygon fill="midnightblue" stroke="midnightblue" points="78.2656,-60.5001 88.2655,-57 78.2655,-53.5001 78.2656,-60.5001"/>
</g>
<!-- Node3 -->
<g id="node5" class="node"><title>Node3</title>
<a xlink:href="predicates_8cxx.xhtml#abdcdaa8948d9a2937154d9d67f67da8d" target="_top" xlink:title="scale_expansion_zeroelim">
<polygon fill="none" stroke="black" points="200.5,-92.5 200.5,-113.5 331.5,-113.5 331.5,-92.5 200.5,-92.5"/>
<text text-anchor="middle" x="266" y="-100.5" font-family="Helvetica,sans-Serif" font-size="10.00">scale_expansion_zeroelim</text>
</a>
</g>
<!-- Node2&#45;&gt;Node3 -->
<g id="edge4" class="edge"><title>Node2&#45;&gt;Node3</title>
<path fill="none" stroke="midnightblue" d="M155.072,-67.544C168.671,-72.3916 185.116,-78.1326 200,-83 206.575,-85.1503 213.545,-87.3488 220.396,-89.4642"/>
<polygon fill="midnightblue" stroke="midnightblue" points="219.701,-92.9118 230.288,-92.4887 221.748,-86.2177 219.701,-92.9118"/>
</g>
<!-- Node4 -->
<g id="node7" class="node"><title>Node4</title>
<a xlink:href="predicates_8cxx.xhtml#a37646a7e0014e10c612e946bc95aeeea" target="_top" xlink:title="fast_expansion_sum\l_zeroelim">
<polygon fill="none" stroke="black" points="212.5,-40 212.5,-74 319.5,-74 319.5,-40 212.5,-40"/>
<text text-anchor="start" x="220.5" y="-61" font-family="Helvetica,sans-Serif" font-size="10.00">fast_expansion_sum</text>
<text text-anchor="middle" x="266" y="-48" font-family="Helvetica,sans-Serif" font-size="10.00">_zeroelim</text>
</a>
</g>
<!-- Node2&#45;&gt;Node4 -->
<g id="edge6" class="edge"><title>Node2&#45;&gt;Node4</title>
<path fill="none" stroke="midnightblue" d="M163.517,-57C175.458,-57 189.019,-57 202.277,-57"/>
<polygon fill="midnightblue" stroke="midnightblue" points="202.324,-60.5001 212.324,-57 202.324,-53.5001 202.324,-60.5001"/>
</g>
<!-- Node5 -->
<g id="node9" class="node"><title>Node5</title>
<a xlink:href="predicates_8cxx.xhtml#a3487d9f90ea72da543d5d38b3dab1fbc" target="_top" xlink:title="estimate">
<polygon fill="none" stroke="black" points="239,-0.5 239,-21.5 293,-21.5 293,-0.5 239,-0.5"/>
<text text-anchor="middle" x="266" y="-8.5" font-family="Helvetica,sans-Serif" font-size="10.00">estimate</text>
</a>
</g>
<!-- Node2&#45;&gt;Node5 -->
<g id="edge8" class="edge"><title>Node2&#45;&gt;Node5</title>
<path fill="none" stroke="midnightblue" d="M155.072,-46.456C168.671,-41.6084 185.116,-35.8674 200,-31 209.459,-27.9066 219.735,-24.7134 229.298,-21.8113"/>
<polygon fill="midnightblue" stroke="midnightblue" points="230.376,-25.1422 238.943,-18.9089 228.359,-18.4391 230.376,-25.1422"/>
</g>
</g>
</svg>
