<?xml version="1.0" encoding="UTF-8" standalone="no"?>
<!DOCTYPE svg PUBLIC "-//W3C//DTD SVG 1.1//EN"
 "http://www.w3.org/Graphics/SVG/1.1/DTD/svg11.dtd">
<!-- Generated by graphviz version 2.26.3 (20100126.1600)
 -->
<!-- Title: /daten/Projekte/eclipse_workspace/simpleanalyzer&#45;gui/src/GUI/ViewpropBox.cpp Pages: 1 -->
<!--zoomable 432 -->
<svg id="main" version="1.1" xmlns="http://www.w3.org/2000/svg" xmlns:xlink="http://www.w3.org/1999/xlink" xml:space="preserve" onload="init(evt)">
<style type="text/css"><![CDATA[
.edge:hover path { stroke: red; }
.edge:hover polygon { stroke: red; fill: red; }
]]></style>
<script type="text/javascript"><![CDATA[
var edges = document.getElementsByTagName('g');
if (edges && edges.length) {
  for (var i=0;i<edges.length;i++) {
    if (edges[i].id.substr(0,4)=='edge') {
      edges[i].setAttribute('class','edge');
    }
  }
}
]]></script>
        <defs>
                <circle id="rim" cx="0" cy="0" r="7"/>
                <circle id="rim2" cx="0" cy="0" r="3.5"/>
                <g id="zoomPlus">
                        <use xlink:href="#rim" fill="#404040">
                                <set attributeName="fill" to="#808080" begin="zoomplus.mouseover" end="zoomplus.mouseout"/>
                        </use>
                        <path d="M-4,0h8M0,-4v8" fill="none" stroke="white" stroke-width="1.5" pointer-events="none"/>
                </g>
                <g id="zoomMin">
                        <use xlink:href="#rim" fill="#404040">
                                <set attributeName="fill" to="#808080" begin="zoomminus.mouseover" end="zoomminus.mouseout"/>
                        </use>
                        <path d="M-4,0h8" fill="none" stroke="white" stroke-width="1.5" pointer-events="none"/>
                </g>
                <g id="dirArrow">
                        <path fill="none" stroke="white" stroke-width="1.5" d="M0,-3.0v7 M-2.5,-0.5L0,-3.0L2.5,-0.5"/>
                </g>
               <g id="resetDef">
                       <use xlink:href="#rim2" fill="#404040">
                               <set attributeName="fill" to="#808080" begin="reset.mouseover" end="reset.mouseout"/>
                       </use>
               </g>
        </defs>

<script type="text/javascript">
var viewWidth = 708;
var viewHeight = 432;
var sectionId = 'dynsection-0';
</script>
<script xlink:href="svgpan.js"/>
<svg id="graph" class="graph">
<g id="viewport">
<title>/daten/Projekte/eclipse_workspace/simpleanalyzer&#45;gui/src/GUI/ViewpropBox.cpp</title>
<!-- Node1 -->
<g id="node1" class="node"><title>Node1</title>
<polygon fill="#bfbfbf" stroke="black" points="181.5,-376.5 181.5,-423.5 330.5,-423.5 330.5,-376.5 181.5,-376.5"/>
<text text-anchor="start" x="189.5" y="-410.5" font-family="Helvetica,sans-Serif" font-size="10.00">/daten/Projekte/eclipse</text>
<text text-anchor="start" x="189.5" y="-397.5" font-family="Helvetica,sans-Serif" font-size="10.00">_workspace/simpleanalyzer</text>
<text text-anchor="middle" x="256" y="-384.5" font-family="Helvetica,sans-Serif" font-size="10.00">&#45;gui/src/GUI/ViewpropBox.cpp</text>
</g>
<!-- Node2 -->
<g id="node3" class="node"><title>Node2</title>
<a xlink:href="ViewpropBox_8h.xhtml" target="_top" xlink:title="ViewpropBox.h">
<polygon fill="none" stroke="black" points="144.5,-318.5 144.5,-339.5 227.5,-339.5 227.5,-318.5 144.5,-318.5"/>
<text text-anchor="middle" x="186" y="-326.5" font-family="Helvetica,sans-Serif" font-size="10.00">ViewpropBox.h</text>
</a>
</g>
<!-- Node1&#45;&gt;Node2 -->
<g id="edge2" class="edge"><title>Node1&#45;&gt;Node2</title>
<path fill="none" stroke="midnightblue" d="M232.691,-376.358C223.217,-366.748 212.451,-355.829 203.647,-346.899"/>
<polygon fill="midnightblue" stroke="midnightblue" points="206.009,-344.31 196.496,-339.646 201.025,-349.225 206.009,-344.31"/>
</g>
<!-- Node5 -->
<g id="node9" class="node"><title>Node5</title>
<a xlink:href="constants_8h.xhtml" target="_top" xlink:title="constants.h">
<polygon fill="none" stroke="black" points="0,-260.5 0,-281.5 68,-281.5 68,-260.5 0,-260.5"/>
<text text-anchor="middle" x="34" y="-268.5" font-family="Helvetica,sans-Serif" font-size="10.00">constants.h</text>
</a>
</g>
<!-- Node1&#45;&gt;Node5 -->
<g id="edge8" class="edge"><title>Node1&#45;&gt;Node5</title>
<path fill="none" stroke="midnightblue" d="M205.303,-376.478C183.613,-365.949 158.217,-352.994 136,-340 107.867,-323.546 77.0707,-302.222 56.7588,-287.661"/>
<polygon fill="midnightblue" stroke="midnightblue" points="58.6294,-284.695 48.4727,-281.679 54.532,-290.37 58.6294,-284.695"/>
</g>
<!-- Node6 -->
<g id="node12" class="node"><title>Node6</title>
<a xlink:href="Renderer_8h.xhtml" target="_top" xlink:title="Renderer.h">
<polygon fill="none" stroke="black" points="293.5,-318.5 293.5,-339.5 358.5,-339.5 358.5,-318.5 293.5,-318.5"/>
<text text-anchor="middle" x="326" y="-326.5" font-family="Helvetica,sans-Serif" font-size="10.00">Renderer.h</text>
</a>
</g>
<!-- Node1&#45;&gt;Node6 -->
<g id="edge12" class="edge"><title>Node1&#45;&gt;Node6</title>
<path fill="none" stroke="midnightblue" d="M279.309,-376.358C288.783,-366.748 299.549,-355.829 308.353,-346.899"/>
<polygon fill="midnightblue" stroke="midnightblue" points="310.975,-349.225 315.504,-339.646 305.991,-344.31 310.975,-349.225"/>
</g>
<!-- Node10 -->
<g id="node20" class="node"><title>Node10</title>
<polygon fill="none" stroke="#bfbfbf" points="492,-0.5 492,-21.5 546,-21.5 546,-0.5 492,-0.5"/>
<text text-anchor="middle" x="519" y="-8.5" font-family="Helvetica,sans-Serif" font-size="10.00">iostream</text>
</g>
<!-- Node1&#45;&gt;Node10 -->
<g id="edge58" class="edge"><title>Node1&#45;&gt;Node10</title>
<path fill="none" stroke="midnightblue" d="M330.566,-393.78C457.032,-381.154 700,-347.006 700,-271 700,-271 700,-271 700,-148 700,-76.3587 608.734,-37.3815 555.816,-20.8032"/>
<polygon fill="midnightblue" stroke="midnightblue" points="556.682,-17.4087 546.098,-17.8742 554.662,-24.1109 556.682,-17.4087"/>
</g>
<!-- Node3 -->
<g id="node5" class="node"><title>Node3</title>
<polygon fill="none" stroke="#bfbfbf" points="7.5,-137.5 7.5,-158.5 60.5,-158.5 60.5,-137.5 7.5,-137.5"/>
<text text-anchor="middle" x="34" y="-145.5" font-family="Helvetica,sans-Serif" font-size="10.00">wx/wx.h</text>
</g>
<!-- Node2&#45;&gt;Node3 -->
<g id="edge4" class="edge"><title>Node2&#45;&gt;Node3</title>
<path fill="none" stroke="midnightblue" d="M185.049,-318.391C183.354,-304.121 178.797,-278.413 167,-260 139.993,-217.847 92.1601,-183.305 61.819,-164.204"/>
<polygon fill="midnightblue" stroke="midnightblue" points="63.3576,-161.042 53.0068,-158.781 59.6886,-167.003 63.3576,-161.042"/>
</g>
<!-- Node4 -->
<g id="node7" class="node"><title>Node4</title>
<polygon fill="none" stroke="#bfbfbf" points="86,-260.5 86,-281.5 158,-281.5 158,-260.5 86,-260.5"/>
<text text-anchor="middle" x="122" y="-268.5" font-family="Helvetica,sans-Serif" font-size="10.00">wx/spinctrl.h</text>
</g>
<!-- Node2&#45;&gt;Node4 -->
<g id="edge6" class="edge"><title>Node2&#45;&gt;Node4</title>
<path fill="none" stroke="midnightblue" d="M174.261,-318.362C165.059,-310.023 152.06,-298.242 141.328,-288.516"/>
<polygon fill="midnightblue" stroke="midnightblue" points="143.424,-285.692 133.664,-281.571 138.724,-290.879 143.424,-285.692"/>
</g>
<!-- Node5&#45;&gt;Node3 -->
<g id="edge10" class="edge"><title>Node5&#45;&gt;Node3</title>
<path fill="none" stroke="midnightblue" d="M34,-260.085C34,-239.609 34,-195.133 34,-168.778"/>
<polygon fill="midnightblue" stroke="midnightblue" points="37.5001,-168.715 34,-158.715 30.5001,-168.715 37.5001,-168.715"/>
</g>
<!-- Node6&#45;&gt;Node3 -->
<g id="edge56" class="edge"><title>Node6&#45;&gt;Node3</title>
<path fill="none" stroke="midnightblue" d="M311.945,-318.467C281.46,-295.833 206.635,-241.417 140,-202 109.549,-183.987 100.509,-182.091 69,-166 67.2657,-165.114 65.4837,-164.203 63.6862,-163.282"/>
<polygon fill="midnightblue" stroke="midnightblue" points="65.2129,-160.132 54.718,-158.68 62.0169,-166.359 65.2129,-160.132"/>
</g>
<!-- Node7 -->
<g id="node14" class="node"><title>Node7</title>
<polygon fill="none" stroke="#bfbfbf" points="77.5,-131 77.5,-165 166.5,-165 166.5,-131 77.5,-131"/>
<text text-anchor="start" x="85.5" y="-152" font-family="Helvetica,sans-Serif" font-size="10.00">../libraries/tetgen</text>
<text text-anchor="middle" x="122" y="-139" font-family="Helvetica,sans-Serif" font-size="10.00">/tetgen.h</text>
</g>
<!-- Node6&#45;&gt;Node7 -->
<g id="edge14" class="edge"><title>Node6&#45;&gt;Node7</title>
<path fill="none" stroke="midnightblue" d="M321.099,-318.39C309.659,-294.64 279.024,-236.572 238,-202 219.955,-186.793 196.912,-174.908 176.125,-166.207"/>
<polygon fill="midnightblue" stroke="midnightblue" points="177.343,-162.924 166.76,-162.433 174.727,-169.417 177.343,-162.924"/>
</g>
<!-- Node8 -->
<g id="node16" class="node"><title>Node8</title>
<polygon fill="none" stroke="#bfbfbf" points="590,-137.5 590,-158.5 634,-158.5 634,-137.5 590,-137.5"/>
<text text-anchor="middle" x="612" y="-145.5" font-family="Helvetica,sans-Serif" font-size="10.00">vector</text>
</g>
<!-- Node6&#45;&gt;Node8 -->
<g id="edge16" class="edge"><title>Node6&#45;&gt;Node8</title>
<path fill="none" stroke="midnightblue" d="M358.618,-324.742C394.375,-319.035 452.569,-306.63 497,-282 546.356,-254.64 584.192,-197.343 601.556,-167.308"/>
<polygon fill="midnightblue" stroke="midnightblue" points="604.61,-169.019 606.463,-158.587 598.509,-165.586 604.61,-169.019"/>
</g>
<!-- Node9 -->
<g id="node18" class="node"><title>Node9</title>
<a xlink:href="GeometryClasses_8h.xhtml" target="_top" xlink:title="../libraries/interpolate\l/GeometryClasses.h">
<polygon fill="none" stroke="black" points="465.5,-59 465.5,-93 572.5,-93 572.5,-59 465.5,-59"/>
<text text-anchor="start" x="473.5" y="-80" font-family="Helvetica,sans-Serif" font-size="10.00">../libraries/interpolate</text>
<text text-anchor="middle" x="519" y="-67" font-family="Helvetica,sans-Serif" font-size="10.00">/GeometryClasses.h</text>
</a>
</g>
<!-- Node6&#45;&gt;Node9 -->
<g id="edge18" class="edge"><title>Node6&#45;&gt;Node9</title>
<path fill="none" stroke="midnightblue" d="M358.776,-326.778C400.083,-322.792 472.181,-311.819 526,-282 590.051,-246.512 614.833,-233.591 643,-166 649.155,-151.231 651.769,-143.383 643,-130 629.319,-109.12 605.616,-96.2695 582.574,-88.3803"/>
<polygon fill="midnightblue" stroke="midnightblue" points="583.36,-84.9585 572.771,-85.294 581.258,-91.6355 583.36,-84.9585"/>
</g>
<!-- Node11 -->
<g id="node22" class="node"><title>Node11</title>
<a xlink:href="ObjectData_8h.xhtml" target="_top" xlink:title="../processing/ObjectData.h">
<polygon fill="none" stroke="black" points="354,-260.5 354,-281.5 488,-281.5 488,-260.5 354,-260.5"/>
<text text-anchor="middle" x="421" y="-268.5" font-family="Helvetica,sans-Serif" font-size="10.00">../processing/ObjectData.h</text>
</a>
</g>
<!-- Node6&#45;&gt;Node11 -->
<g id="edge22" class="edge"><title>Node6&#45;&gt;Node11</title>
<path fill="none" stroke="midnightblue" d="M343.424,-318.362C357.887,-309.532 378.669,-296.844 395.084,-286.822"/>
<polygon fill="midnightblue" stroke="midnightblue" points="396.975,-289.769 403.686,-281.571 393.327,-283.794 396.975,-289.769"/>
</g>
<!-- Node14 -->
<g id="node31" class="node"><title>Node14</title>
<a xlink:href="utils_8h.xhtml" target="_top" xlink:title="utils.h">
<polygon fill="none" stroke="black" points="327.5,-202.5 327.5,-223.5 370.5,-223.5 370.5,-202.5 327.5,-202.5"/>
<text text-anchor="middle" x="349" y="-210.5" font-family="Helvetica,sans-Serif" font-size="10.00">utils.h</text>
</a>
</g>
<!-- Node6&#45;&gt;Node14 -->
<g id="edge54" class="edge"><title>Node6&#45;&gt;Node14</title>
<path fill="none" stroke="midnightblue" d="M328.123,-318.295C331.939,-299.045 340.02,-258.289 344.934,-233.509"/>
<polygon fill="midnightblue" stroke="midnightblue" points="348.371,-234.169 346.883,-223.679 341.504,-232.808 348.371,-234.169"/>
</g>
<!-- Node9&#45;&gt;Node10 -->
<g id="edge20" class="edge"><title>Node9&#45;&gt;Node10</title>
<path fill="none" stroke="midnightblue" d="M519,-58.922C519,-50.6704 519,-40.6922 519,-31.9818"/>
<polygon fill="midnightblue" stroke="midnightblue" points="522.5,-31.8521 519,-21.8521 515.5,-31.8521 522.5,-31.8521"/>
</g>
<!-- Node11&#45;&gt;Node7 -->
<g id="edge24" class="edge"><title>Node11&#45;&gt;Node7</title>
<path fill="none" stroke="midnightblue" d="M397.373,-260.445C376.617,-251.094 345.656,-236.954 319,-224 299.692,-214.617 295.73,-210.46 276,-202 243.598,-188.106 206.311,-174.961 176.543,-165.119"/>
<polygon fill="midnightblue" stroke="midnightblue" points="177.347,-161.699 166.754,-161.912 175.167,-168.352 177.347,-161.699"/>
</g>
<!-- Node11&#45;&gt;Node8 -->
<g id="edge26" class="edge"><title>Node11&#45;&gt;Node8</title>
<path fill="none" stroke="midnightblue" d="M427.174,-260.342C436.402,-245.296 455.176,-217.894 478,-202 517.795,-174.288 536.945,-186.266 581,-166 582.594,-165.267 584.212,-164.477 585.831,-163.652"/>
<polygon fill="midnightblue" stroke="midnightblue" points="587.828,-166.549 594.93,-158.687 584.475,-160.404 587.828,-166.549"/>
</g>
<!-- Node12 -->
<g id="node26" class="node"><title>Node12</title>
<a xlink:href="Interpolator_8h.xhtml" target="_top" xlink:title="../libraries/interpolate\l/Interpolator.h">
<polygon fill="none" stroke="black" points="465.5,-131 465.5,-165 572.5,-165 572.5,-131 465.5,-131"/>
<text text-anchor="start" x="473.5" y="-152" font-family="Helvetica,sans-Serif" font-size="10.00">../libraries/interpolate</text>
<text text-anchor="middle" x="519" y="-139" font-family="Helvetica,sans-Serif" font-size="10.00">/Interpolator.h</text>
</a>
</g>
<!-- Node11&#45;&gt;Node12 -->
<g id="edge28" class="edge"><title>Node11&#45;&gt;Node12</title>
<path fill="none" stroke="midnightblue" d="M422.674,-260.252C425.352,-245.824 431.713,-219.937 445,-202 454.076,-189.747 466.733,-179.098 479.016,-170.57"/>
<polygon fill="midnightblue" stroke="midnightblue" points="481.006,-173.451 487.411,-165.011 477.141,-167.614 481.006,-173.451"/>
</g>
<!-- Node13 -->
<g id="node29" class="node"><title>Node13</title>
<polygon fill="none" stroke="#bfbfbf" points="486.5,-202.5 486.5,-223.5 551.5,-223.5 551.5,-202.5 486.5,-202.5"/>
<text text-anchor="middle" x="519" y="-210.5" font-family="Helvetica,sans-Serif" font-size="10.00">wx/string.h</text>
</g>
<!-- Node11&#45;&gt;Node13 -->
<g id="edge32" class="edge"><title>Node11&#45;&gt;Node13</title>
<path fill="none" stroke="midnightblue" d="M438.975,-260.362C453.894,-251.532 475.333,-238.844 492.266,-228.822"/>
<polygon fill="midnightblue" stroke="midnightblue" points="494.316,-231.676 501.139,-223.571 490.751,-225.652 494.316,-231.676"/>
</g>
<!-- Node11&#45;&gt;Node14 -->
<g id="edge34" class="edge"><title>Node11&#45;&gt;Node14</title>
<path fill="none" stroke="midnightblue" d="M407.794,-260.362C397.239,-251.859 382.242,-239.779 370.037,-229.947"/>
<polygon fill="midnightblue" stroke="midnightblue" points="372.105,-227.118 362.122,-223.571 367.714,-232.57 372.105,-227.118"/>
</g>
<!-- Node12&#45;&gt;Node9 -->
<g id="edge30" class="edge"><title>Node12&#45;&gt;Node9</title>
<path fill="none" stroke="midnightblue" d="M519,-130.937C519,-122.807 519,-112.876 519,-103.705"/>
<polygon fill="midnightblue" stroke="midnightblue" points="522.5,-103.441 519,-93.4407 515.5,-103.441 522.5,-103.441"/>
</g>
<!-- Node14&#45;&gt;Node3 -->
<g id="edge46" class="edge"><title>Node14&#45;&gt;Node3</title>
<path fill="none" stroke="midnightblue" d="M327.474,-210.261C270.605,-202.885 117.416,-182.08 69,-166 66.4143,-165.141 63.7849,-164.113 61.1882,-162.99"/>
<polygon fill="midnightblue" stroke="midnightblue" points="62.5956,-159.783 52.0634,-158.633 59.5794,-166.1 62.5956,-159.783"/>
</g>
<!-- Node14&#45;&gt;Node7 -->
<g id="edge48" class="edge"><title>Node14&#45;&gt;Node7</title>
<path fill="none" stroke="midnightblue" d="M327.199,-205.993C322.837,-204.635 318.281,-203.247 314,-202 254.794,-184.751 239.237,-183.142 180,-166 178.775,-165.646 177.537,-165.284 176.288,-164.918"/>
<polygon fill="midnightblue" stroke="midnightblue" points="177.179,-161.531 166.596,-162.03 175.18,-168.24 177.179,-161.531"/>
</g>
<!-- Node14&#45;&gt;Node8 -->
<g id="edge38" class="edge"><title>Node14&#45;&gt;Node8</title>
<path fill="none" stroke="midnightblue" d="M370.764,-210.978C412.643,-206.574 506.853,-194.161 581,-166 583.08,-165.21 585.183,-164.29 587.263,-163.291"/>
<polygon fill="midnightblue" stroke="midnightblue" points="588.92,-166.374 596.086,-158.569 585.617,-160.202 588.92,-166.374"/>
</g>
<!-- Node14&#45;&gt;Node9 -->
<g id="edge50" class="edge"><title>Node14&#45;&gt;Node9</title>
<path fill="none" stroke="midnightblue" d="M366.539,-202.373C381.051,-193.313 401.97,-179.627 419,-166 437.165,-151.465 439.78,-145.643 457,-130 468.029,-119.98 480.373,-109.153 491.125,-99.843"/>
<polygon fill="midnightblue" stroke="midnightblue" points="493.705,-102.24 498.989,-93.0577 489.132,-96.9405 493.705,-102.24"/>
</g>
<!-- Node14&#45;&gt;Node10 -->
<g id="edge36" class="edge"><title>Node14&#45;&gt;Node10</title>
<path fill="none" stroke="midnightblue" d="M327.229,-206.202C289.69,-194.381 216.443,-170.832 213,-166 203.716,-152.969 203.966,-143.206 213,-130 244.582,-83.8314 407.601,-38.5085 481.955,-19.8719"/>
<polygon fill="midnightblue" stroke="midnightblue" points="482.972,-23.2259 491.836,-17.422 481.287,-16.4316 482.972,-23.2259"/>
</g>
<!-- Node14&#45;&gt;Node12 -->
<g id="edge52" class="edge"><title>Node14&#45;&gt;Node12</title>
<path fill="none" stroke="midnightblue" d="M370.531,-204.768C394.093,-195.759 432.772,-180.97 464.744,-168.745"/>
<polygon fill="midnightblue" stroke="midnightblue" points="466.336,-171.883 474.426,-165.043 463.836,-165.345 466.336,-171.883"/>
</g>
<!-- Node15 -->
<g id="node35" class="node"><title>Node15</title>
<polygon fill="none" stroke="#bfbfbf" points="222,-137.5 222,-158.5 278,-158.5 278,-137.5 222,-137.5"/>
<text text-anchor="middle" x="250" y="-145.5" font-family="Helvetica,sans-Serif" font-size="10.00">algorithm</text>
</g>
<!-- Node14&#45;&gt;Node15 -->
<g id="edge40" class="edge"><title>Node14&#45;&gt;Node15</title>
<path fill="none" stroke="midnightblue" d="M332.652,-202.267C316.938,-191.949 292.975,-176.216 274.89,-164.342"/>
<polygon fill="midnightblue" stroke="midnightblue" points="276.324,-161.096 266.044,-158.534 272.482,-166.948 276.324,-161.096"/>
</g>
<!-- Node16 -->
<g id="node37" class="node"><title>Node16</title>
<polygon fill="none" stroke="#bfbfbf" points="296,-137.5 296,-158.5 340,-158.5 340,-137.5 296,-137.5"/>
<text text-anchor="middle" x="318" y="-145.5" font-family="Helvetica,sans-Serif" font-size="10.00">cmath</text>
</g>
<!-- Node14&#45;&gt;Node16 -->
<g id="edge42" class="edge"><title>Node14&#45;&gt;Node16</title>
<path fill="none" stroke="midnightblue" d="M343.881,-202.267C339.412,-192.896 332.812,-179.057 327.396,-167.7"/>
<polygon fill="midnightblue" stroke="midnightblue" points="330.488,-166.053 323.024,-158.534 324.169,-169.066 330.488,-166.053"/>
</g>
<!-- Node17 -->
<g id="node39" class="node"><title>Node17</title>
<polygon fill="none" stroke="#bfbfbf" points="358,-137.5 358,-158.5 410,-158.5 410,-137.5 358,-137.5"/>
<text text-anchor="middle" x="384" y="-145.5" font-family="Helvetica,sans-Serif" font-size="10.00">sstream</text>
</g>
<!-- Node14&#45;&gt;Node17 -->
<g id="edge44" class="edge"><title>Node14&#45;&gt;Node17</title>
<path fill="none" stroke="midnightblue" d="M354.78,-202.267C359.876,-192.801 367.428,-178.777 373.577,-167.357"/>
<polygon fill="midnightblue" stroke="midnightblue" points="376.669,-168.998 378.328,-158.534 370.505,-165.679 376.669,-168.998"/>
</g>
</g>
</svg>
        <g id="navigator" transform="translate(0 0)" fill="#404254">
                <rect fill="#f2f5e9" fill-opacity="0.5" stroke="#606060" stroke-width=".5" x="0" y="0" width="60" height="60"/>
                <use id="zoomplus" xlink:href="#zoomPlus" x="17" y="9" onmousedown="handleZoom(evt,'in')"/>
                <use id="zoomminus" xlink:href="#zoomMin" x="42" y="9" onmousedown="handleZoom(evt,'out')"/>
                <use id="reset" xlink:href="#resetDef" x="30" y="36" onmousedown="handleReset()"/>
                <g id="arrowUp" xlink:href="#dirArrow" transform="translate(30 24)" onmousedown="handlePan(0,-1)">
                  <use xlink:href="#rim" fill="#404040">
                        <set attributeName="fill" to="#808080" begin="arrowUp.mouseover" end="arrowUp.mouseout"/>
                  </use>
                  <path fill="none" stroke="white" stroke-width="1.5" d="M0,-3.0v7 M-2.5,-0.5L0,-3.0L2.5,-0.5"/>
                </g>
                <g id="arrowRight" xlink:href="#dirArrow" transform="rotate(90) translate(36 -43)" onmousedown="handlePan(1,0)">
                  <use xlink:href="#rim" fill="#404040">
                        <set attributeName="fill" to="#808080" begin="arrowRight.mouseover" end="arrowRight.mouseout"/>
                  </use>
                  <path fill="none" stroke="white" stroke-width="1.5" d="M0,-3.0v7 M-2.5,-0.5L0,-3.0L2.5,-0.5"/>
                </g>
                <g id="arrowDown" xlink:href="#dirArrow" transform="rotate(180) translate(-30 -48)" onmousedown="handlePan(0,1)">
                  <use xlink:href="#rim" fill="#404040">
                        <set attributeName="fill" to="#808080" begin="arrowDown.mouseover" end="arrowDown.mouseout"/>
                  </use>
                  <path fill="none" stroke="white" stroke-width="1.5" d="M0,-3.0v7 M-2.5,-0.5L0,-3.0L2.5,-0.5"/>
                </g>
                <g id="arrowLeft" xlink:href="#dirArrow" transform="rotate(270) translate(-36 17)" onmousedown="handlePan(-1,0)">
                  <use xlink:href="#rim" fill="#404040">
                        <set attributeName="fill" to="#808080" begin="arrowLeft.mouseover" end="arrowLeft.mouseout"/>
                  </use>
                  <path fill="none" stroke="white" stroke-width="1.5" d="M0,-3.0v7 M-2.5,-0.5L0,-3.0L2.5,-0.5"/>
                </g>
        </g>
        <svg viewBox="0 0 15 15" width="100%" height="30px" preserveAspectRatio="xMaxYMin meet">
         <g id="arrow_out" transform="scale(0.3 0.3)">
          <a xlink:href="ViewpropBox_8cpp__incl_org.svg" target="_base">
           <rect id="button" ry="5" rx="5" y="6" x="6" height="38" width="38"
                fill="#f2f5e9" fill-opacity="0.5" stroke="#606060" stroke-width="1.0"/>
           <path id="arrow"
             d="M 11.500037,31.436501 C 11.940474,20.09759 22.043105,11.32322 32.158766,21.979434 L 37.068811,17.246167 C 37.068811,17.246167 37.088388,32 37.088388,32 L 22.160133,31.978069 C 22.160133,31.978069 26.997745,27.140456 26.997745,27.140456 C 18.528582,18.264221 13.291696,25.230495 11.500037,31.436501 z"
             style="fill:#404040;"/>
          </a>
         </g>
        </svg>
</svg>
